<?xml version="1.0" encoding="utf-8"?>
<!-- Generator: Adobe Illustrator 19.2.1, SVG Export Plug-In . SVG Version: 6.00 Build 0)  -->
<svg version="1.1" id="Layer_1" xmlns="http://www.w3.org/2000/svg" xmlns:xlink="http://www.w3.org/1999/xlink" x="0px" y="0px"
	 viewBox="0 0 166.3 226.6" style="enable-background:new 0 0 166.3 226.6;" xml:space="preserve">
<path id="path147-6-9-8-7-4-5-62-52-8-0_1_" d="M8,28.8c-3.1,0.1-4.5,3.7-2.2,6.6c0.3,0.4,0.4,0.7-0.2,0.3C4,34.6,1,35.3,0.9,38.6
	c-0.2,4.1,5.3,5.3,6.3,0.9c0.1-0.5,0.4-0.4,0.3,0.2c-0.1,1.8-0.6,3.4-1.4,5c1.2,0,2.5,0,3.7,0c-0.7-1.6-1.3-3.3-1.4-5
	C8.3,39,8.7,39,8.7,39.5c1,4.4,6.5,3.2,6.3-0.9c-0.2-3.3-3.1-4-4.7-2.9c-0.6,0.4-0.6,0.2-0.2-0.3C12.5,32.5,11.1,28.8,8,28.8L8,28.8
	L8,28.8z"/>
<path id="path31-6-7-6_1_" d="M0,26.3V-0.1h2.5v26.3H0V26.3z"/>
<path id="path33-9-3-6_1_" d="M10.1-0.1c-2.5,0-4.4,2.2-4.4,5v16.3c0,2.8,2,5,4.4,5h1.4c2.5,0,4.4-2.2,4.4-5V5c0-2.8-2-5-4.4-5h-1.4
	V-0.1z M10.8,2.4c1.4,0,2.6,1.1,2.6,2.5v16.5c0,1.4-1.2,2.5-2.6,2.5s-2.6-1.1-2.6-2.5V4.9C8.2,3.5,9.4,2.4,10.8,2.4L10.8,2.4z"/>
</svg>
