<?xml version="1.0" encoding="utf-8"?>
<!-- Generator: Adobe Illustrator 19.2.1, SVG Export Plug-In . SVG Version: 6.00 Build 0)  -->
<svg version="1.1" id="Layer_1" xmlns="http://www.w3.org/2000/svg" xmlns:xlink="http://www.w3.org/1999/xlink" x="0px" y="0px"
	 viewBox="0 0 168 226.6" style="enable-background:new 0 0 168 226.6;" xml:space="preserve">
<path d="M8.8,28.8c-3.1,0.1-4.5,3.7-2.2,6.6c0.3,0.4,0.4,0.7-0.2,0.3c-1.6-1.1-4.6-0.4-4.7,2.9C1.5,42.7,7,43.9,8,39.5
	c0.1-0.5,0.4-0.4,0.3,0.2c-0.1,1.8-0.6,3.4-1.4,5c1.2,0,2.5,0,3.7,0c-0.7-1.6-1.3-3.3-1.4-5C9.1,39,9.5,39,9.5,39.5
	c1,4.4,6.5,3.2,6.3-0.9c-0.2-3.3-3.1-4-4.7-2.9c-0.6,0.4-0.6,0.2-0.2-0.3C13.3,32.5,11.9,28.8,8.8,28.8L8.8,28.8L8.8,28.8z"/>
<path d="M9.4,23.4H12l-3.9-9.7l-3,4.1v5.6h2.1v2.9H0v-2.9h2.4V2.5H0v-2.6h7.5v2.6H5.4v10.2l6.5-10.3H9.6v-2.5h7.9v2.5h-2.1L10,10.9
	l5.2,12.5h2.3v2.9H9.3L9.4,23.4L9.4,23.4z"/>
</svg>
