<!-- Generator: Adobe Illustrator 19.2.1, SVG Export Plug-In  -->
<svg version="1.1"
	 xmlns="http://www.w3.org/2000/svg" xmlns:xlink="http://www.w3.org/1999/xlink" xmlns:a="http://ns.adobe.com/AdobeSVGViewerExtensions/3.0/"
	 x="0px" y="0px" width="16.2px" height="44.8px" viewBox="0 0 16.2 44.8" style="enable-background:new 0 0 16.2 44.8;"
	 xml:space="preserve">
<style type="text/css">
	.st0{fill:#D40000;}
</style>
<defs>
</defs>
<path id="path6399-9_2_" class="st0" d="M8,44.8c-1.7-2.9-3.5-5.6-5.8-8c2.3-2.4,4.1-5.1,5.8-8c1.7,2.9,3.5,5.6,5.8,8
	C11.5,39.1,9.7,41.9,8,44.8z"/>
<path id="path41-87-9-4-8_2_" class="st0" d="M0,26.3V24h2.2L6.8,0h2.6l5.1,24h1.7v2.3h-6V24h1.6l-0.6-3.7h-6L4.7,24h1.6v2.3H0
	L0,26.3z M10.6,17.8L8,4.9L5.7,17.8H10.6z"/>
</svg>
