<?xml version="1.0" encoding="utf-8"?>
<!-- Generator: Adobe Illustrator 19.2.1, SVG Export Plug-In . SVG Version: 6.00 Build 0)  -->
<svg version="1.1" id="Layer_1" xmlns="http://www.w3.org/2000/svg" xmlns:xlink="http://www.w3.org/1999/xlink" x="0px" y="0px"
	 viewBox="0 0 167.4 226.6" style="enable-background:new 0 0 167.4 226.6;" xml:space="preserve">
<style type="text/css">
	.st0{fill:#D40000;}
</style>
<path id="path6586-2_1_" class="st0" d="M8.5,44.8c-1.7-2.9-3.5-5.6-5.8-8c2.3-2.4,4.1-5.1,5.8-8c1.7,2.9,3.5,5.6,5.8,8
	C12.1,39.1,10.2,41.9,8.5,44.8z"/>
<path id="path17-2-9-4-8_1_" class="st0" d="M0,20.6l2-1.5c1.8,2.9,3.7,4.8,6.8,4.4c4.5-0.3,6.4-5.1,5.5-8.6
	c-0.9-3.2-4.7-4.8-7.6-3.1c-0.7,0.4-1.4,0.7-1.5,0.7c-0.3,0-1-1.4-0.9-1.8c2-2.9,6.9-8,6.9-8H3.5v3.4H0.6V0h14.6v2.1
	c0,0-4,4.1-5.3,6.4c3.2,0.1,5.9,2.1,6.8,5.3c0.5,1.7,0.3,5.6-0.4,7.3c-1.2,2.8-4.5,5.1-7.5,5.2C3.9,26.6,1.3,23.2,0,20.6L0,20.6
	L0,20.6z"/>
</svg>
