<?xml version="1.0" encoding="utf-8"?>
<!-- Generator: Adobe Illustrator 19.2.1, SVG Export Plug-In . SVG Version: 6.00 Build 0)  -->
<svg version="1.1" id="Layer_1" xmlns="http://www.w3.org/2000/svg" xmlns:xlink="http://www.w3.org/1999/xlink" x="0px" y="0px"
	 viewBox="0 0 166.8 226.6" style="enable-background:new 0 0 166.8 226.6;" xml:space="preserve">
<style type="text/css">
	.st0{fill:#D40000;}
</style>
<path id="path6654-0_1_" class="st0" d="M8.2,44.8c-1.7-2.9-3.5-5.6-5.8-8c2.3-2.4,4.1-5.1,5.8-8c1.7,2.9,3.5,5.6,5.8,8
	C11.7,39.1,9.9,41.9,8.2,44.8z"/>
<path id="path19-3-1-9-0_1_" class="st0" d="M8.4,26.3v-2.3h2.1v-3.8H0v-2.7L11.4,0h1.9v17.4h3.2v2.7h-3.3L13.1,24h1.8v2.3L8.4,26.3
	L8.4,26.3z M10.5,6.4L3.3,17.5h7.2C10.5,17.5,10.5,6.4,10.5,6.4z"/>
</svg>
