<!-- Generator: Adobe Illustrator 19.2.1, SVG Export Plug-In  -->
<svg version="1.1"
	 xmlns="http://www.w3.org/2000/svg" xmlns:xlink="http://www.w3.org/1999/xlink" xmlns:a="http://ns.adobe.com/AdobeSVGViewerExtensions/3.0/"
	 x="0px" y="0px" width="16.5px" height="44.8px" viewBox="0 0 16.5 44.8" style="enable-background:new 0 0 16.5 44.8;"
	 xml:space="preserve">
<style type="text/css">
	.st0{fill:#D40000;}
</style>
<defs>
</defs>
<path id="path6722-9_2_" class="st0" d="M8.3,44.8c-1.7-2.9-3.5-5.6-5.8-8c2.3-2.4,4.1-5.1,5.8-8c1.7,2.9,3.5,5.6,5.8,8
	C11.8,39.1,10,41.9,8.3,44.8z"/>
<path id="path21-9-8-2-7_2_" class="st0" d="M0,19.5h2.6c0.5,1.6,1.6,3.2,3.1,3.7c4.2,1,6.9-1.4,7.8-4.1c1.1-3.3,0-8-2.9-9.7
	C8.2,8,4.7,9.2,3,12.1L1.2,11l1-11h11.6v2.6H4.3L4.1,7.2c2.1-1.5,5.2-1.5,7.3-0.4c3.9,1.9,5.7,6.2,5,11.3c-1.1,5.1-3.4,7.9-8.6,8.3
	C2,26.3,0,22.3,0,19.5L0,19.5L0,19.5z"/>
</svg>
