<!-- Generator: Adobe Illustrator 19.2.1, SVG Export Plug-In  -->
<svg version="1.1"
	 xmlns="http://www.w3.org/2000/svg" xmlns:xlink="http://www.w3.org/1999/xlink" xmlns:a="http://ns.adobe.com/AdobeSVGViewerExtensions/3.0/"
	 x="0px" y="0px" width="16.1px" height="45px" viewBox="0 0 16.1 45" style="enable-background:new 0 0 16.1 45;"
	 xml:space="preserve">
<style type="text/css">
	.st0{fill:#D40000;}
</style>
<defs>
</defs>
<path id="path6790-5_2_" class="st0" d="M8,45c-1.7-2.9-3.5-5.6-5.8-8c2.3-2.4,4.1-5.1,5.8-8c1.7,2.9,3.5,5.6,5.8,8
	C11.5,39.3,9.7,42.1,8,45z"/>
<path id="path23-5-3-5-5_2_" class="st0" d="M0.2,18.4c-0.3-2.2-0.3-8-0.1-9.7c0.8-5.2,2.8-7.6,6.1-8.4C9.4-0.5,14,0.4,15,4.7
	l-2.7,0.1C10.9,2,7.2,2.7,5.2,4C3.5,5,2.8,9.3,3.1,9.5c0,0,3.1-2.3,5.6-2.2c5.3,0.6,7.5,5.1,7.3,9.5c-0.2,5.2-1.8,9.4-7.4,9.7
	C3.2,26.4,0.8,23.4,0.2,18.4L0.2,18.4L0.2,18.4z M13.3,17.1c0-3.6-1.6-6.3-4.7-6.6s-6.2,2.7-6,6.4c0.2,3.7,1.7,6.8,5.4,6.8
	C12,23.7,13.3,19.6,13.3,17.1L13.3,17.1z"/>
</svg>
