<!-- Generator: Adobe Illustrator 19.2.1, SVG Export Plug-In  -->
<svg version="1.1"
	 xmlns="http://www.w3.org/2000/svg" xmlns:xlink="http://www.w3.org/1999/xlink" xmlns:a="http://ns.adobe.com/AdobeSVGViewerExtensions/3.0/"
	 x="0px" y="0px" width="15px" height="44.8px" viewBox="0 0 15 44.8" style="enable-background:new 0 0 15 44.8;"
	 xml:space="preserve">
<defs>
</defs>
<path id="path147-6-9-8-7-4-5-9-2-7_2_" d="M7.9,28.9c-3.1,0.1-4.5,3.7-2.2,6.6c0.3,0.4,0.4,0.7-0.2,0.3c-1.6-1.1-4.6-0.4-4.7,2.9
	c-0.2,4.1,5.3,5.3,6.3,0.9c0.1-0.5,0.4-0.4,0.3,0.2c-0.1,1.8-0.6,3.4-1.4,5c1.2,0,2.5,0,3.7,0c-0.7-1.6-1.3-3.3-1.4-5
	c-0.1-0.7,0.3-0.7,0.3-0.2c1,4.4,6.5,3.2,6.3-0.9c-0.2-3.3-3.1-4-4.7-2.9C9.6,36.2,9.6,36,10,35.5C12.4,32.6,11,28.9,7.9,28.9
	L7.9,28.9L7.9,28.9z"/>
<path id="path15-9-1-0-1_2_" d="M0,26.3l0.1-1.6c0.4-5,1.5-6.7,7.6-11.9c3-2.5,3.9-3.8,4.1-5.2c0.4-3.4-2.6-4.5-4.6-4.5
	c-2.6,0-5.4,1.5-4.1,5.2L0.2,9.2C-0.3,5.6,0.3,2.5,3,1.1c3.5-1.9,8.1-1.2,10.5,1.7c1.6,1.9,1.9,4.6,1.1,6.7
	c-2.5,5.4-10.8,7.8-11.5,14h9.2V20H15v6.4L0,26.3L0,26.3z"/>
</svg>
