<?xml version="1.0" encoding="utf-8"?>
<!-- Generator: Adobe Illustrator 19.2.1, SVG Export Plug-In . SVG Version: 6.00 Build 0)  -->
<svg version="1.1" id="Layer_1" xmlns="http://www.w3.org/2000/svg" xmlns:xlink="http://www.w3.org/1999/xlink" x="0px" y="0px"
	 viewBox="0 0 166.3 226.6" style="enable-background:new 0 0 166.3 226.6;" xml:space="preserve">
<style type="text/css">
	.st0{fill:#D40000;}
</style>
<path id="path7062-5_1_" class="st0" d="M8,44.8c-1.7-2.9-3.5-5.6-5.8-8c2.3-2.4,4.1-5.1,5.8-8c1.7,2.9,3.5,5.6,5.8,8
	C11.5,39.1,9.7,41.9,8,44.8z"/>
<g id="g8345-9-6-9-5_1_" transform="matrix(1,0,0,0.9999803,1809.6754,-538.726)">
	<path id="path31-8-2-5-6_1_" class="st0" d="M-1809.7,565v-26.3h2.6V565H-1809.7z"/>
	<path id="path33-2-0-3-1_1_" class="st0" d="M-1799.6,538.7c-2.5,0-4.4,2.3-4.4,5V560c0,2.8,2,5,4.4,5h1.4c2.5,0,4.4-2.2,4.4-5
		v-16.2c0-2.8-2-5-4.4-5H-1799.6z M-1798.8,541.2c1.5,0,2.6,1.1,2.6,2.5v16.4c0,1.4-1.2,2.5-2.6,2.5s-2.6-1.1-2.6-2.5v-16.4
		C-1801.5,542.3-1800.3,541.2-1798.8,541.2L-1798.8,541.2z"/>
</g>
</svg>
