<!-- Generator: Adobe Illustrator 19.2.1, SVG Export Plug-In  -->
<svg version="1.1"
	 xmlns="http://www.w3.org/2000/svg" xmlns:xlink="http://www.w3.org/1999/xlink" xmlns:a="http://ns.adobe.com/AdobeSVGViewerExtensions/3.0/"
	 x="0px" y="0px" width="16.2px" height="44.8px" viewBox="0 0 16.2 44.8" style="enable-background:new 0 0 16.2 44.8;"
	 xml:space="preserve">
<style type="text/css">
	.st0{fill:#D40000;}
</style>
<defs>
</defs>
<path id="path9698-0-0_2_" class="st0" d="M8,44.8c0,0-1.8-2.6-4.2-5.6c-1.6-2-2.9-4.2-3-6.1C0.7,31,2,28.8,4.3,28.7
	s3.3,1.6,3.7,3.1c0.4-1.4,1.3-3.2,3.7-3.1c2.3,0.1,3.6,2.3,3.5,4.4c-0.1,1.9-1.4,4-3,6.1C9.8,42.2,8,44.8,8,44.8z"/>
<path id="path41-87-8-3-9_2_" class="st0" d="M0,26.3V24h2.2L6.8,0h2.6l5.1,24h1.7v2.3h-6V24h1.6l-0.6-3.7h-6L4.7,24h1.6v2.3H0
	L0,26.3z M10.6,17.8L8,4.9L5.6,17.8H10.6z"/>
</svg>
