<?xml version="1.0" encoding="utf-8"?>
<!-- Generator: Adobe Illustrator 19.2.1, SVG Export Plug-In . SVG Version: 6.00 Build 0)  -->
<svg version="1.1" id="Layer_1" xmlns="http://www.w3.org/2000/svg" xmlns:xlink="http://www.w3.org/1999/xlink" x="0px" y="0px"
	 viewBox="0 0 166.4 226.6" style="enable-background:new 0 0 166.4 226.6;" xml:space="preserve">
<style type="text/css">
	.st0{fill:#D40000;}
</style>
<g id="g9684-3-0_1_" transform="translate(439.38585,-1064)">
</g>
<g id="g9690-5-6_1_" transform="translate(465.9774,-1083.9055)">
</g>
<path id="path9698-0-0_1_" class="st0" d="M8,44.8c0,0-1.8-2.6-4.2-5.6c-1.6-2-2.9-4.2-3-6.1C0.7,31,2,28.8,4.3,28.7
	s3.3,1.6,3.7,3.1c0.4-1.4,1.3-3.2,3.7-3.1c2.3,0.1,3.6,2.3,3.5,4.4c-0.1,1.9-1.4,4-3,6.1C9.8,42.2,8,44.8,8,44.8z"/>
<path id="path41-87-8-3-9_1_" class="st0" d="M0,26.3V24h2.2L6.8,0h2.6l5.1,24h1.7v2.3h-6V24h1.6l-0.6-3.7h-6L4.7,24h1.6v2.3H0
	L0,26.3z M10.6,17.8L8,4.9L5.6,17.8H10.6z"/>
</svg>
