<!-- Generator: Adobe Illustrator 19.2.1, SVG Export Plug-In  -->
<svg version="1.1"
	 xmlns="http://www.w3.org/2000/svg" xmlns:xlink="http://www.w3.org/1999/xlink" xmlns:a="http://ns.adobe.com/AdobeSVGViewerExtensions/3.0/"
	 x="0px" y="0px" width="16.9px" height="44.7px" viewBox="0 0 16.9 44.7" style="enable-background:new 0 0 16.9 44.7;"
	 xml:space="preserve">
<defs>
</defs>
<path id="path147-6-9-8-7-4-5-8-2-3_2_" d="M8.5,28.8c-3.1,0-4.5,3.7-2.2,6.6c0.3,0.4,0.4,0.7-0.2,0.3c-1.6-1.1-4.6-0.4-4.7,2.9
	c-0.2,4.1,5.3,5.3,6.3,0.9C7.8,39,8.1,39.1,8,39.7c-0.1,1.8-0.6,3.4-1.4,5c1.2,0,2.5,0,3.7,0c-0.7-1.6-1.3-3.3-1.4-5
	C8.8,39,9.2,39,9.2,39.5c1,4.4,6.5,3.2,6.3-0.9c-0.2-3.3-3.1-4-4.7-2.9c-0.6,0.4-0.6,0.2-0.2-0.3C13.1,32.5,11.7,28.8,8.5,28.8
	L8.5,28.8L8.5,28.8z"/>
<path id="path17-9-7-6-4_2_" d="M0,20.5L2,19c1.8,2.9,3.7,4.7,6.7,4.4c4.5-0.3,6.4-5,5.4-8.6c-0.9-3.2-4.6-4.8-7.6-3.1
	c-0.7,0.4-1.4,0.7-1.5,0.7c-0.3,0-1-1.4-0.9-1.8c2-2.9,6.8-8,6.8-8H3.3V6H0.4V0h14.8v2.1c0,0-4,4.1-5.3,6.4c3.2,0.1,5.8,2.2,6.7,5.4
	c0.5,1.7,0.3,5.6-0.4,7.3c-1.2,2.8-4.4,5.1-7.4,5.2C4,26.6,1.3,23.1,0,20.5L0,20.5L0,20.5z"/>
</svg>
