<?xml version="1.0" encoding="utf-8"?>
<!-- Generator: Adobe Illustrator 19.2.1, SVG Export Plug-In . SVG Version: 6.00 Build 0)  -->
<svg version="1.1" id="Layer_1" xmlns="http://www.w3.org/2000/svg" xmlns:xlink="http://www.w3.org/1999/xlink" x="0px" y="0px"
	 viewBox="0 0 166.9 226.6" style="enable-background:new 0 0 166.9 226.6;" xml:space="preserve">
<style type="text/css">
	.st0{fill:#D40000;}
</style>
<g id="g9956-4-1_1_" transform="translate(1582.7704,-1064)">
</g>
<g id="g9962-7-4_1_" transform="translate(1609.362,-1083.9055)">
</g>
<path id="path9970-5-6_1_" class="st0" d="M8.2,44.8c0,0-1.8-2.6-4.2-5.6c-1.6-2-2.9-4.2-3-6.1C1,31,2.3,28.8,4.6,28.7
	s3.3,1.6,3.7,3.1c0.4-1.4,1.3-3.2,3.7-3.1c2.3,0.1,3.6,2.3,3.5,4.4c-0.1,1.9-1.4,4-3,6.1C10,42.2,8.2,44.8,8.2,44.8z"/>
<path id="path21-9-5-1-8_1_" class="st0" d="M0,19.5h2.6c0.5,1.6,1.6,3.2,3.1,3.7c4.2,1,6.9-1.4,7.8-4.1c1.1-3.3,0-8-2.9-9.7
	C8.1,8.1,4.7,9.3,3,12.2l-1.8-1.1l1-11h11.7v2.6H4.4L4.2,7.3c2.1-1.5,5.2-1.5,7.3-0.4c3.9,1.9,5.7,6.2,5,11.3
	c-1.1,5.1-3.4,7.9-8.6,8.3C2.1,26.3,0,22.3,0,19.5L0,19.5L0,19.5z"/>
</svg>
