<!-- Generator: Adobe Illustrator 19.2.1, SVG Export Plug-In  -->
<svg version="1.1"
	 xmlns="http://www.w3.org/2000/svg" xmlns:xlink="http://www.w3.org/1999/xlink" xmlns:a="http://ns.adobe.com/AdobeSVGViewerExtensions/3.0/"
	 x="0px" y="0px" width="16px" height="44.9px" viewBox="0 0 16 44.9" style="enable-background:new 0 0 16 44.9;"
	 xml:space="preserve">
<style type="text/css">
	.st0{fill:#D40000;}
</style>
<defs>
</defs>
<path id="path10038-5-0_2_" class="st0" d="M8,44.9c0,0-1.8-2.6-4.2-5.6c-1.6-2-2.9-4.2-3-6.1c-0.1-2.1,1.2-4.3,3.5-4.4
	s3.3,1.6,3.7,3.1c0.4-1.4,1.3-3.2,3.7-3.1c2.3,0.1,3.6,2.3,3.5,4.4c-0.1,1.9-1.4,4-3,6.1C9.7,42.3,8,44.9,8,44.9z"/>
<path id="path23-5-2-7-3_2_" class="st0" d="M0.2,18.3c-0.3-2.2-0.3-8-0.1-9.7c0.8-5.1,2.8-7.5,6.1-8.3C9.4-0.5,14,0.4,15,4.7
	l-2.7,0.1c-1.5-2.9-5.2-2.2-7.2-0.9C3.4,4.9,2.7,9.2,3,9.4c0,0,3.1-2.3,5.6-2.2c5.3,0.6,7.5,5.1,7.3,9.5c-0.2,5.2-1.8,9.4-7.4,9.7
	C3.2,26.2,0.7,23.3,0.2,18.3L0.2,18.3L0.2,18.3z M13.4,17c0-3.6-1.6-6.3-4.7-6.6s-6.2,2.7-6,6.4c0.2,3.7,1.7,6.8,5.4,6.8
	C12.1,23.5,13.4,19.5,13.4,17L13.4,17L13.4,17z"/>
</svg>
