<!-- Generator: Adobe Illustrator 19.2.1, SVG Export Plug-In  -->
<svg version="1.1"
	 xmlns="http://www.w3.org/2000/svg" xmlns:xlink="http://www.w3.org/1999/xlink" xmlns:a="http://ns.adobe.com/AdobeSVGViewerExtensions/3.0/"
	 x="0px" y="0px" width="16.4px" height="44.8px" viewBox="0 0 16.4 44.8" style="enable-background:new 0 0 16.4 44.8;"
	 xml:space="preserve">
<defs>
</defs>
<path id="path147-6-9-8-7-4-5-62-79-3_2_" d="M8.2,28.9c-3.1,0-4.5,3.7-2.2,6.6c0.3,0.4,0.4,0.7-0.2,0.3c-1.6-1.1-4.6-0.4-4.7,2.9
	c-0.2,4.1,5.3,5.3,6.3,0.9c0.1-0.5,0.4-0.4,0.3,0.2c-0.1,1.8-0.6,3.4-1.4,5c1.2,0,2.5,0,3.7,0c-0.7-1.6-1.3-3.3-1.4-5
	c0-0.7,0.4-0.7,0.4-0.2c1,4.4,6.5,3.2,6.3-0.9c-0.2-3.3-3.1-4-4.7-2.9c-0.6,0.3-0.5,0.1-0.2-0.3C12.7,32.6,11.3,28.9,8.2,28.9
	L8.2,28.9L8.2,28.9z"/>
<path id="path19-0-7-3_2_" d="M8.4,26.4v-2.3h2.1v-3.8H0v-2.8L11.3,0h1.9v17.5h3.2v2.7h-3.2L13.1,24h1.8v2.3L8.4,26.4L8.4,26.4z
	 M10.5,6.4L3.3,17.5h7.2V6.4z"/>
</svg>
