<!-- Generator: Adobe Illustrator 19.2.1, SVG Export Plug-In  -->
<svg version="1.1"
	 xmlns="http://www.w3.org/2000/svg" xmlns:xlink="http://www.w3.org/1999/xlink" xmlns:a="http://ns.adobe.com/AdobeSVGViewerExtensions/3.0/"
	 x="0px" y="0px" width="17.1px" height="44.8px" viewBox="0 0 17.1 44.8" style="enable-background:new 0 0 17.1 44.8;"
	 xml:space="preserve">
<defs>
</defs>
<path id="path6816-2-4_2_" d="M8.6,28.8c-3.4,4.4-7.1,6.9-7.2,10.3c0,1.1,0.7,3,2.8,3.4c1.4,0.2,3.2-0.8,3.3-2.8
	c0-0.4,0.5-0.4,0.5,0.2c-0.1,1.6-0.6,3.4-1.6,4.9c1.5,0,3,0,4.5,0c-0.9-1.5-1.5-3.3-1.6-4.9c0-0.5,0.5-0.6,0.5-0.2
	c0,2,1.9,3,3.3,2.8c2.1-0.4,2.8-2.2,2.8-3.4C15.6,35.6,12,33.1,8.6,28.8L8.6,28.8z"/>
<path id="path17-9-11-4_2_" d="M0,20.5L2,19c1.8,2.9,3.7,4.8,6.8,4.4c4.5-0.3,6.4-5.1,5.5-8.6c-1-3.2-4.7-4.8-7.7-3.1
	c-0.7,0.4-1.4,0.7-1.5,0.7c-0.3,0-1-1.4-0.9-1.8c2-2.9,6.9-8,6.9-8H3.5V6H0.6V0h14.7v2.1c0,0-4,4.1-5.3,6.4c3.2,0.1,5.8,2.2,6.8,5.4
	c0.5,1.7,0.3,5.6-0.4,7.3c-1.2,2.8-4.5,5.1-7.4,5.2C4,26.6,1.3,23,0,20.5L0,20.5L0,20.5z"/>
</svg>
