<!-- Generator: Adobe Illustrator 19.2.1, SVG Export Plug-In  -->
<svg version="1.1"
	 xmlns="http://www.w3.org/2000/svg" xmlns:xlink="http://www.w3.org/1999/xlink" xmlns:a="http://ns.adobe.com/AdobeSVGViewerExtensions/3.0/"
	 x="0px" y="0px" width="15.2px" height="44.8px" viewBox="0 0 15.2 44.8" style="enable-background:new 0 0 15.2 44.8;"
	 xml:space="preserve">
<defs>
</defs>
<path id="path7227-2-8_2_" d="M7.7,28.8c-3.4,4.4-7.1,6.9-7.2,10.3c0,1.1,0.7,3,2.8,3.4c1.3,0.2,3.2-0.8,3.3-2.8
	c0-0.4,0.5-0.4,0.5,0.2c-0.1,1.6-0.6,3.4-1.6,4.9c1.5,0,3,0,4.5,0c-0.9-1.5-1.5-3.3-1.6-4.9c0-0.5,0.5-0.6,0.5-0.2
	c0,2,1.9,3,3.3,2.8c2.1-0.4,2.8-2.2,2.8-3.4C14.9,35.6,11.2,33.1,7.7,28.8L7.7,28.8z"/>
<path id="path29-33-4-4_2_" d="M0.3,21.2l2.4-0.8c0.9,2.4,2.8,3.2,4.7,3c3.5-0.3,4.7-4.2,4.9-7.6c-1.4,1.4-3.4,2.2-5.2,2.1
	c-5.6-0.3-7-4.8-7.1-9.4c-0.2-3.9,1.5-6.8,4.3-8.1c1.5-0.6,4.9-0.6,6.4,0.2c3.4,1.8,4.7,4.9,4.5,12.3c0,6.1-1.3,13.2-7.9,13.4
	C3.6,26.7,0.7,23.8,0.3,21.2L0.3,21.2L0.3,21.2z M9.8,14.5c1.1-0.7,1.8-1.4,2.3-2.4c0.4-0.8,0.6-1.3,0.4-3c-0.3-4.4-2.6-6.9-6-6.4
	C4.6,3,3.6,4,3,6c-1.1,3.6,0.3,7.8,2.9,8.8C7.1,15.2,8.9,15,9.8,14.5L9.8,14.5z"/>
</svg>
