<?xml version="1.0" encoding="utf-8"?>
<!-- Generator: Adobe Illustrator 19.2.1, SVG Export Plug-In . SVG Version: 6.00 Build 0)  -->
<svg version="1.1" id="Layer_1" xmlns="http://www.w3.org/2000/svg" xmlns:xlink="http://www.w3.org/1999/xlink" x="0px" y="0px"
	 viewBox="0 0 165.4 226.6" style="enable-background:new 0 0 165.4 226.6;" xml:space="preserve">
<path id="path7227-2-8_1_" d="M7.5,28.9c-3.4,4.4-7.1,6.9-7.2,10.3c0,1.1,0.7,3,2.8,3.4c1.3,0.2,3.2-0.8,3.3-2.8
	c0-0.4,0.5-0.4,0.5,0.2c-0.1,1.6-0.6,3.4-1.6,4.9c1.5,0,3,0,4.5,0c-0.9-1.5-1.5-3.3-1.6-4.9c0-0.5,0.5-0.6,0.5-0.2
	c0,2,1.9,3,3.3,2.8c2.1-0.4,2.8-2.2,2.8-3.4C14.7,35.7,11,33.2,7.5,28.9L7.5,28.9z"/>
<path id="path29-33-4-4_1_" d="M0.1,21.3l2.4-0.8c0.9,2.4,2.8,3.2,4.7,3c3.5-0.3,4.7-4.2,4.9-7.6c-1.4,1.4-3.4,2.2-5.2,2.1
	c-5.6-0.3-7-4.8-7.1-9.4c-0.2-3.9,1.5-6.8,4.3-8.1C5.6-0.1,9-0.1,10.5,0.7c3.4,1.8,4.7,4.9,4.5,12.3c0,6.1-1.3,13.2-7.9,13.4
	C3.4,26.8,0.5,23.9,0.1,21.3L0.1,21.3L0.1,21.3z M9.6,14.6c1.1-0.7,1.8-1.4,2.3-2.4c0.4-0.8,0.6-1.3,0.4-3c-0.3-4.4-2.6-6.9-6-6.4
	C4.4,3.1,3.4,4.1,2.8,6.1c-1.1,3.6,0.3,7.8,2.9,8.8C6.9,15.3,8.7,15.1,9.6,14.6L9.6,14.6z"/>
</svg>
