<?xml version="1.0" encoding="utf-8"?>
<!-- Generator: Adobe Illustrator 19.2.1, SVG Export Plug-In . SVG Version: 6.00 Build 0)  -->
<svg version="1.1" id="Layer_1" xmlns="http://www.w3.org/2000/svg" xmlns:xlink="http://www.w3.org/1999/xlink" x="0px" y="0px"
	 viewBox="0 0 166.3 226.6" style="enable-background:new 0 0 166.3 226.6;" xml:space="preserve">
<path id="path7295-4-8_1_" d="M8,28.9c-3.4,4.4-7.1,6.9-7.2,10.3c0,1.1,0.7,3,2.8,3.4c1.4,0.2,3.2-0.8,3.3-2.8
	c0-0.4,0.5-0.4,0.5,0.2c-0.1,1.6-0.6,3.4-1.6,4.9c1.5,0,3,0,4.5,0c-0.9-1.5-1.5-3.3-1.6-4.9c0-0.5,0.5-0.6,0.5-0.2
	c0,2,1.9,3,3.3,2.8c2.1-0.4,2.8-2.2,2.8-3.4C15.1,35.7,11.4,33.2,8,28.9L8,28.9z"/>
<path id="path31-5-4-7_1_" d="M0,26.3V0h2.6v26.3H0z"/>
<path id="path33-4-6-8_1_" d="M10.1,0c-2.5,0-4.4,2.3-4.4,5v16.2c0,2.8,2,5,4.4,5h1.4c2.5,0,4.4-2.2,4.4-5V4.9c0-2.8-2-5-4.4-5H10.1
	z M10.9,2.4c1.5,0,2.6,1.1,2.6,2.5v16.4c0,1.4-1.2,2.5-2.6,2.5c-1.5,0-2.6-1.1-2.6-2.5V4.9C8.2,3.6,9.4,2.4,10.9,2.4L10.9,2.4z"/>
</svg>
