<?xml version="1.0" encoding="utf-8"?>
<!-- Generator: Adobe Illustrator 19.2.1, SVG Export Plug-In . SVG Version: 6.00 Build 0)  -->
<svg version="1.1" id="Layer_1" xmlns="http://www.w3.org/2000/svg" xmlns:xlink="http://www.w3.org/1999/xlink" x="0px" y="0px"
	 viewBox="0 0 165.4 226.6" style="enable-background:new 0 0 165.4 226.6;" xml:space="preserve">
<path id="path147-6-9-8-7-4-5-62-7-8-4_1_" d="M7.5,28.8c-3.1,0-4.5,3.7-2.2,6.6c0.3,0.4,0.4,0.7-0.2,0.3c-1.6-1.1-4.6-0.4-4.7,2.9
	c-0.2,4.1,5.3,5.3,6.3,0.9C6.8,39,7.1,39.1,7,39.7c-0.1,1.8-0.6,3.4-1.4,5c1.2,0,2.5,0,3.7,0c-0.7-1.6-1.3-3.3-1.4-5
	C7.8,39,8.2,39,8.2,39.5c1,4.4,6.5,3.2,6.3-0.9c-0.2-3.3-3.1-4-4.7-2.9c-0.6,0.4-0.6,0.2-0.2-0.3C12,32.5,10.6,28.8,7.5,28.8
	L7.5,28.8L7.5,28.8z"/>
<path id="path29-2-3-4_1_" d="M0.2,21.2l2.4-0.8c0.9,2.4,2.7,3.1,4.7,3c3.5-0.3,4.6-4.2,4.9-7.6c-1.4,1.4-3.4,2.2-5.1,2.1
	c-5.5-0.3-7-4.7-7-9.4c-0.3-3.9,1.4-6.8,4.1-8.1C5.7-0.3,9-0.3,10.5,0.5C14,2.3,15.2,5.4,15,12.9c0,6.1-1.3,13.2-7.8,13.3
	C3.4,26.7,0.5,23.8,0.2,21.2L0.2,21.2L0.2,21.2z M9.6,14.5c1.1-0.7,1.8-1.4,2.3-2.4c0.4-0.8,0.6-1.3,0.4-3c-0.3-4.4-2.6-6.9-6-6.4
	C4.4,3,3.4,4,2.8,6c-1.1,3.6,0.3,7.8,2.9,8.8C6.9,15.2,8.7,15.1,9.6,14.5L9.6,14.5z"/>
</svg>
