<svg xmlns="http://www.w3.org/2000/svg" width="166.4" height="226.6" viewBox="0 0 166.4 226.6"><g><path d="M83.182 94.45c-7.8.2-11.3 9-5.5 15.8.8 1 .9 1.6-.6.6-3.9-2.6-11.4-.9-11.8 7.1-.5 9.8 13.3 12.7 15.8 2.2.1-1.1 1-1.1.8.5-.2 4.2-1.6 8.2-3.4 12.1h9.3c-1.8-3.9-3.1-7.8-3.4-12.1-.2-1.6.7-1.6.8-.5 2.6 10.4 16.3 7.6 15.8-2.2-.4-8-7.9-9.7-11.8-7.1-1.5 1-1.5.4-.6-.6 6-6.8 2.5-15.6-5.4-15.8z"/><path d="M158.382 197.75c3.1-.1 4.5-3.7 2.2-6.6-.3-.4-.4-.7.2-.3 1.6 1.1 4.6.4 4.7-2.9.2-4.1-5.3-5.3-6.3-.9-.1.5-.4.4-.3-.2.1-1.8.6-3.4 1.4-5h-3.7c.7 1.6 1.3 3.3 1.4 5 .1.7-.3.7-.3.2-1-4.4-6.5-3.2-6.3.9.2 3.3 3.1 4 4.7 2.9.6-.4.6-.2.2.3-2.4 2.9-1 6.5 2.1 6.6z"/><path d="M-.018 26.35v-2.3h2.1l4.6-24.1h2.6l5 24.1h1.7v2.3h-5.8v-2.3h1.6l-.6-3.7h-6l-.5 3.7h1.6v2.3h-6.3zm4.618-3.05L2.1 10.4-.3 23.3h4.9z"/><path d="M150.382 200.25v2.3h2.1l4.6 24.1h2.6l5-24.1h1.7v-2.3h-5.9v2.3h1.6l-.6 3.7h-6l-.5-3.7h1.6v-2.3h-6.2zm4.618 14.15l-2.6 12.9-2.4-12.9h5z"/><path d="M8.082 28.85c-3.1.1-4.5 3.7-2.2 6.6.3.4.4.7-.2.3-1.7-1.2-4.7-.5-4.8 2.9-.2 4.1 5.3 5.3 6.3.9.1-.5.4-.4.3.2-.1 1.8-.6 3.4-1.4 5h3.7c-.7-1.6-1.3-3.3-1.4-5-.1-.7.3-.7.3-.2 1 4.4 6.5 3.2 6.3-.9-.2-3.3-3.1-4-4.7-2.9-.6.4-.6.2-.2-.3 2.5-2.9 1.1-6.6-2-6.6z"/></g></svg>