<!-- Generator: Adobe Illustrator 19.2.1, SVG Export Plug-In  -->
<svg version="1.1"
	 xmlns="http://www.w3.org/2000/svg" xmlns:xlink="http://www.w3.org/1999/xlink" xmlns:a="http://ns.adobe.com/AdobeSVGViewerExtensions/3.0/"
	 x="0px" y="0px" width="166.3px" height="226.6px" viewBox="0 0 166.3 226.6" style="enable-background:new 0 0 166.3 226.6;"
	 xml:space="preserve">
<defs>
</defs>
<g id="g5526_1_" transform="matrix(0.99999718,0,0,1.000002,-2.9818333,-5.5506344)">
	<path id="path147-0-8-1-6-13-2-22-1-5_1_" d="M127.4,20.9
		c-7.8,0.2-11.3,9-5.5,15.8c0.8,1,0.9,1.6-0.6,0.6c-3.9-2.6-11.4-0.9-11.8,7.1c-0.5,9.8,13.3,12.7,15.8,2.2c0.1-1.1,1-1.1,0.8,0.5
		c-0.2,4.2-1.6,8.2-3.4,12.1c3.1,0,6.5,0,9.3,0c-1.8-3.9-3.1-7.8-3.4-12.1c-0.2-1.6,0.7-1.6,0.8-0.5c2.6,10.4,16.3,7.6,15.8-2.2
		c-0.4-8-7.9-9.7-11.8-7.1c-1.5,1-1.5,0.4-0.6-0.6C138.7,29.9,135.2,21.1,127.4,20.9C127.4,20.9,127.4,20.9,127.4,20.9L127.4,20.9z"
		/>
	
		<path id="path147-0-8-1-6-75-2-83-21-1-8_1_" d="
		M44.9,20.9c-7.8,0.2-11.3,9-5.5,15.8c0.8,1,0.9,1.6-0.6,0.6c-3.9-2.6-11.4-0.9-11.8,7.1c-0.5,9.8,13.3,12.7,15.8,2.2
		c0.1-1.1,1-1.1,0.8,0.5c-0.2,4.2-1.6,8.2-3.4,12.1c3.1,0,6.5,0,9.3,0c-1.8-3.9-3.1-7.8-3.4-12.1c-0.2-1.6,0.7-1.6,0.8-0.5
		c2.6,10.4,16.3,7.6,15.8-2.2c-0.4-8-7.9-9.7-11.8-7.1c-1.5,1-1.5,0.4-0.6-0.6C56.2,29.9,52.7,21.1,44.9,20.9
		C44.9,20.9,44.9,20.9,44.9,20.9L44.9,20.9z"/>
	<path id="path147-0-8-1-6-7-5-5-7-3-5-5_1_" d="
		M127.4,217.4c-7.8-0.2-11.3-9-5.5-15.8c0.8-1,0.9-1.6-0.6-0.6c-3.9,2.6-11.4,0.9-11.8-7.1c-0.5-9.8,13.3-12.7,15.8-2.2
		c0.1,1.1,1,1.1,0.8-0.5c-0.2-4.2-1.6-8.2-3.4-12.1c3.1,0,6.5,0,9.3,0c-1.8,3.9-3.1,7.8-3.4,12.1c-0.2,1.6,0.7,1.6,0.8,0.5
		c2.6-10.4,16.3-7.6,15.8,2.2c-0.4,8-7.9,9.7-11.8,7.1c-1.5-1-1.5-0.4-0.6,0.6C138.7,208.4,135.2,217.3,127.4,217.4
		C127.4,217.4,127.4,217.4,127.4,217.4L127.4,217.4z"/>
	
		<path id="path147-0-8-1-6-75-6-1-2-7-9-3_1_" d="
		M44.9,217.4c-7.8-0.2-11.3-9-5.5-15.8c0.8-1,0.9-1.6-0.6-0.6c-3.9,2.6-11.4,0.9-11.8-7.1c-0.5-9.8,13.3-12.7,15.8-2.2
		c0.1,1.1,1,1.1,0.8-0.5c-0.2-4.2-1.6-8.2-3.4-12.1c3.1,0,6.5,0,9.3,0c-1.8,3.9-3.1,7.8-3.4,12.1c-0.2,1.6,0.7,1.6,0.8,0.5
		c2.6-10.4,16.3-7.6,15.8,2.2c-0.4,8-7.9,9.7-11.8,7.1c-1.5-1-1.5-0.4-0.6,0.6C56.2,208.4,52.7,217.3,44.9,217.4
		C44.9,217.4,44.9,217.4,44.9,217.4L44.9,217.4z"/>
	<path id="path147-0-8-1-6-2-00-7-1-1-4_1_" d="M86.1,47.3
		c-7.8,0.2-11.3,9-5.5,15.8c0.8,1,0.9,1.6-0.6,0.6c-3.9-2.6-11.4-0.9-11.8,7.1c-0.5,9.8,13.3,12.7,15.8,2.2c0.1-1.1,1-1.1,0.8,0.5
		c-0.2,4.2-1.6,8.2-3.4,12.1c3.1,0,6.5,0,9.3,0c-1.8-3.9-3.1-7.8-3.4-12.1c-0.2-1.6,0.7-1.6,0.8-0.5c2.6,10.4,16.3,7.6,15.8-2.2
		c-0.4-8-7.9-9.7-11.8-7.1c-1.5,1-1.5,0.4-0.6-0.6C97.5,56.3,94,47.5,86.1,47.3C86.1,47.3,86.1,47.3,86.1,47.3L86.1,47.3z"/>
	<path id="path147-0-8-1-6-2-0-8-6-8-1-8_1_" d="
		M86.1,191.1c-7.8-0.2-11.3-9-5.5-15.8c0.8-1,0.9-1.6-0.6-0.6c-3.9,2.6-11.4,0.9-11.8-7.1c-0.5-9.8,13.3-12.7,15.8-2.2
		c0.1,1.1,1,1.1,0.8-0.5c-0.2-4.2-1.6-8.2-3.4-12.1c3.1,0,6.5,0,9.3,0c-1.8,3.9-3.1,7.8-3.4,12.1c-0.2,1.6,0.7,1.6,0.8,0.5
		c2.6-10.4,16.3-7.6,15.8,2.2c-0.4,8-7.9,9.7-11.8,7.1c-1.5-1-1.5-0.4-0.6,0.6C97.5,182.1,94,190.9,86.1,191.1
		C86.1,191.1,86.1,191.1,86.1,191.1L86.1,191.1z"/>
	<path id="path147-6-9-8-7-0-5-6-83-3-7_1_" d="
		M161.3,203.3c3.1-0.1,4.5-3.7,2.2-6.6c-0.3-0.4-0.4-0.7,0.2-0.3c1.6,1.1,4.6,0.4,4.7-2.9c0.2-4.1-5.3-5.3-6.3-0.9
		c-0.1,0.5-0.4,0.4-0.3-0.2c0.1-1.8,0.6-3.4,1.4-5c-1.2,0-2.5,0-3.7,0c0.7,1.6,1.3,3.3,1.4,5c0.1,0.7-0.3,0.7-0.3,0.2
		c-1-4.4-6.5-3.2-6.3,0.9c0.2,3.3,3.1,4,4.7,2.9c0.6-0.4,0.6-0.2,0.2,0.3C156.8,199.6,158.2,203.2,161.3,203.3
		C161.3,203.3,161.3,203.3,161.3,203.3L161.3,203.3z"/>
	
		<path id="path147-0-8-1-6-75-2-9-77-44-0-7_1_" d="
		M44.9,73.7c-7.8,0.2-11.3,9-5.5,15.8c0.8,1,0.9,1.6-0.6,0.6c-3.9-2.6-11.4-0.9-11.8,7.1c-0.5,9.8,13.3,12.7,15.8,2.2
		c0.1-1.1,1-1.1,0.8,0.5c-0.2,4.2-1.6,8.2-3.4,12.1c3.1,0,6.5,0,9.3,0c-1.8-3.9-3.1-7.8-3.4-12.1c-0.2-1.6,0.7-1.6,0.8-0.5
		c2.6,10.4,16.3,7.6,15.8-2.2c-0.4-8-7.9-9.7-11.8-7.1c-1.5,1-1.5,0.4-0.6-0.6C56.2,82.6,52.7,73.8,44.9,73.7
		C44.9,73.7,44.9,73.7,44.9,73.7L44.9,73.7z"/>
	
		<path id="path147-0-8-1-6-75-2-8-0-3-9-3_1_" d="
		M44.9,164.7c-7.8-0.2-11.3-9-5.5-15.8c0.8-1,0.9-1.6-0.6-0.6c-3.9,2.6-11.4,0.9-11.8-7.1c-0.5-9.8,13.3-12.7,15.8-2.2
		c0.1,1.1,1,1.1,0.8-0.5c-0.2-4.2-1.6-8.2-3.4-12.1c3.1,0,6.5,0,9.3,0c-1.8,3.9-3.1,7.8-3.4,12.1c-0.2,1.6,0.7,1.6,0.8,0.5
		c2.6-10.4,16.3-7.6,15.8,2.2c-0.4,8-7.9,9.7-11.8,7.1c-1.5-1-1.5-0.4-0.6,0.6C56.2,155.7,52.7,164.5,44.9,164.7
		C44.9,164.7,44.9,164.7,44.9,164.7L44.9,164.7z"/>
	
		<path id="path147-0-8-1-6-75-2-9-7-1-9-7-9_1_" d="
		M127.4,73.7c-7.8,0.2-11.3,9-5.5,15.8c0.8,1,0.9,1.6-0.6,0.6c-3.9-2.6-11.4-0.9-11.8,7.1c-0.5,9.8,13.3,12.7,15.8,2.2
		c0.1-1.1,1-1.1,0.8,0.5c-0.2,4.2-1.6,8.2-3.4,12.1c3.1,0,6.5,0,9.3,0c-1.8-3.9-3.1-7.8-3.4-12.1c-0.2-1.6,0.7-1.6,0.8-0.5
		c2.6,10.4,16.3,7.6,15.8-2.2c-0.4-8-7.9-9.7-11.8-7.1c-1.5,1-1.5,0.4-0.6-0.6C138.7,82.6,135.2,73.8,127.4,73.7
		C127.4,73.7,127.4,73.7,127.4,73.7L127.4,73.7z"/>
	
		<path id="path147-0-8-1-6-75-2-8-5-1-52-2-8_1_" d="
		M127.4,164.7c-7.8-0.2-11.3-9-5.5-15.8c0.8-1,0.9-1.6-0.6-0.6c-3.9,2.6-11.4,0.9-11.8-7.1c-0.5-9.8,13.3-12.7,15.8-2.2
		c0.1,1.1,1,1.1,0.8-0.5c-0.2-4.2-1.6-8.2-3.4-12.1c3.1,0,6.5,0,9.3,0c-1.8,3.9-3.1,7.8-3.4,12.1c-0.2,1.6,0.7,1.6,0.8,0.5
		c2.6-10.4,16.3-7.6,15.8,2.2c-0.4,8-7.9,9.7-11.8,7.1c-1.5-1-1.5-0.4-0.6,0.6C138.7,155.7,135.2,164.5,127.4,164.7
		C127.4,164.7,127.4,164.7,127.4,164.7L127.4,164.7z"/>
	<path id="path147-6-9-8-7-4-5-62-52-8-0_1_" d="M11,34.4
		c-3.1,0.1-4.5,3.7-2.2,6.6c0.3,0.4,0.4,0.7-0.2,0.3c-1.6-1.1-4.6-0.4-4.7,2.9c-0.2,4.1,5.3,5.3,6.3,0.9c0.1-0.5,0.4-0.4,0.3,0.2
		c-0.1,1.8-0.6,3.4-1.4,5c1.2,0,2.5,0,3.7,0c-0.7-1.6-1.3-3.3-1.4-5c-0.1-0.7,0.3-0.7,0.3-0.2c1,4.4,6.5,3.2,6.3-0.9
		c-0.2-3.3-3.1-4-4.7-2.9c-0.6,0.4-0.6,0.2-0.2-0.3C15.5,38.1,14.1,34.4,11,34.4C11,34.4,11,34.4,11,34.4L11,34.4z"/>
	<path id="path31-6-7-6_1_" d="M3,31.9V5.5h2.5v26.3H3z"/>
	<path id="path33-9-3-6_1_" d="M13.1,5.5c-2.5,0-4.4,2.2-4.4,5v16.3c0,2.8,2,5,4.4,5h1.4
		c2.5,0,4.4-2.2,4.4-5V10.6c0-2.8-2-5-4.4-5H13.1z M13.8,8c1.4,0,2.6,1.1,2.6,2.5V27c0,1.4-1.2,2.5-2.6,2.5s-2.6-1.1-2.6-2.5V10.5
		C11.2,9.1,12.4,8,13.8,8L13.8,8z"/>
	<path id="path31-1-4-0-7_1_" d="M169.3,205.8v26.3h-2.5v-26.3H169.3z"/>
	<path id="path33-5-7-4-0_1_" d="M159.2,232.1c2.5,0,4.4-2.2,4.4-5v-16.3c0-2.8-2-5-4.4-5h-1.4
		c-2.5,0-4.4,2.2-4.4,5v16.3c0,2.8,2,5,4.4,5H159.2z M158.5,229.6c-1.4,0-2.6-1.1-2.6-2.5v-16.5c0-1.4,1.2-2.5,2.6-2.5
		s2.6,1.1,2.6,2.5v16.5C161.1,228.5,159.9,229.6,158.5,229.6L158.5,229.6z"/>
</g>
</svg>
