<svg xmlns="http://www.w3.org/2000/svg" width="166.5" height="226.6" viewBox="0 0 166.5 226.6"><style type="text/css">.st0{fill:#E2CF00;} .st1{fill:#131F67;} .st2{fill:#D40000;}</style><g id="g5584_1_"><g id="g11322-4-2_1_"><path id="path147-6-9-8-7-0-5-6-79-2-4_1_" d="M158.31 197.885c3.087-.1 4.58-3.79 2.19-6.58-.298-.4-.398-.698.2-.3 1.593 1.097 4.58.4 4.68-2.99.2-4.088-5.278-5.284-6.374-.898-.1.5-.398.5-.298-.2.1-1.794.597-3.39 1.394-5.084h-3.685c.697 1.596 1.295 3.29 1.394 5.085.1.698-.298.698-.298.2-.996-4.387-6.474-3.19-6.374.897.2 3.29 3.187 3.988 4.68 2.99.6-.398.6-.2.2.3-2.29 2.79-.896 6.48 2.29 6.58z"/><path id="path147-6-9-8-7-4-5-62-3-3-7_1_" d="M7.814 28.894c-3.088.1-4.582 3.788-2.192 6.58.3.4.4.698-.2.3-1.592-1.098-4.58-.4-4.68 2.99-.2 4.088 5.28 5.284 6.374.897.1-.497.4-.497.3.2-.1 1.795-.598 3.39-1.395 5.085h3.686c-.697-1.595-1.295-3.29-1.394-5.084-.1-.697.298-.697.298-.2.996 4.388 6.474 3.192 6.375-.896-.2-3.29-3.187-3.988-4.68-2.99-.6.398-.6.198-.2-.3 2.29-2.892.896-6.48-2.29-6.58z"/><path id="path35-5-6-2_1_" d="M7.714.08v2.792h2.69s.1 2.692.1 8.275c0 5.483.098 8.175-.2 9.77-.897 3.59-6.176 3.59-7.172.998-.597-1.496-.398-2.692-.498-4.188H-.254v1.695c0 3.988 1.394 5.982 4.482 6.78 3.187.897 6.972-.5 8.267-3.19.797-1.596.697-1.696.697-11.167 0-6.28.1-8.973.1-8.973h2.49V.08H7.714z"/><path id="path35-6-4-1-2_1_" d="M158.31 226.698v-2.79h-2.69s-.1-2.693-.1-8.276c0-5.484-.1-8.176.2-9.77.896-3.59 6.175-3.59 7.17-.998.598 1.496.4 2.692.5 4.187h2.887v-1.693c0-3.988-1.394-5.982-4.482-6.78-3.187-.897-6.972.498-8.267 3.19-.796 1.596-.697 1.695-.697 11.167 0 6.28-.098 8.973-.098 8.973h-2.49v2.79h8.067z"/></g><g id="g5275-8-4-5_1_"><g id="g3799-8-1-3_1_"><path id="path3306-4-9-5_1_" class="st0" d="M127.668 12.37c.678-.978 3.62 5.827 5.514 10.988.924 2.542 2.17 4.62 1.647 5.286-1.34 1.364-4.82.14-7.362-1.814-2.71-2.092-4.62-5.16-4.62-5.16l4.82-9.3zm18269.963-5661.417l.11 4c-2.326 2.107-5.22 4.695-8.61 8.632l9.04.047c-.077 49.197.077 147.792.077 147.792s-10.056-10.23-9.81-10.26c.016 0-.292-59.567-.323-99.635-.077-.187 5.252-.202 5.59-2.822.23-1.736-5.59-1.488-5.682-1.612.015-18.01-.046-30.72-.046-30.72l-5.344-.17 15-15.253zm-209.23-19.115c.77 1.55 2.017 7.533 2.956 7.394 4.343-1.442 5.744 4.99 1.248 5.332-1.71.124-3.604-2.108-4.667-4.883-.508-1.456.016-8.415.462-7.842zm234.33-129.163c1.278 2.107 2.51 9.795 4.85 9.36 2.126-.48 3.497 1.397 3.296 3.04-1.093 4.618-8.9.232-10.95-.838.987-2.325 2.42-8.122 2.804-11.563zm23.748-45.206c-1.786 4.06-1.31 7.408.216 11.484-4.636 2-9.21 4.387-13.783 6.79-.03-.016-.23-16.028 1.294-23.344.524-1.115 2.403-.216 3.48.326 2.927 1.395 6.084 2.96 8.794 4.743zm-205.806-87.892c.94 7.564.26 19.344-1.078 24.01-.51 1.58-11.273-5.534-12.043-6.03 2.126-3.936-.77-13.097-.46-11.47.738-.51 13.335-7.27 13.582-6.51zm621.548-516.86c-.2.48-1 6.154-1.247 6.17-.817.077-2.018-5.55-4.097-7.41-3.927.45-4.39-2.216-3.62-3.518-.184-.574 1.264-1.798 2.635-1.69 3.373 1.35 7.947 2.527 6.33 6.448zm10.44-224.446s-2.956 16.663-2.956 16.632c-7.3 1.054-14.322 2.278-20.82 1.534 1.277-17.313 3.294-32.286 8.838-34.89l-11.488-9.285s-12.75 7.983-12.027 7.874c.308-.093.57-6.79.754-17.64-.322-28.317-16.538-56.977-17.17-56.682-.34-.233 13.814-1.35 23.993 3.07l.462-37.496s-5.05-2.527-5.975-3.705c-1.863-6.526 3.157-8.184 6.176-6.557 1.4-4.96 3.542-17.22 3.62-17.205 6.805-1.13 13.828-2 20.79-1.612-1.172 5.767-1.91 10.154-2.28 15.95-.878 8.65-2.65 16.85-7.177 18.787.8-.326 11.318 8.912 11.318 8.912l12.782-7.906c-4.127 26.986 2.926 53.18 15.107 74.385-6.144.712-13.09.37-23.93-2.884 0 0 .615 37.572.615 37.355 11.98 4.76 5.436 14.013-.632 11.362zm-384.337-68.71c-.047.39-.216 4.62-.216 4.62-1.694-2-3.065-7.873-3.403-7.78 0 0-2.187.34-2.865-.388-2.218-2.372-.032-5.16 2.17-4.635 2.203.573 4.62 4.355 4.313 8.183zm327.216-152.425s.476 66.618.46 100.005c-8.392-.123-6.744 4.558.11 4.062l.03 30.782 4.543.156s-8.547 8.974-13.984 14.71l-.124-2.915 8.255-8.944-8.546.016-.03-147.732 9.285 9.86zm183.336 1103.8c-2.064.45-4.235-9.146-7.823-14.958 4.08-2.466 10.518 2.215 11.965 5.966-.94 3.162-4.204 8.944-4.142 8.99z"/><path id="path3304-4-6-6_1_" class="st1" d="M153.125 217.93V7.562H22.733V217.93h130.392zm18012.263-7242.53c-.17-.34-.462-.82-.462-.82s.308-.078.54-.233c15.106-5.626 31.276-18.15 31.553-18.523v13.873l9.994 10.602v37.586h-39.316l-11.52-19.39c.693-5.084 2.495-14.91 2.495-14.91 1.063.262 4.62.588 6.56-2.187.91-1.333 1.387-3.147.155-6zm250.138 286.84l-1.493 1.906 2.633-.124-1.802 1.968 2.91.063-2.263 1.937 3.066.03-2.28 1.907 3.358-.154-2.403 2.076 3.312-.016-2.48 2.092 3.25.047-2.11 1.875 2.834.032-3.203 2.262c-1.37-.604-3.203-.945-5.05-.976l-.048-15.22 1.77.294zm549.78 348.757c-7.485-.032-9.087 3.998-.047 4.634-.17 10.123.415 30.366.415 30.366l4.928.123s-13.213 14.352-14.445 15.515c-1.124-48.22-1.078-160.177-1.078-160.177l10.087 10.168.108 31.65c3.372 3.442 5.313 8.464 7.33 11.72l5.513 2.696-1.293 4.464.554 1.27 1.724-6.308-6.037-2.883-.647-1.3 1.017-5.954-5.714-1.967-.985-1.364.354-5.813-1.2-.373v-1.146l1.184.108.416-6.526-1.617-.48v-1.472c0 .03.94 0 1.402.03.63.342 1.694 1.72 1.694 1.72l-.57 7.24 7.24 1.457.538.775-1.34 7.238 7.608 2.34c-.786-1.937-1.818-3.735-2.68-5.64 1.047-.31 2.14-.373 3.188-.606.292-9.78-.046-19.948.262-29.155 6.113-.45 3.25.14 5.913.093 1.046 0 1.878-.853 1.878-1.89 0-.668-.34-1.257-.862-1.598l1.047-.387 1.848 2.092-3.85 3.72.032 1.07 4.79-4.82-2.08-2.403 1.232-.636 1.894 2s4.066-4.185 3.82-4.263c-.124-.03-.355-.248-.51-.465-2.894-6.293 1.064-9.3 5.838-7.564 1.216-5.797 2.37-11.02 3.326-17.02 3.573-1.363 20.36-2.138 20.544-1.828 0 0 .43.403.446.605-.077.263.478-.558.478-.558 0-.357 14.63.372 21.852 1.75 0 0 .154.7.093 1.613-.123 1.845.03 1.83-1.648 1.55-3.403-.232-6.052.946-7.1 3.968-.585 1.69-.307 3.21.586 7.72.878 4.386.878 3.905.785 4.51-.123.697-.862 1.472-1.94 2.34-.8.667-.893 1.907-.23 1.225.445-.65 1.23-.898 1.94-1.255 1.662-.868 1.6-1.72.63-5.316-.46-1.69-.94-3.52-.954-3.72-.046-.668.185-.39 1.17.293.632.465 1.355.853 2.018 1.24 1.986 1.07 1.108-.108-.8-1.38-1.495-1.115-1.757-1.596-.463-1.07 1.34.544 3.248.31 4.742-.262.293-.17.508-.14.554.125.062.418-.184 1.488-.308 3.937-.277 6.184-1.724 12.787-5.82 16.6-5.853 5.456-15.478 1.752-20.822-3.3l-.585.882c3.59 3.023 9.796 6.805 15.848 6.076-2.526 2.124-8.116 5.642-8.116 5.642-3.835-2.79-6.653-5.58-10.857-8.602l-.74.48 11.566 9.223 12.444-8.262s-.523 7.922-.708 10.82l5.405-4.805-4.157-6.2 4.42-4.572s-.74.108.077-1.302c1.248-2.54 1.987-6.618 2.572-10.772-.108-3.1.647-6.525.878-9.27.416 2.56.893 3.907 1.832 6.232.863 2.232 1.202 2.217 2.172 1.89 5.282-.448 2.895 9.813-3.357 3.1-.278-.278-.724-.634-.74-.557-.123.42 1.664 5.813 2.34 7.053.725 1.317.74 1.503 1.818 1.395 2.033-.216 2.71.512 2.926 2.667-.276 4.06-4.634 2.356-7.437 1.1-.246-.2 1.31 1.442 1.88 2.015.77.775.892 1.287.892 1.287l-.17 2.153-4.28 3.937 3.526 5.24-.137 1.875-3.773 4.54 4.02 4.388.045 1.565-3.265 4.37 4.374 3.535.216 1.41s-2.803 5.224-2.726 5.41c.06.155 4.743 3.41 4.743 3.41l.477 2.2-2.032 5.58 4.85 2.79.894 2.512-1.37 5.162 5.035 2.34 1.433 2.914-.94 5.426 5.653 1.69 1.493 2.387-.2 4.774 1.385.14-.015 1.177-1.54-.015s.123.17-.046 2.54c-.293 4.015-.324 3.86.63 4.015 2.003.357 1.54 1.597-.507 1.364-.308-.032-.585-.063-.8-.11-.54-.108-.956-.805-.956-.805l.448-7.41-7.223-1.208-.693-.93 1.2-6.867-6.775-1.968-.908-1.66 1.924-7.13-6.822-3.02-.447-1.32 2.895-6.338-6.283-3.07-.4-1.518 3.48-6.526-7.238-5.3s.2.51.476 1.38l5.73 4.122-2.91 5.58s-.232-.403-.48-.326c.14.93.263 1.86.325 2.775l2.957 7.766-9.578 6.48c4.095 2.48 9.285 2.402 14.028 3.332 0 0 .216.666.57 1.255 1.386 2.232 2.633 5.07 4.173 7.998-1.138.544-1.63.466-2.848.714-1.694 9.548-3.357 20.538-6.052 28.846-1.17 0-2.125.96-2.125 2.14 0 .65.292 1.223.74 1.61-.263.078-.54.156-.833.218-.385 0-1.955-1.736-1.955-1.736l4.034-4 .032-1.332c-1.617 1.69-5.143 5.332-5.143 5.332l2.124 2.263-1.047.496-1.725-1.92-3.88 4.013-1.002-.682c1.31-1.72 2.156-2.293 4.112-4.323-1.017-1.21-4.974-5.053-4.974-5.053l.015 1.333 3.896 3.797-3.79 3.813-.215.248s-3.003-1.302-3.203-1.302c1.278 1.054 3.573 1.97 4.82 2.883 5.652 3.364.277 10.308-4.928 8.587-.154-.558-2.88 14.648-2.572 15.5-.277 2.356-.338 2.03.478 3.38 2.433 5.64 9.517 16.29 9.517 16.29l-63.787.403c.662-1.302 1.34-2.356 1.833-3.89 0 0-3.588-3.752-4.897-8.696-.74-2.76-1.787-5.332-3.62-7.177-.03-.062.062-.155.185-.232 5.037-1.782 10.797 2.543 12.552 7.487l2.896-4.743c-1.31-.155 19.265 2.356 24.3 1.72-.446-.092-.97-.464-.677-1.89.51-2.45 1.433-11.33 1.433-11.33 1.017-8.634 1.802-19.5 7.454-23.08 0 0-.862-.93-1.617-1.41-.015.015.662.712.693.79 0 .248-.14.403-.308.542-1.2.977-2.664 3.007-2.603 3.07-4.68-4.093-11.98-7.596-16.4-6.14-1.74.373-2.51 2.063-3.435.683 1.2-7.425 1.11-15.61.647-22.026-.724-14.307-3.865-22.506-6.976-32.643 1.6-.573 9.81-6.106 9.81-6.106.046-.698-9.903-3.007-13.814-2.604 0 0-.8-.79-.8-.62.014.046.045.093.076.155-.585.325-.97.945-.97 1.658 0 1.054.847 1.89 1.88 1.89.2 0 .384-.03.568-.076.493 1.21.91 2.263.91 2.263l-5.53-2.418 1.802-6.092-.6-1.348-2.203 7.92 7.054 3.038.478 1.41-2.926 6.015 6.314 3.766.262 1.195-3.404 6.448 6.114 4.727-4.466 5.813 5.498 4.65-.062.775-4.558 5.285 4.712 4.867.124 1.97-5.13 4.587 4.437 6.48c-1.848 1.254-2.88 2.68-4.097 4.09l-1.078-.48 3.943-3.007-4.204-6.122-4.435 4.03 2.404 3.952-1.463-.666-1.34-2.108.216-2.17 4.39-4.015-3.774-5.5-.03-1.01s2.34-2.71 4.05-4.726l-4.774-5.3 3.91-5.023-4.91-4.215.137 1.255 3.635 3.085-2.788 3.394c-.2 2.045.247 5.548-.8 7.098 1.678 1.66.8 5.642-.03 6.93 1.6 1.905.692 6.106-.34 6.276 1.217 1.55.74 4.68-.293 5.69-.324.17 4.373 1.874 7.33 3.92-2.464 4.62-1.894 8.96-2.664 10.525-1.063-3.1-2.434-6.387-3.604-8.76-.123-.247-.385-.185-.785-.2-4.898-.434-4.436-4.51-.755-5.55 0 0-7.47-5.595-11.257-6.215-.047-.093-.016-.232.123-.496.54-1.117.847-3.054.924-4.76.277-2.526-.94-6.416-.94-6.416l1.556-.96c.308-1.334 2.048-1.365 2.202-2.326-.37-4.092-8.3-19.763-9.98-21.53-.615 11.222.586 23.36-.015 34.52zm19.01-225.202l-1.292 1.07.03-1.69 1.263.62zm-14.88 209.816l.648.482-.647.73v-1.21zm89.298-.674c-.124-.775-.262-1.534-.416-2.278.908-.25 1.586-1.07 1.586-2.078 0-1.178-.955-2.14-2.125-2.14-.17 0-.325.032-.494.063-.34-1.178-.662-2.2-.91-2.945l-.43-.31c1.17 4.077-1.093 6.262 2.25 9.657.045.17.276.124.538.03zm-667.026 259.31l-20.76-.14v-7.703l16.002-17.112-6.16-.076.06-29.358c1.695-.712 3.297-1.797 4.868-2.867l9.732 5.424.71.356s-.263.078-.833.45c-1.093.728-1.524 2.51-1.016 3.86.817 2.185 2.51 1.797 3.912 1.797 1.17.915 2.172 3.953 2.988 5.968.385.883.74 1.55.832 2.06.092.466.077.885.077.885s-.186-.062-.463-.636c-1.556-3.286-5.175-4.867-7.1-1.767-.97 1.907-.308 4.077 1.34 4.697.508.186 2.202-.016 2.202-.016.092-.062 1.23 1.612 2.833 7.115.662 2.263.83 7.192.2 7.905-1.063 1.302-1.34 3.115-2.233 4.433-.416.822-.385.31-1.032-.604-2.187-3.13-6.02-5.55-9.548-5.41-2.495.11-3.265.962-2.68 1.69 1.37 1.41 2.264 3.38 2.71 5.115 1.048 4.03 2.157 7.627 4.96 10.758l-1.602 3.178zm526.04-842.873c-.26-.248-.06-.635-.014-1.333.123-1.767.154-1.782 1.17-1.348 1.94.852 4.666.108 6.314-1.69 2.08-2.278 2.14-4.603.847-9.223-1.478-5.193-1.448-5.875.34-6.944 1.06-.915 2.17-2.837 1.754-2.837-.062 0-.2.123-.324.247-.123.14-1.093.93-1.848 1.457-2.064 1.426-2.71 2.155-1.756 4.774.94 2.588 1.694 5.13 1.294 5.285-.185.078-.893-.774-1.34-1.022-.908-.526-2.803-1.487-3.05-1.487-.322 0 .016.232.956.852 2.48 1.643 3.51 3.13 1.11 2.185-1.28-.51-2.65-.217-3.42.047-.893.294-1.355.59-1.448.248-.123-1.597 0-3.24.093-4.852.03-.108.154-1.193.277-2.418.446-4.665 1.247-8.602 3.28-11.144 6.822-8.478 14.584-6.013 23.3.776-3.25 9.067-3.034 16.135-3.834 19.003-.755.23-1.633-.218-2.187-.528-1.217-.698-2.603-1.116-3.927-1.178-1.232-.062-1.448.108-1.34-.264.092-.28 2.08-.868 3.296-1.13 2.217-.466 2.048-.978.184-.807-1.97.186-3.865.96-5.867 2.31-1.402.93-1.45.93-1.08 2.107.093.28.278.698-.384.946-.693.248-.585.542-.2.852.092.078.34.093.446.17.124.094-.015.543-.015.605 2.54 2.155 7.007 2.217 10.688 0 .184.062.37.357.2.76-.385.853-4.343 1.875-7.146 1.922-1.28.015-1.525-.14-3.466-.744-.8-.247-1.232-.31-1.31-.185-.168.28.124 1.1.74 1.534 2.064 1.487 5.067 1.363 9.148-.264 2.187-.868 1.956-1.178 1.263 3.177-.2 1.21-.416 2.124-.416 2.124s-19.19-.667-22.33-1.984zm-76.107 138.435c-1.015 0-1.94-.264-2.478-.79-.785-.884.046-1.148 1.294-.667 1.6.62 3.434.264 4.835-.62.91-.572 1.11-.262.34.544-.91.976-2.51 1.534-3.99 1.534zm-7.472 28.973c-1.77.017-3.388-.31-4.05-1.053-.6-.682-.015-.76 1.494-.155 2.14.837 4.974.574 7.33-.605 1.202-.604 1.57-.728 1.417-.03-.71 1.1-3.604 1.828-6.192 1.844zm-123.29 10.762c-1.678 0-3.11-.388-2.85-1.27.094-.31.186-.125 1.387.247 1.2.37 2.74.23 4.28-.218 1.45-.418 1.71-.51 1.08.11-.8.758-2.418 1.146-3.897 1.13zm102.388 3.305c-1.71-2.65-2.002-6.525-3.82-8.617-3.357.635-4.943-2.543-2.125-4.666 1.434-.806 3.19-.202 4.467 1.922 1.232 2.015 1.57 3.24 1.602 4.526-.093 2.697.045 4.138-.124 6.835zm45.384 5.144l-.74-.092c-.538-1.845-1.74-1.953-2.478-.015l-.57-.094c.862-2.372 3.003-2.465 3.788.2zm-146.11 8.98c-.308.014-.57-.31-.71-.745-.29-.976.047-.853.71-.45.677.42 1.2.698.816.853-.277.17-.508.28-.816.34zm-14.916-.406c-.26-.325-.308-.573.016-.806.323-.17.554-.278.878-.387.292-.092.477-.014.354.42-.077.37-.308.898-.493 1.115-.294.047-.602-.154-.756-.34zm38.767 4.968l-.584-.046c-.616-1.69-2.064-1.627-2.618-.17h-.524c.986-2.604 3.003-2.14 3.727.216zm68.573-1.95c-.57 0-1.11-.82-.8-1.24.307-.262 1.708.032 1.83.56.032.31-.476.666-1.03.68zm-13.415 1.447c-.277-.063-.26-.28-.26-.31-.14-.683.676-.93.86-.667.093.155-.338.697-.6.976zm53.82-6.092c1.385-.388 2.016-1.582 1.94-2.93-.078-1.085-.632-1.968-1.448-2.155-1.648-.37-2.788.776-4.466 1.256-.724.185-.555 1.13-.093 1.55.602.526 1.51.2 2.742-.745 2.418-1.86 2.988 1.72.8 2.34-.353.094-.2.884.525.683zm-25.82-27.458l-.94-.28.94-1.115v1.394zm-537.266 609.59l1.925-2.184-2.633.2 1.786-1.86-2.726-.107 2.002-2.094-2.68.063 1.987-2.017-2.54-.077 1.678-1.845-2.787.218 2.033-2.216-2.987.046 2.262-2.06-2.972.014.893-1.023-.785-.404c-.816.372-5.482 1.845-5.636 2.945 1.03.28 4.065-1.27 4.265-1.022 1.217 5.41 6.468 17.36 9.933 20.848l.247-33.79c.523-.496 1.37-.248 1.91-.465 1.755.094 4.696-2.867 3.156-3.456-.8-.17-5.236-.945-5.25-1.162-.54-9.796.338-19.64-.063-30.1-1.247-.187-5.297-.42-5.297-.42s14.892-15.64 15.184-15.33c-.354 16.756-.17 49.523.123 49.647 0 .976-.338 3.053-.338 3.053l.323 104.222s.092.465.262.76c.308.51.323.635.354 2.2.124.96-.014 1.225-.014 1.225l-10.18-10.835-.015-30.302s-9.64-14.322-11.857-20.94c-4.867-9.86-4.343-24.212-7.284-29.7h-.186c-.077-.805-.077-1.115-.2-1.24-.216-1.797-.462-4.246-.462-4.246l1.062-1.705-1.186-1.534v-4.092l1.587-1.628-1.448-1.86.4-3.812 1.125-1.008-.647-.868s-.108-1.38.154-2.96c.168-1.07 1.215-.93 3.402.185 3.096 1.178 6.253 3.286 8.686 4.883-.14 1.984-2.587 6.525.816 11.532 1.263.945 4.913.604 5.236.744l-.03 15.407m0 1.8l-1.65.293 1.665-1.674-.016 1.38zm-78.28 93.327c.14-.016.31-.14.524-.388.23-.265.6-.187 1.525-.14.985.06 1.246.03 1.893-.202.74-.28.755-.28 1.278-.046.802.34 1.31.387 2.065.17.91-.264 1.494-.186 2.048.093.57.28.755.232.955-.295.077-.217.493-1.07.678-1.348.6-.93.462-1.085-.817-.698-.878.264-2.495.45-3.68-.062-.91-.387-2.003-.263-3.297.31-1.14.497-2.264.652-3.357-.263-.63-.544-.6-.125-.447.99.17 1.226.292 1.907.63 1.876zm631.538-577.164c1.17 0 2.125-.96 2.125-2.14s-.955-2.138-2.125-2.138c-.555.465-.847 4.185 0 4.278zm-365.015 29.32c1.293-.448 3.08-1.037 5.082-.448 1.57.48 1.2-.713-.508-.853-1.186-.108-1.11-.108-.185-.976.785-.73-.2-.682-.724-.217-.63.542-2.34.402-3.31-.047-.432-.202-.478.62.03.79 1.278.45.97.48-.416.93-.524.124-.54 1.023.03.82v.002zm348.974-.58c-.677-.25-.246-2.744 0-2.853.786 0 1.417.636 1.417 1.427 0 .79-.63 1.426-1.417 1.426zm-296.537 5.104c-.54.186-.924-.73-.924-1.333 0-.79.63-1.426 1.417-1.426.954.945 1.124 1.984.03 2.573-.17.063-.338.125-.523.187zm-90.64-1.4l4.543-4.634-4.466-4.557-4.466 4.65 4.39 4.54zm-11.964 13.764c-.647 0-1.186-.526-1.186-1.192s.524-1.18 1.186-1.18 1.186.528 1.186 1.18-.54 1.193-1.186 1.193zm457.44 12.065c-.648 0-1.187-.528-1.187-1.194s.522-1.177 1.185-1.177 1.185.527 1.185 1.178-.523 1.195-1.185 1.195zm-452.11 10.533l-3.266-4.417 3.99-3.595-.202 2.232c-.877.155-1.54.946-1.54 1.876 0 .806.51 1.503 1.217 1.767l-.2 2.14zm416.363 8.184l.045-1.21-4.096-4.09 4.064-4.248-.03-1.178-5.052 5.425 5.067 5.302zm-418.036 1.848l5.02-5.177-4.835-5.316-.063 1.348 3.804 3.953-3.88 3.875-.046 1.317zm14.5-.822c-1.016 0-1.894-.34-2.17-1.007-.216-.37-.324-.696-.632-.85-.6-.28-1.402-.095-1.448.122-.077 0 .955.094 1.124.264.8.73.663 1.178-.462 1.085-.37-.014-1.386-.03-1.4-.433-.232-1.38 1.6-2.402 3.94-2.216 1.665.28 1.68-.372 1.803-1.27.076-.295.323-.776.538-1.148.585-1.07.786-.914.37-1.332-.4-.528-.91-1.18-.91-1.783l.017-5.61s3.495.014 4.727.898c1.28 2.34 2.14 7.394.278 10.168-.647.837-1.617 1.225-2.726 2.108-.847.668-2.033.993-3.05 1.01zm562.3 5.487l.124-1.628c.893-.155 1.57-.93 1.57-1.875 0-.838-.54-1.535-1.278-1.8l.108-1.41 2.603 3.752-3.126 2.96zm-138.194 3.635c-.385-.217-.647-.62-.647-1.1 0-.56.355-1.04.847-1.21l-.2 2.31zm-22.302 7.61c1.802-.944 1.186-4.587 0-4.277-1.17 0-2.125.96-2.125 2.14s.955 2.138 2.125 2.138zm-417.943 4.328c1.17 0 2.125-.96 2.125-2.14s-.954-2.138-2.125-2.138c-1.57.496-.677 4.216 0 4.278zm35.436-.08l.186-2.34c.416.2.693.634.693 1.13 0 .574-.37 1.055-.88 1.21zm457.633 3.933c-.785 0-1.416-.634-1.416-1.425 0-.79.63-1.426 1.416-1.426.462-.094.77 2.603 0 2.85zm-493.068.748c-.955-.077-.154-2.51 0-2.852.786 0 1.417.636 1.417 1.426s-.647 1.426-1.417 1.426zm40.226-.886l4.698-4.713-4.636-5.147-3.865 4.728 3.804 5.13zm410.886 9.15l4.497-4.667-4.25-4.433-4.482 4.774 4.236 4.325zm-370.362 4.14l-1.678-1.75 1.678-.017v1.767zm-304.535 18.887c-.648 0-1.187-.528-1.187-1.194s.524-1.178 1.186-1.178 1.185.527 1.185 1.178-.54 1.193-1.186 1.193zm672.158.635c-.647 0-1.186-.528-1.186-1.18s.523-1.192 1.186-1.192c.646 0 1.185.527 1.185 1.194s-.54 1.177-1.185 1.177zm-403.26 3.34l4.975-5.177-4.805-5.146-.06 1.225 3.85 3.89-3.898 4.03-.06 1.178zm55.31 10.395l-.046-1.302-3.988-3.983 4.19-4.248-.17-1.147-5.16 5.363 5.175 5.317zm-141.272-1.426l-3.604-3.596 3.588-4.014v2.092c-.74.263-1.263.96-1.263 1.798 0 .837.54 1.534 1.28 1.798v1.922zm392.35 10.44l-.03-1.472c.816-.218 1.402-.946 1.402-1.83 0-.914-.647-1.673-1.51-1.86l-.03-1.162 2.85 3.162-2.68 3.162zm157.656.72s-1.202-1.287-1.617-1.814c.323-.372.523-.853.523-1.395 0-1.178-.955-2.14-2.125-2.14-.34 0-.662.078-.94.218-.215-.326-1.185-1.66-1.185-1.66l5.667.916-.323 5.873zm-654.884 4.113c1.17 0 2.125-.96 2.125-2.138s-.955-2.14-2.125-2.14c-2.14.433-1.725 4.17 0 4.277zm246.105 6.276c3.033-.342 2.248-4.217 0-4.28-1.17 0-2.126.962-2.126 2.14s.955 2.14 2.126 2.14zm-152.59.05l-.063-2.372c.493.172.862.637.862 1.21-.015.512-.338.977-.8 1.163zm530.453 3.82c-1.37-.513-.955-2.947 0-2.854.785 0 1.417.635 1.417 1.425s-.647 1.427-1.417 1.427zm-377.863.73c-.786 0-1.417-.636-1.417-1.427 0-.79.63-1.426 1.417-1.426 2.017.233 1.51 2.806 0 2.852zm-142.612.438c-.384-.216-.646-.62-.646-1.1 0-.48.262-.884.63-1.1l.017 2.2zm474.91.435l-1.663-2.14c.154-.06.324-.092.493-.092.785 0 1.417.636 1.417 1.426 0 .294-.093.573-.247.806zm-610.455 3.53l3.88-4.713-4.773-4.263-3.388 4.215 4.28 4.76zm627.26 6.702l4.774-4.868-3.373-3.52 1.863.202 2.695 2.76.062-.915-1.463-1.69 1.57.062c.57-.884-2.956-.915-4.958-1.256-2.526-.434-8.054-2.465-6.838-.977l1.386.357-1.31 1.58.017 1.21 2.28-2.45.77.187-3.22 3.333.217 1.024 3.958-4.077 1.155.264-4.02 4.122 4.435 4.65zm-451.575 1.468c-.647 0-1.186-.527-1.186-1.194 0-.65.524-1.177 1.186-1.177.647 0 1.186.527 1.186 1.178-.016.668-.54 1.195-1.186 1.195zm453.114 20.3c-.647 0-1.186-.527-1.186-1.178 0-.65.524-1.193 1.186-1.193.647 0 1.17.527 1.17 1.193.016.636-.508 1.178-1.17 1.178zm-374.065 4.164s.307-3.907.476-5.783l-6.16-1.658-.77 6.23 6.453 1.21zm-197.525 2.246l-.862-.032.138-3.626.833.898-.108 2.76zm-31.606.613s-.617-1.01-1.326-2.11c.385-.387.616-.914.616-1.503 0-1.178-.955-2.14-2.125-2.14-.216 0-.43.032-.616.094-.278-.526-.802-1.363-.802-1.363l5.282 1.566-1.03 5.456zm19.382 11.377l-4.142-3.394 3.218-4 .216 1.706c-.724.262-1.247.96-1.247 1.78 0 .993.754 1.8 1.71 1.892l.245 2.015zm567.26 2.94c-.646 0-1.185-.526-1.185-1.177s.524-1.194 1.186-1.194 1.186.528 1.186 1.194-.54 1.178-1.187 1.178zm-620.415.09c1.047 0 1.894-.85 1.894-1.89s-.846-1.907-1.893-1.907c-.416-.31-.523 3.256 0 3.798zm621.083 2.138c-.108-.56-.246-2.667 0-2.527.693 0 1.263.574 1.263 1.27s-.57 1.256-1.263 1.256zm75.552 3.48c-.477-.745-.954-1.55-1.37-2.28.092-.014.17-.014.262-.014.785 0 1.416.636 1.416 1.426 0 .31-.107.62-.308.87zm-630.878 9.03c-.57-.125-.986-.62-.986-1.24 0-.497.293-.93.693-1.132l.294 2.372zm479.405 1.31l3.51-4.73-5.313-4.168-3.003 5.177 4.805 3.72zm122.092 6.393l-3.958-1.163.74-4.076c.06.23.277.665.585 1.177-.17.31-.278.666-.278 1.038 0 1.178.954 2.14 2.125 2.14h.17c.37.51.615.883.615.883zm-605.14 13.33l1.294-6.51-5.96-2.418-1.447 6.866 6.113 2.062zm-30.814 7.33c-.647 0-1.17-.527-1.17-1.178s.523-1.178 1.17-1.178c.646 0 1.185.527 1.185 1.178s-.54 1.178-1.185 1.178zm639.923-.127c-.615-.154-1.077-.712-1.077-1.378 0-.094.015-.17.03-.264.34.542.71 1.116 1.048 1.643zm-680.648 4.204l3.188-6.06-5.436-3.813.37 1.303 3.88 2.867-2.263 4.17.262 1.534zm711.208-.8c-.647 0-1.186-.527-1.186-1.193s.524-1.177 1.186-1.177c.647 0 1.17.527 1.17 1.178s-.523 1.194-1.17 1.194zm-584.12 15.682l-1.264-2.217c.524-.39.863-1.01.863-1.722 0-1.178-.956-2.14-2.127-2.14-.17 0-.338.032-.508.063l-.924-1.952 5.53 2.434-1.57 5.533zm-30.69 4.488c.492.11.97-.2 1.308-.527.354-.34.57-.837.57-1.364 0-1.053-.847-1.89-1.88-1.89-1.416.325-.646 3.626 0 3.78zm557.068-.41l-4.497-3.24 2.634-5.1s.262 1.023.6 2.418c-.63.31-1.077.96-1.077 1.72 0 1.055.847 1.892 1.88 1.892h.03c.153.836.307 1.627.43 2.31zm-97.316 3.817c-.785-.23-.523-2.448 0-2.525.678-.108 1.263.558 1.263 1.255s-.57 1.272-1.263 1.272zm157.083-1.422l-1.155-2.465c.062-.015.123-.015.2-.015.786 0 1.417.635 1.417 1.426 0 .42-.17.79-.462 1.054zm-594.093 16.028c-.63-.063-1.14-.605-1.14-1.256 0-.45.247-.853.6-1.07.186.714.37 1.52.54 2.326zm446.44 3.853l3.08-6.124-5.684-3.487-2.618 5.92 5.22 3.69zm120.627 3.672l-3.512-1.612.986-3.643.43.9c-.2.325-.338.712-.338 1.146 0 1.1.832 2.016 1.894 2.124l.54 1.085zm-576.544 7.042l1.725-6.122-5.466-2.868-2.495 6.17 6.236 2.82zm46.15 12.72c-.463-.234-.77-.714-.77-1.272 0-.093.014-.186.03-.28l.74 1.55zm-110.782 1.12c-.647 0-1.186-.527-1.186-1.194s.524-1.177 1.186-1.177c.647 0 1.186.526 1.186 1.177s-.524 1.194-1.186 1.194zm566.386 3.355l2.603-6.418-5.99-3.333.446 1.162 4.434 2.573-1.894 4.635.4 1.38zm113.565.4c-.647 0-1.17-.526-1.17-1.177 0-.65.523-1.194 1.17-1.194.646 0 1.185.526 1.185 1.193-.015.65-.54 1.178-1.185 1.178zm-636.128 14.995c1.047 0 1.878-.853 1.878-1.89s-.847-1.94-1.878-1.892c-1.895.03-.924 3.797 0 3.782zm644.34 6.828c-.355-.65-.632-1.333-.88-2.03.57-.388.94-1.04.94-1.768 0-1.146-.893-2.076-2-2.138-.048 0-.248-.032-.248-.032l-.34-1.286 4.697 2.48c-.63 1.78-1.2 3.02-2.17 4.773zm-600.373 1.2c-.554-.234-.693-2.45 0-2.528.693 0 1.247.558 1.247 1.256s-.553 1.272-1.246 1.272zm541.282 2.39l-4.62-2.668 2.326-5.037.693 2.31c-.493.34-.832.914-.832 1.565 0 1.038.832 1.89 1.863 1.89l.57 1.938zm-28.93 3.83l-.74-2.464c.755.03 1.202.65 1.202 1.41.015.418-.17.79-.462 1.053zm-493.102 10.905c-.585-.108-1.03-.62-1.03-1.24 0-.356.153-.682.4-.915l.63 2.155zm509.128 7.22l-3.573-2.107 1.616-4.2.462 1.52c-.323.372-.508.868-.508 1.395 0 .992.678 1.83 1.602 2.077l.4 1.318zm-591.65 1.194l2.17-5.843-6.268-3.318-1.57 5.983 5.667 3.177zm633.424-1.576c-.37-.264-.6-.682-.6-1.163 0-.17.03-.34.092-.48l.508 1.642zm-558.948 15.775l2.54-5.936-5.296-3.503-2.757 6.186 5.513 3.255zm-36.174 1.103c-.647 0-1.186-.526-1.186-1.177s.524-1.18 1.186-1.18c.647.002 1.17.53 1.17 1.18s-.508 1.177-1.17 1.177zm527.765 4.673c.523-.34.846-1.008.846-1.674 0-1.054-.847-1.907-1.88-1.89-.23 0-.445.03-.63.06-.554.73.216 3.535 1.663 3.504zm122.25 19.575c-.646 0-1.185-.526-1.185-1.193 0-.65.523-1.194 1.185-1.194s1.186.528 1.186 1.194c0 .666-.54 1.193-1.186 1.193zm-645.66-4.324c.077-.046.17-.06.277-.06.693.03 1.263.556 1.263 1.254 0 .403-.185.76-.462.976-1.094.837-1.248-2.34-1.078-2.17zm648.74 21.746c-.216-.976-.463-1.89-.694-2.758.093-.016.2-.032.293-.032.784 0 1.416.636 1.416 1.427 0 .634-.43 1.192-1.017 1.363zm-592.067 6.81l1.648-6.572-6.283-2.31-1.2 6.216 5.836 2.666zm569.02 5.105l-3.328-2.31s1.078-2.62 1.987-4.014l.262 1.21c-.555.386-.91 1.022-.91 1.75 0 1.054.74 1.922 1.726 2.108l.262 1.257zm-643.602.383c-.692 0-1.246-.558-1.246-1.255 0-.45.138-.652.493-.87.277.62.646 1.24 1 2.078-.107.03-.138.047-.246.047zm597.588.574c-.493-.217-.847-.73-.847-1.302 0-.372.14-.713.37-.96l.478 2.262zm-529.383 11.975l3.018-5.287-4.435-3.41-3.465 5.286 4.882 3.41zm-35.66 6.974c-.647 0-1.186-.527-1.186-1.194 0-.65.522-1.178 1.185-1.178s1.185.528 1.185 1.18c-.015.665-.54 1.192-1.185 1.192zm542.83-.257l-.77-1.21c.245-.324.384-.712.384-1.146 0-1.053-.848-1.89-1.895-1.89-.14 0-.278.016-.416.047l-.617-.96 3.927 1.425-.616 3.735zm118.443 10.832c-.646 0-1.185-.528-1.185-1.18s.523-1.176 1.185-1.176 1.186.526 1.186 1.177-.54 1.18-1.186 1.18zm-661.156 10.138l-1.155-1.813h.03c1.094.015 1.556.93 1.125 1.813zm664.03 2.694l4.28-5.72-5.683-4.23.092 1.255 4.142 2.976-3.157 4.23.324 1.49zm-610.89-1.36l-5.652-1.782 1.216-5.642 1.325 2.232c-.37.34-.585.837-.585 1.38 0 1.053.847 1.89 1.88 1.89.215 0 .415-.03.6-.093l1.216 2.015zm529.977 13.462c1.077-.11 1.91-1.024 1.91-2.124 0-1.178-.956-2.14-2.126-2.14-.54-.06-.616.776 0 .714.785 0 1.416.635 1.416 1.426 0 .76-.585 1.364-1.324 1.41l.108.714h.015zm-530.624 6.656l.986-6.526-6.407-1.38-.477 5.922 5.898 1.984zm599.003 4.465l-3.02-2.248 2.295-3.24.124.93c-.556.39-.91 1.024-.91 1.753 0 .93.585 1.705 1.4 2.015l.11.79zm-674.032.35c-.693 0-1.247-.56-1.247-1.256 0-.31.11-.59.293-.807l1.217 2.046c-.092 0-.17.014-.262.014zm576.07 5.106c-.168-.03-.4-.077-.353-.17.046-.108 1.078-1.24 1.078-1.24l-.123-1.054-1.817 2.077-.74-.263 2.557-2.62.123-.976-3.403 3.363-1.448-.402 3.958-3.922-4.558-4.65-4.56 4.68 3.235 3.566-1.6-.156c-.68-.775-1.418-2.015-2.666-2.666l.125.93c.06-.046 1.51 1.364 1.278 1.597l-1.278-.094c-1.494.404 1.832.962 5.035 1.505 1.664.062 6.515 2.216 5.36.573-.047-.03-.124-.046-.2-.077zm-97.51 6.746c-.355-.263-.586-.666-.586-1.146 0-.34.123-.65.308-.884l.277 2.03zm-485.152-1.478c-.647 0-1.17-.527-1.17-1.193 0-.65.523-1.178 1.17-1.178.646 0 1.185.527 1.185 1.178-.014.666-.538 1.193-1.184 1.193zm693.25 8.323l3.682-4.71-4.173-4.03-4.266 5.037 4.757 3.704zm-663.228-.4l-.292-.045v-3.21l.446.094-.154 3.16zm648.073 7.522c-.646 0-1.185-.527-1.185-1.178s.524-1.178 1.186-1.178c.648 0 1.187.527 1.187 1.178s-.524 1.178-1.186 1.178zm-161.86 10.747c-.646 0-1.185-.528-1.185-1.195 0-.65.524-1.193 1.186-1.193s1.187.527 1.187 1.193c-.016.652-.54 1.194-1.186 1.194zm-405.543 1.61l4.76-5.704-5.114-5.3.016 1.177 3.972 4.185-3.712 4.356.077 1.286zm-10.593 6.403l4.897-4.976-4.88-5.083-.124 1.147 3.758 3.83-3.527 3.657-.123 1.426zm409.24 3.415v-1.348l-3.064-3.147 3.142-3.223-.016-1.38-4.45 4.62 4.39 4.478zm-105.735 3.207l-5.76-1.1.353-5.487 1.386 1.69c-.232.31-.386.713-.386 1.147 0 1.053.847 1.89 1.88 1.89.292 0 .57-.077.83-.185l1.695 2.046zm265.548 3.528l-2.834-3.006 2.71-3.085.03 1.054c-.753.326-1.277 1.085-1.277 1.968 0 .915.57 1.69 1.37 2v1.07zm-592.612 6.517c.94-.216 1.648-1.07 1.648-2.092 0-1.023-.708-1.875-1.648-2.092v.743c.54.2.94.728.94 1.332 0 .62-.4 1.147-.94 1.333v.775zm37.17 5.46c.877-.575.477-3.845 0-3.8-1.048 0-1.88.854-1.88 1.892s.832 1.907 1.88 1.907zm301.8 1.19c1.046 0 1.878-.853 1.878-1.89s-.847-1.892-1.88-1.892c-.815.263-.476 3.596 0 3.782zm66.94 2.077c-.693 0-1.248-.558-1.248-1.255 0-.233.062-.45.17-.62l1.493 1.83c-.137.014-.276.045-.414.045zm153.213 1.64c-.694 0-1.248-.558-1.248-1.255s.554-1.272 1.247-1.272c-.062.45.23 2.59 0 2.527zm-156.738.414c-.385-.247-.647-.697-.647-1.193 0-.48.23-.9.586-1.162l.062 2.356zm-454.97 2.05c-.153-.513-.353-2.62 0-2.528.694 0 1.264.574 1.264 1.272s-.57 1.255-1.263 1.255zm480.93-1.6l4.59-4.602-4.68-4.82-4.436 4.758 4.527 4.665zm10.164 13.382l4.112-4.464-3.958-5.177-4.65 4.667 4.496 4.975zm-374.677 1.677c-1.264 0-2.45-.218-2.927-1.07-1.94-2.604-1.386-7.967-.03-9.81 3.018-2.76 4.712-3.49 8.115-2.854-.385 1.55 1.248 2.388 1.48 2.03.03 0 .153-.278 0-.293-1.172-.14-1.08-1.55-.94-1.55 1.293.046 2.14.015 2.263.604.078.356-.122.915-.877 1.534-.893.715-4.96.7-4.96.7-.014 0 .017 1.16-.4 1.843-.353.59-.86 1.24-.507 1.52.585.28.985.945 1.062 1.705.154 1.612-.092 5.47-.03 5.518-.71.046-1.494.124-2.25.124zm-242.375-1.706c-.647 0-1.186-.527-1.186-1.178 0-.65.523-1.193 1.185-1.193.647 0 1.186.526 1.186 1.193 0 .636-.523 1.178-1.185 1.178zm617.02 21.71c-.647 0-1.186-.526-1.186-1.177s.523-1.194 1.185-1.194c.647 0 1.186.527 1.186 1.194s-.523 1.178-1.185 1.178zm-455.296 2.35l4.804-4.93-5.113-5.33.17 1.44 3.68 3.813-3.602 3.782.06 1.224zm449.592 8.223l.123-1.364-3.404-3.596 3.097-3.193.046-1.55-4.543 4.82 4.682 4.883zm-28.682-1.167l-2.71-3.829 3.234-2.85-.093 1.085c-.938.217-1.63 1.07-1.63 2.077 0 .9.553 1.658 1.323 1.984l-.123 1.534zm-404.024 13.1c.062-.79.108-1.44.14-2.03.876-.264 1.523-1.085 1.523-2.046 0-.868-.51-1.597-1.233-1.938.062-.62.14-1.286.247-2.154l3.25 4.774-3.928 3.395zm-.59 5.443l-.107-13.408-9.673-10.074v-37.742h39.686l10.226 17.33c.2.34.492.216.723.54l-3.034 16.292c-4.775-2.217-8.78 3.503-6.177 8.137-14.722 5.41-31.647 18.926-31.647 18.926zm598.64 1.54c1.046 0 1.893-.853 1.893-1.892 0-1.052-.848-1.905-1.895-1.905-1.355.62-.678 3.767 0 3.797zm-165.006.47c.524-.606.816-3.83 0-3.8-1.047.032-1.88.854-1.88 1.908s.833 1.892 1.88 1.892zm-93.26.28c-.986-.73-.093-2.356 0-2.526.693 0 1.263.573 1.263 1.27-.016.698-.57 1.256-1.263 1.256zm93.26 3.818c-.693 0-1.247-.557-1.247-1.254s.554-1.27 1.247-1.27c-.077.2.324 2.432 0 2.525zm-29.643.3c-.4-.25-.677-.7-.677-1.21 0-.59.354-1.1.862-1.318l-.185 2.527zm-404.586 2.54c.063-.916.11-1.66.17-2.42.355.265.586.683.586 1.148 0 .558-.308 1.04-.755 1.27zm28.28 9.036l4.48-4.51-4.666-4.868-4.435 4.713 4.62 4.666zm411.223 2.07l4.697-3.78-3.018-4.666-1.047-.636-4.297 3.69 3.665 5.393zm-380.22 8.338l-11.04-5.92s2.864-1.21 2.787-3.132c-.108-2.154-1.402-3.906-3.943-3.255-.585.078-.847-.155-1.416-1.472-1.077-2.527-2.14-5.317-1.724-5.224 1.355 1.086 1.155 1.148 2.74 1.86 2.973.823 4.775-1.952 3.836-4.215-.878-2.077-2.326-2.2-3.79-1.984-.214-.045-.4-.278-.538-.557-.462-.945-1.17-2.635-1.71-5.223-.846-4-1.03-8.99-.415-10.246.86-1.736 2.032-4.092 2.032-4.092 2.294 4.418 7.315 8.293 12.95 6.913.186-.124.232-.744-.03-1.1-1.832-2.418-2.14-4.635-2.787-7.006-1.68-6.093-5.05-9.565-5.005-8.945l1.77-3.224s15.324-.076 21.607 0v7.41l-16.432 16.942 6.515.28-.23 29.2c-2.388.497-5.176 2.992-5.176 2.992zm-213.297.566c-.647 0-1.186-.527-1.186-1.194 0-.65.523-1.193 1.186-1.193s1.185.527 1.185 1.194c-.014.65-.538 1.193-1.184 1.193zm594.602 12.65c-.646 0-1.185-.526-1.185-1.192 0-.652.523-1.194 1.185-1.194.647 0 1.186.527 1.186 1.193-.015.667-.54 1.194-1.186 1.194zm-452.01 7.925l-.123-1.163-3.234-3.41 2.99-3.068c.43-.605 1.554-.466 1.908-.512-.246-.744-.908-.65-1.6-.945l-4.344 4.48 4.404 4.618zm363.926 5.435c.785-.248.647-3.612 0-3.798-1.047 0-1.88.853-1.88 1.89s.833 1.908 1.88 1.908zm-10.742 19.238c-.077-.31-.2-2.495 0-2.526.693 0 1.263.558 1.263 1.255s-.57 1.272-1.263 1.272zm94.176 3.688c-.693 0-1.247-.558-1.247-1.255s.555-1.255 1.248-1.255c.17.28.447 2.465 0 2.51zm-44.25.32c.186-.078.447-.032.648-.032.662 0 1.463.466 1.647.388.2-.093.14-.527.124-.73-.016-.185-.524-.23-.724-.37-.324-.218-.247-.295.138-.388.34-.078.602-.093.818-.403.138-.185.138-.51-.077-.51-1.308.015-2.972.557-4.527.03-.893-.325-1.478-.527-1.617-.403-.293.264.755 1.27 1.756 1.457 1.016.186 1.37.11 1.047.42-.17.154-.402.092-.417.2-.046.31.185.636.462.682.262.062.493-.248.724-.34zm-296.674 1.342c.107 0 .26-.078.462-.248.6-.403 1.524-.93 3.773-.31 1.23.403 2.632.046 3.433-.17.63-.187 1.54-.357 2.248-.016.71.34 1.48.852 1.34.325-.03-.14-.076-.915-.09-1.38-.032-1.1-.094-2-.88-1.147-.338.372-.754.372-1.524.077-.554-.217-.924-.372-1.355-.093-.6.403-1.123.496-2.232.124-.524-.185-1.078-.2-1.74.218-1.11.682-1.802.016-2.233-.682-.34-.558-.508.233-1.124 1.876-.292.775-.384 1.426-.076 1.426zm47.55 17.44c.6-.342 1.447-.45 2.047-.853 1.295-.9.078-1.643-.815-1.457-.37.077-.785.263-1.263.59-1.617 1.084-2.51.93-2.664-.39-.17-1.41 2.002-2.045 1.802-2.71-.277-.435-1.325.154-1.97 1.053-1.942 2.62.183 5.287 2.863 3.768zm-48.207 38.198c2.202-.25 5.498-1.318 7.16-2.574 1.31-1.022 1.664-1.27 1.11-1.69-.508-.37-.893-.387-.2-1.1.246-.247.662-.79.662-.898 0-.512-3.112-2.03-4.883-2.264-1.37-.186-3.588.03-4.79.512-1.57.635-1.632 1.07-.138.635 1.154-.34 2.555-.604 3.94-.496 1.25.094 2.465.466 3.235.745 1.91.682 1.57 1.488-.354.806-2.216-.96-5.08-.944-7.622.203-1.032.465-1.31.837-1.51.682-.045-.047-.153-.295-.184-.372-.06-.17-.077.434-.154 1.395-.077.79-.154 1.86-.154 1.86s.154-.45.154-.667c-.015-1.394.647-1.394 2.557-.324 2.233 1.24 3.326 1.116 5.436 1.1.924 0 .97.264-.34.698-.615.2-1.585.542-3.002 1.007-1.154.39-1.477.807-.923.745zm79.74 52.518c-.816 0-1.54-.697-1.74-2.03l.8.062c.263 2 1.71 1.55 2.28.356l.71-.015c-.556 1.085-1.34 1.627-2.05 1.627zm-128.31 20.782c-.324.03-1.85-.713-1.94-.945-.11-.247.476-.526.985-.666.585-.17.462-.202.646.155.262.48.71 1.425.308 1.456zm19.344.816c-.015-.218.447-1.008.786-1.1.4-.125.71.402.385.68-.29.14-1.108.73-1.17.42zm-44.726.715c-1.017.046-1.972-.992-2.064-2.232l.524.015c.477 2.558 2.433 1.985 2.864.156l.616.17c-.508 1.318-1.247 1.86-1.94 1.89zm119.248.507c-.277.015-.246-.217.092-.9.154-.325.278-.495.555-.495.384.06.63.185.815.48.14.294-.17.526-.832.743-.292.093-.508.155-.63.17zm-19.3 1.2c-.183 0-.507-.124-1.015-.34-1.31-.59-1.463-.822-.785-1.163.308-.14.554-.263.77-.325.616-.202.6.14.754.574.093.247.2.464.324.712.17.356.17.542-.047.542zm51.448-.784c-.216 0-.693-.294-1.648-.635-1.37-.497-2.74-.31-4.558.278-.755.233-1 .388-.71-.046.232-.34 1.51-.976 2.558-1.24 1.956-.48 4.527.434 4.527 1.442-.016.138-.062.184-.17.2zm-150.703 14.512c-.2 0 0-.31.416-.76.647-.713 1.617-1.21 2.618-1.395 2.096-.372 3.836.202 3.85 1.38.017.852-.137.867-1.17.325-.877-.45-2.848-.574-4.434-.046-.524.14-1.063.464-1.155.48-.06.015-.092.015-.123.015zm32.245 11.21c1.586-.417 3.28-.85 4.82-1.146 1.648-.326 4.065-.03 5.328.605.924.466 1.263.187.847-.712-.262-.59-.677-1.194-1.863-1.612-1.74-.605-5.79.372-8.81 1.953-1.755.774-1.416 1.254-.322.913zm146.903-3.48l-2.71 4.65c-18.388-3.58-38.284-.977-44.367-.14 0 0-6.653-11.067-9.04-14.957-.23-.42-.847-1.814-.847-1.814l62.77.048c-.877 1.782-1.708 4.076-1.708 4.076 1.925.775 3.403 3.658 4.327 6.092.8 2.14 2.2 7.347 4.05 9.89-3.22 1.843-11.32-2.264-12.475-7.844z"/><path id="path3302-0-9-2_1_" class="st2" d="M66.176 8.896h62.185l-8.1 16.306c-15.106-2.31-30.014-2.015-44.75.326L66.175 8.896zm18792.032-5627.374l.123 7.81-8.053-.185 7.93-7.625zm-705-45.992l-.09 23.714c-3.22-2.278-6.423-4.572-9.734-6.37l.123-24.537 9.702 7.192zm536.596-386.237c.57 13.407 2.51 18.646 3.773 25.45l-11.535 7.503-.03-27.528 7.792-5.425zm-171.58-15.164l-.062 33.03c-10.595-15.345-17.294-30.923-19.142-51.956 2.88-1.163 5.698-2.465 8.655-3.503 3.003 8.278 6.606 15.702 10.55 22.43zm-343.547-188.94c9.795 12.525 15.63 29.22 18.71 49.772l-8.96 4.386c-2.974-7.254-5.992-14.973-9.765-20.987l.015-33.17zm842.492 123.56l-.032 27.62-7.654 5.007c-.477-9.703-2.002-18.786-3.773-25.497l11.46-7.13zm-266.627-150.496c2.834 2.14 5.775 4.124 9.055 5.612l-.477 24.505-8.638-6.695.06-23.42zm-211.68-39.432s-5.39 5.502-7.393 7.3l-.046-7.486 7.438.185zm523.005-510.742l10.056 17.268-62.986.526 8.1-17.375c16.663 3.052 30.94 1.673 44.83-.42z"/><path id="path3300-3-9-0_1_" d="M71.18 43.818c-.137-.047-2.093 1.286-3.094 3.24-1.094 2.154-.108 4.277-.43 4.293-2.02-.604-1.434-4.463-.74-5.657.6-1.038 1.724-1.736 2.895-1.937 1.17-.217 1.37.062 1.37.062zm18666.24-5892.386c.4 0 .585.062.847.34.37.39.816.652 1.047.606.323-.047.462.015.462.186 0 .14-.14.17-.662.123-.324-.03-.986.48-.986.48v36.457c-2.85-1.194-7.1-1.875-10.38-2.263l-.215-32.487s-4.805 2.526-6.545 3.534l-.062 29.078-3.403.372 5.375 10.974c.754-.588 11.32.404 13.952 2.14l-9.64 6.06c.985 3.008 1.863 5.875 2.695 8.93.03.09.2.076.23.17.2.743.34 1.068.524 1.828.03.14-.016.372.015.51 2.08 7.21 3.495 16.74 3.788 25.297-.03.078-.34.016-.34.016l.063 5.225.34-.233-.032 2.356-.354.34-.047 1.32.447.278-.23 3.952-.463.062-.246 6.262 12.213-7.95s7.962 5.734 11.457 8.725c-3.834 2.62-4.85 7.734-5.805 11.98-.97 4.202-1.294 7.674-1.57 11.193-.31 3.874-.94 8.834-1.45 11.268-.307 1.472-.29 1.643.14 1.658.154.016 0 .062-.34.11-7.822.31-16.23-.854-23.7-1.83 0 0-1.848 3.457-2.494 4.743 0 0-.37-1.18-.77-1.985-.908-1.736-2.972-3.565-4.743-4.542-.662-.433-2.556-1.084-3.85-1.3-.754-.125-1.97.107-2.88.48-.307.123-.554.293-.554.464 0 .17.247.326.555.635.26.25.616.745.8 1.1.54 1.102 1.37 2.962 1.833 4.713 1.31 3.457 2.265 7.641 5.252 9.486l-2.063 4.155 64.97-.015-10.055-17.05s-.308-.512-.4-.683c-.293-.542-.416-.464-.416-.464.646-5.953 1.585-11.827 2.817-17.593 0 0 .123.465 2.033.434 5.59-.077 7.546-6.324 2.88-9.098-.447-.264-1.186-.775-1.925-1.163-.216-.108-2.895-1.69-2.895-1.69l3.203 1.458.23-37.51s6.7 2.03 11.104 2.217l-.046 32.52 6.16-3.35.278-29.077 3.373-.217s-1.277-2.743-1.57-3.317c-.57-1.147-2.002-3.72-2.988-5.332-.354-.574-1.155-1.845-1.155-1.845-4.496-.125-9.1-.807-13.29-2.667l9.687-6.34c-4.05-11.47-9.086-28.255-6.283-55.35l-.677.435-.185 2.914-12.058 8.354-14.876-12.06s1.078.032 1.324.048c3.788.14 6.468-3.767 7.377-7.022 1.617-5.75 1.832-7.16 2.57-16.275.294-3.596 1.002-7.083 1.726-10.51.386-1.72.325-1.89.325-1.89-7.562-.248-15.462.558-21.39 1.876 0 0-2.496 11.95-3.39 17.02-.846-.482-1.585-.7-2.355-.683-5.837.59-5.33 8.68-2.31 8.912zm50.683 100.972l-3.08-10.85 7.53-.698 6.253 11.47-10.703.078zm-241.895-1220.45l7.746-16.522c16.247 2.294 25.61 2.51 44.46-.17l9.794 16.476-2.572.015-7.392-13.16-10.98 1.102 3.034 12.043-2.895.093-3.003-11.81-16.987.093c-.554 3.952-1.617 11.702-1.617 11.702l-3.14-.03 2.093-11.967-10.026-1.27-5.79 13.376-2.726.03zm368.668-1.31l.985-10.043 14.046-.107 2.248 10.167-17.278-.015zm-180.193 1.357l4.774-11.933 6.945.93-1.894 10.834-9.825.172zm118.955-13.187c-.308-1.023-.616-2.015-.693-2.216-1.14-3.1-1.602-4.108-2.34-5.147-.124-.17-.155-.154.014-.294 3.418-1.674 9.578 2.45 11.072 6.23-.185.373-1.017 1.907-1.017 1.907-.43-.852-.107-1.69-.385-2.448-.077-.326-.77 2.185-.77 2.185s-.677-1.116-.77-3.255c-.015-.326-.893 1.442-.893 1.442-1.093-1.49-1.032-4.077-1.032-4.077-1.232 1.52-.462 2.37-2.37-1.473-.217.403-.11.822-.402.713-.847-.325-2.017-.914-2.448-.806.554.714 1.648 1.086 1.94 2.016 0 0-.862-.078-.924-.032.97.543 1.91.993 2.65 2.03-.216.08-1.11-.076-1.063.017 1.325 1.21 3.31 2.17.432 1.906 1.862 1.32 3.94 2.233.707 2.14 2.31 1.1 2.94 1.783 2.51 1.97-.246.107-.94-.31-2.033.045 1.864.76 2.618 1.116 2.695 1.364.092.31-.786.464-1.402 1.13 0 0 .755-.17 1.078.17 0 0-.37 1.055-.647 1.66-2.372-2.155-3.296-5.208-3.912-7.177zm44.22 91.272s10.456-11.33 15.63-16.957l-5.05-.077-.232-30.69c-1.756-.232-4.82 0-5.975-1.177-.723-1.07 2.064-3.178 3.62-2.73 1.047.28 2.34.063 2.34.063l-.107-34.208c3.34 6.23 5.882 10.184 9.578 21.003-1.077.744-2.17 1.333-2.355 1.457 1.417 3.442 2.403 8.867.416 13.594l-1.37-.82c1-2.884 1.37-7.146-.26-11.083l-.37.403s.4.79.66 1.658c.232.775.57 1.767.57 2.806.063 1.83.016 3.41-.415 4.883-.154.48-.354 1.193-.462 1.41-.108.217-.215.418-.215.48 4.02 1.643 6.9 4.046 10.364 5.75.138.063.246.125.323.17.447.25.324.327-.37.606-1.447.574-2.032 1.287-2 2.697.045 2.015 1.107 2.79 3.448 2.666.847-.046.91-.03 1.047.264.355.68 1.57 3.394 1.57 3.502 0 .062.263.667.57 1.364.478 1.085 1.033 2.217 1.264 3.348.108.558.446.79.523.202.616-4.325 1.186-6.62 2.295-9.207.323-.776.585-1.427.554-1.458-.107-.093-1.97-.96-2.833-1.318-3.404-1.41-4.944-2.278-4.42-2.48.37-.14.493-.403.585-1.13.247-1.908.216-2.884-.108-3.49-.338-.634-.323-.68.216-1.037.477-.31.37-.31.493-1.907.153-1.89.045-3.084.045-3.084l-.847-1.085.862-1.084.2-4.945-1.154-.882 1.093-1.085-.386-4.51s.14-.42.323-.62c-1.832-19.08-8.947-38.317-19.588-51.43l-.11-31.356-10.44-10.51.477 162.038zm150.274-33.2v-2.465l8.855-9.61-8.855-.155v-2.092l13.598.03-13.598 14.292zm-6.11 10.83l-.014-6.93 6.622-.014-6.607 6.945zm59.846 27.682l-1.386.062c.062-1.396.6-7.844 1.263-13.486.74-6.355 2.25-11.842 2.54-11.842l1.34.806c-2.2 7.316-2.786 16.693-3.757 24.46zm-461.636 26.305c.2-3.938 1.017-6.697 1.263-11.347.308-5.688 1.278-12.77 3.82-18.63.862-1.985 2.432-3.83 4.65-4.713 3.896-1.534 7.192 3.318 4.558 6.883-2.08 2.82-5.328 2.79-6.314-.063-.817-2.356 1.8-5.316 3.896-4.402 1.447.636 1.078 3.27-.555 3.89-.676.265-1.246-.603-.923-1.378.262-.605.293-.993-.06-.73-1.48 1.055-.37 3.55 1.462 2.62 2.447-1.24 2.03-4.913-.433-5.068-3.126-.31-5.528 3.565-7.068 10.896-1.695 8.215-1.264 15.578-2.896 22.026l-1.402.015zm50.957-1.642l-1.634.047c.123-.605.154-1.255.262-2.015.647-4.31 1.032-10.602 1.694-15.53.94-6.96 2.603-11.192 2.65-10.68.184.836.723 1.534 1.123 2.2-1.694 4.635-2.372 8.835-2.803 12.803-.508 4.65-.647 8.944-1.293 13.175zm-22.883.652l-1.432.078c.554-9.222 1.91-17.592 2.695-21.188.246-1.085.323-1.55.54-1.643.23-.094.6.262 1.523.774-1.4-.202-2.525 15.686-3.326 21.978zm-54.74 3.012l-1.555.155c.23-3.334.785-8.588 1.416-13.316.755-5.72 1.756-10.788 2.25-10.71l1.308.45c-.893-.264-3.034 16.8-3.42 23.42zm19.69-1.08c1.016-6.99 1.124-15.142 3.234-21.668l1.464.682c-.4-.124-1.448 4.247-1.787 9.191-.308 4.308-1.078 9.005-1.31 11.593l-1.6.202zm-19.74.892c.586-2.464.586-6.106 1.017-9.13.54-3.75 1.11-11.376 1.97-11.205l1.495.76c-.786-.232-2.157 14.213-2.988 19.344l-1.494.232zm-14.19 1.36l-1.51.2c.725-5.64 2.05-18.785 2.834-18.893l1.418.76c-.554 2.324-1.956 10.167-2.74 17.932zm-28.488 4.287c.63-6.2 1.216-12.477 2.525-17.298l1.555.713s-1.078 5.3-1.586 9.02c-.508 3.674-.585 4.2-.74 5.162-.353 2.11-.446 2.186-.446 2.186l-1.31.217zm-73.66-4.738l.154-29.775 1.724.062-.077 29.744-1.8-.03zm495.154 47.123c-.646 0-1.185-.528-1.185-1.18 0-.65.522-1.192 1.184-1.192.647 0 1.186.527 1.186 1.194-.015.635-.54 1.177-1.186 1.177zm58.232-9.196c-1.216-2.247-2.156-3.068-3.234-3.502-1.94-.775-4.62 1.13-3.65 3.813.51 1.41 1.818 1.612 3.465 1.333 0 0 .71.51 1.54 3.053.986 3.022 2.54 6.122 2.54 6.122.11-3.798 1.002-7.735-.66-10.82zm-237.588 89.58c-.647 0-1.186-.526-1.186-1.177s.524-1.178 1.186-1.178 1.186.527 1.186 1.178-.524 1.178-1.186 1.178zm224.456-60.8c-.647 0-1.186-.526-1.186-1.177 0-.65.524-1.193 1.186-1.193s1.186.527 1.186 1.193c0 .65-.524 1.178-1.186 1.178zm2.208.642c-1.094-2.278-1.325-3.998-2.387-6.075-.462-.9-.878-1.676-.878-1.676-3.465 1.644-4.805-2.495-1.987-3.812 2.772-1.303 5.883 3.626 5.575 8.943-.092 1.473-.323 2.62-.323 2.62zm-226.124-5.278c-.647 0-1.17-.527-1.17-1.178s.523-1.194 1.17-1.194c.647 0 1.186.527 1.186 1.194s-.54 1.178-1.186 1.178zm206.556 20.752v-2.542l6.16-6.014v2.45l-6.16 6.106zm104.415 14.68c-1.172-.017-1.742-.373-.956-.683 2.587-1.04 3.742-2.682 3.88-5.565 0-1.457-.17-1.643.724-.837 2.264 3.21-1.016 7.1-3.65 7.084zm-609.046 13.513c-.293.017-.57-.03-.847-.122-.693-.217-.447-.233.724-1.023 2.234-1.488 2.91-2.945 3.004-5.92.03-.45-.062-.823-.03-1.01.03-.138.2-.092.307-.092.432.078.694.527.817.9 1.402 2.85-1.216 7.16-3.973 7.27zm13.738 6.748c-.185 0-.354-.03-.493-.093-.54-.28-.34-.31.646-1.023 1.77-1.27 2.65-3.13 2.85-5.224.138-1.333-.894-2.93.923-1.612 1.277 1.07 1.016 3.83-.34 5.735-.83 1.164-2.556 2.202-3.588 2.218zm-58.297 7.98v-2.882l6.16-5.89v2.96l-6.16 5.813zm647.043-5.89c-.693 0-1.016-.466-.2-.978 1.987-1.255 3.188-3.673 3.08-6.184-.108-1.52-.17-1.783.785-.79 1.556 1.61.462 5.998-2.54 7.64-.4.218-.8.31-1.125.31zm-559.76 10.35c-1.156.03-1.31-.56-.278-1.272 1.956-1.38 3.265-3.797 3.234-6.013-.015-1.024.062-1.148.508-.807 2.264 1.737-.17 7.813-3.234 8.076-.077.016-.154.016-.23.016zm-25.27 6.166c-.277-.015-.785-1.023-1.57-3.116-.755-2.03-1.987-4.572-2.25-4.665-.076-.03-.43.093-.77.28-2.586 1.363-4.404-2.512-1.863-3.953 1.818-1.023 3.527.077 5.098 3.286 1.863 3.782 2.37 6.587 1.478 8.106-.03.03-.076.062-.122.062zm341.894.363c-.308.015-.616-.046-.893-.186-.663-.34-.57-.603.446-1.208 1.062-.62 1.478-1.023 2.08-1.938.953-1.44 1.107-2 1.107-3.86 0-1.518.447-1.595 1.356-.247 1.554 2.294-1.557 7.316-4.098 7.44zm-290.264 6.26c-1.016.015-1.678-.388-.708-.915 3.095-1.643 4.39-4 3.788-6.898-.185-.914.847-.14 1.48 1.1.907 1.814-.77 5.317-3.08 6.37-.48.218-1.018.327-1.48.342zm-15.594 7.497c-.2-.015-.415-.527-.908-1.798-.324-.837-.755-1.83-.955-2.2s-.353-.745-.322-.807c.17-.295 1.6.2 2.08.728.738.806.984 2.604.476 3.627-.14.28-.246.45-.37.45zm231.606 17.665c-.647 0-1.186-.528-1.186-1.18s.523-1.192 1.186-1.192c.646 0 1.185.526 1.185 1.193s-.54 1.18-1.185 1.18zm343.165 14.493c-.646 0-1.185-.526-1.185-1.193s.523-1.178 1.185-1.178 1.186.527 1.186 1.178-.522 1.193-1.185 1.193zm-954.715 13.85c-1.294.047-1.68-.573-1.894-2.54-.154-1.35-.432-1.474-2.557-1.118-2.234.373-2.973-.232-3.127-2.557-.123-1.845-.108-1.83-2.65-1.845-2.494-.015-2.755-.263-3.048-2.836-.216-1.907-.14-1.86-2.587-1.83-2.726.032-2.957-.17-3.142-2.587-.154-1.97-.277-2.093-1.986-1.938-1.68.14-4.79.155-5.36.03-1.447-.31-1.51-.262-1.817 1.706-.416 2.588-.924 2.914-4.08 2.588-1.556-.154-1.726-.123-1.957 1.256-.292 1.83-.662 2.372-.662.775 0-4.014.277-4.2 2.926-3.487 2.002.542 2.033.123 2.233-1.814.185-1.705.478-2.403 1.094-2.682.477-.217 2.11-.03 2.772.155.245.077 1.8.108 3.633.092 4.42-.046 4.466-.062 4.466 3.07 0 1.317.292 1.596 2.602 1.534 2.91-.093 2.756-.17 3.25 3.348.168 1.21.26 1.255 2.663 1.224 2.618-.03 3.22-.077 3.065 2.14-.14 2.014.354 2.54 2.54 2.03 2.326-.543 2.773.45 3.004 2.247.215 1.675.354 1.256 1.463 1.35 1.232.092 1.093 1.487-.216 1.626-.245.017-.445.048-.63.063zm290.982 2.053c-.647 0-1.186-.528-1.186-1.194 0-.65.524-1.178 1.186-1.178s1.186.527 1.186 1.178c0 .65-.524 1.193-1.186 1.193zm558.054 4.426c-.646 0-1.17-.526-1.17-1.193s.524-1.18 1.17-1.18 1.186.528 1.186 1.18-.54 1.192-1.186 1.192zm92.73-1.39c-.647 0-1.186-.528-1.186-1.18s.524-1.176 1.186-1.176 1.186.526 1.186 1.177-.54 1.18-1.186 1.18zm-878.345 14.637c-.646 0-1.185-.528-1.185-1.18 0-.65.524-1.192 1.186-1.192s1.187.526 1.187 1.193c-.016.652-.54 1.18-1.186 1.18zm-86.425-.778l-12.26-9.206-11.595 7.81.077-2.85 11.52-7.704s9.81 7.641 14.537 11.33l-2.28.62zm400.716 7.368c-.646 0-1.185-.527-1.185-1.193s.523-1.178 1.186-1.178c.647 0 1.186.526 1.186 1.177s-.54 1.193-1.185 1.193zm477.166-.51l-2.91-4.758 2.895-2.124-2.648-3.394 2.85-2.946-3.127-2 2.926-4.106 4.05-1.814-4.05 5.363 3.358 2.326-3.188 3.457 2.85 3.766-2.958 2.324 3.204 5.285-.216.247-3.034-1.627zm-96.62 12.59l-21.545-16.215s-1.985-1.503-2.555-1.875c-1.217-.775-1.448-.465-2.664.372-2.725 1.627-9.3 6.138-9.3 6.138l.045-2.34s6.622-4.992 10.288-7.053c.523-.294 1.078-.015 1.463.28 7.992 6.37 16.185 12.554 24.3 18.8l-.03 1.892zm-452.242-7.988c-.092-.17-.385-.217-.523-.434-.954-1.488-2.68-4.123-2.68-4.123l3.035-2.418-2.787-3.673 3.48-3.55-3.542-2.433s2.202-3.394 3.865-4.944l.048 2.635-1.417 1.722 1.633 1.13v3.628l-1.663 1.767 1.525 1.55-.278 3.968-1.447 1.163 1.2 1.643-.446 2.372zm467.608 1.042c-.647 0-1.186-.527-1.186-1.178s.524-1.178 1.186-1.178 1.186.527 1.186 1.178-.54 1.178-1.186 1.178zm-848.543 1.68l5.99-5.578v2.526l-5.99 5.92v-2.866zm1048.327 34.94v-3.055l6.39-5.953v2.945l-6.39 6.06zm-1022.594-23.717v-3.038l5.99-5.674v3.007l-5.99 5.704zm909.25 25.623l-.123-98.565-6.96-7.41v-2.463l8.808 9.175.2 99.17-1.925.092zm60.49 3.874v-3.425l6.392-5.876v3.225l-6.39 6.074zm-893.11-2.814l-8.454-6.634.03-23.11c3.434 2.588 6.175 4.138 8.777 5.456l-.354 24.288zm254.124-2.85c-.647 0-1.186-.528-1.186-1.18s.525-1.177 1.187-1.177c.647 0 1.186.527 1.186 1.178s-.524 1.18-1.186 1.18zm616.175 54.54l-.03-23.593 1.662 1.535.093 23.39-1.725-1.334zm-413.036 8.198c-.647 0-1.186-.528-1.186-1.18 0-.65.524-1.192 1.186-1.192s1.186.527 1.186 1.194c-.015.65-.54 1.178-1.186 1.178zm-555.295.058c-.646 0-1.17-.527-1.17-1.178 0-.65.524-1.193 1.17-1.193s1.187.526 1.187 1.193c-.016.636-.54 1.178-1.186 1.178zm919.057 12.32c-.647 0-1.186-.528-1.186-1.18s.525-1.177 1.187-1.177 1.186.526 1.186 1.177-.54 1.178-1.186 1.178zm34.95 1.262l-5.16-4.85 5.313-5.085.046 2.34-2.956 2.868 2.972 3.1-.216 1.63zm-452.378-1.226l-4.298-3.194.678-.82 3.62 4.013zm73.72 2.405c-.646 0-1.185-.527-1.185-1.178s.524-1.18 1.186-1.18c.648 0 1.172.528 1.172 1.18s-.51 1.177-1.17 1.177zm-438.285 5.25c-.647 0-1.186-.526-1.186-1.192 0-.652.523-1.194 1.185-1.194s1.186.528 1.186 1.194c-.015.652-.538 1.194-1.185 1.194zm-110.557.03c-.832-9.44-1.402-15.966-3.82-24.863l11.135-7.16-.108 27.325-7.207 4.696zm603.215-18.358l.046-32.412c10.502 15.05 16.17 32.643 18.002 49.305 0 0-5.636 2.62-8.378 4.217-2.91-6.836-1.663-6.82-9.67-21.112zm222.67 181.118c-.647 0-1.186-.528-1.186-1.194 0-.65.524-1.194 1.186-1.194s1.186.527 1.186 1.194c-.017.65-.54 1.193-1.187 1.193zm174.728-152.015c-.646 0-1.17-.526-1.17-1.177s.524-1.194 1.17-1.194 1.186.527 1.186 1.194-.54 1.177-1.185 1.177zm-970.316 9.696l-4.097-3.148-.015-2.387 4.897 4.728-.786.806zm493.697-2.065l-5.11-5.085 5.358-5.378 5.282 5.038-5.53 5.425zm-49 9.184l4.928-2.03c-1.88-17.19-6.776-30.087-13.367-40.534l-.153 24.118c3.403 5.41 5.99 11.95 8.593 18.446zm267.787.914v-2.698l6.13-5.657v2.696l-6.13 5.657zm214.426 1.168l3.265-3.208-3.28-3.194-3.157 3.194 3.173 3.208zm-382.39 11.444v-2.882l6.098-5.922v3.054l-6.097 5.75zm-528.115-4.268l-.046-27.528 1.355-.65-.092 28.75-1.217-.572zm521.322 11.594l-1.478-1.488 1.54-1.566 1.463 1.488-1.525 1.566zm-114.205 2.824v-3.116l6.13-5.766.107 2.976-6.237 5.906zm512.058-9.493c-6.33-5.518-11.196-13.888-16.54-18.57-2.155-1.89-7.438-4.82-10.287-5.734-3.234-1.024-5.76-1.458-9.024-1.505-2.572-.046-2.587-.06-2.587-.06l-1.094-1.955 1.803.03.123-6.865c-1.91-.093-3.773.015-5.605.248l-.66-1.256c13.104-1.782 25.9 3.21 33.6 9.595 3.513 2.898 6.362 6.448 9.842 11.625 6.684 10.493 18.465 15.562 29.43 15.686l.908 1.426-1.833-.063s-.184 1.317-.215 3.565c-.03 2.526-.016 2.976.185 3.038 1.324.155 5.328.077 5.22-.093l.832 1.488c-13.076 1.333-25.95-3.255-34.097-10.602zm-456.03 97.44v-2.82l6.098-5.78v2.82l-6.097 5.78zm-461.512-77.4l.155-2.528 2.91-2.898-3.095-3.023.077-2.108 5.452 5.084-5.5 5.472zm541.554.948c.277 0 .446-.03.477-.076.078-.124.032-1.21.278-5.13.093-1.442.185-1.442-1.016-1.582-1-.03-3.25-.62-4.743-.79-1.264-.17-1.002.216-1.357 1.224-.385 1.116-.6 2.093-1.078 3.674-.446 1.456-.23 1.503 2.603 2.03 1.956.388 4.004.65 4.836.65zm-326.53 6.948l-4.928-4.945 4.85-4.96.093 2.403c-.94.837-2.05 1.798-2.88 2.744l2.864 2.944v1.814zm237.068-3.46l-.523-.884-1.264-.216.216-.884-.647-.914.8-.605-.03-1.116 1 .03.863-.62.678.868 1 .03-.045 1.24.647.544-.77.697.093 1.1-1.232-.202-.786.93zm-177.324 10.524l-.785-.512.8-.557.03-.853.494-.42 1.786 3.52-1.17-.48-.893.59-.262-1.288zm-74.36 11.91c.63-.016.708-1.18 1.385-3.38.94-3.068 1.017-2.79-.8-3.425-.8-.28-2.357-.806-3.173-1.194-1.987-.945-2.002-.945-2.74.342-.325.573-.956 1.968-1.387 2.68-1.094 1.8-1.124 1.72.893 2.682 1.186.574 1.894.806 4.374 1.814.677.295 1.108.48 1.447.48zm105.565-8.168l-.862-.542-.97.402-.2-1.053-1.062-.418.308-1.038-.477-.775.907-.172.662-1.44 1 .712 1.063-.388.293.79 1.078.528-.4.868.538 1.178-1.247.093-.632 1.254zm-6.98 14.16l-5.437-5.362 4.96-4.99 5.435 5.377-4.958 4.975zm107.087 7.11c-.647 0-1.186-.528-1.186-1.18s.524-1.192 1.186-1.192c.647 0 1.17.527 1.17 1.194s-.508 1.177-1.17 1.177zm496.797 7.012c.308 0 .493-.294.77-.867.124-.234.786-1.505 1.402-2.482 1.4-2.2 1.4-2.092 0-2.96-.586-.372-1.957-1.503-3.127-2.558-1.078-.99-.97-.76-3.296 1.597-1.525 1.534-2.464 1.968-1.863 2.774 1.447 1.242 2.633 2.156 4.188 3.35 1.032.79 1.57 1.162 1.925 1.146zm-549.216 1.375l3.204-3.16-3.62-3.303-3.002 3.1 3.42 3.364zm165.893 5.46l-.03-24.77c-3.527-6.076-7.16-12.198-9.04-19.034l-5.175 2.558c2.464 20.228 8.224 31.45 14.245 41.246zm-402.884-9.52c-.648 0-1.187-.527-1.187-1.194 0-.65.524-1.177 1.186-1.177s1.17.525 1.17 1.176c.015.667-.51 1.194-1.17 1.194zm-133.243 10.233l-1.54-1.427 1.416-1.565 1.556 1.63-1.433 1.362zm423.398 9.585c-.647 0-1.186-.528-1.186-1.18s.523-1.176 1.185-1.176 1.186.527 1.186 1.178-.523 1.178-1.185 1.178zm437.307 1.608c-.646 0-1.185-.527-1.185-1.178s.523-1.178 1.185-1.178 1.186.527 1.186 1.178-.54 1.178-1.186 1.178zm45.097 1l-.894-.665-1.048.45-.077-1.24-.953-.48.6-.884-.37-1.162 1.032-.03.8-1.07.724.697 1.4-.092.232 1.21.616.48-.477.805.354 1.07-1.202.077-.74.837zm-464.203-1.894c-.647 0-1.186-.527-1.186-1.178s.525-1.178 1.187-1.178 1.17.528 1.17 1.18-.523 1.176-1.17 1.176zm-392.055 9.77c-.647 0-1.186-.526-1.186-1.192s.524-1.178 1.186-1.178 1.186.527 1.186 1.178-.54 1.193-1.186 1.193zm-42.85-2.473l2.803-2.636-2.772-2.914.077-2.232 4.913 4.93-4.99 4.928-.03-2.077zm539.12 21.593l10.55-7.036.645 1.766-9.41 6.2-1.785-.93zm-286.645-3.7c-.647 0-1.186-.526-1.186-1.193s.525-1.178 1.187-1.178c.647 0 1.17.527 1.17 1.178s-.508 1.193-1.17 1.193zm651.195-4.986c.493-.03.986-.62 1.94-1.627.925-.992 2.018-2.155 2.265-2.325.74-.512.693-.65-.586-2.093-.384-.434-1.123-1.333-1.63-1.984-.51-.65-1.31-1.472-1.48-1.643-.523-.542-.8-.434-3.187 1.287-2.895 2.092-2.88 1.782-.216 5.223 1.54 1.984 2.28 3.193 2.895 3.162zm-416.452 4.585c-.646 0-1.185-.528-1.185-1.18s.523-1.176 1.185-1.176 1.186.527 1.186 1.178-.54 1.177-1.186 1.177zm-491.842 4.994l-1.91-2.062.17-.2 1.74 2.262zm401.947 2.77v-3.566l5.867-5.456v3.255l-5.867 5.765zm527.458 2.425l-.71-.99-1.215.077.184-1.162-.646-.48.63-.884.047-1.115 1 .232.817-.992.8.946.956-.108-.03 1.163.97.558-.678.76-.016 1.3-1.4.048-.71.652zm-521.687 7.662l-.586-1.797 14.677-9.61 1.278 1.488-15.37 9.92zm256.067-.615l-1.17-.884 15.4-9.966.462 1.3-14.692 9.55zm-242.847 9.265v-2.96l6.5-6.31v3.07l-6.5 6.2zm-398.79-3.485l-.186.155-5.035-4.867.954-1.023 4.265 5.735zm471.12 3.887l-.138-28.753 1.34.93-.108 27.282-1.094.542zm-105.022 9.96l-1.094-.962 1.048-1.038.046 2zm-66.156 5.214v-2.914l5.867-5.61v3.052l-5.867 5.472zm661.77-3.243v-2.744l6.498-6.245v2.774l-6.5 6.215zm-961.282 10.023c.17 0 .355-.108.616-.31.247-.186.832-.605 1.31-.915 1.77-1.162 3.264-2.247 3.34-2.402.14-.325-1.63-2.665-4.095-5.455-.97-1.1-.94-1.318-1.91-.326-.77.883-3.603 3.3-3.526 3.952.155.744 1.125 1.58 3.543 4.867.323.386.508.572.723.588zm464.903 2.462l-3.867-5.564.508-.512 4.745 4.712-1.386 1.364zm-74.274 1.66v-26.832l7.253-5.192c-.14-.077.893 16.12 3.665 24.753l-10.92 7.27zm-74.58 3.904l-.708-1.332-1.078.186.14-1.225-.91-.713.893-1.24-.123-.884 1.047.25.955-1.01.662 1.272 1.386-.015-.2 1.224.97.822-1.062.618-.154 1.117-.91-.078-.907 1.007zm128.835 6.845l-.122-1.102.647.558-.524.543zm65.742-.453l.015 1.566-4.62-4.495 4.728-4.45-.03 2.125-2.696 2.572 2.602 2.682zm-177.15 15.42l-.662-2 9.502-5.89 1.91 1.01-10.75 6.88zm255-9.768c-.647 0-1.186-.528-1.186-1.18s.524-1.193 1.186-1.193 1.186.527 1.186 1.194-.54 1.18-1.186 1.18zm295.084 20.725l3.342 3.363-.416.466-2.926-3.83zm-461.785 31.913c1.126-.977 3.543-3.782 3.543-4.247 0-.464-3.34-3.363-5.36-4.65-.63-.402-.877-.418-1.123-.046-3.465 5.224-3.62 5.038-2.248 6.06 1.4 1.07 3.033 2.682 4.142 3.225.493.216.57.076 1.047-.342zm77.03-22.9l-5.498-5.318 5.098-4.96 5.297 5.626-4.897 4.65zm-37.64 1.56c-.648 0-1.187-.528-1.187-1.18s.524-1.177 1.186-1.177c.646 0 1.17.528 1.17 1.18s-.51 1.177-1.17 1.177zm-490.51 1.933l-.925-.836-1.11.294-.245-1.1-1.063-.388.57-1.116-.077-1.41 1.078.2.74-1.16 1.093 1.1 1.248-.11-.062 1.225 1.11.542-.694.805.43 1.1-1.323-.216-.77 1.07zm468.424 7.49c-.647 0-1.186-.528-1.186-1.18 0-.65.523-1.192 1.186-1.192s1.185.527 1.185 1.194c0 .635-.524 1.178-1.186 1.178zm463.044.775l-3.265-3.348-3.003 2.898 3.173 3.38 3.095-2.93zm-581.427 23.664c-.645 0-1.184-.528-1.184-1.18s.523-1.192 1.185-1.192 1.187.526 1.187 1.193-.523 1.18-1.186 1.18zm612.01-21.8c-.646 0-1.185-.527-1.185-1.194s.523-1.178 1.185-1.178 1.186.528 1.186 1.18-.54 1.192-1.186 1.192zm-906.585 9.224c-.647 0-1.186-.527-1.186-1.193s.523-1.177 1.185-1.177 1.17.527 1.17 1.178-.508 1.194-1.17 1.194zm-28.582-.147l-1.478-1.535 1.37-1.457 1.54 1.58-1.432 1.412zm388.604.91c.754-.544 2.818-4.48 3.172-5.35 0-.2-1.002-.835-2.234-1.424-1.062-.497-4.497-1.892-4.805-1.97-.692-.17-.815.094-.923.543-.06.233-.338 1.147-.63 2.155-1.064 3.473-1.387 3.318.2 3.845.538.186 2.263.76 3.34 1.27 1.064.497 1.54.93 1.88.93zm106.99 7.218c-.645 0-1.184-.528-1.184-1.194 0-.65.523-1.193 1.185-1.193s1.17.527 1.17 1.194c.016.667-.507 1.194-1.17 1.194zm385.64 3.108l-.185-23.328 1.817 1.426.046 23.406-1.68-1.503zm-413.67 8.16l5.004-5.13.032 2.618-2.803 2.56 2.848 3.005-.062 2.015c-1.817-1.518-3.388-3.363-5.02-5.068zm-4.715 34.046c-.647 0-1.17-.528-1.17-1.18 0-.65.523-1.192 1.17-1.192.647 0 1.186.527 1.186 1.194-.015.635-.54 1.177-1.186 1.177zm-497.664-33.334l-1.016-.852-.847.512-.493-.87-1.217-.17.54-1.332-.71-1.023 1.187-.216.292-1.426 1.155.698.877-.388.647 1.21 1.37.06-.754 1.303.708 1.04-1 .06-.74 1.396zm594.408-.44l.016-2.06 2.17-2.217-2.186-2.404.016-2.386 4.527 4.634-4.544 4.433zm-138.97-.654c.463-.016.463-.497.817-2.078.077-.34.323-1.255.54-2.03.66-2.356.738-2.402-1.295-2.806-1.185-.17-6.283-1.38-6.39-.557-.124 1.396-.216 4.666-.232 5.782-.046.372.047.73.416.775 2.326.248 4.913.868 6.145.914zm193.89 9.94c-2.895-1.985-5.698-4.015-9.024-5.83l-.077-23.977 9.132 6.85-.03 22.956zm-207 .746v-2.945l6.082-5.86v2.807l-6.083 5.998zm471.3-.56l-.523-1.133-1.11.372v-1.364l-.985-.62 1.186-.557.108-1.66 1.2.373 1.002-.62.878.93 1.078.015-.4 1.472.693.667-1.017.496-.077 1.317-1.08-.65-.954.96zm-182.936 7.84v-2.838l6.622-6.138v2.48l-6.622 6.495zm-724.56-3.4l-1.495-2.527.54-1.022 1 .496 1.094-.403-.17 1.35.846.68-.862.792.046.992-1-.356zm733.4 12.46l-5.082-5.3 5.174-5.38 5.082 5.38-5.174 5.3zm-360.906 2.79l6.083-5.69v2.775l-6.083 5.813v-2.9zm619.333 27.157v-2.76l6.622-6.246v2.557l-6.623 6.448zm-952.573-18.317l3.295-3.286-3.28-3.302-3.312 3.225 3.296 3.363zm399.93 5.5l-1.417-1.456 1.355-1.41 1.463 1.425-1.4 1.442zm6.013 12.077l-5.036-5.208.587-.682 4.466 3.487-.016 2.403zm-53.278 14.597l-.14-2.357 2.742-2.355-2.51-2.65-.077-2.45 4.774 4.945-4.79 4.867zm22.29.73c-.647 0-1.17-.526-1.17-1.177 0-.65.523-1.194 1.17-1.194.647.002 1.186.53 1.186 1.195 0 .65-.54 1.178-1.186 1.178zm560.463 16.362c-.646 0-1.185-.527-1.185-1.194 0-.65.523-1.193 1.185-1.193s1.186.527 1.186 1.193c0 .652-.524 1.194-1.187 1.194zm-926.66 9.898l3.712-5.596-2.926-1.968 2.77-3.752-2.88-3.487 2.912-2.512-2.942-5.084c1.17.232 2.372 1.023 3.45 1.565l2.218 4.262-2.557 2.216 2.604 3.038-2.726 3.24 2.726 1.922-2.972 4.603-3.388 1.55zm82.99 4.684c-.648 0-1.187-.527-1.187-1.194 0-.65.523-1.177 1.186-1.177.646 0 1.185.526 1.185 1.177-.015.652-.54 1.194-1.185 1.194zm805.446 5.62l-25.657-19.9.108-2.635 25.672 19.856 10.904-7.75-.093 2.82-10.934 7.612zm-617.898-.824c-.646 0-1.185-.527-1.185-1.178s.523-1.178 1.185-1.178c.647 0 1.17.527 1.17 1.178s-.523 1.178-1.17 1.178zm584.1-.694l.276-.047 2.803 2.063-.615.697c0-.015-1.832-2.046-2.464-2.712zm-390.28 20.09c-.647 0-1.186-.528-1.186-1.195s.524-1.177 1.186-1.177c.647 0 1.17.526 1.17 1.177s-.523 1.194-1.17 1.194zm-425.77-8.564c-.646 0-1.185-.527-1.185-1.193 0-.65.523-1.177 1.185-1.177.647 0 1.17.527 1.17 1.178.016.667-.507 1.194-1.17 1.194zm-145.648-1.45c-.646 0-1.185-.526-1.185-1.193 0-.65.522-1.177 1.184-1.177.647 0 1.17.527 1.17 1.178.016.668-.523 1.195-1.17 1.195zm1033.735 10.364c-.648 0-1.172-.527-1.172-1.193 0-.65.524-1.194 1.17-1.194s1.187.528 1.187 1.195c0 .65-.54 1.193-1.186 1.193zm-1025.83 7.486v-2.62l5.76-5.61v2.525l-5.76 5.703zm1000.648 15.726c-.863.015-2.002-.032-3.542-.094-1.325-.046-2.788-.077-3.25-.06-1.832.045-2.433-.575-2.464-2.574-.03-1.768-.015-1.768-2.325-1.86-2.772-.124-3.51-.837-3.542-3.472-.016-1.023-.832-1.426-2.45-1.194-2.54.356-3.033.015-3.34-2.372-.247-1.983-.108-1.89-2.45-1.86-2.51.016-3.064-.402-3.095-2.34-.015-1.131-.292-1.472-1.262-1.55-1.032-.093-1.48-.635-.97-1.163.092-.092.57-.154 1.324-.17 1.6-.015 2.125.48 2.418 2.326.2 1.286.338 1.348 2.464 1.286 2.71-.077 2.926.093 3.218 2.465.247 2.046.585 2.247 2.926 1.813 1.694-.325 2.587.435 2.803 2.357.247 2.154.34 2.23 2.742 2.31 2.403.092 3.08.51 3.096 1.967.03 2.264.323 2.465 3.28 2.372 1.432-.046 2.91-.015 3.757.077 1.787.187 1.787.202 1.972-1.534.26-2.59.646-2.837 4.05-2.574 1.417.108 1.524.046 1.617-1.054.123-1.364.616-2.2 1.016-1.69.2.264.2.295 0 2.295-.23 2.23-.246 2.247-3.14 2.03-1.957-.155-1.865-.217-2.08 1.565-.247 2.17-.2 2.682-2.772 2.697zm-539.85 6.09v-2.866l6.73-6.278v2.79l-6.73 6.355zm-337.31-4.863l-1.463-2.016.477-3.734 1.247-.945-.878-1.782.277-2.185.353-.202 2.45 4.775-2.897 2.558 2.957 3.626-2.803 3.797 2.91 2.062-3.495 5.176c-.6.743-.647-2.202-.647-2.202l1.448-2.2-1.617-1.41v-3.49c-.016 0 1.678-1.828 1.678-1.828zm154.634 26.753l-.154 4.696 1.263.977-.97 1.627.062 4.154.293.202c2.418 29.744 16.894 47.32 19.157 51.32 0 0 .51.403.416 1.426-.046.45-.06 3.07-.046 5.828.092 14.105-.03 23.762-.03 23.762l10.64 11.408-.06-4.17-.525-.372v-19.018l.447-.03s.14-5.116.108-8.62l-.632-.015.03-13.066.54-.064-.03-8.462h-.586s-.138-8.882.077-13.19l.432-.032-.03-8.416-.493-.03-.032-12.03.616-.092-.17-7.936-.492-.03c-.185-4.915-.093-13.393-.093-13.393l.57-.03-.14-7.89-.4-.032.123-13.84.37-.048-.14-8.184-.4-.03.063-6.804.277-.047.06-2.543-.29-.667-.017-9.067.23-.093.063-4.557-16.494 16.786 6.067.185v5.425c0 8.96-.123 16.182.14 24.91.076.076.676.17 1.34.216 3.125.186 3.972.434 3.987 1.193.016.93-1.4 2.092-2.587 2.107-.262 0-.708.264-.708.264l.385 99.34 7.376 7.78-.03 2.466-9.102-9.688-.34-99.293-.338.155-.03 33.34c-4.667-7.02-7.27-13.965-9.872-20.924 0 0-.924.325-.955.34l.323.125c2.65 8.882 5.99 15.33 10.333 22.057l-.06 32.318c-11.12-15.795-16.495-30.008-18.728-50.484l5.62-2.82.54-.728 4.25-2.14.4.683 2.573-1.798c-1.986-3.488-1.91-8.51-.292-11.176l-.693-.433c-.046-.186-2.664 5.44.262 11.16l-1.925 1.194c-2.772-5.765-1.478-11.965-.185-13.562 0 0-2.002-1.286-3.45-2.077-1.57-.85-2.956-1.642-4.835-2.246-1.155-.48-1.894.077-1.894.093l-.555 3.208.894 1.225-1.048.837-.478 4.93 1.124 1.13-1.124 1.302zm-83.326-13.908v-3.177l5.76-5.487v3.116l-5.76 5.548zm848.078 6.423l6.73-6.215v2.588l-6.73 6.355v-2.728zm-1016.114 21.064c-.647 0-1.186-.528-1.186-1.195 0-.65.524-1.194 1.186-1.194.647 0 1.17.528 1.17 1.195s-.523 1.193-1.17 1.193zm996.24 29.608v-29.264h1.77l-.076 29.62-1.694-.356zm-855.3 14.6c-.648 0-1.187-.526-1.187-1.177 0-.65.524-1.192 1.186-1.192s1.185.526 1.185 1.193c0 .637-.524 1.18-1.186 1.18zm-163.61-3.21c-.647 0-1.17-.527-1.17-1.178s.523-1.193 1.17-1.193c.646 0 1.185.527 1.185 1.193s-.54 1.178-1.186 1.178zm889.892 8.37c-.647 0-1.17-.527-1.17-1.178 0-.65.523-1.194 1.17-1.194s1.186.528 1.186 1.194c0 .65-.524 1.178-1.186 1.178zm144.424-1.32c-.647 0-1.186-.528-1.186-1.194 0-.65.524-1.178 1.186-1.178s1.186.527 1.186 1.178c-.016.666-.54 1.193-1.186 1.193zm-963.943 13.25c-6.144-.76-4.512-7.253-1.925-8.602 3.527-1.658 6.345 1.675 4.097 5.054-1.648 2.48-4.79.836-3.573-1.876.677-1.535 2.094-1.35 2.094.2-.508 1.474-.046.947.354.435 1.248-1.628-1.262-3.35-2.556-1.752-.785.992-.955 2.154-.693 3.084.463 1.597 2.296 2.527 4.375 1.054 2.48-2.99 3.803-6.85 4.527-11.175 1.556-9.206 1.633-18.894 2.972-21.343l1.448.03c-2.11 10.54-2.125 19.562-4.39 27.855-1.108 4.123-3.957 7.052-6.73 7.037zm518.832.186c-.646 0-1.185-.527-1.185-1.194s.523-1.178 1.185-1.178 1.186.527 1.186 1.178-.538 1.194-1.185 1.194zm-503.942.175c1.617-.032 3.265-1.38 3.14-3.1-.153-2.093-1.385-3.023-3.417-2.822-1.078.11-1.063.124-1.787-1.178-.663-1.178-2.388-6.246-2.403-7.006.83 1.116 2.772 3.178 4.574 3.085 1.926-.14 3.558-1.985 2.095-4.59-.77-1.27-2.156-1.518-3.557-1.1-2.095-3.286-2.495-6.572-3.157-10.385 0 0-.83 8.17-1.077 11.424-.478 4.99-1.155 8.23-3.08 12.182 1.6.93 3.31 1.658 5.035 2.325.678.263 1.402.263 2.08.713.477.325 1.016.465 1.555.45zm89.25.604c-.646 0-1.185-.528-1.185-1.18 0-.65.523-1.192 1.185-1.192.647 0 1.186.527 1.186 1.193 0 .652-.524 1.18-1.187 1.18zm824.507 2.347c-1.216-1.983-2.402-4.85-2.495-6.65-.046-1.192.2-2.665.4-4.03.093-.68.355-.014.817 1.443 1.91 6.075 2.418 7.238 3.742 6.943.755-.17 1.54-.2 2.064.078 1.678.93 1.832 4.06-.616 4.666-1.97.418-3.22-1.318-3.912-2.45zm-705.394 21.04c-2.448-.978-4.004-2.435-3.557-4.822.2-.898.322-1.627.57-1.534.276.11.66 1.178 1.415 3.038.154.59 1.91 3.3 1.57 3.317zm-40.848-11.43c-.123.017-.34-.107-.6-.37-1.926-1.907-.878-6.216 1.693-7.472 1.064-.728 3.004-.62 3.02.093 0 .28-.062.358-.324.358-2.156-.016-4.466 3.007-3.82 6.23.047.497.186 1.148.032 1.163zm370.77-.228c-.648 0-1.17-.527-1.17-1.178s.522-1.194 1.17-1.194 1.185.527 1.185 1.194-.54 1.178-1.186 1.178zm-573.368 7.366c-.14.015-.6-.186-.91-.558-1.816-2.2-.337-5.968 2.512-7.254 1.093-.59 2.017-.186 1.786.434-1.94.806-3.788 2.914-3.588 5.797.06 1.008.4 1.55.2 1.58zm557.83 2.37l-.66-.31.276-.575c.123.34.123.48.385.884zm-329.324 2.77c-.14 0-.462.046-.77-.25-1.17-1.145-1.356-4.37-.23-5.966.522-.744 2.17-2.108 2.663-2.247.57-.078.97-.155 1.924.28.323.014-.14.31-.74.665-2.125 1.24-3.54 3.44-3.172 5.518.216 1.27.6 1.984.324 2zm302.038.693c-.57-.045-1-.54-1.263-.975-1.4-2.015-.23-6.262 2.62-7.145 1.91-.59 2.617-.03 1.077.868-2.217 1.302-3.357 3.844-2.726 5.86.294.975.587 1.363.294 1.394zm13.846 6.252c-.662-.015-1.186-.527-1.417-1.054-.554-1.302-.462-3.13.247-4.417.723-1.286 2.08-2.355 3.603-2.51.4-.032.74.015 1.047.154.663.295.432.34-.816.992-2.002 1.054-3.188 3.255-2.88 5.673.108.93.478 1.162.216 1.162zm89.936 11.538v-3.132l6.545-6.215v3.053l-6.544 6.293zm-599.835-3.753c-.123-.124-.862-1.907-.954-2.278 1.54-2.218 1.97-5.86 2.202-8.62.862-7.827 1.77-17.267 2.156-17.344l1.71-.03c-.647-.435-1.48 12.972-2.803 21.466-.107.636-1.524 7.192-2.31 6.805zm396.906 1.608c-2.25-1.534-1.048-6.31 2.08-7.486 1.138-.436 1.554-.498 2.062-.002.324.31.632.42-.185.714-2.31.604-3.942 2.774-3.557 5.3.046.62.616 2.248-.4 1.473zm166.59 9.078l-1.015-.667c1.11-3.301 1.51-7.207 1.957-10.99.54-4.572 1.032-9.268 1.694-13.763l1.572-.063c-.817 2.775-1.186 10.525-2.002 17.004-.493 3.302-1 7.812-2.203 8.478zm-138.057 8.732l-1.31-.76c.462-1.844 1.016-3.874 1.278-5.812.6-4.31.832-9.533 2.218-17.561l1.417-.125c-.355 2.59-1.032 8.324-1.602 13.625-.677 6.138-1.724 10.788-2 10.633zm72.267 8.287v-3.07l6.545-6.06v2.837l-6.545 6.292zm-503.312-2.68l-1.263-.713c.847-3.395 1.263-6.542 1.694-9.626.57-4.155.986-8.185 1.77-12.742l1.51-.092c-.754 3.503-1.617 11.718-2.294 17.5-.416 3.363-1.217 5.75-1.417 5.672zm494.75 1.88c-.014-2.324.478-5.905.478-5.905.2-.108.817 5.255 2.973 7.688 2.633-1.255 4.897 1.69 3.11 3.72-3.495 3.038-6.56-3.44-6.56-5.502zm-308.042 57.38l-1.833-.85c.23.045.662-1.226 1.078-3.21 1.278-6.03 2.557-17.902 2.757-17.902l1.417-.124c-.462 3.193-1.078 8.23-1.74 12.694-.755 5.053-1.448 9.362-1.68 9.393zm282.266-45.745l-1.387-.837c.123.093.616-1.41.862-2.45 1.248-6.013 1.818-11.283 2.588-17.11l1.51-.202c.107-.17-1.31 11.485-2.48 17.36-.4 2-.986 3.317-1.094 3.24zm16.87 7.624l-1.495-.742c1.617-4.62 1.77-9.02 3.326-18.29l1.572-.28c-.63 5.922-1.54 12.292-2.818 18.105-.185.76-.57 1.193-.585 1.21zm14.145 6.655l-1.68-.682 3.512-17.003 1.417-.187c-.878 4.9-1.34 10.572-2.525 15.036-.263.944-.402 2.014-.725 2.835zm88.906 5.388c-.646 0-1.185-.527-1.185-1.178s.523-1.178 1.186-1.178 1.186.527 1.186 1.178-.54 1.178-1.185 1.178zm-548.42 17.323c-.647 0-1.186-.527-1.186-1.194 0-.65.524-1.178 1.186-1.178s1.186.527 1.186 1.178c-.016.65-.54 1.194-1.186 1.194zm14.605 20.596c-.647 0-1.186-.526-1.186-1.177 0-.652.522-1.194 1.185-1.194s1.185.528 1.185 1.194c0 .652-.54 1.18-1.185 1.18zm-24.428-2.165c-.647 0-1.17-.527-1.17-1.194 0-.65.523-1.194 1.17-1.194.647 0 1.186.526 1.186 1.193-.016.666-.54 1.193-1.186 1.193zm.29 16.49l14.138-14.415.046 2.883-9.685 9.58 9.763.154-.015 1.952-14.245-.155zm86.456 26.694l7.577-7.268.062 7.393-7.64-.124zm-56.668 20.033s.046-.264-.662-1.52c-2.064-3.61-2.54-6.96-4.374-10.834-.91-2.124-2.958-4.263-3.42-4.387l2.28-4.185-64.203.14 10.272 18.057c16.307-3.038 30.968-2.51 44.75-.077.787-1.07 1.65-3.24 2.48-4.82 2.05 5.58 8.625 9.175 12.875 7.625zm58.244 3.446c-3.39.046-6.222-1.582-8.733-5.023-.8-1.1-1.108-1.596-1.108-2.045.076-.528 1.138-2.233 1.138-2.233s.616 1.69.755 2.51c.908-3.378 1.278.543 1.632 1.566 1.11-3.27 1.71 1.225 1.663 2.433 1.51-2.093 1.417 1.348 2.156 1.983.016-1.813 1.078-.573 2.45-.185-.725-1.008-2.126-1.69-.34-1.922-1.786-1.24-2.68-1.054-.94-1.736-1.34-.744-3.526-1.628-1.108-2.124-1.478-.945-3.865-1.333-1.31-2.232-1.94-1.193-4.51-1.1-.892-2.06-1.31-.776-3.635-1.07-1.032-1.737-.4-.186-1.093-.65-1.093-.65l1.123-1.784s.4.03.677.326c1.186 1.254 2.34 3.548 3.388 6.772.755 2.372 1.664 4.883 2.665 6.96.54 1.1.492 1.147-1.094 1.178zm-39.794-.497l-8.87-15.282 2.11-.03 7.838 13.08 10.564-1.207-3.48-11.703 3.14-.093 3.128 11.5c5.898-.23 11.534-.31 16.43.094l1.665-11.67 3.004.092-1.895 11.548 9.917 1.27 5.375-12.957 3.095-.062c-2.002 3.395-6.992 14.354-7.93 15.44-21.623-3.427-32.834-1.55-44.09-.017zm431.698 26.843l-6.715-11.75 10.795-.045 3.62 10.882-7.7.914zm24.915 25.993c-2.126-.62-4.42-.76-6.73-.854l1.955-10.524 9.563.015-4.79 11.362zm-329.5 1.3l-2.54-10.215 18.002-.092-1.478 10.183c-4.728-.294-9.348-.03-13.983.124z"/></g></g><path id="path147-0-8-1-3-6-4-3-4_1_" d="M124.413 211.548c7.8-.2 11.3-9 5.5-15.8-.8-1-.9-1.6.6-.6 3.9 2.6 11.4.9 11.8-7.1.5-9.8-13.3-12.7-15.8-2.2-.1 1.1-1 1.1-.8-.5.2-4.2 1.6-8.2 3.4-12.1h-9.3c1.8 3.9 3.1 7.8 3.4 12.1.2 1.6-.7 1.6-.8.5-2.6-10.4-16.3-7.6-15.8 2.2.4 8 7.9 9.7 11.8 7.1 1.5-1 1.5-.4.6.6-5.9 6.8-2.4 15.6 5.4 15.8z"/><path id="path147-0-8-1-0-3-83-9-4-0_1_" d="M42.013 15.048c7.8.2 11.3 9 5.5 15.8-.8 1-.9 1.6.6.6 3.9-2.6 11.4-.9 11.8 7.1.5 9.8-13.3 12.7-15.8 2.2-.1-1.1-1-1.1-.8.5.2 4.2 1.6 8.2 3.4 12.1h-9.3c1.8-3.9 3.1-7.8 3.4-12.1.2-1.6-.7-1.6-.8-.5-2.6 10.4-16.3 7.6-15.8-2.2.4-8 7.9-9.7 11.8-7.1 1.5 1 1.5.4.6-.6-5.9-6.8-2.4-15.6 5.4-15.8z"/></g></svg>