<svg xmlns="http://www.w3.org/2000/svg" width="166.3" height="226.6" viewBox="0 0 166.3 226.6"><style type="text/css">.st0{fill:#D40000;} .st1{fill:#E2CF00;} .st2{fill:#131F67;}</style><g id="g4942_1_"><path id="path147-6-9-8-7-0-5-6-46-4-5_1_" d="M158.326 197.75c3.1-.1 4.5-3.7 2.2-6.6-.3-.4-.4-.7.2-.3 1.6 1.1 4.6.4 4.7-2.9.2-4.1-5.3-5.3-6.3-.9-.1.5-.4.4-.3-.2.1-1.8.6-3.4 1.4-5h-3.7c.7 1.6 1.3 3.3 1.4 5 .1.7-.3.7-.3.2-1-4.4-6.5-3.2-6.3.9.2 3.3 3.1 4 4.7 2.9.6-.4.6-.2.2.3-2.4 2.9-1 6.5 2.1 6.6z"/><path id="path147-6-9-8-7-4-5-62-9-4-5_1_" d="M8.026 28.85c-3.1.1-4.5 3.7-2.2 6.6.3.4.4.7-.2.3-1.6-1.1-4.6-.4-4.7 2.9-.2 4.1 5.3 5.3 6.3.9.1-.5.4-.4.3.2-.1 1.8-.6 3.4-1.4 5h3.7c-.7-1.6-1.3-3.3-1.4-5-.1-.7.3-.7.3-.2 1 4.4 6.5 3.2 6.3-.9-.2-3.3-3.1-4-4.7-2.9-.6.4-.6.2-.2-.3 2.4-2.9 1-6.6-2.1-6.6z"/><path id="path37-5-2-4_1_" d="M2.226 17.65h-2.2v-3h2.2s0-1.6.1-4.5c.1-6.1.3-7 2-8.7 3.5-3.3 9.3-.6 9.2 4.4-.1 7 0 13.7-.2 14.6-.4 1.7-.4 1.8-.3 2.1.3.6 2.9.9 2.9.7v3c-2 .2-2.8 0-4.4-1.2-1 1-4 1.9-6.5.8-1.8-.9-3.2-3.2-2.8-8.2zm12.374 10.75c-1.1-1.6-2.9-3.7-4.6-4.5-.1 1.8 0 3.3.7 4.1.9 1.3 2.6 1.6 3.9.4zm.9-17.3c-.8-2.3-2.9-3.1-4.4-1.6-.9.9-1.1 1.8-1.1 6.9v4.5c3 1 5.7 4.4 5.7 4.4l.1-9.5c0-1.7-.1-3.2-.3-4.7z"/><path id="path37-3-2-7-4_1_" d="M164.126 208.95h2.2v3h-2.2s0 1.6-.1 4.5c-.1 6.1-.3 7-2 8.7-3.5 3.3-9.3.6-9.2-4.4.1-7 0-13.7.2-14.6.4-1.7.4-1.8.3-2.1-.3-.6-2.9-.9-2.9-.7v-3c2-.2 2.8 0 4.4 1.2 1-1 4-1.9 6.5-.8 1.8.9 3.2 3.1 2.8 8.2zm-2.426.35c1.1 1.6 2.9 3.7 4.6 4.5.1-1.8 0-3.3-.7-4.1-1-1.4-2.6-1.7-3.9-.4zm-.9 17.3c.8 2.3 2.9 3.1 4.4 1.6.9-.9 1.1-1.8 1.1-6.9v-4.5c-3-1-5.7-4.4-5.7-4.4l-.1 9.5c0 1.6.1 3.2.3 4.7z"/><g id="g5457-6-3-6_1_"><g id="g3405-1-0-4_1_"><path id="path3391-4-8-9-0_1_" class="st0" d="M85.017 220.334c.428-6.5.043-13.472.332-18.762-.208-.37.523-1.402.554-1.403-.428-.786-.578-2.8-.043-4.59 4.225-16.207 11.907-28.832 19.816-40.592 6.483 19.418-13.742 33.09-17.972 50.072-1.413 5.88-1.19 9.984-1.725 15.293l-.963-.02zm-21755.285 7251.56l-24.152-37.173 5.222-2.562 24.835 39.583-5.905.155zm-152.487-70.194c.215 1.067 1.06 1.646 1.953 1.154.877-.477.97-.51.438.335-1.2 1.86 1.24 3.657 2.802 2.056.55-.566.647-1.497.145-1.956-.565-.535-.692-.797.15-.405 2.104.857 3.258-2.197 1.214-3.224-.53-.256-1.55-.026-1.933.382-.46.487-.54.317-.404-.057.075-.218.132-.59.297-1.01.135-.344.238-.795.238-.795l-2.155.028s.177.494.353.91c.16.386.226.68.306.85.285.584-.06.372-.638-.07-.83-.61-1.85-.442-2.444.372-.243.453-.422.95-.323 1.43zm178.006-403.77l4.634-.152 5.11 14.04c-4.066 6.782-5.146 14.407-.395 22.144l-14.68.05c3.43-11.67 3.936-24.033 5.33-36.08zm24.02-146.453c.614-.55.694-1.56.127-2.234-.708-.844-.554-.892.4-.33 1.374.787 2.7-.935 1.874-2.46-.523-.97-2.184-1.18-2.824-.32-.534.72-.48.07-.06-.898.152-.343.36-1.012.36-1.012l-2.247.045s.286.63.447 1.048c.417 1.08.42 1.42-.208.73-1.38-1.144-2.98-.317-2.99 1.342.015 1.27 1.173 2.078 2.173 1.49.616-.363.894-.444.19.386-.47.797-.3 1.803.325 2.275.906.515 1.82.472 2.433-.063zm-5.98 104.454c.184-.126.247-.05.14.138-.09.157-.335.377-.534.597-1.04 1.16.314 2.646 2 2.408 1.145-.155 1.82-1.962.973-2.68-.282-.182-.484-.21-.704-.47-.017-.094.03-.172.138-.127.155.06.453.304.61.35 1.072.28 1.873-.15 2.142-.912.175-.87.007-1.814-.712-2.3-.657-.442-1.647-.32-2.21.446-.58.783-.667.04-.185-1.036.18-.406.297-.965.297-.965l-2.06.118s.114.45.29.958c.465 1.157.795 1.493.198.896-2.53-1.486-3.357.54-3.393 1.346-.09 1.505 2.108 2.36 3.008 1.233zm-159.344-1.24l3.72.014c-2.783 14.934-8.513 27.44-18.168 36.06l-18.216-.027-8.79-6.12 3.383-4.414c23.13 2.336 32.965-9.138 38.07-25.513zm39.955-88.86c1.095-.478 1.544-1.724.82-2.536-.66-.75-.725-.983.29-.407 1.343.773 2.64-.778 1.97-2.304-.415-.94-1.705-1.234-2.627-.587-.814.615-.802.336-.38-.63.21-.484.37-1.245.37-1.245l-2.277.03s.162.54.337.91c.383.848.528 1.25.342 1.252-.093 0-.376-.26-.533-.412-.455-.413-1.696-.49-2.155-.05-1.363 1.305-.59 3.59 1.14 3.164 1.13-.278 1.372-.7.455.35-1.145 1.317.63 3.186 2.25 2.467zm-108.292 186.936c.94-.447 1.25-1.536.73-2.242-.535-.706-.79-1.168.15-.53 1.263.636 2.352-.216 2.334-1.642-.02-1.503-1.702-2.195-2.93-1.295-.216.158-.462.285-.51.286-.154.002.13-.808.418-1.34.136-.233.363-.7.363-.7l-2.28-.08s.132.618.31 1.096c.368.97.45 1.296-.178.746-1.726-1.606-3.544.45-2.824 2.207.386.987 1.55.987 2.24.498.63-.488.312.152-.115.67-1.176 1.425.536 3.154 2.293 2.326zm25.75-41.17l.128 2.757-29.447 24.626-1.235-1.892 30.552-25.493zm461.17-190.928c4.238-3.03 8.958-8.456 13.604-11.29 3.418 7.815-4.56 15.5-13.606 11.29zm-520.704 18.558c-3.035-16.548 14.76-13.12 13.817-11.65l-13.816 11.65zm327.19-12.087l29.148-23.848 1.328 1.998-30.756 25.28.28-3.43zm-439.684-86.386c.08.247.96 1.197.962 1.275-.25-.184-1.75-1.033-2.483-.202-.26.298-.577 1.015-.537 1.76.312 1.328 1.822 1.79 2.895.876.307-.267.566-.58.63-.473.047.093-.117.56-.252.92-.15.373-.745 1.156-.31 1.15l2.077-.01s-.084-.48-.324-1.02c-.463-1.002-.455-1.545.113-.823 1.088 1.412 3.196.222 2.973-1.465-.155-1.223-1.405-1.92-2.312-1.334-.092.063-.383.346-.43.362-.108 0 .196-.468.393-.842.666-1.28-.326-2.477-1.86-2.333-.495.038-1.033.355-1.033.4-.583.443-.68 1.25-.504 1.76zm462.847-136.937c2.918 2.676 5.842 4.653 8.78 6.367l-2.75 4.36c-18.688-1.696-32.25 5.72-37.883 25.743l-3.077.598c1.14-12.494 5.306-24.888 17.66-37.016l17.27-.053zm120.326-60.196c.007.59 1.1 1.29.856 1.463-.11.064-.768-.502-1.062-.53-2.158-.22-2.595 3.135-.467 3.495.42.072 1.285-.187 1.546-.407.337-.283.582-.518.645-.488.125.045-.16.653-.404 1.09-.212.406-.526 1.263-.526 1.263h2.45s-.227-.758-.45-1.282c-.29-.678-.34-1.112-.155-1.067.078.014.174.23.346.383 1.067.915 2.628.523 3.028-.91.386-1.337-1.228-2.71-2.335-1.968-.384.268-.387.067-.007-.527.35-.532.262-1.352-.054-1.83-1.132-1.224-3.462-.326-3.41 1.316zm-80.188 18.923c-.065-.294.013-.217.327.12.99 1.026 2.678.864 3.11-.49.432-1.354-.89-2.903-2.03-2.36-.6.27-.602.177-.267-.26.87-1.144-.096-2.65-1.6-2.632-1.38.02-2.184 1.347-1.518 2.486.27.46.193.57-.29.33-1.404-.68-2.724 1.554-1.684 2.873.615.782 2.01.857 2.807.087.43-.408.416-.222.117.634-.27.75-.572 1.342-.572 1.342l2.434.015c0-.03-.653-1.278-.835-2.144zm43.55 52.992c.71-.18-2.52-10.355-4.89-14.897 2.677-6.422 6.333-12.655.136-21.892l14.99-.07c-4.607 10.51-4.668 37.02-5.752 37.08l-4.483-.22zm-285.375 147.582s-.742-1.014-.784-1.835c-.084-.526.04-.558.326-.02 1.336 1.472 3.147.053 3.146-1.265.155-1.196-1.253-2.216-2.145-1.615-.63.426-.802.305-.238-.478.792-1.095-.08-2.526-1.49-2.508-1.845.024-2.536 1.738-1.218 2.962.973.902.067.37-.712.055-1.512-.63-2.5.9-1.813 2.458.463 1.064 1.83 1.34 2.64.478.445-.47.844-.755.606-.04-.117.576-.8 1.81-.8 1.81h2.482zm10.297-80.27s-.882-1.104-1.048-1.955c-.05-.31.167-.234.668.21 1.615 1.373 3.83-1.105 2.323-2.62-.517-.52-1.046-.67-1.647-.35-.754.397-.695.21-.312-.198.55-.597.506-1.68-.09-2.216-1.646-1.452-4.238.72-2.715 2.283.66.675.35.586-.385.16-1.39-.818-2.91 1.45-1.87 2.77 1.237 1.037 2.145.53 3.005-.133.185-.095.34-.144.34-.066.002.156-.84 2.15-.84 2.15l2.572-.032zm-5.863-94.09c-.915-.064-1.584-8.598-.47-11.31 2.363-11.424 9.62-19.75 14.133-26.753 7.244-10.434 6.308-27.723 6.627-27.03l1.025.11s-.785 10.15-.323 14.718c.47 4.024.38 4.273.092 4.68-.074.373.033 1.472-.04 1.845-3.202 14.924-10.895 30.278-18.838 41.868l-2.208 1.873zm-32.06-61.843l-24.606-38.64 5.9-.542c2.2 3.46 23.57 36.484 23.57 36.484l-4.864 2.698z"/><path id="path3395-8-0-1-6_1_" class="st1" d="M25.315 221.368c2.767-10.236-4.826-34.012-9.564-37.114 5.548-.242 12.2-.157 11.992-.666 0 0 23.623 37.01 23.424 37.214-.17.188-25.85.566-25.85.566zm-21951.734 7193.745c-5.714-.795-3.466-5.552.202-6.05-.48.085.388-2.36 3.352-3.344.666-1.22 1.197-3.303 1.805-4.272-1.776.58-3.927 2.08-11.988.914.694-3.822 8.406-4.48 11.19-3.896 1.6.367 3.197 2.765 3.678 2.805 4.95-.838 11.255 3.64 9.36 8.19-.3.655-1.048-.762-2.714-1.376-5.39-1.946-5.768-4.855-7.01-6.157-.45-.087-2.823 4.64-2.823 4.64l.754 3.2c1.285-.125 7.036 3.413-.11 5.83-1.975 6.8-5.71 2.012-5.696-.484zm538.187-339.648c-.3-.306.232-2.437.96-3.655.395-.657 1.288-1.102 1.832-1.016.946.158.794 1.54-.44 5.555-.07.59-1.34.652-2.353-.885zm-37.814-192.737c-1.566.005-.163-4.26.796-5.622.32-.423 1.57.476 1.625 1.095.123 1.1-1.563 4.967-2.422 4.528zm-618.802-190.903c1.914.456 4.93 2.37 6.386 3.437 1.8 1.34 1.307 3.967 2.75 4.196.972-.477 2.746-4.794 2.746-4.794s.436-2.207-.828-2.89c-3.154-1.694-3.1-3.524-2.9-3.682.93-2.415 2.78-1.99 3.786-2.126.014-1.318-.022-4.123 2.71-3.833 2.39.217 2.636 3.64 1.63 3.684-.018-.062 4.532-.663 4.494 2.345-.026 1.628-2.712 3.71-3.56 2.96 0 0 .462 3.25-3.617 4.357-.948.972-1.717 5.09-1.72 4.734 2.45-2.218 6.304-2.748 12.375-1.958-3.754 6.978-14.167 3.733-14.975 2.394-5.26-1.59-10.17-3.636-9.276-8.825zm40.937-174.82c5.54.488 11.596-1.25 16.196-.347.528.07 1.096.838 1.408 1.02 2.39 1.287 4.88.883 8.706-.577.942-.352 18.507-.253 18.507-.253 4.014 5.9 11.133 17.002 11.3 16.628 0 0-9.738-.092-14.214.183-3.16.196-1.296.62-3.496.712-15.322 11.545-18.194 36.464-18.194 36.464s4.866-1.287 6.155.045c6.004-17.66 17.434-25.728 33.406-24.182 7.374.71 16.195 7.96 16.195 7.96l-15.77 12.885c-12.25-6.15-17.456 12.054-13.75 12.084l31.754-26.05s.554 2.115.493 2.194c-2.256 2.975-40.12 33.818-40.12 33.818l-1.666-1.84s-1.042.93-1.592 1.556c-.05 1.01.303 1.857 1.073 2.653-7.503 6.034-7.732 17.106-2.182 23.127 0 0-2.463.17-2.71.22-3.125.537-6.377-14.846-.207-22.01-3.134-6.114-5.07-14.43-5.463-14.828.09.976-4.92.668-4.92.668-.368 12.438-1.637 24.624-4.6 36.382l23.01.448-9.764 17.023s-10.994-.26-15.727-.572c-4.95-2.866-7.79-.674-12.428.393-6.6.21-16.325-.084-16.324.01-3.31-6.547-6.86-11.353-11.69-16.95-.618-1.015 19.543-.422 19.543-.422s10.05-15.26 11.87-19.562c1.43-3.367 4.62-15.594 4.62-15.594.148.634-1.838-3.17-6.442-3.08-3.765 25.334-33.854 33.923-51.985 17.647l-.177-2.943 39.857-32.45 1.778 2.04c-.376-.306-24.47 19.802-24.07 19.688 7.15 3.72 15.42.685 14.44-11.596 5.65-4.104 10.66-8.88 15.587-13.766.106-.188 5.52 12.098 5.396 14.456 3.103-1.048 4.945 1.13 4.878.76-1.13-7.118 5.05-34.08 5.164-37.18-3.46-.266-8.048-.145-15.245-.41 5.803 11.18 3.808 18.757-4.258 25.65l-1.687-2.117c.687.378 11.787-9.253 2.812-23.6-.403.035-4.718-.374-4.718-.374s8.81-14.035 9.25-16.01zm288.307-134.105s25.184-.65 25.193.093c-.786 13.53 2.396 25.874 10.03 37.278 0 0-11.15-.382-10.947-.23l-24.276-37.14z"/><path id="path3393-8-5-4-3_1_" d="M143.808 11.686l-130.87.23.37 210.088 130.87-.232-.37-210.086zm-21396.105 6119.848c-.016-.015-1.65 22.236 9.978 36.783-7.098-1.056-11.145.035-15.278 2.956l.566.582c5.675-3.5 10.508-2.6 15.445-2.06l.044 28.618c-.03 1.395-5.912.774-9.544-1.94-1.718-1.015-3.947-3.142-4.945-4.74-.3-.493-.617-.97-.71-1.077-.332-.383-2.412-4.232-6.21-11.516-1.94-3.71-4.5-8.763-6.583-12.673-1.35-2.54-3.846-7.33-4.02-7.715-.368-.802-3.087-6.084-4.15-8.008-2.795-5.08-7.328-13.966-8.935-17.14-.35-.832-.9-1.212.063-1.178.217-.003.434.01.558.04.173.09.385-.3.385-.3l33.338-.632zm-183.646 124.614l.002-2.248 38.07-31.45 1.214 1.566-39.287 32.132zm-608.42 592.323c-.154.065-.324.114-.51.178-.986-4.36-.44-10.18.712-14.566 1.672-6.083 4.788-10.96 8.274-15.857 7.964-11.203 11.483-19.635 11.304-34.655l1.134.125c-.047 2.373-.35 4.16-.45 7.323-.14 3.38-.077 5.954.292 9.267.176 1.625.282 2.678.02 2.883-.12.11-.238.67-.127.87l-.076 1.35c-1.806 8.92-11.57 31.883-20.573 43.083zm210.152-276.546l-2.017-2.47s-1.55-1.25-.16-2.664c4.026-4.098 4.036-9.292.13-13.954-.254-.586 1.21-3.597 1.21-3.597l3.07.037c4.79 5.83 6.1 16.106-2.234 22.647zm27.18 88.072c.09-.404-4.544-.236-4.544-.236 2.875-4.3 5.314-8.718 7.72-13.152 3.728-6.714 8.878-18.47 10.49-26.986 1.228 9.952 3.016 24.734 11.534 25.306 2.793.18 6.024-1.736 6.555-1.417l17.702-.166c3.645 7.363 7.55 12.088 12.19 17.113 3.325 1.88 7.375 3.377 11.294 4.35 2.225.545 2.437.185 6.817.795 1.165.156 2.926-.332 2.895-.33-3.5 2.772-7.54 1.987-11.99.82-.248-.06-.512-.15-.777-.238l-3.345 5.066c-7.48-1.764-31.492-.462-37.774 25.663 0 0 .655.333.498.15 4.994-22.668 26.22-27.22 36.34-24.995l-.866 1.33c-16.8-2.032-30.46 8.5-33.695 23.41l.33.29c6.266-22.545 32.745-30.917 49.208-15.333l3.012-2.13-.086 2.883-40.335 33.913-1.617-1.668s-.276.22-.598.49c-1.043.865-1.46 1.087-1.158 1.564.285.477 1.43 1.578 1.48 1.702-6.69 5.465-8.8 16.003-2.412 23.362.707.782.586.985.45.103-5.723-6.205-5.012-17.205 2.1-22.413l1.434 1.873c-3.122 6.892-4.78 17.626 3.462 18.543 2.97 7.914-.412 17.29-4.19 23.587-4 7.245-8.868 13.276-11.897 21.175-1.477 3.29-3.8 13.055-3.673 20.526l-.884-.004c-.008-3.038.193-6.653.21-8.963.103-11.256.096-10.59.34-10.872.077-.094.323-.19.338-.268.03-.124-.19-.354-.272-.632-.08-.278-.242-.772-.217-1.19.01-.42.406-1.03.326-1.168-1.785-6.21-1.945-17.37-7.684-22.472-2.807-2.414-6.545-2.49-11.37-.505-10.65.045-9.078.582-17.688.104-3.572-6.51-7.902-12.858-12.582-17.557-2.187-2.436-5.227-3.76-8.087-5.523 1.135-2.17 2.432-3.767 3.86-4.793.29-.422.5-.874.868-1.235 29.027 2.74 35.268-25.368 33.944-24.653l-.26.22c-7.874 28.968-36.117 27.968-50.324 15.47 0 0-2.008 1.747-2.017-.16-.007-1.736.622-2.24.622-2.24l39.778-32.542c.735.456 1.514 2.01 1.838 1.837.74-.398 1.815-1.17 1.778-1.636-.02-.355-1.46-2.615-1.46-2.615 10.647-11.067 5.824-15.997 2.393-23.55zm32.027-187.714c.186-.002.373.088.515.304.238.384-.725 2.63-1.31 3.024-.568.38-.605-.054-.2-2.23.102-.637.56-1.092.995-1.098zm145.332-336.823l9.362-.013.07 35.407c-6.9-9.678-10.485-20.81-9.433-35.395zm262.508 4.804c.232-.018.435.056.5.226.24.602-1.107 3.177-2.785 5.322-.87 1.112-1.3 1.428-1.582 1.168-.222-.51-.23-1.098.58-2.023.656-.768 1.78-2.55 2.233-3.532.21-.592.42-1.122 1.055-1.16zm-295.565-3.654c.264-.003.543-.007.622.132 1.624 3.28 4.654 6.234 7.76 7.822.452.257.244.896.39 1.36-3.496-.514-8.07-5.447-9.295-9.043-.004-.278.26-.282.523-.27zm57.084 1.366c.69.704 1.787 1.558 2.03 2.36.146.495.262 1.068.157 1.332-.6.38-3.622-3.1-3.503-3.52.385-.253.865-.306 1.317-.172zm16.69.306c.294.012.744-.01.81.222.375 1.53-3.083 7.466-5.62 9.142-.906.6-.955.446-.89-.562.053-.667.116-.622 1.035-1.502 1.317-1.257 2.764-3.213 3.548-4.944 1.025-2.215.776-2.35 1.117-2.356zm-68.79-1.166c.325-.004.637.116.73.254.113.2-.038.528-.142.917-1.136 3.24-3.975 7.91-7.32 10.574-1.305 1.01-1.522.997-1.613-.04-.054-.604.223-.778.837-1.205 2.826-1.974 5.37-5.386 6.458-8.89.208-.683.123-1.287.492-1.493.154-.08.355-.113.557-.116zm30.464 5.87c.143.23 1.11 1.753.31 1.174-.328-.274-.926-.933-1.87-2.006-2.234-2.53-2.31-2.373-2.256-3.01.02-.822-.57-2.163.705-1.823 1.26 1.473 2.05 3.835 3.11 5.666zm85.4 26.37c.25-.002.56.04.808.1 1.478 2.755 5.075 5.19 5.06 5.174 0 0 .092 1.208-.045 1.41-.073.374-5.71-3.894-6.346-6.46.075-.17.276-.22.524-.223zm-59.02-31.004c1.32 2.432 4.057 7.93 10.472 10.143.466.102.948 1.414.597 1.775-3.518-1.01-9.887-4.446-12.076-11.874.23-.205.788-.18 1.007-.044zm-23.515.42c-.217.003 3.035 9.355 12.295 12.135.794.253 1.264.588 1.223 1.07-.07.59-.037.666-.927.228-2.528-1.316-6.117-1.92-9.12-.394-.462.24-.95.897-.557 1.295.22.214.744.052 1.422-.204 3.486-1.362 8.845-.58 9.787 1.564.67 1.51.793 2.64.423 2.816-.277.143-.75-.362-1.595-1.095-2.666-2.322-5.837-2.964-8.366-.73-.55.488-1.08.402-1.28.606-.182.19.04.636.2 1.053.162.447.18.57.013.945-.226.515-.233 1.166-.195 1.66.062 1.194.85 2.223 3.134 3.79 1.767 1.217 3.156 1.913.994.173-3.728-3.005-4.41-4.236-1.995-3.198 2.416.96 5.752-.012 8.116-1.825.805-.01 1.283-.156 1.706.148 1.774 4.132 3.225 9.648 5.573 14.982-2.798 3.167-12.526 10.935-19.475 10.67-6.002-.234-8.144-10.05-9.47-15.475-.448-2.288-.96-4.638-.908-7.88 0 0 .108-.093.263-.064 1.01.188 2.733.32 3.614.108 1.592-.377 1.913-.66 2.01-.43.112.28-.547.907-1.715 1.697-.508.348-1.972 1.065-1.815 1.156.344.227 2.13-.71 2.42-.963.46-.393.786-.413 1.006-.2.268.26.31-.018-.545 2.117-.946 2.353-.85 2.568.997 4.017.643.505 1.238 1.008 1.38 1.224.175.292.303.63.382.74.315.413.12-.25-.064-1.334-.21-.787-.997-1.583-1.544-1.964-1.017-.7-.855-1.384-.018-3.782 2.45-7.055 1.822-10.21-.895-11.724-1.218-.682-4.658-.498-5.73.4-.538.44-.456-.43-.38-.492 6.454-4.44 7.98-8.707 9.632-12.836zm3.185 5.862c1.853 1.837 4.164 4.318 5.55 6.083.757.936 1.173 1.908 1.775 2.907.11.185.222.385.146.464-.03.03-.296-.12-.436-.227-1.362-1.02-6.963-7.382-6.963-7.382-.26-1.035-.436-1.39-.07-1.844zm69.34 24.092s4.858 5.286 7.636 7.886c.542 1.14 1.602 2.8 1.575 3.08-.013.124-.593-.318-.593-.318-3.075-2.828-5.906-5.985-8.86-9 .032.014-.232-1.254-.24-1.75.075-.28.358-.004.483.102zm16.236 37.21c.65 1.062 1.127 2.017 1.445 2.633.525.985.355 1.018-.115.652-3.478-2.838-6.375-6.29-9.656-9.44-.425-.43-1.275-1.41-1.275-1.41.032.03-1.068-2.28-.385-2.228.545.21.894.795 1.24 1.163 1.728 1.822 4.994 4.973 8.746 8.63zm26.09 67.164c1.425-.05 2.84.32 3.55 1.194.645.798.91 2.066.558 2.427-.23.236-1.014-.42-1.014-.42-3.372-1.88-4.523-.965-6.36-.414-.263.08-.536-.63-.204-1.315.667-1.155 2.353-1.44 3.47-1.47zm-143.137-41.658c3.61 3.612 7.275 7.61 11.175 10.707.548.457.925.763 1.176 1.007.51 1.017 1.704 3.45 1.704 3.45-4.177-2.906-13.608-12.97-13.514-12.893.093.045-.783-1.835-.54-2.272zm108.354 11.876c.65-.008 1.383.2 1.944.424 1.823.72 2.964 1.482 1.085 1.227-2.61-.355-3.508-.375-4.467-.207-1.78.286-1.916.49-2.075.213-.412-.755 1.53-1.632 3.514-1.658zm-53.318 3.02c.65-.008 1.366.138 2.068.44 2.213.962 2.61 1.593.73 1.292-.98-.158-2.777-.135-4.06.19-.402.1-.864.338-.97.386-.465.146-.578-.194-.383-.77.33-.98 1.376-1.537 2.616-1.538zm-64.955 2.862l.467.025c-.563 3.247-3.807 2.933-4.68.153l.465-.006c1.693 2.66 2.96 1.094 3.75-.172zm89.22 16.763c1.504-.02 1.407.88-.15 1.49-1.19.465-1.33.374-.89-.516.406-.857.358-.965 1.04-.974zm-5.608 1.19c.147 2.912-3.924 3.46-4.166.27l.387-.02c1.334 2.494 2.88.986 3.36-.26l.42.01zm-82.19-.058c.455.32.182.742-.818 1.36-.907.57-1.133-.11-.386-1.065.306-.3.815-.553 1.205-.295zm16.85 2.276c.187-.048.6.737.246.928-.216.11-.53-.21-.564-.442-.034-.2.088-.404.32-.485zm50.635.598c2.72 2.988 5.457 5.99 13.462 12.477 0 0 1.126 2 1.384 2.788-.198.235-.292.205-.853-.067-5.214-4.01-10.083-8.908-13.877-13.447-.194-.635-.59-1.25-.116-1.752zm40.528 2.28c.31-.002.738.674.51 1.096-.2.157-.512-.087-.64-.27-.125-.186-.13-.527-.054-.683.046-.108.108-.14.185-.14zm-114.088 3.837c-.017-.108 12.644 12.69 14.268 12.45.75.44 2.642 4.09 2.642 4.09.048.108.05.325-.26.174-2.14-1.06-11.102-8.462-15.67-13.968-.335-.802-.735-1.836-.98-2.747zm131.945 26.43c2.215 1.056 1.266 3.254-1.06 1.858-1.845-1.108-3.288-1.213-3.276-.252.005.404.508.925.99.918.898.05 1.724.38 2.626.587 1.384.292 2.433-.078 2.78-.92.585-1.434-.815-2.997-1.744-2.907-.945.09-.706.536-.316.717zm-64.602 12.65c-.157-.138 6.305 6.91 15.093 12.734.346.397 1.194 2.433 1.337 2.694-.03.187-.233.003-.233.003-4.435-2.562-10.314-7.633-15.86-13.39 0 0-.545-1.28-.695-2.116.108-.047.25.03.358.074zm80.298 22.91c-.2.035-.46.333-.8.508-.677.38-.893.476-2.543-.03-.902-.267-1.04-.25-1.58.145-.475.347-.722.412-1.252.17-.952-.42-1.382-.105-2.26.2-.834.306-1.118-.062-1.865-.24-.093.002-.13 3.026-.037 3.118.032.03.786-.46 1.202-.667.724-.367.616-.32 1.686-.27 1.57.274 3.118.176 4.167-.24 1.297-.374 2.32-.31 3.23.438.55.443 1.276.372.847-.445-.143-.277-.482-1.327-.44-1.73.054-.59-.075-.96-.292-.973-.03.016-.047.016-.062.016zm-63.257 15.152c2.968 2.845 6.635 7.17 15.242 12.19.444.785 1.062 1.83 1.445 2.647.034.233-.026.42-.244.345-5.33-3.36-8.28-4.995-15.66-12.248-.46-.738-.956-1.987-1.326-3.006.09-.295.42-.005.544.07zm89.648 15.16l3.304 6.173-11.084.003c2.815-1.695 5.5-3.93 7.78-6.177zm-25.226 5.988c-1.82.72-2.097.88-3.9.438-1.06-.25-.756.35-.226.607 1.357.634 3.335.174 4.057-.33.493-.302.824-1.02.07-.715zm-102 1.325c-1.905.025-3.695.7-3.84 1.476-.03.155.128.324.42.134 1.293-.776 4.498-1.035 6.928-.167.39.134.464-.1.056-.435-.908-.748-2.26-1.025-3.563-1.008zm13.855 12.802c3.592 3.303 7.058 6.343 14.788 10.754.56 1.218 1.368 2.665 1.51 2.787-7.24-3.503-15.142-10.41-15.142-10.41s-1.237-2.2-1.53-3.157c-.034-.31.28-.05.374.026zm134.098 21.344s6.614 5.573 14.15 9.35c.3.292 1.066 2.096 1.316 2.28.252.197-.29.19-.837-.083-3.945-1.81-12.407-7.607-12.407-7.607-.823-1.307-1.988-2.688-2.22-3.94zm-65.878 51.737c.604-1.295 1.22-2.73 1.61-3.897 1.797.023 2.672-.654 3.313-1.47.914-.026 1.612-.02 2.85-.067-.045-1.225.01-2.962.01-2.962 1.254-1.303 2.103-2.786.15-5.087 0 0-.075-1.067-.114-2.88-.9-.144-2.914-.04-2.914-.04-1.627-2.29-4.518-1.71-5.395.007 0 0-1.3.08-2.185.075-.025.48-.168 2.637-.168 2.637s-3.795 2.59.15 5.64l-.044 2.56c.745.05 1.272.014 2.235.187 0 0-1.505 3.508-2.49 5.164-.34.083-.266-.104-.67-1.262-.497-1.373-1.617-2.863-2.557-3.595-1.284-.99-3.04-1.294-4.26-2.146-1.173-.822-2.008-1.896-2.393-1.69-.12.42-.258 2.81.195 4.338.637 2.52 4.27 4.13 7.31 5.332.233.152.438.382.44.46.004.418-.4.284-1.394.188-1.506-.15-2.12.26-2.646 1.553-.15.312-.532.86-.837 1.22s-.627.72-.67.877c-.046.156-.36.935-.663 1.59-.196.405-.5.828-.524 1.417-.07 1.815-.085 4.25.183 5.78.2 1.13 1.62 1.778 2.116 1.864.746.146.895.903.78 1.525-.58 3.078-2.34 4.96-2.91 3.96-.144-.26-.315-1.514-.346-1.5-.03.017-.296 1.075-.197 1.508.114.463.708.797 1.294.588.864-.322 1.55-1.168 2.084-3.128.223-.793.434-1.246.806-1.297.682.054 1.755 1.45 1.755 1.45-3.542 2.96-10.356 8.35-10.356 8.35l-.166-96.98 56.04-.104c.332 7.685-.59 14.24-3.34 21.096-3.253 7.39-8.33 12.88-12.21 19.675-4.684 8.215-6.17 16.714-4.557 25.266-4.786 6.278-8.808 9.307-12.646 12.224l-4.48-4.7s.682-.056 1.457-.097c3.638-.42 7.585-.935 9.102-4.738.21-.42.13-.606-.133-.665-2.848.394-5.334.007-6.945.12-3.996.285-5.668 1.655-5.668 1.655zm-432.068 124.217s-4.587-2.173-4.928-2.23c-1.99-.362-6.812-2.858-7.624-4.553-.112-.215-.384-3.328-.47-3.962.028-.202.106-.203.31-.05.515.35 2.516 1.64 3.25 2.003 3.042 1.465 4.218 2.52 4.975 4.742.193.556.387 1.142.497 1.25.25.26.344.243.65.006 1.297-1.69 1.914-3.094 2.51-4.9.076-.202.244-.406.147-.7-.243-.802-.83-1.833-.235-2.616-1.906.086-3.722-1.3-3.507-2.7.51-2.58 1.6-2.112 3.657-2.495-.248-5.98 5.352-4.534 5.344-.38 6.145.51 3.257 6.19-.32 5.338 1.422 3.22-2.825 4.44-3.422 3.888-.234 1.043-1.85 4.412-2.193 5.41 4.548-3.238 11.868-1.813 12.935-2.028-2.642 5.537-11.294 4.207-11.576 3.978zm84.09-5.213c1.16.884 10.973 7.005 12.773 7.137 0 0 .865.966 1.59 1.855.662.828.91.95.99 1.118.08.17-.245.158-.307.16-4.412-1.913-8.902-3.917-12.726-7.092-.517-.443-.628-.627-.88-.965-.348-.46-1.345-2.044-1.44-2.213zm451.512-100.053c4.48 2.516 8.295 4.947 12.39 6.26.576.224.886.235 1.168.433s1.532.973 1.828 1.14c1.86 1.092 2.06 1.042 1.597 1.22-.51.207-3.792-.743-6.55-1.76-4.905-1.798-6.64-2.83-8.428-4.435-.392-.398-2.25-2.622-2.005-2.857zm-72.07 41.372c.37-.005.98.22 1.605.708.674.518 2.33 1.597 3.017 1.883.343.15.45.18.45.18l4.422 4.997-11.337 9.246s-.928-.933-1.21-1.255c-.284-.29-.194-.54.143-.886.275-.268.3-.857.248-1.15-.066-.434-.057-.915.48-1.31.43-.315.5-.89.483-1.044-.017-.124.24-.53.61-.814.798-.584 1.037-1.285.763-2.12-.113-.354-.176-.43.285-.746.816-.538 1.01-1.052 1.078-1.844.014-.124-.02-.263-.036-.356-.165-.835.58-.627 1.184.42.333.568.423 1.513.59 2.58.204 1.27.332 1.608.407 1.437.39-1.028-.078-4.85-1.247-5.363-1.7-.754-3.13-2.3-2.704-2.91.152-.205.17-.143 1.214.34.608.287 1.17.512 1.262.51 1.21.032.474-.47.086-.528-.466-.07-1.872-.92-2.046-1.213-.286-.494-.134-.744.253-.764zm-490.978 70.667c1.116-.014 1.32.278 1.334 1.24.007.557.214.988 1.097 2.124.362.46.6.814.586.984-.04.297-.138-.012-1.365-.15-.435-.058-.652-.055-.804.164-.425.625-1.317-.03-1.856-.937-1.315-2.2-.865-3.4 1.01-3.424zm5.237 4.705l12.097 14.742-1.366 1.056-12.14-14.54 1.41-1.258zm113.05 9.632l1.3 2.184s-3.726 3.195-4.722 4.107c-7.93 6.444-25.834 21.077-25.834 21.077l-.24-2.942 29.497-24.425zm-32.856 5.226c.233.012.5.304.896.888.332.507 1.042 1.52 1.795 2.21 1.475 1.344 1.613 1.234.42 1.358-.48.052-.635-.008-.92.725-.87 1.096-3.462-2.808-2.86-4.32.24-.576.437-.874.67-.86zm-114.51 2.664c.216-.018.51.07.84.27.638.254.687.408.586 1.03-.1.59-.548.736-1.426-.028-.675-.627-.56-1.233 0-1.27zm42.044 12.125l1.42 1.827-32.096 26.086-.007-2.992c.792.098 21.364-17.87 30.683-24.92zm79.987 3.728c.093-.017.22.276.585.814.727 1.09 1.403 1.81 2.154 2.39.72.534.802.843.306.85-.217.002-.494.223-.645.488-.303.53-.336.408-.805.12-.67-.395-1.346-.99-1.62-1.763-.257-.74-.287-1.856-.08-2.665.044-.156.074-.234.105-.234zm-130.965 1.905c.822-.026 1.408.928.875 1.694-.306.3-.568.442-1.177.077-.797-.47-.946-1.182-.284-1.594.2-.11.4-.16.586-.178zm22.245 13.725c.17-.002.484.242 1.002.778.393.415 1.095.762 1.376.913.625.35.657.473.32.74-.138.126-.62.133-.753.506-.374 1.074-1.94-.177-2.084-1.71-.072-.79-.078-1.224.14-1.227zm-24.986 11.037c1.023.033 1.52 1.236.69 1.82-.446.316-1.57-.243-1.686-.83-.066-.372.607-1 .995-.99zm45.453 1.833c.59-.007 1.076.482 1.084 1.07.008.59-.482 1.077-1.07 1.085-.59.007-1.077-.482-1.085-1.07s.482-1.093 1.07-1.085zm127.488 7.092c.59-.008 1.077.482 1.085 1.07s-.482 1.077-1.07 1.084c-.59.007-1.077-.483-1.085-1.072-.008-.604.482-1.076 1.07-1.083zm-39.156 3.627l.2-.003c.994.05 1.037.994.455 1.497-.354.3-.663.396-1.132.03-.8-.64-.5-1.466.476-1.525zm-93.737 7.763c.59-.007 1.076.482 1.083 1.07s-.482 1.077-1.07 1.085c-.59.008-1.077-.482-1.084-1.07-.024-.606.466-1.077 1.07-1.085zm225.224 10.26l.005 2.73-37.96 31.71-1.292-1.672 39.248-32.768zm418.882 7.717l-2.802 6.315-.843-1.633-2.108-.004.64-1.884-1.243-1.503 6.355-1.29zm-467.763 20.343l5-4.018c-2.17-10.87 6.425-15.213 14.604-12.063l5.076-4.345c-9.45-7.925-31.627-2.507-24.68 20.425zm256.7 126.42c.588-.006 1.075.483 1.083 1.072s-.482 1.076-1.07 1.084c-.59.01-1.077-.48-1.085-1.07s.467-1.09 1.07-1.084zm-370.898-120.516c.59-.008 1.045.45 1.052 1.04s-.45 1.122-1.04 1.114c-.588.007-1.075-.482-1.083-1.087s.468-1.06 1.072-1.068zm-.426 3.303l-4.956 3.986c1.297 10.415-3.75 15.72-14.648 12.17l-5.263 4.193c14.248 9.753 32.843-2.904 24.866-20.35zm79.42 14.21c.59-.008 1.077.48 1.084 1.07.008.59-.482 1.076-1.07 1.084-.59.007-1.077-.482-1.084-1.07s.466-1.093 1.07-1.085zm21.085 4.106c.59-.01 1.077.48 1.084 1.07s-.482 1.076-1.086 1.084c-.59.007-1.076-.482-1.084-1.07.008-.59.498-1.077 1.087-1.085zm462.453 9.566l-3.158 6.288-.8-1.896-2.123.027.684-2.195-1.332-1.13 6.73-1.094zm-478.878-5.97l.983 1.663 2.078.05-.786 1.575 1.508 1.547-6.784 1.684 3-6.52zm448.055 15.89c.59-.006 1.076.484 1.083 1.073.008.588-.482 1.074-1.086 1.082-.59.008-1.076-.482-1.084-1.07.023-.606.498-1.093 1.087-1.085zm-602.84 16.95c.59-.006 1.077.484 1.085 1.073.007.588-.483 1.075-1.087 1.082-.59.008-1.076-.482-1.084-1.07s.498-1.077 1.087-1.084zm90.91.838c.59-.008 1.077.482 1.084 1.07.008.59-.482 1.077-1.07 1.084-.59.008-1.077-.482-1.084-1.07-.008-.605.482-1.092 1.07-1.084zm598.614 11.583v2.387l-30.828 25.73-1.31-1.674 32.138-26.443zm-56.595 4.207c.588-.007 1.075.482 1.083 1.07.007.59-.482 1.077-1.07 1.085-.59.006-1.077-.483-1.085-1.088.008-.574.482-1.06 1.07-1.068zm-528.262 4.22c.59-.006 1.076.484 1.083 1.073s-.48 1.076-1.07 1.083c-.59.008-1.076-.482-1.084-1.087-.007-.573.467-1.06 1.072-1.068zm584.88 9.546c.59-.008 1.077.482 1.084 1.07s-.482 1.077-1.07 1.085c-.59.007-1.077-.483-1.085-1.087-.007-.59.467-1.076 1.072-1.068zm-4.613 1.246l-.085 3.04c-9.6 8.216-29.247 24.546-29.185 24.56l-1.483-2.042c0-.016 21.54-18.633 30.753-25.558zm-53.25 2.71l-2.952 6.704-1.28-1.797-1.876-.13.44-1.82-1.72-1.172 7.388-1.784zm-544.678-8.71l1.886-.367-.33 1.942 1.335 1.393-6.972 1.547 3.36-6.26.72 1.743zm571.175 54.55c1.422 2.12 1.328 4.432.744 4.78-.625-.348-1.175-.96-1.815-1.23-3.257-1.4-5.845-2.546-6.32-4.602-1.782-4.674 6.206-.715 7.392 1.052zm37.314 166.227l10.923-8.93s1.684.86 2 1.26c.113.432-.195.56-.64.97-.197.265-.334.515-.342 1.09-.007.603.198.88-.062 1.147-.42-.026-.738.52-.717.955.02.325-.426.703-.67.954-.46.44-.583.533-.873 2.04-.03.156-.024.544-.223.748-.635.055-1.096 1.61-1.373 1.707-.465-.025-1.2-.59-1.382-1.423-.116-.542-.083-1.596.033-2.28.145-.808.213-1.537.164-1.738-.114-.448-.42-.165-.413.455.005.262-.094 1.023-.255 1.754-.16.73-.598 1.697-.405 2.268.306.85 1.396 1.207 1.882 1.666 1.302 1.192 1.573 1.762 1.73 2.024 1.034 1.893 1.038 2.22.792 3.633-.144.823-.952.68-1.42.344 0 0-3.084-2.24-4.416-3.34-2.053-1.678-3.47-3.396-4.332-5.307zm-88.04-62.717c1.17.466 4.236 2.69 4.236 2.69l-2.778 5.787c.508.908.723 3.153.723 3.153 3.515-.278 5.437 5.65-.042 5.117.636 3.665-5.264 6.548-5.117-.027-6.148.482-4.1-6.49-.3-5.19-.115-2.96 1.85-3.34 3.235-4.072 1.13-1.286 1.837-4.21 1.837-4.21l-.275-.895c-1.168 2.045-6.136 2.636-11.592 1.56 1.444-3.477 5.925-3.395 10.073-3.914zm11.303 38.103c-.178.698-.194.683.658.595.433-.037 2.138-.043 3.333.003 2.204.173 5.66.175 7.38-1.15.338-.314.524-.3.588-.13.15.85-1.534 3.662-1.534 3.662l-2.77 1.54s-1.132.06-2.543.017l-.013 2.496c-1.108.65-2.994 3.465.057 5.596l-.09 2.728 2.683.043c1.79 1.7 3.23 1.696 4.87.078l3.1-.01-.023-2.944c1.52-1.23 1.74-3.31.168-4.98l-.038-2.99-2.388.015s-.5-.382-.505-.692c0-.202 1.738-3.557 2.073-4.027.426-.624.322-.266 1.007 1.167.988 2.05 1.976 2.89 4.487 4.097 2.247 1.087 3.044 1.588 3.703 2.2.517.49.825.33 1.018-.4.428-1.65.298-3.29-.62-4.783-1.917-3.168-5.236-3.31-5.757-4.033-.063-.17.6-.38 1.34-.7 1.262-.76 3.092-3.078 3.328-4.01-.037-.45.255-1.85.468-2.162.257-.562.285-.81.265-2.298-.227-.85-.024-1.953.08-2.326.114-.776-.3-1.685-.89-2.794-.214-1.036-.164-.773.504-3.107.103-.374.852-3.624-.112-3.844.016.03.095.123.126.184.324 1.066.12 2.06-.13 3.04-.742 2.615-.77 2.925-1.454 2.7-.187-.058-1.408-.988-1.408-.988s-.016-1.225.247-2.437c-.15.405-.244 1.476-.72 1.73-.264.065-.608-.163-1.282-.743-.25-.214-.798-.595-.798-.595s7.76-6.673 10.69-8.88l.172 98.562-55.777.114c-.714-6.1 1.104-14.183 4.13-22.284 1.874-5 4.57-8.725 7.598-13.197 5.81-8.54 10.21-17.216 8.503-28.2-.222-1.626-.45-2.413-.378-2.848.712-1.327 3.512-5.38 5.568-7.048 3.007-2.473 7.207-6.155 7.535-5.942 1.002 1.925 2.2 3.49 3.766 4.68.282.306.285.57-.35.702-4.2-.008-8.482.915-9.86 4.592zm-156.57-4.65c.588-.007 1.075.482 1.083 1.07.007.59-.482 1.077-1.07 1.085-.59.007-1.077-.482-1.085-1.07-.008-.606.482-1.077 1.07-1.085zm-422.502-159.707c.59-.008 1.076.482 1.084 1.07s-.482 1.077-1.07 1.084c-.59.008-1.077-.482-1.085-1.07-.008-.606.467-1.092 1.07-1.085zm571.86 11.983c.59-.007 1.076.482 1.083 1.07s-.48 1.077-1.07 1.085c-.59.01-1.076-.48-1.083-1.07s.482-1.076 1.07-1.084zm9.07 16.718c.59-.008 1.076.482 1.083 1.07.01.59-.48 1.077-1.07 1.084-.59.008-1.076-.482-1.083-1.07-.008-.59.482-1.077 1.07-1.085zm-22.862 4.704l1.952-.103c-.24.7-.37 1.416-.515 2.146l1.597 1.16-6.868 1.173 2.944-6.084.89 1.708zm-25.81 30.88l-11.587-14.903 1.395-1.134 11.678 14.748-1.487 1.29zm-28.29 81.845c.59-.008 1.077.482 1.085 1.07s-.482 1.077-1.07 1.084c-.59.008-1.076-.482-1.084-1.07-.008-.59.482-1.077 1.07-1.084zm17.627-77.553c.94.732.007 1.752-.898 1.345-.78-.33-.727-1.122-.11-1.425.4-.19.68-.148 1.008.08zm133.466 11.642c.96.018 2.028 2.283 1.835 2.952-.284.78-.547.813-1.91-.332-1.35-1.13-1.365-1.176-.814-1.787.306-.345.44-.812.89-.834zm-16.11 4.283c.59-.007 1.076.483 1.083 1.072.008.59-.482 1.076-1.07 1.083-.59.008-1.077-.482-1.085-1.087s.483-1.075 1.072-1.067zm-127.983 1.05c.59-.007 1.076.482 1.083 1.07.008.59-.482 1.077-1.07 1.085-.59.008-1.077-.482-1.084-1.07-.008-.606.482-1.077 1.07-1.085zm5.41 2.718c1.056.157 1.345.96.857 1.555-.657.815-2.154.074-1.81-.89.165-.438.55-.66.952-.665zm130.84 7.167c.418-.036 1.046.545 1.724 1.497.775 1.075.84 1.416.617 2.07-.313.95-.512 1.122-1.206.2-.267-.352-.867-1.166-1.307-1.625-.927-.965-1.064-.715-.515-1.466.275-.33.44-.642.69-.676zm7.796 7.833c.952.484 1.053 1.133.486 1.59-.663.365-1.83-.07-2.072-.717-.323-.957.694-1.45 1.585-.873zm-12.072 7.388c.543-.037.984.515 1.65 1.592 1.123 1.815 1.193 2.434.232 3.624-.687.862-.764.91-1.432-.462-.558-1.124-1.613-2.428-2.584-3.222-.408-.336-.553-.783-.26-.818.094-.017.45-.022.807-.042.526-.022.712-.086.987-.37.184-.187.384-.283.6-.3zm4.897 9.31c.496-.022 1.15.248 1.638.8.55.582.48 1.11-.588 1.217-.48.192-1.807-.674-1.815-1.248-.006-.497.316-.75.765-.77zm-18.69 9.56h.08c.45.025.687.456 1.196 1.473.78 1.556.558 2.41-.78 3.11-.91.477-1.606.61-1.737.085-.033-.155-.038-.604-.106-1.037-.1-.587-.232-1.19-.754-1.96-.822-1.244-.967-1.676-.063-1.315.483.195.994.173 1.548-.113.217-.143.433-.223.618-.24zm9.09 14.134c-.31-.012-.508.192-.424.703.28.136.73.006 1.072.126.45.164.74.905 1.235.79.038-.62-1.184-1.597-1.882-1.62zm-118.387 24.454c-2.527-1.192-8.764-3.964-11.772-4.002-5.57-1.556-5.762-.84-7.722-1.342 10.337-2.707 17.286 2.443 19.892 4.952 1.21 1.178.553.845-.398.392zm-502.6 77c5.93 10.263 11.474 21.834 20.764 38.97l-.895.274-35.3.13c1.71-18.95-8.553-36.988-9.242-36.28 8 .128 14.632-1.415 16.02-4.378l-1.136-.327c-4.645 4.03-11.62 4.227-16.27 2.985.09-9.876-.34-20.304-.048-30.167 5.498-.412 9.895 1.593 12.94 5.6 5.125 6.755 8.615 15.33 13.166 23.192zm17.917 106.1c1.41-.112 9.155 3.06 12.612 5.417.957.995 2.36 2.714 2.36 2.884.007.464-.682-.1-4.024-2.01-2.53-1.41-5.15-2.554-7.705-3.637-.124-.045-.358-.15-.358-.15s-.19-.215-.518-.475c-.892-.686-2.66-1.934-2.367-2.03zm-82.49-146.684c-.078-.014 7.663 2.77 13.834 7.666.816.656 1.824 3.077 1.824 3.077-.556-1.03-10.29-6.828-13.7-8.163l-1.957-2.58zm22.963 23.622c.415-.253 11.756 6.406 13.422 8.137.75.58 2.523 3.362 2.53 3.92.007.496-.54.07-1.56-.863-5.226-4.863-12.76-8.517-12.822-8.44l-1.57-2.754zm16.682 24.363c5.315 2.24 12.004 7.627 15.38 10.84.847.825 1.45 2.042 1.567 2.598.066.356-.105.327-.18.514-4.375-4.997-13.982-10.702-15.26-11.15.02.31-1.047-1.94-1.508-2.803zm28.86 36.905c.613.627 1.587 2.8 1.373 3.067-.107.125-.092.063-.358-.12-1.398-1.392-8.595-7.748-14.58-11.3-.56-.286-2.46-3.254-2.056-3.305 3.13 1.014 12.105 8.153 15.622 11.658zm82.07 79.327c.108.014.296.136.608.318 5.512 3.03 13.516 10.662 15.028 12.502.35.57.89 1.6.85 2.237-.07.496-.262.08-2.49-2.108-3.58-3.504-7.702-6.877-12.08-9.72-.844-.577-.674-.642-1.292-1.703-.62-1.08-.857-1.54-.625-1.528zm-34.82-39.655c3.94.104 5.482 3.076 7.91 8.564 1.99 5.4 2.814 10.35 2.912 14.303.003.264-.48.037-.698-.022-1.058-.28-2.363-.542-3.878-.15-1.112.278-2.182.26-1.03-.498.37-.238 1.365-1.165 1.904-1.498 1.076-.665.425-.656-.653-.13-.818.397-1.354.9-1.678.982-.2.05-.086-.635.125-1.118 1.142-2.82 1.477-4.484-.22-5.004-.466-.134-1.077-.56-1.375-.85-.235-.23-.433-1.142-.51-1.172-.08-.046-.13.823-.128.962.006.45.59 1.373 1.28 1.86 1.19.853 1.424 1.082.784 3.09-.894 2.818-1.087 3.518-1.25 4.17-.087.374-.28 1.012-.368 1.432-.35 1.6-.302 2.996-.24 4.328.396 2.972 3.593 4.42 7.88 2.767.402-.16.575-.022.575-.022-3.412 3.485-7.244 5.705-9.463 12.74-2.88-5.79-6.97-10.327-13.737-12.13l-.108-1.21c2.37 1.133 6.948 2.656 9.856.928 1.552-1.058 1.078-1.75-.804-1.013-2.253.882-6.316.78-8.346-.357-.406-.227-.838-.036-.946.012-.1-.68-1.08-3.24-.953-4.22-.08-.138.618-.147.744.037.567.753 3.417 2.98 6.376 2.8 1.472-.095 2.675-.53 3.96-1.894.107-.094.633-.163.694-.24.107-.126.027-.327.026-.39-.032-.107-.222-.384-.35-.692-.158-.277-.193-.57-.165-.79 0-.185.122-.28.228-.405.106-.25.086-.56.022-.728-.266-.183-.24-.51-.086-.666.397-.456-3.462-3.956-4.206-3.946-.28.003-.117.497.446.878 1.954 1.292 3.387 2.994 3.064 3.216-.246.173-1.12-.203-2.02-.408-1.788-.41-3.947-.678-6.266 1.01-.874.725-3.183.832-3.183.832-.032-1.255-5.36-15.263-5.368-14.658 1.925-2.257 7.98-7.59 14.058-9.9 1.82-.66 3.832-.98 5.183-.797zm168.936 6.424l11.024.153c-2.772 1.4-7.808 6.41-7.808 6.41-1.433-2.896-1.87-4.347-3.216-6.562zm-135.39 16.892c.823.005 9.596 7.116 10.843 8.805.158.2 1.04 1.134 1.98 2.067 2.262 2.265 3.21 3.57 3.222 4.516.005.45-.4.16-1-.514-4.544-5.026-7.494-7.763-13.11-11.613-.64-.333-2.61-2.958-1.948-3.26h.015zm-22.116 8.485c-.248-.012-.2.235-.072.45 1.395 1.222 5.053 1.16 6.327.167 1.15-.9-.362-.43-.824-.222-1.095.48-2.274.417-3.798.018-.887-.237-1.385-.4-1.633-.413zm166.538 11.33c-1.287.017-2.63.406-2.33.867.11.17.456.49 1.303.03 1.216-.605 3.692.185 3.77.2.248.058-.832-.718-1.19-.87-.405-.164-.964-.234-1.553-.227zm-12.6 12.504c4.704 2.87 10.452 8.625 13.9 12.735.567.706.98 1.584.988 2.096.01.745-.15.328-3.276-2.825-2.45-2.51-6.154-5.904-8.61-7.75-1.472-1.065-1.738-1.2-2.436-2.48-.636-1.2-.876-1.785-.566-1.774zm-139.278 5.92c-.88.413-2.058.335-3.195-.053-1.027-.36-.79-.052-.404 1.075.177.51.295 1.236.296 1.344.002.248.002.264.726-.133.63-.35.77-.475 2.122-.167 1.384.323 1.398.2 2.044-.135.57-.3.676-.473 1.066-.323.763.3 1.618.43 2.588-.08.74-.397.99-.12 1.334.045.468.227.652.085.46-.378-.08-.185-.214-.974-.218-1.237-.006-.48-.12-.913-.32-.802-.74.382-1.34.777-2.052.755-1.287-.014-2.43-.79-4.448.09zm102.156 8.473c11.754 14.592 9.917 35.652 9.527 35.487l-9.47.06-.057-35.547zm-282.95 4.023c4.692 3.272 10.27 8.998 13.374 12.942.52.676.105.898.364 1.732.097.31-.42-.15-1.914-1.743-1.855-1.99-4.917-4.975-6.923-6.716-2.196-1.893-2.838-2.38-3.312-3.026-.363-.538-1.87-3.123-1.59-3.188zm193.553 19.68c-.045.002-.092.003-.138.003-1.674.083-2.518 1.954-1.075 3.27.534.488 1.39.787 1.387.523 0-.062-.268-.337-.456-.474-1.19-.916-1.07-2.344.28-2.36.465-.007.498.163 1.593.94 1.284.913 2.788.91 2.76-.005-.008-.682-.265-1.377-1.41-1.253-.295.035-.698.055-1.055-.033-.342-.09-.624-.288-.75-.348-.404-.18-.793-.253-1.134-.264zm120.308 13.56c3.58 2.404 8.52 7.828 11.04 11.036.584.752.626 1.59.384 2.026-.06.094-.5-.18-.5-.18-2.91-3.42-6.222-6.54-9.472-9.69.016 0-1.9-3.092-1.452-3.19zm-92.717 26.902l-.77.382c-1.17-1.752-2.254-1.785-3.142.273l-.576-.148c-.44-.46 1.533-4.934 4.49-.507zm188.866 29.45c.325.012.886.19 1.014.515.143.308-.023.65-.457.625-.062 0-.503-.52-.71-.843-.156-.2-.096-.31.153-.296zm-13.99-6.028l-.868.042c-1.656-2.165-2.893-.707-3.625.202l-.932-.128c.156-2.39 4.362-3.22 5.425-.116zm-63.51 8.87c.123-.002.263.027.372.072-.334.516-.39.95-.478 1.417-.34.143-.816.428-1.177.06-.644-.61.367-1.57 1.282-1.55zm32.544-9.172c.403-.006.28-.02.11.2-.182.235-.425.64-.56 1.015-.06.248-.104.342-.336.36-.465.022-1.382-.152-1.382-.137-.345-.336 1.114-1.41 2.168-1.438zm-68.526.62c.278-.034.206.355.115.51-.17.205-.246.268-.342.02-.048-.122-.11-.215-.174-.29-.142-.17-.127-.186.043-.22.078-.015.264-.018.357-.02zm42.716 3.72c1.008-.028.332 1.686-1.073 2.107-1.556.795-3.325.6-5.137-.43-1.03-.59-1.35-1.207-.446-.955 3.39.933 4.21.752 6.255-.577.122-.11.26-.127.4-.144zm44.434 10.17c3.385 2.854 5.923 6.077 8.628 9.065.535.66.792 1.307.69 1.743-.134.544-1.235-.744-1.235-.744.03.015-6.602-7.03-6.602-7.03s-1.682-3.017-1.48-3.035zm-167.605-3.508c.232.013.698.116 1.445.307 3.253.982 4.23.938 6.093.077 1.187-.543 1.684-.472 1.168.357-.926 1.516-4.242 1.683-6.718.847-.654-.224-1.232-.62-1.874-1.092-.33-.337-.425-.49-.115-.494zm69.883 7.115c.2-.018.56.21.998.452 2.718 1.53 4.73 1.257 6.406.212.306-.284.463-.146.513.116.15.944.19 1.61-.238 2.065-.244.268-.677.382-1.31.607-2.624.887-5.84.262-6.455-1.715-.215-1.005-.348-1.716.086-1.737zm59.956 10.877h.03c.186.03.625.41 1.317 1.192 3.62 4.093 5.634 6.454 5.26 7.637-.03.002-.057.25-.214.128-1.99-1.71-3.628-3.596-4.83-5.55-1.315-2.137-1.858-3.37-1.564-3.405zm-88.748 24.286c-3.055 2.334-6.75 7.9-7.072 10.648-.055.528-.003.915-.203 1.104-.152.157-.493.16-.96.074-.28-.058-.218-.09-.284-.4-.264-1.252.935-4.414 3.414-8.136 1.293-1.954 4.25-4.597 5.088-4.608.545.226 0 1.334.017 1.318zm136.2 16.725c.216-.003.543.1 1.01.297 2.744 1.173 3.773 1.594 5.544 3.044 3.305 2.686 7 9.087 5.923 9.69-.48.27-.806.104-1-.498-.032-.108-.385-1.003-.798-1.757-2.223-4.065-5.11-6.865-9.183-8.843-1.498-.725-1.652-.646-1.77-1.264-.082-.464-.008-.667.27-.67zm-100.61-6.26c.277-.02.346.476.25 1.485-.067.823-.13.808-1.03 1.765-1.46 1.182-3.19 3.98-3.99 6.81 0 .094-.074.312-.212.438-.383.33-.85.167-1.176.155-.234-.12-.163-.633-.136-.928.664-2.582 2.313-5.75 4.897-8.528.72-.77 1.148-1.178 1.396-1.197zm100.83 14.585c1.458-.034 6.623 3.806 8.713 7.174 1.362 2.2 1.745 3.11 1.424 3.423-.17.173-.898.197-1.287.047-.343-.135-.49-.66-1.14-1.892-1.716-3.202-4.165-5.51-6.83-6.733-.5-.226-.766-.377-.923-.546-.175-.353-.405-1.39.043-1.472zm-119.105 1.575c.45.087 1.7.893 2.75 1.655 1.846 1.355 4.66 5.474 4.078 6.07-.184.19-.835.197-1.162.077-1.983-3.51-4.547-5.18-5.583-6.144-.333-.553-1.077-1.8-.083-1.657zm.003 16.353c.093-.016.438.32 1.067.98 1.854 1.944 3.03 4.1 2.764 5.188-.22.917-.505.425-2.62-3.625-.92-1.71-1.334-2.51-1.21-2.543zm2.93 3.088c.047 1.116-.043 1.396-.16 1.987-.07.405-.348.594-.592.907-.625.784-1.336 2.14-1.694 3.247-.3.887-.157 1.102-1.243.977-.512-.07-.39-.195-.18-.787.657-1.93 2.29-5.037 3.87-6.33zm117.03 4.318c.023-.574 4.97 4.4 4.296 4.952-.65.117-1.022.137-1.304-.092-.527-1.187-2.896-3.42-2.896-3.42l-.097-1.44zm-94.082 11.414h.03c.22.043.103 3.114-.08 3.364-.354.175-1.02.2-1.38.003-.218-.12-.283-.338-.208-.57.21-.608 1.282-2.73 1.638-2.797zm94.454 13.542c-.152.25-1.112.293-1.488.02-.11-.093-.238-1.61-.102-1.875.385-.253 1.71 1.528 1.59 1.855z"/><path id="path3389-2-3-5-0_1_" d="M100.484 12.136l.615.814-3.628.03c.596.505 14.06 27.492 31.282 58.678 2.845 5.467 8.28 7.443 14.563 7.672L126.6 52.51c1.77-.97 5.302-3.573 7.432-3.09.133.65.765.395.773-.195l.775.02.27.416 3.24-.01.258-.375 2.795.398c-7.482-9.19-11.447-23.354-10.184-37.2l-24.757.104-.332-.43-6.386-.01zm-21622.98 6118.61c-.016-.017-.032-.016-.032 0h.03zm-44.835 22.41c-2.798 9.09-9.74 16.573-13.86 24.114-4.42 8.227-5.444 15.37-4.18 23.184l.806.067c9.415-12.895 16.703-28.305 20.77-43.442.09-.326-.057-.914.016-1.24-.175-.4-.026-.837.08-.947.246-.25.156-1.225-.036-2.85-.45-4.816-.374-8.615.02-12.977.297-3.352.29-3.88.29-3.88l-1.613-.025c.306 5.7-.424 12.75-2.294 17.997zm-117.616 78.366l2.65.043c.432 8.118 7.266 9.16 8.32 9.04-1.744 5.494 1.17 11.518 8.127 12.36-1.592 5.088 1.254 11.795 6.816 11.6l.594.364c-.362.732-.436 2.237-.405 2.267-1.24.094-1.903.273-2.707.44-7.224-10.838-23.394-36.115-23.394-36.115zm236.856-93.163c-.782 9.063 1.053 21.518 5.318 28.874 0 0-.133.497-.225.623-.41.61-.603.085-.858-.408-.905-1.68-2.63-1.936-3.377-.996-1.66 2.27.15 3.145 1.546 4.43-5.71-.346-7.62-6.615-6.296-9.717-.023.59.3 1.484.71 2.115 1.612 2.428 3.942.367 3.266-1.546-.273-.803-1.298-2.123-1.298-2.123s1.392-.204 1.962-.552c.522-.332.856-.91.722-1.714-.117-.634-.136-.913-.485-1.497-.425-.523-1.174-.885-1.778-.847-1.177.078-1.322.886-2.09 1.454-.19-1.455-1.133-2.56-2.65-2.292-1.16.217-1.996 1.452-1.278 2.993.366.786.865 1.028 1.37 1.703-8.198-.9-7.315-10.632-6.414-10.457 0 0 .247-.05.175.323-.465 2.378 2.5 3.797 3.794 2.06.82-1.407-.96-3.616-.96-3.616s1.174-.263 1.713-.565c2.14-1.236-.155-4.772-2.144-3.91-.693.32-.87.973-1.55 1.307-.455-.506-.477-1.064-1.305-1.518-2.248-1.242-3.652 1.722-2.395 3.008.518.52 1.408 1.005 1.238 1.07-6.97-.872-6.91-8.16-6.754-8.115l20.044-.088zm68.806 1.908l.96.003c-.27 4.33-.877 10.027-.466 14.254.47 4.025.493 4.598.204 5.005-.398.438-.178.652-.11 1.008.1.665.116.665.028 1.038-.84 3.39-1.91 6.893-3.276 10.43-4.46 12.366-11.743 25.854-17.465 32.935 0-.03-.263.02-.263.004-1.584-9.854 1.75-18.083 3.49-21.454 3.54-6.85 9.107-12.69 12.394-19.863 2.806-6.114 4.882-13.458 4.506-23.36zm-291.118-4.182l23.427 36.283-4.25 2.1-23.98-38.245 4.803-.14zm206.105 9.392c.604-.007 1.09.498 1.1 1.102.007.605-.483 1.092-1.088 1.1-.604.007-1.09-.498-1.1-1.102s.483-1.107 1.088-1.1zm81.865 51.822c.604-.008 1.107.498 1.115 1.102.008.605-.498 1.107-1.102 1.115s-1.106-.497-1.114-1.102c-.008-.62.482-1.122 1.102-1.115zm-14.324 68.868c.408 1.576-7.362 25.35-18.453 40.5l4.855.09.146.542c6.812 10.02 2.586 18.895-2.895 23.027l1.908 2.534-1.702 1.387-1.715-2.024c-13.88 10.457-40.96 33.58-40.96 33.58l.157 3.703 2.118-1.67c13.783 13.293 42.95 12.514 50.547-14.993l2.047.036c-4.593 20.15-23.404 28.08-37.63 24.76l-3.32 4.788.89.47c-.158-.262-.314-.338-.07-.574l2.822-3.648c21.273 2.686 34.078-9.37 38.224-25.685l2.713.043c-2.303 13.703-8.705 25.77-17.838 35.22-6.605-.008-18.218-.153-18.218-.153 4.238 4.085 12.337 16.584 12.663 17.85 0 0 8.313.25 17.224.01 3.268-1.467 7.632-2.066 9.675-1.054 3.588 1.8 6.977 8.5 8.51 19.27.393 2.77.75 3.942.865 4.5.017.107.266.166.297.15.138-.08-.21.483-.237.902-.01.42-.002 1.04.203 1.27.25.275.223.46.193.57-.03.078-.504.534-.504.534-.058 6.263-.016 11.968-.35 19.677h1.224c-.036-12.42 3.69-23.908 9.45-31.81 3.498-5.193 7.208-10.79 9.248-16.12 2.295-5.997 2.6-12.295 1.354-17.596l-.852.042c-5.083-3.47-7.163-10.9-.922-16.204l-2.223-2.87c-6.232 4.84-7.65 13.74-1.17 21.1h-2.526c-6.32-7.87-4.948-16.91 2.332-23.377l-1.64-2.072 1.78-1.573 1.603 1.747 40.658-34.088-.033-3.72-3.114 2.535c-18.293-16.848-45.347-4.95-49.286 15.394l-2.48.03c5.16-21.893 24.333-28.11 38.214-25.218l3.42-5.19c-2.52-.697-4.974-2.37-7.294-4.34-.972-.825-1.6-1.344-2.307-2.172-6.585-6.938-11.066-16.57-11.267-16.582l-17.86-.018c-2.618 1.305-7.11 2.79-9.57.806-5.295-4.257-7.08-12.87-7.818-18.425-.224-1.717-.418-4.722-.586-5.727-.126-.2-.328-.198-.498-.165zm-240.187 17.193c.605-.007 1.076.483 1.084 1.087s-.48 1.076-1.086 1.084-1.076-.48-1.084-1.086.483-1.076 1.087-1.083zm346.87 58.112c.882 1.136 1.672 2.32 2.107 3.554-.403-.01-.79.12-1.26-.232-.108-1.254-.63-2.007-1.276-2.85l.428-.472zm9.307 8.736c.36.18.656 1.542.395 1.778-.434.098-.73.056-.886-.082-.206-.37.197-1.63.49-1.696zm-88.967 20.462l16.587-.013c2.897 2.21 5.714 1.91 9.8.122l18.447-.037 1.05 1.893-46.772.076c.255-.685.89-2.042.89-2.042zm-389.524 62.293l47.73-.09 1.204 1.94-50.118.088 1.183-1.937zm-3.034 18.846l5.348-.01-1.972 3.376-5.52.01 2.143-3.377zm36.78 15.676l5.116-.004-2.266 3.362-5.07.004 2.22-3.362zm81.335.887l-2.142 3.36-5.193.006 2.22-3.332 5.115-.035zm96.493 1.206l5.116-.005-1.91 3.373-5.302.007 2.096-3.376zm-33.78 1.075c-3.317-.035-2.702 4.375-2.378 4.232-2.084-.47-3.62.51-3.877 2.298-.2 1.413 1.175 3.41 3.59 3.13-.32.377.017 2.497.33 2.694 0 0 .034.31-1.218 2.96-1.51 3.152-1.818 3.295-2.496 1.226-.742-2.222-1.873-3.34-4.837-4.774-.795-.377-1.905-1.045-2.484-1.487-1.332-.99-1.347-.975-1.274 1.04.08 2.618.885 3.77 3.696 5.316 1.374.758 4.007 1.825 4.472 1.82.34-.006 1.573.537 3.384 1.505.36.182 1.577.864 3.144.998 1.66.12 5.392-.286 7.546-1.54 1.215-.696 1.672-1.322 2.564-3.117 0 0-3.067.164-4.467-.206-2.917-.164-4.357.01-6.56 1.155-1.847.954-1.953 1.126-1.183-.45.347-.733.677-1.59.977-2.43.313-.842.405-.92 1.21-1.01 1.765-.177 2.775-1.213 2.938-2.982.04-.48-.028-.977-.028-.977 1.212.17 3.67-.42 3.59-2.914-.075-2.247-1.68-2.753-3.65-2.914.234-1.12-.603-3.558-2.99-3.573zm-374.798-1.458c2.915.01 2.84 2.692 1.573 4.197l-1.55-1.267-1.242 1.147c-1.358-.866-1.354-4.09 1.22-4.077zm79.733 3.69l1.438 2.106-2.944.007 1.507-2.112zm379.43 9.148l5.473-.01-2.192 3.1-5.178.003s1.153-1.983 1.898-3.094zm-278.95 12.528l-2.066 3.22-4.79.016 1.913-3.142 4.944-.095zm100.465 1.232l4.945-.002-1.955 3.42h-4.884l1.894-3.418zm46.624.48l5.007-.004-2.034 3.422-4.945.002 1.972-3.42zm74.82.802l5.163-.004-2.126 3.422-4.977.002 1.94-3.42zm-9.938 1.595l2.466 2.48-2.387 2.403-2.48-2.356 2.4-2.528zm-385.592.628c-.428 2.89-3.205 2.723-3.998 1.323l1.13-1.286-1.397-1.362c1.352-2.172 4.593-.85 4.265 1.325zm25.503 12.234l-1.33 1.505 1.46 1.407c-.944 1.314-4.557 1.206-3.838-1.935.47-2.006 2.496-2.373 3.708-.978zm39.423-8.65l1.53 2.09-2.85.02 1.32-2.11zm400.44 6.89l61.236.093 1.638 1.994c-21.373.4-42.31-.275-64.153-.24l1.278-1.847zm-345.514 10.973c2.422 1.488.65 4.627-1.962 4.087-1.95-.843-2.347-2.868-.595-4.038l1.363 1.13 1.194-1.18zm-96.394 6.708l-1.674.006-1.62 1.914c6.162 6.478 5.955 12.092.22 17.003l2.313 2.575c6.423-5.51 7.83-14.147.76-21.497zm120.638 8.29c3.465 5.38 6.464 15.59-3.802 24.945l-1.244-1.503c8.925-8.75 6.815-16.102 2.8-23.383l2.246-.06zm35.435 1.982l13.906.022c-2.955 11.354-5.04 18.032-5.322 35.786l-4.014.036c.444-.41-2.108-10.716-5.037-14.275 6.128-10.48 2.796-16.376.466-21.57zm-38.51.872c.248-.004.733.3 1.7.877.86.516 2 1.168 2.5 1.456 1.905 1.06 2.864 2.07 3.41 3.614.403 1.158.156 1.176-1.02.09-.864-.81-1.803-1.495-4.118-3.077-.813-.564-1.076-.467-.602.21.348.49 1.083 1.04 2.568 1.95 1.08.653 2.57 1.967 2.447 2.154-.106.172-.293.16-.807-.067-.234-.105-1.013-.42-1.714-.706-3.024-1.216-4.33-2.734-4.517-5.243-.06-.867-.11-1.27.153-1.258zm-175.002-3.16s.427.554.477.785c.114.495-.376.95-1.902 1.637-.524.24-.972.37-.952.68.07.727 1.465 1.825 1.292 2.804-.316.748-2.244 1.502-2.713 2.39.008.606 1.26 1.55 1.085 2.375-.09.25-.506.503-1.088 1.022-1.228 1.055-1.303 1.226-.843 2.042 1.048 1.91 1.077 1.77-.33 3.136-1.425 1.367-1.41 1.35-.713 2.55.746 1.28.698 1.233-.283 2.052-.965.803-.932.973-.408 1.974.51.97.618.984-.225 1.74-.98.88-1.166.975-.47 2.067.728 1.138.774 1.09-.036 2.016-.763.877-.855.924-.444 1.524.52.752.632.952.07 1.78-.594.893-.595.83-.04 1.66.457.708.374 1.484.374 1.484l-1.72.007s-.013-.992-.22-1.346c-.49-.878-.48-1.158.1-1.94.594-.798.5-.875-.068-1.674-.57-.814-.476-.8.24-1.723.672-.846.698-1.25.32-1.74-.9-1.152-.905-1.632 0-2.388.69-.583.75-.832.162-1.832-.586-.97-.665-1.06.408-2.02 1.088-.99 1.088-.975.345-2.082-.71-1.09-.68-1.153.468-2.222 1.15-1.07 1.164-1.085.403-2.424-.714-1.262-.714-1.246.665-2.49 1.38-1.148 1.844-1.294.474-2.95-.777-1.308-.22-1.44 1.027-2.09 2.2-1.347 1.208-1.272.268-3.275-.777-1.34-.328-1.346 1.012-2.03.34-.144.71-.32 1.094-.525.908-.508.406-.967.406-.967l1.767-.007zm348.75 4.985l6.635.07c-7.67 9.834-11.353 22.407-12.67 35.663l-2.512-.03c-.165-10.353 3.064-23.293 8.546-35.703zm49.877.54c3.808 3.19 6.622 5.015 8.616 5.733 0 0-2.67 4.453-2.875 4.285-15.4-2.933-33.702 6.078-37.808 25.432l-2.434.015c.88-7.592 2.874-13.943 6.54-20.563 3.638-6.434 7-10.198 12.07-14.93l15.89.028zm159.228 3.612l3.27.05s.615.737.898.997c1.416 1.594 1.536 1.282-1.573 3.043-1.97 1.11-2.832 1.633-2.95 2.1-.087.466.855 1.4.972 2.018 0 .078-2.673 1.864-3.15 2.118-.68.335-.706.614-.04 1.768.777 1.34.714 1.294-.945 2.447-1.613 1.137-1.94 1.017-1.244 2.14.966 1.553.506 1.916-1.742 3.14-.57.3-.58.61-.18 1.675.563 1.48.7 1.324-.467 2.13-1.368.948-1.616.982-1.314 1.552.89 1.678 1.236 2.092.065 2.65-.91.415-.922.663-.427 1.773.51 1.125.634 1.077-.257 1.708-.83.584-1.31.45-.508 1.417.63.752.576 1.357.07 1.813-.447.192-.653 1.032-.513 1.06l-1.148.03c-.9-1.212.16-1.907.315-2.018.15-.28-.037-.48-.402-1.126-.508-.908-.48-1.016.228-1.537.722-.537.74-.397.26-1.57-.562-1.372-.533-1.527.343-2.16.875-.63.874-.77.284-1.97-.62-1.264-.62-1.264.917-2.292 1.09-.726 1.107-.68.516-2.02-.4-.926-.124-1.24 1.366-2.266.844-.585.905-.694.508-1.386-1.094-1.893-1.095-1.955.796-3.19 1.553-1.01 1.536-1.088.93-2.43-.654-1.448-.7-1.34 1.408-2.606 1.738-1.046 1.848-.985 1.118-2.247-.904-1.57-.838-1.307 2.655-3.32 1.26-.87 2.395-.574 1.137-2.03-.52-.692-1.197-1.458-1.197-1.458zm-206.132-.174c.248-.003.437.29.414.848-.037.776-.414 1.556-.76 2.32-.74 1.576-1.47 2.748-1.857 2.753-.914.012-.886-.19.323-2.578.56-1.092 1.118-2.324 1.208-2.558.195-.53.456-.78.673-.784zm-325.434 13.142c.026 3.332-10.432 5.033-10.98 3.35 1.826-1.434 7.213-.806 8.344-2.092-1.38-.075-3.238.15-4.524.183-1.597.036-4.16.72-4.19 1-.165-.882 2.728-2.532 5.037-2.64 2.153-.104 4.497.145 6.312.2zm61.863 25.328s-20.354 16.913-30.418 25.088l.062 3.644 32.2-26.46-1.844-2.27zm4.43 28.565l1.307 1.58-30.236 24.714-.11-2.588 29.04-23.706zm95.28 13.047l-1.085 1.16c-29.614-21.94-56.777 11.508-41.726 35.374-.135.31-1.18 1.068-1.18 1.068-16.775-27.703 15.19-60.222 43.992-37.603zm504.71 49.433c1.674.01 4.774 1.163 6.08 2.728 1.528 1.825 1.09 2.637-.855.925-2.082-1.506-3.79-1.856-.9-.08.64.395 1.208 1.163 1.24 1.24.113.308-.42-.01-2.848-.894-1.433-.524-3.265-1.926-3.727-2.897-.366-.725.126-1.026 1.01-1.022zm-94.554-27.37c.526-.005.99.035 1.318.124 2.116.608 2.787.925 3.57 1.535.532.412.366.724-.258.453-.733-.316-3.036-1-3.454-.948-.603.07.006.45.862.67 1.912.473 2.865.972 1.5.99-.71.102-3.827.127-4.665.03-1.413-.17-3.538-1.46-3.048-1.915.52-.503 2.608-.917 4.174-.938zm-40.02 1.752c2.51.03 3.87.958 1.13 1.148-4.72.76-5.62 1.778-.396.548 1.22-.28 1.196.155.348.57-.693.334-1.544.5-2.252.85-1.28.544-4.24.66-5.392.225-1.714-.628 3.615-3.364 6.56-3.34zm-12.976 10.79c1.27.03 3.977 1.856 5.177 3.577.79 1.122.398 1.933-.79 1.033-.236-.182-1.945-1.633-2.038-1.663-.156-.06 1.414 1.44 1.65 1.855.192.354.652 1.17-.2 1.196-1.336-.17-4.45-3.648-4.472-5.368-.006-.45.255-.64.674-.63zm94.204 4.82c.527-.023.25.26-.747.97-1.812 1.28-.87 1.02 1.255-.078.647-.334 1.42-.592 1.682-.642s.603-.132.727-.165c.57-.178.13.526-.79 1.266-1.95 1.56-4.134 2.8-5.65 3.175-1.93.474-2.333.54-1.635-.66 1.137-1.923 2.776-3.463 4.353-3.763.372-.05.635-.085.805-.103zm-79.267 4.215c.807-.01 1.802.147 3.372.483 1.105.342.81.424-.505.565-2.476.28-1.45.56.968.514 3.302-.027-1.643 1.184-3.252 1.437-1.255.063-1.612.02-4.347-.486-1.04-.188-.416-.956 1.556-1.896.786-.398 1.403-.607 2.21-.618zm55.85 1.08l.09 2.122-39.845 33.426-1.352-1.502 41.107-34.046zm97.368 5.744c1.597-.02 3.89 1.08 3.65 1.735-.09.25-.276.236-1.49-.09-.793-.206-2.222-.436-2.033-.252.062.06 1.184.48 1.604.584 1.4.338 3.083 1.123 2.714 1.36-.646.396-1.255.094-2.015.01-1.927-.27-5.102-1.236-5.62-1.725-.596-.535 1.468-1.585 3.188-1.623zm-92.744 9.113c.28.012.39.274.116.65-.41.547-.607 1.015-.97 1.686-1.338 2.063-2.164 2.88-3.456 3.687-1.276.807-1.464.67-1.36-.99.147-1.723 1.364-3.537 3.12-4.397.804-.12 1.267-.326.427.692-1.495 1.802-.474 1.62.926-.43.456-.673.918-.91 1.198-.9zm-106.66-.41c.87-.01 1.152.295.043.82-1.048.495-3.153 1.964-3.197 2.135-.09.28.696-.164 2.004-.88 1.74-.95 1.895-.938 1.056.158-.945 1.237-3.25 2.786-5.04 3.352-2.52.7-2.464.218-1.062-1.66 1.34-2.033 2.473-3.01 4.202-3.558.757-.258 1.484-.36 1.995-.367zm-70.96 1.328c9.164 15.757 4.13 31.774-6.476 39.973-11.066 8.56-28.327 8.085-38.52-2.154l1.41-1.337s16.084 16.334 36.267 1.78c10.245-7.388 14.454-24.79 5.973-36.896l1.346-1.366zm-273.92-1.37c-.03 0-.047 0-.078.016-.307.206-1.457 3.616-1.687 5.03-.073.42.04.82.37 1.157.236.23.622.085.746.037.77-.35 1.197-.883 1.873-2.582.452-.936.515-2.037.417-2.424-.033-.154-.285-.523-.598-.736-.346-.26-.83-.5-1.046-.498zm-223.064-2.1c.372-.004 1.093.59 1.175 1.01.01.743-.408 1.973-.736 1.79-.537-.66-1.136-.232-1.232-.48-.07-.727.397-1.678.714-2.318h.078zm99.66 4.306c4.063-.006 8.11 1.182 11.088 3.794l-1.578 1.462c-6.978-4.948-15.067-3.48-19.876-.13-4.747 3.316-8.947 10.672-4.798 20.99l-1.487 1.352c-4.634-8.296-2.172-19.288 5.993-24.494 2.875-1.835 6.567-2.89 10.27-2.97.125 0 .264-.003.388-.004zm478.042 11.802c.124 0 .316.4.29.896-.022.59-.276 1.368-.677 1.543-.447.192-.743-1.168-.743-1.168.288-.455.67-.894 1.13-1.272zm-254.993 2.514c.17-.002.324-.004.464.01.45.056.456.46.027.852-.46.424-.707.443-1.16.108-.423-.305-.442-.522-.073-.79.185-.11.463-.16.742-.18zm318.642 8.1l1.355 1.657-4.665 3.764-.557.038-35.723 29.684-.018-2.635 39.608-32.508zm-350.775-1.36l-4.862 4.032c-9.755-5.037-17.544 3.993-14.772 12.174l-4.2 3.666c-7.585-20.676 14.446-27.78 23.834-19.872zm381.617 24.216h.046c.03 0 .063.03.094.06.173.168-.164 2.917-.42 3.416-.092.187-.166.42-.165.53.002.232-.888 2.104-1.6 3.353-.258.468-.545 1.077-.62 1.372-.553 2.72-1.787-1.652-1.355-4.185.202-1.196 1.89-3.652 2.374-3.472.248.09.235.276-.202 1.228-1.222 2.652-1.514 4.035-.245 1.46 1.48-2.948 1.86-3.713 2.09-3.762zm-221.64-18.888c.186.013.327.104.407.32.05.186.117.557.01.744-.255.562-.762.94-1.29.9-.232-.012-.483-.21-.517-.458-.034-.232.023-.605.314-.903.367-.377.767-.615 1.077-.603zm-414.05-5.69c.573.024 1.183 1.582.804 2.285-.318.577-.38.47-.938-.655-.287-.585-.512-1.218-.512-1.218l.475-.378c.03-.016.078-.032.124-.033h.047zm201.148 4.354s.603 1.093.754 1.974c.085.542.083.433-.51.208-.468-.288-.563-.458-.847-.81-.19-.34-.38-.585-.38-.585l.982-.786zm-1.67 3.752c.31-.004.64.302.943 1.058 1.138 2.853 1.04 6.048-.228 7.552-.214.25-.26.267-.51.1-.203-.12-.236-1.485-.024-1.86.06-.125.25-.933.26-1.4.033-1.1-.263-1.235-.405-.21-.17 1.165-.346 1.988-.665 1.295-.16-.354-.242-.71-.37-1.095-.67-2.472.07-5.396.998-5.44zm15.002 2.23s1.088 1.412 1.544 1.902c.16.277.16.34-.103.436-.432.16-1.87-.798-2.448-1.085-.313-.245-.176-.433-.176-.433.4-.3.784-.584 1.184-.82zm16.024 3.626c.59-.007.576.194-.032 1.086-3.455 4.99-2.767 4.252-.554 1.526 1.22-1.52 1.436-1.66 1.564-1.322.096.247-1.354 3.21-2.1 4.275-.396.547-1.717 1.48-2.394 1.83-1.648.842-1.467.498-.858-1.57.765-3.22 2.7-5.803 4.374-5.825zm189.285 5.234c9.544 23.61-16.46 34.04-28.21 23.12l1.365-1.086c16.358 11.044 32.437-6.728 25.034-20.6 0 0 .675-.567 1.81-1.434zm-243.364 6.655c1.566.15 3.882 3.02 3.996 4.615.247 1.13-.076 1.334-.63.535-.936-1.724-.83-.624-.03 1.086.428.863.52 1.916.086 1.968-.606-.116-1.904-2.192-2.303-3.055-.955-1.88-1.03-1.554-1.545-4.338-.1-.526.036-.806.424-.81zm7.256 4.03c7.264 13.874-8.27 30.57-24.13 19.83l4.742-3.783c8.268 3.955 17.49-.985 14.83-12.376l4.558-3.67zm46.36 6.373l-13.035 10.896c-2.704-9.004 7.15-14.185 13.037-10.897zm369.213 19.455c.432-.083.792 2.64.873 6.47.08 3.75.177 4.12-.988 2.74-.488-.567-1.084-1.102-1.354-1.594-.777-1.463-.534-3-.33-5.143.193-2 .91-1.685.797.41-.075 1.35-.054 3.023.163 3.02.078 0 .092-.125.043-.31-.098-.387.357-4.718.537-5.232.105-.234.18-.343.26-.36zm-168.215-.198c.95.36 1.224 3.52.21 6.555-.434 1.308-1.105 2.17-2.12 2.694-.725.38-.882.258-.564-.397.59-1.077.903-2.182 1.148-3.565.09-1.35-.608-.27-.554.317-.556 2.52-1.28 2.9-1.19.248.068-1.954.32-2.795 1.233-4.124.456-.69.94-1.61 1.838-1.73zm-163.48 6.64c.388.01.487.52.144 1.533-.24.7-1.064 2.974-.955 2.973.062 0 .934-2.06 1.116-2.387.29-.547.41-.657.66-.63.26 1.005-.002 2.28-.128 3.32-.523 2.735-2.378 5.55-3.102 4.722-1.164-1.365-.63-6.906.913-8.585.565-.643 1.042-.96 1.352-.947zm128.73 4.642c1.426 9.655-6.535 13.79-13.425 10.886.14-.033 13.424-10.886 13.424-10.886zm-238.518-1.28l1.388 1.812 2.544.122-1.294 1.924 1.303 2.448-2.838.052-1.634 1.88-1.417-1.686-2.48-.123 1.442-2.312-1.176-2.202 2.68-.127 1.48-1.788zm156.107 4.242c.326.012 1.887 2.07 2.052 2.826.473 1.84.3 5.33-.35 5.214-.73-2.502-.454-3.808-.698-3.51-.443.455.288 4.306.053 5.254-.12.25-.496-.055-.938-.67-1.153-1.66-1.02-8.14-.133-9.098 0-.015 0-.015.014-.016zm-31.454 6.693l-31.336 26.045 1.813 2.333 29.573-24.503-.05-3.875zm417.167 28.08c.14-.032.453.197 1.034.84 1.027 1.383 2.12 3.29 2.528 4.758.147.572.39 1.328.55 1.683.222.524.24.68.102.836-.55.673-2.82-1.018-3.553-2.62-1.036-2.266-1.063-4.312-.03-2.326.382.724.845 1.772.84 1.354-.002-.124-.456-1.638-.805-2.315-.223-.447-1.005-2.142-.665-2.21zm-202.097-.286l.074 2.155-29.17 24.483-1.15-1.396s27.47-22.942 30.246-25.24zm199.514 8.16c.14.014.204.215.164.65-.137 1.427-.47 4.516-.404 4.78.05.17.454-2.053.558-2.442.5-2.053 1.26 2.852.81 5.043-.074.343-.222.903-.295 1.245-.073.342-.314.935-.42 1.075-.82 1.298-2.78-3.87-2.456-6.51.197-1.646 1.547-3.896 2.044-3.84zm-282.505 5.086c.386-.02.453.35.386 1.142-.214 2.7-2.006 5.545-3.98 6.3-1.96.753-2.148.6-.988-.794.886-1.066 1.414-2.19 1.257-2.326-.079-.077-.274.36-.99 1.283-.9 1.145-1.037.185-.238-1.515.695-1.466 1.35-2.22 2.673-3.12.97-.632 1.538-.95 1.88-.97zm-166.614 4.482c-.377 11.648-3.252 24.288-8.846 35.305l-5.24.02c6.39-9.46 10.47-21.155 11.575-35.26l2.51-.065zm99.12 5.74s.784.81 1.1 1.364c.35.6.45 1.142-.18 1.584-.736.63-1.05.4.165 1.95.647.814.432.957-.35 1.65-.812.707-.858.754-.102 1.72.82 1.03.962 1.198-.098 1.987-.952.725-.965.896-.222 2.05.696 1.075.898 1.057-.42 2.175-1.12.96-1.155.697-.063 2.434.396.646.366.678-.355 1.338-1.793 1.59-1.7 1.495-1.448 1.91 1.975 2.827 1.09 2.746-.846 4.088-.383.33-.285.702.585 2.117.746 1.2.64 1.464-1.096 2.65-1.798 1.247-1.858 1.418-.958 2.678.884 1.244.914 1.166-.526 2.456-.644.58-1.18 1.115-1.18 1.115l-3.193.01s.674-.613 1.135-.96c2.626-1.94 2.613-1.74 1.494-3.135-.977-1.243-.885-1.322.098-2.032.707-.506 1.676-1.045 2.398-1.566.384-.284.102-.513-.55-1.73-.73-1.37-.76-1.214.575-2.332 1.473-1.213 1.505-1.167.694-2.707-.81-1.54-.823-1.415.19-2.234 1.503-1.23 1.58-1.17.787-2.6-.634-1.14-.634-1.108.422-2.176 1.07-1.084.947-1.005.3-2.004-.65-1-.62-1.14.238-1.894.92-.818.796-.77.023-1.814-.757-1.03-.74-.952.164-1.754.475-.425.966-.85.932-1.05-.068-.512-.558-1.234-1.032-1.926-.174-.26.18-.343.747-.94.582-.61.553-.456.11-1.256-.24-.43-.698-1.17-.698-1.17h1.163zm3.947.315l.915.02s.157.2.362.428c.58.6.617.955.032 1.272-.57.302-.347.733.127 1.425.504.738.503.645-.216 1.367-.737.6-1.122.774-.3 1.91.47.522.4 1.08-.306 1.555-.554.363-1.465.67-.5 2.052.477.986.507.923-.476 1.618-1.306.932-1.556.78-.95 2.136.67 1.51.733 1.525-.633 2.55-1.598 1.184-1.66 1.278-.99 2.68.67 1.417.696 1.06-.992 2.385-1.243.962-1.522 1.028-1.155 1.814.686 1.495.986 1.894-1.016 2.927-2.31 1.194-2.433 1.288-1.31 3.04.902 1.43.714 1.232-.78 2.09-2.153 1.25-3.107 1.79-3.18 2.18-.04.434 1.68 1.73 1.68 1.73l-3.02.085s-1.27-1.023-1.756-1.512c-1.365-1.332-1.375-.897 3.154-3.095 2.496-1.226 2.298-.944 1.886-1.652-1.206-2.093-1.255-2.31 1.01-3.455 1.97-.985 1.63-1.06 1.144-2.556-.42-1.297-.356-1.19.688-1.962 2.503-1.862 2.428-1.675 2.044-2.585-.383-.894-.683-1.308-.395-1.762.9-1.298 2.818-1.57 2.04-3.11-.37-.988-.498-1.22.607-2.086.997-.836 1-.727.364-1.82-.77-.997-.665-1.17.472-1.96.812-.738.797-.723.338-1.445-.633-1-.602-1.03.302-1.818.736-.645.86-.678.385-1.385-.616-.937-.51-1.14.29-1.6.492-.286.49-.394.454-.874-.062-.046-.317-.585-.317-.585zm-35.34-.493l4.2.008c1.356 7.78 3.707 10.975 5.057 13.438-5.285 8.532-4.078 15.6-.82 21.853l-13.285-.03c3.37-11.67 5.11-23.398 4.847-35.27zm32.794 1.237c.155-.017.267.245.52.676.84 1.43.247 3.47-.98 5.593-.927 1.593-1.082.37-.677-1.913.26-1.446-.456.72-.805 2.475-.19.948-.645 1.713-1.126 1.673-.467-.07-.33-1.405-.318-1.7.097-2.094.884-3.577 2.392-5.658.58-.783.807-1.127.993-1.145zm-114.158 2.044c.2-.002.48.072.824.27.266.15.75.44 1.078.62 1.17.637 1.266.837.7 1.48-.686.8-1.124.495-2.304-.823-.787-.89-.795-1.525-.3-1.547zm232.78 27.237c.186-.003.576.21.953.64.77.872.673 1.618-.167 1.41-.348-.506-.528-1.278-.86-1.848-.08-.14-.035-.202.074-.203zm35.266 9.586c-.744.01-1.987.987-2.223 1.982-.72 3.048-.722 2.91-.065 3.35.188.137.33.228.422.29.376.304.894.762.97.668.62.008 1.547-3.895 1.52-4.7.036-.854.066-.947-.14-1.332-.096-.184-.267-.26-.484-.257zm166.257 3.49c.046-.015.11.016.187.077.487.49.684 1.355.94 1.972.002.14-.057.357-.118.482-.423.812-1.07.03-1.15-1.365-.04-.776.002-1.133.14-1.165zm-169.5-1.9h.092c.496.024.425.536-.263 1.29-.367.392-1.108.587-1.36.343-.36-.352.387-1.323 1.19-1.566.14-.033.247-.065.34-.066zm122.46 6.643h.08c.263.01.48.132.654.332.33.414.2 1.05.036 1.58-.385 1.385-3 4.085-3.93 4.097-.56-.1 1.758-3.06 1.844-3.558-.172-.168-1.608 1.493-2.29 2.665-.304.53-.652 1.17-.837 1.282-.48.053-1.05.37-1.053.045.074-1.475 2.962-4.706 3.958-5.602.597-.582 1.12-.836 1.54-.842zm-452.525-3.75c2.232-.028-2.154 4.866-4.997 5.584-.88.23-2.523.28-2.634.096-.11-.184.01-.34.382-.423.587-.163 3.494-2.014 3.49-2.23-.003-.28-1.206.185-2.236.85-.66.427-.972.338-.623-.18 1.673-2.423 3.905-3.66 6.618-3.696zm76.73 1.21c.125.012.253.26.337.816.4 1.05.436 1.327.052 1.642-.66.536-.816.383-.816-.826.003-.992.212-1.646.43-1.633zm137.328 4.388s.81.3.474.692c-.23.266-1.24.047-1.24-.03l.766-.662zm-289.306 2.013c.263-.02.266.23.135.85-.074.328-.393 2.037-.96 2.525-.06.047-.89-.438-1.125-.668-.11-.107-.423-.35-.47-.505-.148-.526.014-1.195.397-1.525.154-.127.463-.208.633-.21.124-.002.51-.13.85-.275.246-.127.416-.19.54-.193zm500.235 9.83c.542-.006 1.194.048 1.755.242 1.65.474 4.674 1.83 5.145 2.273.675.643-1.083 1.332-3.207 1.36-1.13.014-1.336-.216-2.898-1.157-.204-.137-1.11-.73-.85-.95.29-.298 1.164.078 2.24.638.36.18 1.212.124 1.21-.03-.003-.187-2.168-.997-3.787-1.503-1.058-.342-1.047-.683-.383-.83.17-.003.45-.038.775-.042zm-612.895-1.11s.455.396 1.034.823c.626.472 1.363 1.052 1.884 1.836.74.905 1.917 3.138 1.782 3.542-.298.934-3.42-.7-5.964-3.24-.832-.827-1.32-1.44-1.32-1.44l.965-.88s.863.717 1.85 1.587c1.85 1.635 1.844 1.062-.023-.65-.534-.49-1.02-.917-1.02-.917.027-.326.318-.61.813-.662zm64.462 3.875s.99 1.026 1.368 1.502c-6.062 5.938-8.358 14.23-2.493 23.038l-2.806-.01c-5.264-10.335-2.79-18.133 3.932-24.53zm363.674 6.304c.372-.02.037.434-.63 1.574-1.244 2.125-1.485 2.67-3.525 3.193-.524.13-1.27.032-1.58.067-.866.104-.48.006.858-.864 1.845-1.202.27-.577-1.438.298-.986.508-2.04.49-2.12.228-.05-.138.395-.532.686-.784 2.606-2.343 3.413-2.245 5.836-3.082 1.065-.386 1.667-.61 1.914-.63zm-290.507-.28c.944.003 1.83.1 2.606.276.514.118 1.367.215.647.86-.812.755-2.984 1.806-4.595 1.873-.233.003-3.553-.217-2.834-.94.139-.08.588-.054.975-.136 1.84-.35 1.34-.654-.922-.517-2.835.16-2.963-.132-.816-.733 1.576-.44 3.107-.66 4.518-.68.155 0 .294-.002.418-.004zm-44.452 11.036c1.256-.016 2.235.204 2.242.684.01.775-2.37 2.496-3.948 2.842-.37.082-.896.197-1.16.263-.54.132-3.58.03-3.876-.09-1.417-.508-.428-.722 2.173-1.02 1.13-.138 1.668-.424 1.665-.64-.002-.11-.84-.13-2.077.026-1.393.173-1.12-.233.605-1.124 1.155-.604 2.95-.937 4.376-.94zm59.204 3.43c.17 0 .607.148 1.308.45 1.51.43 3.593.93 5.008 2.477 1.147 1.116 1.43 1.47 1.187 1.86-.288.468-3.858.127-5.355-.52-.998-.422-2.172-1.32-2.71-2.105-1.31-1.905-.76-2.41.902-1.08 2.005 1.6 2.3 1.767 2.657 1.685.138-.033-.207-.354-.88-.857-1.675-1.25-2.506-1.92-2.118-1.91zm-115.032 6.19c1.674-.007 2.032.128 3.67.867 2.04.717 1.536 1.36-2.064 2.258-1.81.426-3.626.14-4.954-.68-2.907-1.792-2.726-2.15.525-1.356 1.073.265 2.128.314 2.202.11.044-.154-1.247-.48-2.29-.822-1.137-.373-.16-.34 2.12-.368l.79-.01zm150.745 19.573s-.37.175-.54.27c-.122.08-1.128.2-2.228.277-2.168.168-3.62.512-4.947 1.04-1.99.802-3.306 3.268-3.306 3.268 1.487-.097 9.893 1.407 12.226-1.63.487-.642-1.24 4.79-2.137 5.034-2.22-.265-3.136 3.22-2.92 3.077-2.238.867-3.967 1.385-3.39 3.982.246 1.13 1.395 2.478 3.824 2.137-.655 4.503 4.848 5.656 5.445.223 0 0 1.067-.2 1.485-.252 2.503-.605 3.107-4.27-.582-5.417-1.027-.297-1.076-.498-1.076-.498.19-.824.148-1.692-.454-2.66.812-1.933 2.826-5.68 2.826-5.68l-4.227-3.17zm456.322 49.442c.504.675-2.132 1.794-4.95 2.048-.635.055-2.013.18-2.06.243-.302.53 5.444.132 7.23-.868.615-.35.666-.04.41.49-2.075 2.68-7.09 2.03-11.003 1.57-.22-.23-.038-.497.837-1.22 1.612-1.308 2.77-1.742 5.308-2.007.712-.04 3.914-.64 4.23-.256zm5.118 8.923c-.357 1.152-2.234 4.664-2.234 4.664-.23.236-1.064.402-.998-.483.004-.944 1.782-4.874 2.262-4.958.588-.054 1.012.375.97.778zm17.892 15.514c.564 4.023 3.614 4.976 6.545 6.24.764.347 1.424.974 2.204 1.383 1.447-1.973-.2-5.81-2.742-7.05-1.903-.874-3.617-1.58-4.686-1.505-.62.054-1.312.45-1.32.932zm8.08 1.3c.327-.006.793.08 2.504.54 2.583.68 4.406 2.578 4.888 5.084.017.108.15 2.044-.285 1.972-.67-.193-1.034-.87-2.11-1.32-1.34-.558-3.24-1.293-4.4-2.347-.943-.856-1.45-1.764-1.57-2.554-.118-.82.16-.902.835-.244 1.535 1.22 3.044 1.635 4.563 2.81.424.32 1.938 1.152.902.127-.707-.704-2.754-1.933-3.86-2.46-1.514-.71-2.347-1.6-1.464-1.61zm-107.67 3.05l17.356 27.03c-4.25 2.255-6.36 3.244-13.437 2.7l.02.356-3.01-.163c5.205 8.103 11.635 18.655 9.843 37.11l21.08-.055.362.337c.313.212.77-.368.77-.368l9.52-.06.25.306 4.434-.042s-20.348-37.92-30.56-56.732c-4.174-7.574-8.543-10.928-16.628-10.42zm-525.044 14c1.13-.03 2.273.747 2.277 2.266.01.79-.658 1.9-.658 1.9l-1.553-1.468-1.47 1.476c-.72-.595-1.155-1.737-.93-2.39.45-1.123 1.45-1.77 2.333-1.783zm577.023 13.543c1.47 5.7 3.074 13.57-9.604 31.795-7.488 10.778-9.93 20.933-10.22 33.323l-.76.01c.346-6.794.373-19.135.373-19.135l.705-.63s-.317-.522-.464-1.14c-.246-1.036-.04-.697.575-3.48 2.587-13.443 19.396-40.743 19.396-40.743zm-165.52 4.294l64.384.178-.847 1.685-62.31-.327-1.228-1.535zm-284.14 9.684l2.402 2.326-2.337 2.634-2.467-2.572 2.404-2.388zm465.818 9.952l-1.3 1.397 1.132 1.194c-1.162 2.45-4.256.55-4.156-1.28.112-2.155 2.612-3.04 4.324-1.31zm-6.6 7.966l1.037-1.315-1.178-1.287c1.913-1.9 3.733-.234 3.924 1.345.176 1.687-2.45 3.597-3.782 1.258zm-53.905 13.867l5.27.04-1.952 3.668-5.348-.01 2.03-3.7zm-403.805-14.416l4.837-.016-2.045 3.73-4.898.002 2.105-3.716zm75.406.988l5.132-.004-2.076 3.716-5.27.006 2.215-3.718zm73.863.884l5.255-.006-1.905 3.73-5.457.008 2.107-3.732zm74.417.797l5.07-.004-2.046 3.73-5.21.006 2.186-3.733zm7.902.945l3.41-.013-1.394 2.452-2.016-2.44zm-220.17-1.812c1.958 1.556.596 4.13-1.435 4.19-1.394.032-3.44-2.33-1.233-4.264l1.46 1.33 1.208-1.256zm391.19 21.197l4.946-.002-1.863 3.358-4.852.016 1.77-3.37zm-379.735 5.494l5.426-.007-1.91 3.357-5.163.005 1.647-3.354zm71.635.892l5.41-.008-1.754 3.355-5.457.01 1.802-3.358zm75.038.885l5.364-.008-1.662 3.355-5.674.01 1.972-3.357zm18.894 1.04l3.41-.014-1.453 2.686-1.956-2.672zm-238.482 1.358l50.187.36-.848 1.623-48.057.094-1.283-2.077zm15.566 24.234l47.036.03-1.072 2.245-16.247-.038c-3.178-2.362-6.79-1.26-10.93.094 0 0-12.43.145-17.33.038l-1.457-2.37zm-6.285 25.558l24.874 39.102-5.488-.053-23.62-36.793 4.233-2.255zm-90.932 53.395l23.48 36.547c-1.07-.018-2.078.042-3.148.025.423-6.842-5.075-10.027-8.317-10.187 1.928-7.993-3.913-11.344-7.797-11.976 1.556-10.392-7.036-11.847-7.174-11.737.035-.853-.128-1.47-.23-2.182l3.187-.49zm-31.03 14.13c-.044.22.448 2.29-.487 1.915l-.072-1.906.56-.008zm-25.64 2.974c.344 1.375 1.045 1.645 2.003 2.563 0 0-1.222.217-1.52.02-.515-.35-1.583-2.6-1.583-2.6l1.1.017zm-23.212 2.26c.59-.007 1.075.483 1.068 1.072.007.59-.483 1.076-1.072 1.068-.59.008-1.076-.482-1.068-1.07.008-.59.482-1.077 1.072-1.07zm21.876 13.8c3.083-.21 7.56 3.097 6.383 9.282-.207-.43-.452-1.374-.956-2.05-2.13-2.855-4.62 1.068-2.926 2.674.832.78 1.208 1.085 1.13 1.164-1.895-.363-3.33 1.33-2.546 3.195 1.318 2.416 3.146 1.137 4.212-.303 0 0 .648 2.162 1.303 2.432.998.42 2.355-.124 2.82-1.324.69-1.792-.99-2.235-1.375-3.238 3.567.11 8.114 5.306 6.05 9.828.265-1.026-.835-3.337-2.982-2.736-1.065.37-1.448 1.94-.574 3.542.27.508.427.708.427.708s-.93.12-1.175.278c-2.784 1.726.81 6.392 2.88 3.467.214-.344.565-.752.565-.752.35.647.454 1.56 1.08 1.878 2.573 1.285 3.7-1.442 2.63-2.777-.615-.752-1.293-1.61-1.293-1.61-.114-.48 7.694 1.543 6.753 9.136l-20.665.002c1.896-11.652-2.77-24.97-5.134-29.032l1.023-1.362c.254.508.69 1.774 1.436 2.012 2.396.76 3.12-.908 2.802-2.625-.182-.928-1.463-1.67-1.868-1.79zm17.056 15.627c.558-.006 1.013.453 1.02 1.027.008.558-.45 1.013-1.01 1.02s-1.028-.45-1.02-1.01c-.008-.573.45-1.044 1.01-1.036zm36.778 72.266c.574-.008 1.03.467 1.037 1.025s-.468 1.03-1.026 1.037c-.574.008-1.03-.467-1.037-1.025s.467-1.03 1.025-1.036z"/></g></g><path id="path147-0-8-1-3-6-7-5-8_1_" d="M124.426 211.55c7.8-.2 11.3-9 5.5-15.8-.8-1-.9-1.6.6-.6 3.9 2.6 11.4.9 11.8-7.1.5-9.8-13.3-12.7-15.8-2.2-.1 1.1-1 1.1-.8-.5.2-4.2 1.6-8.2 3.4-12.1h-9.3c1.8 3.9 3.1 7.8 3.4 12.1.2 1.6-.7 1.6-.8.5-2.6-10.4-16.3-7.6-15.8 2.2.4 8 7.9 9.7 11.8 7.1 1.5-1 1.5-.4.6.6-6 6.8-2.5 15.6 5.4 15.8z"/><path id="path147-0-8-1-0-3-83-6-6-4_1_" d="M41.926 15.05c7.8.2 11.3 9 5.5 15.8-.8 1-.9 1.6.6.6 3.9-2.6 11.4-.9 11.8 7.1.5 9.8-13.3 12.7-15.8 2.2-.1-1.1-1-1.1-.8.5.2 4.2 1.6 8.2 3.4 12.1h-9.3c1.8-3.9 3.1-7.8 3.4-12.1.2-1.6-.7-1.6-.8-.5-2.6 10.4-16.3 7.6-15.8-2.2.4-8 7.9-9.7 11.8-7.1 1.5 1 1.5.4.6-.6-5.9-6.8-2.4-15.6 5.4-15.8z"/></g></svg>