<svg xmlns="http://www.w3.org/2000/svg" width="166.4" height="226.6" viewBox="0 0 166.4 226.6"><style type="text/css">.st0{fill:#D40000;}</style><g id="g6708_1_"><path id="path6399-9_1_" class="st0" d="M8.05 44.79c-1.694-2.89-3.486-5.582-5.776-7.974 2.29-2.392 4.082-5.084 5.775-7.974 1.69 2.89 3.483 5.582 5.773 7.974C11.533 39.11 9.74 41.9 8.05 44.79z"/><path id="path6403-1_1_" class="st0" d="M158.374 197.8c-1.692-2.89-3.484-5.582-5.774-7.975 2.29-2.392 4.082-5.083 5.774-7.974 1.693 2.892 3.485 5.583 5.774 7.975-2.19 2.293-3.982 5.084-5.774 7.975z"/><path id="path6413-1_1_" class="st0" d="M83.21 132.41c-4.08-6.878-8.46-13.457-13.936-19.14 5.475-5.68 9.756-12.26 13.937-19.138 4.083 6.878 8.463 13.457 13.94 19.14-5.477 5.68-9.757 12.36-13.94 19.138z"/><path id="path41-87-9-4-8_1_" class="st0" d="M-.015 26.35v-2.293h2.19L6.755.034h2.588l5.077 24.023h1.692v2.293H10.14v-2.293h1.592l-.597-3.688H5.16l-.496 3.687h1.593v2.293H-.015zm2.067-.323L-.536 13.17l-2.39 12.857h4.978z"/><path id="path41-8-5-6-1_1_" class="st0" d="M150.41 200.292v2.292h2.19l4.58 24.023h2.588l5.077-24.023h1.693v-2.292h-5.874v2.292h1.593l-.597 3.69h-5.974l-.497-3.69h1.59v-2.292h-6.37zm2.643 17.38l-2.59 12.86-2.388-12.86h4.978z"/></g></svg>