<svg xmlns="http://www.w3.org/2000/svg" width="165.3" height="226.6" viewBox="0 0 165.3 226.6"><style type="text/css">.st0{fill:#D40000;}</style><g id="g6716_1_"><path id="path6516-8_1_" class="st0" d="M82.697 53.363c-4.08-6.878-8.462-13.457-13.937-19.14 5.475-5.68 9.756-12.26 13.937-19.137 4.082 6.878 8.463 13.457 13.938 19.138-5.475 5.583-9.856 12.26-13.938 19.14z"/><path id="path6518-2_1_" class="st0" d="M7.435 44.79C5.743 41.9 3.95 39.21 1.66 36.817c2.29-2.392 4.083-5.084 5.775-7.974 1.692 2.89 3.484 5.582 5.774 7.974-2.19 2.293-3.983 5.084-5.775 7.975z"/><path id="path6522-0_1_" class="st0" d="M157.86 197.8c-1.692-2.89-3.484-5.582-5.774-7.975 2.29-2.392 4.082-5.083 5.774-7.974 1.693 2.892 3.485 5.583 5.774 7.975-2.29 2.293-4.08 5.084-5.774 7.975z"/><path id="path6538-6_1_" class="st0" d="M82.697 211.556c-4.08-6.878-8.462-13.457-13.937-19.14 5.475-5.68 9.756-12.26 13.937-19.138 4.082 6.878 8.463 13.457 13.938 19.14-5.475 5.68-9.856 12.26-13.938 19.138z"/><path id="path15-34-1-4-2_1_" class="st0" d="M-.03 26.25l.098-1.595c.398-4.984 1.493-6.678 7.566-11.962 2.987-2.492 3.982-3.787 4.082-5.283.398-3.39-2.688-4.485-4.58-4.485-2.588 0-5.475 1.495-4.08 5.183l-2.888.897c-.598-3.39 0-6.58 2.688-7.974C6.54-.862 11.12-.065 13.408 2.826 15 4.72 15.3 7.41 14.503 9.505c-2.39 5.38-10.75 7.674-11.448 13.954h9.16v-3.49H14.9v6.38l-14.933-.1z"/><path id="path15-5-4-6-4_1_" class="st0" d="M165.327 200.292l-.1 1.595c-.398 4.984-1.493 6.678-7.566 11.96-2.985 2.493-3.98 3.79-4.08 5.284-.4 3.39 2.688 4.487 4.58 4.487 2.587 0 5.474-1.495 4.08-5.183l2.888-.897c.597 3.39 0 6.578-2.688 7.974-3.584 1.795-8.164 1.097-10.453-1.793-1.593-1.894-1.892-4.586-1.095-6.68 2.488-5.382 10.75-7.674 11.448-13.954h-9.258v3.49h-2.688v-6.38l14.933.1z"/></g></svg>