<svg xmlns="http://www.w3.org/2000/svg" width="167.4" height="226.6" viewBox="0 0 167.4 226.6"><style type="text/css">.st0{fill:#D40000;}</style><g id="g6725_1_"><path id="path6584-3_1_" class="st0" d="M83.677 53.363c-4.082-6.878-8.462-13.457-13.938-19.14 5.475-5.68 9.756-12.26 13.937-19.137 4.082 6.878 8.462 13.457 13.937 19.138-5.475 5.583-9.756 12.26-13.937 19.14z"/><path id="path6586-2_1_" class="st0" d="M8.514 44.79C6.822 41.9 5.03 39.21 2.74 36.817c2.29-2.392 4.082-5.084 5.774-7.974 1.692 2.89 3.484 5.582 5.774 7.974-2.19 2.293-4.082 5.084-5.774 7.975z"/><path id="path6590-7_1_" class="st0" d="M158.94 197.8c-1.693-2.89-3.485-5.582-5.775-7.975 2.29-2.392 4.082-5.083 5.774-7.974 1.692 2.892 3.484 5.583 5.773 7.975-2.29 2.293-4.08 5.084-5.774 7.975z"/><path id="path6600-5_1_" class="st0" d="M83.677 132.41c-4.082-6.878-8.462-13.457-13.938-19.14 5.475-5.68 9.756-12.26 13.937-19.138 4.082 6.878 8.462 13.457 13.937 19.14-5.475 5.68-9.756 12.36-13.937 19.138z"/><path id="path6606-3_1_" class="st0" d="M83.677 211.556c-4.082-6.878-8.462-13.457-13.938-19.14 5.475-5.68 9.756-12.26 13.937-19.138 4.082 6.878 8.462 13.457 13.937 19.14-5.475 5.68-9.756 12.26-13.937 19.138z"/><path id="path17-2-9-4-8_1_" class="st0" d="M-.048 20.568l1.992-1.495c1.792 2.89 3.683 4.785 6.77 4.386 4.48-.3 6.37-5.085 5.475-8.574-.897-3.19-4.68-4.784-7.567-3.09-.697.4-1.394.698-1.494.698-.3 0-.996-1.395-.897-1.794 1.99-2.89 6.87-7.975 6.87-7.975H3.535v3.39H.65V.035h14.634v2.092s-3.982 4.087-5.277 6.38c3.186.1 5.874 2.093 6.77 5.283.498 1.694.3 5.582-.398 7.277-1.196 2.79-4.48 5.083-7.468 5.183-4.977.4-7.566-3.09-8.96-5.682z"/><path id="path17-5-3-3-8_1_" class="st0" d="M167.4 206.073l-1.99 1.496c-1.792-2.892-3.683-4.786-6.77-4.387-4.48.3-6.37 5.083-5.475 8.572.896 3.19 4.68 4.785 7.566 3.09.698-.4 1.395-.698 1.495-.698.298 0 .995 1.396.896 1.795-1.99 2.89-6.87 7.974-6.87 7.974h7.568v-3.39h2.887v6.18H151.97v-2.092s3.983-4.087 5.277-6.38c-3.186-.1-5.774-2.193-6.77-5.382-.497-1.695-.298-5.583.4-7.277 1.193-2.79 4.478-5.084 7.366-5.183 5.176-.4 7.864 3.09 9.158 5.68z"/></g></svg>