<!-- Generator: Adobe Illustrator 19.2.1, SVG Export Plug-In  -->
<svg version="1.1"
	 xmlns="http://www.w3.org/2000/svg" xmlns:xlink="http://www.w3.org/1999/xlink" xmlns:a="http://ns.adobe.com/AdobeSVGViewerExtensions/3.0/"
	 x="0px" y="0px" width="167.4px" height="226.6px" viewBox="0 0 167.4 226.6" style="enable-background:new 0 0 167.4 226.6;"
	 xml:space="preserve">
<style type="text/css">
	.st0{fill:#D40000;}
</style>
<defs>
</defs>
<g id="g6725_1_" transform="matrix(0.99553491,0,0,0.99680337,8.9122851,-8.1397402)">
	<path id="path6584-3_1_" class="st0" d="M75.1,61.7c-4.1-6.9-8.5-13.5-14-19.2
		c5.5-5.7,9.8-12.3,14-19.2c4.1,6.9,8.5,13.5,14,19.2C83.6,48.1,79.3,54.8,75.1,61.7z"/>
	<path id="path6586-2_1_" class="st0" d="M-0.4,53.1c-1.7-2.9-3.5-5.6-5.8-8
		c2.3-2.4,4.1-5.1,5.8-8c1.7,2.9,3.5,5.6,5.8,8C3.2,47.4,1.3,50.2-0.4,53.1z"/>
	<path id="path6590-7_1_" class="st0" d="M150.7,206.6c-1.7-2.9-3.5-5.6-5.8-8
		c2.3-2.4,4.1-5.1,5.8-8c1.7,2.9,3.5,5.6,5.8,8C154.2,200.9,152.4,203.7,150.7,206.6z"/>
	<path id="path6600-5_1_" class="st0" d="M75.1,141c-4.1-6.9-8.5-13.5-14-19.2
		c5.5-5.7,9.8-12.3,14-19.2c4.1,6.9,8.5,13.5,14,19.2C83.6,127.5,79.3,134.2,75.1,141z"/>
	<path id="path6606-3_1_" class="st0" d="M75.1,220.4c-4.1-6.9-8.5-13.5-14-19.2
		c5.5-5.7,9.8-12.3,14-19.2c4.1,6.9,8.5,13.5,14,19.2C83.6,206.9,79.3,213.5,75.1,220.4z"/>
	<path id="path17-2-9-4-8_1_" class="st0" d="M-9,28.8l2-1.5c1.8,2.9,3.7,4.8,6.8,4.4
		c4.5-0.3,6.4-5.1,5.5-8.6c-0.9-3.2-4.7-4.8-7.6-3.1c-0.7,0.4-1.4,0.7-1.5,0.7c-0.3,0-1-1.4-0.9-1.8c2-2.9,6.9-8,6.9-8h-7.6v3.4
		h-2.9V8.2H6.4v2.1c0,0-4,4.1-5.3,6.4C4.3,16.8,7,18.8,7.9,22c0.5,1.7,0.3,5.6-0.4,7.3C6.3,32.1,3,34.4,0,34.5
		C-5,34.9-7.6,31.4-9,28.8L-9,28.8L-9,28.8z"/>
	<path id="path17-5-3-3-8_1_" class="st0" d="M159.2,214.9l-2,1.5c-1.8-2.9-3.7-4.8-6.8-4.4
		c-4.5,0.3-6.4,5.1-5.5,8.6c0.9,3.2,4.7,4.8,7.6,3.1c0.7-0.4,1.4-0.7,1.5-0.7c0.3,0,1,1.4,0.9,1.8c-2,2.9-6.9,8-6.9,8h7.6v-3.4h2.9
		v6.2h-14.8v-2.1c0,0,4-4.1,5.3-6.4c-3.2-0.1-5.8-2.2-6.8-5.4c-0.5-1.7-0.3-5.6,0.4-7.3c1.2-2.8,4.5-5.1,7.4-5.2
		C155.2,208.8,157.9,212.3,159.2,214.9L159.2,214.9L159.2,214.9z"/>
</g>
</svg>
