<svg xmlns="http://www.w3.org/2000/svg" width="166.8" height="226.6" viewBox="0 0 166.8 226.6"><style type="text/css">.st0{fill:#D40000;}</style><g id="g6735_1_"><path id="path6654-0_1_" class="st0" d="M8.2 44.79c-1.693-2.89-3.485-5.582-5.775-7.974 2.29-2.392 4.082-5.084 5.774-7.974 1.692 2.89 3.484 5.582 5.774 7.974C11.684 39.11 9.892 41.9 8.2 44.79z"/><path id="path6656-6_1_" class="st0" d="M124.577 53.363c-4.08-6.878-8.462-13.457-13.937-19.14 5.475-5.68 9.756-12.26 13.937-19.137 4.082 6.878 8.463 13.457 13.938 19.138-5.475 5.583-9.756 12.26-13.938 19.14z"/><path id="path6658-8_1_" class="st0" d="M158.525 197.8c-1.692-2.89-3.484-5.582-5.774-7.975 2.29-2.392 4.083-5.083 5.775-7.974 1.693 2.892 3.485 5.583 5.774 7.975-2.19 2.293-3.983 5.084-5.775 7.975z"/><path id="path6660-7_1_" class="st0" d="M42.147 53.363c-4.08-6.878-8.462-13.457-13.937-19.14 5.475-5.68 9.756-12.26 13.937-19.137 4.082 6.878 8.462 13.457 13.938 19.138-5.476 5.583-9.757 12.26-13.938 19.14z"/><path id="path6676-4_1_" class="st0" d="M42.147 211.556c-4.08-6.878-8.462-13.457-13.937-19.14 5.475-5.68 9.756-12.26 13.937-19.138 4.082 6.878 8.462 13.457 13.938 19.14-5.476 5.68-9.757 12.26-13.938 19.138z"/><path id="path6678-8_1_" class="st0" d="M124.577 211.556c-4.08-6.878-8.462-13.457-13.937-19.14 5.475-5.68 9.756-12.26 13.937-19.138 4.082 6.878 8.463 13.457 13.938 19.14-5.475 5.68-9.756 12.26-13.938 19.138z"/><path id="path19-3-1-9-0_1_" class="st0" d="M8.4 26.35v-2.293h2.09V20.27H.035v-2.692L11.386.034h1.89v17.444h3.186v2.69h-3.285l-.1 3.79h1.793v2.292l-6.47.1zm-7.01-11.686l-7.167 11.064H1.39V14.664z"/><path id="path19-4-46-7-7_1_" class="st0" d="M158.426 200.292v2.292h-2.09v3.788h10.452v2.692l-11.35 17.543h-1.89v-17.444h-3.186v-2.69h3.186l.1-3.79h-1.793v-2.29l6.57-.1zm-10.616 28.744l7.168-11.064h-7.168v11.064z"/></g></svg>