<svg xmlns="http://www.w3.org/2000/svg" width="166.9" height="226.6" viewBox="0 0 166.9 226.6"><style type="text/css">.st0{fill:#D40000;}</style><g id="g6746_1_"><path id="path6722-9_1_" class="st0" d="M8.283 44.79C6.59 41.9 4.798 39.21 2.51 36.817c2.288-2.392 4.08-5.084 5.773-7.974 1.692 2.89 3.484 5.582 5.774 7.974-2.29 2.293-4.082 5.084-5.774 7.975z"/><path id="path6724-6_1_" class="st0" d="M124.66 53.363c-4.08-6.878-8.46-13.457-13.937-19.14 5.476-5.68 9.757-12.26 13.938-19.137 4.083 6.878 8.463 13.457 13.938 19.138-5.475 5.583-9.756 12.26-13.937 19.14z"/><path id="path6726-3_1_" class="st0" d="M158.61 197.8c-1.694-2.89-3.486-5.582-5.776-7.975 2.29-2.392 4.082-5.083 5.775-7.974 1.69 2.892 3.483 5.583 5.773 7.975-2.19 2.293-3.982 5.084-5.774 7.975z"/><path id="path6728-7_1_" class="st0" d="M42.23 53.363c-4.08-6.878-8.46-13.457-13.937-19.14 5.476-5.68 9.756-12.26 13.938-19.137 4.082 6.878 8.463 13.457 13.938 19.138-5.475 5.583-9.756 12.26-13.937 19.14z"/><path id="path6736-0_1_" class="st0" d="M83.446 132.41c-4.082-6.878-8.462-13.457-13.938-19.14 5.476-5.68 9.756-12.26 13.938-19.138 4.08 6.878 8.462 13.457 13.937 19.14-5.475 5.68-9.756 12.36-13.937 19.138z"/><path id="path6744-9_1_" class="st0" d="M42.23 211.556c-4.08-6.878-8.46-13.457-13.937-19.14 5.476-5.68 9.756-12.26 13.938-19.138 4.082 6.878 8.463 13.457 13.938 19.14-5.475 5.68-9.756 12.26-13.937 19.138z"/><path id="path6746-2_1_" class="st0" d="M124.66 211.556c-4.08-6.878-8.46-13.457-13.937-19.14 5.476-5.68 9.757-12.26 13.938-19.138 4.083 6.878 8.463 13.457 13.938 19.14-5.475 5.68-9.756 12.26-13.937 19.138z"/><path id="path21-9-8-2-7_1_" class="st0" d="M.02 19.472h2.588c.498 1.595 1.593 3.19 3.086 3.688 4.182.997 6.87-1.396 7.766-4.087 1.095-3.29 0-7.974-2.887-9.67-2.39-1.395-5.874-.198-7.567 2.692L1.216 11 2.21.033h11.648v2.592H4.3L4.103 7.21c2.09-1.494 5.176-1.494 7.267-.398 3.882 1.894 5.674 6.18 4.977 11.264-1.095 5.084-3.385 7.875-8.562 8.274C2.01 26.35.02 22.263.02 19.472z"/><path id="path21-3-0-8-6_1_" class="st0" d="M166.97 207.07h-2.587c-.498-1.595-1.593-3.19-3.086-3.688-4.182-.997-6.87 1.395-7.766 4.087-1.094 3.288 0 7.973 2.888 9.668 2.39 1.395 5.874.2 7.566-2.692l1.792 1.097-.995 10.965h-11.746v-2.592h9.557l.2-4.585c-2.09 1.496-5.177 1.496-7.268.4-3.882-1.894-5.674-6.18-4.977-11.264 1.095-5.084 3.385-7.875 8.56-8.274 5.775 0 7.866 4.087 7.866 6.878z"/></g></svg>