<svg xmlns="http://www.w3.org/2000/svg" width="166.3" height="226.6" viewBox="0 0 166.3 226.6"><style type="text/css">.st0{fill:#D40000;}</style><g id="g6758_1_"><path id="path6790-5_1_" class="st0" d="M7.968 44.79c-1.692-2.89-3.484-5.582-5.774-7.974 2.29-2.392 4.082-5.084 5.774-7.974 1.693 2.89 3.485 5.582 5.774 7.974-2.29 2.293-4.08 5.084-5.774 7.975z"/><path id="path6792-5_1_" class="st0" d="M124.346 53.363c-4.08-6.878-8.462-13.457-13.937-19.14 5.474-5.68 9.755-12.26 13.936-19.137 4.082 6.878 8.462 13.457 13.938 19.138-5.476 5.583-9.757 12.26-13.938 19.14z"/><path id="path6794-1_1_" class="st0" d="M158.294 197.8c-1.692-2.89-3.484-5.582-5.774-7.975 2.29-2.392 4.082-5.083 5.774-7.974 1.692 2.892 3.484 5.583 5.774 7.975-2.19 2.293-3.982 5.084-5.774 7.975z"/><path id="path6796-2_1_" class="st0" d="M41.916 53.363c-4.082-6.878-8.462-13.457-13.938-19.14 5.476-5.68 9.757-12.26 13.938-19.137 4.082 6.878 8.462 13.457 13.937 19.138-5.475 5.583-9.756 12.26-13.937 19.14z"/><path id="path6806-6_1_" class="st0" d="M41.916 132.41c-4.082-6.878-8.462-13.457-13.938-19.14 5.476-5.68 9.757-12.26 13.938-19.138 4.082 6.878 8.462 13.457 13.937 19.14-5.475 5.68-9.756 12.26-13.937 19.138z"/><path id="path6808-6_1_" class="st0" d="M124.346 132.41c-4.08-6.878-8.462-13.457-13.937-19.14 5.474-5.68 9.755-12.26 13.936-19.138 4.082 6.878 8.462 13.457 13.938 19.14-5.476 5.68-9.757 12.36-13.938 19.138z"/><path id="path6812-0_1_" class="st0" d="M41.916 211.556c-4.082-6.878-8.462-13.457-13.938-19.14 5.476-5.68 9.757-12.26 13.938-19.138 4.082 6.878 8.462 13.457 13.937 19.14-5.475 5.68-9.756 12.26-13.937 19.138z"/><path id="path6814-4_1_" class="st0" d="M124.346 211.556c-4.08-6.878-8.462-13.457-13.937-19.14 5.474-5.68 9.755-12.26 13.936-19.138 4.082 6.878 8.462 13.457 13.938 19.14-5.476 5.68-9.757 12.26-13.938 19.138z"/><path id="path23-5-3-5-5_1_" class="st0" d="M.203 18.176c-.3-2.193-.3-7.975-.1-9.67C.9 3.324 2.89.932 6.176.135c3.186-.798 7.765.1 8.76 4.386l-2.687.1C10.854 1.827 7.17 2.525 5.18 3.82 3.49 4.82 2.79 9.105 3.09 9.304c0 0 3.086-2.292 5.575-2.193 5.276.6 7.467 5.085 7.267 9.47-.2 5.184-1.79 9.37-7.366 9.67C3.19 26.15.8 23.16.203 18.176zm3.638 6.928c0-3.588-1.592-6.28-4.678-6.58-3.086-.298-6.172 2.693-5.973 6.38.198 3.69 1.69 6.78 5.375 6.78 3.982 0 5.276-4.088 5.276-6.58z"/><path id="path23-6-5-6-6_1_" class="st0" d="M166.06 208.366c.298 2.193.298 7.974.1 9.67-.798 5.182-2.79 7.575-6.074 8.372-3.186.798-7.765-.1-8.76-4.386l2.687-.1c1.493 2.89 5.177 2.193 7.168.898 1.693-.997 2.39-5.283 2.092-5.483 0 0-3.086 2.293-5.575 2.193-5.277-.598-7.467-5.084-7.268-9.47.198-5.183 1.79-9.37 7.366-9.668 5.277.1 7.765 2.99 8.263 7.974zm-21.9 10.23c0 3.588 1.592 6.28 4.678 6.578 3.086.3 6.172-2.69 5.973-6.38-.198-3.687-1.69-6.777-5.375-6.777-3.982 0-5.276 3.987-5.276 6.58z"/></g></svg>