<svg xmlns="http://www.w3.org/2000/svg" width="165.7" height="226.6" viewBox="0 0 165.7 226.6"><g><path d="M83.084 15.348c-7.8.2-11.3 9-5.5 15.8.8 1 .9 1.6-.6.6-3.9-2.6-11.4-.9-11.8 7.1-.5 9.8 13.3 12.7 15.8 2.2.1-1.1 1-1.1.8.5-.2 4.2-1.6 8.2-3.4 12.1h9.3c-1.8-3.9-3.1-7.8-3.4-12.1-.2-1.6.7-1.6.8-.5 2.6 10.4 16.3 7.6 15.8-2.2-.4-8-7.9-9.7-11.8-7.1-1.5 1-1.5.4-.6-.6 5.9-6.8 2.4-15.6-5.4-15.8z"/><path d="M83.084 211.848c-7.8-.2-11.3-9-5.5-15.8.8-1 .9-1.6-.6-.6-3.9 2.6-11.4.9-11.8-7.1-.5-9.8 13.3-12.7 15.8-2.2.1 1.1 1 1.1.8-.5-.2-4.2-1.6-8.2-3.4-12.1h9.3c-1.8 3.9-3.1 7.8-3.4 12.1-.2 1.6.7 1.6.8.5 2.6-10.4 16.3-7.6 15.8 2.2-.4 8-7.9 9.7-11.8 7.1-1.5-1-1.5-.4-.6.6 5.9 6.9 2.4 15.7-5.4 15.8z"/><path d="M158.284 197.748c3.1-.1 4.5-3.7 2.2-6.6-.3-.4-.4-.7.2-.3 1.6 1.1 4.6.4 4.7-2.9.2-4.1-5.3-5.3-6.3-.9-.1.5-.4.4-.3-.2.1-1.8.6-3.4 1.4-5h-3.7c.7 1.6 1.3 3.3 1.4 5 .1.7-.3.7-.3.2-1-4.4-6.5-3.2-6.3.9.2 3.3 3.1 4 4.7 2.9.6-.4.6-.2.2.3-2.5 2.9-1.1 6.5 2.1 6.6z"/><path d="M7.884 28.848c-3.1.1-4.5 3.7-2.2 6.6.3.4.4.7-.2.3-1.6-1.1-4.6-.4-4.7 2.9-.2 4.1 5.3 5.3 6.3.9.1-.5.4-.4.3.2-.1 1.8-.6 3.4-1.4 5h3.7c-.7-1.6-1.3-3.3-1.4-5-.1-.7.3-.7.3-.2 1 4.4 6.5 3.2 6.3-.9-.2-3.3-3.1-4-4.7-2.9-.6.4-.6.2-.2-.3 2.4-2.9 1-6.6-2.1-6.6z"/><path d="M-.016 26.248l.1-1.6c.4-5 1.5-6.7 7.6-11.9 3-2.5 3.9-3.8 4.1-5.2.4-3.4-2.6-4.5-4.6-4.5-2.6 0-5.4 1.5-4.1 5.2l-2.9.9c-.5-3.6.1-6.7 2.8-8.1 3.5-1.9 8.1-1.2 10.5 1.7 1.6 1.9 1.9 4.6 1.1 6.7-2.5 5.4-10.8 7.8-11.5 14h9.2v-3.5h2.7v6.4l-15-.1z"/><path d="M165.684 200.348l-.1 1.6c-.4 5-1.5 6.7-7.6 11.9-3 2.5-3.9 3.8-4.1 5.2-.4 3.4 2.6 4.5 4.6 4.5 2.6 0 5.4-1.5 4.1-5.2l2.9-.9c.6 3.4 0 6.5-2.7 7.9-3.6 1.8-8.2 1.1-10.5-1.8-1.6-1.9-1.9-4.6-1.1-6.7 2.4-5.4 10.7-7.7 11.4-13.9h-9.2v3.5h-2.7v-6.4l15 .3z"/></g></svg>