<svg xmlns="http://www.w3.org/2000/svg" width="166.5" height="226.6" viewBox="0 0 166.5 226.6"><style type="text/css">.st0{fill:#D40000;}</style><g id="g6771_1_"><path id="path6858-4_1_" class="st0" d="M8.052 44.79C6.36 41.9 4.567 39.21 2.278 36.817c2.29-2.392 4.08-5.084 5.774-7.974 1.692 2.89 3.484 5.582 5.774 7.974-2.19 2.293-4.082 5.084-5.774 7.975z"/><path id="path6860-1_1_" class="st0" d="M124.43 53.363c-4.082-6.878-8.462-13.457-13.938-19.14 5.476-5.68 9.757-12.26 13.938-19.137 4.082 6.878 8.462 13.457 13.937 19.138-5.376 5.583-9.756 12.26-13.937 19.14z"/><path id="path6862-0_1_" class="st0" d="M158.477 197.8c-1.692-2.89-3.484-5.582-5.774-7.975 2.29-2.392 4.082-5.083 5.774-7.974 1.693 2.892 3.485 5.583 5.774 7.975-2.288 2.293-4.08 5.084-5.773 7.975z"/><path id="path6864-5_1_" class="st0" d="M42 53.363c-4.082-6.878-8.462-13.457-13.938-19.14 5.476-5.68 9.756-12.26 13.938-19.137 4.08 6.878 8.462 13.457 13.937 19.138-5.475 5.583-9.756 12.26-13.937 19.14z"/><path id="path6870-5_1_" class="st0" d="M83.215 92.836c-4.082-6.878-8.462-13.456-13.938-19.138 5.476-5.682 9.756-12.26 13.938-19.14 4.08 6.88 8.462 13.458 13.937 19.14-5.475 5.682-9.756 12.36-13.937 19.138z"/><path id="path6874-1_1_" class="st0" d="M42 132.41c-4.082-6.878-8.462-13.457-13.938-19.14 5.476-5.68 9.756-12.26 13.938-19.138 4.08 6.878 8.462 13.457 13.937 19.14-5.475 5.68-9.756 12.26-13.937 19.138z"/><path id="path6876-6_1_" class="st0" d="M124.43 132.41c-4.082-6.878-8.462-13.457-13.938-19.14 5.476-5.68 9.757-12.26 13.938-19.138 4.082 6.878 8.462 13.457 13.937 19.14-5.376 5.68-9.756 12.36-13.937 19.138z"/><path id="path6880-5_1_" class="st0" d="M42 211.556c-4.082-6.878-8.462-13.457-13.938-19.14 5.476-5.68 9.756-12.26 13.938-19.138 4.08 6.878 8.462 13.457 13.937 19.14-5.475 5.68-9.756 12.26-13.937 19.138z"/><path id="path6882-9_1_" class="st0" d="M124.43 211.556c-4.082-6.878-8.462-13.457-13.938-19.14 5.476-5.68 9.757-12.26 13.938-19.138 4.082 6.878 8.462 13.457 13.937 19.14-5.376 5.68-9.756 12.26-13.937 19.138z"/><path id="path25-43-4-8-8_1_" class="st0" d="M4.07 26.35c1.692-9.17 3.584-16.05 8.362-23.425H2.576v3.19H-.012V.035h14.336l1.792 2.79C10.94 8.407 6.26 26.55 7.156 26.25c0 .1-3.086.1-3.086.1z"/><path id="path25-7-0-7-6_1_" class="st0" d="M162.46 200.292c-1.693 9.17-3.585 16.048-8.363 23.425h9.856v-3.19h2.588v6.08h-14.335l-1.792-2.79c5.177-5.583 9.856-23.725 8.96-23.425h3.086z"/></g></svg>