<!-- Generator: Adobe Illustrator 19.2.1, SVG Export Plug-In  -->
<svg version="1.1"
	 xmlns="http://www.w3.org/2000/svg" xmlns:xlink="http://www.w3.org/1999/xlink" xmlns:a="http://ns.adobe.com/AdobeSVGViewerExtensions/3.0/"
	 x="0px" y="0px" width="166.5px" height="226.6px" viewBox="0 0 166.5 226.6" style="enable-background:new 0 0 166.5 226.6;"
	 xml:space="preserve">
<style type="text/css">
	.st0{fill:#D40000;}
</style>
<defs>
</defs>
<g id="g6771_1_" transform="matrix(0.99553491,0,0,0.99680337,9.6446796,-8.1397402)">
	<path id="path6858-4_1_" class="st0" d="M-1.6,53.1c-1.7-2.9-3.5-5.6-5.8-8
		c2.3-2.4,4.1-5.1,5.8-8c1.7,2.9,3.5,5.6,5.8,8C2,47.4,0.1,50.2-1.6,53.1z"/>
	<path id="path6860-1_1_" class="st0" d="M115.3,61.7c-4.1-6.9-8.5-13.5-14-19.2
		c5.5-5.7,9.8-12.3,14-19.2c4.1,6.9,8.5,13.5,14,19.2C123.9,48.1,119.5,54.8,115.3,61.7z"/>
	<path id="path6862-0_1_" class="st0" d="M149.5,206.6c-1.7-2.9-3.5-5.6-5.8-8
		c2.3-2.4,4.1-5.1,5.8-8c1.7,2.9,3.5,5.6,5.8,8C153,200.9,151.2,203.7,149.5,206.6z"/>
	<path id="path6864-5_1_" class="st0" d="M32.5,61.7c-4.1-6.9-8.5-13.5-14-19.2
		c5.5-5.7,9.8-12.3,14-19.2c4.1,6.9,8.5,13.5,14,19.2C41,48.1,36.7,54.8,32.5,61.7z"/>
	<path id="path6870-5_1_" class="st0" d="M73.9,101.3c-4.1-6.9-8.5-13.5-14-19.2
		c5.5-5.7,9.8-12.3,14-19.2c4.1,6.9,8.5,13.5,14,19.2C82.4,87.8,78.1,94.5,73.9,101.3z"/>
	<path id="path6874-1_1_" class="st0" d="M32.5,141c-4.1-6.9-8.5-13.5-14-19.2
		c5.5-5.7,9.8-12.3,14-19.2c4.1,6.9,8.5,13.5,14,19.2C41,127.5,36.7,134.1,32.5,141z"/>
	<path id="path6876-6_1_" class="st0" d="M115.3,141c-4.1-6.9-8.5-13.5-14-19.2
		c5.5-5.7,9.8-12.3,14-19.2c4.1,6.9,8.5,13.5,14,19.2C123.9,127.5,119.5,134.2,115.3,141z"/>
	<path id="path6880-5_1_" class="st0" d="M32.5,220.4c-4.1-6.9-8.5-13.5-14-19.2
		c5.5-5.7,9.8-12.3,14-19.2c4.1,6.9,8.5,13.5,14,19.2C41,206.9,36.7,213.5,32.5,220.4z"/>
	<path id="path6882-9_1_" class="st0" d="M115.3,220.4c-4.1-6.9-8.5-13.5-14-19.2
		c5.5-5.7,9.8-12.3,14-19.2c4.1,6.9,8.5,13.5,14,19.2C123.9,206.9,119.5,213.5,115.3,220.4z"/>
	<path id="path25-43-4-8-8_1_" class="st0" d="M-5.6,34.6c1.7-9.2,3.6-16.1,8.4-23.5h-9.9v3.2
		h-2.6V8.2H4.7L6.5,11c-5.2,5.6-9.9,23.8-9,23.5C-2.5,34.6-5.6,34.6-5.6,34.6z"/>
	<path id="path25-7-0-7-6_1_" class="st0" d="M153.5,209.1c-1.7,9.2-3.6,16.1-8.4,23.5h9.9v-3.2
		h2.6v6.1h-14.4l-1.8-2.8c5.2-5.6,9.9-23.8,9-23.5H153.5z"/>
</g>
</svg>
