<svg xmlns="http://www.w3.org/2000/svg" width="165.8" height="226.6" viewBox="0 0 165.8 226.6"><style type="text/css">.st0{fill:#D40000;} .st1{fill:#131F67;} .st2{fill:#E2CF00;}</style><g id="g7094_1_"><path id="path7130-4_1_" class="st0" d="M8.087 44.79c-1.692-2.89-3.484-5.582-5.774-7.974 2.29-2.392 4.082-5.084 5.774-7.974 1.693 2.89 3.484 5.582 5.774 7.974-2.29 2.293-4.08 5.084-5.773 7.974z"/><path id="path7134-0_1_" class="st0" d="M157.716 197.8c-1.692-2.89-3.484-5.582-5.774-7.975 2.29-2.392 4.082-5.083 5.774-7.974 1.692 2.892 3.484 5.583 5.774 7.975-2.19 2.293-4.082 5.084-5.774 7.975z"/><path id="path7136-1_1_" class="st0" d="M41.836 53.363c-4.082-6.878-8.462-13.457-13.938-19.14 5.476-5.68 9.756-12.26 13.938-19.137 4.08 6.878 8.462 13.457 13.937 19.138-5.475 5.582-9.756 12.26-13.937 19.14z"/><path id="path7154-5_1_" class="st0" d="M123.967 211.556c-4.08-6.878-8.462-13.457-13.937-19.14 5.475-5.68 9.756-12.26 13.937-19.138 4.082 6.878 8.462 13.457 13.938 19.14-5.476 5.68-9.856 12.26-13.938 19.138z"/><path id="path6263-5_1_" class="st1" d="M17.843 218.234V8.407H147.86v209.827H17.843zM44.047 61.027c-4.68-1.295-4.58 3.39-1.095 3.49 3.783.3 5.475-6.18 3.584-8.772 0 0-1.594 4.884-2.49 5.283zM24.546 77.156l-5.575 2.492v4.187c2.39-1.894 4.182-4.087 5.576-6.68zm37.993 125.582c-1.096-.6-2.39-1.795-2.19-1.994.098-.1.696.1 1.193.3 4.38 1.793 7.766 1.694 12.942-.2.4-.1.996.598.797.996-2.29 3.59-9.756 2.293-12.743.898zm-2.12-4.682c-.995-1.495.3-.398.797.1 3.185 2.99 7.566 3.987 11.35 1.196.198-.2.198-.4.098-.498-.1-.3-.1 0-1.692.598-3.584 1.395-6.67.2-9.557-1.994-1.195-.897-1.792-1.395-1.792-1.694 0-.2.2-.4.597-.3.3 0 .997.2 1.494.2.896.1.797 0 1.792-.4 1.99-.896 3.783-1.295 5.874-.896.498.1 1.095.2 1.195.2.497-.2-.2-.798-1.99-2.193-.3-.3-.798-.5-.897-.698-.2-.4 0-.5.298-.5.697 0 3.982 2.693 5.078 4.288.298.498.597.498.597 1.096-.1.5-.1.998.4 1.795.397.5.796 1.396.796 1.396s-.1.3-.498.1c-.2 0-.3-.2-.598-.2s-.696.3-1.194.5c-4.58 2.89-8.76 1.495-12.146-2.094zm9.945-.215c.1 0-.298-1.694-.796-2.192-.897-.997-2.29-1.196-3.087-.2-.498.598-.996 2.094-.996 2.094s.697.2.896.2c0-.4 0-1.297.797-1.895.398-.3 1.095-.3 1.393 0 .598.3.797 1.495.896 1.894.298.2 1.094.1.895.1zm-5.43-2.492c-.598.3-1.494.498-1.693.897-.3.598.597.698 1.095.897.598.3.697.2.896-.3.1-.298.3-.697.498-1.095.4-.798-.1-.698-.795-.4zm6.844 1.587c.397-.4.397-.598.1-.997-.1-.2-.6-.4-.997-.498-.597-.2-.896-.4-.498.398l.498 1.197c.3.398.598.3.896-.1zm-60.4-39.07c.2 0 2.49-.697 3.286-1.096.797-.3.896-.3.598-.7-.1-.198-.2-.597-.2-1.095l.1-.698c-1.394-.3-3.385.498-4.082 1.395-.597.598-.497 1.894.3 2.193zm-.47 3.264c.4.398.5.398 1.793 0 .398-.3 1.394-.7 1.99-.7 1.494-.397 1.494-.198 1.096-1.195-.2-.4-.3-.797-.2-1.196.1-.5.1-.6-.1-.6-.697-.198-4.08.998-4.68 1.995-.496.598-.496 1.196.1 1.694zm78.05 33.204c.1.797.1 1.993.1 2.59 0 1.297.497 1.596.995.898.498-1.595.697-4.186 1.99-5.582.897-.3 2.092.2 2.79-.398 1.492-1.496.297-3.19-1.096-3.29-2.89-.1-4.98 3.39-4.78 5.782zm7.418-3.98c.1 1.594-1.493 2.69-3.086 2.292-.697-.2-.896 0-1.294.897-.996 2.592-1.294 5.084-1.593 6.778-.1 1.496-.697 5.484-.3 6.68 4.58 5.682 9.46 11.563 14.735 17.444h31.56v-36.982l-9.06-8.672v-13.756c-9.757 4.586-19.513 9.27-29.37 13.956 2.092 6.877-5.076 8.273-6.67 3.688-1.393 1.296-2.488 8.074-1.99 8.373 0 0 .2.2.498-.298.498-.897 1.194-1.495 1.89-1.994 2.092-1.196 4.48-.598 4.68 1.595zm-25.055-.712c-1.593-1.196-.697-3.09.597-3.688.697-.3 1.792-.3 2.986.2 1.096.498 1.693.398 2.788.298.697-.1.597 1.396-.2 1.795-.497.3-1.692.1-3.185-.698-2.59-1.496-3.684.398-2.09 2.092.795.997-.698.2-.897 0zm-52.478-22.43c1.394-.897.796-2.392-.498-2.69-1.692 0-2.09 1.992-.896 2.69 0 .2-.596 0-.895-.2-.498-.398 0-1.893-.498-1.893-.398 0-3.882 1.294-4.28 1.494-1.593.897-.1 2.89.796 2.69 1.892-.597 4.48-.996 6.272-2.092zm-8.1-3.062c0 .897.3 1.295.896 1.295 1.196-.2 2.39-.797 3.585-1.196.896-.3 1.294-.6.598-1.197-.2-.2-.4-.598-.3-1.196.2-.698.1-.798-.298-.798-.298 0-.995.3-2.887.996-.995.4-1.195.5-1.394 1.097-.2.4-.2.598-.2.997zm10.22 11.752c.198-.3.696-1.794.696-2.193-.1-.698-.596-.798-.995-.4-.497.5-.398 1.197-.697 1.695-.1.2-.2.4-.2.598.2.5.897.598 1.196.3zm4.127-8.634c15.83-16.846 25.585-40.17 8.462-72.268-1.095-.997-2.49 2.292-2.688 2.392l-2.19 1.894c11.548 20.036 9.557 42.962-4.58 59.41v.996c0 2.293.697 2.193 1.693 1.097.994-1.098.297-.2-.1.198-.4.4-.897 1.096-1.096 1.296.1 1.595.995 4.087.498 4.984zm-1.077-5.012c-.2-.498-.3-1.495-.398-2.293-.1-.498-.1-.996-.1-1.495-.2-.997-.597-3.29-.896-3.887-.397-.597-1.193-.996-2.19-.996-.795-.1-.895 0-1.094.2-.3.498-.1 2.89.2 3.687.397.998.1 1.596-.1 2.593-.1.4-.1.4 0 .4.796-.1 1.095-.998 1.393-.7.1.1-.2.898-.5 1.696-.397.796-.496 1.992 0 3.487.3.798.1 1.097 0 1.496-.098.3-.297 1.295-.297 2.292.398 1.196.2 1.794 0 2.193-.498 1.097-.797 2.492-.598 3.29.1.398.4.1.598-.598.298-1.197.697-1.496 1.692-1.496.697 0 .797.2.996-.1.498-.697 1.793-3.29 1.892-3.987.3-1.694.3-3.19-.597-5.78zm7.56 11.846c.4-.2 1.096-1.097 1.096-1.396 0-.3-2.687-2.89-3.782-3.588-.498-.3-.697-.1-1.593 1.096-.796 1.097-.896 1.097-.697 1.296.2.2 2.887 1.994 3.783 2.492.2.1.798.3 1.196.1zm5.013-4.547c-.4-.3-3.584-3.788-4.48-3.988-.398-.1-1.494 1.197-1.494 1.496 0 .2 1.992 2.193 3.385 3.49.397.397.796.597.995.597.398-.2 1.493-1.097 1.593-1.595zm3.407-3.304c0-.2-.398-.598-1.195-1.495-2.19-2.093-3.385-3.09-3.783-3.09-.398.1-1.194 1.396-1.194 1.894.1.298 3.783 3.588 4.28 3.887.498.498 1.792-.798 1.892-1.196zm3.4-3.4c.1-.298-.1-.597-.598-.996-.298-.3-1.493-1.495-2.588-2.492-2.29-2.293-2.29-2.293-2.987-1.196-.797 1.096-.797 1.096 1.493 3.29 2.39 2.292 2.887 2.79 3.285 2.79.598-.398 1.196-.797 1.395-1.395zm-25.47-2.103c-.4-.1-.797 0-1.096.2-1.693 1.395.696 3.29 1.692 2.092.697-.6.597-1.994-.598-2.293zm28.855-1.502c0-.2-.498-.798-2.19-2.393-4.18-3.987-3.982-3.887-4.48-3.588-.3.2-.896 1.196-.896 1.595 0 .298.398.697 3.484 3.587 1.792 1.695 2.39 2.094 2.688 2.094.598-.1 1.394-.697 1.394-1.295zm-28.74.194c.796-.4.995-1.296.497-1.994-.896-.798-2.19-.1-2.19.897.2.997.996 1.395 1.692 1.096zm32.225-3.588c0-.5-7.168-7.177-7.666-7.177-.3 0-.598.3-.897.996-.298.7-.298 1.098.1 1.397.498.498 1.89 1.794 3.186 2.99.795.698 1.69 1.595 1.99 1.894.696.8 1.592 1.397 1.89 1.397.4-.3.997-.598 1.395-1.495zm-32.608-.81c0-.298-.1-.498-.3-.797-.497-.498-1.393-.3-1.592.4-.2 1.693 1.892 1.793 1.892.398zm5.23-52.434l1.393-4.286 4.28-.1.598-4.286 4.38-.598.1-4.386 4.28-.598-.298-4.785 3.882-.898-.2-4.386 3.585-1.096-.1-3.788.598-.5-1.493-1.593-1.295.397v3.888l-3.683 1.096.398 4.387-3.584.798v4.685l-4.18.498-.3 4.187-4.08.797-.6 4.087-3.88.298-1.196 3.588h-2.588v2.393l3.982.198zm46.714 76.885c-.1-.3.2-.3.797.1.597.398 1.593.697 2.29.697.298 0 1.294-.2 2.19-.398 1.095-.4 2.09-.4 3.285-.2.896.1 1.693.2 1.892.2.597.1 1.593-.598 1.792-1.097.697-1.196.497.997.497 1.196 0 1.098.2 2.394-.696 1.796-.498-.2-1.295-.5-1.992 0-.696.498-1.194.498-1.99.1-.598-.3-.996-.3-1.494.1-.497.497-1.89.298-2.587.1-1.195-.2-1.892-.4-2.688.298-.398.2-.498.1-.896-.897 0-.798-.3-1.894-.4-1.994zm3.296-.55c-.1-.1.597-.798.996-.997 1.294-.698 3.783-.598 5.674 0 .996.398 1.095.997.2.797-1.892-.4-4.28-.698-6.173.1-.2.2-.597.2-.697.1zm1.706-2.993c-1.294-.5-1.99-.997-1.99-1.197 0-.2.298-.1 1.294.1 1.393.5 3.086.798 4.48.3.995-.4 1.493-.6 1.493-.4 0 .2-.4.798-1.096 1.197-1.394.598-3.186.398-4.182 0zm28.38-3.698l.996-.1-.298-4.087 3.584-1.096-.3-4.088 3.784-1.296-.2-4.585 3.983-.797.5-3.987 3.782-.3.796-4.285 3.982-.1.797-3.587h2.688v-1.994h-4.182l-.896 3.887-3.982.1-.796 4.285h-4.083l-.498 4.586-3.883.598v4.984l-3.783.997.298 4.286-3.783 1.395.398 4.087 1.095 1.097zm25.215-95.406c-.497.4-.696 1.096-.597 1.794.498 1.396 2.39.997 2.59-.1.098-.398-.2-1.096-.698-1.295-.1 0-.4 0-.598-.2-.1-.1.598-.498 1.095-.398.497.2.995.897.995 1.495 0 .2-.1.598 0 .698.896 0 1.89-.5 2.887-.798 1.593-.498 2.19-1.395 1.892-2.492-.3-.897-1.195-1.296-2.49-.797-1.692.797-3.683 1.096-5.077 2.093zm-69.375 99.574c5.475-3.888 8.76-6.08 15.83-6.48-2.49-.996-2.888-2.392-3.685-3.688-8.76.798-13.44 3.59-17.52 6.28 1.69.698 3.483 1.695 5.375 3.888zm30.45-5.063c-2.688-1.894-5.874-2.99-9.16-3.887l-2.488 2.59c-.2-.098 7.268 0 11.648 1.297zm25.723-24.937c-17.223-26.515-5.674-49.84 6.372-64.693.398-.498.497-.498.398-.897-.1-.498-.3-3.09-.2-4.585-22.1 22.03-22.697 50.638-8.86 73.365.996-.897 2.987-2.094 2.29-3.19zm2.703-2.373c-2.787-4.685-17.92-30.302 5.078-58.81 0 0-.1-1.496-.3-1.995-.298-.996-.795-1.395-.795-1.395-9.656 14.553-23.693 32.695-6.172 64.294l2.19-2.093zm-13.13-48.053c.3-.3.797-1.296.797-1.694 0-.4-.298-.698-2.887-3.29-3.484-3.49-4.08-4.087-4.48-4.087-.398 0-1.493.997-1.493 1.396 0 .198.996 1.295 3.385 3.687 4.48 4.485 4.28 4.286 4.68 3.987zm3.128-6.633c0-.2-.3-.597-1.095-1.395-1.99-2.093-4.877-4.685-5.077-4.685-.298 0-1.194.698-1.393 1.196-.2.3-.2.4 0 .698.398.598 4.778 4.785 6.072 5.88.797.6 1.394-1.195 1.494-1.693zm1.706-2.612c.4-.2.996-1.395.896-1.794 0-.2-1.194-1.395-2.488-2.69-2.688-2.693-2.788-2.792-3.485-2.194-.597.498-.995 1.096-.896 1.296.1.3 4.08 4.286 4.877 4.984.697.498.797.498 1.095.398zm20.317-.207c1.293-1.196-.2-2.49-1.196-1.893-.398.3-.697.897-.597 1.296.3.598 1.195.897 1.792.598zm2.58-.4c2.09-.597 3.085-.896 3.583-1.594.298-.498.298-.697 0-1.495-.3-.697-.697-.896-1.99-.198-.897.498-2.988.698-3.685 1.196-.298.2-.1.2.1.4.498.298.796.497.697.996-.1.996 0 1.096 1.294.697zm-2.18-3.29c.995-.498.796-1.794-.3-2.292-1.492-.4-2.488 1.395-1.293 2.293.3.3 1.195.2 1.593 0zm3.375-.508c1.493-.5 2.09-.898 2.49-1.695.297-.698.198-.897.198-1.595-.1-.997-.598-.797-1.892-.3-.696.3-3.88 1.197-3.98 1.496 1.592.897 1.194 1.396 1.194 2.492 0 .2.697 0 1.99-.398zm-20.294-1.497c0-.4-4.18-4.486-4.578-4.486-.697 0-1.693 1.096-1.494 1.694.1.3 3.982 4.186 4.48 4.485.598.298 1.593-1.097 1.593-1.695zm2.3-2.597c.198-.1.497-.498.696-.797.398-.697.398-.996-.1-1.395-.2-.1-1.094-.897-1.89-1.794-.897-.796-1.693-1.594-1.793-1.594-.697-.1-1.99 1.097-1.89 1.595.098.3 3.284 3.49 3.98 3.89.4.397.598.397.996.098zm5.685-6.09c0-.098-.697-.597-1.892-1.195-3.584-1.894-3.584-1.894-4.68-.996-.397.3-.696.697-.696.797 0 .1.797.997 1.792 1.894 1.99 1.894 2.488 2.293 2.787 2.293.497-.498 2.588-2.192 2.688-2.79zm5.003-1.812c.398-.5.896-2.293.697-2.692-.2-.2-.797-.2-.996.1-.3.2-.997 2.492-.797 2.79 0 .2.696.1 1.095-.198zm-38.704 77.346c.298 0 .995-.498 1.99-1.296.996-.897 4.282-2.79 4.58-3.588.2-.4 0-1.097-.298-1.097-.3 0-.3.2-2.49 1.696-1.493.996-3.98 2.89-4.38 3.29-.1.398.3.896.598.996zm-.473 12.708c2.192-1.495 3.983-3.09 6.87-4.884.2-.3.3-.698.1-1.097-.2-.4-.398-.3-1.294.298-2.09 1.396-4.28 3.09-6.172 4.386-.598.4-1.096.598-.996.798.3.3 1.195.398 1.493.498zm2.19.937c1.493-1.196 3.186-2.293 4.78-3.49.198-.198.297-.995.098-1.295-.2-.2 0-.2-.497.1-.597.4-4.38 2.89-5.077 3.49-.398.298-.796.497-.597.597.398.398.896.597 1.294.597zm1.802 1c.3-.2 2.887-1.894 3.086-2.093.2-.3.2-1.396-.1-1.496-.696.5-4.08 2.592-4.08 2.99.397.3.895.6 1.094.6zm2.795.202c.4-.4.498-.4.498-.798 0-.698-.2-.698-1.194 0-.696.498-1.194.797-1.094 1.096.497.798 1.294.2 1.79-.3zm.312 1.495c.198-.1.198-.2.198-.4 0-.298-.1-.298-.398-.298-.896 0-.1.798.2.698zm-10.055-4.082c.398-1.296.896-2.293 1.792-3.19 3.484-3.09 2.39-6.878.2-9.968 2.886-3.987 5.674-8.173 8.063-12.06v-6.28h.3c-.1 13.755.496 36.183.496 36.183l2.788 2.193-.398.2c.597-.1-8.064-5.582-13.24-7.077zm2.444-1.608c2.388-1.794 4.777-3.29 7.167-5.183.298-.2.398-.2.398-.698 0-.897-.2-.897-1.095-.3-.398.3-1.792 1.297-3.186 2.194-1.394.997-2.787 1.794-2.987 2.093-1.294 1.596-1.79 2.294-1.692 2.493.1.3.398.1 1.394-.598zm2.698-4.39c1.195-.798 4.18-2.892 4.48-3.09.498-.4.597-1.098.1-1.197-.2 0-2.49 1.495-4.38 2.99-.897.698-1.196.897-1.196 1.595 0 .2.2.2.996-.3zm1.207-3.205c3.783-2.69 3.683-2.492 3.584-3.49 0-.298-.1-.497-.3-.497-.1 0-.797.498-1.493.997s-1.693 1.196-2.09 1.595c-1.295.897-1.793 1.196-1.793 1.694s.1.797.398.797c.1-.1.896-.5 1.693-1.097zm-.493-2.103c1.792-1.196 3.684-2.592 3.883-2.99.298-.4.298-1.297-.1-1.297-1.792 1.197-3.882 2.692-5.376 3.888-.2.2-.4.3-.498.598 0 .3.298.698.497.698.298 0 .696-.3 1.592-.897zm-1.197-4.194c1.295-.897 2.59-1.993 3.883-2.89.995-.698 1.294-.897 1.195-1.795 0-.498-.498-.2-2.19.898-1.195.797-1.793 1.196-2.19 1.694-.3.698-1.295 1.396-1.395 2.193 0 .3.2.2.697-.1zm4.077-5.495c.995-.698 1.095-.698.995-1.595-.1-1.097-.298-1.097-1.194.398-.598.998-.896 1.297-.797 1.497.2.3.398.1.996-.3zm-3.665-8.29c-.1-.5-.3-.4-.797.098-.995.798-1.095 1.396-.498 1.794.3.2.598.1.697-.3.497-.896.597-1.294.597-1.593zm-5.293 7.847c-.1-.5-.697-1.097-1.095-1.296-.4-.2-.698-.2-1.097.298-.398.498-.2.797.4 1.495.397.5.596.698.895.698.298-.198.896-.697.896-1.195zm-20.632 19.762c-.298-.5-.796-1.097-1.095-.997-.298.1-.597.498-.597.797.1.5.597.897.896.897.697-.1 1.095-.2.796-.697zm2.397-.734c-.5-.6-1.594-1.795-1.793-1.795-.3 0-.896.698-.896.997 0 .3.996 1.695 1.295 1.794.896-.1 2.39 0 1.394-.997zm3.196.196c-.1-.3-3.086-3.49-3.286-3.49-.298 0-.896.6-.896.898 0 .2.996 1.495 1.892 2.492.498.498.498.498 1.095.498.5-.1 1.295 0 1.196-.4zm5.39-.698c0-.698-.3-.997-1.693-2.492-.497-.498-1.294-1.495-1.89-2.093-.997-1.196-1.494-1.495-1.893-1.495-.298 0-.796.498-.796.897 0 .198 2.49 3.09 4.78 5.58.496.5.695.7 1.193.4.3-.2.3-.598.3-.798zm-3.958-7.777c-.498.4-.697.598-.697.897 0 .4 4.38 5.283 4.78 5.283.2 0 .2 0 .298-.598.3-1.595-.2-1.994-1.294-3.09-.796-.698-2.29-3.09-3.086-2.492zm7.648-3.314c-1.195-1.495-1.892-2.093-2.19-2.093-.2 0-.4.2-.697.5-.5.397-.4.397-.1.896.198.3.596.797.895 1.196.697.697.996.896 1.294.597.397-.3 1.094-.698.796-1.096zm-.563-3.598c-.3 0-.797.498-.797.797 0 .198.996 1.494 1.693 2.092.596.5.795.598 1.193.3.3-.4.2-.798 0-1.097-.497-.598-1.593-2.093-2.09-2.093zm3.382.287c0-.4-1.294-2.094-1.693-2.194-.298 0-.995.798-.995 1.097 0 .2.3.598.697 1.096.896.996 1.095 1.295 1.294 1.096.398-.2.697-.6.697-1.097zm1.41-1.794c.098-.4-.1-.698-.6-1.396-.596-.797-.895-.797-1.492-.2-.2.2-.3.4-.3.5 0 .298 1.296 1.993 1.594 1.993.498 0 .598-.5.797-.897zm-2.285 4.08c-.1.5-.298.898-.896 1.097-3.982 2.89-3.882 7.576-4.68 11.862-6.47-.1-16.724 2.592-16.624 2.692l34.346-34.69s.398.1.2.4c-2.79 1.993-2.59 5.88-4.48 7.874-2.988 3.79-5.875 7.08-7.866 10.767zm-18.627 14.268c.1-.398-.298-.498-.597-.2-.298.3-.2.6.3.5.198 0 .297-.1.297-.3zm10.47-1.45c.1-.298-.2-.597-1.99-2.69-1.893-2.094-2.29-2.592-2.59-2.592-.298 0-.896.697-.896.997 0 .098.3.497.697.896.398.398.996 1.096 1.493 1.694.797.897 1.195 1.396 1.494 1.595.3.2.498.2.996.2.598 0 .797.1.797-.1zm3.233-6.483c.1-.398.298-.797.298-.896 0-.3-2.39-2.692-2.787-2.99-.498-.3-1.394.697-1.195 1.295.1.198.797.996 1.593 1.793.996 1.097 1.493 1.595 1.692 1.595.2 0 .3-.3.4-.797zm1.01-2.612c.2-.3.298-.598.298-.697 0-.2-.398-.697-.995-1.295-1.096-1.196-1.296-1.296-1.893-.798-.597.598-.398.798.597 1.994 1.394 1.396 1.494 1.596 1.992.798zm8.964-11.272c.398-.498.398-.698 0-1.096-.2-.2-.398-.4-.498-.598-.3-.4-.796-.3-1.195.2-.2.198-.398.497-.398.597 0 .1.198.398.497.697.796.698 1.195.797 1.593.2zm1.434-1.83c.298-.4.1-.897-.398-1.296-.498-.4-.697-.498-.996-.1-.398.5-.398.698.1 1.196.597.598.995.698 1.294.2zm1.1-1.402c.4-.398.4-.697 0-1.096-.298-.4-.596-.498-.994-.3-.598.3-.498.798.1 1.396.397.3.596.3.895 0zm-26.177 73.96c7.07.796 14.635 1.295 27.875-.7l.1-4.485c-4.18 3.29-9.657.996-9.955-2.692 0-3.29.896-7.177 1.592-9.868.597-1.994.696-2.79.2-3.19-1.196-.698-3.187-.698-3.685-2.093-.3-.698-.3-1.496.1-.897.2.3 1.493.897 2.488 1.096 1.792.4 2.09.498 2.29 1.296.1.498-.2 2.093-.597 3.588-.3.997-.697 2.692-.697 3.09 0 .4.298.4.596.3.1 0 .797-.698 1.195-.997 1.693-1.595 2.19-1.496.797 0-.597.598-1.393 1.395-1.393 1.495 0 .3.298.3.995 0 .995-.4 3.384-.3 4.48.2 1.293.697 1.393.597 1.393-1.396-.2-3.788-.896-8.274-2.09-11.763-1.892-5.383-5.775-10.268-11.55-10.068-7.067.398-11.25 3.19-16.027 6.58 2.887 6.378-1.294 11.362-2.788 11.96-.1.1 1.892 6.48 2.788 9.77.498 2.79 1.89 8.77 1.89 8.77zM90.65 54.332c-.2-.398-4.083-13.157-5.178-18.54-10.553-.598-18.418-1.495-27.677 1.196 0 0-.2 3.59-.1 3.788.1.4.4.4.698.3 4.282-2.393 8.96-1.297 9.26 4.485.1 2.193-.598 3.787-.797 5.88-.1 1.895-1.593 4.287-.697 5.682.1.2.697.5 1.593.898 1.592.697 2.19 1.295 2.288 2.292.2.698-.298 1.196-.398.5-.1-.5-.2-.898-2.09-1.497-1.892-.697-2.39-1.395-2.59-1.794-.297-.598-.198-.897 0-1.794.5-1.894.997-3.788.997-4.685 0-.3-.398-.2-.797.2-.597.498-3.086 2.093-3.086 2.093s.398-.698 1.095-1.396c.796-.797 1.89-1.794 1.89-1.993 0-.3-.1-.1-.895.1-1.394.4-3.086.3-4.18-.2-.897-.398-1.594-.697-1.694-.398-.397 5.782.4 11.663 2.79 16.248 2.09 4.187 6.57 9.37 13.24 8.174 6.868-1.196 13.54-6.778 13.34-6.778-2.59-5.782.398-10.168 2.986-12.76zM36.478 208.306c-3.086-3.09-10.752-6.38-16.028-7.874-.4-.1-.797-.3-.797.2l-.1 10.465-9.557 8.872v4.186h20.31l13.34-19.536s.597-.1.696-.2c-2.49-10.366-6.073-18.64-8.463-22.826 0 .1-3.384 2.79-6.37-.598-1.693-1.894-.698-5.184.895-6.38-1.294-.996-4.082-2.79-5.973-3.29-.4-.1-.897.7-1.096 1.396-.3 1.097-.896 2.094-1.295 3.29-.4.997-.797 1.096-1.394.797-.996-.3-1.195-.398-1.195-.398v12.36c7.368 2.492 14.835 8.97 17.025 19.537zM66.12 77.82l2.19-2.39c-3.385-.4-6.97-.998-11.15-2.393 2.886 2.192 5.873 3.587 8.96 4.783zm-11.712-7.1c3.783 1.295 8.66 4.286 14.634 3.09-5.475-2.193-9.656-7.277-11.448-17.644-.4 1.994-1.196 6.18-2.49 6.68-1.792-6.88-8.96-2.892-6.073 2.69C42.01 70.022 33.35 72.813 25.484 76.7c0 0-1.195 3.69-7.068 8.673-1.095-5.88.2-14.554-.498-20.435l-9.26-8.772c.1 1.695.1 2.692 0 4.685.3.3.6.5.997.7.597 33.79-.2 67.184-.2 97.885-.1 18.84.4 38.377.1 56.12l-.298.698v4.286l9.457-9.072s-.398-6.38.1-11.263c5.973 1.196 11.548 3.987 16.526 7.077.597.2-3.086-12.26-16.526-17.843v-12.36c0-8.175-.1-9.072-.3-9.172-.497.598-7.366 2.89-7.764 2.492.2.1-1.89-14.453-.1-16.646l6.57.1c1.893 1.494 1.096-.3 2.19-.6.698-.198 3.685.998 3.685.998 12.543-14.852 11.25-39.174 2.29-52.93-2.29 1.894-4.78 4.386-7.07 5.482v-7.576c11.948-7.675 24.99-30.003 24.193-30.103 0 0 3.683 3.588 5.176 5.682L35.738 92.05c2.688 5.484 5.475 10.368 7.267 15.253.2.697.996.598 1.195 1.295.2.598-.597 1.396-.498 1.994 2.49 9.57 3.086 19.737.598 28.907-.498 2.093.398 3.787 1.692 5.282.1.1-1.195-1.096-1.294-1.196-.398-.3-1.195.698-1.294 1.794.1.698.497.898.995 1.396.895.797 4.58 4.286 6.17 5.98 1.395 1.496 1.793 1.496 2.79.5.298-.3.596-.6.795-.798 0 .1.4-.3.498-.4l21.305-20.832c2.488-2.393-21.305 21.93-21.305 21.93s-11.548 11.363-14.435 14.154c-2.887 2.89-3.285 3.49-3.385 3.688-.2.4.896.4 1.493.3 0 0-.398.1-.896.1-2.986-.4-3.982 2.69-5.873 3.288-4.978 3.59-1.593 9.27 3.185 7.377l1.195-.598c2.887 5.382 7.068 15.25 9.06 23.823l-.797.4-12.643 18.938h71.58c-5.178-5.083-9.558-11.463-13.94-16.148-7.167 2.093-28.77 1.695-28.372.797 0 0-3.285-13.257-5.077-19.736 5.874-5.085 5.277-12.96-3.285-16.548 6.172-4.884 12.444-6.58 18.517-6.978 1.99 4.984 6.57 5.383 8.76.698 0-.1 8.264 2.492 11.25 5.283-4.48-.498-8.96-1.395-13.44-1.595 3.983 1.595 7.965 5.682 9.26 10.367.596 1.694 1.592 7.177 1.89 7.177 0 0 1.494-6.38 2.688-5.98 2.987 6.18 8.064 1.494 5.874-3.39 7.566-3.59 16.028-7.675 22.997-10.965 1.99-3.09 6.968-8.872 7.366-8.872 0 0 9.16-52.632 9.16-70.175-.3-21.133.397-44.657-.5-64.494v-5.682h-19.51l-13.84 20.334s-.1.3-.1.5c1.893 8.173 4.282 15.25 8.065 22.826 5.277-3.988 9.658 2.59 5.775 6.38-.697.697-.498.896.2 1.395.696.498 5.674 2.99 5.972 2.99.896-1.296 1.195-3.29 1.792-4.785.198-.598.597-.598 1.493-.498 1.095.1 1.095.598 1.095-6.48v-6.08c-6.77-3.09-15.63-10.965-16.028-19.138 3.882 2.79 12.842 6.977 15.23 7.276 1.096.3.897-1.495.897-2.292.3.2.398 2.99.398 2.99-3.982-1.196-5.973-.997-15.83-6.678 1.694 8.074 9.758 14.453 15.63 17.344 0 0 .2 3.788.2 8.074 0 13.058.1 13.656.1 13.656s3.186-.797 4.082-1.296c1.592-1.295 4.18-.3 4.48.598.497 4.984 0 9.47-.1 14.255-2.688.198-4.18.796-5.575.796-.896-.1-1.394-.1-1.892-.598-1.294-2.79-1.194-.997-1.393 1.097-.1.598-3.385-.5-3.684-.698-14.037 16.248-12.842 34.888-3.285 52.232 1.593-1.097 4.28-3.09 6.97-4.486.098 2.193.098 6.778.098 6.778-11.05 8.074-24.19 29.505-23.793 29.605l-4.48-5.383s2.788-4.485 3.783-5.68c.1-.1.2-1.497.2-1.497l6.868-9.868c-2.887-6.58-6.87-11.664-7.964-18.143-4.58-20.634.398-30.9 0-31.698 0 0-.1-.4-.2-.5-.198-.1 0-.2.2-.498.3-.598.797-1.794.697-2.093-.1-.3-3.783-3.988-6.97-6.98-1.69-1.594-1.592-1.793-2.488-.896-.3.3-1.096 1.296-1.096 1.296-11.448 10.666-20.508 20.335-32.056 31.598l-.597-.498c16.726-16.647 33.65-33.193 50.176-49.94h-2.887c.098-.2.198-.398.397-.498 1.593 0 3.186-.5 4.28-1.097 2.39-1.794 5.775-4.087 5.974-6.48-.198-4.484-3.882-5.083-6.67-2.89-3.782-6.778-6.77-14.952-8.362-22.627-.1-.4-.597-.997-.697-1.495.798-2.492 13.64-20.036 13.64-20.036H43.603L57.34 34.935c0-.698 19.514-2.99 28.473-.2l5.476 19.338c-4.98 4.785-6.373 12.66 2.687 16.746.2.398-.896.996-.896.996.1-.2.4-.498.3-.697-2.49-1.098-5.078-3.79-5.078-3.79-5.475 4.287-10.552 6.68-15.63 6.88 0 0 2.688 1.793 3.186 3.786 0 0-.2 0-.3-.1-.496-.697-1.79-2.79-2.886-3.488-1.792-.4-2.887-.1-4.28.897L66.5 77.1c-4.38-1.396-9.16-3.59-11.847-6.88zm-.75 47.426l1.99-1.994c.2-1.495.6-3.29 2.29-5.383 1.892-2.29 3.983-4.384 5.476-6.378 1.79-2.392 2.787-4.585 2.39-5.582 2.687-.5 5.175-2.89 5.275-7.277 0-2.292 1.095-5.682 1.195-5.582 0 0 19.014-.697 32.056-13.157 0 0 .896.2.697.4-4.978 4.983-10.254 8.67-16.427 10.964L54.5 118.047l-.597-.4zm3.78-3.835c.498-.5.597-.698.3-.897-.4-.4-1.296.398-1.296 1.196 0 .4.4.3.996-.3zm1.81-1.708c.397-.398.397-.697.1-.996-.5-.5-1.097-.2-1.395.597-.3.697.597.997 1.294.398zm1.5-1.6c.2-.2.4-.498.4-.498 0-.3-.698-.897-.897-.897-.4 0-.996.598-.996.996 0 .3.697.898.996.898l.497-.5zm1.5-2.995c-.497-.4-.796-.4-1.194 0-.5.498-.4.897.098 1.395.398.4.598.4 1.095 0 .598-.4.697-.797 0-1.395zm1.8-.21c.497-.398.397-.797-.1-1.295-.598-.598-.996-.598-1.394 0-.2.2-.2.498-.2.498 0 .2.995 1.097 1.194 1.097.1 0 .2-.2.498-.3zm1.6-1.695c.398-.498.398-.797-.2-1.395-.497-.498-.895-.598-1.293-.2-.498.4-.4.898.2 1.396.397.598.895.698 1.293.2zm1.9-1.9c.297-.298.198-.298 0-.697-.3-.598-1.395-1.495-1.594-1.495-.4 0-.698.598-.698 1.196 0 .597.298.797.995 1.395.498.4.3.4.697.2.2-.2.498-.4.598-.6zm1.5-1.4c.697-.798.598-.898-1.095-2.692-.597-.598-.697-.698-1.095-.598-.398 0-.398.1-.597.498-.398.698-.1 1.097.896 2.193 1.194 1.197 1.294 1.296 1.89.598zm1.7-1.8c.298-.2.398-.498.398-.697 0-.3-1.294-1.794-1.79-1.994-.3-.2-.698-.1-1.096.3-.3.2-.3.298-.2.498.1.4 1.792 2.193 2.09 2.193.1 0 .4-.1.598-.3zm1.7-1.6c.298-.3.497-.598.497-.797 0-.3-1.394-1.994-1.89-2.193-.4-.2-.6-.1-.997.398-.398.6-.3.898.597 1.894.797.897 1.096 1.197 1.195 1.197.1-.1.3-.2.597-.5zm1.6-1.7c.398-.2.796-.697.597-1.096-.2-.4-2.688-2.99-2.986-3.19-.498-.3-.498.1-.498 1.395v.697L72.6 96.11c1.593 1.694 1.295 1.295 1.693 1.095zm1.998-1.9c.2-.198.4-.497.4-.697-.996-1.296-4.082-5.283-4.58-5.083-.1 0-.1 0-.1.1-.1.398-.2 1.195-.1 1.893.996.897 3.186 3.888 3.684 4.087.3.2.398 0 .697-.3zm1.603-1.7c.2-.2.3-.398.3-.598s-.3-.498-.698-.996c-.4-.398-1.095-1.295-1.593-1.893-2.788-3.59-3.086-3.788-3.485-3.49-.298.2-.398 1.097-.2 1.396.2.5 3.386 4.287 4.382 5.283.696.698.795.798 1.293.3zm1.7-1.6c.2-.2.398-.498.398-.698s-.497-.697-.895-1.295c-.498-.6-1.295-1.496-1.792-2.094-1.295-1.495-1.295-1.595-2.29-1.694-1.394-.1-1.294.2.398 2.093.4.498 1.096 1.395 1.694 1.994 1.194 1.496 1.692 2.094 1.99 2.094.1 0 .2-.1.498-.4zm1.6-1.6c.697-.598.597-.797-1.792-3.29-.796-.797-.796-.896-1.492-.896-.598 0-.797.098-.797.397 0 .2 3.087 3.888 3.386 3.987.3.1.3.1.697-.2zm1.8-1.8c.198-.2.397-.498.397-.597 0-.3-.697-1.097-1.294-1.695-.3-.3-.697-.498-.896-.498-.398 0-1.095.2-1.195.398-.1.1.896 1.296 1.792 2.193.4.698.697.698 1.195.2zm1.5-1.5c.4-.4.4-.698 0-1.296-.298-.4-.398-.4-.995-.4-1.095 0-1.195.3-.3 1.196.698.698.897.898 1.295.5zm1.7-1.7c.398-.598.1-.897-.697-.498-.2.1-.3.3-.3.4-.198.597.5.697.996.098zm-27.47 4.68c-1.593.997-4.28 2.89-6.073 4.187 0 .3-.1.996 0 1.495.996-.698 4.28-2.79 5.874-3.987.1-.4.2-1.197.2-1.695zm2.764-4.57c-.1-.3-.2-.1-.697.3-.597.497-5.873 4.385-7.168 5.38-.497.4-.995.7-1.095.8-.1.1-.1 1.195.1 1.394 1.095-.898 6.47-4.486 6.57-4.586.598-.797 1.792-2.392 2.29-3.29zm-.584 11.648s-6.372 7.675-8.462 11.563c0 0 0 4.385-.1 6.877l-.397.1s0-6.778-.1-14.154c-.2-18.343-.398-22.828-.398-22.828l-2.09-1.495-.1-.698s9.258 6.478 13.738 7.475c-3.185 5.183-6.172 7.177-2.09 13.158zm-7.57 9.307c.1-.3 0-.3-.198-.3-.2 0-.3.2-.3.4s0 .3.2.2c.1 0 .3-.2.3-.3zm1.56-2.263c.896-1.096 1.692-1.894 1.792-2.69-.598.1-3.982 2.49-4.082 2.69 0 1.296-.3 1.396.797.897.497-.3.796-.598 1.493-.897zm.206-2.898c.995-.798 4.58-2.792 4.977-3.69.2-.398-.398-.896-.398-.796.098.1-5.178 3.19-7.07 4.884-.2.2-.1.598 0 .897.2.5.697 0 2.49-1.296zm-1.195-1.505c1.095-.698 3.584-2.492 4.28-2.89 1.096-.798 1.295-.998.897-1.596-.2-.2-.398-.4-.697-.2C55.3 97.313 55 97.612 52.61 99.207c-.198.398-.098 1.096.1 1.296.2 0 .498-.2 1.195-.698zm-.005-2.298c2.887-2.093 4.38-3.09 4.48-3.29.1-.298.1-1.195 0-1.295-1.095.797-3.883 2.492-5.774 4.087-.1.298-.1.996 0 1.195.398.1.498-.1 1.294-.698zm-.3-7.483c2.092-1.495 3.983-2.89 6.174-4.286 1.792-1.196 2.09-1.495 1.393-1.894-.2-.1-.696-.3-.995-.2-2.39 1.994-5.077 3.788-7.666 5.782-.1.3 0 .797 0 1.096-.1.4.398 0 1.095-.498zm-.3-2.217c.2-.1 1.296-.897 2.39-1.695 3.087-2.193 3.485-2.492 3.485-2.69 0-.7-.896-.798-1.692-.1-1.494 1.196-5.078 3.39-5.078 3.787 0 .498-.1.896 0 1.096.2.2.498 0 .896-.4zm.896-2.997c3.186-2.193 2.987-2.094 2.987-2.492 0-.3-.3-.2-.797-.2-.498 0-.498.1-1.294.798-1.792 1.395-2.49 1.794-2.688 2.193-.1.098-.1.597 0 .796.2.1.498-.2 1.792-1.096zm.203-2.203c.596-.498 1.094-.897 1.194-.997.1-.2-.398-.698-.697-.698-.398 0-.697.2-1.593.997-.796.697-.996.597-.896.996 0 .2 0 .798.1.798.1.3.497 0 1.89-1.097zm-1.294-1.403c.697-.598.796-.697.298-1.196-.398-.398-.995-.598-1.194-.3-.1.2 0 1.397 0 1.596 0 .4.498.2.896-.1zm14.23-12.165c0-.2 1.195-1.097 1.99-1.297 1.096-.2 2.49-.1 3.486.4.796.398 1.792 1.394.398.796-1.195-.6-3.883-.6-4.878-.1-.598.398-.996.498-.996.2zm-.732-4.227c.1-.1 1.294.2 1.89.4 1.693.498 3.087.2 4.88-.3.397-.1.597.2.397.4-.895.597-2.09.996-3.085 1.095-2.29.1-4.68-.996-4.08-1.595zm-10.955-3.302c.995-.498 2.09-7.077 1.79-8.173-1.194 1.794-2.488 2.59-4.38 2.292-3.085-.5-3.185-4.287-.796-4.686.896-.2 2.09.5 2.29.3.996-.5 1.792-3.888 2.09-4.985.2-1.097.4-4.087.498-4.985.1-1.993 0-4.984 0-4.984L42.11 18.45H9.755s-.1 24.92 0 37.678l8.96 8.87.1 14.355c10.353-4.585 20.308-9.27 30.164-14.453-1.096-1.396-1.096-4.785.995-6.08 2.986-1.895 5.475.697 5.674 2.69zm8.113 2.98c.1-.797.697-1.495.697-2.292 0-.2.1-.4.598-.1.597.3.796.1 1.493-.2 1.295-.597 1.594-.597 2.59-.2.597.3.796.3 1.393 0 .796-.497 1.692-.696 2.39-.497 1.094.4 1.393.6 1.99.3.3-.1.697-.698.797-.698.398.698.398 1.695.597 2.293.498.997.3 1.694-.3 1.196-1.193-.996-2.19-.996-3.88-.597-.997.3-1.494.498-2.69.3-3.483-.4-3.782-.3-4.48.198-.596.4-1.094.5-1.194.3zm9.495-6.37c-.996-.3-2.19-1.196-2.987-.897-.995.1-1.592-1.196-1.094-1.794.896-.898 2.29 0 2.887.398 1.195.897 1.394.997 1.89.997 1.993 0 1.594-1.894.6-2.592-.6-.598-.6-.997-.5-1.097.2-.2.797 0 1.395.6 1.194 1.095 1.194 3.388-.2 3.986-.895.398-1.393.598-1.99.398zm4.124-6.5c-.896-.697-2.59-2.192-2.987-2.69-.697-.898-.995-1.496-.896-2.194.1-.598.198-.897-.2-1.096-.398-.2-.796-1.097-.697-1.495 0-.1.498-.1.697.3.3.098.3-.1.597-.4 3.783-2.492 6.77-2.093 10.354-.3.996.5 3.784 2.593 2.29 1.895-.1 0-.995-.498-1.99-.897-3.087-1.495-6.57-2.392-9.358-.5-.498.3-.797.6-.4.6 1.594-.3 3.187-.997 4.78-.898 2.39 0 3.882 1.197 5.674 2.094 1.99.896 2.39 1.195 1.593 1.893-.2.2-.4.2-1.295.1-.995-.1-1.095 0-1.692.298-1.494.998-3.485 1.497-5.177 1.397-2.09-.2-2.29-.3-2.29 0 0 .2.398.498.996 1.096.497.4 1.095.997 1.095 1.097.298.3-.498.1-1.095-.3zm-.58-3.31c0-.2-.497-1.295-.696-1.594-.3-.3-.498-.2-.996.2-.398.298-.497.497-.1.896.797.798 1.793.897 1.793.5zm3.084.19c.797-.4 1.693-1.795 1.294-2.293-.2-.3-.398 0-.896.797-.2.4-.597.798-.697.897-.696.5-1.592 0-1.99-.996-.2-.598-.498-.996-.697-.797-.498.4.1 1.994.995 2.392.597.2 1.493.298 1.99 0zm2.602-.3c.797-.298 1.195-.597 1.195-.996-.1-.3-.697-.698-1.095-.698-.2 0-.498 0-.697.2-.298.398-.696 1.495-.795 1.694.2.3.497.1 1.393-.2zm2.9-6.28c-4.182-1.595-7.467-2.293-11.45-.498-1.294.598-1.99.598-2.09.2-.1-.4.896-1.496 1.89-1.995 2.79-1.295 6.074-1.395 8.96 0 1.096.5 3.983 2.592 3.983 2.792 0 .098-.297-.1-1.293-.5zm49.092 47.03c.995-.5 1.493-1.596.796-2.194-.2-.2-.398-.2-.597-.2-.4 0-2.988.7-3.485.998-.3.2-.2.498.1.797.1.1.298.4.298.7 0 .398-.1.796.2.697.497-.1 1.393-.2 2.687-.798zm-3.563 1.147c.3-.5.2-1.196-.597-1.695-.4-.2-.697-.1-.996.4-.697 1.295 1.095 1.893 1.593 1.295zm-3.7.6c.2-1.693.1-6.877.1-6.877s-.897.798-1.494.798c.2-.798.498-.997.796-1.795.198-.797.298-2.193.198-2.89-.1-.898-.697-.898 0-2.393.3-.797.4-1.595 0-2.59-.2-.5-.2-.8.2-1.397.398-.598.298-.897.298-1.994 0-1.595 0-1.894-.498-.6-.697 1.098-1.095.898-2.19.8-1.095 2.49-2.39 4.983-2.39 7.176 0 1.296 0 1.495.797 4.286.3.997.398 1.396.398 2.592 0 1.196.1 1.595.3 2.292.198 1.197 1.492 3.09 3.484 2.592zM89.154 201.15v-2.493s-3.982 1.196-5.973.498c-2.09-.598-2.09-.698-1.99-.4.1.4 1.592 1.198 2.986 1.497.995.198 2.986 0 3.982-.3.597-.2.597 0 .398.2-2.39 1.893-5.475.996-7.367-.6-.995-.996-1.692-.996-1.194.3 2.688 5.383 9.258 2.193 9.16 1.296zm-2.858-3.335h.896s-.3-1.595-.697-1.994c-.994-.897-2.29-.797-3.185.1-.398.4-.696 1.894-.696 1.894h.695c.3-.698 1.494-3.888 2.987 0zm-3.596-2.404c-.498-.1-1.593.398-2.19.697-.2.2-.2.3 0 .6.498.696 1.294.995 1.394.796.298-.398.896-1.893.796-2.092zm5.957 1.786c.1-.498-.298-1.296-.995-1.595-.3-.1-.598-.1-.498.2.1.397.3.996.498 1.394.1.3.2.5.497.4.2-.1.4-.2.498-.4zm38.455-32.79v-4.185c-2.09 2.092-4.878 5.68-5.675 7.076l5.675-2.89zM63.06 49.065c.897-.4 1.594-1.596 1.295-2.094-.1-.4-.498-.1-.896.498-.597.897-.796.997-1.294.997-.597 0-.797-.1-1.195-.896-.298-.698-.497-.797-.697-.498-.098.1-.098.3 0 .897.5 1.196 1.594 1.595 2.79 1.096zm2.2-.868c.996-.3 1.195-.5 1.195-.798 0-.3-.796-.797-1.294-.698-.3.2-1.195 1.496-1.096 1.795 0 .2.398 0 1.195-.298zm-5.663-.5c0-.3-.1-.598-.2-.698-.297-.4-.994-.1-.994.4 0 .397.5.796.996.796.3-.1.2 0 .2-.498zm5.55-2.594c1.394.5 2.09.598 1.394-.1-1.096-1.196-5.875-2.49-8.463-.597-.2.3-.1 1.296.1 1.197 1.99-1.396 4.678-1.296 6.968-.5zm-4.853-3.995c-1.195.4-2.29.997-2.39 1.595-.2.897.2.897 1.693.498 1.99-.698 4.18-.4 5.874.598 1.293.897 1.69.598 1.492-.2-.697-2.59-4.68-3.09-6.67-2.49z"/><path id="path6265-7_1_" class="st2" d="M146.168 16.182l-8.66 8.672.098 10.268c.896 1.594-13.44-4.586-15.73-6.48.3 6.878 9.558 14.653 15.63 17.444l.2 21.83c2.49-1.296 5.575-2.093 7.765-2.292 1.196-14.853 2.19-34.19.698-49.442zM78.25 43.284c-.897 0-1.395.2-1.395.797-.298 0 3.186 12.76 4.78 18.142-3.087 3.09-6.273 8.473-1.694 13.557.995 1.096 2.787 1.993 4.48 2.99.796.698-9.36 7.277-18.32 7.277-2.886-6.38-6.868-2.792-9.157-.6-1.693-.2-8.164-3.987-11.55-6.18-.098 0 0-.996 0-1.096.2 1.495 12.943 4.785 13.54 3.29-.398 0-5.674-3.59-7.267-7.178-1.99-3.987-3.484-9.57-3.484-9.57-.697 2.094-.498 4.885-2.39 5.882-.597-6.678-10.054-3.29-5.375 3.29-2.688.797-4.978 2.193-7.467 3.29 5.376 7.375 12.843 12.26 20.707 15.15-.995 2.193-7.168 7.178-2.09 13.06.2.198-4.78 5.68-7.268 9.967-1.892 3.19-1.295 5.68-1.096 5.78 6.77-7.774 10.652-14.453 10.652-14.453-.1.898 8.064.4 7.965-6.877.2-1.994.498-4.087 1.295-5.98 12.444.597 23.096-3.89 32.156-13.16 0 0 1.793.5 2.987.7 3.186-.1 4.978-1.696 6.47-3.19 1.395-1.098 2.69-2.194 3.187-3.29 1.792-7.676-6.073-4.686-6.37-4.287-4.48-6.08-8.264-23.325-8.862-23.425-2.588-.697-11.15-3.987-14.435-3.887zM57.02 46.896c-.3 0-1.494 5.383-2.59 5.283-4.48-2.89-4.58 3.09-.696 2.79 3.186-.198 5.077-5.48 3.285-8.073 0 0 0-.1 0 0zM9.077 57.006c.1 32.496.697 64.892 1.493 97.387 2.887-.697 5.077-1.295 7.964 0 .3-9.27-.497-32.495-.298-55.023C29.324 90.76 36.99 81.39 42.366 69.13l-16.824 7.774s-5.476 7.875-7.168 8.373c-.2-1.097-.498-14.354-.3-20.036l-8.86-8.272zm36.918 20.167l-3.285 4.785s.1 16.348.3 24.222c.098 1.595 1.592 2.99.397 4.386.697 0 3.684 21.232.796 29.805-.496 1.495 0 2.59.798 2.99 4.082 4.585 6.37 8.97 11.847 6.38 5.873-5.383 14.335-14.952 14.335-14.952l-22.2-21.032c-1.99-5.183-2.987-36.583-2.987-36.583zm81.204 68.246c-10.055 9.072-19.314 18.343-23.097 29.606 5.376-2.193 10.553-4.784 15.83-7.276 2.588-3.09 4.48-5.98 7.366-8.97 0 0 .3 13.256.1 19.935 2.588 1.993 8.86 8.074 8.86 8.074s1.692-94.498-1.99-96.89c-3.585.697-5.377 1.993-6.77-2.194-.996 19.24-.3 57.715-.3 57.715zM93.02 92.59c-3.882 3.19-17.223 16.348-17.223 16.448 3.584 5.98 17.522 17.843 24.192 24.52l.995 33.992c.997-1.296 1.694-2.59 2.79-3.887 0 0-.2-17.145-.598-25.22-.1-2.392-.697-4.286-.498-4.485-1.892-9.77-2.688-20.634 0-31.1-6.272-5.483-8.263-9.17-9.657-10.267zm.938 38.606c-3.285 4.685-9.557 14.852-10.055 14.852-.1-.3-6.47 0-7.665 3.987-.996 2.99-1.096 5.682-1.792 8.772-12.743-.4-22.002 3.59-31.858 12.66-4.778 0-8.362 1.096-10.054 3.09-2.488 1.794-3.185 3.39-3.086 5.283.2 3.39 6.272 3.887 6.57 1.495.3 0 5.875 12.86 6.472 15.052 1.294 3.488 2.688 10.167 2.887 10.167 2.29.1 14.933 3.688 14.933 2.392 1.195-.498-4.38-18.84-4.38-18.84 9.756-8.173-.996-17.045-3.584-16.646 5.575-3.987 11.946-6.678 19.014-6.978 1.096 3.888 6.173 5.98 8.662.698 0 0 10.95 3.888 10.95 5.184-4.48-.698-8.262-.997-12.742-1.496 8.66 4.685 8.96 10.866 10.652 17.046.2-1.097 2.49-5.88 2.49-5.88 2.886 6.478 8.56 1.992 6.17-3.29l6.97-3.19c.796-.4-10.354-13.06-20.508-14.753.498-.896.697-1.794 1.194-2.59 2.59-2.493 4.48-6.18.598-10.567 2.588-3.59 8.56-12.26 8.163-12.46.2 0 .3-4.087 0-3.987zM9.98 171.295c-.1 0-.3 30.205-.1 45.157-.298.598-.398 3.887-.398 3.887l9.26-8.672.297-11.264c2.39-.598 17.522 7.077 16.327 7.077 1.196-.498-6.968-15.85-16.425-17.543-.2-8.672-.3-18.54-.498-21.133-3.285.598-8.462 2.49-8.462 2.49zm81.856 18.272c-2.587.797-3.682 6.28-2.786 8.87.2.5.1.6.497.1.997-1.494.698-4.485 2.49-5.98 4.58 1.396 4.182-4.685-.2-2.99z"/><path id="path6267-4_1_" class="st0" d="M42.134 216.34L54.38 197.8c14.634 4.884 29.567 4.984 44.7 2.592l13.538 15.948h-5.475l-8.562-12.16c-3.085.697-6.27.996-9.456 1.495l3.982 10.665h-4.28l-3.087-10.566c-7.368.3-12.346-.398-17.423-.997l-1.792 11.563h-4.38l2.986-11.96c-3.483-.7-6.967-1.197-9.855-2.095l-8.96 14.055h-4.18zm3.803-2.105l5.077 1.396-2.49 9.57h-9.357l6.77-10.965zm13.204 10.93l1.395-8.473c3.385.698 7.865.797 12.544.797l2.19 7.675H59.14zm24.152-7.74l3.982-1.097 5.973 8.872H85.98l-2.688-7.775zm-58.43-53.653c19.613-22.827 17.024-46.75 6.173-66.088l2.29-2.392c12.543 20.633 15.132 49.84-7.865 72.567-.3-1.397-.597-4.088-.597-4.088zm77.788-25.79c2.787 4.785 4.58 9.67 7.466 14.454l-7.068 9.57-.398-24.024zm-83.872 15.07c-.2-15.052 0-45.555 0-45.555l6.57-5.083c7.865 9.57 12.245 34.988-1.99 51.834-.897-.798-3.784-.5-4.58-1.197zm93.4-3.042c-18.117-30.602-8.86-53.03 8.663-72.866.1 1.495.1 3.09.2 4.585-15.033 17.244-21.006 42.662-6.272 65.688l-2.59 2.592zm-32.33-4.496l8.262-11.263s1.593-4.485 2.887-5.78l1.493-1.297 1.493 1.495-.895 3.49c-3.087 4.684-6.272 9.47-9.657 14.154 0 0-2.886-.598-3.583-.798zm43.755-54.64c.3-.298 3.584 1.098 3.584 1.098l.2 46.25-6.57 4.188c-1.992.997-16.826-29.406 2.786-51.535zm-68.893 19.363c2.986-4.087 6.172-7.575 9.06-11.363.796.3 2.687.3 2.687.3.2.1-.697 3.09-2.787 5.182-5.874 7.078-7.168 8.373-7.467 11.264-.1.897-2.19 1.994-2.19 1.994l-1.493-1.595c.497-2.294 1.194-4.088 2.19-5.783zM35.473 92.52l6.77-8.87.498 23.025-7.267-14.155zm21.42-57.573l-13.04-16.347h6.27L58.2 30.1l9.258-1.097-3.286-10.466h3.883l2.688 10.267c5.674.1 11.25.598 16.625 1.096l2.788-11.463h3.882L90.454 30.4l10.454 2.79 9.358-14.753h4.68l-13.242 19.04c-17.223-5.085-31.06-4.486-44.5-2.593zm37.53-7.062l2.986-9.47h8.86l-6.77 10.866-5.078-1.396zm-21.237-2.315l-1.892-7.177h15.63l-1.99 7.975c-4.182-.598-7.965-.798-11.748-.798zm-18.812-7.184h6.272l2.39 7.376-3.585.398-5.076-7.775z"/><path id="path6269-8_1_" d="M52.29 9.105l15.03 18.042c3.187-1.096 18.917-2.89 28.474-.797 1.692 6.48 3.385 13.058 5.276 18.94 0 0-.597.697-.995 1.095-6.073 6.978-1.792 13.756 3.783 15.95-.996 2.093-11.648 7.276-18.12 6.678 0-.1-1.99-4.785-6.072-3.19-1.394.498-1.99 1.595-2.987 2.592-3.883-1.196-8.96-3.688-11.648-6.48 4.977 2.493 9.855 3.788 14.734 3.19 0 0-.598-.498-1.295-.797-.397-.2-1.392-.798-2.19-1.296-2.288-1.495-3.782-3.39-5.375-6.58-1.792-3.19-2.09-6.677-3.086-9.768-.5 1.595-.797 5.682-2.09 6.58-.4.2-.4.2-.698-.698-.996-3.19-4.878-2.79-6.073-.5-.598 1.995-.5 2.792.298 4.586l-2.29 1.296v.4l-1.394.697-.398-.3c-6.57 3.19-13.042 6.48-19.81 9.57 0 0-3.585 5.98-6.87 8.274l-.1-20.237-9.657-8.672v4.786l.696.698c.1 33.79 0 67.085 0 97.886v28.31h-.597v3.288l.696.2-.2 4.585h-.298l-.1 2.99.498.1v16.647l-.498.698v4.784l10.155-9.67.2-10.964c7.963 1.496 16.326 7.277 16.326 7.277-1.395-9.17-11.15-16.746-16.726-18.24v-21.732s-4.18 1.695-6.173 1.994c-.994.1-1.392 0-1.89-.698-.398-.5-.398-.998 0-2.094.1-.5.1-.698 0-1.196-.3-.698-.3-1.097 0-2.393.3-.797.2-1.196-.1-1.894-.298-.797-.298-.897-.2-1.296.3-1.096.4-1.295.2-1.794-.398-.997-.398-1.694 0-2.392 1.494-2.49 4.88-1.893 6.67-1.793.896.996 1.494 1.595 1.593.1.598-1.795 3.186 0 4.28.797 9.956-13.357 14.835-31.4 2.39-54.027l-6.968 5.582V91.24c9.16-5.882 19.512-19.438 23.992-30.004 1.493 1.794 3.186 3.49 4.78 5.283l-1.096 1.795-.298-.2C53.284 73.4 45.52 83.666 45.32 83.566c2.887 5.284 5.376 10.667 7.566 16.15l.597-.3.498 1.595-.994.3c3.385 11.163 3.484 21.53.995 31l.6 2.492s3.583 3.49 4.578 4.485c2.49 2.492 5.376 5.184 5.376 5.184l3.285-3.19-.2-.298 28.77-28.608 1.793 1.694C80.563 131.81 50 162.513 50 162.513l-1.096.2c-.597.1-1.493.1-2.09.1-.897-.1-1.096 0-1.793.298-.795.4-1.492.998-2.487 2.094-.4.5-.697.698-1.195.897-5.973 3.59-.597 10.767 4.48 6.98 3.783 7.176 6.87 15.45 8.66 23.723 0 .1-.696.3-.696.3l-13.44 19.935h5.177l.497-.897h-3.783L54.58 198.3c15.728 4.286 30.163 4.885 44.798 2.393l12.742 15.55h-5.077l.697.898 6.57.1-14.932-17.744c-5.376 1.396-19.513 2.592-28.373 1.097-1.394-6.578-3.584-13.755-5.276-19.536 8.46-6.68 2.09-15.45-3.088-16.647-.298-.498 10.553-7.077 18.318-6.68 2.19 5.284 7.07 4.587 8.76.6 3.187 1.196 7.368 2.392 10.653 4.983-4.38-.996-9.557-1.495-13.738-1.594 7.964 3.09 10.254 9.67 11.25 15.85.198.996.696 2.39.696 2.39.698-2.192 1.196-4.485 2.59-6.478.597 2.193 2.887 3.887 5.176 2.592 1.295-.997 1.792-2.592 1.394-4.885-.1-.598-.2-.997-.2-.997l1.793-.996.2.2s1.99-.8 2.886-1.297c.198-.1-.2-.4-.2-.4l17.92-8.47c-.1 0 4.48-6.28 7.168-8.773.1 7.575.1 10.665.1 19.537l.995.996c.896.897 2.887 2.69 7.267 6.778.996.897 1.692 1.396 1.692 1.396l-.1-131.678h-.1V44.99h.2v-6.58l-.2-.1V36.22l.2-.2V18.277h-.298V13.99l-9.956 10.565.1 9.968c-4.48-.598-9.955-3.488-13.838-5.78-1.195-.798-1.89-.998-1.89-.5.496 5.98 9.157 15.052 15.728 17.445v22.428s1.593-.798 2.49-1.196l.098.398 2.09-.897.2-.497 1.892-.2c0 .4.1.3.1.3 1.692.498 2.388 1.594 1.692 2.89-.2.4-.3.997-.1 1.196.697 1.096.896 2.093 0 3.19-.3.497-.3.896 0 1.395.896 1.794.398 1.694-.3 2.79-.198.798.698 1.296.4 2.094-.1.497-.697 1.095-.996 1.394-.398.3-.796-.3-.796-.3s-1.295.6-2.29.8c-.896.298-2.59.896-3.086-.4-.3-.698-.1-1.395-.1-2.193l-1.394-.198-.1 3.688c-.796.4-3.98-1.196-3.98-1.196-13.54 17.544-13.142 36.98-3.087 53.23.1.298 7.07-4.786 7.07-4.786v6.38c-8.86 7.376-17.423 17.145-23.496 29.306l-3.783-4.486c.698-.598.698-1.495.698-2.193l2.788-4.086v-1.098l7.167-9.968c.1.598-7.367-13.457-8.362-17.942l.5-.1c-3.386-12.76-2.69-21.63-.2-31.997l-.697-.698-9.458-9.47c-.796.698-1.493 1.396-2.29 2.093-.1.1-.696 0-.796.2-4.98 4.685-9.757 9.37-14.436 14.154-.1.1.1.598 0 .798-4.68 4.884-9.657 9.47-14.436 14.354l-1.79-1.695c16.923-16.944 48.88-48.443 48.88-48.443s.1-.3.397-.3c.896 0 1.693-.2 2.59-.498 1.094-.2 1.194-.3 1.69-.798.3-.3.698-.698.997-.897.498-.3 1.493-1.197 3.186-2.692.995-.897 1.592-2.193 1.592-3.29 0-1.993-1.393-3.787-3.086-3.986-.697-.1-2.09.3-2.887.797-.498.4-.796.498-.995.4-3.485-6.98-6.87-15.85-8.263-23.127-.1-.5 0-.598.297-1.196.2-.398.697-1.195 1.095-1.794 4.28-6.678 8.76-12.36 12.544-18.54h-5.376l-.697 1.096h4.38l-12.842 19.04c-24.09-7.875-43.703-2.89-44.2-2.792L54.778 10.102h5.973l-.696-1.097-7.765.1zm1.557 8.195l.697 1.096h6.272l-.398-1.096h-6.57zm10.407.997h3.882l-.2-.997h-3.98l.298.997zm7.015-.994l.198 1.097h15.63l.298-1.097H71.27zm19.144.994h3.883l.3-1.097h-3.984l-.2 1.097zm7.752-.994l-.3 1.097h8.86l.698-1.097h-9.258zm38.063 7.274l.1 2.89-6.372 6.78v9.468l-1.892-.398-.1-9.77 8.263-8.97zm-1.622 6.203c.1 2.89-.398 5.682.398 8.573.398 1.495 1.095 3.19 1.195 4.884l-2.09-.1c-.298-.897-.398-1.794-.697-2.89-.796-2.592-1.393-5.383-.796-8.174l1.99-2.293zm-46.1 4.705c.098.1.297 1.396.596 2.492 1.095 6.18 2.588 10.865 4.082 15.55 1.89 5.88 4.778 13.357 7.566 16.846.398.4.597.897.398 1.097-.2.398-1.394-.1-2.09-.898-.3-.3-.897-1.295-1.394-2.093-.996-1.795-2.29-4.486-2.39-4.885-.1-.2-.597-1.495-1.095-2.89-.994-2.493-1.592-4.187-2.388-6.98-.697-2.19-1.294-4.484-1.99-6.777-1.196-3.788-1.893-6.778-2.59-10.267-.1-.497-.298-1.095-.2-1.195.3-.4 1.296-.3 1.495 0zm.49.314c-.1-.1 1.094-.1 1.492.198.1.1.3.798.498 1.795 1.095 5.68 2.787 11.662 4.68 17.244 1.492 4.486 3.185 8.772 5.375 12.26.697 1.197 1.593 2.393 2.688 3.79.598.796.698.896.5 1.095-.2.3-.6.2-1.296-.1-.697-.298-1.393-.996-2.09-1.993-.2-.3-.598-.798-.797-1.097-3.086-5.383-4.977-10.467-6.67-15.65-1.692-5.383-3.285-10.766-4.38-16.946V35.8zm3.885.797c.298.3.398.798.696 1.894 1.294 5.284 2.39 10.07 3.882 14.355.796 2.293 1.493 4.685 2.39 6.878 1.393 3.49 3.085 6.78 5.276 9.37.697.897 1.99 1.994 2.986 2.592.697.4.797.598.797.797-.1.2-.796.3-.995.3-1.194-.2-2.887-1.097-3.385-1.795-3.584-3.887-6.072-10.167-7.964-15.25-3.186-8.872-5.774-19.937-5.276-19.638 0-.2 1.294.1 1.593.497zm1.51.302c.1 0 .2 0 .4.1.695.198.795.298.894.996 1.096 5.083 2.29 9.57 3.684 13.755 1.395 4.288 2.788 8.375 4.98 12.66 1.592 3.09 3.682 5.284 5.773 6.38.597.3 1.194.598 1.194.698.1.1 0 .2 0 .4-.1.198-.2.298-.796.298-.995 0-1.69-.3-2.787-.997-2.787-1.895-5.276-6.28-6.27-8.773-1.296-2.99-2.49-6.18-3.585-9.57-1.99-6.18-3.186-10.166-4.082-15.35.1-.4.3-.598.597-.598zm41.82 8.273v1.795c-7.07.498-14.237-2.492-20.01-5.184 4.38 5.782 9.06 10.965 20.01 11.962v1.894c-14.336-.2-24.39-14.753-23.893-18.34 5.873 3.787 16.526 8.173 23.892 7.873zm-39.336-7.55c.3 0 .797.2.996.3 1.194 4.386 1.99 9.27 3.982 14.155 2.39 5.98 3.683 11.264 8.064 16.248 1.393 1.395 4.08 1.395 4.08 1.395s-.298.8-.796.898c-.896.1-1.593.2-2.29 0-2.588-1.096-4.48-3.787-5.475-5.68-.897-1.397-3.286-7.08-5.178-12.96-2.09-6.38-3.783-12.958-3.584-14.254 0-.1.1-.1.2-.1zm2.212.675c.198 0 .397.1.696.2.3.1.398.198.597.797.1.398.1.897.3 1.794.995 4.584 2.388 8.272 3.683 11.86 1.294 3.39 2.688 6.78 4.38 9.87.896 1.494 1.692 2.99 2.29 3.488 1.493 1.495 3.982 1.595 4.68.1.397-.798.297-2.193-.5-2.79-.596-.6-2.09-.3-2.09.397 0 .2.4.1.896 0 1.394-.2 1.892 2.393 0 2.79-2.29.5-3.982-2.59-1.89-4.584 3.483-2.39 6.17.898 5.375 3.988-.797 1.795-2.09 2.79-3.883 2.89-2.29.1-3.186-.597-5.575-3.986-2.69-4.286-3.883-8.473-5.675-13.158-1.792-4.486-2.987-9.17-3.485-13.357-.1-.2 0-.3.2-.3zm2.2.8c.2 0 .597.1.797.2.1.098.298.198.298.198 3.186 11.463 5.774 18.34 8.462 23.226 0 0 0 .897-.2 1.096-.297.5-.497.3-.895-.4-1.692-3.288-3.285-6.876-4.778-10.565-1.792-4.386-3.286-8.87-3.982-13.157 0-.5-.1-.6.298-.6zm21.115 6.48c.4 0 .797.4.797.8 0 .397-.398.796-.797.796-.398 0-.796-.4-.796-.797s.397-.798.795-.798zm-65.013-.078c-.896 1.296-1.692 5.782-2.688 5.88-1.095 0-2.39-.597-3.186.3-.995 1.197-.398 2.493.896 3.19.598.3 1.792.4 2.59.1 2.985-.997 4.08-5.98 2.388-9.47zm67.902 1.196c.597 0 1.195.5 1.195 1.196s-.5 1.196-1.196 1.196-1.195-.498-1.195-1.196c0-.697.597-1.196 1.194-1.196zm-67.888.502c.995 2.592-.1 5.782-1.394 6.78-1.195.995-2.986 1.095-4.082.198-.896-.797-.497-2.79 1.096-2.69.497 0 1.194.497 1.592.995 1.095.2 2.39-5.182 2.788-5.282zm71.97.7c.697 0 1.294.598 1.294 1.296 0 .697-.597 1.295-1.294 1.295s-1.294-.6-1.294-1.296c-.1-.698.497-1.296 1.294-1.296zm4.903.9c.696 0 1.294.597 1.294 1.295s-.598 1.296-1.295 1.296-1.295-.6-1.295-1.297c0-.698.598-1.296 1.294-1.296zm-43.087 6.083c.2 0 .3.2.498.6.3.796.3.896-.198 1.394-4.082 5.682-.398 11.563 5.575 12.16.498 0 .796.6.996 1.297 0 .3 0 .3-1.394.3-.897 0-1.594 0-1.992-.2-2.09-.597-4.68-2.49-5.675-4.186-1.194-1.994-1.394-4.087-.697-6.878.498-1.794 1.095-2.99 1.99-3.887.4-.4.698-.6.897-.6zm38.732.718l.1 19.537-2.09.798.1-20.834 1.89.498zm4.157.7c2.59 6.48 2.688 12.36.398 17.743l-2.39.3c3.286-7.576 1.893-12.96 0-18.242l1.992.2zM9.776 57.398l8.462 7.975.298 88.617-1.294-.5-.498-87.12-6.87-6.28-.098-2.69zm81.673.203c.3 0 .5.298.698.896.2.6.2.698 0 1.296-1.195 2.79-.2 5.582 2.688 6.38.697.2.796.3 1.195 1.196.3.498.4.698.3.897-.1.1-.498.2-1.594-.1-4.28-1.495-5.774-6.08-3.882-9.768.1-.5.3-.698.597-.798-.098 0-.098 0 0 0zm-33.478-.3s.896 3.09.796 3.888c-.2 1.396-2.19 3.59-3.882 4.386-1.593.6-3.982.3-4.978-.797-3.584-4.286 3.186-8.573 4.878-4.087.996 2.89-3.186 3.59-3.285 1.396 0-.598.2-.798.698-1.097.497-.3.398-.6 0-.6-1.593.6-1.593 1.995-.896 2.99 1.393 1.497 3.185.6 4.38-.497 1.593-1.595 1.99-3.688 2.29-5.582zm34.99 3.19c.1 0 1.792 3.987 1.99 4.585-.098.4-.496.4-1.193-.1-.798-.498-.997-.897-1.295-2.093-.2-.498-.3-2.093.497-2.392zm-33.59 1.705c.398 0 .796 1.395.597 1.993-.3 1.196-3.386 3.19-5.576 3.59-.4.098-.896.198-1.095.198-.5.1-.997-.2-1.495-.698-.398-.398-.597-.797-.497-.897.1-.1 1.095.1 1.89.1 2.39 0 4.282-1.694 5.676-3.787.2-.2.398-.498.497-.498zm-47.74 1.002s1.594 1.495 2.49 2.292c-.1 3.887-1.493 8.173-1.493 11.662 0 2.99 1.99 5.582 2.19 8.174.1 1.694-.4 4.286-1.195 6.18-.797 1.794-1.195 3.688-1.195 5.582.1 4.286 3.186 9.07 2.09 13.357-.995 3.987-2.19 6.28-1.89 8.473.596 4.087 2.786 7.775 2.19 11.164-.5 3.19-1.992 6.38-1.793 9.27.2 3.29 1.394 6.08 1.792 9.07.198 1.995-.3 5.085-.3 5.085l-2.29.2c1.295-4.685-.597-8.872-1.293-13.358-.598-3.788 1.095-6.88 1.592-10.068.298-1.994 0-3.988-.996-6.48-1.99-4.784-1.294-7.874.2-11.96 1.79-4.387-.698-7.876-1.295-12.162-.3-3.59-.1-6.18 1.293-9.47.996-3.09 1.294-4.884-.2-7.875-.995-1.893-1.194-2.99-1.194-5.482.298-5.084 1.592-7.775 1.293-13.656zm48.47 1.997c.398 0 .497.3.497.797 0 .898-1.394 2.094-3.784 3.19-1.294.6-1.99.7-2.688.3-.696-.3-.696-.598.1-.798 1.892-.598 3.285-1.295 4.78-2.69.397-.4.895-.798 1.094-.798zm-10.733.604c6.27 6.68 12.344 10.167 17.023 11.762l-.697 1.795c-6.172-2.393-12.444-5.682-17.72-12.86l1.393-.697zm11.996 1.098c.2 0 .796.798.796.997 0 .1-.2.5-.497.897-.4.5-.797.798-1.792 1.396-1.394.797-2.29.997-2.887.598-.598-.3-.4-.598 1.095-1.495.797-.5 1.793-1.197 2.29-1.596.498-.4.896-.798.996-.798zm-16.57 1c5.076 6.978 11.746 11.663 19.41 14.155l-1.193 1.696c-7.068-2.492-14.037-6.878-20.31-14.653l2.092-1.196zm17.844.9c.298 0 .796.7.796.898 0 .1-.1.4-.3.598-.297.3-1.69 1.396-2.288 1.695-.498.2-.797.2-1.394 0-.597-.3-.498-.598.498-1.196.497-.298 1.194-.896 1.692-1.295.498-.4.896-.698.996-.698zm-20.528.502c-.1.2-7.566 17.145-23.196 29.207l-.1-2.79c8.662-6.88 14.934-16.35 19.713-24.523l3.582-1.894zm22.01 1.198c.198 0 .397.2.596.5.2.397 0 .696-.896 1.394-.498.4-.796.498-1.194.498-1.195 0-1.096-.3.1-1.495.696-.598 1.094-.897 1.393-.897zm30.263.9l3.285.3c.896.598-12.743 9.57-22.2 8.772l.298-2.093c8.263.1 18.915-6.58 18.617-6.978zm-27.84.8c.797.4 1.693.9 1.494 1.098-.3.2-2.59.1-3.087-.2-.4-.2-.4-.298.2-.897.596-.697.696-.398 1.392 0zm-29.195-.494c-5.176 9.17-11.35 17.444-18.417 22.926l-.1-4.785C25.583 84.66 30.76 75.09 30.76 74.99l6.57-3.288zm64.68.596l1.592.897c-9.955 9.17-20.508 13.058-30.762 12.062l.797-1.894c16.625 1.395 27.675-10.965 28.372-11.065zm2.68.3s.497-.1.497 0c-3.285 3.19-7.765 6.68-10.752 8.574-13.937 14.354-25.884 25.617-38.03 38.476l-1.89-1.993 1.79-1.894c0-3.688 4.48-7.774 7.17-10.964 1.094-1.296 3.185-4.486 2.986-5.88-.1-.3-.1-.4-.1-.4 4.182-.798 5.278-4.286 5.278-7.277.2-1.994.497-3.888 1.194-5.483 19.015 1.395 31.26-12.66 31.857-13.158zm-33.34 2.095c2.19 0 3.783 1.695 3.783 4.187 0 .997-.4 1.794-1.792 4.485-1.294 2.293-1.493 3.69-1.99 6.38l-1.394-1.196-2.49 2.192v-3.29s.897-1.096 2.19-2.59c1.793-1.895 3.286-4.487 3.286-5.882 0-1.396-1.493-2.592-3.086-1.595-1.095.897-1.692 2.59-2.49 7.575-.098.897-.297 1.894-.297 2.193-.2.598-2.092 2.393-2.092 2.393-.2 0-.896-3.69-.896-3.69l-1.89.3c2.19-2.392 3.98-5.382 5.076-8.373.896-1.894 2.29-3.09 4.082-3.09zm-41.962.804s-3.783 7.975-10.553 13.158v-3.09c3.882-2.99 6.87-8.273 6.87-8.273l3.683-1.795zm92 .202c-13.242 13.755-30.664 39.174-9.06 74.86l2.886-3.29c-17.322-32.297-5.077-48.943 6.372-65.79l-.2-5.78zm-71.466 1.096c3.883 2.792 7.965 5.483 13.24 7.277-.298.897-7.466 6.978-2.29 12.66.2.3-.297.996-1.193 1.993-2.49 3.39-4.98 5.782-6.97 9.57l-.1 7.176-2.09-1.794-.598-36.882zm71.058.702l.1 4.087c-19.712 24.023-17.522 45.653-6.372 65.59l-2.09 2.192c-18.418-31.5-6.97-55.322 8.362-71.87zm-48.46 2.394c-.897 2.293-4.68 6.28-4.68 6.28s.498-3.887.796-5.084c.2-.897.797-2.192 1.294-2.79 1.593-1.695 3.186.298 2.59 1.594zm-26.403-2.185l.4 32.197-2.79-2.79-.397-24.622 2.787-4.785zm-3.8 6.373l.597 21.83c-2.887-6.58-6.77-13.756-6.87-13.657 0 0 3.186-4.186 6.273-8.173zm21.885 6.798l1.095-1.096c1.394-1.495 1.593-1.495 1.394.498-.1.798 0 1.695 0 1.695.797-.5 2.788-2.79 3.385-2.393.4.4.797 1.296.797 2.592 0 2.592-1.493 4.984-3.783 5.782-6.373 1.993-10.653-5.383-6.273-10.068.398-.5 1.692-1.296 2.29-1.196.697 1.395.697 2.89 1.095 4.186zm63.514-2.27c.398.996.896 1.993 2.19 2.49-.2 31.3-.1 86.823-.1 86.823l6.272 5.882v2.592l-8.362-7.676s-.4-65.39 0-90.11zm6.556 1.487c.2 2.99-.3 6.18.2 9.37.497 2.193 1.293 4.087 1.393 6.18.1 1.894-.1 2.99-.896 5.782-.6 1.894-.6 2.193-.798 4.087-.298 2.59.498 4.984 1.195 7.077.896 2.792.597 6.18-.796 10.567-.497 1.595-.597 2.293-.497 3.688.2 2.99 1.294 5.88 1.792 8.872.298 1.694 0 3.887-1.095 7.675-.4 1.396-.797 3.888-.797 4.785 0 .997.3 2.89.598 3.688 1.494 3.788 1.494 4.486 1.593 6.778 0 1.695-.497 3.49-1.095 4.984-.995 2.393-.398 4.885 0 7.676l-2.49-2.193c-.695-2.293-.496-4.486.2-6.28.996-2.69 1.195-2.99 1.195-4.585 0-2.094-1.194-4.586-1.692-5.98-.895-2.593-.895-5.185 0-7.876.4-1.397.996-3.988 1.195-5.085.3-2.093.1-3.688-.995-7.874-.498-1.993-.597-2.79-.697-4.784 0-1.894.2-3.788.796-6.08.895-3.59.895-5.682-.3-9.07-.895-2.693-1.194-4.587-.895-6.78.1-1.296.498-2.492 1.095-3.588 1.095-2.692 1.195-5.283.398-7.775-1.394-5.283-1.394-7.875-1.195-12.66l2.59-.598zm-7.04 1.7c-.2 21.43 0 46.052 0 46.052s-6.372 4.485-6.272 4.186c-8.164-13.556-11.25-33.392 2.986-51.335 0 0 2.29.997 3.286 1.097zm-96.5 5.09c11.55 21.63 13.042 43.56-6.072 65.987.597 1.994.498 3.788.2 5.682 3.682-2.89 33.648-32.895 8.46-74.56l-2.587 2.89zm58.504-1.78l5.674.3.398 4.884-1.792 1.793s0-.996-.1-1.894c0-1.097-.198-2.094-.298-1.994-.1 0-.2 1.296-.298 2.69l-.1 2.095-.597.6c-.896.896-.996.796-1.095-.4-.1-2.592-.1-2.79-.3-2.592-.1.1-.198.997-.198 2.293 0 1.097-.1 2.094-.2 2.293-.1.4-1.194 1.296-1.493 1.296-.298 0-.2-.4-.298-1.994 0-1.396-.1-2.094-.4-1.595-.1.1-.1 1.496-.2 2.593 0 1.096-.098 2.093-.198 2.192-.2.4-1.393 1.396-1.592 1.296-.3-.098-.4-.896-.3-2.29 0-.7.1-1.197-.1-1.397-.297-.2-.297.598-.198 2.492v2.093l-.697.798c-1.095 1.196-1.194 1.096-1.194-.897.1-1.596 0-2.294-.298-2.194-.3.1-.2.897-.1 2.492.1 1.395 0 2.093-.1 2.292-.1.1-.397.6-.796.898-.398.398-.796.897-.896.897-.1-1.695-.2-5.283-.2-5.283l-5.972-.3s1.195-1.395 1.693-1.694c.3-.1.697-.2 2.19-.1.996 0 2.39 0 2.49-.1.398-.2-.498-.298-1.792-.398-.896-.1-1.095 0-2.09-.2l.895-.897.697-.598 1.89.1h2.092c1.095-.2.1-.498-1.195-.498-1.294 0-1.99 0-1.99-.3 0-.298 1.393-1.594 1.79-1.594.2 0 1.196-.1 2.29-.1 1.793 0 2.39 0 2.29-.3-.1-.298-1.293-.198-2.09-.198-2.19 0-2.29-.1-.796-1.396l.698-.6h1.393c2.092.1 3.087 0 3.087-.198 0-.2-1.294-.3-2.488-.3h-1.196c.498-.697 1.095-1.196 1.692-1.794h1.792c1.295 0 2.19.1 2.19-.2 0-.198-.497-.198-1.095-.198-.796 0-1.792-.1-1.99-.2-.1-.1.1-.498.696-1.096l.796-.598zm-55.984.095c15.93 26.016 10.155 54.126-7.566 71.67l-.498-3.39c16.725-20.434 19.612-41.466 6.073-66.187l1.992-2.093zm29.315 3.49c-2.887 4.285-7.267 8.57-8.86 12.06-.3.4-.398 1.296-.995 1.495-.3 0-.3-.498-.3-1.595 0-.897.1-1.196.5-1.993 2.288-4.087 4.877-7.077 7.764-10.965l1.89.997zm.83.41l2.688.198c-.598 1.894-1.394 3.19-2.29 4.386-1.195 1.595-2.588 3.09-4.28 5.084-2.39 2.79-3.684 5.582-3.585 6.878-.597.598-.995 1.096-1.792 1.694l-1.493-1.395c.996-5.88 6.57-11.264 10.752-16.846zm32.258 2.392l.896.1c2.888.2 4.78.4 4.88.498.1.1.2.5.2.997.098.698 0 1.196-.4 2.89-.2 1.097-.497 2.094-.597 2.194-.3.3-.498 0-.597-1.594-.1-.997-.1-1.695-.3-1.595-.1 0-.198 1.098-.198 1.795.1 1.994.1 2.492-.498 3.09-1.095 1.097-1.194.997-1.194-.897 0-.797-.2-1.894-.3-1.993-.198-.2-.298.797-.298 2.69v1.995l-.498.598c-.696.698-.896.797-1.095.598-.2-.2-.1-.5-.1-1.595 0-1.295-.198-2.092-.497-1.793 0 0-.1 1.296-.1 2.392v2.192c0 .3-1.294 1.495-1.493 1.495-.3 0-.498-1.395-.498-2.59 0-.8-.2-.9-.298-.5 0 .1-.1 1.196-.1 2.193v1.794l-.698.798c-.995.997-1.095.897-1.095-.4 0-1.195-.1-1.793-.298-1.793-.1 0-.2.597-.2 1.893 0 .897-.1 1.794-.1 1.993-.1.2-.398.598-.697.898-.3.3-.597.598-.697.598-.1 0-.3-1.097-.3-1.595v-1.595c0-1.794.1-1.695-2.786-1.794-3.385-.1-3.484-.1-2.39-1.097.996-.896.797-.896 3.087-.796 1.792.1 1.99.1 2.19-.1.1-.1.2-.2.1-.3 0 0-.697-.1-1.494-.1-2.19-.098-2.39-.298-1.493-1.195l.498-.5h2.29c1.592 0 2.588-.1 2.687-.2.1-.198-.497-.298-1.89-.397-.798 0-1.494-.1-1.694-.1-.397-.1-.198-.498.4-1.097l.597-.598h1.99c1.893 0 2.79-.1 2.79-.398 0-.2-.4-.2-1.296-.3-1.392 0-2.288-.2-2.288-.298.298-.6.796-.997 1.294-1.496l2.09.1c2.09.1 2.688 0 2.688-.4 0-.198-.896-.298-1.99-.298-.698 0-1.593-.1-1.593-.398 0-.1.3-.5.697-.898l.697-.697 1.99.1h2.39c.3-.2-.398-.4-1.692-.5-1.99-.1-2.09-.298-1.095-1.195l.398-.798zm-70.14 1.104c10.453 18.74 8.86 36.384-2.29 51.336-1.294-.698-2.588-1.196-4.08-1.296l-.3-45.255 6.67-4.784zm74.35 7.28c.2 0 .2.3.1.997 0 .6-.1 1.197-.2 1.396-.1.298-.2.298-1.194.198-1.194-.2-1.094-.398.1-1.595.697-.598.996-.897 1.195-.996zm-55.714.92h2.092s.1 3.49.398 5.484l4.48.2-1.692 1.793-3.385-.1c-.1.1-1.095-4.884-1.892-7.376zm53.11 2.097c.598 0 2.29.3 2.49.5.2.198.2.497 0 2.79 0 .797-.1 2.59-.1 3.887 0 2.393 0 2.393-.3 2.492-.397.1-.397-.1-.496-1.694-.1-.897-.2-1.695-.3-1.695-.1 0-.1.698-.1 2.392v2.094c-.397.298-.696.697-1.094.896-.298 0-.398-.4-.498-1.495-.1-1.096-.2-1.893-.398-1.594 0 .1 0 1.196.1 2.193l.1 1.793-.797.797c-.797.798-.896.898-.996.698-.297-.797.1-4.485-.596-4.984-.1-.1-1.095-.1-2.19-.1-1.892-.1-2.987-.1-3.186-.3-.2-.098.697-1.195 1.195-1.394.298-.1.697-.2 2.29-.1 1.792.1 2.687.1 2.488-.1-.098-.1-.994-.2-1.69-.298-1.494-.1-1.992-.3-1.992-.6.3-.597.796-.995 1.294-1.494l.697.1c.397 0 1.293.1 1.99.2.697.1 2.19.1 1.593 0 .2-.2-.597-.4-1.593-.5-1.99-.198-2.19-.497-1.195-1.395l.598-.598c.995.1 2.09.1 3.086.3.795.1 1.194.1 1.194-.2 0-.2-.4-.2-1.295-.4-.3-.098-1.992 0-2.09-.497.297-.598 1.094-1.595 1.79-1.695zm-45.654 4.293c.3 0 .3.698.3 2.692 0 2.093.098 2.492.297 2.69.2.2.597.2 2.49.3 2.886.1 2.886.2 1.89 1.196-.696.698-.696.598-1.294.5-1.494-.2-3.684-.1-3.784 0-.1.198 0 .298 1.394.397 1.692.1 2.09.2 2.09.5 0 .1-.298.498-.597.797l-.597.598-1.792-.1c-1.89-.1-2.787-.1-2.787.2 0 .2 1.095.3 2.688.498.398 0 .895.1.895.1.1.2-.796 1.196-1.294 1.595-.398.3-.597.1-2.39.1-1.89 0-2.09 0-1.69.398.098.1.397.1 1.094.1 1.194.1 1.692.3 1.692.498 0 .3-1.095 1.396-1.493 1.595-.4.2-.6.2-1.594.1-.796-.1-.896-.3-.896-.998 0-.3.1-2.392.1-4.585.1-4.286.1-4.486.696-4.386.2 0 .3.3.4 1.795.098 1.495.098 1.894.397 1.894.1 0 .1-.6.1-2.094-.1-2.293-.1-2.692.597-3.29.298-.3.597-.498.697-.3.298.898.2 1.895.298 2.792 0 .897.398 1.097.398.2 0-1.396-.1-2.592-.1-4.087l.897-.896c.498-.5.796-.798.896-.798zm-5.68 1.71c.297-.1 2.288 0 2.487 0-.497.796-1.493 1.793-2.19 2.192-.2.1-.398-1.795-.298-2.193zm53.832 4.19l.4 2.89-3.088-.198 2.688-2.69zm-41.57.512c.298.1.298.598.398 3.29 0 1.296.1 2.193.2 2.293.098.1.497.2 1.193.2.597 0 1.692 0 2.488.1 1.693.1 1.693.2.697 1.096l-.697.698-2.09-.1c-2.09-.1-2.49-.1-2.49.2 0 .2.4.3 1.096.3.3 0 .995 0 1.493.098 1.294.1 1.294.2.3 1.196l-.698.698-.698-.1c-1.095-.1-3.783-.1-3.982.1-.3.3.1.4 1.294.4 1.99.1 2.29.198 2.29.398 0 .1-.3.498-.597.797l-.598.6-2.49-.1c-1.692 0-2.29 0-2.39.1-.098.198.2.298 1.992.398 1.693.2 1.99.4 1.294 1.196-.696.897-.995.997-2.29.897-1.493-.1-2.986-.1-3.185 0-.298.2 0 .4 1.096.4 1.593.1 2.49.3 2.49.498 0 .3-.5.897-.997 1.296l-.4.3-1.79-.2c-1.793-.2-2.788-.1-2.49.2.1.1.797.198 1.494.198 1.393.1 2.09.3 2.09.6 0 .098-.398.497-.796.896-.398.398-.896.697-.896.697l-5.575-.498s-.3-.997.3-3.688c.496-2.493.695-2.992.994-2.593.1.1.1.698.2 1.097.1.996.398 1.595.498 1.595.2 0 .2-.6-.1-1.995-.298-1.894-.298-1.994.4-2.79.596-.7.994-.8 1.193-.5.1.1.1.997.2 1.695.1 1.296.2 1.595.4 1.396.098-.1.198-.5.098-2.393l-.2-1.894.797-.798c.797-.798.797-.798.996-.598.1.1.2.897.3 1.894.1 1.395.2 1.894.398 1.694.1-.1 0-3.29-.1-3.987-.1-.498 0-.598.598-1.196.697-.8 1.095-1.197 1.294-1.197.3 0 .398.797.398 1.894 0 1.096.1 1.595.2 1.694.298.4.298-.896.198-2.192l-.1-2.292.797-.798c.697-.698.797-.698.996-.498.198.2.198.598.198 1.694.1 1.595.398 2.393.498 1.296v-1.096c-.1-.4-.1-1.097-.1-1.795 0-.898 0-1.197.3-1.595.297-.3 1.193-1.197 1.592-1.197zm32.167 1.796s1.294 1.097 1.294 1.396c0 .1-.5.698-1.196 1.395-1.194 1.196-1.393 1.396-1.493 2.692-.098.498-.298 1.096-.895 2.292-.398.896-1.095 1.893-1.095 1.893-1.99 2.393-3.883 4.486-7.267 9.57-.2.498-.2.897-.4 1.295-.198.3-.496.5-.695.598-.2.1-.697.4-.996.6-1.294.995-2.09 2.29-2.49 3.886-.198.897-.297 1.695-.696 4.386-.1 1.097-.597 3.09-.597 3.09-7.468-.1-14.436 1.196-20.61 4.685l37.135-37.78zm10.1 1.102l1.693 7.576h-1.693l-.2-5.482-5.275-.5 1.89-1.893 3.585.3zm-8.02.702c.5.498.997.997 1.395 1.495-1.394 4.785-5.973 10.965-10.453 17.045l-3.285-.398c-.1-.1 4.58-6.58 6.77-8.972.796-.996 1.393-1.993 2.19-3.488.298-.5.696-1.994 1.094-3.39.797-.897 2.29-2.292 2.29-2.292zm1.757 1.697l2.49 2.492.596 35.685c-3.783-2.99-8.362-5.283-13.14-6.977l.795-1.894.896-.996c3.285-3.59 2.588-7.377.1-10.068 2.986-4.386 5.773-7.775 8.063-12.06v-2.992c-.1-2.69.2-3.19.2-3.19zm-29.758 1.5c.298 0 .298.598.398 2.492.1 1.794.1 2.592.298 2.79.2.2.3.3 2.39.3 2.19.1 2.588.1 2.588.4 0 .1-.3.398-.597.697l-.597.598h-4.18c-.2.2.497.4 1.393.4.597 0 1.493.098 1.593.098.397.1.198.5-.6 1.296l-.795.798h-1.792c-.995 0-2.19 0-2.29.1-.497.2-.298.298.598.298 1.494 0 2.49.1 2.59.4 0 .1-.3.497-.598.896l-.697.698-2.59-.1c-2.487 0-2.786.2-.695.4.796.1 1.99.298 2.09.298l.2.2c.1.2-.897 1.295-1.394 1.594-.3.1-.498.1-.896 0-.598-.1-2.887-.1-3.186.1-.2.1.3.3.896.3.995 0 2.19.298 2.19.497 0 .2-.498.798-.996 1.296-.2.2-.796 0-2.488.1-1.095 0-1.892.1-1.892.2s.597.3 1.294.3c.697.1 1.693.2 1.792.298.2.2-1.095 1.695-1.095 1.695l-5.376-.1-.498-5.682.497-.497c.995-1.196 1.294-.997 1.493 1.096.2 1.594.298 2.093.497 1.794.1-.1 0-.997 0-2.293-.1-1.095-.1-2.092-.1-2.192 0-.3 1.195-1.595 1.494-1.495.2 0 .398.598.498 1.994.1 1.196.2 1.495.398 1.295.1-.1.1-.697 0-2.292l-.1-1.994.498-.598c.996-1.196 1.295-1.096 1.394.897.1 1.396.2 2.093.498 2.093.1 0 .1-.996 0-2.59l-.1-2.294.697-.698c.398-.398.697-.697.797-.697.298 0 .398.597.597 1.893.2 1.495.2 1.794.4 1.594.1-.1 0-.996 0-2.193l-.2-2.292.796-.798c.4-.398.896-.797.996-.797.2 0 .398.698.398 1.694 0 .9.2 1.696.398 1.895.1.1.1-.498.1-2.093 0-2.492-.1-2.69.996-3.887-.3 0-.1-.2 0-.2zm28.936 1.002v3.49c-1.394 2.99-4.58 7.375-7.865 12.06l-1.693-.897c4.082-5.383 7.567-10.367 9.558-14.653zm-46.56 1.1h.298c.896.1.896.398.1 1.096-.3.3-.697.598-.896.598-.3 0-.3 0-.2-.697.1-.797.2-.997.697-.997zm53.15 2.495l2.39 2.392.597 25.52-2.49 4.185-.496-32.098zm3.227 3.397c2.19 5.083 4.48 9.967 6.968 13.855l-6.47 9.07-.498-22.926zm-21.69 7.984c2.987 0 5.675 2.293 6.073 4.685.697 2.79-.796 5.68-3.086 6.578-.796.3-1.294.3-1.294.3-.3-1.695-.2-3.29-.498-4.885 0 0-1.394 1.794-2.19 2.492-.398.2-.598.3-.498-.2 0-.896.1-2.99.1-2.99l-3.385 3.59s-.3-.4-.6-1.297c-1.094-2.89.3-5.88 2.49-7.277.896-.697 1.892-.996 2.887-.996zm45.498-.173l.1 3.09c-5.376 4.187-13.04 12.96-19.612 24.422l-2.887 1.197c4.38-10.667 13.838-21.532 22.4-28.71zm.205 4.087l.1 4.685c-4.78 4.585-8.86 9.27-12.445 15.35-2.09.997-5.973 2.89-5.973 2.89-.498-.098 10.553-17.343 18.318-22.925zm-47.786 4c.2 0 .2.4.1.997-.2 1.396-.3 1.894-.797 2.592-1.692 2.093-4.48 4.884-4.878 7.476-.2 1.395.895 2.69 1.99 2.59 3.286-.397 3.684-6.278 3.983-9.17.1-.697.2-1.295.298-1.594.698-.897 1.495-1.794 2.39-2.492l.4 4.486 1.89-.6c-5.276 7.178-3.783 7.577-6.47 10.568-2.59 2.69-7.567-.4-6.273-4.486 1.095-2.79 2.788-5.582 3.286-8.573.1-.896.2-1.494.2-1.494l1.193 2.492c.4-.697 2.19-2.69 2.688-2.79zm47.77 1.508v3.19c-2.488 2.79-4.58 4.884-7.068 8.672l-3.982 1.794c2.59-4.883 6.87-9.468 11.05-13.655zm-48.267 2.896s.3 1.496-.298 4.187c-.3 1.296-1.495 5.084-3.486 4.187-1.692-1.495.4-4.187 1.394-5.483.797-.896 1.593-1.992 2.39-2.89zm-5.394.41l-1.095 2.29c-9.756 0-19.214 3.49-27.576 10.667l-2.09-.698c8.86-8.473 19.91-12.56 30.76-12.26zm10.13 1.794c10.952 3.688 16.03 9.07 20.21 14.653l-1.692.897c-4.38-5.68-9.655-10.765-19.71-13.756l1.194-1.794zm-12.497 3.395l-.498 1.993c-6.172.2-12.643 2.392-18.915 6.778l-2.29-.398c6.372-4.984 13.64-7.775 21.703-8.373zm28.018 13.467l-1.99.897c-5.775-7.576-11.05-9.67-17.025-11.663l.597-1.693c8.064 2.193 13.937 6.28 18.417 12.46zm-80.91-8.83l.2 20.137-1.395-.3-.2-19.437 1.393-.4zm-3.55 1.07c-2.688 9.968-.597 12.56.3 18.44l-2.19-.398c-2.19-5.883-2.39-11.365-.6-17.645l2.49-.4zm67.185 1.498c.198.2-.1.698-.5.897-.397.2-.298.2-.995 0-.597-.2-1.393-.797-1.393-.996.398 0 2.488-.1 2.887.1zm2.092.204c.398 0 1.394 0 1.493.398 0 .2-.398.498-1.194 1.097-1.294.897-1.692 1.096-2.09.598-.398-.4-.3-.798.398-1.396.498-.598.896-.698 1.394-.698zm-43.995.2c.697 0 2.09.896 2.887 1.993.797 1.296 1.693 2.592 2.49 3.888 1.692 2.89 2.986 5.882 4.08 8.872 2.888 7.177 4.58 14.155 5.974 21.132 0 .598-.498.598-.995.4-.2-.1-.4-.2-.498-.3-.597-1.695-.797-3.39-1.294-5.183-1.094-4.286-1.592-6.678-3.782-12.758-1.095-3.09-2.788-7.477-4.58-10.766-1.194-2.093-2.49-4.087-4.18-5.88-.5-.5-.997-.898-.997-.998.1-.3.4-.4.897-.4zm46.693.2c.697.2 2.29.398 1.692.896-2.29.898-3.086 1.894-4.28 2.89-.2 0-.897-.896-.897-1.095.896-1.295 2.19-1.794 3.485-2.69zm-43.295 0c.996 0 1.892 1.196 2.39 1.994 2.986 4.386 5.574 10.665 7.665 16.846 2.29 6.578 3.684 12.958 4.28 17.543-.1.1-.298.2-.696.2-.597 0-.697-.1-.896-.598-1.593-7.476-3.684-15.152-6.172-21.73-1.394-3.49-2.887-6.978-5.078-10.467-1.493-2.193-2.29-3.29-2.29-3.49.2-.198.4-.298.797-.298-.1 0 0 0 0 0zm-6.865.1c1.294 0 3.484 1.595 4.978 3.588 3.086 4.286 4.878 9.27 6.77 14.155 2.09 5.582 3.683 11.762 4.58 16.646.198.697.397.996-.2 1.196-.996-.3-.996-.3-1.295-1.496-.398-1.295-.497-2.59-.896-3.987-2.09-7.576-4.48-16.048-8.362-22.827-4.68-7.575-6.073-5.482-6.87-6.778.1-.2.598-.4 1.295-.498zm11.32 1.894c4.08 7.077 5.773 11.363 7.067 15.65 1.892 6.48 4.082 11.563 5.078 19.138 0 0-1.095 0-1.494-.2-.198-.198-.397-.896-.496-1.494-.996-5.283-2.59-11.563-4.182-16.547-1.792-5.482-3.982-10.765-7.168-15.848-.796-1.396-.995-1.894-.497-1.894.796 0 1.194.698 1.692 1.196zm42.062-.79c.2 0 .298 0 .597.098.497.2.696.3.696.5 0 .298-.3.397-1.294.696-.797.2-2.39.997-3.485 1.994-.498.4-.995.897-1.095.897-.3 0-.896-.7-.896-.898.896-1.396 3.584-3.19 5.476-3.29zm-55.462.195c3.384.1 6.072 4.086 7.466 6.778.498 1.096 1.294 2.193 1.792 3.39 2.788 6.18 5.177 14.054 6.272 19.038.597 2.392 1.195 4.186.995 4.585-.298.2-.896 0-1.194-.198-.198-.1-.298-.698-.596-1.695-.797-2.592-2.09-9.868-5.575-17.643-.1-.2-1.793-5.084-4.58-9.67-1.196-1.893-3.087-3.09-4.78-3.488-.895-.1-1.095 0-1.095-.5 0-.298.1-.397.598-.497.298 0 .497-.1.697-.1zm21.154 15.95c-.2 0-.398-.4-.597-1.197-.1-.4-.2-.598.497-.997 4.28-4.486.598-11.164-4.778-11.762-.498-.1-1.095-.1-1.294-.1-.3-.2-.797-1.097-.996-1.495 7.367-1.895 15.232 8.67 7.168 15.55zm36.83-14.703c.4.1 1.395.997 1.295 1.196-.1.2-.996.2-2.19.5-2.49.497-3.585 2.092-4.78 3.288-.298.1-.497-.098-.696-.497-.2-.3-.3-.698-.3-.798 1.196-1.993 4.78-3.887 6.67-3.688zm-59.666.45c2.19 0 4.28 1.098 5.476 2.792 4.38 6.678 9.358 21.33 10.552 28.608-.1.2-.398.3-1.095.1-.297-.1-.297-.2-.496-.898-1.394-5.283-2.887-10.466-4.68-15.15-.895-2.393-1.99-4.786-2.986-6.98-.697-1.394-1.99-3.787-2.49-4.484-1.193-2.193-3.483-2.79-4.977-2.094-1.492.798-1.69 2.79-.596 3.69.996.696 2.49.597 3.086-.5.2-.4.1-.797 0-.997-.1-.1-.298-.1-.398 0 .1 1.296-1.593 1.396-2.29.897-1.095-.897-.398-3.588 2.688-2.492 1.195.598 1.593 1.795.996 3.09-.597 1.296-1.493 1.894-2.887 1.894-1.694 0-3.585-1.196-3.585-3.39 0-1.594.697-2.89 2.09-3.787.697-.2.896-.3 1.593-.3zm17.95 1c5.277.2 7.666 6.38 4.878 10.167-.696.897-1.194.698-1.493-.4-.1-.497-.3-.497.1-.896 2.488-2.392.398-6.878-3.584-7.077 0 0-.798-1.095-.798-1.694.3-.2.697-.1.896-.1zm43.686.402c.4.098 1.195.896 1.195 1.195 0 .3-.2.3-1.096.1-2.19-.4-4.38.897-6.272 3.688-.896 1.694-.995 1.495-1.493.1-.2-.698-.2-.698.696-2.094 1.792-2.194 4.38-3.29 6.968-2.99zm2.287 2.89c1.793 1.695.996 5.383-1.493 5.782-2.19.3-4.18-2.093-2.787-3.688.896-.997 1.99-1.096 2.688-.2.697.898.398 2.094-.598 2.194-.1 0-.2.1-.2.2 0 .198.897.198 1.196-.1.597-.698.597-1.695.1-2.493-.498-.697-1.494-1.196-2.39-.797-1.493.498-2.986 2.492-3.882 5.084-.2.697-.4 1.395-.498 1.495-.2.3-.2.3-.398.2-.2-.1-.498-1.695-.498-2.194 0-.4.398-1.595.896-2.592 1.692-3.288 5.276-5.282 7.865-2.89zm-44.89-.787c2.192.1 3.884 3.19 2.888 5.283-.298.398-.696.697-.896.398-.1-.1-.398-1.096-.896-2.093C52.4 181.196 52 180.2 51.9 180c-.298-.797-.497-1.295-.1-1.295zm-14.735 1.79c2.49 4.288 4.48 9.272 6.173 14.156 1.294 3.787 2.39 7.475 2.986 10.764.1.3.1.5 0 .698-.2.2-1.394-.4-1.394-.4-1.99-7.076-3.683-14.054-8.56-23.025l-.3-.598c-.1-.6.1-1.297.398-1.695.3-.2.4-.2.697.1zm-27.442 8.18c11.548.798 20.408 5.683 25.187 18.54-1.693-.995-10.254-7.574-25.088-8.47v-1.796c10.653-.1 21.006 5.483 20.807 5.383-3.983-8.174-13.84-11.463-20.907-11.663v-1.993zm79.918 2.62c-.696 1.095-.696 1.095-.995 2.092 0 .3.1 2.293.1 3.49.1 1.494.1 2.092.2 2.29.198.2.596.3.796.1.1-.1.2-.398.3-.697.995-3.588 1.393-4.984 1.79-5.382.3-.3.3-.3 1.395-.2 2.39.2 3.186-2.59 1.593-3.688-2.09-1.296-4.28.698-5.177 1.994zm2.85.804c-1.694 1.396-1.694 3.39-2.19 5.184-.3 1.197-.698 1.895-.798 0-.298-2.59.1-4.485 1.195-6.08.697-1.096 1.792-1.894 2.887-1.894 2.19-.2 2.39 1.595 1.792 2.492-.498.798-1.792 1.097-2.887.3zm-79.434.8c.797 0 1.494.698 1.494 1.496 0 .797-.697 1.495-1.494 1.495-.796 0-1.493-.698-1.493-1.495 0-.798.597-1.496 1.493-1.496zm4.423 1.1c.695 0 1.392.598 1.392 1.295 0 .698-.597 1.396-1.393 1.396s-1.395-.698-1.395-1.396c0-.697.597-1.296 1.394-1.296zm4.4 1.4c.598 0 1.095.497 1.095 1.095s-.497 1.096-1.095 1.096c-.597 0-1.095-.498-1.095-1.096 0-.598.498-1.096 1.095-1.096zm3.106 1.997c.498 0 .797.398.797.897 0 .5-.4.798-.797.798-.498 0-.896-.4-.896-.797 0-.498.398-.896.896-.896zm-10.837 2.697c-.3 1.596-.1 3.29.297 4.487.896 2.492.498 6.978.498 6.978l-2.49 2.492c.2-2.293.5-4.785.3-6.78-.1-1.294-.697-2.49-.797-3.786-.1-1.196.1-3.588.1-3.588l2.09.2zm4.032.807l.1 10.666-8.562 8.274v-2.193l7.267-7.277-.2-9.868 1.395.397zm21.123 24.225l-.597.897h9.657l.2-.898h-9.26zm12.64.078l-.2.897h4.48l.1-.897h-4.38zm7.322 0l-.1.897h16.626l-.2-.897H59.168zm19.446 0l.3.897h4.38l-.4-.897h-4.28zm7.554 0l.298.897h7.566l-.596-.897h-7.267z"/><path id="path35-67-2-1-9_1_" class="st0" d="M7.988.034v2.79h2.687s.1 2.692.1 8.275c0 5.48.1 8.172-.2 9.767-.895 3.59-6.17 3.59-7.167.997-.597-1.495-.398-2.69-.498-4.187H.023v1.695c0 3.987 1.394 5.98 4.48 6.778 3.186.897 6.97-.498 8.263-3.19.797-1.594.697-1.694.697-11.164 0-6.28.1-8.97.1-8.97h2.488V.033H7.99z"/><path id="path35-6-7-1-4_1_" class="st0" d="M157.816 226.607v-2.79h-2.688s-.1-2.692-.1-8.274c0-5.483-.1-8.174.2-9.77.895-3.587 6.17-3.587 7.167-.996.597 1.496.398 2.692.498 4.187h2.887v-1.695c0-3.988-1.394-5.98-4.48-6.78-3.186-.896-6.97.5-8.263 3.19-.796 1.596-.697 1.696-.697 11.165 0 6.28-.1 8.97-.1 8.97h-2.488v2.792h8.064z"/></g></svg>