<svg xmlns="http://www.w3.org/2000/svg" width="165.7" height="226.6" viewBox="0 0 165.7 226.6"><style type="text/css">.st0{fill:#E2CF00;} .st1{fill:#D40000;} .st2{fill:#131F67;}</style><g id="g7107_1_"><path id="path6307-8_1_" class="st0" d="M105.833 9.902s20.21 29.306 27.078 34.49c.5.2 8.96-1.396 8.96-1.396-4.28-10.366-7.067-21.132-4.28-33.193l-31.757.1zm1.017 54.55c-13.937 3.987-27.775 7.675-42.908 1.196L47.417 81.596c-.1.4 19.91 9.07 20.21 8.074-9.857 26.515 5.474 31.4 15.23 2.193 12.743-1.694 28.075-3.39 40.718-12.26-10.752-6.58-16.725-15.25-16.725-15.152zm-83.674 4.933c-5.277-3.29-9.36 3.39-5.575 6.778-.497 1.994-.597 4.884 1.295 6.18 1.692 1.097 4.977 0 5.376 0 0 0 .1 3.49-.2 3.49-.496 0-2.388-1.596-3.582-1.995-3.983-1.196-9.458-1.794-9.358-1.595.2.3-.996 1.197 3.384 3.888 1.593.998 6.77-.1 10.852 1.197 2.49.798 4.778 2.093 6.072 1.396 3.584-.997 4.978-5.682 4.78-5.682-.1-.1-10.852 2.792-9.857 3.29v-4.087c4.182.5 8.065-2.59 3.884-7.874 3.285-3.09-1.095-10.468-7.068-4.985zm17.245 18.556C30.068 98.508 8.864 118.145 8.864 118.145l.2 14.752 20.706 18.64C31.36 131.8 42.61 113.36 53.262 104.09c.996-2.792-10.552-15.153-12.842-16.15zm74.048 3.748c-1.593 12.16-2.986 28.708-23.494 47.15 3.584 6.08 8.063 12.26 14.634 15.25.498.997 18.816-19.14 30.165-28.608l-.1-12.86-21.205-20.932zm-92.253 2.604c0 .3-.796 3.49-.995 3.39 0 .198 2.09-.8 2.29-1.696.2-.797.696-1.794.696-1.993-.398-3.19-1.294-.897-1.99.3zm-8.08 8.48c-.697 1.795-1.494 5.085-1.195 7.277 3.683 1.893 4.68-5.882 3.683-6.58-.597-.2-1.99-.697-2.49-.697zm113.456 35.315c-.298 1.495-.298 1.993.4 2.292 1.194.498 1.692-.1 2.687-2.592.597-1.495 1.095-3.688.597-4.585-2.19-1.695-3.384 3.688-3.683 4.884zm-63.802 12.972c-15.132 2.39-30.164 3.886-42.21 13.256 1.394-.2 15.83 13.557 16.625 15.45 22.2-10.864 43.804-2.69 43.804-2.69l16.227-15.75c.597-.3-17.62-7.875-21.105-9.17 12.443-33.493-7.27-28.51-13.342-1.097zm59.145-3.748c-.995.798-1.493 1.495-2.29 2.592l.797 1.296 1.99-2.193-.497-1.695zm-13.97 14.143c2.09-.997 9.558-4.586 9.857-3.69l-.2 3.59c-1.095-.4-8.462.797-4.18 8.473-2.69 6.08 3.285 9.17 7.466 5.183 8.76 2.992 7.566-5.78 5.774-7.176 1.394-2.193-.398-6.977-1.294-6.977 0 0 7.665 1.694 6.87.398-.3-.598-.798-1.694-2.49-2.79-1.99-1.297-5.376-.798-8.163-1.396-2.987-.6-4.878-1.696-7.367-1.796-3.684.1-7.268 3.39-6.272 6.18zm-84.982 28.454L13.43 192.8s3.385 7.874 4.58 14.952c1.393 8.672.298 18.042.298 18.042l30.464.2-24.79-36.085z"/><path id="path6309-7_1_" class="st1" d="M61.432 217.138c-13.34-19.14-25.785-37.38-42.21-57.516 0 0 0-7.775.1-15.45l50.572 72.766-8.462.2zm16.747-22.04c-.4-3.687-1.196-7.973-2.192-11.76l9.26-8.773c-1.096 7.775-2.59 13.856-7.07 20.534zm44.222-27.71c2.09 2.792-1.394 4.287-2.688 3.09-2.688-2.49 1.195-5.083 2.688-3.09zm-91.292-17.432c-1.493.996 2.788-24.023 14.535-36.982 7.068 20.634-5.475 32.197-14.535 36.982zm57.53-.156l-7.765-2.093 3.683-10.965s7.567 1.695 6.87 3.987c-1.99 7.475-2.788 9.07-2.788 9.07zm-35.878-4.187c2.09-3.488 3.684-7.376 5.177-11.263l7.864-.2-3.883 10.865-9.158.598zm46.927-15.364c-6.074-12.062 1.094-31.2 14.235-36.484-.498 12.26-4.28 24.62-14.236 36.483zm-40.408-3.54c.3-4.285-.2-8.77-.796-12.758 8.362 1.894 17.422 3.19 27.477 3.688l.995 11.563c-8.96-1.595-18.12-2.79-27.676-2.492zm19.828-17.554c.896-3.588 1.99-7.077 3.584-10.466l9.557-.4c0-.198-4.08 6.38-4.976 11.066-1.593-.2-8.164-.2-8.164-.2zm-18.03-2.947c-2.786-.998-6.57-1.297-8.063-3.39l2.887-9.17 8.562 2.59-3.385 9.97zm24.012-87.73l6.67-.098s32.255 41.467 44.3 57.515c-.397 1.595.1 15.55.1 15.55-17.023-24.222-51.07-72.966-51.07-72.966zM23.386 75.635c-1.792-1.894 1.095-3.688 2.29-1.894 1.095 1.496-1.295 2.99-2.29 1.895zm35.96-6.593c.1-9.57 6.87-21.033 6.77-20.734-.1 0 .995 9.37 2.29 12.36-.3.6-8.762 8.972-9.06 8.374z"/><path id="path6311-0_1_" class="st2" d="M17.827 8.407v209.827h130.017V8.407H17.827zm108.54 9.788c-1.096 11.662-1.196 20.634 4.778 32.695-1.096 1.097-9.26 1.495-11.847 2.79 0 .3.697.898.697.898 2.687-1.296 13.24-2.392 13.24-2.392-4.38-7.676-8.064-22.628-5.276-33.99h7.864v56.12s.1 10.665.298 16.745c-4.08-5.282-9.258-12.46-12.743-17.842-4.28-5.98-8.96-13.058-13.84-19.637-1.392-2.092-3.483-4.783-5.175-7.176-2.59-3.787-4.78-6.678-7.467-10.665-2.887-4.188-5.674-7.976-9.06-12.86-2.886-4.087-3.085-4.685-3.085-4.685h41.613zm-49.244.005c4.878 8.573 13.74 11.563 15.93 12.16l1.293 1.895c-10.354-1.994-15.93-8.772-18.517-12.86-.2-.298-.2-1.195-.2-1.195h1.493zm-5.1 0c-1.395 3.19-3.286 5.183-5.078 7.177l.1-2.093c.1.1 2.687-2.89 3.583-5.084h1.394zm2.366 0s0 .698-.1 1.096c-.996 3.39-7.467 9.77-7.367 8.872l-.1-1.695c0 .1 4.878-4.784 6.173-8.273h1.393zm-4.67 0c-.497.897-2.388 3.888-2.587 3.09l.2-3.09h2.388zm14.714 0c.796 1.196 1.593 2.193 2.39 3.39.198.198.298.498.198.597-.1.3-.497.1-1.593-.897-1.793-1.595-2.987-3.09-2.987-3.09h1.99zm-6.505 0h1.592c3.286 5.482 9.16 8.473 11.25 9.17.498.6 1.095 1.695 1.394 1.994C86.59 27.77 80.418 22.984 77.93 18.2zm3.853 0c1.792 2.492 4.48 4.386 6.072 5.582.797.698 1.892 1.994 1.792 2.293-3.484-1.097-7.466-4.984-9.358-7.875h1.493zm-6.753 1.595l.996 1.495c-2.29 3.888-5.276 7.277-9.06 10.068v-1.994c4.28-3.19 6.272-6.38 8.064-9.57zm1.563 2.198c2.787 3.788 8.76 9.57 18.318 11.264 0 0 .498.498 1.295 1.595.995 1.395.995 1.395 1.195 3.688.1 4.087 1.393 9.67 2.787 13.257-.2.898-.3 1.296-1.99 3.59-6.87 9.27-21.405 18.04-28.573 6.08-2.39-3.788-2.588-11.165-2.787-15.75 0 0 0-.3.1-.4.198-.796.397-.697 1.692-.298 1.293.597 2.687.1 4.08-.3 1.593-.598 1.693-.1.2 1.296-.498.498-1.195 1.296-1.096 1.196.1 0 .996-.4 1.394-.698 1.195-.897 1.493-.598 1.095.5-1.89 4.385-2.29 4.484.398 5.78.6.3.997.5 1.296.798 1.89 1.694 1.194.797.696 0-.796-1.296-.1-1.894 1.295-1.097.896.5 2.09.897 2.688.698 1.194-.4 1.592-1.794 1.294-3.29-.3-.797-1.992-2.292-1.594-.797.995 0 1.89 1.396.995 2.392-.695.897-1.89.4-3.682-.797-.996-.797-2.19-.398-2.19.6 0 .597-.896.497-1.394-.3-.3-.4-.1-1.695.498-2.99 3.783-7.676.597-15.052-5.973-12.96l-1.395.4v-2.89c3.484-2.892 7.466-7.078 9.358-10.567zm3.79 13.763c-.996 1.196-.597 2.293 1.493 1.196 1.792-.897 1.99-.997 3.982-1.096 2.788-.1 5.177.797 8.263 2.69 1.992 1.197 2.29 1.297 1.793.6-1.592-3.19-11.25-7.876-15.53-3.39zm-9.24.443c1.89.497 3.682 1.693 3.383 2.29-.1.2-.2.2-.497.1-1.395-.697-3.585-1.793-6.77-.398-.4.2-.598-.1-.598-.498 0-.798 1.393-1.495 2.887-1.595.596-.1 1.094 0 1.592.1zm11.007 2.392c-1.095.598-1.493.897-1.99.598-1.195-.598-.897-.1-.2 1.097.498.897.498 1.096.398 1.595-.1.598-.1.598.498 1.296 1.095 1.395 2.19 2.79 3.783 3.887.497.3 1.194.698 1.194.698.2 0 .1-.1-.2-.4-2.09-1.992-3.683-3.787-1.592-2.99 2.49.798 4.78-.2 6.67-.896.796-.2 1.593-.4 1.792-.4 1.792 0 2.19-.697 1.095-1.893-3.784-4.187-6.97-5.283-11.45-2.592zm9.11.805c.796.698 1.194 1.097 1.094 1.296-.1.2-.696-.1-1.692-.697-2.09-1.097-4.38-1.396-7.267-.5-2.29.7-1.593-.398.896-1.394 2.09-.898 4.78-.598 6.97 1.295zm-21.065-1.492c1.692 0 3.484.498 4.68 1.595.795.697.198.897-1.096.3-2.092-.898-3.784-.998-5.477-.2-.498.298-1.095.498-1.294.498-.3-.2-.4-.798-.2-1.097.697-.597 2.09-1.095 3.385-1.095zm28.377.593c.1 0 .3.2.598.598.497.698.497 1.097.1 2.392-.5 1.595-.698 1.296-.897-.897 0-1.394 0-2.092.2-2.092zm1.82 2.394c.2 0 .4.3.797.997.297.498.198.697-.598 2.99-.3.996-.697 1.794-.697 1.794-.2.2-.2.2-.3 0-.596-.698-.497-2.193 0-3.888.4-1.196.598-1.894.797-1.894zm-15.522.207c.1 0 .398.1.398.1 0 3.488 2.688 2.79 2.986.298 0 0 .697-.1.797.1.3.498-.397 1.993-1.492 2.492-.797.398-1.892.3-2.59-.3-.198-.298-.696-1.594-.596-2.192.1-.4.3-.5.498-.5zm-1.663.4c.3 0 .498.098.597.397l.598 1.795c-.398.498-1.99-.5-1.99-1.296 0-.598.397-.897.795-.897zm-10.958 0c.397 0 .596 0 .596.4.1 1.195-.995 2.39-2.488 2.49-1.394.2-2.19-.996-2.19-2.093 0-.797.696-.897.796-.3.2 1.895 1.89 1.995 2.588.998.3-.498.2-1.495.697-1.495zm17.67.3c.1 0 .3 0 .498.1 1.494.497 1.494.696.3 1.195-1.494.498-1.594.598-1.295-.4.2-.597.2-.796.498-.896zm-15.65.2c1.096.1 1.195.996.2 1.295-1.494.698-1.892.598-1.394-.3.3-.697.597-.996 1.195-.996zm-7.04.3c.1 0 .3 0 .4.198.2.5.398.898.696 1.396-.2.2-.796.2-1.095-.1-.596-.498-.497-1.395 0-1.495zm34.615 1.096c.398 0 .896.698.995 1.197-1.493 1.894-1.294 5.482-1.593 6.58-.298.896-.398.098-1.194-2.194-.4-.8 1.294-5.484 1.792-5.584-.1 0 0 0 0 0zm1.648 1.998c.3.2.797.598.896 1.295 0 .398-.2.897-.3 1.495-.298 1.296-.696 3.588-.895 5.78-.1.898-.1 1.795-.1 1.795-.498.897-1.394-1.495-1.294-3.39.3-1.494.5-6.777 1.693-6.976zm2.197 2.697c.2.3.3.5.398.8.1.398 0 .996-.2 2.092-.696 2.99-.596 6.18-.098 9.47.1.697-.398.3-1.095-.897-.4-.698-.697-1.595-.797-2.592-.298-2.293.2-5.482.697-7.975 0-1.096.1-2.093 1.095-.897zm1.105 1.904l1.195 1.495s-.498 3.29-.498 5.083c-.1.698.597 7.875.796 8.473-.696-.798-1.095-1.296-1.89-2.393-.1 0-.798-7.177-.3-9.868.3-1.695.697-2.79.697-2.79zm1.897 2.797c.2 0 .497.2.796.7.3.398.398.697.398 1.295 0 .398-.2.697-.2 1.296 0 3.988.5 7.676 1.196 11.264.2 1.296-.2.798-.996-.1-.697-.697-.697-.996-1.095-2.093-.098-.198-.795-7.475-.795-8.073 0-2.292.1-3.49.398-4.087.1-.1.2-.1.3-.2zm-4.372 7.984s-1.394.698-1.792.5c-.598-1.596-2.688-5.982-2.788-6.68 0-.3.896-1.395.896-1.395 1.195 2.49 2.29 5.082 3.684 7.574zm-26.302-5.157c-.398.498-.896.3-1.892-.2-.497-.2-.398.1-1.294.5-.697.298-.896.397-1.294.397-.597 0-.796-.2-.796.2 0 .2 0 1.296-.2 1.794-.2.698-.398.997-.2 1.196.3.3.5.1 1.196-.498.996-.997 1.692-.698 2.887-.3 1.294.4 1.593.6 2.788.2 1.692-.598 2.687-.598 3.384-.2 1.195.698 1.494.698.996-1.295-.2-.697-.2-1.694-.3-1.893-.098-.2-.397.4-.696.598-.597.4-.896.4-2.29 0-.796-.4-1.692-1.296-2.29-.498zm21.485.282c.498 1.195 2.588 5.282 2.49 5.78-.4.4-.897.6-1.295.3-.996-1.894-1.294-2.89-2.19-4.984-.2-.6.497-1.894.995-1.097zm11.147-.2c.1 0 .498.3.697.6.697.996.797 1.095.797 2.092.1 3.688.498 7.974 1.593 11.364.2.697.597 1.495.497 1.594-.298.5-1.99-.897-2.488-2.89-.697-2.592-1.096-5.383-1.295-7.177-.198-3.19-.198-5.383.2-5.582zm-12.394 1.994c.597 1.196 1.294 3.09 1.89 4.286.2.498-.895.897-1.193.797-.498-.398-.697-1.296-.996-1.894-.995-2.193-1.194-2.193-.597-2.89.298-.4.697-.997.896-.3zm14.678 1.402c.1 0 .2.1.3.3.596.696.994 1.294 1.193 1.793.1.398 0 .697.1 1.394.1 1.894.597 4.486 1.99 9.67.1.498.3 1.096.3 1.295-.1.996-1.494-.6-1.992-2.194-.497-1.794-1.294-4.186-1.592-6.28-.498-3.488-.797-5.98-.3-5.98zm-15.863 1.4c1.196 2.69 1.296 2.69.5 2.99-.797.2-.797.2-1.693-1.695-.697-1.394-.797-1.494-.2-1.992.797-1.097.996-.2 1.394.698zm-16.397-.694c-.1 0-.498.3-.896.5-.995.397-2.688.397-3.683.098-1.892-.697-1.294.2.298.798 1.295.398 3.783.1 4.182-.698.2-.3.298-.698.1-.698zm14.064 1.493c.995 1.595 1.393 2.293 1.194 2.393-.198.2-.994.498-1.293.3-.398-.2-.796-1.198-.995-1.995.1-.4.796-1.097 1.095-.698zm-26.12.603c.498 0 1.693 1.595 1.394 1.894-.098.2-.497 0-1.592-.3-.398-.1-1.194-.198-.896-.796.2-.1.896-.798 1.095-.798zm24.97 2.295c-.1.3-.896.3-1.194.3-.3-.6-.398-.898-.398-1.297.1-.2.696-.897.896-.698.1.1.598 1.396.697 1.695zm21.816-1.588c.2 0 .497.3.896.897.795 1.196.696 1.097 1.293 3.888.697 3.19 1.493 5.383 2.29 8.572 0 .5-.2.4-.797 0-.995-.598-1.294-1.196-1.593-2.99-.497-2.79-1.593-5.383-1.99-8.772-.3-.997-.3-1.595-.1-1.595zm-24.194 1.09c.596 0 .497.9.298.998-.4.4-1.494.3-1.693.3-.498-.698.996-1.197 1.394-1.297zm27.068 2.995c.2 0 .597.698 1.493 1.894.798 1.097.6.997 1.096 2.79.697 2.593 1.792 4.487 2.49 6.88 0 .298-.3.2-.598.1-.597-.3-1.195-.7-1.692-1.097-.4-.4-.4-.898-1.394-4.486-.398-1.295-.498-1.594-.996-3.588-.398-1.694-.597-2.492-.398-2.492zm-87.485 7.785c2.787 5.084 1.692 7.277-4.18 8.074-.4-.1 0 2.59 0 3.787 2.985-1.695 6.57-2.093 9.854-3.19-.896 2.89-2.488 6.18-7.267 5.682-4.978-3.888-10.85-1.596-14.833-3.09-2.19-.798-2.987-3.19-2.987-3.69 2.588.3 5.575.798 8.064.6-2.788-2.094-1.99-5.085-1.593-6.38-3.185-4.088-.497-8.673 4.182-7.576.498.1 1.394.598 1.394.598 4.48-4.087 9.756-.3 7.367 5.183zm90.898-2.467c.2 0 .598.498 1.394 1.595 2.49 3.49 4.58 6.678 4.58 6.878-.1.6-2.688-.398-3.286-1.295-.696-.997-2.787-5.98-2.787-6.778 0-.2 0-.4.1-.4zM22.558 86.745c1.294.2 1.593.3 1.593.797.1.4-3.085.5-3.483.2-.3-.3.1-.798.398-.898.597-.2 1.095-.1 1.493-.1zm87.956.545c-17.92 8.473-25.287 31.1-16.228 48.345l-1.294.897c-8.86-18.34-2.29-37.878 12.146-47.846.597-.4 1.89-.698 2.488-1.097 0 0-5.873 1.296-7.864 2.094-.398 0-1.593.4-2.887 1.795-1.095.997-4.58 5.88-4.48 5.98l-9.16.5v.298l9.06-.2c-9.358 15.45-7.068 30.104-1.294 40.47l.1.1c.3.2 1.195-.398 3.087-2.192.796-.697 1.692-1.594 2.09-1.993 1.095-.997 2.788-2.79 3.883-4.087-6.272-12.858-.1-29.804 14.634-37.38 0-.4-.2-1.694-.2-1.694s-.596-.5-.895-.5c-16.427 7.278-22.998 25.22-16.328 41.568l-1.095 1.196c-8.362-16.946.598-38.078 16.327-44.158 0-.4-.3-.897-.796-.598-16.924 7.874-24.29 28.01-16.028 45.155l-.996.896c-9.458-18.74.498-39.872 16.028-47.05.597.1-.298-.498-.298-.498zm-90.695.2s-.1.998.198 1.297c.2.698-.1.598-.697.5-1.493-.4-.298.497.897 1.195 1.194.698.995.698 0 1.296-.697.398-.598.598-.498.996.1.5.198.2.497-.1.597-.597 1.095-.697 1.593-.697.796 0 .896.698.796 1.196-.3 1.098-1.394.998-2.29.8-1.493-.4-3.882-2.992-3.882-4.487-.2-1.495 1.692-2.093 3.385-1.994zm6.16.3c.598.2 1.295.5 2.09.798 1.096.4 2.19.898 2.888 1.396 2.19 1.495 2.09 4.386 1.892 4.685l-11.25 10.765-1.194-.598c-1.892-.996-2.39-1.495-1.295-1.993.5-.298.698-.797.798-1.395.1-.698.1-.598.498-.897.796-.598.796-.797.796-1.794 0-.598.1-.897.3-1.296.198-.3.397-.997.496-1.794 0-.1 0-.4.1-.598.1-.598.3-.798.498-.897.1-.1.298-.6.497-.998.3-.897.3-.798.797-.698.697.1.597.598.597 1.296 0 .3-.298.598-.2.498.1-.1.598-.3.698-.3.2-.098.498 0 .498.4 0 .2-.1.598-.1.897 0 .798 0 1.695.2 2.293.796 2.89.696 2.492.398.1-.1-.6-.1-1.396-.1-2.094.1-.498.2-1.096.4-1.495.497-.898.497-.998-.598-1.496-.398-.2-1.095-.4-1.195-.698-.2-.3-.697-.798-1.394-.997-1.592-.4-2.588-1.994-2.29-2.194.2-.2.797 0 1.195.1 1.494.1 1.792 0 2.49-.598.397-.3.497-.598.796-.598.1-.1.497.1.697.2zm76.786 1.697c-15.132 12.26-17.82 32.196-10.254 47.547l-1.294.997c-9.458-18.043-3.087-37.48 8.56-48.047l2.988-.498zM15.636 91c.3 0 .597.4 1.593 1.495.697.798 1.493 1.396 1.89 1.695.897.4.698.3 0 .997-.795.897-.297 1.595-1.293 1.196-2.39-1.097-3.982-4.386-2.49-5.183.1-.1.2-.2.3-.2zm-1.587 3.494h.2c.298.098.597.597.995.996 1.095 1.096 1.493 1.495 2.39 1.894.796.398.796.498.298 1.096-.2.2-.3.498-.398.698 0 .2-.1.4-.2.4-.895.198-3.982-1.696-4.08-2.992 0-1.196.298-2.093.795-2.093zm6.466.31c.5 0 .797.497.797 1.195 0 .5-.298.698-.896.997-1.293.498-2.09-.4-1.193-1.495.398-.4.896-.698 1.294-.698zm-.766 3.19c.995 0 1.294.797.497 1.495-.696.698-1.99.698-1.99-.1 0-.498.896-1.395 1.494-1.395zm-6.077 1.007c.697.2 2.29 1.395 2.987 1.495 0 .4-.398.498.2 1.196.298.3.298.598.1.698-.798.4-3.585-.897-3.785-2.293-.1-.697.1-1.096.497-1.096zm3.656 1.598c.996 0 2.09.1 1.892.498-.1.3-.398 1.196-.896 1.097-.2-.1-.4-.3-.598-.4-.4-.497-.598-1.195-.4-1.195zm36.354 3.992c2.788 2.592 12.942 29.107-8.263 48.545l-4.48 1.395c20.41-16.048 17.024-38.875 11.45-48.644 0-.3-.1-.3-.598.2-.4.398-.498.498-.3.598 6.173 9.57 8.562 36.683-15.928 49.74-.398.4.4.4.4.4 0-.4 11.05-2.99 10.253-3.09 10.255-9.07 19.115-30.702 8.064-49.64-.2-.2-.597.497-.597.497zm-3.32 3.103l-.1.598c8.86 17.544.397 38.975-16.13 46.85.3.2.6.3.897.498 18.716-10.167 24.092-31.5 15.93-48.145l-.598.2zm-1.51 1.206l-.1.598c7.367 14.853 1.493 35.586-16.028 43.96-.2.896 0 .597.795.597 20.31-10.963 22.2-31.697 15.83-45.154h-.498zm-1.3 1.798c-.6.798-1.594 1.196-1.992 2.094 5.873 15.65-1.693 30.7-14.635 37.08 0 .798-.597 2.692.797 2.393 15.928-7.276 22.897-26.514 15.928-41.665l-.1.1zm80.034 30.21c.598 0 1.096.2 1.693.298 1.99.3 3.286 1.695 2.39 2.592-.3.3-.697.1-1.99-.5-.6-.298-.698-.597-.798-1.195-.1-.798-.298-.898-.498-.3-.2.598-.398.997-1.095.798-1.89-.3-1.194-1.695.3-1.695zm-20.745 13.453c-4.78-2.69-10.653-7.576-13.938-13.158-1.692 3.19-3.584 8.87-3.584 8.87l-7.466-2.092-.1.2 7.367 2.092-.697 2.492c-.1.3-1.194 3.09-1.194 3.09l11.548 5.383c-.696 1.097-1.492 1.894-2.488 2.89-.597.6-.597 1.396-.597 1.396l15.928-15.25s2.09 3.09 2.788 3.788.897.798.1.997c-3.783.598-6.67 3.39-5.674 7.277.2.398.497.3 1.194-.2 2.49-2.292 8.562-4.386 8.76-3.788v2.393c-6.57.1-5.873 4.884-5.375 7.575 0 .1-1.89 1.695-1.89 1.695.696.4 1.293.698 1.99 1.196-.598 3.19 2.19 7.875 7.566 5.483.5.498.897.996 1.395 1.594.597-.598 1.194-2.193 1.194-2.193 2.687 1.197 8.262-1.495 5.375-7.775l1.593-1.495-1.493-.997c0-1.594-.3-2.99-1.195-4.386 0 0 2.49.6 4.38.798 1.195.1 2.09.1 1.99-.598 0-.2-.198-1.196-.297-1.495-.598-1.596-3.485-2.792-6.272-2.992-.497 0-.995 0-1.094-.1-.2-.2.1-.498.398-.498 1.493.3 2.987-.897 3.285-2.293.1-.3.397-.697.796-1.196.796-.896.896-.896.896-2.092 0-.897.1-1.096.597-1.695.497-.797.795-1.893.497-3.09-.1-.398-.398-.897-.1-1.794.498-1.496-.597-2.792-1.89-3.59-.1 0-.1.1-.2.2-1.195.4-2.688-.498-2.688-.498-.3-.2 1.094-8.075 3.88-7.377.5.3.698 1.695.6 1.695.098 0 .198-.798 0-1.396-.2-.598-.6-1.096-1.495-.897-.697.1-1.393.997-1.792 1.396-1.294 1.694-1.294 2.79-1.792 4.585-.198.797-.198.797-1.392-.1-.797-.697-1.195-.897-.996-1.296.1-.2.697-.697.697-.697l10.65-9.87v98.884H78.22l.4-12.96c1.095-8.87-.797-27.61-2.29-29.405 1.095-1.296 4.58-4.286 4.38-4.386l-.497-.3-1.792 1.695-4.48-1.396c-1.89-1.297-3.882-2.593-5.873-3.09-3.285-.898-9.657 1.893-9.756 1.893-10.154.797-18.417 4.884-18.218 4.884-.398-.398-.995-1.694-1.095-1.694-5.276-7.377-10.453-11.463-17.52-16.447l8.96-4.984-21.107-22.33-.2-18.04 30.763-29.506c.2-.5 9.757 6.778 13.34 12.76.697-2.892 1.992-5.583 2.987-8.474.1-.3 6.073 2.193 7.865 2.292.3 0 .498-.3.498-.3l-7.965-2.59 1.593-4.685s.6-1.297-.098-1.496c-3.584-1.197-6.97-3.19-10.453-4.984 0 0 1.59-1.795 1.59-1.894 0-.1.698-.997.5-1.396-1.793 1.695-16.128 15.052-16.128 15.052-.4-2.293-1.096-3.09-2.49-4.486.797 0 1.992-.797 2.59-1.296 2.09-1.495 3.284-4.286 2.986-5.88-1.99.597-3.883 1.395-6.372 1.893-1.394.3-2.787.897-3.584 1.595l-.1-2.592s3.386.598 4.978-1.694c1.394-1.994.797-4.187.498-5.383 0-.3 0-.2.498-.798.398-.4 1.095-.898 1.095-.898 0-.1-1.79-.797-2.09-1.395.797-4.487-2.986-6.28-6.172-5.483-.597.2-.896.3-1.593-.5l-.995-.996s-.398.898-.598 1.297c-.597 1.196-.796.897-2.19.897-3.385.2-4.977 2.89-4.18 6.38.198.797.1.698-.4 1.694-.298.5-.696 1.197-.696 1.197s.597.3 1.095.498c.598.3.698.598.698 1.196.1 1.395.398 2.292 1.194 3.488-2.687.1-4.778-.2-7.167-.997.398 3.79 3.086 5.085 6.47 5.683 0 0-.398.3-.696.498-.798.2-1.295.898-1.295 1.497-.1.598-.498 1.196-.896 1.495-.5.498-.997 1.096-.798 2.292-.1.898-.3 1.197-.498 1.496-.497.697-.696 1.395-.597 2.292.1.4.2 1.296.1 2.293-.1 1.595.398 2.093 1.095 3.19.497.697.398.697.298 1.196-.298 1.197-.497 1.895-.796 2.792-.597 2.093-.597 3.688-.1 4.087.797.597 1.593.397 1.99.298 2.988-.897 2.49-3.888 2.59-5.782.1-.498.298-.797.398-.697.796.995 1.692 1.593 2.887 2.192-3.983 4.086-6.472 6.48-11.55 10.964V18.493h57.244s.1.797-.1 4.386c-.2 7.275-.597 14.85-.1 22.228.1 2.59 0 5.083.4 7.575.397 2.492.497 5.084 1.692 7.377.497 1.196.497 1.196-1.295 2.79-.895.798-1.59 1.695-1.59 1.795 0 .1 0 .2.098.1l.797-.798c.497-.598 1.294.2 3.982.897.498.2 1.294.698 1.89 1.097 4.083 3.39 9.758 2.393 14.038.5 1.195-.5 1.494-.6 3.485-.798 7.168-.897 14.933-3.988 14.933-3.988l.896 1.595s.397-.1.596.298c4.18 7.875 17.72 16.846 17.422 16.448l-8.86 4.884c6.47 7.974 21.304 21.53 21.304 21.53v19.638c-3.982 3.19-7.865 6.778-11.35 10.367-.995.997-1.69 1.595-1.293 1.595.895-.1 1.69.797 2.388 1.395.498.5.398.5-.2 1.196-.397.5-.497.6-.497.998 0 .698 0 1.196-.596 1.695-.398.498-.597.797-.697 1.395-.1.598-.1.897-.498 1.495-.698.1-.698 1.097-.598 1.595.697.698.398 1.495.398 1.296-1.294 1.495-2.688 2.69-1.792.698.398-.798.498-1.396.498-1.396s-.597.698-.996.997c-.497.5-.697.2-.697-1.296-.1-1.096-.497-2.69-.696-2.99-.1-.2-.1.1-.1 1.196.1 1.396.2 1.794-.3 3.29-.695 1.893-1.193 2.192-.098 2.093.994-.1 1.89-.1 2.388.498.2.2.398.598.797.798.896.498 1.493.996 1.99 1.495 1.494 1.694 1.096 3.19-1.89 2.193-1.594-.5-.5-1.196 1.094-1.097.995.1 1.194-.3.298-.598-1.693-.3-1.892-.498-2.987.798-4.578-.5-7.167-2.99-8.46-5.184-.5-.898-.698-.997-.3-1.496.1-.2.1-.1-.2.1-.198.3-.895.498-1.094.698-1.194 1.594-2.688 3.29-4.08 4.485zm19.915-10.822c.797.1.797.797.1 1.395-.697.5-1.095.598-1.493.2-.697-.598.1-1.595 1.393-1.595zm2.28.463c.597 0 1.394.3 2.39 1.097 1.095.997 1.393 3.29.398 3.688-.4.2-.498 0-1.394-.897-.597-.598-1.294-1.097-1.99-1.495-1.395-.697-1.594-.896-.598-1.395.2-.1.398-.3.597-.498.1-.4.2-.5.597-.5zm-1.384 3.092c.2 0 .398.1.797.3 2.29 1.295 3.484 3.29 2.688 4.385-.497.698-1.393.498-1.99-.598-.4-.598-1.295-1.296-2.39-1.894-1.194-.598-1.294-.698-.398-1.196.398-.2.597-.4.796-.698.2-.4.2-.3.498-.3zm.69 4.695c1.793 1.794 1.594 2.69.4 3.39-.797.498-1.992.597-2.39.198-.697-.598-.598-1.196.1-1.495.696-.1.398-.398-.2-.598-2.29-.598-3.683-1.894-1.194-1.595.696.1 1.393-.498 1.792-.897.497-.598 1.194.698 1.493.997zm-119.062.713l50.872 72.866H18.69c1.494-11.563-1.493-24.422-5.276-32.795 4.18-.7 8.163-1.795 12.145-2.89l-.797-1.098c-4.78 1.894-9.16 2.592-13.24 3.09 5.475 9.37 7.466 22.33 5.774 33.692H9.432v-56.52L8.934 152.5zm8.625 10.867c.696 0 2.488 1.196 2.687 2.193 0 .2.498 1.396.995 2.492 0 .2 1.792 3.39.996 3.09-1.593-2.093-4.28-5.682-4.978-7.476 0-.2.1-.3.3-.3zm5.515 3.225c.1.498.598 1.894 1.096 2.79 1.096 2.393 2.788 6.08 2.49 7.178-.2.698 0 .698-.598-.2-.3-.398-1.294-1.794-1.493-2.093-.6-.797-.2-.1-.5-1.296-.795-3.49-1.99-5.284-2.787-7.277-.398-.897 1.394.498 1.792.897zm1.02.508c.1.1 2.19 1.496 2.39 1.695.697 2.592 3.584 10.765 2.787 12.16-.298-.198-1.393-1.494-1.493-2.192-.3-3.887-1.594-6.678-2.888-9.668-.398-.797-.697-1.695-.796-1.994zm3.788 2.893c.597.3 1.294.998 1.692 1.695.3.4.4.897.598 1.994.697 3.288 2.09 6.677 1.493 10.266-.398.498-1.195-.698-1.394-1.894-.398-3.987-.796-5.88-2.09-10.466-.3-.898-.498-1.595-.3-1.595zm3.302 3.1c.1 0 .398.3.896.698.897.897.997 1.196.997 2.592 0 2.093.697 4.485.796 6.578.1 1.197.3 4.386.1 4.586-.3.398-1.394-.997-1.394-2.99.198-2.493 0-4.287-.997-8.573-.398-1.993-.696-2.89-.398-2.89-.1 0-.1 0 0 0zm93.993-12.45c3.684 2.392 2.39 6.68 1.593 7.177 4.98 6.38-2.786 9.67-5.275 7.376-3.683 3.688-9.955.598-7.566-5.482 0 0-4.58-8.87 4.48-8.273 0 0 .198-3.588-.1-3.688-3.286-.2-7.666 2.89-8.86 3.787-.698.4-.797.2-.797.2-.2-1.894-.2-2.692.597-3.69 1.294-1.793 3.484-2.39 6.272-3.09 3.484 1.098 6.87 2.792 10.154 2.493 1.792 0 3.584.3 5.376 1.196 1.195.598 1.792 2.692 1.792 2.692-1.89 1.096-7.666-.698-7.666-.698zm-1.27-13.098c0-.598.696-1.296 1.393-1.296.997.1 1.096 1.196.2 1.595-.2.2-1.095-.1-1.095.1.1.4-.298.2-.398.1-.1-.1-.1-.3-.1-.498zm-.605 2.45c.398-.2.697-.3.995-.3.498-.1 1.294 0 1.394.6.2.597-.896.896-1.792.896-.398 0-.996.1-1.095-.2-.1-.298.3-.896.498-.996zM13.09 109.637c.698-2.493.3-3.788 1.395-6.878l2.887.996s.1 2.99-.498 4.586c-.497 1.694-2.39 2.99-3.783 1.295zm20.81 66.157c.3 0 1.196 1.197 1.495 2.293.298.997.2 2.293.498 3.39.597 3.687.497 7.376.398 8.472-.1.598-.398.3-.896-.2-.697-.797-.598-.797-.598-2.89 0-1.794-.398-6.38-.597-7.277-.3-1.694-.498-3.29-.398-3.588 0-.1 0-.2.1-.2zm33.348.71c3.684.6 6.57 3.09 8.264 7.278 1.593 4.187 1.99 9.968 2.29 15.25 0 1.297-.498.898-1.892.2-1.493-.697-1.792-.498-3.982 0-1.394.3-1.195-.598.995-2.192.797-.5 1.593-1.197 1.394-1.296-.1-.1-.797.1-1.295.498-2.19 1.794-2.788 2.193-2.19.5.2-.4.697-1.596.896-2.194.797-2.192-.1-3.09-2.787-4.485-.697-.3-1.095-.897-.398.3.597.996-.597 1.793-1.99.597-.997-.797-2.988-.3-3.585.698-.597.997-.3 2.79.896 3.29 1.095.498 1.493.1.398-.6-1.294-.896-1.095-2.49.398-2.49.4 0 .996.398 2.688 1.295 1.195.598 1.99.4 1.99-.598 0-.598.4-.598 1.097-.2.995.5.896.997.398 2.393-.398.997-.598 2.193-.896 3.19-.897 3.588-.997 7.575 0 8.772 2.587 3.29 5.275 2.99 7.664.797l-.1 3.687c-2.388 1.894-5.176 3.19-9.457 10.367-1.493-1.894-7.964-9.67-18.318-11.364L47.44 207c0-.2-1.693-11.86-2.887-15.85 0 0 1.294-1.992 2.49-3.388 4.578-5.68 12.443-12.26 20.208-11.264zm-13.29 3.292c-.398.1-.497-.698-.298-.798h1.095c.398 0 .398.4-.797.797zm-17.482-.588c.498.4 1.195 1.395 1.792 2.293.3.498.1 1.295.2 2.193.1 1.196.198 3.09.298 4.286.2 2.292-.1 4.186-.398 4.884-.3.798-.996.3-1.195-.897 0-.298.2-3.09.2-4.684-.1-2.69-.797-5.98-.897-8.074zm15.552-.002c.2 0 .3 0 .398.2.597.697.797 1.196.3 1.495-.698.598-1.295.398-1.694-.698-.2-.698.4-.997.996-.997zm-2.02.598c.597.4 1.194 1.495 1.294 2.193 0 .2-.2.4-.598.7-.398.398-.498.298-.995-.4-.696-1.096-.995-1.794-.895-2.193.298-.3.796-.4 1.194-.3zm24.48.2c.996.1 1.99.5 2.987.8l-1.494 1.394c-.497-.797-.995-1.495-1.493-2.193zm-26.57.7c.597.698 1.493 2.59 1.493 3.29-.1.2-.398.498-.597.597-.2.1-.3-.3-.996-1.395-1.095-1.894-1.394-2.492-.796-2.692.2 0 .697 0 .896.2zm-2.31.5c.597.5 1.99 3.39 2.09 4.187 0 .2-.1.4-.2.598-.895.997-.696.798-1.99-1.994-1.095-2.293-1.393-2.493-.697-2.792.1-.1.498-.1.797 0zm-2.2.7c.398 0 .498.698 1.294 2.193 1.294 2.89 1.792 3.29 1.493 3.59-.398.498-.597.797-.896.2-.795-1.297-1.592-2.892-2.288-4.288-.598-1.096-.598-1.196-.3-1.495.2-.2.598-.2.698-.2zm22.987.8c-.498.1-2.39.797-1.195.897.2 0 .896-.1 1.294-.2 1.195-.1 3.684.1 3.584-.1-.2-.797-2.986-.797-3.683-.598zm-24.586.3l.598 1.197c1.792 3.59 2.887 4.885 2.49 5.383-.3.3-.698.797-.897.698-.397-.2-.895-1.296-2.19-3.988-1.393-2.69-1.493-2.89-.796-3.29.3-.198.697-.298.797 0zm-1.902 1.198c.796 1.396.697 1.196.697 5.682 0 2.79-.398 4.585-.797 5.283-.2.4-.696.1-.895-.597-.1-.3.2-.798.2-1.296.297-3.39.098-6.68.098-9.868.3 0 .598.597.698.796zm21.695 1.1c.398.6.298.997.298 1.795 0 1.097.1 1.197.798.6.697-.5.697-.5 1.89.298.698.498 1.594.498 2.092 0 .398-.4.498-.2 1.095-.1.597.3.697.4 1.99-.2.797-.398.897-.398 1.395-.2.896.8.995.5.896-.497 0-.398.1-.996.2-1.394.397-1.795-.3-1.795-1.196-.698-.398.398-1.194.598-1.89.3-1.096-.5-2.79-.3-4.083-.1-1.493.298-2.19-.2-2.787-.7-.3-.298-1.096-.597-1.195-.298-.2.2 0 .598.498 1.196zm-19.913 2.596c.2 0 .498.498.896 1.694.497 1.495-.398 6.78-.996 7.676-.298.498-.498.697-1.095-.1-.2-.4-.1-.498.2-1.495.397-1.595.696-4.087.696-5.283 0-1.695.1-2.492.3-2.492zm1.802 5.092c.1 0 .298.3.497.897.298.798.198 2.393-.2 3.59-.2.697-.498 1.495-.796 2.093-.1.398-.797.2-.996-.598-.1-.5.3-1.097.498-1.894.2-.797.398-1.794.498-2.292.2-1.196.298-1.794.498-1.794zm14.742 2.31s-.1.098 0 0c-.1 0 1.394 1.693 1.792 2.092.2.2 1.99 2.293.896 1.794-2.788-1.196-5.973-.598-7.964 1.296-.3.2-.498 0-1.195-.1-1.593-.1-2.09.5-1.195 1.296.1.1.4.2.598.4.1.198.1.497.2.597 2.985 3.986 8.56 4.784 12.045 2.192.4-.3.698-.4 1.096-.3.796.2.896-.398.2-1.395-.3-.398-.698-.897-.5-.996.4-.398.698-.996-.098-1.196-.498-.2-1.096-.797-1.394-1.594-.597-.997-3.982-3.988-4.48-4.087zm-13.573 1.8c.698 0 .698 3.888 0 4.984-.397.4-1.193-.398-1.094-1.196.1-.598.797-3.588.896-3.688.1-.1.2-.1.2-.1zm13.28 2.398c.498 0 1.294.2 1.892.798.298.3.896 1.595.697 2.093-.1.3-.698.2-.798.1-.398-2.592-2.39-2.89-3.086-.5 0 0-.398.4-.498-.298.1-1.495.697-2.193 1.792-2.193zm16.586.207c.697 0 1.294.298 1.593.996.198.5.198.897.198 1.097-.1.2-.3.1-.3.1-.994-2.89-2.488-1.496-2.985 0 0 0-.498.2-.598 0-.1-.2 0-.5.2-.898.398-.797 1.194-1.296 1.89-1.296zm-13.863.2c.398 0 .995.298 1.493.797.498.498.498.797.1 1.096-.2.2-1.096.4-1.195.1l-.696-1.595c-.1-.2.1-.4.3-.4zm-5.14.1c.398 0 .498.1-.1 1.595-.1.3-1.792-.1-1.493-.798.498-.498 1.195-.797 1.593-.797zm16.702.1c.2 0 .3 0 .398.1-.1.1-.796 1.694-.796 1.694-.598-.1-1.294 0-1.394-.498-.1-.5.1-.698.996-1.097.098-.1.496-.2.795-.2zm4.953.4c.597.198.797.796.697.996-.1.2-.398.2-.597.1-.2-.2-.498-.6-.498-.898.1-.3.2-.3.398-.2zm-31.437 1.495c.2.4.5 2.492.1 2.393-.398-.1-.597-.698-.696-1.296.1-.1.398-1.097.597-1.097zm6.83 1.1c.198 0 .596.1 1.293.5 2.29 1.096 4.58 1.296 7.068.698 1.395-.4 1.793-.598 1.992-.3.3.4-.2.798-2.19 1.496-2.19.697-4.48.597-7.466-1.496-.797-.598-.896-.898-.697-.898zm25.117.603c.4.698-.896 1.396-1.493 1.595-1.394.4-3.385.2-4.58-.498-.1-.1-.198-.1-.298-.2-.995-.698-.597-1.196.498-.698 1.095.6 3.484.698 4.68.1.596-.3.994-.698 1.193-.3zm-27.96 1.298c-.1 0 .098.3.497.797 3.086 3.49 10.453 5.383 14.634 1.795 1.294-1.197 1.095-1.795-.995-.798-2.29.798-5.476.798-8.263.4-1.394-.2-3.584-.7-4.78-1.496-.596-.5-.995-.698-1.094-.698zm21.177.104c.2 0 .498.1 1.195.498 1.094.498 3.384.4 4.18.1 1.693-.598 1.99.2.4.997-1.694 1.096-4.083.598-5.576-.698-.4-.4-.697-.897-.498-.897.2-.1.298 0 .298 0zm-20.412 6.18c6.073.598 15.33 6.978 18.915 14.254h-2.09c-3.584-5.78-9.16-10.665-15.73-12.46-.3-.2-1.195-1.594-1.095-1.794zm26.987 1.316l-.3 1.993c-.996.797-4.78 3.987-7.566 8.87-.597 0-.896-.697-.797-1.195 2.29-4.386 4.978-6.878 8.662-9.67zm-24.57 1.6c1.394-.1 10.454 5.182 13.54 11.362h-1.692c-3.485-4.485-7.268-7.775-10.653-8.97-.796-.898-1.692-2.393-1.194-2.393zm24.28 1.4v2.69c-2.19 2.094-3.782 4.586-4.977 7.178H70.52s-.398-1.097-.2-1.495c1.793-3.39 3.685-5.982 6.87-8.374zm-13.728 9.972H61.87c-1.395-1.994-3.386-4.187-5.277-5.283-.797-.997-1.593-2.193-1.294-2.293 0-.797 7.167 4.486 8.162 7.576zm13.776-5.85v1.596c-1.095 1.395-1.99 2.99-2.887 4.286h-1.393c1.294-2.79 4.48-6.68 4.28-5.88zm-18.654 3.072c.498.1 2.39 2.193 2.29 2.79h-.797c-.498-.597-.995-1.594-1.394-2.192-.2-.4-.298-.698-.1-.598zm18.333.41v2.29h-1.393c-.1.1.697-1.793 1.393-2.29z"/><path id="path6313-8_1_" d="M94.882 9.703l52.066 74.162V67.418l-16.725-21.63c3.783-1.197 8.462-1.994 12.146-2.293-4.68-10.467-7.07-20.235-4.98-33.692-14.633-.3-29.268-.3-42.508-.1zm31.43 8.496c-.397 4.784-.895 10.067-.098 15.948-2.688-.997-3.385.698-3.783.897-.497-1.096-2.39-3.09-4.58-.797-1.094 1.196-.596 3.488 1.992 4.485-2.986.2-4.48-2.292-4.977-4.884-1.593-.998-3.286-1.995-3.485-5.683l.797.1c-.3 2.492 2.29 3.788 3.882 2.59.995-.796 1.094-1.892.696-3.687.797-.2 2.688-.897 2.19-3.29-.696-3.29-4.08-2.89-5.575-.697-1.293-1.595-3.583-1.894-4.578.598-.498 1.397.697 2.892 1.99 3.19-2.986.6-4.578-3.588-4.678-6.38L104.81 18.4c8.263-.2 11.847-.2 21.503-.2zm-40.63.1h6.074l44.202 57.316.1 14.254L85.682 18.3zm15.15 0h.995c.796 5.084 3.683 8.672 8.56 10.466.3 4.087 2.192 9.77 9.758 11.663-.2 4.684 2.787 9.07 5.973 11.263 0 0-.896.2-1.493.3-4.28-3.39-5.376-8.474-5.775-10.467-.1-.3-.597-.4-.896-.4-3.683-1.295-6.77-4.285-8.063-7.974l-.796-3.588c0-.5-.1-.2-1.194-.698-2.788-.997-5.476-4.087-6.67-7.775-.598-2.092-.4-2.79-.4-2.79zm-3.815 0h3.385s0 .598.1.997c.498 3.588 3.683 8.174 6.97 9.67.496.198 1.094.497 1.293.697.896 5.88 3.584 9.47 9.258 11.96.1.1.3.2.398.3.798 3.688 2.49 7.875 5.676 10.267l-1.394.1L97.017 18.3zm16.51 6.28c.795 0 1.393.598 1.393 1.395s-.598 1.396-1.394 1.396c-.797 0-1.394-.597-1.394-1.395s.597-1.395 1.394-1.395zm-46.717 7.596c.1.2-18.915 16.347-17.123 46.75l-.598.598.198.3c-.597.697-1.194 1.295-1.89 1.993 3.98 2.492 10.85 5.283 10.85 5.183l-1.294 3.09 8.263 2.69-1.095 2.892-8.064-2.69c-1.195 2.59-1.89 5.38-2.688 8.073-.1.2-.3.1-.597-.3-4.28-7.276-13.042-12.56-12.743-12.06L8.77 118.2l-.2 18.34 21.505 22.23s-6.272 3.09-9.16 5.083c2.29 1.894 4.88 3.29 7.17 5.084 4.678 3.29 7.863 8.274 10.95 11.563 14.435-7.177 28.97-6.778 41.513-2.392-1.493 1.495-3.086 2.89-4.58 4.585 3.684 9.57 2.49 28.608 2.29 29.206 7.567-7.776 18.916-24.422 17.323-47.947l3.187-3.19c-.1-.2-7.965-4.386-11.25-5.382l.896-2.89-7.865-2.492.896-2.293 7.865 2.293c1.492-3.688 3.085-8.872 3.085-8.872 3.186 4.685 6.57 9.07 13.738 13.357l30.962-29.704-.2-19.14-21.105-21.132 8.76-4.585c-.796-.698-2.09-1.296-2.886-1.994-.1 0 .2-.2.1-.2-.2-.2-.4-.3-.598-.5-.1 0-.2.2-.3.2-2.985-2.093-5.972-4.186-8.262-6.678-.1-.1 0-.3 0-.4-1.194-1.295-2.39-2.49-3.683-3.787-.596-.598-1.492-1.993-1.492-1.993l-.1-.5-1.294-1.693c-4.28 2.49-22.5 8.87-40.22 1.893l3.385-3.39c-.897-2.192-1.494-4.585-1.693-6.578-.996-7.875-.697-22.13-.697-22.13zm55.54 4.51c.796 0 1.493.697 1.493 1.495s-.697 1.496-1.493 1.496c-.796 0-1.493-.698-1.493-1.495s.697-1.494 1.493-1.494zm4.83 1.808c.696 3.688 2.39 8.97 3.982 12.56l-1.99.2c-1.594-.997-3.287-2.493-3.486-4.686-4.28 0-5.575-6.678-3.982-5.88-.2 2.292 1.493 3.19 3.086 2.99 1.394-.2 2.59-2.094.896-4.287.896-.298 1.195-.497 1.493-.896zM66.492 49.27c.3 4.686 1.195 8.076 2.09 11.664l-8.46 7.975c.596-7.277 2.687-13.856 6.37-19.638zm40.346 15.486l1.095 1.595c-12.345 7.078-33.15 7.676-45.894 1.595l1.69-1.595c11.15 4.984 29.37 5.383 43.108-1.595zm-79.36 2.442c-1.196 0-2.69.5-4.182 1.595-5.575-2.59-9.26 3.39-5.775 7.377-.496 2.89-.895 3.39 1.196 6.28-2.29.298-5.177-.3-7.566-.698.398 4.186 6.47 5.183 8.96 4.784 2.688-.598 5.276.798 5.376.798 1.593.398 2.588 1.196 4.18 1.595 2.59.598 6.372-2.393 6.97-5.383.1-.4.2-.698 0-.798-1.792.5-3.684 1.097-5.476 1.496-1.692.398-2.986.797-4.28 1.794l-.1-3.49c8.76.4 4.978-7.973 4.48-8.372 1.593-3.19-.3-6.978-3.783-6.978zm79.583.207l1.893 4.585-5.077 1.694-1.294-4.486 4.48-1.795zm-79.88.2c2.986 0 5.674 3.19 2.787 6.678 5.575 4.884-1.592 10.167-4.977 6.58-4.48 4.185-9.358-.2-6.77-4.686-4.778-4.286 1.095-10.168 5.177-6.38.995-1.595 2.39-2.193 3.783-2.193zm34.285 1.695c.696 0 1.294.598 1.294 1.295s-.6 1.296-1.295 1.296c-.697 0-1.295-.598-1.295-1.296s.598-1.295 1.295-1.295zm-32.897.105c-.1 0-.2 0-.298.1-.1 0-.498.597-1.295 1.495-1.393 1.594-1.493 1.594-1.493 1.594-1.493-.5-2.49-.2-3.385.398 0 0-1.095-.2-2.588-1.495-.698-.598-1.096-.698-1.196-.4-.1.3.2.7 1.494 1.596 1.79 1.295 1.692 1.195 1.692 1.195-.1 1.097.1 1.994.498 2.79 0 0-.3.8-1.593 2.493-.398.5-.697.997-.697 1.197 0 .697.597.2 1.89-1.496.5-.698 1.196-1.596 1.196-1.596 1.593.5 2.09.2 3.086-.1 0 0 .3.3 1.195.898 1.593 1.296 1.89 1.395 2.09 1.196.3-.2.2-.3-.398-.698-1.792-1.296-2.39-1.993-2.39-1.993.4-1.396 0-2.592-.397-3.29 0 0 0-.2.995-1.296.697-.796 1.693-2.092 1.693-2.29.1-.2 0-.3-.1-.3zm35.89.3l4.58 1.395-.996 4.784-4.878-1.596 1.294-4.585zm33.214 1.096l1.294 4.685-4.78 1.297-.795-4.984 4.282-.997zm3.533.104c.697 0 1.294.598 1.294 1.296s-.598 1.295-1.295 1.295-1.294-.597-1.294-1.294c0-.698.598-1.296 1.295-1.296zm10.866.2l3.983 3.588-4.48 2.293-2.09-4.684 2.588-1.197zm-37.78.997l4.68.598-.2 4.984-5.277-.7.797-4.883zm-16.298.103l5.177 2.292-1.892 5.184-5.277-2.293 1.992-5.183zm13.268.4c1.892.298 1.394 2.59 0 2.59-.697 0-1.294-.598-1.294-1.295s.597-1.296 1.294-1.296zm16.785 0l.597 4.984-4.778.3-.1-5.085 4.28-.2zm3.46.598c.697 0 1.294.598 1.294 1.296 0 .698-.598 1.296-1.295 1.296s-1.294-.598-1.294-1.296c0-.798.598-1.296 1.295-1.296zm-67.184.4c.698 0 1.296.6 1.296 1.297s-.598 1.295-1.295 1.295c-.695 0-1.293-.598-1.293-1.295-.1-.698.498-1.296 1.294-1.296zm56.844.002c.697 0 1.294.598 1.294 1.296 0 .698-.597 1.296-1.294 1.296-.697 0-1.294-.598-1.294-1.296 0-.698.597-1.296 1.294-1.296zm22.954.3l1.892 5.182-5.277 1.695-1.493-5.283 4.878-1.595zm3.885.1c.697 0 1.294.598 1.294 1.296 0 .697-.597 1.295-1.294 1.295-.697 0-1.294-.597-1.294-1.294 0-.698.497-1.296 1.293-1.296zm9.076 1.495l3.384 2.393-1.692.897c-.398-.997-1.195-2.193-1.693-3.29zm-48.642.503l5.078 1.097-.797 5.283-5.476-1.097L68.418 76zm-15.25.3l2.687 1.297-1.692 4.386-4.28-2.292 3.284-3.39zm11.878.3c.697 0 1.295.6 1.295 1.297s-.597 1.296-1.294 1.296c-.696 0-1.294-.597-1.294-1.295s.598-1.296 1.294-1.296zm29.124.2l.896 5.284-5.675.898-.397-5.383 5.177-.798zm21.434.102c.697 0 1.295.598 1.295 1.296 0 .697-.6 1.295-1.296 1.295s-1.294-.597-1.294-1.294c0-.698.598-1.296 1.294-1.296zm-3.986.1l1.892 4.685-5.575 2.292-1.693-4.685L111.618 77zm-14.155.3c.697 0 1.295.597 1.295 1.295s-.598 1.296-1.295 1.296c-.696 0-1.294-.597-1.294-1.295s.597-1.296 1.293-1.296zm-18.78.598l5.277.1-.1 5.383-5.773-.2.597-5.282zm42.426.3l2.09 1.496c-21.504 13.856-51.768 15.65-75.262 1.894l1.493-1.495c21.206 12.76 52.266 10.965 71.68-1.894zm-45.206.6c.696 0 1.294.598 1.294 1.296 0 .698-.598 1.296-1.294 1.296-.697 0-1.295-.598-1.295-1.296 0-.698.597-1.296 1.294-1.296zm10.647.3c.698 0 1.296.6 1.296 1.297 0 .698-.598 1.296-1.295 1.296s-1.293-.597-1.293-1.295.597-1.296 1.294-1.296zm-25.237.7l5.575 1.595-.896 4.386-6.072-1.796 1.393-4.186zm-3.796.102c.696 0 1.294.598 1.294 1.296 0 .697-.597 1.295-1.293 1.295-.697 0-1.295-.597-1.295-1.294 0-.698.598-1.296 1.295-1.296zm43.09.897l1.294 4.984-6.072 1.297-.697-4.884 5.477-1.396zm3.777.7c.697 0 1.294.6 1.294 1.297s-.597 1.295-1.294 1.295c-.697 0-1.294-.6-1.294-1.296 0-.698.497-1.296 1.294-1.296zm-80.125.8v3.49c-.996-.798-2.19-1.695-3.385-2.692 1.194.1 2.29-.2 3.384-.798zm-13.003.103c.298 0 .896.2 1.692.2 2.488 0 7.167.796 8.56 1.893.498.4 1.195.698 1.494 1.296 0 .298-.398.298-.996-.1-1.194-.7-3.086-1.396-5.674-1.695-.498-.1-.498 0-.498.2 0 .298.398.398 1.792.697 1.792.3 2.09.498 2.49.598.995.3.397.698-.698.797-4.38.4-7.666-1.495-8.362-3.688 0-.2 0-.2.2-.2zm60.97.1l5.475.697-.3 4.586-6.072-.698.896-4.585zm-46.617.4c.996.796.3 3.09-.2 3.687-.397.4-1.193.2-1.193-.3.1-.498 0-2.79.1-3.488.397-.2.895-.2 1.293.1zm63.604.2l.298 4.784-5.973.3v-4.686l5.674-.4zm-19.923.3c.698 0 1.295.597 1.295 1.295s-.597 1.296-1.294 1.296c-.696 0-1.294-.597-1.294-1.295-.1-.698.498-1.296 1.295-1.296zm-33.64.1c.2 3.488-5.176 5.88-7.167 4.784-.896-.498-.498-.797 1.194-1.096 2.29-.598 3.783-1.196 3.783-1.595 0-.3-.298-.2-1.294.1-1.394.498-2.887.697-4.28 1.295-.996.5-1.394.6-1.693.3-.498-.6 1.792-2.094 4.18-2.492 1.893-.3 3.685-1.197 5.277-1.296zm56.994.4c.697 0 1.294.597 1.294 1.295 0 .697-.597 1.295-1.294 1.295-.697 0-1.294-.598-1.294-1.295 0-.698.497-1.296 1.294-1.296zm-11.79.997c.697 0 1.294.598 1.294 1.296 0 .697-.597 1.295-1.294 1.295-.697 0-1.294-.598-1.294-1.295-.1-.798.498-1.296 1.294-1.296zm28.717 2.196c8.662 8.273 18.22 17.843 25.984 25.717v12.36l-29.965 28.61c-5.377-3.29-10.056-7.477-14.237-14.853.497-.4.896-.698 1.294-1.097l-1.593.897c-5.475-8.87-7.865-26.515 1.493-40.67l-9.457.3 1.593-3.19 10.353-.598 4.18-4.487s1.296-.2 2.39-.498c1.096-.3 3.286-.897 4.978-1.396s2.987-1.097 2.987-1.097zm-69.856 2.3s8.96 4.884 13.838 14.553c-16.028 13.856-22 29.904-23.395 46.65-8.66-8.173-13.14-12.66-21.006-20.633l.3-11.862 30.264-28.707zm33.335 1.502c-2.29 4.984-4.282 10.367-6.074 16.148l-2.49-.697s1.594-.698 2.29-1.097l-1.293-2.094 2.49-.997-1.395-1.795 2.49-1.396-1.196-1.596 2.29-1.096-1.394-1.595 2.39-1.296-1.195-1.595 3.086-.897zm.946.005s.3.1.697.1c.1 0-.398 1.296-.398 1.296.896.2.896.1 1.195.2l.697-1.397 1.095.2c-2.19 4.983-4.48 10.365-5.874 16.247l-1.294-.3s.398-1.196.398-1.395c-.2 0-.896-.3-1.095-.4-.1.2-.498 1.596-.498 1.596h-.996c1.593-6.28 4.48-13.357 6.072-16.148zm4.185.2l2.29 1.893-2.587.997 1.294 1.794-2.688.997 1.592 1.895-2.688.997 1.593 2.193-2.788.997 1.79 1.993-2.488 1.196 1.494 1.497s-1.593.498-1.693.498c-.3.1-1.294-.2-1.294-.2 1.492-5.78 3.483-11.562 6.17-16.746zm-55.033.997c-.597.4-.3 1.296-1.095 2.093-.1.1-.1.4-.2.698 0 .2-.696 2.69-.696 2.69s.2-.198.398-.996c.2-.697.398-1.993.498-2.193.597-.2.697-2.094 1.294-1.795.3.2.3.5.1 1.196-.4 1.497-.598 2.095.1 1.098 1.094-1.296 1.194-2.492 0-2.692-.1-.1-.4-.1-.4-.1zm15.88.5l-27.974 26.417-.1 9.868 9.757 9.868 6.87 6.68c2.488-15.053 8.262-29.407 22.4-41.867-2.092-3.49-5.776-7.875-10.952-10.965zm75.435.302c-16.426 7.774-20.21 23.623-15.132 38.077 7.865-10.167 14.037-19.637 15.132-38.078zm-58.1.797l7.467 2.393-2.79 9.67-6.77-2.095-.695-1.694 2.787-8.273zm57.38.302c-.697 12.858-5.576 25.418-13.938 35.286-4.28-10.566-1.692-27.412 13.937-35.287zm-39.962 0l-.497 1.196.995.3.398-1.197-.896-.3zm-1.176 2.89l-.398 1.197 1.095.4.4-1.198-1.096-.4zm44 .21c-2.29 17.842-11.948 34.09-22.102 42.364 3.185 5.283 7.068 8.672 10.85 11.463l28.573-27.512-.1-9.17-17.222-17.146zm-75.365 4.685c-.2.698-.2.997-.2.997s.298-.3 1.194-.798c5.575-2.79 3.783 1.496 1.195 3.09-.598.3-1.196.698-1.196.698l1.195.2c3.384.697 2.687 2.69-.897 2.392-.498 0-1.095-.1-1.095-.1s.2.798.498 1.396c1.194 2.99-.996 3.29-2.49 1.296-.198-.3-.696-.997-.696-.997s-.1.597-.2 1.095c-1.293 4.785-4.38 4.586-3.185-.2.1-.498.3-1.395.3-1.395s-.698.4-1.494.798c-4.08 1.794-4.678-.1-.995-2.79 1.095-.8 1.394-1.098 1.394-1.098-.698-.1-1.295-.2-1.793-.3-2.987-.697-3.684-2.49.995-2.39.697 0 1.394.1 1.394.1s-.2-.998-.498-1.796c-1.095-3.588 1.195-3.987 3.087-.797.398.698.497.698.497.698-.1 0 .1-1.197.598-2.293 2.19-4.386 3.185-.4 2.39 2.193zm50.233-3.474c-1.99 3.49-3.683 6.98-4.48 10.567l-7.665-.1c.497-3.19 1.89-6.578 3.484-10.067 3.186-.1 5.973-.2 8.66-.4zm-19.883 1.585l-.398 1.296 1.095.3.398-1.296-1.095-.3zm-57.234 2.397c-.796 2.094-1.095 4.486-1.593 6.38-.2 1.096 0 1.595.697 1.794.896.4 2.29-.1 3.086-1.196.4-.598.697-1.894.797-4.087l.1-1.994c-1.195-.2-1.992-.6-3.087-.898zm55.793.207l-.4 1.196 1.095.398.4-1.196-1.096-.4zm49.728.498c1.294 0 1.493.1 2.688.898l2.29 2.392c-.598.598-.996 1.395-.996 2.293 0 1.695 1.394 3.19 3.086 3.19.896 0 2.19-.897 2.19-.897l3.584 3.788c-2.09.898-4.18-1.195-4.878-1.993-.2-.2-.2-.3-.2-.3v.5c-.297 1.694-1.89 6.58-3.483 6.28-1.793-.3 0-7.277.098-7.177-1.194 1.295-7.068 2.69-6.67 1.196.797-2.89 5.277-3.987 5.774-4.486-2.39-1.595-5.375-5.482-3.484-5.682zm-105.006.102c.796.1 1.294.1 1.792.398.2.1.2.3.3.5 0 .796.198 3.288-.6 3.388-.895 0-1.69.2-2.288.598-.498.4-.598.1-.498-.797.1-.898.597-2.692.697-3.49.1-.398.298-.597.597-.597zm22.824 0c-1.693 0-3.087 1.396-3.087 3.19 0 1.694 1.393 3.19 3.086 3.19s3.086-1.396 3.086-3.19-1.295-3.19-3.086-3.19zm.104 1.096c1.095 0 1.99.898 1.99 2.094 0 1.096-.895 1.993-1.99 1.993s-1.99-.897-1.99-1.993c0-1.196.895-2.094 1.99-2.094zm16.227.104c7.168 12.46 6.372 29.505-2.09 41.965l9.06-.598-1.196 2.293-9.655.996c-1.494 1.396-2.788 2.89-4.28 4.386v.5c-3.286.796-6.67 1.693-10.056 2.89-1.793-1.795-5.178-5.284-5.178-5.383l.2-1.098c23.096-11.762 16.326-35.486 14.733-37.48 2.39-3.09 5.376-5.88 8.462-8.472zm63.986 2.193c.896 0 1.693.797 1.693 1.695 0 .897-.797 1.694-1.693 1.694s-1.692-.797-1.692-1.694c0-.898.797-1.695 1.693-1.695zm7.853.505l2.788 2.89c-.4.4-.896.6-1.394.6-1.095 0-1.99-.898-1.99-1.994 0-.598.198-1.097.596-1.496zm-97.33.3c.897 0 1.693.798 1.693 1.696 0 .897-.797 1.694-1.693 1.694s-1.693-.797-1.693-1.694c0-.898.797-1.695 1.693-1.695zm-12.98.8c.797.298.598.996-.398 1.694-.697.4-1.294.498-1.89.2-1.097-.698 1.193-2.293 2.288-1.895zm12.986 4.09l-10.155 9.867c.597-1.595.697-3.29.697-4.884 3.086.3 4.38-1.195 3.883-4.485 1.99.2 4.08-.1 5.575-.498zm16.385 1.208c4.68 13.557.597 27.81-14.137 36.084.597-12.958 6.073-25.318 14.137-36.084zm13.513 1.1c8.064 2.094 17.322 3.09 26.88 3.09.1 3.69.198 7.576.995 11.264-8.164-2.193-17.323-3.19-27.278-2.99.498-3.788-.1-8.174-.597-11.364zm60.29 2.097l-8.66 10.168.397-5.58c2.887.397 3.982-1.198 3.484-4.188 1.594.1 3.187-.1 4.78-.4zm-83.753.505l-.697 4.087c-1.692 0-3.385.698-3.385 4.486l-5.177-.1 9.26-8.472zm94.697.8c.896 0 1.692.797 1.692 1.694 0 .897-.796 1.695-1.692 1.695-.896 0-1.693-.798-1.693-1.695 0-.997.798-1.695 1.694-1.695zm-102.413.5c.897 0 1.694.798 1.694 1.695s-.797 1.695-1.693 1.695c-.895 0-1.69-.798-1.69-1.695s.696-1.695 1.69-1.695zm98.596 1.697l-.896 6.18c-2.39-.2-4.28.2-3.684 4.286-1.99-.198-4.778.3-6.57.4l11.15-10.865zm-7.918 1.1c.895 0 1.692.8 1.692 1.696s-.797 1.696-1.692 1.696c-.896 0-1.693-.798-1.693-1.695s.697-1.694 1.693-1.694zm-103.175 1.4c.896 0 1.692.798 1.692 1.695s-.796 1.695-1.692 1.695-1.693-.798-1.693-1.695c0-.997.797-1.694 1.693-1.694zm5.212 2c2.19.497 1.194 5.58.696 6.877 0 0 6.074-3.19 6.373-1.795.2 2.89-4.978 4.885-4.978 4.885s3.584 3.09 3.684 4.984c0 1.296-1.495.996-3.386-.598-.797-.798-1.493-1.396-1.99-1.994.696-.598 1.094-1.396 1.094-2.392 0-1.695-1.394-3.19-3.086-3.19-.996 0-1.792.4-2.39 1.096-.497-.398-.995-.897-1.592-1.595-1.096-1.096-1.892-1.893-1.792-2.292 1.493-.996 4.38 1.795 4.68 1.994-.5-.3 1.094-5.68 2.687-5.98zm-2.962 6.185s0 .1 0 0c0 .1 0 0 0 0zm92.074-2.273c.996 0 .996 2.293.597 3.59-.298.896-.497 1.693-.497 1.693s.896-.697 1.294-.897c2.788-1.296 3.883.2 2.39 1.894-.697.897-1.593 1.097-2.39 1.794 1.096 0 2.29.3 3.186.8.697.398 1.295.996 1.295 1.295 0 .698-1.79 1.096-3.484.897-.697 0-1.99-.4-1.99-.4s.597.898.796 1.496c.597 1.695.398 3.788-.498 3.788-1.493-.4-2.19-2.093-2.788-3.29-.497 1.297-.995 2.792-1.99 3.79-1.096.995-1.594.198-1.594-1.497 0-.698.498-2.692.498-2.692-6.272 2.093-5.873-.797-.896-3.29-2.986-1.495-4.878-2.79.3-3.09-.1-.1-.997-2.89-.1-3.588.895-.598 2.787 1.495 2.886 1.595 0-.2.498-1.794 1.394-2.99.697-.5 1.195-.898 1.593-.898zm-5.36 6.074zm27.55-1.774c-1.096.1-1.793 1.096-2.29 1.894-.1.2-.3.2-.4.498-.496 1.495-.895 3.19-1.094 5.383.697.3 2.29.798 2.987.5.2-.1.1-.6.2-.798 1.094-2.79 1.592-4.785 1.592-6.08 0-.998-.3-1.496-.996-1.396zm-112.67-.205c1.094 0 1.99.898 1.99 2.094 0 .698-.3 1.196-.796 1.595-1.294-1.297-1.99-1.995-2.887-2.892.498-.498 1.096-.797 1.693-.797zm112.685.997c.3.698-.597 1.395-1.792 1.395-.697 0-.896.1-.597-.498.398-.698 1.792-2.193 2.39-.897zm-14.923-.495c.895 0 1.692.797 1.692 1.694 0 .897-.797 1.695-1.693 1.695-.897 0-1.693-.797-1.693-1.694 0-.897.796-1.694 1.692-1.694zm-89.27.098c.896 0 1.692.797 1.692 1.694 0 .897-.796 1.695-1.692 1.695-.896 0-1.692-.8-1.692-1.696 0-.897.796-1.694 1.692-1.694zm79.64.698c-1.69 0-3.085 1.395-3.085 3.19s1.394 3.19 3.086 3.19 3.087-1.396 3.087-3.19-1.394-3.19-3.086-3.19zm-41.452.5c-.797 3.59-2.09 7.078-3.684 10.467-2.987.2-6.272.3-8.462.598 3.584-6.28 3.683-7.775 4.978-11.164l7.168.098zm4.99.5c.895.1 1.79.2 2.587.4-1.493 5.482-3.584 11.064-6.172 16.446l-1.593-.2-.796-.896 2.488-.997-1.99-1.993 3.285-.996-1.99-1.993 3.184-.797-1.69-2.094 2.886-1.096-1.792-2.392 3.086-.898-1.493-2.492zm36.658.102c1.095 0 1.99.897 1.99 2.093s-.895 1.994-1.99 1.994-1.99-.898-1.99-1.994c0-1.097.895-2.093 1.99-2.093zm-33.286.4l1.095.198-.3 1.196 1.196.3.4-1.297s.995.1 1.094.2c-1.294 5.283-5.873 16.248-5.873 16.148l-1.194-.2.3-1.096-1.096-.2-.498 1.196-1.195-.1c2.788-6.48 4.68-11.463 6.073-16.347zm56.994.4c.896 0 .796.397.2 2.092-.6 1.495-.798 2.193-1.096 2.392-.697.5-2.19.1-1.99-.598.397-2.292.496-3.29 1.094-3.588.597-.2 1.194-.3 1.792-.3zm-52.607.2l2.788.498-2.39 1.395 1.494 1.795-2.888 1.196 1.792 1.794-2.788 1.096 1.692 1.994-2.887 1.196 1.992 1.695-3.285.996 1.195 1.893-1.195.697-1.493-.2c2.588-5.78 4.18-10.565 5.973-16.048zm6.732 1.396l5.474 1.495 1.095 1.994-2.59 8.772-7.366-2.193 3.385-10.067zm-10.92.8l-.5 1.397 1.196.3.498-1.496-1.195-.2zm-1.145 3.293l-.498 1.395 1.095.2.498-1.496-1.095-.1zm-1.1 2.9l-.498 1.396 1.095.2.498-1.396-1.095-.2zm51.663 2.7s-.597.4-.697.6c.1.298.5.797.4 1.196 0 .2-.3.498-.697.897-.996 1.196-1.394 1.096-.797-.2.2-.398.3-.797.3-.797-.2.3-.4.698-.598 1.096-.3.698-.697 1.296-.697 1.296.698.2 1.096.698 1.494.997 0 0 .2-.598.398-1.096.2-.8.598-1.098 1.095-1.397.3-.2.598-.498.598-.498-.498-.698-.498-1.496-.797-2.094zm-52.53.31l-.6 1.494 1.096.3.598-1.596-1.095-.2zm-62.46 3.888c-.098 6.08.1 10.067-.098 16.546l16.326 21.232-2.588.898s0 .3-.2.3c-3.484.995-9.158 1.892-9.158 1.892 4.18 9.67 6.97 21.73 5.077 33.792l42.31-.1-51.668-74.56zm89.12 10.28l-1.492 1.494c-21.504-11.662-51.07-11.662-72.774 2.492l-1.792-1.296c23.694-15.25 52.764-15.15 76.06-2.69zm-88.2-8.142l49.776 71.77-5.874.1L9.197 167.68v-14.254zm106.423 1.27s-1.393.4-2.687.797c-3.484 1.097-5.077 3.09-4.78 5.88.1.8.3.8 1.694-.098 3.285-2.094 3.484-2.193 7.566-3.39.3-.1.796 0 .796 0l-.2 3.29c-6.87 0-6.47 5.482-4.48 8.274-.697 1.294-2.19 5.88 2.788 7.674 2.49.498 5.077-1.495 4.977-1.595 4.58 2.192 9.856-1.496 5.775-7.776 1.592-2.79.497-4.785-.996-6.58 0 0 .3 0 2.39.4 3.285.598 4.58.498 4.58.498 0-2.99-2.49-4.286-7.567-4.685-3.584.4-9.856-2.69-9.856-2.69zm-54.673.303h.697l-.2 5.083-5.574.3-.398-5.085c1.99-.1 3.783-.3 5.475-.3zm6.423.2l5.973.697-.896 4.685-5.475-.598.398-4.785zm48.413 0c.498.1.3.598-.3.797-1.094.2-3.782 1.795-3.782 2.193 0 .3.1.2 1.096-.3.498-.298 1.593-.696 2.29-.995.797-.3 1.693-.698 1.99-.798.897-.4 1.395-.1 1.096.698-.2.498-.298.598-2.49 1.296-1.89.6-2.288.798-3.483 1.596-.5.3-1.295.797-1.793.996-1.294.698-1.493.698-1.493-.2-.1-2.59 2.787-4.584 6.77-5.182-.1-.1.1-.1.1-.1zm-51.352.598c.698 0 1.395.598 1.395 1.396 0 .797-.597 1.395-1.394 1.395s-1.392-.6-1.392-1.396c0-.798.597-1.396 1.393-1.396zm-14.964.4l.398 4.586-5.475 1.396-1.295-4.785c2.19-.5 4.28-.798 6.37-1.196zm70.318.3c1.494.2 1.394 3.69.598 4.287-1.195.897-1.892-.897-1.394-3.29.1-.697.398-.896.796-.996zm-66.982.2c.697 0 1.394.6 1.394 1.397s-.598 1.395-1.394 1.395c-.697 0-1.394-.598-1.394-1.395 0-.798.597-1.396 1.394-1.396zm26.378.4l6.173 1.695-1.494 4.785-5.775-1.595 1.095-4.884zm-3.265.102c.697 0 1.394.598 1.394 1.395 0 .798-.598 1.396-1.395 1.396-.697 0-1.394-.597-1.394-1.395 0-.797.6-1.395 1.395-1.395zm50.558.4c2.688 0 6.172 1.394 6.172 3.388-.1.598-5.575-.2-8.163-1.196-.896-.4-1.99-1.496-1.99-1.894 0-.3.497-.3.795 0 .4.398 1.593.897 4.58 1.595 2.29.598 2.49.598 2.49.2 0-.3-1.295-.7-2.79-.998-.696-.1-1.392-.3-2.488-.4-.498 0-.598-.298-.2-.597.4 0 .896-.1 1.593-.1zm-4.552 1.096c.698.3.897.898 1.296 1.296-.498.2-.697.4-1.394.5 0-.5-.1-1.098.1-1.796zm-80.857.403c.696 0 1.393.597 1.393 1.394 0 .798-.597 1.396-1.393 1.396-.697 0-1.394-.598-1.394-1.396 0-.797.596-1.395 1.393-1.395zm-4.046.3l1.493 4.684-5.177 2.293-1.89-4.685c1.79-.897 3.782-1.595 5.574-2.293zm24.174.797h5.576l-.298 5.284H61.29l-.1-5.283zm-5.465.302l.3 5.282-4.98.698-.995-5.283 5.675-.698zm31.533.1c.697 0 1.394.598 1.394 1.395 0 .798-.597 1.396-1.394 1.396s-1.393-.597-1.393-1.395c.1-.797.697-1.395 1.393-1.395zm36.38.1c3.086 0 5.973 3.488 2.986 7.177 4.978 3.788-.398 10.167-4.778 6.48-6.272 6.18-9.757-2.194-7.168-4.387-3.783-6.28.896-10.267 5.674-7.476.797-1.296 2.09-1.794 3.285-1.794zm-50.81.1l5.476 1.196-1.095 5.183-5.377-1.097.996-5.283zm17.89.2l4.978 2.49-3.882 3.79-2.887-1.396L90.72 161zm-32.074.598c.697 0 1.394.598 1.394 1.396 0 .797-.597 1.395-1.394 1.395-.697 0-1.394-.6-1.394-1.396.1-.798.697-1.396 1.394-1.396zm10.707.102c.698 0 1.395.598 1.395 1.395 0 .798-.597 1.396-1.394 1.396-1.99-.398-1.392-2.69 0-2.79zm-24.938.797l1.195 5.184-5.078 1.695-1.792-5.083 5.674-1.795zm3.372.402c.697 0 1.394.597 1.394 1.394 0 .798-.597 1.396-1.394 1.396-.697 0-1.393-.598-1.393-1.396.1-.797.697-1.395 1.394-1.395zm75.278 2.392c-.398.5-.896.997-.896.997-1.294-.5-2.488-.3-3.285.298 0 0-.895-.698-1.69-1.296-1.395-1.096-1.793-1.395-1.793-.897 0 .1.498.598.995 1.097 1.593 1.296 1.892 1.794 1.892 1.794-.398 1.196-.398 2.193.3 3.19 0 0 0 .1-.5.697-.995 1.097-1.99 2.692-1.79 2.89.297.3 1.094-.398 2.19-1.793.696-.997.995-.997.995-.997 1.293.3 1.99.698 3.184-.4 0 0 .498.1 1.394.9 1.493 1.195 1.99 1.494 2.19 1.095.1-.3-.1-.598-1.294-1.495-.796-.598-1.692-1.396-1.692-1.396.298-.398.497-1.993-.498-3.09 0 0 0 .1 1.394-1.694.896-1.197 1.095-1.296.796-1.595-.498-.598-1.792 1.495-1.892 1.694zm-38.886-1.487l4.978 2.093-1.792 5.183-4.78-1.992 1.594-5.283zm-54.632.294c.697 0 1.394.597 1.394 1.395 0 .797-.597 1.395-1.394 1.395-.697 0-1.394-.598-1.394-1.395.1-.798.697-1.396 1.394-1.396zm50.43.2c.696 0 1.392.597 1.392 1.395 0 .797-.597 1.395-1.393 1.395s-1.394-.598-1.394-1.395c0-.798.596-1.396 1.393-1.396zm-53.832.3l1.593 3.986-3.683-2.79 2.09-1.197zm40.276 1.096l4.878.6-.796 4.684-4.28-.4.198-4.884zm-5.194.004l-.1 4.884-4.678.2-.4-4.885 5.178-.2zm-24.016.897c.696 0 1.393.598 1.393 1.396 0 .797-.596 1.395-1.392 1.395-.697 0-1.394-.598-1.394-1.395 0-.798.597-1.396 1.394-1.396zm-3.89.103l1.89 4.884-2.986 1.396-3.982-3.788 5.077-2.492zm17.603 0l.797 4.585-4.878 1.196-1.195-4.684 5.276-1.096zm69.867.1c1.095 0 1.892.897 1.892 1.894 0 1.096-.897 1.894-1.893 1.894-1.095 0-1.892-.898-1.892-1.894-.1-1.097.797-1.894 1.892-1.894zm-56.83.1c.696 0 1.393.598 1.393 1.395 0 .798-.597 1.396-1.394 1.396-.697 0-1.393-.597-1.393-1.395.1-.797.696-1.395 1.393-1.395zm13.083.498l5.177 1.695-1.792 4.187-4.48-1.197 1.095-4.685zm-23.036.2c.696 0 1.393.6 1.393 1.397s-.597 1.395-1.393 1.395c-.697 0-1.394-.598-1.394-1.395 0-.798.597-1.396 1.394-1.396zm19.707.5c.698 0 1.395.598 1.395 1.396 0 .797-.597 1.395-1.394 1.395s-1.393-.6-1.393-1.396c0-.798.598-1.396 1.394-1.396zm-32.962 1.597l1.792 4.186-4.878 2.095-2.09-4.187 5.176-2.093zm3.336.204c.697 0 1.394.597 1.394 1.395 0 .797-.597 1.395-1.394 1.395-.697 0-1.393-.598-1.393-1.395 0-.698.598-1.396 1.394-1.396zm18.035 1.296c8.063 0 15.33 1.694 21.105 4.087l-1.693 1.595c-18.915-6.48-31.26-3.59-43.903 1.993l-1.295-1.594c8.86-4.386 17.72-6.08 25.784-6.08zm21.484.104c.697 0 1.394.598 1.394 1.395 0 .798-.598 1.396-1.394 1.396-.697 0-1.394-.597-1.394-1.395 0-.797.598-1.395 1.394-1.395zm-49.183 2.89c1.096.1 1.196 2.094.698 1.496l-1.195-1.396c.2 0 .3-.1.498-.1zm50.254.907c0 1.495-1.494 11.862-6.372 18.94-.298-3.59-1.194-7.875-2.09-10.766 0 0 5.276-4.883 8.462-8.173zm-62.493 15.653l25.487 34.49H44.98c-.598-2.493-1.395-5.084-2.988-7.078-1.294-1.595-2.488-2.79-4.778-3.788-1.394-.598-1.593-.498-1.693-1.595-.397-6.08-5.275-9.87-9.058-11.265-.398-3.688-1.99-7.276-6.073-10.267l1.79-.498zm-2.77.847c2.29 1.595 4.88 2.99 6.273 9.37.1 1.296.2 1.197 1.195 1.595 4.08 1.196 7.566 6.08 7.964 10.367 0 1.295.398 1.395 1.99 2.092 1.992.798 3.983 2.592 5.078 4.287 1.693 2.49 2.29 6.18 2.19 5.98h-1.393c-.996-6.28-4.978-8.872-9.16-10.068.3-8.872-6.57-11.663-8.96-12.16.1-6.38-3.98-9.072-6.67-11.265.5-.1 1.494-.2 1.494-.2zm-4.092.9c2.09.698 3.684 3.59 3.485 4.984 2.787.3 5.674 2.992 4.977 5.783-.2.1-.497.1-.796-.2.697-5.382-7.267-2.69-4.082 1.196l-1.394.897c-1.194-5.383-2.588-8.473-4.08-12.36.497-.1 1.89-.3 1.89-.3zm6.652 11.267c.697 0 1.294.598 1.294 1.296s-.597 1.296-1.294 1.296-1.294-.6-1.294-1.296c0-.698.498-1.296 1.294-1.296zm6.9 5.917c3.085.898 4.08 3.988 3.98 5.085h-.696c-1.095-4.984-6.67-2.293-4.38 1.694-2.987 1.096-2.787 3.887-1.89 4.983 1.193 1.496 4.28 1.496 5.275-.897 2.886 3.788 6.968-.498 3.384-3.987 2.887 1.096 3.385 4.983 2.887 6.18 1.395.498 2.888 2.59 2.69 2.59H18.316s1.095-8.77-.1-15.45c1.493.4 2.39.698 4.082-1.295 2.687 2.193 4.678.598 4.48-1.396-.2-1.396-.897-1.994-2.092-2.692 2.588-.5 4.38 3.588 4.18 5.183zm2.42 6.2c.696 0 1.293.598 1.293 1.296s-.597 1.296-1.294 1.296c-.698 0-1.295-.598-1.295-1.296s.597-1.296 1.294-1.296z"/><path id="path7198-0_1_" class="st1" d="M7.97 44.79c-1.69-2.89-3.483-5.582-5.773-7.974 2.29-2.392 4.082-5.084 5.774-7.974 1.694 2.89 3.486 5.582 5.776 7.974-2.19 2.293-4.082 5.084-5.775 7.975z"/><path id="path7202-9_1_" class="st1" d="M157.7 197.8c-1.692-2.89-3.484-5.582-5.774-7.975 2.29-2.392 4.082-5.083 5.774-7.974 1.692 2.892 3.484 5.583 5.774 7.975-2.29 2.293-4.082 5.084-5.774 7.975z"/><path id="path7204-2_1_" class="st1" d="M41.82 53.363c-4.082-6.878-8.462-13.457-13.938-19.14 5.476-5.68 9.756-12.26 13.938-19.137 4.08 6.878 8.462 13.457 13.937 19.138-5.475 5.583-9.856 12.26-13.937 19.14z"/><path id="path7222-2_1_" class="st1" d="M123.852 211.556c-4.082-6.878-8.462-13.457-13.938-19.14 5.476-5.68 9.756-12.26 13.938-19.138 4.08 6.878 8.462 13.457 13.937 19.14-5.476 5.68-9.757 12.26-13.938 19.138z"/><path id="path37-2-1-6-5_1_" class="st1" d="M2.197 17.578H.007v-2.99h2.19s0-1.595.1-4.486c.1-6.08.3-6.978 2.09-8.672 3.385-3.29 9.16-.6 9.16 4.386-.1 6.977 0 13.656-.2 14.653-.398 1.693-.398 1.793-.298 2.092.297.598 2.886.897 2.886.698v2.99c-1.99.2-2.788 0-4.48-1.196-.996.997-4.082 1.894-6.47.797-1.793-.896-3.187-3.19-2.79-8.272zm-3.13 13.505c-1.096-1.595-2.888-3.688-4.68-4.486-.1 1.795 0 3.29.697 4.187.996 1.196 2.59 1.495 3.983.3zm.93-17.327c-.797-2.293-2.888-3.09-4.38-1.595-.997.898-1.096 1.795-1.096 6.978v4.486C-2.492 24.62.196 28.01.196 28.01l.1-9.47c-.1-1.694-.1-3.29-.3-4.784z"/><path id="path37-3-27-1-5_1_" class="st1" d="M163.474 208.964h2.19v2.99h-2.19s0 1.595-.1 4.486c-.1 6.08-.298 6.978-2.09 8.672-3.485 3.29-9.26.598-9.16-4.386.1-6.977 0-13.656.2-14.653.398-1.694.398-1.794.3-2.093-.3-.598-2.888-.897-2.888-.698v-2.99c1.99-.2 2.787 0 4.48 1.196.995-.997 4.08-1.894 6.47-.797 1.792.997 3.186 3.19 2.788 8.274zm-17.34 3.653c1.095 1.595 2.887 3.688 4.68 4.485.098-1.794 0-3.29-.698-4.186-.996-1.296-2.59-1.595-3.983-.3zm-.93 17.228c.796 2.292 2.887 3.09 4.38 1.595.996-.898 1.095-1.795 1.095-6.978v-4.486c-2.987-.996-5.675-4.386-5.675-4.386l-.1 9.47c0 1.794.1 3.29.3 4.785z"/></g></svg>