<svg xmlns="http://www.w3.org/2000/svg" width="166.4" height="226.6" viewBox="0 0 166.4 226.6"><style type="text/css">.st0{fill:#D40000;}</style><g id="g11425-5-5_1_"><path id="path9698-0-0_1_" class="st0" d="M7.997 44.765s-1.792-2.592-4.182-5.582C2.222 37.19.928 34.996.83 33.103c-.1-2.094 1.193-4.287 3.483-4.387 2.29-.1 3.285 1.595 3.684 3.09.398-1.395 1.294-3.19 3.683-3.09 2.29.1 3.584 2.293 3.484 4.386-.1 1.894-1.393 3.987-2.986 6.08-2.39 2.99-4.18 5.583-4.18 5.583z"/><path id="path9700-3-2_1_" class="st0" d="M158.422 181.825s-1.792 2.592-4.18 5.582c-1.594 1.994-2.888 4.186-2.988 6.08-.1 2.094 1.195 4.287 3.485 4.386 2.29.1 3.284-1.595 3.682-3.09.4 1.396 1.295 3.19 3.684 3.09 2.29-.1 3.584-2.292 3.484-4.386-.1-1.894-1.394-3.987-2.986-6.08-2.39-3.09-4.182-5.582-4.182-5.582z"/><path id="path9714-6-6_1_" class="st0" d="M83.26 132.383s-3.684-6.08-8.76-13.257c-3.386-4.785-6.074-9.968-6.273-14.454-.3-5.083 2.39-10.267 7.367-10.466 4.878-.2 6.87 3.987 7.665 7.376.796-3.488 2.787-7.675 7.665-7.376 4.878.2 7.566 5.383 7.367 10.466-.3 4.486-2.887 9.67-6.272 14.454-5.077 7.177-8.76 13.257-8.76 13.257z"/><path id="path41-87-8-3-9_1_" class="st0" d="M.032 26.324V24.03h2.19L6.802.01H9.39l5.078 24.023h1.692v2.294h-5.973V24.03h1.593l-.598-3.687H5.21l-.5 3.688h1.594v2.294H.032zm-21.68-327.996l-2.588-12.86-2.39 12.86h4.98z"/><path id="path41-8-5-1-8-7_1_" class="st0" d="M150.36 200.266v2.292h2.19l4.578 24.023h2.59l5.076-24.022h1.692v-2.292h-5.973v2.292h1.593l-.597 3.688h-5.975l-.497-3.688h1.592v-2.292h-6.27zM97.892-428.894l-2.588 12.86-2.39-12.86h4.978z"/></g></svg>