<svg xmlns="http://www.w3.org/2000/svg" width="165.3" height="226.6" viewBox="0 0 165.3 226.6"><style type="text/css">.st0{fill:#D40000;}</style><g id="g11398-8-7_1_"><path id="path9766-0-8_1_" class="st0" d="M7.46 44.765s-1.79-2.592-4.18-5.582C1.687 37.19.393 34.996.293 33.103c-.1-2.094 1.195-4.287 3.485-4.387 2.29-.1 3.285 1.595 3.683 3.09.4-1.395 1.295-3.19 3.685-3.09 2.29.1 3.583 2.293 3.484 4.386-.1 1.894-1.395 3.987-2.988 6.08-2.39 2.99-4.18 5.583-4.18 5.583z"/><path id="path9768-3-3_1_" class="st0" d="M157.887 181.825s-1.792 2.592-4.18 5.582c-1.594 1.994-2.89 4.186-2.988 6.08-.1 2.094 1.194 4.287 3.483 4.386 2.29.1 3.286-1.595 3.684-3.09.398 1.396 1.294 3.19 3.683 3.09 2.29-.1 3.584-2.292 3.485-4.386-.1-1.894-1.394-3.987-2.987-6.08-2.49-3.09-4.18-5.582-4.18-5.582z"/><path id="path9772-1-7_1_" class="st0" d="M82.624 53.337s-3.683-6.08-8.76-13.257c-3.385-4.785-6.073-9.968-6.272-14.454-.3-5.084 2.39-10.267 7.366-10.466 4.88-.2 6.87 3.987 7.666 7.376.797-3.49 2.788-7.675 7.666-7.376 4.878.2 7.566 5.382 7.367 10.466-.3 4.486-2.887 9.67-6.272 14.454-4.978 7.177-8.76 13.257-8.76 13.257z"/><path id="path9786-2-1_1_" class="st0" d="M82.624 173.252s-3.683 6.08-8.76 13.258c-3.385 4.784-6.073 9.968-6.272 14.453-.3 5.084 2.39 10.267 7.366 10.467 4.88.2 6.87-3.987 7.666-7.376.797 3.488 2.788 7.675 7.666 7.376 4.878-.2 7.566-5.383 7.367-10.467-.3-4.485-2.887-9.67-6.272-14.453-4.978-7.177-8.76-13.258-8.76-13.258z"/><path id="path15-34-0-0-4_1_" class="st0" d="M-.006 26.224l.1-1.595c.398-4.985 1.493-6.68 7.566-11.962 2.987-2.492 3.982-3.788 4.082-5.283.398-3.39-2.688-4.486-4.58-4.486-2.588 0-5.475 1.494-4.08 5.182L.193 8.98c-.598-3.39 0-6.58 2.688-7.975C6.465-.79 11.045-.09 13.335 2.8c1.593 1.893 1.89 4.585 1.095 6.678-2.49 5.383-10.752 7.675-11.45 13.955h9.16v-3.49h2.688v6.38l-14.834-.1z"/><path id="path15-5-4-5-2-7_1_" class="st0" d="M165.353 200.365l-.1 1.595c-.397 4.984-1.493 6.68-7.565 11.962-2.987 2.492-3.982 3.788-4.082 5.283-.398 3.39 2.688 4.486 4.58 4.486 2.588 0 5.475-1.495 4.08-5.183l2.888-.897c.598 3.39 0 6.58-2.688 7.974-3.584 1.795-8.163 1.097-10.453-1.794-1.593-1.894-1.89-4.585-1.095-6.678 2.49-5.383 10.752-7.676 11.45-13.956h-9.26v3.49h-2.688v-6.38l14.933.1z"/></g></svg>