<!-- Generator: Adobe Illustrator 19.2.1, SVG Export Plug-In  -->
<svg version="1.1"
	 xmlns="http://www.w3.org/2000/svg" xmlns:xlink="http://www.w3.org/1999/xlink" xmlns:a="http://ns.adobe.com/AdobeSVGViewerExtensions/3.0/"
	 x="0px" y="0px" width="165.3px" height="226.6px" viewBox="0 0 165.3 226.6" style="enable-background:new 0 0 165.3 226.6;"
	 xml:space="preserve">
<style type="text/css">
	.st0{fill:#D40000;}
</style>
<defs>
</defs>
<g id="g11398-8-7_1_" transform="matrix(0.99553774,0,0,0.99680134,10.746305,318.48631)">
	<g id="g9752-8-0_1_" transform="translate(725.23204,-1064)">
	</g>
	<g id="g9758-0-6_1_" transform="translate(751.82359,-1083.9055)">
	</g>
	<path id="path9766-0-8_1_" class="st0" d="M-3.3-274.6
		c0,0-1.8-2.6-4.2-5.6c-1.6-2-2.9-4.2-3-6.1c-0.1-2.1,1.2-4.3,3.5-4.4c2.3-0.1,3.3,1.6,3.7,3.1c0.4-1.4,1.3-3.2,3.7-3.1
		c2.3,0.1,3.6,2.3,3.5,4.4c-0.1,1.9-1.4,4-3,6.1C-1.5-277.2-3.3-274.6-3.3-274.6z"/>
	<path id="path9768-3-3_1_" class="st0" d="M147.8-137.1
		c0,0-1.8,2.6-4.2,5.6c-1.6,2-2.9,4.2-3,6.1c-0.1,2.1,1.2,4.3,3.5,4.4c2.3,0.1,3.3-1.6,3.7-3.1c0.4,1.4,1.3,3.2,3.7,3.1
		c2.3-0.1,3.6-2.3,3.5-4.4c-0.1-1.9-1.4-4-3-6.1C149.5-134.6,147.8-137.1,147.8-137.1z"/>
	<path id="path9772-1-7_1_" class="st0" d="M72.2-266
		c0,0-3.7-6.1-8.8-13.3c-3.4-4.8-6.1-10-6.3-14.5c-0.3-5.1,2.4-10.3,7.4-10.5c4.9-0.2,6.9,4,7.7,7.4c0.8-3.5,2.8-7.7,7.7-7.4
		c4.9,0.2,7.6,5.4,7.4,10.5c-0.3,4.5-2.9,9.7-6.3,14.5C76-272.1,72.2-266,72.2-266z"/>
	<path id="path9786-2-1_1_" class="st0" d="M72.2-145.7
		c0,0-3.7,6.1-8.8,13.3c-3.4,4.8-6.1,10-6.3,14.5c-0.3,5.1,2.4,10.3,7.4,10.5c4.9,0.2,6.9-4,7.7-7.4c0.8,3.5,2.8,7.7,7.7,7.4
		c4.9-0.2,7.6-5.4,7.4-10.5c-0.3-4.5-2.9-9.7-6.3-14.5C76-139.6,72.2-145.7,72.2-145.7z"/>
	<path id="path15-34-0-0-4_1_" class="st0" d="M-10.8-293.2l0.1-1.6c0.4-5,1.5-6.7,7.6-12
		c3-2.5,4-3.8,4.1-5.3c0.4-3.4-2.7-4.5-4.6-4.5c-2.6,0-5.5,1.5-4.1,5.2l-2.9,0.9c-0.6-3.4,0-6.6,2.7-8c3.6-1.8,8.2-1.1,10.5,1.8
		c1.6,1.9,1.9,4.6,1.1,6.7c-2.5,5.4-10.8,7.7-11.5,14h9.2v-3.5h2.7v6.4L-10.8-293.2L-10.8-293.2z"/>
	<path id="path15-5-4-5-2-7_1_" class="st0" d="M155.3-118.5l-0.1,1.6c-0.4,5-1.5,6.7-7.6,12
		c-3,2.5-4,3.8-4.1,5.3c-0.4,3.4,2.7,4.5,4.6,4.5c2.6,0,5.5-1.5,4.1-5.2l2.9-0.9c0.6,3.4,0,6.6-2.7,8c-3.6,1.8-8.2,1.1-10.5-1.8
		c-1.6-1.9-1.9-4.6-1.1-6.7c2.5-5.4,10.8-7.7,11.5-14H143v3.5h-2.7v-6.4L155.3-118.5L155.3-118.5z"/>
</g>
</svg>
