<svg xmlns="http://www.w3.org/2000/svg" width="167.4" height="226.6" viewBox="0 0 167.4 226.6"><style type="text/css">.st0{fill:#D40000;}</style><g id="g11369-4-9_1_"><path id="path9834-5-2_1_" class="st0" d="M8.518 44.765s-1.792-2.592-4.18-5.582c-1.594-1.994-2.888-4.187-2.988-6.08-.1-2.094 1.195-4.287 3.485-4.387 2.29-.1 3.285 1.595 3.683 3.09.4-1.395 1.294-3.19 3.684-3.09 2.29.1 3.584 2.293 3.484 4.386-.1 1.894-1.394 3.987-2.986 6.08-2.39 2.99-4.182 5.583-4.182 5.583z"/><path id="path9836-5-8_1_" class="st0" d="M158.844 181.825s-1.79 2.592-4.18 5.582c-1.594 1.994-2.888 4.186-2.987 6.08-.1 2.094 1.194 4.287 3.484 4.386 2.29.1 3.286-1.595 3.684-3.09.4 1.396 1.295 3.19 3.684 3.09 2.29-.1 3.584-2.292 3.484-4.386-.1-1.894-1.393-3.987-2.986-6.08-2.39-3.09-4.182-5.582-4.182-5.582z"/><path id="path9840-3-6_1_" class="st0" d="M83.68 53.337S80 47.257 74.92 40.08c-3.384-4.785-6.072-9.968-6.27-14.454-.3-5.084 2.388-10.267 7.366-10.466 4.878-.2 6.87 3.987 7.665 7.376.798-3.49 2.79-7.675 7.667-7.376 4.878.2 7.566 5.382 7.367 10.466-.3 4.486-2.887 9.67-6.272 14.454-4.978 7.177-8.76 13.257-8.76 13.257z"/><path id="path9850-2-3_1_" class="st0" d="M83.68 132.383s-3.682-6.08-8.76-13.257c-3.384-4.785-6.072-9.968-6.27-14.454-.3-5.083 2.388-10.267 7.366-10.466 4.878-.2 6.87 3.987 7.665 7.376.798-3.488 2.79-7.675 7.667-7.376 4.878.2 7.566 5.383 7.367 10.466-.3 4.486-2.887 9.67-6.272 14.454-4.978 7.177-8.76 13.257-8.76 13.257z"/><path id="path9854-8-0_1_" class="st0" d="M83.68 173.252s-3.682 6.08-8.76 13.258c-3.384 4.784-6.072 9.968-6.27 14.453-.3 5.084 2.388 10.267 7.366 10.467 4.878.2 6.87-3.987 7.665-7.376.798 3.488 2.79 7.675 7.667 7.376 4.878-.2 7.566-5.383 7.367-10.467-.3-4.485-2.887-9.67-6.272-14.453-4.978-7.177-8.76-13.258-8.76-13.258z"/><path id="path17-2-9-8-4_1_" class="st0" d="M-.043 20.542l1.99-1.495c1.793 2.89 3.684 4.785 6.77 4.386 4.48-.3 6.372-5.084 5.476-8.572-.896-3.19-4.68-4.784-7.566-3.09-.697.4-1.394.698-1.494.698-.298 0-.995-1.395-.896-1.794 1.992-2.89 6.87-7.974 6.87-7.974H3.54v3.39H.655V.007h14.634v2.094s-3.982 4.086-5.276 6.38c3.185.1 5.774 2.192 6.77 5.382.497 1.694.298 5.582-.4 7.276-1.194 2.792-4.48 5.084-7.366 5.184-5.077.3-7.666-3.19-9.06-5.782z"/><path id="path17-5-3-9-1-3_1_" class="st0" d="M167.406 206.047l-1.99 1.495c-1.793-2.89-3.684-4.784-6.77-4.386-4.48.3-6.372 5.084-5.476 8.573.896 3.19 4.68 4.784 7.566 3.09.697-.4 1.394-.7 1.493-.7.298 0 .995 1.397.895 1.795-1.99 2.89-6.87 7.975-6.87 7.975h7.567v-3.39h2.887v6.18h-14.735v-2.092s3.982-4.087 5.277-6.38c-3.186-.1-5.774-2.193-6.77-5.383-.498-1.694-.3-5.582.398-7.276 1.195-2.792 4.48-5.085 7.367-5.185 5.177-.398 7.865 3.09 9.16 5.682z"/></g></svg>