<svg xmlns="http://www.w3.org/2000/svg" width="167.4" height="226.6" viewBox="0 0 167.4 226.6"><g><path d="M83.687 15.348c-7.8.2-11.3 9-5.5 15.8.8 1 .9 1.6-.6.6-3.9-2.6-11.4-.9-11.8 7.1-.5 9.8 13.3 12.7 15.8 2.2.1-1.1 1-1.1.8.5-.2 4.2-1.6 8.2-3.4 12.1h9.3c-1.8-3.9-3.1-7.8-3.4-12.1-.2-1.6.7-1.6.8-.5 2.6 10.4 16.3 7.6 15.8-2.2-.4-8-7.9-9.7-11.8-7.1-1.5 1-1.5.4-.6-.6 6-6.8 2.4-15.6-5.4-15.8z"/><path d="M83.687 211.848c-7.8-.2-11.3-9-5.5-15.8.8-1 .9-1.6-.6-.6-3.9 2.6-11.4.9-11.8-7.1-.5-9.8 13.3-12.7 15.8-2.2.1 1.1 1 1.1.8-.5-.2-4.2-1.6-8.2-3.4-12.1h9.3c-1.8 3.9-3.1 7.8-3.4 12.1-.2 1.6.7 1.6.8.5 2.6-10.4 16.3-7.6 15.8 2.2-.4 8-7.9 9.7-11.8 7.1-1.5-1-1.5-.4-.6.6 6 6.9 2.4 15.7-5.4 15.8z"/><path d="M83.687 94.448c-7.8.2-11.3 9-5.5 15.8.8 1 .9 1.6-.6.6-3.9-2.6-11.4-.9-11.8 7.1-.5 9.8 13.3 12.7 15.8 2.2.1-1.1 1-1.1.8.5-.2 4.2-1.6 8.2-3.4 12.1h9.3c-1.8-3.9-3.1-7.8-3.4-12.1-.2-1.6.7-1.6.8-.5 2.6 10.4 16.3 7.6 15.8-2.2-.4-8-7.9-9.7-11.8-7.1-1.5 1-1.5.4-.6-.6 6-6.8 2.4-15.6-5.4-15.8z"/><path d="M158.887 197.748c3.1-.1 4.5-3.7 2.2-6.6-.3-.4-.4-.7.2-.3 1.6 1.1 4.6.4 4.7-2.9.2-4.1-5.3-5.3-6.3-.9-.1.5-.4.4-.3-.2.1-1.8.6-3.4 1.4-5h-3.7c.7 1.6 1.3 3.3 1.4 5 .1.7-.3.7-.3.2-1-4.4-6.5-3.2-6.3.9.2 3.3 3.1 4 4.7 2.9.6-.4.6-.2.2.3-2.4 2.9-1 6.5 2.1 6.6z"/><path d="M8.487 28.848c-3.1 0-4.5 3.7-2.2 6.6.3.4.4.7-.2.3-1.6-1.1-4.6-.4-4.7 2.9-.2 4.1 5.3 5.3 6.3.9.1-.5.4-.4.3.2-.1 1.8-.6 3.4-1.4 5h3.7c-.7-1.6-1.3-3.3-1.4-5-.1-.7.3-.7.3-.2 1 4.4 6.5 3.2 6.3-.9-.2-3.3-3.1-4-4.7-2.9-.6.4-.6.2-.2-.3 2.5-2.9 1.1-6.6-2.1-6.6z"/><path d="M-.013 20.548l2-1.5c1.8 2.9 3.7 4.7 6.7 4.4 4.5-.3 6.4-5 5.4-8.6-.9-3.2-4.6-4.8-7.6-3.1-.7.4-1.4.7-1.5.7-.3 0-1-1.4-.9-1.8 2-2.9 6.8-8 6.8-8h-7.6v3.4h-2.9v-6h14.8v2.1s-4 4.1-5.3 6.4c3.2.1 5.8 2.2 6.7 5.4.5 1.7.3 5.6-.4 7.3-1.2 2.8-4.4 5.1-7.4 5.2-4.8.2-7.5-3.3-8.8-5.9z"/><path d="M167.387 206.048l-2 1.5c-1.8-2.9-3.7-4.7-6.7-4.4-4.5.3-6.4 5-5.4 8.6.9 3.2 4.6 4.8 7.6 3.1.7-.4 1.4-.7 1.5-.7.3 0 1 1.4.9 1.8-2 2.9-6.8 8-6.8 8h7.6v-3.5h2.9v6.1h-14.8v-2.1s4-4.1 5.3-6.4c-3.2-.1-5.8-2.2-6.7-5.4-.5-1.7-.3-5.6.4-7.3 1.2-2.8 4.4-5.1 7.4-5.2 4.9-.2 7.5 3.3 8.8 5.9z"/></g></svg>