<svg xmlns="http://www.w3.org/2000/svg" width="166.3" height="226.6" viewBox="0 0 166.3 226.6"><style type="text/css">.st0{fill:#D40000;}</style><g id="g11270-7-7_1_"><path id="path10038-5-0_1_" class="st0" d="M8.007 44.765s-1.792-2.592-4.18-5.582C2.232 37.19.936 34.996.838 33.103c-.1-2.094 1.194-4.287 3.483-4.387 2.29-.1 3.286 1.595 3.684 3.09.398-1.395 1.294-3.19 3.683-3.09 2.29.1 3.584 2.293 3.485 4.386-.1 1.894-1.394 3.987-2.987 6.08-2.49 2.99-4.18 5.583-4.18 5.583z"/><path id="path10040-7-6_1_" class="st0" d="M158.333 181.825s-1.792 2.592-4.18 5.582c-1.594 1.994-2.888 4.186-2.988 6.08-.1 2.094 1.195 4.287 3.484 4.386 2.29.1 3.285-1.595 3.683-3.09.398 1.396 1.294 3.19 3.683 3.09 2.29-.1 3.584-2.292 3.485-4.386-.1-1.894-1.393-3.987-2.986-6.08-2.39-3.09-4.18-5.582-4.18-5.582z"/><path id="path10046-1-1_1_" class="st0" d="M41.955 53.337s-3.684-6.08-8.76-13.257c-3.386-4.785-6.074-9.968-6.273-14.454-.3-5.084 2.39-10.267 7.367-10.466 4.877-.2 6.868 3.987 7.665 7.376.796-3.49 2.787-7.675 7.665-7.376 4.878.2 7.566 5.382 7.367 10.466-.298 4.486-2.887 9.67-6.272 14.454-5.077 7.177-8.76 13.257-8.76 13.257z"/><path id="path10048-2-0_1_" class="st0" d="M124.385 132.383s-3.683-6.08-8.76-13.257c-3.385-4.785-6.073-9.968-6.272-14.454-.3-5.083 2.39-10.267 7.366-10.466 4.878-.2 6.87 3.987 7.665 7.376.797-3.488 2.788-7.675 7.666-7.376 4.88.2 7.567 5.383 7.368 10.466-.3 4.486-2.887 9.67-6.272 14.454-5.077 7.177-8.76 13.257-8.76 13.257z"/><path id="path10052-3-1_1_" class="st0" d="M124.385 53.337s-3.683-6.08-8.76-13.257c-3.385-4.785-6.073-9.968-6.272-14.454-.3-5.084 2.39-10.267 7.366-10.466 4.878-.2 6.87 3.987 7.665 7.376.797-3.49 2.788-7.675 7.666-7.376 4.88.2 7.567 5.382 7.368 10.466-.3 4.486-2.887 9.67-6.272 14.454-5.077 7.177-8.76 13.257-8.76 13.257z"/><path id="path10056-4-2_1_" class="st0" d="M41.955 132.383s-3.684-6.08-8.76-13.257c-3.386-4.785-6.074-9.968-6.273-14.454-.3-5.083 2.39-10.267 7.367-10.466 4.877-.2 6.868 3.987 7.665 7.376.796-3.488 2.787-7.675 7.665-7.376 4.878.2 7.566 5.383 7.367 10.466-.298 4.486-2.887 9.67-6.272 14.454-5.077 7.177-8.76 13.257-8.76 13.257z"/><path id="path10066-9-2_1_" class="st0" d="M124.385 173.252s-3.683 6.08-8.76 13.258c-3.385 4.784-6.073 9.968-6.272 14.453-.3 5.084 2.39 10.267 7.366 10.467 4.878.2 6.87-3.987 7.665-7.376.797 3.488 2.788 7.675 7.666 7.376 4.88-.2 7.567-5.383 7.368-10.467-.3-4.485-2.887-9.67-6.272-14.453-5.077-7.177-8.76-13.258-8.76-13.258z"/><path id="path10068-1-2_1_" class="st0" d="M41.955 173.252s-3.684 6.08-8.76 13.258c-3.386 4.784-6.074 9.968-6.273 14.453-.3 5.084 2.39 10.267 7.367 10.467 4.877.2 6.868-3.987 7.665-7.376.796 3.488 2.787 7.675 7.665 7.376 4.878-.2 7.566-5.383 7.367-10.467-.298-4.485-2.887-9.67-6.272-14.453-5.077-7.177-8.76-13.258-8.76-13.258z"/><path id="path23-5-2-7-3_1_" class="st0" d="M.242 18.25c-.3-2.193-.3-7.975-.1-9.67C.938 3.398 2.93 1.006 6.215.21c3.186-.798 7.765.1 8.76 4.386l-2.687.1C10.794 1.803 7.11 2.5 5.12 3.795 3.427 4.793 2.73 9.08 3.03 9.28c0 0 3.085-2.294 5.574-2.194 5.276.598 7.467 5.083 7.268 9.47-.2 5.183-1.792 9.37-7.367 9.668-5.277-.1-7.766-2.99-8.263-7.974zm88.1-320.846c0-3.588-1.594-6.28-4.68-6.578-3.086-.3-6.172 2.69-5.973 6.38.198 3.687 1.69 6.777 5.375 6.777 3.982 0 5.276-3.987 5.276-6.58z"/><path id="path23-6-5-1-7-1_1_" class="st0" d="M166 208.34c.297 2.193.297 7.974.098 9.67-.796 5.182-2.787 7.574-6.073 8.372-3.185.797-7.765-.1-8.76-4.386l2.688-.1c1.493 2.89 5.176 2.193 7.167.897 1.693-.996 2.39-5.283 2.09-5.482 0 0-3.085 2.294-5.574 2.194-5.276-.598-7.466-5.084-7.267-9.47.198-5.183 1.79-9.37 7.366-9.67 5.376.1 7.765 2.992 8.263 7.976zm62.658-317.444c0 3.588 1.593 6.28 4.68 6.578 3.086.3 6.172-2.69 5.973-6.38-.198-3.687-1.692-6.777-5.375-6.777-3.982 0-5.277 3.987-5.277 6.58z"/></g></svg>