<!-- Generator: Adobe Illustrator 19.2.1, SVG Export Plug-In  -->
<svg version="1.1"
	 xmlns="http://www.w3.org/2000/svg" xmlns:xlink="http://www.w3.org/1999/xlink" xmlns:a="http://ns.adobe.com/AdobeSVGViewerExtensions/3.0/"
	 x="0px" y="0px" width="166.5px" height="226.6px" viewBox="0 0 166.5 226.6" style="enable-background:new 0 0 166.5 226.6;"
	 xml:space="preserve">
<style type="text/css">
	.st0{fill:#D40000;}
</style>
<defs>
</defs>
<g id="g11234-8-5_1_" transform="matrix(0.99553774,0,0,0.99680134,-95.965064,318.48629)">
	<g id="g10092-4-5_1_" transform="translate(2154.4627,-1064)">
	</g>
	<g id="g10098-2-4_1_" transform="translate(2181.0543,-1083.9055)">
	</g>
	<path id="path10106-2-3_1_" class="st0" d="M104.5-274.6
		c0,0-1.8-2.6-4.2-5.6c-1.6-2-2.9-4.2-3-6.1c-0.1-2.1,1.2-4.3,3.5-4.4c2.3-0.1,3.3,1.6,3.7,3.1c0.4-1.4,1.3-3.2,3.7-3.1
		c2.3,0.1,3.6,2.3,3.5,4.4c-0.1,1.9-1.4,4-3,6.1C106.3-277.2,104.5-274.6,104.5-274.6z"/>
	<path id="path10108-3-1_1_" class="st0" d="M255.5-137.1
		c0,0-1.8,2.6-4.2,5.6c-1.6,2-2.9,4.2-3,6.1c-0.1,2.1,1.2,4.3,3.5,4.4c2.3,0.1,3.3-1.6,3.7-3.1c0.4,1.4,1.3,3.2,3.7,3.1
		c2.3-0.1,3.6-2.3,3.5-4.4c-0.1-1.9-1.4-4-3-6.1C257.3-134.6,255.5-137.1,255.5-137.1z"/>
	<path id="path10110-3-5_1_" class="st0" d="M180-226.3
		c0,0-3.7-6.1-8.8-13.3c-3.4-4.8-6.1-10-6.3-14.5c-0.3-5.1,2.4-10.3,7.4-10.5c4.9-0.2,6.9,4,7.7,7.4c0.8-3.5,2.8-7.7,7.7-7.4
		c4.9,0.2,7.6,5.4,7.4,10.5c-0.3,4.5-2.9,9.7-6.3,14.5C183.8-232.5,180-226.3,180-226.3z"/>
	<path id="path10114-8-3_1_" class="st0" d="M138.6-266
		c0,0-3.7-6.1-8.8-13.3c-3.4-4.8-6.1-10-6.3-14.5c-0.3-5.1,2.4-10.3,7.4-10.5c4.9-0.2,6.9,4,7.7,7.4c0.8-3.5,2.8-7.7,7.7-7.4
		c4.9,0.2,7.6,5.4,7.4,10.5c-0.3,4.5-2.9,9.7-6.3,14.5C142.3-272.1,138.6-266,138.6-266z"/>
	<path id="path10116-2-5_1_" class="st0" d="M221.4-186.7
		c0,0-3.7-6.1-8.8-13.3c-3.4-4.8-6.1-10-6.3-14.5c-0.3-5.1,2.4-10.3,7.4-10.5c4.9-0.2,6.9,4,7.7,7.4c0.8-3.5,2.8-7.7,7.7-7.4
		c4.9,0.2,7.6,5.4,7.4,10.5c-0.3,4.5-2.9,9.7-6.3,14.5C225.2-192.8,221.4-186.7,221.4-186.7z"/>
	<path id="path10120-6-5_1_" class="st0" d="M221.4-266
		c0,0-3.7-6.1-8.8-13.3c-3.4-4.8-6.1-10-6.3-14.5c-0.3-5.1,2.4-10.3,7.4-10.5c4.9-0.2,6.9,4,7.7,7.4c0.8-3.5,2.8-7.7,7.7-7.4
		c4.9,0.2,7.6,5.4,7.4,10.5c-0.3,4.5-2.9,9.7-6.3,14.5C225.2-272.1,221.4-266,221.4-266z"/>
	<path id="path10124-1-1_1_" class="st0" d="M138.6-186.7
		c0,0-3.7-6.1-8.8-13.3c-3.4-4.8-6.1-10-6.3-14.5c-0.3-5.1,2.4-10.3,7.4-10.5c4.9-0.2,6.9,4,7.7,7.4c0.8-3.5,2.8-7.7,7.7-7.4
		c4.9,0.2,7.6,5.4,7.4,10.5c-0.3,4.5-2.9,9.7-6.3,14.5C142.3-192.8,138.6-186.7,138.6-186.7z"/>
	<path id="path10134-7-3_1_" class="st0" d="M221.4-145.7
		c0,0-3.7,6.1-8.8,13.3c-3.4,4.8-6.1,10-6.3,14.5c-0.3,5.1,2.4,10.3,7.4,10.5c4.9,0.2,6.9-4,7.7-7.4c0.8,3.5,2.8,7.7,7.7,7.4
		c4.9-0.2,7.6-5.4,7.4-10.5c-0.3-4.5-2.9-9.7-6.3-14.5C225.2-139.6,221.4-145.7,221.4-145.7z"/>
	<path id="path10136-5-7_1_" class="st0" d="M138.6-145.7
		c0,0-3.7,6.1-8.8,13.3c-3.4,4.8-6.1,10-6.3,14.5c-0.3,5.1,2.4,10.3,7.4,10.5c4.9,0.2,6.9-4,7.7-7.4c0.8,3.5,2.8,7.7,7.7,7.4
		c4.9-0.2,7.6-5.4,7.4-10.5c-0.3-4.5-2.9-9.7-6.3-14.5C142.3-139.6,138.6-145.7,138.6-145.7z"/>
	<path id="path25-43-2-3-9_1_" class="st0" d="M100.4-293.1c1.7-9.2,3.6-16.1,8.4-23.5H99v3.2
		h-2.6v-6.1h14.4l1.8,2.8c-5.2,5.6-9.9,23.8-9,23.5H100.4z"/>
	<path id="path25-7-0-2-8-2_1_" class="st0" d="M259.6-118.6c-1.7,9.2-3.6,16.1-8.4,23.5h9.9v-3.2
		h2.6v6.1h-14.4l-1.8-2.8c5.2-5.6,9.9-23.8,9-23.5L259.6-118.6L259.6-118.6z"/>
</g>
</svg>
