<svg xmlns="http://www.w3.org/2000/svg" width="167.4" height="226.6" viewBox="0 0 167.4 226.6"><style type="text/css">.st0{fill:#D40000;}</style><g id="g11195-3-7_1_"><path id="path10174-9-0_1_" class="st0" d="M8.53 44.765s-1.793-2.592-4.183-5.582c-1.593-1.994-2.887-4.187-2.986-6.08-.1-2.094 1.195-4.287 3.485-4.387 2.29-.1 3.285 1.595 3.684 3.09.397-1.395 1.293-3.19 3.682-3.09 2.29.1 3.584 2.293 3.484 4.386-.1 1.894-1.393 3.987-2.986 6.08-2.39 2.99-4.18 5.583-4.18 5.583z"/><path id="path10176-9-9_1_" class="st0" d="M158.855 181.825s-1.792 2.592-4.182 5.582c-1.592 1.994-2.887 4.186-2.986 6.08-.1 2.094 1.195 4.287 3.484 4.386 2.29.1 3.287-1.595 3.685-3.09.398 1.396 1.294 3.19 3.683 3.09 2.29-.1 3.584-2.292 3.485-4.386-.1-1.894-1.394-3.987-2.987-6.08-2.39-3.09-4.18-5.582-4.18-5.582z"/><path id="path10178-8-4_1_" class="st0" d="M83.692 92.91s-3.684-6.08-8.76-13.257c-3.386-4.785-6.074-9.968-6.273-14.454-.3-5.085 2.388-10.268 7.366-10.467 4.878-.2 6.87 3.987 7.666 7.376.796-3.49 2.787-7.676 7.665-7.377 4.878.2 7.566 5.382 7.367 10.466-.298 4.485-2.887 9.668-6.272 14.453-4.977 7.077-8.76 13.257-8.76 13.257z"/><path id="path10182-1-9_1_" class="st0" d="M42.476 53.337s-3.683-6.08-8.76-13.257c-3.385-4.785-6.073-9.968-6.272-14.454-.3-5.084 2.39-10.267 7.367-10.466 4.88-.2 6.87 3.987 7.666 7.376.797-3.49 2.788-7.675 7.666-7.376 4.878.2 7.566 5.382 7.367 10.466-.3 4.486-2.888 9.67-6.273 14.454-4.978 7.177-8.76 13.257-8.76 13.257z"/><path id="path10184-9-1_1_" class="st0" d="M124.907 132.383s-3.684-6.08-8.76-13.257c-3.386-4.785-6.074-9.968-6.273-14.454-.298-5.083 2.39-10.267 7.367-10.466 4.88-.2 6.87 3.987 7.667 7.376.796-3.488 2.787-7.675 7.666-7.376 4.878.2 7.566 5.383 7.367 10.466-.3 4.486-2.888 9.67-6.272 14.454-4.978 7.177-8.76 13.257-8.76 13.257z"/><path id="path10188-5-4_1_" class="st0" d="M124.907 53.337s-3.684-6.08-8.76-13.257c-3.386-4.785-6.074-9.968-6.273-14.454-.298-5.084 2.39-10.267 7.367-10.466 4.88-.2 6.87 3.987 7.667 7.376.796-3.49 2.787-7.675 7.666-7.376 4.878.2 7.566 5.382 7.367 10.466-.3 4.486-2.888 9.67-6.272 14.454-4.978 7.177-8.76 13.257-8.76 13.257z"/><path id="path10192-3-6_1_" class="st0" d="M42.476 132.383s-3.683-6.08-8.76-13.257c-3.385-4.785-6.073-9.968-6.272-14.454-.3-5.083 2.39-10.267 7.367-10.466 4.88-.2 6.87 3.987 7.666 7.376.797-3.488 2.788-7.675 7.666-7.376 4.878.2 7.566 5.383 7.367 10.466-.3 4.486-2.888 9.67-6.273 14.454-4.978 7.177-8.76 13.257-8.76 13.257z"/><path id="path10196-7-3_1_" class="st0" d="M83.692 133.68s-3.684 6.08-8.76 13.257c-3.386 4.784-6.074 9.968-6.273 14.453-.3 5.084 2.388 10.267 7.366 10.467 4.878.2 6.87-3.987 7.666-7.376.796 3.49 2.787 7.676 7.665 7.377 4.878-.2 7.566-5.383 7.367-10.467-.298-4.485-2.887-9.67-6.272-14.453-4.977-7.077-8.76-13.258-8.76-13.258z"/><path id="path10202-2-8_1_" class="st0" d="M124.907 173.252s-3.684 6.08-8.76 13.258c-3.386 4.784-6.074 9.968-6.273 14.453-.298 5.084 2.39 10.267 7.367 10.467 4.88.2 6.87-3.987 7.667-7.376.796 3.488 2.787 7.675 7.666 7.376 4.878-.2 7.566-5.383 7.367-10.467-.3-4.485-2.888-9.67-6.272-14.453-4.978-7.177-8.76-13.258-8.76-13.258z"/><path id="path10204-9-4_1_" class="st0" d="M42.476 173.252s-3.683 6.08-8.76 13.258c-3.385 4.784-6.073 9.968-6.272 14.453-.3 5.084 2.39 10.267 7.367 10.467 4.88.2 6.87-3.987 7.666-7.376.797 3.488 2.788 7.675 7.666 7.376 4.878-.2 7.566-5.383 7.367-10.467-.3-4.485-2.888-9.67-6.273-14.453-4.978-7.177-8.76-13.258-8.76-13.258z"/><path id="path27-00-0-7-4_1_" class="st0" d="M-.033 18.648c.1-3.488 1.394-4.884 3.883-6.678C1.858 10.475.962 8.38 1.162 6.587 1.56 2.2 4.945.007 8.628.107c3.684.1 6.87 2.99 7.168 6.28.2 2.792-.597 4.088-2.588 5.583 2.29 1.994 3.783 3.29 3.783 6.778-.1 3.49-2.986 7.576-8.163 7.775-5.077-.1-8.96-4.386-8.86-7.875zm132.268-319.448c.2-3.19-2.588-5.383-5.774-5.383-3.085 0-5.872 2.592-5.872 5.483 0 3.09 3.583 4.784 5.973 4.784 2.788 0 5.476-2.193 5.675-4.884zm-.93-11.463c.1-2.692-2.39-4.586-4.978-4.586-2.29.1-4.68 1.796-4.68 4.088 0 2.79 2.788 4.187 5.078 4.287 2.09 0 4.48-1.795 4.58-3.788z"/><path id="path27-0-1-0-8-9_1_" class="st0" d="M150.393 207.94c.1 3.49 1.393 4.885 3.882 6.68-1.99 1.495-2.887 3.588-2.688 5.382.4 4.386 3.783 6.58 7.467 6.48 3.683-.1 6.87-2.99 7.168-6.28.2-2.79-.598-4.087-2.59-5.582 2.29-1.994 3.784-3.29 3.784-6.78-.1-3.487-2.986-7.574-8.163-7.774-5.177.1-9.06 4.386-8.86 7.875zm132.843-318.84c.2 3.19-2.59 5.383-5.774 5.383-3.087 0-5.874-2.592-5.874-5.483 0-3.09 3.584-4.784 5.973-4.784 2.79 0 5.477 2.193 5.676 4.884zm-.932 11.463c.1 2.692-2.39 4.586-4.977 4.586-2.29-.1-4.68-1.796-4.68-4.088 0-2.79 2.788-4.187 5.078-4.287 2.09-.1 4.48 1.795 4.58 3.788z"/></g></svg>