<svg xmlns="http://www.w3.org/2000/svg" width="165.4" height="226.6" viewBox="0 0 165.4 226.6"><style type="text/css">.st0{fill:#D40000;}</style><g id="g11153-5-1_1_"><path id="path10240-7-9_1_" class="st0" d="M41.443 106.068s-3.683-6.08-8.76-13.258c-3.386-4.784-6.073-9.968-6.273-14.453-.298-5.084 2.39-10.267 7.367-10.467 4.88-.2 6.87 3.988 7.666 7.377.796-3.49 2.788-7.676 7.666-7.377 4.877.2 7.565 5.383 7.366 10.467-.3 4.485-2.887 9.67-6.272 14.453-4.978 7.177-8.76 13.258-8.76 13.258z"/><path id="path10242-3-8_1_" class="st0" d="M7.495 44.765s-1.792-2.592-4.18-5.582C1.72 37.19.426 34.996.326 33.103c-.1-2.094 1.195-4.287 3.485-4.387 2.29-.1 3.285 1.595 3.683 3.09.398-1.395 1.294-3.19 3.684-3.09 2.288.1 3.583 2.293 3.483 4.386-.1 1.894-1.394 3.987-2.987 6.08-2.39 2.99-4.18 5.583-4.18 5.583z"/><path id="path10244-4-5_1_" class="st0" d="M157.92 181.825s-1.79 2.592-4.18 5.582c-1.593 1.994-2.887 4.186-2.987 6.08-.1 2.094 1.195 4.287 3.484 4.386 2.29.1 3.286-1.595 3.684-3.09.4 1.396 1.295 3.19 3.684 3.09 2.29-.1 3.584-2.292 3.485-4.386-.1-1.894-1.395-3.987-2.988-6.08-2.49-3.09-4.18-5.582-4.18-5.582z"/><path id="path10250-9-0_1_" class="st0" d="M41.443 53.337s-3.683-6.08-8.76-13.257c-3.386-4.785-6.073-9.968-6.273-14.454-.298-5.084 2.39-10.267 7.367-10.466 4.88-.2 6.87 3.987 7.666 7.376.796-3.49 2.788-7.675 7.666-7.376 4.877.2 7.565 5.382 7.366 10.466-.3 4.486-2.887 9.67-6.272 14.454-4.978 7.177-8.76 13.257-8.76 13.257z"/><path id="path10254-7-3_1_" class="st0" d="M123.973 106.068s-3.683-6.08-8.76-13.258c-3.385-4.784-6.073-9.968-6.273-14.453-.298-5.084 2.39-10.267 7.367-10.467 4.88-.2 6.87 3.988 7.666 7.377.797-3.49 2.788-7.676 7.666-7.377 4.877.2 7.565 5.383 7.366 10.467-.3 4.485-2.887 9.67-6.272 14.453-5.077 7.177-8.76 13.258-8.76 13.258z"/><path id="path10256-4-7_1_" class="st0" d="M123.973 53.337s-3.683-6.08-8.76-13.257c-3.385-4.785-6.073-9.968-6.273-14.454-.298-5.084 2.39-10.267 7.367-10.466 4.88-.2 6.87 3.987 7.666 7.376.797-3.49 2.788-7.675 7.666-7.376 4.877.2 7.565 5.382 7.366 10.466-.3 4.486-2.887 9.67-6.272 14.454-5.077 7.177-8.76 13.257-8.76 13.257z"/><path id="path10258-5-9_1_" class="st0" d="M82.658 132.383s-3.683-6.08-8.76-13.257c-3.385-4.785-6.073-9.968-6.272-14.454-.3-5.083 2.39-10.267 7.367-10.466 4.878-.2 6.87 3.987 7.665 7.376.797-3.488 2.788-7.675 7.666-7.376 4.878.2 7.566 5.383 7.367 10.466-.298 4.486-2.886 9.67-6.27 14.454-4.98 7.177-8.762 13.257-8.762 13.257z"/><path id="path10266-8-9_1_" class="st0" d="M123.973 120.522s-3.683 6.08-8.76 13.257c-3.385 4.784-6.073 9.967-6.273 14.453-.298 5.083 2.39 10.267 7.367 10.466 4.88.198 6.87-3.988 7.666-7.377.797 3.49 2.788 7.675 7.666 7.376 4.877-.2 7.565-5.384 7.366-10.467-.3-4.486-2.887-9.67-6.272-14.454-5.077-7.178-8.76-13.258-8.76-13.258z"/><path id="path10268-2-7_1_" class="st0" d="M41.443 120.522s-3.683 6.08-8.76 13.257c-3.386 4.784-6.073 9.967-6.273 14.453-.298 5.083 2.39 10.267 7.367 10.466 4.88.198 6.87-3.988 7.666-7.377.796 3.49 2.788 7.675 7.666 7.376 4.877-.2 7.565-5.384 7.366-10.467-.3-4.486-2.887-9.67-6.272-14.454-4.978-7.178-8.76-13.258-8.76-13.258z"/><path id="path10270-1-4_1_" class="st0" d="M123.973 173.252s-3.683 6.08-8.76 13.258c-3.385 4.784-6.073 9.968-6.273 14.453-.298 5.084 2.39 10.267 7.367 10.467 4.88.2 6.87-3.987 7.666-7.376.797 3.488 2.788 7.675 7.666 7.376 4.877-.2 7.565-5.383 7.366-10.467-.3-4.485-2.887-9.67-6.272-14.453-5.077-7.177-8.76-13.258-8.76-13.258z"/><path id="path10272-0-7_1_" class="st0" d="M41.443 173.252s-3.683 6.08-8.76 13.258c-3.386 4.784-6.073 9.968-6.273 14.453-.298 5.084 2.39 10.267 7.367 10.467 4.88.2 6.87-3.987 7.666-7.376.796 3.488 2.788 7.675 7.666 7.376 4.877-.2 7.565-5.383 7.366-10.467-.3-4.485-2.887-9.67-6.272-14.453-4.978-7.177-8.76-13.258-8.76-13.258z"/><path id="path29-5-8-5-4_1_" class="st0" d="M.128 21.24l2.39-.797c.895 2.392 2.787 3.19 4.68 2.99 3.483-.3 4.678-4.186 4.877-7.576-1.394 1.396-3.385 2.193-5.177 2.094-5.575-.298-6.97-4.784-7.068-9.37-.2-3.887 1.493-6.777 4.28-8.073 1.494-.698 4.878-.698 6.372.1 3.385 1.794 4.68 4.884 4.48 12.26 0 6.08-1.294 13.158-7.865 13.357-3.684.598-6.57-2.392-6.97-4.984zm148.73-326.12c1.095-.696 1.792-1.394 2.29-2.39.398-.798.597-1.297.398-2.99-.3-4.387-2.59-6.88-5.974-6.38-1.89.298-2.887 1.295-3.484 3.29-1.095 3.587.3 7.774 2.887 8.77 1.195.4 2.987.3 3.883-.3z"/><path id="path29-6-2-3-6-6_1_" class="st0" d="M165.188 205.35l-2.39.797c-.895-2.393-2.786-3.19-4.678-2.99-3.484.298-4.68 4.186-4.878 7.575 1.394-1.395 3.385-2.193 5.177-2.093 5.574.298 6.967 4.783 7.067 9.37.2 3.886-1.493 6.777-4.28 8.073-1.494.698-4.88.698-6.372-.1-3.385-1.794-4.68-4.884-4.48-12.26 0-6.08 1.294-13.158 7.865-13.358 3.783-.598 6.57 2.393 6.968 4.984zm130.554-312.17c-1.095.696-1.792 1.394-2.29 2.39-.398.798-.597 1.297-.398 2.99.3 4.387 2.59 6.88 5.974 6.38 1.89-.298 2.887-1.295 3.484-3.29 1.095-3.587-.3-7.774-2.887-8.77-1.095-.4-2.887-.3-3.883.3z"/></g></svg>