<svg xmlns="http://www.w3.org/2000/svg" width="166.5" height="226.6" viewBox="0 0 166.5 226.6"><style type="text/css">.st0{fill:#D40000;} .st1{fill:#E2CF00;} .st2{fill:#131F67;}</style><g id="g5943_1_"><path id="path10378-7-1_1_" class="st0" d="M8.022 44.753s-1.8-2.5-4.2-5.5c-1.6-2-2.9-4.2-3-6-.1-2.1 1.2-4.3 3.5-4.4 2.3-.1 3.3 1.6 3.7 3.1.4-1.4 1.3-3.2 3.7-3.1 2.3.1 3.6 2.2 3.5 4.4-.1 1.9-1.4 4-3 6-2.4 3-4.2 5.5-4.2 5.5z"/><path id="path10380-5-9_1_" class="st0" d="M158.422 181.853s-1.8 2.5-4.2 5.5c-1.6 2-2.9 4.2-3 6-.1 2.1 1.2 4.3 3.5 4.4 2.3.1 3.3-1.6 3.7-3.1.4 1.4 1.3 3.2 3.7 3.1 2.3-.1 3.6-2.2 3.5-4.4-.1-1.9-1.4-4-3-6-2.5-3-4.2-5.5-4.2-5.5z"/><path id="path35-67-2-8-6_1_" class="st0" d="M7.922-.047v2.8h2.7s.1 2.7.1 8.3c0 5.5.1 8.2-.2 9.7-.9 3.6-6.1 3.6-7.2 1-.6-1.5-.4-2.7-.5-4.2h-2.8v1.7c0 4 1.4 6 4.5 6.7 3.2.9 7-.5 8.3-3.2.8-1.6.7-1.7.7-11.1 0-6.3.1-8.9.1-8.9h2.5v-2.8h-8.2z"/><path id="path35-6-7-4-8-8_1_" class="st0" d="M158.522 226.553v-2.8h-2.7s-.1-2.7-.1-8.3c0-5.5-.1-8.2.2-9.7.9-3.6 6.1-3.6 7.2-1 .6 1.5.4 2.7.5 4.2h2.9v-1.7c0-4-1.4-6-4.5-6.7-3.2-.9-7 .5-8.3 3.2-.8 1.6-.7 1.7-.7 11.1 0 6.3-.1 8.9-.1 8.9h-2.5v2.8h8.1z"/><g id="g3347-7-8-1_1_"><g id="g3000-2-1-2_1_"><path id="path2993-7-5-1_1_" class="st1" d="M151.562 17.172l-9.156 6.002-.137 7.005c-5.42-2.625-7.78-6.918-8.64-11.946-1.538 1.943-1.232 11.788-1.232 11.788-1.39.735-1.905 1.677-2.804 2.54.87 1.462 3.348 3.927 3.348 3.927-.016-.047-1.145 10.238.208 10.65 1.245-4.38 2.887-8.212 8.95-12.22 0 0 .08 16.34-.315 32.117-2.56-1.784-7.992-4.982-11.482-8.244 4.55-5.892-.082-13.58-6.86-8.477-4.39-2.4-5.056-13.704-6.142-19.632-.207-1.195-1.232-4.674-1.232-4.674s-14.48-4.03-20.69-3.715C100.59 36 99.573 52.688 76.452 55.793c-11.074 5.09-23.878 10.773-36.313 21.372-2.305 15.796-10.41 23.586-16.12 27.874.036 6.4-.05 12.74.215 19.206 0 .046 5.228-3.454 6.04-2.813 4.343 28.565 20.34 34.233 18.732 35.03-.263.12-5.24 5.282-5.24 5.282L24.26 148.8c-.68 19.742-.303 39.88-.03 59.676 3.447-1.962 9.776-6.648 9.776-6.648l.105-6.727c-.028-.634 8.864 5.608 8.893 13.033.69.47 2.225-10.68.832-11.9l3.66-3.788-3.935-3.808s.996-6.318-1.03-9.958c-1.33 8.33-8.2 10.935-8.2 10.935s-.112-30.475-.297-30.507l12.255 7.83c-6.65 9.102 5.035 12.06 6.42 7.637 7.545 7.086 4.626 15.53 7.92 25.58l21.396 3.97c-8.81-16.474.766-35.245 18.098-33.892 3.243-1.36 6.182-3.324 6.182-3.324s-2.15-3.55-4.87-6.837l-37.08-.644 17.306-32.61-11.363-.37s9.244-19.717 7.252-21.31c-.706-.564-.403-6.917-.403-6.917l10.162.39c.398-4.553-4.896-21.902-12.384-33.25l41.67.394-23.48 32.926 12.594.376-7.523 15.544 1.2 12.13-11.184.36c1.925 16.816 14.316 34.536 18.67 40.005 7.218-1.72 20.684-12.08 29.042-18.522 1.09-11.277 4.955-20.878 15.042-28.036l.043-18.57s-5.753 3.746-5.752 3.482c.026-4.014-2.045-12.383-5.893-19.848-4.122-8.01-10.882-15.26-12.435-15.705 3.577-5.448 5.105-5.934 5.06-6.012l19.477 12.59.105-59.306zm-19733.91 4314.668s-3.8 1.448-7.08 1.395c-5.9.303-10.4.785-12.803 5.652-.488 1.485.57 2.035 1.354 2.412 4.456-5.537 16.282 1.81 18.527-9.46zm-564.26 245.16c-.004.79.866 2.066 1.305.736.376-.943.463-2.493.038-3.44-1.197-.675-1.337 1.943-1.342 2.703zm-79 167.037l-5.76.024-.043 6.806 5.805.006-.002-6.836zm408.702 178.09c-.128.68-.748 3.715.657 3.18 1.657-1.275.248-7.19-.656-3.18zm306.867 199.666c-.685-.997-2.78 1.485-4.506 1.567-7.672.415-13.333-.63-14.294 7.456 4.423-2.84 10.637-1.543 14.63-2.462 2.888-.958 6.2-3.587 4.17-6.56z"/><path id="path3504-0-2-5_1_" class="st2" d="M22.795 218.015l.13-210.87 130.38.072-.128 210.87-130.382-.072zm-20328.554 5238.724c.106-2.03-.72-2.873-1.437-1.467-.172.324-.734 3.854.59 3.972.878.067.796-1.638.848-2.506zm25.35-742.867c-.012-.48-.303-.684.355-4.85-1.244-.488-2.31-2.51-1.408-3.79.357-.494.25-.603.1-1.023-.348-1.04-.174-1.876.785-2.537.604-.414.635-.538.44-1.082-.5-1.428-.03-2.82 1.33-3.307.94-.335.756-.383.852-.97.225-1.35.97-2.165 2.308-2.017 1.247.132 1.324.133 1.435-.487.304-1.704 2.35-3.55 5.02-4.804 1.33-.627 3.52-1.063 7.74-1.05 2.417-.047 5.423-.368 7.11-1.86.28-.263.67-.942.807-.848.322.22.234 1.908-.376 3.454-1.8 4.483-4.226 5.723-11.095 5.68-2.047-.108-5.068.183-6.34 1.492-.387.4-.635.786-.498 1.004 2.846.406 5.764 1.696 7.468 7.35 5.167-3.687 13.397-9.322 23.594-14.402-1.22-6.75 4.594-7.798 7.865-6.444 0 0 .08-.433-.04-.946-.12-.497-.3-1.15-.91-1.99-.153-.31-1.073-.89-.886-1.34.298-.756.16-.96-.466-1.645-.413-.45-.13-1.41-.035-1.797.128-.728.597-1.763.183-2.138-.643-.61-2.854-1.615-3.973-2.428-1.257-.923-1.282-1.745.554-4.755.842-1.762 1.625-3.632 2.295-4.9 1.013-1.9 1.114-3.154.505-4.26-.792-1.43-.658-3.118-.643-3.072 0 0-7.54-10.636-10.638-14.872l-35.422-.013-.045 80.882 6.09-5.835-1.65-1.964c-.24 1.145-.03 2.247-1.417 2.316-.476-.08-.922-.27-.996-.75zm9.403 121.264c.206-3.207-1.316-8.456-3.618-12.098.106 2.76.3 6.14-.257 8.848l3.875 3.25zm174.972 597.57c-.276-.096-2.586-.235-4.048-.306-4.82-.263-7.946-2.593-10.035-5.815-.518-.794-.303-.76.83.145 3.204 2.516 6.197 4.024 8.833 3.654 3.73-.534 5.74.843 5.22 2.452-.094.262-.124.092-.8-.13zm293.506 36.327c-.75-.656-.793-.95.08-.356 2.7 1.816 5.976 4.782 10.007 3.04.835-.536.065-.463-1.338-.317-2.143.235-4.754-.867-7.958-3.105-1.564-1.095-.88-2.005.885-1.156.553.266 1.09.455 1.445.473 1.732-1.167 5.397-1.143 5.305-1.144.418-.354-.95-.937-2.977-1.71-1.32-.504-1.643-.708-.657-.748.862-.025 2.215.402 3.18 1.028 1.627 1.05 2.44 1.628 2.932 1.71.8.066 1.615.18.24.822-.617.29-.572.368-.5 1.066.117 1.102.18 1.087.683 1.71.84.935 1.215 2.69.005 1.596-.26-.125-.293.107-1.004.397-4.167 1.198-7.28-.65-10.33-3.306zm-61.94-38.22c.232-.31.59-1.097.64-1.314-.075-.512-.538-.344-.755-.067-.388.478-.932 1.188-.487 1.44.184.11.4.203.6-.06zm41.04 1.05l.935-1.667c-.23-.11-3.377.552-2.887 1.005.43.39 1.952.663 1.952.663zm-4.322-7.368c-1.428-.768-1.848-2.445-.778-3.54.9-.923 2.423-.85 4.264.292.644.392 1.043.596 1.475.444.74-.274 1.015.146.965.72-.132 1.285-2.12 1.597-3.358.132-1.65-1.932-3.446-.58-2.916.818.273.715.796.827 1.38 1.095-.017.123-.618.274-1.032.04zm12.716-39.31c2.376-.65 5.917 1.883 7.83 1.54.832-.182.716 1.026-.15 1.455-1.003.506-2.45.17-5.488-1.43-2.5-1.365-4.533.9-2.865 2.586.353.343.89.548 1.522.52.847-.04 1.092.194-.003.48-.634.168-1.803-.088-2.353-.665-1.33-1.372-1.006-4.02 1.507-4.484zm-86.592-54.097c-.074-2.838 1.446-4.424 1.477-4.44l-10.69-7.308.137 29.142c5.304-3.376 7.04-7.642 7.338-13.143 10.443 11.787 7.178 26.135.642 34.308-.26-4.993-1.747-10.908-7.78-13.94l-.008 5.97-10.15 7.14v7.007l23.764.015 11.415-17.086c-2.062-7.593-1.744-13.915-3.14-17.396-1.043-2.86-3.02-6.546-4.32-5.98-4.333 3.443-8.604-.583-8.688-4.29zm-267.77-34.93c3.695 2.69 4.684 7.068 5.444 10.963.03.032 1.932 13.204 1.993 13.39.24.73.16 1.443-.476 1.997-3.42 4.72-10.107 14.83-10.107 14.83l65.497.426c-3.494-5.123-6.218-10.178-9.533-14.385.14-.23-.256-3.1-.805-4.02-.563-.963-.7-1.46-.308-2.326.953-2.148 1.94-4.498 2.83-6.476 1.702-3.787 1.887-3.817-.43-5.056-2.746-1.615-3.236-2.13-2.654-3.97.204-.665.237-.93-.61-1.105-.4-.08-1.352-.318-1.998-.493-1.844-.586-1.323-.226-1.988.266-.51.26-.966-.735-1.56-1.886-.7-1.337-.868-1.37.282-.68 2.132 1.27 5.908.783 4.578-.7-.642-.716-1.256-1.092-1.184-2.72.072-1.61.09-2.09-1-2.315-2.185-.45-4.558-.263-6.594.25-6.186 1.557-11.15 6.95-13.023 10.953-.42.694.55.67.966.672 2.02-.173 3.46 3.076 2.142 4.525-.62.647-1.218.256-.566-.593.747-1.39-.365-3.242-2-2.772-2.052.59-2.116 3.257-2.374 5.13-.697 5.36 1.998 12.538 2.666 14 0 0 .137.218.09.217-.045 0-.37.308-.508.137-.474-.547-1.678-4.926-2.32-8.06-1.253-8.674.985-16.643 8.145-21.17 6.343-4.608 9.54-3.61 13.145-3.82 1.235-.44 2.934-1.128 4.23-1.755 11.313-5.925 21.622-11.733 31.097-19.437 6.934-5.256 10.242-9.53 16.19-14.9l-.59-30.044s-.6-.5-.596-.98c.398-2.013-3.12 1.344-5.375 2.46-1.404-13.79-8.8-27.353-17.775-35.286l.373-.51s3.006 2.005 4.494 2.944l-.003-1.922-3.62-2.286c-.166-.7-.073-.807.712-.817l2.897 2.158-.005-1.752-2.346-1.503.744-.956 1.258.814c-.53-1.383.224-1.347.988-.412.32.42.733.965.914 1.478.06.202.273.668.273.668l2.054 1.533s-.07-.745-.008-.977c.346-1.083 2.818 2.437 2.51 2.512l2.1 1.533c.497-.772 2.366.76 2.454 1.504.167.326 7.253 4.914 7.253 4.914l.077-2.525.76-1.002.378-58.53-9.418 6.048-.107 7.084c-4.44-1.455-8.296-7.93-8.855-11.978-.292-.157-1.576 7.973-.906 11.527-1.177.876-3.162 2.94-3.146 2.94l3.563 3.93s-.717 6.01-.55 9.002c.144 1.41.173 1.566.59 1.57.338 0 .648-.37.65-.694.84-3.575 3.586-9.152 8.357-11.044.308-.013-.05 31.885-.05 31.885l-11.808-8.105c-.582-.515.773-.475 1.607-3.167 2.14-6.962-5.283-9.428-8.143-5.4-.477-.004-2.433-2.45-2.734-3.475-2.174-4.432-2.604-9.44-3.024-13.474-.25-1.832-.924-4.828-1.467-6.645-.3-.963-.328-1.66.31-2.556 2.747-5.687 8.04-9.605 10.032-15.343l-65.667-.256c4.152 3.453 7.77 13.103 11.55 14.336-1.818.237-1.197 1.837-.5 3.547.865 2.114.77 2.547-1.43 6.904-3.23 6.38-3.395 5.822-.19 7.795 1.995 1.284 2.347 1.566 2.06 3.3s-.38 1.207 1.268 1.34c.878.084 1.57.244 1.97.417.444.203.78.485 1.352.302.972-.32 1.002-.086 1.028.627.013.31.47.932.624 1.166.38.622.195.714-.48.29-2.116-1.346-5.647-.764-4.347.686.535.592 1.077 2.595 1.117 3.588.08 1.767 1.232 2.395 3.62 2.038 4.623-.342 15.025-6.102 17.454-12.58-5.325 1.824-4.235-4.757-2.327-4.558 0 0-.516 1.16-.536 1.825-.062 2.356 1.893 2.54 3.244.874.59-.88 1.305-4.13.96-7.807-.42-4.45-2.204-9.423-2.535-10.665 7.613 18.31.6 26.37-10.107 31.617-4.107 1.725-4.662 1.706-7.08 1.83-1.65.13-3.148.956-4.738 1.488-9.16 4.405-20.44 9.88-30.517 18.062-7.226 5.378-12.97 10.223-18.694 16.45l-.04 32.302c1.712-.268 4.51-1.955 6.15-2.92 1.877 12.07 8.04 26.046 18.243 34.405 0 0-.235.463-.25.448-1.458-.97-2.914-1.94-4.31-2.694l-.072 1.534 3.434 2.378c.09.373-.59.88-.59.88l-2.837-1.972-.026 1.566 2.192 1.41c.597.592-.714.91-.714.91l-1.303-.955s.088.76.056.9c-.345 1.16-2.223-1.395-2.554-2.668l-1.84-1.098c.256.76-.407.866-.93.676-1.38-.706-1.31-1.9-1.6-2.614l-2.453-1.566c-.43 2.353-2.92-.965-2.53-1.753l-3.16-2.16c.17.064-1.202.35-1.662.052-.536-.36-.727-1.788-.727-1.788l-1.887-1.175.002 2.06 19.455 13.69-.28.526-20.285-13.988.78 60.66 9.9-6.88c-.186-2.266.228-4.294.044-6.883 5.077 3.194 6.788 5.36 9.024 12.04 1.457-3.804 1.204-7.464.548-10.848 1.3-1.076 2.57-2.107 3.227-3.73-1.22-1.697-2.418-2.17-3.702-3.744-.095-1.923 1.02-7.62-.477-9.505 0 0-2.732 8.29-8.632 10.78-.174-8.76.045-30.77.045-30.77s6.056 4.21 9.14 5.92c1.443.783 2.456 1.27 2.484 1.83.013.278-.574.646-.823 1.032-.156.247-.833 2.614-.568 4.46.114 1.365.756 2.222 1.367 2.877 2.004 2.105 5.568 1.12 6.98-.482zm61.31 2.453l23.297-32.756c2.755 12.062 7.427 23.113 13.523 33.12l-36.82-.364zm75.23-119.343s1.622-3.244 2.372-4.96l-2.85-.003 1.708-1.926 4.25-.003-2.28 4.868 1.802-.004 2.496-4.865 6.607-.004-2.31 4.87 1.524-.007 2.48-4.866 6.146.01-2.172 4.867 1.447-.006 1.265-2.456.31 4.466-6.114-.01 2.42-4.96-1.972.004-2.727 4.958-5.728-.006 2.48-4.96-2.17.002-2.728 4.958-6.252.036zm80.813-205.61l2.467-5.238-1.956.002-2.728 5.13-6.1-.01 2.406-5.084-1.525.006c-1.028 1.605-2.68 4.85-2.68 4.85l-6.47-.01s1.84-3.446 2.56-5.13l-1.602.004-1.307 2.084c-.456-.778-.15-2.853-.237-3.722l6.1.01-2.452 5.036 1.942-.003 2.68-5.035 6.44.01-2.62 5.037 1.523-.006 2.603-4.756 6.545-.004-2.294 4.76 2.016-.003-.89 2.07-4.42.003zm96.82-105.013l-1.233.24c-1.575-13.605-9.048-27.464-12.2-33.19l37.206.552-23.772 32.396zm10.246-128.137s-3.556 4.596-3.79 12.298l3.375-2.722c-.196-7.813.416-9.576.416-9.576zm233.132-416.838c-.053 5.735 1.433 9.387 3.324 12.252.04-3.69.402-7.422.624-8.413l-3.948-3.838zm-112.208 179.94l-12.02-8.34.003 1.828 14.29 9.78-2.273-3.27zm-503.817 596.91c-3.224-1.633-9.86-6.668-9.86-6.668l.005 1.674 10.562 7.478c.215.203.492.16.586-.073-.41-.73-.913-1.696-1.293-2.41zm-15.068-31.564l-6.915-4.85.005 1.503c1.776 1.594 7.604 5.398 7.604 5.398l-.695-2.05zm-23.367-45.324l6.502 4.227-.403-1.877-4.616-3.16-1.483.81zm78.66-90.796l.364-30.13c-6.782 3.225-8.12 12.626-7.892 12.906-6.73-7.003-9.267-22.07.193-32.21.703 3.26.95 7.975 7.636 12.28l.18-6.384 9.34-6.016.003-7.533-22.53-.006c-3.495 4.44-6.978 9.61-10.427 14.332-1.29 1.774-1.62 2.594-1.378 3.525 2.257 8.2 1.807 18.304 6.566 23.094 6.384-6.035 12.362 3.056 7.398 8.666l10.547 7.478zm542.23-193.882c.86 2.75.27 8.28.208 8.28 1.036-.568 3.845-8.58 3.14-11.59m32.63-147.154c-1.585-.46-2.78-1.15-4.46-.99-1.326.13-1.77-.306-.965-1.03 1.053-.89 2.072-1.272 4.037-.236 5.878 3.092 6.06-1.418 3.415-1.745-.754-.097-.72-.577.033-.448 4.096.18 2.844 5.645-2.06 4.45zm-344.13-112.1c-.784-.285-1.72-.77-2.06-.665-.88.242-.907-.254-.795-.827.255-1.378 1.655-1.136 3.51.054 2.654 1.707 3.67-.736 1.262-2.07-.814-.438-.567-.56-.09-.59 1.264-.052 2.44 1.676 2.106 3.084-.86 2.273-2.904 1.376-3.933 1.013zm-30.14-28.473c-1.724-.307-4.204-2.632-5.358-2.795-.646-.082-1.417.006-1.615-.258-.642-.81 1.16-.8 1.285-1.093.004-.682.053-1.1.024-1.333-.32-.435-1.572-2.163-1.52-3 .03-.046.658.47.982.47 3.075-1.622 5.165-.895 7.76.253 1.075.472 3.833 2.63 3.862 2.97.058.574-1.167-.503-2.133-1.16-2.36-1.66-4.494-2.835-7.473-1.863-.463.168-.386.246 1.14.147 1.493-.083 2.707.374 4.61 1.61.474.314 1.04.845 1.378 1.002 2.395 1.146 2.912 2.28 1.39 1.977-.324-.064-.953-.41-1.583-.63-1.092-.395-.708-.268-1.758.22-.37.17-1.267.535-1.99.623-.556.09-2.373.078-1.577.843.856.858 2.27 1.487 3.237 1.88.69.346.152.28-.663.136zm42.804-26.854c1.126-.412.24-1.363-1.176-1.574-.323-.048-1.026 1.497-1.044 1.838-.017.233 1.617-.036 2.22-.264zm-2.175-20.2c.262-.17 1.117-1.42 1.118-1.62.005-.806-1.013-.58-1.25.255-.298 1.022-.318 1.642.13 1.366zm-20.497-5.453c-.922-.41-2.173-2.2-.743-1.896.308.064 1.91.152 2.956.16 3.527.022 7.043 1.626 9.277 3.965 1.24 1.31 1.325 2.272.068 1.365-4.47-4.03-7.216-3.287-11.557-3.594zm14.86 104.21l-1.25.673c-.005.697.257.59.808 1.074 0 0-.77.12-1.324.085-.908-.068-1.124-.054-.712.6.183.295.442.747.442.747s-.494.105-1.247-.1c-1.123-.32-1.71-.152-1.282.47.122.172.35.5.35.5-.83-.192-2.334-.93-2.334-.93l-1.065.318c2.113 4.2 9.676 1.566 7.614-3.438zm233.855 752.617c1.177-.985.6-2.198-1.104-3.092-.706-.377-.644-.376-1.788.298-1.423.843-1.53.89-.506 1.965 1.208 1.327 2.53 1.568 3.398.83zm198.322-36.827c1.08-.474.68-.4.61-1.53-.315-1.305.425-1.393.787-2.615.143-.666-.413-.422-1.498.594-.9.754-1.162.938-1.16.566.095-.31-.608-1.104-1.255-1.2-.538-.098-.49-.22.037-.916.917-1.203 1.296-2.72.688-4.04-.774-1.68-1.034-1.93-2.77-.468-.882.816-2.133 1.443-2.74 2.462-.436.74-.18 1.47.504 2.933 1.686 3.668 4.324 5.313 6.796 4.213zm-17.908-14.974c1.9-.748 1.127-2.814-1.832-4.895-1.794-1.252-2.302-1.24-.77.12.964.873 1.116 1.17.712 1.8-.342.526-.716 1.128-.365 1.61.52.75 1.452 1.67 2.255 1.364zm-73.625-3.54l-2.07-1.315.003 1.798 2.07 1.238-.003-1.72zm-483.822-12.92c.417-.293.76-1.112.764-1.47.096-.835-1.26-.642-1.913.284-.73 1.05.142 1.907 1.148 1.185zm572.733 1.998c.946-1 .49-2.058-1.457-3.31-.75-.486-1.133-.814-1.032.163.03.295-.297.696-.498.928-.667.755-.376.896 1.54 2.118.968.61.906.657 1.448.102zm-82.692-17.55l-2.07-1.254.004 1.627 2.07 1.41-.004-1.783zm-598.17-4.6l.027-1.642-2.683-1.8-.043 1.83 2.7 1.613zm80.645 8.47c-.344.943 1.045.518 1.123.41.234-.48.034-.51-.09-.574-.245-.094-1.185.07-1.032.164zm579.688-8.888c.48-.15.54-.09.468-.958-.1-1.302.102-1.41.953-1.977.695-.46.694-.383.684-1.19-.01-.96.055-1.38 1.32-1.572.523-.074.817-.212.85-.615.066-.697-1.035-1.85-2.4-2.526-.202-.002-3.268 2.676-4.12 3.6l-.528.57.623 1.182c.973 1.836.815 2.517.245 4.947-.112.65.38.56.51-.23.173-.74.283-1.004 1.393-1.23zm7.97-13.005c-.24 1.486.523 2.39 1.236 1.65.388-.4.717-3.668.458-4.182-1.483-1.59-1.646 2.175-1.695 2.532zm1.61-11.114c5.487-3.234 12.554-.584 16.53-3.24 1.86-2.05 3.717-3.37 2.663-4.787-.823-1.106-1.346-1.28-1.346-1.28.062.078-2.896 2.585-7.19 2-7.144-.233-10.516 2.024-10.657 7.308zm-120.39 126.82c3.495.132 6.348-.485 7.648-1.5.805-.63.93-.738-.333-.854-2.71-.22-5.46-3.4-6.32-6.474l-.375-1.32c-7.245 5.812-23.167 14.963-23.167 14.963 1.062 4.95-2.514 7.904-7.34 6.137-.845-.083-.73 1.002-.578 1.453.257.73.84 1.338.96 1.448.72.624.857 1.028.745 1.617-.11.588-.096.573.32.792.72.392.686.95.293 2.095-.426 1.61-.46 2.027.69 2.794 1.488.957 4.392 2.014 3.967 3.453-.976 3.264-2.58 6.09-3.986 9.15-.528.85-.414 2.245-.002 2.9.517.994.447 2.203 1.104 3.122 3.66 5.464 6.803 10.197 10.128 15.132l34.436.022.042-80.526s-5.81 5.325-5.797 5.697c.014.45 1.257 1.156 1.795 1.237.017-.248-.007-1.21.072-1.534.05-.48 1.604-.36 2.11.06.35.297.247 2.234-.118 3.813-.302 1.284-.256 1.3.294 2.048.672.903.898 1.68.814 2.702-.05.558-.037 1.008.114 1.38.364.87.264 2.11-.155 2.68-.59.834-.607.958-.472 1.41.483 1.536.305 2.853-1.408 3.524-.217.09-.465.462-.59.786-.74 2.46-2.142 2.467-4.047 1.757-1.36 5.308-6.85 6.636-10.822 6.47-4.126-.166-8.317.148-10.198 2.864.426-6.445 3.295-9.542 10.178-9.296zm63.753-52.987c.696-.26.793-1.002.195-1.47-.904-.72-1.94.017-1.516 1.06.242.574.642.654 1.32.41zm-40.67-61.133l-2.745-1.925.02 1.72 2.745 1.77-.02-1.565zm-591.6-7.177l-1.94-2.353c-5.737-3.525-10.7-7.48-15.47-10.656l-.045 2.17 1.366.69s.112-.48.206-.758c.173-.526 1.75.94 2.25 2.107.122.296.395.948.395.948l1.842 1.02s.034-.526.035-.665c.008-1.116 1.97.415 2.866 2.235.213.435.502.902.502.902l1.734 1.065c.682-.94 2.414.342 2.87 1.492.56 1.444 1.56 1.574 1.59 1.574l1.8.23zm18.173 7.172l.01-1.674-2.867-1.893-.042 1.69 2.9 1.878zm61.1-1.077c.08-.434-.357-2.142-1.003-2.24-.4-.063-1.035.553-1.038.987.012.542 1.96 1.717 2.04 1.253zm645.62-5.838c.62-.694-.16-1.582-1.117-1.278-1.142.364-.748 1.405.53 1.43.277 0 .447.002.586-.152zm-128.647-12.264l.01-1.597-2.652-1.77-.056 1.55 2.698 1.816zm-641.228-2.767l.026-1.535-1.733-1.22.005 1.83 1.703.924zm-28.538-7.428l-1.78-1.158.006 1.658 1.857 1.066-.083-1.566zm7.365-30.05c-.182-.496-.927-2.036-.927-2.036l-8.05-5.663.006 1.736 9 6.102-.03-.14zm35.712-41.21l-.088-.714-.712.383.8.332zm-22.948-72.977l-1.13.613 3.406 2.223-.267-1.582-2.01-1.253zm108.807-17.676l.882-.647-1.55-1.064-.114 1.068.78.64zm650.08-107.913l1.162-.953-3.865-2.738.266 1.707 2.437 1.984zm11.358-7.026l.008-1.162-6.256-4.257.432 2.143c1.104.643 2.453 1.582 3.864 2.583.874.626.887.858 1.95.695zm14.964-10.13l-.005-1.86-7.238-4.837.587 2.174 6.655 4.523zm-.097-14.605l-.003-1.937-8.757-5.823.954 2.58 7.805 5.18zm-.102-20.023l-11.04-7.45 1.414 2.846 9.63 6.48-.003-1.876zm-.197-29.54l-13.847-9.28 1.554 2.598 12.297 8.373-.004-1.69zm-.1-18.47l-.523-.002c-.04 1.332-1.465.362-2.01-1.1-.41-.978-.5-1.226-.5-1.226l-2.79-1.894.22 1.49-1.886-1.16s-.543-1.832-.558-1.848l-3.205-2.19c.076.372.118.992-.083 1.037 0 0-.983-.426-1.425-1.08-.458-.685-.53-1.367-.53-1.367l-2.623-1.707-.648.073s-.353-.235-.69-.517c-.624-1.12-1.347-1.295-2.22-1.75 0 0 1.848 2.166 2.825 3.444.9 1.184 2.005 2.028 2.005 2.028l14.63 9.845.012-2.077zm-.1-19.43l-1.134-.69.08 1.8 1.042.72.012-1.83zm-114.227-20.574c.063-.108-.214-.25-.533-.95-.79-1.74-.862-2.345-.435-4.187.206-.865-.592-1.243-.952-.315-.282.727-.716 1.127-1.147 1.078-.4-.05-.48.12-.313.664.21.76-.243 1.75-.876 2.025-.647.166-.757.57-.576 1.16.302.977-.75 1.808-1.582 1.77-1.278-.07-.778 1.097.755 2.223.568.406.828.64 1.276.426 1.162-1.107 3.328-2.69 4.383-3.892zm-516.092-13.438l-.066-1.705-3.22-2.19.4 2.296 2.886 1.6zm612.947 14.542l-.003-1.72-1.32-.862.066 1.83 1.258.752zm-103.923-6.73c.306.31.614.344 1.109.052.57-.29.343-.74-.24-1.04-.553-.298-1.33.596-.87.987zm-666.272-10.612c-.044-.357.39-.85.698-.864.663-.042.542-.4-.21-.854-.353-.22-.98-.72-1.21-.89-1.135-.83-2.22.45-1.38 1.524.7.89 1.73 1.438 2.102 1.084zm113.274-2.923l-.25-1.91-2.9-1.94.234 2.095 2.914 1.755zm545.957-3.528c.155-.263.203-.51.19-.836-.054-1.194-.676-2.61-1.53-3.792-.642-.873-1.423-1.622-2.206-2.076-2.224-1.146-5.184-.654-4.763.82.302.995.235 1.847-.615 2.338-.588.337-.652.802-.036.806.446.003 1.635-.408 2.117-1.196.7-1.096 1.09-1.744.94.053-.067.76.026.698 1.18.643 1.572-.083 1.278.21.365.933-1.33 1.03-1.605 2.795-.937 4.287.41.917.7 1.415 1.256 1.295 1.19-.767 3.11-2.32 4.04-3.276zm-479.962-18.92l-2.852-1.894.11 2.03 3.084 1.835-.342-1.97zm442.432 6.298c-1.054-1.34-2.282.373-1.486 1.107.583.515 2.034-.003 1.487-1.107zm-605.518-5.693c-.137-.42.622-1.08.747-1.343.344-.773-2.753-2.917-3.716-1.652-.667.88-.21 1.75 1.583 2.955 1.09.736 1.597.724 1.386.04zm98.35-.11l-2.638-1.66.05 1.75 2.808 1.71-.22-1.8zm610.37-9.81l-.005-1.78-2.668-1.88-.042 1.846 2.714 1.816zm-129.095 6.575c.48-.478.327-.634-.613-.594-.585.028-.77-.066-.817.197-.08.604.934.89 1.43.397zm-571.158-8.12c.047-.125-.29-.375-.827-.828-1.04-.875-1.16-1.418-.155-2.11 1.423-.966-.062-2.355-1.73-1.793-1.342.456-1.335 1.804-.555 2.677 1.104.72 3.077 2.84 3.267 2.052zm93.58-5.35l-2.62-1.816.003 1.767 2.623 1.537-.006-1.488zm475.67-13.81c1.173-.596 1.23-2.1.055-1.55-.48.23-1.114.846-1.116 1.125-.003.527.458.732 1.06.426zm-577.383 1.29c1.514-.813 1.288-1.574-.23-2.53-1.84-1.065-3.133.972-1.617 2.362.796.718.98.642 1.847.167zm6.51-20.325c2.467-2.65 4.083-2.516 7.333-2.448 8.377.085 10.944-3.944 10.67-6.767-4.064 2.035-7.707.942-11.576 1.522-6.677 1.49-7.468 4.663-7.926 6.474l1.5 1.22zm44.306-17.16c2.156.013 2.063.09 1.182-1.698 2.092.292 2.948 1.305 2.253-.807 1.107.395 1.782.71 2.935 1.088l.726-.43c-4.438-4.352-9.374-.664-8.078 3.715l1.653-.795-.67-1.074z"/><path id="path3502-5-8-1_1_" class="st0" d="M78.895 216.364l1.034-5.03 9.22.462s1.074 3.17 1.496 4.583l-11.75-.016zm-20047.793 5363.898l4.904-8.137 6.948 1.905-1.596 6.36-10.256-.128zm-103.48.272l2.103-8.682c-3.968-.878-7.722-1.46-12.103-2.652l-7.127 11.316-4.28-.12c3.697-4.952 10.445-14.938 10.445-14.938 15.46 5.356 31.054 6.278 46.75 3.45 0 0 5.772 7.68 7.855 11.848l-4.08-.197-5.058-8.544c-3.53.38-6.997.854-10.68 1l2.524 7.534-4.05.005-2.292-7.502c-4.42-.168-8.132.165-13.425-.66l-1.87 8.156-4.712-.016zm103.462.185l-1.398-5.342 4.978-.588s2.3 4.076 3.566 5.93h-7.146zm115.682-50.748c6.19-9.462 28.055-39.81 28.055-39.81l3.203.13s-19.566 27.4-29.003 41.213l-2.254-1.533zm-278.82-283.416l7.62 5.52.03 43.015-7.75 5.485.1-54.02zm-142.26-149.41l4.608 9.1c-19.618 18.69-15.786 40.632-5.29 56.278 0 0-1.364 3.494-4.33 7.21-14.2-9.438-18.507-33.957-18.398-34.22 15.66-14.05 17.784-18.516 23.41-38.367zm251.18-317.797c1.014-13.837 7.756-22.892 15.292-28.408l.37 14.077c-4.927 4.773-10.15 9.683-15.66 14.33zm422.18 348.206c17.183-16.133 17.777-39.055 5.273-55.876l5.127-7.19c7.25 7.812 14.358 16.012 17.377 35.05-10.882 8.626-20.492 22.87-23.064 37.254l-4.714-9.238zm-136.603-93.957l-.035-6.604 6.423-.036-.18 6.586-6.207.053zm-144.31-101.557l-.08-6.573 6.343.057-.104 6.664-6.16-.147zm-63.53-17.342s21.29-29.963 29.662-40.79l1.778 1.313-28.33 39.637-3.11-.16zm9.996-117.385c-.03 11.827-7.56 21.202-15.27 27.306l.118-13.468 15.15-13.837zm-162.047-169.344l.016 52.502-7.196-4.356.638-44.033 6.54-4.112zm577.76-312.476c-16.235-4.26-31.027-5.533-46.572-2.193-2.032-2.43-8.835-12.565-8.835-12.565l3.927.056 5.563 8.966 10.605-1.39-2.725-7.286 4.373.028 2.172 7.145c-.015-.062 8.624.087 13.425.66.772-2.66 2.192-7.922 2.192-7.922l4.82.002c-.617 2.538-2.288 8.572-2.288 8.572 3.938.553 11.256 2.43 11.317 2.507 2.565-3.64 4.96-7.298 7.278-10.942l4.698-.015c-1.4 2.346-9.688 14.507-9.95 14.38zm-191.206 12.01l-7.166-1.69 1.875-6.36 10.025.004-4.733 8.045zm-57.89-36.533l-3.333-5.91 6.422.01 2.122 5.206-5.21.695zm-211.756-12.162l-.97-4.703 11.66.014-1.19 5.013-9.5-.325z"/><path id="path3500-9-6-1_1_" d="M60.8 8.46l10.36 15.057c.047-.046 5.814-1.156 11.468-1.43 5.623-.273 12.336.08 12.396.252 0 0 1.767 5.39 2.366 8.028.794 3.54.706 7.6-.128 10.292-1.227 3.944-1.88 5.134-4.624 7.844-2.03 1.986-4.91 4.138-7.873 5.28-4.108 1.726-4.524 1.708-6.943 1.832-1.602.067-1.756.143-2.637.587-.262.09-.45.385-.68.46-.2.077-.586-.003-.586-.003-13.33 5.88-23.782 12.432-31.66 18.27-.092.062-.155.372-.233.45-.65.537-1.238.937-1.873 1.413-.092.06-.276-.048-.37.013C30.5 84 25.255 89.826 23.32 91.502l.168 33.483s4.22-2.19 6.383-3.508c1.52 12.968 7.937 25.565 18.076 34.327l-4.398 6.11-20.27-14.067.25 61.787 10.782-7.525.01-6.51c3.206 2.174 6.342 3.03 8.62 12.95 1.823-3.475 1.672-8.668.847-12.146.016 0 2.74-2.26 3.568-4.007l-4.012-3.576s1.042-8.657-.84-10.405c-1.505 3.927-2.687 8.105-8.28 11.122l-.054-30.102c2.776 1.77 5.412 3.77 8.172 5.602l.385-.075 2.852 1.972s-.297.618-.577 1.034c-3.47 5.28 2.295 11.765 6.987 7.874 1.842-1.523 5.282 4.823 5.92 10.935.652 3.94 1.006 8.842 2.077 12.26.333.993.206 1.566-.507 2.166-3.59 5.092-10.833 15.337-10.833 15.337l5.206.003.373-.602-3.835-.01c3.31-4.426 6.47-9.583 9.9-13.9 12.768 4.84 33.706 5.97 46.338 3.044 2.61 3.69 5.14 7.55 7.658 11.303l-3.635-.008.504.793h4.913l-10.342-15.35c-7.145 2.14-24.542 1.298-24.233 1.114 0 0-.045-.125-.65-1.865-2.987-9.707-3.254-18.327 4.244-25.285 3.98-3.554 8.432-5.913 13.403-5.462 2.217-.047 2.264-.156 3.19-.584.51-.228 1.575-.47 1.575-.47l5.04-2.803.662-.135 1.452-.766.294-.354 2.333-1.194.262.017 3.168-1.824.048-.262 1.237-.767.29.313c.34.033 12.403-7.918 17.42-12.35l.31.11c5.866-4.766 13.846-12.294 16.22-15.162l-.122-14.338-.198-.172-.067-15.873-.462-.003-.018-1.953c-2.594.96-5.443 3.39-5.643 3.282-1.638-13.435-7.78-25.813-17.824-34.915l4.273-5.94 19.858 13.46.056-3.922.247.002c.252-15.065.412-54.126.412-54.126l-.2-.016-.01-3.115-10.16 6.52-.152 6.587c-4.503-1.486-7.347-6.93-8.286-11.772-1.313.534-1.93 5.63-1.45 12.096-1.39.83-2.29 1.754-3.128 2.85 1.1 1.4 2.324 2.54 3.672 3.712-.28.602-.876 9.248-.298 10.306.272.792 1.213.674 1.218-.147 1.368-6.733 7.726-11.14 8.078-10.735l-.17 31.046-11.268-7.962c2.374-2.68 2.865-7.22-.11-9.44-2.987-2.22-5.91-.35-6.612 1.073-3.666-2.395-4.886-11.3-5.418-14.775-.128-1.69-.56-3.988-1.055-6.068-.315-1.304-.676-2.547-.73-3.71-.028-.542.035-.79.533-1.47L127.93 8.913l-5.59-.02-.048.092 4.405.013-9.886 14.12c-14.86-4.717-30.285-5.855-46.768-2.878L61.908 8.7l3.696-.007-.152-.25-4.65.018zm-20125.992 4231.573l.152.28 6.407-.02-.09-.233-6.47-.027zm56.78.398l.12.342 4.373.013-.135-.326-4.358-.03zm74.41-.085l-.046.154 4.82.015.047-.154-4.82-.015zm107.764-.148l.045.202 11.612.012.046-.185-11.704-.03zm-58.6.717l-.048.17 10.026.003.078-.154-10.057-.02zm165.134 8.316l.033 2.123-6.744 4.312c-.166 9.083-.453 44.02-.453 44.02l-1.61-1.065.343-43.756s5.955-3.852 8.43-5.634zm215.03 46.97h.23l.073.497-.386-.003.08-.495zm-96.557 11.274l.18.668-.986-.007.174-.65.63-.01zm19.63 7.284l.007 1.38-5.815 3.65-.006-1.378 5.814-3.652zm75.466 2.38l1.525.027.258.76-1.91.004.128-.79zm-135.784 7.355l1.015.146c2.32 5.595 2.92 10.388 3.32 15.397.928 6.486 2.796 12.993 4.103 15.745l-1.494-.01c-.17-.016-3.312-9.415-3.97-14.953-.177-1.102-.11-2.125-.164-3.133-.31-4.28-.89-7.508-2.81-13.194zm-203.058 3.936l1.292.132c.9 3.974 2.23 7.718 2.76 11.705.85 6.377 1.3 12.89 4.356 19.187l-1.216-.007c-1.852-4.26-2.994-8.685-3.733-13.48-.583-2.747-.585-4.808-.892-7.306-.365-2.977-1.495-6.782-2.566-10.23zm12.546 1.353l1.292.195c.853 3.942 2.32 8.277 2.696 11.844.785 7.26 1.912 14.025 4.19 18.83l-.908-.022c-3.513-6.858-3.566-12.95-4.54-19.374-.577-3.786-1.816-7.576-2.73-11.473zm12.892 1.225l1.138.178c.79 3.927 2.226 8.37 2.554 12.34.586 7.04 1.83 12.38 4.427 18.07l-1.078.025c-3.136-5.538-3.554-12.345-4.527-19.218-.53-3.817-1.752-7.638-2.513-11.394zm60.635 1.633l.004 1.722-5.813 3.744-.005-1.69 5.815-3.775zm223.382-1.528l1.2.194c.776 3.787 2.197 7.827 2.543 11.502.576 6.297 1.72 12.66 4.3 18.52l-1.108.07c-2.72-5.922-3.9-11.293-4.427-18.102-.283-3.83-1.747-8.474-2.51-12.184zm-228.832 3.723l.41 1.026-2.79.138.04-1.147 2.34-.015zm144.173-.8l1.43.272c1.502 6.04 1.897 11.746 2.922 17.488 1.28 7.123 2.626 10.713 3.742 12.038l-1.186.038c-2.87-6.17-3.894-12.3-4.546-18.66-.407-3.738-1.615-7.435-2.36-11.176zm-160.85 3.467l1.09.224c1.293 4.937 1.88 9.545 2.436 14.013 1.024 8.484 3.83 14.935 4.43 15.234l-1.2-.055c-2.596-3.614-3.557-9.758-4.826-18.447-.56-3.817-1.107-7.4-1.93-10.97zm13.683 2.466l1.215.302s1.096 4.348 1.922 10.104c.692 4.794 1.047 14.236 6.218 19.68 2.585 2.713 7.144 5.068 10.256 2.515 1.33-1.14 2.19-2.963 1.387-4.92-1.334-3.28-5.896-2.72-4.378.715.164.822-.9.862-1.648.05-.78-.857-.59-1.832-.028-2.743 1.167-1.9 4.294-2.096 6.13-.394 2.94 2.902 1.66 7.87-2.06 9.442-4.28 1.832-9.8-1.955-11.993-5.565-3.61-6.286-4.172-12.257-5.01-18.603-.408-3.428-1.232-7.03-2.01-10.584zm11.476 2.44l1.23.302c0 .016 1.346 6.116 1.8 9.73.557 4.47 1.154 9.727 3.053 13.8 1.185 2.535 2.896 4.654 4.644 5.89 1.487 1.064 2.838 1.74 4.827 1.303 2.298-.497 2.398-4.077.21-4.09-1.123-.008-.392-1.09.547-1.114 3.298-.103 3.403 5.137.284 6.294-3.566 1.34-7.4-1.195-9.782-4.357-4.162-6.522-4-12.457-4.906-17.718-.275-2.777-1.815-9.918-1.907-10.042zm35.05 2.885l.747 1.013-4.19-.028.022-.96 3.42-.025zm114.086.322l1.183.41c.03 0 1.186 4.736 1.904 10.336.843 5.4 1.122 9.883 3.9 13.79 1.16 1.62 3.333 3.79 4.702 4.046.846.192 1.725-.004 1.944-.654.362-1.067 1.267-.58 1.276.396-.004.682-.502 1.377-1.335 1.62-4.085.7-7.81-4.454-8.947-7.065-1.53-3.808-2.18-8.06-2.856-13.35-.278-2.233-1.618-9.372-1.77-9.528zm-89.213 2.9l-.026 1.705-5.8 3.667-.004-1.66 5.83-3.712zm171.86-.107l1.323.365s1.098 4.162 1.758 9.312c.66 5.213 2.098 11.283 4.773 14.416.245.297.413.515.52.686.197.42-.04 1.147-.24 1.146-4.772-2.51-5.893-12.563-6.303-15.96-.597-5.26-1.83-9.964-1.83-9.964zm-179.63 4.01l4.22.12 1.01 1-5.575-.052c-.597-.61-.243-.545.345-1.068zm119.62 5.082l.005 1.41-5.815 3.7-.006-1.458 5.814-3.652zm78.838 7.345l6.175.118 2.164 1.3-9.426-.076 1.087-1.342zm-77.98 4.957l.005 1.705-5.815 3.667-.005-1.596 5.815-3.776zm75.802 9.404l10.487.115.023 1.148-11.364-.306.852-.956zm-109.23 4.454l11.858.03.023 1.27-10.78-.115-1.1-1.185zm13.573 10.954l.004 1.767-5.815 3.62-.004-1.688 5.815-3.698zm96.61 2.133l9.086.043-.992 1.063-6.853-.075-1.24-1.03zm-84.33 11.486l.004 1.675-5.815 3.667-.005-1.644 5.815-3.696zm91.27 3.938l-1.1 1.08-4.71-.063.16-.975 5.65-.04zm-53.612 8.608l.004 1.798-5.814 3.574-.005-1.55 5.815-3.822zm47.834 6.566l3.88.087-.59.82-3.403.008.113-.914zm-132.815 5.672c.587 4.515 3.84 13.62 3.824 13.62l-1.278.006c.06.094-2.32-5.734-3.177-11.212-.104-.527.262-2.292.632-2.414zm-157.182 9.456l2.988.05-.654 1.158h-2.434l.1-1.208zm208.6.316l.004 1.566-5.814 3.59-.006-1.427 5.815-3.73zm81.152 2.4l1.987.058-.47 1.083-1.54-.042.022-1.1zm-81.565 10.26l.005 1.673-5.814 3.62-.005-1.61 5.814-3.684zm45.852 4.183c.578 3.29 3.046 9.895 3.243 10.33l-1.093.01c-.048.154-2.565-5.924-2.84-8.514-.136-.543.148-1.627.69-1.825zm-260.734 4.783l1.17.054-.204.62-.955.024-.01-.697zm196.728 3.876l.615.018-.143.588-.385-.002-.088-.605zm18.766 8.15l.007 1.348-5.815 3.698.01-1.286 5.798-3.76zm43.892-.435c.877 2.64 1.768 5.328 2.8 7.893l-1.31-.04c-.866-1.85-1.47-3.93-2.133-5.982-.18-.838.21-1.564.642-1.87zm-305.777 4.654l2.163 6.09-1.232-.01c-.5-1.227-1.077-2.595-1.47-3.853-.406-1.304-.36-1.335.54-2.228zm49.638 10.055l.005 1.612-5.814 3.62-.006-1.38 5.815-3.852zm253.475 1.15c.278-.03.306.328.548 1.058l1.18 3.37-1.51-.04c-.44-1.057-.71-1.988-.827-3.028-.044-.496-.133-.993.222-1.207.17-.092.294-.138.386-.153zm-321.218 10.596c.262.002.35.468.562 1.167l.635 1.972-1.417-.04c-.41-.933-.575-1.6-.445-2.577.294-.354.51-.523.665-.522zm51.01 6.987l.005 1.674-5.813 3.513-.006-1.55 5.814-3.636zm267.244-1.08l.588 1.942-1.278-.025c-.213-.45-.07-1.008-.082-1.52l.772-.397zm-338.13 9.93c.016 0 .032 0 .047.015.18.854.01.915.01.915l-1.786-.012s1.454-.936 1.73-.918zm53.725 6.05l.006 1.35-5.814 3.636-.007-1.364 5.814-3.622zm276.675 2.43l34.912.12 1.16 1.65s-3.404.086-14.523.014c-9.364.11-28.182-.213-28.182-.213l1.84-.872c2.525-.045 4.824-.712 4.793-.697zm-310.33 14.455l.007 1.472-5.814 3.543-.006-1.426 5.814-3.588zm281.265-.27c-2.81 1.252-5.43 1.56-7.385 1.393-4.218-.353-10.667 1.42-11.97 5.503-.41 1.44-.41 1.485.354 2.22.382.358.75.64.827.608.68-.6 1.582-1.725 2.54-2.06 1.264-.38 1.957-.437 4.037-.532 4.483-.203 5.485-.383 6.596-.686 2.453-.65 4.917-3.083 5.073-5.78.033-.294-.073-.666-.073-.666zm-539.776 11.91c-.483 5.638-6.54 6.374-9.203 6.202-5.402-.33-7.538 1.3-8.392 2.3-.28.278-.448.2-.4-.032.636-3.127 5.642-3.234 8.168-3.202 6.19.288 7.748-2.71 7.58-2.74-.464.213-.82.396-1.3.626-.2.09-.168-.032-.69-.346-.015.047-.625 1.438-1.402.115.015.062-.562 1.175-1.633.145.016.108-.653 1.065-1.71.08-.99.863-1.465.38-1.892-.212-.31.184-1.226 1.433-2.003.095-.82.522-1.162 1.093-1.853.748-1.634.3-3.062 1.98-3.642 3.542-.188.526-.543.617-.585.027-.19-1.614 2.446-4.418 5.116-5.19 2.068-.608 3.472-1.033 8.015-.864 2.555.094 5.83-1.295 5.83-1.295zm65.56 2.49l1.642 1.11-28.5 39.512-2.51-.062 29.37-40.56zm318.188-.25l3.234.007-.004 5.393-2.788-.002-.99-1.494c.26.157.552.236.875.238.954.006 1.73-.78 1.735-1.74s-.774-1.74-1.73-1.747c-.954-.007-1.73.78-1.735 1.74 0 .093.014.17.014.248l-1.037-1.557s.448-.26 1.498-.734c.263-.138.927-.35.927-.35zm-240.942 1.99l5.482.005-.004 5.395-5.482-.005.004-5.394zm66.832-.402l5.683.006-.004 5.426-5.682-.037.004-5.395zm78.247-.482l5.666.005-.004 5.395-5.667-.006.004-5.394zm110.815-.275l.082 1.674-5.814 3.56-.005-1.66 5.737-3.574zm197.98-.502c-1.017-.006-1.84.826-1.846 1.85s.82 1.85 1.836 1.855c1.016.007 1.837-.825 1.844-1.848.007-1.038-.82-1.865-1.836-1.856zm-248.504 4.736c-1.015-.007-1.837.825-1.843 1.848s.82 1.85 1.836 1.856c1.016.007 1.838-.825 1.844-1.848s-.82-1.85-1.836-1.856zm-120.684 1.47c-1.016-.006-1.838.826-1.845 1.85-.005 1.022.82 1.85 1.838 1.855 1.016.008 1.838-.824 1.844-1.847s-.82-1.85-1.836-1.856zm71.924-.02c.847.006 1.535.692 1.545 1.545-.005.853-.687 1.546-1.535 1.556-.847-.005-1.535-.692-1.545-1.544-.01-.868.672-1.56 1.535-1.556zm9.66.986c.848.006 1.537.692 1.547 1.545-.005.853-.688 1.546-1.535 1.556-.847-.006-1.535-.692-1.545-1.545-.01-.868.687-1.56 1.534-1.556zm-97.266 1.154c.37.003.692.144.952.363l-1.678 2.298c-.414-.25-.688-.702-.685-1.23-.01-.79.625-1.437 1.41-1.432zm176.314-1.167c.847.004 1.536.69 1.546 1.543-.006.853-.688 1.546-1.535 1.556-.848-.007-1.537-.693-1.547-1.546-.01-.868.688-1.56 1.535-1.556zm-151.003 1.096c.632.004 1.152.52 1.148 1.155s-.516 1.16-1.147 1.156c-.63-.004-1.152-.52-1.148-1.155.004-.634.516-1.142 1.147-1.154zm-105.707 1.374c9.776 12.542 14.976 25.27 17.243 39.127l-1.647-.072c-2.705-15.07-8.828-28.005-17.124-38.43l1.528-.625zm20.8.558c.677.004 1.213.55 1.21 1.217s-.548 1.22-1.21 1.232-1.214-.55-1.225-1.233c.004-.666.547-1.22 1.225-1.216zm196.048-1.437c.677.006 1.213.552 1.224 1.218s-.547 1.22-1.225 1.232c-.677-.004-1.213-.55-1.208-1.232s.547-1.22 1.21-1.217zm-120.77 1.54c.678.006 1.213.552 1.21 1.218s-.548 1.22-1.21 1.232-1.213-.55-1.224-1.232.562-1.22 1.224-1.217zm96.19.565c.646 4.965-.637 8.165-4.398 8.683-4.794.666-5.412 1.02-5.442 5.59-.035 5.41-.83 6.987-4.637 7.412-4.286.483-5.29.988-4.91 6.354.284 3.908-1.252 5.588-4.552 6.31-2.576.573-4.814 1.442-5.77 4.055l-2.357.03c.613-4.12 4.737-6.092 7.372-6.23 2.853-.68 3.445-1.636 2.984-6.66-.345-3.786 1.033-4.924 5.443-5.794 3.53-.706 4.4-1.723 4.203-4.623-.407-6.234 0-7.16 3.516-7.913 1.788-.423 4.7-.62 5.818-1.993 1.273-1.573.943-2.893.832-4.83l1.897-.392zm189.997 3.783l.005 1.628-5.814 3.605-.005-1.58 5.813-3.652zm39.06.94c-1.252 5.402 3.022 6.577 5.62 7.492 3.026 1.06 3.755 2.598 3.413 7.96-.257 4.058.183 4.96 2.793 6.34 3.99 2.073 5.064 5.025 3.28 9.338-1.095 2.66-.515 3.407.164 5.72l-1.94-.01c-.14.044-1.77-2.896-.378-6.064 1.657-3.756 1.608-5.632-2.078-7.315-2.856-1.306-3.726-2.536-3.893-5.234-.07-1.132-.066-1.69.196-4.153.33-3.098-.756-4.438-5.32-6.142-2.027-.756-3.4-2.532-3.814-5.325-.12-.79-.005-1.69-.005-1.69l1.963-.917zm-400.9 9.21l17.312 11.614-.124 2.588-18.37-12.365 1.183-1.837zm363.02.825c.832.005 1.52.692 1.515 1.53-.006.836-.688 1.53-1.52 1.524-.83-.006-1.52-.692-1.514-1.53.005-.852.687-1.53 1.52-1.524zm-115.824 2.47c.753.005 1.365.613 1.376 1.388-.005.76-.61 1.392-1.38 1.387-.755-.005-1.382-.63-1.377-1.388.004-.76.624-1.377 1.378-1.387zm-216.425 5.89l-.056 1.55-5.707 3.543-.005-1.55 5.767-3.543zm378.598-1.34l39.456.025-1.01 1.373-37.7-.414-.747-.982zm-435.06 8.593c5.24 6.87 10.383 13.956 14.347 27.297l-1.698.656c-3.272-10.75-8.313-19.664-14.256-27.05l1.608-.904zm15.317 2.203l.004 1.704-4.375 2.67-1.29-.846 5.66-3.53zm404.1 3.256l.78 1.028s-.836.66-1.795 1.337c-2.584 1.86-2.924 2.075-3.1 3.283-.405 2.88 2.527 4.294 5.48 2.64 1.05-.49 3.37-1.963 3.37-1.963l.67.98s-3.326 2.506-5.27 3.067c-4.275 1.243-7.473-4.218-4.31-7.453.48-.493 1.5-1.153 2.32-1.69.835-.52 1.856-1.228 1.856-1.228zm-491.926 5.262l36.36.236-23.246 31.935-1.032-.054c-1.786-11.947-6.246-22.392-12.082-32.118zm80.93 4.366l2.12 2.99s-1.378 1.324-3.665 2.596c-1.84 1.01-3.815-.83-2.665-2.482 1.18-1.65 4.21-3.104 4.21-3.104zm3.956 8.404l.005 1.566-2.52 1.55-1.15-.737 3.665-2.38zm408.628-.715c-1 .056-2.687 1.207-3.248 2.196-.25.43-.16.788.07 1.084.336.452.752.424 1.957-.235 2.473-1.318 2.94-2.105 1.852-2.888-.155-.11-.34-.157-.54-.158h-.092zm-501.41 10.692c.155-.014.34.033.494.02.43.172.288.714-.144.835-.092-.156-.846-.176-.79.584-.187.433-.172.402-.71.46-.355-.095-.603.167-.665.32-.37.2-.833.135-.924-.082-.076-.218.22-.85.482-.85.123.017.34-.183.572-.337-.013-.418.48-.477.62-.476.138.03.6.034.818-.353.077-.077.154-.107.247-.122zm90.936 3.888v2.402l-1.825-1.174 1.824-1.227zm400.955-1.28c6.616 7.872 11.383 16.258 14.404 27.84l-1.33.922c-1.997-8.135-5.083-16.712-14.22-27.885l1.145-.876zm-476.73 5.735c3 2.56 15.278 14.204 17.608 34.866l-1.638 1.013c-1.316-10.906-5.563-23.41-17.027-34.49l1.056-1.39zm419.686-1.557c.832.006 1.52.693 1.515 1.53-.004.837-.687 1.53-1.518 1.525-.832-.006-1.52-.692-1.515-1.53.005-.852.687-1.53 1.52-1.524zm-105.954 4.727s1.393 1.435 1.39 1.776c-.004.682-.545 1.066-3.74 2.238-.54.2-2.9.742-2.9.742l-.086-1.147c1.204-.442 4.443-1.212 4.68-1.908.108-.278-.457-.964-.334-.963l.99-.737zm-381.045 6.367c.755.005 1.367.63 1.377 1.388s-.61 1.39-1.38 1.386c-.754-.005-1.38-.63-1.376-1.388s.61-1.39 1.38-1.386zm176.965 1.21c10.01 9.846 15.505 22.003 16.78 34.567-11.66 9.535-19.59 21.528-22.752 36.528-1.554-2.615-2.874-5.615-4.303-8.538 15.566-13.757 18.852-38.52 5.412-55.89l4.862-6.666zm244.954 1.81l.7 1.09s-.153.14-2.318 1.49c-3.186 1.993-3.718 3.292-2.653 5.33 1.08 2.083 2.296 2.2 5.726.532 1.206-.58 2.242-1.21 2.242-1.21l.547 1.15s-1.534 1.262-4.483 2.344c-2.778 1.02-5.4-.718-5.888-3.96-.355-2.343.654-3.608 4.704-5.922.432-.23 1.422-.843 1.422-.843zm-288.494 13.124c.832.005 1.52.692 1.515 1.53-.005.836-.672 1.53-1.52 1.523-.83-.004-1.52-.69-1.514-1.528s.672-1.53 1.52-1.524zm200.144 1.06l.918.873s-.39.587-2.646 1.952c-2.026 1.227-2.24 1.024-1.23 1.883 1.885 1.61 4.496 5.145 4.474 6.075-.02.883-.796 1.7-2.31 2.372-.818.366-4.09 1.54-4.57 1.63-.954.1-1.22.487-.27 1.36 1.62 1.87 2.996 5.88 2.45 7.085-.625 1.376-1.38 1.603-7.374 1.874-.678.028-1.015-.16-.636.71.273.637.545 1.523 1.082 4.24.477 2.42.393 3.505-.535 4.01-.54.29-4.714.186-6.437-.166-1.97-.385-2.184-.417-1.87.872.42 1.785.667 6.56-.68 7.498-.556.368-1.156.27-3.6-.55-1.566-.538-2.918-1.136-2.918-1.136l.025-1.488c1.275.536 4.76 2.046 5.75 1.572 1.18-1.697-.46-7.645-1.082-8.92-.76-1.524.043-1.86 1.777-.903.904.64 8.754 3.76 8.31.983-.476-2.638-1.334-5.65-2.985-7.552-1.53-1.745-.77-2.47.935-1.698 3.01 1.352 9.25 1.036 8.934-.376-.417-2.282-2.476-5.395-5.294-7.8-.78-.672-.81-.95.115-1.116 2.636-.215 10.187-.988 9.136-2.777-.9-1.463-2.12-3.083-3.147-3.942-1.686-1.42-3.392-2.052-4.16-2.35l.054-1.102c3.467-.287 5.26-1.33 7.782-3.11zm-348.16 3.76c-1.238 13.012-6.65 23.734-17.82 31.21l-.067-1.457c9.81-7.406 14.53-17.963 15.828-28.17l2.06-1.583zm-36.193 6.842l.92.827s-.235.355-1.566 1.416c-1.022.8-.665.476.037 1.426.626.747 1.726 2.258 1.726 2.258l-.337 2.013c-1.16-1.665-2.122-2.88-3.85-4.66-.873-.903-.826-.934.425-1.593.943-.505 1.717-1.135 2.645-1.687zm66.423 3.18s0 .017 0 0c.015.002 1.796 3.253 1.794 3.547-1.07 1-3.866 2.44-5.003 2.107-1.768-.57-2.048-2.463-.347-3.583 1.47-1.075 3.294-2.008 3.54-2.07h.016zm89.352 1.608c.754.005 1.367.614 1.377 1.39-.005.758-.61 1.39-1.38 1.385-.754-.005-1.382-.63-1.377-1.388.005-.776.61-1.392 1.38-1.387zm48.007 5.69c-1.312.348-2.597 1.533-3.325 2.04-.263.185-.053 1.13.19 1.46.322.42.923.346 1.634-.053.294-.168.835-.444 1.205-.612 1.003-.474 1.42-.812 1.393-1.2-.15-.513-.56-1.662-1.098-1.635zm-87.565 1.497c.283 1.46-.596 4.026-1.098 5.465-2.936 3.87-7.2 5.843-11.242 7.18-.896.305-2.11.142-2.11.142 5.61-5.776 10.428-10.023 14.45-12.787zm-118.527 3.915c.37.018.628.5.52.778-.635.337-.987.056-.898.537 0 0 .057.744-.868.77-.23-.095-.615-.082-.8.118-.65.275-1.216-.302-.505-.623.185-.092.663-.228.79-.522.062-.356.357-.65.694-.445.17.017.555.035.68-.228-.045-.31.17-.34.325-.355.017-.03.032-.03.063-.03zm107.46.127c-.154-.017-.277-.002-.308.044-.28.263-.705 4.29-.43 4.57.398.407 1.475.523 1.586.043.335-1.58.265-2.758.428-4.09.017-.248-.798-.532-1.275-.566zm-208.09 5.5c.14.032.26.22.336.56-.02.666-.09 2.046-.343 2.82-.157.602-.62.46-.784-.084-.182-.574-.032-2.2.31-2.865.172-.34.342-.463.48-.43zm28.392 2.376l.962 1.2c-2.035 19.41-15.834 36.2-30.554 42.863l-.038-1.287c16.83-8.898 26.965-23.697 29.63-42.777zm209.04-.89l1.818 2.522-2.62.076.803-2.598zm287.485-1.345c.908.006 5.694 2.967 5.053 4.45-.516 1.176-4.52 1.274-6.367 1.107l.27-1.13s.567.19 2.694-.03c2.25-.155 2.085-.93-.492-2.56-1.104-.705-1.365-.877-1.365-.877l.207-.96zm-416.48 9.127c1.478 2.52 2.892 5.367 4.21 8.538-18.128 17.196-16.74 40.642-5.32 56.03l-4.924 6.68c-9.842-9.457-15.188-21.1-17.002-33.452 14.374-10.384 21.127-25.903 23.036-37.795zm140.316 8.99l1.08 2.083-2.603-.048 1.523-2.036zm358.486 2.548c.83.006 1.52.692 1.514 1.53-.005.836-.672 1.53-1.52 1.524-.83-.006-1.52-.677-1.514-1.53s.673-1.53 1.52-1.524zm-103.75 6.534l.515 1.182c.03.154-3.674 1.323-4.854 2.82-1.103 1.387-.99 2.845-.38 3.84 1.054 1.434 1.792 1.625 3.567 1.078 1.45-.44 2.517-1.053 3.954-1.788l.227.59c0-.03-2.055 1.212-3.632 2.116-.587.337-1.297.472-1.913.468-3.572-.085-5.467-4.732-2.523-7.487.434-.4 1.887-1.213 3.123-1.84.803-.413 1.916-.98 1.916-.98zm-184.234 4.596c11.81 17.174 3.71 35.97-3.925 42.617l-.202-2.017c12.863-14.72 8.4-31.94 3.044-39.584l1.084-1.017zm268.005 2.99l.926 2.113-2.74-.296 1.813-1.818zm-5.842 4.504c.756.005 1.383.63 1.38 1.39s-.626 1.374-1.38 1.385c-.756-.005-1.383-.614-1.378-1.39-.01-.758.61-1.374 1.38-1.385zm-223.037 5.93c10.36 15.15 4.567 39.31-15.21 46.65l-.096-1.69c20.153-8.47 22.146-31.042 14.066-43.774l1.24-1.186zm167.268.068l1.303 3.558c-1.655 1.105-2.288 1.303-4.14 1.756-1.45.33-2.587-2.204-1.472-3.173 1.286-1.108 2.66-1.58 4.31-2.142zm-280.294 2.234c.246-.015-.02.588-.645 2.118-1.376 3.355-1.47 3.432-4.938 3.983-1.804.284-3.144.352-4.437.235-1.94-.183-2.767-.746-1.503-1 3.64-.8 7.657-2.695 10.287-4.538.664-.492 1.066-.784 1.236-.798zm-118.746 1.843c.94.006 1.705.77 1.7 1.716-.007.945-.767 1.715-1.706 1.71-.94-.007-1.705-.772-1.7-1.717.007-.93.767-1.7 1.706-1.71zm310.247.113l-.147 1.317s-2.1 1.118-3.105 1.53c-.757.305-.82.382-.577 1.08.484 1.415 1.443 3.172 1.443 3.172l-.875 2.01c-.527-1.802-1.1-3.712-2.09-5.377-.93-1.308-1.115-1.48.35-1.75 1.883-.638 3.35-1.094 5.002-1.982zm-264.126 5.076c-1.032.04-3.178.91-3.383 1.745-.127.464.008 1.132.407 1.274 1.076.395 3.222-.49 3.782-1.292.17-.247-.088-.76-.286-1.087-.152-.248-.12-.65-.52-.638zm103.187 2.28c.015.002.03.002.062.002.168-.015.81.796.102.73-.247-.018-.463.073-.664.274-.018.387-.574.538-.85.397-.2-.094-.478.106-.51.23-.402.29-.91.272-.97.07-.138-.14.266-.742.62-.708.077 0 .325-.17.557-.37.11-.4.54-.336.803-.32.292.127.572-.274.85-.304zm56 3.986l.757 2.128-2.71-.25 1.953-1.878zm293.158-1.337c.907.255 1.425 1.126.91 1.975-.558.725-1.082.722-1.898.685.673.795.974 1.913.307 2.638-.992 1.016-2.907-.546-2.768-.685l3.45-4.612zm-142.89 3.77s4.182 3.623 4.203 5.25c.01.62-.19.82-.684.99-1.636.546-6.217-.863-6.217-.863l.593-1.128c.722.205 4.258 1.127 4.57.664.31-.478-2.95-3.693-2.964-3.693l.5-1.22zm-384.475 8.6l.497 1.755-1.707-.43 1.21-1.325zm180.81 7.81l.446 2.422-2.737-.638 2.29-1.783zm314.562-.922l.407 1.428c-18.167 8.47-23.482 27.92-14.022 43.993l-1.072 1.48c-12.665-20.682.19-41.664 14.686-46.902zm-327.982 3.688c.354.002.43.204.43.42-.003.295-1.836 2.64-2.424 3.178-1.282.52-6.258-1.575-7.002-3.192-.15-.466.34-.26 1.448-.037 2.782.793 5.607-.305 7.548-.37zm-178.767 9.445c.755.005 1.382.614 1.377 1.39-.005.76-.625 1.39-1.38 1.385-.754-.005-1.38-.63-1.376-1.388.004-.76.624-1.376 1.38-1.386zm242.35-1.73l.247 2.155-2.11-.122 1.862-2.034zm-162.238 2.736c1.378 1.25 3.404 2.285 5.22 2.653 1.122.255.797.36-.24 1.44-.978 1.016-.902 1.156-1.884.654-1.657-.848-3.447-2.766-3.378-3.804.018-.434.098-.945.283-.944zm-82.55 10.742l.34 2.296-2.58-.9 2.24-1.396zm494.67-1.91l.85 2.068-2.296-.062 1.445-2.005zm-338.095 7.836c1.078-.055 1.504.785 1.515 1.482-.002.295-.067.775-.067.775 1.346-.858 3.143-.15 3.088 1.246-.075 1.968-1.03 1.992-2.6 1.72.854 1.43-.155 2.803-1.77 2.28-1.46-.473-1.187-2.037-.488-2.963-3.454.567-4.394 5.52-.4 6.99-.808-1.247-.998-2.75.744-3.004 1.618-.238 2.303 1.006 1.6 2.49 1.53-.533 2.955.345 2.5 1.845-.552 1.795-2.152 1.676-3.085.585.667 1.632-.88 2.8-2.062 2.172-1.857-1.004-.937-2.78.313-3.253-4.77-.497-5.89 6.145-2.37 7.098-.906-.564-.997-3.184 1.065-2.83 2.03.417 1.54 2.305.24 3.164 1.574-.33 3.044 1.043 2.08 2.432-1.12 1.636-2.683.478-3.26-.64.174 1.503-.77 2.458-1.984 1.892-2.09-.974-.55-3.382 1.097-3.232-3.313-1.975-7.837 2.165-5.18 5.593-.097-1.566.666-2.832 1.727-2.655.94.1 1.748 1.174 1.496 2.025-.25.727-1.055 1.264-1.92 1.444 2.54.28 2.76 2.096 1.707 2.99-1.78 1.506-2.617-.235-3.026-1.26-.37 2.54-3.336 1.667-3.448-.163-.094-2.016 2.2-1.97 2.63-1.86.047-.076-1.79-1.9-3.743-2.162l.006-1.162c7.732-4.88 10.405-13.403 7.947-21.48l.465-.54c1.257.97 2.522 3.056 4.852 2.296 0 0-.536-.392-.812-.657-1.21-1.186-.538-2.577 1.142-2.66zm261.135 1.912l.794 1.183c-11.733 13.812-9.602 29.636-2.863 40.112l-.978 1.187c-5.957-7.697-10.827-26.36 3.045-42.484zm-316.992 10.126c.966.564 1.608 1.405 2.51 2.155.706.563.69.67.117 1.21-1.302 1.263-2.03-.57-2.44-1.318-.518-.996-.573-2.02-.187-2.048zm-158.33 2.533c.878.084 1.473.955 1.422 1.653-.017.31.012.558.012.558s.25-.31.45-.695c.998-1.682 3.163-.707 2.796 1.228-.16.914-1.686 1.26-2.1.994.393 1.088 1.454 1.343 2.76 1.8.46.08 1.23.32 1.23.32l.026.728c-7.037 4.45-11.028 12.018-8.446 22.36l-.777 1.063c-1.41-3.435-2.704-3.366-5.044-3.49 0 0 .582.408.918.813.704.84.387 2.312-.584 2.46-2.266.358-2.287-1.27-1.987-2.353 0 0-.404.338-.605.477-.897.583-2.017-.03-2.117-1.192-.1-1.1.273-1.812 1.398-1.944.37-.044.955.053.955.053l-.35-.67c-.53-1.057.645-1.964 1.72-1.74 1.708.414 1.575 1.902.582 3.073 2.648.203 4.045-1.54 3.84-3.276-.232-2.11-1.21-3.264-3.287-3.618 0 0 .335.53.488.794.533.95-.23 2.122-1.354 2.115-1.156-.008-1.888-1.067-1.45-2.118.11-.263.542-.57.48-.6-.045-.017-.63.165-.8.195-1.39.223-2.274-1.007-1.696-2.228.406-.865 1.64-1.105 2.545-.665.138.046.32.25.337.203.03-.047-.09-.327-.12-.528-.285-1.118.257-1.72 1.458-1.634 1.694.105 2.316 1.49 1.184 2.737-.296.324-.746.8-.746.8.06.25 2.4.42 3.61-.843 1.395-1.464 1.615-4.516.22-5.517-.23-.172-.69-.485-.69-.485.67 1.337-.558 2.88-1.634 2.593-2.152-.525-1.972-2.307-.55-2.87 0 0-1.445-.537-1.857-1.13-.58-.824-.39-1.583.322-2.167.882-.723 2.142-.25 2.752.638.362-1.13.89-1.885 2.41-1.27 1.076.517 1.067 1.943-.124 2.726-.372.246-1.05.49-1.05.49s1.012.58 2.244.603c2.37.03 4.253-2.793 3.297-4.94-.198-.434-.687-.995-.687-.995s-.05.76-.207 1.037c-.546 1.08-1.81 1.09-2.56.417-.673-.61-.483-1.444.045-2 .403-.43.758-.506 1.314-.766-.63-.22-1.34-.365-1.643-1.033-.288-.622-.083-1.396.675-1.887.356-.23.68-.29.972-.273zm309.25-1.095l.155 2.434-2.704-1.04 2.55-1.394zm244.657-.694l.97 2.223-2.51-.017 1.54-2.207zm-356.168 3.724c2.346 8.758-.96 15.06-7.26 19.98l-.702-.92c4.91-4.2 8.59-9.15 6.97-17.966l.992-1.094zm215.424-2.034s3.635 4.75 2.916 6.343c-.964 1.528-6.703-1.765-6.625-1.95l.713-.693c.906.378 3.745 1.946 4.378 1.702.225-1.44-1.457-3.296-2.08-4.525l.698-.88zm-353.35 3.037l27.627.52-.826 1.468-2.156.018-4.268 7.6-19.85-.022-.525-9.583zm207.058-.89l-.95 1.747c-.896.273-3.59.317-3.808.502.317.885.686 3.507.686 3.507l-1.072 1.372c-.282-1.69-.76-3.818-1.166-5.37-.362-1.32-.256-1.04 2.55-1.255 1.23-.085 2.526-.232 3.76-.503zm-164.625 7.455l1.14 2.038-2.31.016 1.17-2.054zm3.554 11.317c.124-.046.842.75.964.983-.05.526-.868.816-.99.63-.045-.08-.068-1.257.01-1.598 0 0 .016 0 .016-.015zm-47.793 1.873l-.03 2.542-2.734-1.227 2.765-1.315zm594.312-3.297l-.04 1.643c-9.936 4.88-24.743 17.96-28.976 41.463l-.87-.967c4.224-22.42 18.802-35.686 29.886-42.14zm19.6 4.514l1.237 1.868-2.236.25 1-2.118zm-470.273 16.967l-.216 2.247-2.7-1.505 2.915-.74zm377.573 1.368c.012.527.056.915.083 1.458-6.124 3.975-8.182 10.255-7.17 18.15l-.856 1.267c-1.97-7.174.042-15.997 7.943-20.875zm-334.912 4.84s2.323 5.287 1.406 6.52c-.898.74-2.954-.483-3.905-.986l-.022-1.255s.722.376 1.428.66c1.474.66 1.48-.13.677-2.336-.287-.776-.574-1.677-.574-1.677l.99-.924zm-154.044 3.85c.63.376 2.643.962 2.643.962l-.026 1.504-4.164-1.5 1.546-.966zm565.932-2.252l1.59 1.684-2.22.513.63-2.197zm-445.334 12.964c.154-.014.308-.013.477.02 1.418.008 4.136 1.157 4.136 1.157l-.01 1.66c-1.384-.398-2.98-1.183-4.442-1.394-1.154-.163-1.08.49-1.092 2.132-.014 2.216.543 4.235 1.59 6.46.867 1.833.417 2.326-1.01 1.51-2.576-1.783-8.05-3.12-8.888-2.087-.87 1.064.837 6.345 2.807 8.87.795 1.027.856 1.182.484 1.583-.31.325-.788.337-1.664.068-2.843-.918-6.97-1.115-8.16-.348-1.175.768 1.886 6.058 4.462 7.78 1.67 1.204 1.344 1.79-1.352 1.85-4.404.02-7.8 1.004-7.606 2.215.325 2.063 3.17 4.887 6.442 6.38 1.997.82 1.163 1.156-.164 1.628-2.223.76-4.37 1.97-6.473 3.104l-1.01-1.293s2.104-1.35 4.407-2.637c.54-.307.51-.416-.24-1.056-2.435-2.06-4.238-4.367-4.613-5.92-.36-1.505.386-2.46 2.61-3.3 1.373-.517 1.882-.685 3.085-.956 1.742-.392 1.773-.453 1.027-1.79-.335-.608-.883-1.604-1.217-2.226-2.59-4.48-1.224-6.084 4.814-6.184 1.48-.084 1.77-.082 1.682-.594-.325-2.11-1.25-4.534-1.114-6.316.28-2.695 3.025-3.344 7.868-2.12 1.122.287 1.2.226 1.005-.69-.9-3.85-.09-7.348 2.16-7.504zm513.835-2.45l-.42 2.618-2.575-1.722 2.994-.895zm-191.24 2.878l7.097.465-1.132 1.325-4.297-.09-.162 3.69-1.378 1.183-.127-6.572zm-483.05 7.43l5.853.008-.056 6.23-5.837-.006.04-6.23zm259.846-.3l5.437.005-.01 6.216-5.39.057-.037-6.278zm44.838-.287l5.837.008-.054 6.23-5.776-.005-.006-6.232zm86.76.307c-.135 1.596.185 4.496.33 5.737-.093.372-.355.324-1.877-.027-1.06-.364-4-.46-4-.46l1.224-1.31c1 .115 1.802.105 2.848.25-.008-1.053.035-3.052.035-3.052l1.44-1.138zm185.52 1.867l1.637 1.654-2.097.545.46-2.2zm-439.322 10.996l-.65 2.662-2.357-2.14 3.007-.522zm457.355-.087c1.186-.023 2.17.37 3.256 1.34l.007 1.363-2.32-1.054c-.024 1.55 1.328 4.35 1.328 4.35l-1.112.52c-.96-1.573-1.613-2.988-1.68-4.755.036-.65-.064-1.737.52-1.764zm5.368 2.33l1.948 1.16-2.146.87.198-2.03zm-467.762 19.12l-.957 2.737-2.08-2.37 3.037-.368zm335.655.977l5.24 1.785-.93 1.002-4.35-1.392.04-1.395zm-491.816 9.536l.43 9.706-27.674-.24.964-1.375 1.802-.02 4.734-8.03 19.744-.04zm352.863 1.784l2.054 1.455-2.132.947.077-2.402zm-175.38 7.064l.006 1.58c-6.684 4.965-13.916 13.52-15.153 28.657l-1.797 1.555c.88-14.767 7.014-24.957 16.946-31.79zm543.98.64l-.97 2.458-1.926-2.29 2.896-.17zm-125.876 1.726c-.04 1.472 1.13 6.006 1.13 6.006-1.817.097-3.587-.116-5.546.43l.92-1.67s.862-.086 1.602-.236c1.543-.316 1.387-.115 1.026-1.482-.33-1.273-.36-1.537-.36-1.537s1.12-1.526 1.227-1.51zm48.836 2.542c1.817.012 4.532 1.657 5.758 2.595l-.65.724c-.187.062-2.734-1.318-4.734-1.64.654 1.305.97 2.284 2.42 4.355l-.93.923c-.276-.063-3.907-5.466-2.944-6.684.294-.2.664-.29 1.08-.272zm-79.208 2.683c2.386 14.57 8.08 24.59 17.094 33.592l-.916 1.203c-10.595-9.756-16.367-22.18-17.862-33.86l1.684-.935zm-573.97 11.63l1.95 1.066-1.994 1.166.045-2.232zm185.55 2.874l-.013 2.138-1.224-1.233c.342-.307.744-.615 1.24-.906zm543.256-3.378l-1.324 2.456-1.726-2.32 3.05-.136zm-117.237 4.447c1.77.243 2.332 3.796 1.742 4.49-.275-.436-2.7-1.955-3.803-2.598-.06-.186 1.705-1.787 2.06-1.893zm102.318 6.645l2.832.267-1.51 2.346-1.322-2.613zm-229.166 11.043l2.195 1.084-1.996 1.413-.2-2.497zm-303.02 3.937c.37.003.784.16 1.29.443 1.995 1.113 3.034 2.344 2.92 3.43-.05.494-.328.6-.65.242-.58-.654-2.53-1.504-4.222-1.84-1.277-.257-1.4-.366-1.01-.953.59-.91 1.055-1.326 1.67-1.322zm512.123 2.824c3.05 11.675 8.43 20.654 15.188 28.045l-1.392 1.2c-5.12-5.923-10.76-12.858-15.36-27.86l1.565-1.386zm-180.933 7.593l2.83.437-1.66 2.128-1.17-2.565zm-6.298 3.2c.323.018-.972 4.97-5.47 5.312-2.853.478-3.164.956-3.21 5.405-.053 6.045-1.032 7.45-5.932 7.82-3.25.242-3.67.906-3.132 5.606.526 4.468-1.152 6.75-5.295 6.74-3.59.302-5.064 1.982-5.07 5.315.007 1.35.02 1.675.02 1.675l-2.31.186s-.003-2.2.174-3.268c.705-4.32 2.55-6.06 6.43-6.035 3.004-.228 3.47-.72 3.36-5.295-.108-4.65-.17-4.62 1.04-5.837.774-.785 1.67-1.136 3.242-1.28 4.9-.465 5.286-.788 5.273-5.857-.45-4.203.706-6.784 3.356-6.984 5.36-.43 5.24-3.36 5.01-3.486l2.496-.03.016.015zm-208.13 2.296c3.138 17.1 13.09 33.1 18.55 39.026l-1.065.567c-7.96-9.972-15.2-21.412-18.78-39.57l1.294-.024zm54.635-.416l2.495.032-28.723 40.626-1.518-1.14 27.745-39.518zm-27.737.244c2.693 9.86 4.803 19.485 13.282 32.39l-35.96-.265 22.678-32.125zm29.053.095c.216-.09 1.046 4.983-.2 7.33-1.13 3.17-.588 4.973 1.884 6.12 4.223 1.997 5.288 3.972 4.748 8.85-.376 3.424.645 5.074 3.842 6.164 3.795 1.312 5.46 3.368 5.44 6.747-.005.512-.193 1.115-.193 1.115l-2.118 1.257s.034-.465.114-1.007c.548-3.732-.154-4.744-4.532-6.51-4.147-1.67-5.167-3.598-4.458-8.398.226-1.564-.088-3.147-.727-4.345-1.08-1.945-3.483-1.93-5.197-3.708-1.422-1.513-1.578-3.638-.37-7.273.755-2.258.87-3.11.28-4.974-.377-1.242-.53-1.352-.53-1.352l2.017-.017zm4.62.28l2.444.682-1.83 1.91-.615-2.592zm-177.47 5.454c.83-.025 2.46.28 3.78.94 3.04 1.522 3.587 2.782.927 2.098-1.507-.382-3.663-.303-5.746.226-2.206.545-2.16.576-1.396-.768.966-1.698 1.217-2.456 2.434-2.495zm521.248-.325c1.85-.035 3.71.504 5.445 1.167l-.56.956c-1.216-.21-2.475-.806-4.324-.648.76 1.462 1.65 2.212 2.843 3.49l-.453.96c-.11.122-3.51-2.72-4.19-4.648-.27-.87.008-1.255 1.24-1.278zm-100.196 4.148c.91.006 1.643.74 1.653 1.654-.006.914-.735 1.67-1.643 1.663-.91-.006-1.644-.74-1.653-1.67-.01-.898.72-1.637 1.644-1.647zm-185.407 2.777s2.676 5.35 2.506 5.55c-1.668.733-3.488 1.124-5.31 1.794l.35-1.547s.615-.042 2.653-.82c.973-.38-1.073-3.122-1.073-3.122l.874-1.853zm176.567-.673l2.784.5-1.862 2.095-.922-2.596zm-111.964 2.61c.663-.06 1.67 1.234 1.67 1.234l-3.37 4.69c-1.6-.32-1.262-2.767.202-2.85.34.002.954.068.954.068s-.445-.25-.72-.594c-.962-1.215-.03-2.45 1.264-2.55zm-241.637 3.368c3.926.04 3.972 4.877 3.207 6.47-.546 1.096-1.38 1.71-3.884 2.84-2.178.995-2.423.916-2.423.916l-.517-1.166s1.267-.566 2.626-1.115c2.825-1.144 3.51-2.023 3.2-4.07-.43-2.903-2.66-3.367-6.984-1.41-.495.23-1.127.457-1.127.457l-.288-.59c.062-.062 3.46-1.838 5.36-2.29.29-.015.57-.044.83-.042zm183.287 5.033l2.213.743-1.612 1.602-.6-2.345zm-234.19 5.968c1.957-.003 3.572.333 3.567 1.03-.002.34-.08.356-1.837.608-2.682.37-7.147 2.667-9.656 4.806-1.486 1.26-1.1.97-.472-.856.628-1.825 1.55-3.99 2.06-4.327 1.254-.844 4.12-1.26 6.34-1.26zm510.66-.232l1.89.417-1.223 1.2-.667-1.616zm-182.37 3.673c.677-.01 1.014.317 1.27.954.577 1.4.002 2.232-2.175 3.18-.99.442-1.87 1.072-2.965 1.266l-1.378-3.713s.432-.168 1.868-.748c1.637-.67 2.7-.928 3.38-.94zm-41.06 6.242c4.356 12.428 9.695 20.492 15.334 27.194l-1.36.858c-5.99-7.153-11.512-15.528-15.483-27.846l1.51-.207zm13.212 3.15c.185.018.277.096.245.22-.003.527-7.86 8.01-12.35 11.81-2.044 1.737-1.983 1.722-2.15 1.504-.116-1.29.76-5.902 1.29-6.705 2.993-3.19 7.63-5.794 12.133-6.757.355-.06.632-.09.832-.072zm222.785.23c-.523.013-1.326.334-2.376.745-1.543.595-1.67 1.322-.984 2.21.306.39.615.3 2.097-.28 1.513-.595 2.16-.87 2.257-1.412.13-.79-.3-1.273-.993-1.262zm-231.566 2.385c.28 0 .523.25.52.576 0 .248-.34.48-.71.476-.123 0-.432.075-.633.275-.187.278-.327.556-.666.492-.2-.033-.584-.05-.723.072-.697.6-1.372.1-1.06-.503.078-.156.356-.23.587-.23.2 0 .647-.042.71-.29.08-.294.526-.368.82-.35.337.048.6-.12.694-.26.123-.108.263-.23.4-.23.017-.03.032-.03.063-.03zm-34.65 2.36c.91.005 1.66.74 1.654 1.653-.006.915-.735 1.67-1.66 1.664-.908-.006-1.642-.74-1.65-1.67.02-.914.748-1.653 1.657-1.648zm-218.84 1.936l2.492.34-1.568 2.037-.924-2.377zm-81.086 2.4c.91.006 1.643.74 1.653 1.654-.006.914-.735 1.653-1.643 1.663-.91-.006-1.643-.74-1.653-1.654-.008-.93.736-1.67 1.644-1.664zm225.256 6.922l2.71.172-1.554 2.083-1.156-2.255zm-253.51 12.48c.908.006 1.643.74 1.652 1.654-.005.915-.734 1.654-1.643 1.664-.91-.006-1.644-.74-1.653-1.654s.72-1.67 1.643-1.663zm146.39 2.742c1.124-.024 2.448.093 2.448.093l-.316 1.27c-1.372.13-3.14-.254-4.623.372.548.903 3.758 2.18 4.126 2.507.03.14-.27 1.347-.27 1.347.09.31-5.438-2.27-5.624-4.44-.01-.713 2.38-1.116 4.258-1.15zm352.962 4.258c3.14.036 4.7 4.448 3.47 6.41-.483.88-1.584 1.926-3.022 2.847-.696.445-2.534 1.347-2.534 1.347l-.824-1.276s.726-.29 1.422-.673c1.73-.98 5.24-3.08 3.55-5.93-.946-1.54-2.376-1.843-5.343-.328-2.208 1.133-2.717 1.238-2.717 1.238l-.563-1.027c.17.063 4.436-2.513 6.562-2.608zm-94.34 8.156c1.506 2.924 4.064 5.126 4.77 5.658 0 0-2.553 1.657-4.084 2.702l-.902-1.06 2.2-1.893-2.473-3.47.49-1.936zm-15.823.775h2.463l-1.062 2.24-1.4-2.24zm-297.137 4.816c-.286 1.44-.327 2.974-.445 4.662.535.5 1.027.75 1.458.723.472-1.515.822-3.233.602-5.017-.46-.344-1.06-.302-1.615-.367zm525.763-1.027c.062-.016.124-.016.2.016.307.157.275.373.29.653-.007.944.124 2.138-.283 3.05-.234.526-.756.32-.767-.377-.025-.96.165-1.766.232-2.65.018-.37.143-.633.328-.694zm-31.073 3.65c1.616.12 2.24 1.488 1.647 2.46-1.46 1.882-2.956 2.23-4.888 3.317l-1.917-3.61c0 .017 3.74-2.113 5.158-2.166zm-193.014 9.316c-1.08.132-1.746.655-2.657 1.1-1.097.534-1.457 1.384-.723 2.148.826.92 3.705-1.278 4.186-1.817.295-.463.236-.882-.162-1.21-.17-.125-.384-.204-.645-.22zm-59.343 4.522l2.418.03-1.306 1.853-1.113-1.882zm-265.563 3.493c.108.002.2.05.277.096.415.297.38.824-.206.975-.293.077-.8.074-.804.477-.002.294-.45.4-.71.367-.262-.048-.693-.066-.788.26-.218.447-.388.445-.694.133-.336-.343-.18-.76.468-.833.277-.03.525-.23.62-.446-.015-.28.17-.433.48-.37.43.004.708-.165 1.02-.566.122-.092.23-.107.338-.09zm310.51-.593c.91.006 1.643.74 1.653 1.654s-.735 1.67-1.644 1.664c-.908-.006-1.643-.74-1.652-1.67-.01-.898.735-1.637 1.644-1.647zm-111.25 4.315c.91.006 1.66.74 1.654 1.67s-.735 1.653-1.66 1.663c-.907-.006-1.642-.74-1.65-1.654.005-.945.75-1.684 1.657-1.678zm-123.803 19.5l.01 1.256c.045.063-2.566 1.208-4.095 1.91-.494.277-.298.805-.27 1.348l-.743.507s-1.01-.75-1.147-1.232c-.36-1.52 4.426-3.334 6.246-3.787zm272.464 4.964l18.874 13.004-1.29 1.898-17.526-12.003-.058-2.9zm-503.09 5.07c1.23.008 2.165.71 3.096 2.144 1.814 2.848.906 5.09-2.866 7.39-1.748 1.058-1.763 1.074-1.763 1.074l-.885-1.106s1.283-.752 1.81-1.09c3.092-1.963 3.965-3.71 2.607-5.67-1.312-1.885-2.684-1.74-6.52.7-.772.492-1.7.89-1.7.89l-.838-1.154s2.163-1.117 2.905-1.593c1.685-1.073 3.074-1.59 4.152-1.584zm507.438-.532c.908.006 1.658.74 1.652 1.654s-.734 1.67-1.658 1.664c-.91-.006-1.643-.74-1.653-1.67s.75-1.653 1.66-1.648zm-123.545 5.583c.91.006 1.643.74 1.653 1.654-.006.916-.735 1.655-1.643 1.665-.91-.006-1.644-.74-1.653-1.654s.734-1.653 1.643-1.663zm-216.624 5.836c.63-.027 1.09.394 1.348 1.016.653 1.6-.232 2.788-3.463 4.61-.278.154-.85.46-.85.46l-2.38-3.3s.834-.585 1.623-1.06c1.794-1.15 2.922-1.702 3.723-1.727zm352.644 5.525c-.154 0-.324.06-.525.183-.835.476-2.21.994-2.86 1.874-.39.524-.208 1.068.51 1.74.615.406 3.787-1.93 3.868-2.61-.288-.73-.53-1.198-.993-1.185zm-95.94 4.444l.522.36-.528.415.005-.775zm-423.467 5.125c.2.017.384.065.476.174.23.28.088.776-.406.866-.247.045-.617.105-.742.476-.094.247-.434.447-.773.444-.385-.095-.586.152-.618.322-.187.324-.665.383-.955.07-.23-.233.175-.928.437-.926.045.016.337.095.694-.383.08-.342.466-.556.758-.54.292.096.464-.228.588-.413.14-.077.355-.107.54-.09zm424.898-1.085l.75.517-2.01 1.443.007-1.163 1.253-.797zm-509.52 6.898l1.026.69-3.76 2.703-.006-1.473 2.74-1.92zm9.974 6.467l1.09.72-5.74 3.9-.005-1.503 4.655-3.117zm12.74 7.715l-.008 1.255-6.714 4.716.008-1.27 6.714-4.7zm12.177 6.552l1.44 1 .342 42.553-9.05 6.25.012-1.86 7.597-5.53-.34-42.413zm113.348 6.1c-2.032 2.33-4.76 2.48-7.13 2.42-6.392.082-10.368.428-11.203 8.11 2.615-1.966 5.374-2.212 8.576-2.113 4.052-.004 5.87-.27 7.524-1.098 2.642-1.33 4.32-3.707 4.008-5.368-.32-.358-1.143-1.852-1.774-1.95zm489.955 2.32l.006 1.473-6.73 4.53-.006-1.49 6.73-4.512zm-527.244 6.55c.908.004 1.658.738 1.652 1.652s-.734 1.654-1.658 1.664c-.91-.006-1.644-.74-1.653-1.654.007-.915.75-1.67 1.66-1.663zm377.528-2.125c11.871.37 37.083.24 37.083.24l1.344 1.946-39.638-.443 1.212-1.744zm-163.566 2.765c.37-.03.413.468-.347 1.207-1.425 1.4-2.893 2.09-7.56 1.997-4.926-.095-6.856.683-8.134 2.906-.372.65-.36.897.168.405.45-.54 1.473-1.57 1.898-.592.835-.552 1.565-1.385 2.004-.328.247-.06 1.658-1.492 2.004-.22.683-.77 1.27-.998 1.586.09.973-.46 1.47-1.34 2.033-.128.774-.553 1.364-1.262 1.82-.19.662-.197 1.332-1.417 1.727-.438.076.032 2.473-1.425 3.144-2.862.563-1.268 1.066-.427.44.87-1.62 3.168-4.4 4.328-10.792 4.333-3.88.005-5.47.383-6.69 1.103-1.95 1.15-.898-1.742.468-3.484 1.724-2.206 3.7-2.86 9.09-2.654 2.94.02 4.82-.387 5.626-1.033.666-.585 1.146-.97 1.516-.982zm337.47-2.005c.91.005 1.66.74 1.654 1.67-.006.913-.735 1.653-1.66 1.662-.907-.006-1.642-.74-1.65-1.654.005-.93.75-1.67 1.657-1.68zm-503.62 8.222l.006 1.504-6.714 4.606-.005-1.534 6.712-4.576zm-92.03 8.39l5.204.003-.005 5.534-5.204-.004.005-5.534zm190.182 2.592l5.605.005-.006 5.533-5.605-.006.004-5.533zm76.615-.224l5.404.004-.004 5.363-5.405-.004.004-5.363zm80.345.617l3.602.132s2.002 2.554 2.84 3.738l-2.657 1.378-3.788.006.003-5.255zm31.074.45c-1.017-.007-1.84.825-1.845 1.848-.007 1.023.82 1.85 1.836 1.856 1.017.008 1.84-.824 1.845-1.847-.01-1.023-.82-1.85-1.836-1.856zm-171.43 3.53c-1.016-.007-1.838.824-1.844 1.847s.82 1.85 1.836 1.857c1.016.008 1.838-.824 1.845-1.847s-.82-1.85-1.837-1.857zm78.078.577c-1.016-.006-1.837.825-1.844 1.848-.007 1.023.82 1.85 1.836 1.857 1.016.005 1.838-.826 1.845-1.85s-.82-1.865-1.836-1.856zm38.094.19c.368.264.596.684.593 1.165-.005.79-.64 1.436-1.426 1.43-.278 0-.54-.08-.754-.22l1.586-2.377zm-155.647 3.163c.678.004 1.213.55 1.224 1.217-.005.682-.548 1.22-1.225 1.217-.678-.004-1.213-.55-1.21-1.216-.01-.667.548-1.206 1.21-1.217zm57.74-.045c.818.006 1.476.66 1.47 1.482s-.656 1.484-1.472 1.48c-.817-.006-1.475-.662-1.47-1.483s.657-1.483 1.473-1.478zm172.36-.863c-1.015-.007-1.837.824-1.843 1.847s.82 1.85 1.836 1.857c1.016.006 1.838-.825 1.844-1.848s-.82-1.866-1.836-1.857zm3.586-.176c.817.006 1.475.66 1.47 1.482s-.656 1.484-1.473 1.48c-.816-.006-1.474-.662-1.47-1.483.007-.822.673-1.484 1.474-1.48zm-161.538 1.552c.677.004 1.213.55 1.224 1.217s-.547 1.22-1.224 1.216c-.678-.005-1.214-.55-1.21-1.218s.532-1.22 1.21-1.216zm-13.74.203l.007 1.488-6.716 4.715-.006-1.457 6.715-4.747zm-198.866 1.97c.677.004 1.213.55 1.21 1.216-.006.682-.548 1.22-1.21 1.232-.678-.004-1.214-.55-1.225-1.232s.548-1.22 1.226-1.217zm319.308-2.014c.816.005 1.474.66 1.47 1.482s-.657 1.484-1.473 1.48c-.816-.007-1.474-.662-1.468-1.483s.656-1.47 1.472-1.48zm-15.414 1.36c.678.003 1.213.55 1.224 1.216-.004.682-.546 1.22-1.224 1.217s-1.213-.552-1.21-1.218.533-1.22 1.21-1.217zm48.513 2.15c3.126-.04 6.52 1.563 8.428 4.226 2.886 3.894 4.81 8.85 5.692 15.367.426 3.226 1.92 12.908 2.767 15.192l-1.17-.225c-.155.077-1.655-6.087-2.588-14.23-.35-3.01-.988-6.905-2.72-10.466-1.976-4.057-5.352-8.357-9.847-8.696-2.617-.203-5.09 1.455-5.353 3.778-.38 1.842.686 3.554 2.1 4.137 1.38.566 3.032.142 3.213-1.747.033-.31.004-.62-.117-.916.648-.104 1.123.194 1.382.722.138.016-.003 2.743-2.132 3.287-2.577.85-5.548-1.726-5.778-4.33-.17-2.203 1.495-4.92 3.594-5.667.788-.29 1.65-.423 2.53-.433zm-306.148 9.88l.006 1.52-6.713 4.668-.005-1.534 6.713-4.654zm-86.068 6.342c3.758-.1 7.412 4.11 8.965 6.894 1.614 2.894 2.893 7.506 3.327 11.833.752 7.368 2.146 13.39 2.436 13.672l-1.03-.224c-.216.14-1.62-6.505-2.482-13.92-.48-4.157-2.01-8.275-3.823-11.45-1.674-2.924-3.94-5.108-6.632-5.436-1.678-.166-3.406.32-3.756 2.1-.176 1.052.356 2.08 1.603 2.164.293.02.57.052.616.052.647.113-.376 1.19-1.053 1.094-2.416-.342-3.52-3.573-1.614-5.297 1.13-1.016 2.29-1.458 3.444-1.482zm114.31 5.597l42.195.46s.042.76-2.59.635c-2.233-.108-3.683.208-5.165.68l-33.157-.092-1.282-1.683zm16.868 6.014l.006 1.41-6.714 4.73-.005-1.55 6.715-4.59zm-130.8 4.418c.818-.01 1.633.197 2.262.557 5.232 3.057 7.216 10.618 7.91 15.382.94 7.06 2.02 13.607 2.313 13.764l-1.138-.255c-.154 0-1.393-6.116-2.165-12.957-.627-5.538-2.5-11.1-6.228-13.448-2.393-1.643-2.87-1.8-3.97-.848-.96.83-1.92-.415-1.13-1.433.543-.524 1.33-.752 2.147-.762zm88.168 4.38l-.008 1.162-6.714 4.7-.005-1.38 6.728-4.482zm-76.96 11.172c.094-.077 3.628 5.976 4.737 15.53.583 5.027 2.268 13.595 2.545 13.674l-1.23-.132c-1.247-5.06-1.94-9.84-2.62-14.154-.755-4.872-1.358-9.216-4.386-14.878l.954-.04c-.015 0 0 0 0 0zm169.578-.908l1.094.022c1.87 3.593 3.868 9.186 4.555 14.787.584 4.84 1.184 9.758 2.907 14.885l-1.184-.334c-1.483-4.163-1.99-9.188-2.787-14.386-.872-5.772-2.24-10.787-4.585-14.972zm11.176.246c1.924 5.003 3.17 7.398 4.04 13.558.678 4.778 1.64 10.752 3.817 17.09l-1.108-.053c-1.62-4.366-2.86-10.233-3.425-15.848-.767-7.647-4.17-14.768-4.202-14.722l.878-.025zm35.33-.28c.108-.154 3.65 7.015 4.478 14.88.55 5.242 1.765 10.427 3.427 15.43l-1.14-.024c-1.313-1.527-2.283-8.757-3.364-15.522-1.095-6.89-2.654-11.13-4.386-14.754l.986-.01c0 .016 0 0 0 0zm-13.27.194l1 .007c2.643 5.798 3.73 9.26 4.54 14.862 1.017 7.09 2.007 13.5 3.09 15.165l-1.23-.086c-1.693-5.11-2.46-10.23-3.06-15.35-.64-5.52-2.228-10.26-4.34-14.598zm-10.177.24l1.2.023c2.068 4.214 3.775 9.325 4.37 15.188.332 3.18.9 8.05 3.27 15.553l-.953-.068c-1.94-5.035-3.102-10.98-3.793-16.146-.69-5.212-1.925-9.53-4.095-14.55zm37.917.08c1.136 2.922 2.057 5.826 2.67 8.807l-.672 1.327c-1.053-3.944-2.25-7.005-3.446-10.113l1.447-.022zm35.056-.12l1.463.04c2.503 5.86 3.787 12.053 4.144 14.132 0 0 .342 1.83.37 2.436-.096 5.115.79 8.763 2.68 14.263l-.863-.068c-2.192-6.4-2.78-10.93-3.336-15.274-.472-5.46-2.238-11.08-4.457-15.53zm-26.66.325c1.485 3.76 2.632 7.38 3.656 11-.053.82-.12 1.718-.664 2.38-1.22-4.424-2.236-9.034-4.118-13.37l1.125-.01zm21.284.096l1.154.023 2.3 6.634-.9 1.002c-.68-2.19-1.372-4.613-2.553-7.66zm21.888.126l.85 1.99-.914.768s-.926-1.866-1.167-2.75l1.232-.01zm38.765.036l.423 1.15-.758.584-.59-1.71.925-.024zm2.783-.077l1.186.007c.483 1.398 1.754 4.816 1.754 4.816l-.853.91c0-.016-1.603-4.336-2.087-5.734zm-34.445.377l1.047.006c.318.9 1.303 3.42 1.303 3.42l-.73.692-1.62-4.118zm15.665-.046l1.047.055-.125.262-.65.322-.272-.64zm-3.943 1.517c4.374 2.323 5.577 9.26 6.045 13.09.82 6.672 1.755 12.088 1.94 12.228l-.97-.16s-.717-3.43-1.205-6.69c-.413-2.715-.722-4.98-.84-6.02-.07-.65-.174-1.41-.234-1.675-.614-2.732-.81-3.37-1.585-5.032-.76-1.602-1.018-2.007-2.27-3.425-.49-.546-.95-.952-1.117-1.294-.244-.5.237-1.023.237-1.023zm-210.087 9.77l-.01 1.302-6.714 4.776-.006-1.504 6.73-4.575zm-121.482 5.057l.006 1.504-6.728 4.45-.007-1.332 6.73-4.622zm.1 15.08l.005 1.394-6.714 4.715-.005-1.44 6.714-4.67zm11.318 15.447l.585.005.04.977-.908-.052.283-.93zm50.463 8.478l.006 1.488-6.728 4.467-.006-1.395 6.73-4.56zm-51.05 7.582l1.417.01-.022 1.022-1.832-.058.437-.974zm57.043 4.373l2.325.046-.006.976-2.895-.05.576-.973zm-14.177 9.247l.006 1.566-6.73 4.498-.004-1.58 6.728-4.484zm-44.79 3.136l3.42.038-.022.82-4.08-.025.682-.834zm38.287 9.47l.005 1.534-6.727 4.328-.005-1.38 6.728-4.482zm-39.613 6.022l4.696.061-.112.79-5.344-.02.76-.832zm31.84 5.347l.006 1.472-6.727 4.405-.008-1.426 6.728-4.45zm-33.49 9.43l6.173.147 1.302 1.187-9.61.045 2.134-1.38zm27.393 1.968l10.61.13.735.688-11.382.036.036-.853zm-13.675 12.26l.005 1.567-6.727 4.42-.007-1.426 6.728-4.56zm-15.476 3.338l11.765.062-.853.956-10.92.022.008-1.04zm15.655 8.516l.006 1.427-6.713 4.59-.005-1.642 6.712-4.374zm-15.86 7.363l10.165.034-1.192.938-7.024.156-1.948-1.13zm14.264 5.727l.008 1.365-6.715 4.84-.006-1.536 6.714-4.668zm-11.186 10.002l5.975.023.117.806-5.128-.018-.966-.813zm35.41 2.374l4.572.045.21 1.04-4.082-.06-.7-1.026zm1.35 9.67l-.01 1.27-6.714 4.717-.006-1.41 6.73-4.576zm-30.105 5.335l.054.99-2.727.108-.763-1.044 3.435-.055zm69.773 6.99l-.022 1.04-1.91.034-.423-1.01 2.356-.063zm-1.764 11.415l1.51.01-.13.805-1.17.008-.21-.823zm-8.76 12.16l.74.005-.13.634-.368-.002-.242-.637zm17.405 21.08l-.357.448 10.503.006.112-.45-10.257-.004zm95.582 57.205l-.19.62h4.745l.127-.62h-4.683zm82.11-.382l-.144.572 12.12.002-.196-.575h-11.78zm57.045.39l.242.698 4.08-.005-.272-.698-4.05.005zm93.67-.52h-7.163l.256.777 7.408.002-.503-.78z"/></g></g><path id="path163-0-2-5-8-7-5-0-7-4_1_" class="st0" d="M42.022 53.353s-3.7-6.1-8.7-13.3c-3.4-4.8-6-10-6.3-14.5-.3-5.1 2.4-10.3 7.3-10.5 4.9-.2 6.9 3.9 7.7 7.4.8-3.5 2.8-7.7 7.7-7.4 4.9.2 7.6 5.4 7.3 10.5-.2 4.5-2.9 9.7-6.3 14.5-5 7.2-8.7 13.3-8.7 13.3z"/><path id="path163-0-2-5-8-7-7-8-0-0-6_1_" class="st0" d="M124.422 173.253s-3.7 6.1-8.7 13.3c-3.4 4.8-6 10-6.3 14.5-.3 5.1 2.4 10.3 7.3 10.5 4.9.2 6.9-3.9 7.7-7.4.8 3.5 2.8 7.7 7.7 7.4 4.9-.2 7.6-5.4 7.3-10.5-.2-4.5-2.9-9.7-6.3-14.5-5-7.2-8.7-13.3-8.7-13.3z"/></g></svg>