<svg xmlns="http://www.w3.org/2000/svg" width="166.3" height="226.6" viewBox="0 0 166.3 226.6"><style type="text/css">.st0{fill:#D40000;} .st1{fill:#131F67;} .st2{fill:#E2CF00;}</style><g id="g6073_1_"><path id="path10446-4-8_1_" class="st0" d="M8.026 44.753s-1.8-2.5-4.2-5.5c-1.6-2-2.9-4.2-3-6-.1-2.1 1.2-4.3 3.5-4.4 2.3-.1 3.3 1.6 3.7 3.1.4-1.4 1.3-3.2 3.7-3.1 2.3.1 3.6 2.2 3.5 4.4-.1 1.9-1.4 4-3 6-2.5 3-4.2 5.5-4.2 5.5z"/><path id="path10448-8-7_1_" class="st0" d="M158.326 181.853s-1.8 2.5-4.2 5.5c-1.6 2-2.9 4.2-3 6-.1 2.1 1.2 4.3 3.5 4.4 2.3.1 3.3-1.6 3.7-3.1.4 1.4 1.3 3.2 3.7 3.1 2.3-.1 3.6-2.2 3.5-4.4-.1-1.9-1.4-4-3-6-2.4-3-4.2-5.5-4.2-5.5z"/><path id="path37-2-5-5-0_1_" class="st0" d="M2.226 17.653h-2.2v-3h2.2s0-1.6.1-4.5c.1-6.1.3-7 2-8.7 3.5-3.3 9.3-.6 9.2 4.4-.1 7 0 13.7-.2 14.6-.4 1.7-.4 1.8-.3 2.1.3.6 2.9.9 2.9.7v3c-2 .2-2.8 0-4.4-1.2-1 1-4 1.9-6.5.8-1.8-.9-3.2-3.2-2.8-8.2zm12.374 11.747c-1.1-1.6-2.9-3.7-4.6-4.5-.1 1.8 0 3.3.7 4.1.9 1.3 2.6 1.6 3.9.4zm.9-17.3c-.8-2.3-2.9-3.1-4.4-1.6-.9.9-1.1 1.8-1.1 6.9v4.5c3 1 5.7 4.4 5.7 4.4l.1-9.5c0-1.7-.1-3.2-.3-4.7z"/><path id="path37-3-27-3-0-9_1_" class="st0" d="M164.126 208.953h2.2v3h-2.2s0 1.6-.1 4.5c-.1 6.1-.3 7-2 8.7-3.5 3.3-9.3.6-9.2-4.4.1-7 0-13.7.2-14.6.4-1.7.4-1.8.3-2.1-.3-.6-2.9-.9-2.9-.7v-3c2-.2 2.8 0 4.4 1.2 1-1 4-1.9 6.5-.8 1.8.9 3.2 3.1 2.8 8.2zm-2.426 1.347c1.1 1.6 2.9 3.7 4.6 4.5.1-1.8 0-3.3-.7-4.1-1-1.4-2.6-1.7-3.9-.4zm-.9 17.3c.8 2.3 2.9 3.1 4.4 1.6.9-.9 1.1-1.8 1.1-6.9v-4.5c-3-1-5.7-4.4-5.7-4.4l-.1 9.5c0 1.6.1 3.2.3 4.7z"/><path id="path3054-4-0-3_1_" class="st1" d="M148.426 8.053h-130.6v210.5h130.6V8.053zm-11.126 8.247h14v81.2s-1.2 0-1.1-.6c.1-.8 0-2.2-.5-2.8-.2-.3-.6-.6-.7-.9-.4-.7-1-1.5-1.4-1.7-.2-.1-.5-.2-.5-.3 0-.2-.1-.7-.2-1.1-.3-1.2-.5-1.1.3-2.3 2.5-4 3.5-7.7 3.2-11.4-.1-1.1-.4-2.6-.5-2.8-2.5 2.5-4.2 5.6-5.9 7.8-.4-3.2-.3-5.7-.4-8.3 1.3-.4 2.1-1.1 2.7-2.9 0 0 1.4 1.1 2.3 1l-.6-2.1c3.8-1.2 4.3-6.1-.2-7.2l.4-2.6s-1.3.5-1.9.7c-.3.1-.4 0-.6-.4-2.1-3.3-5.3-2.6-6.7.6l-1.7-.7c.2.9.4 1.8.3 2.7-3.6 1.6-2.7 6.1.2 6.7l-.3 2.1 2.2-.7c.3 1 .2 1.6 1.9 2.7 0 4.4-.1 7.1 0 11-2.3-2.4-4.5-4-8.3-5.2 0 0 0 .9.2 2.4.1.5.1.4-.2.4-.5 0-2.8-3.7-2.8-3.7s-.3 0-.5.2c-.3.3.3.8 1.2 2.1 1 1.5.9 1.4.1 2.1-4.5 3.9-11.1 18.6-10 20-2.9.2-14 5.7-16 17-.1.5-.4 1.2-.4 1.2l-3.2-.8c1.9-9.3 6.3-28.2 6.3-28.2s3.1-.9 4.9-1.1v-.7l-4.2 1 .2-1.6 4-.8v-.4l-4.2.6.7-2.7s-9.5 1.4-12.9 1.3c.2 10.5-.6 19.2-.2 30.5l-4.7-2.8c-.5-8-.6-27.8-.6-27.8l-12.9-2 .4 3.1c-10.7-4.3-21.3-8.2-29.2-16.5 4.8-3.7 12.9-7.5 12.9-7.5l-.2-.6C42.1 73.9 34.9 81 24.9 89.9V16.3h53.8l-.2 13.5s-.1.3-.2.5c-.7 3.2 1.2 9 .9 11.8.2.9.1 2.5.1 2.5-3.2 4.5-5 8.7-6.4 13.9-.6.2-1.4.7-2 .8l-.1.7c1.3-.7 4.9-1.9 4.9-1.9 16.1 7.9 27.9 6 40.5.1-2 7.1 2.4 16.2 9.6 18.1.8.2 2.2.4 3 .2.8-.2-1.8-6.3-3-6.5-3.5-1.5-4.9-5.1-4.5-9.2l-.6-1c-1.2 5 1.7 10 5.6 11.2l1.1 2.3c-7.1-2.1-10.1-8.8-7.8-15.5 0-4.1-2.6-6-3.8-7.7-6.2-2.4-7.3-8.1-6.2-12.8 2.9 1.2-1.9-4.1-1.9-4.1-2.1 4.6-3 10.5 1.8 16.4-3.1 4.2-7.2 7.5-11.7 10.3-6.6 3.5-11.6 1.1-14.7-6.6-1.9-4.6-2.6-9.2-2.6-14 0-3 0-3.1 1.2-2.6 1 .5 3.3.5 4.7-.2 1.8-1 1.8-.4-.2 1.7-.5.6-1.1 1.1-1.1 1.2 0 .6.9.1 2.1-1.1.4-.4.8-.9.9-.9.2 0 .1.6 0 1.2-.4.4-.7 1.4-.9 2.4s-.5 2.1-.6 2.6c-.5 1.7-.4 2.5 1.2 3.3.9.4 2.3 1.8 2.3 1.8s-.4-1.6-.2-2.1c.2-.6.9-.2 1.6.2 1.6.8 2.5.8 3.4.1 1.2-1 .8-3.2-.6-3.8-1.1-.4-1.3 0-.2.7 1.6 1.1-.2 2.9-1.6 1.8-1.1-.8-2.9-.9-3.1-.2-.2.7-.4.5-1.1.1-1.2-.7-1.2-.8-.2-4.5 1.8-7.1 1.6-9.7-.8-11.8-1.8-1.6-4.7-2.3-7.8-.6v-2.4c4.5-1.8 7.8-4.9 10.4-9.9h.5c2.6 5.7 6.9 9.9 14.9 13 3.1 3.1-4-8.9-1.7-4-4.2-1.7-8-4.9-10.1-9h1.2c1.2 1.8 3.7 5.1 8.1 7.3 1.9 0-2.8-5.8-3.5-7.3h36.9c-1.2 9-2.8 18.7 3.7 36.3-3-1.6-15.2 1.8-13.1 2.5 1.1-1.3 8.8-3.1 14.6-1.7-.6-.5-8.9-19.9-4.1-37.1zm4 37.1zm-28.5 34.9v1.4l.3-.1-.2-1.4-.1.1zm-33.3-72h1.6c-.4.7-.9 1.4-1.7 1.8l.1-1.8zm2.8 0H84c-1.4 2.2-2.8 3.6-4.5 4.6v-1.7c1-.9 2-1.9 2.8-2.9zm2.9 0h1.6c-2.2 3.4-4.4 5.7-7.3 7.2v-1.4c1.8-1.4 4.3-3.6 5.7-5.8zm2.4 0h1.3c-2.2 4.3-5.4 7.3-9.4 9v-1c4.5-2.5 6.4-5.2 8.1-8zm3.6 0h1.6c2.1 4.3 6.6 8.4 11.5 10.2l.7 1.7c-6.5-2.3-10.7-5.8-13.8-11.9zm4.5 0h1.1c1.2 1.6 2.6 3.1 4.3 4.2l1 2c-2.3-1.6-4.8-3.5-6.4-6.2zm2 0H99l1.6 2.9c-1.1-.6-1.9-2-2.9-2.9zm-1.4 11.2c-1.7 0-3.3.5-4.4 1.4-1.2 1-.3 2 1.4 1.2 2.9-1.4 6.3-.7 9.9 1.2 3 1.7 2-.1-.9-1.9-1.9-1.3-4.1-1.9-6-1.9zm-13.7 2.2c2.4 0 5.3 1.1 5.3 2.6-1.6-1.4-4.9-2-8-.6-.2-.1-.3-.9-.1-1.2.6-.6 1.7-.8 2.8-.8zm14.8.9c-1.5 0-3 .4-3.6 1.3-.3.4-.4.5-.8.4-.7-.1-.7.3.1 1.4.4.6.3 1.2-.2 1.9-.6.9-.5.9 1.3 1.8 1.4.7 2.5 1.7 3.8 2.5.9.5 1.1.1.2-.6-.3-.2-1.1-.8-1.9-1.3-1.3-.8-2.2-1.7-1.2-1.3.5.2.6.2 1.1.3 1.3.3 2.6.5 3.8.2.8-.2 1.8-.7 2.7-1.4.2-.1.4 0 1 0 2 .1 1.6-.5-1.3-2.1-2.9-1.6-5.2-1.9-7-1-.8.4-1.2.5-1.1.2.1-.2.3-.5.7-.7 3-1.8 5.4-.3 8 1 1.1.7 1.4.9 1.6.6.2-.3-1.3-1.3-3.2-2.3-1.2-.6-2.6-.9-4-.9zm-9.6 2.1c.5.2.3.8-.2.6-2.8-1.2-3.3-1.9-6.6-.7-1.1.4-1.5 0-.2-.5 3-1.3 5.1-.4 7 .6zm-1.9 1.5c-.7 3.8-4.5 2.6-4.1 0h.7c.1 2.3 2.4 2.3 2.7 0h.7zm22.1 0l1 2.2c-2.2 5.5.8 13 7.4 14.8 0 0 1.1 1.6.9 1.9-12.5-2.9-11.5-14.7-9.3-18.9zm-11.7.1h.3c1.1 2.7 2.6 1.1 2.9 0h.8c-.2 2.8-4.4 3.3-4 0zm-9.6.1c.5-.1.7.7.5.8 0 0-1 .9-1.1.4-.1-.7.4-1.2.6-1.2zm-5.7.1h.1c.3.2.4.9.3 1.3-.2.2-.9-.1-1.1-.4-.2-.4 0-.9.7-.9zm20 .2c.2 0 .9.3.8.6 0 .1-1 .8-1.2.7-.3-.2.2-1.2.4-1.3-.1 0 0 0 0 0zm-5.5.1c.1 0 .1 0 0 0 .1.1.7.4.2 1.1 0 0-.7-.2-.7-.3-.1-.3.5-.7.5-.8zm15 4.9c-.2 3.2.7 6.3 4.1 8.2l-.7-1.4c-.9-.7-2.7-2.7-2.5-5.1l-.9-1.7zm-30.9 5.7l.4 2.1c-1.9 3.2-3.3 6.3-4.5 9.9l-1.8.7c1.4-4.6 2.7-8.3 5.9-12.7zm.7 3.2l.5 1.8c-.9 1.7-1.9 3.7-2.5 6l-2 .7c.9-3 2.2-5.9 4-8.5zm6.3.8s-.1 0 0 0c-.1.4-.1 1.3 0 3 0 .3.3.2 1.2-.3.7-.4.7-.4 1.4-.2 2 .7 2.9.4 3.6.2 1.2-.3 1.7-.2 2.3.2.4.2.9.4 1 .4.5.2.3 0 0-1.5-.4-1.7-.2-1.8-.9-1.4-.1.1-.6.3-.8.4-.6.1-1.5-.6-2.1-.4-1.4.5-1.4.4-2.7.1-.6-.2-1.3.2-1.8.3-.3 0-.8-.8-1.2-.8zm23.5.8c2.3 2.2 4.7 2.9 7.3 3.7-.3 1.1-.9 2.3-1.2 3.7-13.5 7.2-27.2 7-40 .4l6.7-2.6c3.6 6.3 8.3 8 13.6 6 5.8-2.7 10.1-6.5 13.6-11.2zm-28.9 1.3l.6 1.6-.9 2.3-1.6.7c.3-1.6.9-2.9 1.9-4.6zm12.2 1.8c-.4 0-1 .3-2.4.3-.8 0-1.3-.1-1.6 0-.6.1.1.4 1.5.8s3-.2 3.2-.8c0-.1-.2-.3-.7-.3zm-11.3.8l.4.8-.6.2.2-1zm36 .4l1 2.3c-1.8 3.8-2.9 14.3 8.8 17.5l.5 1.5c-7.9.2-15.9-10-10.3-21.3zm-26.8.8c-1.1 0-2.3.3-3.1.9-.7.6.2.9 1.1.5 1.2-.6 3.1-.5 4.3.2.9.6 1.3.5.7-.4-.4-.8-1.7-1.2-3-1.2zm51.1 2.6c3.1-.1 3.4 4.4 2.8 4.7.2-.1.7-.2 1.4-.2 2.2.1 3.4 1.3 3.5 3.1.1 1.8-1.2 2.8-3.3 2.7-.7 0-1.3-.1-1.2 0 .4 1.5-.1 3.7-2 4.2-.2.1-.5.4-.5.5-.1 2.3.5 10.3.5 10.3s3.6-6.1 4.4-7c1.6-2.2 2.2-2 1.9 1.6-.4 5-1.1 6.2-4 10.4-1.3 1.8-4.2.9-4 2.1.1.3.5.8 1 1.2.3.3.6.5 1.4.5 1.3 0 1.8-.3 1 .8-.6.9-2.7 1.1-3 1.5-.6 1.1-.2.8-1.1 1.8-.7.8-.5.4-.1 1 .5.8.3 2.5-.2 3.7-.4.9-.4 1.6-.4 1.6 0 .1 1.2-1.2 1.5-2.7.3-1.2.6-1.9.6-1.2 0 .9.1 2.1.9 2.5.6.4.7.7.6 1.2-.1.5.4.9.9 1.2.1.1.5.3.4.5-.1.8.2 1.7.7 1.8.2.1 1.8 0 2.1-.9 0-.3 0-1.5-.6-1.5-.4-.2-.4-.3.3-.7 1-.6 1.7-1 2.2-1.1.7-.1 1.3-.8 1.3-.8l.1 48c-5.9 6.1-12.4 12.2-21 18.2-5-4.2-10.4-8.4-16.2-11.6l-2-1.2.7-.9-3.5-4.6 3.9-3.2 1 1.3-1.8 1.8 2.8 3.1 6.2-6.1-4.1-3.9 2.1-4 1.4.7-1 2.6 3.1 2 3.9-7.8-4.9-2.3 1.3-5.2 1.5.2-.5 3.8 3.9.8 1.6-8.9-5.7-1 .5-5.1h1.6l-.2 2.8 4 .6.8-7.8-5.5-.9.7-6 1.3.2-.2 3.7 4.1.7c.4-2.5.8-5.6 1.5-8.1l-5.2-2 1.9-5 1.2.4-1 2.7 3.9 1.7 3.3-6.5-4.6-3.2c1-1.7 2-3.3 3.5-4.7l.9.8s-.3.3-.8 1c-.6.9-.8 1.3-.7 1.5.1.2 2.9 2.3 3.1 2.3.2 0 1.2-.9 1.7-1.4.5-.6.8-.7 1.3-.3.1.1.3.2.4.4.1.2.2.3.2.4v.2s.1-.1.4-.2c.4-.2-.7-1.2-1.7-1.7-2.7-1.6-6-4.5-6.7-8.1-.3-1.6 3.9.3 6.9 3.3.4.4 2.1 2 2.1 2-.2-4.2-.6-8.5-.4-12.8l-.6-.4c-.9-.6-1.2-1.7-1.3-2.7-.1-.7.6-1.1-.8-1-2.9 0-4.6-2.7-2.8-5.1.6-.9 3.3-1.3 3.3-1.3-1.4-3.3.6-4.8 2.1-5zm-1 32.6c-.1.1-.1.1 0 0zm3.8-27.9c0 .1-.1.1 0 0-.1.1 0 .1 0 0zm-96.4 9.2c8.1 6.9 13.2 11.5 29.7 16.6l.4 2.5c-9.5-2.2-19.8-6.7-32.1-17.7l2-1.4zm-2.4 1.6c5.1 4.8 10.4 8.5 15.7 11.6l1.9 1.1-1 1 3.1 4.5-4 3.3-1-1 2.1-2.1-3-3-6.1 6.2 4.2 3.7-2.4 3.7-.9-.4 1.3-2.6-3.9-2.1-4.3 8 5.5 2.5-1.2 4.9-1.3-.1.4-3.9-4.1-.7-1.4 9 5.3.8-.1 5.2h-1.4l.1-2.9-4.2-.2-.4 7.6 5.2.7-.5 6.1-1.3-.3.1-4-4-.4-1.4 8.5 5.3 1.5-1.9 5.3-1.2-.6.8-2.7c-1-.4-3.7-1.6-3.7-1.6l-3.5 6.6 4.5 3.1-2.8 4.9-.9-.6 1.9-2.9-3.8-2.4-2.1 2.9c-.9-.8-2.5-1.9-3.2-2.6-.7-.6-1.2-.7-2-.5-.7.2-1.3.3-1.2 0 .1-.1 1.4-1 3.3-2.2.5-.3 1-.7 1-1 0-.2.3-.6.7-.8.4-.3.3-.5.3-.8-.4-1.5-.1-3.8.6-5.3.5-1 .7-1.2.3-1.2-1 .1-2.1 3.6-2.3 4.6-.1-.1-.2-1-.2-1.3-.1-.6-.2-1-.7-1.2-.6-.1-.4-.4-.5-.9-.1-.7-.5-1.2-1.1-1.5-.6-.3-.7-.4-.6-1 0-.5-.5-1.3-.9-1.6l-2.1.8c-.2.6.1 1.3.4 1.6 1.1 1-.5 1-1.6 1.7-.3.2-.6.6-.9.5-.7-.2-.6 1.8-1.3 1.6l.2-48.8c5.7-6 22.2-18.3 22.2-18.3zM132 82l.8.9c-2.5 2.9-4.4 5.8-6.4 9.4-1.7 3.1-3.2 7.4-4 12.1-.6 2.9-.7 5.8-1.1 8.7-.4 3.2-.5 7.4-1.1 10.8-1.1 9.2-3.7 14-9.2 19.2-2.4 2.3-10 6.6-10.2 6.6l-1.8-.4c15.6-8 19.5-13.6 21.1-32.5.4-23.9 11.2-33.2 11.9-34.8zm1.5 1.6l.8.8-4.5 6.5 4.5 3.2-1.8 4.2-1.4-.5 1-2.8-3.8-1.6-3 8.3 5.4 1.7-.9 5.4-1.1-.3v-3.7l-4-.8-1.2 9.3 5.9.8-.4 4.8-1.4-.1-.1-2.8-4.1-.2-.9 8 5.8 1-1 5.7-1.2-.3.3-3.8-3.9-.5-2.2 7.7 4.9 2.5-2.4 4.9-1-.7 1.3-2.9-3.8-1.9-3.7 6.4 4 3.9-3.9 4.1-.9-1.1 2-2.2-3-3-6.2 5 3.2 4.2-.4.5-3.3-1.3-1.6-2.1-1.9.8-1.5-.6c9.2-4.8 15.1-10.5 17.6-18.9 1.4-4.7 1.8-9.8 2.2-14.9.2-2.7.5-5.4.8-8 .5-4.3 1.1-7.9 2.8-12.1 2.3-5.2 4.9-8.7 8-12.6zm-49.3 3.2l6.3 3.3-.1 2.2-5.8-2.9-.4-2.6zm1.7.1l4.5.6v1.8l-4.5-2.4zm-20.2 0l2.6 1.2 2.2 2.6 1.7-1.1 1.8.7c-5.7 3-10.8 6.5-14.7 12.6-4.4 6.8-4.9 15.7-5.4 24.3-.9 11.8-3 20.2-10.8 29.8l-1.2-.7 4.2-6.8-4.8-3.1 2.2-4 1.1.4-.8 2.4 3.9 2.1 3-8.5-5.6-1.7.9-5.3 1.4.1-.4 3.8 4 .6 1.1-9-5.3-.8.1-4.8 1.3.1v2.9l4.2.2.3-8.2-5.2-.6.6-5.8 1.5.2-.3 3.5 4 .6 1.9-7.5-5.2-2.4 2.8-5.1 1.3.6-1.3 2.8 3.6 1.8 3.8-5.9-4.1-3.9 4-4.2 1 1-2.2 2.5 3 2.8 5.9-5-2.9-4.4.8-.8zm37.7.3l-.2 2.1-6.3 3.6v-2.1l6.5-3.6zm33.9.1l1.4.9-1 1.2-1.2-.8.8-1.3zm-36.6.3L97 89.8v-2.2h3.7zm44.7 2c.2 0 .4 0 .5.1.4.3.3.9-.1 1.2-.6.4-2.1.4-2.2 0-.3-.6.9-1.3 1.8-1.3zm-60.4.9l5.4 2.9v2.1l-5.2-2.9-.2-2.1zm17.7.1l-.3 2.7-5.6 3V94l5.9-3.4zm-27.1 0l2.2.6c-8.2 3.7-16.4 9.1-19.6 18.4-1 2.8-1.7 5.9-2.1 9.9-.2 4.2-.7 8.4-.9 11.9-.4 7.2-2.7 16.8-10.8 27.1l-.8-.6c5-6.1 7.5-11.7 9.1-17.6 2.5-9.4 1.3-19.7 4-29.2 1.6-5.7 5-10.9 10.1-15.3 3.6-2.7 8.8-5.2 8.8-5.2zm3.7.8c.1 0 .1 0 0 0 2 6.8 4.5 19.2 4.5 19.2-5.3-2.6-14.1-2.1-14.1-2.1s-5-6.4-5.9-7c4-5.4 14.8-10.1 15.5-10.1zm68.2 1.1c1.2 0 1.1 1.8-.4 3.1-.8.6-1.2.6-1.7 0-.2-.2-.7-.4-1-.4-.9 0 .8-1.8 2.4-2.5.2-.2.5-.2.7-.2zM85.6 94l4.8 2.5v2.1L86 96.1l-.4-2.1zm16.4.3l-.3 2.3-5 2.6v-2.1l5.3-2.8zm47.2.8c.2 0 .3 0 .4.2.7.8-.6 3.1-2.1 3.8-.6.3-.9.2-1.4-.2-.2-.2-.6-.5-.8-.4-.8.1-.4-.9.3-.9.2 0 1.4-.9 2.3-1.7.6-.5 1-.8 1.3-.8zm-5.1.9c1.1 0 1.5.9.2 1.3-.9.3-1.4.1-1.4-.5.1-.7.7-.7 1.2-.8zm-57.8 1.2l4.3 2.2v2.2l-3.9-2.1-.4-2.3zm15.3.3l-.3 2.1-4.6 2.4v-1.7l4.9-2.8zm48.5.9c.3 0 .4.3.4.9 0 1-.6 1.9-1.6 2.3-.7.3-1.2.3-1.5-.1-.2-.2-.4-.3-.5-.3-1.5-.1-1.3-.4.2-1 .5-.2 1.5-.9 2-1.2.4-.4.8-.6 1-.6zm-5.5.7c.7 0 1.4.5 1 .9-.3.3-1.5.4-1.7.2-.5-.5-.1-1.1.7-1.1zM87 100.6l3.7 2v2.1l-3.5-2-.2-2.1zm14 .2l-.1 2.2-4.2 2.1V103l4.3-2.2zm45.2.9c.7.1.6.7 0 1.1-.4.3-1 .1-1.2-.2-.4-1 .7-.9 1.2-.9zm1.5 2.2c.1.2.1.7-.2.8-.3.1-1.1 0-1.2-.2-.1-.2-.1-.3.1-.5.3-.3 1-.5 1.3-.1zm-60.2 0l3.1 1.7v2.1l-2.9-1.7-.2-2.1zm13 .1l-.2 2-3.6 1.8v-1.9l3.8-1.9zm-38.1 1.2c.8 0 1.4.5.9 1.4-.3.6-.5.8-1.7 1.6-.5.4-1 .7-1 .7s-.4.3-.6.4c-1.1.8-.7-.8.7-3.2.4-.6 1.1-.9 1.7-.9zm37.8 1.8l-.3 2.2-3.3 1.7v-2.1l3.6-1.8zm-12.2.2l2.6 1.3v2.1l-2.4-1.3-.2-2.1zm31.6.2c.1 0 .2 0 .2.1.2.3.2 1.6 0 2.4-.4.9-1.1-1.3-1-1.9.2-.3.5-.6.8-.6zm-55.3.4c1.1 0 1.8.7 1.5 1.8-.4 1-2.8 1.7-3.9 2.4-.7.4-.9 0-.7-.6.1-.3.2-.5-.4-.6-1.3-.2-.5-.8 1.9-2.5.6-.3 1.1-.5 1.6-.5zm52.8.7c.4 0 .8.2 1.3.7.8.9 1.4 2.8 1 3.3-.3 0-.5.5-.5.7-.1.6-1.1-.5-2.2-2.2-.9-1.4-.5-2.5.4-2.5zm-44.3.3c3.2 0 9.4.7 18 6.1 1.1.7 2.2 1.4 3.4 2.1 3.3 1.8 5.9 3 10.1 3.7l-.1 2.2c0 .7 1.1 4.7.6 6.9-.8 0 .7.7.7.7l1 2s-5.1 0-7.5-.5c-3.8-.6-10.6-3.8-14-6.4-3.5-2.5-8.7-4.7-13.1-5.5l-.1-1.9s-.4-6.4-.8-7.3l-.8-2c.2.1 1.1-.1 2.6-.1zm27 1.4l-.2 2.2-2.9 1.3v-1.8l3.1-1.7zm14.2.1c.8 0 2 .9 3.4 2.8.3.4.6.8.6 1 0 .2-.1.4-.3.3-.5-.1-.7-.3-.9.4 0 .2.1.5-.1.4-1-.3-3.7-3.1-3.6-4 .1-.6.5-.9.9-.9zm-25.4.1l2.1 1.1.1 2.1-1.8-.8-.4-2.4zm-22.3.7c.6 0 1 .2 1.2.7.5 1.2-.4 1.9-2.9 2.5-2.2.5-2.2.6-1.9-.3.2-.6-.5-.6-.9-.8-.7-.2-.1-.3 1.8-1.3 1.2-.5 2-.8 2.7-.8zm-7.5.6c.1 0 .1.1.2.2 3.2 4 2.4 9.7-1.7 12.6-.5.3-.5 0-.4-.6l.1-1.2c0-.2 4.7-3.1 1.2-9.6l.3-.9c.2-.3.2-.5.3-.5zm53.1 1.2c1.3 0 4.9 3.3 3.3 3.4-.2 0-.1.2-.1.4v.5c-.1.3-.5.2-1.2-.2-1.6-1-2-1.3-2.6-1.8-1.1-1-.8-2.3.6-2.3zm-12.7.6v1.8l-2.6 1.3V115l2.6-1.5zm-32.5 1.2c1.7-.1 2.7 1.7 1 2.6-.7.4-3 .1-4 0-1.2-.1-.5-.5-.4-.6.2-.3.3-.3-.3-.7-.5-.5-.8-.7.5-.8.6-.1 2.1-.2 2.6-.4.1 0 .4-.1.6-.1zm52.6.4c.1 0 .1.2.1.8l-.1 1.2c-.8.1-4.7 5-1.5 10.7l-.3 1c-.1.5-.2.6-.6.3-2.4-1.7-3.1-10.1 1.8-13.6.3-.2.5-.3.6-.4zm-9.3 1c.5 0 1 .1 1.7.4 1.5.7 2.5 1.2 2.7 1.6.1.2-.1.4-.4.5-.4.1-.4.3-.3.7 0 .3.1.5-.2.5-.6 0-1.9-.4-3.2-1.1-2.2-1.1-1.9-2.6-.3-2.6zm-11.2.1v2.2l-2.1-1 2.1-1.2zM63.5 118c.2 0 .5 0 .9.1.5.1 1.2.1 1.6.1 2.4 0 3.4 1.6 1.4 2.5-.5.2-.8.2-2.2-.2-.7-.2-1.6-.4-1.9-.5-.7-.2-1-.4-.5-.6.4-.2.5-.5.2-.9-.2-.3 0-.5.5-.5zm55.8 0c-.3 3.3-.6 5.9-1.1 9.2-.4-.1-3-6.3 1.1-9.2zm-10.1 1.6c.8 0 2.1.3 3.4.8 1.1.4 1.3.5.5.9-.5.2-.4.4-.3.7.2.2.6.7 0 .6-.8.1-2.7-.1-3.3-.2-1.8-.3-2.3-2-.8-2.7 0-.1.2-.1.5-.1zm-46.5.9c.2 0 .5.1 1 .3 3.2 1 4.6 2.3 3 3.5-.5.4-1.2.2-2.5-.6-1.4-.8-2.1-1.2-2.3-1.5-.3-.3-.1-.6.3-.6.5 0 .5-.2.4-.7-.1-.3-.1-.4.1-.4zm8.7.3l2.5.6-6.2 27.4c-2.1.6-3.3.9-4.8 1.7l4.3-.7-.4 2-3.9.7-.1.6 4.5-.8s-.2 1.9-.3 2.6c4.3-.3 8.5-1.5 12.8-1.6 0 0 .1-21.6.1-24v-5.6l4.3 2.4.7 27.2 13.5 2.2c-.1-.5-.5-2.6-.5-2.6 10 3 20.1 7.4 29.1 16.4-4.2 2.3-8.1 4.5-12.2 6.7l-.6.9c10.3-4.8 25.9-14.9 37.2-26v72.3H97.6v-12.7c-.2-3.9.4-8.1-.7-11.4l-.2-3.4c3.3-3.9 5.1-8.8 6.7-13.8l2.4-.9.3-1c-1.5.8-5.1 2.1-5.1 2.1.4-.3-7.6-3.7-12.5-4.5-8.1-1.3-19 0-27.7 4.4-.4.3-.6.3-.5-.1 2-7.4-2.2-14.8-9.7-16.9-1.6-.5-2.9-.5-2.9-.5l.1.6c12.2 1.4 15 14.3 10.3 20.4-1.2 2-1.4 2.6 1.2 2.5 10.4-.1 14.1 11.6 9.3 18.1 0-.1.4.8.4.8 3-3.9 3.8-11.4-1.5-16.7 3.9-4.4 11.3-11.3 17.8-10.9 2.3.1 4.7 3 6.2 5.3 3.3 4.8 4.1 11.6 4.3 15.4.1 1 .2 1.7.2 2.3 0 1.5-.3 1.4-1.3 1.1-1.2-.3-2.9-.3-4.2.1-2 .6-1.7.3.1-2 1.1-1.3 1.2-1.7.8-1.8-.1 0-.6.4-1.2 1.3-1.8 2.7-1.6 1.6-.4-2.7.8-2.8.7-3-1.5-4.7-.8-.6-1.7-1.1-1.8-1.3-.4-.9-.6.2-.2 1 .4.7-.4 1.1-1.8.3-3.3-1.8-5.4 1.9-2.5 3.5.7.4 1.1.1.5-.4-1.8-1.7-.5-3.1 1.9-1.6 1.4.9 1.9.6 2.4-.5.3-.4 2.5 1.1 2.4 1.8 0 .4-.3 1.7-.5 2.6-.7 2.4-.9 3.2-1.2 4.8-.6 2.9-.5 4.3.1 5.6 1.3 2.8 4.6 4.1 7.5 3 .4-.2 1.2-.3 1.2-.3v2.1c-5.7 2.2-9.8 8.9-9.6 9.2h-2c-2.7-5.4-7.4-9.4-13.5-11.7-1.2-1 .3 2.8 1.6 3.6 2.9 1.5 6.6 4.1 8.7 8.1h-1.4c-1.8-2.7-4-4.5-6.2-6.1-.5-.1.4 4.9 2.4 6.4l-37.1.7c2.5-10 3-21-2.9-35.6 4.9.3 9.3-.8 13.3-2.5l-.4-1c-4.6 2.2-9.6 2.6-14.6 2.1 3.8 7.1 7.1 21.8 3.9 36H24.9v-77.5s.8.5 1 .7c.4.4.7 1.1.8 1.5.2.6.3.6 1.2 1.3.4.3.6.6.6.7 0 .2 0 .7.2 1.1.7.9.6 1.5.1 2.1-2.6 2.7-4.2 8.5-2.9 14.5 3.1-2.1 6.3-7.6 6.4-7.6l.3 7.5c-.3-.1-2.2 1.1-2.2 2.5-.9.3-1.9-.2-2.8-.4l.6 2.2c-3.2 1.3-3.3 5.7.3 6.9 0 0-.3 1.7-.6 2.6l2.4-.4c1.4 4.2 6.7 2.8 6.7-.1 0 0 1.6.6 2.2.9l-.6-2.8c6.1-3 1.5-7 .1-7 0-.8.4-1 .7-2l-2.4.2c-.4-1.5-2.1-2.7-2.2-2.5l-.3-10.7c1.9 1.6 3.7 3.3 6.1 4.6 2.3 1.2 2.5.9 2.2-1.1-.2-.9-.1-1.5-.1-1.5.8.2 3 3 2.9 4.4.8 1 1.5-1.7-.5-4.1 5.4-5.7 9.5-15.1 10.3-21.5l7.2-2.9.1-.9c4.9-3.6 7.4-8.2 8.7-13.3zm6 1.6l1.6.7-1.9.9.3-1.6zm-15.9.5c.3.1.8.5 1.5 1 1.4 1 2.2 1.7 2.2 2.4 0 .3-.2.7-.6.9-.8.5-1.7.1-3.5-1.8-.6-.6-1-.9-1.2-1.2-.2-.3-.1-.6.3-.5 1.6.6.3-1.3 1.3-.8zm50.4.4h.7c.4.1.5.3.3.5-.4.3-.3.7.1.9.3.1.2.4-.2.6-.2.1-.5.2-.9.3-2.2.7-3.9.5-4.3-.6-.5-1.2.5-1.8 3.2-1.8.4.1.8.1 1.1.1zm-32.7.7v1.6l-2.3 1.1.3-1.6 2-1.1zm-19.8.5c.2 0 .5.3 1 .9 2.2 2.8 2.6 3.3 1.8 4-.9.9-2.1 0-3.4-2.4-.2-.3-.4-.7-.5-.9-.5-.6-.3-.7.3-.7.3 0 .5-.1.5-.4.1-.3.2-.5.3-.5zm53.9 1.4c.4 0 .4.1.2.6-.1.4-.4.6.2.8.1 0 .3.3.1.4-.5.3-2.6 1.3-3.3 1.5-1.5.5-2.4-.7-1.5-1.9.4-.5 2.9-1.4 4.1-1.5.1.1.1.1.2.1zm-55 1.6c1.5 2.2 1.7 3.3.7 3.9-.6.5-1.9-.2-2.3-1.7-.2-1.1-.3-2.3 0-3.2.6-1.3 1.4.8 1.6 1zm20.9-.9v1.8l-2.8 1.4.3-1.9 2.5-1.3zm5.8.1l2.7 1.7.2 1.5-2.8-1.5-.1-1.7zm29.7 1.7c.1 0 .1 0 .1.1 0 .2-.1.9.3 1 .8.1.6.4-.1 1-.7.7-1.4 1.4-2.3 1.9-2.3.9-3-1.6-.8-2.9.8-.4 1.4-.7 1.9-.9.5-.1.8-.2.9-.2zm-29.6.9l3.1 1.8.1 1.8-3.1-1.6-.1-2zm-6 .2v1.6l-3 1.7.2-1.8 2.8-1.5zm12.5 1.3c.9.4 11.8 3.5 15.4 2.4 0 0 3.1 4.5 5.4 6.1-3.6 5.3-15.6 10.4-15.6 10.4l-5.2-18.9zm24.6.1c.2 0 .2.2.2.6 0 1.1-1.8 5.1-3.2 3-.4-.8 0-1.6 1.2-2.5 1.1-.8 1.6-1.1 1.8-1.1zm-59.6.6c.3.3.1 1.2-.4 1.1-.2 0-.2-.9-.1-1.4.2-.1.4.2.5.3zm22.6.5v2l-3.6 2 .4-2.3 3.2-1.7zm5.9.3l3.5 1.9.4 2.2-3.9-2v-2.1zm-6 2.8v2.1l-4 2.1.3-2 3.7-2.2zm6 .1l4 2.3.5 2.1-4.4-2.3-.1-2.1zm-56.1.1c.6 0 .9.7.4 1.1-.3.3-1.2.2-1.3 0-.4-.4.1-1.1.9-1.1zm1.2 2.2h.3c.5.1.8.8.5 1.2-.5.7-1.9.2-1.7-.7 0-.2.5-.5.9-.5zm48.9.7v1.8l-4.4 2.3.3-2.1 4.1-2zm6.2.2l4.5 2.4.3 2.1-4.8-2.5v-2zm-57.2.1c.2 0 .4 0 .5.2.1.1.2.5.5.7.6.3.6.4-.5.9-.5.2-1.4.8-1.7 1.1-1 .7-1.4.4-1.5-.3-.1-1.1 1.7-2.6 2.7-2.6zm3.4 1.5c.2 0 .4 0 .6.1.4.2.4.8 0 1-.8.5-2.1-.2-1.4-.8.2-.2.5-.3.8-.3zm47.6 1v2.4l-4.9 2.6.3-2.4 4.6-2.6zm-50.1.3c.3 0 .6.1.9.3.3.4.6.5.8.5.8 0 .6.3-.3.7-1.2.6-2.1 1.3-2.9 2.1-.9.8-1 1-1.3.7-1-1.4 1.1-4.2 2.8-4.3zm56.3 0l5.1 2.8.4 2.4-5.5-3.1v-2.1zM32.4 143c.2 0 .4 0 .6.2.4.3.2.9-.3 1.1-.4.2-1.1.1-1.3-.1-.6-.5.3-1.2 1-1.2zm-2.5 1.2c.3 0 .6.4.8.8.1.1.4.1.7.1 1 0 1.1.4.2.9-.3.2-1.2.8-1.8 1.3-1.6 1.5-2.5 1.2-2.3-.4.3-1.5 1.6-2.7 2.4-2.7zm55.4.1l5.6 3.1.5 2.6-6.2-3.4v-2.3zm-6.2 0v2.4l-5.3 2.8.4-2.4 4.9-2.8zm6.3 3l6.3 3.8.2 2.5-6.5-3.8v-2.5zm-6.3.5v2.3l-5.9 3 .3-2.2 5.6-3.1zm-47.6 1.5c.1 0 .3 0 .4.1.7.3.5.9-.5 1.4-1.1.6-1.4.5-1.6-.2-.3-.5.9-1.3 1.7-1.3zm65.9.3c11 2.5 21.7 8 32.2 17.6l-2.2 1.6s-9.1-10.5-29.5-16.7l-.5-2.5zm-11.9 1.1l3 1.8v.5l-3.1-.3.1-2zm-51.9 0c.2 0 .4.1 1.5.7 4.4 3.2 6.1 5.1 7.2 8.6.7 2.1.6 2-1.5.9-2-1.1-4.8-2.9-6.5-5.2-.3 5.4.3 12.2.3 12.2 2.7 1.4 1.8 4.9 1.8 4.9 7-1.9 5.5 7.4.3 5.4 1.2 7-6.7 6.4-5.9.4-6.3-.2-5.2-7.2 0-6.2-.5-2.1.2-3.6 2.1-4.5l-.3-9.2s-5.2 7.5-6 7.3c-.5-.1-1.3-.9 0-7.5.7-3.4 4.3-7.6 6.3-7.7.4 0 .6-.1.7-.1zm5.1.1l.9.6-.9 1.6-1-.7 1-1.5zm40.4.4v1.4l-2.8.2 2.8-1.6zm-29.8 16.5c6.7 1 10.8 9.3 7.7 15.3-.4.3.2 1.6.6 1.1 3.3-4.7.8-16.1-8.7-17.2-1.9-.3-.2.3.4.8zm1.1 2.2c-.5 1.5-.7 1.8.7 1.2 2.4.9 5.1 4.9 4.2 8.9-.3.5.2-.3.5 1 1.3-2.9.1-9.2-5.4-11.1zm31 7.5c6.9 0 13.6 1.5 19 4.6-1.8 1-7.7 2.5-7.7 2.5-3.3-3.7-5-7.4-10.9-5.5-6.2 1.6-11.8 7-15 10.6-3.2-1.9-4.9-2.4-7.7-2.5-.2 0-.4.7-.2-.4.8-1.2 1.4-2.7 1.9-4.1 5.9-3.5 13.3-5.2 20.6-5.2zm21.3 4.7c-1.4 4.4-3.1 8.8-6.1 12.7l-.4-1.9c2.8-4.3 4.1-8.3 4.7-10l1.8-.8zm-2.7 1.2c.2.3-2.7 7.2-4.2 8.5l-.6-1.8c1.2-1.8 2.9-6.1 2.8-6.1l2-.6zm-17.7 0c-.1 0-.1.1-.1.3 0 .6.7 1.1 1.9 1.4 1.6.4 3.9-.2 3.9-1 0-.4-.3-.5-1.2 0-1.2.5-2.2.4-3.7-.4-.5-.2-.7-.3-.8-.3zm14.5 1.1c-.5 1.7-1.1 2.9-2 4.2l-.3-.9c.6-1 1-2.1 1.5-3.1l.8-.2zm-1.7.6c-.2.6-.5 1.3-1 1.8l-.7-1.4 1.7-.4zm-10.3 1.3c-1.1 0-2.2.4-2.3 1 0 .3.4.2 2.4-.1 1.1-.1 1.6.5 2.6.4.5-.1 0-.5-.1-.7-.5-.5-1.6-.7-2.6-.6zm-4.7 1.2c-.1 0 0 .3.4 1 .2.4.3 1.2.3 1.7-.1 1.2 0 1.2.6.5.4-.4 1.1-.3 2.3 0 .8.2.9.3 1.5-.1s.7-.2 1.3-.1c.5.1 1-.1 1.5-.3.7-.2.8-.1 1.4 0 .9.4.8.4.8-1.1.1-1.5 0-1.6-.9-1.1-.8.5-1.4.7-2.7.3-1.4-.5-1.6-.4-2.6-.1-1.2.4-1.8.5-2.7-.1-.7-.3-1.1-.6-1.2-.6zm-19.6 2.3l.5.9c4.9 1.7 8.1 5.7 6.2 12.5l.5.7c2.4-6.8-.4-12.4-7.2-14.1zm1.5 2.9l.7 1.4c3.7 1.8 3.4 6.7 3.2 6.5l.6 1.3c.9-3.3-.8-7.9-4.5-9.2zm15.2 7.3c-.1 0-.2.1-.3.2-.1.2.2.4 1.9 1.6 1.4 1 2.5 1.7 2.5 1.9-.1.1-.9-.1-1.6-.3-1.7-.5-4.1.1-5.5 1.1-.3.2-.9 0-1.4-.2-.2-.1-.6-.1-.9-.1-1 .3 0 1.3 2.5 2.6 3.1 1.6 4.8 1.7 6.7.8 1.3-.7 1.7-.2.3.6-2.4 1.3-4.7.9-8.5-1.7-1.8-1.2-2.5-1-1 .1 2.7 2.1 7.8 4.7 10.9 1.5h.5c.7 0 .7-.2 0-1.3-.4-.7-1.2-1.3-.2-2.1.8-.6.7-.9-.2-1.2-.2-.1-.2.1-.6-.2-2.1-2-4.3-3.3-5.1-3.3zm1 3.6c.9 0 1.9.8 2.2 2.1 0 .1 0 .2.1.4h-.8c-.7-2.7-2.7-1.8-2.8-.2l-.7-.1c.1-1.6 1.1-2.3 2-2.2zm16.5 2.2l-.5.1c-.3-1-1.9-2.3-2.7.1h-.7c.5-3.3 3.4-2.8 3.9-.2zm-4.1-1.3c.2.3-.2.8-.4 1.1-.2.2-.7 0-.9-.2-.2-.2 0-.7.2-.8.4-.2.9-.3 1.1-.1zm-9.3.1c.2.5-.4.9-.5.7-.1 0-.3-.9-.2-.9.2 0 .6 0 .7.2zm14-.1c.3 0 .7.2.8.6 0 .3-.3.5-.6.5-.1 0-.7-.4-.6-1 .1-.2.2-.1.4-.1zm-19.5.2c.1.2-.1.7-.2.8h-.7c0-.1-.1-.5.1-.8.3-.2.7-.2.8 0zm13 1.7c.1 0 .2 0 .3.1 2 1.3 4.6 1.9 6.4 1 .4-.2.7-.2.7 0s-.5.7-1.3.9c-1.9.6-5.1-.2-6.2-1.4-.2-.3-.1-.6.1-.6zm-17.5 1.4c-.2 0-.3.1-.2.3.1.8 5.5 3.9 7.7 4.3 1.8.3 3.3.2 4.4-.5 2.7-1.6 2-3.8-.6-2.1-1.8 1.1-6.3.6-9-1-1.3-.7-2-1-2.3-1zm24.1 1.1c.7-.3 1-.4 1.1-.3.7.6-.4 1.5-2.5 1.8-1.6.3-2.6.3-4.5-1.1-1.5-1.1-.8-1.6.1-1.1 2.2 1.4 3.8 1.4 5.8.7zm-23.6 3.4c4.7 1.7 10.1 5.8 12.5 10.8h-1.5c-1.6-2.9-4.8-6.5-10.1-9-.5-.4-.7-1.1-.9-1.8zm24.8 2.3v1.6c-2.9 1.5-5.4 3.8-7.2 6.9h-1.7c1.9-3.4 4.8-6.5 8.9-8.5zm0 2.4v1.9c-1.9 1.1-3.4 2.5-4.5 4.2h-2c1.7-2.6 3.8-4.8 6.5-6.1zm-21.7 1.5c1.4.8 3.7 3 4.6 4.7h-.8c-.8-1-2-2.1-3-3-.5-.8-.8-1.7-.8-1.7zm21.7 1.2c.1 0 .1 0 0 0v1.6s-1.4 1-2 1.8H93c1.1-2 3.4-3.4 3.6-3.4zm0 2.6v.9h-1c.1-.2.7-.8 1-.9zm-19.5.2c.3.2.5.7.5.7h-.3l-.2-.7z"/><path id="path3052-2-5-5_1_" class="st2" d="M31.626 182.153c3.3.1 10.2-1.1 10.1-1 0 0 21.6 36.1 20.7 35.7-.3.4-27.6.4-27.6.4-.6 0 5.8-13.3-3.2-35.1zm14.774-18.853c10.5-8.8 21.5-8.8 33.3-10l.3-29.8 4.3 2.6.1 27.3c15.6 1.2 29.1 6.9 40.6 17 .1.2-16.7 9.3-24.1 11.7-5.7-4.2-20.9-6.9-30.9-3.7-2.8.9-6.1 2.3-9.4 3.4 2.4-14.4-8.8-16.5-12.7-17.2-.5-.1-1.1-1.2-1.5-1.3zm-13.5 4.6c.2-3.1 0-6.1-.2-9.3-.1-.7-6.1 9.3-6.5 6.9-.9-6.1 2.2-13.9 6.9-14.8.5-.6 9.8 5.2 9.4 10.2-.1 1.6-8.3-5.5-8.4-5.1-.2.8.2 12.1.5 12.1 2.4 1.3 1.8 3.1 2.1 4.5 6.3-.9 6 6.1 0 5.9.4 8.4-7.3 4.6-5.8.1-7.8-.4-3.9-7.7-.1-6.1-.2-1.8.2-3.7 2.1-4.4zm8.9-35.4c-.4-.2-16.6-1-16.6-1L26 92c8.2-19 39.2-10.1 34.3-6.1-14.7 9.7-17 27.5-18.5 46.6zm29.8-16.3l-.5-4.4c-1.3-2.7 32.9 13.2 33.3 13.5l1 4.7c.2 2.1-21.8-8.3-33.8-13.8zm62.2-7.8c-2.6 19.7-2.4 39.5-16.9 46.4 10.9 10.6 20 2.4 33.7-4.4.4 0-.5-42.2-.7-42.1-5.3.2-10.7.3-16.1.1zm7.6-19.2c-2.7-.4-9-7-7.7-8.9 0-1.5 7.8 4.2 8.6 5.7-.4-.5-.5-13.9-.6-13.4-.3.2-2.4-1.3-1.8-4.1-6 1.3-5.6-6.5-.4-6.1-.7-7.1 7.9-4.5 5.6.3 7.4-1.4 6.1 6.9.5 5.6.5 3.2-.8 4-2.6 4.7.1 1.3.6 10.1.6 10.1s5.4-8.4 5.8-7.7c1.5 2-.8 15.9-8 13.8zm-25.2-30.9c-2.5 8.5 4.3 18.2 10.6 18.2 1.3-.2 3.7.5 2.9 1.2-10 8.2-33.4 9.9-33.4 9.5.2 10-.2 20.2-.4 30.2l-4.3-2.6c-.1-9.1-.4-18.5-.6-27.7-15-2-28.4-6.8-39.1-17.2C59 64.6 67.4 61.3 75.5 58c10.2 5.4 24.4 8.5 40.7.3zm-7.4-40.5c-.5-.2 1.6-1.8 1.6-1.8s17.4.2 26 .1c-3.1 13-.9 24.6 3.1 35.8-1.1-.3-8.2.3-10 1.1-.2.4-20.5-34.8-20.7-35.2z"/><path id="path3050-3-4-7_1_" class="st0" d="M63.026 216.853l-21-35.8 3.2-1.4 21.7 37.2h-3.9zm-32.426-41.353l3-3.1 3 3.1-3.2 3-2.8-3zm67.5-20l-.4-2.6c12.1 3 22 9.3 29.2 16.1l-1.7 1.3c.5-.2-17.3-13.6-27.1-14.8zm-34.8-2.4l3.5-.7-.1 2.1-3.4.7v-2.1zm70.6-1.8l-2.1-1.7 1.5-1.8 2 1.6-1.4 1.9zm-71.2-17.4c5.2-2.5 9.3-12.5 8.8-13.2l2.8.7-6.6 27.4-4.5 1c-.1-5.2-.5-10.6-.5-15.9zm34.2 15.5c-1.8-5.8-5.2-18.8-5.2-18.8.1.4 11.3 3.6 15.3 2.5 1.7 2.3 3.6 4.4 5.5 6.3-4.2 4-9.3 7.4-15.6 10zm46.8-21l-2-1.7 1.8-2.2 2.2 1.7-2 2.2zm-25.7-1.1c-1.6-2.9-1.7-6.2 1.3-9.4l-1.3 9.4zm-61.1-5.1c-.1-2.9.3-5.8 1-8.5 1.7 3.2 1.7 6.3-1 8.5zm44.9-2.7s4.3-20.2 6.2-28.1l4.8-1.1-.2 16.3c-4.8 3.9-8.1 13.2-7.9 13.2l-2.9-.3zm-69.4-3.3l-2.1-2 1.8-1.9 1.8 1.9-1.5 2zm37.4-7.9c-1.5-2.2-3.6-4.5-5.7-6.8 3.6-5 9.4-7.9 15.7-10.1l4.2 19c-4.8-1.5-10-3-14.2-2.1zM40.5 91.4l1.5-1.8 1.9 1.5-1.5 2-1.9-1.7zm69.1-5.5l3-.7.1 2.3-3.6.7.5-2.3zM49.4 71.4l2.3-1.4c8 7.2 16.8 12.2 26.4 15l.3 2.7c-10.9-3.4-20.8-8.1-29-16.3zm93.2-2.9l-3-2.9 2.7-3 3.2 2.7c-1.1 1.6-2.9 3.2-2.9 3.2zm-16.4-14.2l-22.1-38h3.2L129 52.8l-2.8 1.5z"/><path id="path3048-5-8-9_1_" d="M98.926 9.053h-5.3l30 60.7s-.8.1-2.4-.3c-7.2-1.9-11.6-9.6-10-17.1.2-.6.2-1.1.2-1.1-18.6 8.5-30.1 5.3-40.8 0l-4.6 1.9c.3-2.8 3.7-13.2 8.8-18.1v-5.3l-.1-2.5-.4-4.5c-7.6 7.2-16.5 18.5-17.6 34.7 0 0-6.9 3.6-12.8 7.5.3 0 9.2 10.9 30.5 17.1l-.9-3.6c3.2.9 7.7 1.6 12.2 2.2l.6 27.5 5.1 3 .2-30.4c.2.1 8.1-.3 12.4-1.3l-.6 2.9 4.2-.8v2.1l-4.6 1.1-6.6 28.5 3.9.9c1.1-5.7 4-10.4 8.1-13.2v-1.1c2.6-1.9 8.1-3.4 8.2-3.4 1.9-9.2 6.2-15.6 10.9-21.7l-2.2-3 8.5-3.1-11.8-20.2c4.5-3.1 13.5-2 13.5-2-3.8-10.5-7.2-21.2-3.4-37.1h-32.7l-.5-.3zm15.674 7.247c0 2.6-3.4 2.4-3.9 0h3.9zm21.1-.1c-2.1 12.1-1.4 23.9 3.4 35.2h-.8c-.1 0 .1-.6 0-.8-.1-.4-.8-.2-1.4.2-.3.2-.5.4-.7.5-.6.3-3.6.3-3.6.3 1-.7 2.4-2.6 1.6-3.7-.2-.2-.3-.1-.5.2-.9 1.5-1.3 1.8-2.4 1.8-1.8 0-3.1-1.1-3-2.8.1-1.7 2.6-2.5 2.2-.9-.1 1.4 1.3 1.7 1.6.3.1-.5 0-.3.1-.9 2.8-1.5 1.3-4.6-1.4-3.9-.6.2-.7.2-1.1 0-.8-.4-1.5-.3-1.8.3-.3.5.1.9.7.9s.7.3.7.7c0 .9-1.5 1.3-2.5.8-2.6-1.3-1.7-4.9 1.4-4.8.9 0 1.3.1 1.4-.1.1-.6-1.3-1.5-2.1-1.4-.7.1-1.1.3-.7-.6.2-.9.2-1.4 0-2.1-.5-1-.5-.5-.8.3-1 1.7-2.5 2-3.8 1.1-1.2-.9-1.2-2.5 0-3.6.8-.8 1.7-.3 1.2.6-.2.4 0 .8.3.9.7.2 1.2-.2 1.2-1.1 0-.5-.1-.6.7-1.1 2.2-1.3.6-4.8-2-3.7-.6.2-.7.5-.9.4-1.1-1-2.6.3-1.7.9.4.2.9.3 1 .3.2.1.1.4-.2.8-1 1.2-3.4.6-4-1.1-.7-2 1.4-4.2 3-3 .5.4.9.4.9-.1 0-.8-1-1.7-2.3-1.6-1.3.1-1.2.3-.5-.9.5-1.1.5-2.1 0-2.7-.4-.5-.7-.6-.7-.1.3 1.6-1.5 3.1-3 2.4-1.4-.7-2.2-2.3-1.5-3.7.7-1.3 2.2-1.4 2 0-.1.9.5 1.4 1.2.8.2-.2.3-.4.3-.9 0-.6-.2-.8.2-1.2 1.1-.1 1.1-2.4 1-2.5l17.3-.4zm-19.2.1c.7 0 1.2.2 1.2.9s-.5 1.2-1.2 1.2-1.2-.6-1.2-1.2.5-.9 1.2-.9zm-12.1.1h2.7l21.6 36.3-2.6 1.3-21.7-37.6zm4.5 1.3c1.3.8 2.5 1.4 4.2 1.5-.5 1-.9 2.1-1 3.9l-3.2-5.4zm4.4 7.3c1.3.5 2.5 1.2 4.7.5-1.2 1-1.8 2.3-2.3 3.6l-2.4-4.1zm11.2 4.3c.6 0 1.1.5 1.1 1.1s-.5 1.1-1.1 1.1-1.1-.5-1.1-1.1.5-1.1 1.1-1.1zm-7 2.9c1 .4 2 .6 3.1.5-.6.8-.7 1.9-.8 3.3l-2.3-3.8zm3.3 5.7c.9.4 1.9 1.1 3.8.9-1.2 2.1-1 2.7-1.1 3.6l-2.7-4.5zm10.9 4.2c.7 0 1.2.5 1.2 1.2s-.5 1.2-1.2 1.2-1.2-.5-1.2-1.2c0-.6.5-1.2 1.2-1.2zm-6.7 2.8c.8.5 2.4.7 2.4.6-.1-.1-.5 1.6-.5 2.6l-1.9-3.2zm3.7 6.1c1.2.7 2.4.6 3.2.7-.8.2-1.6.4-2.4.7l-.8-1.4zm13.7 6.8c-2.8.2-3.4 2.3-3.1 4.5-2.1-.3-4.5 1.7-3.9 4.2.6 2.4 2.8 2.4 4.3 2.3-.1.6-.4 2.5 1.9 4.1l.3 12.3s-1-.9-1.7-1.6c-2.9-2.9-7.3-5-7-3.4 0 .2.1.9.2 1.4.5 2.8 4.2 5.8 6.7 7.3.9.5 1.5 1 1.5 1-4.7 5.1-7.3 10.5-7.9 15.9-.6 5-1.1 9.5-1.5 14.1-1.9 23-11.8 28.8-12.2 30l-.2 3.1-2.7-.2-3.2 2.8c10.4 5.4 16.4 11.9 16.3 12 8.3-5.4 15.4-11.5 22.1-17.8l-.1-51.3s-.6.2-.7.2c-.5 0-.6.2-.8 1.2-.1.5-.4 1-.6 1.4-.5.7-.3.3.3.6 1.3.5-.4 3-2.3 3.3-1.4.2-2.1.5-2.3.8-2.9 2.5-5.7 2.9-7.9 2-1.1-.5-2.2-1.1-2.6-2.2-.9-2.5 1-6.1 2-8.2 2-3.8 5.3-6.7 5.3-6.7l-.5-.6h.8c2.8-1 3-1.1 3.5-1.8.5-.8 1.8-2.9 2.1-3.6 1.5-3.8 1.7-4.1 1.7-6.6 0-2-.1-3.4-.5-3.5-2.2 1.7-4.5 5.8-5.8 8.1-.5-3.5-.6-9.7-.6-9.7.5-.5 3.2-.2 2.6-4.6 2.4 1.1 4.9-.6 4.8-2.9-.2-3.6-2.9-3.5-5.1-3 .9-2.4-1.1-5-3.2-4.9zm0 .3c2.9.1 3.5 3.3 1.7 5.2 0 0-1.2-.9-1.8-1.4-.6.5-.8.9-1.4 1.3-.8-.6-1.2-1.6-1.2-2.5 0-1.5 1.6-2.6 2.7-2.6zm-66.8.1c11.8 6.7 26.6 7.1 40.2.3l-.2 1.1-1.5.8.8 1.6.5-.2v1c-11.2 6.1-29.9 7.3-44.6-2.8l1.3-.6.6.4c.5.3 1.4.9 2 1.1l.9-1.3s-1.4-.8-1.2-.9l1.2-.5zm1.1 2.1l-.7 1.5 1.7.9.6-1.6-1.6-.8zm-6.4.1c18.2 11.5 35.2 8.1 45.3 3.4l.1 1.2c-13.1 5.6-30.4 7.1-46.8-4l1.4-.6zm42.8.8l-1.6.7.6 1.5 1.7-.7-.7-1.5zm-45 .3c14.8 9.6 30.7 11.5 47.8 4.4l.7 1.8c-16.7 6.7-34.2 6-50.3-5.5l1.8-.7zm11.3 0l-.7 1.6 1.8.7.5-1.6-1.6-.7zm31.2.7l-1.6.5.5 1.5 1.7-.6-.6-1.4zm-28.4.4l-.4 1.6 1.9.5.3-1.6-1.8-.5zm67.8 2.7c.3 2.8-3.8 4.1-5.3 1.5l1.3-1.6-1.2-1.1c1.7-2.6 5-1.4 5.2 1.2zm-84.2-2.6l4.4 3.1-3.2 5-4.8-3.2 3.6-4.9zm76.5.1l2.8 2.4-2.6 3-2.6-2.7 2.4-2.7zm-1.7.9l-1.6 1.8 1.7 1.8c-2 2.2-5 .8-5-1.8 0-2 3.1-4 4.9-1.8zm-32.7-.7l-1.7.5.4 1.5 1.7-.5-.4-1.5zm-22.7.4l-.3 1.6 1.9.4.3-1.6-1.9-.4zm19.9.3l-1.8.4.3 1.6 1.8-.4-.3-1.6zm37.4.4l-1.5 1.5 1.5 1.5 1.5-1.5-1.5-1.5zm-54.2 0l-.3 1.6 2 .3.2-1.6-1.9-.3zm13.6.2l-1.8.2.2 1.6 1.9-.2-.3-1.6zm-10.7.2v1.7l1.8.1v-1.6l-1.8-.2zm7.8.2l-1.8.1v1.6l1.8-.1v-1.6zm-32.6 0c-1 0-1.9.9-1.9 1.9 0 1.1.8 1.9 1.9 1.9s1.9-.9 1.9-1.9c0-1-.8-1.9-1.9-1.9zm29.6.1h-1.8v1.6H96v-1.6zm46.5 0l.8.8-.8.8-.8-.8.8-.8zm-76.1.6c.7 0 1.2.6 1.2 1.3 0 .7-.6 1.3-1.2 1.3-.7 0-1.2-.6-1.2-1.3 0-.8.5-1.3 1.2-1.3zm-6.7.1l2.5 2.1c-.8 1.5-3.3 4.8-3.3 4.8l-4.7-3.8 2.4-1.4c-.1.3-.2.5-.2.9 0 1 .8 1.9 1.9 1.9 1 0 1.9-.8 1.9-1.9 0-1-.8-1.8-1.7-1.9l1.2-.7zm-1.4 1.3c.7 0 1.3.6 1.3 1.3 0 .7-.6 1.3-1.3 1.3-.7 0-1.3-.6-1.3-1.3s.6-1.3 1.3-1.3zm85.8.6s.7.3.9.5c1.4 2.1-.1 4.6-2.3 4.5-2.7-.1-3.4-3.4-1.5-4.8l1.5 1.4 1.4-1.6zm-68.9.8l5.2 2-2 5.7-5.7-2.4 2.5-5.3zm-21.5.6c21.3 19.4 51.6 20.7 73.7 7.9h1.3l.7.7c-25.1 15-56.3 11.7-77.4-7.5l1.7-1.1zm58.7 1.2l1.7 5.7-5.8 1.5-1.3-5.7 5.4-1.5zm-60.9.2C58 76.5 67.1 82 77.9 85.1l.3 2.3c-11.4-3.5-20-8.1-28.4-16.1l1.7-1.1zm25 .1c-1 0-1.9.8-1.9 1.9 0 1 .8 1.9 1.9 1.9 1 0 1.9-.8 1.9-1.9 0-1.1-.8-1.9-1.9-1.9zm-9.3.4l5.4 2.9L70 79l-5.7-3.1 2.9-5.2zm9.3.2c.7 0 1.3.6 1.3 1.3 0 .7-.6 1.3-1.3 1.3-.7 0-1.3-.6-1.3-1.3s.6-1.3 1.3-1.3zm9 .8l5.2.8-.2 5.8-6-.7c.1-2.1 1-5.9 1-5.9zm25 .1c-1 0-1.9.8-1.9 1.9 0 1 .8 1.9 1.9 1.9 1 0 1.9-.8 1.9-1.9 0-1-.9-1.9-1.9-1.9zm0 .6c.7 0 1.3.6 1.3 1.3 0 .7-.6 1.3-1.3 1.3-.7 0-1.3-.6-1.3-1.3s.6-1.3 1.3-1.3zm-42.2.1c-1 0-1.9.8-1.9 1.9 0 1 .8 1.9 1.9 1.9 1 0 1.9-.8 1.9-1.9 0-1-.8-1.9-1.9-1.9zm33.2 0l.7 5.8-5.7.3-.3-5.8 5.3-.3zm40.5.6h.8c.1 5 .5 10.8 1 15.1.1.6.1.8.1.9-.6 1-1.2-.3-1.5-3.1-.1-.8-.2-1.9-.3-2.7-.2-2.3-.1-10.2-.1-10.2zm-95.6 0c-8.5 5.3-22.7 18.1-22.6 18.4l.1 49.1 1.1.1.9-1.8c-1.4-.4-1-3 1.7-3.6.5-.1 1.9-.6 2.2-.8 2.1-1.6 5.4-2.5 7.7-1.9 3.4.9 4.1 3.4 2.5 7.8-1.3 3.5-3.9 7.9-6.3 9.2l-.6.3s.6.5.8.6c6.6-3.9 10-17.7 9.8-26.4.3-8.8 1.8-17.7 5.3-24.2 5.9-10.7 13.6-15 13.6-15 0 .1-10.5-6.3-16.2-11.8zm21.9 0c.7 0 1.3.6 1.3 1.3 0 .7-.6 1.3-1.3 1.3-.7 0-1.3-.6-1.3-1.3s.6-1.3 1.3-1.3zm51.7.2l2 5.4-5.6 2.3-2-5.7 5.6-2zm-32.3.1c-1 0-1.9.8-1.9 1.9 0 1 .8 1.9 1.9 1.9 1 0 1.9-.8 1.9-1.9 0-1.1-.8-1.9-1.9-1.9zm11.4.4c-1 0-1.9.8-1.9 1.9 0 1 .8 1.9 1.9 1.9 1 0 1.9-.8 1.9-1.9 0-1-.8-1.9-1.9-1.9zm-11.4.2c.7 0 1.3.6 1.3 1.3 0 .7-.6 1.3-1.3 1.3-.7 0-1.3-.6-1.3-1.3.1-.7.6-1.3 1.3-1.3zm11.4.5c.7 0 1.3.6 1.3 1.3s-.6 1.2-1.3 1.2c-.7 0-1.3-.6-1.3-1.3s.6-1.2 1.3-1.2zm19.1.6c-1 0-1.9.8-1.9 1.9 0 1 .8 1.9 1.9 1.9 1 0 1.9-.8 1.9-1.9 0-1.1-.9-1.9-1.9-1.9zm0 .6c.7 0 1.3.6 1.3 1.3 0 .7-.6 1.3-1.3 1.3-.7 0-1.3-.6-1.3-1.3 0-.7.6-1.3 1.3-1.3zm-39.7.1l5.6 1.4-1.3 5.9-6.3-1.7 2-5.6zm71-.1c.9 2.9-.8 6.6-.9 6.8-1 2.9-2.2 5.3-2.7 5.4-.4.1-.5.1-.5-.3 0-.5 1.3-4.3 2.2-6.7.2-.6.8-2.4.8-2.7 0-.4-.4.3-.9 1.4-.9 2.2-2.2 4.6-2.5 6.8-.2 1.8-.5 1.5-.8-.6-.3-2.9.3-4.4 3.6-8.5.8-.9 1.6-1.9 1.7-1.6zm-41.2 1.5l1.6 5.8-6.6 1.1-1-5.9 6-1zm-27.7.6c-1 0-1.9.8-1.9 1.9 0 1 .8 1.9 1.9 1.9s1.9-.8 1.9-1.9c-.1-1.1-.9-1.9-1.9-1.9zm9.9.3l6 .3.1 6-6.6-.2.5-6.1zm-10 .3c.7 0 1.3.6 1.3 1.3 0 .7-.6 1.3-1.3 1.3-.7 0-1.3-.6-1.3-1.3.1-.8.7-1.3 1.3-1.3zm25.2.5c-1 0-1.9.8-1.9 1.9 0 1 .8 1.9 1.9 1.9 1 0 1.9-.8 1.9-1.9 0-1-.9-1.9-1.9-1.9zm-12.4.5c-1 0-1.9.8-1.9 1.9 0 1 .8 1.9 1.9 1.9 1 0 1.9-.8 1.9-1.9-.1-1.1-.9-1.9-1.9-1.9zm12.4.1c.7 0 1.3.6 1.3 1.3 0 .7-.6 1.3-1.3 1.3-.7 0-1.3-.6-1.3-1.3s.6-1.3 1.3-1.3zm-12.4.5c.7 0 1.3.6 1.3 1.3 0 .7-.6 1.3-1.3 1.3-.7 0-1.3-.6-1.3-1.3s.6-1.3 1.3-1.3zm40.8.4h.3c1.3 0 5.9 3.2 7 5.2 1 1.7.5 2.4-.6.9-1.5-1.7-4.3-4.2-4.7-4.2-.4 0 .1.6 1.9 2.3 1.8 1.7 3.7 4 3.7 4.4 0 .3-.4.2-.9-.1-1.1-.7-2.1-1.4-2.6-1.9-.3-.3-.9-.8-1.3-1.2-1.7-1.5-3.5-4.8-3-5.5.1.1.2.1.2.1zm-83.6.5c1.2 0 2.5.7 2.5 2.1 0 1 .1 1 1 1 .8 0 3.2.3 3.2.3V87s-1.1 0-2.5-.1c-2.2-.1-2.2-.1-2.5.9-.1.4-.3.6-.7.9-2 1.3-4-1.1-2.7-3.4.4-.8.5-1.1.2-1.5-.7-1.4.1-2.9 1.5-2.9zm.5 1.3c-.2 0-.5.1-.8.4-.3.3-.3 1.3 0 1.8s.3.7-.1 1c-.7.6-.7 1.8 0 2.3.6.4 1.2-.1 1.2-1s.6-.9.6-.9l4.2.1v-.7l-3-.2c-.4 0-.9 0-1.2-.3-.3-.2-.7-.7-.4-1.2.6-.6.1-1.3-.5-1.3zm-9.1 1.6l2 3.4 2.3.1.2 2.1 2.8 1.8-2.9 1.7-.1 2.1-2.2.3-2 2.6-2-2.6h-2.2v-2.1l-3-1.9 3.2-1.8V87l2.3-.2 1.6-3zm70.6 1.6l.1 2.1-3.3.6.4-2.1 2.8-.6zm-21 2l4.4.1-.3 29h-1v-1.1h-1.4l-1.4-.9-.3-27.1zm-49.6.8l-2.6 3.3 3.1 2.8 2.8-3.2-3.3-2.9zm50.9.4V90h1.8v-1.3h-1.8zm-50.9 1.2l1.8 1.3-1.4 1.9-1.8-1.5 1.4-1.7zm70.7.7l-.1 15.9c-6.1 4.8-7.9 13.2-7.9 13.2l-2.5-.1 6.3-28 4.2-1zm-32.9.4c-5.5 2.6-10.9 4.6-16.4 10.8 2.1 1.9 4.3 3.8 6.3 7.1 4.5-.7 9.5.1 15 2.3l-4.9-20.2zm13.1.3v1.4h1.8v-1.4h-1.8zm-61.3 2c.1.4.2.9.2.9 4-.3 3 4.3.4 4.5-.3 0 .2.8.8 1.1 1.5.6 2.6.2 3.6-1.1.8-1 .8-1.2.8-1.2l2.5 1.3s.1 0-.4 1.1c-.8 2.1.4 4.6 1.3 2.8.5-1 1.9-1.6 2.8-1.1 1.1.5 1.5 2.5.7 3.8-.2.4-.2.5-.1.8.2.5.4 1.9.1 2.4-.3.6-.7.7-1.3.2-.9-.7-1.5-.9-3.1-1.4-2.8-.5-3.4-1.5-4.5-3.9-3.4 1-8.4-1.1-7.7-6.1.3-1.1.4-3.2-.2-3.7-1.1-.9.1-2.1 1.8-2.3 1.4-.1 2.1 1.2 2.3 1.9zm47.7-1.4l4.4 18.5c-4.8-1.8-9.5-3.2-13.7-2.1-1.9-3.1-3.5-4.6-5.7-6.6 4.1-5.1 9.4-7.9 15-9.8zm-49.6.9c-.3 0-.6.1-.9.4 0 0 .3.2.5.6.3.5.3.5 0 1.7-1.3 4.8 1.8 8 6.3 6.6 1.1-.3 1.1-.3 1.4 1 .5 2.2 2 3.3 5 3.7.2 0 .5.1.7.2 1.3.9.8-.3.4-.7l-.7-.7s.4-.3.6-.4c.8-.5 1.2-2.2.5-2.6-.6-.3-1.7.2-1.7.8 0 1.2-1.5 1.3-2.8.3-1.7-1.3-.2-4.5-.2-4.5l-1-.4c.1.1-2 3.2-4.6 2.1-1.8-.7-3.1-2.9-2.3-3.5.6-.2 1.4.2 1.8-.2.9-.7.2-2-1.2-2-.3 0-.9.1-.9.1.1-.6.2-1 .1-1.6 0-.5-.4-.9-1-.9zm63.2 1.4v1.1h1.8v-1.1h-1.8zm0 2.3v1.2h1.8v-1.2h-1.8zm0 2.6v1.2h1.8V99h-1.8zm0 2.3v1.3h1.8v-1.3h-1.8zm0 2.4v1.2h1.8v-1.2h-1.8zm0 2.4v1.2h1.8v-1.2h-1.8zm-60.1 1.2l1.6 2.6 1.8.1.1 1.8 3.1 2.4-2.7 2-.2 2-2.2.1-1.8 3-2.2-2.6-1.7-.3-.2-2.4-2.7-2 2.5-2 .2-2.1 2.1.2 2.3-2.8zm102.3 1.2c.2 0 .4.1.5.2.7.3.9.4 2.6.5 2 .1 2.7.3 3.6.9.6.4.6.4 1.3 0 2.8-1.8 5.9-.2 6.2 3.3.1.9.2 1.3.5 2 .2.5.5.9.3 1.3-.4 1-2.6 1.1-3.7-.4-.2-.2-.4-.3-.7-.3-.6.2-2.1-1-2-1-.1.8-.2 1.5-.3 2.6h-2.6s-.1-.5-.2-2.1c-.1-1.9-.6-2.5-1.2-1.4-1 1.8-3.8 1-4-1.1-.1-.7-.1-.8-.5-1.1-1.3-1.3-.9-3.4.2-3.4zm-42.2.1v1.1h1.8v-1.1h-1.8zm42.5 1.2c-.5 0-.2 1 .6 1.4.5.3.5.3.4 1.1-.1 1.5 1.3 2.3 2 1 .1-.2.2-.5.1-.7-.3-1.1 2.1-.8 2.7.3.1.3.3 1 .3 1.7.1.7.1 1.4.1 1.4h.8v-.9c.2-1.9 1-3.1 2.1-3.1.5 0 .5.1.2.7-.6 1.1 0 1.8 1.3 1.8.8 0 .8 0 1.1.6.3.7.6.9.9.7.2-.1.2 0-.1-2.2-.4-3.4-2.4-4.3-5.1-2.4-.8.5-.9.5-1.6-.1-1-1-1.6-1.2-3.6-1.3-.9 0-1.9-.1-2.1-.2.1.2 0 .2-.1.2zm-63.5.9c-.4 0-.9.1-1.4.1.5 2.6.7 5.2.9 7.8 2.3-.4 5.2 0 9 1.8 2.4 1.1 5.3 3 8.3 5.1 3.3 2.3 7.1 3.7 10.4 4.4 4 .9 7.2.8 7.1.6-.2 0-1.4-6.4-1.3-7.7-5.5-.5-10.8-2.6-14.9-5.3-5.3-3.7-11.5-6.9-18.1-6.8zm21 .2v1.1h1.8v-1.1h-1.8zm-60.7.2l-2.9 3.1 3.2 3 2.7-3.1-3-3zm0 1.4l1.7 1.6-1.3 1.7-1.9-1.6 1.5-1.7zm41.2.3c.4 0 .8.3 2.1 1 1.1.8 1.9 1.2 1.6 0 .2-.3 1.4.8 2.9 1.5 1.7 1.4 1.7 1 1.9.4.2-.5.5-.2 1.9 1.1 1.8 1.7 1.6 1.7 2 1.3.4-.8.5-.8 2 .9 1.5 1.7 1.8 2.1 2.2 1.3.5-.4.8 0 2.8 1.9 1 1 1.2.9 1.4.2.2-.7.3-.5 2 .8 2 1.6 2.2 1.7 2.3 1.2.1-.9.7-.6 2.8.9 1.2.9 1.7 1.1 2 .9.3-.5-.7-1.4 1.3-.5l.5 2.9-.7-.2c-.4-.1-1.3-.4-1 .5.2.5-.3.5-1.8-.5-2.2-1.3-2.6-1.6-2.8-1.4-.3 1-.3 1.1-1.7-.1-1.7-1.3-2.1-1.7-2.3-1.2 0 1-.5.8-2.1-.6-1.4-1.2-1.7-1.8-2.3-.9-.2.3-.3.2-.6.1-.8-.6-2.4-2.3-2.8-2.8-.4-.4-.6-.3-.8.1-.3.3-.3.2-1.2-.6-2.1-1.9-2.5-2.4-2.8-2.2-.2.5 0 1.1-1.6-.2-2-1.5-2.9-2.1-2.8-1.2-.3.4-.1.5-2.1-.6-1.9-1.1-2.2-1.4-2.5-1-.2.6-.8.4-.8.3l-.4-3h.7c-.3 0 .4-.3.7-.3zm-15.5.2c-.2.5-1.2 3.1-1.2 9.8.1.2 2.6-2.4 2.8-4.8.1-2.3-1.6-5-1.6-5zm35 .2v1.2h1.8v-1.2h-1.8zm-34.9 1c2.4 3.8-.2 7.3-.9 7.5.1-2.8.5-5.4.9-7.5zm61.7 3.1c-3.9 2.5-3.2 9.1-1.3 10.8.1 0 1.3-7.1 1.3-10.8zm-.5.9l-1 8.5c-1.4-1.5-1.6-6 1-8.5zm24.4 1.4l2 2.6 1.8.1.4 1.9 2.6 2.2-2.7 1.8-.2 2.1-2 .2-2 3.1-1.9-3-1.8-.2-.1-2-2.9-2.1 2.7-1.7.1-2.2h2.1l1.9-2.8zm-72.3.8c-1.3 6.2-4.4 10.5-8.8 13.3v.6l-7.4 3c-1.6 7.6-4.5 15-10.6 21.9l1.7 3.5-8.2 2.8 11.8 20.3c.8 0-5.7 3.1-13.6 2.3 5 12.3 6 25 3.2 36.1l38.5-.2-29.4-58.2-.4-.8c-.4-.8 15.7 2.3 12.2 17.3 0 .3.1.4.3.2 3.1-2.7 23.9-10.2 40.4-.3l4.9-2.1c-2.3 8.3-5 13.9-9.5 18.9l.8 11.7c7.9-6.5 16.6-18.6 17.7-34.5 3.6-1.8 6.7-3.7 10-5.6l.4.1 2.2-1.3c-6.9-7.6-21-14.9-30.1-16.8l.5 2.6c-5-1.4-8.7-1.6-12.6-2.1l-.6-27.3-5-3-.1 30.2c-3.8 0-12.4 1.5-12.4 1.5l.4-2.6-4 .8-.1-2.5 4.5-1.3 6.5-27.7-3.2-.8zm.5.6l2.1.4-6.4 27.2s-3.6 1-3.8.9c-.3-5.1-.4-15.5-.4-15.5 6.3-5.3 7.3-9.1 8.5-13zm-44.1 2c1 0 2 .7 2.1 1.3.2.4.3.6.6.6 1.6.2 1.7.7 1.7 1.6-.2 1.8 1 .3 1.3-1.5v-1.6h2s.1 1.4.1 1.7c.2 1.4.8 2.5 1.2 1.8 1.4-2.5 4.6-1.2 4.1 1.2-.1.6-.1.6.3 1 .6.7.9 1.5.7 2.1-.2.6-.7.7-1.6.4-.5-.2-1-.2-2.5-.3-2.1-.1-2.2-.1-3-.9l-.6-.4-.9.5c-1.5.9-2.8.9-4.3.1-1-.5-1.6-1.8-1.7-3.7 0-1-.3-1.8-.9-2-.3-.3 0-1 .6-1.6.2-.2.5-.3.8-.3zm115.7.3l-2.7 3.4 3.2 2.9 3-3.6-3.5-2.7zm-63.1.5L84 126l.5 27-4.3-.1v-29.1zm-52.5.4c-.3 0-.1.5.1 1.2.2.6.2 1 .2 1.5-.4 3 3 4.5 5.4 2.4.6-.7.8-.7 1.3.1.7.8 1.6 1.1 3.7 1 .9-.1 1.5.4 1.9.1.3-.2 0-.8-.6-1.1-.3-.2-.4-.2-.3-.9.2-1.7-1.3-2.2-2.3-.7-.8 1.2-2.1.4-2.5-1.6-.2-1.5-.4-1.5-.6-.2-.2 1.6-2.3 3.4-3.2 2.6-.2-.2-.2-.2 0-1 .3-1.1.1-1.5-1.1-1.7-.2 0-.4-.2-.5-.3-.5-1.1-.5-1.4-1.5-1.4zm115.9.6l1.7 1.5-1.5 1.8-1.8-1.4 1.6-1.9zm-62.3 1v1.2H83v-1.3h-1.7zm0 2.5v1.3H83v-1.3h-1.7zm9.8 1.6c1.8 6.8 3.6 13.5 5.5 20.3 1.7-.7 11.7-5.1 16.4-10.8-.2 0-4.3-4-5.7-6.6-4.8.7-10.2-.3-16.2-2.9zm-9.8.8v1.2H83v-1.3h-1.7zm10.8.3c4.3 1.3 9.7 3.1 14.8 2.2 1.3 2.4 3.2 4.3 5.3 6.1-3.8 4.2-9.3 7.4-15 9.8L92.1 131zm40.6.5c.2 0 .4.1.6.3.7.6 1.2.8 2.6 1 2.2.4 3.9 1.8 4.4 3.6.2.8.3.8 1.4.5 4.2-1.1 7.4 2.4 6.4 7.1-.3 1.6-.5 1.8 0 2.5 1.1 1.2 1.3 1.2.1 2.2-1.1 1-3.2.5-3.6-1.1-.4-.9-.4-.9-1.1-1-2.7-.4-2.6-4.3 0-4.7h.5c.7-.3-.8-2.1-2.1-1.8-1.6.3-2.3 1.3-2.9 2.9l-2.4-1.4c.6-1.3 1.1-2.9.5-3.9-.4-.9-1-.9-1.1-.1-.4 1.9-2.8 2.5-4.3.9-.9-.9-1-1.8-.3-3.1.4-.8.4-.9.2-1.2-.7-1.2.1-2.7 1.1-2.7zm-51.4 1.6v1.3h1.6v-1.3h-1.6zm51.7.1c-.5 0-.5.5 0 1.1.4.4.5.6-.1 1-.7.7-.9 1.7-.4 2.4.7 1.1 2.4.5 2.2-.8-.1-.9.6-1.4 1.8-1 1.7.5 2.5 2.4 1.8 4.3-.1.4-.4 1.2-.4 1.2l.5.3s.6-1 .8-1.2c1.9-2.4 6.5-1.2 6 1.8-.1.9-.1 1.1-1.1.8-.7-.3-1.3.4-1.3 1.3 0 .8.7 1.5 1.7 1.3.8-.1 1-.1.9.9.1.7.3 1.2.8 1.5 1.2.5 1.7-.2.8-1.1-.6-.6-.5-1.5-.2-2.3.4-1 .2-3.3-.4-4.5-.9-1.8-3.5-2.6-5.7-1.7-1 .5-1.1.7-1.2-.3-.5-2.3-2.3-4.1-4.4-4.2-.7-.2-1.6-.7-2.1-.8zm-51.7 2.4v1.2H83v-1.2h-1.7zm0 2.3v1.3H83v-1.3h-1.7zm0 2.6v1.3h1.6v-1.3h-1.6zm52.8 2.1l1.8 2.6 2 .1.2 2.1 3 1.9-2.6 1.6v2.1l-2.5.2-2.2 2.9-1.8-2.6h-1.8l-.4-2.3-3.3-1.7 3.4-1.9-.1-2.4h2.3l2-2.6zm-52.8.4v1.4H83V143h-1.7zm0 2.4v1.3H83v-1.3h-1.7zm51.8 1.1l-2.5 3.4 3.4 2.8 2.7-3.4-3.6-2.8zm-51.8 1.3v1.5H83v-1.5h-1.7zm52 .2l1.8 1.4-1.3 1.6-1.7-1.3 1.2-1.7zm-52 2.5v1.2H83v-1.2h-1.7zm-48 .2c-3.1 0-6.1 5.1-6.8 7.5-.8 3.1-1 8.7-.2 8.8 2.8-2 4.1-5.4 6.2-8 .3 3 .3 8.7.3 8.7s-1.2.7-1.9 1.7c-.5.9-.6 1.9-.2 2.9-1.6-.5-4.4.1-4.5 2.9.1 4.1 4.5 3.5 4.5 3.4-.1 0-.9 4.3 3 4.8 1.4.2 3.9-.9 3.1-4.8 2.5.4 4.6-1 4.6-3.3 0-1.6-1.2-3-3.3-3.1-.4 0-1.4.2-1.4.2 0-.2.9-2.8-2-4.6l-.4-11.8s1 1.1 1.4 1.5c1.9 1.8 3.1 2.7 5.3 3.8 2.1 1.1 1.9.9 1.5-1.3-1-3.2-3.1-5.7-7.6-8.7-.5-.4-1-.6-1.6-.6zm.3.2l.6 16.6h-.9l-.8-16.5 1.1-.1zm91.6.6h.3c2 .2 2.5 2.4 1.6 3.4-.4.4-.5.5-.3.7.9 1.1.4 2.8-.5 3.1-2.7.9-3.1-.6-3.1-2.4l-4.2-.2v-2.5l4.6.1c-.3-1 .4-2.2 1.6-2.2zm-93.5 0c.5 0 0 1.2-1.2 3-.8 1.2-2 3.3-2.3 4.2-.7 1.9-1.3 5.2-.7 4.6.5-1.4.5-2 .9-3 .5-1.3 2.9-5.7 3.4-6.1.4-.4.5-.1.5 1.1 0 2.8-1.3 5.6-4.4 9-.5.6-1.2 1.2-1.2 1.2-.3 0-.3-.6-.3-1.9 0-5.2 1.9-9.8 4.9-11.8.1-.2.2-.3.4-.3zm3.1.3c1.4.4 3.8 2.6 4.8 3.7 1.2 1.3 2.7 4.8 2.4 5.3-.1.2-.3.2-1-.2-4.3-2.4-7.4-5.5-6.6-6.4.2-.3 1.2.3 2.4 1.4.8.8 1.7 1.5 2.5 2.3 1.2 1.2 1.5 1.4.8 0-.7-1.2-2.5-3.2-4.8-4.9-.9-.7-1.1-1.2-.5-1.2zm90.7.7h-.1c-.8.4-.5 1.5-.6 2.3l-4.7-.2v.7l4.4.2c.1.7-.3 2.1.3 2.3 1.2.5 1.9-1.1.9-2-.4-.3-.8-.5.3-.9.7-.6.8-1.7.2-2.2-.3-.2-.6-.2-.7-.2zm-59 .2l-.2 1.7-2.7.7-.1-1.9 3-.5zm31.9.6c10 2.7 21.1 8.9 28.3 15.8l-1.4 1c-7.5-7-17.4-12.2-26.4-14.9l-.5-1.9zm-17.2.2c16.4 0 31.4 6.4 43.5 16.8l-2 1.3c-11-9.2-23.2-15.3-39.7-16-10.7-.5-23 2.3-35.1 9L47 163c11.8-6.6 23.3-9.4 34.2-9.5zm-1.3 2.5l6.5.2-.4 6-5.9-.2-.2-6zm-6.9.5l.9 5.8-5.6 1.1-1.6-5.8 6.3-1.1zm20.4.7l6.4 1.7-2.1 5.9-5.6-1.6 1.3-6zm-10.3.1c-1 0-1.8.8-1.8 1.9 0 1 .8 1.9 1.8 1.9s1.8-.8 1.8-1.9c.1-1.1-.8-1.9-1.8-1.9zm0 .7c.7 0 1.2.5 1.2 1.2s-.6 1.2-1.2 1.2-1.2-.5-1.2-1.2.6-1.2 1.2-1.2zm-12.7 0c-1 0-1.8.8-1.8 1.9 0 1 .8 1.9 1.8 1.9s1.8-.8 1.8-1.9c0-1.1-.8-1.9-1.8-1.9zm0 .6c.7 0 1.2.5 1.2 1.2s-.6 1.2-1.2 1.2c-.7 0-1.2-.5-1.2-1.2 0-.6.5-1.2 1.2-1.2zm25.4.8c-1 0-1.8.8-1.8 1.9 0 1 .8 1.9 1.8 1.9s1.8-.8 1.8-1.9c0-1.1-.8-1.9-1.8-1.9zm-35.8.2l1.9 5.7-5.4 2.2-2-5.6 5.5-2.3zm35.8.4c.7 0 1.2.5 1.2 1.2s-.6 1.2-1.2 1.2c-.7 0-1.2-.5-1.2-1.2s.5-1.2 1.2-1.2zm10.7 1.4l5.8 3.1-3 5.4-5.4-2.8 2.6-5.7zm-48.4.5c-1 0-1.8.8-1.8 1.9 0 1 .8 1.9 1.8 1.9s1.8-.8 1.8-1.9c0-1.1-.8-1.9-1.8-1.9zm21.8.1l.3 5.7-5.1.4-.9-5.7 5.7-.4zm6.2.3l5.8.8-1.4 5.5-5.3-.9.9-5.4zm-28 .2c.7 0 1.2.5 1.2 1.2s-.6 1.2-1.2 1.2c-.7 0-1.2-.5-1.2-1.2s.5-1.2 1.2-1.2zm19.1.7c-1 0-1.8.8-1.8 1.9s.8 1.9 1.8 1.9 1.8-.8 1.8-1.9-.8-1.9-1.8-1.9zm-9.3.3l1.5 5.6-5.6 1.6-1.7-5.4 5.8-1.8zm20.4.1c-1 0-1.8.8-1.8 1.9 0 1 .8 1.9 1.8 1.9s1.8-.8 1.8-1.9c0-1.1-.8-1.9-1.8-1.9zm-11.1.3c.7 0 1.2.5 1.2 1.2s-.6 1.2-1.2 1.2c-.7 0-1.2-.5-1.2-1.2s.5-1.2 1.2-1.2zm11.1.3c.7 0 1.2.5 1.2 1.2s-.6 1.2-1.2 1.2c-.7 0-1.2-.5-1.2-1.2 0-.6.5-1.2 1.2-1.2zm19.7 0c-1 0-1.8.8-1.8 1.9 0 1 .8 1.9 1.8 1.9s1.8-.8 1.8-1.9c.1-1-.7-1.9-1.8-1.9zm-9.9.6l5.6 1.9-2.2 5.3-5.4-2.1 2-5.1zm9.9.1c.7 0 1.2.5 1.2 1.2s-.6 1.2-1.2 1.2c-.7 0-1.2-.5-1.2-1.2s.6-1.2 1.2-1.2zm-42.4.2c-1 0-1.8.8-1.8 1.9 0 1 .8 1.9 1.8 1.9s1.8-.8 1.8-1.9c.1-1.1-.7-1.9-1.8-1.9zm0 .6c.7 0 1.2.5 1.2 1.2s-.6 1.2-1.2 1.2c-.7 0-1.2-.5-1.2-1.2s.6-1.2 1.2-1.2zm34.2 1.1c-1 0-1.8.8-1.8 1.9 0 1 .8 1.9 1.8 1.9s1.8-.8 1.8-1.9c0-1.1-.8-1.9-1.8-1.9zm0 .6c.7 0 1.2.5 1.2 1.2s-.6 1.2-1.2 1.2-1.2-.5-1.2-1.2c0-.6.5-1.2 1.2-1.2zm-66 .7c1.5.1 2.6 1.4 2.6 2.8.1 1.1-1.3 2.4-1.3 2.4l-1.6-1.4-1.5 1.4c-.3.1-1.4-1.9-1.1-2.9.6-1.4 1.5-2.4 2.9-2.3zm83.8 0l4.5 3.7s-2 1.2-2.3 1.4c0-.2.1-.3.1-.5 0-1-.8-1.9-1.8-1.9s-1.8.8-1.8 1.9c0 .9.6 1.6 1.4 1.8-.5.3-1.1.6-1.1.6l-2.4-2 3.4-5zm-7.1 9.8l-2 .8c-12.2-8-28.8-12.4-47.8-4.3l-.7-1.6c14.2-5.9 32-7.8 50.5 5.1zm-1.1-8l4.8 3-3 4.7-4.7-3 2.9-4.7zM108 179l-2 .8c-14.8-9.6-30.6-9.1-44.8-3.3l-.2-1.3c16.6-7.4 33.3-5.1 47 3.8zm9.9-7.6c.7 0 1.2.5 1.2 1.2s-.6 1.2-1.2 1.2-1.2-.5-1.2-1.2c0-.6.5-1.2 1.2-1.2zm-86.3 2.2l-1.6 1.7 1.5 1.7s-.5.4-.8.6c-2 1.1-4.1-.6-4-2.5.1-2.6 3.3-3.9 4.9-1.5zm78.5-1.2c-1 0-1.8.8-1.8 1.9 0 1 .8 1.9 1.8 1.9s1.8-.8 1.8-1.9c0-1.1-.8-1.9-1.8-1.9zm-71.8 0c1.5 0 2.6 1.1 2.7 2.5.1 1-.4 2-1.6 2.7-1.6 1-3.4-.6-3.4-.7l1.3-1.3-1.6-1.6c.1 0 1.2-1.6 2.6-1.6zm-4.6.4l2.7 2.7-2.9 2.7-2.7-2.7 2.9-2.7zm71.7 7.2l-1.5.7-2.1-1.3-.6 1.2 1.2.7-1.2.5c-13.9-7.8-29.5-5.6-39.9-.4l.1-.8 1.1-.6-.4-1.4-.6.2v-1.6c14.7-6.7 31.5-5.2 43.9 2.8zm4.7-7c.7 0 1.2.5 1.2 1.2s-.6 1.2-1.2 1.2c-.7 0-1.2-.5-1.2-1.2 0-.6.5-1.2 1.2-1.2zm-76.5 1l-1.4 1.5 1.4 1.5 1.4-1.5-1.4-1.5zm45.4.3l-1.9.1.1 1.6h1.9l-.1-1.7zm1.3 0v1.6H82v-1.5l-1.7-.1zm3.1 0l-.1 1.6 1.7.1.1-1.5-1.7-.2zm-7.4.2l-1.9.2.2 1.6 1.8-.2-.1-1.6zm10.5.1l-.1 1.6 1.8.2.2-1.5-1.9-.3zm-52.9 0l.8.9-.8.8-.9-.9.9-.8zm39.1.4l-1.9.3.2 1.7 1.8-.4-.1-1.6zm17 0l-.3 1.5 1.7.4.3-1.5-1.7-.4zm-20.1.7l-1.6.4.3 1.6 1.7-.4-.4-1.6zm23.1.1l-.3 1.5 1.8.5.4-1.5-1.9-.5zm-25.7.7l-1.6.6.4 1.5 1.7-.6-.5-1.5zm28.8.2l-.5 1.5 1.5.6.7-1.3-1.7-.8zm-31.5.8l-1.6.6.6 1.4 1.5-.7-.5-1.3zm-32.3.1l1.6 1.6 1.9-1.7c1.6 1.5 1.6 4.9-1.3 5.5-2.5.4-4.8-3.4-2.2-5.4zm66.6.3l-.6 1.3 1.7.8.6-1.3-1.7-.8zM50 186.5l21.5 36.8-3.4-.1-20.8-35.5 2.7-1.2zm-3.5 1.4l1.2 1.9c-2.3-1.9-5.7-.3-5.6 2.1.1 1 1 1.7 1 .7-.1-1.1 1.4-2 2.5-1.9 2 0 3.2 2.6 1.8 3.9-.9.8-2.1.8-1.7-.3.1-.4 0-.5-.2-.7-.6-.5-1.6.2-1.4.9.2.5.2.6-.4 1-2.3 1.6-.7 4.8 2.1 3.3.6-.2.8-.2 1-.1 1.1.4 1.9-.6.8-1.1-.6-.3-.6-.8 0-1.2 1.3-.9 3.3.5 3.3 2.2 0 1.2-1.6 2.2-3.2 1.8-.9-.2-1 .4-.2 1.1 1.6 1.3 4.1.2 4.8-2.1.2-.7.2-.9.2-.9l2.2 3.6s-.7-.3-1.1-.5c-2.1-.6-4.4.7-4.4 2.6 0 .9.5 1.2.8.5.7-1.6 2.1-2.2 3.6-1.5 1.4.6 2 2 1.5 3.3-.6 1.3-2.4 1.7-2.2.5.1-.6-.3-.9-.9-.9-.2 0-.5.7-.5 1.1.1.3 0 .4-.8 1-1.9 1.5-.4 4 1.9 3.2.4-.1.6-.1.9.1.9.4 1.8.2 1.8-.5 0-.5-.2-.6-.7-.6-.8 0-.6-.9.3-1.4 2.3-1.1 4.6 1.7 3.2 4-.6 1-1 1.1-3.1.8-.3 0-.5.2-.3.5.6.9 2.5 1.2 3.6.7 1.2-.5 1.9-1.9 2-3.3l2.4 4.2c-1.9-2-5.1-1.2-5.6 1.6 0 .7.6 1.1.9.5 1-2.5 4.7-1.8 4.7 1 0 .4-.1.7-.4 1.1-.7 1.3-2.4 1.6-2.1.5.1-.4-.1-.8-.6-.9-.5-.1-.8.3-.8 1v.7c-.9.4-1.4 1.1-1.6 2.2H40.4c2-11.7 1.5-22.4-2.3-32.4-.3-.9-.8-2.1-.8-2.1l3 .1c.7.6 3.4.4 4.5-.6l1.7-.7zm2.8 4.6l1.7 3.1c-.7-.4-1.5-.7-2.6-.8.7-.8.7-1.6.9-2.3zm-4.5 3.3c.6 0 1.1.5 1.1 1.2 0 .6-.5 1.2-1.1 1.2s-1.1-.5-1.1-1.2c-.1-.6.4-1.2 1.1-1.2zm12 9.4l1.7 3c-.8-.3-1.5-.7-2.8-.7.4-.5.8-1.4 1.1-2.3zm-4.9 3.3c.6 0 1.1.5 1.1 1.1s-.5 1.1-1.1 1.1c-.6 0-1.1-.5-1.1-1.1s.5-1.1 1.1-1.1zm12.2 9.3l2.5 4.4c-1-.6-2-1.3-3.3-1.1.5-1.4.9-2.1.8-3.3zm-3.3 5.5h-2.7c.6-2.3 2.7-1.7 2.7 0zm2.5-1.1c.9 0 1.7.4 2.2 1.1h-3.3c-.1 0-.1-1.1 1.1-1.1z"/><path id="path163-0-2-5-8-7-5-8-8-7_1_" class="st0" d="M41.926 53.353s-3.7-6.1-8.7-13.3c-3.4-4.8-6-10-6.3-14.5-.3-5.1 2.4-10.3 7.3-10.5 4.9-.2 6.9 3.9 7.7 7.4.8-3.5 2.8-7.7 7.7-7.4 4.9.2 7.6 5.4 7.3 10.5-.2 4.5-2.9 9.7-6.3 14.5-5 7.2-8.7 13.3-8.7 13.3z"/><path id="path163-0-2-5-8-7-7-8-4-8-6_1_" class="st0" d="M124.426 173.253s-3.7 6.1-8.7 13.3c-3.4 4.8-6 10-6.3 14.5-.3 5.1 2.4 10.3 7.3 10.5 4.9.2 6.9-3.9 7.7-7.4.8 3.5 2.8 7.7 7.7 7.4 4.9-.2 7.6-5.4 7.3-10.5-.2-4.5-2.9-9.7-6.3-14.5-5-7.2-8.7-13.3-8.7-13.3z"/></g></svg>