<svg xmlns="http://www.w3.org/2000/svg" width="167.4" height="226.6" viewBox="0 0 167.4 226.6"><g><path d="M8.577 28.864c-3.385 4.386-7.07 6.878-7.168 10.268 0 1.096.696 2.99 2.786 3.39 1.394.198 3.186-.8 3.286-2.792 0-.4.497-.4.497.2-.1 1.594-.598 3.388-1.593 4.883h4.48c-.897-1.495-1.494-3.29-1.593-4.884 0-.5.497-.6.497-.2 0 1.993 1.893 2.99 3.287 2.79 2.09-.398 2.787-2.192 2.787-3.388-.2-3.39-3.882-5.98-7.267-10.268z"/><path d="M158.903 197.723c-3.385-4.386-7.068-6.878-7.168-10.267 0-1.097.697-2.99 2.788-3.39 1.393-.2 3.185.798 3.285 2.79 0 .4.498.4.498-.198-.1-1.595-.598-3.39-1.593-4.884h4.48c-.896 1.495-1.494 3.29-1.593 4.884 0 .5.498.598.498.2 0-1.994 1.89-2.99 3.285-2.792 2.09.4 2.787 2.193 2.787 3.39-.2 3.39-3.882 5.98-7.267 10.267z"/><path d="M83.74 15.01c-7.367 10.565-15.232 16.546-15.33 24.72 0 2.69 1.392 7.177 5.872 7.974 2.887.598 6.87-1.794 6.97-6.58 0-.996.995-.896.995.4-.1 3.788-1.295 8.174-3.385 11.762h9.656c-1.99-3.588-3.185-7.974-3.384-11.762 0-1.296.995-1.296.995-.4.1 4.786 4.08 7.178 6.968 6.58 4.48-.897 5.874-5.383 5.874-7.974-.1-8.174-7.865-14.155-15.232-24.72z"/><path d="M83.74 211.578c-7.367-10.466-15.232-16.547-15.33-24.72 0-2.692 1.392-7.178 5.872-7.975 2.887-.598 6.87 1.794 6.97 6.58 0 .996.995.896.995-.4-.1-3.788-1.295-8.174-3.385-11.762h9.656c-1.99 3.59-3.185 7.975-3.384 11.763 0 1.296.995 1.296.995.4.1-4.786 4.08-7.178 6.968-6.58 4.48.897 5.874 5.383 5.874 7.974-.1 8.174-7.865 14.155-15.232 24.72z"/><path d="M83.74 94.155c-7.367 10.466-15.232 16.547-15.33 24.72 0 2.692 1.392 7.178 5.872 7.975 2.887.598 6.87-1.794 6.97-6.58 0-.996.995-.896.995.4-.1 3.788-1.295 8.174-3.385 11.762h9.656c-1.99-3.588-3.185-7.974-3.384-11.762 0-1.296.995-1.296.995-.4.1 4.786 4.08 7.178 6.968 6.58 4.48-.897 5.874-5.383 5.874-7.974-.1-8.174-7.865-14.255-15.232-24.72z"/><path d="M.015 20.59l1.99-1.494c1.793 2.89 3.685 4.784 6.77 4.386 4.48-.3 6.372-5.084 5.476-8.573-.994-3.19-4.678-4.785-7.664-3.09-.697.398-1.394.697-1.494.697-.298 0-.995-1.396-.896-1.794 1.99-2.89 6.87-7.975 6.87-7.975H3.5v3.39H.61V.057h14.734V2.15s-3.982 4.087-5.276 6.38c3.186.1 5.774 2.193 6.77 5.382.497 1.695.298 5.583-.4 7.277-1.193 2.79-4.478 5.083-7.366 5.182-5.077.3-7.765-3.29-9.06-5.78z"/><path d="M167.465 205.996l-1.992 1.495c-1.79-2.89-3.683-4.783-6.77-4.385-4.48.3-6.37 5.084-5.475 8.573.896 3.19 4.68 4.784 7.566 3.09.697-.4 1.394-.698 1.494-.698.298 0 .995 1.396.896 1.794-1.99 2.89-6.87 7.975-6.87 7.975h7.567v-3.39h2.888v6.08h-14.734v-2.093s3.982-4.087 5.276-6.38c-3.186-.1-5.774-2.193-6.77-5.382-.497-1.695-.298-5.582.4-7.277 1.193-2.79 4.48-5.084 7.366-5.183 5.176-.3 7.765 3.19 9.16 5.78z"/></g></svg>