<svg xmlns="http://www.w3.org/2000/svg" width="166.8" height="226.6" viewBox="0 0 166.8 226.6"><g><path d="M42.13 15.01C34.76 25.574 26.896 31.555 26.797 39.73c0 2.69 1.393 7.177 5.873 7.974 2.888.598 6.87-1.794 6.97-6.58 0-.996.996-.896.996.4-.1 3.788-1.295 8.174-3.385 11.762h9.657c-1.99-3.588-3.185-7.974-3.384-11.762 0-1.296.995-1.296.995-.4.1 4.786 4.082 7.178 6.97 6.58 4.48-.897 5.873-5.383 5.873-7.974 0-8.174-7.864-14.155-15.23-24.72z"/><path d="M8.18 28.864c-3.384 4.386-7.067 6.878-7.167 10.268 0 1.096.697 2.99 2.788 3.39 1.394.198 3.186-.8 3.286-2.792 0-.4.498-.4.498.2-.1 1.594-.598 3.388-1.593 4.883h4.48c-.895-1.495-1.493-3.29-1.592-4.884 0-.5.498-.6.498-.2 0 1.993 1.89 2.99 3.285 2.79 2.092-.398 2.788-2.192 2.788-3.388-.1-3.39-3.783-5.98-7.267-10.268z"/><path d="M158.607 197.723c-3.385-4.386-7.07-6.878-7.168-10.267 0-1.097.696-2.99 2.786-3.39 1.394-.2 3.186.798 3.286 2.79 0 .4.497.4.497-.198-.1-1.595-.598-3.39-1.593-4.884h4.48c-.896 1.495-1.494 3.29-1.593 4.884 0 .5.497.598.497.2 0-1.994 1.893-2.99 3.287-2.792 2.09.4 2.787 2.193 2.787 3.39-.2 3.39-3.882 5.98-7.267 10.267z"/><path d="M124.66 15.01c-7.368 10.565-15.233 16.546-15.432 24.72 0 2.69 1.394 7.177 5.874 7.974 2.887.598 6.87-1.794 6.97-6.58 0-.996.994-.896.994.4-.1 3.788-1.294 8.174-3.385 11.762h9.658c-1.99-3.588-3.186-7.974-3.385-11.762 0-1.296.996-1.296.996-.4.098 4.786 4.08 7.178 6.967 6.58 4.48-.897 5.874-5.383 5.874-7.974 0-8.174-7.864-14.155-15.13-24.72z"/><path d="M42.13 211.578c-7.368-10.566-15.233-16.547-15.332-24.72 0-2.692 1.393-7.178 5.873-7.975 2.888-.598 6.87 1.794 6.97 6.58 0 .996.996.896.996-.4-.1-3.788-1.295-8.174-3.385-11.762h9.657c-1.99 3.59-3.185 7.975-3.384 11.763 0 1.296.995 1.296.995.4.1-4.786 4.082-7.178 6.97-6.58 4.48.897 5.873 5.383 5.873 7.974 0 8.174-7.864 14.155-15.23 24.72z"/><path d="M124.66 211.578c-7.368-10.466-15.233-16.547-15.332-24.72 0-2.692 1.393-7.178 5.873-7.975 2.888-.598 6.87 1.794 6.97 6.58 0 .996.996.896.996-.4-.1-3.788-1.295-8.174-3.385-11.762h9.658c-1.992 3.59-3.186 7.975-3.385 11.763 0 1.296.995 1.296.995.4.1-4.786 4.082-7.178 6.97-6.58 4.48.897 5.873 5.383 5.873 7.974-.1 8.174-7.964 14.155-15.23 24.72z"/><path d="M8.38 26.273V23.98h2.09v-3.788H.02v-2.69L11.368.056h1.89V17.5h3.186v2.692h-3.186l-.1 3.788h1.693v2.293H8.38zm45.21-99.61L46.424-62.27h7.168v-11.064z"/><path d="M158.408 200.314v2.293h-2.09v3.788h10.452v2.69l-11.35 17.445h-1.89v-17.444h-3.186v-2.69h3.186l.1-3.79h-1.793v-2.292h6.57zm41.7-59.378l7.17-11.064h-7.17v11.064z"/></g></svg>