<svg xmlns="http://www.w3.org/2000/svg" width="166.3" height="226.6" viewBox="0 0 166.3 226.6"><g><path d="M41.935 15.01c-7.367 10.465-15.232 16.546-15.332 24.72 0 2.69 1.394 7.177 5.874 7.974 2.887.598 6.87-1.794 6.97-6.58 0-.996.994-.896.994.4-.098 3.788-1.293 8.174-3.383 11.762h9.656c-1.99-3.588-3.185-7.974-3.384-11.762 0-1.296.994-1.296.994-.4.1 4.786 4.082 7.178 6.97 6.58 4.48-.897 5.872-5.383 5.872-7.974 0-8.174-7.864-14.155-15.23-24.72z"/><path d="M7.987 28.864C4.602 33.25.92 35.742.82 39.132c0 1.096.696 2.99 2.787 3.39 1.393.198 3.185-.8 3.285-2.792 0-.4.498-.4.498.2-.1 1.594-.598 3.388-1.593 4.883h4.48c-.896-1.495-1.494-3.29-1.593-4.884 0-.5.498-.6.498-.2 0 1.993 1.89 2.99 3.285 2.79 2.09-.398 2.787-2.192 2.787-3.388-.2-3.39-3.882-5.98-7.267-10.268z"/><path d="M158.313 197.723c-3.385-4.386-7.068-6.878-7.168-10.267 0-1.097.697-2.99 2.788-3.39 1.394-.2 3.185.798 3.285 2.79 0 .4.498.4.498-.198-.1-1.595-.598-3.39-1.593-4.884h4.48c-.896 1.495-1.493 3.29-1.593 4.884 0 .5.498.598.498.2 0-1.994 1.89-2.99 3.285-2.792 2.09.4 2.788 2.193 2.788 3.39-.1 3.39-3.782 5.98-7.267 10.267z"/><path d="M124.365 15.01c-7.367 10.565-15.23 16.546-15.33 24.72 0 2.69 1.393 7.177 5.873 7.974 2.887.598 6.87-1.794 6.968-6.58 0-.996.996-.896.996.4-.1 3.788-1.294 8.174-3.385 11.762h9.657c-1.99-3.588-3.186-7.974-3.385-11.762 0-1.296.995-1.296.995-.4.1 4.786 4.08 7.178 6.968 6.58 4.48-.897 5.874-5.383 5.874-7.974 0-8.174-7.865-14.155-15.232-24.72z"/><path d="M41.935 94.155c-7.367 10.466-15.232 16.547-15.332 24.72 0 2.692 1.394 7.178 5.874 7.975 2.887.598 6.87-1.794 6.97-6.58 0-.996.994-.896.994.4-.098 3.788-1.293 8.174-3.383 11.762h9.656c-1.99-3.588-3.185-7.974-3.384-11.762 0-1.296.994-1.296.994-.4.1 4.786 4.082 7.178 6.97 6.58 4.48-.897 5.872-5.383 5.872-7.974 0-8.174-7.864-14.255-15.23-24.72z"/><path d="M41.935 211.578c-7.367-10.466-15.232-16.547-15.332-24.72 0-2.692 1.394-7.178 5.874-7.975 2.887-.598 6.87 1.794 6.97 6.58 0 .996.994.896.994-.4-.098-3.788-1.293-8.174-3.383-11.762h9.656c-1.99 3.59-3.185 7.975-3.384 11.763 0 1.296.994 1.296.994.4.1-4.786 4.082-7.178 6.97-6.58 4.48.897 5.872 5.383 5.872 7.974 0 8.174-7.864 14.155-15.23 24.72z"/><path d="M124.365 211.578c-7.367-10.466-15.23-16.547-15.33-24.72 0-2.692 1.393-7.178 5.873-7.975 2.887-.598 6.87 1.794 6.968 6.58 0 .996.996.896.996-.4-.1-3.788-1.294-8.174-3.385-11.762h9.657c-1.99 3.59-3.186 7.975-3.385 11.763 0 1.296.995 1.296.995.4.1-4.786 4.08-7.178 6.968-6.58 4.48.897 5.874 5.383 5.874 7.974 0 8.174-7.865 14.155-15.232 24.72z"/><path d="M124.365 94.155c-7.367 10.466-15.23 16.547-15.33 24.72 0 2.692 1.393 7.178 5.873 7.975 2.887.598 6.87-1.794 6.968-6.58 0-.996.996-.896.996.4-.1 3.788-1.294 8.174-3.385 11.762h9.657c-1.99-3.588-3.186-7.974-3.385-11.762 0-1.296.995-1.296.995-.4.1 4.786 4.08 7.178 6.968 6.58 4.48-.897 5.874-5.383 5.874-7.974 0-8.174-7.865-14.255-15.232-24.72z"/><path d="M.222 18.2c-.3-2.194-.3-7.976-.1-9.67C.92 3.346 2.91.954 6.195.157c3.186-.798 7.765.1 8.76 4.385l-2.687.1C10.774 1.752 7.09 2.45 5.1 3.745c-1.693.997-2.39 5.283-2.09 5.482 0 0 3.085-2.292 5.574-2.192 5.277.598 7.467 5.083 7.268 9.47-.2 5.182-1.792 9.37-7.367 9.668-5.277-.1-7.766-2.99-8.263-7.974zm177.62-81.196c0-3.588-1.594-6.28-4.68-6.578-3.086-.3-6.172 2.69-5.973 6.38.198 3.687 1.69 6.777 5.375 6.777 3.982 0 5.276-3.987 5.276-6.58z"/><path d="M166.078 208.388c.3 2.193.3 7.975.1 9.67-.797 5.183-2.788 7.575-6.073 8.372-3.186.798-7.765-.1-8.76-4.385l2.687-.1c1.494 2.89 5.177 2.193 7.168.897 1.693-.997 2.39-5.283 2.09-5.482 0 0-3.085 2.292-5.574 2.193-5.277-.6-7.467-5.084-7.268-9.47.2-5.183 1.792-9.37 7.367-9.67 5.277.1 7.766 2.99 8.263 7.975zm152.08-77.792c0 3.588 1.594 6.28 4.68 6.578 3.086.3 6.172-2.69 5.973-6.38-.198-3.687-1.69-6.777-5.375-6.777-3.982 0-5.276 3.987-5.276 6.58z"/></g></svg>