<svg xmlns="http://www.w3.org/2000/svg" width="166.5" height="226.6" viewBox="0 0 166.5 226.6"><g><path d="M42.037 15.01c-7.367 10.565-15.232 16.546-15.33 24.72 0 2.69 1.392 7.177 5.872 7.974 2.886.598 6.87-1.794 6.968-6.58 0-.996.996-.896.996.4-.1 3.788-1.295 8.174-3.385 11.762h9.655c-1.99-3.588-3.185-7.974-3.384-11.762 0-1.296.996-1.296.996-.4.1 4.786 4.082 7.178 6.97 6.58 4.48-.897 5.873-5.383 5.873-7.974 0-8.174-7.866-14.155-15.233-24.72z"/><path d="M8.09 28.864C4.703 33.25 1.02 35.742.92 39.132c0 1.096.698 2.99 2.79 3.39 1.392.198 3.184-.8 3.284-2.792 0-.4.498-.4.498.2-.1 1.594-.598 3.388-1.593 4.883h4.48c-.897-1.495-1.494-3.29-1.594-4.884 0-.5.498-.6.498-.2 0 1.993 1.89 2.99 3.285 2.79 2.09-.398 2.787-2.192 2.787-3.388-.2-3.39-3.883-5.98-7.268-10.268z"/><path d="M158.415 197.723c-3.385-4.386-7.068-6.878-7.168-10.267 0-1.097.697-2.99 2.788-3.39 1.394-.2 3.186.798 3.285 2.79 0 .4.498.4.498-.198-.1-1.595-.597-3.39-1.593-4.884h4.48c-.896 1.495-1.493 3.29-1.593 4.884 0 .5.498.598.498.2 0-1.994 1.89-2.99 3.285-2.792 2.09.4 2.788 2.193 2.788 3.39-.1 3.39-3.783 5.98-7.268 10.267z"/><path d="M124.467 15.01c-7.367 10.465-15.23 16.546-15.33 24.72 0 2.69 1.393 7.177 5.873 7.974 2.887.598 6.87-1.794 6.97-6.58 0-.996.994-.896.994.4-.1 3.788-1.294 8.174-3.385 11.762h9.656c-1.99-3.588-3.186-7.974-3.385-11.762 0-1.296.997-1.296.997-.4.1 4.786 4.08 7.178 6.968 6.58 4.48-.897 5.874-5.383 5.874-7.974 0-8.174-7.866-14.155-15.233-24.72z"/><path d="M83.252 54.582c-7.367 10.466-15.232 16.547-15.33 24.72 0 2.692 1.393 7.178 5.873 7.975 2.887.598 6.87-1.794 6.968-6.58 0-.996.996-.896.996.4-.1 3.788-1.295 8.174-3.386 11.762h9.657c-1.99-3.59-3.185-7.975-3.384-11.763 0-1.296.995-1.296.995-.4.1 4.786 4.083 7.178 6.97 6.58 4.48-.897 5.874-5.383 5.874-7.974 0-8.174-7.865-14.255-15.232-24.72z"/><path d="M42.037 94.155c-7.367 10.466-15.232 16.547-15.33 24.72 0 2.692 1.392 7.178 5.872 7.975 2.886.598 6.87-1.794 6.968-6.58 0-.996.996-.896.996.4-.1 3.788-1.295 8.174-3.385 11.762h9.655c-1.99-3.588-3.185-7.974-3.384-11.762 0-1.296.996-1.296.996-.4.1 4.786 4.082 7.178 6.97 6.58 4.48-.897 5.873-5.383 5.873-7.974 0-8.174-7.866-14.255-15.233-24.72z"/><path d="M42.037 211.578c-7.367-10.466-15.232-16.547-15.33-24.72 0-2.692 1.392-7.178 5.872-7.975 2.886-.598 6.87 1.794 6.968 6.58 0 .996.996.896.996-.4-.1-3.788-1.295-8.174-3.385-11.762h9.655c-1.99 3.59-3.185 7.975-3.384 11.763 0 1.296.996 1.296.996.4.1-4.786 4.082-7.178 6.97-6.58 4.48.897 5.873 5.383 5.873 7.974 0 8.174-7.866 14.155-15.233 24.72z"/><path d="M124.467 211.578c-7.367-10.466-15.23-16.547-15.33-24.72 0-2.692 1.393-7.178 5.873-7.975 2.887-.598 6.87 1.794 6.97 6.58 0 .996.994.896.994-.4-.1-3.788-1.294-8.174-3.385-11.762h9.656c-1.99 3.59-3.186 7.975-3.385 11.763 0 1.296.997 1.296.997.4.1-4.786 4.08-7.178 6.968-6.58 4.48.897 5.874 5.383 5.874 7.974 0 8.174-7.866 14.155-15.233 24.72z"/><path d="M124.467 94.155c-7.367 10.466-15.23 16.547-15.33 24.72 0 2.692 1.393 7.178 5.873 7.975 2.887.598 6.87-1.794 6.97-6.58 0-.996.994-.896.994.4-.1 3.788-1.294 8.174-3.385 11.762h9.656c-1.99-3.588-3.186-7.974-3.385-11.762 0-1.296.997-1.296.997-.4.1 4.786 4.08 7.178 6.968 6.58 4.48-.897 5.874-5.383 5.874-7.974 0-8.174-7.866-14.255-15.233-24.72z"/><path d="M4.007 26.273C5.7 17.103 7.59 10.223 12.37 2.848H2.514v3.19H-.074v-6.08H14.26l1.793 2.79c-5.176 5.582-9.855 23.724-8.96 23.425H4.008v.1z"/><path d="M162.497 200.314c-1.692 9.17-3.584 16.05-8.363 23.425h9.856v-3.19h2.59v6.08h-14.437l-1.792-2.79c5.178-5.583 9.857-23.725 8.96-23.426h3.187z"/></g></svg>