<svg xmlns="http://www.w3.org/2000/svg" width="167.4" height="226.6" viewBox="0 0 167.4 226.6"><g><path d="M42.537 15.01c-7.367 10.465-15.232 16.546-15.33 24.72 0 2.69 1.393 7.177 5.873 7.974 2.887.598 6.87-1.794 6.968-6.58 0-.996.996-.896.996.4-.1 3.788-1.294 8.174-3.385 11.762h9.656c-1.99-3.588-3.186-7.974-3.385-11.762 0-1.296.996-1.296.996-.4.1 4.786 4.082 7.178 6.97 6.58 4.48-.897 5.873-5.383 5.873-7.974-.1-8.174-7.965-14.155-15.233-24.72z"/><path d="M8.59 28.864c-3.386 4.386-7.07 6.878-7.17 10.268 0 1.096.698 2.99 2.79 3.39 1.393.198 3.185-.8 3.284-2.792 0-.4.498-.4.498.2-.1 1.594-.597 3.388-1.593 4.883h4.48c-.897-1.495-1.494-3.29-1.594-4.884 0-.5.498-.6.498-.2 0 1.993 1.89 2.99 3.285 2.79 2.09-.398 2.787-2.192 2.787-3.388-.2-3.39-3.883-5.98-7.268-10.268z"/><path d="M158.916 197.723c-3.385-4.386-7.07-6.878-7.168-10.267 0-1.097.697-2.99 2.787-3.39 1.394-.2 3.186.798 3.285 2.79 0 .4.498.4.498-.198-.1-1.595-.597-3.39-1.593-4.884h4.48c-.896 1.495-1.493 3.29-1.593 4.884 0 .5.498.598.498.2 0-1.994 1.892-2.99 3.285-2.792 2.09.4 2.788 2.193 2.788 3.39-.2 3.39-3.883 5.98-7.267 10.267z"/><path d="M124.968 15.01c-7.367 10.565-15.232 16.546-15.332 24.72 0 2.69 1.394 7.177 5.874 7.974 2.887.598 6.87-1.794 6.97-6.58 0-.996.994-.896.994.4-.1 3.788-1.294 8.174-3.384 11.762h9.656c-1.99-3.588-3.185-7.974-3.385-11.762 0-1.296.997-1.296.997-.4.1 4.786 4.082 7.178 6.97 6.58 4.48-.897 5.872-5.383 5.872-7.974 0-8.174-7.865-14.155-15.232-24.72z"/><path d="M83.752 54.582c-7.367 10.466-15.23 16.547-15.33 24.72 0 2.692 1.393 7.178 5.873 7.975 2.887.598 6.87-1.794 6.97-6.58 0-.996.994-.896.994.4-.1 3.788-1.295 8.174-3.386 11.762h9.657c-1.99-3.59-3.185-7.975-3.384-11.763 0-1.296.996-1.296.996-.4.1 4.786 4.08 7.178 6.968 6.58 4.48-.897 5.874-5.383 5.874-7.974-.1-8.174-7.865-14.255-15.232-24.72z"/><path d="M42.537 94.155c-7.367 10.466-15.232 16.547-15.33 24.72 0 2.692 1.393 7.178 5.873 7.975 2.887.598 6.87-1.794 6.968-6.58 0-.996.996-.896.996.4-.1 3.788-1.294 8.174-3.385 11.762h9.656c-1.99-3.588-3.186-7.974-3.385-11.762 0-1.296.996-1.296.996-.4.1 4.786 4.082 7.178 6.97 6.58 4.48-.897 5.873-5.383 5.873-7.974-.1-8.174-7.965-14.255-15.233-24.72z"/><path d="M42.537 211.578c-7.367-10.466-15.232-16.547-15.33-24.72 0-2.692 1.393-7.178 5.873-7.975 2.887-.598 6.87 1.794 6.968 6.58 0 .996.996.896.996-.4-.1-3.788-1.294-8.174-3.385-11.762h9.656c-1.99 3.59-3.186 7.975-3.385 11.763 0 1.296.996 1.296.996.4.1-4.786 4.082-7.178 6.97-6.58 4.48.897 5.873 5.383 5.873 7.974-.1 8.174-7.965 14.155-15.233 24.72z"/><path d="M124.968 211.578c-7.367-10.466-15.232-16.547-15.332-24.72 0-2.692 1.394-7.178 5.874-7.975 2.887-.598 6.87 1.794 6.97 6.58 0 .996.994.896.994-.4-.1-3.788-1.294-8.174-3.384-11.762h9.656c-1.99 3.59-3.185 7.975-3.385 11.763 0 1.296.997 1.296.997.4.1-4.786 4.082-7.178 6.97-6.58 4.48.897 5.872 5.383 5.872 7.974 0 8.174-7.865 14.155-15.232 24.72z"/><path d="M83.752 172.005c-7.367-10.466-15.23-16.547-15.33-24.72 0-2.692 1.393-7.178 5.873-7.975 2.887-.598 6.87 1.794 6.97 6.58 0 .996.994.896.994-.4-.1-3.788-1.295-8.174-3.386-11.762h9.657c-1.99 3.588-3.185 7.974-3.384 11.762 0 1.296.996 1.296.996.4.1-4.786 4.08-7.178 6.968-6.58 4.48.897 5.874 5.383 5.874 7.974-.1 8.174-7.865 14.255-15.232 24.72z"/><path d="M124.968 94.155c-7.367 10.466-15.232 16.547-15.332 24.72 0 2.692 1.394 7.178 5.874 7.975 2.887.598 6.87-1.794 6.97-6.58 0-.996.994-.896.994.4-.1 3.788-1.294 8.174-3.384 11.762h9.656c-1.99-3.588-3.185-7.974-3.385-11.762 0-1.296.997-1.296.997-.4.1 4.786 4.082 7.178 6.97 6.58 4.48-.897 5.872-5.383 5.872-7.974 0-8.174-7.865-14.255-15.232-24.72z"/><path d="M.028 18.597c.1-3.488 1.393-4.884 3.882-6.678-1.99-1.496-2.887-3.59-2.688-5.384.4-4.386 3.783-6.58 7.467-6.48 3.682.1 6.868 2.99 7.167 6.28.2 2.792-.598 4.088-2.59 5.583 2.29 1.992 3.784 3.288 3.784 6.777-.098 3.49-2.985 7.576-8.162 7.775-5.077 0-9.06-4.286-8.86-7.875zm300.208-79.797c.2-3.19-2.59-5.383-5.774-5.383-3.087 0-5.874 2.592-5.874 5.483 0 3.09 3.584 4.784 5.973 4.784 2.79 0 5.477-2.093 5.676-4.884zm-.932-11.463c.1-2.692-2.39-4.586-4.977-4.586-2.29.1-4.68 1.796-4.68 4.088 0 2.79 2.788 4.187 5.078 4.287 2.09.1 4.58-1.695 4.58-3.788z"/><path d="M150.354 207.99c.1 3.488 1.394 4.884 3.882 6.678-1.99 1.495-2.887 3.59-2.687 5.383.397 4.387 3.782 6.58 7.465 6.48 3.684-.1 6.87-2.99 7.168-6.28.2-2.79-.597-4.087-2.588-5.582 2.29-1.993 3.783-3.29 3.783-6.778-.1-3.49-2.987-7.576-8.164-7.775-5.077 0-8.96 4.286-8.86 7.875zm300.98-79.19c.2 3.19-2.587 5.383-5.773 5.383-3.085 0-5.872-2.592-5.872-5.483 0-3.09 3.583-4.784 5.973-4.784 2.788 0 5.476 2.093 5.675 4.884zm-1.03 11.463c.1 2.692-2.388 4.586-4.977 4.586-2.29-.1-4.68-1.796-4.68-4.088 0-2.79 2.79-4.187 5.078-4.287 2.19-.1 4.58 1.695 4.58 3.788z"/></g></svg>