<svg xmlns="http://www.w3.org/2000/svg" width="165.4" height="226.6" viewBox="0 0 165.4 226.6"><g><path d="M41.445 15.01c-7.367 10.565-15.132 16.546-15.33 24.72 0 2.69 1.392 7.177 5.872 7.974 2.887.598 6.87-1.794 6.97-6.58 0-.996.994-.896.994.4-.098 3.788-1.293 8.174-3.383 11.762h9.656c-1.99-3.588-3.185-7.974-3.384-11.762 0-1.296.994-1.296.994-.4.1 4.786 4.082 7.178 6.97 6.58 4.48-.897 5.873-5.383 5.873-7.974 0-8.174-7.865-14.155-15.232-24.72z"/><path d="M7.497 28.864C4.112 33.25.43 35.742.33 39.132c0 1.096.696 2.99 2.787 3.39 1.294.198 3.185-.8 3.285-2.792 0-.4.498-.4.498.2-.1 1.594-.598 3.388-1.593 4.883h4.48c-.896-1.495-1.494-3.29-1.593-4.884 0-.5.498-.6.498-.2 0 1.993 1.89 2.99 3.285 2.79 2.09-.398 2.787-2.192 2.787-3.388-.1-3.39-3.783-5.98-7.267-10.268z"/><path d="M41.445 158.847c-7.367-10.466-15.232-16.547-15.33-24.72 0-2.692 1.392-7.177 5.872-7.975 2.887-.598 6.87 1.795 6.97 6.58 0 .996.994.896.994-.4-.098-3.787-1.293-8.173-3.383-11.762h9.656c-1.99 3.59-3.185 7.975-3.384 11.762 0 1.296.994 1.296.994.4.1-4.785 4.082-7.178 6.97-6.58 4.48.897 5.873 5.383 5.873 7.975 0 8.173-7.865 14.154-15.232 24.72z"/><path d="M157.923 197.723c-3.385-4.386-7.07-6.878-7.168-10.267 0-1.097.697-2.99 2.787-3.39 1.394-.2 3.186.798 3.286 2.79 0 .4.497.4.497-.198-.1-1.595-.597-3.39-1.592-4.884h4.48c-.897 1.495-1.494 3.29-1.593 4.884 0 .5.497.598.497.2 0-1.994 1.892-2.99 3.286-2.792 2.09.4 2.787 2.193 2.787 3.39-.2 3.39-3.882 5.98-7.267 10.267z"/><path d="M123.975 15.01c-7.367 10.465-15.232 16.546-15.33 24.72 0 2.69 1.392 7.177 5.872 7.974 2.887.598 6.87-1.794 6.97-6.58 0-.996.995-.896.995.4-.1 3.788-1.295 8.174-3.385 11.762h9.656c-1.99-3.588-3.185-7.974-3.384-11.762 0-1.296.994-1.296.994-.4.1 4.786 4.082 7.178 6.97 6.58 4.48-.897 5.873-5.383 5.873-7.974-.1-8.174-7.965-14.155-15.232-24.72z"/><path d="M41.445 67.74c-7.367 10.566-15.132 16.547-15.33 24.72 0 2.692 1.392 7.177 5.872 7.975 2.887.598 6.87-1.794 6.97-6.58 0-.996.994-.896.994.4-.098 3.787-1.293 8.173-3.383 11.762h9.656c-1.99-3.59-3.185-7.975-3.384-11.762 0-1.296.994-1.296.994-.4.1 4.786 4.082 7.178 6.97 6.58 4.48-.897 5.873-5.383 5.873-7.975 0-8.173-7.865-14.154-15.232-24.72z"/><path d="M123.975 67.74c-7.367 10.466-15.232 16.547-15.33 24.72 0 2.692 1.392 7.177 5.872 7.975 2.887.598 6.87-1.794 6.97-6.58 0-.996.995-.896.995.4-.1 3.787-1.295 8.173-3.385 11.762h9.656c-1.99-3.59-3.185-7.975-3.384-11.762 0-1.296.994-1.296.994-.4.1 4.786 4.082 7.178 6.97 6.58 4.48-.897 5.873-5.383 5.873-7.975-.1-8.173-7.965-14.154-15.232-24.72z"/><path d="M41.445 211.578c-7.367-10.466-15.232-16.547-15.33-24.72 0-2.692 1.392-7.178 5.872-7.975 2.887-.598 6.87 1.794 6.97 6.58 0 .996.994.896.994-.4-.098-3.788-1.293-8.174-3.383-11.762h9.656c-1.99 3.59-3.185 7.975-3.384 11.763 0 1.296.994 1.296.994.4.1-4.786 4.082-7.178 6.97-6.58 4.48.897 5.873 5.383 5.873 7.974 0 8.174-7.865 14.155-15.232 24.72z"/><path d="M123.975 211.578c-7.367-10.466-15.232-16.547-15.33-24.72 0-2.692 1.392-7.178 5.872-7.975 2.887-.598 6.87 1.794 6.97 6.58 0 .996.995.896.995-.4-.1-3.788-1.295-8.174-3.385-11.762h9.656c-1.99 3.59-3.185 7.975-3.384 11.763 0 1.296.994 1.296.994.4.1-4.786 4.082-7.178 6.97-6.58 4.48.897 5.873 5.383 5.873 7.974-.1 8.174-7.965 14.155-15.232 24.72z"/><path d="M123.975 158.847c-7.367-10.466-15.232-16.547-15.33-24.72 0-2.692 1.392-7.177 5.872-7.975 2.887-.598 6.87 1.795 6.97 6.58 0 .996.995.896.995-.4-.1-3.787-1.295-8.173-3.385-11.762h9.656c-1.99 3.59-3.185 7.975-3.384 11.762 0 1.296.994 1.296.994.4.1-4.785 4.082-7.178 6.97-6.58 4.48.897 5.873 5.383 5.873 7.975-.1 8.173-7.965 14.154-15.232 24.72z"/><path d="M82.66 94.155c-7.367 10.466-15.232 16.547-15.33 24.72 0 2.692 1.393 7.178 5.872 7.975 2.888.598 6.87-1.794 6.97-6.58 0-.996.995-.896.995.4-.1 3.788-1.294 8.174-3.385 11.762h9.657c-1.992-3.588-3.187-7.974-3.386-11.762 0-1.296.995-1.296.995-.4.1 4.786 4.08 7.178 6.968 6.58 4.48-.897 5.874-5.383 5.874-7.974 0-8.174-7.865-14.255-15.232-24.72z"/><path d="M.13 21.29l2.39-.8c.895 2.394 2.787 3.19 4.678 2.992 3.485-.3 4.68-4.187 4.878-7.576C10.683 17.302 8.692 18.1 6.9 18c-5.575-.3-6.97-4.785-7.07-9.37C-.367 4.74 1.326 1.85 4.113.554c1.493-.697 4.878-.697 6.372.1 3.384 1.794 4.68 4.884 4.48 12.26 0 6.08-1.295 13.158-7.865 13.358C3.414 26.77.527 23.88.13 21.29zm356.028-86.47c1.095-.696 1.792-1.394 2.29-2.39.398-.798.597-1.297.398-2.99-.3-4.387-2.59-6.88-5.974-6.38-1.89.298-2.887 1.295-3.484 3.29-1.095 3.587.3 7.774 2.887 8.77 1.195.4 2.987.2 3.883-.3z"/><path d="M165.19 205.298l-2.39.798c-.895-2.393-2.787-3.19-4.678-2.99-3.485.298-4.68 4.186-4.878 7.575 1.393-1.395 3.385-2.192 5.176-2.092 5.575.3 6.97 4.784 7.07 9.37.198 3.887-1.495 6.778-4.282 8.074-1.493.698-4.878.698-6.37-.1-3.386-1.794-4.68-4.884-4.48-12.26 0-6.08 1.293-13.158 7.863-13.358 3.784-.498 6.572 2.393 6.97 4.984zm337.852-72.52c-1.095.698-1.792 1.396-2.29 2.393-.398.798-.597 1.297-.398 2.99.3 4.387 2.59 6.88 5.974 6.38 1.89-.298 2.887-1.295 3.484-3.29 1.095-3.587-.3-7.774-2.887-8.77-1.095-.4-2.887-.3-3.883.3z"/></g></svg>