<svg xmlns="http://www.w3.org/2000/svg" width="166.3" height="226.6" viewBox="0 0 166.3 226.6"><g><path d="M42.152 14.996c-7.37 10.57-15.238 16.55-15.338 24.726 0 2.692 1.394 7.178 5.876 7.976 2.89.598 6.873-1.795 6.972-6.58 0-.997.996-.897.996.4-.1 3.787-1.294 8.174-3.386 11.763h9.66c-1.99-3.588-3.186-7.975-3.385-11.763 0-1.296.996-1.296.996-.4.1 4.786 4.083 7.18 6.972 6.58 4.482-.896 5.876-5.383 5.876-7.975 0-8.175-7.867-14.157-15.238-24.726z"/><path d="M8.19 28.855c-3.388 4.387-7.073 6.88-7.172 10.27 0 1.096.697 2.99 2.788 3.39 1.395.198 3.188-.8 3.287-2.793 0-.4.498-.4.498.2-.098 1.595-.596 3.39-1.592 4.885h4.482c-.897-1.496-1.494-3.29-1.594-4.886 0-.497.498-.597.498-.198 0 1.994 1.892 2.99 3.287 2.792 2.092-.4 2.79-2.194 2.79-3.39-.2-3.39-3.885-5.982-7.27-10.27z"/><path d="M42.152 158.863c-7.37-10.568-15.238-16.55-15.338-24.725 0-2.692 1.394-7.18 5.876-7.976 2.89-.598 6.873 1.794 6.972 6.58 0 .997.996.897.996-.4-.1-3.787-1.294-8.174-3.386-11.763h9.66c-1.99 3.588-3.186 7.975-3.385 11.763 0 1.296.996 1.296.996.4.1-4.787 4.083-7.18 6.972-6.58 4.482.896 5.876 5.383 5.876 7.975 0 8.175-7.867 14.157-15.238 24.725z"/><path d="M158.585 197.746c-3.387-4.386-7.072-6.88-7.17-10.27 0-1.095.696-2.99 2.787-3.388 1.395-.2 3.188.797 3.287 2.79 0 .4.497.4.497-.198-.1-1.595-.597-3.39-1.593-4.886h4.482c-.897 1.496-1.494 3.29-1.594 4.886 0 .498.498.598.498.2 0-1.995 1.892-2.992 3.287-2.792 2.09.398 2.79 2.193 2.79 3.39-.1 3.39-3.786 5.98-7.272 10.268z"/><path d="M124.62 14.996c-7.37 10.47-15.238 16.55-15.337 24.726 0 2.692 1.394 7.178 5.876 7.976 2.888.598 6.872-1.795 6.97-6.58 0-.997.997-.897.997.4-.1 3.787-1.295 8.174-3.386 11.763h9.662c-1.992-3.588-3.187-7.975-3.386-11.763 0-1.296.996-1.296.996-.4.1 4.786 4.083 7.18 6.972 6.58 4.482-.896 5.876-5.383 5.876-7.975 0-8.175-7.868-14.157-15.24-24.726z"/><path d="M42.152 67.738c-7.37 10.568-15.238 16.55-15.338 24.725 0 2.692 1.394 7.18 5.876 7.976 2.89.598 6.873-1.795 6.972-6.58 0-.998.996-.898.996.398-.1 3.788-1.294 8.175-3.386 11.764h9.66c-1.99-3.59-3.186-7.976-3.385-11.764 0-1.296.996-1.296.996-.4.1 4.787 4.083 7.18 6.972 6.58 4.482-.896 5.876-5.382 5.876-7.975 0-8.175-7.867-14.157-15.238-24.725z"/><path d="M83.387 48.994c-7.37 10.47-15.24 16.55-15.34 24.726 0 2.692 1.396 7.178 5.878 7.976 2.888.598 6.872-1.795 6.972-6.58 0-.998.996-.898.996.398-.1 3.79-1.295 8.176-3.387 11.765h9.662c-1.992-3.59-3.188-7.977-3.387-11.766 0-1.296.997-1.296.997-.4.1 4.787 4.084 7.18 6.972 6.582 4.48-.898 5.876-5.384 5.876-7.976 0-8.176-7.87-14.158-15.24-24.726z"/><path d="M124.62 67.738c-7.37 10.468-15.238 16.55-15.337 24.725 0 2.692 1.394 7.18 5.876 7.976 2.888.598 6.872-1.795 6.97-6.58 0-.998.997-.898.997.398-.1 3.788-1.295 8.175-3.386 11.764h9.662c-1.992-3.59-3.187-7.976-3.386-11.764 0-1.296.996-1.296.996-.4.1 4.787 4.083 7.18 6.972 6.58 4.482-.896 5.876-5.382 5.876-7.975 0-8.175-7.868-14.157-15.24-24.725z"/><path d="M42.152 211.605c-7.37-10.47-15.238-16.55-15.338-24.726 0-2.693 1.394-7.18 5.876-7.977 2.89-.598 6.873 1.795 6.972 6.58 0 .997.996.898.996-.398-.1-3.79-1.294-8.176-3.386-11.765h9.66c-1.99 3.59-3.186 7.976-3.385 11.765 0 1.296.996 1.296.996.398.1-4.785 4.083-7.178 6.972-6.58 4.482.898 5.876 5.384 5.876 7.976 0 8.175-7.867 14.157-15.238 24.725z"/><path d="M124.62 211.605c-7.37-10.47-15.238-16.55-15.337-24.726 0-2.693 1.394-7.18 5.876-7.977 2.888-.598 6.872 1.795 6.97 6.58 0 .997.997.898.997-.398-.1-3.79-1.295-8.176-3.386-11.765h9.662c-1.992 3.59-3.187 7.976-3.386 11.765 0 1.296.996 1.296.996.398.1-4.785 4.083-7.178 6.972-6.58 4.482.898 5.876 5.384 5.876 7.976 0 8.175-7.868 14.157-15.24 24.725z"/><path d="M83.387 177.607c-7.37-10.468-15.24-16.55-15.34-24.725 0-2.692 1.396-7.18 5.878-7.976 2.888-.6 6.872 1.794 6.972 6.58 0 .997.996.897.996-.4-.1-3.788-1.295-8.174-3.387-11.764h9.662c-1.992 3.59-3.188 7.976-3.387 11.765 0 1.296.997 1.296.997.4.1-4.787 4.084-7.18 6.972-6.58 4.48.896 5.876 5.382 5.876 7.975 0 8.175-7.87 14.157-15.24 24.725z"/><path d="M124.62 158.863c-7.37-10.468-15.238-16.55-15.337-24.725 0-2.692 1.394-7.18 5.876-7.976 2.888-.598 6.872 1.794 6.97 6.58 0 .997.997.897.997-.4-.1-3.787-1.295-8.174-3.386-11.763h9.662c-1.992 3.588-3.187 7.975-3.386 11.763 0 1.296.996 1.296.996.4.1-4.787 4.083-7.18 6.972-6.58 4.482.896 5.876 5.383 5.876 7.975 0 8.175-7.868 14.157-15.24 24.725z"/><path d="M.22 26.263V-.057h2.59v26.32H.22z"/><path d="M10.28-.058c-2.49 0-4.382 2.293-4.382 4.985v16.25c0 2.792 1.992 4.986 4.382 4.986h1.395c2.49 0 4.382-2.194 4.382-4.985V4.928c0-2.793-1.992-4.986-4.382-4.986H10.28zm407.917-77.35c1.494 0 2.59 1.097 2.59 2.493v16.45c0 1.396-1.196 2.493-2.59 2.493-1.494 0-2.59-1.097-2.59-2.492v-16.45c-.1-1.297 1.096-2.493 2.59-2.493z"/><g><path d="M166.59 200.34v26.32h-2.588v-26.32h2.59z"/><path d="M156.432 226.66c2.49 0 4.382-2.294 4.382-4.985v-16.252c0-2.79-1.992-4.985-4.382-4.985h-1.394c-2.49 0-4.383 2.194-4.383 4.985v16.25c0 2.793 1.992 4.986 4.383 4.986h1.394zm6207.87-81.653c-1.493 0-2.59-1.096-2.59-2.492v-16.45c0-1.396 1.196-2.493 2.59-2.493s2.59 1.097 2.59 2.492v16.45c0 1.297-1.095 2.493-2.59 2.493z"/></g></g></svg>