<svg xmlns="http://www.w3.org/2000/svg" width="166.5" height="226.6" viewBox="0 0 166.5 226.6"><style type="text/css">.st0{fill:#131F67;} .st1{fill:#D40000;} .st2{fill:#E2CF00;}</style><g id="g6392_1_"><path id="path7363-8-9_1_" d="M8.022 28.856c-3.4 4.4-7.1 6.9-7.2 10.3 0 1.1.6 3 2.7 3.3 1.4.2 3.2-.8 3.3-2.7 0-.4.5-.4.5.2-.1 1.6-.6 3.4-1.6 4.9h4.5c-.9-1.5-1.5-3.3-1.6-4.9 0-.5.5-.6.5-.2 0 2 1.9 3 3.3 2.7 2.1-.4 2.8-2.2 2.7-3.3 0-3.5-3.7-6-7.1-10.3z"/><path id="path7367-3-1_1_" d="M158.422 197.756c-3.4-4.4-7.1-6.9-7.2-10.3 0-1.1.6-3 2.7-3.3 1.4-.2 3.2.8 3.3 2.7 0 .4.5.4.5-.2-.1-1.6-.6-3.4-1.6-4.9h4.5c-.9 1.5-1.5 3.3-1.6 4.9 0 .5.5.6.5.2 0-2 1.9-3 3.3-2.7 2.1.4 2.8 2.2 2.7 3.3 0 3.4-3.7 5.9-7.1 10.3z"/><path id="path35-7-9-2_1_" d="M7.922-.044v2.8h2.7s.1 2.7.1 8.3c0 5.5.1 8.2-.2 9.7-.9 3.6-6.1 3.6-7.2 1-.6-1.5-.4-2.7-.5-4.2h-2.8v1.7c0 4 1.4 6 4.5 6.7 3.2.9 7-.5 8.3-3.2.8-1.6.7-1.7.7-11.1 0-6.3.1-8.9.1-8.9h2.5v-2.8h-8.2z"/><path id="path35-7-8-1-4_1_" d="M158.522 226.556v-2.8h-2.7s-.1-2.7-.1-8.3c0-5.5-.1-8.2.2-9.7.9-3.6 6.1-3.6 7.2-1 .6 1.5.4 2.7.5 4.2h2.9v-1.7c0-4-1.4-6-4.5-6.7-3.2-.9-7 .5-8.3 3.2-.8 1.6-.7 1.7-.7 11.1 0 6.3-.1 8.9-.1 8.9h-2.5v2.8h8.1z"/><g id="g3851-4-2-7-4_1_"><path id="path4037-8-0-2_1_" class="st0" d="M19.878-1.107l-.59 210.79 130.504.37.59-210.79-130.504-.37zm-21608.025 2158.19l59.116.384-9.203 14.01c-11.943-3.828-31.325-1.412-41.332.472-2.597-4.41-6.398-9.94-8.582-14.867zm186.313 2.242l37.956.114 8.865 16.25c.317.456.004 1.38-.177 1.904-1.114 3.095-2.08 4.89-4.32 8.57-2.115 3.493-2.89 6.688-2.14 8.842.117.266.203.67.165 1.01-.13 1.07-1.037 2.307-2.263 3.167-.84.14-2.563.23-3.574 1.218-.87.853-1.576 2.095-1.465 4.36.047.808.145 1.337.145 1.337-11.348 4.68-19.486 10.182-19.227 10.39-.106-.05-10.02-4.614-14.122-5.748l.158-51.415zm-115.498 7.555l26.05.07-.22 74.532-9.812-6.516c.818-.574 1.336-.905 2.2-1.493.156-.043.45-.053.637-.096 1.745-.385 2.964-1.68 2.354-3.04-.4-.923.156-.866.667-1.6.574-.842.45-1.588.09-2.293-.18-.345-.083-.498.224-1.143.795-.992.223-2.662-.806-3.21-.105-.156.117-.4.168-.63.29-1.345-.23-2.518-1.388-2.82-.602-.15-.8-.263-.59-.786.375-.94-.114-1.305-.883-1.614-1.31-.522-.935-.608.676-1.32 3.315-1.472 4.1-5.89 1.835-9.904-.284-.518-1.05-1.71-1.578-2.512-.602-.942-1.207-1.744-1.207-1.744l4.397-6.087s-3.03-3.61-4.11-5.615c.253-.987 3.32-4.075 3.72-7.076.634-4.7-2.936-7.732-6.323-7.38-2.347.235-5.244 1.73-5.034 6.09.067 1.35.582 2.756 1.542 4.45.673 1.268 1.53 2.62 2.36 3.906l-4.428 6.008 4.434 5.652s-.064.092-.16.245c-.448.705-1.744 2.773-2.295 3.988-1.645 3.24-2.24 6.795 1.12 9.326.583.368 1.043.67 1.286.924.335.332.128.576-.417.705-.624.128-1.26.115-1.93.38-2.11.767-4.242 1.997-5.754 3.224-.85.68-2.21 2.84-3.05 4.592-.906 1.905-1.162 2.334-1.162 2.334l-15.453-9.944s-.396-.317-.503-.428c-.288-.33-.176-.515.017-.868.177-.307.178-1.19.114-1.874-.02-1.303-.006-1.303.746-2.498.272-.413.373-.845.23-1.484-.233-.733-.27-.5.206-.988.175-.23.394-.334.43-.565.052-.325.016-.884.02-1.938.01-2.11-.008-1.94 1.173-2.863 1.48-1.15 2.017-1.682 2.26-2.204.34-.738.01-1.303-.814-2.807-.375-.674-.962-1.6-1.23-2.117-.526-.926-1.294-2.135-1.643-3.305-.54-.894-.465-2.443.05-3.348.64-1.135.825-1.83.808-4.124-.02-2.14-.164-1.942.377-2.645 4.105-5.425 10.596-15.548 10.596-15.548zm566.776-3.022c.093 0 .17.003.263.005 1.286.07 2.55.483 3.72 1.622 1.598 1.613 1.49 3.937.948 6.345-.246.693-.43 1.418-.925 2.137-.27.414-.496.782-.497.844 0 .047-.4.69-.88 1.41s-1.025 1.7-1.025 1.7.75 1.365 2.08 3.065c1.01 1.508 1.667 2.824 1.73 2.747 0 0-.26.647-.61 1.105-1.066 1.39-3.03 4.298-3.113 4.607-.017.077-.22.15-.22.213.01.264.406.597.98 1.4 3.518 4.858 4.013 8.96 1.346 11.36-1.325 1.2-2.634 1.56-4.027 1.41-2.57-.282-4.914-2.483-4.635-5.656.12-1.47.052-1.905.922-3.594.39-.954 1.275-2.596 1.865-3.422.508-.595 1.067-1.437 1.067-1.437s-1.25-1.947-3.554-4.674c-.41-.504-.675-1.176-.675-1.176l3.975-5.862s-.46-1.14-1.228-2.287c-1.582-2.372-2.587-4.888-2.576-6.3.053-3.518 2.372-5.566 5.07-5.56zm100.775 125.697c-2.35 1.242-4.635 5.477-.174 2.525l.108 2.436c-2.328 3.273-6.84.86-5.688-2.544-3.124.39-3.606-2.784-3.437-4.285-4.108-.9-2.675-5.26-2.675-5.26-2.365-2-2.774-4.07-.855-6.267-1.946-1.216-2.49-1.986-4.627-2.88 1.594 14.575 9.448 22.17 17.705 28.95-.217-.004-.26 4.694-.772 3.83-11.8-8.864-19.37-18.996-20.636-35.333-.1.262-5.593-4.28-6.512-4.033-1.985 26.445 19.028 43.908 27.784 47.35 0 0 .115 3.692-.04 3.705-13.254-5.825-27.98-22.87-30.767-43.098l-7.863 12.113-2.937-1.267 12.728-19.926-8.548-5.39-14.01 22.056s-.377 1.838.632 1.81c19.573 2.147 48.608 25.75 38.75 64-.846-.343-2.182-.99-2.26-.975 1.537-3.29 5.873-24.65-6.925-41.953-5.863-7.93-14.957-16.37-29.592-18.885 1.207 2.504.664 8.153.664 8.153l3.413.702c-1.155-1.216-2.112-2.227-2.567-3.54-.627-2.058.31-3.264 2.582-2.042.905.514 1.123.487 2.02-.162 1.84-1.36 3.92.044 3.428 2.314-.07.34.02.543.887.622 1.965.21 3.962 1.178 5.235 2.722.635.803.777.697 1.33.212 1.37-1.2 3.65.474 3.24 2.326-.236 1.05-.102 1.316.375 1.512 2.692 1.137 3.345 1.848 4.167 4.205.31.858.552 1.14.708 1.098.11-.03.546-.176.936-.323 2.015-.752 3.178 1.674 1.746 3.57-.287.38-.077.757.444 1.047 1.673.916 2.794 3.093 2.982 5.376.076.87.17.87 1.038.842 2.22-.08 3.277 2.916 1.458 4.013-.628.375-.514.874-.03 1.457 1.29 1.544 1.594 2.65 1.467 4.4-.154 2.34-.013 2.28.725 2.573 2.155.833 1.747 4.283-.377 4.257 1.514 3.565-.508 7.883-.432 7.962 4.065 2.296.374 4.72-.796 4.295 0 0-.605 1.6.077 2.42-3.58 4.707-8.263 5.485-13.44 7.82l-.113-16.626c2.152 1.733 4.276 3.356 6.4 4.98 0 0 .546-.16.043-.62-.944-.887-3.333-2.422-3.988-3.04-1.436-1.097-6.703-6.16-7.64-7.358-.42-.8-1.05-.346-1.035-.283.63 1.096 1.102 2.36 1.917 3.494 1.75 2.452 3.466 5.184 3.275 7.862-.015 1.504-.62 3.06-.943 3.812-.253 1.034-1.89-.176-1.484-1.052.744-2.39 1.355-4.33-1.253-8.18-1.266-1.87-2.92-5.267-2.92-5.267l-1.06.258-.017 21.692c-.885.03-3.144.606-2.68.63 7.02-1.383 9.136 8.66 2.37 8.962-1.288.037-2.618 2.26-2.765 3.45.052 2.917.473 5.995-1.674 8.776-.557.733-.828 1.907-1.34 2.81-2.618 4.603-3.785 7.247-3.53 8.43.072.312.127.716.127.716-8.304 2.04-14.516 2.557-22.877 2.736-.075-.126 2.827-8.24 4.938-12.402 1.565-3.07 2.38-5.18 1.943-5.808-6.626.306-5.322-9.39 1.013-9.036 0 0 1.612-5.597 3.397-8.106 1.693-.928 5.08.347 6.98-.904 4.476-1.355 7.397 3.942 7.397 3.942l1.214-5.03-39.596-.302s-3.86 1.584-5.937.722c-1.337-.553-3.232-2.016-3.232-2.016s15.343-24.435 17.582-27.942c.176-.292-.386-.892-.386-.907-.077-.79-18.207 28.24-18.207 28.24-10.17-6.553-22.956-14.848-34.274-22.122l-.006-10.9c8.256-5.175 7.522-7.298-.123-1.662-.11.09-.153-4.097-.153-4.097 5.822-5.176.984-3.564-.167-1.772.025-1.302-.266-3.06.57-3.834 2.542-2.34 5.54-.172 5.674 3.288 3.306.653 2.893 3.576 3.738 4.74 3.375 1.91 1.582 4.806 2.416 5.8 3.554 2.254 1.066 5.85.307 5.773.444.304 4.868 3.29 5.242 3.172-.336-15.543-15.846-28.14-17.894-29.668l.375-3.358s21.35 13.748 21.11 35.7l6.807 4.07c-.54-22.525-10.695-37.84-27.874-47.57l-.213-4.174c14.43 6.76 27.78 20.4 30.836 42.71l8.023-12.388 2.81 1.372-12.895 20.56 8.007 5.287c6.237-8.176 11.454-18.2 14.632-22.96-.084-.437-.258-1.06-.258-1.06-30.556-5.135-47.693-33.827-39.392-63.732l2.122.94c-6.43 22.142 3.868 54.082 37.093 60.71-.064-2.358-.464-8.15-.464-8.15s-4.362-1.324-3.72-.8c1.067.92 3.455 4.873 2.436 6.265-.73.094-1.947-.317-3.293-1.29-.506-.365-.523-.288-1.092.305-1.583 1.675-3.86.7-3.877-1.594-.01-.977-.038-1.18-1.418-1.19-2.093-.026-3.032-.385-4.286-2.068-.892-1.196-.8-1.194-1.86-.843-2.003.954-3.608-1.062-2.97-2.71.308-.768-.012-1.022-.94-1.18-1.777-.298-3.78-2.538-4.148-4.36-.07-.373-.255-.47-1.31-.428-2.064.07-3.187-1.178-2.378-2.93.437-.938.568-1.323-.257-1.96-1.008-.778-1.57-1.332-2.018-2.286-.357-.752-.41-1.234-.642-2.85-.082-.56-.267-.658-.994-.75-2.12-.288-2.96-2.46-1.4-3.872.475-.425.475-.425-.236-1.353-1.392-1.81-1.904-4.162-1.285-5.716.162-.432.002-.947-.492-1.065-1.944-.487-1.965-2.643-.112-3.847.534-.347.57-.58.165-1.284-.704-1.24-.672-4.494.024-6.03.454-1 .44-1.032-.25-1.464-1.47-.943-1.048-3.54.696-3.956.842-.2.906-.308.678-1.336-.4-1.837-.468-2.304.616-3.027 2.984-1.926 10.606-5.593 10.606-5.593l2.52-1.192s.214 15.37.04 17.182c-.094.79.595 1.252 1.417 2.074 1.69 1.662 2.61 3.68 4.863 5.088 0 0 1.41-.78 2.274-1.336l.145-21.892c.18-.492.304-.552.88-.618.48-.084 1.678-.216 2.083-.332.967-.276 1.13-.676-.144-.546-.39.04-.966.2-1.605.326-3.992 1.18-6.926-5.034-3.873-8.153.583-.516 2.756-1.42 3.75-1.478.28.004 1.136-1.05 1.73-2.015.59-.965.822-1.69.5-2.673-.705-2.044-.023-5.194 2.09-8.627 2.28-3.227 4.055-6.852 4.983-10.695 8.065-.945 14.91-2.937 22.205-2.47.278 2.47-8.02 16.963-6.3 17.834 6.498 1.567 4.256 9.277-.685 8.995-.744 0-.807.06-1.29 1.695-.898 2.386-1.49 4.205-2.45 6.434-.01.573-3.232.402-5.93.38-1.164.893-6.142 3.31-8.844-2.9l-.117 5.3s37.192-.488 43.812.37c.14-1.658 3.68 1.295 3.68 1.295l-18.227 28.503.852.84c2.635-3.176 18.494-28.608 18.494-28.608l34.118 22.15c-.296 3.283.01 10.638.01 10.638-9.398 4.95-6.532 7.503-.06 1.488l.197 4.33zm6.48 377.48s9.674.11 14.528.902c4.25.687 4.035.575 4.007 3.66-.012 2.186-.026 2.14-.59 3.198-1.045 1.934-.865 3.844.758 6.527 1.578 2.605 2.75 4.52 2.743 4.89.004.575-.102 1.27-1.485 2.236-1.634 1.13-1.944 1.932-1.92 3.08.013.93-.163 1.237-.72 1.242-.218-.005-1.016.368-1.86.754-1.503.7-1.503.7-2.9.69-.696-.015-1.032-.27-1.235-.196-.376.18-.726 1.428-.717 1.8.044.125.247.052.652-.08 2.31-.792 5.76-.416 5.848-.073.472.428.46 1.08-.236 1.748-.463.72-.672 1.088-.476 2.192.25 1.51.052 2.11-.718 2.622-2.356 1.583-5.492 1.77-10.513.79-5.283-1.033-8.903-3.057-11.903-6.68-1.333-1.624-1.663-2.19-1.01-2.3.824-.124 1.727-.292 2.57-.648 3.722-1.588 3.684-8.396-1.326-9.13-2.03-.085 4.266-9.7 6.505-17.224zm-312.338-414.722c-1.803 1.004-2.74 2.226-2.754 2.893-.005.28.058.218.92-.34 2.498-1.625 9.072-3.98 11.418-2.6 1.685 1.025 2.343.696 1.362-.672-2.28-3.222-8.486-.614-10.946.72zm32.952 26.172c-.264-.005-.543.037-.824.093-1.728.385-3.648 1.806-5.222 3.062-.788.62-1.88 1.84-2.058 2.162-.386.72.467 1.53 1.642.885.69-.374.75-.28 1.4-.19 1.51.463 3.233 1.18 5.904.95.247.053.23.114.148.345-.163.43-1.11 1.235-2.336 2.14-.645.47-1.195.862-1.243.923-.192.307.66.34 1.586-.186 1.318-.75 2.853-2.396 3.78-3.727.094-.122.205-.23.254-.367.1-.308-.462-.18-.77-.263-.124-.034-.102-.36-.13-.514-.086-.39.067-1.04.14-1.596.055-.448.542-.81.86-1.13 1.39-1.447 1.295-2.1-.587-.99-.314.18-.564.3-.875.325-2.76.086-4.372-.04-6.673 1.902-1.025.817-1.646.898-.73.032 1.4-1.12 3.138-2.715 5.07-3.143 1.167-.286 2.267.603 2.783.38.012-.635-.97-1.103-2.12-1.095zm34.683 9.123c.32.208.626 1.3.588 1.655-.04.418-.765.25-.87.045l-.395-1.2c-.162-.407.354-.646.677-.5zm-3.113 22.128c.335.332.414 1.063.604 1.655-.117.433-2.85-.162-3.182-.634.414-.535 1.806-1.16 2.578-1.02zm-2.934 9.23c-.202-.018-.483.085-.72.344-1.234 1.248-.84 3.395.634 4.09.722.34 1.812.097 3.403-.4.764-.232 1.31-.33 1.464-.343.62.012.966-.958.525-1.416-.502-.52-1.713-.436-3.003.547-.66.5-1.13.754-1.658.744-1.287-.024-1.912-1.354-.598-2.756.458-.44.294-.77-.047-.807zm17.757 50.908c1.526 1.24 4.423.597 6.37-.683 1.743-1.144 2.463-1.486 3.87-1.242 1.715.297 1.65-.37.907-1.223-.834-.962-2.917-.677-4.66.468-3.864 2.546-5.253 2.968-6.373 1.582-1.195-1.48.237-3.39 1.643-2.34 1.163.797 1.144.192.658-.344-2.76-2.348-4.795 1.862-2.413 3.784zm-61.95 52.306c1.936 2.472 3.788 4.508 6.58 6.02l.023.465-9.04-.05c.642-1.09 2.45-6.357 2.436-6.435zm-104.28 14.458c-.196 3.718.46 5.902 2.627 8.502 2.303 2.774 2.127 7.065.618 9.72-.66 1.18-1.995-.273-1.36-1.02.905-1.13.96-3.89.542-5.603-.937-2.856-3.096-4.246-3.968-7.256-.285-1.29-.194-3.6-.194-3.6l1.735-.742zm-163.246 38.68c.157-.028.417.148.783.465 1.28 1.11 1.05 4.285-.416 6.303-.446.612-.815.434-1.254-.133-.578-.57-.375-.627.11-1.626.516-1.044.678-2.22.58-3.6-.074-.933-.035-1.367.198-1.41zm98.37 2.707c1.132-.01 2.538.236 2.67.64.114.5-.142.898-.783 1.165-1.657.696-3.84-.292-3.274-1.475.13-.23.704-.327 1.386-.33zm449.042-2.87c.326-.01.572.073.772.17.537.274-.32 2.18 2.377 2.155.65.09 1.12-.056 1.035.237-.132.43-1.292 1.09-2.552 1.268-3.747.548-3.588.365-3.422 3.004.106 1.738-.013 2.31-.25 3.36-.408 1.82-.58 3.57-.307 3 .372-.767 1.303-3.214 1.314-4.594-.007-2.047.73-2.45 1.01-.973.122.98-.323 1.53.34 2.534.377.566.548.553.298 1.432-.217.77-.066.99.19 1.383.272.393.55.49.306 1.03-.503 1.184.282 2.315 1.396 2.414.527.042.662.277.503.475-.27.336-.833.496-1.284.596l-11.9-7.642s.887-1.766 1.16-2.242c1.716-3.75 3.082-5.46 8.097-7.41.375-.132.67-.188.92-.2zm-9.217 4.224c.326-.01.57.165.843.512.726.944.083 2.11-1.72 3.13-1.536.87-1.988.97-2.318-.402-.073-.25-.284-.548-.406-.674-.35-.333-.267-.595.187-.834.22-.12.908-.4 1.458-.763.973-.633 1.538-.948 1.957-.97zm29.698 15.444c.372.007.758.092 1.05.284.474.303.474 1.094-.012 1.395-.952.385-2.462-.14-2.336-1.022.07-.432.664-.668 1.3-.656zm-21.2 16.447c.34-.008.6.153.796.482.555.864-.097 1.735-1.99 2.66-1.253.61-2.84.86-2.724.505.083-.293-.355-1.713-.552-1.933-.073-.234.016-.03 1.59-.512.578-.175 1.25-.472 1.58-.668.534-.346.956-.524 1.297-.533zm-55.937 6.536c-.878 2.092-1.02 3.035-.613 5.245.336 1.837.737 2.76 2.622 5.494 1.433 2.075 1.883 2.874 1.544 3.534-.24.352-.79.683-1.14.335-.695-.913-1.122-2.037-1.8-3.058-2.623-3.88-2.806-4.862-3.134-7.923-.144-1.398.658-4.36 1.35-4.81.765-.312 1.412.693 1.17 1.184zm-426.017 21.29c-.725.528-1.18 1.605-1.55 2.388.08.56.522.196 1.72-1.548.286-.413.093-.867-.17-.84zm354.826-10.983c1.054.036 1.423.99.95 1.476-.697.714-1.927.163-1.923-.845.008-.418.198-.647.973-.632zm129.654 4.056c.604.026.686.633.36 1.495-.405.814-.888.944-2.34 1.397-1.746.54-2.023.457-2.27-1.145-.098-.607-.054-.482 1.55-.9.687-.19 1.5-.5 1.922-.677.312-.133.577-.19.778-.17zm-70.59 7.147l.417 3.233.698-2.42-1.116-.813zm-462.267 16.45c.853 0 1.32.768.876 1.225-.24.26-.86.263-1.15.102-.69-.48-.564-1.33.273-1.328zm502.58-3.048l1.67 1.023-13.593 21.337-1.627-.047-.15-.344 13.7-21.97zm-111.46 12.364c.99-.01 1.08.936-.13 1.797-.502.316-1.046.4-1.48.406-.605.02-1.006-.128-1.06-.548-.26-1.028-.41-1.28.52-1.215.186.02.698-.017 1.105-.18.422-.178.764-.25 1.044-.26zm163.244-1.356c.698.013 1.133.75.66 1.13-.566.453-1.29.176-1.276-.522.01-.45.137-.618.617-.608zm-119.873 6.803l-3.69 3.248c1.348 1.608 2.48 3.196 3.64 4.877l.05-8.124zm-456.202 19.288c1.598-.062 2.126.708 1.356 1.236-1.037.693-1.92.645-3.08.483-1.544-.293-.31-1.526 1.382-1.694.125-.013.233-.01.342-.025zm404.214-4.694c.326-.01.805.078 1.42.29 1.048.362 2.345 1.457 2.287 2.06-.097.99-1.948.475-3.44-.95-.944-.87-.98-1.383-.267-1.4zm-10.407 12.895c.912.094 1.798 3.15 1.098 4.1-.685.916-1.902-1.077-1.67-2.64.09-.617.244-1.436.493-1.462.017 0 .048-.015.08 0zm-66.885.778c.51.118 1.162.83 1.012 1.37-.097.214-.313.147-.544.096-.416-.178-.746-.758-.66-1.253.035-.122.083-.2.192-.212zm-253.828 10.827l2.663 1.82-2.67.102.007-1.923zm363.29-1.01c2.047.026 2.468.685.95 1.477-.643.33-2.18.392-2.98.113-1.28-.428.247-1.592 2.03-1.59zm-43.15 22.52l.135 1.85-5.126.427-.257-1.928 5.247-.348zm72.46 6.63c.356-.023.926.143 1.663.53 1.397.725 2.18 1.934 1.46 2.307-.658.344-1.813-.066-2.634-.934-1.094-1.153-1.173-1.868-.49-1.902zm-98.23 6.932c.93.065 1.734 2.608 1.12 3.883-.34.69-.77.543-1.37-.6-.582-1.097-.607-3.036.064-3.256.064-.03.126-.028.188-.027zm-76.232.742l-2.258 4.498 4.056 3.552-1.798-8.05zm-276.54 14.97l.354 1.79-4.924 1.192-.474-1.947 5.044-1.034zm451.83 9.672c.603.01 1.158.162 1.478.447.442.395.346.58-.717.993-1.89.77-4.207.29-2.867-.846.503-.394 1.33-.61 2.104-.595zm-85.132 4.217c-1.885 1.25-.07 1.95 1.268 1-.086-.327-.864-.994-1.267-1zm140.874-1.575c1.348.04 3.98 1.906 3.404 2.78-.304.49-2.063.068-2.763-.613-.913-.886-1.402-2.074-.89-2.157.08-.014.157-.012.25-.01zm-183.14 17.45c.702-.125 1.802 3.106.948 3.942-.316.304-.408.287-.927-.173-1.05-.935-.863-2.653-.224-3.602.048-.092.127-.152.204-.166zm32.096 2.448c-.18-.345-.41-.504-.653-.695-6.546 2.51-4.886 4.898.653.695zm209.82 4.958l.646 1.812-4.97 1.95-.72-1.982 5.042-1.78zm-169.124 6.1l-1.7 4.418c1.83.02 3.473.89 5.133 1.65l-3.434-6.067zm-375.27 29.47l1.052 1.77-4.67 2.516-.925-1.88 4.543-2.407zm362.832.794l1.912 1.355-2.812 3.48-.254-.486.04-2.898 1.114-1.452zm-479.092 32.073l1.116 1.634-4.495 3.108-1.096-1.773 4.476-2.968zm498.267-4.324l2.062 1.59-3.27 3.922-1.972-1.51 3.18-4.002zm-555.04 24.035l-.108 4.728 4.85.202-4.744-4.93zm179.874 5.067l5.506 3.192-.82-4.854c-1.433.283-3.28 1.208-4.685 1.662zm336.13 4.603l1.287 1.606-4.16 3.47-1.333-1.67 4.206-3.406zm60.144-7.595l1.92 1.79-3.406 3.654-1.78-1.678 3.266-3.767zm-462.853 22l1.492 1.52-3.797 3.91-1.49-1.517 3.796-3.912zm486.965 3.927l1.486 1.734-3.872 3.058-1.424-1.75 3.812-3.042zm-544.467 22.332l1.074 4.642c-.07-.343 4.817-1.364 5.462-1.01l-6.536-3.632zm178.485.298l4.604 4.896.525-4.704-5.13-.192zm339.103-3.212l1.665 1.303-3.108 4.407-1.894-1.494 3.338-4.215zm51.31 3.696l1.373 1.996-4.064 2.402-1.144-1.758 3.834-2.64zm-460.32 28.245l.26.252-.015 3.148-1.292 1.882-1.747-1.042 2.796-4.24zm567.202-5.826l4.058 7.443 1.16-5.544c-1.502-.03-3.887-1.005-5.218-1.9zm-221.497 22.907l.968 2.144-4.287 1.948-.965-2.127 4.286-1.964zm-430.966 19.245l.78 2.155-4.556 1.493-.72-2.076 4.496-1.572zm-7.175 31.424l1.42 1.003c7.395-3.873 5.09-5.018-1.42-1.004zm-68.758 21.105c.28-.025.598.353.86 1.21.394 1.296.177 2.888-.69 2.856-.59-.072-.808-1.58-.8-2.015-.02-1.287.272-2.01.63-2.05zm231.375-17.253l1.764.19-.008.495-14.075 22.21-1.7-1.087 14.02-21.808zm14.608 4.298c.558.01 1.372.398 2.102 1.157.425.458.877 1.118.988 1.787-.02.216-.39.132-.745.078-.928-.126-2.296-.79-2.73-1.572-.555-.972-.25-1.463.385-1.45zm23.368 4.578l1.84 9.122c.586-2.284 1.806-3.594 2.724-5.375-2.382-1.1-3.35-2.406-4.564-3.747zm270.655-1.148l.435 2.365-4.72 1.088-.482-2.29 4.768-1.163zm-420.98 19.748c.062 0 .14.003.2.004 1.734.204 1.975.58.812 1.364-.707.467-2.615.54-2.915.022-.347-.534.895-1.38 1.903-1.39zm61.74 3.823l1.457.866c2.53-1.812-.222-2.19-1.457-.865zm-154.768 12.19c.527.01.85.945 1.02 1.817.17.84.232 1.602-.086 2.014-.398.52-.787.606-1.103.088-.9-1.49-.87-3.924.17-3.92zm169.343 2.187c.248-.01.557.057.91.188 1.217.473 2.84 2.35 2.152 2.6-1.015.384-3.226-.745-3.638-1.87-.207-.56.033-.913.576-.918zm-31.12 9.412l.11 2.327-4.966.183-.14-2.313 4.996-.198zm-42.744 11.307c.495-.006.975.05 1.375.23.707.307.185.855-1.033 1.28-.812.28-1.96.35-2.357.033-.932-.747.556-1.493 2.014-1.543zm28.023 9.484c3.402 2.083 10.43 6.7 10.43 6.7-.327.07-.688.328-1.02.585-.25.212-.534.393-.768.497-.375.148-.717.172-1.044.243-2.195.47-3.273 1.704-2.59 3.253.268.61.332.502-.128 1.02-1.31 1.247-1.148 1.622-.698 3.212.01.233-1.56 2.14-.178 3.594.763.666.802.248.524 1.762-.095.913.154 1.663 1.467 1.92.738.34.725.216.464.847-.186.896.07 1.273.7 1.595.566.352.797.45.403.768-4.416 2.24-5.794 6.167-1.643 11.985.483.692 1.717 2.608 1.717 2.608-1.404 2.082-2.756 3.792-4.187 5.64l4.15 5.834c-.67 1.056-2.262 3.196-3.234 5.317-1.457 3.18-.52 7.65 3.67 9.002 1.79.577 4.17.127 5.66-1.612 1.222-1.403 1.88-4.196.79-7.117-1.394-3.268-3.068-4.882-3.61-5.807l4.482-5.59s-3.062-4.43-4.287-6.036c8.386-10.21 1.573-13.087.256-13.98-.198-.144-.155-.795-.155-.795 7.507-.847 10.098-4.952 12.324-10.18 4.47 2.892 10.877 6.8 15.36 9.848.428.396.718.65.65.88-.05.186-.235 1.004-.236 1.857.206 1.353.1 1.97-.452 2.487-.52.486-.416.706-.334 1.234.138.92.275 1.015-.137 1.472-.507.564-.683.84-.585 2.22.046.824.158 1.446-.053 1.923-.276.63-1.042.94-2.05 1.728-1.763 1.377-1.523 1.8.892 6.824 2.056 4.273 2.285 5.255 1.496 6.774-.66 1.26-.91 2.232-.838 4.063.022.466.06.963.054 1.21-.012.59.005.528-.343.893-.27.29-.715.855-.987 1.268-2.906 4.317-10.532 15.426-10.532 15.426l-25.614-.077.217-75.292zm-173.518 7.85c.295-.025.657.51 1.07 1.603.236.625.2 1.71-.18 2.12-.76.823-1.81-1.12-1.47-2.664.154-.696.347-1.048.58-1.06zm267.487 6.114c-.015 3.953-.114 9.068-1.474 12.84l1.537.697c-.483-3.884.137-7.05 3.704-8.72-1.623-1.115-2.843-2.97-3.768-4.816zm315.677-11.962c.123.003.262.02.416.086.57.166 1.277.505 1.703.932.73.743 1.487 1.64 1.283 1.73-1.204.52-4.273-1.106-3.86-2.37.097-.276.254-.382.456-.378zm-417.488 21.972l.025 1.94-2.972-1.904 2.947-.036zm38.57 2.582c.478.04 1.226.675 1.11 1.107-.212.477-.46.425-.79-.077-.423-.613-.586-1.004-.32-1.03zm309.44-.11c.713-.017 1.345.15 1.416.524-.007.356-.56.81-1.23 1.015-1.684.51-2.95.175-2.483-.653.274-.538 1.365-.858 2.296-.886zm-268.774 21.946c-.723 1.273-.817 5.365.437 7.033 1.943 2.162 3.75 4.988 3.522 8.72l-1.877.832c.106-3.083-.01-5.086-2.393-7.737-2.855-3.125-2.16-8.508-1.17-10.086.853-1.55 2.066.66 1.48 1.238zm238.187 3.603c.605-.035 1.343.32 2.66 1.2 3.395 2.422 5.237 3.357 8.602 5.748.488.46.473.396.39.767-1.306 4.936-5.057 8.833-10.606 9.532-.636.08-.303-.316-.69-1.098-.404-.8-1.126-1.154-1.948-1.155-2.294-.03-.33-1.31 2.467-1.674.917-.137 2.035-.255 2.635-.817.123.063-.468-3.856.164-5.24.317-1.233.02-1.844-.32-1.075-.228.476-.53 1.742-.696 3.025-.145 1.083-.365 1.234-.618.702-.12-.235-.108-.81.07-1.27.207-1.02-1.08-1.804-.814-2.745.356-.784-.015-1.644-.443-1.947-.24-.516-.2-.872-.18-1.228.08-.836-.48-1.638-1.356-1.98-.384-.194-.27-.41.136-.602.172-.075.343-.133.545-.145zm-451.742 1.14c.217.003.434.023.65.073.444.272.8 1.83.304 1.898-.187.027-.762.094-1.214.224-1.528.436-2.24.376-2.208-.492.033-.9 1.29-1.696 2.468-1.704zm-12.985 8.158c.605.012 1.087.704.708 1.084-.395.38-1.134.102-1.14-.456.007-.31.138-.632.432-.627zm11.475 3.064c.17-.013.356.038.57.12.554.258.877 1.21.514 1.56-.27.258-1.043.166-1.454-.183-.733-.62-.375-1.465.37-1.497zm.603 13.307c.34.006.587.12.66.354.058.202-.04.387.048.683.147.453.434.816.183.997-1.162-.07-3.593 1.388-4.29 1.312-.588-.074-.655-.618-.14-1.492.592-.996 2.516-1.874 3.54-1.854zm-9.6 3.802c.247-.01.29.13.19.5-.066.262-.017.9.162 1.305.193.44.544.694.355.86-.296.088-1.308.286-2.15.595-1.083.6-4.14 2.4-3.372-.5.253-.97 1.366-1.632 3.333-2.323.75-.25 1.218-.41 1.482-.436zm5.79 15.41c.466-.037 1.004.19 1.257.785.7 1.41-1.334 1.603-1.978.427-.39-.69.116-1.176.72-1.21zm9.09 3.333c1.055.004 1.866 1.322 1.097 1.82-.565.345-1.277.27-1.925.117-.968-.453-.52-1.948.828-1.938zm103.575 18.132c4.007 2.11 9.458 4.075 14.748 5.527l-.142 52.204-36.204-.096-9.867-17.325s-.33-.564-.434-.815c-.192-.468-.122-.855.01-1.333.334-1.172 1.34-3.478 2.255-5.104 2.41-4.387 5.822-9.205 3.997-13.427-.208-.485 1.905-3.096 1.905-3.096 3.25.28 5.96-1.838 5-6.85 6.8-2.767 12.41-5.016 18.734-9.685zm447.798-10.95c.093 0-.193 1.143.383 1.836.362.55.3.533-.918 1.006-.454.24-.91.618-1.18.846-1.75 1.547-3.48-.487-1.772-2.128 1.372-1.214 2.788-1.48 3.472-1.56 0 .015.016 0 .016 0zm-477.934 13.95c.587.105 1.347.895 1.09 1.308-.832 1.38-.862 2.124-.952 3.564-.093 1.595.182 1.833-.418 1.558-.4-.194-1.137-.503-1.3-.91-.385-.937.606-5.694 1.58-5.52zm368.973.566c.65-.003 1.33.212 1.708.7.317.41.357.766.028.93-.752.405-3.26.186-3.39-.33-.185-.793.708-1.287 1.654-1.3zm-417.207 32.143c3.054.03 6.623.687 9.376 1.888 3.91 1.487 7.356 5.26 8.13 6.887.24.485-.24.491-.66.53-4.667.762-6.236 6.5-2.304 9.26 1.225.767 2.235.693 2.235.693.994-.09-4.464 10.334-6.652 16.835-6.693-.3-11.768.718-18.298-1.548-.706-1.177-.533-3.747-.01-5.086.473-1.217 1.095-2.15.797-3.537-.512-2.43-2.714-5.588-3.45-7.602-.653-1.532-.596-2.104.538-2.982 1.338-1.028 1.667-1.24 2.034-1.76.335-.49.198-.6.203-1.685.01-1.333-.025-1.117 1.08-1.313.388-.07 1.293-.347 1.982-.72 1.44-.748 2.433-.73 3.277-.248.37.1.33-.272.48-.78.065-.217.227-.57.214-.68-.027-.217-.51-.164-1.037-.08-2.13.298-3.822.36-4.684.032-.754-.278-.744-.79-.31-1.62.387-.75.666-.73.51-2.3-.195-1.957.077-2.37.99-3.004 1.115-.815 3.185-1.194 5.557-1.18zm217.647 3.144l9.94.022c-.977 1.563-2.08 3.99-2.697 6.29-.096.184-.193.353-.42.116-1.344-1.918-2.855-3.963-6.823-6.428zm52.118 15.21c-1.194.022-2.678.598-4.544 1.663-1.27.72-2.3 1.165-3.645.922-.773-.14-.868-.033-.966.213-.456 1.123 1.226 2.334 2.916 1.545.5-.207 4.29-2.15 4.495-2.332.22-.182 1.796-.632 2.215-.64 1.256.025 2.027 1 1.866 2.146-.215 1.515-2.356 1.582-2.5.23-.104-1.04-.547-.584-.588-.073-.008.433.33 1.432.68 1.656 1.81 1.136 4.224-1.066 3.074-3.337-.702-1.38-1.666-2.033-3-1.997zm-52.235 44.28c-1.23.224-2.03.704-3.365.818-1.09.242-1.014 1.112-.34 1.575.52.35 1.19.147 3.106-1.072 1.884-1.188 3.495 1.308 1.982 2.58-.946.805-.3 1.02.346.535 1.7-1.254.746-4.9-1.728-4.437zm-38.09 36.085c-.14-.02-.373.038-.686.172-1.408.64-2.506 1.316-3.175 2.233-.114.2-.058.526-.11.79-.05.2-.21.46-.182.6.03.125.43.257.49.366.238.47.076 1.647-.065 2.497-.07.4-.677.53-.914.773-.792.806-.595 1.058.25.733.592-.22.336-.63 1.804-.337 1.9.378 3.398-.136 4.903-.96 1.66-.913 2.26-1.43 2.335-1.32.105.19.026.28-1.156 1.25-2.962 2.455-5.175 3.017-6.832 2.1-.49-.334-.89-.48-.516.255.045.08.457.397.734.527 1.706.777 3.843.136 6.582-2.013.598-.47 1.136-1 1.83-1.577 2.268-1.88 1.68-2.76-.88-1.847-.812.295-1.038-.02-2.115-.444-1.463-.57-1.943-.627-3.617-.66-1.457-.027-1.677.108-1.687-.14.006-.31.988-1.423 2.1-1.898 1.03-.476 1.337-1.06.904-1.1zm35.24 39.048c.273.27-.118.447-1.182.954-.595.283-1.142.52-1.22.52-.096.168-1.09-2.084-.81-2.188.11-.06 2.556.143 3.21.714zm11.305 24.952c.238.516.43 1.047.53 1.53.027.155.13.374-.117.37-.187.027-.497.037-.602-.136-.24-.377-.495-1.653-.413-1.9.175-.23.498-.068.602.136zm-12.193 3.135c-.093 0-.25.073-.516.223-4.204 2.477-9.252 3.744-12.485 2.52-1.092-.41-1.296-.275-.892.477.27.517.816 1.133 1.65 1.366 2.65.734 6.905-.315 10.202-2.453 1.32-.89 2.414-2.14 2.042-2.13zm72.528 27.837c.016 0 8.108 15.337 8.823 16.048l-60.434-.425 10.217-14.378c.092.824 24.556 4.243 41.393-1.245z"/><path id="path4035-6-4-6_1_" class="st1" d="M49.26 208.046l9.8-14.386c14.427 2.79 27.418 1.368 41.638-1.132l9.428 15.998-60.866-.48zm-21386.587 3239.454l-.036-8.56 2.97 1.112c-1.023-3.99 1.6-8.14 3.976-8.296-7.58-5.76-1.26-11.87-1.38-11.997-8.306-4.317-4.116-10.888-4.693-11.49-10.12-2.66-6.15-10.677-6.91-9.854-5.897 1.762-9.134-3.2-9.227-7.22-5.11 2.88-12.985-1.242-10.493-5.83 0 0 2.704 1.292 3.174 1.038 4.167-3.02 3.835 1.33 4.7 2.277 3.11-.435 4.94 1.942 5.71 3.104 4.588.012 4.392-1.078 4.43 3.358 3.457.89 3.312 2.746 5.31 5.313 4.355.053 3.614 1.48 2.622 3.88 3.13 2.51 3.387 4.47 3.886 6.743 3.418 1.245 4.028 1.753 1.786 4.64 3.013 4.54 1.55 7.162 2.012 7.404 3.762 2.724 1.866 3.71.218 4.75.566 3.607 1.02 4.143-.322 7.823 4.328 3.092-.706 4.452-.953 4.385l-.028 3.04-6.752 4.38zm306.358-323.704l-.058-10.607 36.644 23.827-4.652 7.26-31.933-20.48zm-525.02-94.36l8.724-18.144-3.06-19.83 24.86.62c2.777 6.366 4.455 11.78 11.586 22.306l-7.58 2.334.233 12.735-34.764-.022zm288.678 74.96c-.254-.533-.386-.892-.35-1.124.098-.308.33-.288.622-.128 1.06.517 2.106.956 2.9-.006.397-.504.287-1.234-.046-1.644-.597-1.22-2.474-.343-3.095-.308-.59.004-.814-.48-.335-1.185.285-.304.462-.64.516-1.043.334-2.77-4.398-1.807-2.76.892.74 1.006.31 1.602-.794.96-1.212-.69-2.883-.055-2.834 1.403.04 1.102 1.423 1.795 2.598 1.136.267-.15.487-.317.675-.407.547-.237.93-.044.75.573-.497.766-1.06 1.856-.594 2.578.477 1.048 2.122.956 2.693.3.396-.426.503-1.153.055-2zm172.928-83.826l-36.704-23.938c2.29-2.948 3.638-5.31 4.91-7.69l31.867 20.62-.074 11.008zm249.008-317.984l3.705 19.252-25.684.294c-1.395-6.462-10.166-21.114-10.14-20.866l6.9-16.798 34.065.054-8.846 18.064zm-323.838-44.78c.647-.593.62-1.508-.106-2.53-.694-.99-.386-1.713.733-1.04.613.415 1.588.51 2.26.29.84-.277 1.196-.952 1.072-1.792-.15-1.026-1.277-1.312-2.495-.87-.342.07-.565.36-.862.495-.657.28-.905-.5-.312-1.51.673-1.136-.017-2.343-1.24-2.444-1.3-.118-2.088 1.355-1.546 2.172.753 1.162.21 1.973-.89 1.192-1.577-1.13-3.635.286-2.784 1.962.403.814 1.763 1.026 2.967.522 1.016-.43 1.317.072.692 1.1-1.266 2.13.79 4.015 2.51 2.45zm-90.49-57.007l-.306 10.257c-3.83-2.353-3.256-2.388-3.412-2.345 1.118 3.092-.21 6.896-3.473 8.756 5.863 5.525 2.672 9.386 1.706 12.003 7.483 4.38 3.663 11.887 3.702 11.5 7.395.066 7.223 6.53 7.435 9.23 9.143-.55 7.9 6.76 9.098 7.387 4.442-1.976 9.607-1.27 10.965 4.694.88 3.382-2.375.11-3.788.253-5.07 3.127-4.077-1.66-4.36-2.333-4.193.384-4.744-1.61-6.577-3.027-4.53.86-4.143-.623-3.873-3.377-3.552-.736-4.315-2.952-5.716-5.12-4.902.138-2.897-3.312-2.868-3.993-.595-.54-3.394-3.307-3.534-6.473-5.028-1.43-1.862-3.96-1.674-4.84-1.893-2.377-2.386-4.123-1.74-7.103-4.455-2.102-.727-4.046-.41-5.218-1.444-3.89-.383-5.063.2-7.16-2.865-3.375-1.147-3.186.955-5.223.27-.367-.457-2.056-.422-3.063l8.094-4.805zm-179.196-136.838l-8-14.435 57.492.167s-6.277 8.654-8.718 13.01c-14.345-2.308-27.762-1.265-40.774 1.258z"/><path id="path4039-1-1-4_1_" class="st2" d="M29.626 198.626c-5.032-1.167-5.87-7.494-1.133-12.752.38-.427.64-1.09.64-1.09-1.625-2.527-2.383-3.425-4.04-5.938 1.485-2.22 3.21-3.923 4.316-5.84-.072-.342-.562-.677-1.15-1.542-3.407-5.043-3.77-7.035-2.023-10.024 1.636-2.806 5.534-3.12 7.89-.64 2.552 2.687 2.427 5.12-.91 10.063-.733 1.086-1.264 2.068-1.264 2.068.91 1.864 2.474 3.585 4.056 5.926-1.478 1.816-2.984 3.524-4.296 5.623 0 0 .13.45.42.782 5.263 5.994 4.836 12.87-1.145 13.437-.296.04-1.04-.006-1.364-.074zm-21528.704 3167.806c-.136-.22-19.1 30.27-19.1 30.27l2.144 1.39 18.13-28.18c.274.207.533.46.48.8 0 0-14.936 24.195-17.43 28.054-.064.108 3.677 2.335 3.8 2.338 5.542-2.715 28.6-.284 43.92-1.18.062.046-.243 5.374-.243 5.374s-3.488-4.052-4.185-4.08c-3.486-.13-7.143 1.334-9.776 1.174-1.685.51-3.6 6.613-3.987 8.14-3.048-.368-5.994 2.816-5.307 5.79.99 3.307 2.7 3.06 4.545 3.112-.18 3.734-6.806 13.56-6.853 18.412 6.972-.53 14.525-.633 21.73-2.79 0 0 2.725-7.76 6.158-12.873 1.123-1.963 1.676-4.9 1.23-6.753-.285-2.036.593-2.546 1.38-3.958.483-.89 2.234-.84 2.468-.913 4.584-1.308 2.962-7.232 1.013-8.293-2.425-1.318-5.86.71-7.173-1.968-1.387-2.82-.918-8.656-.918-8.656l-34.564.06s9.817-18.526 9.572-18.67c-2.655-1.447-7.006-6.555-7.036-6.602zm200.113-404.122c.16-1.873.548-32.366-28.214-47.607l.17-4.012c.176-.213 26.18 11.827 30.555 42.892l8.074-12.574 2.953 1.173c-4.407 6.568-13.134 22.463-13.538 20.13zm-141.598 83.47c1.2-3.514-.76-1.66-2.524-1.802-1.212-.66-2.405-1.52-3.522-2.27 8.43-4.443 3.416-4.23-1.497-1.115-1.274-.69-2.873-2.21-2.968-2.073 9.514-6.08 5.95-6.21-.136-1.817.22-4.15.065-2.588.154-3.982 5.193-5.542.36-2.535 0-2.464-1.256-5.545 4.846-4.372 5.385-.175 1.07.797 3.174 1.8 3.79 5.238 2.925 1.87 2.616 3.415 2.464 5.66 1.14 1.14 4.087 3.537.633 5.734l-1.78-.933zm-107.397-83.21l.2-3.066c.395-1.248 22.57 14.67 20.92 35.03.267-.135-2.453-1.428-3.23-2.125.057-14.98-15.828-28.203-17.89-29.84zm65.057-119.102c-14.8-6.83-28.842-23.165-29.518-44.344l-8.413 14.01-2.968-1.267c.274.238 6.658-11.532 13.22-19.654 1.76 26.735 12.203 39.187 28.06 48.255l-.383 3zm618.788 69.833c-14.354-1.828-35.077-21.44-28.796-47.943.888-2.696 14.693 12.27 14.693 12.27.09-.68 12.404 19.298 12.05 23.198 10.438 3.01 30.835.24 30.835.24 16.936 3.832 34.614 22.177 28.142 48.148 0 0-4.5-2.97-8.25-6.424-11.414-11.092-15.02-20.2-19.044-30.234-14.642-1.37-28.384 1.234-29.63.745zm-346.34-66.66c.252 1.322.075 4.063.122 4.05-3.833 4.142-4.222 4.228.564 2.894-.603 3.99-3.546 4.63-5.303 3.277-.642-.507-.635-3.252-.635-3.252-2.9-.738-3.892-1.61-3.475-4.734-3.34-.406-3.2-2.03-2.918-5.437-3.038-1.718-2.272-4.448-.466-5.607l1.5 1.037c-.49.425-.263 3.143 2.412 1.132 0 0 2.12 1.777 3.146 2.464-7.74 4.936-3.052 3.863 1.71.622.887.606 2.108 1.607 2.735 2.038-6.258 4.5-8.33 8.242.607 1.515zm421.78-111.963l-.27 3.576c-15.217-9.365-19.305-21.678-20.4-34.787 0 0 2.048 1.513 2.982 2.136 1.316 16.91 16.755 28.374 17.688 29.075zm-79.505 47.343l36.556.335-9.74 18.51 5.094 6.054s12.755-19.756 19.173-30.1l-2.207-1.328-18.307 28.595-.73-.805 18.044-28.57c-1.072-.702-3.112-1.843-3.112-1.843s-31.128.405-44.663.313c.438-1.867.55-5.183.55-5.183 1.99 2.876 4.11 5.43 8.77 2.635 0 0 5.5.2 5.708-.06.672-1.088 1.886-4.507 3.28-8.372 5.308-.347 4.784-2.916 5.39-3.74-.382-7.544-4.63-3.502-4.252-6.24 1.21-4.876 7.348-15.937 6.575-16.897-1.575-1.054-17.217 1.977-21.77 2.524-.417-.163-2.666 7.097-5.02 10.184-2.562 3.377-3.485 6.987-2.187 10.408-1.36 3.757-3.94 3.366-6.024 4.41-2.36 2.545-1.723 6.45.512 7.966 1.56 1.053 3.965 1.007 6.407-.977l1.95 12.18zm-387.206-258.542l-4.26-5.758 4.163-6.03c-1.624-2.604-4.323-6.58-3.828-9.717 1.066-6.244 9.483-5.306 10.204.678.396 2.77-1.64 6.17-3.695 9.047 1.347 2.476 1.928 2.875 3.89 5.72-1.173 2.054-4.042 6.092-4.042 6.092 1.772 2.995 4.235 6.3 4.037 9.334-.19 2.617-3.048 5.244-5.704 4.68-8.23-1.755-3.593-10.566-.766-14.046z"/><path id="path4033-2-3-3_1_" d="M60.915.013c2.26 4.26 8.658 15.767 8.658 15.767 15.318-3.13 28.203-3.905 41.712-.9l9.71-14.634-60.08-.233zm-21423.73 2158.747l2.758.007 5.397 11.19 9.37-1.85-1.572-9.286 2.65.02 1.317 8.927 13.76-.307 1.81-8.602 2.542.034-1.844 8.74 10.887 1.498 5.362-10.24 3.66.01-8.138 12.635c-14.412-2.853-28.74-1.952-40.753.963l-7.206-13.738zm16.14 4.464l8.078.016 1.916 7.542c-.987.508-4.695 1.398-5.948 1.265-1.47-2.587-2.978-6.353-4.047-8.823zm44.058-.486l12.295.036-1.07 6.415-10.317.295-.907-6.747zm104.407-1.686l9.473.028-3.763 7.79-7.145-.993 1.435-6.825zm142.278 5.756c-.557-.01-1.07.042-1.537.14-2.46.512-3.75 2.394-3.78 5.48-.012 1.41 1.025 3.91 2.592 6.283.768 1.147 1.275 2.212 1.275 2.212l-4.133 6.044 4.37 5.745s-.682.794-1.097 1.375c-2.024 2.845-2.96 5.494-2.83 7.682.124 2.36 1.5 4.154 4.073 5.026 1.417.477 3.428-.09 4.786-1.32 1.09-.986 1.656-2.277 1.67-3.78.042-2.155-.993-4.78-3.062-7.643-.56-.77-.84-1.38-.84-1.38s2.916-4.13 4.023-6.032l-3.967-5.72c3.177-4.746 3.817-5.788 3.905-8.717-.115-2.885-2.206-5.36-5.447-5.392zm197.122 38.94l.42.01c3.606.286 5.508 2.974 5.022 6.422-.497 3.278-3.472 6.337-3.942 7.398 1.413 2.322 4.094 5.615 4.094 5.615-1.14 2.07-4.103 6.076-4.103 6.076s.165.328.362.595c3.063 4.355 3.89 6.418 3.686 9.034-.18 2.058-1.797 3.887-3.835 4.25-3.206.59-5.844-1.71-6.156-4.785-.196-2.687 1.56-5.304 2.902-7.34.574-.858 1.07-1.67 1.07-1.67l-4.354-5.76c1.343-2.113 3.027-4.174 4.27-5.948 0 0-.646-1.052-1.248-2.01-2.392-3.798-3.052-5.734-2.67-7.835.437-2.565 2.435-4.015 4.482-4.053zm-1.855 3.897c-1.335.036-2.61 1.02-3.118 2.436-.734 2.67 2.057 6.708 3.338 7.803 2.394-2.745 3.943-5.832 3.054-7.99-.596-1.313-1.94-2.285-3.276-2.248zm2.39 11.414c2.417.06 3.308 2.932 1.446 6.183-.64 1.12-1.594 2.28-1.594 2.28s-.878-1.103-1.42-1.935c-2.152-3.39-1.59-6.032 1.072-6.492.155-.028.326-.04.496-.037zm-46.25 6.003c-6.327.017-14.782 1.048-22.226 2.718-.652 3.99-2.668 7.98-4.87 11.148-2.112 3.433-2.883 6.41-2.18 8.47.647 1.92-1.146 4.786-3.118 4.95-2.454.215-4.022 1.92-3.992 4.356-.075 3.89 2.607 6.3 6.26 4.975.374-.04.618.197.618.197l-.277 22.307c-2.052.317-3.425.756-5.18 1.683-3.23-3.706-5.94-6.333-8.416-8.18-.06-4.962.162-9.95-.052-14.917-3.67 1.402-7.592 3.714-10.813 5.854-1.084.723-1.185 1.124-.787 2.962.23 1.027.164 1.135-.677 1.335-1.744.417-2.294 3.198-.824 4.14.69.45.69.464.25 1.463-.696 1.553-.676 4.515.03 5.77.404.705.384.937-.166 1.283-1.853 1.205-1.748 3.78.197 4.268.494.118.63.338.465.77-.604 1.57-.06 3.936 1.316 5.746.726.944.71.928.237 1.353-1.56 1.412-.726 3.94 1.393 4.214.727.09.727.09.81.65.23 1.603.347 2.055.704 2.806.447.954.977 1.6 1.986 2.38.825.636.824.65.372 1.59-.81 1.735.475 3.48 2.523 3.412 1.055-.026 1.056-.04 1.126.332.368 1.82 2.528 3.972 4.305 4.27.91.157 1.062.377.737 1.146-.505 1.246-.18 2.043 1.08 2.704.844.435 1.092.455 2.013.132 1.045-.353 1.06-.353 1.953.843 1.254 1.683 2.083 2.102 4.176 2.127 1.38.01 1.425.043 1.437 1.02.017 2.31 2.448 3.273 4.03 1.598.57-.61.57-.594 1.076-.227 2.2 1.625 4.162 2.05 3.99.528-.412-3.544-2.975-5.718-2.975-5.718l3.21.853c.128 3.74.242 8.254 1.02 11.386l-14.35 22.716s-.858-.528-1.776-1.166c-1.346-.925-2.984-2.027-3.995-2.65-.52-.322-1.18-.722-1.683-1.166-.504-.413.313-.955.476-1.402 3.308-5.86 8.468-12.907 12.245-19.765l-3.616-1.42c-2.784 4.366-4.837 7.877-7.442 11.89-2.518-18.89-15.64-35.502-31.568-42.524l.043 4.947c16.704 8.604 28.596 26.31 28.223 47.142-.063.076-1.397-.725-3.203-1.94-.95-.637-2.863-1.9-3.093-2.012.834-23.072-22.004-36.787-22.048-36.137 0 0-.15 2.974-.224 4.368 9.735 6.563 17.366 18.464 18.107 29.053.014.093-4.565-2.88-4.565-2.88 2.74-1.357 1.986-4.876.035-5.83-.615-.274-.643-.414-.348-1.246.638-1.71-.506-4.274-2.095-4.708-.694-.185-.814-.373-.842-1.35-.06-1.785-1.044-2.967-2.82-3.358-.493-.102-.493-.118-.528-.723-.134-3.462-3.518-4.892-6.075-2.553-.284.258-.59.764-.59.764l-.025 3.752c.862-.48 2.196-2.097 2.738-2.04.603.074.3.47-1.04 1.624-.867.743-1.72 1.548-1.72 1.548l.044 4.947c1.445-.932 2.907-1.99 4.26-2.94 1.162-.815 1.772-1.082 1.907-.847.167.267-.104.603-.763 1.01-1.79 1.173-3.864 2.56-5.36 3.74l-.02 3.41.287.425.082 2.98-.265.072-.01 3.752 35.134 22.59 17.99-28.2.288.302-17.987 28.09s.732.634 1.438 1.004c.705.4 1.594.93 2.36 1.44.36.597.986 1.106 1.654 1.04.618-.67 3.314-1.377 3.568-1.682 10.02-.116 38.777.16 38.777.16l.143 4.61c-1.278-4.46-5.446-5.394-8.725-3.41l-5.38-.012c-.047 0-3.197 5.722-3.674 8.706-2.257-.308-5.277 1.882-5.444 4.112-.372 3.187 1.708 5.506 4.445 5.063.046.017-.433 3.155-2 5.606-2.068 4.318-3.123 6.732-4.388 10.413-.852 2.31-.566 2.734-.427 2.783 8.034-.093 15.43-.85 23.043-3.29 0 0-.144-.546-.2-.858-.27-1.23.77-3.753 3.724-8.967 2.28-4.018 2.93-5.556 3.168-7.458.112-.96.1-1.208-.236-3.013-.028-.172-.147-.407-.113-.593.24-1.204 2.08-3.324 2.125-3.277 0 0 .67-.126.933-.137 4.16-.276 5.45-5.926 1.963-8.474-1.7-1.058-2.706-1.14-4.514-.662l.036-21.894 2.525.095 2.77-1.358c4.455 3.823 7.34 7.724 12.138 10.655l-.082.2-3.565-2.457-.03 14.342c4.135-2.137 7.988-4.11 11.705-7.107l-.747-.65.04-2.047c3.483.285 3.833-4.16.974-4.695 0 0 .07-.355.344-.923.887-1.797.998-3.5.367-5.374-.38-1.14-.374-1.433.09-1.424 2.125.01 1.934-3.746-.22-4.563-.74-.28-.698-.046-.528-2.384.11-1.75-.3-2.936-1.604-4.48-.485-.584-.448-.863.18-1.238 1.804-1.097.516-4.285-1.718-4.205-.87.03-.87.03-.945-.84-.19-2.283-1.464-4.463-3.12-5.38-.523-.288-.596-.506-.294-.904 1.433-1.896.104-4.51-1.896-3.743-.39.147-.796.295-.905.323-.157.044-.292-.176-.586-1.034-.823-2.358-1.568-3.085-4.214-4.206-.522-.228-.55-.383-.313-1.448.408-1.853-2.132-3.577-3.505-2.38-.567.487-.583.486-1.203-.332-1.26-1.45-3.287-2.467-5.113-2.657-.866-.08-1.005-.144-.92-.483.493-2.27-1.71-3.74-3.552-2.395-.88.65-1.114.676-2.018.162-1.902-1.075-2.724-1.107-2.928-.15-.063.806.104 1.755.295 2.348.465 1.59 1.058 2.19 2.37 3.302 0 0-2.174-.616-2.73-.72.047-.06-.133-7.554-1.555-11.8l13.98-22.103 7.96 5.27-12.794 20.128 3.708 1.514s4.98-8.215 7.587-12.242c1.644 20.034 17.088 37.653 31.097 42.9-.047.03.056-2.882.114-4.292-14.79-6.566-28.81-24.808-27.86-46.67l5.943 3.822c1.677 17.523 9.277 27.81 21.978 36.54l.012-5.366c-8.744-6.51-16.007-14.994-17.884-28.55 0 0 2.972 1.886 4.288 2.78 0 0-.376.21-.566.376-1.59 1.32-1.117 4.04.962 5.57.337.255.337.255.026 1.1-.638 1.695.33 3.745 1.98 4.18.957.25.942.235.952 1.32.02 2.11.87 3.088 3.125 3.597.31.07.324.1.305 1.045-.014 2.34 2.22 3.904 4.177 2.934.61-.3 2.533-1.905 2.533-1.905l.01-3.753s-.866.712-1.498 1.29c-1.105 1.017-1.448 1.15-1.452.53.01-.45.517-1.045 1.57-1.83.55-.41 1.39-1.276 1.39-1.276l.007-4.373s-.497-.785-.463-1.715c.025-.51.164-1.283.164-1.283l.527.01.005-5.07-.64-.51.033-3.363-34.73-22.613-18.202 28.782-.454-.536 18.23-28.596-4.81-3.102-2.91 1.433s-20.135-.374-39.785-.18c0 0-.05-.544-.036-2.08.022-1.92.105-2.2.46-1.385.787 1.83 2.766 2.922 5.048 2.826 1.288-.05 1.475-.11 2.916-.872.533-.285.626-.3 3.153-.265 2.698.02 3.18-.078 3.192-.636.94-2.137 1.872-4.616 2.42-6.48.266-.91.382-1.296.587-1.494.157-.136.296-.103.684-.126 1.723-.106 2.206-.22 3.454-1.422 2.5-2.494 1.093-7.608-2.534-7.63-.962-.004-.292-2.55 1.74-6.682 2.1-4.27 2.407-4.93 3.486-7.794.72-1.878 1.055-3.22 1.148-4.025-.28.04-.482.052-.683.048zm-262.27 14.674c.504.428-.765 3.505-3.026 8.175-1.875 3.855-2.703 5.778-3.117 7.18-.117.4-.283.987-.367 1.296-.116.432-.29.646-.716.948-.298.21-.723.528-.944.71-.614.484-.75.327-.608-.647.284-1.826 1.02-3.796 2.7-7.22 1.338-2.72 2.636-5.657 3.654-8.63.23-.693.338-1.404.715-1.66.55-.33 1.12-.258 1.708-.153zm-3.622 6.927c.337.24-1.296 4.472-4.154 10.324-3.553 7.313-3.76 12.456-.576 13.712 2.508.994 5.042-1.763 3.5-3.778-.74-.975-2.337-1.053-2.9-.056-.304.552.118 1.18.66.416.78-1.117 2.353.185 1.97 1.496-.264.91-1.534 1.63-2.322 1.474-3.475-.703-2.807-5.605.796-5.86 3.447-.244 5 4.39 2.484 7.025-.792.853-1.73 1.284-3.343 1.27-2.25-.014-4.337-1.87-4.118-3.585.294-1.576.35-2.847-.184-4.082-.163-.39-.373-.798-.363-1.294.042-1.395 1.185-3.543 3.754-8.89.92-1.905 2.054-5.232 2.62-7.314.2-.617.11-.79.328-.862.576-.113 1.386-.283 1.845.005zm-17.73 1.303c.526.026-.696 3.88-2.232 7.152-1.164 2.503-2.746 5.73-3.936 8.714-.384.628-.633.686-1.4.268-.845-.45-.598-1.175 1.417-5.152 1.517-3.01 2.98-6.424 4.007-9.862.085-.417.232-.77.577-.965.53-.223 1.042-.182 1.57-.156zm-18.868 1.16c.272.377-1.565 5.566-4.423 11.403-.613 1.244-1.023 2.384-1.636 3.644-.3.288-1.42.437-1.98.55-.588-.073-.024-1.163 1.638-4.51 1.355-2.735 1.742-3.503 2.457-5.163.52-1.214 1.274-3.31 1.994-5.264.05-.154.12-.51.26-.584.53-.207 1.168-.303 1.69-.076zm-18.067 2.99c.044.126-.054.388-.104.588-.46 2.085-1.474 4.035-2.226 6.036-.083.278-.906 1.968-1.825 3.78-.92 1.796-1.758 3.517-1.857 3.825-.115.308-.41 1.108-.67 1.786-1.634 3.49.11 6.25 2.262 6.464 3.375.282 3.7-4.44 1.32-4.89-.896-.157-1.883.336-1.887 1.374-.056.542.598 1.16.582.4-.035-1.412 1.933-1.343 2.174-.145.466 2.335-2.192 3.462-3.753 1.633-.652-.757-.636-1.61-.512-2.382.336-2.087 2.737-3.59 4.97-2.013 3.044 2.17 1.975 6.924-1.963 7.685-1.34.346-3.037-.105-4.1-1.196-.67-.696-1.115-1.728-1.276-3.002-.094-.715-.125-1.538-.016-2.327.326-2.442 2.116-6.005 3.694-9.03 1.212-2.503 2.175-5.818 3.28-8.48.3-.257 1.964-.457 1.91-.102zm-18.086 2.413c.185.05-.755 2.947-2.07 6.07-1.458 3.165-3.342 6.788-4.41 9.915-.34.77-.59.75-1.533-.153-.503-.475-.21-1.167 1.55-4.762 2.726-5.53 3.733-7.882 4.147-9.207.198-.617.352-1.374.76-1.614.53-.223 1.046-.415 1.555-.25zm-18.843 2.846c-.298.925-1.235 3.682-2.85 6.954-1.016 2.058-2.006 4.35-3.008 6.47-.553 1.307-.57 1.306-1.518 1.505-1.604.326-1.603.31-.184-2.546.42-.846 1.226-2.412 1.804-3.47 1.06-1.95 2.685-5.732 3.28-7.613.165-.508.376-.985.63-1.243.17-.06 1.418-.438 1.845-.058zm-18.186 4.375c.28-.01.542.043.663.2.065.652-1.705 4.805-2.78 6.722-.338.583-.663 1.352-1.033 2.042-1.376 2.19-3.04 6.377-3.476 8.12-.69 2.762 2.48 4.87 4.13 2.87 1.048-1.22-.026-3.41-1.54-2.804-.533.207-.32.443.408.504 1.176.1 1.265 1.932.017 2.326-1.39.423-2.42-.79-2.41-2.03.017-2.544 2.795-3.467 4.536-2.07 1.723 1.446 1.998 4.878-.633 6.207-2.568 1.284-5.712-.483-6.335-3.55-.482-2.35.056-4.495 2.327-8.11 1.296-2.084 3.334-5.673 4.372-8.816.197-.538.376-.97.566-1.198.16-.214.72-.404 1.186-.41zm49.602 9.927l-3.45 4.368c.98 1.43 3.345 4.266 3.345 4.266l3.277-4.2-3.17-4.433zm374.81 35.158l1.42 1.84-1.633 1.923-1.516-1.797 1.728-1.965zm.495 22.772s-4.165 4.54-3.223 7.923c.84 3.01 5.37 3.764 6.48-.65.083-.355.014-.82-.02-1.41-.09-1.786-3.236-5.863-3.236-5.863zm1.788 52.692s1.192 1.728 2.03 3.264c.933 1.46 1.18 5.543-2.167 5.4-1.816.182-3.538-2.208-2.086-5.126.39-.892 2.224-3.54 2.224-3.54zm-68.506 5.448c.233-.042.456.46.604.834.192.5-.378 1.915-.966 2.617-.11.12-.872.184-2.015.75-.005-.526.328-1.698.54-2.206.774-.76 1.427-1.678 1.743-1.936.03-.045.063-.06.094-.06zm-382.076 11.78c.515.583 1.002 1.09.995 1.445-.025.527-.642 1.166-1.116 1.622-.585.578-1.757.23-1.742-.514-.01-.28 1.662-2.557 1.863-2.553zm-27.517 3.078c.49.273.984 1.166 1.054 1.57-.742 3.894-3.424 8.65-3.327 8.465 0 0-1.65.294-2.34-.076 1.816-2.492 3.025-5.678 3.85-8.283.348-1.11.514-1.68.762-1.674zm94.47 2.723c.28-.01.384.208.155.808-1.076 4.305-3.473 8.818-5.335 9.65-2.455 1.07-4.903.17-5.952-1.68-1.124-2.008-.924-5.167 2.873-5.854 2.223-.22 4.514 1.545 3.312 4.36-1.327 2.098-4.886.913-3.826-1.78.794-.993 2.437-.124 1.903.998-.275.568-.018.915.392.52 1.296-1.263-.833-3.428-2.264-2.355-2.345 1.77.54 5.655 3.27 4.002.833-.512 2.346-3.35 2.913-5.434.25-.894.47-1.743 1.053-2.29.522-.5 1.15-.923 1.507-.947zm-14.49 3.23c.14 0 .292.066.507.18.277.13.598.383.56.692-.038.372-.254 1.158-.68 1.553-.263-.082-.955-.375-1.433-.493-.293-.083.107-.727.284-1.08.29-.568.466-.812.7-.84.03-.014.046-.014.06-.013zm-41.62 1.77c.357-.01.907.39 1.28.443.066.528-.623 1.678-1.735 3.02-.905 1.1-.905 1.115-1.502-.106-.387-.798-.403-.767.724-2.157.604-.748.89-1.083 1.155-1.187.032-.015.063-.014.078-.014zm-38.648 2.064c.01.28-.126.912-.257 1.282-1.267 3.743-4.207 7.454-6.644 8.368-3.166 1.024-6.05-.644-6.114-4.49.088-4.527 5.476-5.756 7.087-1.63.724 1.858-1.284 4.657-3.012 4.19-1.742-.484-2.465-3.196-1.025-3.866.94-.432 1.917.3 1.71 1.304-.067.34-.053.402.15.36.902-.17.425-1.96-.636-2.416-2-.86-3.525 1.84-2.17 3.85 1.614 2.404 4.15 1.957 5.634-1.007.258-.508.72-1.228 1.054-1.61.888-1.02 1.175-1.418 1.96-2.783.434-.752.66-1.212.882-1.456.373-.038.62.06 1.382-.096zm26.285 1.936c.372.008.678.246.667.773-.008.434-.65 2.298-.936 2.726-.112.168-.372.768-.415.627-.364-1.232-1.024-1.617-1.126-1.944-.117-.375.232-.74.378-1.078.308-.723.936-1.114 1.432-1.105zm45.374.964c.467-.006 1.114.208 1.247.552.42.737-2.426 7.566-2.535 7.58l-2.107-.103c1.278-2.72 2.4-5.412 3.226-8.016.047 0 .11-.014.17-.013zm64.75 13.312l2.682 1.602-17.786 28.078-2.567-1.972 17.67-27.708zm111.495 56.34c16.543.104 39.305.142 39.305.142l-.966 1.826s-24.88-.31-38.355-.323l.015-1.643zm-263.033 9.042l-.055 9.24c-1.708-1.506-6.87-4.816-6.902-4.74-.015.016 4.46-2.952 6.957-4.5zm-50.69 9.834l1.655 1.055-18.682 29.565-1.03-2.036 18.058-28.584zm337.432-2.45l2.59.003-.01 2.93-2.59-.003.01-2.93zm-258.186 7.55l3.148.014-.01 2.93-3.148-.014.01-2.93zm39.23-.567l3.225.016-.01 2.932-3.225-.016.01-2.93zm44.16-.533l3.273.016-.01 2.93-3.27-.016.01-2.93zm43.463-.684l3.226.016-.01 2.93-3.225-.015.01-2.932zm43.815-.553l3.303.002-.01 2.062-.496.858-2.79-.008-.007-2.915zm54.86.61l31.5 20.504-.024 2.82-32.784-21.32 1.31-2.005zm94.857 5.6l.276.19-1.342 2.037-.276-.16 1.342-2.068zm-59.76 13.463l35.414.096-1.074 1.793-34.342-.153.002-1.736zm-294.636 7.775c.233-.01.71.2 1.43.6 1.734.98 2.826 3.05 2.082 3.794-.664.654-2.233-.757-3.202-2.79-.537-1.08-.667-1.58-.31-1.604zm-95.674 10.108l-11.47 18.23c-2.567-3.553-5.454-6.617-11.79-4.553-3.284-2.56-6.78-2.97-10.48-.808l.078-12.9 33.662.03zm282.838 2.6l.884.776c-.258.506-.38 1.233-.564 1.88.002-.884-.074-1.77-.32-2.657zm-248.054 6.854l35.135 23.257-.01 2.14-36.37-23.575 1.246-1.82zm317.647-6.572c.45-.007.896.188 1.23.597.53.645.305 1.82-.45 2.316-1.49.995-3.268-.947-2.08-2.273.38-.427.85-.635 1.3-.64zm-414.343 11.662l1.924 1.54c-3.392 19.023 6.082 38.263 26.608 44.072l.232 2.44c.044.108-8.71-2.635-12.53-5.5-5.22-3.56-9.635-8.544-12.655-14.356-2.068-3.745-3.198-7.86-3.924-11.193-.898-5.708-.85-11.35.344-17.003zm29.67 3.394c.744.03.81.56.218 1.586-.77 1.303-1.904 2.227-3.764 2.997-1.016.43-1.29.224-1.162-.86.187-1.64 1.326-2.826 3.292-3.455.468-.13.95-.276 1.416-.267zm-5.955 14.54c.306.254.397.333.763.65-.624.22-1.085.8-1.084 1.515 0 .883.714 1.61 1.597 1.612.792 0 1.454-.576 1.578-1.334.29.255.55.477.762.667-.375.94-1.287 1.588-2.356 1.583-1.396-.012-2.52-1.135-2.51-2.53.003-.93.5-1.727 1.25-2.162zm32.123 1.747c.093.002.17.02.247.036.2.175.366.318.565.477.06.11.088.25.085.39.006.496-.404.89-.9.897-.497.006-.892-.405-.898-.9-.006-.498.405-.893.9-.9zm1.064 7.3c-.218 2.46-.16 5.02-.085 7.596-.472-2.04-1.513-3.563-3.276-4.605 1.212-.845 2.487-1.86 3.362-2.99zm-23.692 5.797l1.708 1.475c-1.522 20.144 16.1 27.835 16.586 27.503l.73 2.278c-12.183-4.19-20.575-16.803-19.024-31.256zm148.838 58.11l-.095 2.542c-13.82-5.4-29.53-25.257-29.272-44.23-3.562 5.435-5.57 9.055-8.642 13.958l-2.428-1.164c4.007-5.938 7.82-12.284 11.84-18.114.463-.658.826-.96.844.482-.002 6.527 1.943 33.39 27.754 46.527zm428.768 205.38c.45-.023 1.082.19 1.878.734 1.27.846 2.677 3.478 2.185 4.058-.445.52-2.325-.107-3.25-1.102-1.84-1.942-1.947-3.62-.814-3.69zm-607.27-242.05c1.395.01 2.52 1.134 2.51 2.53-.012 1.395-1.134 2.52-2.53 2.51-1.395-.013-2.52-1.135-2.51-2.53-.003-1.396 1.135-2.522 2.53-2.51zm64.453.547l1.636 1.938c.278 16.906 13.604 22.157 13.48 22.2l.398 1.823c-.73.095-16.484-7.125-15.515-25.96zm25.12 1.316c-.885-.002-1.612.713-1.614 1.597-.002.884.713 1.61 1.597 1.613s1.61-.714 1.612-1.597c.002-.9-.713-1.612-1.596-1.614zm-30.658 5.032c.496-.006.892.405.897.9s-.405.892-.902.898c-.496.006-.89-.405-.897-.9s.406-.892.902-.898zm8.612 5.362c.2.004 1.15 1.387 1.15 1.387s-1.045.368-1.5-.09c-.442-.46-.193-1.307.35-1.297zm119.664 8.265l2.464 1.69c1.128 11.405 7.625 21.842 17.455 29.087l-.07 2.82c-11.984-8.14-18.608-19.168-19.85-33.597zm305.676-4.697l.124.002c1.52.03 2.14 2.352.53 3.02-1.015.413-2.12-.197-2.224-1.223-.08-.73.464-1.51 1.212-1.728.11-.03.234-.06.358-.072zm-484.23 12.765c.402.008.832.233 1.226.69 1.077 1.23 1.07 1.587-.07 2.046-1.61.65-2.942-.26-2.403-1.645.277-.723.734-1.102 1.246-1.092zm96.093 6.114c.124.002.248.02.37.053 1.186.473-1.4 5.168-3.1 5.646-1.076.305-1.3-.118-.943-1.77.392-1.838 2.417-3.907 3.673-3.93zm-82.237 2.224c1.395.013 2.52 1.135 2.51 2.53-.012 1.396-1.135 2.522-2.53 2.51-1.395-.01-2.52-1.134-2.51-2.53-.004-1.395 1.134-2.52 2.53-2.51zm41.302.684c-.884 0-1.61.714-1.612 1.597s.713 1.612 1.597 1.614c.884 0 1.61-.713 1.612-1.597s-.698-1.61-1.598-1.612zm-6.28 5.097c.22 2.33.596 4.493 1.626 7.366-.963-1.553-2.36-2.325-3.675-3.218.926-1.378 2.007-2.753 2.05-4.147zm-28.002 1.977c.496-.006.89.405.897.9s-.405.893-.9.9-.893-.406-.9-.903.406-.89.903-.897zm48.675 2.736c2.636-.042 4.486 2.118 4.37 4.193.076 2.405.155 3.957-.058 6.946l-2.126-3.918c-.024-1.1.163-1.95.075-3.053-.237-2.965-3.144-2.556-3.274-2.264l-.916-1.49c.687-.267 1.326-.41 1.93-.413zm87.09.296c2.467 0 3.897 1.392 3.958 3.86.126 4.73-.146 15.533-.146 15.533l-5.333-.01-2.884-7.22s-.11-.7-.086-1.195c.185-2.307.08-4.883.166-6.975.307-2.227 2.124-3.99 4.326-3.994zm38.194 1.302c.34-.008.664.106.907.344 1.232 1.248 1.232 2.07-.035 2.635-1.658.744-2.524.603-3.092-.51-.537-1.094.994-2.46 2.22-2.468zm10.59 6.037l1.348.878s-.287.444-.448.705c-.77 1.318.533 2.103 2.346 1.394.328-.133.61-.298.61-.298l1.117.765s-.8.434-1.69.866c-2.255 1.105-3.874.624-4.426-1.294-.218-.764.002-1.706.43-2.255.224-.29.714-.76.714-.76zm366.55-6.666c2.063-.07 4.063 1.552 4.533 3.716.197 1.012-.094 14.434-.094 14.434l-8.187-.034.18-14.076c-.046-.885.002-1.768.48-2.394.905-1.115 2-1.605 3.086-1.646zm-320.21 7.7c-1.66.077-2.595 2.742-.898 4.015.703.524.716.633.34 2.41-.442 2.037 0 4.82 1.01 6.392.78 1.302.622.632.226-.523-.5-2.182-.252-3.774 1.006-6.293 1.126-2.118 2.213-5.384-1.342-5.995-.124-.003-.232-.02-.34-.007zm21.672 5.11l.735.495s-.11.09-.27.242c-.3.288-.89.323-1.07.103-.288-.347.605-.84.605-.84zm311.437-3.23c-1.783-.066-2.963 3.23-.684 4.034.52.335.606.77.284 1.385-.435.83-.876 2.79-.8 3.613.087 1.18.398 2.72.62 3.253.592 1.468.48.892.326-.817-.056-1.908.327-3.28 1.447-5.09 1.314-2.175 3.135-5.722-1.008-6.376l-.186-.003zm-351.99 12.046c1.394.01 2.52 1.134 2.508 2.53s-1.134 2.52-2.53 2.51-2.52-1.136-2.51-2.53c.012-1.38 1.15-2.506 2.53-2.51zm-155.01 3.67c.436-.01.755.292 1.163.874 1.085 1.633.954 1.957-1.146 3.11-2.225 1.213-3.7-1.87-1.58-3.287.644-.422 1.098-.66 1.47-.7.032 0 .063 0 .094.002zm40.71.175c2.34.03 5.998 3.388 4.22 3.865-.25.073-.575.113-.715.11-2.957-.197-6.326-4.014-3.504-3.975zm-114.424 3.797c-.884-.002-1.61.713-1.613 1.596 0 .884.714 1.61 1.597 1.613s1.61-.712 1.613-1.596c.017-.883-.713-1.61-1.597-1.612zm155.057 2.382l1.163.798s-.72.327-1.566.776c-2.287 1.212-2.956 2.114-2.165 2.92.29.285.612.415 1.22.18 1.595-.606 3.073-1.694 4.547-2.55l.873.607c-.015-.047-3.506 2.46-5.402 3.508-2.99 1.524-4.683-1.61-3.014-3.702 1.28-1.26 2.65-1.67 4.343-2.536zm413.616-7.575c.495-.007.89.404.896.9.006.496-.405.892-.9.897-.497.006-.892-.405-.898-.9s.405-.908.9-.898zm-411.694 12.535l.642.43s-.062.03-2.022 1.156c-2.132 1.216-2.226 1.245-2.346 1.04-.107-.063.042-.556.7-.993 1.148-.77 3.167-1.706 3.026-1.632zm461.21-5.9c1.444-.018 2.92.662 3.76 2.136.427 1.126.453 2.165.446 3.328l-.06 7.876-8.248-.02s-.36-5.372.035-9.846c.384-2.225 2.206-3.446 4.067-3.472zm-327.082 7.48c.528-.035.906.484 1.396 1.594.49 1.11.122 1.723-1.426 2.39-.203.09-.422.147-.5.146-1.562-.155-2.194-1.965-1.072-3.06.695-.67 1.183-1.032 1.602-1.07zm-55.574 10.164l.72.447s-.363.334-3.037 2.267c-2.154 1.555-2.473 1.983-2.025 2.876.36.704 1.15.627 2.237-.205 1.51-1.15 3.89-3.103 3.89-3.103l.067 1.334c-1.56 1.257-3.46 3.39-4.95 4.2-2.896 1.417-4.96-2.5-2.318-4.418 2.28-1.677 5.416-3.4 5.416-3.4zm398.984-4.91c-2.154-.025-2.96 3.17-.648 3.865.66.354.61.54.16 2.143-.267.97-.367 2.148-.21 2.91.166.965.384.938.295-.087.012-.557.6-2.08 1.176-3.015 2.15-3.013 1.6-5.784-.772-5.814zm-365.74 6.256c1.426.012 2.21 1.996.983 2.84-.88.604-2.695-.144-2.692-1.09 0-.822.65-1.584 1.43-1.724.092-.014.185-.028.278-.026zm-269.674 5.876c.45-.007.7.65.69 1.952-.004 1.86-.67 3.476-1.82 4.43-1.656 1.364-2.017-2.38-.466-4.847.656-1.026 1.208-1.527 1.596-1.535zm127.858 1.23c.403-.007.335.302-.136.634-.362.256-.992.756-2.915 2.378-.347.287-.85.68-1.117.846-.644.422-1.185.318-.865-.187.32-.49 4.66-3.678 5.033-3.67zm478.593-8.998c1.396.01 2.522 1.134 2.51 2.53-.01 1.395-1.134 2.52-2.53 2.51s-2.52-1.135-2.51-2.53c.012-1.38 1.15-2.506 2.53-2.51zm-526.742 11.91c-.884 0-1.61.714-1.613 1.598 0 .883.713 1.61 1.597 1.612s1.61-.713 1.613-1.597c.017-.883-.698-1.61-1.597-1.612zm-30.056 4.945c17.044 8.67 27.63 24.847 30.206 43.24l8.332-13.127 2.232.85-12.134 19.66-.524-.167c0-19.227-9.524-37.46-28.154-47.496l.042-2.96zm-134.182 4.294c.496-.006.89.405.897.902.006.496-.405.89-.9.897-.497.006-.893-.405-.898-.9.008-.497.404-.908.9-.9zm157.4.427c.742 1.66 1.64 3.382 3.043 5.363-1.416-1.346-2.968-1.283-4.514-1.5l1.47-3.862zm-18.07 1.728c.263-.01.524.103.736.387.695.96.817 1.845.327 2.332-.664.654-1.73.4-2.207-.54-.477-.985.352-2.132 1.143-2.18zm194.295 1.265l.018 1.49s-.317.38-.665.7c-.947.88-2.262 2.297-2.346 2.668-.302 1.173.852 1.614 2 .753.395-.303.962-.757.962-.757l-.005 1.83c-.978.818-1.94 1.62-3.252 1.348-.77-.232-1.44-.85-1.582-1.613-.544-2.32 1.698-3.594 3.45-5.142.567-.485 1.42-1.275 1.42-1.275zm362.834-.827c.046 0 .077 0 .123.002 1.396.012 2.52 1.134 2.51 2.53-.012 1.395-1.134 2.52-2.53 2.51s-2.52-1.135-2.51-2.53c-.004-1.35 1.072-2.46 2.406-2.512zm-458.06 18.055c1.38-.003 2.103 1.856.982 2.904-.442.41-1.424.702-1.975.32-1.53-1.085-.39-3.156.992-3.223zm273.383-1.034c.79.853 1.393 3.3.92 3.755-1.045 1.066-4.046-2.496-3.86-4.834.336-1.39 2.65.764 2.94 1.08zm-51.703 6.892c.573.01.687.525.557.832-.13.292-.58.315-.933.168-.616-.26-.337-1.014.376-1zm-211.96-3.082c-.883 0-1.61.713-1.612 1.597-.002.884.713 1.61 1.597 1.613.884 0 1.61-.713 1.612-1.597.002-.885-.713-1.597-1.596-1.614zm-71.495 3.006c3.04.013 6.25 2.416 3.45 2.89-2.07.347-3.41-.067-5.026-1.54-.824-.745-.522-1.142.97-1.315.202-.027.404-.04.605-.035zm-53.37 5.25c.498-.007.893.404.9.9s-.406.892-.902.898-.892-.405-.898-.902.405-.907.9-.897zm69.69.967h.123c1.395.013 2.52 1.135 2.51 2.53-.012 1.396-1.135 2.522-2.53 2.51s-2.52-1.134-2.51-2.53c.01-1.348 1.072-2.46 2.406-2.51zm72.777 12.262c.714-.017 1.347.135 1.713.467.44.41-.225 1.19-1.602 1.86-1.597.775-4.386.66-4.385-.178.022-1.132 2.43-2.124 4.275-2.15zm209.472-4.263c1.395.01 1.76 4.344.542 6.43-.64 1.072-1.48.358-2.074-1.778-.493-1.762.463-4.674 1.532-4.653zm-319.67 10.456c-.883 0-1.61.713-1.61 1.597-.003.884.712 1.61 1.596 1.613s1.61-.713 1.612-1.597c.018-.9-.713-1.612-1.597-1.614zm113.793-.133c.124.002.263.067.462.164 1.52.758 2.63 4.253 1.825 5.82-.838 1.642-2.715-1.527-2.687-4.55.003-.992.073-1.394.353-1.42.016-.015.032-.015.047-.014zm217.394-4.18h.094c1.38.043 2.38 1.954 1.076 2.92-.567.424-1.452.5-1.988.15-1.057-.673-.994-2.315.102-2.883.25-.12.485-.193.717-.188zm-352.717 8.89c.496-.006.892.405.898.9.006.498-.404.893-.9.9-.497.005-.892-.406-.898-.902-.006-.496.405-.89.9-.897zm73.714-.35c.753 1.13 3.813 4.105 4.226 4.36-1.356-.444-2.74-.254-4.138-.08.175-1.035.347-2.72-.088-4.28zm-2.175 3.11c20.73 4.914 33.343 26.96 28.276 47.608 0 0-1.748-.978-2.018-1.45.75-3.566 1.217-9.232.304-14.925-1.534-9.66-9.323-23.842-26.455-28.748-.174-.64-.108-2.483-.108-2.483zm279.284-3.823c.237 1.415.457 2.83.805 4.11-1.452-1.053-3.11-1.968-4.8-2.7 1.198-.24 2.303-.45 3.996-1.41zm66.916.003c.822-.015 1.663.575 1.644 1.582-.01.45-.49 1.246-.866 1.44-1.378.703-2.794-.643-2.177-2.073.26-.63.825-.93 1.4-.95zm-19.43 2.23c1.395.01 2.52 1.133 2.51 2.528s-1.135 2.522-2.53 2.51c-1.396-.01-2.52-1.133-2.51-2.53.01-1.378 1.15-2.504 2.53-2.508zm-284.064 9.612c-.884-.002-1.61.713-1.613 1.597 0 .884.713 1.61 1.597 1.612s1.61-.713 1.613-1.597c.017-.883-.713-1.61-1.597-1.612zm-42.82 5.1c10.286 6.107 19.51 19.078 20.14 33.712l-2.495-1.646c-1.05-9.865-6.067-20.6-17.743-29.415 0 .015.033-.93.098-2.65zm-176.804 6.16l13.318.04-.01 2.868 4.01-2.046-.014 6.357-3.985-2.434-.007 2.775-13.32-.04.01-2.915-4.084 1.967.06-6.325 4.035 2.28-.014-2.528zm296.877-5.75c.497-.007.892.404.898.9s-.405.892-.9.897c-.498.006-.893-.404-.9-.9s.406-.908.903-.898zm-71.804 4.595h.047l.153.92-.078-.003c-.884 0-1.61.714-1.612 1.597-.002.884.713 1.61 1.597 1.613.217.004.42-.04.607-.112l.152.917c-.234.073-.498.115-.762.11-1.395-.012-2.52-1.135-2.51-2.53.012-1.364 1.072-2.46 2.406-2.512zm58.743 2.576c.046 0 .092.002.123.003 1.395.01 2.52 1.133 2.51 2.528-.008 1.194-.85 2.186-1.955 2.443l-.153-.9c.686-.19 1.194-.8 1.193-1.544 0-.884-.713-1.61-1.597-1.613-.03 0-.077 0-.108-.002l-.153-.9c.046 0 .093-.015.14-.014zm181.7-.695c3.116.03 4.4 1.822 1.842 2.564-1.185.35-2.732.164-4.254-.517-1.26-.567.49-2.068 2.412-2.046zm31.48 2.682c.76 0 1.485.122 2.023.38 1.306.615 1.267 1.032-.13 1.843-1.943 1.11-6.51-.033-5.122-1.293.65-.592 1.973-.923 3.23-.93zm-336.995 8.354c.063.002.14.003.202.02l.278 1.633c-.14.09-.297.133-.483.145-.497.006-.892-.405-.898-.9-.006-.498.405-.908.9-.9zm124.83.06c.496.01.89.406.88.902-.006.387-.245.724-.604.84l-.275-1.74zm169.57-.932c1.397.012 2.522 1.134 2.51 2.53s-1.133 2.52-2.53 2.51-2.52-1.135-2.508-2.53c.01-1.396 1.15-2.52 2.53-2.51zm-19.19 3.427c.154-.01.323.07.49.213 1.512 1.238 2.252 3.857 1.656 5.8-.577 1.85-2.917-1.452-2.897-4.072.023-1.208.3-1.916.75-1.94zm-202.252 9.222c.202.004.43.163.642.524.93 1.568.884 4.793-.097 5.797-.554.563-.753.466-1.335-.708-.97-1.988-.217-5.633.79-5.613zm339.848-5.9c-.883-.002-1.61.713-1.612 1.597 0 .882.713 1.61 1.597 1.61s1.61-.712 1.613-1.596c.017-.883-.698-1.61-1.597-1.612zm-135.492 2.386c1.9 1.215 3.847 2.307 5.876 3.23-1.9-.455-3.307.184-4.75 1.04.28-1.592-.254-2.89-1.126-4.27zm-199.435 8.005c1.423.198 2.83.443 4.48.134-.307 1.39-.412 2.814-.286 4.274-1.24-1.59-2.59-3.09-4.194-4.407zm301.908-4.506c.498-.006.893.405.9.9s-.406.892-.903.898c-.496.006-.89-.405-.897-.9s.405-.892.9-.898zm-106.396 1.42c1.167.58 1.2 1.99.055 2.73-1.43.933-3.29-.716-2.394-2.11.81-.945 1.35-.935 2.337-.62zm-222.374 11.262c1.395.01 2.52 1.133 2.51 2.528-.012 1.396-1.135 2.52-2.53 2.51s-2.52-1.134-2.51-2.53c.012-1.395 1.15-2.52 2.53-2.51zm321.078-1.208c.248-.01.495.056.74.185.89.467 1.085 1.664.373 2.364-.79.776-1.87.63-2.396-.294-.615-1.08.23-2.244 1.284-2.254zm56.198 1.017c12.4 4.255 20.69 18.107 18.635 31.402l-1.552-1.472c1.2-7.528-2.894-21.95-16.72-27.893l-.362-2.038zm-123.002 4.764c-.884 0-1.61.713-1.612 1.597-.002.885.713 1.612 1.597 1.614s1.61-.714 1.61-1.597c.018-.884-.697-1.61-1.596-1.613zm52.138.344c.496-.006.892.405.897.9.005.497-.405.892-.902.898s-.89-.405-.897-.9.406-.892.902-.898zm-47.118 3.834c.635.06 1.707-.06 1.96.55.28.75-1.28 2.053-3.24 2.31-.807.046-2.517.245-2.878-.336-.342-.72 1.97-2.504 4.158-2.524zm-296.706 6.406c1.676-.076 3.57 2.178 1.86 4.005-1.36 1.4-4.157 3.316-4.157 3.316l.01-1.226s2.736-1.994 2.784-2.877c.004-1.04-.853-1.63-1.81-1.012-.19.12-.945.726-.945.726l.07-2.06c.507-.563 1.396-.84 2.188-.872zm-171.9 7.406c1.238.055 4.113 4.514 3.383 5.415-.587.716-2.93-.88-3.795-2.602-.462-.924-.322-2.565.256-2.786.048-.03.095-.03.157-.028zm252.922-1.255s.095 10.343-.482 11.324c-2.346 4.22-7.373 1.997-7.793-1.16-.304-1.912-.098-10.172-.098-10.172l8.373.007zm105.43.81l8.046.015s-.08 14.574-.407 15.405c-.262.677-1.432 1.848-2.167 2.175-2.36 1.024-4.89-.45-5.505-3.208-.442-1.993.03-14.388.03-14.388zm12.7-.07l5.333.01s.187.78.392 1.403c.366 1.108 1.622 4.28 1.758 4.484.65.865.65 10.4.01 11.474-2.363 3.522-6.28 2.485-7.71-1.435-.347-1.232.216-15.936.216-15.936zm53.796-.546c9.57 4.573 16.873 14.25 15.92 26.622l-1.748-1.755c.66-8.546-5.815-19.246-13.397-22.432l-.774-2.434zm47.163 1.633c1.395.012 2.52 1.135 2.51 2.53-.013 1.395-1.135 2.52-2.53 2.51-1.396-.012-2.522-1.135-2.51-2.53-.005-1.38 1.134-2.506 2.53-2.51zm81.347.374c.93.02 2.087.352 2.942 1.05 1.02.842 1.163 1.512.368 1.76-1.53.466-3.38.012-4.52-1.142-1.082-1.06-.155-1.693 1.21-1.667zm42.023 1.034c-.883-.002-1.61.713-1.612 1.596-.002.884.713 1.61 1.597 1.613s1.61-.713 1.612-1.597c.002-.884-.713-1.61-1.597-1.612zm-101.833 4.638c1.35.01 1.948 1.898.922 2.855-.427.395-1.576.466-2.082.146-1.378-.895-.56-3.02 1.16-3zm-257.268 7.168c-.444 1.278-1.17 2.722-1.762 3.703-1.587 2.636-1.388 4.407.284 5.308 2.456 1.32 4.245-2.196 1.838-3.592-.844-.48-.843-.497-.54-1.81.374-1.62.442-3.572.18-3.608zm129.54.79c.496-.005.89.406.897.902s-.405.892-.9.898c-.498.006-.893-.405-.9-.9.01-.497.406-.908.902-.9zm154.126-2.97c-.108-.003-.028.65-.035 1.812-.02 1.892-.17 2.463-1.382 4.982-1.55 3.226-1.346 5.432.563 6.15 1.48.557 2.927-.562 2.945-2.3 0-.82-.36-1.463-.914-1.63-.51-.04-1.08-.268-1.028-.515.27-1.934 1.953-5.56-.146-8.5zm-99.315 5.802c1.242.784 2.53 1.538 4.373 1.635-.796 1.892-.715 3.274-.852 4.79-.782-2.046-2.01-4.302-3.52-6.425zm78.385-2.03c.094.002.202.004.295.02 1.19.195 2.184 1.718 1.867 2.844-.282.987-.363 1.156-4.21 3.702-2.137 1.416-2.356 1.474-2.356 1.474l-1.13-.766s.973-.648 2.496-1.658c2.954-1.974 3.38-2.43 3.073-3.32-.324-.968-1.43-.757-3.176.574-2.58 1.98-2.847 2.1-2.847 2.1l.007-1.178s1.134-.893 1.623-1.318c1.21-.845 2.87-2.456 4.36-2.474zm-441.576 12.707c.294-.01.506.272.408.52-.05.122-.22.196-.438.192-.465-.01-.483-.66-.033-.714h.062zm440.716-4.084c.537 1.87-.64 4.98-1.36 5.37-.76.76-1.24.038-1.405-1.92.016-1.58 1.848-6.522 2.766-3.45zm110.33 3.534c.228 2.687.31 4.92-.96 7.098-1.635 2.822-1.217 5.25.525 5.794 1.743.546 3.286-.696 2.978-2.392-.1-.514-.795-1.364-1.243-1.482-.54-.134-.595-.476-.296-1.54.598-2.067.4-4.675-.478-6.57-.072-.295-.4-.92-.525-.908zm-161.207-1.376c1.472.013 2.148 1.918 1.06 2.936-.617.562-1 .306-1.64-1.07-.595-1.284-.413-1.87.58-1.866zm45.723 4.63c1.395.013 2.52 1.136 2.51 2.53-.012 1.396-1.134 2.522-2.53 2.51-1.395-.01-2.52-1.134-2.51-2.53-.003-1.395 1.135-2.52 2.53-2.51zm74.615 1.58c-.884 0-1.61.714-1.613 1.598 0 .883.713 1.61 1.597 1.612s1.61-.713 1.613-1.597c.002-.9-.713-1.61-1.597-1.612zm.104 5.684c.496-.006.892.405.897.9.005.497-.405.892-.902.898-.496.006-.89-.405-.897-.9-.005-.497.406-.892.902-.898zm-10.737 4.445c.2-.012.402.023.586.12 1.322.646 1.178 2.488-.285 3.576-.928.695-1.327.454-2.176-1.345-.478-.986.773-2.31 1.874-2.352zm-135.998 4.84c.14.002.264.02.387.053 1.373.383 2.226 1.98 1.892 3.2-.765 1.877-3.32 2.494-5.258 3.278l-1.01-.732s1.428-.81 2.804-1.435c1.3-.595 1.505-.823 1.41-1.585-.188-1.477-.887-1.413-4.114.308-1.316.703-2.274 1.32-2.274 1.32l-.718-.587c1.068-.693 1.712-1.083 2.874-1.883 1.95-1.327 3.06-1.894 3.868-1.925.046-.015.093-.014.14-.013zm-317.424 10.893c.468 1.42-.502 2.673-1.933 2.102-.785-.31-1.323-1.312-.84-2.233.64-.996 2.45-.82 2.773.13zm528.98-5.85l2.263 4.075s.025 1.133.044 1.77c.073 2.637.645 3.516 2.185 3.267.11-.014.67-.173.67-.173l.976 1.662s-1.063.46-1.343.517c-1.822.383-4.338-1-4.736-2.836-.37-1.76-.056-8.28-.056-8.28zm-231.71 1.936c.683.044.393.58.08.746-1.33.672-2.6 1.407-3.98 2.202l-.936-.576s.72-.405 1.208-.706c1.537-.93 3.086-1.646 3.63-1.666zm-313.5 18.025c1.395.01 2.52 1.134 2.51 2.53-.013 1.394-1.135 2.52-2.53 2.51s-2.522-1.136-2.51-2.53c.01-1.396 1.15-2.522 2.53-2.51zm485.913-6.782c.574-.02 1.065.238 1.38.756.677 1.115-.047 2.48-1.69 3.21-.906.4-1.06.32-2.04-1.126-.648-.974-.644-1.145.08-1.766.836-.682 1.618-1.054 2.27-1.073zm-146.664 2.972l36.06 23.506-1.04 1.748-34.97-23.035-.05-2.218zm-375.11 11.528c2.2.042 5.05 2.594 4.038 3.598-.11.106-.314.18-.47.177-3.127-.185-6.577-3.834-3.57-3.775zm576.907-10.076c-.885-.003-1.612.712-1.614 1.595 0 .884.714 1.61 1.597 1.613s1.61-.713 1.613-1.597c.017-.898-.713-1.61-1.597-1.612zm-92.62 1.476l.944 2.484-18.06 28.584-1.76-1.135 18.876-29.934zm-214.678 8.085c.496-.004.892.406.897.903s-.405.89-.902.897c-.496.006-.89-.405-.897-.9-.005-.498.406-.893.902-.9zm269.637-3.56c.882 1.644 2.336 2.65 4.012 3.35-1.575 1.286-2.383 2.976-2.324 4.745-.383-2.66-.72-5.286-1.69-8.096zm-59.062 1.564c.387.008.727.092 1.003.268 3.367 2.313.268 4.595-.023 4.42l-1.15-.737c.402-.66 1.303-1.54-.14-2.375-.814-.357-1.72.06-2.523.618l-1.208-.83c0 .016 2.368-1.38 4.042-1.363zm-438.47 16.63c.125 0 .25.003.373.02 1.9.38 1.768 2.392-.22 3.315-1.126.536-1.325.423-2.315-1.286-.466-.77.938-2.013 2.164-2.05zm353.15-1.112c.202.004.462.18.49.35.098.53-.89 1.054-.89 1.054l-1.132-.75c.485-.255.99-.618 1.532-.654zm-334.97 13.556c.278-.026.477.102.548.444.388 1.574-1.373 4.47-2.98 4.936-.935.276-1.206-.163-.9-1.475.437-1.806 2.337-3.832 3.33-3.905zm494.067-8.51l2.92 2.134-17.64 27.693-3.034-1.81 17.754-28.018zm-269.85 7.408c1.397.012 2.522 1.135 2.51 2.53-.01 1.395-1.133 2.52-2.53 2.51s-2.52-1.135-2.508-2.53c.01-1.395 1.15-2.52 2.53-2.51zm260.333-3.05c-.884-.003-1.61.712-1.613 1.596s.713 1.61 1.597 1.612 1.61-.713 1.613-1.597c.017-.883-.713-1.61-1.597-1.612zm.104 5.682c.496-.006.892.405.897.9.005.497-.405.892-.902.898-.496.006-.89-.405-.897-.9s.406-.892.902-.898zm-40.248 3.78c1.897 2.162 4.02 6.963 11.507 4.72 2.535 2.08 6.047 3.265 10.387.977l-.003 12.947-33.18-.053 11.29-18.59zm-280.454 5.083l32.61 21.596-1.028 1.81-31.626-20.336.044-3.07zm-238.458 8.727c.03 0 .062 0 .078.002 1.666.418 1.85 2.08.304 2.718-.83.34-.998.26-1.797-.92-.316-.47-.495-.846-.446-.97.115-.276 1.382-.84 1.862-.83zm520.918-8.07c.59.01 1.157.317 1.44.927.4.922.168 1.678-.68 2.19-1.395.84-2.947-.71-2.22-2.215.275-.6.87-.9 1.46-.903zm93.97 8.98c.776 0 1.413.74 1.032 1.183-.254.29-.562.206-.972-.267-.47-.536-.494-.91-.06-.916zm-101.956 12.155c1.395.01 2.52 1.134 2.51 2.53-.012 1.395-1.135 2.52-2.53 2.51s-2.52-1.135-2.51-2.53c-.004-1.38 1.135-2.506 2.53-2.51zm58.224.916c1.907.022 4.528 3.205 4.076 4.948-.15.57-1.215.256-2.483-.715-1.694-1.334-2.8-4.255-1.592-4.232zm31.6.778c-.882 0-1.61.713-1.61 1.597-.003.884.712 1.61 1.596 1.613.884 0 1.61-.713 1.612-1.597.002-.885-.713-1.612-1.597-1.614zm-32.495 5.305c.528 1.546 1.055 3.138 3.42 4.27-3.676 1.695-4.398 4.58-3.85 8.298l-.858-.53c.793-3.333 1.41-7.104 1.288-12.037zm27.18 1.512c.497-.006.892.405.898.902s-.404.89-.9.897c-.496.007-.892-.404-.897-.9s.405-.907.9-.898zm-33.764 6.776c1.394.01 2.52 1.134 2.508 2.53 0 .883-.45 1.65-1.14 2.1l-.81-.603c.608-.237 1.038-.818 1.035-1.5.002-.884-.713-1.61-1.596-1.612-.838 0-1.533.652-1.595 1.473l-.81-.62c.314-1.018 1.275-1.76 2.407-1.768zm9.363 22.424c1.194.007-.67 3.336-2.392 4.233-1.3.688-2.495.743-2.498.107.017-1.66 3.062-4.36 4.89-4.34zm51.134 1.804c.496-.006.89.405.897.902.006.496-.405.89-.9.897-.496-.056-.892-.452-.898-.9.01-.497.405-.908.9-.9zm-51.328 11.402c.588.01 1.172.27 1.426.772.314.64.194 1.228-.39 1.806-1.455 1.43-3.427-.05-2.477-1.862.256-.49.85-.728 1.44-.716zm56.163 16.67c2.015.07 3.548 2.58 3.18 4.014-.32.382-2.55-1.32-2.78-1.496-.284-.5-.3-1.323-.4-2.52zm-27.912 9.406c2.16 1.453 4.26 2.75 6.315 3.828l-6.327 4.033.013-7.86zm-71.237 10.487l34.015.225.004 1.426-34.95-.07.93-1.58zm-308.495 18.707l2.28.013-.01 2.79-3.13-.013-.002-1.535.862-1.255zm25.375 12.515l2.745.006-.008 2.79-2.744-.005.007-2.79zm151.123-3.31l3.13.015-.006 2.79-3.132-.013.008-2.79zm-140.594 3.106l3.38.004-.008 2.79-3.38-.003.008-2.792zm42.403-.538l3.256.016-.006 2.79-3.256-.015.007-2.79zm44.646-.737l3.102.013-.008 2.79-3.1-.012.007-2.79zm9.608 2.886l37.722.202-.002 1.675-38.807-.193 1.088-1.685zm-121.786 25.44c3.847-.034 6.074 4.258 3.054 7.27-2.767 2.752-7.365-.795-5.057-3.898 1.288-1.727 4.44-.317 3.644 1.53-.52 1.213-2.214.638-2.157-.68.01-.526-.385-.16-.442.396-.06.712.668 1.5 1.52 1.518 2.234.012 2.57-2.943.42-4.04-1.92-.967-3.943.25-4.41 2.707-.05.262-.374.938-.616 1.414-.71 1.428-.944 2.246-1.3 3.867-.16.198-.662.53-1.007.694-1.095.537-1.045.32-.638-1.47 1.2-5.125 3.14-8.42 5.495-9.09.514-.144 1.012-.212 1.492-.218zm187.178 15.897c2.373-.047 4.15 1.91 4.462 3.42 1.353 4.6-4.75 7.398-6.87 3.232-1.18-2.38 1.28-5.217 3.537-4.103 1.842.904 1.71 3.723-.166 3.702-1.024.042-1.642-.87-1.07-1.618.3-.29.638-.066.787-.543.066-.202-.225-.362-.925-.236-1.152.225-1.042 2.57.298 3.03 2.002.69 3.717-1.402 2.765-3.498-1.13-2.503-4.23-2.532-5.66.092-.21.383-.53.92-.706 1.164-2.117 2.86-2.28 3.29-2.916 4.89-.065.154-.176.276-.362.257-.59.003-1.15.116-1.54.28-.263-.068.082-1.07.115-1.146 1.434-4.438 5.13-8.816 8.25-8.927zm43.558 1.398c-.498.874-2.01 3.698-3.068 7.88-.275-.176-1.014-.485-1.553-.666-.2-.067-.04-.312-.05-.654.378-1.884 1.62-5.178 2.97-6.858.284-.21 2.115-.27 1.7.297zm-97.88 9.653c-1.287 1.634-2.643 6.01-2.935 8.27-.037.34-.107.71-.14.834-.2.68-1.458-.772-1.456-1.672.014-1.52 1.716-6.153 2.93-7.928.414-.613.478-.72 1.362-.75 1.442-.034.81.528.24 1.246zm-51.23 3.086c-.325.01-.636.05-.947.122-1.87.46-4.093 2.432-4.32 4.52-.11.06-.355 1.53-.2 2.277.613 2.818 2.25 4.726 4.244 7.525 0 0-2.54 3.904-4.282 5.716l4.087 5.94c-1.145 2.242-3.116 3.925-3.62 6.69-.783 3.63 1.118 7.186 5.158 7.528 3.022.105 5.015-1.934 5.4-5.028.164-2.06-.685-4.65-3.723-8.724-.15-.205-.437-.63-.437-.63s.348-.396.524-.67c1.083-1.453 3.88-4.98 3.88-4.98l-4.165-5.912s.178-.4.512-.843c3.423-4.632 4.058-6.992 3.467-9.314-.23-.902-.806-1.61-1.566-2.386-1.216-1.248-2.63-1.85-4.01-1.83zm-343.512 1.538c1.334-.02 2.703.517 3.813 1.686 2.552 2.685 2.322 4.945-1.014 9.89-.735 1.085-1.456 2.28-1.456 2.28l4.183 5.804c-1.387 1.942-2.955 3.664-4.39 5.714.723 1.115 1.91 2.316 2.642 3.664.886 1.52 1.415 3.035 1.574 4.434.33 2.92-1.575 6.017-4.817 6.093-3.148.017-5.532-2.62-5.453-5.904.03-1.473.644-2.825 1.383-4.145.755-1.35 2.526-3.95 2.526-3.95l-4.04-5.94 4.312-5.732s-3.12-3.844-4.074-6.607c-.777-3.132.7-4.918.89-5.193.957-1.346 2.413-2.078 3.918-2.095zm-3.184 11.45c.62 1.624 1.635 2.837 2.775 4.007 1.063-1.252 2.258-2.888 2.924-4.44 3.17-7.538-8.974-8.19-5.7.43zm-10.868 48.925c-1.532-1.797-2.62-3.29-2.713-5.65-.156-4.686 5.958-4.133 5.644.047-.354 2.288-1.545 3.723-2.93 5.603zm91.24 10.216c.11.653.756 1.782.705 2.045-.294.692-.735 1.04-1.346 2.176-.13.245-.068.293-.407.224-.325-.052-.88-.218-1.173-.3-.17-.05-.37-.148-.288-.364.57-1.338 1.236-2.937 2.508-3.78zm402.468-46.373l-.72 1.862c-.065.2-.08.23-.282.196-.417-.054-.773-.092-1.177-.053-.897-.11.795-3.443 1.053-3.95.34.053.887 1.475 1.126 1.945zm-54.378 12.542h.046c.372.054.91.25 1.31.43.23.097.23.097.132.374-.21.414-.464 1.588-.736 2 0 .063-1.272-.752-1.626-.914-.01-.217.408-1.837.874-1.89zm14.45 2.522c.42.008.94.39 1.214.613.135.266.005.527-.46 1.324-.416.707-.85 1.474-.957 1.394-.304-.24-.887-.56-1.174-.953-.212-.298.19-1.05.477-1.448.447-.658.653-.902.902-.928zm51.656-.07c.386.084-.226 2.073-.355 2.318-.368.552-.94 1.27-1.395 1.555-.235.15-.94-.282-.93-.778.006-.357.692-2.143.918-2.603.048-.077 1.327-.486 1.762-.493zm-52.963.934l.263.005c1.52-.033 3.088.71 4.063 2.39.465.8.465.83.357 1.572-.25 1.732-.165 2.912.28 3.975.52 1.22.433 1.636-.844 4.325-1.293 2.72-2.86 6.023-4.052 9.086-.52 1.31-1.015 2.803-1.318 4.022-.2.772-1.142.536-2.072.487-.467.1.696-3.088 2.413-6.885 1.377-3.044 3.257-6.48 4.02-9.893.613-2.78.418-3.93.1-5.1-1.283-3.404-5.75-2.576-5.748.556.084 2.033 2.435 3.133 3.295 1.134.142-.912-.303-.378-.683.064-.81.946-2.2-.12-1.97-1.51.298-1.84 2.682-2.445 3.817-.98 1.255 1.605.975 3.243-.848 4.48-1.887 1.374-3.593.58-4.527-.848-1.984-3.248.768-6.808 3.452-6.88zm-76.64 7.255c1.86.037 3.876 1.61 4.21 2.842.17.84-.098 1.828.196 2.64.25.656.492 1.017.31 1.603-1.553 4.932-5.174 10.18-6.993 16.022-.21.4-.397.457-.864.588-.717.203-.996.182-1.066-.192-.07-.358.175-1.035.587-2.3.51-1.508 1.614-4.107 2.274-5.32 1.513-2.84 2.372-4.776 3.474-7.205.21-.444.262-.722.584-1.367 1.388-2.796-.17-5.57-3.023-5.594-2.28-.015-3.294 3.532-1.314 4.578 1.95 1.03 3.397-1.64 1.68-2.603-.415-.225-.528-.01-.194.384.773.93.066 2.17-.994 1.67-1.66-.777-.798-3.598 1.136-3.42 2.988.26 3.37 4.608.31 5.696-4.2 1.5-6.38-5.256-2.43-7.505.674-.374 1.39-.53 2.12-.517zm59.543 6.482c1.1-.025 2.257.37 3.216 1.287 2.344 2.263 1.703 5.724-2.272 12.44-1.3 2.253-2.577 4.942-3.266 6.913-.18.493-.325.738-.7.948-.69.374-1.467.42-1.57.156-.25-.69 1.723-4.93 5.232-11.576.92-1.78 2.09-3.836 2.038-5.946-.23-1.68-1.62-2.884-3.49-2.347-1.263.364-1.778 2.138-.85 3.04.38.38.858.574 1.17.534.572.026 1.234-.55.12-.618-1.195-.008-1.584-1.504-.58-2.167 1.446-.965 3.098.183 2.97 2.057-.26 3.778-5.77 3.207-5.91-.688-.11-2.407 1.797-3.982 3.892-4.035zm32.458 5.754c.838-.063-.613 4.437-3.145 9.474-1.372 2.795-2.422 5.783-3.502 8.708-.286.398-2.024.457-2.016.054 3.09-9.833 5.277-11.51 6.327-15.26.184-.647.326-1.574.343-1.667.795-.203 1.45-1.136 1.995-1.31zm-141.186 35.203l-3.26 4.232 3.17 4.512 3.307-4.293-3.218-4.45zm-239.094 11.39c-.01.51-.987 2.942-1.713 4.416-3.21 6.418-4.004 8.155-4.548 9.866-.1.308-.258.507-.46.58-.392.148-1.497.36-1.602.202.677-3.755 5.866-12.29 6.87-16.024.402-.008 1.43.6 1.453.958zm386.352-.988c.218-.01.31.068.24.362-.1.463-.664 1.553-1.632 3.457-2.69 5.266-4.116 8.386-4.566 9.99-.1.37-.167.664-.356.77-.375.193-1.657.71-1.724.15.403-2.38 1.984-3.93 6.068-13.852.192-.322.35-.49.537-.517.513-.083.952-.323 1.433-.36zm2.84-.814c-.104.62-.81 1.893-1.974 4.273-1.952 3.948-3.203 6.885-3.967 9.49-.133.417-.296.863-.454.984-.314.21-1.724.153-1.724.153-.212-1.074 1.51-5.103 3.406-9.33 1.037-2.306 2.244-4.593 3.044-6.656.54.073 1.6.605 1.67 1.087zm-56.917 9.086c.574-.005.12.963-1.25 3.666-1.128 2.195-2.91 5.293-4.063 8.837-.31.784-.654 1.754-.786 2.155-.165.524-.325.784-.544.89-.407.208-1.415.188-1.597-.032-.272-.347 1.216-4.334 2.67-7.407 1.292-2.58 2.184-4.64 3.3-7.022.304-.475.32-.506.616-.562.635-.034 1.295-.456 1.653-.526zm-49.247-5.543l1.662 2.25-1.97 2.443-1.63-2.39 1.938-2.303zm-353.206 19.612s-.714.823-1.452 2.11c-2.146 3.557-2.213 6.192.3 7.76 1.06.548 2.457.435 3.325-.34 2.87-2.486.75-5.907-1.097-8.238-.467-.69-1.076-1.292-1.076-1.292zm-.214 53.562c1.06 1.26 1.85 2.222 2.563 3.802.81 2.14.28 3.82-1.315 4.594-2.52 1.238-4.792-1.566-3.587-4.55.88-2.2 2.338-3.847 2.338-3.847zm71.02 9.4c.24.453-23.917 5.97-41.716 1.114l-10.878 15.653 62.565.063-9.97-16.83zm382.853 16.382s5.79 10.08 8.625 15.02l-4.016-.016-5.687-12.25c-3.056.84-6.076 1.448-9.137 1.823l2 10.38-3.007-.01-1.67-9.926c-4.38.32-8.847.45-13.403.3l-2 9.575-3.147-.015 2.045-9.512c-3.464-.47-6.898-.924-10.406-1.52l-5.92 10.99-4.434-.01 9.29-13.775c13.808 2.826 26.55 2.22 40.863-1.054zm-7.078 11.5l4.512 9.608-8.59-.027-1.555-8.557 5.632-1.023zm-48.078 30.29l7.5 1-1.966 7.915-10.14-.026 4.606-8.89zm-175.818 9.06l1.014 7.71-12.93-.033 1.463-7.554 10.453-.123z"/></g><path id="path153-6-3-1-9-5-1-4_1_" d="M42.022 15.056c-7.3 10.5-15.2 16.5-15.3 24.7 0 2.7 1.4 7.2 5.9 8 2.9.6 6.9-1.8 7-6.6 0-1 1-.9 1 .4-.1 3.8-1.3 8.2-3.3 11.8h9.6c-2-3.6-3.2-8-3.3-11.8 0-1.3 1-1.3 1-.4.1 4.8 4.1 7.1 7 6.6 4.5-.9 5.9-5.4 5.9-8-.3-8.2-8.2-14.2-15.5-24.7z"/><path id="path153-6-3-1-8-6-9-9-4_1_" d="M124.422 211.556c-7.3-10.5-15.2-16.5-15.3-24.7 0-2.7 1.4-7.2 5.9-8 2.9-.6 6.9 1.8 7 6.6 0 1 1 .9 1-.4-.1-3.8-1.3-8.2-3.3-11.8h9.6c-2 3.6-3.2 8-3.3 11.8 0 1.3 1 1.3 1 .4.1-4.8 4.1-7.1 7-6.6 4.5.9 5.9 5.4 5.9 8-.3 8.2-8.1 14.2-15.5 24.7z"/></g></svg>