<svg xmlns="http://www.w3.org/2000/svg" width="168" height="226.6" viewBox="0 0 168 226.6"><style type="text/css">.st0{fill:#131F67;} .st1{fill:#E2CF00;} .st2{fill:#D40000;}</style><g id="g6583_1_"><path id="path7499-2-5_1_" d="M8.83 28.856c-3.4 4.4-7.1 6.9-7.2 10.3 0 1.1.6 3 2.7 3.3 1.4.2 3.2-.8 3.3-2.7 0-.4.5-.4.5.2-.1 1.6-.6 3.4-1.6 4.9h4.5c-.9-1.5-1.5-3.3-1.6-4.9 0-.5.5-.6.5-.2 0 2 1.9 3 3.3 2.7 2.1-.4 2.8-2.2 2.7-3.3 0-3.5-3.7-6-7.1-10.3z"/><path id="path7503-7-0_1_" d="M159.13 197.756c-3.4-4.4-7.1-6.9-7.2-10.3 0-1.1.6-3 2.7-3.3 1.4-.2 3.2.8 3.3 2.7 0 .4.5.4.5-.2-.1-1.6-.6-3.4-1.6-4.9h4.5c-.9 1.5-1.5 3.3-1.6 4.9 0 .5.5.6.5.2 0-2 1.9-3 3.3-2.7 2.1.4 2.8 2.2 2.7 3.3 0 3.4-3.6 5.9-7.1 10.3z"/><path id="path39-5-1-0_1_" d="M9.43 23.456h2.6l-3.9-9.7-3 4.1v5.6h2.1v2.9H.03v-2.9h2.4v-20.9H.03v-2.6h7.5v2.6h-2.1v10.2l6.5-10.3h-2.3v-2.5h7.9v2.5h-2.1l-5.4 8.5 5.2 12.5h2.3v2.9h-8.2l.1-2.9z"/><path id="path39-5-7-0-0_1_" d="M158.53 203.156h-2.6l3.9 9.7 3-4.1v-5.6h-2.1v-2.9h7.3v2.9h-2.4v20.9h2.4v2.5h-7.5v-2.6h2.1v-10.2l-6.5 10.3h2.3v2.5h-7.9v-2.5h2.1l5.4-8.4-5.2-12.5h-2.3v-2.9h8.2l-.2 2.9z"/><path id="path4096-2-4-0_1_" class="st0" d="M18.63 8.056h130.6v210.5H18.63V8.056zm98.77 216.744c-4.9-8.9-12.5-23.3-12.8-23.4-2.8 1.5-31.8 5.4-45.7 1.6-4.8 7.2-9.4 14.3-13.6 21.4l72.1.4zm-44.5-26.5c-.7 0-1.5.5-1.4.1.1-.2.3-2.5.4-3.3.2-.4.5.6.5 1.5 0 .5.2.1 1.9.2 1.8.1 3.2.4 3.8.6 2.1.5 6.2.1 7.9-1.1.9-.7 1.3.1.3.8-4.4 3.4-7.9 2.1-11.7 1.5-.5-.2-1.1-.3-1.7-.3zm1.9-3.2c-.3-.2-.5-.2-.8 0-1.4.6-1-.3 0-1.2.4-.4.4-.6.1-1.1-.2-.2-.5-.3-.4-.6.3-1.4 2.3-3.6 4.5-4.6.9-.4 1.1 0-.1.7-1.8 1.1-2.4 2-1.4 1.6 2-.7 3.8-.2 6.4 1.1.7.4 1.1.4 1.7.4.5-.4.9.1 1.2.3.2.1.2.2.4.2 1.5-.3.6.6-1.4 2-3.6 2.5-7.5 3.7-10.2 1.2zm5.4.6c1.5-.4 3.2-1.4 4.3-2.3 1.3-1.2.6-1-.9-.3-2.2 1.1-3.7 1.4-6.2 1.3-2.1 0-2-.1-2.1.1-.2 1 2.6 1.9 4.9 1.2zm-4-3.5c.1-.4.2-.9.1-1.1-.2-.3-.6-.1-1.1.6-.3.4-.3.5 0 .8.2.1.3.2.4.2.5.2.5-.2.6-.5zm.9.5c.6-2.2 2.1-2.1 3.1-.1h.7c-1.5-4-4.3-2-4.4 0 .3.2.6.1.6.1zm5.3-.4c.7-.4.6-.6-.3-1.1-.6-.3-.9-.4-1-.2 0 .4 0 1.1.3 1.4.3.3.6.1 1-.1zm-9.4-6.2c-.1-.2-.1-.6.4-.8 2.9-1.3.8-4.2-1.4-2-.7.6-1.8.9-2.6.5-.8-.3-.8-1.3.2-1.5.3-.1 1.2-.2 1.5-.5 3.9-2.1 5.9 2.4 3.2 3.9-.6.4-1.2.6-1.3.4zM62.2 182c-1.6-.7-1.8-3.2-.3-4.2.9-.6 1.9-.8 4.5.5 1.8.9 2.9-.1 2.8 1 0 .6-.1 1.3-1.1 1.4-1.7.3-2.9-2.1-5.1-1.9-1.6.2-1.4 2.1-.2 2.5 1.4.6.5 1.2-.6.7zm28.9.4c-.3.1-.4-.5-.3-.8.8-1.9 1.5-3.3 2.2-5.1.6-1.4.9-2 1.2-2 .3 0 .4.2-.1 1.1-.6 1.7-3 7-3 6.8zm-12.9-.5c-.7-.5-.6-1.2.2-.7 1 .7 2.7-.6 2.3-1.8-.4-1.5-2.4-1.9-4-.5-2.6 2.1-5.5 2.2-5.5.6 0-.5-.1-.6 1-.7 1.3-.1 2.7-.7 3.4-1.1 3.2-1.9 6.6-.6 5.9 2.6-.3 1.6-2.2 2.3-3.3 1.6zm-11.7-4.8c-.3 0-.7.3-.9.2-.3-.2-.2-.8-.4-1.4-.4-1.1 0-.8.7-.5.9.4 1.8.3 2.6 0s1.9-.2 3.5 0c1.4.2 2.1.1 3.4-.2 1.3-.4 1-.3.8.6-.1.5-.3 1.3-.5 1.4-.9-.5-1.6-.3-2.2 0-1 .4-1.7.5-2.5.3-.8-.4-1.2-.4-1.8 0-1.3.5-1.7-.3-2.7-.4zm19.9-2.2c.2-.3.5-.8.7-1.3 2.1-4.1 2.2-5.3.7-6.6-2-1.9-3.6-1.1-5.5 2.7-.5.9-.7 1.6-.9 1.9-.2.3-.5.1-.6-.1-.2-.2 1.9-4.2 2.7-5.1 2.1-2.3 6.1-.5 5.9 2.6-.1 1.5-.4 2.4-1.8 5.2-.3.7-.7 1.3-.8 1.6-.7.4-.5-.6-.4-.9zm-19.4-.2c.3-1.5 5-2.1 6.2-.2.1.2 0 .2-.5 0-2.4-.8-2.9-.7-5.1.2-.3.1-.6.2-.6 0zm17.8-.3c0-.1.2-.7.4-1.2 1.6-3.1 2-3.8 1.5-4.4-.9-1.1-2.2-.1-3.3 3.1-.4 1.2-.7 1-.9.8-.4-.4 1.4-4.1 2.2-4.7 1.9-1.2 3.5.2 2.6 2.7-.7 1.1-1.2 2.9-1.8 3.8-.3.4-.7.3-.7-.1zm-7-5c-.1-.2.1-.4.8-1.8.9-2 1.2-2.7.8-3.9-.7-2-3.2-2.5-4.7-1.2-.5.4-.8 1-1.1 1.5-.6 1.2-1 2.8-1.3 3.2-.3.3-.7.3-.7-.2.4-1.1.5-1.9 1.4-3.5 2.1-4.7 8.3-2.5 6.9 2.4-.5 1.8-1.2 3.1-1.5 3.6-.2.3-.5.1-.6-.1zm-1.4-.9c0-.2.2-.6.5-1.2 1-2.6 1.1-3.4-.5-3.4-.9.1-1 .5-1.8 2.5-.3.7-.4 1.1-.6 1.3-.2.2-.5.1-.6 0-.3-.3 1.1-3.7 1.9-4.3 1.7-1.5 4 .6 2.9 2.6-.5 1.3-.9 2.3-1.2 2.7-.3.3-.6.3-.6-.2zm-36.9-30.2l-5.3-.4c.9 5.7 1 11.9 0 16.3-.8 3.8-.8 6.6-.6 9.8.3 3.8 1.9 7 2.3 11.1.3 2.9-.4 6-.9 8.9-1 4.9-.8 5.4-.6 11.1.1 5.3-.4 5.1-.7 4.8 0 0-.1-1-.1-2.1s-.1-3.8-.1-5.7c-.1-3.8.3-7.1.6-8.5.6-2.8 1.3-5.7.9-8.7-.9-3.9-2.1-7.8-2.5-11.6-.5-4.6.8-9.3 1.2-12.7.4-3.3 0-8.9-.9-11.2-.1-.8-.8-1.8-.8-1.8-.8-.1-1.6-.2-2.7-.2-.1 22.3 0 44.7 0 67l4.9 4.6 5-4.8.3-65.9zm.4 25.6s7.5 4.3 15.7 8.6c-.8-4.9 1.7-5.6 4-6.2-.6-9.4 8-7.5 9.3.7h.8c1.5-4.1 3-6.9 6.3-7.6 2.6-.5 5.2 1.1 5.9 5.1-.1-.3 8.7-5.2 8.9 5.2 4-2.5 6.9-.3 8 2.8 1.7-2.6 5.9-2.7 7.3-2.9.5-.5 1.3-.9 2.8-.8 1.3-.1 3-1 3.9.1 1.4.2 2.4 0 3.6.9.9.7 2 2.3 3.5 1.2 2.9-1.4 6.2-2.1 8.9-3.8 0 0-.7-.9-.5-.8.1 0 .4.5.9.7.2.1 1.8-.9 1.8-.9-10.9-12.7-19.9-37.4-14-60.3.2-.4-.5-.5-.8-.7.1-.2 1.7.1 1 1.5-.7 4.4-1.5 9.1-1.6 12.8v.8c24.5 11.4 21.5 36 15.2 44.6l1 1.3c.4.3 19.3-10.8 18.7-11.2l3.6-1.8-.6-48.3-14.1-1.1s.2-.4.3-.5c.1-3-.1-7.3 0-11 .1-10.4.2-14 0-14.3-4.4-2.9-10.8-7.1-16.3-9.1.2.1-.1 4.3-.3 4.6-5.1 1.6-2.7 3.7-4.6 6-1.3 1.4-4.2 1.7-5.7 0-1.7-1.7-2.5-5.5-2.5-5.5-2.7 2.9-2.1 6.4-5.8 7.7-5.8 2.9-7.7-5.8-7.3-5.6-2.2 2.2-8.5 3.9-9.2-5.2-2.8 2.6-6 1.3-7.3-1.9-1.7.1-3.6 1.4-5.4 2.1-1.6.7-3.7 1.1-5.2 1.1-1.9.2-3.5.2-5.2-.3-.8.3-2.6-.5-3.2-1.7-.9-1-1.6-1.1-2.4-.9-2.8 1.5-5.8 1.8-9.1 3.4-.2.1.3.4.1.4-.1 0-1.7.8-1.7.8 16.7 22.1 17.6 44.4 14.1 60.2-.1.5-.2.9.1 1.4-.5-.1-.5.1-.6-.3l1.7-13.3c.1-1.6.3-1.5-1.2-2.1-1.3-.6-2.5-1.1-3.6-1.7-4.1-3-8.7-6.8-10.9-11.4-6.4-10-4.3-22 .5-31.5L47.5 74c-14 7.1-22.3 14.7-22.3 14.7l.1 47.4L40 138l-.1 25.9zm-7-31.6c-.5-.5-1.6-.6-2.1-.2-.1.1-.4.6-.4.6-.7-.2-1.1-.3-1.2-.9l.7-1.1c.5-.8 1.3-1.1 2.7-1.4.5-.1 1.2-.2 1.4-.3 1-.4 1.3-1.4.3-1-.7.2-1.8.1-1.9-.5-.1-.6-.6-.8-1.1-.7-1 .2-1.9.7-2.7 1.3-.4.2-1.1.8-1.1.8-.1.2-.5-1.1-.1-1.5.5.1.9.1 1.4-.1 1.2-.5 2.3-1.1 3.5-1.5.8-.3.8-.3.6-.8-.1-.2-.2-.9-.1-1.2.1-.4.1-.6-.1-.7-.5-.4-1.8 0-3.7.9-.6.3-.9.4-1.3.7.2-.6.1-.7.1-1.3.7.1 1.4-.2 2-.5.5-.3 1-.5 2.4-.7.4 0 .2-1.4-.2-1.8-.4-.4-1.2-.4-2.2-.1-.9.2-2 .4-2.6 1.4-.8.7 0-1.2 1.4-2 .6 0 2-.3 2.3-.4.5-.1.6-1.4-.2-2-.5-.4 1.8-.5 1.8-.3 0 .1-.1.6.1.8 1 .3 1 1.1 1.1 1.5 1.1 1.9 1.7.7 2.5.1-.2 4.1 1.3 4.6 1.5 4.8-2 3.7-.5 3.8 1.4 4.6 0 0-.7.3-1.2.3-.7 0-2.1.8-2.8 1.3-.3.3-.3 0-1.7 0-1.3 0-1.4.1-2 .3-1.1.5-1.1 1 0 .8 1.2-.2 2.4.5 2.5 1.5.1.2 0 .5 0 .5-.2 0-.8 0-.8-.1.1-.4.1-.8-.2-1.1zm1.8-5c.3-.2.4-.8.1-1-.3-.2-1.3-.1-1.7.2-.7.4.6 1.4 1.6.8zm.7-2.5c.4-.3.5-1.1.1-1.5-.6-.7-2.1-.3-2.2.6-.1 1 1.2 1.5 2.1.9zm-.5-3.4c.1-.8-.7-1.3-1.5-1-.9.5-.4 1.5.8 1.4.6 0 .6 0 .7-.4zm-2.7-3.4c-.4.2-.5.7 0 1.1 1.6.9 1.1-1.5 0-1.1zm113.5 5c-.7-2.6-2.7 0-2.7 0-.1-2.7.4-3.9-1.6-4.8 2-3.1 1.6-3.5-.5-4.7.2 0 2.9-.6 3.3-2.1.1.1 4.2 1.1 4.7-1.2-1.2.6-3.6.6-3.7-1.8.2-.1.8 0 .8.1-.3 1.5 2.5 1.9 2.9.7 0 0 .9.6 1.3.7 0 0-1.3 1.9-2.5 2.1-2.2.7-2.9.9-2.9 1.3 0 .2.4.2 1 .3 1.3.1 1.3.4 1.5.8.2.4.3.5.8.4 1.5-.5 2.3-.8 3.4-1.9.1 0 .3 1.1.4 1.2 0-.2-1.1.1-2.8 1.1-1.4.8-1.9.9-2.1 1.1-.1.2.2.7.2 1.2s-.3.7-.1.8c.3.2.7.1 1.2 0 1.2-.3 2.1-.8 3.1-1.4-.2.4.2 1.5.2 1.5s-.5-.4-1-.2c-.8.4-2.2.9-2.6 1-.4.1-.5.1-.6.2-.2.1-.1.5-.1 1 0 .4-.1.7.1.8.5.2 1.5.1 2.5-.2l1.4-.7-.3 1.5c-.4-.4-1.5-.1-2.3.2-.4.1-.5.4-.6.7-.2.6.2 1 .6 1.1.3.1.7.1.7.1-1.9.7-1.6 1-2.7.5-.4-.2-.8-.8-1-1.4zm2 0c-.3-.4-.9-.6-1.2-.4-.3.2-.2.5-.1.7.2.6 1.9.4 1.3-.3zm-1.1-1.9c.5-.6 0-1.4-.9-1.4-.6 0-.9.4-.9.8 0 .8 1.4 1.1 1.8.6zm-1-2.3c.8-.2 1.1-1.1.5-1.6-.4-.4-1.7-.5-2.1-.1-.8.9.2 2.1 1.6 1.7zm.7-3c.5-.3.6-.7.2-1.2-.8-.7-2.2-.1-1.7.8.2.5.9.7 1.5.4zM45.1 93c.7-.3 1.3-.9 2.1-1.3.5-.3.4-.2-.3-.6-.5-.2-1.6-1.3-1.7-1.1-.3.4-.3 3-.1 3zm18.8 26.5c0-.5.1-1.3.1-1.9.1-1.1-.1-.8-.7-.4-.4.3-1.1.7-1.4.8-1.1.5-.9.6.6 1.3 1.2.6 1.3.5 1.4.2zm-1.5-2.6c1-.6 1.4-1 1.4-1.7 0-.8-.1-1.1-.8-.6-2.5 2-5.1-1.9-2.8-4.1.5-.4 1.1-1.1 1.1-1.3 0-1.3-1.4 0-2.5 1.7-1.3 1.6-2.1 3.5-.9 5.4.8 1.4 2.8 1.7 4.5.6zm-5.7-2.5c0-.6.1-1.3.2-1.5.3-.7.3-.8-1-.2-.5.2-1.1.3-1.3.3-1 0-.8.3.7 1.6 1.5 1.2 1.5 1.3 1.4-.2zm3.6-6c.2-.4-.2-.5-.5-.5 0 0-.6.4-1.2.9-1.9 1.5-3.4 1.7-4.3.5-1-1.2-.6-2.6 1.6-4.2 1-.7 1.2-.8.7-1.1-.4-.2-.4-.2-1.8.7-2.8 1.9-3.6 3.2-3.3 5.1.1.8.5 1.2.9 1.5 2.6 2.5 6.3-.8 7.9-2.9zm2.8 1.1l-.2-2.6c-2.8-2.5-5.5-6.6-6.4-10.1-.9-3.1-.2-9.5 0-9L55 84.9c-1.3 3.1-1.9 7.8-.5 12.6 1.1 4 3.6 8.9 8.6 12zM51.2 108c.9-1.7.9-1.5-.8-1.6-2 0-1.8-.3-.6 1.4.8 1.4.6 1.5 1.4.2zm1.1-2.4c1.1-.4.9-.3 2.4-1.3 1.7-1.1 1.8-1.8.1-.9-2.2 1.1-4.2.8-4.9-.6-.7-1.3.7-2.9 2.9-3.6.8-.2 1.2-.4 1.2-.7 0-1-3.8.3-5.4 1.9-3 3-.4 6.5 3.7 5.2zm-4.9-4.7c.1-.2.4-.5.6-.9 1.1-1.3.2-.9-.8-1.2-.5-.2-1-.4-1.3-.3-.6.1.2 1.2.4 1.9.6 1.6.5 1.5 1.1.5zm4.1-2.8c1.9-.2 2.1-.4 2.1-.8s-.2-.3-1.2-.2c-2.6.4-4.2-.3-4.6-1.7-.4-1.4 1.4-2.8 3.7-2.7 1.2 0 2.1-.4 1.3-.8-.4-.2-3.8-.2-4.6.1-2.3.7-3.2 1.9-3 3.7.3 2.2 1.5 2.8 4.4 2.7.5 0 1.2-.3 1.9-.3zM53 91c0-.3-.5-.4-2.4-.7-2.4-.4-3.5-2.6-2-4 .6-.5 1.9-.7 2.6-.6 1.6.3 2.6.6 2.6.1s-.5-.5-3.4-1.2c-4.5-1-7 3.5-3.4 5.7 1.3.9 6 1.3 6 .7zm1.1-6.4c0-.2-.1-.3-.5-.4-.5-.2-.8-.2-2-1-1.5-1-1.9-3-.9-4.1 1-1-.8-2.2-2.2-1.1-1.4 1.2-1.3 3.1.3 4.6 1.6 1.4 5.3 2.8 5.3 2zm-7.3-.3c1.6-.7 2.7-.3 1.5-1.3-.7-.6-1.2-2.4-1.7-.9-.4.9-.6 2.5-.6 2.7 0 0 0-.1.8-.5zm55.5-3.8c-1.8-.4-3-2.5-2.6-4.5.3-1.1 1.3-3.8 1.5-4 .8-.6.7.2 0 1.7s-1.2 2.7-1 3.6c.3 1.3.8 2.2 2.1 2.5.9.2 1.8-.2 2.4-.6.8-.5 1.5-2 2.4-3.9.3-.5.7-2.2 1.1-1.2.2.5-1.6 4.1-2.3 5-.9 1-2.4 1.7-3.6 1.4zm10.8-1.2c.9.8 2.3 1.3 3.3 1 2.4-.8 3.4-3.1 2.5-6.7-.5-2-.8-3.3-1.2-3.5-.2-.1-.4.1-.6.4-.2.3.1.6.4 1.6 1.1 4 .8 5.8-.5 6.6-2 1.1-3.7-.2-4.3-3-.1-.4-.4-1.3-.4-1.3-.2-.4-1.4-.3-.9 1 0 .8 1 3.3 1.7 3.9zm10.1-10.5c0-1.4-3-7.5-3.2-6.9 0 0 0 1.4.1 2 0 .2.2.4.3.6 2.6 4.6 2.2 7.8-.1 8.5-.8.3-.9.7-.6 1 .7.7 2.4-.7 2.7-1.3.9-1 .8-3.2.8-3.9zm-42.9-1c1-1.1 3.1-4.8 3.7-6.8 2-5.8 4.1-12.5 4.7-18.8.1-.8.1-2 .1-2.1-.2-.2-1.2-.1-1.5.1-.2.2-.1.7-.1 1.3-.9 7-2.6 13.3-5 19.8-1.1 2.8-2.1 4.7-3.4 6.6-.2.3-.5.7-.6.9-.3.5-.1.8.3.6.8-.4 1.3-1.1 1.8-1.6zM77 69.5c3.1-4.3 5.3-9.4 7-15.4 1.1-3.9 2-7.9 2.6-11.9.1-.9.2-1.4 0-1.7-.4-.1-1.2 0-1.5.2-.2.3-.1.8-.2 1.9-.4 3-1 6-2 9.9-2.6 8.7-5 13.6-8.2 17.9-.3.4-.5.6-.5.7 0 .2.3.2.8-.1.8-.5 1.6-1 2-1.5zm-4.6 2.2c1.5-.9 4.2-4.6 6-8.6 2.1-4.8 3.9-10.1 5-14.8.5-2 1.2-7.1 1.1-7.5-.1-.4-1.6-.1-1.4.2 0 0-1.5 8.2-3 12.7-2.9 8.4-5.4 14-8.2 16.8l-1.1 1.1s0 .3.2.4c.6.1 1-.1 1.4-.3zm-2.3-.3c3.4-1.9 7.4-10.8 10.6-22.1.6-1.9 1.6-8.3 1.6-8.3s-1.4.1-1.6.3c-.3.4-.2 1.4-.6 3.7-1.5 7.1-3.7 13.6-7 20-1.4 2.8-3.8 5.5-5.3 6.3-.8.4-1.1.9-.5.9 1 0 1.1.3 1.9-.2l.9-.6zm46.5 99.9c-2.5 0-4.7 2.5-6.6 5.5-4.1 6.3-6.9 16.9-7.5 22.6l1.5-.3c-.2.1 2.9-15 7.6-21.4 2.6-4.1 2.5-4.1 3.9-4.5 1.8-.5 3.3 1.5 2.4 2.7-.3.4-.7.1-.6-.5.3-1.8-2.3-2.2-3.1-.4-.9 2.1 1.4 3.9 3.7 3.1 2-.7 2.8-3.5 1.4-5.6-.7-.7-1.8-1.3-2.7-1.2zm-13.4-.3c-3 3.9-4.6 7.8-6.4 13.2-1.9 5.4-3.2 10.7-3.8 16.8l1.6-.2c-.1-3.9 4.2-22.5 10.1-29.4.3-.4.6-.8.6-.9-.3-1-1.7.1-2.1.5zm6.7-1.4c-4 3.3-7.1 10.4-9.2 17-2.2 7.1-3.3 13.6-3.1 13.6l1.6-.2c-.1-.4 4.4-25.5 12.8-30.1.7-.4.9-.7.3-.9-1-.1-1.7.2-2.4.6zm4.4 0c-8.6 1.1-14.3 27.8-14.5 30v.2l1.7-.4v-.1c1.2-6.8 2.3-11.6 5-17.8 2.1-4.6 5-10.4 9.3-11 .4 0 .7.1.6-.3-.2-.6-1.5-.6-2.1-.6zm-51.4-8.4c-3.1.8-3.2 4.6-1.1 9.4.2.4.1.6.3.7.4.3.6-.1.7-.4.1-.4-.1-1-.5-1.9-1.3-3.3-1-5.3.3-6.1 3.3-1.7 4.1 1.8 4.6 3.4.1.4.2.9.4 1 .7.1 1-.1 1-.1s-.9-3-1.4-4.1c-.9-2-2.9-2.3-4.3-1.9zm-22.6 3.5v39.7l-6 5.7c-2.6-2.2-5.9-5.7-5.9-5.7l.1-67.1-1.9-.2c-.5 28.8 0 58.3 0 87.2H44l14.6-23s.2-.3.2-.4c.2-.4.2-1.1.1-3.6 0-1 .1-1.8-.1-2-.1-.2-.5-.1-.7.1-.3.1-.5.1-.3-.3.1-.2.4-.6.6-1.1.8-1.4 1-1.8.7-3.3-.1-.4-.4-.7-.7-1.1-2.5-3.7-3.5-9.1-2.2-13.1.4-1.8.2-2.1-.6-3.5l-15.3-8.3zm77.2-42.7c-1.6-.8-1.6-.8-1.6.8 0 1.2 0 1.5.5 1.3.6-.3 1.4-.6 2-.9 1.1-.4-.3-.8-.9-1.2zm6.4 4.1c-1.2-1-.8-.9-1.1 1.4-.2 1.4-.5 1.4.9.9.8-.3 2.4-.1 1.7-1 0 0-1.3-1.1-1.5-1.3zm-50 34.7c-1.9 1.2-3.9 6.8-3.9 6.8-6.7.8-9.5 7.4-9.8 13-.2 4.4-.5 9.5-.1 9.9 4.4-2 6.1.3 6.5-.3.2-.3-1-1.2-2.4-2-.3-.2-.9-.5-1.1-.7-.5-.4 1.1-.1 2.1.6 1.3.9 1.5.7.9-1.9-.6-2.8-.7-3.1 1.4-4.3.9-.4 1.3-.8 1.9-1.5.5-.6.6-.7.4.1-.3 1.4-1.6 2-2.7 2.6-.6.3-.8.9-.8 1.4 0 .5.6 3.2.8 4.1.2.8.3 1.7.5 2.5.5 2.2.5 2.6.3 4.2-.1.9-.2 1.5-.2 2s.1 1.2.1 1.2-1.2-1.2-3.8-.2c-1.9.7-3.4 0-4.4-.6-.2.9-.2 1.8-.2 2.8 10.9 2 20.1 1.7 28 .9.2-2.3 1.2-9.7 3.3-16.4.9-2.8 1.8-5.7 2.9-7.7.7-1.3 1.5-2.2 1.8-2.4l.1-.1v-.2c0-.4-.1-1.1-.5-1.4-.9-.7-2.3.2-2.8 1.8-.4 1-2.3 5.2-2.4 5.1-.1-.1-.4-.1-.3-.4.7-1.7 1.7-3.5 2.3-5 .8-2.2 2.5-3.4 3.7-2 .4.5.6.9.8 1.1.1.1.3 0 .5-.2.5-.7-.6-2.4-1.8-2.7-1.7-.5-3 .8-4.9 4.8-1.1 2.3-1.3 2.9-1.5 2.8 0 0-.3 0-.2-.4.2-1 1.7-3.8 2.8-5.6 1.6-2.7 4.5-2.9 5.8-.6.2.3.2.7.4 1 .4.5 1 .4 1.2-.4-.2-.5-1.2-2.5-1.9-2.8-1.7-1.1-3.7-.9-5.4.6-.4.3-.8 1-1.9 3.3-1.7 3.7-1.7 3.7-2.1 3.1.7-1.8 2.4-4.7 3.1-6.5.1-.3.2-.6.2-.8 0-1.3.2-3.6-2.6-5.2-2.3-1.3-5.4.1-6.4 2.6-.8 1.9-1.4 3.2-1.8 3.5-.6.4-.5-.1-.4-.3.8-1.7 1.9-3.5 2.1-5.2.1-4.6-4.6-6.3-7.6-4zM49.5 72.9c3.7-1.7 6.2-2.6 9.9-3.7.5-.2.6-.3 0-1.3-2.4-4.7 4.1-8.5 6.4-3.9.3.6.4 1 .7.7.5-.7 1.2-1.7 1.9-2.9 2.5-3.9 3.6-8.3 4.9-12.3.6-2.3 1.3-4.7 1.5-7.2-4.9-8.7-13.6-24.6-13.6-24.6H26.5v69.7c9.7-8.3 16.3-11.2 23-14.5zm39-2.6c.4-.4.8-1.2 2.3-4.3l.9-1.8c.2-.7 1.1-1.2.7.1-.1.3-.3.7-.5 1.2-.5.9-1 2-1.3 2.7-1.9 3.9-1.8 6.2.3 7.9 1.6 1.6 5 1.7 6.8-.8.3-.4.5-.9.6-1.1.8-1.9 1.4-2.9 1.5-3.1.8-1 .9.2-.3 2.2-1.5 2.3-1.5 4.7-.3 6.4 1.8 2.5 5.1 2.6 7.2.6 1.1-1.3 1.9-2.9 2.6-5 .2-.5.3-.8.4-1.1.2-.4.4-.6 1.1-.7 4.4-.9 8.2-5.5 8.7-10.5.1-.7.3-1.9.3-2.6.1-1.4.1-8.8 0-9.3-.1-.2-.2-.4-.5-.4-.2 0-.5.1-1 .2-1.5.5-2.1.7-3.6.2-.5-.2-.8-.2-1-.2-.6.1.2 1 2 1.9.8.4 1.4 1 .8 1-.2 0-2.4-1.2-2.7-1.3-1-.6-.7.2-.2 2.2.7 2.7.3 3.5-1.9 4.6-.4.2-.9.6-1.2.9-1.1 1.7-.8.4-.3-.5 1-1 .4-1.4-1.6-.7-2.3.8-3.3.2-4-1.1-.7-1.5.6-3.3 1.8-3.3.4 0 .3.1-.2.5-.7.5-1 .9-1 1.7-.1 1.6 1 2.2 2.5 1.2.7-.5 1.3-.8 1.9-1 .6-.1 1.4.1 1.4.5v.7c.1.5.9-.2 1.3-.5 1.2-.9 1.1-1.1.8-2.5-.5-2-.8-3.8-1.3-5.9-.3-1.1-.3-2.3-.1-3.4.1-.5.3-1.7.3-2.4v-1.9c1.2.9 1.6 1.1 2.8.6 1.8-.7 2.9-.7 4.3.1.5.3 1 .5 1 .5l.1-2.3s-1.4-.3-3.9-.6c-7.6-1-23.2-1.2-23.8-.3-.1.2-.3 1.9-.7 4.2-.9 4.8-2 9.5-3.3 14.1-.3.9-.6 1.3-.4 1.4.1 0 .3-.4.5-.5.7-.9.2 1.2-.9 3.7-.1.2-.2.5-.2.5 0 .1-.7 1.9-1.2 2.9-.3.6-.6.8-.5.4.3-1.4 1.2-3.3 1.4-4.5-.8 1.1-1.9 3-2.8 4.2-.2.3 0 .4.1.8.5 1.4 1.8 1.5 2.5.3.4-.7 1.7-3.4 2.1-4.6.5-1.2.8-1.8.9-1.9.3-.2.4.5-.2 1.7-1.6 3.5-2.3 5.4-3.1 6.1-.6.6-1.7.6-2.3-.4-1-1.7-1.9-1.1-.9.6 1 1.8 3.1 1.9 4.3.3.4-.5 2.1-3.9 2.7-5.3.3-.8.6-1.4.8-1.4.6-.2-.1 1.5-1.8 5.1-.6 1.4-1.4 2.8-2.6 3.2-2.9.6-3.3-.9-4.3-2.7-.5-.4-.9.3-.8 1 .3 1.3.9 1.8 1.8 2.4 1.7 1.3 4.3.5 5.2-.9zm13 7.4c-.3-.6-.2-1.2-.1-1.8.3-1.3.8-2.5 1.4-3.6 1-.5.2 1.4.1 1.6-1.2 2.4-1.3 3.4-.2 3.7.9.2 1.4-.3 2.3-2.5.4-1.1.6-1.6.8-1.7.3-.1.5 0 .5.3-.6 1.4-1 2.9-2 4.1-.9 1-2.3 1-2.8-.1zm-8.7-1.8c-.4-.1-1.1-.6-1.6-1-1.6-1.5-1.4-3.6.7-7.5.2-.3.7-1.5.9-1.9.3-.7.7-.4.7 0 0 .1-.5 1.2-1 2.2-2.2 4.4-2.2 6.2 0 7.3 2.1 1 3.1.4 4.8-2.9 1-2.5 1.5-2.6 1.4-1.6 0 .4-1.2 2.8-2 3.9-1 1.5-2 1.8-3.9 1.5zm.2-2.2c-.8-.5-1.2-1.8-.7-2.9.4-.9 1.6-4.2 2.1-4.4.9 0 .4.7-.7 2.8-1.3 2.7-1.2 3.5-.2 3.9.9.4 1.3-.4 2.7-3.6.2-.5.5-1 .7-.9.2 0 .6.1-.1 1.6-.2.3-.5 1.1-.8 1.7-.9 2-1.9 2.5-3 1.8zm15.1-5.8c-.4-.2-2.1-.9-1.8-1.4 0-.1.1 0 .2 0 1.6 1.1 3.5 1.3 5.6-.1.3-.3.6-.1.4.3-.7 1.2-3.5 1.7-4.4 1.2zm-5.1-1.8c0-.1.2-.5.3-.9.2-.7.1-1.2.3-1.2.7.4 2 .4 2.6 0 .7-.4 2.1-.6 2.6-.2.7.5 1.1.3 1.6-.1.6-.5.6-.3 1.6.1.8.3 1.1.5 1.4.4.1 0 .4-.3.5-.3.2 0 .3.8.5 1.6.2.7.1.9-.6.5-.5-.3-1.8-.5-3.3 0-1 .3-1.3.2-2.1.1-1.9-.3-3.3-.6-4.7.3-.7.2-1 .5-.7-.3zm-4.8-3.5c-.9-1.9 1.2-4.4 3.1-3.5.6.3 1.2 1.4.3.9-4.3-.9-3.2 5.5 1.4 2.1 3.1-2 5.2-2.4 5.4-.4-.1.7-.7.6-1.2.7-1.3.2-1.7.4-3.2 1-2.3.7-4.5 1.3-5.8-.8zm16.8.9c-1-.3-2-.7-3-.9-1.1-.2-1.6-.8-1.4-1.5.2-.8 1.3-.9 2.9.1 1.8 1.1 3.1 1.4 3.8 1 1.3-.8.6-2.2-.7-2.6-1-.3-.3-.6.8-.3 1.7.6 1.7 3.6 0 4.3-.6.1-1.6 0-2.4-.1zm-14.6-10c1.2-.8 2.4-1.4 2.8-1.9.2-.2.8-1 .4-.8-2.5 1.5-5.4.3-7.4-.8-1-.5-.8-.3-1.5-.2-.5 0-.9.1-1-.2 0-.2-.3-.1-.5-.1-.8-.1-.3-1.1 1.3-2.2 1.9-1.3 3.6-2.2 5.2-2.6 1.7-.4 3.5-.2 4.7 1.1.5.5.4.8.9.5 1-.7 1 .2.2 1-.6.6-.4.7.4 1.3.3.3.1.5-.1.9-.1.2 0 .5-.1.7-.2.8-3.8 3.6-5.1 4.1-1 .1-.5-.6-.2-.8zm2.5-5.3h-.6c-.7 2.1-2 2.8-3 .3h-.5c0 2.2 3.7 3.6 4.1-.3zm-3.9 2c-.2-.4-.5-1.4-.8-1.4-.7 0-1.7.1-1.5.5.4.8 2.5 1.4 2.3.9zm4.8-.4c.7-.4.8-.7.4-1.1-.5-.6-.8-.3-1 .6-.2.8-.1 1 .6.5zM95 48.4c4.4-2 6-2.3 7.8-1.8.4.1.8.3 1 .3.9-.1.3-1-1.2-1.6-1.7-.6-2.8-.3-6.2 1.4-2 1.1-3.6 2.6-1.4 1.7zm12.6-2.5c-.1-.1-.3-.9-.4-1.2-.1-.3-.1-.6-.2-.6-2 .3-3.8-.1-4.3-.2-3.1-.7-6-.6-8.2.3-.5.2-1.2.6-1.3.6-.2.2-.4 0-.4-.2s1.4-1.3 2.2-1.8c2.6-1.3 5.4-1.5 8.4-.7 2 .8 3.2.6 4.5.1.6-.3.2.4 0 1.3-.1.6 0 1.1 0 1.5 0 .9-.1 1.3-.3.9zm45.7 178.4v-69.9c-17.4 12.1-25 14.5-33.2 17.5 2.7 5.6-3.3 10.5-6.8 4.7-3.6 4-8.5 18.2-8.6 22.9 0 0 9.5 16.5 14.1 24.8h34.5zM90 201.4c.3-3.5 1.1-9.5 3.4-16.4 1-2.9 2.1-6.2 3.8-9.2.7-1 .7-1.4 0-1.1-.4.2-2.5 2.5-2.7 3.1-3.1 6.6-4.5 14.6-5.7 20.6-.3 1.4-.3 3.1-.3 3.1l1.5-.1zm2.3-.3c.7-8.5 3.9-20.1 8.5-27.6.4-.7 1-1.3 1-1.6-.1-.7-1.9.5-3.3 2.7-1.6 3.1-3.1 6.5-4.3 10.1-1.7 5.2-2.9 10-3.4 16.5l1.5-.1zm4.4-.7c.5-4.9 2-9.4 3.3-14 1.6-5.5 3.6-9.6 6-13.3.8-1.2 1.7-2.3 2.6-3.4.1-.1.2-.4.2-.5-.6-.1-1 .1-1.4.3-.6.3-1.4 1.2-1.9 1.8-3.4 4.4-5.3 9.6-7 14.8-1.6 5-2.8 9.8-3.1 14.4l1.3-.1zm-30.8-3.8c.7-.1 1.1.1 1.3-.1.2-.2.1-.7.2-1.3.1-1.4 0-1.3-.8-.4-1.4 1.4-3.9 2-5.4 1.1-.8-.4-1.3-.7-1.4-.4-.1.4 0 .8.4 1 1.8.9 3.5.3 5.7.1zm-1.7-1c1-.3 1.9-.8 2.5-1.6.5-.8.5-.9.1-.7-2 1-3.2 1.5-5 1.2-2.4-.4-2.5-.1-.9.9 1.1.6 1.9.6 3.3.2zm-3.4-3c.4-.3.5-1.4.2-1.4-.3-.1-.7.5-.8.9-.2.5.2.7.6.5zm3.6-.1l.6-.1c-.3-2.8-3.3-2.9-3.9.3l.5.1c.7-2.5 2.5-2.5 2.8-.3zm2-.4c.9-.5.6-1.2-.6-1.4-.8-.2-.8.5-.3 1.4.1.4.3.3.9 0zm-7.1-3.5c0-.3-.1-.8-.3-1.1-1.1-2.2-1.6-4.8-1.5-8 .1-2.3.1-3-.4-3-.7.3-1.1 4.6-.2 8.2.7 2.5 2.5 5.6 2.4 3.9zm0-3.4c-.1-1.2.2-3.9.1-4.5-.2-.8-.6-1.5-.9-1.7-.4-.3-.5.3-.4 1.7.4 3.4.9 6 1.2 4.5zm.4-6.2c.3-.5.2-1-.4-2.1-2.3-4.5-2.6-7.5-.2-8.6.3-.1.4-.1.6-.2.7-.4.5-1.2-.7-.9-3.1.9-3.7 3.8-1.1 9.2 1.3 2.6 1.5 3 1.8 2.6zm.5-2.5c0-.2.1-.9.2-1.1 0-.1-.3-.6-.6-1.4-.9-2.2-.9-3.2.1-3.8.3-.2.6-.2.7-.4.1-.3.1-.9-.1-1-1.4 0-2 .8-2.2 1.6-.4 1.2 0 3 1.1 5.1.3.6.6 1.9.8 1zm1.1-2.9c.7-1.5 0-3.4-1-2.7-.6.4-.7.9-.3 2.1.5 1.4.8 1.6 1.3.6zm2.5-4c.3-.3 0-.7-.5-2.3-.5-1.4-.2-2.4.6-2.6 1.3-.3 1.7 1.8 2 2.6.1.7.6.9 1 .4.1-.1.1-.2 0-1-.8-3.2-1.9-4.2-3.6-3.4-1.6.7-1.4 2.4-.2 5.9.2.5.3.8.4.9 0 0 .1-.3.3-.5zm1.4-1.1c.4-.4.4-.2-.1-1.5-.5-1.5-.7-1.8-1.3-1.3-.3.3-.2.7.2 1.9.5 1.4.6 1.5 1.2.9zm65.7-5.2c2.5-1.7 1.5-4.9-1.8-6-.4-.1-.8-.3-1-.4-1.5-.7-2.7-1-2.7-.4 0 .3.5.5 1.9 1.2 2.1 1.1 2.6 2.3 1.6 3.8-.7 1.2.7 2.4 2 1.8zm2.3-3.8c.2-.9.5-1.7.7-2.2.2-.8-.1-.6-.6-.5-1.4.7-2.4.3-1.7 1.3.8 1.4 1.4 2.4 1.6 1.4zm-.2-3.1c1.7-1 2.1-3.7.5-5-.4-.3-1-.7-1.8-1-1.6-.5-4-.7-4.8-.5-.2.2-.2.6 0 .7.2.1.7.1 1.3.2 2.4.2 3.6 1 3.5 2.7-.1 1.8-1.5 2.4-4 1.9-1.4-.3-2-.2-1.4.2.6.4 2 .9 3.4 1.2 1 .1 2.3.2 3.3-.4zm-8.2-.5c1.9-4.4 3-15.9-8.1-24.2l.4 2.3c6.5 5.8 8.1 13.1 6.7 19.8l1 2.1zm9.9-7.8c-.7.5-1.3.9-2.2 1.3-.5.2-.5.3.2.7.3.2.9.5 1.1.8.4.4.8.6 1 .4 0-.6.2-2.8-.1-3.2zm-3.3.8c2.2-.7 3.4-1.8 3.2-3.6-.4-2.7-2.6-3.2-6.7-2.2-2 .5-2.2 1.4-.3 1 2.4-.6 4.3.3 4 2.1-.1 1.5-1.4 2.4-3.5 2.4-1.1 0-1.5.1-1.3.5.1.2 3.7.1 4.6-.2zm-3.7-6.3c3.7-1.3 5.4-3.2 4.5-5.4-1-2.6-4.2-2.6-7.4-.2-1.5 1.1-1.3 1.5.2 1 1.9-.9 3.1-1 3.9-.3 1.4 1.3.5 3.4-1.7 4.2-1 .4-1.4.7-1.4 1 .1.4.3.2 1.9-.3zm6.2-.1c.1-.8-.8-3.4-1.1-2.8-.1.2-.4.9-.9 1.3-1.3 1.1-1 .7.2 1.1.7.2 1.7.7 1.8.4zm-9.7-5.6c3.7-2.2 5.1-5.2 3.2-7.3-1.7-1.8-4.6-.8-7.2 2.6-1.2 1.5-.3 1.3 1.3-.1 1.9-1.7 4.3-.9 4.3 1.2 0 .9-1.3 2.4-2.5 3.1-.4.2-.4.6-.3.8.2.2.5.1 1.2-.3zm6.5-2.3c-.2-.6-1.6-3.1-1.9-3-.3.6-.3 1.5-.7 2.2-.5 1-.5.9 1.2.9 1.2-.1 1.3.1 1.4-.1zm-10.9-2.8c3.1-3.3 3.4-7.1.5-7.9-1.6-.5-4.2.7-4.2 1.9 0 .8.1.9.8.6 2.7-1 4.9 1.6 2.4 4.7-.6.9-.7 1.1-.5 1.3.2.2.3.1 1-.6zm33.5-27.8V17.6h-18.2l-14.5 22.9v5.6c0 .2.3.3.5.1.8-.6.5 0-.4 1.5-1 1.5-.7 2.7.4 4.2 2.2 3.3 3.4 9.4 2.4 12.6-.4 1.2-.4 1.7-.2 2.4.3.8.4 1.2 1.2 1.7.7.5 6.2 2.6 15 8.4V36.5l5.6-5.4 5.9 5.7.2 66.8c0 .8 2.1 1.4 2.1.4zm-3.2-67l-4.9-4.6-4.9 4.6c0 21.8.1 66.4.1 66.4l4.8.4s.4-1-.1-3.7c-.7-4-.6-8.8.5-16.1.7-4.5 0-8.4-1-12.5-.9-2.7-.9-5.3-.8-7.7.3-3.9 1.4-6.9 1.5-12.5.1-3.2-.1-6.3 0-10.3 0-.5.3-.5.3.1.1 3.6.3 7 .3 10.5-.1 4.5-1.2 9.2-1.3 13.4-.1 2.9-.1 3.9 1.1 7.4 1.9 5.5.6 14 .6 14.1-.8 5.4-1.4 12.4 1.3 17.6l2.6.2-.1-67.3zm-34 41.1c1.5-.7 1.7-1.9 1-4.7-.1-.5-.3-1.1-.4-1.4-.2-.7-.5-.8-.9-.2-.3.3 0 .4.4 2 .6 2.4.2 3.2-.6 3.2s-1.4-.7-1.6-2.2c-.1-.5-.2-.9-.3-1.1-.2-.4-.5-.3-.7.1-.3.5.2 2.6.9 3.6s1.2 1.2 2.2.7zm-.4-2.1c.3-.6-.1-2-.3-3-.2-.5-.4-.7-.7-.6-.5.1-.5.7-.3 1.6.4 2 .6 2.2 1.3 2zm4.5-3.5c1.7-1 1.8-2.6.7-5.6-.5-1.2-1-2.1-1.3-2.1-.1.8-.2 1.2-.1 1.5.1.3.3.7.5 1.1.9 2.2.7 3.5-.2 4.2-.9.6-.4 1.2.4.9zm-54.6-1.1c3.9-.8 7.4-7.2 9.7-12.8 2-5.7 4.2-11.9 4.5-17.1 0 0-1.5.1-1.7.4-.2.3-.2 1-.4 1.9-1 4.8-1.8 8.4-3.6 12.9-1.2 3.1-2.6 6.7-5.9 11.4-1.1 1.3-2.4 2.2-3.9 2.4-.4.1-1.1 0-1.2.1-.3.2 0 .7.7.9.7.1 1.4 0 1.8-.1zm53.9-.8c.6-.6.7-1.4 0-3-.2-.4-.3-.7-.5-.6-.5.1-1 1.4-.7 2.4.4 1.4.7 1.8 1.2 1.2zm-55.2-1c1.1-.2 2.6-1.1 3.6-2.5 2.2-2.8 3.6-6.1 4.7-8.6.9-2 2.5-6.4 2.9-8 .9-3.4 1.4-5.5 1.8-7.9 0-.2.1-.6 0-.7-.5-.1-1.4-.1-1.8.3-.5 3.9-1.8 7.7-2.8 10.9-1.6 5.5-6.1 14.2-8.5 14.6-1.3.2-2.8-.9-2.6-2.1.1-.7.2-1 .6-1.2.9-.3 1.3.3.4.7-1.1.9.9 2.4 2.1 1.4 2-1.7-1-5-3.4-3.5-2.7 1.7-2 4.6-.3 6 1.1.7 2.1.8 3.3.6zm19.1-3.9c1.7-1.7 2.9-4 3.8-6.8 2-6.3 3.6-13.5 4.2-19.1 0 0-1.4-.1-1.7.2-.2.2 0 .4-.6 4.5-1 6-2.5 12-4.7 17.1-.9 2.1-1.1 2.3-1.8 3.4-.8 1.6-.4 2 .8.7zm37.1-13.1c-.2-.1-.1 0-.2 0-.2.2-.1 1 .4 2.2 1.4 2.2 1.5 6.5 1.4 8.1 0 .5-.1.8.1 1.2.1.4.4.9.8.1.4-3.2.1-6.5-1.1-9.2-.4-.9-.9-1.9-1.4-2.4zm1 9.4c.2-.9-.2-4.2-.7-5.4-.2-.5-.6-.5-.6 0 0 1.2-.1 3.4 0 4.1.6 1.3 1.1 2.2 1.3 1.3zm-3.1-13.7h-.6c0 2.2-1.9 2.8-2.7.2l-.6.1c.8 3.8 4.3 2 3.9-.3zm-3.9 1.7c-.3-1-.2-1.3-1-.9-.6.3-1 .7-.1 1.1.8.3 1.3.4 1.1-.2zm4.9-.6c.3-.5.2-1-.2-1-.3 0-.4.2-.5.8-.1.9.3 1.1.7.2zm.4-3.7c.2-.1.2-.4.1-.9-1.1-1.5-3.7-1-4.6-.7-1.1.4-1.4.2-2.1-.1-.6-.1-.7 0-.8.3-.1.3-.2.8-.2 1.6 0 .7 0 1.1.2.8 1-.9 2.1-2 3.7-2 2-.1 3.7 1 3.7 1zm-7.2 2c0 .3.3.1.9-.3 2.4-1.4 3.7-1.2 5.7-.5.4.1.7-.3.2-.7-2.4-2-5.3-.8-6.8 1.5zm8.5-9.1l12.8-21.2-71-.1L75 39.9c9.7-2.3 25.9-5.3 46.1-1.3z"/><path id="path4098-7-2-7_1_" class="st1" d="M52.13 197.256c1.5-2.3 9 1.8 9.4 3.4 4.4-3.5 9.8-3.8 14.1.6 4.4-4.9 9.2-4.5 14.1-1.7-.6-1.1 6.3-6 10.5-2.9l11.3 20.2-72.3.2c4.2-6.4 8-14.1 12.9-19.8zm-25.63-98.056c-.4-1.1-2-12.3 2-12.6 6.5 2.9 14.8 13.3 18.6 19.6 4.8 7.9 9.6 26 6.9 25.2-.4-.1 8.2 8.6 8.8 9.4 1 1.4-14.5 27.3-17 26.4-.8-.3-5.9-3.4-5.9-3.4l.1-8.7.1-17.5-14.2-1.2.5-3.8c4.7.4 9.6 1.3 14 .3 2.9-5.3 1.8-13.3-1.7-16.5-1.8-1.1-3.6-.8-5.4-.5-7.4-1.3-3.5-14.1-6.8-16.7zm126.8 5.8v3.2c-5 1.1-13.8-3.2-16.5 3.7.3 7.4 2 10.7 3.1 13 .9 2 6.9-.3 9.1 1.7 6.1 7.6 4.7 17.7 4.7 26.9l-2.7 1.4c-18.4-10.9-32.5-44.9-34.5-54.6-.1-6.2 16.9-26.2 16.9-26.2l6.2 3.8c.1.1-.1 26.2-.1 26.1 5 .2 9.7.7 13.8 1zm-36.4-23.8C95.4 119 104.2 147 120 171.1c0 0-1.4.3-1.5.2-3.5-3.1-5.9-2.6-7.6-2.6-3.4-.1-4.3 1-6.3 1.2-5 .5-4.5.6-8.7-1-5.3-4.4-12.4-7.7-18-9.5-4.5.4-11.4 2.6-14 .8 18.2-33.8 15.4-55.4-3.4-90.8 1.6.5 1.8 1.9 3 2.3 3.9 1.5 9.2.9 12.4-.5C81 68.9 86.4 75.1 102 82c1.3.7 2.9-.4 4.3-.7 2.9-.6 5.3-1.8 7.5-1.1.4.3 3.1 1 3.1 1zM73.6 36.9C72.7 35.2 63.2 17 63.2 17l70.3.4L123 35c-1 .9-6 3.6-11-2.4-.1.9-7.5 6.2-13.9-.2-3.8 3.5-7.7 5.5-14.2 1.6-.2 1.1-5.2 6-10.3 2.9z"/><path id="path4094-0-9-9_1_" class="st2" d="M75.33 200.856c-6.8-6.4-13.9-.6-13.7-.3-2.7-2.8-5.3-5-8.9-3.9v-1c10.6 2 26.8 2.5 45.8-1.5l1 2.1c-5.1-1.8-7.7.6-10 3.5-8.2-5.2-10.2-.7-14.2 1.1zm21.77-67.356l4.8-.1c.9 14.2 12.6 35.8 12.9 35.8-.8-1.1-8.6-.2-8.5-.1-4.2-11.4-8.8-22.9-9.2-35.6zM69 167.1s-1.6-4.1-2.5-5.8c5.1-8.7 9.2-17.8 11.3-27.8h3.4c-.9 13.9-11.9 34.9-12.2 33.6zm62.1-1.9c7.6-13.8 6.3-33.8-15.3-44.8 0 0 .6-14.6 2.2-14.6.4.1 9.8-.1 9.8-.1 2.5-6.1 6.4-13.5 12-18.4l.1 16.3c-4.1.4-6.6 1.7-7.8 5l-5.7 1.3c.4 16.4 6.5 31.6 24.7 45.2-4.3 3.8-19.2 11.4-19.1 11.3l-.9-1.2zm-91-10.3l.2-17c2.8-.6 4.9.2 7.2-4.8 0 0 3.8 1.8 5.1 2.5-3.6 6.5-6.7 13.3-12.5 19.3zm36.2-30.1l.2-8.6 8.1.2c-.7 2.9-.9 5.9 0 8.8l-8.3-.4zm18.5-.1c.6-2.8 1-5.7-.2-8.7l8.8.2-.2 8.6-8.4-.1zm-16.7-16.9c-1.5-16.9-13-36.1-13.1-35.7 1.4.2 3.7.9 5.1.3 1.6.3 3 .1 3-.1.1-.6 10.7 24.6 9.3 35.5-.2.3-4 .3-4.3 0zm20.3.1c1.2-7.8 4.4-22.1 12-33.7.9 2.1 1.6 4.2 2.8 6.1-5.7 8.4-9.2 18-11.4 27.7l-3.4-.1zm-52.6-4.2c-3.5-7.1-17.9-18.4-17.1-17.2 6-5.4 12.6-8.8 19.2-12.3 0 0 1.2 1.1 1 1.4-4.1 6.5-6.1 20.2-2.1 28.1 3.8 8.4 10.5 13.4 17.4 17.3-.5 5.3-.8 9.1-2.1 14.3 0 0-4.3-2.3-7.9-3.8-.5-9.8-2.5-18.7-8.4-27.8zM84 33.9c5.1 3.1 9.6 2.8 14-1.4 5.5 5.1 11.5 2.7 14 .4 2.3 2.7 5.4 4.1 9.8 3.3l-1.1 2.3c.3-1.2-30.7-3.3-45.8 1 0 0-.9-1.8-.8-1.8 1.4-.2 5.8 1.5 9.9-3.8z"/><path id="path4092-7-7-9_1_" d="M56.13 8.956l12.5 23.6s.4-.1.6-.1c17.4-3.4 31.1-3.9 45.9-1.3l13.1-21.9c-23.8-.3-72.1-.3-72.1-.3zm7.37 8.544l69.7.1-3.9 6.5c-2.3-.7-3.7.4-4 2.6 0 0-.3-.1-.8-.2-3.4-.4-3.9 4.2-.7 4.7.8.1 1 0 1 0-2.9 2.4-4.5.8-5.8 0 0 .3-2.6 2.2-4.9-.1 3.4.3 3.9-3.1 2.3-4.4-.3-.3-.7-.6-.7-.6.8-.7 1-1.6.5-2.7-1-2.2-4.3-2-4.8.3-.2.9-.2 1.1-.2 1.1-2.6.2-3.2 2.7-2.3 4.1.5.8 1.6 1 2.7.9-1.4 2-4.6 1.3-6-.3-2.3 2.7-4.9 2.4-6.1.9.9 0 1.5 0 2.3-.8 1.4-1.3.7-3.6-1.2-4.2-.4-.1-.6-.1-.7-.2 0 0 .1-.1.1-.8.5-4-5.4-3.6-4.8.3.1.5.2.7.2.7s-.6 0-1 .1c-3.3 1.5-1 5.7 1.5 4.6.2-.1.9-.4 1-.4-3.1 3.9-5.8 1.1-6.5.7-2.1 3.2-5.8 1-5.9.8.2.1.9-.1 1.6-.4 2.1-1.1 1.5-3.9-.1-4.5-.5-.2-1.1-.2-1.8-.1 0 0 .1-.7 0-1-1-3.8-5.7-1.9-4.6 1.3.1.3.4.6.4.6s-.6.4-.9.7c-2.2 2 0 5.4 2.7 4 .3-.2.7-.6.8-.5-1.2 2.3-3.1 3.1-5.8 1.2-1.6 2.6-4.3 1.5-5.1.2 2.5.2 4.1-4.6-.7-4.8-.4-1.3-.4-3.3-3.4-3l-4.1-7.4zm34.1 8.4c.6 0 1 .5 1 1 0 .6-.4 1-1 1s-1-.5-1-1c0-.6.4-1 1-1zm15.6.1c.6 0 1.1.5 1.1 1.1 0 .6-.5 1.1-1.1 1.1-.6 0-1.1-.5-1.1-1.1s.5-1.1 1.1-1.1zm-30.6 1.2c.6 0 1 .5 1 1 0 .6-.5 1-1 1s-1-.5-1-1 .5-1 1-1zm43.8 1.2l-.9 1.6c-1-.8-.3-2 .9-1.6zm-56 2.2l-.9-1.6c1.6.1 1.2 1.2.9 1.6zm27-.9c6 6.9 11.3 4.9 14.9.3 1.5 3.9 4.9 6.6 10.6 4-.3.6-1.2 1.7-1.2 1.7-5.1 1.4-7.6-1-9.6-3.3-5.2 4.4-10.1 3.3-14.1-.5-3.4 4.4-9 5.3-14.2 1.7-2.4 3.5-5.7 4.9-10 3.2 0 0-.9-1.4-1-1.5.6.5 8.4 3.8 10.4-4.1 2.7 4.6 11.7 4.8 14.2-1.5zm.6 2.9c6.7 6.4 13.8.9 14 .5.1.4 3.9 5 9.5 3.2l-.9 1.6c-10.4-1.8-20-2.9-42 .3 0 0 3.5-1 5.3-3.9 1 .7 8.6 4.9 14.1-1.7zm-23.5 5.2s2.9.3 3.2.4c.3.2-2.5 1-2.5.9l-.7-1.3zm5.9 30.4c-.2 0-.4.2-.8.6-.8.8-1 .9-1.7 1-.6.1-1.8.8-2.6 1.5-.2.2-.6.3-1 .4-.4.1-.9.2-1.2.2-.3 0-.6.1-.7.2-.4.2-1 .3-1.7.1-.7-.2-.8-.2-1.6 0-1.1.3-1.8.3-2.4 0-.5-.3-1.4-.5-2-.3-.8.3-2.9-1-2.9-1.8 0-.2-1.2-1.1-1.5-1.1-1 0-10.3 3.7-10.3 3.9 11.5 14.3 21.1 36.2 13.9 62.9l-1.3-.6c1.1-4.9 1.5-9.7 1.8-14.7-21.6-9.4-23.4-31.3-15-45.1L48 73.9c-5.1 2.7-10.2 4.3-22.8 14.9v47.9c4.5.5 9.5.9 14.5 1.4 0 0-.1 15.4-.2 21.4-.1 5.1.1 4.8.1 4.8l16.3 8.7c-1.1-4.6 1.7-6.4 4.1-6.2-1-4.4 1.6-6.4 4.5-5.9 2 .4 2.7 1.5 3.9 5.2.2.6.4 1.4.4 1.4h1.1c1.4-3.1 2.4-7.1 5.8-7.6 4.4-.7 6 2.4 6 5.4 4.3-3.8 9.4-.9 9.1 4.8 2.1-1.4 5.8-2.7 8.1 2.7.9-.2 1.3-1.2 2.5-1.5.5-.1 1.5-.7 1.5-.7v-.2s1-.3 2.2-.5c1.1.4.8.4 1.4-.3.7-.3 1.7-.6 2.5-.5.9.1 1.2.1 1.8-.1.8-.3 1.5-.4 2 .1.3.4.8.2 1.3.2 1 0 2.4.4 2.9 1.3.6.7 2 1.3 2 1.3l1.1-.3.1-.4 9.2-3.6c-18.8-20.8-18.3-48.5-13.9-62.5l1.7.8c-.9 4.1-1.9 8.4-1.8 14.6 17 7.6 25.4 27.4 15.1 44.7l1.1 1.4c4.3-1.8 15-7.9 18.8-11.2l.8.1s2.3-1.5 3.3-2.3l.1-45.8-.8.2-.1-2.7-14-1.1c.2-.1.3-.2.4-.5l-.1-25.2c-.5-.8-12.2-7.7-16.6-9.4-.2 0-.1.3 0 1 .2 2.5-1.4 4.7-3.4 4.7-.7 0-.8.3-.8 1.7 0 2-.7 3.4-2.8 4.2-2.5.9-4.2-.4-5.6-5.6-.4-1.4-1.1-1-1.8.8-.3.9-1.4 3.2-2.1 4.4-.5.9-1.3 1.3-2.4 1.8-.9.4-2.7.4-3.8-.2-1.9-1-2.7-2.2-3.2-5.1-.1-.4-.3-.4-.9.1-3.4 2.6-8.2-.1-8.1-4.6 0-1.3 0-1.4-.8-.7-2.3 1.9-5.4.9-6.7-2.1-.2-.6-.4-.9-.6-.9zm-19.5 1.6c.2 0 1 1 1 1 .7.8 1.6 1.2 2.6 1.7.1-.1 11.2 15 13.1 35.9h5.2c-1-20.3-6.5-30-9-36.3l1.9-.6c4.2 8.1 9.3 24.5 9.1 38.8h-8.6c-1.2-14.4-6.7-28.4-14.5-39-.6-.8-1-1.4-.8-1.5zm-3.3 2.1l.9 2.8s.1-.6.4-.9c1.7-1.5 3.3.5 2.5 3.2-.2.8-.5 2.5-.5 2.5s-1.7-.9-2.6-1.2c-2.4-1-3.1-3-1.3-3.2.3 0 .9-.1.9-.1-.8-.6-2.4-2-2.4-2l2.1-1.1zm7.9.3c.7.4 2.6.9 3.6.4.9-.3 1.5-.1 2.4-.1.5 0 1.5-.2 1.5-.2 5.1 10.8 8.6 23.6 9.1 35.3h-4c-1.5-12.4-6.3-25.1-12.3-34.4-.2-.3-.5-1-.3-1zm16.7.2c1.5 0 3.2 1.6 4 4.1.5 1.4.7 1.3 1.3 1.1 1.7-.6 3.5 1.3 1.2 1.6-2.2.4-1 4.8-1.1 5.1-.9.2-2.6-3.6-2.5-4.7.1-2.7-2.4-5-4-3.8-.7.5-.7.9-.9.7-.7-.6-.8-2.3 0-3.2.6-.6 1.3-.9 2-.9zm45.9.9s.1 3.6 0 4.4c-.3 2.4-3.3 2.6-3.5.7-.5.8-.8 1.7-1 2.6l-2.2-1.5c.8-.6 1.6-1.1 2.2-1.9-1.6.1-2.5-1.3-1.4-2.5 1.1-1.4 4.5-1.5 5.9-1.8zm-80.3 1.2l1 1.1C40.2 91 43.2 110.7 64 121c-.1 4.7-.7 9.5-1.9 13.9l-7.7-3.8c.1-17.4-9.7-34-25.3-44.9 5.8-4.5 12-8.6 18.7-11.7zm62.7.1c.4 2 2.3 5.7 2.4 5.5 0-.1-7.9 10.2-11.4 27.6h-2.9c2-11.6 5.8-22.5 11.9-33.1zm24.4.5l1.6 1c-8.2 6.9-13.6 15.7-17.6 25.2l-2.1-1c6.2-13.8 12.3-19.9 18.1-25.2zm2.2 1.5c.4 0 .9.6 1.7 1 .8.4.6.7-.9 1.8-1.7 1.3-1.9 1.3-1.9-.6.1-1.3.4-2.1 1.1-2.2zm-1.9 2c.1 0 .2 0 .2.1.1.5.1 1.7-.1 2.8-.2.7-2.4 2.6-3.2 3.4-.3.2-.5.1-.5-.2 0-.6.1-1.4.1-2.2 0-.2 0-.5.2-.7 1.1-1.4 2.7-3.2 3.3-3.2zm4.1.6c.2.1.2 2.7.1 2.9-.6.2-2.4-.1-2.8-.3-.1-.4 2.3-2.6 2.7-2.6zm-76.8.8l.6 2.5s.2-.3.2-.4c1.2-1.8 2.6-.8 2.6 1.8 0 .8-.7 4-.7 4s-4.5-2.2-4.8-3.1c-.3-.9.1-1.8 1-1.8.3 0 .6-.1 1 0l-1.9-2 2-1zm51 .4l2 .8c-4.2 6.9-8.6 13.8-11.7 29.4h-8.5c1.2-9.5 3.6-18.9 7.9-28.1 0 0 1.7-.5 2.6-.8 0 0-7 16.2-7.8 26.6l4.1.1c2.2-10.2 6.3-20.7 11.4-28zm-16 .2c1.1 0 2 .8 1.9 2.2 0 1.3-.1 1.5-1.1 1-1.2-.7-2.2-.7-3.2.1l-1.2.8s.5-2.3 1.3-3c.8-.7 1.6-1.1 2.3-1.1zM93.2 84c-.1.8-.3 1.1-.5 1.8 0 0 .7-.3 1-.4 1.5-.7 3.1.6 3.1 2.1.1 1-1 2.3-2.4 2.3-.5 0-.9-.1-1.4-.5.3 1.9.4 2.8-1 3.7-1.1.8-3.5-.1-3.4-2.2l.1-1.3-1.2.2c-3.2.1-3.3-3.9-.7-4.5 1-.2 2.2.6 2.2.6-.5-1-.5-2.7.2-3.5 1.6-2 4.2-.2 4 1.7zm28.1-2.5c.2 1.5.8 3.1.6 4.5-.3 1.8-1.8 2.8-2.9 1.7l-.4-.4c-.5.7-.9 2.6-.9 2.6l-2.1-1.3s1.4-1 1.8-1.6c.1-.2.2-.5.2-.5-1.2.4-2.1-.8-1.8-1.9.6-1.7 3.7-2.4 5.5-3.1zm14.5 1.1c.8 0 2 .2 2.9.3.7.1.3.5-1.3 2.2-1.5 1.5-1.5 1.3-2.6 1.3-2.7 0-3.2 0-1.6-1.7.8-.9 1.6-1.7 2.1-2 .2-.1.4-.1.5-.1zm-4.9.3c.1 0 .1 0 0 0 .3.2.2 1 .2 2.1 0 1.2 0 1.2-.5 1.9l-1.8 2.4c-.6.6-.6.6-.9-1-.3-1.5-.1-1.9 1.7-4.1.6-.8 1.1-1.3 1.3-1.3zm8.5.8v3c-5.6 5.5-9.4 11.8-12 18.6l-2-.8c3.5-8.7 8.5-15.5 14-20.8zm-48.6 1.8c-.9 0-1.7.8-1.7 1.7s.8 1.7 1.7 1.7 1.7-.8 1.7-1.7-.8-1.7-1.7-1.7zm0 .6c.6 0 1.2.5 1.2 1.2 0 .6-.5 1.2-1.2 1.2s-1.2-.5-1.2-1.2.6-1.2 1.2-1.2zm-62.3.7c17.5 11.3 25.3 28.9 25.3 44l-1-.4c-1-21.3-12.5-34.5-24.9-43l.6-.6zm103.6.2c.4 0 .9.1 1.7.2 1.4.1 1.6.2.6 1.3-.3.3-.8 1-1.2 1.5-.4.5-.8 1-1 1.1-.3.1-2.8 0-3.6-.1-.2 0 .1-.3 1.3-2.1.9-1.4 1.1-1.8 1.9-1.9h.3zm7.3.5s.3 9.7.1 15.9c-4-.1-6.3 1.4-7.3 4.3l-4.2-2.1c3-7.9 7.1-13.5 11.4-18.1zm-12.4.3c.2 0 .4.5.4 1.4.3 1.7.2 1.9-.5 2.9-.3.5-.8 1.3-1 1.7-.4.7-.7.9-.8.6-.5-1.8-.7-2.9-.5-3.3.3-.6 1.8-2.7 2-3 .2-.2.3-.3.4-.3zm-99.8.1c14.1 8.8 24.4 23.8 24.8 42 0 0-3-1.4-4.8-2.5l-.1-1.8h1l.3 2 2.1-.1-.6-5-3.4.3-.7-2.8 1-.2.6 1.8 2.2-.6-1.2-4.4-3.4.9-1.1-3 1.1-.4.9 1.8 2.1-.7-1.9-4.4-3.1 1.5-1.6-2.9 1.2-.7 1 1.7 1.9-1-2.4-4.1-2.9 1.7-1.5-2.2.9-.6 1 1.2 1.7-1.2-2.6-3.5-2.8 2.2-2.1-2.4 1-.8 1.4 1.3 1.6-1.4-3.1-3.4-2.7 2.5-2-1.8 1-1.1 1.2 1 1.3-1.6-3.3-2.8-2.5 2.5-2.4-1.6v-1.2c.8.3 1.6.7 2.3 1.1l1.2-1.9-3.6-2.4 1-1zm39.2.8l.5 3.1c.5-.8.9-1.4 2-1.1 1.3.5 1.3 2.5.2 5.6-.2.6-.5 1.1-.5 1.1s-.6-.2-1-.5c-.8-.6-2.2-1.2-2.8-2.3-.7-1.2-.7-2.8.6-2.6.3 0 .8.1.8.1l-2-2.6 2.2-.8zm-40 .9l2.4 1.6-.5.9-1.9-.9v-1.6zm61.1.8c.7 1-1.8 3.9 1.5 5.1 0 0 .1.7-.6 1.1-1.6 1.2-3.9-1-3.2-3.2.4-1.4 1.8-3 2.3-3zm6.7 0s1 .7 1.2.9c1.8 1.8 1.8 4.3.2 5.1-1.1.6-2.3.1-2.7-.7-.3-.3.1-.7.5-.7.8 0 1.4-1.5 1.1-3.1-.1-.7-.3-1.5-.3-1.5zm21.4.6s.2 2.1.5 3.1c.9 2.7-.3 4.3-2 3.4-.3-.1-.7-.7-.7-.7l-.2 3.1-2.5-.7c.5-.9 1.3-1.5 1.9-2.5h-.7c-1.5.1-2.1-1.6-.5-3 1.1-1.1 4.2-2.7 4.2-2.7zm13.1.7h1.2c1.6 0 2-.2 1.3.8-.3.4-.9 1.5-1.1 1.9-.4.8-.5 1-1.2 1.1-1 .2-2.1.1-3.2.1-.2 0 .3-.8.5-1.4.7-1.3 1.1-2.2 1.7-2.4.3 0 .5-.1.8-.1zm-4.9 1c.2 0 .3.3.5 1.1.4 1.7.5 1.7-.2 3.1-.3.7-.9 1.9-1.2 2.4-.6 1.3-.7 1.2-1.1.1-.8-2.2-.8-1.9.4-4.4.9-1.5 1.3-2.3 1.6-2.3zm-92.3.6l2.3 1.8-.6.6-1.3-.9-1.8 2 3 2.8 2.6-2.6 2.2 2.3-.7.6-1.3-1.3-1.9 1.7 2.9 3.5 2.9-2.2 1.8 2.4-.7.5-1.2-1.2-1.9 1.3 2.4 3.4 3-1.7 1.7 2.8-.9.5-1-1.5-2.1 1.2 2 3.9 3.2-1.4 1.3 3-1 .4-.8-1.8-2.2.9 1.4 4.1 3.3-.9.8 3.1-1 .3-.5-1.7-2.1.5.9 4.1 3.3-.2.4 3.3h-1l-.3-2h-2.1c0 .7.1 2.1.1 2.1l-1.3-.6c-1.9-12.7-8.6-23.3-18.7-30.7l-.1-1.5 2.5 1.6c-.1.1 2.1-2 2.5-2.5zm96.7 3c.7 0 .4.5-.5 2.2-1 1.8-1.1 1.9-2.9 2.3-2.2.5-2.1.7-.9-1.9.5-1 .8-1.8 1.2-2.2.5-.4 1.6-.3 2.7-.4h.4zm-101.6.5c10.5 6.8 17.1 20.9 17.9 29.5 0 0-.3-.2-.9-.5-.8-.4-1-.6-1.2-1.8-2.1-10.5-7.9-19.3-15.8-25.6v-1.6zm94.2 1.8c.4-.1 1.2 3.1 1 3.8-.2.5-1.7-.7-2.3-.9-.3-.2 1-2.9 1.3-2.9zm-50.4.1v3.3s.4-.5.6-.6c.8-.6 2 .2 2 1.2.1 1.4-.1 1.9-1.2 3.8-.3.6-.8 1.3-.8 1.3s-1.3-.9-2.7-2.3c-1.5-1.5-1.2-3.5.1-3.5.4 0 .7.1 1.1.2-.3-1-1.3-2.9-1.3-2.9l2.2-.5zm40.9 2.5s.7.9 1.5 3.3c.7 2.3-.4 4-2 3.1-.3-.2-.6-.5-.6-.5-.1 1.1.1 3.1.1 3.1l-2.5-.4s1.4-2.2 1.5-2.8c0 0-.2.1-.8.1-2.5 0-2-3 .9-4.7.4-.2 1.9-1.2 1.9-1.2zm14.5.1c.5 0 .3.5-.3 1.8-.7 1.4-.5 1.3-1.9.5-2-1-1.9-1.1.6-1.8.8-.4 1.3-.5 1.6-.5zm-36 .4c2 0 3.5 2 3.2 4.8-.5 4.8-.2 4.5.3 5 .9.9-.3 1.4-1.5.6-.8-.6-1-1.2-1-3.8 0-3.1-.1-3.8-1.2-3.6-.7.2-.9.7-.8 2.8.1 2.9-.1 3.6-1.2 4.6-1.2.9-2.4.1-1.4-.5.5-.6.6-1.3.4-3-.2-1.6-1-7 3.2-6.9zm49.9 2.4c3.8.1 13.5.9 13.5.9l.1 2.9c-.4.3-7.6-.8-13-.7-1.2 0-2.1.6-3 .1.9.4.8 4.7-3 3.7-3.2-1.2-1.7-5.6 2.5-6.7 1-.2 1.9-.2 2.9-.2zm-22 1.9l8.3 4.1c1.2 15.7 6.5 32.2 24.7 44.8-3 2.1-10.4 7.4-18.8 11l-.7-.8c10.1-17.3 2.5-36.3-15.2-44.9 0-4.8.6-9.5 1.7-14.2zm29 2.7c1.6-.1 2 .1 2.1.8.1.7.6.8 1.2.6 1.5-.5 2.3 2.1 1.1 3.2-.7.7-.6 1 0 1 1.5 0 1.5 2-.1 3.2-.6.5-.6.7 0 1 1.1.6.9 1.7-.5 2.6-.8.5-.8.6-.2.8 1.6.4 0 2.8-1.8 2.4-.7-.2-1.4 0-2.1.4-1.9.8-2.2 1-4.2.7-1.8-.3-2.6-.9-3.1-2.5-1-3.2-2.2-6.8-2.2-10.3-.2-2.2 3.4-4.1 5.1-4.2 1.6-.3 3.2.2 4.7.3zm-113 0c1.9 0 3.4 1.6 3.4 3.5s-1.5 3.5-3.4 3.5-3.4-1.6-3.4-3.5 1.5-3.5 3.4-3.5zm38.2 1l-.3 3s.5-.4.6-.5c.9-.8 2.3.1 2 1.3-.1 1-1.9 4.1-2.6 4.8 0 0-2.8-3.1-3.1-3.7-.7-1.4.2-2.8 1.5-2.2.2.1.7.5.7.5l-.9-2.9 2.1-.3zm-38 .3c-1.2 0-2.4.8-2.2 1.8.1.4.8-.2 1.4-.6.5-.3 1.1-.4 1.6-.1.5.2.7.6 1 1 .2.3.5.5.7.4.1-.2.1-.4 0-.5-.2-1.4-1.3-2.1-2.5-2zm92.6.5l1.2.6c1.7 22.2 12.7 35.2 24.4 42.9l-.9.6c-14.3-9.3-24.2-25.8-24.7-44.1zm1.9.9s3.1 1.6 4.7 2.3l.1 2h-1.1l-.4-1.9-2.2.2.7 4.6 3.6-.4.5 2.8-1.2.3-.6-1.7-2.1.5 1.3 4.5 3.3-1.1 1 2.9-1.1.4-.7-1.7-2.1.8 1.7 4.4 3.4-1.1 1.4 2.8-1 .5-1-1.7-2 1.1 2.4 4.1 3.1-1.6 1.4 2.2-1.1.8-1-1.3-1.7 1.1 2.6 3.6 2.6-2 2 2.3-.9.8-1.3-1.4-1.6 1.4 3.1 3.5 2.7-2.4 1.9 1.8-.6.6-1.3-.8-1.7 1.9 3.3 2.9 2.6-2.9 2.2 1.7v1.2l-2-1-1.3 2 3.3 2.5v1c-19-11.6-23.9-29.4-24.9-42.5zm-38.8.2c.8 0 1.7.8 3.1 2.4 4 4.7 2.9 11.9-2.3 15.7-.8.5-1.1.5-2-.3-5.4-4.6-5.7-10.9-.9-16.3.9-1 1.5-1.5 2.1-1.5zm19.1.6c1 1.5 2.2 3.1 2.4 4.9-.1 1.8-1.3 2.2-2.6 1.1-.2 1 .4 2.8.4 2.8l-2.3-.2s.9-1.6.9-2.6c-1.6 1.1-2.8-.3-2.6-1.5.5-1.9 2.2-3.3 3.8-4.5zm-19 1.2c-.2 0-.4.1-.7.4-1.4 1.1-2.5 2.5-3.1 4-1.2 3.1-.4 6.6 2.3 9.3 1.4 1.4 1.9 1.3 4-1.6 1.8-2.4 2.1-5.4 1-8.1-.5-1.3-1.5-2.6-2.6-3.5-.5-.3-.7-.5-.9-.5zm44 .6l1.8.9c2.3 15.1 9.6 24.3 17.8 30.7v1.4l-2.2-1.7-2.6 2.8-2.1-1.8.8-.8 1.2.8 1.6-1.8-3.1-2.8-2.7 2.3-2.2-2.3.7-.6 1.5 1.4 1.7-1.5-3-3.4-2.7 2-1.9-2.5.8-.5 1 1.4 2.1-1.3-2.2-3.4-3.1 1.6-1.6-2.9.9-.4 1 1.6 1.9-.9-1.9-4-3.2 1.1-1.2-3.1.9-.3.8 1.9 2.1-.7-1.5-4.3-3.3.9-.8-3.2 1-.2.5 1.7 2.3-.5-.8-4.1-3.4.4c-.1-.7-.6-2.6-.6-3.3l1-.1.3 1.8 2.3-.1.1-2.2zm-43.9.3c1.2.2 2.7 2.6 3.1 3.4.6 1.7.7 3.7.1 5.3-.5 1.3-1.9 3.5-2.9 4.1-.7.4-1.4.1-2.4-1.4-2.1-2.9-2.5-6.3-.8-8.7 1.2-1.7 2.1-2.7 2.9-2.7zm46.3.8l.9.4c1.1 8.8 6.2 20.8 16.3 28v1.1c-7.8-5.8-15.1-15.6-17.2-29.5zm-46.5.6c-3.5 2.7-3 6.9-.3 9.7 2.9-2 3.9-7.1.3-9.7zm-53.7.1c2 0 3.2.7 3.8 2 .9 2.2 1.1 2.6 1.3 3.7.1.6.3 1.6.4 2.2 1 5.9.3 8.1-3.3 9-1.1.3-2.5.4-3.5.1-.3-.1-1.3-.1-2-.1-1.5-.1-2-.2-2.8-.8-.3-.2-.5-.4-.9-.5-1.8-.3-2.3-1.9-.9-3.1.8-.7.8-.8.8-.9 0-.1-.4-.1-.7-.1-1.8 0-1.8-1.9 0-3.2.8-.6 1.2-1.2.7-1.1-1.6.4-2.2-2-.5-2.7.9-.5 1.5-.9.7-1-.7.1-1.3-.5-1.1-1.1.3-.8 1.8-1.5 2.6-1.2.7.2 1.3.4 1.7.1 1-.7 1.5-1.1 2.3-1.2.5 0 1-.1 1.4-.1zm59 .5l8.2.2-.2 8.1-7.7-.1c0-.1 1.6-3.7-.3-8.2zm-18.3.2l7.8.1c-1.3 3-.8 6.2-.3 7.9l-7.6-.1.1-7.9zm13.1 0c2.1 1.2 2.7 5.7-.2 8-2.8-2.8-2.3-6.4.2-8zM70.4 120l2.1.2-.7 3s.3-.4.4-.4c2.7-1.3 2.9 1.6.1 4.2-.6.6-1.6 1.4-1.6 1.4s-.8-1.2-1.4-2.2c-.7-1.1-1.2-2.2-1-2.8.2-.9 1.2-1.5 1.9-.9l.7.7-.5-3.2zm37.4 2.2s.9.9 1.4 1.5c1.8 2 2.2 4 1.2 4.5-.8.4-1.3.1-2-.4.1 1.3 1.1 3.1 1.1 3.1l-2.8.4s.7-2.5.6-3.5c0 0-.6.4-.8.5-1.8.7-2.7-1.4-1.2-3.5 1.4-1.5 2.5-2.6 2.5-2.6zm37.7 3.9c1.9 0 3.4 1.5 3.4 3.4s-1.5 3.4-3.4 3.4-3.4-1.5-3.4-3.4c.1-1.9 1.6-3.4 3.4-3.4zm1.7 1.5c-.1 0-.3.4-.3 1.1-.2 1.5-1.4 2.1-2.8 1.4-.6-.3-1-.7-1-.4 0 .2.4 1.1.8 1.4 1.2 1.1 4 .8 3.9-1.7-.1-1.1-.4-1.9-.6-1.8zm-60.9 1.3c.4 0 .8.1 1.1.4.9.6 1.1 1.4 1.1 4.5.1 2.7 0 2.8.4 3.1 1.1.8 1.7-.4 1.4-3.1-.3-2.6.6-4.5 2.2-4.5.8 0 .9.5.3 1-.6.6-.8 1.4-.6 2.9.5 3.9.1 5.8-1.6 6.6-1.7.8-3.9-.1-4.2-2.3-.2-1.4-.2-3.1-.1-4.7 0-1.7 0-1.9-.6-2.8-.2-.8.1-1.1.6-1.1zm-42.5 1.2c.9 0 1.9.5 2.5 1.8 1.4 2.9-1.6 5.3-4.4 5.5-4.8.1-10.5-.6-15.4-1.3l.1-2.8c4.4.3 9.4.6 14.8.9-.6-2.5.9-4.1 2.4-4.1zm25.4.6l2.7.6-1.7 2.8c.5-.2.9-.4 1.4-.2 1.1.4 1.1 1.8.3 3.1-.6 1-2.4 2.1-3.6 2.8-.7-1.5-2.2-4.1-1.6-5.5.3-.8 1.2-1.1 2-.7.3.2.8.4.8.4l-.3-3.3zm6.3.1l8.2.1c-1.2 8.4-3.5 19.5-8.1 28.6l-1.9.5c4-9 6.7-17.5 8-27h-4.1c-2.4 10.2-5.8 19.6-11.2 27.8L64 160c5.7-9.2 10.3-19.4 11.5-29.2zm18.7.1h9.1c1.7 17 7.4 28.6 15.8 40.1 0 0-.5.1-.8 0-.9-1.1-1.7-1.8-3-2.1-7.1-10.4-11.9-24.8-13-35.9h-5.4c.6 13.9 4.4 25.3 9.5 36.4l-2.8.5c-4.1-9.9-8.6-18.5-9.4-39zm14.2 2.1c.8.6 1.6 1.2 2.3 1.7 2.1 1.5 2 4.2 0 4.2h-.7s.8 1.8 1.3 2.7c-.8.2-2.6.6-2.6.6s.2-1.8.2-3.2c0 0-.3.4-.6.5-1.3.6-2.4-.6-2.3-2 .3-1.9 2.4-4.5 2.4-4.5zm-60.9.4l4.5 2.3c-3.1 7-6.6 13.6-11.6 18.6l.1-16.3c2.7-.1 5.6-.1 7-4.6zm30.7.2H81c-1.2 13-9.7 30.5-11.3 32.7l-.5.4s-1.1-4-2.4-5.4c4.7-6.6 9.7-19.1 11.4-27.7zm19.4 0h4.2c1.3 10.3 4.5 21.5 12.5 35.1 0 0-.8.1-1.4-.3-1.4-.9-2.3.3-3.1.2-1.3-.1-1.5-.1-2.8.2-6.8-14.1-8.6-25.2-9.4-35.2zm-45.1 2.3l1.5.7c-3.2 7.5-6.1 13.4-13.7 20.7v-2.2c5.4-5.1 9-12 12.2-19.2zm2.2 1.1c.7.3 1.5.7 2.2 1.1.2.1.2.3.2.5-.3.7-1.5 1-2 1.2-.6.2-1.1.3-1.2.3-.6.2-.4-.5.3-1.9.2-.8.3-1.2.5-1.2zm3 1.6c.4 0 2.2 1 2.6 1.3.1.4-.3 1.1-.8 2.3-.9 1.9-1 2-1.3.4 0-.3-.3-1.2-.5-1.8-.4-1.3-.4-2.1 0-2.2zm3.2 1.5l1.4.7c-4.7 14.1-17.1 25.8-17 25.6l-1.9-1.2c8.2-7.5 14.3-16.4 17.5-25.1zm-4.9.2c.5 0 .1.6-.6 1.9-.6 1.3-.8 1.8-1.3 2-.8.3-1.9.3-2.9.5-.4.1-.2-.3.4-1.6.8-1.6.8-1.9 2-2.2.8-.1 1.7-.6 2.4-.6zm1.6 2.8c.5 1.8.5 2.1.1 2.7-.6 1.1-1.4 2.5-1.6 2.8-.5.9-.7.7-1-1.5-.2-1.4-.4-2-.2-2.6.3-.7 1.1-2.2 1.5-3.2.7-1.8 1.1 1.6 1.2 1.8zm8.6-1.5l2.5.8-1.9 2.3s.8-.1.9-.1c1.9.1 1.6 2.1.1 3.2-.6.6-3.7 2-3.7 2-.3-1.7-1-2.8-.8-4.6.1-1 .2-1.8 1.4-1.8.6 0 .9.6 1.3 1.1l.2-2.9zm44.5 2.1s1.5.8 2.8 1.8c1.8 1.4 2.1 3 .3 3.6-.2.1-.8 0-.8 0 .5.9 1.7 2.2 1.7 2.2-.6.4-1.4.7-2.3 1 0 0-.2-2.2-.4-3 0 0-.2.5-.5.7-1.7 1.1-3.1-1-2.1-3.5.4-1.5 1.3-2.8 1.3-2.8zm-18.9.4c4.3-.1 1.8 7-.4 6.5 0-.1 1.8-4.2-.7-4.9-1.1-.3-.1-1.7 1.1-1.6zm-7.1.5c1.3 0 2.3.9 1 1.5-2 .9-.8 3.2-.8 4.5 0 .8-1.8-.7-2.2-2.3-.4-2-.2-3.6 2-3.7zm-31.7.7c.3 0 .5 0 .6.1.1.3-.5 1.4-1.3 2.7-.5.7-.7.9-.9 1.1-.7.4-1.6.3-2.4.3-1.2 0-1 0 .3-2.1.6-.9 1-1.7 1.3-1.9 0 0 1.5-.2 2.4-.2zm1.5 1.5c0 2.6.9 3.4.2 4.2-.8 1.3-1.8 2.6-2.1 3.1-.6.7-.5.6-.7-1.3-.1-1.4-.2-2.3-.1-2.8.5-1.3 1.1-1.9 1.8-3.2.6-1.1.9-.9.9 0zm33.9 1.3c1.2 0 2 1.4 2 2.6l-.1 1.2c1.6-.6 3.6 0 3.7 1.6.2 2.7-1.8 2.4-3.5 2.3.2.1.4 2.4-.6 3.4-1.6 1.8-4.5 0-3.7-2.6.2-.5.2-.9.2-.9s-1 .4-1.4.4c-3.2-.1-2.9-4.7.3-4.1.6.1 1.1.3 1.1.3s-.1-.3-.2-.7c-.5-2 .5-3.5 2.2-3.5zm63.2.8l1.7 1v1.9l-2.4-1.8.7-1.1zm-102.1 1.3c.7 0 1.2 0 1.1.2 0 .3-1.5 2.4-2.3 3.4-.7.8-.8.7-2.7.6-.7 0-1.2 0-1.2-.2.8-1.1 2-2.5 2.8-3.7.3-.2 1.4-.3 2.3-.3zm1.6.9c.1 0 .2.3.2.9 0 .5.1 1.8.1 2.5.1 1.1.1 1.1-.3 1.8-.6.6-1.1 1.5-1.9 2.2-1.1 1.2-1 1.3-1-1.3 0-2.1-.1-2.1.3-2.5.2-.3.9-1.1 1.4-1.8.7-1.2 1.1-1.8 1.2-1.8zm10.6.3l2.3 1.2-2.3 2.3h.8c1.5.3 1.3 1.8-.1 3-.9.6-4 1.7-4 1.7-.1-1.3-.4-2.5-.3-3.9 0-.7.1-1.4.6-1.9.3-.4.9-.6 1.7-.1.4.4.6.8.6.8l.7-3.1zm26.7.8c-.9 0-1.6.7-1.6 1.6s.7 1.6 1.6 1.6 1.6-.7 1.6-1.6-.7-1.6-1.6-1.6zm25.3.4s3 1.1 4.3 2.4c1.2 1.1.7 2.8-.6 2.8-.1 0-.6-.1-.6-.1.4.6 1.8 2.2 1.8 2.2l-2.3.9s-.4-1.8-.7-2.8c-.8 1.9-2.8.7-2.9-.5-.2-1.6.5-3.3 1-4.9zm-25.3.2c.6 0 1.1.5 1.1 1.1s-.5 1.1-1.1 1.1-1.1-.5-1.1-1.1c0-.6.5-1.1 1.1-1.1zm-43.8 2.3c.8 0 1.8 0 2.2.1.3.3-.4 1.1-1.7 2.5-1.1 1.2-1.3 1-2.6 1-2.2 0-2.3 0-1.3-1.1 1.1-1.3 1.8-2.1 2.3-2.4.2-.1.6-.1 1.1-.1zm2.7 1.1c.2 0 .2.6.1 1.9l-.1 2.3-1.7 1.7c-2 1.8-1.8 1.9-1.8.2 0-1.4 0-2.3.3-2.9.9-1.1 1.8-2 2.8-3 .3-.1.4-.2.4-.2zm44.3.6c.5 0 1.7 2.1 2 3.9.7 4.1 3.1 6 4.8 4.4.7-1 .8.1.7.6-.4 5.2-6.2 3-6.8-2.1-2 1.3-3.9-1.4-2.7-1.3 3-1 2.2-3.7 2-5.5zm-6.7 0c.3 1.8-2.9 4.9-4.7 2.7-.9-1.1-.1-3.4 1.1-2 1.2 1 2.5-.1 3.6-.7zm-44 2.5c.7 0 1.6.1 2 .1.6.1.2.3-1.1 1.5-1.1 1-1.4 1.5-1.5 1-.1-.7 0-1.5 0-2.5.1-.1.3-.1.6-.1zm14.9 1.2l2 1.4-1.9 1.8c1.7-.1 1.9 1.6 1.2 2.5-.4.6-2.1 1.3-3.7 1.6-1 .2-1.8.3-1.8.3s0-.8-.1-2.1c-.1-2.6.1-3.7 1.1-4.2.7-.4 1.9.2 2.2.9.1.2.4.6.4.6l.6-2.8zm-12.5.1c.1.2-.3 4.4-.3 4.4l-2.8-1.6s2.8-2.7 3.1-2.8zm74.8.5c2 1 3.5.8 4.9 2 1.2.6.8 2.3 0 2.7-.4.1-1 .1-1 .1.7.9 2.3 2 2.3 2l-2.5 1s-.3-1.7-.7-2.6c-.5 1.4-2 1.3-2.9.7-.6-.5-.9-2.1-.6-3.5.2-.3.5-2.4.5-2.4zm-13.2 39.8c-24.5 5.9-44.3 2.2-46.3 1.5l-1.6 2.3c-.2.4-.3 1.6-1.4 1.9L54 209l.3.3-1.4 1.2.3.4-1 1.5h-.4l-2.4 3.6.4.4-5.4 8.6h73.5c-4.2-8-8.8-16-13-24.1zm-.4 1l.4 1.2c-1.2-.2-2.6-.2-4.1-.3 1.3-.2 2.5-.5 3.7-.9zm-4.3 1.1c-2.3 1.1-3.7 2.4-4.8 3.8-1.3-1-3-1.8-5.1-2.3l9.9-1.5zm-41.3.6l1 .1s-.3.3-.6.2c-.2 0-.4-.3-.4-.3zm46.8.6l.7 1.3c-1.6-.9-8.4-2.8-10.3 4-2-2.8-10.4-6.8-14.7 1.8-1.2-2.3-8.2-9-14.7-.5-2.5-5.3-4.6-5.7-9.3-5 3.3-3.2 7.9.1 9.9 2.9 5.5-4.6 10.2-3.2 14.2.5 5.2-5.7 10.4-4.4 14.1-1.5 2.6-3.8 5.1-5 10.1-3.5zm-42.8 0c3.3.4 6.6.7 9.9.8-1.9.7-3.9 1.3-5.4 2.7-1.2-1.6-2.8-2.5-4.5-3.5zm23.8.6c-1.8.9-3.7 2.1-5.3 3.5-1.7-1.4-3.4-2.6-5.3-3.2 3.5.1 7.3 0 10.6-.3zm21.1 2.7s-.7.1-.9.2c-2.9.8-2.3 4.9.7 4.9.3 0 1-.1 1-.1-.1 2.8.8 3.5 3.6 3.3l4.8 8.7-71-.3 4.5-7.3c2.3.3 3.7-1 3.2-3 0 0 1.4.4 1.8.4 2.6 0 3.2-4 .8-4.7-.3-.1-1-.2-1-.2 1.1-2.8 4.2-1.2 5.1 0 2-1.7 4.2-.9 5.1 1.2 0 0-.4-.2-.5-.3-2.3-1.7-4.5 1.8-2.2 3.5.2.2.7.3.7.3s-.3.2-.5.7c-1.2 2 .7 4.5 3 3.8 1.8-.7 1.8-2 1.8-3.5 0 0 .6 0 1.2.1 2.1 0 2.7-2.7 1.4-4-.7-.7-1.6-.6-2.1-.7 2.5-2.4 4.1-.8 5.8.4.3 0 3-3.3 6.3-.1-1.6-.4-3.2.6-3.2 2.3 0 1.1.8 2 2.4 2.1-.2.5-.3.9-.3 1.5 0 1.7 1.3 2.8 3 2.6 1.4-.2 2.5-1.8 2-3.2-.2-.6-.5-.8-.5-.8 3.8.5 3.8-4.4.8-4.7-.7-.1-1.3.2-2 .9 1.8-3.6 5-2.9 6.2-1.4 1.6-1.2 3.9-2.9 6.6.1-.4-.1-1.1-.1-1.6 0-2.2.6-2.2 3.3-.5 4.2.5.2 1.1.4 1.7.4-.6 2.3 2 4 3.8 2.9 1.3-.8 1.6-2.7.2-4.4 2.4-.1 2.6-3.1 1.2-4.1-1.1-.8-2.3-.4-3.2.7-.3-.9 2-3.8 5.3-1.7 1.7-1.8 3.5-2.2 5.5-.7zm1 2.3l.9 1.7c-.6 0-1.5-.6-.9-1.7zm-11.9 1.7c.6 0 1 .5 1 1.1 0 .6-.5 1.1-1 1.1-.6 0-1-.5-1-1.1-.1-.6.4-1.1 1-1.1zm-43.1.1c.1.6.2 1.1-.8 1.2l.8-1.2zm12 1c.5 0 1 .4 1 1s-.4 1-1 1-1-.4-1-1 .4-1 1-1zm15.9.3c.6 0 1 .5 1 1 0 .6-.5 1-1 1-.6 0-1-.5-1-1s.4-1 1-1z"/><path id="path153-6-3-1-9-0-4-7_1_" d="M42.73 15.056c-7.3 10.5-15.2 16.5-15.3 24.7 0 2.7 1.4 7.2 5.9 8 2.9.6 6.9-1.8 7-6.6 0-1 1-.9 1 .4-.1 3.8-1.3 8.2-3.3 11.8h9.6c-2-3.6-3.2-8-3.3-11.8 0-1.3 1-1.3 1-.4.1 4.8 4.1 7.1 7 6.6 4.5-.9 5.9-5.4 5.9-8-.3-8.2-8.1-14.2-15.5-24.7z"/><path id="path153-6-3-1-8-6-4-8-4_1_" d="M125.23 211.556c-7.3-10.5-15.2-16.5-15.3-24.7 0-2.7 1.4-7.2 5.9-8 2.9-.6 6.9 1.8 7 6.6 0 1 1 .9 1-.4-.1-3.8-1.3-8.2-3.3-11.8h9.6c-2 3.6-3.2 8-3.3 11.8 0 1.3 1 1.3 1 .4.1-4.8 4.1-7.1 7-6.6 4.5.9 5.9 5.4 5.9 8-.3 8.2-8.2 14.2-15.5 24.7z"/></g></svg>