<svg xmlns="http://www.w3.org/2000/svg" width="166.5" height="226.6" viewBox="0 0 166.5 226.6"><g><path d="M124.506 15.35c-7.8.2-11.3 9-5.5 15.8.8 1 .9 1.6-.6.6-3.9-2.6-11.4-.9-11.8 7.1-.5 9.8 13.3 12.7 15.8 2.2.1-1.1 1-1.1.8.5-.2 4.2-1.6 8.2-3.4 12.1h9.3c-1.8-3.9-3.1-7.8-3.4-12.1-.2-1.6.7-1.6.8-.5 2.6 10.4 16.3 7.6 15.8-2.2-.4-8-7.9-9.7-11.8-7.1-1.5 1-1.5.4-.6-.6 5.9-6.8 2.4-15.6-5.4-15.8z"/><path d="M42.006 15.35c-7.8.2-11.3 9-5.5 15.8.8 1 .9 1.6-.6.6-3.9-2.6-11.4-.9-11.8 7.1-.5 9.8 13.3 12.7 15.8 2.2.1-1.1 1-1.1.8.5-.2 4.2-1.6 8.2-3.4 12.1h9.3c-1.8-3.9-3.1-7.8-3.4-12.1-.2-1.6.7-1.6.8-.5 2.6 10.4 16.3 7.6 15.8-2.2-.4-8-7.9-9.7-11.8-7.1-1.5 1-1.5.4-.6-.6 5.9-6.8 2.4-15.6-5.4-15.8z"/><path d="M124.506 211.85c-7.8-.2-11.3-9-5.5-15.8.8-1 .9-1.6-.6-.6-3.9 2.6-11.4.9-11.8-7.1-.5-9.8 13.3-12.7 15.8-2.2.1 1.1 1 1.1.8-.5-.2-4.2-1.6-8.2-3.4-12.1h9.3c-1.8 3.9-3.1 7.8-3.4 12.1-.2 1.6.7 1.6.8.5 2.6-10.4 16.3-7.6 15.8 2.2-.4 8-7.9 9.7-11.8 7.1-1.5-1-1.5-.4-.6.6 5.9 6.8 2.4 15.7-5.4 15.8z"/><path d="M42.006 211.85c-7.8-.2-11.3-9-5.5-15.8.8-1 .9-1.6-.6-.6-3.9 2.6-11.4.9-11.8-7.1-.5-9.8 13.3-12.7 15.8-2.2.1 1.1 1 1.1.8-.5-.2-4.2-1.6-8.2-3.4-12.1h9.3c-1.8 3.9-3.1 7.8-3.4 12.1-.2 1.6.7 1.6.8.5 2.6-10.4 16.3-7.6 15.8 2.2-.4 8-7.9 9.7-11.8 7.1-1.5-1-1.5-.4-.6.6 5.9 6.8 2.4 15.7-5.4 15.8z"/><path d="M83.206 54.95c-7.8.2-11.3 9-5.5 15.8.8 1 .9 1.6-.6.6-3.9-2.6-11.4-.9-11.8 7.1-.5 9.8 13.3 12.7 15.8 2.2.1-1.1 1-1.1.8.5-.2 4.2-1.6 8.2-3.4 12.1h9.3c-1.8-3.9-3.1-7.8-3.4-12.1-.2-1.6.7-1.6.8-.5 2.6 10.4 16.3 7.6 15.8-2.2-.4-8-7.9-9.7-11.8-7.1-1.5 1-1.5.4-.6-.6 6-6.9 2.5-15.7-5.4-15.8z"/><path d="M124.506 94.45c-7.8.2-11.3 9-5.5 15.8.8 1 .9 1.6-.6.6-3.9-2.6-11.4-.9-11.8 7.1-.5 9.8 13.3 12.7 15.8 2.2.1-1.1 1-1.1.8.5-.2 4.2-1.6 8.2-3.4 12.1h9.3c-1.8-3.9-3.1-7.8-3.4-12.1-.2-1.6.7-1.6.8-.5 2.6 10.4 16.3 7.6 15.8-2.2-.4-8-7.9-9.7-11.8-7.1-1.5 1-1.5.4-.6-.6 5.9-6.8 2.4-15.6-5.4-15.8z"/><path d="M42.006 94.45c-7.8.2-11.3 9-5.5 15.8.8 1 .9 1.6-.6.6-3.9-2.6-11.4-.9-11.8 7.1-.5 9.8 13.3 12.7 15.8 2.2.1-1.1 1-1.1.8.5-.2 4.2-1.6 8.2-3.4 12.1h9.3c-1.8-3.9-3.1-7.8-3.4-12.1-.2-1.6.7-1.6.8-.5 2.6 10.4 16.3 7.6 15.8-2.2-.4-8-7.9-9.7-11.8-7.1-1.5 1-1.5.4-.6-.6 5.9-6.8 2.4-15.6-5.4-15.8z"/><path d="M158.405 197.75c3.1-.1 4.5-3.7 2.2-6.6-.3-.4-.4-.7.2-.3 1.6 1.1 4.6.4 4.7-2.9.2-4.1-5.3-5.3-6.3-.9-.1.5-.4.4-.3-.2.1-1.8.6-3.4 1.4-5h-3.7c.7 1.6 1.3 3.3 1.4 5 .1.7-.3.7-.3.2-1-4.4-6.5-3.2-6.3.9.2 3.3 3.1 4 4.7 2.9.6-.4.6-.2.2.3-2.4 2.9-1 6.5 2.1 6.6z"/><path d="M8.106 28.85c-3.1.1-4.5 3.7-2.2 6.6.3.4.4.7-.2.3-1.7-1.2-4.7-.5-4.8 2.9-.2 4.1 5.3 5.3 6.3.9.1-.5.4-.4.3.2-.1 1.8-.6 3.4-1.4 5h3.7c-.7-1.6-1.3-3.3-1.4-5-.1-.7.3-.7.3-.2 1 4.4 6.5 3.2 6.3-.9-.2-3.3-3.1-4-4.7-2.9-.6.4-.6.2-.2-.3 2.5-2.9 1.1-6.6-2-6.6z"/><path d="M4.006 26.35c1.7-9.1 3.6-16 8.4-23.5h-9.8v3.2h-2.6v-6h14.4l1.8 2.8c-5.2 5.6-9.9 23.7-9.1 23.5h-3.1z"/><path d="M162.505 200.25c-1.7 9.1-3.6 16-8.4 23.5h9.8v-3.2h2.6v6h-14.4l-1.8-2.8c5.1-5.6 9.8-23.7 9-23.5h3.2z"/></g></svg>