<!-- Generator: Adobe Illustrator 19.2.1, SVG Export Plug-In  -->
<svg version="1.1"
	 xmlns="http://www.w3.org/2000/svg" xmlns:xlink="http://www.w3.org/1999/xlink" xmlns:a="http://ns.adobe.com/AdobeSVGViewerExtensions/3.0/"
	 x="0px" y="0px" width="166.5px" height="226.6px" viewBox="0 0 166.5 226.6" style="enable-background:new 0 0 166.5 226.6;"
	 xml:space="preserve">
<defs>
</defs>
<g id="g5481_1_" transform="matrix(0.99999718,0,0,1.000002,0.0059402,-5.5505123)">
	<path id="path147-0-8-1-6-13-2-0-1-5_1_" d="M124.5,20.9
		c-7.8,0.2-11.3,9-5.5,15.8c0.8,1,0.9,1.6-0.6,0.6c-3.9-2.6-11.4-0.9-11.8,7.1c-0.5,9.8,13.3,12.7,15.8,2.2c0.1-1.1,1-1.1,0.8,0.5
		c-0.2,4.2-1.6,8.2-3.4,12.1c3.1,0,6.5,0,9.3,0c-1.8-3.9-3.1-7.8-3.4-12.1c-0.2-1.6,0.7-1.6,0.8-0.5c2.6,10.4,16.3,7.6,15.8-2.2
		c-0.4-8-7.9-9.7-11.8-7.1c-1.5,1-1.5,0.4-0.6-0.6C135.8,29.9,132.3,21.1,124.5,20.9C124.5,20.9,124.5,20.9,124.5,20.9L124.5,20.9z"
		/>
	
		<path id="path147-0-8-1-6-75-2-83-2-0-7_1_" d="
		M42,20.9c-7.8,0.2-11.3,9-5.5,15.8c0.8,1,0.9,1.6-0.6,0.6c-3.9-2.6-11.4-0.9-11.8,7.1c-0.5,9.8,13.3,12.7,15.8,2.2
		c0.1-1.1,1-1.1,0.8,0.5c-0.2,4.2-1.6,8.2-3.4,12.1c3.1,0,6.5,0,9.3,0c-1.8-3.9-3.1-7.8-3.4-12.1c-0.2-1.6,0.7-1.6,0.8-0.5
		c2.6,10.4,16.3,7.6,15.8-2.2c-0.4-8-7.9-9.7-11.8-7.1c-1.5,1-1.5,0.4-0.6-0.6C53.3,29.9,49.8,21.1,42,20.9C42,20.9,42,20.9,42,20.9
		L42,20.9z"/>
	<path id="path147-0-8-1-6-7-5-5-7-7-7-6_1_" d="
		M124.5,217.4c-7.8-0.2-11.3-9-5.5-15.8c0.8-1,0.9-1.6-0.6-0.6c-3.9,2.6-11.4,0.9-11.8-7.1c-0.5-9.8,13.3-12.7,15.8-2.2
		c0.1,1.1,1,1.1,0.8-0.5c-0.2-4.2-1.6-8.2-3.4-12.1c3.1,0,6.5,0,9.3,0c-1.8,3.9-3.1,7.8-3.4,12.1c-0.2,1.6,0.7,1.6,0.8,0.5
		c2.6-10.4,16.3-7.6,15.8,2.2c-0.4,8-7.9,9.7-11.8,7.1c-1.5-1-1.5-0.4-0.6,0.6C135.8,208.4,132.3,217.3,124.5,217.4
		C124.5,217.4,124.5,217.4,124.5,217.4L124.5,217.4z"/>
	
		<path id="path147-0-8-1-6-75-6-1-2-9-1-9_1_" d="
		M42,217.4c-7.8-0.2-11.3-9-5.5-15.8c0.8-1,0.9-1.6-0.6-0.6c-3.9,2.6-11.4,0.9-11.8-7.1c-0.5-9.8,13.3-12.7,15.8-2.2
		c0.1,1.1,1,1.1,0.8-0.5c-0.2-4.2-1.6-8.2-3.4-12.1c3.1,0,6.5,0,9.3,0c-1.8,3.9-3.1,7.8-3.4,12.1c-0.2,1.6,0.7,1.6,0.8,0.5
		c2.6-10.4,16.3-7.6,15.8,2.2c-0.4,8-7.9,9.7-11.8,7.1c-1.5-1-1.5-0.4-0.6,0.6C53.3,208.4,49.8,217.3,42,217.4
		C42,217.4,42,217.4,42,217.4L42,217.4z"/>
	<path id="path147-0-8-1-6-2-00-7-2-3-4_1_" d="M83.2,60.5
		c-7.8,0.2-11.3,9-5.5,15.8c0.8,1,0.9,1.6-0.6,0.6C73.2,74.3,65.7,76,65.3,84c-0.5,9.8,13.3,12.7,15.8,2.2c0.1-1.1,1-1.1,0.8,0.5
		c-0.2,4.2-1.6,8.2-3.4,12.1c3.1,0,6.5,0,9.3,0c-1.8-3.9-3.1-7.8-3.4-12.1c-0.2-1.6,0.7-1.6,0.8-0.5c2.6,10.4,16.3,7.6,15.8-2.2
		c-0.4-8-7.9-9.7-11.8-7.1c-1.5,1-1.5,0.4-0.6-0.6C94.6,69.4,91.1,60.6,83.2,60.5C83.2,60.5,83.2,60.5,83.2,60.5L83.2,60.5z"/>
	<path id="path147-0-8-1-6-7-5-7-3-0-1-7-4_1_" d="
		M124.5,100c-7.8,0.2-11.3,9-5.5,15.8c0.8,1,0.9,1.6-0.6,0.6c-3.9-2.6-11.4-0.9-11.8,7.1c-0.5,9.8,13.3,12.7,15.8,2.2
		c0.1-1.1,1-1.1,0.8,0.5c-0.2,4.2-1.6,8.2-3.4,12.1c3.1,0,6.5,0,9.3,0c-1.8-3.9-3.1-7.8-3.4-12.1c-0.2-1.6,0.7-1.6,0.8-0.5
		c2.6,10.4,16.3,7.6,15.8-2.2c-0.4-8-7.9-9.7-11.8-7.1c-1.5,1-1.5,0.4-0.6-0.6C135.8,109,132.3,100.2,124.5,100
		C124.5,100,124.5,100,124.5,100L124.5,100z"/>
	
		<path id="path147-0-8-1-6-75-6-6-5-3-9-6-0_1_" d="
		M42,100c-7.8,0.2-11.3,9-5.5,15.8c0.8,1,0.9,1.6-0.6,0.6c-3.9-2.6-11.4-0.9-11.8,7.1c-0.5,9.8,13.3,12.7,15.8,2.2
		c0.1-1.1,1-1.1,0.8,0.5c-0.2,4.2-1.6,8.2-3.4,12.1c3.1,0,6.5,0,9.3,0c-1.8-3.9-3.1-7.8-3.4-12.1c-0.2-1.6,0.7-1.6,0.8-0.5
		c2.6,10.4,16.3,7.6,15.8-2.2c-0.4-8-7.9-9.7-11.8-7.1c-1.5,1-1.5,0.4-0.6-0.6C53.3,109,49.8,100.2,42,100C42,100,42,100,42,100
		L42,100z"/>
	<path id="path147-6-9-8-7-0-5-6-8-4-3_1_" d="M158.4,203.3
		c3.1-0.1,4.5-3.7,2.2-6.6c-0.3-0.4-0.4-0.7,0.2-0.3c1.6,1.1,4.6,0.4,4.7-2.9c0.2-4.1-5.3-5.3-6.3-0.9c-0.1,0.5-0.4,0.4-0.3-0.2
		c0.1-1.8,0.6-3.4,1.4-5c-1.2,0-2.5,0-3.7,0c0.7,1.6,1.3,3.3,1.4,5c0.1,0.7-0.3,0.7-0.3,0.2c-1-4.4-6.5-3.2-6.3,0.9
		c0.2,3.3,3.1,4,4.7,2.9c0.6-0.4,0.6-0.2,0.2,0.3C153.9,199.6,155.3,203.2,158.4,203.3C158.4,203.3,158.4,203.3,158.4,203.3
		L158.4,203.3z"/>
	<path id="path147-6-9-8-7-4-5-62-5-2-9_1_" d="M8.1,34.4
		c-3.1,0.1-4.5,3.7-2.2,6.6c0.3,0.4,0.4,0.7-0.2,0.3C4,40.1,1,40.8,0.9,44.2c-0.2,4.1,5.3,5.3,6.3,0.9c0.1-0.5,0.4-0.4,0.3,0.2
		c-0.1,1.8-0.6,3.4-1.4,5c1.2,0,2.5,0,3.7,0c-0.7-1.6-1.3-3.3-1.4-5c-0.1-0.7,0.3-0.7,0.3-0.2c1,4.4,6.5,3.2,6.3-0.9
		c-0.2-3.3-3.1-4-4.7-2.9c-0.6,0.4-0.6,0.2-0.2-0.3C12.6,38.1,11.2,34.4,8.1,34.4L8.1,34.4L8.1,34.4z"/>
	<path id="path25-6-8-8_1_" d="M4,31.9c1.7-9.1,3.6-16,8.4-23.5H2.6v3.2H0v-6h14.4l1.8,2.8
		C11,14,6.3,32.1,7.1,31.9H4L4,31.9z"/>
	<path id="path25-7-7-3-9_1_" d="M162.5,205.8c-1.7,9.1-3.6,16-8.4,23.5h9.8v-3.2h2.6v6h-14.4
		l-1.8-2.8c5.1-5.6,9.8-23.7,9-23.5H162.5L162.5,205.8z"/>
</g>
</svg>
