<!-- Generator: Adobe Illustrator 19.2.1, SVG Export Plug-In  -->
<svg version="1.1"
	 xmlns="http://www.w3.org/2000/svg" xmlns:xlink="http://www.w3.org/1999/xlink" xmlns:a="http://ns.adobe.com/AdobeSVGViewerExtensions/3.0/"
	 x="0px" y="0px" width="165.7px" height="226.6px" viewBox="0 0 165.7 226.6" style="enable-background:new 0 0 165.7 226.6;"
	 xml:space="preserve">
<style type="text/css">
	.st0{fill:#E2CF00;}
	.st1{fill:#D40000;}
	.st2{fill:#131F67;}
</style>
<defs>
</defs>
<g id="g7107_1_" transform="matrix(0.99553491,0,0,0.99680337,10.559869,-8.1397307)">
	
		<path id="path6307-8_1_" class="st0" d="
		M95.7,18.1c0,0,20.3,29.4,27.2,34.6c0.5,0.2,9-1.4,9-1.4c-4.3-10.4-7.1-21.2-4.3-33.3L95.7,18.1z M106.9,64.6
		c-14,4-27.9,7.7-43.1,1.2l-16.6,16c-0.1,0.4,20,9.1,20.3,8.1c-9.9,26.6,5.5,31.5,15.3,2.2c12.8-1.7,28.2-3.4,40.9-12.3
		C112.9,73.2,106.9,64.5,106.9,64.6z M22.8,69.4c-5.3-3.3-9.4,3.4-5.6,6.8c-0.5,2-0.6,4.9,1.3,6.2c1.7,1.1,5,0,5.4,0
		c0,0,0.1,3.5-0.2,3.5c-0.5,0-2.4-1.6-3.6-2c-4-1.2-9.5-1.8-9.4-1.6c0.2,0.3-1,1.2,3.4,3.9c1.6,1,6.8-0.1,10.9,1.2
		c2.5,0.8,4.8,2.1,6.1,1.4c3.6-1,5-5.7,4.8-5.7c-0.1-0.1-10.9,2.8-9.9,3.3l0-4.1c4.2,0.5,8.1-2.6,3.9-7.9
		C33.2,71.3,28.8,63.9,22.8,69.4L22.8,69.4z M40.5,88C30.1,98.6,8.8,118.3,8.8,118.3L9,133.1l20.8,18.7
		c1.6-19.8,12.9-38.3,23.6-47.6C54.4,101.4,42.8,89,40.5,88z M114.8,91.7c-1.6,12.2-3,28.8-23.6,47.3c3.6,6.1,8.1,12.3,14.7,15.3
		c0.5,1,18.9-19.2,30.3-28.7l-0.1-12.9L114.8,91.7z M21.8,94.3c0,0.3-0.8,3.5-1,3.4c0,0.2,2.1-0.8,2.3-1.7c0.2-0.8,0.7-1.8,0.7-2
		C23.4,90.8,22.5,93.1,21.8,94.3z M14.1,102.8c-0.7,1.8-1.5,5.1-1.2,7.3c3.7,1.9,4.7-5.9,3.7-6.6C16,103.3,14.6,102.8,14.1,102.8z
		 M128.1,138.2c-0.3,1.5-0.3,2,0.4,2.3c1.2,0.5,1.7-0.1,2.7-2.6c0.6-1.5,1.1-3.7,0.6-4.6C129.6,131.6,128.4,137,128.1,138.2
		L128.1,138.2z M63.5,151.1c-15.2,2.4-30.3,3.9-42.4,13.3c1.4-0.2,15.9,13.6,16.7,15.5c22.3-10.9,44-2.7,44-2.7l16.3-15.8
		c0.6-0.3-17.7-7.9-21.2-9.2C89.4,118.6,69.6,123.6,63.5,151.1L63.5,151.1z M123.2,147.3c-1,0.8-1.5,1.5-2.3,2.6l0.8,1.3l2-2.2
		L123.2,147.3z M108.9,161.5c2.1-1,9.6-4.6,9.9-3.7l-0.2,3.6c-1.1-0.4-8.5,0.8-4.2,8.5c-2.7,6.1,3.3,9.2,7.5,5.2
		c8.8,3,7.6-5.8,5.8-7.2c1.4-2.2-0.4-7-1.3-7c0,0,7.7,1.7,6.9,0.4c-0.3-0.6-0.8-1.7-2.5-2.8c-2-1.3-5.4-0.8-8.2-1.4
		c-3-0.6-4.9-1.7-7.4-1.8C111.5,155.4,107.9,158.7,108.9,161.5L108.9,161.5z M23.6,190L13,192.9c0,0,3.4,7.9,4.6,15
		c1.4,8.7,0.3,18.1,0.3,18.1l30.6,0.2L23.6,190z"/>
	
		<path id="path6309-7_1_" class="st1" d="
		M51.1,226c-13.4-19.2-25.9-37.5-42.4-57.7c0,0,0-7.8,0.1-15.5l50.8,73L51.1,226z M78.3,195c-0.4-3.7-1.2-8-2.2-11.8l9.3-8.8
		C84.3,182.2,82.8,188.3,78.3,195L78.3,195z M122.6,167.3c2.1,2.8-1.4,4.3-2.7,3.1C117.2,167.9,121.1,165.3,122.6,167.3z
		 M30.7,149.9c-1.5,1,2.8-24.1,14.6-37.1C52.4,133.5,39.8,145.1,30.7,149.9z M88.9,149.8l-7.8-2.1l3.7-11c0,0,7.6,1.7,6.9,4
		C89.7,148.2,88.9,149.8,88.9,149.8L88.9,149.8z M52.6,145.6c2.1-3.5,3.7-7.4,5.2-11.3l7.9-0.2L61.8,145L52.6,145.6z M99.9,130.2
		c-6.1-12.1,1.1-31.3,14.3-36.6C113.7,105.9,109.9,118.3,99.9,130.2z M59.1,126.7c0.3-4.3-0.2-8.8-0.8-12.8
		c8.4,1.9,17.5,3.2,27.6,3.7l1,11.6C77.9,127.6,68.7,126.4,59.1,126.7z M79.2,109.1c0.9-3.6,2-7.1,3.6-10.5l9.6-0.4
		c0-0.2-4.1,6.4-5,11.1C85.8,109.1,79.2,109.1,79.2,109.1L79.2,109.1z M61,106.2c-2.8-1-6.6-1.3-8.1-3.4l2.9-9.2l8.6,2.6L61,106.2z
		 M85.2,18.2l6.7-0.1c0,0,32.4,41.6,44.5,57.7c-0.4,1.6,0.1,15.6,0.1,15.6C119.4,67.1,85.2,18.2,85.2,18.2z M23,76.1
		c-1.8-1.9,1.1-3.7,2.3-1.9C26.4,75.7,24,77.2,23,76.1z M59.4,69.3c0.1-9.6,6.9-21.1,6.8-20.8c-0.1,0,1,9.4,2.3,12.4
		C68.2,61.5,59.7,69.9,59.4,69.3z"/>
	
		<path id="path6311-0_1_" class="st2" d="
		M7.3,16.6v210.5h130.6V16.6L7.3,16.6z M126.9,18.2c-1.1,11.7-1.2,20.7,4.8,32.8c-1.1,1.1-9.3,1.5-11.9,2.8c0,0.3,0.7,0.9,0.7,0.9
		c2.7-1.3,13.3-2.4,13.3-2.4c-4.4-7.7-8.1-22.7-5.3-34.1h7.9v56.3c0,0,0.1,10.7,0.3,16.8c-4.1-5.3-9.3-12.5-12.8-17.9
		c-4.3-6-9-13.1-13.9-19.7c-1.4-2.1-3.5-4.8-5.2-7.2c-2.6-3.8-4.8-6.7-7.5-10.7c-2.9-4.2-5.7-8-9.1-12.9c-2.9-4.1-3.1-4.7-3.1-4.7
		L126.9,18.2z M76.9,18.2c4.9,8.6,13.8,11.6,16,12.2l1.3,1.9c-10.4-2-16-8.8-18.6-12.9c-0.2-0.3-0.2-1.2-0.2-1.2L76.9,18.2z
		 M72,18.2c-1.4,3.2-3.3,5.2-5.1,7.2l0.1-2.1c0.1,0.1,2.7-2.9,3.6-5.1L72,18.2z M74.4,18.2c0,0,0,0.7-0.1,1.1
		c-1,3.4-7.5,9.8-7.4,8.9l-0.1-1.7c0,0.1,4.9-4.8,6.2-8.3L74.4,18.2z M69.7,18.2c-0.5,0.9-2.4,3.9-2.6,3.1l0.2-3.1H69.7z M84.5,18.2
		c0.8,1.2,1.6,2.2,2.4,3.4c0.2,0.2,0.3,0.5,0.2,0.6c-0.1,0.3-0.5,0.1-1.6-0.9c-1.8-1.6-3-3.1-3-3.1H84.5z M77.9,18.2h1.6
		c3.3,5.5,9.2,8.5,11.3,9.2c0.5,0.6,1.1,1.7,1.4,2C86.6,27.8,80.4,23,77.9,18.2z M81.8,18.2c1.8,2.5,4.5,4.4,6.1,5.6
		c0.8,0.7,1.9,2,1.8,2.3c-3.5-1.1-7.5-5-9.4-7.9L81.8,18.2z M75,19.8l1,1.5c-2.3,3.9-5.3,7.3-9.1,10.1l0-2
		C71.2,26.2,73.2,23,75,19.8L75,19.8z M76.6,22c2.8,3.8,8.8,9.6,18.4,11.3c0,0,0.5,0.5,1.3,1.6c1,1.4,1,1.4,1.2,3.7
		c0.1,4.1,1.4,9.7,2.8,13.3c-0.2,0.9-0.3,1.3-2,3.6c-6.9,9.3-21.5,18.1-28.7,6.1c-2.4-3.8-2.6-11.2-2.8-15.8c0,0,0-0.3,0.1-0.4
		c0.2-0.8,0.4-0.7,1.7-0.3c1.3,0.6,2.7,0.1,4.1-0.3c1.6-0.6,1.7-0.1,0.2,1.3c-0.5,0.5-1.2,1.3-1.1,1.2c0.1,0,1-0.4,1.4-0.7
		c1.2-0.9,1.5-0.6,1.1,0.5c-1.9,4.4-2.3,4.5,0.4,5.8c0.6,0.3,1,0.5,1.3,0.8c1.9,1.7,1.2,0.8,0.7,0c-0.8-1.3-0.1-1.9,1.3-1.1
		c0.9,0.5,2.1,0.9,2.7,0.7c1.2-0.4,1.6-1.8,1.3-3.3c-0.3-0.8-2-2.3-1.6-0.8c1,0,1.9,1.4,1,2.4c-0.7,0.9-1.9,0.4-3.7-0.8
		c-1-0.8-2.2-0.4-2.2,0.6c0,0.6-0.9,0.5-1.4-0.3c-0.3-0.4-0.1-1.7,0.5-3c3.8-7.7,0.6-15.1-6-13c-0.7,0.2-1.4,0.4-1.4,0.4l0-2.9
		C70.7,29.7,74.7,25.5,76.6,22L76.6,22z M80.4,35.8c-1,1.2-0.6,2.3,1.5,1.2c1.8-0.9,2-1,4-1.1c2.8-0.1,5.2,0.8,8.3,2.7
		c2,1.2,2.3,1.3,1.8,0.6C94.4,36,84.7,31.3,80.4,35.8z M71.1,36.2c1.9,0.5,3.7,1.7,3.4,2.3c-0.1,0.2-0.2,0.2-0.5,0.1
		c-1.4-0.7-3.6-1.8-6.8-0.4c-0.4,0.2-0.6-0.1-0.6-0.5c0-0.8,1.4-1.5,2.9-1.6C70.1,36,70.6,36.1,71.1,36.2z M82.2,38.6
		c-1.1,0.6-1.5,0.9-2,0.6c-1.2-0.6-0.9-0.1-0.2,1.1c0.5,0.9,0.5,1.1,0.4,1.6c-0.1,0.6-0.1,0.6,0.5,1.3c1.1,1.4,2.2,2.8,3.8,3.9
		c0.5,0.3,1.2,0.7,1.2,0.7c0.2,0,0.1-0.1-0.2-0.4c-2.1-2-3.7-3.8-1.6-3c2.5,0.8,4.8-0.2,6.7-0.9c0.8-0.2,1.6-0.4,1.8-0.4
		c1.8,0,2.2-0.7,1.1-1.9C89.9,37,86.7,35.9,82.2,38.6z M91.3,39.4c0.8,0.7,1.2,1.1,1.1,1.3c-0.1,0.2-0.7-0.1-1.7-0.7
		c-2.1-1.1-4.4-1.4-7.3-0.5c-2.3,0.7-1.6-0.4,0.9-1.4C86.4,37.2,89.1,37.5,91.3,39.4L91.3,39.4z M70.1,37.9c1.7,0,3.5,0.5,4.7,1.6
		c0.8,0.7,0.2,0.9-1.1,0.3c-2.1-0.9-3.8-1-5.5-0.2c-0.5,0.3-1.1,0.5-1.3,0.5c-0.3-0.2-0.4-0.8-0.2-1.1
		C67.4,38.4,68.8,37.9,70.1,37.9z M98.7,38.5c0.1,0,0.3,0.2,0.6,0.6c0.5,0.7,0.5,1.1,0.1,2.4c-0.5,1.6-0.7,1.3-0.9-0.9
		C98.5,39.2,98.5,38.5,98.7,38.5L98.7,38.5z M100.4,40.9c0.2,0,0.4,0.3,0.8,1c0.3,0.5,0.2,0.7-0.6,3c-0.3,1-0.7,1.8-0.7,1.8
		c-0.2,0.2-0.2,0.2-0.3,0c-0.6-0.7-0.5-2.2,0-3.9C100,41.6,100.2,40.9,100.4,40.9L100.4,40.9z M84.8,41.1c0.1,0,0.4,0.1,0.4,0.1
		c0,3.5,2.7,2.8,3,0.3c0,0,0.7-0.1,0.8,0.1c0.3,0.5-0.4,2-1.5,2.5c-0.8,0.4-1.9,0.3-2.6-0.3c-0.2-0.3-0.7-1.6-0.6-2.2
		C84.4,41.2,84.6,41.1,84.8,41.1L84.8,41.1z M83.2,41.5C83.2,41.5,83.2,41.5,83.2,41.5c0.3,0,0.5,0.1,0.6,0.4l0.6,1.8
		c-0.4,0.5-2-0.5-2-1.3C82.4,41.8,82.8,41.5,83.2,41.5L83.2,41.5z M72.2,41.5c0.4,0,0.6,0,0.6,0.4c0.1,1.2-1,2.4-2.5,2.5
		c-1.4,0.2-2.2-1-2.2-2.1c0-0.8,0.7-0.9,0.8-0.3c0.2,1.9,1.9,2,2.6,1C71.8,42.5,71.7,41.5,72.2,41.5z M90,41.8c0.1,0,0.3,0,0.5,0.1
		c1.5,0.5,1.5,0.7,0.3,1.2c-1.5,0.5-1.6,0.6-1.3-0.4C89.7,42.1,89.7,41.9,90,41.8z M74.2,42c1.1,0.1,1.2,1,0.2,1.3
		C72.9,44,72.5,43.9,73,43C73.3,42.3,73.6,42,74.2,42z M67.2,42.3c0.1,0,0.3,0,0.4,0.2c0.2,0.5,0.4,0.9,0.7,1.4
		c-0.2,0.2-0.8,0.2-1.1-0.1C66.6,43.3,66.7,42.4,67.2,42.3L67.2,42.3z M102,43.4c0.4,0,0.9,0.7,1,1.2c-1.5,1.9-1.3,5.5-1.6,6.6
		c-0.3,0.9-0.4,0.1-1.2-2.2C99.8,48.2,101.5,43.5,102,43.4C101.9,43.4,102,43.4,102,43.4z M103.5,45.4c0.3,0.2,0.8,0.6,0.9,1.3
		c0,0.4-0.2,0.9-0.3,1.5c-0.3,1.3-0.7,3.6-0.9,5.8c-0.1,0.9-0.1,1.8-0.1,1.8c-0.5,0.9-1.4-1.5-1.3-3.4
		C102.1,50.9,102.3,45.6,103.5,45.4L103.5,45.4z M105.7,48.1c0.2,0.3,0.3,0.5,0.4,0.8c0.1,0.4,0,1-0.2,2.1c-0.7,3-0.6,6.2-0.1,9.5
		c0.1,0.7-0.4,0.3-1.1-0.9c-0.4-0.7-0.7-1.6-0.8-2.6c-0.3-2.3,0.2-5.5,0.7-8C104.6,47.9,104.7,46.9,105.7,48.1L105.7,48.1z
		 M106.8,50l1.2,1.5c0,0-0.5,3.3-0.5,5.1c-0.1,0.7,0.6,7.9,0.8,8.5c-0.7-0.8-1.1-1.3-1.9-2.4c-0.1,0-0.8-7.2-0.3-9.9
		C106.4,51.1,106.8,50,106.8,50L106.8,50z M108.7,52.8c0.2,0,0.5,0.2,0.8,0.7c0.3,0.4,0.4,0.7,0.4,1.3c0,0.4-0.2,0.7-0.2,1.3
		c0,4,0.5,7.7,1.2,11.3c0.2,1.3-0.2,0.8-1-0.1c-0.7-0.7-0.7-1-1.1-2.1c-0.1-0.2-0.8-7.5-0.8-8.1c0-2.3,0.1-3.5,0.4-4.1
		C108.5,52.9,108.6,52.9,108.7,52.8z M104.3,60.8c0,0-1.4,0.7-1.8,0.5c-0.6-1.6-2.7-6-2.8-6.7c0-0.3,0.9-1.4,0.9-1.4
		C101.8,55.7,102.9,58.3,104.3,60.8z M77.9,55.6c-0.4,0.5-0.9,0.3-1.9-0.2c-0.5-0.2-0.4,0.1-1.3,0.5c-0.7,0.3-0.9,0.4-1.3,0.4
		c-0.6,0-0.8-0.2-0.8,0.2c0,0.2,0,1.3-0.2,1.8c-0.2,0.7-0.4,1-0.2,1.2c0.3,0.3,0.5,0.1,1.2-0.5c1-1,1.7-0.7,2.9-0.3
		c1.3,0.4,1.6,0.6,2.8,0.2c1.7-0.6,2.7-0.6,3.4-0.2c1.2,0.7,1.5,0.7,1-1.3c-0.2-0.7-0.2-1.7-0.3-1.9c-0.1-0.2-0.4,0.4-0.7,0.6
		c-0.6,0.4-0.9,0.4-2.3,0C79.4,55.7,78.5,54.8,77.9,55.6L77.9,55.6z M99.6,55.9c0.5,1.2,2.6,5.3,2.5,5.8c-0.4,0.4-0.9,0.6-1.3,0.3
		c-1-1.9-1.3-2.9-2.2-5C98.4,56.4,99.1,55.1,99.6,55.9L99.6,55.9z M110.7,55.7c0.1,0,0.5,0.3,0.7,0.6c0.7,1,0.8,1.1,0.8,2.1
		c0.1,3.7,0.5,8,1.6,11.4c0.2,0.7,0.6,1.5,0.5,1.6c-0.3,0.5-2-0.9-2.5-2.9c-0.7-2.6-1.1-5.4-1.3-7.2
		C110.3,58.1,110.3,55.9,110.7,55.7L110.7,55.7z M98.2,57.7c0.6,1.2,1.3,3.1,1.9,4.3c0.2,0.5-0.9,0.9-1.2,0.8
		c-0.5-0.4-0.7-1.3-1-1.9c-1-2.2-1.2-2.2-0.6-2.9C97.6,57.6,98,57,98.2,57.7z M113,59.1c0.1,0,0.2,0.1,0.3,0.3
		c0.6,0.7,1,1.3,1.2,1.8c0.1,0.4,0,0.7,0.1,1.4c0.1,1.9,0.6,4.5,2,9.7c0.1,0.5,0.3,1.1,0.3,1.3c-0.1,1-1.5-0.6-2-2.2
		c-0.5-1.8-1.3-4.2-1.6-6.3C112.8,61.6,112.5,59.1,113,59.1L113,59.1z M97,60.5c1.2,2.7,1.3,2.7,0.5,3c-0.8,0.2-0.8,0.2-1.7-1.7
		c-0.7-1.4-0.8-1.5-0.2-2C96.4,58.7,96.6,59.6,97,60.5z M80.6,59.8c-0.1,0-0.5,0.3-0.9,0.5c-1,0.4-2.7,0.4-3.7,0.1
		c-1.9-0.7-1.3,0.2,0.3,0.8c1.3,0.4,3.8,0.1,4.2-0.7C80.7,60.2,80.8,59.8,80.6,59.8z M94.8,61.3c1,1.6,1.4,2.3,1.2,2.4
		c-0.2,0.2-1,0.5-1.3,0.3c-0.4-0.2-0.8-1.2-1-2C93.8,61.6,94.5,60.9,94.8,61.3L94.8,61.3z M68.5,61.9c0.5,0,1.7,1.6,1.4,1.9
		c-0.1,0.2-0.5,0-1.6-0.3c-0.4-0.1-1.2-0.2-0.9-0.8C67.6,62.6,68.3,61.9,68.5,61.9z M93.7,64.2c-0.1,0.3-0.9,0.3-1.2,0.3
		c-0.3-0.6-0.4-0.9-0.4-1.3c0.1-0.2,0.7-0.9,0.9-0.7C93.1,62.6,93.6,63.9,93.7,64.2L93.7,64.2z M115.5,62.6c0.2,0,0.5,0.3,0.9,0.9
		c0.8,1.2,0.7,1.1,1.3,3.9c0.7,3.2,1.5,5.4,2.3,8.6c0,0.5-0.2,0.4-0.8,0c-1-0.6-1.3-1.2-1.6-3c-0.5-2.8-1.6-5.4-2-8.8
		C115.3,63.2,115.3,62.6,115.5,62.6L115.5,62.6z M91.1,63.7c0.6,0,0.5,0.9,0.3,1C91,65.1,89.9,65,89.7,65
		C89.2,64.3,90.7,63.8,91.1,63.7z M118.4,66.7c0.2,0,0.6,0.7,1.5,1.9c0.8,1.1,0.6,1,1.1,2.8c0.7,2.6,1.8,4.5,2.5,6.9
		c0,0.3-0.3,0.2-0.6,0.1c-0.6-0.3-1.2-0.7-1.7-1.1c-0.4-0.4-0.4-0.9-1.4-4.5c-0.4-1.3-0.5-1.6-1-3.6
		C118.4,67.5,118.2,66.7,118.4,66.7L118.4,66.7z M30.4,74.5c2.8,5.1,1.7,7.3-4.2,8.1c-0.4-0.1,0,2.6,0,3.8c3-1.7,6.6-2.1,9.9-3.2
		c-0.9,2.9-2.5,6.2-7.3,5.7c-5-3.9-10.9-1.6-14.9-3.1c-2.2-0.8-3-3.2-3-3.7c2.6,0.3,5.6,0.8,8.1,0.6c-2.8-2.1-2-5.1-1.6-6.4
		c-3.2-4.1-0.5-8.7,4.2-7.6c0.5,0.1,1.4,0.6,1.4,0.6C27.5,65.2,32.8,69,30.4,74.5L30.4,74.5z M122.1,72c0.2,0,0.6,0.5,1.4,1.6
		c2.5,3.5,4.6,6.7,4.6,6.9c-0.1,0.6-2.7-0.4-3.3-1.3c-0.7-1-2.8-6-2.8-6.8C122,72.2,122,72,122.1,72z M21.7,86.8
		c1.3,0.2,1.6,0.3,1.6,0.8c0.1,0.4-3.1,0.5-3.5,0.2c-0.3-0.3,0.1-0.8,0.4-0.9C20.8,86.7,21.3,86.8,21.7,86.8L21.7,86.8z M110.5,87.3
		c-18,8.5-25.4,31.2-16.3,48.5l-1.3,0.9c-8.9-18.4-2.3-38,12.2-48c0.6-0.4,1.9-0.7,2.5-1.1c0,0-5.9,1.3-7.9,2.1
		c-0.4,0-1.6,0.4-2.9,1.8c-1.1,1-4.6,5.9-4.5,6L83.1,98l0,0.3l9.1-0.2c-9.4,15.5-7.1,30.2-1.3,40.6l0.1,0.1c0.3,0.2,1.2-0.4,3.1-2.2
		c0.8-0.7,1.7-1.6,2.1-2c1.1-1,2.8-2.8,3.9-4.1c-6.3-12.9-0.1-29.9,14.7-37.5c0-0.4-0.2-1.7-0.2-1.7s-0.6-0.5-0.9-0.5
		c-16.5,7.3-23.1,25.3-16.4,41.7l-1.1,1.2c-8.4-17,0.6-38.2,16.4-44.3c0-0.4-0.3-0.9-0.8-0.6c-17,7.9-24.4,28.1-16.1,45.3l-1,0.9
		c-9.5-18.8,0.5-40,16.1-47.2C111.4,87.9,110.5,87.3,110.5,87.3L110.5,87.3z M19,87.5c0,0-0.1,1,0.2,1.3c0.2,0.7-0.1,0.6-0.7,0.5
		c-1.5-0.4-0.3,0.5,0.9,1.2c1.2,0.7,1,0.7,0,1.3c-0.7,0.4-0.6,0.6-0.5,1c0.1,0.5,0.2,0.2,0.5-0.1C20,92.1,20.5,92,21,92
		c0.8,0,0.9,0.7,0.8,1.2c-0.3,1.1-1.4,1-2.3,0.8c-1.5-0.4-3.9-3-3.9-4.5C15.4,88,17.3,87.4,19,87.5z M25.6,87.8
		c0.6,0.2,1.3,0.5,2.1,0.8c1.1,0.4,2.2,0.9,2.9,1.4c2.2,1.5,2.1,4.4,1.9,4.7l-11.3,10.8c0,0-0.6-0.3-1.2-0.6c-1.9-1-2.4-1.5-1.3-2
		c0.5-0.3,0.7-0.8,0.8-1.4c0.1-0.7,0.1-0.6,0.5-0.9c0.8-0.6,0.8-0.8,0.8-1.8c0-0.6,0.1-0.9,0.3-1.3c0.2-0.3,0.4-1,0.5-1.8
		c0-0.1,0-0.4,0.1-0.6c0.1-0.6,0.3-0.8,0.5-0.9c0.1-0.1,0.3-0.6,0.5-1c0.3-0.9,0.3-0.8,0.8-0.7c0.7,0.1,0.6,0.6,0.6,1.3
		c0,0.3-0.3,0.6-0.2,0.5c0.1-0.1,0.6-0.3,0.7-0.3c0.2-0.1,0.5,0,0.5,0.4c0,0.2-0.1,0.6-0.1,0.9c0,0.8,0,1.7,0.2,2.3
		c0.8,2.9,0.7,2.5,0.4,0.1c-0.1-0.6-0.1-1.4-0.1-2.1c0.1-0.5,0.2-1.1,0.4-1.5c0.5-0.9,0.5-1-0.6-1.5c-0.4-0.2-1.1-0.4-1.2-0.7
		c-0.2-0.3-0.7-0.8-1.4-1c-1.6-0.4-2.6-2-2.3-2.2c0.2-0.2,0.8,0,1.2,0.1c1.5,0.1,1.8,0,2.5-0.6c0.4-0.3,0.5-0.6,0.8-0.6
		C25,87.5,25.4,87.7,25.6,87.8L25.6,87.8z M102.7,89.5c-15.2,12.3-17.9,32.3-10.3,47.7l-1.3,1c-9.5-18.1-3.1-37.6,8.6-48.2
		L102.7,89.5z M14.9,91c0.3,0,0.6,0.4,1.6,1.5c0.7,0.8,1.5,1.4,1.9,1.7c0.9,0.4,0.7,0.3,0,1c-0.8,0.9-0.3,1.6-1.3,1.2
		c-2.4-1.1-4-4.4-2.5-5.2C14.7,91.1,14.8,91,14.9,91z M13.7,94.5c0.1,0,0.1,0,0.2,0c0.3,0.1,0.6,0.6,1,1c1.1,1.1,1.5,1.5,2.4,1.9
		c0.8,0.4,0.8,0.5,0.3,1.1c-0.2,0.2-0.3,0.5-0.4,0.7c0,0.2-0.1,0.4-0.2,0.4c-0.9,0.2-4-1.7-4.1-3C12.9,95.4,13.2,94.5,13.7,94.5z
		 M20.2,94.8c0.5,0,0.8,0.5,0.8,1.2c0,0.5-0.3,0.7-0.9,1c-1.3,0.5-2.1-0.4-1.2-1.5C19.3,95.1,19.8,94.8,20.2,94.8z M19.4,98
		c1,0,1.3,0.8,0.5,1.5c-0.7,0.7-2,0.7-2-0.1C17.9,98.9,18.8,98,19.4,98L19.4,98z M13.3,99c0.7,0.2,2.3,1.4,3,1.5
		c0,0.4-0.4,0.5,0.2,1.2c0.3,0.3,0.3,0.6,0.1,0.7c-0.8,0.4-3.6-0.9-3.8-2.3C12.7,99.4,12.9,99,13.3,99z M17,100.6
		c1,0,2.1,0.1,1.9,0.5c-0.1,0.3-0.4,1.2-0.9,1.1c-0.2-0.1-0.4-0.3-0.6-0.4C17,101.3,16.8,100.6,17,100.6z M53.5,104.6
		c2.8,2.6,13,29.2-8.3,48.7l-4.5,1.4c20.5-16.1,17.1-39,11.5-48.8c0-0.3-0.1-0.3-0.6,0.2c-0.4,0.4-0.5,0.5-0.3,0.6
		c6.2,9.6,8.6,36.8-16,49.9c-0.4,0.4,0.4,0.4,0.4,0.4c0-0.4,11.1-3,10.3-3.1c10.3-9.1,19.2-30.8,8.1-49.8
		C53.9,103.9,53.5,104.6,53.5,104.6L53.5,104.6z M50,107.7l-0.1,0.6c8.9,17.6,0.4,39.1-16.2,47c0.3,0.2,0.6,0.3,0.9,0.5
		c18.8-10.2,24.2-31.6,16-48.3L50,107.7z M48.5,108.9l-0.1,0.6c7.4,14.9,1.5,35.7-16.1,44.1c-0.2,0.9,0,0.6,0.8,0.6
		c20.4-11,22.3-31.8,15.9-45.3L48.5,108.9z M47.2,110.7c-0.6,0.8-1.6,1.2-2,2.1c5.9,15.7-1.7,30.8-14.7,37.2c0,0.8-0.6,2.7,0.8,2.4
		c16-7.3,23-26.6,16-41.8C47.3,110.6,47.2,110.7,47.2,110.7L47.2,110.7z M127.6,141c0.6,0,1.1,0.2,1.7,0.3c2,0.3,3.3,1.7,2.4,2.6
		c-0.3,0.3-0.7,0.1-2-0.5c-0.6-0.3-0.7-0.6-0.8-1.2c-0.1-0.8-0.3-0.9-0.5-0.3c-0.2,0.6-0.4,1-1.1,0.8
		C125.4,142.4,126.1,141,127.6,141z M106.4,154.4c-4.8-2.7-10.7-7.6-14-13.2c-1.7,3.2-3.6,8.9-3.6,8.9l-7.5-2.1l-0.1,0.2l7.4,2.1
		l-0.7,2.5c-0.1,0.3-1.2,3.1-1.2,3.1l11.6,5.4c-0.7,1.1-1.5,1.9-2.5,2.9c-0.6,0.6-0.6,1.4-0.6,1.4l16-15.3c0,0,2.1,3.1,2.8,3.8
		c0.7,0.7,0.9,0.8,0.1,1c-3.8,0.6-6.7,3.4-5.7,7.3c0.2,0.4,0.5,0.3,1.2-0.2c2.5-2.3,8.6-4.4,8.8-3.8l0,2.4c-6.6,0.1-5.9,4.9-5.4,7.6
		c0,0.1-1.9,1.7-1.9,1.7c0.7,0.4,1.3,0.7,2,1.2c-0.6,3.2,2.2,7.9,7.6,5.5c0.5,0.5,0.9,1,1.4,1.6c0.6-0.6,1.2-2.2,1.2-2.2
		c2.7,1.2,8.3-1.5,5.4-7.8l1.6-1.5l-1.5-1c0-1.6-0.3-3-1.2-4.4c0,0,2.5,0.6,4.4,0.8v0c1.2,0.1,2.1,0.1,2-0.6c0-0.2-0.2-1.2-0.3-1.5
		c-0.6-1.6-3.5-2.8-6.3-3c-0.5,0-1,0-1.1-0.1c-0.2-0.2,0.1-0.5,0.4-0.5c1.5,0.3,3-0.9,3.3-2.3c0.1-0.3,0.4-0.7,0.8-1.2
		c0.8-0.9,0.9-0.9,0.9-2.1c0-0.9,0.1-1.1,0.6-1.7c0.5-0.8,0.8-1.9,0.5-3.1c-0.1-0.4-0.4-0.9-0.1-1.8c0.5-1.5-0.6-2.8-1.9-3.6
		c-0.1,0-0.1,0.1-0.2,0.2c-1.2,0.4-2.7-0.5-2.7-0.5c-0.3-0.2,1.1-8.1,3.9-7.4c0.5,0.3,0.7,1.7,0.6,1.7c0.1,0,0.2-0.8,0-1.4
		c-0.2-0.6-0.6-1.1-1.5-0.9c-0.7,0.1-1.4,1-1.8,1.4c-1.3,1.7-1.3,2.8-1.8,4.6c-0.2,0.8-0.2,0.8-1.4-0.1c-0.8-0.7-1.2-0.9-1-1.3
		c0.1-0.2,0.7-0.7,0.7-0.7l10.7-9.9v99.2H78l0.4-13c1.1-8.9-0.8-27.7-2.3-29.5c1.1-1.3,4.6-4.3,4.4-4.4l-0.5-0.3l-1.8,1.7l-4.5-1.4
		c-1.9-1.3-3.9-2.6-5.9-3.1c-3.3-0.9-9.7,1.9-9.8,1.9c-10.2,0.8-18.5,4.9-18.3,4.9c-0.4-0.4-1-1.7-1.1-1.7
		c-5.3-7.4-10.5-11.5-17.6-16.5l9-5L8.8,136.9l-0.2-18.1l30.9-29.6c0.2-0.5,9.8,6.8,13.4,12.8c0.7-2.9,2-5.6,3-8.5
		c0.1-0.3,6.1,2.2,7.9,2.3c0.3,0,0.5-0.3,0.5-0.3l-8-2.6l1.6-4.7c0,0,0.6-1.3-0.1-1.5c-3.6-1.2-7-3.2-10.5-5c0,0,1.6-1.8,1.6-1.9
		c0-0.1,0.7-1,0.5-1.4c-1.8,1.7-16.2,15.1-16.2,15.1c-0.4-2.3-1.1-3.1-2.5-4.5c0.8,0,2-0.8,2.6-1.3c2.1-1.5,3.3-4.3,3-5.9
		c-2,0.6-3.9,1.4-6.4,1.9c-1.4,0.3-2.8,0.9-3.6,1.6l-0.1-2.6c0,0,3.4,0.6,5-1.7c1.4-2,0.8-4.2,0.5-5.4c0-0.3,0-0.2,0.5-0.8
		c0.4-0.4,1.1-0.9,1.1-0.9c0-0.1-1.8-0.8-2.1-1.4C32,68,28.2,66.2,25,67c-0.6,0.2-0.9,0.3-1.6-0.5c-0.1-0.1-1-1-1-1
		s-0.4,0.9-0.6,1.3c-0.6,1.2-0.8,0.9-2.2,0.9c-3.4,0.2-5,2.9-4.2,6.4c0.2,0.8,0.1,0.7-0.4,1.7c-0.3,0.5-0.7,1.2-0.7,1.2
		s0.6,0.3,1.1,0.5c0.6,0.3,0.7,0.6,0.7,1.2c0.1,1.4,0.4,2.3,1.2,3.5c-2.7,0.1-4.8-0.2-7.2-1c0.4,3.8,3.1,5.1,6.5,5.7
		c0,0-0.4,0.3-0.7,0.5c-0.8,0.2-1.3,0.9-1.3,1.5c-0.1,0.6-0.5,1.2-0.9,1.5c-0.5,0.5-1,1.1-0.8,2.3c-0.1,0.9-0.3,1.2-0.5,1.5
		c-0.5,0.7-0.7,1.4-0.6,2.3c0.1,0.4,0.2,1.3,0.1,2.3c-0.1,1.6,0.4,2.1,1.1,3.2c0.5,0.7,0.4,0.7,0.3,1.2c-0.3,1.2-0.5,1.9-0.8,2.8
		c-0.6,2.1-0.6,3.7-0.1,4.1c0.8,0.6,1.6,0.4,2,0.3c3-0.9,2.5-3.9,2.6-5.8c0.1-0.5,0.3-0.8,0.4-0.7c0.8,1,1.7,1.6,2.9,2.2
		c-4,4.1-6.5,6.5-11.6,11v-99h57.5c0,0,0.1,0.8-0.1,4.4c-0.2,7.3-0.6,14.9-0.1,22.3c0.1,2.6,0,5.1,0.4,7.6c0.4,2.5,0.5,5.1,1.7,7.4
		c0.5,1.2,0.5,1.2-1.3,2.8c-0.9,0.8-1.6,1.7-1.6,1.8c0,0.1,0,0.2,0.1,0.1c0.1-0.1,0.7-0.7,0.8-0.8c0.5-0.6,1.3,0.2,4,0.9
		c0.5,0.2,1.3,0.7,1.9,1.1c4.1,3.4,9.8,2.4,14.1,0.5c1.2-0.5,1.5-0.6,3.5-0.8c7.2-0.9,15-4,15-4l0.9,1.6c0,0,0.4-0.1,0.6,0.3
		c4.2,7.9,17.8,16.9,17.5,16.5l-8.9,4.9c6.5,8,21.4,21.6,21.4,21.6V126c-4,3.2-7.9,6.8-11.4,10.4c-1,1-1.7,1.6-1.3,1.6
		c0.9-0.1,1.7,0.8,2.4,1.4c0.5,0.5,0.4,0.5-0.2,1.2c-0.4,0.5-0.5,0.6-0.5,1c0,0.7,0,1.2-0.6,1.7c-0.4,0.5-0.6,0.8-0.7,1.4
		c-0.1,0.6-0.1,0.9-0.5,1.5c-0.7,0.1-0.7,1.1-0.6,1.6c0.7,0.7,0.4,1.5,0.4,1.3c-1.3,1.5-2.7,2.7-1.8,0.7c0.4-0.8,0.5-1.4,0.5-1.4
		s-0.6,0.7-1,1c-0.5,0.5-0.7,0.2-0.7-1.3c-0.1-1.1-0.5-2.7-0.7-3c-0.1-0.2-0.1,0.1-0.1,1.2c0.1,1.4,0.2,1.8-0.3,3.3
		c-0.7,1.9-1.2,2.2-0.1,2.1c1-0.1,1.9-0.1,2.4,0.5c0.2,0.2,0.4,0.6,0.8,0.8c0.9,0.5,1.5,1,2,1.5c1.5,1.7,1.1,3.2-1.9,2.2
		c-1.6-0.5-0.5-1.2,1.1-1.1c1,0.1,1.2-0.3,0.3-0.6c-1.7-0.3-1.9-0.5-3,0.8c-4.6-0.5-7.2-3-8.5-5.2c-0.5-0.9-0.7-1-0.3-1.5
		c0.1-0.2,0.1-0.1-0.2,0.1c-0.2,0.3-0.9,0.5-1.1,0.7C109.3,151.5,107.8,153.2,106.4,154.4L106.4,154.4z M126.5,143.5
		c0.8,0.1,0.8,0.8,0.1,1.4c-0.7,0.5-1.1,0.6-1.5,0.2C124.4,144.5,125.2,143.5,126.5,143.5z M128.7,144c0.6,0,1.4,0.3,2.4,1.1
		c1.1,1,1.4,3.3,0.4,3.7c-0.4,0.2-0.5,0-1.4-0.9c-0.6-0.6-1.3-1.1-2-1.5c-1.4-0.7-1.6-0.9-0.6-1.4c0.2-0.1,0.4-0.3,0.6-0.5
		C128.2,144.1,128.3,144,128.7,144L128.7,144z M127.3,147.1c0.2,0,0.4,0.1,0.8,0.3c2.3,1.3,3.5,3.3,2.7,4.4c-0.5,0.7-1.4,0.5-2-0.6
		c-0.4-0.6-1.3-1.3-2.4-1.9c-1.2-0.6-1.3-0.7-0.4-1.2c0.4-0.2,0.6-0.4,0.8-0.7C127,147,127,147.1,127.3,147.1L127.3,147.1z
		 M128,151.8c1.8,1.8,1.6,2.7,0.4,3.4c-0.8,0.5-2,0.6-2.4,0.2c-0.7-0.6-0.6-1.2,0.1-1.5c0.7-0.1,0.4-0.4-0.2-0.6
		c-2.3-0.6-3.7-1.9-1.2-1.6c0.7,0.1,1.4-0.5,1.8-0.9C127,150.2,127.7,151.5,128,151.8L128,151.8z M8.4,152.5l51.1,73.1H18.2
		c1.5-11.6-1.5-24.5-5.3-32.9c4.2-0.7,8.2-1.8,12.2-2.9l-0.8-1.1c-4.8,1.9-9.2,2.6-13.3,3.1c5.5,9.4,7.5,22.4,5.8,33.8H8.9v-56.7
		L8.4,152.5z M17.6,163.4c0.7,0,2.5,1.2,2.7,2.2c0,0.2,0.5,1.4,1,2.5c0,0.2,1.8,3.4,1,3.1c-1.6-2.1-4.3-5.7-5-7.5
		C17.3,163.5,17.4,163.4,17.6,163.4z M23.1,166.6c0.1,0.5,0.6,1.9,1.1,2.8c1.1,2.4,2.8,6.1,2.5,7.2c-0.2,0.7,0,0.7-0.6-0.2
		c-0.3-0.4-1.3-1.8-1.5-2.1c-0.6-0.8-0.2-0.1-0.5-1.3c-0.8-3.5-2-5.3-2.8-7.3C20.9,164.8,22.7,166.2,23.1,166.6L23.1,166.6z
		 M24.1,167.1c0.1,0.1,2.2,1.5,2.4,1.7c0.7,2.6,3.6,10.8,2.8,12.2c-0.3-0.2-1.4-1.5-1.5-2.2c-0.3-3.9-1.6-6.7-2.9-9.7
		C24.5,168.3,24.2,167.4,24.1,167.1z M27.9,170c0.6,0.3,1.3,1,1.7,1.7c0.3,0.4,0.4,0.9,0.6,2c0.7,3.3,2.1,6.7,1.5,10.3
		c-0.4,0.5-1.2-0.7-1.4-1.9c-0.4-4-0.8-5.9-2.1-10.5C27.9,170.7,27.7,170,27.9,170z M31.2,173.1c0.1,0,0.4,0.3,0.9,0.7
		c0.9,0.9,1,1.2,1,2.6c0,2.1,0.7,4.5,0.8,6.6c0.1,1.2,0.3,4.4,0.1,4.6c-0.3,0.4-1.4-1-1.4-3c0.2-2.5,0-4.3-1-8.6
		C31.2,174,30.9,173.1,31.2,173.1C31.1,173.1,31.1,173.1,31.2,173.1L31.2,173.1z M125.6,160.6c3.7,2.4,2.4,6.7,1.6,7.2
		c5,6.4-2.8,9.7-5.3,7.4c-3.7,3.7-10,0.6-7.6-5.5c0,0-4.6-8.9,4.5-8.3c0,0,0.2-3.6-0.1-3.7c-3.3-0.2-7.7,2.9-8.9,3.8
		c-0.7,0.4-0.8,0.2-0.8,0.2c-0.2-1.9-0.2-2.7,0.6-3.7c1.3-1.8,3.5-2.4,6.3-3.1c3.5,1.1,6.9,2.8,10.2,2.5c1.8,0,3.6,0.3,5.4,1.2
		c1.2,0.6,1.8,2.7,1.8,2.7C131.4,162.4,125.6,160.6,125.6,160.6L125.6,160.6z M123.9,147.5c0-0.6,0.7-1.3,1.4-1.3
		c1,0.1,1.1,1.2,0.2,1.6c-0.2,0.2-1.1-0.1-1.1,0.1c0.1,0.4-0.3,0.2-0.4,0.1C123.9,147.9,123.9,147.7,123.9,147.5z M123.3,150
		c0.4-0.2,0.7-0.3,1-0.3c0.5-0.1,1.3,0,1.4,0.6c0.2,0.6-0.9,0.9-1.8,0.9c-0.4,0-1,0.1-1.1-0.2C122.7,150.7,123.1,150.1,123.3,150
		L123.3,150z M12.6,109.5c0.7-2.5,0.3-3.8,1.4-6.9l2.9,1c0,0,0.1,3-0.5,4.6C15.9,109.9,14,111.2,12.6,109.5z M34,176
		c0.3,0,1.2,1.2,1.5,2.3c0.3,1,0.2,2.3,0.5,3.4c0.6,3.7,0.5,7.4,0.4,8.5c-0.1,0.6-0.4,0.3-0.9-0.2c-0.7-0.8-0.6-0.8-0.6-2.9
		c0-1.8-0.4-6.4-0.6-7.3c-0.3-1.7-0.5-3.3-0.4-3.6C33.9,176.1,33.9,176,34,176z M67.4,176.5c3.7,0.6,6.6,3.1,8.3,7.3
		c1.6,4.2,2,10,2.3,15.3c0,1.3-0.5,0.9-1.9,0.2c-1.5-0.7-1.8-0.5-4,0c-1.4,0.3-1.2-0.6,1-2.2c0.8-0.5,1.6-1.2,1.4-1.3
		c-0.1-0.1-0.8,0.1-1.3,0.5c-2.2,1.8-2.8,2.2-2.2,0.5c0.2-0.4,0.7-1.6,0.9-2.2c0.8-2.2-0.1-3.1-2.8-4.5c-0.7-0.3-1.1-0.9-0.4,0.3
		c0.6,1-0.6,1.8-2,0.6c-1-0.8-3-0.3-3.6,0.7c-0.6,1-0.3,2.8,0.9,3.3c1.1,0.5,1.5,0.1,0.4-0.6c-1.3-0.9-1.1-2.5,0.4-2.5
		c0.4,0,1,0.4,2.7,1.3c1.2,0.6,2,0.4,2-0.6c0-0.6,0.4-0.6,1.1-0.2c1,0.5,0.9,1,0.4,2.4c-0.4,1-0.6,2.2-0.9,3.2c-0.9,3.6-1,7.6,0,8.8
		c2.6,3.3,5.3,3,7.7,0.8l-0.1,3.7c-2.4,1.9-5.2,3.2-9.5,10.4c-1.5-1.9-8-9.7-18.4-11.4l-2.3-3.2c0-0.2-1.7-11.9-2.9-15.9
		c0,0,1.3-2,2.5-3.4C51.7,182.1,59.6,175.5,67.4,176.5L67.4,176.5z M53.9,179.8c-0.4,0.1-0.5-0.7-0.3-0.8c0.5,0,0.7,0,1.1,0
		C55.1,179,55.1,179.4,53.9,179.8L53.9,179.8z M36.4,179.2c0.5,0.4,1.2,1.4,1.8,2.3c0.3,0.5,0.1,1.3,0.2,2.2
		c0.1,1.2,0.2,3.1,0.3,4.3c0.2,2.3-0.1,4.2-0.4,4.9c-0.3,0.8-1,0.3-1.2-0.9c0-0.3,0.2-3.1,0.2-4.7C37.2,184.6,36.5,181.3,36.4,179.2
		L36.4,179.2z M52.1,179.2c0.2,0,0.3,0,0.4,0.2c0.6,0.7,0.8,1.2,0.3,1.5c-0.7,0.6-1.3,0.4-1.7-0.7C50.9,179.5,51.5,179.2,52.1,179.2
		z M50,179.8c0.6,0.4,1.2,1.5,1.3,2.2c0,0.2-0.2,0.4-0.6,0.7c-0.4,0.4-0.5,0.3-1-0.4c-0.7-1.1-1-1.8-0.9-2.2
		C49.1,179.8,49.6,179.7,50,179.8z M74.6,180c1,0.1,2,0.5,3,0.8l-1.5,1.4C75.6,181.4,75.1,180.7,74.6,180z M47.8,180.7
		c0.6,0.7,1.5,2.6,1.5,3.3c-0.1,0.2-0.4,0.5-0.6,0.6c-0.2,0.1-0.3-0.3-1-1.4c-1.1-1.9-1.4-2.5-0.8-2.7
		C47.1,180.5,47.6,180.5,47.8,180.7z M45.6,181.2c0.6,0.5,2,3.4,2.1,4.2c0,0.2-0.1,0.4-0.2,0.6c-0.9,1-0.7,0.8-2-2
		c-1.1-2.3-1.4-2.5-0.7-2.8C44.9,181.1,45.3,181.1,45.6,181.2L45.6,181.2z M43.4,181.9c0.4,0,0.5,0.7,1.3,2.2
		c1.3,2.9,1.8,3.3,1.5,3.6c-0.4,0.5-0.6,0.8-0.9,0.2c-0.8-1.3-1.6-2.9-2.3-4.3c-0.6-1.1-0.6-1.2-0.3-1.5
		C42.9,181.9,43.3,181.9,43.4,181.9L43.4,181.9z M66.5,182.7c-0.5,0.1-2.4,0.8-1.2,0.9c0.2,0,0.9-0.1,1.3-0.2
		c1.2-0.1,3.7,0.1,3.6-0.1C70,182.5,67.2,182.5,66.5,182.7z M41.7,183c0,0,0.3,0.6,0.6,1.2c1.8,3.6,2.9,4.9,2.5,5.4
		c-0.3,0.3-0.7,0.8-0.9,0.7c-0.4-0.2-0.9-1.3-2.2-4c-1.4-2.7-1.5-2.9-0.8-3.3C41.2,182.8,41.6,182.7,41.7,183L41.7,183z M39.9,184.2
		c0.8,1.4,0.7,1.2,0.7,5.7c0,2.8-0.4,4.6-0.8,5.3c-0.2,0.4-0.7,0.1-0.9-0.6c-0.1-0.3,0.2-0.8,0.2-1.3c0.3-3.4,0.1-6.7,0.1-9.9
		C39.5,183.4,39.8,184,39.9,184.2z M61.7,185.3c0.4,0.6,0.3,1,0.3,1.8c0,1.1,0.1,1.2,0.8,0.6c0.7-0.5,0.7-0.5,1.9,0.3
		c0.7,0.5,1.6,0.5,2.1,0c0.4-0.4,0.5-0.2,1.1-0.1c0.6,0.3,0.7,0.4,2-0.2c0.8-0.4,0.9-0.4,1.4-0.2c0.9,0.8,1,0.5,0.9-0.5
		c0-0.4,0.1-1,0.2-1.4c0.4-1.8-0.3-1.8-1.2-0.7c-0.4,0.4-1.2,0.6-1.9,0.3c-1.1-0.5-2.8-0.3-4.1-0.1c-1.5,0.3-2.2-0.2-2.8-0.7
		c-0.3-0.3-1.1-0.6-1.2-0.3C61,184.3,61.2,184.7,61.7,185.3L61.7,185.3z M41.6,187.9c0.2,0,0.5,0.5,0.9,1.7c0.5,1.5-0.4,6.8-1,7.7
		c-0.3,0.5-0.5,0.7-1.1-0.1c-0.2-0.4-0.1-0.5,0.2-1.5c0.4-1.6,0.7-4.1,0.7-5.3C41.3,188.7,41.4,187.9,41.6,187.9L41.6,187.9z
		 M43.5,193c0.1,0,0.3,0.3,0.5,0.9c0.3,0.8,0.2,2.4-0.2,3.6c-0.2,0.7-0.5,1.5-0.8,2.1c-0.1,0.4-0.8,0.2-1-0.6
		c-0.1-0.5,0.3-1.1,0.5-1.9c0.2-0.8,0.4-1.8,0.5-2.3C43.2,193.6,43.3,193,43.5,193z M58.3,195.3C58.3,195.3,58.3,195.3,58.3,195.3
		C58.3,195.3,58.2,195.4,58.3,195.3c-0.1,0,1.4,1.7,1.8,2.1c0.2,0.2,2,2.3,0.9,1.8c-2.8-1.2-6-0.6-8,1.3c-0.3,0.2-0.5,0-1.2-0.1
		c-1.6-0.1-2.1,0.5-1.2,1.3c0.1,0.1,0.4,0.2,0.6,0.4c0.1,0.2,0.1,0.5,0.2,0.6c3,4,8.6,4.8,12.1,2.2c0.4-0.3,0.7-0.4,1.1-0.3
		c0.8,0.2,0.9-0.4,0.2-1.4c-0.3-0.4-0.7-0.9-0.5-1c0.4-0.4,0.7-1-0.1-1.2c-0.5-0.2-1.1-0.8-1.4-1.6
		C62.2,198.4,58.8,195.4,58.3,195.3L58.3,195.3z M44.6,197.1c0.7,0,0.7,3.9,0,5c-0.4,0.4-1.2-0.4-1.1-1.2c0.1-0.6,0.8-3.6,0.9-3.7
		C44.5,197.1,44.6,197.1,44.6,197.1L44.6,197.1z M58,199.5c0.5,0,1.3,0.2,1.9,0.8c0.3,0.3,0.9,1.6,0.7,2.1c-0.1,0.3-0.7,0.2-0.8,0.1
		c-0.4-2.6-2.4-2.9-3.1-0.5c0,0-0.4,0.4-0.5-0.3C56.3,200.2,56.9,199.5,58,199.5L58,199.5z M74.6,199.7c0.7,0,1.3,0.3,1.6,1
		c0.2,0.5,0.2,0.9,0.2,1.1c-0.1,0.2-0.3,0.1-0.3,0.1c-1-2.9-2.5-1.5-3,0c0,0-0.5,0.2-0.6,0c-0.1-0.2,0-0.5,0.2-0.9
		C73.1,200.2,73.9,199.7,74.6,199.7L74.6,199.7z M60.6,199.9c0.4,0,1,0.3,1.5,0.8c0.5,0.5,0.5,0.8,0.1,1.1c-0.2,0.2-1.1,0.4-1.2,0.1
		l-0.7-1.6C60.2,200.1,60.4,199.9,60.6,199.9L60.6,199.9z M55.5,200c0.4,0,0.5,0.1-0.1,1.6c-0.1,0.3-1.8-0.1-1.5-0.8
		C54.4,200.3,55.1,200,55.5,200z M72.3,200.1c0.2,0,0.3,0,0.4,0.1c-0.1,0.1-0.8,1.7-0.8,1.7c-0.6-0.1-1.3,0-1.4-0.5
		c-0.1-0.5,0.1-0.7,1-1.1C71.6,200.2,72,200.1,72.3,200.1z M77.2,200.5c0.6,0.2,0.8,0.8,0.7,1c-0.1,0.2-0.4,0.2-0.6,0.1
		c-0.2-0.2-0.5-0.6-0.5-0.9C76.9,200.4,77,200.4,77.2,200.5z M45.6,202c0.2,0.4,0.5,2.5,0.1,2.4c-0.4-0.1-0.6-0.7-0.7-1.3
		C45.1,203,45.4,202,45.6,202z M52.6,203.1c0.2,0,0.6,0.1,1.3,0.5c2.3,1.1,4.6,1.3,7.1,0.7c1.4-0.4,1.8-0.6,2-0.3
		c0.3,0.4-0.2,0.8-2.2,1.5c-2.2,0.7-4.5,0.6-7.5-1.5C52.5,203.4,52.4,203.1,52.6,203.1L52.6,203.1z M77.8,203.7
		c0.4,0.7-0.9,1.4-1.5,1.6c-1.4,0.4-3.4,0.2-4.6-0.5c-0.1-0.1-0.2-0.1-0.3-0.2c-1-0.7-0.6-1.2,0.5-0.7c1.1,0.6,3.5,0.7,4.7,0.1
		C77.2,203.7,77.6,203.3,77.8,203.7L77.8,203.7z M49.6,205c-0.1,0,0.1,0.3,0.5,0.8c3.1,3.5,10.5,5.4,14.7,1.8c1.3-1.2,1.1-1.8-1-0.8
		c-2.3,0.8-5.5,0.8-8.3,0.4c-1.4-0.2-3.6-0.7-4.8-1.5C50.1,205.2,49.7,205,49.6,205L49.6,205z M71,205.1c0.2,0,0.5,0.1,1.2,0.5
		c1.1,0.5,3.4,0.4,4.2,0.1c1.7-0.6,2,0.2,0.4,1c-1.7,1.1-4.1,0.6-5.6-0.7c-0.4-0.4-0.7-0.9-0.5-0.9C70.9,205,71,205.1,71,205.1z
		 M50.4,211.3c6.1,0.6,15.4,7,19,14.3h-2.1c-3.6-5.8-9.2-10.7-15.8-12.5C51.2,212.9,50.3,211.5,50.4,211.3L50.4,211.3z M77.6,212.6
		l-0.3,2c-1,0.8-4.8,4-7.6,8.9c-0.6,0-0.9-0.7-0.8-1.2C71.2,217.9,73.9,215.4,77.6,212.6L77.6,212.6z M52.8,214.2
		c1.4-0.1,10.5,5.2,13.6,11.4h-1.7c-3.5-4.5-7.3-7.8-10.7-9C53.2,215.7,52.3,214.2,52.8,214.2z M77.3,215.6l0,2.7
		c-2.2,2.1-3.8,4.6-5,7.2h-1.7c0,0-0.4-1.1-0.2-1.5C72.2,220.6,74.1,218,77.3,215.6L77.3,215.6z M63.4,225.6h-1.6
		c-1.4-2-3.4-4.2-5.3-5.3c-0.8-1-1.6-2.2-1.3-2.3C55.2,217.2,62.4,222.5,63.4,225.6L63.4,225.6z M77.3,219.7l0,1.6
		c-1.1,1.4-2,3-2.9,4.3H73C74.3,222.8,77.5,218.9,77.3,219.7L77.3,219.7z M58.5,222.8c0.5,0.1,2.4,2.2,2.3,2.8H60
		c-0.5-0.6-1-1.6-1.4-2.2C58.4,223,58.3,222.7,58.5,222.8L58.5,222.8z M77,223.2C77,223.2,77,223.2,77,223.2c0,0,0,2.3,0,2.3h-1.4
		C75.5,225.6,76.3,223.7,77,223.2L77,223.2z"/>
	
		<path id="path6313-8_1_" d="
		M84.7,17.9L137,92.3l0-16.5l-16.8-21.7c3.8-1.2,8.5-2,12.2-2.3c-4.7-10.5-7.1-20.3-5-33.8C112.7,17.7,98,17.7,84.7,17.9z
		 M126.5,18.2c-0.4,4.8-0.9,10.1-0.1,16c-2.7-1-3.4,0.7-3.8,0.9c-0.5-1.1-2.4-3.1-4.6-0.8c-1.1,1.2-0.6,3.5,2,4.5
		c-3,0.2-4.5-2.3-5-4.9c-1.6-1-3.3-2-3.5-5.7l0.8,0.1c-0.3,2.5,2.3,3.8,3.9,2.6c1-0.8,1.1-1.9,0.7-3.7c0.8-0.2,2.7-0.9,2.2-3.3
		c-0.7-3.3-4.1-2.9-5.6-0.7c-1.3-1.6-3.6-1.9-4.6,0.6c-0.5,1.4,0.7,2.9,2,3.2c-3,0.6-4.6-3.6-4.7-6.4l-1.3-2.2
		C113.2,18.2,116.8,18.2,126.5,18.2z M85.5,18.3l6.1,0l44.4,57.5l0.1,14.3L85.5,18.3z M100.9,18.3l1,0c0.8,5.1,3.7,8.7,8.6,10.5
		c0.3,4.1,2.2,9.8,9.8,11.7c-0.2,4.7,2.8,9.1,6,11.3c0,0-0.9,0.2-1.5,0.3c-4.3-3.4-5.4-8.5-5.8-10.5c-0.1-0.3-0.6-0.4-0.9-0.4
		c-3.7-1.3-6.8-4.3-8.1-8l-0.8-3.6c0-0.5-0.1-0.2-1.2-0.7c-2.8-1-5.5-4.1-6.7-7.8C100.7,19,100.9,18.3,100.9,18.3L100.9,18.3z
		 M97,18.3l3.4,0c0,0,0,0.6,0.1,1c0.5,3.6,3.7,8.2,7,9.7c0.5,0.2,1.1,0.5,1.3,0.7c0.9,5.9,3.6,9.5,9.3,12c0.1,0.1,0.3,0.2,0.4,0.3
		c0.8,3.7,2.5,7.9,5.7,10.3l-1.4,0.1L97,18.3z M113.6,24.6c0.8,0,1.4,0.6,1.4,1.4s-0.6,1.4-1.4,1.4c-0.8,0-1.4-0.6-1.4-1.4
		S112.8,24.6,113.6,24.6z M66.6,32.2c0.1,0.2-19,16.4-17.2,46.9l-0.6,0.6L49,80c-0.6,0.7-1.2,1.3-1.9,2c4,2.5,10.9,5.3,10.9,5.2
		l-1.3,3.1l8.3,2.7l-1.1,2.9c0,0-5.7-1.9-8.1-2.7c-1.2,2.6-1.9,5.4-2.7,8.1c-0.1,0.2-0.3,0.1-0.6-0.3c-4.3-7.3-13.1-12.6-12.8-12.1
		L8.3,118.5l-0.2,18.4l21.6,22.3c0,0-6.3,3.1-9.2,5.1c2.3,1.9,4.9,3.3,7.2,5.1c4.7,3.3,7.9,8.3,11,11.6c14.5-7.2,29.1-6.8,41.7-2.4
		c-1.5,1.5-3.1,2.9-4.6,4.6c3.7,9.6,2.5,28.7,2.3,29.3c7.6-7.8,19-24.5,17.4-48.1l3.2-3.2c-0.1-0.2-8-4.4-11.3-5.4l0.9-2.9l-7.9-2.5
		l0.9-2.3l7.9,2.3c1.5-3.7,3.1-8.9,3.1-8.9c3.2,4.7,6.6,9.1,13.8,13.4l31.1-29.8l-0.2-19.2l-21.2-21.2l8.8-4.6
		c-0.8-0.7-2.1-1.3-2.9-2c-0.1,0,0.2-0.2,0.1-0.2c-0.2-0.2-0.4-0.3-0.6-0.5c-0.1,0-0.2,0.2-0.3,0.2c-3-2.1-6-4.2-8.3-6.7
		c-0.1-0.1,0-0.3,0-0.4c-1.2-1.3-2.4-2.5-3.7-3.8c-0.6-0.6-1.5-2-1.5-2l-0.1-0.5l-1.3-1.7c-4.3,2.5-22.6,8.9-40.4,1.9l3.4-3.4
		c-0.9-2.2-1.5-4.6-1.7-6.6C66.3,46.5,66.6,32.2,66.6,32.2L66.6,32.2z M122.6,36.7c0.8,0,1.5,0.7,1.5,1.5s-0.7,1.5-1.5,1.5
		c-0.8,0-1.5-0.7-1.5-1.5S121.8,36.7,122.6,36.7z M127.2,38.5c0.7,3.7,2.4,9,4,12.6l-2,0.2c-1.6-1-3.3-2.5-3.5-4.7
		c-4.3,0-5.6-6.7-4-5.9c-0.2,2.3,1.5,3.2,3.1,3c1.4-0.2,2.6-2.1,0.9-4.3C126.6,39.1,126.9,38.9,127.2,38.5z M66.2,49.3
		c0.3,4.7,1.2,8.1,2.1,11.7l-8.5,8C60.4,61.7,62.5,55.1,66.2,49.3z M107,64.8l1.1,1.6C95.7,73.5,74.8,74.1,62,68l1.7-1.6
		C74.9,71.4,93.2,71.8,107,64.8z M27.1,67.2c-1.2,0-2.7,0.5-4.2,1.6c-5.6-2.6-9.3,3.4-5.8,7.4c-0.5,2.9-0.9,3.4,1.2,6.3
		c-2.3,0.3-5.2-0.3-7.6-0.7c0.4,4.2,6.5,5.2,9,4.8c2.7-0.6,5.3,0.8,5.4,0.8c1.6,0.4,2.6,1.2,4.2,1.6c2.6,0.6,6.4-2.4,7-5.4
		c0.1-0.4,0.2-0.7,0-0.8c-1.8,0.5-3.7,1.1-5.5,1.5c-1.7,0.4-3,0.8-4.3,1.8l-0.1-3.5c8.8,0.4,5-8,4.5-8.4
		C32.5,71,30.6,67.2,27.1,67.2L27.1,67.2z M107.4,67.4l1.9,4.6l-5.1,1.7l-1.3-4.5L107.4,67.4z M26.8,67.6c3,0,5.7,3.2,2.8,6.7
		c5.6,4.9-1.6,10.2-5,6.6c-4.5,4.2-9.4-0.2-6.8-4.7c-4.8-4.3,1.1-10.2,5.2-6.4C24,68.2,25.4,67.6,26.8,67.6z M61.6,69.3
		c0.7,0,1.3,0.6,1.3,1.3s-0.6,1.3-1.3,1.3c-0.7,0-1.3-0.6-1.3-1.3S60.9,69.3,61.6,69.3z M28.4,69.4c-0.1,0-0.2,0-0.3,0.1
		c-0.1,0-0.5,0.6-1.3,1.5c-1.4,1.6-1.5,1.6-1.5,1.6c-1.5-0.5-2.5-0.2-3.4,0.4c0,0-1.1-0.2-2.6-1.5c-0.7-0.6-1.1-0.7-1.2-0.4
		c-0.1,0.3,0.2,0.7,1.5,1.6c1.8,1.3,1.7,1.2,1.7,1.2c-0.1,1.1,0.1,2,0.5,2.8c0,0-0.3,0.8-1.6,2.5c-0.4,0.5-0.7,1-0.7,1.2
		c0,0.7,0.6,0.2,1.9-1.5c0.5-0.7,1.2-1.6,1.2-1.6c1.6,0.5,2.1,0.2,3.1-0.1c0,0,0.3,0.3,1.2,0.9c1.6,1.3,1.9,1.4,2.1,1.2
		c0.3-0.2,0.2-0.3-0.4-0.7c-1.8-1.3-2.4-2-2.4-2c0.4-1.4,0-2.6-0.4-3.3c0,0,0-0.2,1-1.3c0.7-0.8,1.7-2.1,1.7-2.3
		C28.6,69.5,28.5,69.4,28.4,69.4z M64.6,69.7l4.6,1.4l-1,4.8l-4.9-1.6L64.6,69.7z M97.8,70.8l1.3,4.7l-4.8,1.3l-0.8-5L97.8,70.8z
		 M101.2,70.9c0.7,0,1.3,0.6,1.3,1.3s-0.6,1.3-1.3,1.3c-0.7,0-1.3-0.6-1.3-1.3C99.9,71.5,100.5,70.9,101.2,70.9z M112.1,71.1l4,3.6
		l-4.5,2.3l-2.1-4.7L112.1,71.1z M74.1,72.1l4.7,0.6l-0.2,5L73.3,77L74.1,72.1z M57.9,72.2l5.2,2.3l-1.9,5.2l-5.3-2.3L57.9,72.2z
		 M71.3,72.6c1.9,0.3,1.4,2.6,0,2.6c-0.7,0-1.3-0.6-1.3-1.3S70.6,72.6,71.3,72.6z M88.1,72.6l0.6,5l-4.8,0.3l-0.1-5.1L88.1,72.6z
		 M91.5,73.2c0.7,0,1.3,0.6,1.3,1.3c0,0.7-0.6,1.3-1.3,1.3c-0.7,0-1.3-0.6-1.3-1.3C90.2,73.7,90.8,73.2,91.5,73.2z M24,73.6
		c0.7,0,1.3,0.6,1.3,1.3c0,0.7-0.6,1.3-1.3,1.3c-0.7,0-1.3-0.6-1.3-1.3C22.6,74.2,23.2,73.6,24,73.6z M81.4,73.6
		c0.7,0,1.3,0.6,1.3,1.3c0,0.7-0.6,1.3-1.3,1.3c-0.7,0-1.3-0.6-1.3-1.3C80.1,74.2,80.7,73.6,81.4,73.6z M104.2,73.9l1.9,5.2
		l-5.3,1.7l-1.5-5.3L104.2,73.9z M108,74c0.7,0,1.3,0.6,1.3,1.3c0,0.7-0.6,1.3-1.3,1.3c-0.7,0-1.3-0.6-1.3-1.3
		C106.7,74.6,107.2,74,108,74z M117.1,75.5l3.4,2.4l-1.7,0.9C118.4,77.8,117.6,76.6,117.1,75.5z M68.2,76l5.1,1.1l-0.8,5.3l-5.5-1.1
		L68.2,76z M53.1,76.3l2.7,1.3L54.1,82l-4.3-2.3L53.1,76.3z M65.1,76.6c0.7,0,1.3,0.6,1.3,1.3s-0.6,1.3-1.3,1.3
		c-0.7,0-1.3-0.6-1.3-1.3S64.4,76.6,65.1,76.6z M94.3,76.8l0.9,5.3L89.5,83l-0.4-5.4L94.3,76.8z M115.7,76.9c0.7,0,1.3,0.6,1.3,1.3
		c0,0.7-0.6,1.3-1.3,1.3s-1.3-0.6-1.3-1.3C114.4,77.5,115,76.9,115.7,76.9z M111.6,77l1.9,4.7l-5.6,2.3l-1.7-4.7L111.6,77z
		 M97.4,77.3c0.7,0,1.3,0.6,1.3,1.3c0,0.7-0.6,1.3-1.3,1.3c-0.7,0-1.3-0.6-1.3-1.3C96.1,77.9,96.7,77.3,97.4,77.3z M78.6,77.9
		l5.3,0.1l-0.1,5.4L78,83.2L78.6,77.9z M121.3,78.2l2.1,1.5c-21.6,13.9-52,15.7-75.6,1.9c0,0,1-1,1.5-1.5
		C70.6,92.9,101.8,91.1,121.3,78.2z M75.7,78.8c0.7,0,1.3,0.6,1.3,1.3c0,0.7-0.6,1.3-1.3,1.3c-0.7,0-1.3-0.6-1.3-1.3
		C74.4,79.4,75,78.8,75.7,78.8z M86.6,79.1c0.7,0,1.3,0.6,1.3,1.3c0,0.7-0.6,1.3-1.3,1.3s-1.3-0.6-1.3-1.3
		C85.3,79.7,85.9,79.1,86.6,79.1z M61.2,79.8l5.6,1.6l-0.9,4.4l-6.1-1.8L61.2,79.8z M57.5,79.9c0.7,0,1.3,0.6,1.3,1.3
		c0,0.7-0.6,1.3-1.3,1.3c-0.7,0-1.3-0.6-1.3-1.3C56.2,80.5,56.8,79.9,57.5,79.9z M100.8,80.8l1.3,5L96,87.1l-0.7-4.9L100.8,80.8z
		 M104.4,81.5c0.7,0,1.3,0.6,1.3,1.3c0,0.7-0.6,1.3-1.3,1.3c-0.7,0-1.3-0.6-1.3-1.3C103.1,82.1,103.6,81.5,104.4,81.5z M23.9,82.3
		l0,3.5c-1-0.8-2.2-1.7-3.4-2.7C21.7,83.2,22.8,82.9,23.9,82.3L23.9,82.3z M11.2,82.4c0.3,0,0.9,0.2,1.7,0.2c2.5,0,7.2,0.8,8.6,1.9
		c0.5,0.4,1.2,0.7,1.5,1.3c0,0.3-0.4,0.3-1-0.1c-1.2-0.7-3.1-1.4-5.7-1.7c-0.5-0.1-0.5,0-0.5,0.2c0,0.3,0.4,0.4,1.8,0.7
		c1.8,0.3,2.1,0.5,2.5,0.6c1,0.3,0.4,0.7-0.7,0.8c-4.4,0.4-7.7-1.5-8.4-3.7C11,82.4,11,82.4,11.2,82.4L11.2,82.4z M72.5,82.5
		l5.5,0.7l-0.3,4.6l-6.1-0.7L72.5,82.5z M25.4,82.9c1,0.8,0.3,3.1-0.2,3.7C24.8,87,24,86.8,24,86.3c0.1-0.5,0-2.8,0.1-3.5
		C24.5,82.6,25,82.6,25.4,82.9L25.4,82.9z M89.5,83.1l0.3,4.8l-6,0.3l0-4.7L89.5,83.1z M69.2,83.4c0.7,0,1.3,0.6,1.3,1.3
		c0,0.7-0.6,1.3-1.3,1.3c-0.7,0-1.3-0.6-1.3-1.3C67.8,84,68.4,83.4,69.2,83.4z M35.5,83.5c0.2,3.5-5.2,5.9-7.2,4.8
		c-0.9-0.5-0.5-0.8,1.2-1.1c2.3-0.6,3.8-1.2,3.8-1.6c0-0.3-0.3-0.2-1.3,0.1c-1.4,0.5-2.9,0.7-4.3,1.3c-1,0.5-1.4,0.6-1.7,0.3
		c-0.5-0.6,1.8-2.1,4.2-2.5C32.1,84.5,33.9,83.6,35.5,83.5L35.5,83.5z M92.9,83.9c0.7,0,1.3,0.6,1.3,1.3c0,0.7-0.6,1.3-1.3,1.3
		c-0.7,0-1.3-0.6-1.3-1.3C91.6,84.5,92.1,83.9,92.9,83.9z M80.8,84.9c0.7,0,1.3,0.6,1.3,1.3c0,0.7-0.6,1.3-1.3,1.3
		c-0.7,0-1.3-0.6-1.3-1.3C79.4,85.4,80,84.9,80.8,84.9z M109.7,87.1c8.7,8.3,18.3,17.9,26.1,25.8c0,4.1,0,12.4,0,12.4l-30.1,28.7
		c-5.4-3.3-10.1-7.5-14.3-14.9c0.5-0.4,0.9-0.7,1.3-1.1l-1.6,0.9c-5.5-8.9-7.9-26.6,1.5-40.8l-9.5,0.3l1.6-3.2l10.4-0.6l4.2-4.5
		c0,0,1.3-0.2,2.4-0.5c1.1-0.3,3.3-0.9,5-1.4S109.7,87.1,109.7,87.1L109.7,87.1z M39.4,89.4c0,0,9,4.9,13.9,14.6
		c-16.1,13.9-22.1,30-23.5,46.8c-8.7-8.2-13.2-12.7-21.1-20.7l0.3-11.9L39.4,89.4z M73.2,90.9c-2.3,5-4.3,10.4-6.1,16.2l-2.5-0.7
		c0,0,1.6-0.7,2.3-1.1l-1.3-2.1l2.5-1l-1.4-1.8l2.5-1.4l-1.2-1.6l2.3-1.1l-1.4-1.6l2.4-1.3l-1.2-1.6L73.2,90.9z M74,90.9
		c0,0,0.3,0.1,0.7,0.1c0.1,0-0.4,1.3-0.4,1.3c0.9,0.2,0.9,0.1,1.2,0.2l0.7-1.4l1.1,0.2c-2.2,5-4.5,10.4-5.9,16.3l-1.3-0.3
		c0,0,0.4-1.2,0.4-1.4c-0.2,0-0.9-0.3-1.1-0.4c-0.1,0.2-0.5,1.6-0.5,1.6l-1,0C69.5,100.8,72.4,93.7,74,90.9L74,90.9z M78.2,91.1
		l2.3,1.9l-2.6,1l1.3,1.8l-2.7,1l1.6,1.9l-2.7,1l1.6,2.2l-2.8,1l1.8,2l-2.5,1.2l1.5,1.5c0,0-1.6,0.5-1.7,0.5
		c-0.3,0.1-1.3-0.2-1.3-0.2C73.5,102.1,75.5,96.3,78.2,91.1L78.2,91.1z M22.9,92.1c-0.6,0.4-0.3,1.3-1.1,2.1
		c-0.1,0.1-0.1,0.4-0.2,0.7c0,0.2-0.7,2.7-0.7,2.7s0.2-0.2,0.4-1c0.2-0.7,0.4-2,0.5-2.2c0.6-0.2,0.7-2.1,1.3-1.8
		c0.3,0.2,0.3,0.5,0.1,1.2c-0.4,1.5-0.6,2.1,0.1,1.1c1.1-1.3,1.2-2.5,0-2.7C23.2,92.1,22.9,92.1,22.9,92.1L22.9,92.1z M39.1,92.6
		L11,119.1l-0.1,9.9l9.8,9.9l6.9,6.7c2.5-15.1,8.3-29.5,22.5-42C48,100.1,44.3,95.7,39.1,92.6L39.1,92.6z M114.8,92.9
		c-16.5,7.8-20.3,23.7-15.2,38.2C107.5,120.9,113.7,111.4,114.8,92.9z M56.1,93.7l7.5,2.4l-2.8,9.7l-6.8-2.1l-0.7-1.7L56.1,93.7z
		 M114,94c-0.7,12.9-5.6,25.5-14,35.4C95.7,118.8,98.3,101.9,114,94z M73.6,94l-0.5,1.2l1,0.3l0.4-1.2L73.6,94z M72.6,96.9l-0.4,1.2
		l1.1,0.4l0.4-1.2L72.6,96.9z M116.8,97.1c-2.3,17.9-12,34.2-22.2,42.5c3.2,5.3,7.1,8.7,10.9,11.5l28.7-27.6l-0.1-9.2L116.8,97.1z
		 M40.9,101.8c-0.2,0.7-0.2,1-0.2,1s0.3-0.3,1.2-0.8c5.6-2.8,3.8,1.5,1.2,3.1c-0.6,0.3-1.2,0.7-1.2,0.7s0.6,0.1,1.2,0.2
		c3.4,0.7,2.7,2.7-0.9,2.4c-0.5,0-1.1-0.1-1.1-0.1c0,0,0.2,0.8,0.5,1.4c1.2,3-1,3.3-2.5,1.3c-0.2-0.3-0.7-1-0.7-1s-0.1,0.6-0.2,1.1
		c-1.3,4.8-4.4,4.6-3.2-0.2c0.1-0.5,0.3-1.4,0.3-1.4s-0.7,0.4-1.5,0.8c-4.1,1.8-4.7-0.1-1-2.8c1.1-0.8,1.4-1.1,1.4-1.1
		c-0.7-0.1-1.3-0.2-1.8-0.3c-3-0.7-3.7-2.5,1-2.4c0.7,0,1.4,0.1,1.4,0.1s-0.2-1-0.5-1.8c-1.1-3.6,1.2-4,3.1-0.8
		c0.4,0.7,0.5,0.7,0.5,0.7c-0.1,0,0.1-1.2,0.6-2.3C40.7,95.2,41.7,99.2,40.9,101.8L40.9,101.8z M91.7,98.3c-2,3.5-3.7,7-4.5,10.6
		l-7.7-0.1c0.5-3.2,1.9-6.6,3.5-10.1C86.2,98.6,89,98.5,91.7,98.3z M71.5,99.9l-0.4,1.3l1.1,0.3l0.4-1.3L71.5,99.9z M14.1,102.3
		c-0.8,2.1-1.1,4.5-1.6,6.4c-0.2,1.1,0,1.6,0.7,1.8c0.9,0.4,2.3-0.1,3.1-1.2c0.4-0.6,0.7-1.9,0.8-4.1l0.1-2
		C16,103,15.2,102.6,14.1,102.3L14.1,102.3z M70.4,102.5l-0.4,1.2l1.1,0.4l0.4-1.2L70.4,102.5z M120.1,103c1.3,0,1.5,0.1,2.7,0.9
		l2.3,2.4c-0.6,0.6-1,1.4-1,2.3c0,1.7,1.4,3.2,3.1,3.2c0.9,0,2.2-0.9,2.2-0.9l3.6,3.8c-2.1,0.9-4.2-1.2-4.9-2
		c-0.2-0.2-0.2-0.3-0.2-0.3s0,0.1,0,0.5c-0.3,1.7-1.9,6.6-3.5,6.3c-1.8-0.3,0-7.3,0.1-7.2c-1.2,1.3-7.1,2.7-6.7,1.2
		c0.8-2.9,5.3-4,5.8-4.5C121.2,107.1,118.2,103.2,120.1,103L120.1,103z M14.4,103.1c0.8,0.1,1.3,0.1,1.8,0.4
		c0.2,0.1,0.2,0.3,0.3,0.5c0,0.8,0.2,3.3-0.6,3.4c-0.9,0-1.7,0.2-2.3,0.6c-0.5,0.4-0.6,0.1-0.5-0.8c0.1-0.9,0.6-2.7,0.7-3.5
		C13.9,103.3,14.1,103.1,14.4,103.1z M37.8,103.1c-1.7,0-3.1,1.4-3.1,3.2c0,1.7,1.4,3.2,3.1,3.2s3.1-1.4,3.1-3.2
		S39.6,103.1,37.8,103.1z M37.8,104.2c1.1,0,2,0.9,2,2.1c0,1.1-0.9,2-2,2c-1.1,0-2-0.9-2-2C35.8,105.1,36.7,104.2,37.8,104.2z
		 M54.1,104.3c7.2,12.5,6.4,29.6-2.1,42.1l9.1-0.6l-1.2,2.3l-9.7,1c-1.5,1.4-2.8,2.9-4.3,4.4l0,0.5c-3.3,0.8-6.7,1.7-10.1,2.9
		c-1.8-1.8-5.2-5.3-5.2-5.4l0.2-1.1c23.2-11.8,16.4-35.6,14.8-37.6C48,109.7,51,106.9,54.1,104.3L54.1,104.3z M118.3,106.5
		c0.9,0,1.7,0.8,1.7,1.7c0,0.9-0.8,1.7-1.7,1.7c-0.9,0-1.7-0.8-1.7-1.7C116.6,107.3,117.4,106.5,118.3,106.5z M125.9,107l2.8,2.9
		c-0.4,0.4-0.9,0.6-1.4,0.6c-1.1,0-2-0.9-2-2C125.3,107.9,125.5,107.4,125.9,107z M28.1,107.3c0.9,0,1.7,0.8,1.7,1.7
		c0,0.9-0.8,1.7-1.7,1.7c-0.9,0-1.7-0.8-1.7-1.7C26.4,108.1,27.2,107.3,28.1,107.3z M15.5,108.1c0.8,0.3,0.6,1-0.4,1.7
		c-0.7,0.4-1.3,0.5-1.9,0.2C12.1,109.3,14.4,107.7,15.5,108.1z M28.6,112.2l-10.2,9.9c0.6-1.6,0.7-3.3,0.7-4.9
		c3.1,0.3,4.4-1.2,3.9-4.5C25,112.9,27.1,112.6,28.6,112.2L28.6,112.2z M45,113.4c4.7,13.6,0.6,27.9-14.2,36.2
		C31.4,136.6,36.9,124.2,45,113.4z M58.5,114.5c8.1,2.1,17.4,3.1,27,3.1c0.1,3.7,0.2,7.6,1,11.3c-8.2-2.2-17.4-3.2-27.4-3
		C59.6,122.1,59,117.7,58.5,114.5L58.5,114.5z M119,116.6l-8.7,10.2l0.4-5.6c2.9,0.4,4-1.2,3.5-4.2
		C115.8,117.1,117.4,116.9,119,116.6z M34.6,117.1l-0.7,4.1c-1.7,0-3.4,0.7-3.4,4.5l-5.2-0.1L34.6,117.1z M130.1,117.9
		c0.9,0,1.7,0.8,1.7,1.7c0,0.9-0.8,1.7-1.7,1.7c-0.9,0-1.7-0.8-1.7-1.7C128.4,118.6,129.2,117.9,130.1,117.9z M26.8,118.4
		c0.9,0,1.7,0.8,1.7,1.7s-0.8,1.7-1.7,1.7c-0.9,0-1.7-0.8-1.7-1.7S25.8,118.4,26.8,118.4z M126.3,120.1l-0.9,6.2
		c-2.4-0.2-4.3,0.2-3.7,4.3c-2-0.2-4.8,0.3-6.6,0.4L126.3,120.1z M117.9,121.2c0.9,0,1.7,0.8,1.7,1.7s-0.8,1.7-1.7,1.7
		c-0.9,0-1.7-0.8-1.7-1.7S116.9,121.2,117.9,121.2z M14.3,122.6c0.9,0,1.7,0.8,1.7,1.7c0,0.9-0.8,1.7-1.7,1.7s-1.7-0.8-1.7-1.7
		C12.6,123.3,13.4,122.6,14.3,122.6z M20,124.6c2.2,0.5,1.2,5.6,0.7,6.9c0,0,6.1-3.2,6.4-1.8c0.2,2.9-5,4.9-5,4.9s3.6,3.1,3.7,5
		c0,1.3-1.5,1-3.4-0.6c-0.8-0.8-1.5-1.4-2-2c0.7-0.6,1.1-1.4,1.1-2.4c0-1.7-1.4-3.2-3.1-3.2c-1,0-1.8,0.4-2.4,1.1
		c-0.5-0.4-1-0.9-1.6-1.6c-1.1-1.1-1.9-1.9-1.8-2.3c1.5-1,4.4,1.8,4.7,2C16.8,130.3,18.4,124.9,20,124.6z M17,130.8
		C17,130.8,17,130.9,17,130.8C17,130.9,17,130.8,17,130.8z M109.5,128.5c1,0,1,2.3,0.6,3.6c-0.3,0.9-0.5,1.7-0.5,1.7
		s0.9-0.7,1.3-0.9c2.8-1.3,3.9,0.2,2.4,1.9c-0.7,0.9-1.6,1.1-2.4,1.8c1.1,0,2.3,0.3,3.2,0.8c0.7,0.4,1.3,1,1.3,1.3
		c0,0.7-1.8,1.1-3.5,0.9c-0.7,0-2-0.4-2-0.4s0.6,0.9,0.8,1.5c0.6,1.7,0.4,3.8-0.5,3.8c-1.5-0.4-2.2-2.1-2.8-3.3
		c-0.5,1.3-1,2.8-2,3.8c-1.1,1-1.6,0.2-1.6-1.5c0-0.7,0.5-2.7,0.5-2.7c-6.3,2.1-5.9-0.8-0.9-3.3c-3-1.5-4.9-2.8,0.3-3.1
		c-0.1-0.1-1-2.9-0.1-3.6c0.9-0.6,2.8,1.5,2.9,1.6c0-0.2,0.5-1.8,1.4-3C108.6,128.9,109.1,128.5,109.5,128.5L109.5,128.5z
		 M103.7,134.6C103.7,134.6,103.7,134.6,103.7,134.6C103.7,134.6,103.7,134.6,103.7,134.6z M131.4,132.8c-1.1,0.1-1.8,1.1-2.3,1.9
		c-0.1,0.2-0.3,0.2-0.4,0.5c-0.5,1.5-0.9,3.2-1.1,5.4c0.7,0.3,2.3,0.8,3,0.5c0.2-0.1,0.1-0.6,0.2-0.8c1.1-2.8,1.6-4.8,1.6-6.1
		C132.4,133.2,132.1,132.7,131.4,132.8z M18.1,132.6c1.1,0,2,0.9,2,2.1c0,0.7-0.3,1.2-0.8,1.6c-1.3-1.3-2-2-2.9-2.9
		C16.9,132.9,17.5,132.6,18.1,132.6z M131.8,133.6c0.3,0.7-0.6,1.4-1.8,1.4c-0.7,0-0.9,0.1-0.6-0.5
		C129.8,133.8,131.2,132.3,131.8,133.6L131.8,133.6z M116.3,133.1c0.9,0,1.7,0.8,1.7,1.7c0,0.9-0.8,1.7-1.7,1.7
		c-0.9,0-1.7-0.8-1.7-1.7C114.6,133.9,115.4,133.1,116.3,133.1z M26.7,133.2c0.9,0,1.7,0.8,1.7,1.7c0,0.9-0.8,1.7-1.7,1.7
		c-0.9,0-1.7-0.8-1.7-1.7C25,134,25.8,133.2,26.7,133.2z M107.1,133.9c-1.7,0-3.1,1.4-3.1,3.2s1.4,3.2,3.1,3.2s3.1-1.4,3.1-3.2
		S108.8,133.9,107.1,133.9z M65.1,134.4c-0.8,3.6-2.1,7.1-3.7,10.5c-3,0.2-6.3,0.3-8.5,0.6c3.6-6.3,3.7-7.8,5-11.2L65.1,134.4z
		 M70.3,134.9c0.9,0.1,1.8,0.2,2.6,0.4c-1.5,5.5-3.6,11.1-6.2,16.5l-1.6-0.2l-0.8-0.9l2.5-1l-2-2l3.3-1l-2-2l3.2-0.8l-1.7-2.1
		l2.9-1.1l-1.8-2.4l3.1-0.9L70.3,134.9z M107.1,135c1.1,0,2,0.9,2,2.1s-0.9,2-2,2c-1.1,0-2-0.9-2-2C105.1,136,106,135,107.1,135z
		 M73.5,135.4l1.1,0.2l-0.3,1.2l1.2,0.3l0.4-1.3c0,0,1,0.1,1.1,0.2c-1.3,5.3-5.9,16.3-5.9,16.2l-1.2-0.2l0.3-1.1l-1.1-0.2v0
		l-0.5,1.2l-1.2-0.1C70.2,145.3,72.1,140.3,73.5,135.4L73.5,135.4z M130.9,135.8c0.9,0,0.8,0.4,0.2,2.1c-0.6,1.5-0.8,2.2-1.1,2.4
		c-0.7,0.5-2.2,0.1-2-0.6c0.4-2.3,0.5-3.3,1.1-3.6C129.7,135.9,130.3,135.8,130.9,135.8z M77.8,136l2.8,0.5l-2.4,1.4l1.5,1.8
		l-2.9,1.2l1.8,1.8l-2.8,1.1l1.7,2l-2.9,1.2l2,1.7l-3.3,1l1.2,1.9l-1.2,0.7l-1.5-0.2C74.4,146.3,76,141.5,77.8,136L77.8,136z
		 M84.8,137.4l5.5,1.5l1.1,2l-2.6,8.8l-7.4-2.2L84.8,137.4z M73.8,138.2l-0.5,1.4l1.2,0.3l0.5-1.5L73.8,138.2z M72.7,141.5l-0.5,1.4
		l1.1,0.2l0.5-1.5L72.7,141.5z M71.6,144.4l-0.5,1.4l1.1,0.2l0.5-1.4L71.6,144.4z M123.5,147.1c0,0-0.6,0.4-0.7,0.6
		c0.1,0.3,0.5,0.8,0.4,1.2c0,0.2-0.3,0.5-0.7,0.9c-1,1.2-1.4,1.1-0.8-0.2c0.2-0.4,0.3-0.8,0.3-0.8c-0.2,0.3-0.4,0.7-0.6,1.1
		c-0.3,0.7-0.7,1.3-0.7,1.3c0.7,0.2,1.1,0.7,1.5,1c0,0,0.2-0.6,0.4-1.1c0.2-0.8,0.6-1.1,1.1-1.4c0.3-0.2,0.6-0.5,0.6-0.5
		C123.8,148.5,123.8,147.7,123.5,147.1L123.5,147.1z M70.5,147.4l-0.6,1.5l1.1,0.3l0.6-1.6L70.5,147.4z M8,151.3
		c-0.1,6.1,0.1,10.1-0.1,16.6l16.4,21.3l-2.6,0.9c0,0,0,0.3-0.2,0.3c-3.5,1-9.2,1.9-9.2,1.9c4.2,9.7,7,21.8,5.1,33.9l42.5-0.1
		L8,151.3z M97.8,161.6l-1.5,1.5c-21.6-11.7-51.3-11.7-73.1,2.5l-1.8-1.3C45.2,149,74.4,149.1,97.8,161.6L97.8,161.6z M8.8,153.4
		l50,72l-5.9,0.1L8.8,167.7L8.8,153.4z M116.1,154.7c0,0-1.4,0.4-2.7,0.8c-3.5,1.1-5.1,3.1-4.8,5.9c0.1,0.8,0.3,0.8,1.7-0.1
		c3.3-2.1,3.5-2.2,7.6-3.4c0.3-0.1,0.8,0,0.8,0l-0.2,3.3c-6.9,0-6.5,5.5-4.5,8.3c-0.7,1.3-2.2,5.9,2.8,7.7c2.5,0.5,5.1-1.5,5-1.6
		c4.6,2.2,9.9-1.5,5.8-7.8c1.6-2.8,0.5-4.8-1-6.6c0,0,0.3,0,2.4,0.4c3.3,0.6,4.6,0.5,4.6,0.5c0-3-2.5-4.3-7.6-4.7
		C122.4,157.8,116.1,154.7,116.1,154.7z M60.7,155c0.2,0,0.5,0,0.7,0l-0.2,5.1l-5.6,0.3l-0.4-5.1C57.2,155.2,59,155,60.7,155
		L60.7,155z M67.4,155.2l6,0.7l-0.9,4.7L67,160L67.4,155.2z M116,155.2c0.5,0.1,0.3,0.6-0.3,0.8c-1.1,0.2-3.8,1.8-3.8,2.2
		c0,0.3,0.1,0.2,1.1-0.3c0.5-0.3,1.6-0.7,2.3-1c0.8-0.3,1.7-0.7,2-0.8c0.9-0.4,1.4-0.1,1.1,0.7c-0.2,0.5-0.3,0.6-2.5,1.3
		c-1.9,0.6-2.3,0.8-3.5,1.6c-0.5,0.3-1.3,0.8-1.8,1c-1.3,0.7-1.5,0.7-1.5-0.2c-0.1-2.6,2.8-4.6,6.8-5.2
		C115.8,155.2,116,155.2,116,155.2L116,155.2z M64.2,155.8c0.7,0,1.4,0.6,1.4,1.4c0,0.8-0.6,1.4-1.4,1.4s-1.4-0.6-1.4-1.4
		C62.8,156.4,63.4,155.8,64.2,155.8z M49.4,156.2l0.4,4.6l-5.5,1.4l-1.3-4.8C45.2,156.9,47.3,156.6,49.4,156.2L49.4,156.2z
		 M120.1,156.5c1.5,0.2,1.4,3.7,0.6,4.3c-1.2,0.9-1.9-0.9-1.4-3.3C119.4,156.8,119.7,156.6,120.1,156.5L120.1,156.5z M52.5,156.7
		c0.7,0,1.4,0.6,1.4,1.4c0,0.8-0.6,1.4-1.4,1.4c-0.7,0-1.4-0.6-1.4-1.4C51.1,157.3,51.7,156.7,52.5,156.7z M79.3,157.1l6.2,1.7
		l-1.5,4.8l-5.8-1.6L79.3,157.1z M75.9,157.2c0.7,0,1.4,0.6,1.4,1.4c0,0.8-0.6,1.4-1.4,1.4c-0.7,0-1.4-0.6-1.4-1.4
		C74.5,157.8,75.1,157.2,75.9,157.2z M126.7,157.6c2.7,0,6.2,1.4,6.2,3.4c-0.1,0.6-5.6-0.2-8.2-1.2c-0.9-0.4-2-1.5-2-1.9
		c0-0.3,0.5-0.3,0.8,0c0.4,0.4,1.6,0.9,4.6,1.6c2.3,0.6,2.5,0.6,2.5,0.2c0-0.3-1.3-0.7-2.8-1c-0.7-0.1-1.4-0.3-2.5-0.4
		c-0.5,0-0.6-0.3-0.2-0.6C125.5,157.7,126,157.6,126.7,157.6L126.7,157.6z M121.9,158.7c0.7,0.3,0.9,0.9,1.3,1.3
		c-0.5,0.2-0.7,0.4-1.4,0.5C121.8,160,121.7,159.4,121.9,158.7L121.9,158.7z M40.7,159.1c0.7,0,1.4,0.6,1.4,1.4
		c0,0.8-0.6,1.4-1.4,1.4c-0.7,0-1.4-0.6-1.4-1.4C39.3,159.7,39.9,159.1,40.7,159.1z M37,159.4l1.5,4.7l-5.2,2.3l-1.9-4.7
		C33.2,160.8,35.2,160.1,37,159.4z M61.3,160.2c0,0,4.2,0,5.6,0l-0.3,5.3l-5.2,0L61.3,160.2z M55.7,160.5l0.3,5.3l-5,0.7l-1-5.3
		L55.7,160.5z M87.4,160.6c0.7,0,1.4,0.6,1.4,1.4c0,0.8-0.6,1.4-1.4,1.4s-1.4-0.6-1.4-1.4C86.1,161.2,86.7,160.6,87.4,160.6z
		 M123.8,160.7c3.1,0,6,3.5,3,7.2c5,3.8-0.4,10.2-4.8,6.5c-6.3,6.2-9.8-2.2-7.2-4.4c-3.8-6.3,0.9-10.3,5.7-7.5
		C121.3,161.2,122.6,160.7,123.8,160.7z M72.6,160.8l5.5,1.2l-1.1,5.2l-5.4-1.1L72.6,160.8z M90.8,161l5,2.5l-3.9,3.8l-2.9-1.4
		L90.8,161z M58.5,161.6c0.7,0,1.4,0.6,1.4,1.4c0,0.8-0.6,1.4-1.4,1.4c-0.7,0-1.4-0.6-1.4-1.4C57.2,162.2,57.8,161.6,58.5,161.6z
		 M69.4,161.7c0.7,0,1.4,0.6,1.4,1.4c0,0.8-0.6,1.4-1.4,1.4C67.4,164.1,68,161.8,69.4,161.7L69.4,161.7z M44.3,162.5l1.2,5.2
		l-5.1,1.7l-1.8-5.1L44.3,162.5z M47.8,162.9c0.7,0,1.4,0.6,1.4,1.4c0,0.8-0.6,1.4-1.4,1.4c-0.7,0-1.4-0.6-1.4-1.4
		C46.5,163.5,47.1,162.9,47.8,162.9z M123.4,165.3c-0.4,0.5-0.9,1-0.9,1c-1.3-0.5-2.5-0.3-3.3,0.3c0,0-0.9-0.7-1.7-1.3
		c-1.4-1.1-1.8-1.4-1.8-0.9c0,0.1,0.5,0.6,1,1.1c1.6,1.3,1.9,1.8,1.9,1.8c-0.4,1.2-0.4,2.2,0.3,3.2c0,0,0,0.1-0.5,0.7
		c-1,1.1-2,2.7-1.8,2.9c0.3,0.3,1.1-0.4,2.2-1.8c0.7-1,1-1,1-1c1.3,0.3,2,0.7,3.2-0.4c0,0,0.5,0.1,1.4,0.9c1.5,1.2,2,1.5,2.2,1.1
		c0.1-0.3-0.1-0.6-1.3-1.5c-0.8-0.6-1.7-1.4-1.7-1.4c0.3-0.4,0.5-2-0.5-3.1c0,0,0,0.1,1.4-1.7c0.9-1.2,1.1-1.3,0.8-1.6
		C124.8,163,123.5,165.1,123.4,165.3L123.4,165.3z M84,163.8l5,2.1l-1.8,5.2l-4.8-2L84,163.8z M29.3,164.1c0.7,0,1.4,0.6,1.4,1.4
		c0,0.8-0.6,1.4-1.4,1.4c-0.7,0-1.4-0.6-1.4-1.4C28,164.7,28.6,164.1,29.3,164.1z M80.2,164.3c0.7,0,1.4,0.6,1.4,1.4
		c0,0.8-0.6,1.4-1.4,1.4s-1.4-0.6-1.4-1.4C78.8,164.9,79.4,164.3,80.2,164.3z M25.9,164.6l1.6,4l-3.7-2.8L25.9,164.6z M66.6,165.7
		l4.9,0.6l-0.8,4.7l-4.3-0.4L66.6,165.7z M61.2,165.7l-0.1,4.9l-4.7,0.2l-0.4-4.9L61.2,165.7z M37.1,166.6c0.7,0,1.4,0.6,1.4,1.4
		c0,0.8-0.6,1.4-1.4,1.4c-0.7,0-1.4-0.6-1.4-1.4C35.7,167.2,36.3,166.6,37.1,166.6z M33.3,166.7l1.9,4.9l-3,1.4l-4-3.8L33.3,166.7z
		 M51,166.7l0.8,4.6l-4.9,1.2l-1.2-4.7L51,166.7z M121.1,166.8c1.1,0,1.9,0.9,1.9,1.9c0,1.1-0.9,1.9-1.9,1.9c-1.1,0-1.9-0.9-1.9-1.9
		C119.1,167.6,120,166.8,121.1,166.8z M63.7,166.9c0.7,0,1.4,0.6,1.4,1.4c0,0.8-0.6,1.4-1.4,1.4c-0.7,0-1.4-0.6-1.4-1.4
		C62.4,167.5,63,166.9,63.7,166.9z M77.1,167.4l5.2,1.7l-1.8,4.2l-4.5-1.2L77.1,167.4z M53.9,167.6c0.7,0,1.4,0.6,1.4,1.4
		c0,0.8-0.6,1.4-1.4,1.4c-0.7,0-1.4-0.6-1.4-1.4C52.5,168.2,53.1,167.6,53.9,167.6z M73.8,168.1c0.7,0,1.4,0.6,1.4,1.4
		c0,0.8-0.6,1.4-1.4,1.4s-1.4-0.6-1.4-1.4C72.4,168.7,73,168.1,73.8,168.1z M40.6,169.7l1.8,4.2l-4.9,2.1l-2.1-4.2L40.6,169.7z
		 M44.1,169.9c0.7,0,1.4,0.6,1.4,1.4c0,0.8-0.6,1.4-1.4,1.4c-0.7,0-1.4-0.6-1.4-1.4C42.7,170.6,43.3,169.9,44.1,169.9z M62.2,171.2
		c8.1,0,15.4,1.7,21.2,4.1l-1.7,1.6c-19-6.5-31.4-3.6-44.1,2l-1.3-1.6C45.2,172.9,54.1,171.2,62.2,171.2L62.2,171.2z M83.7,171.3
		c0.7,0,1.4,0.6,1.4,1.4c0,0.8-0.6,1.4-1.4,1.4c-0.7,0-1.4-0.6-1.4-1.4C82.3,171.9,82.9,171.3,83.7,171.3z M34.2,174.2
		c1.1,0.1,1.2,2.1,0.7,1.5l-1.2-1.4C33.9,174.3,34,174.2,34.2,174.2z M84.9,175.1c0,1.5-1.5,11.9-6.4,19c-0.3-3.6-1.2-7.9-2.1-10.8
		C76.4,183.3,81.7,178.4,84.9,175.1L84.9,175.1z M21.9,190.8l25.6,34.6l-2.7,0c-0.6-2.5-1.4-5.1-3-7.1c-1.3-1.6-2.5-2.8-4.8-3.8
		c-1.4-0.6-1.6-0.5-1.7-1.6c-0.4-6.1-5.3-9.9-9.1-11.3c-0.4-3.7-2-7.3-6.1-10.3L21.9,190.8z M19.4,191.6c2.3,1.6,4.9,3,6.3,9.4
		c0.1,1.3,0.2,1.2,1.2,1.6c4.1,1.2,7.6,6.1,8,10.4c0,1.3,0.4,1.4,2,2.1c2,0.8,4,2.6,5.1,4.3c1.7,2.5,2.3,6.2,2.2,6l-1.4,0
		c-1-6.3-5-8.9-9.2-10.1c0.3-8.9-6.6-11.7-9-12.2c0.1-6.4-4-9.1-6.7-11.3C18.4,191.7,19.4,191.6,19.4,191.6L19.4,191.6z M15.3,192.5
		c2.1,0.7,3.7,3.6,3.5,5c2.8,0.3,5.7,3,5,5.8c-0.2,0.1-0.5,0.1-0.8-0.2c0.7-5.4-7.3-2.7-4.1,1.2l-1.4,0.9c-1.2-5.4-2.6-8.5-4.1-12.4
		C13.9,192.7,15.3,192.5,15.3,192.5z M22,203.8c0.7,0,1.3,0.6,1.3,1.3s-0.6,1.3-1.3,1.3s-1.3-0.6-1.3-1.3
		C20.7,204.4,21.2,203.8,22,203.8z M28.9,209.7c3.1,0.9,4.1,4,4,5.1l-0.7,0c-1.1-5-6.7-2.3-4.4,1.7c-3,1.1-2.8,3.9-1.9,5
		c1.2,1.5,4.3,1.5,5.3-0.9c2.9,3.8,7-0.5,3.4-4c2.9,1.1,3.4,5,2.9,6.2c1.4,0.5,2.9,2.6,2.7,2.6l-21.9,0c0,0,1.1-8.8-0.1-15.5
		c1.5,0.4,2.4,0.7,4.1-1.3c2.7,2.2,4.7,0.6,4.5-1.4c-0.2-1.4-0.9-2-2.1-2.7C27.3,204,29.1,208.1,28.9,209.7L28.9,209.7z M31.3,215.9
		c0.7,0,1.3,0.6,1.3,1.3s-0.6,1.3-1.3,1.3c-0.7,0-1.3-0.6-1.3-1.3S30.6,215.9,31.3,215.9z"/>
	<path id="path7198-0_1_" class="st1" d="M-2.6,53.1c-1.7-2.9-3.5-5.6-5.8-8
		c2.3-2.4,4.1-5.1,5.8-8c1.7,2.9,3.5,5.6,5.8,8C1,47.4-0.9,50.2-2.6,53.1z"/>
	<path id="path7202-9_1_" class="st1" d="M147.8,206.6c-1.7-2.9-3.5-5.6-5.8-8
		c2.3-2.4,4.1-5.1,5.8-8c1.7,2.9,3.5,5.6,5.8,8C151.3,200.9,149.5,203.7,147.8,206.6z"/>
	<path id="path7204-2_1_" class="st1" d="M31.4,61.7c-4.1-6.9-8.5-13.5-14-19.2
		c5.5-5.7,9.8-12.3,14-19.2c4.1,6.9,8.5,13.5,14,19.2C39.9,48.1,35.5,54.8,31.4,61.7z"/>
	<path id="path7222-2_1_" class="st1" d="M113.8,220.4c-4.1-6.9-8.5-13.5-14-19.2
		c5.5-5.7,9.8-12.3,14-19.2c4.1,6.9,8.5,13.5,14,19.2C122.3,206.9,118,213.5,113.8,220.4z"/>
	<path id="path37-2-1-6-5_1_" class="st1" d="M-8.4,25.8h-2.2v-3h2.2c0,0,0-1.6,0.1-4.5
		c0.1-6.1,0.3-7,2.1-8.7C-2.8,6.3,3,9,3,14c-0.1,7,0,13.7-0.2,14.7c-0.4,1.7-0.4,1.8-0.3,2.1c0.3,0.6,2.9,0.9,2.9,0.7v3
		c-2,0.2-2.8,0-4.5-1.2c-1,1-4.1,1.9-6.5,0.8C-7.4,33.2-8.8,30.9-8.4,25.8C-8.4,25.8-8.4,25.8-8.4,25.8z M-0.9,31.1
		c-1.1-1.6-2.9-3.7-4.7-4.5c-0.1,1.8,0,3.3,0.7,4.2C-3.9,32-2.3,32.3-0.9,31.1L-0.9,31.1z M0,13.7c-0.8-2.3-2.9-3.1-4.4-1.6
		c-1,0.9-1.1,1.8-1.1,7c0,3.2,0,4.5,0,4.5c3,1,5.7,4.4,5.7,4.4l0.1-9.5C0.2,16.8,0.2,15.2,0,13.7L0,13.7L0,13.7z"/>
	<path id="path37-3-27-1-5_1_" class="st1" d="M153.6,217.8h2.2v3h-2.2c0,0,0,1.6-0.1,4.5
		c-0.1,6.1-0.3,7-2.1,8.7c-3.5,3.3-9.3,0.6-9.2-4.4c0.1-7,0-13.7,0.2-14.7c0.4-1.7,0.4-1.8,0.3-2.1c-0.3-0.6-2.9-0.9-2.9-0.7v-3
		c2-0.2,2.8,0,4.5,1.2c1-1,4.1-1.9,6.5-0.8C152.6,210.5,154,212.7,153.6,217.8L153.6,217.8L153.6,217.8z M146.1,212.6
		c1.1,1.6,2.9,3.7,4.7,4.5c0.1-1.8,0-3.3-0.7-4.2C149.1,211.6,147.5,211.3,146.1,212.6L146.1,212.6z M145.2,229.9
		c0.8,2.3,2.9,3.1,4.4,1.6c1-0.9,1.1-1.8,1.1-7c0-3.2,0-4.5,0-4.5c-3-1-5.7-4.4-5.7-4.4l-0.1,9.5C144.9,226.9,145,228.4,145.2,229.9
		L145.2,229.9L145.2,229.9z"/>
</g>
</svg>
