<svg xmlns="http://www.w3.org/2000/svg" width="289.2" height="245.9" viewBox="0 0 289.2 245.9"><style type="text/css">.st0{opacity:0.88;} .st1{fill:#0080FF;}</style><path class="st1" d="M14.1 81.2C4.7 90.6 0 101.9 0 115.2s4.7 24.6 14.1 34c9.4 9.4 20.7 14.1 34 14.1s24.6-4.7 34-14.1c8.8-8.8 13.5-19.3 14-31.4.1-.9.1-1.7.1-2.5v-1.2c-.3-12.7-4.9-23.6-14.1-32.7-9.4-9.4-20.6-14-33.9-14-13.3-.2-24.7 4.4-34.1 13.8zm34.2 14.7c5.3 0 9.9 1.9 13.7 5.7 3.8 3.8 5.7 8.2 5.7 13.5 0 5.3-1.9 9.8-5.7 13.6-3.8 3.7-8.6 5.7-13.9 5.7-5.3 0-9.7-1.9-13.4-5.7-3.8-3.8-5.7-8.3-5.7-13.6 0-5.3 1.9-9.8 5.7-13.5 3.7-3.8 8.3-5.7 13.6-5.7zM110.6 81.2c-9.4 9.4-14.1 20.7-14.1 34s4.7 24.6 14.1 34c9.4 9.4 20.9 14.1 34.1 14.1 13.2 0 24.5-4.7 33.8-14.1 8.8-8.8 13.4-19.3 14-31.4 0-.9.1-1.7.1-2.5v-1.2c-.3-12.7-4.9-23.6-14.1-32.7-9.4-9.4-20.6-14-33.8-14-13.2-.2-24.7 4.4-34.1 13.8zm34.2 14.7c5.4 0 10 1.9 13.7 5.7 3.8 3.8 5.7 8.2 5.7 13.5 0 5.3-1.9 9.8-5.7 13.6-3.8 3.7-8.4 5.7-13.7 5.7-5.4 0-9.8-1.9-13.6-5.7-3.8-3.8-5.7-8.3-5.7-13.6 0-5.3 1.9-9.8 5.7-13.5 3.8-3.8 8.2-5.7 13.6-5.7zM207.2 81.2c-9.4 9.4-14.1 20.7-14.1 34s4.7 24.6 14.1 34c9.4 9.4 20.8 14.1 34.1 14.1 13.2 0 24.5-4.7 33.9-14.1 8.8-8.8 13.4-19.3 14-31.4 0-.9.1-1.7.1-2.5v-1.2c-.3-12.7-4.9-23.6-14.1-32.7-9.4-9.4-20.6-14-33.9-14-13.3-.2-24.7 4.4-34.1 13.8zm34.1 14.9c5.4 0 10 1.7 13.8 5.5 3.8 3.8 5.7 8.2 5.7 13.5 0 5.3-1.9 9.8-5.7 13.6-3.8 3.7-8.4 5.7-13.8 5.7s-9.7-1.9-13.5-5.7c-3.8-3.8-5.7-8.3-5.7-13.6 0-5.3 1.9-9.8 5.7-13.5 3.7-3.8 8.1-5.5 13.5-5.5zM96 50.6c.1-.9.1-1.7.1-2.5v-1.2c-.3-12.8-4.9-23.7-14.1-32.8C72.6 4.7 61.4 0 48 0 34.7 0 23.4 4.7 14 14.1 4.7 23.5 0 34.7 0 48c0 13.2 4.7 24.6 14.1 34 9.4 9.4 20.7 13.9 34 13.9s24.6-4.5 34-13.9c8.8-8.7 13.4-19.3 13.9-31.4zM48 28.8c5.3 0 10.1 1.9 13.9 5.7 3.8 3.8 5.7 8.2 5.7 13.5 0 5.3-1.9 9.9-5.7 13.6-3.8 3.7-8.6 5.6-13.9 5.6-5.3 0-9.7-1.9-13.4-5.6C30.9 57.9 29 53.3 29 48c0-5.3 1.9-9.8 5.7-13.5 3.7-3.8 8.1-5.7 13.3-5.7zM192.6 50.6c0-.9.1-1.7.1-2.5v-1.2c-.3-12.7-4.9-23.6-14.1-32.7C169.2 4.7 158 0 144.8 0c-13.2 0-24.8 4.7-34.1 14.1-9.4 9.4-14.1 20.7-14.1 34 0 13.2 4.7 24.6 14.1 34 9.4 9.4 20.9 13.9 34.1 13.9 13.2 0 24.5-4.5 33.8-13.9 8.8-8.8 13.4-19.4 14-31.5zm-47.8-21.8c5.4 0 10 1.9 13.7 5.7 3.8 3.8 5.7 8.2 5.7 13.5 0 5.3-1.9 9.9-5.7 13.6-3.8 3.7-8.4 5.6-13.7 5.6s-9.8-1.9-13.6-5.6c-3.8-3.7-5.7-8.3-5.7-13.6 0-5.3 1.9-9.8 5.7-13.5 3.8-3.8 8.2-5.7 13.6-5.7zM289.2 48v-1.2c-.3-12.7-4.9-23.6-14.1-32.7C265.8 4.7 254.5 0 241.3 0c-13.2 0-24.6 4.7-34.1 14.1-9.4 9.4-14.1 20.7-14.1 34 0 13.2 4.7 24.6 14.1 34 9.4 9.4 20.8 14.1 34.1 14.1 13.2 0 24.5-4.7 33.9-14.1 8.8-8.8 13.4-19.3 14-31.4V48zm-34.1-13.6c3.8 3.8 5.7 8.2 5.7 13.5 0 5.3-1.9 9.9-5.7 13.6-3.8 3.7-8.4 5.6-13.8 5.6s-9.7-1.9-13.5-5.6c-3.8-3.7-5.7-8.3-5.7-13.6 0-5.3 1.9-9.8 5.7-13.5 3.8-3.8 8.2-5.7 13.5-5.7 5.3.1 10 2 13.8 5.7zM116.1 206.5v.2c0 12.5-8.8 21.8-21.1 21.8-7.2 0-12.3-3.4-15.3-8.8v26.2h-8.1v-60.4h8.1v7.8c3-5.4 8.1-8.6 15.3-8.6 12.3 0 21.1 9.3 21.1 21.8zm-8.3-.1c0-8.3-5.9-14.1-13.6-14.1-7.4 0-13.7 5.8-13.7 14.1v.2c0 8.2 6.1 14.1 13.5 14.1 7.6 0 13.8-5.8 13.8-14.1v-.2zM122.9 206.6v-.2c0-12.4 9.4-21.8 21.8-21.8s21.8 9.2 21.8 21.7v.2c0 12.5-9.4 21.9-21.8 21.9s-21.8-9.3-21.8-21.8zm35.4-.1v-.2c0-8.2-6.2-14.1-13.8-14.1-7.4 0-13.5 5.8-13.5 14.1v.2c0 8.3 6.2 14.1 13.7 14.1 7.7 0 13.6-5.8 13.6-14.1zM187.8 209.9l-5.7 6.6v11H174v-59.1h8.1v37l17.3-19.8h9.5l-16.2 18.8 18.1 23.2h-9.4l-13.6-17.7zM252.7 208.6h-33c.8 7.6 6.1 12.7 13.4 12.7 5.4 0 9.8-3 12.2-7.6l6.2 3.4c-3.4 6.3-9.6 11.3-18.9 11.3-12.1 0-21.2-9.3-21.2-21.8v-.2c0-12.4 9.1-21.8 20.9-21.8 13.8 0 20.5 10.8 20.5 21v3zm-8-6.1c-.1-5-3.8-10.9-12.2-10.9-6.7 0-11.2 4.7-12.5 10.9h24.7zM260.2 185.5h8.1v9.6c2.7-6.1 8.1-10.3 15.1-10.2v7.7h-1c-7.8 0-14.1 6.8-14.1 13.6v21.4h-8.1v-42.1z"/></svg>