<svg xmlns="http://www.w3.org/2000/svg" width="114.6" height="114.6" viewBox="0 0 114.6 114.6"><style type="text/css">.st0{fill:#0D1422;stroke:#376EB6;stroke-width:5;stroke-miterlimit:10;} .st1{fill:#376EB6;}</style><circle class="st0" cx="57.3" cy="57.3" r="54.8"/><path class="st1" d="M23.2 35.9h16.6c7.7 0 13.1 3.6 13.1 11v.1c0 3.6-1.6 6.8-4.2 8.1 4.1 1.1 7.1 5.2 7 10.7v.1c0 8.1-5.2 11.6-14.6 11.6H23.2V35.9zM41.9 52c2.6 0 3.9-1.8 3.9-4.5v-.1c0-2.8-1.9-4.7-5.4-4.7h-9.5V52h11zm-.8 18.6c5.7 0 7.5-2 7.5-6v-.1c0-4.1-2.3-5.7-6.5-5.7H30.8v11.8h10.3zM62.2 35.9h16.6c7.7 0 13.1 3.6 13.1 11v.1c0 3.6-1.6 6.8-4.2 8.1 4.1 1.1 7.1 5.2 7 10.7v.1c0 8.1-5.2 11.6-14.6 11.6H62.2V35.9zM80.9 52c2.6 0 3.9-1.8 3.9-4.5v-.1c0-2.8-1.9-4.7-5.4-4.7h-9.5V52h11zM80 70.6c5.7 0 7.5-2 7.5-6v-.1c0-4.1-2.3-5.7-6.5-5.7H69.8v11.8H80z"/></svg>