<svg xmlns="http://www.w3.org/2000/svg" width="134.6" height="134.6" viewBox="0 0 134.6 134.6"><style type="text/css">.st0{fill:#1E4E97;} .st1{fill:#F8F5F6;} .st2{fill:#F8F7F7;} .st3{fill:none;stroke:#F8F5F6;stroke-width:4;stroke-miterlimit:10;}</style><circle class="st0" cx="67.3" cy="67.3" r="67.3"/><path class="st1" d="M19.4 87.5c-1.3-3.1-2.3-6.3-3-9.6-.3-1.4-.5-2.8-.7-4.2L3.6 75.3c.2 1.8.5 3.5.9 5.2.9 4.1 2.1 8.1 3.8 11.9.3.7.6 1.4 1 2.1l11-5.2c-.4-.6-.7-1.2-.9-1.8zM119.7 102.2l-10.2-6.7c-1.9 2.9-4.2 5.7-6.6 8.2-1.3 1.3-2.8 2.6-4.2 3.8l7.6 9.5c1.8-1.5 3.6-3 5.2-4.7 3.1-3.1 5.8-6.5 8.2-10.1zM47.5 115c-2.3-.9-4.6-2-6.7-3.3l-6.1 10.5c2.7 1.6 5.5 2.9 8.4 4.1 3.3 1.3 6.7 2.4 10.3 3.1l2.6-11.9c-3.1-.6-5.8-1.4-8.5-2.5zM113.8 47.2c1.3 3.1 2.3 6.3 3 9.6.3 1.4.5 2.8.7 4.2l12.1-1.5c-.2-1.8-.5-3.5-.9-5.2-.9-4.1-2.1-8.1-3.8-11.9-.3-.7-.6-1.4-1-2.1l-11 5.2c.4.5.6 1.1.9 1.7zM85.7 19.7c2.3.9 4.6 2 6.8 3.3l6.1-10.5c-2.7-1.6-5.5-2.9-8.4-4.1C86.9 7 83.5 6 80 5.2l-2.6 11.9c2.8.7 5.6 1.5 8.3 2.6zM30.3 31.1c1.3-1.3 2.8-2.6 4.2-3.8l-7.6-9.5c-1.8 1.5-3.6 3-5.2 4.7-3.1 3.1-5.8 6.5-8.2 10.1l10.2 6.7c1.9-3 4.1-5.8 6.6-8.2z"/><path class="st2" d="M26.8 35c-1.1 1.4-2.1 2.8-3.1 4.2 1-1.5 2-2.9 3.1-4.2zM28.5 33c-.5.6-1.1 1.2-1.6 1.8.5-.6 1.1-1.2 1.6-1.8z"/><circle class="st2" cx="80.1" cy="120.9" r="2.6"/><circle class="st2" cx="53.8" cy="13.8" r="2.6"/><circle class="st2" cx="12.4" cy="57.6" r="2.6"/><circle class="st2" cx="26.8" cy="105.5" r="2.6"/><circle class="st2" cx="120" cy="80" r="2.6"/><circle class="st2" cx="107.3" cy="30.6" r="2.6"/><circle class="st3" cx="67.3" cy="67.3" r="40.3"/></svg>