<svg xmlns="http://www.w3.org/2000/svg" width="77.6" height="90" viewBox="0 0 77.6 90"><style type="text/css">.st0{fill:#FFFFFF;}</style><path class="st0" d="M73.9 20.3l-17.6-2-4.7-15.4C51 .8 48.6-.4 46.4.2L3 12.1c-2.2.6-3.5 2.9-2.9 5L17.5 74l-.8 6.6c-.3 2.2 1.4 4.2 3.7 4.4l44.8 5c2.3.3 4.4-1.3 4.7-3.5l7.7-61.8c.2-2.2-1.4-4.2-3.7-4.4zM19.5 58L7.1 17.4 45.9 6.8l3.3 10.7-20.1-2.3c-2.3-.3-4.4 1.3-4.7 3.5L19.5 58zm44.1 25.5L23.5 79l7.1-57.3 40.1 4.5-7.1 57.3zM38.8 61.9c2.1.2 4.8-.2 6.7-1.9-.7 5.8-7.8 10.1-7.8 10.1s3.5-1 7.3-.6 7 2.2 7 2.2-5.8-6.2-5.1-11.6c1.4 2 3.8 2.9 5.8 3.2 2 .2 3.8-.1 5.1-1 2.2-1.5 3.4-3.8 3.4-6.6 0-5.8-8.9-13.5-11.9-21.4-4.9 7.1-15.4 13.2-16.7 18.3-.7 2.6-.1 5 1.6 7.1.9 1.2 2.6 2 4.6 2.2z"/></svg>