<svg xmlns="http://www.w3.org/2000/svg" width="90" height="90" viewBox="0 0 90 90"><style type="text/css">.st0{fill:#FFFFFF;}</style><path class="st0" d="M6.6 0C3 0 0 3 0 6.6v29.9c1.6-1.2 3.6-2 5.6-2.1v-21h40v20.9h5.6V6.6c0-3.6-3-6.6-6.6-6.6h-38zm11.5 5.4h15v3.5h-15V5.4zM90 45.3c0-3.6-3-6.6-6.6-6.6H6.6c-3.6 0-6.6 3-6.6 6.6v38.1C0 87 3 90 6.6 90h76.9c3.6 0 6.6-3 6.6-6.6V45.3H90zm-5.4 11.6v15h-3.5v-15h3.5zm-7.9-12.5v40H15v-40h61.7zm-65.9 20c0 1.8-1.5 3.3-3.3 3.3-1.8 0-3.3-1.5-3.3-3.3s1.5-3.3 3.3-3.3c1.8 0 3.3 1.5 3.3 3.3zM63.7 10.7l-.8 2.9c-1.8-.5-3.6-.8-5.5-.8v-3c2.2 0 4.2.3 6.3.9zM80.2 32l-3 .1c0-1.9-.4-3.6-.9-5.5l2.9-.9c.6 2 .9 4.3 1 6.3zM78 22.7L75.3 24c-.8-1.7-1.8-3.2-3.1-4.6l2.2-2c1.5 1.6 2.6 3.1 3.6 5.1v.2zM72.1 15.2l-1.9 2.3c-1.4-1.2-3-2.2-4.7-3l1.2-2.7c2.1.9 3.7 1.9 5.4 3.4z"/></svg>