<!-- Generator: Adobe Illustrator 19.2.1, SVG Export Plug-In  -->
<svg version="1.1"
	 xmlns="http://www.w3.org/2000/svg" xmlns:xlink="http://www.w3.org/1999/xlink" xmlns:a="http://ns.adobe.com/AdobeSVGViewerExtensions/3.0/"
	 x="0px" y="0px" width="43.7px" height="43.7px" viewBox="0 0 43.7 43.7" style="enable-background:new 0 0 43.7 43.7;"
	 xml:space="preserve">
<style type="text/css">
	.st0{fill:#C60B1E;}
	.st1{fill:#FFC400;}
</style>
<defs>
</defs>
<path class="st0" d="M21.9,0C14.7,0,8.4,3.4,4.4,8.7h35C35.4,3.4,29,0,21.9,0z"/>
<path class="st0" d="M21.9,43.7c7.2,0,13.5-3.4,17.5-8.7h-35C8.4,40.3,14.7,43.7,21.9,43.7z"/>
<path class="st1" d="M39.3,8.7h-35C1.6,12.4,0,16.9,0,21.9c0,4.9,1.6,9.5,4.4,13.1h35c2.7-3.7,4.4-8.2,4.4-13.1
	C43.7,16.9,42.1,12.4,39.3,8.7z"/>
</svg>
