<svg xmlns="http://www.w3.org/2000/svg" width="43.7" height="43.7" viewBox="0 0 43.7 43.7"><style type="text/css">.st0{fill:#01247D;} .st1{fill:#FFFFFF;} .st2{fill:#CF142B;}</style><path class="st0" d="M1.7 13.5c-.3.6-.5 1.2-.7 1.8h3.4l-2.7-1.8zM42 30.3c.3-.6.5-1.2.7-1.9h-3.5l2.8 1.9zM6.3 37.3c2.5 2.5 5.5 4.4 9 5.5V31.3l-9 6zM15.3 1c-3.4 1.1-6.5 3-9 5.5l9 6V1zM42.7 15.3c-.2-.6-.4-1.2-.7-1.8l-2.8 1.8h3.5zM28.4 42.7c3.4-1.1 6.5-3 9-5.5l-9-6v11.5zM1 28.4c.2.6.4 1.3.7 1.9l2.8-1.9H1zM37.4 6.5c-2.5-2.5-5.5-4.4-9-5.5v11.5l9-6z"/><path class="st1" d="M43.4 25.7H25.7v17.7c.9-.2 1.8-.4 2.7-.7V31.3l9 6c1-1 1.9-2.1 2.7-3.3l-8.3-5.5H37l4.5 3c.2-.4.3-.7.5-1.1l-2.8-1.9h3.5c.3-1 .5-1.9.7-2.8zM15.3 1v11.5l-9-6c-1 1-1.9 2.1-2.7 3.3l8.4 5.6H6.8l-4.6-3.1c-.2.3-.4.7-.5 1.2l2.8 1.8H1c-.3.9-.5 1.8-.7 2.7H18V.3c-.9.2-1.8.4-2.7.7zM.3 25.7c.2.9.4 1.8.7 2.7h3.5l-2.8 1.9c.5 1.3 1.2 2.5 1.9 3.6l8.3-5.5h3.4v1.2l-9.9 6.6c.3.4.6.7 1 1.1l9-6v11.4c.9.3 1.8.5 2.7.7V25.7H.3zM42.7 15.3h-3.4l2.8-1.8c-.5-1.3-1.2-2.6-2-3.7l-8.4 5.6h-3.2V14l9.9-6.6c-.3-.3-.6-.6-.9-1l-9 6V1c-.9-.3-1.8-.5-2.7-.7V18h17.7c-.3-.9-.5-1.8-.8-2.7z"/><path class="st2" d="M43.4 18H25.7V.3C24.4.1 23.2 0 21.9 0c-1.3 0-2.6.1-3.8.3V18H.3c-.2 1.3-.3 2.6-.3 3.9 0 1.3.1 2.6.3 3.8H18v17.7c1.2.2 2.5.3 3.8.3 1.3 0 2.6-.1 3.8-.3V25.7h17.7c.2-1.2.3-2.5.3-3.8.1-1.3 0-2.6-.2-3.9zM31.8 28.4l8.3 5.5c.5-.8 1-1.6 1.4-2.5l-4.5-3h-5.2zM28.4 15.3h3.2L40 9.7c-.5-.8-1.1-1.6-1.8-2.3L28.4 14v1.3zM15.3 28.4h-3.4l-8.3 5.5c.5.8 1.1 1.6 1.7 2.3l9.9-6.6v-1.2zM12 15.3L3.7 9.7c-.5.8-1 1.6-1.4 2.5l4.6 3.1H12z"/></svg>