<svg xmlns="http://www.w3.org/2000/svg" width="48" height="48" viewBox="0 0 48 48"><style type="text/css">.st0{fill:none;} .st1{fill:#016FDE;}</style><path class="st0" d="M0 0h48v48H0z"/><path id="Twitter_1_" class="st1" d="M48 8.7c-1.8.8-3.7 1.3-5.7 1.6 2-1.2 3.6-3.2 4.3-5.6-1.9 1.2-4 2-6.3 2.4-1.8-2-4.4-3.2-7.2-3.2-5.4 0-9.8 4.5-9.8 10.1 0 .8.1 1.6.3 2.3-8.2-.4-15.4-4.4-20.3-10.6C2.5 7.2 2 8.9 2 10.8c0 3.5 1.7 6.6 4.4 8.4-1.6 0-3.1-.5-4.5-1.3v.1c0 4.9 3.4 9 7.9 9.9-.8.2-1.7.4-2.6.4-.6 0-1.3-.1-1.9-.2 1.3 4 4.9 6.9 9.2 7-3.4 2.7-7.6 4.3-12.2 4.3-.8 0-1.6 0-2.3-.1 4.4 2.9 9.5 4.5 15.1 4.5 18.1 0 28-15.4 28-28.7v-1.3c1.9-1.3 3.6-3 4.9-5.1"/></svg>