<!-- Generator: Adobe Illustrator 19.2.1, SVG Export Plug-In  -->
<svg version="1.1"
	 xmlns="http://www.w3.org/2000/svg" xmlns:xlink="http://www.w3.org/1999/xlink" xmlns:a="http://ns.adobe.com/AdobeSVGViewerExtensions/3.0/"
	 x="0px" y="0px" width="98.7px" height="100px" viewBox="0 0 98.7 100" style="enable-background:new 0 0 98.7 100;"
	 xml:space="preserve">
<style type="text/css">
	.st0{fill:#016fde;}
</style>
<defs>
</defs>
<path class="st0" d="M82.8,2.2C75.3-2.1,66,0.1,61.1,6.9c-1.9-0.3-3.9-0.4-5.9-0.4c-16,0-29.9,8.6-37.5,21.5
	c3.6,0.2,6.9,1.2,9.8,2.9c6.1-8.8,16.2-14.5,27.7-14.5c0.9,0,1.8,0,2.8,0.1c0,5.8,2.9,11.4,8.3,14.5c7.9,4.6,18,1.9,22.6-6.1
	C93.4,16.9,90.7,6.8,82.8,2.2z"/>
<path class="st0" d="M0,50c0,8.6,6.5,15.6,14.9,16.5c0.7,1.8,1.6,3.6,2.6,5.3c8,13.8,22.5,21.6,37.4,21.8c-1.6-3.2-2.4-6.6-2.4-9.9
	C41.8,82.7,31.7,76.8,26,66.9c-0.5-0.8-0.9-1.6-1.3-2.4c5-2.8,8.4-8.2,8.4-14.4c0-9.1-7.4-16.6-16.6-16.6C7.4,33.5,0,40.9,0,50z"/>
<path class="st0" d="M82.8,97.8c7.4-4.3,10.3-13.5,6.8-21.1c1.2-1.6,2.3-3.2,3.3-4.9c8-13.8,7.5-30.3,0.2-43.2
	c-1.9,3-4.5,5.4-7.4,7.1c4.6,9.7,4.5,21.3-1.3,31.3c-0.5,0.8-1,1.6-1.5,2.3c-5-2.9-11.3-3.2-16.7-0.1c-7.9,4.6-10.6,14.7-6.1,22.6
	C64.7,99.6,74.8,102.4,82.8,97.8z"/>
</svg>
