<svg xmlns="http://www.w3.org/2000/svg" width="41.9" height="41.9" viewBox="0 0 41.9 41.9"><style type="text/css">.st0{fill:#FFFFFF;}</style><path class="st0" d="M40.5 13.5c-1.1-2.8-2.7-5.3-4.8-7.4C32 2.4 26.8.1 21.1 0h-.2c-3.8 0-7.3 1-10.3 2.7-4.4 2.6-7.9 6.7-9.5 11.6C.4 16.4 0 18.6 0 20.9v.1c0 1.2.1 2.5.3 3.6.3 1.6.8 3.2 1.4 4.7 3.2 7.4 10.5 12.5 19 12.6h.2c3.8 0 7.3-1 10.3-2.7 6.3-3.6 10.6-10.4 10.6-18.2.1-2.7-.4-5.2-1.3-7.5zM12.4 7.8c.2-1 .5-1.9.8-2.7 2.1-1 4.4-1.7 6.9-1.8.6.5 1.3 1.1 1.9 1.9.7.9 1.5 1.9 2.2 3.1 1.7 2.8 3.2 6.4 4.3 10.6l.6 2.4c-2.3 1.3-5.1 2.6-8.3 3.6-2.1.7-4.2 1.2-6.3 1.5-.4-1.1-.8-2.4-1.1-3.6-1.1-4.2-1.5-8-1.4-11.3.1-1.3.2-2.5.4-3.7zM3.3 20.9c0-1.6.2-3.2.6-4.7.6-2.2 1.6-4.2 2.9-5.9.6-.8 1.3-1.6 2-2.3.1.5 0 .9 0 1.4-.1 1.2-.2 2.5-.2 3.8.1 3.2.5 6.8 1.5 10.5.3 1.1.6 2.2.9 3.2-.7.1-1.4.1-2.1.1-1.8 0-3.3-.2-4.7-.5-.5-1.7-.9-3.6-.9-5.6zM6 30.2c.9.1 1.9.2 3 .2s2.2-.1 3.3-.2c1.3 3.1 2.8 5.7 4.4 7.8-4.5-1.1-8.3-4-10.7-7.8zm23.5 3.4c-.2 1.2-.5 2.3-.8 3.1-2.1 1-4.4 1.7-6.9 1.8-2.1-1.7-4.2-4.7-6.1-8.8 2-.4 4-.9 6.1-1.5 2.9-.9 5.5-2 7.8-3.3.4 3.2.4 6.1-.1 8.7zm2.2-15.5c-1-3.7-2.3-7.1-3.9-10-.6-1.2-1.3-2.3-2-3.3-.2-.3-.5-.7-.7-1 .9.2 1.9.5 2.7.9 2.3 1 4.3 2.4 5.9 4.2 1.3 1.4 2.4 3 3.2 4.8-.6 1.7-2.3 3.8-4.9 5.7-.1-.4-.2-.8-.3-1.3zm1.2 15.7c.5-3.2.4-6.9-.1-10.8 2.3-1.6 4.2-3.2 5.6-5 .1.9.2 1.9.2 2.8-.1 5.2-2.3 9.8-5.7 13z"/></svg>