<svg xmlns="http://www.w3.org/2000/svg" width="48" height="48" viewBox="0 0 48 48"><style type="text/css">.st0{fill:none;} .st1{fill:#016FDE;}</style><path class="st0" d="M0 0h48v48H0z"/><path class="st1" d="M26.6 29.5c-.4-.6-.9-1.1-1.4-1.5-.5-.5-1-.9-1.5-1.3s-1-.8-1.4-1.1c-.4-.4-.7-.7-1-1.1-.3-.4-.4-.8-.4-1.2 0-.6.2-1.1.5-1.6.4-.5.8-1 1.3-1.4l1.5-1.5c.5-.5.9-1.3 1.3-2.2.4-.9.5-1.9.5-3.1 0-1.4-.3-2.7-.9-3.9-.6-1.3-1.5-2.2-2.6-2.9h3.1l3.1-1.8h-9.8c-1.4 0-2.9.2-4.4.5-2.2.5-4 1.6-5.4 3.3-1.5 1.7-2.2 3.7-2.2 5.8 0 2.3.8 4.2 2.5 5.7s3.6 2.3 5.9 2.3c.5 0 1 0 1.6-.1 0 .1-.1.3-.2.5s-.1.4-.2.5c0 .1-.1.3-.1.5v.5c0 1 .5 2.2 1.5 3.5-1.2 0-2.3.1-3.5.3-1.1.2-2.3.5-3.6.8-1.3.4-2.4.9-3.4 1.7-1 .7-1.7 1.6-2.2 2.6-.6 1.1-.9 2.2-.9 3.1 0 1 .2 2 .7 2.8.5.8 1.1 1.5 1.8 2.1.7.5 1.6 1 2.5 1.3 1 .4 1.9.6 2.8.8.9.2 1.9.2 2.8.2 4.2 0 7.4-1 9.8-3 2.2-1.9 3.3-4.1 3.3-6.6 0-.9-.1-1.7-.4-2.5-.2-.7-.5-1.4-1-2zm-8.9-8.4c-.8 0-1.5-.2-2.3-.6-.7-.4-1.3-.9-1.8-1.6-.5-.6-.9-1.4-1.3-2.2-.4-.8-.6-1.6-.8-2.4-.2-.8-.3-1.6-.3-2.3 0-1.5.4-2.8 1.2-3.8.8-1.1 1.9-1.6 3.4-1.6 1 0 2 .3 2.8 1 .8.6 1.5 1.4 2 2.4s.8 2 1.1 3c.3 1 .4 2 .4 3 0 1.6-.3 2.8-1 3.7-.8.9-1.9 1.4-3.4 1.4zm6.4 17.5c-.4.7-1 1.3-1.7 1.7-.7.4-1.5.7-2.3.9-.8.2-1.7.3-2.6.3-1 0-2-.1-3-.3-1-.2-1.9-.6-2.8-1.1-.9-.5-1.6-1.1-2.2-2-.6-.8-.8-1.8-.8-2.8 0-.9.2-1.8.6-2.5.4-.7 1-1.3 1.6-1.7.7-.4 1.4-.8 2.3-1.1.9-.3 1.7-.5 2.5-.6.8-.1 1.6-.2 2.5-.2h1.2c.1.1.3.2.7.5s.6.4.8.5c.1.1.4.3.7.5.3.3.6.5.7.6.1.1.4.3.6.6.3.3.5.5.6.7.1.2.3.4.5.7.2.3.3.5.4.8.1.3.2.5.2.8.1.3.1.6.1.9 0 1.2-.2 2-.6 2.8zM37.1 10.8V4.9h-3v5.9h-5.9v3h5.9v6h3v-6h6v-3z"/></svg>