<svg xmlns="http://www.w3.org/2000/svg" width="48" height="48" viewBox="0 0 48 48"><style type="text/css">.st0{fill:none;} .st1{fill:#016FDE;}</style><path class="st0" d="M0 0h48v48H0z"/><path class="st1" d="M34.9 9.1c-5.3-5.8-14.3-5.4-20.2-.9-5.1 3.8-8.7 12.2-4.4 18 .9 1.2 2.1 1.9 3.6 2.2.4.1.7-.1.8-.5.3-.8.6-1.5.7-2.3 0-.3-.2-.5-.5-.5-3.9-4.2-1.2-9.5 2.5-12.8 3.3-2.9 9.5-5.6 13.4-2.3 2.7 2.3 2.9 6.6 2.8 9.8-.2 4.1-1.6 8.4-5.8 9.7-1.4.4-3 .3-3.9-1-1-1.4-.7-3.1-.3-4.6.6-2.4 2.1-5.7.7-8-1.7-2.8-5-.3-5.9 1.6-.6 1.2-1.6 4.9-.1 5.8-1.7 4.2-2.8 8.8-3.5 13.2-.3 2-.7 4.2-.3 6.2 0 .1.4 1.6.9 2.2-.1.4.5.5.7.2 1.5-2 3.1-4 3.9-6.4.4-1.3.6-2.7.9-4 .2-.9.6-2 .7-3 1.3 1 3.1 1.9 4.6 2.2 2.5.5 5.4-.4 7.4-1.8.3-.2.6-.5.9-.8.9-.6 1.8-1.4 2.5-2.4 4-5.9 2.6-14.7-2.1-19.8zM13.9 26l.1.1s0 .1-.1.1c0-.1-.1-.1-.2-.2v-.2c.2.1.2.2.2.2zm-2.5-11.5c-.4.7-.7 1.4-1 2.1.2-.8.5-1.5.9-2.2h.2c-.1 0-.1.1-.1.1zM35 11.6l-.2-.2-.1-.1c0-.1-.1-.2-.1-.3.2.3.5.6.7.9-.1 0-.2-.1-.3-.3z"/></svg>