<svg xmlns="http://www.w3.org/2000/svg" width="114.6" height="114.6" viewBox="0 0 114.6 114.6"><style type="text/css">.st0{fill:#0D1422;stroke:#376EB6;stroke-width:5;stroke-miterlimit:10;} .st1{fill:#376EB6;}</style><circle class="st0" cx="57.3" cy="57.3" r="54.8"/><path class="st1" d="M52.3 69.7c0 4-3.3 7.1-8.1 7.5v2.4h-2.1v-2.4c-3.5-.2-6.5-1.3-8.8-3.3l2-3.8c2.4 1.9 4.4 2.7 6.8 2.9v-7.1c-5.8-2.5-8.2-3.9-8.2-7.8V58c0-3.8 3.5-6.4 8.2-6.8v-1.8h2.1V51c2.7.2 5.3 1.2 7.1 2.5l-1.8 3.7c-1.9-1.2-3.8-1.8-5.2-2v6.4c6.1 2.6 8 4.3 8 8.1zm-10.2-8.9v-5.6c-2 .3-3.3 1.2-3.3 2.7 0 1.3.8 1.8 3.3 2.9zm5.6 8.9c0-1.3-1.5-2.2-3.5-3.1v6.3c2.3-.2 3.5-1.6 3.5-3.2zM73.7 76.8h-7.1V42.1l-8.1 3-1.2-5.6 11.1-4.4h5.3v41.7z"/></svg>