<svg xmlns="http://www.w3.org/2000/svg" width="114.6" height="114.6" viewBox="0 0 114.6 114.6"><style type="text/css">.st0{fill:#0D1422;stroke:#376EB6;stroke-width:5;stroke-miterlimit:10;} .st1{fill:#376EB6;}</style><circle class="st0" cx="57.3" cy="57.3" r="54.8"/><path class="st1" d="M22.9 72.2l3.5-6.1c4.7 3.7 8.3 4.7 12.6 4.7 4 0 7.3-2 7.3-4.8v-.1c0-2.5-1.1-3.9-8.4-6.9-8.6-3.7-12.5-6.4-12.5-12.9V46c0-6.8 6.5-11.3 14-11.3 4.9 0 9.8 1.8 13 4.1l-3.2 6c-3.9-2.4-7.4-3.3-9.9-3.3-2.6 0-5.9 1.4-5.9 4.2v.1c0 2.4 1.6 3.6 7.2 5.8C50.6 55.8 54 59 54 65.5v.1c0 6.8-6.4 12.2-15 12.2-6 0-11.9-1.8-16.1-5.6zM60.3 35.5H77c7.7 0 13.1 3.6 13.1 11v.1c0 3.6-1.6 6.8-4.2 8.1 4.1 1.1 7.1 5.2 7 10.7v.1c0 8.1-5.2 11.6-14.6 11.6h-18V35.5zM79 51.6c2.6 0 3.9-1.8 3.9-4.5V47c0-2.8-1.9-4.7-5.4-4.7H68v9.3h11zm-.8 18.6c5.7 0 7.5-2 7.5-6v-.1c0-4.1-2.3-5.7-6.5-5.7H67.9v11.8h10.3z"/></svg>