<!-- Generator: Adobe Illustrator 19.2.1, SVG Export Plug-In  -->
<svg version="1.1"
	 xmlns="http://www.w3.org/2000/svg" xmlns:xlink="http://www.w3.org/1999/xlink" xmlns:a="http://ns.adobe.com/AdobeSVGViewerExtensions/3.0/"
	 x="0px" y="0px" width="15.1px" height="44.8px" viewBox="0 0 15.1 44.8" style="enable-background:new 0 0 15.1 44.8;"
	 xml:space="preserve">
<style type="text/css">
	.st0{fill:#D40000;}
</style>
<defs>
</defs>
<path id="path6518-2_2_" class="st0" d="M7.4,44.8c-1.7-2.9-3.5-5.6-5.8-8c2.3-2.4,4.1-5.1,5.8-8c1.7,2.9,3.5,5.6,5.8,8
	C11,39.1,9.2,41.9,7.4,44.8z"/>
<path id="path15-34-1-4-2_2_" class="st0" d="M0,26.2l0.1-1.6c0.4-5,1.5-6.7,7.6-12c3-2.5,4-3.8,4.1-5.3C12.1,4,9,2.9,7.1,2.9
	C4.5,2.9,1.6,4.4,3,8.1L0.2,9c-0.6-3.4,0-6.6,2.7-8c3.7-1.9,8.3-1.1,10.6,1.8c1.6,1.9,1.9,4.6,1.1,6.7c-2.4,5.4-10.8,7.7-11.4,14
	h9.2V20h2.7v6.4L0,26.2L0,26.2z"/>
</svg>
