<!-- Generator: Adobe Illustrator 19.2.1, SVG Export Plug-In  -->
<svg version="1.1"
	 xmlns="http://www.w3.org/2000/svg" xmlns:xlink="http://www.w3.org/1999/xlink" xmlns:a="http://ns.adobe.com/AdobeSVGViewerExtensions/3.0/"
	 x="0px" y="0px" width="16.1px" height="44.8px" viewBox="0 0 16.1 44.8" style="enable-background:new 0 0 16.1 44.8;"
	 xml:space="preserve">
<defs>
</defs>
<path id="path7088-9-3_2_" d="M8.2,28.9C4.8,33.3,1.1,35.7,1,39.1c0,1.1,0.7,3,2.8,3.4c1.4,0.2,3.2-0.8,3.3-2.8
	c0-0.4,0.5-0.4,0.5,0.2C7.5,41.5,7,43.3,6,44.8c1.5,0,3,0,4.5,0c-0.9-1.5-1.5-3.3-1.6-4.9c0-0.5,0.5-0.6,0.5-0.2c0,2,1.9,3,3.3,2.8
	c2.1-0.4,2.8-2.2,2.8-3.4C15.3,35.7,11.6,33.2,8.2,28.9L8.2,28.9z"/>
<path id="path25-4-6-4_2_" d="M4.1,26.3c1.7-9.2,3.6-16,8.4-23.4H2.6V6H0V0h14.3l1.8,2.8c-5.2,5.6-9.9,23.7-9,23.4L4.1,26.3
	L4.1,26.3z"/>
</svg>
