<!-- Generator: Adobe Illustrator 19.2.1, SVG Export Plug-In  -->
<svg version="1.1"
	 xmlns="http://www.w3.org/2000/svg" xmlns:xlink="http://www.w3.org/1999/xlink" xmlns:a="http://ns.adobe.com/AdobeSVGViewerExtensions/3.0/"
	 x="0px" y="0px" width="166.9px" height="226.6px" viewBox="0 0 166.9 226.6" style="enable-background:new 0 0 166.9 226.6;"
	 xml:space="preserve">
<style type="text/css">
	.st0{fill:#D40000;}
</style>
<defs>
</defs>
<g id="g6746_1_" transform="matrix(0.99553491,0,0,0.99680337,9.2783608,-8.1397402)">
	<path id="path6722-9_1_" class="st0" d="M-1,53.1c-1.7-2.9-3.5-5.6-5.8-8c2.3-2.4,4.1-5.1,5.8-8
		c1.7,2.9,3.5,5.6,5.8,8C2.5,47.4,0.7,50.2-1,53.1z"/>
	<path id="path6724-6_1_" class="st0" d="M115.9,61.7c-4.1-6.9-8.5-13.5-14-19.2
		c5.5-5.7,9.8-12.3,14-19.2c4.1,6.9,8.5,13.5,14,19.2C124.4,48.1,120.1,54.8,115.9,61.7z"/>
	<path id="path6726-3_1_" class="st0" d="M150,206.6c-1.7-2.9-3.5-5.6-5.8-8
		c2.3-2.4,4.1-5.1,5.8-8c1.7,2.9,3.5,5.6,5.8,8C153.6,200.9,151.8,203.7,150,206.6z"/>
	<path id="path6728-7_1_" class="st0" d="M33.1,61.7c-4.1-6.9-8.5-13.5-14-19.2
		c5.5-5.7,9.8-12.3,14-19.2c4.1,6.9,8.5,13.5,14,19.2C41.6,48.1,37.3,54.8,33.1,61.7z"/>
	<path id="path6736-0_1_" class="st0" d="M74.5,141c-4.1-6.9-8.5-13.5-14-19.2
		c5.5-5.7,9.8-12.3,14-19.2c4.1,6.9,8.5,13.5,14,19.2C83,127.5,78.7,134.2,74.5,141z"/>
	<path id="path6744-9_1_" class="st0" d="M33.1,220.4c-4.1-6.9-8.5-13.5-14-19.2
		c5.5-5.7,9.8-12.3,14-19.2c4.1,6.9,8.5,13.5,14,19.2C41.6,206.9,37.3,213.5,33.1,220.4z"/>
	<path id="path6746-2_1_" class="st0" d="M115.9,220.4c-4.1-6.9-8.5-13.5-14-19.2
		c5.5-5.7,9.8-12.3,14-19.2c4.1,6.9,8.5,13.5,14,19.2C124.4,206.9,120.1,213.5,115.9,220.4z"/>
	<path id="path21-9-8-2-7_1_" class="st0" d="M-9.3,27.7l2.6,0c0.5,1.6,1.6,3.2,3.1,3.7
		c4.2,1,6.9-1.4,7.8-4.1c1.1-3.3,0-8-2.9-9.7c-2.4-1.4-5.9-0.2-7.6,2.7l-1.8-1.1l1-11H4.6v2.6H-5l-0.2,4.6c2.1-1.5,5.2-1.5,7.3-0.4
		c3.9,1.9,5.7,6.2,5,11.3c-1.1,5.1-3.4,7.9-8.6,8.3C-7.3,34.6-9.3,30.5-9.3,27.7L-9.3,27.7L-9.3,27.7z"/>
	<path id="path21-3-0-8-6_1_" class="st0" d="M158.4,215.9l-2.6,0c-0.5-1.6-1.6-3.2-3.1-3.7
		c-4.2-1-6.9,1.4-7.8,4.1c-1.1,3.3,0,8,2.9,9.7c2.4,1.4,5.9,0.2,7.6-2.7l1.8,1.1l-1,11h-11.8v-2.6h9.6l0.2-4.6
		c-2.1,1.5-5.2,1.5-7.3,0.4c-3.9-1.9-5.7-6.2-5-11.3c1.1-5.1,3.4-7.9,8.6-8.3C156.3,209,158.4,213.1,158.4,215.9L158.4,215.9
		L158.4,215.9z"/>
</g>
</svg>
