<!-- Generator: Adobe Illustrator 19.2.1, SVG Export Plug-In  -->
<svg version="1.1"
	 xmlns="http://www.w3.org/2000/svg" xmlns:xlink="http://www.w3.org/1999/xlink" xmlns:a="http://ns.adobe.com/AdobeSVGViewerExtensions/3.0/"
	 x="0px" y="0px" width="166.3px" height="226.6px" viewBox="0 0 166.3 226.6" style="enable-background:new 0 0 166.3 226.6;"
	 xml:space="preserve">
<style type="text/css">
	.st0{fill:#D40000;}
</style>
<defs>
</defs>
<g id="g6836_1_" transform="matrix(0.99553491,0,0,0.99680337,10.193684,-8.1397411)">
	<path id="path7062-5_1_" class="st0" d="M-2.2,53.1c-1.7-2.9-3.5-5.6-5.8-8
		c2.3-2.4,4.1-5.1,5.8-8c1.7,2.9,3.5,5.6,5.8,8C1.3,47.4-0.5,50.2-2.2,53.1z"/>
	<path id="path7064-0_1_" class="st0" d="M114.7,61.7c-4.1-6.9-8.5-13.5-14-19.2
		c5.5-5.7,9.8-12.3,14-19.2c4.1,6.9,8.5,13.5,14,19.2C123.2,48.1,118.9,54.8,114.7,61.7z"/>
	<path id="path7066-9_1_" class="st0" d="M148.8,206.6c-1.7-2.9-3.5-5.6-5.8-8
		c2.3-2.4,4.1-5.1,5.8-8c1.7,2.9,3.5,5.6,5.8,8C152.4,200.9,150.5,203.7,148.8,206.6z"/>
	<path id="path7068-2_1_" class="st0" d="M31.9,61.7c-4.1-6.9-8.5-13.5-14-19.2
		c5.5-5.7,9.8-12.3,14-19.2c4.1,6.9,8.5,13.5,14,19.2C40.4,48.1,36,54.8,31.9,61.7z"/>
	<path id="path7070-0_1_" class="st0" d="M114.7,114.6c-4.1-6.9-8.5-13.5-14-19.2
		c5.5-5.7,9.8-12.3,14-19.2c4.1,6.9,8.5,13.5,14,19.2C123.2,101.1,118.9,107.7,114.7,114.6z"/>
	<path id="path7072-0_1_" class="st0" d="M31.9,114.6c-4.1-6.9-8.5-13.5-14-19.2
		c5.5-5.7,9.8-12.3,14-19.2c4.1,6.9,8.5,13.5,14,19.2C40.4,101.1,36,107.7,31.9,114.6z"/>
	<path id="path7074-4_1_" class="st0" d="M73.3,88.1c-4.1-6.9-8.5-13.5-14-19.2
		c5.5-5.7,9.8-12.3,14-19.2c4.1,6.9,8.5,13.5,14,19.2C81.8,74.6,77.4,81.3,73.3,88.1z"/>
	<path id="path7084-9_1_" class="st0" d="M31.9,220.4c-4.1-6.9-8.5-13.5-14-19.2
		c5.5-5.7,9.8-12.3,14-19.2c4.1,6.9,8.5,13.5,14,19.2C40.4,206.9,36,213.5,31.9,220.4z"/>
	<path id="path7086-7_1_" class="st0" d="M114.7,220.4c-4.1-6.9-8.5-13.5-14-19.2
		c5.5-5.7,9.8-12.3,14-19.2c4.1,6.9,8.5,13.5,14,19.2C123.2,206.9,118.9,213.5,114.7,220.4z"/>
	<path id="path7088-6_1_" class="st0" d="M114.7,167.5c-4.1-6.9-8.5-13.5-14-19.2
		c5.5-5.7,9.8-12.3,14-19.2c4.1,6.9,8.5,13.5,14,19.2C123.2,154,118.9,160.6,114.7,167.5z"/>
	<path id="path7090-8_1_" class="st0" d="M31.9,167.4c-4.1-6.9-8.5-13.5-14-19.2
		c5.5-5.7,9.8-12.3,14-19.2c4.1,6.9,8.5,13.5,14,19.2C40.4,153.9,36,160.6,31.9,167.4z"/>
	<path id="path7092-79_1_" class="st0" d="M73.3,193.9c-4.1-6.9-8.5-13.5-14-19.2
		c5.5-5.7,9.8-12.3,14-19.2c4.1,6.9,8.5,13.5,14,19.2C81.8,180.4,77.4,187.1,73.3,193.9z"/>
	<g id="g8345-9-6-9-5_1_" transform="matrix(1,0,0,0.9999803,1809.6754,-538.726)">
		<path id="path31-8-2-5-6_1_" class="st0" d="M-1819.9,573.3v-26.4h2.6v26.4H-1819.9z"/>
		<path id="path33-2-0-3-1_1_" class="st0" d="M-1809.8,546.9c-2.5,0-4.4,2.3-4.4,5v16.3
			c0,2.8,2,5,4.4,5h1.4c2.5,0,4.4-2.2,4.4-5v-16.3c0-2.8-2-5-4.4-5H-1809.8z M-1809,549.4c1.5,0,2.6,1.1,2.6,2.5v16.5
			c0,1.4-1.2,2.5-2.6,2.5s-2.6-1.1-2.6-2.5v-16.5C-1811.7,550.5-1810.5,549.4-1809,549.4L-1809,549.4z"/>
	</g>
	<g id="g8345-5-0-8-9_1_" transform="matrix(-1,0,0,-0.9999803,4095.6729,789.6473)">
		<path id="path31-1-3-1-4_1_" class="st0" d="M3938.8,580.6v-26.4h2.6v26.4H3938.8z"/>
		<path id="path33-5-5-1-9_1_" class="st0" d="M3949,554.2c-2.5,0-4.4,2.3-4.4,5v16.3
			c0,2.8,2,5,4.4,5h1.4c2.5,0,4.4-2.2,4.4-5v-16.3c0-2.8-2-5-4.4-5H3949z M3949.7,556.7c1.5,0,2.6,1.1,2.6,2.5v16.5
			c0,1.4-1.2,2.5-2.6,2.5s-2.6-1.1-2.6-2.5v-16.5C3947.1,557.8,3948.3,556.7,3949.7,556.7L3949.7,556.7z"/>
	</g>
</g>
</svg>
