<!-- Generator: Adobe Illustrator 19.2.1, SVG Export Plug-In  -->
<svg version="1.1"
	 xmlns="http://www.w3.org/2000/svg" xmlns:xlink="http://www.w3.org/1999/xlink" xmlns:a="http://ns.adobe.com/AdobeSVGViewerExtensions/3.0/"
	 x="0px" y="0px" width="167.4px" height="226.6px" viewBox="0 0 167.4 226.6" style="enable-background:new 0 0 167.4 226.6;"
	 xml:space="preserve">
<style type="text/css">
	.st0{fill:#D40000;}
</style>
<defs>
</defs>
<g id="g6785_1_" transform="matrix(0.99553491,0,0,0.99680337,9.8277174,-8.1397402)">
	<path id="path6926-2_1_" class="st0" d="M-1.3,53.1c-1.7-2.9-3.5-5.6-5.8-8
		c2.3-2.4,4.1-5.1,5.8-8c1.7,2.9,3.5,5.6,5.8,8C2.3,47.4,0.4,50.2-1.3,53.1z"/>
	<path id="path6928-9_1_" class="st0" d="M115.6,61.7c-4.1-6.9-8.5-13.5-14-19.2
		c5.5-5.7,9.8-12.3,14-19.2c4.1,6.9,8.5,13.5,14,19.2C124.2,48.1,119.8,54.8,115.6,61.7z"/>
	<path id="path6930-6_1_" class="st0" d="M149.7,206.6c-1.7-2.9-3.5-5.6-5.8-8
		c2.3-2.4,4.1-5.1,5.8-8c1.7,2.9,3.5,5.6,5.8,8C153.3,200.9,151.5,203.7,149.7,206.6z"/>
	<path id="path6932-2_1_" class="st0" d="M32.8,61.7c-4.1-6.9-8.5-13.5-14-19.2
		c5.5-5.7,9.8-12.3,14-19.2c4.1,6.9,8.5,13.5,14,19.2C41.3,48.1,37,54.8,32.8,61.7z"/>
	<path id="path6938-4_1_" class="st0" d="M74.2,101.3c-4.1-6.9-8.5-13.5-14-19.2
		c5.5-5.7,9.8-12.3,14-19.2c4.1,6.9,8.5,13.5,14,19.2C82.7,87.8,78.4,94.5,74.2,101.3z"/>
	<path id="path6942-4_1_" class="st0" d="M32.8,141c-4.1-6.9-8.5-13.5-14-19.2
		c5.5-5.7,9.8-12.3,14-19.2c4.1,6.9,8.5,13.5,14,19.2C41.3,127.5,37,134.1,32.8,141z"/>
	<path id="path6944-9_1_" class="st0" d="M115.6,141c-4.1-6.9-8.5-13.5-14-19.2
		c5.5-5.7,9.8-12.3,14-19.2c4.1,6.9,8.5,13.5,14,19.2C124.2,127.5,119.8,134.2,115.6,141z"/>
	<path id="path6948-4_1_" class="st0" d="M32.8,220.4c-4.1-6.9-8.5-13.5-14-19.2
		c5.5-5.7,9.8-12.3,14-19.2c4.1,6.9,8.5,13.5,14,19.2C41.3,206.9,37,213.5,32.8,220.4z"/>
	<path id="path6950-4_1_" class="st0" d="M115.6,220.4c-4.1-6.9-8.5-13.5-14-19.2
		c5.5-5.7,9.8-12.3,14-19.2c4.1,6.9,8.5,13.5,14,19.2C124.2,206.9,119.8,213.5,115.6,220.4z"/>
	<path id="path6956-4_1_" class="st0" d="M74.2,180.7c-4.1-6.9-8.5-13.5-14-19.2
		c5.5-5.7,9.8-12.3,14-19.2c4.1,6.9,8.5,13.5,14,19.2C82.7,167.2,78.4,173.8,74.2,180.7z"/>
	<path id="path27-00-7-8-6_1_" class="st0" d="M-9.9,26.8c0.1-3.5,1.4-4.9,3.9-6.7
		c-2-1.5-2.9-3.6-2.7-5.4c0.4-4.4,3.8-6.6,7.5-6.5c3.7,0.1,6.9,3,7.2,6.3c0.2,2.8-0.6,4.1-2.6,5.6c2.3,2,3.8,3.3,3.8,6.8
		c-0.1,3.5-3,7.6-8.2,7.8C-6.1,34.7-10,30.4-9.9,26.8L-9.9,26.8L-9.9,26.8z M4.6,26.8c0.2-3.2-2.6-5.4-5.8-5.4
		c-3.1,0-5.9,2.6-5.9,5.5c0,3.1,3.6,4.8,6,4.8C1.7,31.7,4.4,29.6,4.6,26.8L4.6,26.8z M3.6,15.4c0.1-2.7-2.4-4.6-5-4.6
		c-2.3,0.1-4.7,1.8-4.7,4.1c0,2.8,2.8,4.2,5.1,4.3C1.1,19.2,3.5,17.4,3.6,15.4L3.6,15.4L3.6,15.4z"/>
	<path id="path27-0-1-9-8_1_" class="st0" d="M141.2,216.8c0.1,3.5,1.4,4.9,3.9,6.7
		c-2,1.5-2.9,3.6-2.7,5.4c0.4,4.4,3.8,6.6,7.5,6.5c3.7-0.1,6.9-3,7.2-6.3c0.2-2.8-0.6-4.1-2.6-5.6c2.3-2,3.8-3.3,3.8-6.8
		c-0.1-3.5-3-7.6-8.2-7.8C144.9,209,141,213.3,141.2,216.8L141.2,216.8L141.2,216.8z M155.6,216.8c0.2,3.2-2.6,5.4-5.8,5.4
		c-3.1,0-5.9-2.6-5.9-5.5c0-3.1,3.6-4.8,6-4.8C152.7,211.9,155.4,214,155.6,216.8L155.6,216.8L155.6,216.8z M154.6,228.3
		c0.1,2.7-2.4,4.6-5,4.6c-2.3-0.1-4.7-1.8-4.7-4.1c0-2.8,2.8-4.2,5.1-4.3C152.1,224.4,154.5,226.2,154.6,228.3L154.6,228.3
		L154.6,228.3z"/>
</g>
</svg>
