<!-- Generator: Adobe Illustrator 19.2.1, SVG Export Plug-In  -->
<svg version="1.1"
	 xmlns="http://www.w3.org/2000/svg" xmlns:xlink="http://www.w3.org/1999/xlink" xmlns:a="http://ns.adobe.com/AdobeSVGViewerExtensions/3.0/"
	 x="0px" y="0px" width="167.3px" height="226.6px" viewBox="0 0 167.3 226.6" style="enable-background:new 0 0 167.3 226.6;"
	 xml:space="preserve">
<style type="text/css">
	.st0{fill:#131F67;}
	.st1{fill:#E2CF00;}
	.st2{fill:#D40000;}
	.st3{fill:#100F08;}
</style>
<defs>
</defs>
<g id="g7120_1_" transform="matrix(0.99553491,0,0,0.99680337,10.742907,-8.1397611)">
	
		<path id="path6351-0_1_" class="st0" d="
		M7.9,16.6c0.1,63.5,0,141.4,0,210.5h130.6V16.6L7.9,16.6z M46.2,17.8c22.5,0.6,45.2-0.1,67.9,0.1c0,0-8.2,14.5-10.8,19
		c-0.5,1-0.6,1.7-0.3,2.1c0.5,0.6,0.4,1.7-0.1,2.4c-0.2,0.3-0.3,0.4-0.3,0.6c0,0.2,0.1,0.3,0.2,0.6c0.4,1.4-0.6,2.3-1.7,2.8
		c-0.7,0.3-2.4,0.5-3.6,0.4c-7.5-0.4-22.3-6.8-28.4-7.3c-4.2-1.2-9.7-0.8-14.2-0.5c-0.8,0.1-0.7-1.9-0.7-1.9
		C53.6,29.5,48.9,23.8,46.2,17.8z M115.3,18.5h21.6v3.4l-9.1,9.2c-0.8,0.9-1.5,1.6-1.5,1.6l-0.1,8.3c-6.1-3.3-7.3-7.2-8.4-11.6
		c-10.2,7.6-10.7,24.2,0.5,32.7c0.1-3.7,2.9-11,7.9-11.5l0.1,28.9l-6.1-6l-13.3,0.2c2.2-3.6,2.2-6.4,0.8-9.8c-2.4-5.5-6.1-18-5.8-18
		c0,0,0.1-0.3,0.4-0.3c1.1-0.2,1.8-1.3,1.5-2.6c-0.1-0.4-0.1-0.3,0.2-0.9c1.1-1.9-0.2-3.9-0.2-3.9L115.3,18.5z M44.7,18.5l8,14.6
		c0,0-0.1,0.7-0.1,1.1c0.1,0.6,0.2,1.1,0.6,1.6c0.2,0.3,0.4,0.8,0.4,1.3c0.1,0.7,0.1,0.7,1.1,1.7c0.2,0.2,0.3,0.3,0.2,0.5
		c-0.3,0.9-0.1,2.7,0.5,4.8c0.9,2.7,1.1,2.7-0.5,6.3c-0.3,0.8-0.7,1.8-1.2,2.7c-2,4.1-2.3,5.2,1.1,7.4c1,0.6,1.2,1.2,1,2.4
		c-0.2,1-0.2,1.6,0.2,2.1c0.3,0.4,0.6,0.4,0.5,0.7c-0.1,0.2-0.3,1-0.2,1.7c0.2,1.8-1.9,4.5-3.8,5.5c-0.4,0.3-0.5-0.1-0.7-0.4
		c-2-3.5-6.9-2.1-7.2,2.1c-0.1,1.1-0.1,1.6-0.3,1.8c-0.1,0.1-0.4,0.2-0.4,0.2s-7.4,4.8-12.1,7.3c-0.3,0.2-0.6,0.4-0.8,0.5
		c-0.2,0.1-0.4,0-0.6-0.2c-1.7-3.3-0.8-7.2-0.6-8.6c0-0.5-0.5-0.6-1.1-0.6c-1.1,0-2.6,1.1-2.9,2.1c-0.3,0.9-0.5,1.4-0.7,1.4
		c-0.3,0-0.4-0.4-1-1.6c-1.3-2.6-1.5-2.9-2.8-4.4c-1-1.2-1.8-1.4-2.8-0.5c-0.7,0.6-0.7,0.1-1.2-0.2c-1-0.7-2.5-0.1-2.5,0.9
		c0,0.8,0,1.4-0.9,1.5c-0.9,0.1-1.3,1.2-1,2.9c0.1,0.9,0.2,1-0.1,1.3c-0.9,1.1-1,1.8-0.5,3.3c1.4,4.2,3.4,7,5.2,10.8
		c0,0-4.6,2.7-7.4,4.3V18.5L44.7,18.5z M137,22.7l0.1,67.9l-10.2-10.1c0,0-0.2-13-0.2-18.3c0-5.3,0.1-10.6,0.1-11.6
		c0-1,0.1-5.2,0.1-9.5c0.1-9.1-0.8-7.9,0.9-9.7L137,22.7z M117.1,30.8l0.6,1.6c-4.3,2.5-9.5,16.2,0.1,26.3l-0.2,2.1
		C107.5,51.6,109.4,38.5,117.1,30.8z M117.8,32.8c1.5,3,3.1,5.7,5.4,7.4c-1.2,2.9-1.8,6.2,0.3,10.6c-1.5,0.8-3.5,2.9-5.6,7.3
		C110.4,50.3,112.1,39.2,117.8,32.8z M61.5,38.5c4.2,0,8.6,0.7,12.6,1.9C76.6,53.3,81,62,81,67c0,0-0.4-0.1-1.1-0.6
		c-1.8-1.3-4.2-0.6-5.5,1.1c-1.2,1.6,0,3.8-0.6,4.8c-1.2,1.7-4.2,5-4.7,4.9c-0.4-0.1-0.3-0.2,1-2.3c1.4-2.1,2.4-4,2-4.5
		c-0.2-0.2-0.3,0.2-1.3,2c-2.4,4.2-4.5,6.7-5.3,6.4C65,78.6,65.2,78.3,67,76c2-2.6,2.5-4.3,2.3-5c-0.2-0.6-0.5,0.3-1.3,2
		c-0.9,1.7-2.5,3.6-3.8,5.5c-0.4,0.7-0.9,1.1-1.6,1.4c-0.5,0.2-1.3,0.6-1.7,0.5c-0.2,0-0.1-0.2,0.3-0.5c2.5-2.6,4.7-5.6,6-8.4
		c0.2-0.4-0.1-0.9-0.4-0.5c-1.9,3.4-4.5,7.6-7.4,9.4c-0.6,0.4-1.5,0.7-2.4,0.7c-1.4,0-0.9-0.4,0.4-1.2c2.8-1.8,6.6-6.9,7.2-8.7
		c0.1-0.4,0-0.7-0.3-0.6C62,74,59,78.1,55.5,79.7c-1.9,0.9-4.2,1.1-5.4,0.5c-0.9-0.4-0.6-0.6,0.9-0.7c3.6-0.4,7.9-3.8,10-7.4
		c1.2-2,0.4-1.6-1,0.4c-2.4,3.3-7.2,6.5-10.2,6.2c-3-0.2-4.7-2.5-4.3-4.5c0.2-1.2,1.1-2.5,2.8-2.8c2.9-0.6,4.8,4,2.1,4.8
		c-0.9,0.3-1.2,0.1-0.9-0.3c2-0.9,1.1-3.2-0.6-3.5c-1-0.2-2.2,0.6-2.3,2.2c0,1.2,1,2.4,3,2.4c2.3,0,5.9-1.7,8.1-4.8
		c1.5-2.4,0.1-1.6-1,0c-1,1.4-4.3,3.4-4.6,3.3l0.1-1.6c0.1,0.3,5.1-3.2,4.8-5.7c-0.2-1.9,0.1-2.4,2-2.4c1.4,0,3.3,0.5,3.8,1.2
		c0.5,0.7,1.2,0.9,0.9-0.2c-0.4-1.8,0.1-2.1-1-1.8c-0.7,0.2-1.4-0.3-2.1-0.9c-0.8-0.6-1.8-0.8-3-0.8c-0.9,0-1.3,0-1.2-0.9
		c0.1-0.6,0.2-1.1,0-1.5c-0.3-0.6-1.4-1.3-2.7-2.2c-1.5-1.1-1.2-1.2,2-8.5c1.3-3.1,1.3-3.7,0.5-6c-1.3-3.6-1.5-5,0.9-5.6
		C58.7,38.6,60.1,38.5,61.5,38.5L61.5,38.5z M74.9,40.6l1.2,0.4c0,0,3.8,13.2,6,19.6c0.7,2,1.2,4.6,1.3,7.1c-0.1,3.4-2,5.9-4.3,6.2
		c-1.7,0.2-3.5-0.7-4.3-2.5c-0.7-1.8-0.2-3.8,1.8-4.6c3.5-1.2,6,3.2,2.6,4.6c-1.8,0.7-3.4-0.6-2.6-2.1c0.6-1,2.1-0.9,2.5,0.1
		c0.3,1.1,0.8,0.6,0.6-0.2c-0.6-2.5-3.8-1.9-4.1,0.4c0,2.8,3.1,3.5,4.9,1.9c1.4-1.3,1.6-3.6,1.2-5.5c-0.5-4.1-2.8-9.5-4.5-15.6
		C76.5,47.4,75.3,43.7,74.9,40.6L74.9,40.6z M123.8,40.7l2.3,0.9l-0.1,7.6l-2,0.7C121.5,46.1,123.7,40.7,123.8,40.7L123.8,40.7z
		 M77,41.2l1.7,0.7c0.9,5.4,5.3,15.7,6.8,23.4c0.4,4.6,0.5,6-2.6,8.5v0h-1.7c0,0,0-0.1,0.7-0.7c4.1-3.1,1.6-9.8,0.1-15
		C79.4,49.7,77,41.2,77,41.2L77,41.2z M61.2,41.8c-0.2,0-0.4,0-0.7,0c-2.6,0.1-3,0.3-3,0.9c0,1.1,0.4,1.5,2.8,1.3
		c2.1-0.2,5,0.1,7.1,1c2.3,1,2.9,1.3,3.7,1.7c2.1,1.1,1.7,0-0.2-1.3C67.1,42.8,64.4,41.7,61.2,41.8L61.2,41.8z M79.6,42.1l1.6,0.6
		c0,0,0.4,1.2,0.6,2c1.5,6.9,5.7,14.6,6.2,22.7c0.1,2.6-0.3,5.1-2.3,6.3h-1.5c1.6-1.6,2.6-2,2.2-7.4C85.8,59.4,81.2,50.7,79.6,42.1z
		 M82.4,43.3l1.5,0.5c1.7,9.3,10,23.2,4.7,29.9h-1.3c1.2-1.9,1.7-3.5,1.5-6C88.3,59.3,84,51.1,82.4,43.3L82.4,43.3z M84.9,44.1
		l1.6,0.5C88.6,54,96.8,69.5,91,73.8l-1.2,0C94.2,65.4,87.5,56.8,84.9,44.1z M87.6,45c0.5,0.3,1.2,0.4,1.7,0.6
		c1.7,7.1,4.7,14.1,6.1,20.8c0.5,3.6-0.3,6.4-2.6,7.4h-0.5c2-3.1,1.7-7,0.6-11.2C91.4,56.8,88.6,50.6,87.6,45z M62.8,45.1
		c-0.7,0-1.5,0.1-2.3,0.4c-0.8,0.3-0.7,1,0,0.8c0.3,0,0.7-0.1,1-0.2c1.9-0.3,4.2,0.4,7,2.1c0.7,0.4,1.4,0.8,1.6,1
		c0.5,0.4,1.1,0.4,0.9-0.1C71,48.9,70,48,69,47.5C66.9,46.2,65,45.1,62.8,45.1L62.8,45.1z M90.3,45.7l1.6,0.2
		c3,13.8,9.5,22.4,3.9,27.5h-1.4c1.5-1.6,2.2-4,1.7-7c-0.5-3-2-7.7-3.3-11.9C91.4,49.9,90.2,45.8,90.3,45.7L90.3,45.7z M92.6,46.1
		l1.3,0.3c1.6,5.6,4.2,12.6,5.9,18.3c1,3.6,0.6,7.9-1.6,8.8l-1.1,0c1.9-2.5,2.1-5.1,1.3-8.5C96.6,58,93.9,51.9,92.6,46.1z
		 M100.9,46.1c1.4,5.8,4.6,14.7,5.8,17.7c1.6,3.1,1.1,7.8-1.3,9.6l-1.1,0c1.3-1.3,1.8-3.4,1.6-5.6c-0.6-6.2-5-14.8-6.6-21.5
		L100.9,46.1z M95,46.4l1.4,0.1c1.4,6.1,4.1,12,5.8,18.1c0.3,1.4,0.6,3,0.5,4.3c-0.2,2.6-1.3,4.6-2.2,4.6h-1c2-2.3,1.9-5.5,1-9
		C99.2,58.9,95.8,52.1,95,46.4z M58.9,46.4c-0.6,0-0.6,0.5,0.3,1.3c0.6,0.5,0.5,0.3,0.5,0.6c-0.1,1.3,0.1,2.6,0.6,1.2
		c0.1-0.4,0.4-0.8,0.6-0.7c0.4,0.1,0.2,0.9,0.4,1.3c0.3,0.7,0,0.8-0.8,0.6c-0.6-0.1-0.6,0.2-1,0.6c-0.6,0.7-0.5,1.1,0.4,0.9
		c0.2,0,0.3,0,0.4,0c0.3,0.1,0.6,0.3,1.3,0.8c0.9,0.7,2.2,1.7,3.1,1.8c1.4,0.2,1.1-0.4-0.1-0.9c-1-0.4-2.1-1.4-2.1-1.7
		c0-0.2,0.3-0.1,2-0.6c0.7-0.2,1.8-0.7,2.2-0.9c0.7-0.3,0.8-0.3,1.9-0.3c2,0.1,2.3,0,0.9-1c-2.8-2.1-6.5-3.4-8.4-2.6
		c-0.6,0.3-0.6,0.1-1-0.1C59.7,46.6,59.2,46.4,58.9,46.4L58.9,46.4z M98.5,46.6c1.9,7.4,5.6,14.1,6.5,21.1c0.2,2-0.1,4-1.8,5.7
		l-1.1,0c-0.2,0,1.6-2.7,1.4-5c0-1.2-0.1-2.6-0.4-3.9c-2.2-6.3-4.3-11.9-6-17.9L98.5,46.6z M64,49.1c0.4,0.1,0.4,0.3,0.3,0.5
		c-0.2,0.4-0.6,1.2-0.6,1.2s-0.5,0.1-0.6,0c-0.2-0.3,0.4-1.5,0.8-1.7C63.9,49.1,63.9,49.1,64,49.1L64,49.1z M65.2,49.3
		c0.1,0,0.1,0,0.2,0.1c0.5,0.2,1.4,0.6,1,0.9c-0.4,0.4-2.2,0.5-2.1,0.4l0.6-1.1C65,49.4,65.1,49.3,65.2,49.3z M59.9,55.8
		c0,0-0.1,0-0.1,0c-0.1,0.1,0.1,0.5,0.5,0.9c1.5,2.1-0.6,2.7-2.1,1.6c-1.4-1.1-3.6-1-3.3,0.2c0.1,0.4,0,0.6,0.8,0.6
		c0.7,0,0.9,0.1,1.5,0.5c2.4,1.7,5.6-0.6,4-3C60.9,56.2,60.2,55.8,59.9,55.8L59.9,55.8z M65.9,59.1c-0.9,0-1.4,0.7-0.3,0.9
		c4,0.7,1.3,4.8-1.5,2.7c-2.5-2.3-5.9-2.3-5.9-0.6c0,0.4,0,0.4,0.6,0.5c1.4,0.3,3.5,0.9,4.3,1.3c0.5,0.2,1,0.5,1.1,0.5
		c1.7,0.6,3.8-0.2,4.2-1.6C68.8,61.4,68.5,59.1,65.9,59.1L65.9,59.1z M16.3,72.3c0.5,0,1.1,0.5,1.5,1.2c0.9,1.6,2.1,4.2,2.8,5.7
		c0.2,0.4,0.2,0.7,0.2,0.9c0.1,0.9,0.3,1.2,0.8,0.8c0.5-0.4,1.2-1,0.4-1.1c-0.8-0.6-1.3-1.5-0.8-2.1c0.4-0.4,0.2-0.7-0.1-0.7
		c-1.1,0-2.8-3.4-2-4.2c1.1-1,2.3,0.2,4.8,5.3c1.1,2.2,1.2,4.7,0.2,3.5c-0.3-0.3-0.3-0.1-0.6,0.8c-0.3,0.7-0.5,1.1-1.6,2.1
		c-1.3,1.3-2.1,2.3-2.2,2.5c-0.1,0.4,0.7,0,1.3-0.7c1.3-1.2,1.3-1.6,1.3,0.1c0,1.5-0.1,1.8,0.2,1.8c0.4,0,0.6-1.2,0.8-2.6
		c0.2-1.3,0.9-1.9,2-2.6c0.3-0.2,0.3-0.3,0.3-0.9c-0.2-1.8,0.8-5.2,1.3-4.4c0.1,0.2,0.3,0.6,0.4,0.9c0.1,0.5,0.4,1,0.8,1.1
		c0.6,0.4,0.6,0.7,0.8,2.2c0.1,0.5,0.3,1.3,0.4,1.7c0.3,0.8,0.6,1.2,0.4,1.4c-0.1,0.1-0.3,0.3-0.3,0.3l-9.3,5.5c0,0-0.7,0.4-1,0.5
		c-0.7,0.3-1.2,0.1-1.5-0.5c-2-2.9-3.3-6.2-4.7-9.3c-0.8-1.8,0-3,1.1-1.5c0.4,0.6,0.2,0.9,0,2c0,0.2,0.1,0.1,0.5,0.2
		c0.5-0.1,0.8,0.4,0.8,1.3c-0.3,1.2,0.1,0.5,0.4,0.5c0.4,0,0.5,0.3,0.8,0.8c0.1,0.7,0.5,0.5,0.9,0c0.4-0.4,0.4-0.4-0.4-1.3
		c-1.3-1.4-3-4.5-3.5-6.4c-0.1-0.5-0.1-0.9,0-1.2c0.6-1.3,1.4-1.3,2.2,0.5c0.1,0.3,0.4,0.8,0.6,1.1c0.3,0.5,0.5,0.9,0.5,1.7
		c-0.3,0.6-0.3,0.7-0.1,0.8c0.6,0.2,1.5,1.2,1.6,2.1c0,0.9,0.2,1.4,0.9,0.9c0.8-0.6,0.5-0.9-0.3-1.7c-0.8-1-0.9-1.9-0.4-2.6
		c0.1-0.2,0-0.3-0.3-0.3c-1,0.1-1.9-1.1-1.2-2.1c0.3-0.6,0.3-0.7-0.2-0.7c-0.2,0-0.6,0-0.8-0.1c-0.3-0.5-0.9-1.3-0.9-1.9
		C15.4,72.7,15.8,72.3,16.3,72.3L16.3,72.3z M74.3,72.4c1.6,1,3.2,2,5,2.5c-4.2,7.6-10.9,11.6-16.5,13.2c0.2,1,0.3,1.9,1.3,2.5
		c0-0.1-0.4-1.9-0.4-2.2c7.7-2,14.6-9.6,16.3-13.6l34.1-0.4c-25.2,24.4-26.3,58.6-5.7,87.4l-2.4,1.4c-15.9-23.9-15.7-46.9-11-62.4
		c3.4-10.9,9.4-19.3,14-24.1c0,0-18.5-0.3-27.7,0.1c-1.3,2.1-2.6,3.7-4.4,5.7c0,0,4.7-4.5,4.5-5.3c8.5,0,17.3-0.5,25.8,0.1
		c-10,12-14.9,24.3-15.7,36c0,1.5-0.1,0.7-0.6,1.2l-1.6,2.5l-1.3-2.5c-0.9-0.3-2.5,0.2-3.3-0.1c-3.5,15.7,0,34.7,4.6,47
		c0,0-1.2,0.7-2.6,0.5c-1.6-0.3-1.9,0.1-3.3,0.4c-1.6,0.3-2.1,0.3-2.4,0.7c-0.2,0.2-0.5,0.5-0.9,0.7c-3.8,1.4-8.2,6.6-8.2,6.5
		l-4.2-1.9c3.8-7.6,8.3-10.3,16.3-13.7l-0.7-3.4c-8.4,3.2-13.8,6.9-18,14.3c-5.1-0.1-25.9-0.2-25.9-0.2c8.5-9.7,15.2-24.3,15.9-35.7
		c0.2-2.2-0.1-1.2,0.8-1.8l1.5-1.8l1.2,1.8c0,0,0.9,1.1,1.4,0.2c1.5-15.9-0.1-34-7.7-46.7c1.4-0.1,2.7-0.1,4,0.6
		c3,6.8,4.7,15.2,5.5,21.5c1,8,0.8,16.9-0.2,24.6l0.5,0.1c1.5-9.9,1-20.4-0.4-29.6c-0.7-4.8-3-12.3-4.5-15.8c-0.4-1-0.8-1.2-0.4-1.3
		C66.7,80.5,71,77.3,74.3,72.4L74.3,72.4z M48.6,73.2c0.7,0,1.3,0.6,1.3,1.3c0,0.7-0.6,1.3-1.3,1.3c-0.7,0-1.3-0.6-1.3-1.3
		C47.3,73.8,47.9,73.2,48.6,73.2z M118.4,73.9c-2.7,2.5-4.9,5-7.2,7.8c6.8,9.4,14.3,19.6,20.7,27.7c0,0,2.2-1.3,2.2-1.5
		c0-0.1-0.2-0.5-0.2-0.4c-0.1,0.2-1.8,1.2-1.8,1.2L112,82.1c0,0,1.1-1.3,1.4-1.7c1.6-0.5,5.9-5.9,6.1-5.8
		c3.4,2.6,13.7,13.7,17.6,17.1l0.1,30.8c-0.4,1.2-11.4,6-19.1,23.7c-3.9,2.2-8.2,3.4-12.2,5.3c0,0,1,1.6,1.5,2.1
		c-0.6-1.3-0.7-1.6,0.7-2.1l28.9-11.9L137,142c-2.9,2.3-22.1,16.2-28,19.5c-27.7-38.8-10-72,6.1-87.5L118.4,73.9z M28.3,76
		c0.8,0,0.6,1.8,0.3,2.4c-0.6,0.4-1.1,0-1.1-0.8c0-0.3,0-0.5-0.1-0.6C26.9,76.7,27.6,76,28.3,76z M45.2,77.1
		c0.6,0.5,0.9,1.1,1.1,1.8c-0.9-0.1-3.2-0.8-2.1-1.3L45.2,77.1z M41,79.3c20,30.3,19.1,62.6-3.2,87l28.2,0
		c3.6-7.1,9.6-11.5,17.2-14.1l0.7,2.2c-8.8,2.8-13.2,7.5-16.8,14.1H33.5c12.9-14,18.8-25.8,19.8-41.7c0.9-15.2-3-29.1-14.6-45.8
		L41,79.3z M46.6,79.7l4.7,2.2l-0.7,4.9l-4.9-2.3L46.6,79.7z M38.1,81.1c25.2,38.3,14.4,65.2-5.7,87.6l-3.7,0.1l-8.6-8.1l0.2,49
		c0,0-8.4,8.3-9.4,9.3c-1,0.9-1.7-0.5-1.7-0.5l0-64.9l0.4-2.5l0.1-14l5.4-2.8l20.1,26.5c0,0-0.8,1.2-1.2,1.4c0.4,1,1.9-1.4,2-1.8
		c-7.3-9.1-20.9-26.9-20.9-26.9l-5.6,3c0,0,0.2-11.6,0.1-16.1c0.2-1.1,1-0.8,1.5-1.2c7.3-4.8,13.4-11.7,18.5-23.4
		c3.9-1.3,8-3.1,11.9-4.7l-5.7-8.5L38.1,81.1z M22.7,81.5c-0.2,0-0.8,0.2-1.5,0.9c-1.3,1.2-3.1,3.3-3.1,3.6c0.4,0.1,0.7-0.1,1-0.4
		c1.1-1.7,2.9-2.3,3.9-3.8C23.1,81.7,23,81.5,22.7,81.5L22.7,81.5z M35.4,83.3c0,0,3.9,5.7,4.9,7.2c-10.3,4.1-21.1,9.5-30.6,13v-2.3
		C9.7,101.3,27.6,87.8,35.4,83.3z M50.7,87.1l3.8,2l-1.1,4.4l-3.9-2.2L50.7,87.1z M53.9,94.4l3.2,2.3l-1.4,3.7l-3.2-2.2L53.9,94.4z
		 M28.1,97.1c0,0-0.5,1.7-1.3,3.3c-3.9,6.8-7.7,12.9-15.7,18.2c-0.3-0.3-1.2-1.8-1.2-1.8l-0.1-2c4.2-3.4,7.8-5.9,13.4-15.8l1.6-0.7
		l1.4,0.6l0.9-1.7L28.1,97.1z M44.5,97.1c-3.6,7.8-7.2,15.8-13,21.9l15.9,22.3C52.6,125.5,50.7,110.8,44.5,97.1z M24.5,98.8
		l-0.8,1.3l1.3,0.8l0.8-1.3L24.5,98.8z M22.4,98.9c-2.9,6.5-7.2,11.5-12.9,15l-0.2-9.5L22.4,98.9z M23.4,100.9l-0.8,1.3l1.3,0.8
		l0.8-1.3L23.4,100.9z M55.9,101.2l2.9,2.7l-1.7,3l-2.9-2.4L55.9,101.2z M99.8,102.5C99.8,102.5,99.8,102.5,99.8,102.5
		c-5,15.8-3.5,30.8,3.4,43.9c3.4-8.5,6.2-14.2,12.8-23.2C111.9,117.8,100.2,102.3,99.8,102.5L99.8,102.5z M22.3,102.7l-0.8,1.3
		l1.3,0.8l0.8-1.3L22.3,102.7z M44.2,104.6c4.5,10.9,4.1,20.8,1.7,29.3l-11.3-14.4C38.8,114.3,41.5,109.4,44.2,104.6z M21.1,104.6
		l-0.9,1.3l1.3,0.9l0.9-1.3L21.1,104.6z M19.8,106.4l-0.9,1.2l1.2,0.9l0.9-1.2L19.8,106.4z M57.2,107.7l2.6,2.5l-1.6,3.2l-2.6-2.4
		L57.2,107.7z M18.3,108.3l-1,1.2l1.2,1l1-1.2L18.3,108.3z M101.2,108.7l11.4,14.8c-3.8,4.6-7,10-9.8,15.8
		C99.6,129.3,98.1,119.4,101.2,108.7z M16.7,110.2l-1.1,1.1l1.1,1.1l1.1-1.1L16.7,110.2z M43.5,111.7l-5.2,7.6l6,7.7
		C44.9,122.8,45,118,43.5,111.7z M15,111.9l-1.1,1l1,1.1l1.1-1L15,111.9z M13.4,113.4l-1.2,1l1,1.2l1.2-1L13.4,113.4z M58.1,114.2
		l2.1,2.5l-2.2,2.6l-2-2.3L58.1,114.2z M85.4,114.6l1.5,0.1c-2.4,23.7,2.3,35.8,6.5,46.2c0,0,0,0.4-0.2,0.5
		c-0.7,0.2-2.1,0.5-3.2-0.5C84.4,146.5,83.2,128.6,85.4,114.6L85.4,114.6z M11.5,114.9l-1.2,0.9l0.9,1.2l1.2-0.9L11.5,114.9z
		 M102.9,115.8c-0.4,0-0.7,9.8,0.7,14.5l5.3-7.2L102.9,115.8z M89.3,117.4l1.8,2.4l-1.9,2.6l-1.9-2.4L89.3,117.4z M10,118
		c0.1,0,0.2,0.2,0.5,0.4c0.3,0.3,0.2,0.3-0.1,0.5c-0.5,0.4-0.6,0.3-0.6-0.3C9.9,118.2,10,118,10,118L10,118z M58.2,119.8l1.9,2.8
		l-2.2,2.8l-1.8-2.9L58.2,119.8z M89.2,123.4l2,2.5l-1.8,2.8l-2.2-2.6L89.2,123.4z M136.6,123.9l0.2,2.9l-0.7-1.1l-1.3,1l0.9,1.2
		l1.1-0.9l0.1,1.2c-7.2,5.2-10.3,11.3-13.3,15.8l-1.3,0.6l-1.5-0.5l-0.7,1.3l-1.3,0.3c0,0,2.5-5.5,6.9-11.2
		C129.7,129.5,136.6,123.9,136.6,123.9L136.6,123.9z M137.5,128.4l0.1,10.3l-12.9,5C128,138,131.9,132.7,137.5,128.4z M134.3,127.2
		l-1.2,1l1,1.2l1.2-1L134.3,127.2z M132.4,128.7l-1.1,1l1.1,1.1l1.1-1L132.4,128.7z M89.3,129.3l2.4,2.6L90,135l-2.5-2.4L89.3,129.3
		z M130.6,130.4l-1.1,1.1l1.2,1.1l1.1-1.1L130.6,130.4z M128.9,132.1l-1,1.1l1.2,1.1l1-1.1L128.9,132.1z M127.2,134.1l-1,1.2l1.3,1
		l1-1.2L127.2,134.1z M90.1,135.9l3,2l-1.5,3.6l-3-2.3L90.1,135.9z M125.8,135.9l-0.9,1.2l1.4,0.9l0.9-1.3L125.8,135.9z
		 M124.4,137.9l-0.8,1.3l1.4,0.9l0.8-1.3L124.4,137.9z M123.2,139.8l-0.8,1.3l1.4,0.8l0.8-1.3L123.2,139.8z M122.1,141.9l-0.8,1.3
		l1.6,0.7l0.6-1.3L122.1,141.9z M91.8,142.7l3.1,2.1l-1.4,3.8l-3.3-2.3L91.8,142.7z M136.9,146.4v78.6h-34c0,0-1.6-2.8-5-9.4
		c-1.4-2.8-2.6-4-2.7-6.2c0.1-1.3-0.5-2.8-1.5-3.3c-0.4-0.2-0.9,0-0.7-0.5c0.2-0.6-0.4-1.5-0.6-1.7c-0.2-0.4-0.1-0.4-0.1-1.7
		c0-1.3-0.1-1.8-0.4-2.8c-0.7-2.4-0.8-3.6-0.4-4.9c1-3.2,2.1-5.6,3.4-8.6c0.8-1.7,0.7-2.4-1.8-3.7c-1.8-0.9-2.1-0.9-1.8-2.3
		c0.1-0.6,0.2-1.1,0.1-1.4c-0.1-0.2-0.4-0.5-0.6-0.6c-0.2-0.2-0.2-0.6,0.1-0.9c0.2-0.3,0.2-0.7,0-1.5c-0.5-1.5,0.6-3.6,2.8-5
		c0.9-0.6,0.9-0.5,1.9,0.5c2.9,3,7.1,1.1,7.1-3.1c0-1.3-0.4-1.3,0.8-1.9c4.2-2.7,13-7.7,12.9-7.5c0.6,1.2,0.8,2.2,1.1,3.4
		c0.3,1.1,0.3,1.2,0.2,3.2c-0.1,1.9-0.2,2.3,0.3,2.5c2.5,0.3,3.1-0.6,3.6-2.3c0.2-0.7,0.6-0.6,0.9-0.3c1,1.8,2.2,3.6,3,4.8
		c1,1.6,2.7,2.4,3.5,1.6c0.2-0.6,0.3-0.6,1.4-0.4c1.3,0.3,2.1-0.5,2.2-1.4c0.1-0.4-0.2-0.4,0.5-0.8c1.8-1.3,1.1-3.2,0.8-4.2
		c0,0.1,0.8-0.5,0.8-1.5c0.1-5.3-4.5-13-4.4-12.8L136.9,146.4z M93.7,149.5l3.6,1.8l-0.9,4.4l-3.7-1.7L93.7,149.5z M129.1,151.1
		c2.1,2.4,3.6,6.5,4.4,9.2c0.4,1.3,0.4,2.8,0.1,3c-0.3,0.2-0.5,0-0.4-0.8c0.1-0.7,0.1-1.2-0.2-1.2c-0.8,0.2-0.8-1-0.8-1.3
		c0.1-0.2,0.2-0.3,0.2-0.4c0.2-0.5-0.3-0.4-0.9-0.4c-0.5,0-0.6-0.3-0.6-0.7c0-0.5-0.7-0.4-1.1,0c-0.3,0.4-0.3,0.8,0.2,1.1
		c0.7,0.4,1.3,1.4,2.9,5c0.9,2.1,0.6,3.5-0.4,3.5c-0.8,0-1.6-2.1-2.3-3.6c-0.2-0.4,0.3-0.8,0.4-1.1c0.4-0.6,0.4-0.7-0.3-0.7
		c-0.6,0-0.8,0-1.2-0.7c-0.1-0.3-0.2-0.7-0.2-0.9c0.3-0.8-0.3-1-0.9-0.7c-0.8,0.3-0.7,1,0.4,2.1c0.7,1.2,0.5,1.1-0.2,2
		c-0.1,0.3-0.1,0.5,0.3,0.5c0.9-0.3,1.9,1.3,1.6,1.9c-0.3,0.2-1,1.1-0.3,0.9c1.5-0.4,2.4,1.8,1.5,2.5c-1.3,0.6-1.6,0.4-3.6-3.5
		c-0.6-1.2-1.4-2.6-1.4-2.7c-0.1-0.1-0.1-0.5-0.1-0.8c0.1-0.7-0.2-0.9-0.8-0.6c-0.5,0.1-0.9,0.5-0.3,0.9c0.7,1.2,0.9,1.4,0.6,1.7
		c-0.9,0.7-0.5,0.7,0.5,0.9c0.5,0.1,0.7,0.4,0.8,0.7c0.5,1.1,1.4,2.7,1.5,3c0.3,0.8-0.2,1.2-1,1.2c-0.8,0-1.1-0.6-1.5-1.1
		c-1.4-1.9-2.4-3.8-3.8-6l0.2-2c0,0,0.4,0.1,0.6,0c0.4-0.2,0.6-0.8,0.9-1.7c0.4-0.7,2.5-2.4,3.4-3.3c0.2-0.1,0.3-0.3,0.3-0.4
		c0-0.3-0.9-0.1-1.6,0.6c-0.9,0.8-1.3,0.5-1.3-0.5c-0.1-1.3-0.9-0.6-0.9,0.6c-0.1,1-0.4,1.6-1.1,2.1c-1.3,1-1.1,0.8-1,2.2
		c0.1,2.5-0.9,4.6-1.5,3.2c-0.2-0.5-0.5-1-1.1-1.1c-0.4,0-0.6-0.4-0.8-1.4c-0.3-1.6-0.8-2.6-1.2-4.1L129.1,151.1z M96.8,156.6
		l4.2,1.7l-0.8,4.4l-4.2-1.6L96.8,156.6z M128.8,157C128.8,157,128.8,157,128.8,157c-1.3,0.9-2.4,1.9-3.7,2.7c-0.5,0.3-1,1-1.1,1.2
		c0,0.2,0.6,0.2,1.1-0.1c0.5-0.2,3.6-3.1,3.6-3.4C129.1,157.2,129,157,128.8,157L128.8,157z M90.3,162.3c1,0,0.4,0.3-1.8,1.8
		c-2.1,1.5-5.6,6.1-6,7.9c-0.2,0.8,0.3,0.8,0.9-0.2c2.6-5,7.4-9.5,11.9-9.3c2.2,0.1,3.4,0.7,1.6,0.9c-4.9,0.6-8.6,3.4-11.9,9.1
		c0,0.1,0.3,0.1,0.6-0.1c3-3.6,6.3-8.5,12.2-8.1c4.2,0.3,5.4,5.3,1.9,7c-3.1,1.5-5.9-2.2-3.3-4.3c0.8-0.7,1.3-0.4,0.5,0.3
		c-1.7,1.5,0.4,4.3,2.4,3.3c1.3-0.5,1.8-2.3,0.7-3.7c-2.5-3-7.8-0.7-11.5,4.2c-0.4,0.5-0.7,1.6-0.4,1.5c0.6-0.2,0.9-0.7,1.3-1.2
		c1.3-1.8,2.3-2.8,4.1-3.8c1.4-0.8,1.5-0.6,1,0.7c-0.2,0.6-0.4,0.7-0.9,1.1c-2.3,1.5-3.7,3.6-3.7,4.9c0,1,0.7,2.2-0.1,2.5
		c-1.3,0.6-4.8,0.1-5.8-1.1c-0.7-0.9-0.9-0.4-0.4,1.1c0.3,0.9,0.3,1.5,0.8,1.4c0.6-0.3,1.1-0.3,2.3,0.4c0.6,0.3,1.7,0.6,2.3,0.8
		c1.2,0.3,1.4,0.2,1.4,0.7c0,0.2,0,0.6,0,0.9c-0.2,1.6,1.1,2.1,2.9,3.1c1,0.6,0.6,1.2-0.6,4.2c-0.6,1.3-1.2,3.2-1.9,4.5
		c-0.7,1.5-0.8,3.2-0.3,5.1c0.9,3.6,1.5,5.4-0.1,5.7c-3.9,0.6-12.6,0.6-17.4-1.3c-1.2-9.2-7.6-22.7-6.8-26.2
		c1.6,2.5,8.5,1.8,6.5-5.1c0,0,0.6-0.9,1.7-2c2.9-3,3.6-3.4,2.2-0.8c-1.1,2-2.4,4.6-2.4,5.1c0,0.4,0.3,0.5,0.5,0.2
		c0.2-0.2,0.4-0.8,0.6-1.3c1.7-4.1,4.7-7.7,6.7-8.6c0.5-0.2,0.5,0,0.1,0.5c-2.4,3-4.2,5.8-5.5,9.4c-0.1,0.4,0.5,0.5,0.6,0.2
		c2.2-4.7,2.9-5.8,5.7-9.1c1.1-1.3,2.1-2,2.9-1.9c0.7,0.1,0.5,0.2-0.2,0.9c-0.5,0.5-1.2,1.3-2.4,2.8c-2.1,2.6-4.2,6.9-3.4,6.7
		c0.1,0.4,0.8-0.8,1.3-1.9c1.5-2.6,3.1-5.9,6.7-8.2C88.7,162.5,89.6,162.3,90.3,162.3L90.3,162.3z M20.6,163.2l6.4,6.4l12.9-0.2
		c-2.1,3.3-1,8.5,0.2,11.5c2.3,5.9,5.7,15.7,5.4,15.8c0,0-1.9,0.5-2,1.7c-0.3,1.8,0.5,1.6-0.6,3.2c-0.2,0.4-0.1,1,0.2,1.6
		c0.2,0.4,0.3,1,0,1.5l-11.4,20.4H9.9v-4l11-11l-0.1-8.1c5.9,1.8,7.9,7.9,8.4,12.4c10.7-9.8,10.4-24.5,0.3-33.7
		c-2,9.8-9,11.8-8.8,11.6L20.6,163.2z M100.9,164.3c0.7,0.1,1.6,0.2,2.3,0.5c-0.4,0.3-0.7,0.6-1,0.9
		C101.7,165.1,101.3,164.7,100.9,164.3z M118.7,164.4c0.6,0,1.3,1.7,0.9,2.1c-0.2,0.2-1,0.3-1.2,0.1
		C118,166.4,118.2,164.4,118.7,164.4z M98.4,167.3c0.7,0,1.3,0.6,1.3,1.3c0,0.7-0.6,1.3-1.3,1.3c-0.7,0-1.3-0.6-1.3-1.3
		C97.1,167.9,97.7,167.3,98.4,167.3z M41.7,169.2l1,0c-1.8,2.4-2,4.4-1.4,7.3c0.7,3.3,6,15.8,6.4,19.2c0,0.2,0,0.6,0,0.6l-1.3,0.1
		c0,0-0.1-0.4-0.1-0.5c-1.8-6.2-3.7-11-4.9-14.6C40,177.5,38.1,171.7,41.7,169.2L41.7,169.2z M48.7,169.3
		C48.7,169.3,48.7,169.3,48.7,169.3l1,0c0,0-1.4,2.9-1.5,4.7c-0.1,2,0.4,4.2,1,6.3c1.6,4.7,3.8,9.9,5.1,15.7c0,0.1,0.2,0.6,0.2,0.6
		l-1.4-0.2c0,0-0.1-0.6-0.2-0.7c-0.9-5.2-3.6-10.5-5.2-15.6c-0.8-2.3-1.4-5.2-1.1-7.3C46.9,171.3,48.4,169.3,48.7,169.3L48.7,169.3z
		 M60,169.3c-1,1.5-1.9,3.4-1.9,5c-0.1,2.8,0.8,5.2,1.6,7.6c2.5,7.6,3.7,11.6,4.9,17.7l-1.3-0.6c0,0-0.1-0.3-0.1-0.4
		c-0.7-3.8-0.8-3.5-4.9-16.4c-1-3.1-1.9-5.8-1.7-8.4c0-1.5,1.3-4.4,2.7-4.6L60,169.3z M61.5,169.3h1.2c0,0-0.7,0.7-0.9,1
		c-2.2,3-1.5,6.2-0.5,10.1c1.5,5.3,4.2,11.2,5.6,19.3c0,0.1,0,0.9,0,0.9l-1.5-0.6c-1.3-7.4-4.6-15.1-6.2-21.8
		c-0.9-3.9-0.7-6.4,1.5-8.5C61.4,169.3,61.5,169.3,61.5,169.3L61.5,169.3z M46.5,169.3h0.9c0,0-1.5,2.6-1.5,4.1
		c-0.3,2.7,0.7,5.7,1.8,8.8c1.7,4.8,4,10.6,4.7,13.6c0,0.1,0.1,0.7,0.1,0.7l-1.6-0.1c0,0-0.1-0.7-0.2-1.1
		c-1.9-6.6-3.7-10.8-5.8-16.8c-0.3-0.9-0.8-4.5-0.2-6.8C45.1,169.9,46.5,169.3,46.5,169.3L46.5,169.3z M44,169.3l1,0
		c0,0-0.2,0.3-0.5,0.9c-1.8,3.3-1,6.3,0.1,9.7c1.5,4.5,3.9,10,5.3,15.2c0.1,0.3,0.2,1.2,0.2,1.2l-1.4,0c0,0-0.3-1.1-0.3-1.2
		c-0.8-4.8-5.2-12.8-6.3-19C41.4,172.9,41.9,170.9,44,169.3L44,169.3z M57.3,169.3c0,0-1.6,2.7-1.7,4.3c-0.3,3,0.7,5.5,1.7,8.9
		c1.9,5.8,4.5,12.7,4.7,15.8c0,0.1,0,0.5,0,0.5l-1.6-0.6c0,0-0.1-0.3-0.1-0.4c-1.4-5.7-3.1-11.3-5.3-17.7c-0.6-2.1-1.3-4.3-1.2-6.1
		c0.3-2.5,0.7-3.1,2.2-4.6L57.3,169.3z M64.5,169.3l1.3,0c0,0-0.4,0.2-1.3,1.2c-5.2,4.7,3.2,18.1,5.1,30.3c0,0.1,0.1,0.6,0.1,0.6
		l-1.4-0.5c-0.1-0.6-0.2-1.3-0.4-2c-1.6-6.2-3.6-12.6-5.6-18.4c-1.1-4.2-1.5-8,0.5-10C63.3,169.7,64.5,169.3,64.5,169.3L64.5,169.3z
		 M51,169.3l1.4,0c-1,1.3-1.6,3.2-1.6,5c-0.1,2.1,0.5,4.1,1.2,6.2c1.4,4.4,3.4,9.1,4.8,15.1c0.1,0.4,0.1,0.6,0.2,0.8
		c0.1,0.3,0.2,0.7,0.2,0.7l-1.5-0.3c0,0-0.2-0.4-0.3-0.6c-0.1-0.3-0.3-0.7-0.4-1.2c-0.7-3.1-3.3-10.1-4.9-15
		C48.8,177.1,48.5,171.7,51,169.3L51,169.3z M68.4,169.4c1.8-0.1,3.4,1.5,3.8,2.9c0.4,1.5-0.1,3.2-1.8,4.1c-2.7,1.4-5.6-2.3-3.5-4.3
		c1.6-1.5,4-0.4,3.5,1.5c-0.3,1.3-2.2,1.3-2.6,0.1c-0.1-0.4-0.3-0.8-0.5-0.6c-1,2.3,2.3,3.4,3.7,1.3c0.8-1.7-0.7-4-3-3.6
		c-3.1,0.6-3.5,4.6-2.2,9.3c1.8,7.4,6.2,17.3,6.2,21.9c0,0.1,0,0.2,0,0.2l-1.4-0.4c0,0,0-0.1,0-0.1c-0.8-6.4-5.5-16.9-6.9-25
		c-0.6-3.7,0.8-6.4,4.1-7.1C68,169.4,68.2,169.4,68.4,169.4L68.4,169.4z M54.8,169.4c-1,1.3-1.6,3.3-1.6,4.6c0,2,0.7,4,1.3,6.2
		c1.5,5.3,5.1,15,5,16.8c0,0.2,0.1,0.8,0.1,0.8l-1.4-0.4c0,0-0.1-0.1-0.2-0.3c-0.5-1.8-2.6-9.5-5.1-16.2c-0.9-2.7-1.4-4.8-1.3-6.6
		c0.2-2.5,0.9-3.5,2-4.8L54.8,169.4z M81,178.2c-3.6,0.2-3.2,4.6-1,5.3c0.8,0.2,1.3,0,1.4-0.1c0.1-0.2,0-0.5-0.5-0.6
		c-1.5-0.5-2-2.3-0.7-3c0.7-0.4,1.9-0.1,3.3,0.9c2.5,1.9,5.7,2,5.3,0.1c-0.1-0.5-0.3-0.5-2.2-0.8c-1.5-0.2-2.2-0.7-2.9-1
		C82.6,178.4,81.7,178.1,81,178.2z M29.9,182.2c9.2,9,7.8,23.2,0,30.3c-0.2-0.6-0.5-2-0.5-1.9c5.9-6.2,8.7-16.3,0.1-26.7
		C29.5,183.9,29.7,183.1,29.9,182.2L29.9,182.2z M87.6,182.5c-0.1,0-0.2,0-0.2,0c-2.4,0.7-2.9,3-1.3,4c0.9,0.6,1.7,0.2,0.5-0.5
		c-1-0.6-0.5-2.2,0.7-2.2c0.5,0,0.9,0.2,2.3,1.3c1.1,0.8,2.2,0.9,2.4-0.2c0.1-0.7-0.1-1-0.8-0.8c-0.3,0.1-0.5-0.1-0.9-0.4
		C89.3,182.9,88.2,182.4,87.6,182.5L87.6,182.5z M29,184.2c8.3,9.7,5.6,19.8,0,25.7c-1.5-4.6-5.3-7.4-5.3-7.4
		c1.4-3.2,2.3-6.5-0.4-10.7C25.8,189.6,27.8,187.2,29,184.2z M82.9,187.8c-0.4,0-0.3,0.4,0.7,1c2.2,1.5,2.4,1.8,0.3,1.7
		c-0.5,0-1.4,0.4-1.9,0.5c-2.8,0.9-2.9,0.9-4.2,0.5c-0.4-0.1-0.9-0.3-1.1-0.1c-0.3,0.3-0.6,0.5-0.3,0.9c0.3,0.3,0.8,0.5,1.4,0.9
		c3.2,1.9,3.5,2.3,7.3,2.4c0.4,0,0.7-0.2,0.9-0.2c0.6,0,0.9,0.1,1.6,0.7c1.1,1,1.2,0.3,0.5-1.1c-0.4-0.7-0.7-0.9-0.5-1.4
		c0.4-1.3-0.2-1.5-0.9-0.4c-0.6,0.9-0.6,0.8-1.1-0.3c-0.7-1.4-0.4-2,0.7-1.1c0.8,0.7,1,0.2,1.3-0.4c0.4-0.7,0.3-1.4-0.4-1.3
		c-0.4,0-0.8-0.2-1.1-0.5C85.3,188.9,84.1,188,82.9,187.8z M83.8,191.5c0.1,0,0.1,0,0.2,0.1c0,0.5-0.3,1.4-0.6,1.9
		c-0.1,0.2-0.2,0.2-0.4,0.3c-0.7,0.1-0.7-0.1-0.6-0.5C82.7,192.7,82.9,191.8,83.8,191.5C83.7,191.5,83.8,191.5,83.8,191.5
		L83.8,191.5z M82.1,191.8c0.3,0,0.3,0.1,0.2,0.3c-0.2,0.4-0.5,0.8-0.8,1.1c-0.5,0.3-1.4-0.7-1-1c0.5-0.2,0.9-0.4,1.5-0.5
		C82,191.9,82.1,191.9,82.1,191.8L82.1,191.8z M22.7,192.5c0.1,0,0.3,0,0.4,0.1c2,2.7,1.9,6.9,0.3,9.2c-0.1,0.2-0.2,0.2-0.4,0.1
		c-0.7-0.4-1.5-0.5-2.2-0.8v-8C21.5,193,22,192.5,22.7,192.5L22.7,192.5z M75.6,193.2c-0.2,0-0.2,0.1,0,0.3c2.9,2.1,7,4.6,10.7,3.6
		c0.3-0.1,0.6-0.3,0.6-0.6c0-0.2-0.4-0.4-0.8-0.3c-0.9,0.2-2.5,0.3-3.2,0.1c-2.6-0.4-4.8-2.1-6.8-3
		C75.9,193.2,75.7,193.2,75.6,193.2L75.6,193.2z M74.7,195.2c-0.1,0-0.1,0.1,0,0.4c0.4,1.2,4.6,4.1,7.8,5.1c2.8,0.8,6.8,0,6.6-1.3
		c-0.1-0.7-0.6-0.9-2.4-0.6c-3.9,0.8-7.8-0.9-10.6-2.7C75.3,195.5,74.9,195.2,74.7,195.2L74.7,195.2z M48.9,196.9
		c1.7,0,3.4,0.1,5.3,0.4c3.6,0.6,7.8,1.7,11.3,3.4c6,2.3,13.5,4,19.9,3.8c1.6,0,4.4-0.1,4.9-0.3c1.4-0.3,1.8,0,2.2,1.8
		c0.1,0.4,0.2,0.5,0.7,0.8c0.8,0.5,0.6,1,0.5,2.2c-0.1,1,0.5,1.5,2.8,5.8c2.6,4.9,5.2,10.5,5.2,10.5c-23,0-45-0.9-68.6-0.1
		c2.1-5.1,7.9-14.2,11.5-21.5c-0.9-2.3,0.2-2.6-0.2-3.2c-0.7-1.3-0.2-3,1.3-3.4C46.8,197,47.8,196.9,48.9,196.9z"/>
	
		<path id="path6353-8_1_" class="st1" d="
		M33.4,225.3c0,0,7.6-15.4,10.7-19.9c4.6-5.8,25.2,2.5,35.5,4.6c4.2,0.8,13.9,0.4,13.9,0.4l8.1,14.7L33.4,225.3z M17.7,207.9
		l-0.3-47.8l2.4,1.5l0.5,48l-10.2,9.8l-0.1-2.9L17.7,207.9z M23.9,202.4c2.4-4.9-0.3-10.9-0.3-10.9c1.4,0.4,5.3-7.2,5.7-6.9
		c6,7.4,7.1,18.5-0.3,25.3C27.1,205.1,23.9,202.4,23.9,202.4L23.9,202.4z M28.4,168.6c4.6-4.7,8.2-8.4,11.8-13.6
		c0.3-0.4-19.3-25.5-19-25.9c3-3.4,7.1-5.8,10.2-9.9c0,0,16.1,21.2,16.4,21c1.6-6.6,2.8-12.6,2.5-19.5c-1-17.7-8.5-28.5-8.6-28.3
		c-2.5,16.3-27.5,40.9-32.5,39.2l0-11.4c0.3,0.6,15.8-10.1,19.9-24.1c0.3-1,12.4-4.9,12.3-5c-0.5-1.3-5.8-8.8-5.8-8.8s2.1-1,2.4-1
		c6.8,8.6,12,19.8,13.8,30.5c2.1,11.6,3.5,33.3-19.5,57L28.4,168.6z M97.4,138.8c-3.6-11.3-3.5-22.9-1.8-31
		c2.5-14.7,11.8-25.3,19.2-33.3l3.2,0c0,0-3.9,4-5.3,5.5c-2.4,2.8-5.9,8.6-5.9,8.6l19.2,25.3l11-2.4c0,0-0.3,11.3,0,11.3
		c-8.5,7.1-14.6,13.5-19,23.8c-2.7,1-11.6,4.9-11.6,4.9c-4.2-1,12.6-27.6,9.4-28.1c-1.3-1.1-16-21-16.2-20.9
		c-6.7,20.8-0.2,42.6,11.7,57.8c-1.3,0.9-2.6,1.6-2.5,1.4C103.8,154.4,99.3,145.9,97.4,138.8L97.4,138.8z M62.3,128.3
		c0.8,1.2,4.2-25.4-4.8-46.6c0.9-0.7,8.3-2.1,8.3-2.1l2,6.4l-5.1,2.2l0.9,3c3.9-1.9,12.4-4.7,17.7-13.5c0,0,25.4-0.2,26-0.2
		c0.5,0-5.2,5.5-10.6,16.7c-2.5,5.1-4.4,11.7-4.9,19.4c-0.1,1.5-5.8-7.2-5.8-7.2c1.4-7.4,5.3-14.6,9.1-21.8c0,0-5.8-0.3-9.9-0.2
		c-6.4,7-10.3,10.7-19.9,14c3.5,11.3,24.9,16.7,20.1,15.6c-1-0.2-2.2,10.3-1.2,22.3c0.2,9.5,5.3,25.4,5.5,25.3c0,0-3.4,0.8-3.7,0.2
		c0.6-0.1-5.1,1.3-5.1,1.3l-2-5.9l5.4-2.5l-0.9-3.3c0,0-12,3.7-17.9,14.2l-26.3,0c10.1-11.1,14.3-22,16.5-36.5
		C57.9,129.4,62.3,128.3,62.3,128.3L62.3,128.3z M126.9,32.9c3.3-2.8,9.9-10,9.9-10l0.1,3.7l-7.5,7.9l0.1,48.6l-2.5-2.5L126.9,32.9z
		 M123.5,50.7c-1.4,0.6-4.1,3.8-5.3,7.4c-8.7-7.8-5.1-22.2-0.4-25.2c1.4,3.1,5.4,7.3,5.3,7.2C122.1,43.4,121.4,46.7,123.5,50.7z
		 M46.3,18l67.2,0.1c-3.8,7.6-7.4,13.7-11.4,21.2c-2.1,2.6-48-8.3-48.3-7.2L46.3,18z"/>
	
		<path id="path6355-9_1_" class="st2" d="
		M9.9,215.7l-0.4-63.8l7.6,7.5l0.5,49L9.9,215.7z M45,203.3c-1.6,0.2-0.7-1.2-0.4-2.6c0.2-0.8-0.6-1.5-0.6-1.8c0-1.4,1.1-2,5.7-1.9
		c11,0.8,16.7,4.3,23,6c6.1,1.6,12.1,1.5,18.7,1.4c0.5,0.3,2.3,4.9,1.9,5.4C78.4,212.7,59.1,201.6,45,203.3L45,203.3z M72.2,170.3
		c-1.6-1.2-3.1-1.4-4.6-1.6c2.6-4.6,5.7-8.8,11-11.4l2.4,6.1C78,164.9,75,166.8,72.2,170.3L72.2,170.3z M40.4,154.5
		c0,0-2.3,3.7-4.4,5.5c-6.3-8.6-20.5-26.8-20.5-26.8l-6,3.1c0,0,0-3.5,0.1-3.8c16.3-8.4,27.4-24.4,32.3-39.3c0,0,2.6,2.7,2.3,3.8
		c-4.4,11.8-11.9,23.6-23,32.4L40.4,154.5z M60.7,137.1l20.5,0l0.9,7.2c-7.9,2.7-14.4,8.1-20.4,14.3l-9.7-0.2
		C55.2,151.5,59.6,144.3,60.7,137.1L60.7,137.1z M136.7,106.9c0.7,2,0,4.2,0.3,4.1c-24.6,12.2-31.6,39.1-31.6,39.1s-2.3-3.7-2.2-4.3
		c12.7-28.5,21.3-29.3,22.9-32.4l-19.4-25.2l4.4-6l20.8,27.2C133.9,108.4,135,107.6,136.7,106.9z M124.6,143.7
		c4.2-7.5,8.5-11.9,12.8-14.9l-0.2,10L124.6,143.7z M9.6,114.1l0.1-9.7l12.7-5.5C18.9,106.6,14.1,110.7,9.6,114.1z M66,105.4
		l-0.7-6.8c7.7-3.4,14.5-7.9,20-14.1c5.9-0.3,9.9,0.1,9.9,0c0,0-5.6,8.3-9.3,21.3L66,105.4z M129.8,34l7-7.1l0.2,63.6l-7-6.9
		L129.8,34z M68.2,85.7L66,79.4c3.5-1.3,6.1-4.2,8.6-7c1.7,1.5,3.8,2,4.6,2.3C80.2,75,72.1,84.8,68.2,85.7z M55.1,38.1
		c0,0-0.9-0.5-0.8-1.2c0.3-0.9-0.9-3-0.9-3c14.9-4.5,36.6,8.3,49.5,5.6c-0.1,0.9,0,2-0.3,2.8c0.4,1.8,0.7,1.9-1.1,3
		c-9.1,2.6-18.6-2.9-27.4-5.5C66.9,37.4,61,37.9,55.1,38.1L55.1,38.1z"/>
	
		<path id="path6357-5_1_" class="st3" d="
		M45.5,17.1l2.7,5.2l-0.5,0.3c0.7,1.2,1.4,2.6,2.1,3.9l0.5-0.1c0.9,1.7,1.3,2.4,2.4,4.4l-0.5,0c0.3,0.9,1,1.5,1,2.2
		c0,0.8-0.2,1.6,0.3,2.2c0.6,0.7,0.7,0.8,0.5,1.2c-0.3,1,0.6,2.1,1.5,2c6.5-0.9,13.2-0.1,19.8,1.9c4.8,1.5,9,3.2,13,4.4
		c1.3,0.4,3.8,1,6,1.1c6.1,0.4,9.5-0.8,8.5-3.4c-0.1-0.2-0.3-0.4-0.3-0.5c0-0.2,0-0.4,0.3-0.7c1-1,0.4-1.8-0.2-2.9
		c0,0,7.8-14.1,11.8-21.1L45.5,17.1z M113.4,18.4l-5.7,9.9c-3.1-0.6-3.8,2-3.8,2.4c-4-1-3.4,4.2-1.4,4.5c0.1,0.8-3.3,1.7-5.1-0.1
		c2.7,0.4,3.7-3.3,0.4-4.1c4.4-3.3-3.9-8.3-4-1.4c-3.9-0.7-3.4,4.5-0.9,4.9c-1.3,1.4-5,1.4-6.9-1.5c3.3,1.7,5.1-2.7,1.7-4
		c4.2-3.7-4.1-7.2-3.9-1.1c-3.1-1.9-5.3,2.9-1.1,3.6c-0.2,0.9-5.7,0.9-7.1-1.4c3.9,0.9,4.1-3.9,0.6-4.3c3.4-4.4-5.3-6.6-3.8-0.6
		C69,24,67.7,28.2,71,29.6c0.2,0.7-5.3,1.2-7.3-1.2c4.2-0.6,2.8-4.8,0-4.4c0,0,0-0.1,0.2-0.5c1.3-4.1-5.7-4.5-4.7-0.1
		c0.2,0.4,0.3,0.9,0.3,0.9c-1.9-0.4-3.1,0.4-3,2.2c0.5,2.4,1.7,2.2,3.4,1.7c0.7,0.7-3.9,3.1-6.8,1c3.5-1,1.7-5.2-1.2-4.6
		c-0.1-1.3-1.6-3.2-3.4-2.3l-2-3.9L113.4,18.4z M119.1,73.6l-4.1,0.1c-2.9,3-23.9,22.4-20.4,51.8c1.5,12.6,5,23.5,14.3,36.3l2.5-1.5
		l0.4,0.3l25.9-15l0-4.5l-30,12.7c-0.6-0.6-0.9-1.3-1.4-2.1l12-5.1c0,0,0.3-0.7,0.4-1.1c4-10.1,12-17.4,19-23
		c0-9.9-0.1-30.7-0.1-30.7l-18.1-18.1c-2.3,2.1-4.4,4.3-6.4,6.7l20.8,27.5l-1.8,1.2l-20.6-27.4C113.9,78.8,116.5,76.2,119.1,73.6
		L119.1,73.6z M137.6,91.5c0,0-0.1-47.2-0.2-70v0l-10.8,11.1l0,47.9L137.6,91.5z M136.7,26l-7.6,7.9l0.1,48.6l-2-1.9l0-47.3l9.5-10
		L136.7,26z M62.6,24.8c0.2,0.4,0.1,1-0.2,1.4c-1.6,1.9,3.3,5.3,6.9,4.7c2.7-0.4,5-2.1,4-3.3c-0.8-1-0.3-2,0.7-2
		c1,0,1.8,0.8,0.9,1.9c-1.9,2.4,1,5.3,5.5,5.3c3.2,0,4.2-0.7,4-3c-0.1-1.1,0.1-1.4,0.9-1.5c1.2-0.3,1.8,1.1,0.8,2.1
		c-2.1,2.2,0.3,5.5,4.2,5.7c1.4,0.1,1.7,0,3.4-0.9c1.3-0.7,1.7-1.8,1.1-2.6c-0.8-1.1,0.3-2.4,1.5-1.8c0.9,0.4,1.3,1.1,0.3,2.2
		c-1.3,1.5-0.7,2.8,1.8,3.6c1.9,0.7,3.3,0.6,4.2-0.3c0.3-0.3,0.9-0.8,0.9-0.6c-0.6,1.1-1.1,2-1.1,2c-4,1.8-7.2-1.6-7.1-1.7
		c-4.2,2.4-7.9,1.9-11-2.2c-0.8,0.5-6.6,1.5-10.8-3.1c-4.2,2.1-8.2,1.2-11.7-1.1c-2.6,2.5-5.3,2.8-8.1,1.7l-0.8-1.7
		c0.2-0.1,1.1,1.7,5.6,0.9c1.5-0.3,4-2.8,2.6-4c-0.7-0.9-0.7-1.4-0.1-1.9C61.3,24,62.2,24.2,62.6,24.8L62.6,24.8z M51.7,27
		c0.2,0.5,0.3,1.3,0,0.8c-0.1-0.3-0.9-1.4-0.9-1.4C51.2,26.4,51.5,26.7,51.7,27L51.7,27z M136.7,27.4l0,62.8l-6.5-6.5l-0.3-49.2
		L136.7,27.4z M61.6,30.5l2,1.3l-3.7,0L61.6,30.5z M73,31.5l1.7,1.7l-3.6-0.8L73,31.5z M105.2,32.4l-0.8,1.6
		C104,33.5,103.8,32.4,105.2,32.4z M118.1,58.5c1.3-2.9,3-6.7,5.9-7.9c-2.1-4.2-1.8-8.4-0.3-10.7c-2.1-2-4.3-4.4-5.7-7.8
		C111.3,38.1,110.2,50.4,118.1,58.5z M117.9,33.3l0.5,1.1c-6,7.4-4.1,17.1,0.2,22.2l-0.6,1.3C112.7,52.3,110.4,40.4,117.9,33.3z
		 M82.1,37.4c6.9,2,12.5,5.2,20.5,2.4l0,1.6c-5.1,3.3-15.3-0.2-22.2-2.7c-11.1-4.1-19.7-3.9-25.8-3.4c-0.5-0.1-1-1.5-0.1-1.5
		C66.1,33.6,64.3,32.2,82.1,37.4z M83.7,34.7l2.3,2.4c-1.7-0.5-3.4-1.1-4.9-1.9L83.7,34.7z M118.5,35.3l0.4,0.6
		c0.2,0.3-1.3,0.4-1,0.1L118.5,35.3z M79.3,39.7c8.3,3.1,17.4,6.3,23.4,3.5c0,0,0,1.2-0.6,1.5c0,0-0.6,0.5-2.7,0.8
		c-9.7,0.8-16-3.2-23.8-5.6c-3-0.9-7.7-2-12.6-2.2C60,37.5,55.5,38,55.5,38c-1-0.1-1-0.7-1-1.2C63,35.6,70.7,36.5,79.3,39.7z
		 M119.4,36.7c0.1,0,0.2,0,0.3,0l0.8,1.1l-1,1.6c0,0-0.9-0.8-1.3-1.6C118,37.3,118.6,36.8,119.4,36.7z M95,37l2.6,2
		c-2,0.1-4.2,0.2-6.4-0.7L95,37z M117.2,38c0.2,0,0.4,0.2,0.7,0.7c0.5,0.8,0.4,1-0.5,1.3c-1.2,0.4-1.3,0.3-0.9-0.8
		C116.7,38.4,116.9,38,117.2,38z M121.2,38.6L123,40c-1,2.6-1.6,5.8,0.3,10.5c-0.2,0-1.5,1.3-1.9,1.5
		C120.3,51.6,117.8,42.3,121.2,38.6L121.2,38.6z M119.2,40.5l-0.5,2.8c0,0.2-2-1.3-1.8-2.1C117.3,40.3,118.5,40.5,119.2,40.5
		L119.2,40.5z M116,41.5c0.2,0,0.6,0.6,1,1.3c0.4,0.6,0.3,0.8-0.5,1.5c-1.1,1.2-1.4,0.8-1.1-1.2C115.5,42.1,115.7,41.5,116,41.5
		L116,41.5z M118.3,44.1c0.2,0,0.3,0,0.4,0.1l0.1,2.8c0,0.2-2.1-0.1-2.4-1.2C116.1,45.1,117.5,44.1,118.3,44.1L118.3,44.1z
		 M115.5,46.4c0.2,0,0.6,0.3,1.1,0.6c0.8,0.5,0.8,0.7,0.1,1.6c-0.8,1-1.2,0.9-1.3-0.9C115.4,47,115.3,46.4,115.5,46.4z M118.7,47.5
		c0.1,0,0.1,0,0.2,0.1c0.4,0.3,1,3.1,0.7,3.4c-0.3,0.4-2.2-0.1-2.6-0.8C116.6,49.5,118,47.5,118.7,47.5z M116.4,50.7
		c0.2,0,0.6,0.1,1.2,0.4c0.3,0.2,0.9,0.5,1.1,0.8c0.2,0.5-0.1,1.2-0.6,1.8c-0.3,0.4-0.6,0.1-1.2-1.2
		C116.3,51.4,116.1,50.8,116.4,50.7z M120.1,52c0,0,0.1,0,0.1,0c0.6,0.3,0.5,1.4-0.2,2.2c-0.9,0.9-1.7,0.2-1-0.9
		C119.4,52.5,119.8,52,120.1,52L120.1,52z M68.4,77.7c-0.5,0-1.4,0.5-1.8,1c-0.5,0.6-0.9,0.5-1.4,0.5c-0.6,0-1.6,0.1-2.8,0.7
		c-0.7,0.3-1,0.4-2.1,0.5c-0.7,0-1.4,0.1-1.5,0.2c-0.2,0.1-0.6,0.3-1.1,0.4c-0.9,0.3-0.6,0.5-0.1,1.7c2.7,6.9,4.6,15,5.3,21.6
		c0.8,7.5,0.5,16.7-0.5,23.7c-2.6,0-4.2-0.1-6.9-0.1c-1.8,15.1-6.9,27.1-16.9,37.9l27.1,0.1c3.1-8.3,17.3-14.7,17.7-14.2l0.7,3
		c0,0-10.2,1.5-17,14.5c0.7-0.4,3.3-0.1,4.9,1.6c3.4-4.3,8.9-7.1,8.9-7l0.2-0.5c0,0,1-0.3,1.9-0.5c0.3-0.1,0.9-0.2,1.3-0.3
		c0.6-0.2,0.9-0.4,1.8-0.4c1.9,0.2,3.9-0.4,3.8-0.4c-5.7-15.9-7.1-30.3-4.9-47c2.1,0,6.8,0.1,6.8,0.1c0.5-4.7,1.1-9.4,2.5-13.8
		c1.8-5.7,4.1-11,7.6-15.8c2-3,3.8-5.2,5.9-8L81.5,77C78,82.9,71.2,87.9,65.8,89.9c-1.8,0.7-2.1,0.6-2.4-0.3
		c-0.5-1.6-0.5-1.5,0.9-1.9c0.5-0.1,2-1,4.4-2.1c5.1-2.6,8.6-7.4,10.7-10.6c0.8-1.3,0.3-1-1.1-1c-1.3-0.1-1.9-0.5-3-1.6
		c-0.4-0.4-0.6-0.7-0.8-0.7C73,74,70.4,76.9,68.4,77.7L68.4,77.7z M74.7,72.7c1.2,1.3,2.6,2,4.5,2.3c-3,4.7-6.6,8.4-10.8,10.6
		l-2.1-6C71.4,77.1,72.8,74.7,74.7,72.7z M117.8,74.6c-28,26.1-26.4,58.9-6.8,85.6l-2.1,1.2c-18.4-24.8-21.8-61.6,6.4-86.9
		L117.8,74.6z M100.2,77.8l6.9,0l-4.7,6.1l-6.3,0L100.2,77.8z M99.1,77.8l-3.8,6.1L85,84c-6.2,7.6-12.8,11.4-19.5,13.9l-1.3-6.5
		c0,0,10.7-2.6,17.6-13.7L99.1,77.8z M88.6,78.3L86.2,81l2.5,2.5l2.3-2.6L88.6,78.3z M94,78.2l-2.4,2.5l1.9,2.5l2.5-2.5L94,78.2z
		 M82.1,78.7l-0.4,4l3.1,1l0.5-3.4L82.1,78.7z M101,78.9l-2.3,3.6l3.4,0.1l2.4-3.5L101,78.9z M65.5,79.8l2.2,6.1l-1.9,0.9l-2-6.4
		L65.5,79.8z M62.9,80.8l2.3,6.4l-1.9,0.6l-2.1-6.6L62.9,80.8z M65.6,105.8c0.3,8.8,0.4,14.2-1.1,21.9c-0.1,0.4-1.7,0-1.7,0
		c0.2,0.1,0.9-8.8,0.8-14.3c-0.1-10.6-1.9-21.1-6-31.5c0.8-0.5,2.7-0.7,2.7-0.7C63,89.2,65.3,97.7,65.6,105.8L65.6,105.8z
		 M38.1,81.3c9,12.1,15.5,28.4,14.4,44.6c-1,18.8-8.1,29.6-20.6,42.6l-3.2,0.1c14.7-14.2,21.2-26.3,21.8-42.4
		c0.6-18.4-5-30.7-14.4-43.8L38.1,81.3z M9.2,97.9l0,4.4L40,89l-4.4-6.6L9.2,97.9z M81.4,83.5L78,83.7l0.1,3.4l3.5-0.1L81.4,83.5z
		 M111.3,82.9l20,26.3l-4.9,3.7l-19-24.7L111.3,82.9z M95.6,84.7l6,0.1l-2.3,3.9l-5.8,0L95.6,84.7z M94.5,84.8
		c-2.7,5.1-6.5,11-8.7,20.5l-19.7,0c0-2.2-0.3-4.3-0.6-6.5c8.5-3.1,15-7.8,19.9-14L94.5,84.8z M98.2,85l-2.6,1.5l1.6,1.8l2.8-1.1
		L98.2,85z M74.7,86.9l-0.8,3.4l3.2,1.2l0.6-4L74.7,86.9z M93.1,89.4l5.7,0l-2.4,4.8l-5.7-0.1L93.1,89.4z M106.8,88.8l18.9,24.6
		l-1.8,1.4l-18.5-24.1L106.8,88.8z M95.3,89.8L92.7,92l1.9,2.3l2.4-1.9C97.1,92.3,95.3,89.8,95.3,89.8z M70.2,90l-0.8,3.3l3.3,0.9
		l0.6-3.5L70.2,90z M65.6,92.2l-0.7,3.2l3.1,0.8l0.7-3.1L65.6,92.2z M39.8,91.9c0.2,0-0.5,3.8-1.5,4.5c-0.5,0.3-0.7,0.3-1.1-0.2
		c-0.3-0.3-1.6-2.4-1.6-2.4l1.1-0.6c1.3,2.2,1.3,1.1,1.9-0.7L39.8,91.9z M34.6,94.1c0.4,0,1,0.5,1.6,1.6c0.9,1.5,0.8,1.6-0.6,2.1
		c-2.6,0.7-3.5,0.9-2.7-0.9C33.7,95.1,34.1,94.1,34.6,94.1L34.6,94.1z M42.3,93.8l1.8,3c-7.1,18.1-18.5,31.1-34.2,39l0-3
		C28.4,122.2,36,109.6,42.3,93.8z M90.4,95.1l5.6,0.1l-1.5,4.3l-5.9,0L90.4,95.1z M33,94.9c-4.5,10.9-10.7,20.3-23.1,28.3l0-2.9
		c13.9-8.4,19.9-24.2,19.9-24.2L33,94.9z M103.3,94.9c3.3,0.1,6.8,3.7,6.4,6.7c-0.2,2.1,0.2,3.7,0.7,2.8c1.3-1.9,5-0.6,4.9,1.6
		c0,1.2-0.8,1.4-1.3,0.3c-0.7-1.6-2.6-1.7-2.9,0c-0.3,1.6,1.1,2.8,4.7,4.1c4.2,1,6.7,4.8,5.2,6.9c-0.5,0.6-0.8,0.7-0.9,0.4
		c0-0.1-0.1-0.5-0.2-1c-0.5-2.3-1.6-3.2-2.9-2.5c-0.7,0.4-0.6,0.9-0.2,1.6c0.5,0.9,0.2,1.3-0.7,0.8c-1.5-0.7-1.9-2.5-0.5-3.3
		c1.7-0.7,1.1-0.8-1-1.5c-4.6-1.6-6.5-4.4-6.7-9.9c0.1-2.5-0.3-3.4-1.4-3.7c-1.1-0.3-2.3,1.1-1.5,1.8c0.4,0.4,0.8,0.7,0.5,1
		c-0.7,0.7-2.5-0.4-2.5-1.6c0-0.8,0.3-0.9,1.5-1.9c0.3-0.3,0-0.7-0.4-0.7C102.2,97.3,102.3,95,103.3,94.9z M93,95.5l-2.8,1.6l1.4,2
		l3.1-1.5L93,95.5z M38.9,97.1c0.3,0,0.6,0.3,0.6,0.6s-0.3,0.6-0.6,0.6c-0.3,0-0.6-0.3-0.6-0.6C38.3,97.4,38.5,97.1,38.9,97.1z
		 M44.6,97.3c5.9,12.9,7.3,27.6,3.2,42.4L31.9,119C38,112.1,42.1,104.2,44.6,97.3L44.6,97.3z M23.1,98.3l-14.2,6l-0.1,10.7
		C16.8,109.5,20.1,104,23.1,98.3z M36.7,98.2c1.4,0,0.7,3.7-1.1,5c-0.7,0.5-1.1,0.5-1.3-0.6c-0.1-0.5-0.7-1.7-1.4-2.6
		c-0.8-1.1-0.8-1.1,0.4-1.2C34.6,99,35.7,98.3,36.7,98.2L36.7,98.2z M35.3,99.8c-1,0-1.3,0.5-0.7,1.1c0.5,0.6,0.9,0.4,1.3-0.4
		C36.1,100.1,35.9,99.8,35.3,99.8z M9.8,113.7l0-9.1l12.1-5.1C19.5,104.8,15,110,9.8,113.7L9.8,113.7z M117.3,121l-1.6,1.6
		l-15.6-20.5l1-2.6L117.3,121z M31.7,100.3c0.5,0,1.7,1.8,2,3.1c0.2,1,0,1.2-1.8,1.5c-0.8,0.2-2.8,0-2.6-0.5
		C29.5,103.5,31.5,100.3,31.7,100.3L31.7,100.3z M88.3,100.5l5.7,0.1l-1.3,4.7l-6-0.1L88.3,100.5z M90.8,100.7l-2.7,1.8l2.1,2.1
		l2.8-1.7L90.8,100.7z M99.8,102.8l15.8,20.6c-4.7,6-9.4,13-12.5,22.1C97.4,132.3,95.4,119.4,99.8,102.8z M35.6,104.5
		c0.3,0,0.6,0.3,0.6,0.6c0,0.3-0.3,0.6-0.6,0.6c-0.3,0-0.6-0.3-0.6-0.6S35.2,104.5,35.6,104.5z M33.8,105.3c1,0.1,0.1,3.2-1.4,4.4
		c-1.2,0.9-1.7,0.5-1.9-1.2c-0.1-0.6-0.7-1.6-1.3-2.4c-0.6-0.9-0.4-1,1.2-0.7C31.4,105.6,32.7,105.4,33.8,105.3z M86.6,106.1l6,0
		l-0.9,7.1L86.6,106.1z M28.3,106.4c0.9,0.9,2.1,4,1.5,4.2c-0.7,0.3-3.9-0.1-4.3-0.5c-0.2-0.3-0.2-0.3,0.3-1
		c0.3-0.4,0.8-1.2,1.2-1.7C27.4,107,27.8,105.9,28.3,106.4z M31.7,106.5c-0.9,0-1,0.2-0.5,1.1c0.4,0.8,0.6,0.9,1.2,0.3
		C33.2,107.3,32.8,106.5,31.7,106.5z M136.6,107.1l0.2,3.5c-23,11.5-31.6,38.5-31.7,38.5l-1.7-3.1C114,119.9,128,112.4,136.6,107.1
		L136.6,107.1z M28.3,111.3c1.4,0,1.8-0.1,1.8,0.4c0,1.4-1.3,3.3-2.8,4.1c-1,0.5-1.1,0.5-1.2-0.7c-0.1-1-0.4-2.2-0.9-3.2
		c-0.2-0.4-0.7-1.2,0-1C25.9,111.1,27.5,111.3,28.3,111.3L28.3,111.3z M31.4,111c0.3,0,0.6,0.3,0.6,0.6s-0.3,0.6-0.6,0.6
		c-0.3,0-0.6-0.3-0.6-0.6S31.1,111,31.4,111z M24.1,111.8c0.2,0,0.5,0.5,0.8,1.3c0.6,1.6,0.8,2.5,0.6,2.9c-0.3,0.6-4.1,0.2-4.7-0.5
		C20.6,115.6,23.5,112.1,24.1,111.8z M26.8,112.2c-0.5,0-0.3,0.4,0.1,1.3c0.3,0.7,0.7,0.8,1.1,0.3c0.6-0.6,0.7-1.1,0.3-1.4
		C27.8,112.2,27.4,112.2,26.8,112.2z M136.7,115.8l0,1.2c-0.9-0.3-1.4-0.6-2.5-1c-0.6-0.2-1-0.4-0.4-1c0.9-1,1.8-1.7,2.8-2.3l0,1.3
		C135,114.7,135.2,115.4,136.7,115.8L136.7,115.8z M70.3,114.6h6.3v4.2h5l-0.4,4.8h-4.6v4.2h-6.3v-4.2h-4.5l0.4-4.8h4.2L70.3,114.6z
		 M84.7,114.6c-3.2,16-0.3,33,4.7,46.9l-2.5,0.3c-3.9-11.1-6.9-26.9-3.8-47.1C83,114.6,84.2,114.6,84.7,114.6L84.7,114.6z
		 M131.8,114.9c0.3,0,0.6,0.3,0.6,0.6c0,0.3-0.3,0.6-0.6,0.6c-0.3,0-0.6-0.3-0.6-0.6C131.2,115.1,131.4,114.9,131.8,114.9z
		 M20.1,116.2c0.2,0,0.9,0.3,1.4,0.4c0.9,0.2,1.5,0.3,2.3,0.4c1.6,0,1.8,0,1.1,1.3c-0.5,0.9-1.6,2.2-2.4,2.6
		c-1.1,0.6-1.5,0.5-1.4-0.6c0-0.7-0.3-2-0.7-2.9C20.1,116.7,19.8,116.2,20.1,116.2z M26.8,116.7c0.3,0,0.6,0.3,0.6,0.6
		s-0.3,0.6-0.6,0.6c-0.3,0-0.6-0.3-0.6-0.6S26.5,116.7,26.8,116.7z M133.6,116.7c0.4,0,1.2,0.3,1.9,0.6c1.9,0.9,1.8,1.1-0.7,2.9
		c-1.8,1.4-2.3,1.5-2.3-0.6C132.4,117.7,132.6,116.7,133.6,116.7L133.6,116.7z M19.1,117.2c0.7,0,1.6,3.9,0.9,4.2
		c-1,0.5-4.2-0.5-4.2-1.4C15.8,119.7,18.8,117.2,19.1,117.2L19.1,117.2z M131.4,117c0.4,0,0.5,0.3,0.5,1.6c0,0.7,0.1,1.7,0.1,2.2
		c0.1,1,0,1.1-0.8,0.6c-0.5-0.3-1.6-0.8-2.7-0.9c-0.9-0.1-1-0.5-0.7-1.1C128.6,118.1,130.1,117.2,131.4,117z M21.9,117.6
		c-0.6,0-0.5,0.3-0.1,1.3c0.3,0.7,0.8,0.8,1.3,0.2c0.7-0.8,0.6-1.2-0.5-1.4C22.4,117.7,22,117.6,21.9,117.6L21.9,117.6z
		 M130.5,118.5c-0.3,0-0.6,0.2-0.8,0.4c-0.6,0.4-0.8,0.7,0,1c0.8,0.3,1.2,0.4,1.1-0.3C130.8,119.1,130.9,118.6,130.5,118.5
		L130.5,118.5z M70.9,119v4.2H76V119H70.9z M126,119.4c0.3,0,0.6,0.3,0.6,0.6s-0.3,0.6-0.6,0.6c-0.3,0-0.6-0.3-0.6-0.6
		C125.4,119.7,125.7,119.4,126,119.4z M31.4,120.1l15.9,20.6l-1.1,2.7l-16.4-21.7L31.4,120.1z M136.8,120l0,2.7
		c-1.8,1.3-13.2,9.7-19.2,23.7l-3.1,1.3C119,135.6,128.3,125.2,136.8,120L136.8,120z M15.6,121.1c1,0.3,2,1,3,1.2
		c1.1,0.1,1.5,0.1,1.2,0.7c-0.7,1.3-2,2.7-3.3,3.1c-1,0.3-1.4,0.2-1.3-0.4c0.3-1.1,0.3-2.1,0.3-3.1C15.6,122,15.1,121.2,15.6,121.1
		L15.6,121.1z M14.3,121.3c0.7,0.6,0.5,4.2-0.2,4.9c-0.4,0.4-1.5,0-3.2-0.9c-1.1-0.6-1.3-1-0.8-1.4
		C11.1,123.4,13.8,121.2,14.3,121.3L14.3,121.3z M128.2,121.4c0.3,0,0.8,0.1,1.3,0.2c2,0.4,2.4,0.9,0.7,2.3
		c-0.6,0.5-1.3,1.1-1.5,1.4c-0.9,1.1-1.5,0.3-1.7-1.7C126.9,122,127.1,121.2,128.2,121.4L128.2,121.4z M125.7,121.6
		c0.3,0,0.5,0.2,0.5,0.6c0,0.5,0.4,2.7,0.6,3.4c0.4,1,0.1,1.3-0.8,0.8c-0.6-0.3-2.3-0.6-3.2-0.5c-1,0.1-1-0.2-0.7-1.1
		C122.7,123.3,124.8,121.6,125.7,121.6L125.7,121.6z M16.5,122.4c-0.4,0-0.4,0.5-0.1,1.7c0.1,0.4,0.4,0.4,1-0.1
		c0.7-0.5,0.7-0.8-0.1-1.3C17,122.5,16.7,122.4,16.5,122.4L16.5,122.4z M21,122.5c0.3,0,0.6,0.3,0.6,0.6s-0.3,0.6-0.6,0.6
		c-0.3,0-0.6-0.3-0.6-0.6S20.7,122.5,21,122.5z M123.9,124.7c0.3,0.3,1.3,0.3,1.5,0.1c0.3-0.3,0.1-1.4-0.1-1.6
		C124.7,123.1,123.5,124.3,123.9,124.7z M28.2,127c0.3,1.7,2.7,1.6,2.4-0.2c-0.2-1-0.2-1,0.3-1c2.4,0.1,2,3.9-0.8,3.6
		c-0.6,0.1-0.7,0.3-0.2,0.5c0.5,0.2,2.3,0.7,2.6,0.7c3,0,7.4,4.6,7.2,8.8c-0.1,2.7,0.8,4.6,1.8,4.9c0.7,0.2,1.8-0.5,1.7-1.3
		c-0.1-1.1,0.8-0.8,1.3,0c0.8,1.1-0.2,2.8-2.2,2.6c-0.8,0.2,0.6,0.7,1.7,1c1,0.1,0.1,1.2,0,1.5c-0.5,0.6-2.3,0.1-3.7-1
		c-1.7-1.4-2.4-3.2-2.6-6.9c-0.1-2.3-0.3-2.8-1-1.9c-1.2,2.2-4.1,1.1-4.5-1.2c-0.2-1.2,0.9-2.1,1.2-1c0.9,2.3,3.1,1.7,2.8-0.5
		c-0.2-1.5-1.7-2.3-4.6-3.1c-3.5-1-4.6-2.2-5.3-5.1c-0.3-1.3-0.3-2,0.4-2.6c0.3-0.3,0.8-0.7,0.8-0.7S28,126.1,28.2,127L28.2,127z
		 M120.3,125.1c0.3,0,0.6,0.3,0.6,0.6s-0.3,0.6-0.6,0.6s-0.6-0.3-0.6-0.6S120,125.1,120.3,125.1z M9.8,125.7c1,0.4,1.9,0.9,3,1.3
		c0.7,0.2,0.5,0.8-0.2,1.6c-0.8,1-1.6,1.4-2.7,2l0-1.6c1.4-0.5,2.2-1.6-0.1-2L9.8,125.7z M123,126.6c0.4,0,1,0,1.6,0.2
		c1.7,0.3,1.9,0.5,0.9,1.7c-0.4,0.4-0.9,1.1-1.2,1.5c-1,1.4-1.5,0.9-2-0.9C121.7,127.1,121.6,126.4,123,126.6z M15,127.2
		c0.3,0,0.6,0.3,0.6,0.6s-0.3,0.6-0.6,0.6c-0.3,0-0.6-0.3-0.6-0.6S14.7,127.2,15,127.2z M121.3,128.5c0.2,0.6,0.4,1.3,0.6,1.9
		c0.9,2,0.3,1.2-1.3,1.1c-1.1-0.1-2.8,0.1-3.3-0.2c-0.2-0.2,0-0.9,0.3-1.6c0.5-1,1.4-1.9,2.1-2.3C121.4,126.5,121,127.5,121.3,128.5
		L121.3,128.5z M23.7,127.8L41.9,152l-1.4,2l-18.7-24.9L23.7,127.8z M137.8,127.9c-9.5,6.9-13.1,15.2-13.8,16.3l13.9-5.4
		L137.8,127.9z M119.8,128.7c-0.5,0.1-1.3,1.1-0.9,1.5c0.2,0.2,1,0.2,1.3,0.1C120.7,130,120.3,128.7,119.8,128.7L119.8,128.7z
		 M40,154.9l-3.9,4.9l-20.2-26.3l5.1-3.7L40,154.9z M136.8,129.3l0.1,9l-11.9,5C129.1,136.6,133,132.4,136.8,129.3z M55.7,130.1
		l4.8,6.2l-5.8-0.1L55.7,130.1z M115.8,130.6c0.3,0,0.6,0.3,0.6,0.6s-0.3,0.6-0.6,0.6c-0.3,0-0.6-0.3-0.6-0.6
		C115.2,130.8,115.5,130.6,115.8,130.6z M119.3,132.1c2.2,0,2.9,0.1,2.3,1.2c-0.8,1-1.3,2-2.3,3c-0.5,0.5-1.2-0.6-1.8-2.4
		c-0.4-1.4-0.2-1.8,0.6-1.8C119,132.1,119.1,132.1,119.3,132.1z M116.7,134c0.2,0.6,0.6,1.5,0.9,2.1c0.3,0.6,0.7,1.2,0.7,1.3
		c-0.1,0.3-0.3,0.3-0.9,0.1c-1.2-0.6-4.2,0-4.2-0.2c-0.4-0.6,0.2-2.3,1.4-3.5c0.6-0.6,1.1-0.9,1.5-0.9
		C116.5,132.8,116.5,133.3,116.7,134L116.7,134z M15.2,133.6l20.6,26.9l-1.4,1.7l-20.8-27.4c0,0-3.3,1.6-4.2,2.2l0.1,13.9l-0.6,0
		l0.1,70.4l11.5-11.5l-0.1-47.7c2.4,2.3,4.5,4.8,7.3,7l4.8,0c12.5-12.7,19.3-23.6,20.8-43.2c1-13.1-3.3-29.5-14.8-45.4L35.5,82
		l5.5,8.4l-11.7,5.2c-4.7,9.9-10.2,19-20.3,24.2L9,132.6l-0.2,0.3l0.1,4L15.2,133.6z M115.7,134.5c-0.5,0-1.4,1.2-1,1.6
		c0.5,0.2,1.2,0.2,1.5-0.2C116.4,135.5,116.3,134.7,115.7,134.5z M54.4,137.3l6,0l-1.6,5.2l-5.9-0.1L54.4,137.3z M111.7,137.2
		c0.3,0,0.6,0.3,0.6,0.6s-0.3,0.6-0.6,0.6c-0.3,0-0.6-0.3-0.6-0.6C111.2,137.5,111.4,137.2,111.7,137.2z M81,137.4l0.8,6.8
		c-6.6,2.4-13.7,6.5-19.9,14c-1.1-0.1-9.5,0.1-9.5,0.1c0.2,0,7.8-14.5,8.7-20.8L81,137.4z M57.1,138l-2.8,1.9l2.2,2.3l2.9-2
		L57.1,138z M114.7,138c0.6,0,1.4,0.1,2,0.2c1,0.2,1.2,0.2,0.8,1.1c-0.5,1.1-1.5,3.2-1.8,3.3c-0.9,0.6-3-3.6-2.3-4.3
		C113.7,138.1,114.1,138.1,114.7,138L114.7,138z M112,139.3c0.3,0,0.6,0.5,0.7,1c0.1,0.5,1.1,1.9,1.7,2.6c0.7,0.8,0.7,0.9-0.4,1
		c-1.3,0.1-2.5,0.4-3.2,0.6c-1.1,0.4-1.3,0.3-1.1-1C109.9,141.6,111.2,139.4,112,139.3L112,139.3z M111.1,143.4
		c0.1,0.4,1.9-0.3,2-0.8c0-0.2-0.7-1.4-1.1-1.4C111.2,141.3,110.9,142.9,111.1,143.4L111.1,143.4z M52.8,143.1l5.7,0.1l-1.9,4.7
		l-5.6,0L52.8,143.1z M55.3,143.8l-2.7,1.7l2.1,2.1l2.6-1.8L55.3,143.8z M113.4,144.6c0.5,0,1,0,1.1,0.2c0.3,0.5-0.9,3.3-0.9,3.3
		l-2,0.8c-0.4-0.9-1.2-1.8-1.4-2.8c-0.1-0.4,0.1-0.6,0.6-0.8C111.5,144.9,112.6,144.6,113.4,144.6L113.4,144.6z M108,144.9
		c0.3,0,0.6,0.3,0.6,0.6s-0.3,0.6-0.6,0.6c-0.3,0-0.6-0.3-0.6-0.6S107.7,144.9,108,144.9z M82,144.9c0,0,1.2,7,1.3,6.2
		c-9.5,3.6-15.1,8.9-17.7,14.1l-17.9,0l4-6.2l10.6-0.1C67.4,152.8,73.7,147.8,82,144.9L82,144.9z M79.7,146.6l-0.9,2.8l2.7,1.7l1-3
		L79.7,146.6z M108.9,146.6c0.2,0,0.5,0.4,0.9,1.2c0.3,0.6,0.8,1.5,0.8,1.5l-0.8,0.3c-0.6-2.2-1.2-1.4-1.3,0.6l-1.1,0.4
		c0,0,0.1-1.9,0.7-3C108.5,147,108.7,146.7,108.9,146.6L108.9,146.6z M50.7,148.6l5.5,0.1l-2.3,4.8l-5.6-0.2L50.7,148.6z M74.9,149
		l-0.4,3.6l3,0.6l0.4-3.4L74.9,149z M53.1,149l-2.7,1.8l1.8,2.4l2.6-1.8L53.1,149z M70.6,152.1l-0.6,3.3l2.8,0.6l0.6-3.3L70.6,152.1
		z M9.8,152.3l7,7l0.4,48.7l-7,7L9.8,152.3z M47.9,154.1c0,0,5.6,0.2,5.6,0.2l-2.2,4.1l-1.9-0.1l2.5-1.7l-1.6-2.1l-2.6,1.7l1.4,2.1
		l-3.8-0.1L47.9,154.1z M84,155.3l1.9,6.3l-2.3,0.4l-1.7-5.9C82.6,155.7,83.3,155.6,84,155.3L84,155.3z M66,155.7l0,3.8l3.1,0.3
		l0.1-3.6L66,155.7z M81.2,156.3l1.7,6l-1.5,0.4l-2.1-5.7C80,156.7,80.6,156.5,81.2,156.3z M78.6,157.6l2.2,5.9
		c-3.1,1.3-6.3,4-8.7,6.6c-1.8-1.3-2.8-1.5-3.9-1.8C71.2,162.6,74.8,159.6,78.6,157.6L78.6,157.6z M44.8,159l5.9,0.2l-4.1,6.1
		l-6.6,0L44.8,159z M62.3,159.3l-0.4,3.6l3.1,1.9l0.5-3.7L62.3,159.3z M58.5,159.8l-2.2,2.4l2.4,2.7l2.2-2.8L58.5,159.8z
		 M53.5,159.9l-2.7,2.4l2.1,2.8l2.4-2.8L53.5,159.9z M19.7,162.2l0.3,47.5l-9.8,9.5l-0.1-2.6l7.8-8.1c0-16.1,0-32.2-0.1-48.2
		L19.7,162.2z M45.7,160.6l-2.7,3.7l3.2,0l2.3-3.6L45.7,160.6z M29.1,183.6c-1.1,3.8-6,8-6,7.9c2.4,3.5,2.3,8.5,0.2,10.9
		c0-0.1,3.9,3.2,4.4,4.9c0.3,0.7,0.4,1.5,0.8,2.2c0.1,0.2,0.4,0.6,0.4,0.6C38.4,200.5,33.9,189.1,29.1,183.6z M29.2,184.7
		c9.2,11.5,3.1,22-0.1,25l-0.6-1c6.8-8,3.9-17.8,0-22.5L29.2,184.7z M28.2,186.9c0.1,0.2,0.4,0.7,0.2,0.7l-0.5-0.1L28.2,186.9z
		 M28.1,188.2c0.2,0,0.4,0.1,0.5,0.2c0.2,0.3-0.8,3-1.4,2.3c-0.2-0.3-0.4-0.7-0.5-1c-0.2-0.4-0.1-0.6,0.4-1.1
		C27.4,188.3,27.8,188.2,28.1,188.2L28.1,188.2z M29.5,188.9c0.5,0,1.1,1.5,1.2,2.6c0,0.1-1.6-0.2-2-0.7
		C28.7,190.3,29.1,189.2,29.5,188.9z M25.9,190.1c2.8,5.6,2.6,10,0.2,14l-1.9-1.6c1.3-3.1,1.9-6.3-0.2-10.5L25.9,190.1z M27.7,191.5
		c0.2,0,0.8,0.1,1.3,0.2c1.9,0.6,1.9,1.8,0.1,2.7c-0.7,0.4-1,0.2-1.4-1.7C27.6,191.9,27.4,191.5,27.7,191.5L27.7,191.5z M31.3,193.6
		c0.4,0,0.5,0.7,0.6,1.9c0,1.1-0.2,1.2-1.1,0.4c-1-0.9-1.1-1.1-0.2-1.8C30.8,193.9,31.1,193.6,31.3,193.6L31.3,193.6z M28.8,195.5
		c0.2,0,0.7,0.3,1.2,0.7c1.3,1,1,1.6-0.5,2.1c-1,0.3-0.9,0.4-0.9-1.4C28.6,196.1,28.6,195.5,28.8,195.5z M45.6,197.1
		c-1.5,0.4-2.2,1.8-1.7,3c0.2,0.6,0.6,0.6,0.2,0.9c-0.5,0.5-0.7,1.8-0.2,2.2c0.6,0.3,0.8-0.3,0.1,0.9l-11.7,21.6l70.1-0.1L94,209.8
		c0,0,0.7-2.6-0.7-2.9c-0.4-0.1-0.7-0.5-0.8-0.9c0.1-1.1-0.4-1.6-0.8-2.1c-6.7,0.9-12.4,0.5-17.2-0.6c-6.9-1.6-11.8-4.3-15-5.1
		C55.1,196.9,49.8,196.4,45.6,197.1L45.6,197.1z M49.4,197.2c5.4,0,11.5,1.6,15.8,3.5c4.4,1.8,9.1,3.2,13.8,3.9
		c3.9,0.5,7.8,0.2,11.5-0.1c0.4-0.1,0.8,0,1.1,0.3c0.8,0.9,0.2,1.4-1.7,1.6c-3.1,0.3-7,0.1-10.4-0.4c-5.4-0.6-11.1-2.3-16.1-4.3
		c-6.2-2.3-11.9-3.1-16.3-2.4c-2.5,0.4-2.8,0.4-2.8-0.2C44.3,197.8,45.4,197.2,49.4,197.2L49.4,197.2z M31.6,201
		c-0.2,0.5-1.9-1.3-1.9-1.8c0-0.2,1.4-1.1,1.9-1.5c0.3-0.2,0.2-0.1,0.2,0.1C31.9,198.6,31.8,200.3,31.6,201z M29,199.7
		c0.8,0.1,2.1,2.2,0.9,2.5c-1,0.3-1.9,0.5-2-0.2C28.4,200.4,28.6,199.7,29,199.7C28.9,199.7,28.9,199.7,29,199.7L29,199.7z
		 M74.3,206.9c5,0.9,11.5,1.4,15.8,1c2.4-0.2,3-0.2,2.9,0.9c0,0.6,0.1,0.6-3.1,0.6c-2.6,0.2-5-0.1-7.5-0.2c-5.3-0.3-10-1.2-14.4-2.7
		c-4.9-1.3-9.1-3.7-13.9-4.2c-4.4-0.4-8.3,0.3-9.2,0.8c-0.3,0-0.4-0.4-0.4-0.8c0-0.4,0.2-0.7,0.5-0.9
		C57.5,198.1,64.2,205,74.3,206.9L74.3,206.9z M30.6,202.6c0.4,0,0.3,0.6-0.4,2c-0.6,1.1-0.8,1.1-1.1,0c-0.4-1.2-0.3-1.4,0.4-1.5
		C29.9,202.9,30.2,202.7,30.6,202.6L30.6,202.6z M27.7,203.3c0.5,0,1.2,2.2,0.8,2.7c-0.3,0.3-1.3,0.1-1.6-0.3
		C26.4,205,27,203.3,27.7,203.3z M49.7,203.9c2,0,3.9,0.2,5.7,0.5c-1,0.4-2.1,0.7-3.1,1.4C51.5,205.1,50.7,204.5,49.7,203.9z
		 M52.2,206.6c6.9-3.9,9.8,1.5,10.8,2.3c6-1.3,7.2-0.7,10.6,3c6-3,9-0.4,11.5,1.2c3-2.8,6.7-2.9,8.7-1.5c0.4,0.6,0.9,1.4,0.9,1.6
		c0,0.2-0.2,0-0.9-0.5c-3.5-2.6-9.4,0.6-7.9,4c0.4,0.9,0.4,1.3-0.3,1.7c-0.9,0.6-2-0.4-1.4-1.4c1-1.7,0.3-3.2-2.3-4.5
		c-3.6-1.9-9.5,0.2-8.2,3c0.8,0.9,0.1,1.5-1,1.5c-1.2,0-1.5-0.8-0.8-1.6c0.9-1.1,0.7-2.1-0.4-3.4c-3.2-4.6-9.7-2.8-8.9,1.3
		c0.4,1-0.7,1.4-1.8,1c-0.7-0.3-0.6-1.4,0.2-1.8c0.9-0.1,1-1.4,0.9-2.2c-0.2-1.2-1.9-2.4-3.7-3.1c-1.3-0.5-2.5-0.6-3.4-0.5
		c-2,0.2-3.1,1.5-2.8,3.6c0.2,1.2-0.1,2.4-1.5,1.8c-0.8-0.4-0.6-1.2,0.2-2c2.7-2.7-2.8-6-6.1-3.7c-0.6,0.5-1,0.5-1,0.5
		C45.7,201.5,52.3,206.4,52.2,206.6L52.2,206.6z M61.3,205.9l4.2,1.6c-1,0.2-1.6,0.5-2.3,0.7L61.3,205.9z M50.4,207.6
		c-3.8-0.7-4.1,3.6-1.5,4.3c-3.4,4.8,5.6,6.6,3.9,0.7c4.6,0.8,3.7-4.4,0.3-4.4c0.8-2,7.1-0.5,6.8,1c-4.2,0.5-2.5,4.3-0.7,4.3
		c-4.4,4.2,4.4,8.1,4.2,1.8c3.6,0.8,4-4,0.6-4.3c1.3-1.8,5.7-0.7,7,1.4c-3.5,0.5-3.3,3.6-0.5,4.1c-3.5,4.5,5.1,6.2,4.2,0.9
		c3.1,1.1,4.8-3.1,0.8-4.3c4.1-2.5,8.6,1.2,8.1,1.3c-4.7-0.3-3.8,4.4-0.4,4.2c-2.2,4.9,6.4,5.2,4.2,0.1c3.8,0.1,3.5-4.4-0.2-4.7
		c2.3-1.7,4.9-1.9,6.6-0.3c-3.5,0.9-2,5,1.5,3.9c0.3,3.4,3.1,2.7,3.2,2.6l2.5,4.7L33.7,225l5.7-10.7c3.4,0.2,3.3-3.1,3.1-3.2
		c2.3,1.6,4.7-2.4,1.4-3.6C46.7,204.8,50.7,207.4,50.4,207.6L50.4,207.6z M28.5,207.3c-0.1,0.1-0.2,0.2-0.4,0
		C27.6,206.6,29.1,206.6,28.5,207.3z M42.5,209.1c0.3,0.2,0.1,0.9-0.1,1.1c-0.6,0.7-0.8,0.6-0.3-0.5
		C42.2,209.4,42.3,209.1,42.5,209.1L42.5,209.1z M71.9,209.4l3.5,0.8l-1.7,0.9C73.1,210.5,72.5,209.9,71.9,209.4z M82.8,210.8
		l3.8,0.2c-0.5,0.3-1,0.7-1.6,1.3C84.5,211.8,83.6,211.3,82.8,210.8z M95.5,214.7c0.2,0.4,1.1,2,1,2
		C95.2,216.9,94.9,215.1,95.5,214.7z"/>
	<path id="path12536_1_" class="st2" d="M32,61.7c-4.1-6.9-8.5-13.5-14-19.2
		c5.5-5.7,9.8-12.3,14-19.2c4.1,6.9,8.5,13.5,14,19.2C40.5,48.1,36.2,54.8,32,61.7z"/>
	<path id="path12538_1_" class="st2" d="M-1.9,53.1c-1.7-2.9-3.5-5.6-5.8-8c2.3-2.4,4.1-5.1,5.8-8
		c1.7,2.9,3.5,5.6,5.8,8C1.6,47.4-0.2,50.2-1.9,53.1z"/>
	<path id="path12540_1_" class="st2" d="M114.5,182c-4.1,6.9-8.5,13.5-14,19.2
		c5.5,5.7,9.8,12.3,14,19.2c4.1-6.9,8.5-13.5,14-19.2C123,195.5,118.6,188.9,114.5,182z"/>
	<path id="path12542_1_" class="st2" d="M148.4,190.6c-1.7,2.9-3.5,5.6-5.8,8
		c2.3,2.4,4.1,5.1,5.8,8c1.7-2.9,3.5-5.6,5.8-8C152,196.2,150.2,193.4,148.4,190.6z"/>
	<path id="path12544_1_" class="st2" d="M-1.3,31.7h2.7l-3.9-9.7l-3,4.1l0,5.6h2.1v2.9h-7.4v-2.9
		h2.4v-21l-2.4,0V8.2h7.5v2.6h-2.1l0,10.2l6.5-10.3h-2.3V8.2h8v2.5H4.7l-5.4,8.4l5.3,12.5h2.3l0,2.9h-8.2L-1.3,31.7L-1.3,31.7z"/>
	<path id="path12546_1_" class="st2" d="M147.8,212h-2.7l3.9,9.7l3-4.1l0-5.6h-2.1v-2.9h7.4v2.9
		h-2.4v21l2.4,0v2.5h-7.5v-2.6h2.1l0-10.2l-6.5,10.3h2.3v2.5h-8v-2.5h2.1l5.4-8.4l-5.3-12.5h-2.3l0-2.9h8.2L147.8,212L147.8,212z"/>
</g>
</svg>
