<!-- Generator: Adobe Illustrator 19.2.1, SVG Export Plug-In  -->
<svg version="1.1"
	 xmlns="http://www.w3.org/2000/svg" xmlns:xlink="http://www.w3.org/1999/xlink" xmlns:a="http://ns.adobe.com/AdobeSVGViewerExtensions/3.0/"
	 x="0px" y="0px" width="165.8px" height="226.6px" viewBox="0 0 165.8 226.6" style="enable-background:new 0 0 165.8 226.6;"
	 xml:space="preserve">
<style type="text/css">
	.st0{fill:#D40000;}
	.st1{fill:#131F67;}
	.st2{fill:#E2CF00;}
</style>
<defs>
</defs>
<g id="g7094_1_" transform="matrix(0.99553491,0,0,0.99680337,10.376831,-8.1397611)">
	<path id="path7130-4_1_" class="st0" d="M-2.3,53.1c-1.7-2.9-3.5-5.6-5.8-8
		c2.3-2.4,4.1-5.1,5.8-8c1.7,2.9,3.5,5.6,5.8,8C1.2,47.4-0.6,50.2-2.3,53.1z"/>
	<path id="path7134-0_1_" class="st0" d="M148,206.6c-1.7-2.9-3.5-5.6-5.8-8
		c2.3-2.4,4.1-5.1,5.8-8c1.7,2.9,3.5,5.6,5.8,8C151.6,200.9,149.7,203.7,148,206.6z"/>
	<path id="path7136-1_1_" class="st0" d="M31.6,61.7c-4.1-6.9-8.5-13.5-14-19.2
		c5.5-5.7,9.8-12.3,14-19.2c4.1,6.9,8.5,13.5,14,19.2C40.1,48.1,35.8,54.8,31.6,61.7z"/>
	<path id="path7154-5_1_" class="st0" d="M114.1,220.4c-4.1-6.9-8.5-13.5-14-19.2
		c5.5-5.7,9.8-12.3,14-19.2c4.1,6.9,8.5,13.5,14,19.2C122.6,206.9,118.2,213.5,114.1,220.4z"/>
	
		<path id="path6263-5_1_" class="st1" d="
		M7.5,227.1V16.6h130.6v210.5H7.5z M54.6,51.6c-4.7-1.3-4.6,3.4-1.1,3.5c3.8,0.3,5.5-6.2,3.6-8.8C57.1,46.3,55.5,51.2,54.6,51.6z
		 M24.2,77.8l-5.6,2.5l0,4.2C21,82.6,22.8,80.4,24.2,77.8L24.2,77.8z M62.5,203.7c-1.1-0.6-2.4-1.8-2.2-2c0.1-0.1,0.7,0.1,1.2,0.3
		c4.4,1.8,7.8,1.7,13-0.2c0.4-0.1,1,0.6,0.8,1C73,206.4,65.5,205.1,62.5,203.7L62.5,203.7z M60.2,198.6c-1-1.5,0.3-0.4,0.8,0.1
		c3.2,3,7.6,4,11.4,1.2c0.2-0.2,0.2-0.4,0.1-0.5c-0.1-0.3-0.1,0-1.7,0.6c-3.6,1.4-6.7,0.2-9.6-2c-1.2-0.9-1.8-1.4-1.8-1.7
		c0-0.2,0.2-0.4,0.6-0.3c0.3,0,1,0.2,1.5,0.2c0.9,0.1,0.8,0,1.8-0.4c2-0.9,3.8-1.3,5.9-0.9c0.5,0.1,1.1,0.2,1.2,0.2
		c0.5-0.2-0.2-0.8-2-2.2c-0.3-0.3-0.8-0.5-0.9-0.7c-0.2-0.4,0-0.5,0.3-0.5c0.7,0,4,2.7,5.1,4.3c0.3,0.5,0.6,0.5,0.6,1.1
		c-0.1,0.5-0.1,1,0.4,1.8c0.4,0.5,0.8,1.4,0.8,1.4c0,0-0.1,0.3-0.5,0.1c-0.2,0-0.3-0.2-0.6-0.2c-0.3,0-0.7,0.3-1.2,0.5
		C67.8,203.6,63.6,202.2,60.2,198.6L60.2,198.6z M70.2,198.4c0.1,0-0.3-1.7-0.8-2.2c-0.9-1-2.3-1.2-3.1-0.2c-0.5,0.6-1,2.1-1,2.1
		s0.7,0.2,0.9,0.2c0-0.4,0-1.3,0.8-1.9c0.4-0.3,1.1-0.3,1.4,0c0.6,0.3,0.8,1.5,0.9,1.9C69.6,198.5,70.4,198.4,70.2,198.4L70.2,198.4
		z M64.7,195.9c-0.6,0.3-1.5,0.5-1.7,0.9c-0.3,0.6,0.6,0.7,1.1,0.9c0.6,0.3,0.7,0.2,0.9-0.3c0.1-0.3,0.3-0.7,0.5-1.1
		C65.9,195.5,65.4,195.6,64.7,195.9L64.7,195.9z M71.6,197.5c0.4-0.4,0.4-0.6,0.1-1c-0.1-0.2-0.6-0.4-1-0.5
		c-0.6-0.2-0.9-0.4-0.5,0.4l0.5,1.2C71,198,71.3,197.9,71.6,197.5L71.6,197.5z M10.9,158.3c0.2,0,2.5-0.7,3.3-1.1
		c0.8-0.3,0.9-0.3,0.6-0.7c-0.1-0.2-0.2-0.6-0.2-1.1l0.1-0.7c-1.4-0.3-3.4,0.5-4.1,1.4C10,156.7,10.1,158,10.9,158.3L10.9,158.3z
		 M10.7,161.7c0.4,0.4,0.5,0.4,1.8,0c0.4-0.3,1.4-0.7,2-0.7c1.5-0.4,1.5-0.2,1.1-1.2c-0.2-0.4-0.3-0.8-0.2-1.2
		c0.1-0.5,0.1-0.6-0.1-0.6c-0.7-0.2-4.1,1-4.7,2C10.1,160.6,10.1,161.2,10.7,161.7L10.7,161.7z M89.1,195c0.1,0.8,0.1,2,0.1,2.6
		c0,1.3,0.5,1.6,1,0.9c0.5-1.6,0.7-4.2,2-5.6c0.9-0.3,2.1,0.2,2.8-0.4c1.5-1.5,0.3-3.2-1.1-3.3C91,189.1,88.9,192.6,89.1,195
		L89.1,195z M96.2,190.9c0.1,1.6-1.5,2.7-3.1,2.3c-0.7-0.2-0.9,0-1.3,0.9c-1,2.6-1.3,5.1-1.6,6.8c-0.1,1.5-0.7,5.5-0.3,6.7
		c4.6,5.7,9.5,11.6,14.8,17.5h31.7V188l-9.1-8.7l0-13.8c-9.8,4.6-19.6,9.3-29.5,14c2.1,6.9-5.1,8.3-6.7,3.7c-1.4,1.3-2.5,8.1-2,8.4
		c0,0,0.2,0.2,0.5-0.3c0.5-0.9,1.2-1.5,1.9-2C93.6,188.1,96,188.7,96.2,190.9z M71,190.2c-1.6-1.2-0.7-3.1,0.6-3.7
		c0.7-0.3,1.8-0.3,3,0.2c1.1,0.5,1.7,0.4,2.8,0.3c0.7-0.1,0.6,1.4-0.2,1.8c-0.5,0.3-1.7,0.1-3.2-0.7c-2.6-1.5-3.7,0.4-2.1,2.1
		C72.7,191.2,71.2,190.4,71,190.2L71,190.2z M18.4,167.7c1.4-0.9,0.8-2.4-0.5-2.7c-1.7,0-2.1,2-0.9,2.7c0,0.2-0.6,0-0.9-0.2
		c-0.5-0.4,0-1.9-0.5-1.9c-0.4,0-3.9,1.3-4.3,1.5c-1.6,0.9-0.1,2.9,0.8,2.7C14,169.2,16.6,168.8,18.4,167.7L18.4,167.7z M10.5,164.7
		c0,0.9,0.3,1.3,0.9,1.3c1.2-0.2,2.4-0.8,3.6-1.2c0.9-0.3,1.3-0.6,0.6-1.2c-0.2-0.2-0.4-0.6-0.3-1.2c0.2-0.7,0.1-0.8-0.3-0.8
		c-0.3,0-1,0.3-2.9,1c-1,0.4-1.2,0.5-1.4,1.1C10.5,164.1,10.5,164.3,10.5,164.7L10.5,164.7z M20.8,176.5c0.2-0.3,0.7-1.8,0.7-2.2
		c-0.1-0.7-0.6-0.8-1-0.4c-0.5,0.5-0.4,1.2-0.7,1.7c-0.1,0.2-0.2,0.4-0.2,0.6C19.8,176.7,20.5,176.8,20.8,176.5L20.8,176.5z
		 M24.9,167.8c15.9-16.9,25.7-40.3,8.5-72.5c-1.1-1-2.5,2.3-2.7,2.4l-2.2,1.9c11.6,20.1,9.6,43.1-4.6,59.6l0,1
		c0,2.3,0.7,2.2,1.7,1.1c1-1.1,0.3-0.2-0.1,0.2c-0.4,0.4-0.9,1.1-1.1,1.3C24.5,164.4,25.4,166.9,24.9,167.8L24.9,167.8z M23.8,162.8
		c-0.2-0.5-0.3-1.5-0.4-2.3c-0.1-0.5-0.1-1-0.1-1.5c-0.2-1-0.6-3.3-0.9-3.9c-0.4-0.6-1.2-1-2.2-1c-0.8-0.1-0.9,0-1.1,0.2
		c-0.3,0.5-0.1,2.9,0.2,3.7c0.4,1,0.1,1.6-0.1,2.6c-0.1,0.4-0.1,0.4,0,0.4c0.8-0.1,1.1-1,1.4-0.7c0.1,0.1-0.2,0.9-0.5,1.7
		c-0.4,0.8-0.5,2,0,3.5c0.3,0.8,0.1,1.1,0,1.5c-0.1,0.3-0.3,1.3-0.3,2.3c0.4,1.2,0.2,1.8,0,2.2c-0.5,1.1-0.8,2.5-0.6,3.3
		c0.1,0.4,0.4,0.1,0.6-0.6c0.3-1.2,0.7-1.5,1.7-1.5c0.7,0,0.8,0.2,1-0.1c0.5-0.7,1.8-3.3,1.9-4C24.7,166.9,24.7,165.4,23.8,162.8
		L23.8,162.8z M31.4,174.7c0.4-0.2,1.1-1.1,1.1-1.4c0-0.3-2.7-2.9-3.8-3.6c-0.5-0.3-0.7-0.1-1.6,1.1c-0.8,1.1-0.9,1.1-0.7,1.3
		c0.2,0.2,2.9,2,3.8,2.5C30.4,174.7,31,174.9,31.4,174.7L31.4,174.7z M36.4,170.1c-0.4-0.3-3.6-3.8-4.5-4c-0.4-0.1-1.5,1.2-1.5,1.5
		c0,0.2,2,2.2,3.4,3.5c0.4,0.4,0.8,0.6,1,0.6C35.2,171.5,36.3,170.6,36.4,170.1z M39.8,166.8c0-0.2-0.4-0.6-1.2-1.5
		c-2.2-2.1-3.4-3.1-3.8-3.1c-0.4,0.1-1.2,1.4-1.2,1.9c0.1,0.3,3.8,3.6,4.3,3.9C38.4,168.5,39.7,167.2,39.8,166.8L39.8,166.8z
		 M43.2,163.4c0.1-0.3-0.1-0.6-0.6-1c-0.3-0.3-1.5-1.5-2.6-2.5c-2.3-2.3-2.3-2.3-3-1.2c-0.8,1.1-0.8,1.1,1.5,3.3
		c2.4,2.3,2.9,2.8,3.3,2.8C42.4,164.4,43,164,43.2,163.4z M17.6,161.3c-0.4-0.1-0.8,0-1.1,0.2c-1.7,1.4,0.7,3.3,1.7,2.1
		C18.9,163,18.8,161.6,17.6,161.3L17.6,161.3z M46.7,159.8c0-0.2-0.5-0.8-2.2-2.4c-4.2-4-4-3.9-4.5-3.6c-0.3,0.2-0.9,1.2-0.9,1.6
		c0,0.3,0.4,0.7,3.5,3.6c1.8,1.7,2.4,2.1,2.7,2.1C45.9,161,46.7,160.4,46.7,159.8L46.7,159.8z M17.7,160c0.8-0.4,1-1.3,0.5-2
		c-0.9-0.8-2.2-0.1-2.2,0.9C16.2,159.9,17,160.3,17.7,160L17.7,160z M50.2,156.4c0-0.5-7.2-7.2-7.7-7.2c-0.3,0-0.6,0.3-0.9,1
		c-0.3,0.7-0.3,1.1,0.1,1.4c0.5,0.5,1.9,1.8,3.2,3c0.8,0.7,1.7,1.6,2,1.9c0.7,0.8,1.6,1.4,1.9,1.4C49.2,157.6,49.8,157.3,50.2,156.4
		L50.2,156.4z M17.3,155.6c0-0.3-0.1-0.5-0.3-0.8c-0.5-0.5-1.4-0.3-1.6,0.4C15.2,156.9,17.3,157,17.3,155.6z M22.7,103l1.4-4.3
		l4.3-0.1l0.6-4.3l4.4-0.6l0.1-4.4l4.3-0.6l-0.3-4.8l3.9-0.9l-0.2-4.4l3.6-1.1l-0.1-3.8l0.6-0.5l-1.5-1.6l-1.3,0.4l0,3.9L38.8,77
		l0.4,4.4l-3.6,0.8l0,4.7l-4.2,0.5l-0.3,4.2L27,92.4l-0.6,4.1l-3.9,0.3l-1.2,3.6l-2.6,0v2.4L22.7,103z M69.6,180.3
		c-0.1-0.3,0.2-0.3,0.8,0.1c0.6,0.4,1.6,0.7,2.3,0.7c0.3,0,1.3-0.2,2.2-0.4c1.1-0.4,2.1-0.4,3.3-0.2c0.9,0.1,1.7,0.2,1.9,0.2
		c0.6,0.1,1.6-0.6,1.8-1.1c0.7-1.2,0.5,1,0.5,1.2c0,1.1,0.2,2.4-0.7,1.8c-0.5-0.2-1.3-0.5-2,0c-0.7,0.5-1.2,0.5-2,0.1
		c-0.6-0.3-1-0.3-1.5,0.1c-0.5,0.5-1.9,0.3-2.6,0.1c-1.2-0.2-1.9-0.4-2.7,0.3c-0.4,0.2-0.5,0.1-0.9-0.9
		C70,181.5,69.7,180.4,69.6,180.3L69.6,180.3z M72.7,179.5c-0.1-0.1,0.6-0.8,1-1c1.3-0.7,3.8-0.6,5.7,0c1,0.4,1.1,1,0.2,0.8
		c-1.9-0.4-4.3-0.7-6.2,0.1C73.2,179.6,72.8,179.6,72.7,179.5L72.7,179.5z M74.4,176.5c-1.3-0.5-2-1-2-1.2c0-0.2,0.3-0.1,1.3,0.1
		c1.4,0.5,3.1,0.8,4.5,0.3c1-0.4,1.5-0.6,1.5-0.4c0,0.2-0.4,0.8-1.1,1.2C77.2,177.1,75.4,176.9,74.4,176.5L74.4,176.5z M102.9,172.8
		l1-0.1l-0.3-4.1l3.6-1.1l-0.3-4.1l3.8-1.3l-0.2-4.6l4-0.8l0.5-4l3.8-0.3l0.8-4.3l4-0.1l0.8-3.6l2.7,0l0-2l-4.2,0l-0.9,3.9l-4,0.1
		l-0.8,4.3l-4.1,0l-0.5,4.6l-3.9,0.6v5l-3.8,1l0.3,4.3l-3.8,1.4l0.4,4.1L102.9,172.8z M128.1,77.1c-0.5,0.4-0.7,1.1-0.6,1.8
		c0.5,1.4,2.4,1,2.6-0.1c0.1-0.4-0.2-1.1-0.7-1.3c-0.1,0-0.4,0-0.6-0.2c-0.1-0.1,0.6-0.5,1.1-0.4c0.5,0.2,1,0.9,1,1.5
		c0,0.2-0.1,0.6,0,0.7c0.9,0,1.9-0.5,2.9-0.8c1.6-0.5,2.2-1.4,1.9-2.5c-0.3-0.9-1.2-1.3-2.5-0.8C131.5,75.8,129.5,76.1,128.1,77.1
		L128.1,77.1z M58.3,177.3c5.5-3.9,8.8-6.1,15.9-6.5c-2.5-1-2.9-2.4-3.7-3.7c-8.8,0.8-13.5,3.6-17.6,6.3
		C54.6,174.1,56.4,175.1,58.3,177.3L58.3,177.3z M89.2,171.9c-2.7-1.9-5.9-3-9.2-3.9l-2.5,2.6C77.3,170.5,84.8,170.6,89.2,171.9
		L89.2,171.9z M114.9,146.9c-17.3-26.6-5.7-50,6.4-64.9c0.4-0.5,0.5-0.5,0.4-0.9c-0.1-0.5-0.3-3.1-0.2-4.6
		c-22.2,22.1-22.8,50.8-8.9,73.6C113.6,149.2,115.6,148,114.9,146.9L114.9,146.9z M117.5,144.6c-2.8-4.7-18-30.4,5.1-59
		c0,0-0.1-1.5-0.3-2c-0.3-1-0.8-1.4-0.8-1.4c-9.7,14.6-23.8,32.8-6.2,64.5L117.5,144.6z M104.3,96.4c0.3-0.3,0.8-1.3,0.8-1.7
		c0-0.4-0.3-0.7-2.9-3.3c-3.5-3.5-4.1-4.1-4.5-4.1c-0.4,0-1.5,1-1.5,1.4c0,0.2,1,1.3,3.4,3.7C104.1,96.9,103.9,96.7,104.3,96.4
		L104.3,96.4z M107.5,89.9c0-0.2-0.3-0.6-1.1-1.4c-2-2.1-4.9-4.7-5.1-4.7c-0.3,0-1.2,0.7-1.4,1.2c-0.2,0.3-0.2,0.4,0,0.7
		c0.4,0.6,4.8,4.8,6.1,5.9C106.8,92.2,107.4,90.4,107.5,89.9L107.5,89.9z M109.2,87.3c0.4-0.2,1-1.4,0.9-1.8c0-0.2-1.2-1.4-2.5-2.7
		c-2.7-2.7-2.8-2.8-3.5-2.2c-0.6,0.5-1,1.1-0.9,1.3c0.1,0.3,4.1,4.3,4.9,5C108.8,87.4,108.9,87.4,109.2,87.3z M129.6,87.1
		c1.3-1.2-0.2-2.5-1.2-1.9c-0.4,0.3-0.7,0.9-0.6,1.3C128.1,87.1,129,87.4,129.6,87.1z M132.1,86.7c2.1-0.6,3.1-0.9,3.6-1.6
		c0.3-0.5,0.3-0.7,0-1.5c-0.3-0.7-0.7-0.9-2-0.2c-0.9,0.5-3,0.7-3.7,1.2c-0.3,0.2-0.1,0.2,0.1,0.4c0.5,0.3,0.8,0.5,0.7,1
		C130.7,87,130.8,87.1,132.1,86.7L132.1,86.7z M129.9,83.4c1-0.5,0.8-1.8-0.3-2.3c-1.5-0.4-2.5,1.4-1.3,2.3
		C128.6,83.7,129.5,83.6,129.9,83.4z M133.3,82.9c1.5-0.5,2.1-0.9,2.5-1.7c0.3-0.7,0.2-0.9,0.2-1.6c-0.1-1-0.6-0.8-1.9-0.3
		c-0.7,0.3-3.9,1.2-4,1.5c1.6,0.9,1.2,1.4,1.2,2.5C131.3,83.5,132,83.3,133.3,82.9L133.3,82.9z M112.9,81.4c0-0.4-4.2-4.5-4.6-4.5
		c-0.7,0-1.7,1.1-1.5,1.7c0.1,0.3,4,4.2,4.5,4.5C111.9,83.4,112.9,82,112.9,81.4z M115.3,78.8c0.2-0.1,0.5-0.5,0.7-0.8
		c0.4-0.7,0.4-1-0.1-1.4c-0.2-0.1-1.1-0.9-1.9-1.8c-0.9-0.8-1.7-1.6-1.8-1.6c-0.7-0.1-2,1.1-1.9,1.6c0.1,0.3,3.3,3.5,4,3.9
		C114.7,79.1,114.9,79.1,115.3,78.8z M121,72.7c0-0.1-0.7-0.6-1.9-1.2c-3.6-1.9-3.6-1.9-4.7-1c-0.4,0.3-0.7,0.7-0.7,0.8
		c0,0.1,0.8,1,1.8,1.9c2,1.9,2.5,2.3,2.8,2.3C118.8,75,120.9,73.3,121,72.7z M126,70.9c0.4-0.5,0.9-2.3,0.7-2.7
		c-0.2-0.2-0.8-0.2-1,0.1c-0.3,0.2-1,2.5-0.8,2.8C124.9,71.3,125.6,71.2,126,70.9L126,70.9z M87.1,148.5c0.3,0,1-0.5,2-1.3
		c1-0.9,4.3-2.8,4.6-3.6c0.2-0.4,0-1.1-0.3-1.1c-0.3,0-0.3,0.2-2.5,1.7c-1.5,1-4,2.9-4.4,3.3C86.4,147.9,86.8,148.4,87.1,148.5z
		 M86.8,161c2.2-1.5,4-3.1,6.9-4.9c0.2-0.3,0.3-0.7,0.1-1.1c-0.2-0.4-0.4-0.3-1.3,0.3c-2.1,1.4-4.3,3.1-6.2,4.4
		c-0.6,0.4-1.1,0.6-1,0.8C85.6,160.8,86.5,160.9,86.8,161L86.8,161z M89,161.9c1.5-1.2,3.2-2.3,4.8-3.5c0.2-0.2,0.3-1,0.1-1.3
		c-0.2-0.2,0-0.2-0.5,0.1c-0.6,0.4-4.4,2.9-5.1,3.5c-0.4,0.3-0.8,0.5-0.6,0.6C88.1,161.7,88.6,161.9,89,161.9L89,161.9z M90.8,162.9
		c0.3-0.2,2.9-1.9,3.1-2.1c0.2-0.3,0.2-1.4-0.1-1.5c-0.7,0.5-4.1,2.6-4.1,3C90.1,162.6,90.6,162.9,90.8,162.9L90.8,162.9z
		 M93.6,163.1c0.4-0.4,0.5-0.4,0.5-0.8c0-0.7-0.2-0.7-1.2,0c-0.7,0.5-1.2,0.8-1.1,1.1C92.3,164.2,93.1,163.6,93.6,163.1L93.6,163.1z
		 M93.9,164.6c0.2-0.1,0.2-0.2,0.2-0.4c0-0.3-0.1-0.3-0.4-0.3C92.8,163.9,93.6,164.7,93.9,164.6z M83.8,160.5
		c0.4-1.3,0.9-2.3,1.8-3.2c3.5-3.1,2.4-6.9,0.2-10c2.9-4,5.7-8.2,8.1-12.1l0-6.3l0.3,0c-0.1,13.8,0.5,36.3,0.5,36.3l2.8,2.2
		l-0.4,0.2C97.7,167.5,89,162,83.8,160.5L83.8,160.5z M86.3,158.9c2.4-1.8,4.8-3.3,7.2-5.2c0.3-0.2,0.4-0.2,0.4-0.7
		c0-0.9-0.2-0.9-1.1-0.3c-0.4,0.3-1.8,1.3-3.2,2.2c-1.4,1-2.8,1.8-3,2.1c-1.3,1.6-1.8,2.3-1.7,2.5C85,159.8,85.3,159.6,86.3,158.9
		L86.3,158.9z M89,154.5c1.2-0.8,4.2-2.9,4.5-3.1c0.5-0.4,0.6-1.1,0.1-1.2c-0.2,0-2.5,1.5-4.4,3c-0.9,0.7-1.2,0.9-1.2,1.6
		C88,155,88.2,155,89,154.5z M90.2,151.3c3.8-2.7,3.7-2.5,3.6-3.5c0-0.3-0.1-0.5-0.3-0.5c-0.1,0-0.8,0.5-1.5,1s-1.7,1.2-2.1,1.6
		c-1.3,0.9-1.8,1.2-1.8,1.7c0,0.5,0.1,0.8,0.4,0.8C88.6,152.3,89.4,151.9,90.2,151.3z M89.7,149.2c1.8-1.2,3.7-2.6,3.9-3
		c0.3-0.4,0.3-1.3-0.1-1.3c-1.8,1.2-3.9,2.7-5.4,3.9c-0.2,0.2-0.4,0.3-0.5,0.6c0,0.3,0.3,0.7,0.5,0.7
		C88.4,150.1,88.8,149.8,89.7,149.2L89.7,149.2z M88.5,145c1.3-0.9,2.6-2,3.9-2.9c1-0.7,1.3-0.9,1.2-1.8c0-0.5-0.5-0.2-2.2,0.9
		c-1.2,0.8-1.8,1.2-2.2,1.7c-0.3,0.7-1.3,1.4-1.4,2.2C87.8,145.4,88,145.3,88.5,145L88.5,145z M92.6,139.5c1-0.7,1.1-0.7,1-1.6
		c-0.1-1.1-0.3-1.1-1.2,0.4c-0.6,1-0.9,1.3-0.8,1.5C91.8,140.1,92,139.9,92.6,139.5L92.6,139.5z M88.9,131.2
		c-0.1-0.5-0.3-0.4-0.8,0.1c-1,0.8-1.1,1.4-0.5,1.8c0.3,0.2,0.6,0.1,0.7-0.3C88.8,131.9,88.9,131.5,88.9,131.2z M83.6,139.1
		c-0.1-0.5-0.7-1.1-1.1-1.3c-0.4-0.2-0.7-0.2-1.1,0.3c-0.4,0.5-0.2,0.8,0.4,1.5c0.4,0.5,0.6,0.7,0.9,0.7
		C83,140.1,83.6,139.6,83.6,139.1L83.6,139.1z M62.9,158.9c-0.3-0.5-0.8-1.1-1.1-1c-0.3,0.1-0.6,0.5-0.6,0.8
		c0.1,0.5,0.6,0.9,0.9,0.9C62.8,159.5,63.2,159.4,62.9,158.9z M65.4,158.1c-0.5-0.6-1.6-1.8-1.8-1.8c-0.3,0-0.9,0.7-0.9,1
		c0,0.3,1,1.7,1.3,1.8C64.9,159,66.4,159.1,65.4,158.1z M68.6,158.3c-0.1-0.3-3.1-3.5-3.3-3.5c-0.3,0-0.9,0.6-0.9,0.9
		c0,0.2,1,1.5,1.9,2.5c0.5,0.5,0.5,0.5,1.1,0.5C67.9,158.6,68.7,158.7,68.6,158.3L68.6,158.3z M74,157.6c0-0.7-0.3-1-1.7-2.5
		c-0.5-0.5-1.3-1.5-1.9-2.1c-1-1.2-1.5-1.5-1.9-1.5c-0.3,0-0.8,0.5-0.8,0.9c0,0.2,2.5,3.1,4.8,5.6c0.5,0.5,0.7,0.7,1.2,0.4
		C74,158.2,74,157.8,74,157.6L74,157.6z M70,149.8c-0.5,0.4-0.7,0.6-0.7,0.9c0,0.4,4.4,5.3,4.8,5.3c0.2,0,0.2,0,0.3-0.6
		c0.3-1.6-0.2-2-1.3-3.1C72.3,151.6,70.8,149.2,70,149.8L70,149.8z M77.7,146.5c-1.2-1.5-1.9-2.1-2.2-2.1c-0.2,0-0.4,0.2-0.7,0.5
		c-0.5,0.4-0.4,0.4-0.1,0.9c0.2,0.3,0.6,0.8,0.9,1.2c0.7,0.7,1,0.9,1.3,0.6C77.3,147.3,78,146.9,77.7,146.5L77.7,146.5z M77.1,142.9
		c-0.3,0-0.8,0.5-0.8,0.8c0,0.2,1,1.5,1.7,2.1c0.6,0.5,0.8,0.6,1.2,0.3c0.3-0.4,0.2-0.8,0-1.1C78.7,144.4,77.6,142.9,77.1,142.9
		L77.1,142.9z M80.5,143.2c0-0.4-1.3-2.1-1.7-2.2c-0.3,0-1,0.8-1,1.1c0,0.2,0.3,0.6,0.7,1.1c0.9,1,1.1,1.3,1.3,1.1
		C80.2,144.1,80.5,143.7,80.5,143.2z M81.9,141.4c0.1-0.4-0.1-0.7-0.6-1.4c-0.6-0.8-0.9-0.8-1.5-0.2c-0.2,0.2-0.3,0.4-0.3,0.5
		c0,0.3,1.3,2,1.6,2C81.6,142.3,81.7,141.8,81.9,141.4L81.9,141.4z M79.6,145.5c-0.1,0.5-0.3,0.9-0.9,1.1c-4,2.9-3.9,7.6-4.7,11.9
		c-6.5-0.1-16.8,2.6-16.7,2.7l34.5-34.8c0,0,0.4,0.1,0.2,0.4c-2.8,2-2.6,5.9-4.5,7.9C84.5,138.5,81.6,141.8,79.6,145.5L79.6,145.5z
		 M60.9,159.8c0.1-0.4-0.3-0.5-0.6-0.2c-0.3,0.3-0.2,0.6,0.3,0.5C60.8,160.1,60.9,160,60.9,159.8L60.9,159.8z M71.5,158.3
		c0.1-0.3-0.2-0.6-2-2.7c-1.9-2.1-2.3-2.6-2.6-2.6c-0.3,0-0.9,0.7-0.9,1c0,0.1,0.3,0.5,0.7,0.9c0.4,0.4,1,1.1,1.5,1.7
		c0.8,0.9,1.2,1.4,1.5,1.6c0.3,0.2,0.5,0.2,1,0.2C71.3,158.4,71.5,158.5,71.5,158.3z M74.7,151.8c0.1-0.4,0.3-0.8,0.3-0.9
		c0-0.3-2.4-2.7-2.8-3c-0.5-0.3-1.4,0.7-1.2,1.3c0.1,0.2,0.8,1,1.6,1.8c1,1.1,1.5,1.6,1.7,1.6C74.5,152.6,74.6,152.3,74.7,151.8
		L74.7,151.8z M75.7,149.2c0.2-0.3,0.3-0.6,0.3-0.7c0-0.2-0.4-0.7-1-1.3c-1.1-1.2-1.3-1.3-1.9-0.8c-0.6,0.6-0.4,0.8,0.6,2
		C75.1,149.8,75.2,150,75.7,149.2L75.7,149.2z M84.7,137.9c0.4-0.5,0.4-0.7,0-1.1c-0.2-0.2-0.4-0.4-0.5-0.6
		c-0.3-0.4-0.8-0.3-1.2,0.2c-0.2,0.2-0.4,0.5-0.4,0.6c0,0.1,0.2,0.4,0.5,0.7C83.9,138.4,84.3,138.5,84.7,137.9L84.7,137.9z
		 M86.1,136.1c0.3-0.4,0.1-0.9-0.4-1.3c-0.5-0.4-0.7-0.5-1-0.1c-0.4,0.5-0.4,0.7,0.1,1.2C85.4,136.5,85.8,136.6,86.1,136.1
		L86.1,136.1z M87.2,134.7c0.4-0.4,0.4-0.7,0-1.1c-0.3-0.4-0.6-0.5-1-0.3c-0.6,0.3-0.5,0.8,0.1,1.4C86.7,135,86.9,135,87.2,134.7
		L87.2,134.7z M60.9,208.9c7.1,0.8,14.7,1.3,28-0.7l0.1-4.5c-4.2,3.3-9.7,1-10-2.7c0-3.3,0.9-7.2,1.6-9.9c0.6-2,0.7-2.8,0.2-3.2
		c-1.2-0.7-3.2-0.7-3.7-2.1c-0.3-0.7-0.3-1.5,0.1-0.9c0.2,0.3,1.5,0.9,2.5,1.1c1.8,0.4,2.1,0.5,2.3,1.3c0.1,0.5-0.2,2.1-0.6,3.6
		c-0.3,1-0.7,2.7-0.7,3.1c0,0.4,0.3,0.4,0.6,0.3c0.1,0,0.8-0.7,1.2-1c1.7-1.6,2.2-1.5,0.8,0c-0.6,0.6-1.4,1.4-1.4,1.5
		c0,0.3,0.3,0.3,1,0c1-0.4,3.4-0.3,4.5,0.2c1.3,0.7,1.4,0.6,1.4-1.4c-0.2-3.8-0.9-8.3-2.1-11.8c-1.9-5.4-5.8-10.3-11.6-10.1
		c-7.1,0.4-11.3,3.2-16.1,6.6c2.9,6.4-1.3,11.4-2.8,12c-0.1,0.1,1.9,6.5,2.8,9.8C59.5,202.9,60.9,208.9,60.9,208.9L60.9,208.9z
		 M90.9,53.6c-0.2-0.4-4.1-13.2-5.2-18.6c-10.6-0.6-18.5-1.5-27.8,1.2c0,0-0.2,3.6-0.1,3.8c0.1,0.4,0.4,0.4,0.7,0.3
		c4.3-2.4,9-1.3,9.3,4.5c0.1,2.2-0.6,3.8-0.8,5.9c-0.1,1.9-1.6,4.3-0.7,5.7c0.1,0.2,0.7,0.5,1.6,0.9c1.6,0.7,2.2,1.3,2.3,2.3
		c0.2,0.7-0.3,1.2-0.4,0.5c-0.1-0.5-0.2-0.9-2.1-1.5c-1.9-0.7-2.4-1.4-2.6-1.8c-0.3-0.6-0.2-0.9,0-1.8c0.5-1.9,1-3.8,1-4.7
		c0-0.3-0.4-0.2-0.8,0.2c-0.6,0.5-3.1,2.1-3.1,2.1c0,0,0.4-0.7,1.1-1.4c0.8-0.8,1.9-1.8,1.9-2c0-0.3-0.1-0.1-0.9,0.1
		c-1.4,0.4-3.1,0.3-4.2-0.2c-0.9-0.4-1.6-0.7-1.7-0.4C58,54.5,58.8,60.4,61.2,65c2.1,4.2,6.6,9.4,13.3,8.2
		c6.9-1.2,13.6-6.8,13.4-6.8C85.3,60.6,88.3,56.2,90.9,53.6L90.9,53.6z M36.1,209.3c-3.1-3.1-10.8-6.4-16.1-7.9
		c-0.4-0.1-0.8-0.3-0.8,0.2l-0.1,10.5L9.5,221v4.2h20.4l13.4-19.6c0,0,0.6-0.1,0.7-0.2c-2.5-10.4-6.1-18.7-8.5-22.9
		c0,0.1-3.4,2.8-6.4-0.6c-1.7-1.9-0.7-5.2,0.9-6.4c-1.3-1-4.1-2.8-6-3.3c-0.4-0.1-0.9,0.7-1.1,1.4c-0.3,1.1-0.9,2.1-1.3,3.3
		c-0.4,1-0.8,1.1-1.4,0.8c-1-0.3-1.2-0.4-1.2-0.4l0,12.4C26.4,192.2,33.9,198.7,36.1,209.3L36.1,209.3z M66.5,76.9l2.2-2.4
		c-3.4-0.4-7-1-11.2-2.4C60.4,74.3,63.4,75.7,66.5,76.9z M54.6,70.2c3.8,1.3,8.7,4.3,14.7,3.1c-5.5-2.2-9.7-7.3-11.5-17.7
		c-0.4,2-1.2,6.2-2.5,6.7c-1.8-6.9-9-2.9-6.1,2.7c-7.3,5-16,7.8-23.9,11.7c0,0-1.2,3.7-7.1,8.7c-1.1-5.9,0.2-14.6-0.5-20.5l-9.3-8.8
		c0.1,1.7,0.1,2.7,0,4.7c0.3,0.3,0.6,0.5,1,0.7c0.6,33.9-0.2,67.4-0.2,98.2c-0.1,18.9,0.4,38.5,0.1,56.3L9,216.7l0,4.3l9.5-9.1
		c0,0-0.4-6.4,0.1-11.3c6,1.2,11.6,4,16.6,7.1c0.6,0.2-3.1-12.3-16.6-17.9c0,0,0-3.9,0-12.4c0-8.2-0.1-9.1-0.3-9.2
		c-0.5,0.6-7.4,2.9-7.8,2.5c0.2,0.1-1.9-14.5-0.1-16.7l6.6,0.1c1.9,1.5,1.1-0.3,2.2-0.6c0.7-0.2,3.7,1,3.7,1
		c12.6-14.9,11.3-39.3,2.3-53.1c-2.3,1.9-4.8,4.4-7.1,5.5c0-0.1,0-7.6,0-7.6c12-7.7,25.1-30.1,24.3-30.2c0,0,3.7,3.6,5.2,5.7
		L35.6,92.1c2.7,5.5,5.5,10.4,7.3,15.3c0.2,0.7,1,0.6,1.2,1.3c0.2,0.6-0.6,1.4-0.5,2c2.5,9.6,3.1,19.8,0.6,29
		c-0.5,2.1,0.4,3.8,1.7,5.3c0.1,0.1-1.2-1.1-1.3-1.2c-0.4-0.3-1.2,0.7-1.3,1.8c0.1,0.7,0.5,0.9,1,1.4c0.9,0.8,4.6,4.3,6.2,6
		c1.4,1.5,1.8,1.5,2.8,0.5c0.3-0.3,0.6-0.6,0.8-0.8c0,0.1,0.4-0.3,0.5-0.4L76,131.4c2.5-2.4-21.4,22-21.4,22S43,164.8,40.1,167.6
		c-2.9,2.9-3.3,3.5-3.4,3.7c-0.2,0.4,0.9,0.4,1.5,0.3c0,0-0.4,0.1-0.9,0.1c-3-0.4-4,2.7-5.9,3.3c-5,3.6-1.6,9.3,3.2,7.4l1.2-0.6
		c2.9,5.4,7.1,15.3,9.1,23.9l-0.8,0.4l-12.7,19h71.9c-5.2-5.1-9.6-11.5-14-16.2c-7.2,2.1-28.9,1.7-28.5,0.8c0,0-3.3-13.3-5.1-19.8
		c5.9-5.1,5.3-13-3.3-16.6c6.2-4.9,12.5-6.6,18.6-7c2,5,6.6,5.4,8.8,0.7c0-0.1,8.3,2.5,11.3,5.3c-4.5-0.5-9-1.4-13.5-1.6
		c4,1.6,8,5.7,9.3,10.4c0.6,1.7,1.6,7.2,1.9,7.2c0,0,1.5-6.4,2.7-6c3,6.2,8.1,1.5,5.9-3.4c7.6-3.6,16.1-7.7,23.1-11
		c2-3.1,7-8.9,7.4-8.9c0,0,9.2-52.8,9.2-70.4c-0.3-21.2,0.4-44.8-0.5-64.7v-5.7H117l-13.9,20.4c0,0-0.1,0.3-0.1,0.5
		c1.9,8.2,4.3,15.3,8.1,22.9c5.3-4,9.7,2.6,5.8,6.4c-0.7,0.7-0.5,0.9,0.2,1.4c0.7,0.5,5.7,3,6,3c0.9-1.3,1.2-3.3,1.8-4.8
		c0.2-0.6,0.6-0.6,1.5-0.5c1.1,0.1,1.1,0.6,1.1-6.5l0-6.1c-6.8-3.1-15.7-11-16.1-19.2c3.9,2.8,12.9,7,15.3,7.3
		c1.1,0.3,0.9-1.5,0.9-2.3c0.3,0.2,0.4,3,0.4,3c-4-1.2-6-1-15.9-6.7c1.7,8.1,9.8,14.5,15.7,17.4c0,0,0.2,3.8,0.2,8.1
		c0,13.1,0.1,13.7,0.1,13.7c0,0,3.2-0.8,4.1-1.3c1.6-1.3,4.2-0.3,4.5,0.6c0.5,5,0,9.5-0.1,14.3c-2.7,0.2-4.2,0.8-5.6,0.8
		c-0.9-0.1-1.4-0.1-1.9-0.6c-1.3-2.8-1.2-1-1.4,1.1c-0.1,0.6-3.4-0.5-3.7-0.7c-14.1,16.3-12.9,35-3.3,52.4c1.6-1.1,4.3-3.1,7-4.5
		c0.1,2.2,0.1,6.8,0.1,6.8c-11.1,8.1-24.3,29.6-23.9,29.7l-4.5-5.4c0,0,2.8-4.5,3.8-5.7c0.1-0.1,0.2-1.5,0.2-1.5l6.9-9.9
		c-2.9-6.6-6.9-11.7-8-18.2c-4.6-20.7,0.4-31,0-31.8c0,0-0.1-0.4-0.2-0.5c-0.2-0.1,0-0.2,0.2-0.5c0.3-0.6,0.8-1.8,0.7-2.1
		c-0.1-0.3-3.8-4-7-7c-1.7-1.6-1.6-1.8-2.5-0.9c-0.3,0.3-1.1,1.3-1.1,1.3c-11.5,10.7-20.6,20.4-32.2,31.7l-0.6-0.5
		c16.8-16.7,33.8-33.3,50.4-50.1l-2.9,0c0.1-0.2,0.2-0.4,0.4-0.5c1.6,0,3.2-0.5,4.3-1.1c2.4-1.8,5.8-4.1,6-6.5
		c-0.2-4.5-3.9-5.1-6.7-2.9c-3.8-6.8-6.8-15-8.4-22.7c-0.1-0.4-0.6-1-0.7-1.5c0.8-2.5,13.7-20.1,13.7-20.1H43.5l13.8,16.4
		c0-0.7,19.6-3,28.6-0.2l5.5,19.4c-5,4.8-6.4,12.7,2.7,16.8c0.2,0.4-0.9,1-0.9,1c0.1-0.2,0.4-0.5,0.3-0.7c-2.5-1.1-5.1-3.8-5.1-3.8
		c-5.5,4.3-10.6,6.7-15.7,6.9c0,0,2.7,1.8,3.2,3.8c0,0-0.2,0-0.3-0.1c-0.5-0.7-1.8-2.8-2.9-3.5c-1.8-0.4-2.9-0.1-4.3,0.9l-1.9,1.8
		C62.1,75.7,57.3,73.5,54.6,70.2L54.6,70.2z M53.9,117.8l2-2c0.2-1.5,0.6-3.3,2.3-5.4c1.9-2.3,4-4.4,5.5-6.4
		c1.8-2.4,2.8-4.6,2.4-5.6c2.7-0.5,5.2-2.9,5.3-7.3c0-2.3,1.1-5.7,1.2-5.6c0,0,19.1-0.7,32.2-13.2c0,0,0.9,0.2,0.7,0.4
		c-5,5-10.3,8.7-16.5,11l-34.5,34.5L53.9,117.8z M57.7,113.8c0.5-0.5,0.6-0.7,0.3-0.9c-0.4-0.4-1.3,0.4-1.3,1.2
		C56.7,114.5,57.1,114.4,57.7,113.8L57.7,113.8z M59.5,112.1c0.4-0.4,0.4-0.7,0.1-1c-0.5-0.5-1.1-0.2-1.4,0.6
		C57.9,112.4,58.8,112.7,59.5,112.1L59.5,112.1z M61,110.5c0.2-0.2,0.4-0.5,0.4-0.5c0-0.3-0.7-0.9-0.9-0.9c-0.4,0-1,0.6-1,1
		c0,0.3,0.7,0.9,1,0.9C60.6,110.9,60.8,110.7,61,110.5z M62.5,107.5c-0.5-0.4-0.8-0.4-1.2,0c-0.5,0.5-0.4,0.9,0.1,1.4
		c0.4,0.4,0.6,0.4,1.1,0C63.1,108.5,63.2,108.1,62.5,107.5z M64.3,107.3c0.5-0.4,0.4-0.8-0.1-1.3c-0.6-0.6-1-0.6-1.4,0
		c-0.2,0.2-0.2,0.5-0.2,0.5c0,0.2,1,1.1,1.2,1.1C63.9,107.6,64,107.4,64.3,107.3L64.3,107.3z M65.9,105.6c0.4-0.5,0.4-0.8-0.2-1.4
		c-0.5-0.5-0.9-0.6-1.3-0.2c-0.5,0.4-0.4,0.9,0.2,1.4C65,106,65.5,106.1,65.9,105.6z M67.8,103.7c0.3-0.3,0.2-0.3,0-0.7
		c-0.3-0.6-1.4-1.5-1.6-1.5c-0.4,0-0.7,0.6-0.7,1.2c0,0.6,0.3,0.8,1,1.4c0.5,0.4,0.3,0.4,0.7,0.2C67.4,104.1,67.7,103.9,67.8,103.7
		L67.8,103.7z M69.3,102.3c0.7-0.8,0.6-0.9-1.1-2.7c-0.6-0.6-0.7-0.7-1.1-0.6c-0.4,0-0.4,0.1-0.6,0.5c-0.4,0.7-0.1,1.1,0.9,2.2
		C68.6,102.9,68.7,103,69.3,102.3z M71,100.5c0.3-0.2,0.4-0.5,0.4-0.7c0-0.3-1.3-1.8-1.8-2c-0.3-0.2-0.7-0.1-1.1,0.3
		c-0.3,0.2-0.3,0.3-0.2,0.5c0.1,0.4,1.8,2.2,2.1,2.2C70.5,100.8,70.8,100.7,71,100.5z M72.7,98.9c0.3-0.3,0.5-0.6,0.5-0.8
		c0-0.3-1.4-2-1.9-2.2c-0.4-0.2-0.6-0.1-1,0.4c-0.4,0.6-0.3,0.9,0.6,1.9c0.8,0.9,1.1,1.2,1.2,1.2C72.2,99.3,72.4,99.2,72.7,98.9z
		 M74.3,97.2c0.4-0.2,0.8-0.7,0.6-1.1c-0.2-0.4-2.7-3-3-3.2c-0.5-0.3-0.5,0.1-0.5,1.4v0.7l1.2,1.1C74.2,97.8,73.9,97.4,74.3,97.2
		L74.3,97.2z M76.3,95.3c0.2-0.2,0.4-0.5,0.4-0.7c-1-1.3-4.1-5.3-4.6-5.1c-0.1,0-0.1,0-0.1,0.1c-0.1,0.4-0.2,1.2-0.1,1.9
		c1,0.9,3.2,3.9,3.7,4.1C75.9,95.8,76,95.6,76.3,95.3L76.3,95.3z M77.9,93.6c0.2-0.2,0.3-0.4,0.3-0.6s-0.3-0.5-0.7-1
		c-0.4-0.4-1.1-1.3-1.6-1.9c-2.8-3.6-3.1-3.8-3.5-3.5c-0.3,0.2-0.4,1.1-0.2,1.4c0.2,0.5,3.4,4.3,4.4,5.3
		C77.3,94,77.4,94.1,77.9,93.6z M79.6,92c0.2-0.2,0.4-0.5,0.4-0.7s-0.5-0.7-0.9-1.3c-0.5-0.6-1.3-1.5-1.8-2.1
		C76,86.4,76,86.3,75,86.2c-1.4-0.1-1.3,0.2,0.4,2.1c0.4,0.5,1.1,1.4,1.7,2c1.2,1.5,1.7,2.1,2,2.1C79.2,92.4,79.3,92.3,79.6,92
		L79.6,92z M81.2,90.4c0.7-0.6,0.6-0.8-1.8-3.3c-0.8-0.8-0.8-0.9-1.5-0.9c-0.6,0-0.8,0.1-0.8,0.4c0,0.2,3.1,3.9,3.4,4
		C80.8,90.7,80.8,90.7,81.2,90.4L81.2,90.4z M83,88.6c0.2-0.2,0.4-0.5,0.4-0.6c0-0.3-0.7-1.1-1.3-1.7c-0.3-0.3-0.7-0.5-0.9-0.5
		c-0.4,0-1.1,0.2-1.2,0.4c-0.1,0.1,0.9,1.3,1.8,2.2C82.2,89.1,82.5,89.1,83,88.6L83,88.6z M84.5,87.1c0.4-0.4,0.4-0.7,0-1.3
		c-0.3-0.4-0.4-0.4-1-0.4c-1.1,0-1.2,0.3-0.3,1.2C83.9,87.3,84.1,87.5,84.5,87.1z M86.2,85.4c0.4-0.6,0.1-0.9-0.7-0.5
		c-0.2,0.1-0.3,0.3-0.3,0.4C85,85.9,85.7,86,86.2,85.4z M58.6,90.1c-1.6,1-4.3,2.9-6.1,4.2c0,0.3-0.1,1,0,1.5c1-0.7,4.3-2.8,5.9-4
		C58.5,91.4,58.6,90.6,58.6,90.1L58.6,90.1z M61.5,85.5c-0.1-0.3-0.2-0.1-0.7,0.3c-0.6,0.5-5.9,4.4-7.2,5.4c-0.5,0.4-1,0.7-1.1,0.8
		c-0.1,0.1-0.1,1.2,0.1,1.4c1.1-0.9,6.5-4.5,6.6-4.6C59.8,88,61,86.4,61.5,85.5L61.5,85.5z M60.9,97.2c0,0-6.4,7.7-8.5,11.6
		c0,0,0,4.4-0.1,6.9l-0.4,0.1c0,0,0-6.8-0.1-14.2c-0.2-18.4-0.4-22.9-0.4-22.9l-2.1-1.5l-0.1-0.7c0,0,9.3,6.5,13.8,7.5
		C59.8,89.2,56.8,91.2,60.9,97.2L60.9,97.2z M53.3,106.5c0.1-0.3,0-0.3-0.2-0.3c-0.2,0-0.3,0.2-0.3,0.4c0,0.2,0,0.3,0.2,0.2
		C53.1,106.8,53.3,106.6,53.3,106.5z M54.9,104.2c0.9-1.1,1.7-1.9,1.8-2.7c-0.6,0.1-4,2.5-4.1,2.7c0,1.3-0.3,1.4,0.8,0.9
		C53.9,104.8,54.2,104.5,54.9,104.2L54.9,104.2z M55.1,101.3c1-0.8,4.6-2.8,5-3.7c0.2-0.4-0.4-0.9-0.4-0.8c0.1,0.1-5.2,3.2-7.1,4.9
		c-0.2,0.2-0.1,0.6,0,0.9C52.8,103.1,53.3,102.6,55.1,101.3L55.1,101.3z M53.9,99.8c1.1-0.7,3.6-2.5,4.3-2.9c1.1-0.8,1.3-1,0.9-1.6
		c-0.2-0.2-0.4-0.4-0.7-0.2c-3.1,2.2-3.4,2.5-5.8,4.1c-0.2,0.4-0.1,1.1,0.1,1.3C52.9,100.5,53.2,100.3,53.9,99.8L53.9,99.8z
		 M53.9,97.5c2.9-2.1,4.4-3.1,4.5-3.3c0.1-0.3,0.1-1.2,0-1.3c-1.1,0.8-3.9,2.5-5.8,4.1c-0.1,0.3-0.1,1,0,1.2
		C53,98.3,53.1,98.1,53.9,97.5L53.9,97.5z M53.6,90c2.1-1.5,4-2.9,6.2-4.3c1.8-1.2,2.1-1.5,1.4-1.9c-0.2-0.1-0.7-0.3-1-0.2
		c-2.4,2-5.1,3.8-7.7,5.8c-0.1,0.3,0,0.8,0,1.1C52.4,90.9,52.9,90.5,53.6,90L53.6,90z M53.3,87.8c0.2-0.1,1.3-0.9,2.4-1.7
		c3.1-2.2,3.5-2.5,3.5-2.7c0-0.7-0.9-0.8-1.7-0.1c-1.5,1.2-5.1,3.4-5.1,3.8c0,0.5-0.1,0.9,0,1.1C52.6,88.4,52.9,88.2,53.3,87.8
		L53.3,87.8z M54.2,84.8c3.2-2.2,3-2.1,3-2.5c0-0.3-0.3-0.2-0.8-0.2c-0.5,0-0.5,0.1-1.3,0.8c-1.8,1.4-2.5,1.8-2.7,2.2
		c-0.1,0.1-0.1,0.6,0,0.8C52.6,86,52.9,85.7,54.2,84.8z M54.4,82.6c0.6-0.5,1.1-0.9,1.2-1c0.1-0.2-0.4-0.7-0.7-0.7
		c-0.4,0-0.7,0.2-1.6,1c-0.8,0.7-1,0.6-0.9,1c0,0.2,0,0.8,0.1,0.8C52.6,84,53,83.7,54.4,82.6z M53.1,81.2c0.7-0.6,0.8-0.7,0.3-1.2
		c-0.4-0.4-1-0.6-1.2-0.3c-0.1,0.2,0,1.4,0,1.6C52.2,81.7,52.7,81.5,53.1,81.2L53.1,81.2z M67.4,69c0-0.2,1.2-1.1,2-1.3
		c1.1-0.2,2.5-0.1,3.5,0.4c0.8,0.4,1.8,1.4,0.4,0.8c-1.2-0.6-3.9-0.6-4.9-0.1C67.8,69.2,67.4,69.3,67.4,69L67.4,69z M66.6,64.8
		c0.1-0.1,1.3,0.2,1.9,0.4c1.7,0.5,3.1,0.2,4.9-0.3c0.4-0.1,0.6,0.2,0.4,0.4c-0.9,0.6-2.1,1-3.1,1.1C68.4,66.5,66,65.4,66.6,64.8
		L66.6,64.8z M55.6,61.5c1-0.5,2.1-7.1,1.8-8.2c-1.2,1.8-2.5,2.6-4.4,2.3c-3.1-0.5-3.2-4.3-0.8-4.7c0.9-0.2,2.1,0.5,2.3,0.3
		c1-0.5,1.8-3.9,2.1-5c0.2-1.1,0.4-4.1,0.5-5c0.1-2,0-5,0-5L42,18.3H9.5c0,0-0.1,25,0,37.8l9,8.9l0.1,14.4
		C29,74.8,39,70.1,48.9,64.9c-1.1-1.4-1.1-4.8,1-6.1C52.9,56.9,55.4,59.5,55.6,61.5L55.6,61.5z M63.8,64.5c0.1-0.8,0.7-1.5,0.7-2.3
		c0-0.2,0.1-0.4,0.6-0.1c0.6,0.3,0.8,0.1,1.5-0.2c1.3-0.6,1.6-0.6,2.6-0.2c0.6,0.3,0.8,0.3,1.4,0c0.8-0.5,1.7-0.7,2.4-0.5
		c1.1,0.4,1.4,0.6,2,0.3c0.3-0.1,0.7-0.7,0.8-0.7c0.4,0.7,0.4,1.7,0.6,2.3c0.5,1,0.3,1.7-0.3,1.2c-1.2-1-2.2-1-3.9-0.6
		c-1,0.3-1.5,0.5-2.7,0.3c-3.5-0.4-3.8-0.3-4.5,0.2C64.4,64.6,63.9,64.7,63.8,64.5L63.8,64.5z M73.3,58.1c-1-0.3-2.2-1.2-3-0.9
		c-1,0.1-1.6-1.2-1.1-1.8c0.9-0.9,2.3,0,2.9,0.4c1.2,0.9,1.4,1,1.9,1c2,0,1.6-1.9,0.6-2.6c-0.6-0.6-0.6-1-0.5-1.1
		c0.2-0.2,0.8,0,1.4,0.6c1.2,1.1,1.2,3.4-0.2,4C74.4,58.1,73.9,58.3,73.3,58.1z M77.4,51.6c-0.9-0.7-2.6-2.2-3-2.7
		c-0.7-0.9-1-1.5-0.9-2.2c0.1-0.6,0.2-0.9-0.2-1.1c-0.4-0.2-0.8-1.1-0.7-1.5c0-0.1,0.5-0.1,0.7,0.3c0.3,0.1,0.3-0.1,0.6-0.4
		c3.8-2.5,6.8-2.1,10.4-0.3c1,0.5,3.8,2.6,2.3,1.9c-0.1,0-1-0.5-2-0.9c-3.1-1.5-6.6-2.4-9.4-0.5c-0.5,0.3-0.8,0.6-0.4,0.6
		c1.6-0.3,3.2-1,4.8-0.9c2.4,0,3.9,1.2,5.7,2.1c2,0.9,2.4,1.2,1.6,1.9c-0.2,0.2-0.4,0.2-1.3,0.1c-1-0.1-1.1,0-1.7,0.3
		c-1.5,1-3.5,1.5-5.2,1.4c-2.1-0.2-2.3-0.3-2.3,0c0,0.2,0.4,0.5,1,1.1c0.5,0.4,1.1,1,1.1,1.1C78.8,52.2,78,52,77.4,51.6z M76.8,48.3
		c0-0.2-0.5-1.3-0.7-1.6c-0.3-0.3-0.5-0.2-1,0.2c-0.4,0.3-0.5,0.5-0.1,0.9C75.8,48.6,76.8,48.7,76.8,48.3z M79.9,48.5
		c0.8-0.4,1.7-1.8,1.3-2.3c-0.2-0.3-0.4,0-0.9,0.8c-0.2,0.4-0.6,0.8-0.7,0.9c-0.7,0.5-1.6,0-2-1c-0.2-0.6-0.5-1-0.7-0.8
		c-0.5,0.4,0.1,2,1,2.4C78.5,48.7,79.4,48.8,79.9,48.5z M82.5,48.2c0.8-0.3,1.2-0.6,1.2-1c-0.1-0.3-0.7-0.7-1.1-0.7
		c-0.2,0-0.5,0-0.7,0.2c-0.3,0.4-0.7,1.5-0.8,1.7C81.3,48.7,81.6,48.5,82.5,48.2L82.5,48.2z M85.4,41.9c-4.2-1.6-7.5-2.3-11.5-0.5
		c-1.3,0.6-2,0.6-2.1,0.2c-0.1-0.4,0.9-1.5,1.9-2c2.8-1.3,6.1-1.4,9,0c1.1,0.5,4,2.6,4,2.8C86.7,42.5,86.4,42.3,85.4,41.9z
		 M134.7,89.1c1-0.5,1.5-1.6,0.8-2.2c-0.2-0.2-0.4-0.2-0.6-0.2c-0.4,0-3,0.7-3.5,1c-0.3,0.2-0.2,0.5,0.1,0.8
		c0.1,0.1,0.3,0.4,0.3,0.7c0,0.4-0.1,0.8,0.2,0.7C132.5,89.8,133.4,89.7,134.7,89.1L134.7,89.1z M130.9,90.1
		c0.3-0.5,0.2-1.2-0.6-1.7c-0.4-0.2-0.7-0.1-1,0.4C128.6,90.1,130.4,90.7,130.9,90.1z M127.2,90.7c0.2-1.7,0.1-6.9,0.1-6.9
		s-0.9,0.8-1.5,0.8c0.2-0.8,0.5-1,0.8-1.8c0.2-0.8,0.3-2.2,0.2-2.9c-0.1-0.9-0.7-0.9,0-2.4c0.3-0.8,0.4-1.6,0-2.6
		c-0.2-0.5-0.2-0.8,0.2-1.4c0.4-0.6,0.3-0.9,0.3-2c0-1.6,0-1.9-0.5-0.6c-0.7,1.1-1.1,0.9-2.2,0.8c-1.1,2.5-2.4,5-2.4,7.2
		c0,1.3,0,1.5,0.8,4.3c0.3,1,0.4,1.4,0.4,2.6c0,1.2,0.1,1.6,0.3,2.3C123.9,89.3,125.2,91.2,127.2,90.7L127.2,90.7z M89,201.5l0-2.5
		c0,0-4,1.2-6,0.5c-2.1-0.6-2.1-0.7-2-0.4c0.1,0.4,1.6,1.2,3,1.5c1,0.2,3,0,4-0.3c0.6-0.2,0.6,0,0.4,0.2c-2.4,1.9-5.5,1-7.4-0.6
		c-1-1-1.7-1-1.2,0.3C82.5,205.6,89.1,202.4,89,201.5L89,201.5z M86.3,197.8l0.9,0c0,0-0.3-1.6-0.7-2c-1-0.9-2.3-0.8-3.2,0.1
		c-0.4,0.4-0.7,1.9-0.7,1.9l0.7,0C83.6,197.1,84.8,193.9,86.3,197.8L86.3,197.8z M82.7,195.4c-0.5-0.1-1.6,0.4-2.2,0.7
		c-0.2,0.2-0.2,0.3,0,0.6c0.5,0.7,1.3,1,1.4,0.8C82.2,197.1,82.8,195.6,82.7,195.4L82.7,195.4z M88.7,197.2c0.1-0.5-0.3-1.3-1-1.6
		c-0.3-0.1-0.6-0.1-0.5,0.2c0.1,0.4,0.3,1,0.5,1.4c0.1,0.3,0.2,0.5,0.5,0.4C88.4,197.5,88.6,197.4,88.7,197.2L88.7,197.2z
		 M127.3,164.3l0-4.2c-2.1,2.1-4.9,5.7-5.7,7.1L127.3,164.3z M62.6,48.8c0.9-0.4,1.6-1.6,1.3-2.1c-0.1-0.4-0.5-0.1-0.9,0.5
		c-0.6,0.9-0.8,1-1.3,1c-0.6,0-0.8-0.1-1.2-0.9c-0.3-0.7-0.5-0.8-0.7-0.5c-0.1,0.1-0.1,0.3,0,0.9C60.3,48.9,61.4,49.3,62.6,48.8z
		 M65.1,48.3c1-0.3,1.2-0.5,1.2-0.8c0-0.3-0.8-0.8-1.3-0.7c-0.3,0.2-1.2,1.5-1.1,1.8C63.9,48.8,64.3,48.6,65.1,48.3z M59.4,47.8
		c0-0.3-0.1-0.6-0.2-0.7c-0.3-0.4-1-0.1-1,0.4c0,0.4,0.5,0.8,1,0.8C59.5,48.2,59.4,48.3,59.4,47.8z M65,45.2
		c1.4,0.5,2.1,0.6,1.4-0.1c-1.1-1.2-5.9-2.5-8.5-0.6c-0.2,0.3-0.1,1.3,0.1,1.2C60,44.3,62.7,44.4,65,45.2L65,45.2z M60.1,41.2
		c-1.2,0.4-2.3,1-2.4,1.6c-0.2,0.9,0.2,0.9,1.7,0.5c2-0.7,4.2-0.4,5.9,0.6c1.3,0.9,1.7,0.6,1.5-0.2C66.1,41.1,62.1,40.6,60.1,41.2
		L60.1,41.2z"/>
	
		<path id="path6265-7_1_" class="st2" d="
		M136.4,24.4l-8.7,8.7l0.1,10.3c0.9,1.6-13.5-4.6-15.8-6.5c0.3,6.9,9.6,14.7,15.7,17.5l0.2,21.9c2.5-1.3,5.6-2.1,7.8-2.3
		C136.9,59.1,137.9,39.7,136.4,24.4z M87.8,35.1c-0.9,0-1.4,0.2-1.4,0.8c-0.3,0,3.2,12.8,4.8,18.2c-3.1,3.1-6.3,8.5-1.7,13.6
		c1,1.1,2.8,2,4.5,3c0.8,0.7-9.4,7.3-18.4,7.3c-2.9-6.4-6.9-2.8-9.2-0.6c-1.7-0.2-8.2-4-11.6-6.2c-0.1,0,0-1,0-1.1
		c0.2,1.5,13,4.8,13.6,3.3c-0.4,0-5.7-3.6-7.3-7.2c-2-4-3.5-9.6-3.5-9.6c-0.7,2.1-0.5,4.9-2.4,5.9c-0.6-6.7-10.1-3.3-5.4,3.3
		c-2.7,0.8-5,2.2-7.5,3.3c5.4,7.4,12.9,12.3,20.8,15.2c-1,2.2-7.2,7.2-2.1,13.1c0.2,0.2-4.8,5.7-7.3,10c-1.9,3.2-1.3,5.7-1.1,5.8
		c6.8-7.8,10.7-14.5,10.7-14.5c-0.1,0.9,8.1,0.4,8-6.9c0.2-2,0.5-4.1,1.3-6c12.5,0.6,23.2-3.9,32.3-13.2c0,0,1.8,0.5,3,0.7
		c3.2-0.1,5-1.7,6.5-3.2c1.4-1.1,2.7-2.2,3.2-3.3c1.8-7.7-6.1-4.7-6.4-4.3c-4.5-6.1-8.3-23.4-8.9-23.5C99.7,38.3,91.1,35,87.8,35.1
		L87.8,35.1z M57.1,46.9c-0.3,0-1.5,5.4-2.6,5.3c-4.5-2.9-4.6,3.1-0.7,2.8C57,54.8,58.9,49.5,57.1,46.9
		C57.1,46.9,57.1,46.8,57.1,46.9L57.1,46.9z M9,57c0.1,32.6,0.7,65.1,1.5,97.7c2.9-0.7,5.1-1.3,8,0c0.3-9.3-0.5-32.6-0.3-55.2
		c11-8.6,18.7-18,24.1-30.3L25.4,77c0,0-5.5,7.9-7.2,8.4c-0.2-1.1-0.5-14.4-0.3-20.1L9,57z M46.3,77.2L43,82c0,0,0.1,16.4,0.3,24.3
		c0.1,1.6,1.6,3,0.4,4.4c0.7,0,3.7,21.3,0.8,29.9c-0.5,1.5,0,2.6,0.8,3c4.1,4.6,6.4,9,11.9,6.4c5.9-5.4,14.4-15,14.4-15l-22.3-21.1
		C47.3,108.7,46.3,77.2,46.3,77.2L46.3,77.2z M127.7,145.6c-10.1,9.1-19.4,18.4-23.2,29.7c5.4-2.2,10.6-4.8,15.9-7.3
		c2.6-3.1,4.5-6,7.4-9c0,0,0.3,13.3,0.1,20c2.6,2,8.9,8.1,8.9,8.1c0,0,1.7-94.8-2-97.2c-3.6,0.7-5.4,2-6.8-2.2
		C127,107,127.7,145.6,127.7,145.6L127.7,145.6z M92.5,92.2c-3.9,3.2-17.3,16.4-17.3,16.5c3.6,6,17.6,17.9,24.3,24.6l1,34.1
		c1-1.3,1.7-2.6,2.8-3.9c0,0-0.2-17.2-0.6-25.3c-0.1-2.4-0.7-4.3-0.5-4.5c-1.9-9.8-2.7-20.7,0-31.2C95.9,97,93.9,93.3,92.5,92.2
		L92.5,92.2z M93.6,131.1C93.6,131.1,93.6,131.1,93.6,131.1C90.3,135.8,84,146,83.5,146c-0.1-0.3-6.5,0-7.7,4c-1,3-1.1,5.7-1.8,8.8
		c-12.8-0.4-22.1,3.6-32,12.7c-4.8,0-8.4,1.1-10.1,3.1c-2.5,1.8-3.2,3.4-3.1,5.3c0.2,3.4,6.3,3.9,6.6,1.5c0.3,0,5.9,12.9,6.5,15.1
		c1.3,3.5,2.7,10.2,2.9,10.2c2.3,0.1,15,3.7,15,2.4c1.2-0.5-4.4-18.9-4.4-18.9c9.8-8.2-1-17.1-3.6-16.7c5.6-4,12-6.7,19.1-7
		c1.1,3.9,6.2,6,8.7,0.7c0,0,11,3.9,11,5.2c-4.5-0.7-8.3-1-12.8-1.5c8.7,4.7,9,10.9,10.7,17.1c0.2-1.1,2.5-5.9,2.5-5.9
		c2.9,6.5,8.6,2,6.2-3.3l7-3.2c0.8-0.4-10.4-13.1-20.6-14.8c0.5-0.9,0.7-1.8,1.2-2.6c2.6-2.5,4.5-6.2,0.6-10.6
		c2.6-3.6,8.6-12.3,8.2-12.5C93.8,135.1,93.9,131,93.6,131.1L93.6,131.1z M9.6,171.3c-0.1,0-0.3,30.3-0.1,45.3
		c-0.3,0.6-0.4,3.9-0.4,3.9l9.3-8.7l0.3-11.3c2.4-0.6,17.6,7.1,16.4,7.1c1.2-0.5-7-15.9-16.5-17.6c-0.2-8.7-0.3-18.6-0.5-21.2
		C14.8,169.4,9.6,171.3,9.6,171.3z M92.2,189.5c-2.6,0.8-3.7,6.3-2.8,8.9c0.2,0.5,0.1,0.6,0.5,0.1c1-1.5,0.7-4.5,2.5-6
		C97,193.9,96.6,187.8,92.2,189.5z"/>
	
		<path id="path6267-4_1_" class="st0" d="
		M31.9,225.2l12.3-18.6c14.7,4.9,29.7,5,44.9,2.6l13.6,16h-5.5L88.6,213c-3.1,0.7-6.3,1-9.5,1.5l4,10.7h-4.3l-3.1-10.6
		c-7.4,0.3-12.4-0.4-17.5-1l-1.8,11.6h-4.4l3-12c-3.5-0.7-7-1.2-9.9-2.1l-9,14.1H31.9z M46,214.2l5.1,1.4l-2.5,9.6l-9.4,0L46,214.2z
		 M59.2,225.2l1.4-8.5c3.4,0.7,7.9,0.8,12.6,0.8l2.2,7.7H59.2z M83.4,217.4l4-1.1l6,8.9h-7.3L83.4,217.4z M24.6,163.6
		c19.7-22.9,17.1-46.9,6.2-66.3l2.3-2.4c12.6,20.7,15.2,50-7.9,72.8C24.9,166.3,24.6,163.6,24.6,163.6z M103,137.9
		c2.8,4.8,4.6,9.7,7.5,14.5l-7.1,9.6L103,137.9z M18.4,153.1c-0.2-15.1,0-45.7,0-45.7l6.6-5.1c7.9,9.6,12.3,35.1-2,52
		C22.1,153.5,19.2,153.8,18.4,153.1L18.4,153.1z M112.6,150c-18.2-30.7-8.9-53.2,8.7-73.1c0.1,1.5,0.1,3.1,0.2,4.6
		c-15.1,17.3-21.1,42.8-6.3,65.9L112.6,150z M79.7,145.5l8.3-11.3c0,0,1.6-4.5,2.9-5.8l1.5-1.3c0.5,0.5,1.5,1.5,1.5,1.5l-0.9,3.5
		c-3.1,4.7-6.3,9.5-9.7,14.2C83.3,146.3,80.4,145.7,79.7,145.5z M123.8,90.7c0.3-0.3,3.6,1.1,3.6,1.1l0.2,46.4l-6.6,4.2
		C119,143.4,104.1,112.9,123.8,90.7L123.8,90.7z M54.4,110.3c3-4.1,6.2-7.6,9.1-11.4c0.8,0.3,2.7,0.3,2.7,0.3
		c0.2,0.1-0.7,3.1-2.8,5.2c-5.9,7.1-7.2,8.4-7.5,11.3c-0.1,0.9-2.2,2-2.2,2l-1.5-1.6C52.7,113.8,53.4,112,54.4,110.3L54.4,110.3z
		 M35.7,92.4l6.8-8.9l0.5,23.1L35.7,92.4z M57.3,34.7L44.2,18.3h6.3l7.8,11.6l9.3-1.1l-3.3-10.5h3.9l2.7,10.3
		c5.7,0.1,11.3,0.6,16.7,1.1l2.8-11.5h3.9l-3.6,12l10.5,2.8l9.4-14.8h4.7l-13.3,19.1C84.7,32.2,70.8,32.8,57.3,34.7L57.3,34.7z
		 M94.9,27.8l3-9.5l8.9,0L100,29.2L94.9,27.8z M73.4,25.5l-1.9-7.2h15.7l-2,8C81,25.7,77.2,25.5,73.4,25.5L73.4,25.5z M54.6,18.3
		h6.3l2.4,7.4l-3.6,0.4L54.6,18.3z"/>
	
		<path id="path6269-8_1_" d="
		M42.1,17.3l15.1,18.1c3.2-1.1,19-2.9,28.6-0.8c1.7,6.5,3.4,13.1,5.3,19c0,0-0.6,0.7-1,1.1c-6.1,7-1.8,13.8,3.8,16
		c-1,2.1-11.7,7.3-18.2,6.7c0-0.1-2-4.8-6.1-3.2c-1.4,0.5-2,1.6-3,2.6c-3.9-1.2-9-3.7-11.7-6.5c5,2.5,9.9,3.8,14.8,3.2
		c0,0-0.6-0.5-1.3-0.8c-0.4-0.2-1.4-0.8-2.2-1.3c-2.3-1.5-3.8-3.4-5.4-6.6c-1.8-3.2-2.1-6.7-3.1-9.8c-0.5,1.6-0.8,5.7-2.1,6.6
		c-0.4,0.2-0.4,0.2-0.7-0.7c-1-3.2-4.9-2.8-6.1-0.5c-0.6,2-0.5,2.8,0.3,4.6l-2.3,1.3v0.4l-1.4,0.7L45,67.1
		c-6.6,3.2-13.1,6.5-19.9,9.6c0,0-3.6,6-6.9,8.3l-0.1-20.3L8.4,56l0,4.8c0,0,0.5,0.5,0.7,0.7c0.1,33.9,0,67.3,0,98.2l0,28.4l-0.6,0
		l0,3.3l0.7,0.2L9,196.2l-0.3,0l-0.1,3l0.5,0.1l0,16.7l-0.5,0.7l0,4.8l10.2-9.7l0.2-11c8,1.5,16.4,7.3,16.4,7.3
		c-1.4-9.2-11.2-16.8-16.8-18.3l0-21.8c0,0-4.2,1.7-6.2,2c-1,0.1-1.4,0-1.9-0.7c-0.4-0.5-0.4-1,0-2.1c0.1-0.5,0.1-0.7,0-1.2
		c-0.3-0.7-0.3-1.1,0-2.4c0.3-0.8,0.2-1.2-0.1-1.9c-0.3-0.8-0.3-0.9-0.2-1.3c0.3-1.1,0.4-1.3,0.2-1.8c-0.4-1-0.4-1.7,0-2.4
		c1.5-2.5,4.9-1.9,6.7-1.8c0.9,1,1.5,1.6,1.6,0.1c0.6-1.8,3.2,0,4.3,0.8c10-13.4,14.9-31.5,2.4-54.2l-7,5.6l0-7
		c9.2-5.9,19.6-19.5,24.1-30.1c1.5,1.8,3.2,3.5,4.8,5.3l-1.1,1.8l-0.3-0.2C43.1,81.8,35.3,92.1,35.1,92c2.9,5.3,5.4,10.7,7.6,16.2
		l0.6-0.3l0.5,1.6l-1,0.3c3.4,11.2,3.5,21.6,1,31.1l0.6,2.5c0,0,3.6,3.5,4.6,4.5c2.5,2.5,5.4,5.2,5.4,5.2l3.3-3.2l-0.2-0.3
		l28.9-28.7l1.8,1.7c-17.7,17.8-48.4,48.6-48.4,48.6l-1.1,0.2c-0.6,0.1-1.5,0.1-2.1,0.1c-0.9-0.1-1.1,0-1.8,0.3
		c-0.8,0.4-1.5,1-2.5,2.1c-0.4,0.5-0.7,0.7-1.2,0.9c-6,3.6-0.6,10.8,4.5,7c3.8,7.2,6.9,15.5,8.7,23.8c0,0.1-0.7,0.3-0.7,0.3
		l-13.5,20h5.2l0.5-0.9H32l12.4-17.9c15.8,4.3,30.3,4.9,45,2.4l12.8,15.6h-5.1l0.7,0.9l6.6,0.1l-15-17.8c-5.4,1.4-19.6,2.6-28.5,1.1
		c-1.4-6.6-3.6-13.8-5.3-19.6c8.5-6.7,2.1-15.5-3.1-16.7c-0.3-0.5,10.6-7.1,18.4-6.7c2.2,5.3,7.1,4.6,8.8,0.6
		c3.2,1.2,7.4,2.4,10.7,5c-4.4-1-9.6-1.5-13.8-1.6c8,3.1,10.3,9.7,11.3,15.9c0.2,1,0.7,2.4,0.7,2.4c0.7-2.2,1.2-4.5,2.6-6.5
		c0.6,2.2,2.9,3.9,5.2,2.6c1.3-1,1.8-2.6,1.4-4.9c-0.1-0.6-0.2-1-0.2-1l1.8-1l0.2,0.2c0,0,2-0.8,2.9-1.3c0.2-0.1-0.2-0.4-0.2-0.4
		l18-8.5c-0.1,0,4.5-6.3,7.2-8.8c0.1,7.6,0.1,10.7,0.1,19.6l1,1c0.9,0.9,2.9,2.7,7.3,6.8c1,0.9,1.7,1.4,1.7,1.4l-0.1-132.1l-0.1,0
		v-2.5l0.2,0v-6.6l-0.2-0.1v-2.1l0.2-0.2l0-17.8l-0.3,0l0-4.3l-10,10.6l0.1,10c-4.5-0.6-10-3.5-13.9-5.8c-1.2-0.8-1.9-1-1.9-0.5
		c0.5,6,9.2,15.1,15.8,17.5l0,22.5c0,0,1.6-0.8,2.5-1.2l0.1,0.4l2.1-0.9l0.2-0.5l1.9-0.2c0,0.4,0.1,0.3,0.1,0.3
		c1.7,0.5,2.4,1.6,1.7,2.9c-0.2,0.4-0.3,1-0.1,1.2c0.7,1.1,0.9,2.1,0,3.2c-0.3,0.5-0.3,0.9,0,1.4c0.9,1.8,0.4,1.7-0.3,2.8
		c-0.2,0.8,0.7,1.3,0.4,2.1c-0.1,0.5-0.7,1.1-1,1.4c-0.4,0.3-0.8-0.3-0.8-0.3s-1.3,0.6-2.3,0.8c-0.9,0.3-2.6,0.9-3.1-0.4
		c-0.3-0.7-0.1-1.4-0.1-2.2l-1.4-0.2l-0.1,3.7c-0.8,0.4-4-1.2-4-1.2c-13.6,17.6-13.2,37.1-3.1,53.4c0.1,0.3,7.1-4.8,7.1-4.8
		s0,4.1,0,6.4c-8.9,7.4-17.5,17.2-23.6,29.4l-3.8-4.5c0.7-0.6,0.7-1.5,0.7-2.2l2.8-4.1l0-1.1l7.2-10c0.1,0.6-7.4-13.5-8.4-18
		l0.5-0.1c-3.4-12.8-2.7-21.7-0.2-32.1l-0.7-0.7l-9.5-9.5c-0.8,0.7-1.5,1.4-2.3,2.1c-0.1,0.1-0.7,0-0.8,0.2
		c-5,4.7-9.8,9.4-14.5,14.2c-0.1,0.1,0.1,0.6,0,0.8c-4.7,4.9-9.7,9.5-14.5,14.4l-1.8-1.7c17-17,49.1-48.6,49.1-48.6s0.1-0.3,0.4-0.3
		c0.9,0,1.7-0.2,2.6-0.5c1.1-0.2,1.2-0.3,1.7-0.8c0.3-0.3,0.7-0.7,1-0.9c0.5-0.3,1.5-1.2,3.2-2.7c1-0.9,1.6-2.2,1.6-3.3
		c0-2-1.4-3.8-3.1-4c-0.7-0.1-2.1,0.3-2.9,0.8c-0.5,0.4-0.8,0.5-1,0.4c-3.5-7-6.9-15.9-8.3-23.2c-0.1-0.5,0-0.6,0.3-1.2
		c0.2-0.4,0.7-1.2,1.1-1.8c4.3-6.7,8.8-12.4,12.6-18.6h-5.4l-0.7,1.1h4.4L102,37.2c-24.2-7.9-43.9-2.9-44.4-2.8L44.6,18.3h6
		l-0.7-1.1L42.1,17.3z M53.9,17.3l0.7,1.1h6.3l-0.4-1.1L53.9,17.3z M64.3,18.3h3.9L68,17.3h-4L64.3,18.3z M71.3,17.3l0.2,1.1h15.7
		l0.3-1.1H71.3z M90.5,18.3h3.9l0.3-1.1h-4L90.5,18.3z M98.2,17.3l-0.3,1.1h8.9l0.7-1.1H98.2z M136.4,24.6l0.1,2.9l-6.4,6.8l0,9.5
		l-1.9-0.4l-0.1-9.8L136.4,24.6z M134.6,30.8c0.1,2.9-0.4,5.7,0.4,8.6c0.4,1.5,1.1,3.2,1.2,4.9l-2.1-0.1c-0.3-0.9-0.4-1.8-0.7-2.9
		c-0.8-2.6-1.4-5.4-0.8-8.2L134.6,30.8z M88.3,35.5c0.1,0.1,0.3,1.4,0.6,2.5c1.1,6.2,2.6,10.9,4.1,15.6c1.9,5.9,4.8,13.4,7.6,16.9
		c0.4,0.4,0.6,0.9,0.4,1.1c-0.2,0.4-1.4-0.1-2.1-0.9c-0.3-0.3-0.9-1.3-1.4-2.1c-1-1.8-2.3-4.5-2.4-4.9c-0.1-0.2-0.6-1.5-1.1-2.9
		c-1-2.5-1.6-4.2-2.4-7c-0.7-2.2-1.3-4.5-2-6.8c-1.2-3.8-1.9-6.8-2.6-10.3c-0.1-0.5-0.3-1.1-0.2-1.2C87.1,35.1,88.1,35.2,88.3,35.5z
		 M89,35.8c-0.1-0.1,1.1-0.1,1.5,0.2c0.1,0.1,0.3,0.8,0.5,1.8c1.1,5.7,2.8,11.7,4.7,17.3c1.5,4.5,3.2,8.8,5.4,12.3
		c0.7,1.2,1.6,2.4,2.7,3.8c0.6,0.8,0.7,0.9,0.5,1.1c-0.2,0.3-0.6,0.2-1.3-0.1c-0.7-0.3-1.4-1-2.1-2c-0.2-0.3-0.6-0.8-0.8-1.1
		c-3.1-5.4-5-10.5-6.7-15.7C91.7,48,90.1,42.6,89,36.4C89,36.2,89,36,89,35.8L89,35.8z M92.9,36.6c0.3,0.3,0.4,0.8,0.7,1.9
		c1.3,5.3,2.4,10.1,3.9,14.4c0.8,2.3,1.5,4.7,2.4,6.9c1.4,3.5,3.1,6.8,5.3,9.4c0.7,0.9,2,2,3,2.6c0.7,0.4,0.8,0.6,0.8,0.8
		c-0.1,0.2-0.8,0.3-1,0.3c-1.2-0.2-2.9-1.1-3.4-1.8c-3.6-3.9-6.1-10.2-8-15.3c-3.2-8.9-5.8-20-5.3-19.7
		C91.3,35.9,92.6,36.2,92.9,36.6L92.9,36.6z M94.4,36.9c0.1,0,0.2,0,0.4,0.1c0.7,0.2,0.8,0.3,0.9,1c1.1,5.1,2.3,9.6,3.7,13.8
		c1.4,4.3,2.8,8.4,5,12.7c1.6,3.1,3.7,5.3,5.8,6.4c0.6,0.3,1.2,0.6,1.2,0.7c0.1,0.1,0,0.2,0,0.4c-0.1,0.2-0.2,0.3-0.8,0.3
		c-1,0-1.7-0.3-2.8-1c-2.8-1.9-5.3-6.3-6.3-8.8c-1.3-3-2.5-6.2-3.6-9.6c-2-6.2-3.2-10.2-4.1-15.4C93.9,37.1,94.1,36.9,94.4,36.9
		L94.4,36.9z M136.4,45.2l0,1.8c-7.1,0.5-14.3-2.5-20.1-5.2c4.4,5.8,9.1,11,20.1,12l0,1.9c-14.4-0.2-24.5-14.8-24-18.4
		C118.3,41.1,129,45.5,136.4,45.2L136.4,45.2z M96.7,37.6c0.3,0,0.8,0.2,1,0.3c1.2,4.4,2,9.3,4,14.2c2.4,6,3.7,11.3,8.1,16.3
		c1.4,1.4,4.1,1.4,4.1,1.4s-0.3,0.8-0.8,0.9c-0.9,0.1-1.6,0.2-2.3,0c-2.6-1.1-4.5-3.8-5.5-5.7c-0.9-1.4-3.3-7.1-5.2-13
		c-2.1-6.4-3.8-13-3.6-14.3C96.5,37.6,96.6,37.6,96.7,37.6z M99.1,38.3c0.2,0,0.4,0.1,0.7,0.2c0.3,0.1,0.4,0.2,0.6,0.8
		c0.1,0.4,0.1,0.9,0.3,1.8c1,4.6,2.4,8.3,3.7,11.9c1.3,3.4,2.7,6.8,4.4,9.9c0.9,1.5,1.7,3,2.3,3.5c1.5,1.5,4,1.6,4.7,0.1
		c0.4-0.8,0.3-2.2-0.5-2.8c-0.6-0.6-2.1-0.3-2.1,0.4c0,0.2,0.4,0.1,0.9,0c1.4-0.2,1.9,2.4,0,2.8c-2.3,0.5-4-2.6-1.9-4.6
		c3.5-2.4,6.2,0.9,5.4,4c-0.8,1.8-2.1,2.8-3.9,2.9c-2.3,0.1-3.2-0.6-5.6-4c-2.7-4.3-3.9-8.5-5.7-13.2c-1.8-4.5-3-9.2-3.5-13.4
		C98.8,38.4,98.9,38.3,99.1,38.3L99.1,38.3z M101.3,39.1c0.2,0,0.6,0.1,0.8,0.2c0.1,0.1,0.3,0.2,0.3,0.2c3.2,11.5,5.8,18.4,8.5,23.3
		c0,0,0,0.9-0.2,1.1c-0.3,0.5-0.5,0.3-0.9-0.4c-1.7-3.3-3.3-6.9-4.8-10.6c-1.8-4.4-3.3-8.9-4-13.2C101,39.2,100.9,39.1,101.3,39.1
		L101.3,39.1z M122.5,45.6c0.4,0,0.8,0.4,0.8,0.8c0,0.4-0.4,0.8-0.8,0.8c-0.4,0-0.8-0.4-0.8-0.8S122.1,45.6,122.5,45.6z M57.1,45.5
		c-0.9,1.3-1.7,5.8-2.7,5.9c-1.1,0-2.4-0.6-3.2,0.3c-1,1.2-0.4,2.5,0.9,3.2c0.6,0.3,1.8,0.4,2.6,0.1C57.7,54,58.8,49,57.1,45.5
		L57.1,45.5z M125.6,46.7c0.6,0,1.2,0.5,1.2,1.2s-0.5,1.2-1.2,1.2s-1.2-0.5-1.2-1.2C124.4,47.2,125,46.7,125.6,46.7z M57.1,47.2
		c1,2.6-0.1,5.8-1.4,6.8c-1.2,1-3,1.1-4.1,0.2c-0.9-0.8-0.5-2.8,1.1-2.7c0.5,0,1.2,0.5,1.6,1C55.4,52.7,56.7,47.3,57.1,47.2
		L57.1,47.2z M129.7,47.9c0.7,0,1.3,0.6,1.3,1.3c0,0.7-0.6,1.3-1.3,1.3s-1.3-0.6-1.3-1.3C128.3,48.5,128.9,47.9,129.7,47.9z
		 M134.3,48.8c0.7,0,1.3,0.6,1.3,1.3s-0.6,1.3-1.3,1.3c-0.7,0-1.3-0.6-1.3-1.3C133,49.4,133.6,48.8,134.3,48.8z M91,54.9
		c0.2,0,0.3,0.2,0.5,0.6c0.3,0.8,0.3,0.9-0.2,1.4c-4.1,5.7-0.4,11.6,5.6,12.2c0.5,0,0.8,0.6,1,1.3c0,0.3,0,0.3-1.4,0.3
		c-0.9,0-1.6,0-2-0.2c-2.1-0.6-4.7-2.5-5.7-4.2c-1.2-2-1.4-4.1-0.7-6.9c0.5-1.8,1.1-3,2-3.9C90.5,55.1,90.8,54.9,91,54.9z
		 M130.1,55.6l0.1,19.6l-2.1,0.8l0.1-20.9L130.1,55.6z M134.1,56.3c2.6,6.5,2.7,12.4,0.4,17.8l-2.4,0.3c3.3-7.6,1.9-13,0-18.3
		L134.1,56.3z M9.2,57.4l8.5,8l0.3,88.9l-1.3-0.5l-0.5-87.4l-6.9-6.3L9.2,57.4z M91.8,57.6C91.8,57.6,91.8,57.6,91.8,57.6
		c0.3,0,0.5,0.3,0.7,0.9c0.2,0.6,0.2,0.7,0,1.3c-1.2,2.8-0.2,5.6,2.7,6.4c0.7,0.2,0.8,0.3,1.2,1.2c0.3,0.5,0.4,0.7,0.3,0.9
		c-0.1,0.1-0.5,0.2-1.6-0.1c-4.3-1.5-5.8-6.1-3.9-9.8C91.3,57.9,91.5,57.7,91.8,57.6C91.7,57.6,91.7,57.6,91.8,57.6L91.8,57.6z
		 M57.8,57.3c0,0,0.9,3.1,0.8,3.9c-0.2,1.4-2.2,3.6-3.9,4.4c-1.6,0.6-4,0.3-5-0.8c-3.6-4.3,3.2-8.6,4.9-4.1c1,2.9-3.2,3.6-3.3,1.4
		c0-0.6,0.2-0.8,0.7-1.1c0.5-0.3,0.4-0.6,0-0.6c-1.6,0.6-1.6,2-0.9,3c1.4,1.5,3.2,0.6,4.4-0.5C57.1,61.3,57.5,59.2,57.8,57.3
		L57.8,57.3z M93.1,60.5c0.1,0,1.8,4,2,4.6c-0.1,0.4-0.5,0.4-1.2-0.1c-0.8-0.5-1-0.9-1.3-2.1C92.4,62.4,92.3,60.8,93.1,60.5z
		 M59.2,62.2c0.4,0,0.8,1.4,0.6,2c-0.3,1.2-3.4,3.2-5.6,3.6c-0.4,0.1-0.9,0.2-1.1,0.2c-0.5,0.1-1-0.2-1.5-0.7
		c-0.4-0.4-0.6-0.8-0.5-0.9c0.1-0.1,1.1,0.1,1.9,0.1c2.4,0,4.3-1.7,5.7-3.8C58.9,62.5,59.1,62.2,59.2,62.2L59.2,62.2z M11.4,63.2
		c0,0,1.6,1.5,2.5,2.3c-0.1,3.9-1.5,8.2-1.5,11.7c0,3,2,5.6,2.2,8.2c0.1,1.7-0.4,4.3-1.2,6.2c-0.8,1.8-1.2,3.7-1.2,5.6
		c0.1,4.3,3.2,9.1,2.1,13.4c-1,4-2.2,6.3-1.9,8.5c0.6,4.1,2.8,7.8,2.2,11.2c-0.5,3.2-2,6.4-1.8,9.3c0.2,3.3,1.4,6.1,1.8,9.1
		c0.2,2-0.3,5.1-0.3,5.1l-2.3,0.2c1.3-4.7-0.6-8.9-1.3-13.4c-0.6-3.8,1.1-6.9,1.6-10.1c0.3-2,0-4-1-6.5c-2-4.8-1.3-7.9,0.2-12
		c1.8-4.4-0.7-7.9-1.3-12.2c-0.3-3.6-0.1-6.2,1.3-9.5c1-3.1,1.3-4.9-0.2-7.9c-1-1.9-1.2-3-1.2-5.5C10.4,71.8,11.7,69.1,11.4,63.2
		L11.4,63.2z M60.3,65.2c0.4,0,0.5,0.3,0.5,0.8c0,0.9-1.4,2.1-3.8,3.2c-1.3,0.6-2,0.7-2.7,0.3c-0.7-0.3-0.7-0.6,0.1-0.8
		c1.9-0.6,3.3-1.3,4.8-2.7C59.6,65.6,60.1,65.2,60.3,65.2L60.3,65.2z M49.3,65.8c6.3,6.7,12.4,10.2,17.1,11.8l-0.7,1.8
		c-6.2-2.4-12.5-5.7-17.8-12.9L49.3,65.8z M61.4,66.9c0.2,0,0.8,0.8,0.8,1c0,0.1-0.2,0.5-0.5,0.9c-0.4,0.5-0.8,0.8-1.8,1.4
		c-1.4,0.8-2.3,1-2.9,0.6c-0.6-0.3-0.4-0.6,1.1-1.5c0.8-0.5,1.8-1.2,2.3-1.6C60.9,67.3,61.3,66.9,61.4,66.9z M44.7,67.9
		c5.1,7,11.8,11.7,19.5,14.2l-1.2,1.7c-7.1-2.5-14.1-6.9-20.4-14.7L44.7,67.9z M62.7,68.8c0.3,0,0.8,0.7,0.8,0.9
		c0,0.1-0.1,0.4-0.3,0.6c-0.3,0.3-1.7,1.4-2.3,1.7c-0.5,0.2-0.8,0.2-1.4,0c-0.6-0.3-0.5-0.6,0.5-1.2c0.5-0.3,1.2-0.9,1.7-1.3
		C62.2,69.1,62.6,68.8,62.7,68.8L62.7,68.8z M42,69.3c-0.1,0.2-7.6,17.2-23.3,29.3l-0.1-2.8c8.7-6.9,15-16.4,19.8-24.6L42,69.3z
		 M64.2,70.5c0.2,0,0.4,0.2,0.6,0.5c0.2,0.4,0,0.7-0.9,1.4c-0.5,0.4-0.8,0.5-1.2,0.5c-1.2,0-1.1-0.3,0.1-1.5
		C63.5,70.8,63.9,70.5,64.2,70.5L64.2,70.5z M94.5,71.4l3.3,0.3c0.9,0.6-12.8,9.6-22.3,8.8l0.3-2.1C84.1,78.5,94.8,71.8,94.5,71.4z
		 M66.4,72.2c0.8,0.4,1.7,0.9,1.5,1.1c-0.3,0.2-2.6,0.1-3.1-0.2c-0.4-0.2-0.4-0.3,0.2-0.9C65.6,71.5,65.7,71.8,66.4,72.2z
		 M37.2,71.7c-5.2,9.2-11.4,17.5-18.5,23l-0.1-4.8c6.8-5.2,12-14.8,12-14.9L37.2,71.7z M102.3,72.3l1.6,0.9
		C93.9,82.4,83.3,86.3,73,85.3l0.8-1.9C90.5,84.8,101.6,72.4,102.3,72.3L102.3,72.3z M104.7,72.6c0,0,0.5-0.1,0.5,0
		c-3.3,3.2-7.8,6.7-10.8,8.6c-14,14.4-26,25.7-38.2,38.6l-1.9-2l1.8-1.9c0-3.7,4.5-7.8,7.2-11c1.1-1.3,3.2-4.5,3-5.9
		c-0.1-0.3-0.1-0.4-0.1-0.4c4.2-0.8,5.3-4.3,5.3-7.3c0.2-2,0.5-3.9,1.2-5.5C91.8,87.2,104.1,73.1,104.7,72.6z M71.2,74.7
		c2.2,0,3.8,1.7,3.8,4.2c0,1-0.4,1.8-1.8,4.5c-1.3,2.3-1.5,3.7-2,6.4l-1.4-1.2l-2.5,2.2l0-3.3c0,0,0.9-1.1,2.2-2.6
		c1.8-1.9,3.3-4.5,3.3-5.9c0-1.4-1.5-2.6-3.1-1.6C68.6,78.3,68,80,67.2,85c-0.1,0.9-0.3,1.9-0.3,2.2c-0.2,0.6-2.1,2.4-2.1,2.4
		c-0.2,0-0.9-3.7-0.9-3.7l-1.9,0.3c2.2-2.4,4-5.4,5.1-8.4C68,75.9,69.4,74.7,71.2,74.7L71.2,74.7z M29.2,75.5c0,0-3.8,8-10.6,13.2
		l0-3.1c3.9-3,6.9-8.3,6.9-8.3L29.2,75.5z M121.8,75.7c-13.3,13.8-30.8,39.3-9.1,75.1l2.9-3.3c-17.4-32.4-5.1-49.1,6.4-66
		L121.8,75.7z M49.6,76.8c3.9,2.8,8,5.5,13.3,7.3c-0.3,0.9-7.5,7-2.3,12.7c0.2,0.3-0.3,1-1.2,2c-2.5,3.4-5,5.8-7,9.6l-0.1,7.2
		l-2.1-1.8L49.6,76.8z M121.3,77.5l0.1,4.1c-19.8,24.1-17.6,45.8-6.4,65.8l-2.1,2.2C94.4,118,105.9,94.1,121.3,77.5L121.3,77.5z
		 M72.3,79.9c-0.9,2.3-4.7,6.3-4.7,6.3s0.5-3.9,0.8-5.1c0.2-0.9,0.8-2.2,1.3-2.8C71.3,76.6,72.9,78.6,72.3,79.9z M46,77.7l0.4,32.3
		l-2.8-2.8l-0.4-24.7L46,77.7z M42.3,84.1l0.6,21.9C40,99.4,36.1,92.2,36,92.3C36,92.3,39.2,88.1,42.3,84.1z M64.3,90.9
		c0,0,0.4-0.4,1.1-1.1c1.4-1.5,1.6-1.5,1.4,0.5c-0.1,0.8,0,1.7,0,1.7c0.8-0.5,2.8-2.8,3.4-2.4c0.4,0.4,0.8,1.3,0.8,2.6
		c0,2.6-1.5,5-3.8,5.8c-6.4,2-10.7-5.4-6.3-10.1c0.4-0.5,1.7-1.3,2.3-1.2C63.9,88.1,63.9,89.6,64.3,90.9L64.3,90.9z M128,88.6
		c0.4,1,0.9,2,2.2,2.5c-0.2,31.4-0.1,87.1-0.1,87.1l6.3,5.9l0,2.6L128,179C128,179,127.6,113.4,128,88.6L128,88.6z M134.3,90.1
		c0.2,3-0.3,6.2,0.2,9.4c0.5,2.2,1.3,4.1,1.4,6.2c0.1,1.9-0.1,3-0.9,5.8c-0.6,1.9-0.6,2.2-0.8,4.1c-0.3,2.6,0.5,5,1.2,7.1
		c0.9,2.8,0.6,6.2-0.8,10.6c-0.5,1.6-0.6,2.3-0.5,3.7c0.2,3,1.3,5.9,1.8,8.9c0.3,1.7,0,3.9-1.1,7.7c-0.4,1.4-0.8,3.9-0.8,4.8
		c0,1,0.3,2.9,0.6,3.7c1.5,3.8,1.5,4.5,1.6,6.8c0,1.7-0.5,3.5-1.1,5c-1,2.4-0.4,4.9,0,7.7l-2.5-2.2c-0.7-2.3-0.5-4.5,0.2-6.3
		c1-2.7,1.2-3,1.2-4.6c0-2.1-1.2-4.6-1.7-6c-0.9-2.6-0.9-5.2,0-7.9c0.4-1.4,1-4,1.2-5.1c0.3-2.1,0.1-3.7-1-7.9
		c-0.5-2-0.6-2.8-0.7-4.8c0-1.9,0.2-3.8,0.8-6.1c0.9-3.6,0.9-5.7-0.3-9.1c-0.9-2.7-1.2-4.6-0.9-6.8c0.1-1.3,0.5-2.5,1.1-3.6
		c1.1-2.7,1.2-5.3,0.4-7.8c-1.4-5.3-1.4-7.9-1.2-12.7L134.3,90.1z M127.2,91.8c-0.2,21.5,0,46.2,0,46.2s-6.4,4.5-6.3,4.2
		c-8.2-13.6-11.3-33.5,3-51.5C123.9,90.7,126.2,91.7,127.2,91.8L127.2,91.8z M30.3,96.9c11.6,21.7,13.1,43.7-6.1,66.2
		c0.6,2,0.5,3.8,0.2,5.7c3.7-2.9,33.8-33,8.5-74.8L30.3,96.9z M89.5,95.1l5.7,0.3l0.4,4.9l-1.8,1.8c0,0,0-1-0.1-1.9
		c0-1.1-0.2-2.1-0.3-2c-0.1,0-0.2,1.3-0.3,2.7l-0.1,2.1l-0.6,0.6c-0.9,0.9-1,0.8-1.1-0.4c-0.1-2.6-0.1-2.8-0.3-2.6
		c-0.1,0.1-0.2,1-0.2,2.3c0,1.1-0.1,2.1-0.2,2.3c-0.1,0.4-1.2,1.3-1.5,1.3c-0.3,0-0.2-0.4-0.3-2c0-1.4-0.1-2.1-0.4-1.6
		c-0.1,0.1-0.1,1.5-0.2,2.6c0,1.1-0.1,2.1-0.2,2.2c-0.2,0.4-1.4,1.4-1.6,1.3c-0.3-0.1-0.4-0.9-0.3-2.3c0-0.7,0.1-1.2-0.1-1.4
		c-0.3-0.2-0.3,0.6-0.2,2.5l0,2.1l-0.7,0.8c-1.1,1.2-1.2,1.1-1.2-0.9c0.1-1.6,0-2.3-0.3-2.2c-0.3,0.1-0.2,0.9-0.1,2.5
		c0.1,1.4,0,2.1-0.1,2.3c-0.1,0.1-0.4,0.6-0.8,0.9c-0.4,0.4-0.8,0.9-0.9,0.9c-0.1-1.7-0.2-5.3-0.2-5.3l-6-0.3c0,0,1.2-1.4,1.7-1.7
		c0.3-0.1,0.7-0.2,2.2-0.1c1,0,2.4,0,2.5-0.1c0.4-0.2-0.5-0.3-1.8-0.4c-0.9-0.1-1.1,0-2.1-0.2l0.9-0.9l0.7-0.6l1.9,0.1
		c1.1,0,2,0,2.1,0c1.1-0.2,0.1-0.5-1.2-0.5c-1.3,0-2,0-2-0.3c0-0.3,1.4-1.6,1.8-1.6c0.2,0,1.2-0.1,2.3-0.1c1.8,0,2.4,0,2.3-0.3
		c-0.1-0.3-1.3-0.2-2.1-0.2c-2.2,0-2.3-0.1-0.8-1.4l0.7-0.6l1.4,0c2.1,0.1,3.1,0,3.1-0.2c0-0.2-1.3-0.3-2.5-0.3c-0.7,0-1.2,0-1.2,0
		c0.5-0.7,1.1-1.2,1.7-1.8l1.8,0c1.3,0,2.2,0.1,2.2-0.2c0-0.2-0.5-0.2-1.1-0.2c-0.8,0-1.8-0.1-2-0.2c-0.1-0.1,0.1-0.5,0.7-1.1
		L89.5,95.1L89.5,95.1z M33,95.2c16,26.1,10.2,54.3-7.6,71.9l-0.5-3.4c16.8-20.5,19.7-41.6,6.1-66.4L33,95.2z M62.7,98.7
		c-2.9,4.3-7.3,8.6-8.9,12.1c-0.3,0.4-0.4,1.3-1,1.5c-0.3,0-0.3-0.5-0.3-1.6c0-0.9,0.1-1.2,0.5-2c2.3-4.1,4.9-7.1,7.8-11L62.7,98.7z
		 M63.4,99.1l2.7,0.2c-0.6,1.9-1.4,3.2-2.3,4.4c-1.2,1.6-2.6,3.1-4.3,5.1c-2.4,2.8-3.7,5.6-3.6,6.9c-0.6,0.6-1,1.1-1.8,1.7l-1.5-1.4
		C53.6,110.1,59.2,104.7,63.4,99.1L63.4,99.1z M95.8,101.5l0.9,0.1c2.9,0.2,4.8,0.4,4.9,0.5c0.1,0.1,0.2,0.5,0.2,1
		c0.1,0.7,0,1.2-0.4,2.9c-0.2,1.1-0.5,2.1-0.6,2.2c-0.3,0.3-0.5,0-0.6-1.6c-0.1-1-0.1-1.7-0.3-1.6c-0.1,0-0.2,1.1-0.2,1.8
		c0.1,2,0.1,2.5-0.5,3.1c-1.1,1.1-1.2,1-1.2-0.9c0-0.8-0.2-1.9-0.3-2c-0.2-0.2-0.3,0.8-0.3,2.7v2l-0.5,0.6c-0.7,0.7-0.9,0.8-1.1,0.6
		c-0.2-0.2-0.1-0.5-0.1-1.6c0-1.3-0.2-2.1-0.5-1.8c0,0-0.1,1.3-0.1,2.4c0,1.1,0,2.1,0,2.2c0,0.3-1.3,1.5-1.5,1.5
		c-0.3,0-0.5-1.4-0.5-2.6c0-0.8-0.2-0.9-0.3-0.5c0,0.1-0.1,1.2-0.1,2.2v1.8l-0.7,0.8c-1,1-1.1,0.9-1.1-0.4c0-1.2-0.1-1.8-0.3-1.8
		c-0.1,0-0.2,0.6-0.2,1.9c0,0.9-0.1,1.8-0.1,2c-0.1,0.2-0.4,0.6-0.7,0.9c-0.3,0.3-0.6,0.6-0.7,0.6c-0.1,0-0.3-1.1-0.3-1.6
		c0-0.1,0-0.8,0-1.6c0-1.8,0.1-1.7-2.8-1.8c-3.4-0.1-3.5-0.1-2.4-1.1c1-0.9,0.8-0.9,3.1-0.8c1.8,0.1,2,0.1,2.2-0.1
		c0.1-0.1,0.2-0.2,0.1-0.3c0,0-0.7-0.1-1.5-0.1c-2.2-0.1-2.4-0.3-1.5-1.2l0.5-0.5h2.3c1.6,0,2.6-0.1,2.7-0.2
		c0.1-0.2-0.5-0.3-1.9-0.4c-0.8,0-1.5-0.1-1.7-0.1c-0.4-0.1-0.2-0.5,0.4-1.1l0.6-0.6h2c1.9,0,2.8-0.1,2.8-0.4c0-0.2-0.4-0.2-1.3-0.3
		c-1.4,0-2.3-0.2-2.3-0.3c0.3-0.6,0.8-1,1.3-1.5l2.1,0.1c2.1,0.1,2.7,0,2.7-0.4c0-0.2-0.9-0.3-2-0.3c-0.7,0-1.6-0.1-1.6-0.4
		c0-0.1,0.3-0.5,0.7-0.9l0.7-0.7l2,0.1c1.1,0,2.3,0,2.4,0c0.3-0.2-0.4-0.4-1.7-0.5c-2-0.1-2.1-0.3-1.1-1.2L95.8,101.5z M25.2,102.6
		c10.5,18.8,8.9,36.5-2.3,51.5c-1.3-0.7-2.6-1.2-4.1-1.3l-0.3-45.4L25.2,102.6z M100.2,109.9c0.2,0,0.2,0.3,0.1,1
		c0,0.6-0.1,1.2-0.2,1.4c-0.1,0.3-0.2,0.3-1.2,0.2c-1.2-0.2-1.1-0.4,0.1-1.6C99.7,110.3,100,110,100.2,109.9L100.2,109.9z
		 M43.9,110.8c0,0,1.4,0,2.1,0c0,0,0.1,3.5,0.4,5.5l4.5,0.2l-1.7,1.8l-3.4-0.1C45.7,118.3,44.7,113.3,43.9,110.8L43.9,110.8z
		 M97.5,112.9c0.6,0,2.3,0.3,2.5,0.5c0.2,0.2,0.2,0.5,0,2.8c0,0.8-0.1,2.6-0.1,3.9c0,2.4,0,2.4-0.3,2.5c-0.4,0.1-0.4-0.1-0.5-1.7
		c-0.1-0.9-0.2-1.7-0.3-1.7c-0.1,0-0.1,0.7-0.1,2.4v2.1c-0.4,0.3-0.7,0.7-1.1,0.9c-0.3,0-0.4-0.4-0.5-1.5c-0.1-1.1-0.2-1.9-0.4-1.6
		c0,0.1,0,1.2,0.1,2.2l0.1,1.8l-0.8,0.8c-0.8,0.8-0.9,0.9-1,0.7c-0.3-0.8,0.1-4.5-0.6-5c-0.1-0.1-1.1-0.1-2.2-0.1
		c-1.9-0.1-3-0.1-3.2-0.3c-0.2-0.1,0.7-1.2,1.2-1.4c0.3-0.1,0.7-0.2,2.3-0.1c1.8,0.1,2.7,0.1,2.5-0.1c-0.1-0.1-1-0.2-1.7-0.3
		c-1.5-0.1-2-0.3-2-0.6c0.3-0.6,0.8-1,1.3-1.5l0.7,0.1c0.4,0,1.3,0.1,2,0.2c0.7,0.1,2.2,0.1,1.6,0c0.2-0.2-0.6-0.4-1.6-0.5
		c-2-0.2-2.2-0.5-1.2-1.4l0.6-0.6c1,0.1,2.1,0.1,3.1,0.3c0.8,0.1,1.2,0.1,1.2-0.2c0-0.2-0.4-0.2-1.3-0.4c-0.3-0.1-2,0-2.1-0.5
		C96,114,96.8,113,97.5,112.9L97.5,112.9z M51.4,117.2c0.3,0,0.3,0.7,0.3,2.7c0,2.1,0.1,2.5,0.3,2.7c0.2,0.2,0.6,0.2,2.5,0.3
		c2.9,0.1,2.9,0.2,1.9,1.2c-0.7,0.7-0.7,0.6-1.3,0.5c-1.5-0.2-3.7-0.1-3.8,0c-0.1,0.2,0,0.3,1.4,0.4c1.7,0.1,2.1,0.2,2.1,0.5
		c0,0.1-0.3,0.5-0.6,0.8l-0.6,0.6l-1.8-0.1c-1.9-0.1-2.8-0.1-2.8,0.2c0,0.2,1.1,0.3,2.7,0.5c0.4,0,0.9,0.1,0.9,0.1
		c0.1,0.2-0.8,1.2-1.3,1.6c-0.4,0.3-0.6,0.1-2.4,0.1c-1.9,0-2.1,0-1.7,0.4c0.1,0.1,0.4,0.1,1.1,0.1c1.2,0.1,1.7,0.3,1.7,0.5
		c0,0.3-1.1,1.4-1.5,1.6c-0.4,0.2-0.6,0.2-1.6,0.1c-0.8-0.1-0.9-0.3-0.9-1c0-0.3,0.1-2.4,0.1-4.6c0.1-4.3,0.1-4.5,0.7-4.4
		c0.2,0,0.3,0.3,0.4,1.8c0.1,1.5,0.1,1.9,0.4,1.9c0.1,0,0.1-0.6,0.1-2.1c-0.1-2.3-0.1-2.7,0.6-3.3c0.3-0.3,0.6-0.5,0.7-0.3
		c0.3,0.9,0.2,1.9,0.3,2.8c0,0.9,0.4,1.1,0.4,0.2c0-1.4-0.1-2.6-0.1-4.1l0.9-0.9C51,117.5,51.3,117.2,51.4,117.2L51.4,117.2z
		 M45.9,118.9c0.3-0.1,2.3,0,2.5,0c-0.5,0.8-1.5,1.8-2.2,2.2C46,121.2,45.8,119.3,45.9,118.9z M100,123.1l0.4,2.9l-3.1-0.2
		L100,123.1z M58,123.6C58,123.6,58,123.6,58,123.6c0.3,0.1,0.3,0.6,0.4,3.3c0,1.3,0.1,2.2,0.2,2.3c0.1,0.1,0.5,0.2,1.2,0.2
		c0.6,0,1.7,0,2.5,0.1c1.7,0.1,1.7,0.2,0.7,1.1l-0.7,0.7l-2.1-0.1c-2.1-0.1-2.5-0.1-2.5,0.2c0,0.2,0.4,0.3,1.1,0.3
		c0.3,0,1,0,1.5,0.1c1.3,0.1,1.3,0.2,0.3,1.2l-0.7,0.7l-0.7-0.1c-1.1-0.1-3.8-0.1-4,0.1c-0.3,0.3,0.1,0.4,1.3,0.4
		c2,0.1,2.3,0.2,2.3,0.4c0,0.1-0.3,0.5-0.6,0.8l-0.6,0.6l-2.5-0.1c-1.7,0-2.3,0-2.4,0.1c-0.1,0.2,0.2,0.3,2,0.4
		c1.7,0.2,2,0.4,1.3,1.2c-0.7,0.9-1,1-2.3,0.9c-1.5-0.1-3-0.1-3.2,0c-0.3,0.2,0,0.4,1.1,0.4c1.6,0.1,2.5,0.3,2.5,0.5
		c0,0.3-0.5,0.9-1,1.3l-0.4,0.3l-1.8-0.2c-1.8-0.2-2.8-0.1-2.5,0.2c0.1,0.1,0.8,0.2,1.5,0.2c1.4,0.1,2.1,0.3,2.1,0.6
		c0,0.1-0.4,0.5-0.8,0.9c-0.4,0.4-0.9,0.7-0.9,0.7l-5.6-0.5c0,0-0.3-1,0.3-3.7c0.5-2.5,0.7-3,1-2.6c0.1,0.1,0.1,0.7,0.2,1.1
		c0.1,1,0.4,1.6,0.5,1.6c0.2,0,0.2-0.6-0.1-2c-0.3-1.9-0.3-2,0.4-2.8c0.6-0.7,1-0.8,1.2-0.5c0.1,0.1,0.1,1,0.2,1.7
		c0.1,1.3,0.2,1.6,0.4,1.4c0.1-0.1,0.2-0.5,0.1-2.4l-0.2-1.9l0.8-0.8c0.8-0.8,0.8-0.8,1-0.6c0.1,0.1,0.2,0.9,0.3,1.9
		c0.1,1.4,0.2,1.9,0.4,1.7c0.1-0.1,0-3.3-0.1-4c-0.1-0.5,0-0.6,0.6-1.2c0.7-0.8,1.1-1.2,1.3-1.2c0.3,0,0.4,0.8,0.4,1.9
		c0,1.1,0.1,1.6,0.2,1.7c0.3,0.4,0.3-0.9,0.2-2.2l-0.1-2.3l0.8-0.8c0.7-0.7,0.8-0.7,1-0.5c0.2,0.2,0.2,0.6,0.2,1.7
		c0.1,1.6,0.4,2.4,0.5,1.3c0-0.3,0-0.7,0-1.1c-0.1-0.4-0.1-1.1-0.1-1.8c0-0.9,0-1.2,0.3-1.6C56.7,124.5,57.6,123.6,58,123.6
		L58,123.6z M90.5,125.4c0,0,1.3,1.1,1.3,1.4c0,0.1-0.5,0.7-1.2,1.4c-1.2,1.2-1.4,1.4-1.5,2.7c-0.1,0.5-0.3,1.1-0.9,2.3
		c-0.4,0.9-1.1,1.9-1.1,1.9c-2,2.4-3.9,4.5-7.3,9.6c-0.2,0.5-0.2,0.9-0.4,1.3c-0.2,0.3-0.5,0.5-0.7,0.6c-0.2,0.1-0.7,0.4-1,0.6
		c-1.3,1-2.1,2.3-2.5,3.9c-0.2,0.9-0.3,1.7-0.7,4.4c-0.1,1.1-0.6,3.1-0.6,3.1c-7.5-0.1-14.5,1.2-20.7,4.7L90.5,125.4z M100.5,126.5
		l1.7,7.6l-1.7,0l-0.2-5.5l-5.3-0.5l1.9-1.9L100.5,126.5z M92.4,127.2c0.5,0.5,1,1,1.4,1.5c-1.4,4.8-6,11-10.5,17.1l-3.3-0.4
		c-0.1-0.1,4.6-6.6,6.8-9c0.8-1,1.4-2,2.2-3.5c0.3-0.5,0.7-2,1.1-3.4C90.9,128.6,92.4,127.2,92.4,127.2L92.4,127.2z M94.2,128.9
		l2.5,2.5l0.6,35.8c-3.8-3-8.4-5.3-13.2-7l0.8-1.9l0.9-1c3.3-3.6,2.6-7.4,0.1-10.1c3-4.4,5.8-7.8,8.1-12.1l0-3
		C93.9,129.4,94.2,128.9,94.2,128.9L94.2,128.9z M64.3,130.4c0.3,0,0.3,0.6,0.4,2.5c0.1,1.8,0.1,2.6,0.3,2.8
		c0.2,0.2,0.3,0.3,2.4,0.3c2.2,0.1,2.6,0.1,2.6,0.4c0,0.1-0.3,0.4-0.6,0.7l-0.6,0.6l-1.9,0c-1,0-2.3,0-2.3,0
		c-0.2,0.2,0.5,0.4,1.4,0.4c0.6,0,1.5,0.1,1.6,0.1c0.4,0.1,0.2,0.5-0.6,1.3l-0.8,0.8l-1.8,0c-1,0-2.2,0-2.3,0.1
		c-0.5,0.2-0.3,0.3,0.6,0.3c1.5,0,2.5,0.1,2.6,0.4c0,0.1-0.3,0.5-0.6,0.9l-0.7,0.7l-2.6-0.1c-2.5,0-2.8,0.2-0.7,0.4
		c0.8,0.1,2,0.3,2.1,0.3c0,0,0.1,0.1,0.2,0.2c0.1,0.2-0.9,1.3-1.4,1.6c-0.3,0.1-0.5,0.1-0.9,0c-0.6-0.1-2.9-0.1-3.2,0.1
		c-0.2,0.1,0.3,0.3,0.9,0.3c1,0,2.2,0.3,2.2,0.5c0,0.2-0.5,0.8-1,1.3c-0.2,0.2-0.8,0-2.5,0.1c-1.1,0-1.9,0.1-1.9,0.2
		c0,0.1,0.6,0.3,1.3,0.3c0.7,0.1,1.7,0.2,1.8,0.3c0.2,0.2-1.1,1.7-1.1,1.7l-5.4-0.1l-0.5-5.7l0.5-0.5c1-1.2,1.3-1,1.5,1.1
		c0.2,1.6,0.3,2.1,0.5,1.8c0.1-0.1,0-1,0-2.3c-0.1-1.1-0.1-2.1-0.1-2.2c0-0.3,1.2-1.6,1.5-1.5c0.2,0,0.4,0.6,0.5,2
		c0.1,1.2,0.2,1.5,0.4,1.3c0.1-0.1,0.1-0.7,0-2.3l-0.1-2l0.5-0.6c1-1.2,1.3-1.1,1.4,0.9c0.1,1.4,0.2,2.1,0.5,2.1c0.1,0,0.1-1,0-2.6
		l-0.1-2.3l0.7-0.7c0.4-0.4,0.7-0.7,0.8-0.7c0.3,0,0.4,0.6,0.6,1.9c0.2,1.5,0.2,1.8,0.4,1.6c0.1-0.1,0-1,0-2.2l-0.2-2.3l0.8-0.8
		c0.4-0.4,0.9-0.8,1-0.8c0.2,0,0.4,0.7,0.4,1.7c0,0.9,0.2,1.7,0.4,1.9c0.1,0.1,0.1-0.5,0.1-2.1c0-2.5-0.1-2.7,1-3.9
		C64,130.6,64.2,130.4,64.3,130.4L64.3,130.4z M93.5,131.4l0,3.5c-1.4,3-4.6,7.4-7.9,12.1l-1.7-0.9C88,140.7,91.5,135.7,93.5,131.4
		L93.5,131.4z M46.6,132.5c0.1,0,0.2,0,0.3,0c0.9,0.1,0.9,0.4,0.1,1.1c-0.3,0.3-0.7,0.6-0.9,0.6c-0.3,0-0.3,0-0.2-0.7
		C46,132.7,46.1,132.5,46.6,132.5L46.6,132.5z M100.2,135l2.4,2.4l0.6,25.6l-2.5,4.2L100.2,135z M103.2,138.4c2.2,5.1,4.5,10,7,13.9
		l-6.5,9.1L103.2,138.4z M81.4,146.4c3,0,5.7,2.3,6.1,4.7c0.7,2.8-0.8,5.7-3.1,6.6c-0.8,0.3-1.3,0.3-1.3,0.3
		c-0.3-1.7-0.2-3.3-0.5-4.9c0,0-1.4,1.8-2.2,2.5c-0.4,0.2-0.6,0.3-0.5-0.2c0-0.9,0.1-3,0.1-3l-3.4,3.6c0,0-0.3-0.4-0.6-1.3
		c-1.1-2.9,0.3-5.9,2.5-7.3C79.4,146.7,80.4,146.4,81.4,146.4L81.4,146.4z M127.2,146.2l0.1,3.1c-5.4,4.2-13.1,13-19.7,24.5
		l-2.9,1.2C109.1,164.3,118.6,153.4,127.2,146.2L127.2,146.2z M127.2,150.3l0.1,4.7c-4.8,4.6-8.9,9.3-12.5,15.4c-2.1,1-6,2.9-6,2.9
		C108.3,173.2,119.4,155.9,127.2,150.3L127.2,150.3z M79.2,154.3c0.2,0,0.2,0.4,0.1,1c-0.2,1.4-0.3,1.9-0.8,2.6
		c-1.7,2.1-4.5,4.9-4.9,7.5c-0.2,1.4,0.9,2.7,2,2.6c3.3-0.4,3.7-6.3,4-9.2c0.1-0.7,0.2-1.3,0.3-1.6c0.7-0.9,1.5-1.8,2.4-2.5l0.4,4.5
		l1.9-0.6c-5.3,7.2-3.8,7.6-6.5,10.6c-2.6,2.7-7.6-0.4-6.3-4.5c1.1-2.8,2.8-5.6,3.3-8.6c0.1-0.9,0.2-1.5,0.2-1.5l1.2,2.5
		C76.9,156.4,78.7,154.4,79.2,154.3L79.2,154.3z M127.4,155.8l0,3.2c-2.5,2.8-4.6,4.9-7.1,8.7l-4,1.8
		C118.9,164.6,123.2,160,127.4,155.8L127.4,155.8z M78.7,158.7c0,0,0.3,1.5-0.3,4.2c-0.3,1.3-1.5,5.1-3.5,4.2
		c-1.7-1.5,0.4-4.2,1.4-5.5C77.1,160.7,77.9,159.6,78.7,158.7L78.7,158.7z M73.5,159.1l-1.1,2.3c-9.8,0-19.3,3.5-27.7,10.7l-2.1-0.7
		C51.5,162.9,62.6,158.8,73.5,159.1z M83.7,160.9c11,3.7,16.1,9.1,20.3,14.7l-1.7,0.9c-4.4-5.7-9.7-10.8-19.8-13.8L83.7,160.9z
		 M71.1,164.3l-0.5,2c-6.2,0.2-12.7,2.4-19,6.8l-2.3-0.4C55.7,167.7,63,164.9,71.1,164.3z M99.3,177.8l-2,0.9
		c-5.8-7.6-11.1-9.7-17.1-11.7l0.6-1.7C88.9,167.5,94.8,171.6,99.3,177.8L99.3,177.8z M17.9,168.9l0.2,20.2l-1.4-0.3l-0.2-19.5
		L17.9,168.9z M14.7,170C12,180,14.1,182.6,15,188.5l-2.2-0.4c-2.2-5.9-2.4-11.4-0.6-17.7L14.7,170z M82.2,171.5
		c0.2,0.2-0.1,0.7-0.5,0.9c-0.4,0.2-0.3,0.2-1,0c-0.6-0.2-1.4-0.8-1.4-1C79.7,171.4,81.8,171.3,82.2,171.5L82.2,171.5z M84,171.7
		c0.4,0,1.4,0,1.5,0.4c0,0.2-0.4,0.5-1.2,1.1c-1.3,0.9-1.7,1.1-2.1,0.6c-0.4-0.4-0.3-0.8,0.4-1.4C83.1,171.8,83.5,171.7,84,171.7
		L84,171.7z M39.8,171.9c0.7,0,2.1,0.9,2.9,2c0.8,1.3,1.7,2.6,2.5,3.9c1.7,2.9,3,5.9,4.1,8.9c2.9,7.2,4.6,14.2,6,21.2
		c0,0.6-0.5,0.6-1,0.4c-0.2-0.1-0.4-0.2-0.5-0.3c-0.6-1.7-0.8-3.4-1.3-5.2c-1.1-4.3-1.6-6.7-3.8-12.8c-1.1-3.1-2.8-7.5-4.6-10.8
		c-1.2-2.1-2.5-4.1-4.2-5.9c-0.5-0.5-1-0.9-1-1C39,172,39.3,171.9,39.8,171.9L39.8,171.9z M86.9,172.1c0.7,0.2,2.3,0.4,1.7,0.9
		c-2.3,0.9-3.1,1.9-4.3,2.9c-0.2,0-0.9-0.9-0.9-1.1C84.3,173.5,85.6,173,86.9,172.1z M43.2,172.1c1,0,1.9,1.2,2.4,2
		c3,4.4,5.6,10.7,7.7,16.9c2.3,6.6,3.7,13,4.3,17.6c-0.1,0.1-0.3,0.2-0.7,0.2c-0.6,0-0.7-0.1-0.9-0.6c-1.6-7.5-3.7-15.2-6.2-21.8
		c-1.4-3.5-2.9-7-5.1-10.5c-1.5-2.2-2.3-3.3-2.3-3.5C42.6,172.2,42.8,172.1,43.2,172.1C43.1,172.1,43.2,172.1,43.2,172.1L43.2,172.1
		z M36.5,172.2c1.3,0,3.5,1.6,5,3.6c3.1,4.3,4.9,9.3,6.8,14.2c2.1,5.6,3.7,11.8,4.6,16.7c0.2,0.7,0.4,1-0.2,1.2
		c-1-0.3-1-0.3-1.3-1.5c-0.4-1.3-0.5-2.6-0.9-4c-2.1-7.6-4.5-16.1-8.4-22.9c-4.7-7.6-6.1-5.5-6.9-6.8
		C35.3,172.5,35.8,172.3,36.5,172.2L36.5,172.2z M47.9,174.1c4.1,7.1,5.8,11.4,7.1,15.7c1.9,6.5,4.1,11.6,5.1,19.2
		c0,0-1.1,0-1.5-0.2c-0.2-0.2-0.4-0.9-0.5-1.5c-1-5.3-2.6-11.6-4.2-16.6c-1.8-5.5-4-10.8-7.2-15.9c-0.8-1.4-1-1.9-0.5-1.9
		C47,172.9,47.4,173.6,47.9,174.1L47.9,174.1z M90.1,173.3c0.2,0,0.3,0,0.6,0.1c0.5,0.2,0.7,0.3,0.7,0.5c0,0.3-0.3,0.4-1.3,0.7
		c-0.8,0.2-2.4,1-3.5,2c-0.5,0.4-1,0.9-1.1,0.9c-0.3,0-0.9-0.7-0.9-0.9C85.5,175.2,88.2,173.4,90.1,173.3L90.1,173.3z M34.2,173.5
		c3.4,0.1,6.1,4.1,7.5,6.8c0.5,1.1,1.3,2.2,1.8,3.4c2.8,6.2,5.2,14.1,6.3,19.1c0.6,2.4,1.2,4.2,1,4.6c-0.3,0.2-0.9,0-1.2-0.2
		c-0.2-0.1-0.3-0.7-0.6-1.7c-0.8-2.6-2.1-9.9-5.6-17.7c-0.1-0.2-1.8-5.1-4.6-9.7c-1.2-1.9-3.1-3.1-4.8-3.5c-0.9-0.1-1.1,0-1.1-0.5
		c0-0.3,0.1-0.4,0.6-0.5C33.8,173.6,34,173.5,34.2,173.5L34.2,173.5z M55.7,189.5c-0.2,0-0.4-0.4-0.6-1.2c-0.1-0.4-0.2-0.6,0.5-1
		c4.3-4.5,0.6-11.2-4.8-11.8c-0.5-0.1-1.1-0.1-1.3-0.1c-0.3-0.2-0.8-1.1-1-1.5C55.9,172,63.8,182.6,55.7,189.5L55.7,189.5z
		 M92.6,174.7c0.4,0.1,1.4,1,1.3,1.2c-0.1,0.2-1,0.2-2.2,0.5c-2.5,0.5-3.6,2.1-4.8,3.3c-0.3,0.1-0.5-0.1-0.7-0.5
		c-0.2-0.3-0.3-0.7-0.3-0.8C87.1,176.4,90.7,174.5,92.6,174.7L92.6,174.7z M32.5,175.2c2.2,0,4.3,1.1,5.5,2.8
		c4.4,6.7,9.4,21.4,10.6,28.7c-0.1,0.2-0.4,0.3-1.1,0.1c-0.3-0.1-0.3-0.2-0.5-0.9c-1.4-5.3-2.9-10.5-4.7-15.2c-0.9-2.4-2-4.8-3-7
		c-0.7-1.4-2-3.8-2.5-4.5c-1.2-2.2-3.5-2.8-5-2.1c-1.5,0.8-1.7,2.8-0.6,3.7c1,0.7,2.5,0.6,3.1-0.5c0.2-0.4,0.1-0.8,0-1
		c-0.1-0.1-0.3-0.1-0.4,0c0.1,1.3-1.6,1.4-2.3,0.9c-1.1-0.9-0.4-3.6,2.7-2.5c1.2,0.6,1.6,1.8,1,3.1c-0.6,1.3-1.5,1.9-2.9,1.9
		c-1.7,0-3.6-1.2-3.6-3.4c0-1.6,0.7-2.9,2.1-3.8C31.6,175.3,31.8,175.2,32.5,175.2L32.5,175.2z M50.8,176.2
		c5.3,0.2,7.7,6.4,4.9,10.2c-0.7,0.9-1.2,0.7-1.5-0.4c-0.1-0.5-0.3-0.5,0.1-0.9c2.5-2.4,0.4-6.9-3.6-7.1c0,0-0.8-1.1-0.8-1.7
		C50.2,176.1,50.6,176.2,50.8,176.2L50.8,176.2z M94.6,176.6c0.4,0.1,1.2,0.9,1.2,1.2c0,0.3-0.2,0.3-1.1,0.1
		c-2.2-0.4-4.4,0.9-6.3,3.7c-0.9,1.7-1,1.5-1.5,0.1c-0.2-0.7-0.2-0.7,0.7-2.1C89.4,177.4,92,176.3,94.6,176.6L94.6,176.6z
		 M96.7,179.5c1.8,1.7,1,5.4-1.5,5.8c-2.2,0.3-4.2-2.1-2.8-3.7c0.9-1,2-1.1,2.7-0.2c0.7,0.9,0.4,2.1-0.6,2.2c-0.1,0-0.2,0.1-0.2,0.2
		c0,0.2,0.9,0.2,1.2-0.1c0.6-0.7,0.6-1.7,0.1-2.5c-0.5-0.7-1.5-1.2-2.4-0.8c-1.5,0.5-3,2.5-3.9,5.1c-0.2,0.7-0.4,1.4-0.5,1.5
		c-0.2,0.3-0.2,0.3-0.4,0.2c-0.2-0.1-0.5-1.7-0.5-2.2c0-0.4,0.4-1.6,0.9-2.6C90.5,179.1,94.1,177.1,96.7,179.5L96.7,179.5z
		 M51.6,178.7c2.2,0.1,3.9,3.2,2.9,5.3c-0.3,0.4-0.7,0.7-0.9,0.4c-0.1-0.1-0.4-1.1-0.9-2.1c-0.5-1.1-0.9-2.1-1-2.3
		C51.4,179.2,51.2,178.7,51.6,178.7z M37,180.5c2.5,4.3,4.5,9.3,6.2,14.2c1.3,3.8,2.4,7.5,3,10.8c0.1,0.3,0.1,0.5,0,0.7
		c-0.2,0.2-1.4-0.4-1.4-0.4c-2-7.1-3.7-14.1-8.6-23.1c0,0-0.2-0.4-0.3-0.6c-0.1-0.6,0.1-1.3,0.4-1.7C36.6,180.2,36.7,180.2,37,180.5
		L37,180.5z M9.5,188.7c11.6,0.8,20.5,5.7,25.3,18.6c-1.7-1-10.3-7.6-25.2-8.5l0-1.8c10.7-0.1,21.1,5.5,20.9,5.4
		c-4-8.2-13.9-11.5-21-11.7L9.5,188.7z M89.9,191.3c-0.7,1.1-0.7,1.1-1,2.1c0,0.3,0.1,2.3,0.1,3.5c0.1,1.5,0.1,2.1,0.2,2.3
		c0.2,0.2,0.6,0.3,0.8,0.1c0.1-0.1,0.2-0.4,0.3-0.7c1-3.6,1.4-5,1.8-5.4c0.3-0.3,0.3-0.3,1.4-0.2c2.4,0.2,3.2-2.6,1.6-3.7
		C93,188,90.8,190,89.9,191.3L89.9,191.3z M92.4,192.1c-1.7,1.4-1.7,3.4-2.2,5.2c-0.3,1.2-0.7,1.9-0.8,0c-0.3-2.6,0.1-4.5,1.2-6.1
		c0.7-1.1,1.8-1.9,2.9-1.9c2.2-0.2,2.4,1.6,1.8,2.5C94.8,192.6,93.5,192.9,92.4,192.1L92.4,192.1z M12.6,192.9
		c0.8,0,1.5,0.7,1.5,1.5c0,0.8-0.7,1.5-1.5,1.5c-0.8,0-1.5-0.7-1.5-1.5C11.1,193.6,11.7,192.9,12.6,192.9z M17.4,194
		c0.7,0,1.4,0.6,1.4,1.3c0,0.7-0.6,1.4-1.4,1.4S16,196,16,195.3C16,194.6,16.6,194,17.4,194z M21.8,195.4c0.6,0,1.1,0.5,1.1,1.1
		c0,0.6-0.5,1.1-1.1,1.1c-0.6,0-1.1-0.5-1.1-1.1C20.7,195.9,21.2,195.4,21.8,195.4z M24.9,197.4c0.5,0,0.8,0.4,0.8,0.9
		c0,0.5-0.4,0.8-0.8,0.8c-0.5,0-0.9-0.4-0.9-0.8C24,197.8,24.4,197.4,24.9,197.4z M14,200.1c-0.3,1.6-0.1,3.3,0.3,4.5
		c0.9,2.5,0.5,7,0.5,7l-2.5,2.5c0.2-2.3,0.5-4.8,0.3-6.8c-0.1-1.3-0.7-2.5-0.8-3.8c-0.1-1.2,0.1-3.6,0.1-3.6L14,200.1z M18.1,200.9
		l0.1,10.7l-8.6,8.3l0-2.2l7.3-7.3l-0.2-9.9L18.1,200.9z M39.3,225.2l-0.6,0.9h9.7l0.2-0.9H39.3z M51.9,225.2l-0.2,0.9h4.5l0.1-0.9
		C56.3,225.2,53.9,225.2,51.9,225.2z M59.2,225.2l-0.1,0.9h16.7l-0.2-0.9H59.2z M78.7,225.2l0.3,0.9h4.4l-0.4-0.9H78.7z M86.2,225.2
		l0.3,0.9h7.6l-0.6-0.9H86.2z"/>
	<path id="path35-67-2-1-9_1_" class="st0" d="M-2.4,8.2v2.8h2.7c0,0,0.1,2.7,0.1,8.3
		c0,5.5,0.1,8.2-0.2,9.8c-0.9,3.6-6.2,3.6-7.2,1c-0.6-1.5-0.4-2.7-0.5-4.2h-2.9c0,0,0,0.8,0,1.7c0,4,1.4,6,4.5,6.8
		c3.2,0.9,7-0.5,8.3-3.2c0.8-1.6,0.7-1.7,0.7-11.2c0-6.3,0.1-9,0.1-9h2.5V8.2H-2.4L-2.4,8.2z"/>
	<path id="path35-6-7-1-4_1_" class="st0" d="M148.1,235.5v-2.8h-2.7c0,0-0.1-2.7-0.1-8.3
		c0-5.5-0.1-8.2,0.2-9.8c0.9-3.6,6.2-3.6,7.2-1c0.6,1.5,0.4,2.7,0.5,4.2h2.9c0,0,0-0.8,0-1.7c0-4-1.4-6-4.5-6.8
		c-3.2-0.9-7,0.5-8.3,3.2c-0.8,1.6-0.7,1.7-0.7,11.2c0,6.3-0.1,9-0.1,9h-2.5v2.8H148.1L148.1,235.5z"/>
</g>
</svg>
