<!-- Generator: Adobe Illustrator 19.2.1, SVG Export Plug-In  -->
<svg version="1.1"
	 xmlns="http://www.w3.org/2000/svg" xmlns:xlink="http://www.w3.org/1999/xlink" xmlns:a="http://ns.adobe.com/AdobeSVGViewerExtensions/3.0/"
	 x="0px" y="0px" width="166.3px" height="226.6px" viewBox="0 0 166.3 226.6" style="enable-background:new 0 0 166.3 226.6;"
	 xml:space="preserve">
<style type="text/css">
	.st0{fill:#D40000;}
</style>
<defs>
</defs>
<g id="g6758_1_" transform="matrix(0.99553491,0,0,0.99680337,9.4615202,-8.1397402)">
	<path id="path6790-5_1_" class="st0" d="M-1.5,53.1c-1.7-2.9-3.5-5.6-5.8-8
		c2.3-2.4,4.1-5.1,5.8-8c1.7,2.9,3.5,5.6,5.8,8C2,47.4,0.2,50.2-1.5,53.1z"/>
	<path id="path6792-5_1_" class="st0" d="M115.4,61.7c-4.1-6.9-8.5-13.5-14-19.2
		c5.5-5.7,9.8-12.3,14-19.2c4.1,6.9,8.5,13.5,14,19.2C123.9,48.1,119.6,54.8,115.4,61.7z"/>
	<path id="path6794-1_1_" class="st0" d="M149.5,206.6c-1.7-2.9-3.5-5.6-5.8-8
		c2.3-2.4,4.1-5.1,5.8-8c1.7,2.9,3.5,5.6,5.8,8C153.1,200.9,151.3,203.7,149.5,206.6z"/>
	<path id="path6796-2_1_" class="st0" d="M32.6,61.7c-4.1-6.9-8.5-13.5-14-19.2
		c5.5-5.7,9.8-12.3,14-19.2c4.1,6.9,8.5,13.5,14,19.2C41.1,48.1,36.8,54.8,32.6,61.7z"/>
	<path id="path6806-6_1_" class="st0" d="M32.6,141c-4.1-6.9-8.5-13.5-14-19.2
		c5.5-5.7,9.8-12.3,14-19.2c4.1,6.9,8.5,13.5,14,19.2C41.1,127.5,36.8,134.1,32.6,141z"/>
	<path id="path6808-6_1_" class="st0" d="M115.4,141c-4.1-6.9-8.5-13.5-14-19.2
		c5.5-5.7,9.8-12.3,14-19.2c4.1,6.9,8.5,13.5,14,19.2C123.9,127.5,119.6,134.2,115.4,141z"/>
	<path id="path6812-0_1_" class="st0" d="M32.6,220.4c-4.1-6.9-8.5-13.5-14-19.2
		c5.5-5.7,9.8-12.3,14-19.2c4.1,6.9,8.5,13.5,14,19.2C41.1,206.9,36.8,213.5,32.6,220.4z"/>
	<path id="path6814-4_1_" class="st0" d="M115.4,220.4c-4.1-6.9-8.5-13.5-14-19.2
		c5.5-5.7,9.8-12.3,14-19.2c4.1,6.9,8.5,13.5,14,19.2C123.9,206.9,119.6,213.5,115.4,220.4z"/>
	<path id="path23-5-3-5-5_1_" class="st0" d="M-9.3,26.4c-0.3-2.2-0.3-8-0.1-9.7
		c0.8-5.2,2.8-7.6,6.1-8.4c3.2-0.8,7.8,0.1,8.8,4.4l-2.7,0.1C1.4,10-2.3,10.7-4.3,12c-1.7,1-2.4,5.3-2.1,5.5c0,0,3.1-2.3,5.6-2.2
		c5.3,0.6,7.5,5.1,7.3,9.5c-0.2,5.2-1.8,9.4-7.4,9.7C-6.3,34.4-8.7,31.4-9.3,26.4L-9.3,26.4L-9.3,26.4z M3.9,25.1
		c0-3.6-1.6-6.3-4.7-6.6c-3.1-0.3-6.2,2.7-6,6.4c0.2,3.7,1.7,6.8,5.4,6.8C2.6,31.7,3.9,27.6,3.9,25.1C3.9,25.1,3.9,25.1,3.9,25.1z"
		/>
	<path id="path23-6-5-6-6_1_" class="st0" d="M157.3,217.2c0.3,2.2,0.3,8,0.1,9.7
		c-0.8,5.2-2.8,7.6-6.1,8.4c-3.2,0.8-7.8-0.1-8.8-4.4l2.7-0.1c1.5,2.9,5.2,2.2,7.2,0.9c1.7-1,2.4-5.3,2.1-5.5c0,0-3.1,2.3-5.6,2.2
		c-5.3-0.6-7.5-5.1-7.3-9.5c0.2-5.2,1.8-9.4,7.4-9.7C154.3,209.3,156.8,212.2,157.3,217.2L157.3,217.2L157.3,217.2z M144.1,218.6
		c0,3.6,1.6,6.3,4.7,6.6c3.1,0.3,6.2-2.7,6-6.4c-0.2-3.7-1.7-6.8-5.4-6.8C145.4,212,144.1,216,144.1,218.6L144.1,218.6z"/>
</g>
</svg>
