<!-- Generator: Adobe Illustrator 19.2.1, SVG Export Plug-In  -->
<svg version="1.1"
	 xmlns="http://www.w3.org/2000/svg" xmlns:xlink="http://www.w3.org/1999/xlink" xmlns:a="http://ns.adobe.com/AdobeSVGViewerExtensions/3.0/"
	 x="0px" y="0px" width="166.8px" height="226.6px" viewBox="0 0 166.8 226.6" style="enable-background:new 0 0 166.8 226.6;"
	 xml:space="preserve">
<defs>
</defs>
<g id="g8436-8-0_1_" transform="matrix(0.99553774,0,0,0.99680134,-42.89003,79.60164)">
	<g id="g8473-4-9_1_">
		<path id="path6882-1-0_1_" d="M85.4-64.8
			C78-54.2,70.1-48.2,70-40c0,2.7,1.4,7.2,5.9,8c2.9,0.6,6.9-1.8,7-6.6c0-1,1-0.9,1,0.4c-0.1,3.8-1.3,8.2-3.4,11.8
			c3.2,0,6.4,0,9.7,0c-2-3.6-3.2-8-3.4-11.8c0-1.3,1-1.3,1-0.4c0.1,4.8,4.1,7.2,7,6.6c4.5-0.9,5.9-5.4,5.9-8
			C100.7-48.2,92.8-54.2,85.4-64.8L85.4-64.8z"/>
		<path id="path6884-6-5_1_" d="M51.3-50.9
			c-3.4,4.4-7.1,6.9-7.2,10.3c0,1.1,0.7,3,2.8,3.4c1.4,0.2,3.2-0.8,3.3-2.8c0-0.4,0.5-0.4,0.5,0.2c-0.1,1.6-0.6,3.4-1.6,4.9
			c1.5,0,3,0,4.5,0c-0.9-1.5-1.5-3.3-1.6-4.9c0-0.5,0.5-0.6,0.5-0.2c0,2,1.9,3,3.3,2.8c2.1-0.4,2.8-2.2,2.8-3.4
			C58.5-44,54.8-46.6,51.3-50.9L51.3-50.9z"/>
		<path id="path6888-1-5_1_" d="M202.4,118.5
			c-3.4-4.4-7.1-6.9-7.2-10.3c0-1.1,0.7-3,2.8-3.4c1.4-0.2,3.2,0.8,3.3,2.8c0,0.4,0.5,0.4,0.5-0.2c-0.1-1.6-0.6-3.4-1.6-4.9
			c1.5,0,3,0,4.5,0c-0.9,1.5-1.5,3.3-1.6,4.9c0,0.5,0.5,0.6,0.5,0.2c0-2,1.9-3,3.3-2.8c2.1,0.4,2.8,2.2,2.8,3.4
			C209.5,111.6,205.8,114.2,202.4,118.5L202.4,118.5z"/>
		<path id="path6890-4-9_1_" d="M168.3-64.8
			C160.9-54.2,153-48.2,152.8-40c0,2.7,1.4,7.2,5.9,8c2.9,0.6,6.9-1.8,7-6.6c0-1,1-0.9,1,0.4c-0.1,3.8-1.3,8.2-3.4,11.8
			c3.2,0,6.4,0,9.7,0c-2-3.6-3.2-8-3.4-11.8c0-1.3,1-1.3,1-0.4c0.1,4.8,4.1,7.2,7,6.6c4.5-0.9,5.9-5.4,5.9-8
			C183.5-48.2,175.6-54.2,168.3-64.8L168.3-64.8z"/>
		<path id="path6902-7-5_1_" d="M85.4,132.4
			C78,121.8,70.1,115.8,70,107.6c0-2.7,1.4-7.2,5.9-8c2.9-0.6,6.9,1.8,7,6.6c0,1,1,0.9,1-0.4c-0.1-3.8-1.3-8.2-3.4-11.8
			c3.2,0,6.4,0,9.7,0c-2,3.6-3.2,8-3.4,11.8c0,1.3,1,1.3,1,0.4c0.1-4.8,4.1-7.2,7-6.6c4.5,0.9,5.9,5.4,5.9,8
			C100.7,115.8,92.8,121.8,85.4,132.4L85.4,132.4z"/>
		<path id="path6904-9-7_1_" d="M168.3,132.4
			c-7.4-10.5-15.3-16.6-15.4-24.8c0-2.7,1.4-7.2,5.9-8c2.9-0.6,6.9,1.8,7,6.6c0,1,1,0.9,1-0.4c-0.1-3.8-1.3-8.2-3.4-11.8
			c3.2,0,6.4,0,9.7,0c-2,3.6-3.2,8-3.4,11.8c0,1.3,1,1.3,1,0.4c0.1-4.8,4.1-7.2,7-6.6c4.5,0.9,5.9,5.4,5.9,8
			C183.5,115.8,175.6,121.8,168.3,132.4L168.3,132.4z"/>
		<path id="path19-08-0-9_1_" d="M51.5-53.5v-2.3h2.1v-3.8H43.1v-2.7l11.4-17.5l1.9,0v17.5h3.2
			v2.7h-3.2l-0.1,3.8H58v2.3L51.5-53.5L51.5-53.5z M53.6-73.4l-7.2,11.1h7.2V-73.4z"/>
		<path id="path19-08-1-1-4_1_" d="M202.2,121.1v2.3h-2.1v3.8h10.5v2.7l-11.4,17.5l-1.9,0v-17.5
			h-3.2v-2.7h3.2l0.1-3.8h-1.8v-2.3L202.2,121.1L202.2,121.1z M200.1,141l7.2-11.1h-7.2V141z"/>
	</g>
</g>
</svg>
