<!-- Generator: Adobe Illustrator 19.2.1, SVG Export Plug-In  -->
<svg version="1.1"
	 xmlns="http://www.w3.org/2000/svg" xmlns:xlink="http://www.w3.org/1999/xlink" xmlns:a="http://ns.adobe.com/AdobeSVGViewerExtensions/3.0/"
	 x="0px" y="0px" width="43.7px" height="43.7px" viewBox="0 0 43.7 43.7" style="enable-background:new 0 0 43.7 43.7;"
	 xml:space="preserve">
<style type="text/css">
	.st0{fill:#FF0000;}
	.st1{fill:#FFFFFF;}
	.st2{fill:#0000FF;}
</style>
<defs>
</defs>
<g>
	<g>
		<path class="st0" d="M21.9,43.7c8.8,0,16.4-5.2,19.9-12.8H2C5.4,38.5,13,43.7,21.9,43.7z"/>
		<path class="st1" d="M21.9,0C13,0,5.4,5.2,2,12.8h39.7C38.3,5.2,30.7,0,21.9,0z"/>
		<path class="st2" d="M0,21.9c0,3.3,0.7,6.3,2,9.1h39.7c1.3-2.8,2-5.9,2-9.1c0-3.3-0.7-6.3-2-9.1H2C0.7,15.5,0,18.6,0,21.9z"/>
	</g>
</g>
</svg>
