<!-- Generator: Adobe Illustrator 19.2.1, SVG Export Plug-In  -->
<svg version="1.1"
	 xmlns="http://www.w3.org/2000/svg" xmlns:xlink="http://www.w3.org/1999/xlink" xmlns:a="http://ns.adobe.com/AdobeSVGViewerExtensions/3.0/"
	 x="0px" y="0px" width="49.9px" height="34px" viewBox="0 0 49.9 34" style="enable-background:new 0 0 49.9 34;"
	 xml:space="preserve">
<style type="text/css">
	.st0{fill:#081121;}
</style>
<defs>
</defs>
<g>
	<path class="st0" d="M25,10.5c-3.6,0-6.5,2.9-6.5,6.5c0,3.6,2.9,6.5,6.5,6.5c3.6,0,6.5-2.9,6.5-6.5C31.5,13.4,28.6,10.5,25,10.5z"
		/>
	<path class="st0" d="M49.4,16C44.4,6.1,35,0,25,0S5.5,6.1,0.5,16L0,17l0.5,0.9c5,9.9,14.4,16,24.5,16s19.4-6.1,24.5-16l0.5-0.9
		L49.4,16z M25,29.8c-8.2,0-15.8-4.9-20.3-12.8C9.1,9.1,16.8,4.2,25,4.2S40.8,9.1,45.2,17C40.8,24.9,33.1,29.8,25,29.8z"/>
</g>
</svg>
