<svg xmlns="http://www.w3.org/2000/svg" width="168" height="226.6" viewBox="0 0 168 226.6"><style type="text/css">.st0{fill:#E2CF00;} .st1{fill:#D40000;} .st2{fill:#131F67;}</style><path d="M159.13 197.75c3.1-.1 4.5-3.7 2.2-6.6-.3-.4-.4-.7.2-.3 1.6 1.1 4.6.4 4.7-2.9.2-4.1-5.3-5.3-6.3-.9-.1.5-.4.4-.3-.2.1-1.8.6-3.4 1.4-5h-3.7c.7 1.6 1.3 3.3 1.4 5 .1.7-.3.7-.3.2-1-4.4-6.5-3.2-6.3.9.2 3.3 3.1 4 4.7 2.9.6-.4.6-.2.2.3-2.4 2.9-1 6.5 2.1 6.6zM8.83 28.85c-3.1.1-4.5 3.7-2.2 6.6.3.4.4.7-.2.3-1.6-1.1-4.6-.4-4.7 2.9-.2 4.1 5.3 5.3 6.3.9.1-.5.4-.4.3.2-.1 1.8-.6 3.4-1.4 5h3.7c-.7-1.6-1.3-3.3-1.4-5-.1-.7.3-.7.3-.2 1 4.4 6.5 3.2 6.3-.9-.2-3.3-3.1-4-4.7-2.9-.6.4-.6.2-.2-.3 2.4-2.9 1-6.6-2.1-6.6zM9.43 23.45h2.6l-3.9-9.7-3 4.1v5.6h2.1v2.9H.03v-2.9h2.4V2.55H.03v-2.6h7.5v2.6h-2.1v10.2l6.5-10.3h-2.3v-2.5h7.9v2.5h-2.1l-5.4 8.5 5.2 12.5h2.3v2.9h-8.2l.1-2.9zM158.53 203.15h-2.6l3.9 9.7 3-4.1v-5.6h-2.1v-2.9h7.3v2.9h-2.4v20.9h2.4v2.5h-7.5v-2.6h2.1v-10.2l-6.5 10.3h2.3v2.5h-7.9v-2.5h2.1l5.4-8.4-5.2-12.5h-2.3v-2.9h8.2l-.2 2.9z"/><path class="st0" d="M124.12 2.25l-65.334.248 8.282 15.83c16.975-1.52 31.864-.133 47.364.395l9.69-16.474zm-23315.887 5911.517c-.074.094-2.724.777-2.452 1.388 6.904 14.916 9.987 27.057 12.857 42.376 1.46-1.183 3.82-1.137 3.82-1.137-1.168-5.692 5.967-6.387 6.006-.44 1.368.326 2.777.33 4.013 1.723.577-16.742 6.56-34.068 14.286-46.067-8.794 3.484-21.68 12.195-21.68 12.195s-10.74-4.458-16.85-10.038zm-200.84 301.282c-11.707 11.152-16.307 42.16-15.472 42.592-15.07-.52-19.658 16.192-6.594 25.225-.517 1.75-1.79 3.163-2.786 4.708 1.347.774 2.82.946 4.292 1.117 1.113 1.334 2.214 2.868 3.426 3 1.315-.828 2.256-2.048 3.353-3.102 1.37-.35 2.726-.73 4.016-1.327-1.15-1.61-2.513-3.247-2.542-4.756 11.37-8.05 9.824-19.004-.418-24.626 3.07-18.454 7.538-30.235 12.7-38.61l.026-4.22zm214.668 31.116c-1.485.722-2.297 2.263-3.375 3.47-1.484.06-2.912.582-4.308 1.21 0 0 3.382 4.71 3.173 4.96-10.987 7.225-10.918 17.808-.374 24.795 1.778 15.064-10.967 38.885-11.608 38.204l-.026 4.93c9.066-9.944 14.257-27.917 14.785-42.44 18.084-1.186 18.736-18.762 6.3-25.39-.95-.89 3.134-4.96 3.134-4.96-1.03-1.027-2.776-1.147-4.294-1.27-.972-1.168-1.805-2.322-3.405-3.508zm-371.013 79.792c2.545 5.728 11.9-1.234 13.504 1.816 1.32 1.73 4.17 1.905 4.022-1.004-.53-2.886-2.426-3.526-9.9-2.27-2.84.47-3.996.756-3.976-.554-1.96-2.38-3.64.857-3.65 2.012zm430.11 85.407c-2.096-.005-2.456 8.244-2.438 10.724-6.074 9.64 12.44 8.567 4.445-1.952.28-1.377-1.02-3.616-.977-4.603-.66-.095-.932-3.817-1.03-4.17zm-61.558 59.344c-.197 2.498 1.62 10.073 2.287 9.814 2.374-3.837 2.096-7.128 1.854-10.882 5.665-10.957-13.64-6.48-4.14 1.067zm-566.16 55.595c-.866 16.116-4.798 31.907-13.7 45.608 7.66-3.586 15.085-8.2 22.28-12.16l16.78 10.485c.97-.42 1.64-.633 2.285-1.277-7.722-11.402-10.107-27.794-13.457-42.625-1.283.918-3.693 1.366-3.693 1.366-.175 5.15-5.546 6.81-6.625.1l-3.87-1.495zm154.214 26.914c-1.79.11-3.14 4.574 1.923 5.245 3.577.516 8.165-1.254 10.446-.436 2.64 4.246 5.012-1.994 1.487-3.018-3.802-1.097-11.522 1.75-12.38-.682-.43-.84-.972-1.152-1.476-1.11zm-195.574 133.39l-10.15 17.992 64.753-.315-8.446-17.18c.15-.19-28.28 3.373-46.157-.498z"/><path class="st1" d="M68.08 20.048l1.287 2.347c15.165-2.5 27.112-2.873 42.8.193l1.436-2.43c-14.316-2.632-28.924-3.717-45.522-.11zm-23569.3 5981.86l13.223 8.63s6.34-4.5 9.044-6.402l-1.64-2.433c-5.604 12.42-15.44 2.583-19.12-3.276 0 .016-1.01 2.27-1.508 3.48zm110.066 199.91c.918-.02 1.43.34 1.892 1.272.526 1.068.72.802.388-.516-.53-2.085 1.678-3.438 3.756-2.046 1.504 1.003 1.43 3.44-.215 3.887-1.325.365-1.364.704-.202.65 2.08-.102 2.64 2.707 1.15 4.06-1.698 1.575-3.878.462-4.07-1.522-.087-.553-.21-.55-.387-.24-.533.905-.572 2.092-.474 3.17l-3.083-1.928c1.092-.545 1.76-.866 2.554-1.698.105-.11.18-.19.18-.235-.002-.077-.337.022-.963.096-1.863.19-3.295-1.03-2.9-2.778.307-1.5 1.09-2.147 2.376-2.173zm182.53 76.277c3.353-3.855 7.514-6.325 13.29-5.96.758-16.16 6.325-30.505 15.257-43.436l-9.804-5.94-3.934 2.388c-9.073 13.535-15.276 30.603-14.81 52.947zm-155.03 227.276s-6.638 5-9.73 7.417l.103 44.536.862.29c.063.093-.074-.66.317-1.006.315-.284.83-.602 1.133-.716.85-.308.886-.88.096-1.372-.62-.388-.847-.985-.774-1.972.048-.694.014-.848-.27-1.32-.364-.593-.394-1.332-.088-2.108.147-.358.13-.45-.125-.938-.318-.61-.362-1.287-.115-2 .086-.28.15-.866.157-1.328-.034-1.77 1.427-2.955 4.114-3.316 1.053-.144 1.082-.19.606-1.075-2.715-5 3.403-7.6 3.862-6.807l-.153-28.282zm-317.903-214.49c2.48-.034 4.522 1.96 4.556 4.47s-1.948 4.552-4.442 4.586c-2.48.033-4.523-1.96-4.557-4.47s1.948-4.553 4.443-4.587zm463.088 25.636c-1.988.023-3.578 1.672-3.555 3.675.024 2.003 1.662 3.604 3.652 3.58s3.58-1.672 3.556-3.675c-.024-2.017-1.663-3.618-3.652-3.58zm.17 5.622c1.345-.01 2.453 1.06 2.48 2.416.01 1.356-1.07 2.47-2.416 2.497-1.347.012-2.455-1.075-2.466-2.43-.026-1.34 1.054-2.455 2.4-2.482zm-88.875 8.028c.183-.004.383.023.568.08 1.124.364 1.51 1.358.9 2.294-.474.734-.427.81.41.485.652-.244.99-.173 1.506.356 1.544 1.542-.762 4.145-2.278 2.572-.75-.786-.822-.554-.306.792.162.428.45 1.116.45 1.116l-2.22-.034s.35-.9.51-1.32c.394-1.008.407-1.163-.408-.53-1.808 1.437-3.862-1.034-2.194-2.638.346-.33.88-.34 1.637-.048.556.22.614.065.206-.45-.894-1.138-.067-2.664 1.22-2.674zm-448.076 2.374c-.91 5.965-.135 14.346-.154 18.83 2.412.46 2.444 2.124 2.806 4.18 1.17-.407 3.745 1.345 4.094 1.184.265-6.06-2.833-23.654-6.747-24.194zm294.916 34.084c3.434.287 2.766 2.95 1.746 4.033-.478.564-.397.81.132.49 1.453-.876 2.598-.236 3.056 1.28.8 2.588-2.584 4.827-4.1 2.5-.504-.792-.822-.616-.7.214.078.8.844 2.45.844 2.45l-3.357-.305s1.022-1.715 1.212-2.18c.378-.963.174-1.22-.545-.437-2.105 1.937-5.016-.548-3.658-3.117.665-1.26 1.912-1.67 3.232-.663.9.6 1.092.333.283-.375-1.48-1.358-.17-4.05 1.853-3.888zm134.863 40.203c.045 0 .075-.002.12-.003.292.01.584.08.894.26.836.477 1.068 1.412.533 2.223-.297.468-.215.76.132.46.465-.41 1.496-.137 1.906.502 1.042 1.642-.998 3.777-2.28 2.416-.577-.605-.792-.632-.723-.232.183.736.666 2.005.666 2.005l-2.326.03s.51-1.336.62-2c.08-.54-.133-.46-.687.167-.54.61-1.027.683-1.725.22-1.69-1.14-.34-4.046 1.44-3.064.604.342.692.14.22-.498-.848-1.14.014-2.434 1.207-2.488zm-355.586-.735c-3.78 3.91-2.586 1.607-.844 4.592.008 1.972 1.14 3.52.236 6.62-.294.607-.32.9-.154 1.513-.285 3.44-3.01 3.387-5.68 3.916.445-.024 4.21 6.99-2.837 7.528l.05 28.516 11.045-8.18.005-44.524-1.82.02zm586.52 25.374c-3.127 2.033-7.53 7.095-13.06 5.987-.694 17.792-6.502 31.57-14.797 43.396 2.85 1.7 5.996 3.748 8.914 5.062 2.47-1.28 3.854-1.817 6.294-3.82 9.97-15.464 13.145-32.365 12.65-50.626zm-434.287 74.914c.545 9.14 2.015 17.8 6.727 24.75l.34-19.42c-1.676-.413-3.06-1.51-3.548-4.613l-3.52-.716zm109.188 26.673l3.155.077s-.723 1.43-1.028 2.238c-.38.978-.192 1.175.515.498.93-.88 2.43-.972 3.21-.17 2.077 2.1-.106 5.532-2.57 4.025-1.052-.64-1.232-.422-.388.486 1.62 1.524-.08 3.714-1.98 3.72-1.377-.003-2.27-1.11-2.37-2.34-.047-.77.336-1.533.987-1.915.697-.382.202-.65-.556-.235-2.452 1.327-4.08-2.092-2.235-4.023 1.065-1.115 2.2-1.014 3.277.06.75.74 1.023.672.807-.202-.204-.997-.825-2.217-.825-2.217zm-104.395 27.83h2.265c-.218.56-.513 1.136-.686 1.694-.188.604-.05.68.552.097 1.556-1.048 3.214-.002 2.88 1.67-.24 1.143-1.192 1.717-2.304 1.215-.972-.444-.663-.25-.114.417.66.804.493 1.73-.383 2.35-1.54 1.092-3.58-.732-2.554-2.308.61-.937.32-.84-.222-.382-.83.602-2.07-.252-2.094-1.438-.094-1.708 1.617-2.666 2.834-1.457.576.482.713.433.454-.286-.225-.52-.312-1.073-.628-1.575zm471.05 38.547l2.372-.03s-.027.184-.397.87c-.428.81-.365 1.655.082 1.076.762-.954 2.36-.693 2.887.483.61 1.374-.586 2.876-1.822 2.3-.803-.37-.863-.292-.327.483.52.76.293 1.69-.554 2.23-1.662 1.065-3.663-1.068-2.266-2.436.376-.362.25-.544-.19-.305-1.832 1.007-3.197-1.493-1.603-2.957.678-.63 1.2-.578 2.3.2.342.24.414-.007.157-.618-.433-1.008-.637-1.297-.637-1.297zm-88.886 69.67c2.632-.035 4.8 2.095 4.837 4.744.037 2.65-2.063 4.832-4.71 4.868-2.632.036-4.8-2.093-4.837-4.743s2.064-4.832 4.71-4.87zm-486.887-2.654c-2.173.028-3.898 1.818-3.87 4.005.026 2.188 1.805 3.925 3.978 3.898 2.173-.028 3.898-1.818 3.87-4.005-.026-2.172-1.805-3.924-3.978-3.897zm.198 6.178c1.33-.01 2.424 1.062 2.45 2.402.01 1.34-1.054 2.455-2.386 2.465-1.332.012-2.44-1.06-2.45-2.4-.01-1.34 1.054-2.455 2.385-2.466zm-5.963 20.018l2.75 1.363s-1.31 1.073-1.82 1.623c-.66.706-.622 1.044.274.703 1.702-.65 3.42.32 3.455 2.105.047 2.387-2.762 3.52-4.098 1.714-.394-.533-.872-.754-.696-.327.45 1.07.17 2.416-.616 2.955-.634.444-1.794.574-2.382.262-2.01-1.054-2.117-3.394-.19-4.31.97-.465 1.007-.897.047-.663-1.98.5-3.13-1.926-1.707-3.57 1.51-1.757 3.998-1.39 4.263 1.21.056.46.37.13.51-.58.174-.513.212-2.485.212-2.485zm-9.083 67.106s-10.098 5.775-9.802 6.016c.062.03 2.234 3.13 2.234 3.13 5.028-11.422 16.998-1.936 18.918 3.896.418.254.493.19.94.398.04-.417.878-4.47.878-4.47l-13.17-8.97zm125.103 67.12l-1.623 2.327c-.56.242 25.162 4.652 45.463.218l-1.4-2.684c-16.54 4.22-42.694.436-42.44.138z"/><path class="st2" d="M19.58.494l-.214 209.863 130.547.152.212-209.865L19.58.495zm-23810.34 5834.688l65.535-.176-12.13 20.867c.118-1.096-23.55-4.5-42.894-.407l-10.51-20.284zm179.053 14.657l35.648.04 11.994 21.67s.7 1.36.284 2.77c-.46 1.548-.86 2.234-1.273 3.012.037-.447-3.46-.902-3.173 2.127.193 2.044 2.772 3.21 4.685 1.617.305-.02.296.256.23.766-.177 1.174-1.42 4.88-2.274 5.13-4.31-3.568-5.85 2.933-2.948 4.23 1.683.754 4.273.133 5.49-1.893.933-1.56.83-1.295 1.112.594.106.707.26 1.52.343 1.888.252 1.15-.004 1.37-1.922 1.887-1.55.6-3.104.938-4.705 1.277-2.914.473-4.4 2.69-4.472 5.372-.018.585.003.846-.116 1.018-12.307 4.694-25.266 11.25-38.99 22.472l.09-73.98zm-124.72 49.268c-.457-.76-1.943-4.737-2.358-6.408-1.06-8.068-1.247-17.63-2.388-25.127l1.504.17s.564 2.178 1.167 8.035c.302 2.906.603 8.955.857 11.738.37 4.137 2.23 10.74 3.364 12.413 1.874 2.72 5.636.967 4.38-2.26-.646-1.68-3.18-1.4-2.826.334.006.308.24-.22.617-.552 1.093-.422 2.324.725 1.678 2.11-.793 1.755-3.15.954-3.943-1.264-.94-2.647 2.22-4.635 4.58-3.017 2.62 1.798 2.618 6.374.503 7.817-3.556 1.287-5.98-1.315-7.134-3.988zm454.717 297.163c-.14-.09.008-.37.18-1.02.655-2.462.25-4.38-1.33-6.197-.878-1.015-1.218-1.193-.747-1.372.987-.388 3.146 1.202 3.743 2.762.58 1.53.734 3.113-.105 4.84-.59.35-1.478 1.092-1.74.99zm50.887 17.99c-.005-.292.19-1.19.244-1.637.182-1.714-.618-3.47-2.037-4.828-1.186-1.148-1.295-1.27-.178-1.276 2.892-.042 4.744 4.667 3.396 6.99-.344.36-1.385 1.104-1.423.75zm17.472-10.25c.854-4.02-2.994-6.703-3.084-6.578.197-.897 1.722-.388 2.25-.03 1.954 1.32 3.062 4.763 1.86 6.728-.133.234-.283.375-.495.503-.407.254-.633.46-.728.276-.048-.123.185-.698.197-.9zm-20.178-21.487c.406-.393.528-.41 1.3-.118 2.42.923 4.36-.825 3.79-2.662-.213-.674-1.115-1.396-1.682-1.446-.92-.09-.926.388.045.77 1.218.453 1.335 1.745.26 2.336-1.253.856-3.3-1.307-4.813-1.138-.715.214-1.176.885-.777 1.725.347.563 1.426.927 1.877.533zm-188.77-76.378c-.835-.4-1.156-.394-1.006-1.305.11-.603.98-4.703 1.378-6.282 1.24-4.74.086-7.366-3.394-8.438-2.356-.724-4.385-.36-6.793.92l-.424-1.348c10.065-2.632 27.235-2.03 27.176-1.935.33 1.365.465 2.733.6 4.086 0 0-3.216-1.585-4.895-2.122-2.587-.796-6.672.07-7.393 1.563-.412.84-.202 1.406 1.54.478 2.848-1.534 8.656-.353 10.693 1.286.467.376.453.453.462.9.013.677.06.707-.884.217-4.885-2.523-9.043-2.226-10.494 1.07-.34-.102-1.6-.324-1.6-.324l1.357 2.02.255 2.122s2.213 1.25 3.448 1.766c1.204.516.505-.025-.97-1.075-1.086-.764-.218-.997.49-.718 1.477.34 3.628.776 6.123-.813.77-.493 2.54-.066 2.575.165 0 0 .235 1.86.463 5.722.113 1.83.328 4.213.454 5.197.38 2.966.49 3.133-1.053 1.715-.513-.483-1.386-1.267-1.385-1.22-.196.912 2.085 2.53 2.616 3.09.814.848 1.452 2.992 1.134 3.122-.198.08-2.377-1.772-4.078-3.448-.64-.62-1.59-1.464-1.62-1.432-.347.238 1.078 1.874 2.418 3.08 1.558 1.417 1.744 1.552 1.213 1.763-.972.39-1.854-.102-4.204-2.074-.233-.196-1.118-.826-1.163-.78-.21.283 1.96 2.366 2.452 2.542.925.336 1.187 1.224.46 1.577-.485.24-2.28-.756-3.728-2.022-.265-.226-.977-.612-1.022-.565-.287.19 1.332 1.59 2.866 2.532 1.502.91 1.752 1.136 1.37 1.9-.354.776-3.664-1.04-5.323-2.9-.345-.395-.624-.574-.56-.437.713 2.02 3.098 3.467 4.854 4.034.307.102.77.23.97.397.5.407.385.825-.147 1.05-1.887.53-4.855-1.768-6.97-4.176-.245-.103-.1.218-.038.324 1.77 2.847 5.164 5.014 7.207 4.62 1.19-.24 2.16.127 2.168.527.007.323-.656.86-1.94.947-2.904.21-7.45-2.997-10.102-7.09-.08-.12-.188-.18-.186-.103-.075.863 1.573 2.988 2.837 4.195 3.758 3.61 7.317 4.833 10.094 2.807 1.568-1.217 3.077-3.88.748-4.79-1.233-.47-2.01 1.24-.965.742 1.39-.166 1.695.568 1.525 1.264-.36 1.194-1.534 1.386-2.493.88-1.672-.906-1.304-4.025.844-4.56 1.95-.47 3.635 1.192 3.865 2.76.337 2.442-2.397 5.083-4.604 5.743-7.486 2.243-13.34-8.257-13.374-8.487-.382-.732-.833-1.11-1.107-.27-.313 1.222-2.003 4.83-2.907 4.8.282-1.268 1.465-3.402 1.183-5.276-.505 1.535-1.558 4.822-3.575 6.556-.527.472-2.06 1.042-1-.196 1.283-1.797 2.95-4.264 2.613-6.583-.342.515-.53 1.843-.912 2.713-.967 2.176-3.09 4.76-4.49 5.172-1.035.312-.935-.044.115-1.158 1.14-1.193 3.138-4.714 3.017-6.237-.06-.677-2.09 5.803-5.883 7.572-1.034.374-1.61-.107-1.61-.107 1.5-.862 5.628-4.964 5.247-9.61 0 0-.215.683-.547 1.722-1.398 4.434-4.418 7.358-6.755 7.59-1.864.19-3.18-.57-2.712-.903 2.42.013 4.423-.827 5.984-3.2 1.59-2.42 2.173-6.297 1.22-10.422-.868-3.712-1.04-7.05-1.34-10.62 2.65.92 5.326 1.53 7.924.507-.255 1.068-.696 1.2-1.37 2-.493.58-.322.73 1.61-.65.56-.395.767-.722.86-.616.172.165-.097 1.264-.652 3.447-.84 3.267-.62 3.494 2.48 4.727.586.235.79.462.994.705.094.12.6 1.035.648 1.08.11.075.09-.942.023-1.202-.167-.69-.53-1.207-.854-1.4-.607-.513-1.48-.573-2.052-.823zm43.8 40.857l.04-3.39 3.26 2.34-.04 1.11-3.26-.06zm313.826 242.123l-.057-62.623s2.51-1.683 3.763-2.508c.783 2.48.765 7.81.474 10.174-.49 1.55-.724 8.41-.166 11.912.438 2.795.36 7.403-.072 9.6-.167.865-.043 4.9.26 8.637.24 2.86.167 5.45-.186 6.936-.268 1.176-.187 5.365.12 6.976.444 2.363.516 9.972.31 10.392-.524.627-4.73.71-4.445.503zm-25.9-62.252c.002 0 2.53 1.676 3.74 2.53l.02 2.695-3.642-2.408-.116-2.817zm-1.534-354.86l1.563.093c.615 3.27.886 6.977 1.126 10.685.08 5.73.765 11.772 2.098 15.736l-1.154 1.21c-1.956-4.54-2.096-11.7-2.527-16.56-.183-5.434-1.06-11.133-1.106-11.163zm-171.185 18.357l3.397 2.322.026 2.942-3.427-2.29.003-2.974zm174.635 2.677l1.365.158c.412 3.875 1.045 6.497 1.297 10.774.306 5.524 1.252 10.05 1.84 14.352l-1.034.344c-.682.322-1.822-4.77-2.314-15.098-.154-3.14-.666-6.658-1.155-10.53zm-195.876-.303l1.643.292c.71 9.8 1.854 19.005 3.044 24.28l-1.422.09c-1.77-7.53-1.862-16.247-3.266-24.662zm13.794 1.41l1.505.263c1.783 22.412 2.91 22.128 3.248 23.015l-1.624.663c-1.75-6.45-2.094-15.534-3.13-23.94zm19.863 24.266c-.26.76-.875.68-1.53.754-.746-2.065-1.176-4.522-1.483-6.92-.685-5.285-.92-10.226-1.633-15.45l1.796.18c-.076.064 1.246 18.402 2.85 21.436zm-3.66 102.032c2.374.123 4.323 1.194 4.522 2.762.037.353-.242.174-.553-.066-2.036-1.578-4.357-2.072-7.153-1.062-.608.228-1.107.56-1.383.52-.247-.164-.316-.533-.138-.86.667-1.09 3.54-1.348 4.704-1.294zm-216.762-110.21c.048 2.465-.553 3.832-1.843 4.397-1.547.692-3.55-.794-2.573-2.447.725-1.246 1.987-.87 2.227.45l1.98-4.414c.016-.017.21 1.396.208 2.013zm41.28 16.238l-.028 2.543-3.644-2.455.243-2.44 3.428 2.352zm334.317 7.023c1.79.72 2.45 1.585 2.518 1.984-.102.295-.29.098-1.59-.616-2.013-1.254-4.65-1.448-6.96.122-.58.12-.632-.22-.063-.846 1.764-1.39 4.197-1.407 6.095-.643zm-343.774-10.87c1.576-.047 3.467.363 5.06 1.164.71.355 1.342.574 1.793.98.372.194.39 1.04.13 1.093-.244.035-.63-.158-1.22-.562-3.783-2.483-6.502-2.183-8.707-.66-.12.078-.502.163-.64.15-.414-.038-.432-.207-.268-.426 1.018-1.145 2.523-1.698 3.853-1.74zm122.788 1.012l3.647 2.58.003 2.525-3.88-2.712.23-2.393zm195.71 17.092l.537.02c1.237 3.027 2.8 1.47 3.45.257l.644.11c-1.023 4.057-5.15 1.934-4.63-.387zm-365.537-2.834c.598.08.58.76.774 1.264.42 1.116-1.175.177-1.456-.095-.453-.5.193-1.113.68-1.17zm12.97 2.005c1.577 2.418 2.483.983 3.38-.067l.432.132c-.12 1.727-3.007 3.57-4.38-.038l.567-.026zm104.782 2.067c.168-.004.508.128.816.246.864.353.808.6-.133 1.035-1.517.677-2.05.765-1.596-.2.25-.436.44-1.01.912-1.08zm20.78 2.49c.39.284.64.602.68 1.11.038.354-1.164-.054-1.16-.624.04-.37.232-.666.48-.486zm-43.665 1.365c.786.292.686.664.142 1.014-.985.543-1.4.443-.76-.417.283-.42.357-.592.617-.597zm1.79.702l3.943 2.803-.042 2.574-3.94-2.712c-.175-1.106-.006-1.85.04-2.666zm264.358 18.864c.184.012.257.627.305 1.535.075 1.51-1.46 3.62-3.007 4.358-1.866.87-3.864-.355-3.532-2.18.305-1.67 2.676-1.747 2.768-.193-.237.406.09.753.228.72.61-.166 2.053-1.458 2.637-2.917.234-.56.36-1.147.526-1.29.03-.015.06-.03.075-.03zm-310.21 12.307l3.945 2.91.02 2.558-3.91-2.71c-.16-1.153-.1-1.955-.055-2.757zm329.484 10.487c-.298.5-.05 1.403.562.636 1.57-1.85 3.85.464 2.624 1.936-1.106 1.33-2.462.896-5.345-.203-2.097-.808-2.428-.54-2.937.04-.42.487-.217 1.438.334 1.427 1.69.383 3.168.77 4.92 1.136 3.72.774 5.982-4.046 2.596-5.813-.804-.415-2.493.126-2.754.84zm-282.077 16.347c-1.444 1.307-.26 4.735 1.873 5.047.446.07 1.12.04 1.864-.175 1.492-.43 3.143-1.326 3.21-1.835.306-2.348-3.174-.246-3.628.025-1.104.668-2.253.583-2.835-.222-1.32-1.792 1.042-3.857 2.478-1.65.362.546.237-.39-.158-1.03-.57-.883-2.006-.824-2.804-.16zm-26.24.198l3.71 2.64-.03 2.45-3.602-2.61-.078-2.48zm357.62 8.15l3.51 2.55.065 2.555-3.69-2.454c.073-.91.087-1.773.116-2.652zm-18.6 21.165c3.093.047 4.836 4.65 3.205 6.56-.48.565-.874.727-1.092.516-.047-.046.035-.556.07-1.142.1-1.85-.29-3.12-1.635-4.528-1.014-1.058-1.388-1.39-.546-1.406zm-147.335 6.134c-.578.212-1.197.64-1.674.526-.476-.098-.7.137-.877.51-.707 1.432-.484 1.89.908 1.077.666-.383.898-.25 2.68.1 1.276.238 2.133.22 3.26-.063 1.385-.366 2.227-.382 2.923.004.712.387 1.18.917 1.203.485-.07-.507-.524-1.807-.624-2.237-.05-.215-.398-.023-.72 0-1.145.083-2.528-.968-3.42-.412-.71.446-.816.556-1.792-.026-.728-.448-1.228-.192-1.866.036zm-173.417-.72c2.086 1.76 2.622 3.322 2.417 4.605-.104.925-.176 1.96-1.084 2.516-.166.08-.41.13-.654.167.712-2.648-.115-5.02-3.072-7.55.864-.418 1.74-.28 2.393.26zm158.766 6.676c.09-.002.2.01.292.055.37.117.418 1.07.134 1.384s-.52.056-.84-.708c-.254-.427.016-.725.414-.732zm-263.125-5.594c.766-.014 1.055.69 1.188 1.256.117.475-.024 1.91-.43 1.41-.1-.306-.516-1.284-.843-1.54-.76-.57-.68-1.11.086-1.125zm-12.93 4.56c.107-.003.26.01.43.037 1.197.207 2.107 2.115 1.822 3.2-.635 1.167-.865.37-1.07-.673-.16-.444-.65-1.128-.946-1.476-.627-.743-.71-1.08-.236-1.09zm59.69 3.127l3.632 2.625.01 2.804-3.8-2.576c.07-.987.114-1.928.157-2.853zm322.88 7.62c1.774-.036 3.3 2.09 2.727 4.09-.694 2.093-4.162 1.637-3.575-.438.172-.605.807-1.033 1.41-.66.884.538.79-.34.233-.65-.867-.493-2.04-.192-2.31.784-.93 3.406 3.44 4.584 5.805 1.056.863-1.296 1.815-2.67 2.34-3.25.464-.534.572-.474.494.205-.306 3.18-2.51 7.137-6.63 6.91-4.003-.384-5.25-4.673-2.225-7.336.572-.427 1.118-.7 1.73-.712zm-388.877-3.453c-1.47.707-2.797.98-4.233.345-1.065-.472-1.055.036-.588.458 1.34 1.145 3.778.635 4.82-.017.334-.207.445-.81 0-.786zm173.954 8.932l.004 2.557-4.048-2.74c-.058-.616 0-1.54.135-2.5l3.91 2.682zm308.01 36.215l3.862 2.56.094 2.523-3.75-2.345-.206-2.738zm-21.444 7.707l3.693 2.577.054 2.758-3.645-2.425-.102-2.91zm-88.982 22.342l-2.268 6.87 1.47.093 1 1.813 1.02-1.853 1.56-.123-2.78-6.8zm-407.89 4.926l3.552 2.457.05 2.556-3.693-2.578.09-2.436zm498.182 20.193l3.648 2.655.068 2.71-4.125-2.77.41-2.595zm-82.7 18.514l-2.244 7.346 1.268-.164 1.17 1.965 1.19-1.765 1.135.07-2.517-7.453zm-468.188-2l-2.138 7.298 1.423.003 1.198 1.842 1.052-1.777 1.622-.047-3.158-7.318zm4.705 2.225l4.267 3.028.025 2.88-4.14-2.8-.153-3.108zm545.64 27.28l.05 2.525-3.602-2.58-.39-2.795 3.942 2.85zm-53.86 38.422l-2.624 7.415 1.745.012 1.06 1.782.854-1.788 1.408.018-2.44-7.44zm-349.435-6.94l3.335 2.307-.026 2.59-3.288-2.216-.02-2.68zm340.672 43.756l-1.903-1.842c-.018-.153 1.56-.923 2.532-.434 1.283.653 1.94 2.982.495 4.196-1.143.978-2.888.165-2.92.042l1.797-1.96zm-355.778 153.494c.035-2.835-1.45-3.576-2.684-4.153 0 0-.183-18.02-.163-18.546.002.078-.313-1.95-.346-2.072 0 0-.293-.087-.292-.072.05 1.833.155 20.55.127 20.672-2.306.26-2.95 1.83-3.153 3.944-1.794-.134-2.967.952-3.01 1.138-.66-.912-.166-2.262-.69-3.222-1.59 5.593 1.49 8.953 4.194 8.638.426 5.383 6.308 6.362 6.12-.167 7.108-.447 4.7-7.024-.105-6.16zm-42.345-39.52l-2.583 7.275 1.802-.204.654 1.342c2.888-2.567 4.36 1.41 2.884-1.997l-2.757-6.417zm-84.124-115.593c.338-.022.772.277.857.692.054 1.23-1.573.955-1.635.17-.026-.554.458-.84.78-.862zm541.41 92.136c.707-.584 1.83-.25 1.848.627.015.785-.868 1.033-1.565.6-.543-.343-.57-.96-.284-1.227zm4.943 46.165c3.878.294 6.766-2.35 5.535-4.253 1.045-1.314.19-2.068.48-2.83.825-.847.132-2.666-.067-2.678-.17-2.446-.88-2.77-1.93-4.075-.314-.38.735-.755 1.135-1.395-1.233.333-1.903-.3-2.578-1.135-7.172.325-13.62.82-13.385 10.615-1.036 4.15.704 7.858 5.718 6.728 1.098-.992.382-2.41.246-3.102-.42-1.885.062-3.112.212-4.008.437-2.736 2.423-5.27 2.644-.992.357-.53.187-.62.764-.847 1.383-.504 1.38.898 1.085 1.473-.177.297-.453.27-.73.23-.398-.053-.92-.197-.924-.35-.114.448.73 1.28.645 1.696-.113.403-.176.358.187.104 1.72-1.235 2.8 1.532.314 1.21 1.208.686-.62 2.617.653 3.61zm-2.244-3.095c1.36-.073 1.68-.08 1.62.646.254 1.32.588 1.945 2.3 1.804 1.724-.22 2.273-.338.533.713-.88.387-1.17.47-2.212.367-1.057-.102-.967-.197-1.572.154-.333.207-.696.445-.97.497-.412.07-1.113.223-1.113.223-.404 2.057-1.027 3.1-1.88 4.073-1.198 1.364-1.805 1.607-.338 1.517.537.035.256-.237.498 1.977.076.784.23 1.675.345 1.98.387 1.01.427 1.518-1.026 1.592-3.622.272-4.472-3.286-3.987-5.098.04-.278.206-1.236.253-1.977.022-.416-.06-.754-.054-1.17.087-3.39.88-4.284 3.87-6.484.904-.665 2.524-.805 3.733-.813zm-8.973-82.176c1.668-.033 3.29.783 2.49 1.307-.53.335-2.4.202-2.927-.173-.683-.495-.435-1.116.437-1.133zm-57.086 4.206l-.665 1.184c.31 2.582.352 3.936-.575 6.635l1.367 1.806 1.08-1.87 1.7.028-2.906-7.784zm-335.374 5.353c1.092.225 1.126 1.21.847 1.832-.6 1.352-4.66 2-4.66 2-.026-.584.055-1.14-.37-1.794 0 0 2.71-.714 3.28-1.234.36-.36.597-.797.903-.803zm434.268 10.523c.4.007.603.296.706.88.052.306-.065.586-.32.915-1.033 1.13-3.926 1.91-4.972 1.623-.078-.09.113-1.28.18-1.806 1.393.035 3.74-1.213 4.406-1.61zm-37.293 23.83c-1.385-2.007-4.455-1.716-4.116-1.584.027-1.726-.264-4.093-2.855-4.335-2.622-.195-3.963 3.267-2.97 4.742-1.62-.678-4.036 1.018-4.033 1.172-.2.004-2.062 4.924 3.545 5.184.504 2.33 1.383 3.454 3.162 4.405l.018 18.98.63.867.07-19.89c2.86-.118 3.225-3.422 3.01-4.188 1.272.05 2.43-.203 3.41-.946l.34 3.244s.666-1.138.532-1.752c-1.236-18.632 5.49-38.79 14.296-51.843.464-.55.62-1.2.85-1.203 2.15-1.167 3.496-1.948 3.496-1.948 3.54 1.717 9.85 5.846 9.85 5.846l.072 26.558c-.097-.26 11.76-1.325 11.583-.998 0 0-1.033-.41-1.046-1.104l-.247-62.142-5.178-3.41s-4.263 2.794-5.47 3.757l.102 36.586-9.182-5.427s.143-1.298.165-1.715c-.143-4.988-2.578-6.666-7.218-5.19-.624.198-1.05.376-1.36.12-1.948-5.74-2.81-20.835-2.81-20.835l13.097-22.287 22.192-.096.298 85.235.763 44.677-11.333 8.294-.13-28.622s-1.62-.784-2.05-.837c-.154-.013-.36.346-.082.525.418.27 1.436.65 1.436.65l.216 28.358s-4.412 2.982-6.377 4.223c-3.68 2.03-7.3 3.95-11.11 5.64-3.75 1.615-12.008 5.06-12.008 5.06-.72-2.39-7.793-7.952-15.753-4.037-.73.276-1.628.51-2.247.938-3.035.553-4.042 3.824-4.5 6.99-.014.124.246.104.246.104.03.046.72-3.05 1-3.625.59-1.245 1.324-2 1.72-2.114.183-.035.326.255.09.69-.49.874-.88 2.73-.987 3.58-.108.772-.127 1.388.01 1.417.033.03.706-2.34 1.01-3.178.8-2.173 1.303-3.076 2.075-3.538.786-.478.972-.404.813.092-1.18 2.302-1.666 4.037-1.894 6.49-.036.495.21.505.407-.3.64-2.57 1.536-6.054 3.613-7.08.895-.403 1.28-.38 1.192-.1-2.48 3.144-3.1 6.638-3.078 7.778.007.37.16.305.48-.518.843-3.098 2.092-5.74 3.567-7.033.572-.504 1.258-.64 1.838-.714 1.756-.22 1.815.442.286 1.335-1.74 1.02-3.75 4.71-3.97 7.488-.074.956.265 1.073.5-.21 1.04-5.52 5.745-9.172 9.512-7.474 1.7.768 1.995 1.825.532 1.345-2.99-.958-6.314 1.172-7.68 4.14-1.233 2.69-1.22 4.108-.355 7.71.585 3.333 1.74 7.577 1.36 10.835-.417.64-1.705-.26-3.24-.46-.92-.182-2.055-.22-3.012.152-.835.324-1.323.41-1.47-.05-.05-.152.657-.86.955-1.265.493-.627.215-.73-.49-.053-.346.33-1.08 1.13-1.28 1.165-.44.086-.466-.407-.093-1.693 1.265-4.97.927-5.057-1.22-6.062-2.13-.82-1.463-1.235-2.397-2.048-.664.52.868 2.925 2.608 3.446 1.416.434 1.247 1.16.627 3.13-.635 2.755-1.712 6.396-1.098 8.85 1.31 5.134 6.48 5.033 10.45 2.968l.485 1.315c-3.356 1.36-21.043 2.507-26.995 1.807-.46-1.624-.5-2.04-.69-3.946 0 0 3.677 1.686 5.52 1.973 2.287.37 5.823.38 6.73-1.734.28-.623-.007-1.156-.796-.787-1.455.66-3.94 1.156-5.948 1.026-1.686-.107-4.087-.8-5.124-1.426-.496-.298-.906-.89-.522-1.623.35-.082.787.31 1.065.443 3.046 1.542 4.705 1.85 6.7 1.255 1.505-.446 3.54-2.088 3.04-2.54-.5.18-2.203 1.6-3.36 1.915-2.39.632-4.95-.35-7.43-1.965-.764-.68-.42-1.163.523-.627 3.726 1.9 5.28 3.148 8.84.506.8-.6 1.246-.518 1.712-.157 1.854 1.673 1.85.733.486-.997-.313-.394-.584-.943-.764-1.54-.13-.43-.17-.875-.42-1.148-.423-.485-1.177-.716-2.042-1.115-1.25-.56-1.66-.29-.747.168 1.608.8 2.405 1.648.39 1.18-1.822-.828-4.86-.368-6.58.837-1.35.658-1.948 1.363-2.268-.125-.66-3.13-.007-7.38-.893-12.83-.174-1.045-.37-1.704-.16-1.847.273-.175.975.49 1.825 1.705.393.547 1.164 1.626 1.16 1.395.023-1.156-1.748-3.324-3.235-4.19-.805-.476-1.352-2.637-.424-2.163.71.356 4.433 3.657 5.145 4.83.332.547.6.203.267-.437-.207-.38-1.086-1.52-1.93-2.35-1.512-1.48-1.68-1.416-1.394-1.714.57-.597 1.795.18 3.992 2.17.565.713 1.297 1.36 1.213 1.01.22-.56-1.955-2.92-3.253-3.558-.247-.15-.28-.318-.256-.61.13-1.113 2.643.532 4.716 2.448.78.724.14-.634-.765-1.556-.703-.726-1.854-1.628-2.64-1.936-.772-.324-.816-1-.21-1.29 2.096-.087 4.25 2.074 5.538 3.76.362.47.675.817.306-.054-1.183-2.642-3.662-4.15-5.382-4.454-1.398-.25-1.36-1.514-.057-1.37 1.443.156 3.795 1.466 5.793 3.507.578.59 1.553 1.926 1.354 1.144-.004-.215-.617-1.05-1.322-1.868-1.64-1.632-3.534-3.09-5.548-3.527-.94-.274-3.745.274-3.754-.22-.007-.353.295-.575 1.192-.87 3.467-1.162 8.53 1.85 11.284 6.45.204.334.574.466.588.39-1.33-3.765-5.482-7.18-8.784-7.763-2.242-.372-4.51.21-5.6 1.727-1.22 1.718-.747 4.004 1.086 3.83.963-.08.875-.634.86-.65-.063-.06-.624.198-.962.128-1.245-.253-1.105-2.52.705-2.294 2.102.267 2.38 3.59.053 4.28-2.16.645-2.96-.356-3.55-1.53-.86-1.725.065-4.516 1.59-5.578 4.274-2.98 9.68-.468 12.737 2.492 1.513 1.465 2.62 3.215 3.298 5.096.178.444.56.39.383-.053-4.287-11.054-17.138-12.358-19.022-3.786-3.11-4.915-5.826-5.262-9.994-3.116-4.25 1.762-6.35 3.205-10.278 5.054l-8.91-4.832c-.51-8.91-.21-17.85-.17-26.772.026-.2-1.926.145-5.19.656-8.662 1.726-7.926-2.94-9.048-3.18-.6-.128-.564.133-.716-16.317-.047-4.775-.134-13.185-.195-18.668-.062-5.484-.075-10.06-.03-10.153.044-.093.54-.52 1.1-.915 2.113-1.505 3.304-2.407 7.918-5.963 1.04-.808 1.314-.936 1.314-.936.514 9.88.027 20.258.285 28.757l.382.01-.128-28.53c-.8-.216 18.222-11.388 28.65-15.013.2-.065.678.156.678.156 5.975 7.386 21.712 5.167 22.99-3.81 2.603 5.48 14.045 16.133 19.29 3.32 0 0 1.893 3.69 3.52 3.937 3.653.498 4.07-.095 12.12-4.012-9.247 13.985-14.344 28.874-15.02 46.897zm-234.29 29.095c.196.63.273 1.428.102 2.063-.235.498-.588.49-.588.49l-1.775-1.537-1.744 1.62s-1.062-1.088-.48-2.578c1.108-2.102 3.67-1.72 4.484-.057zm19.457-20.085c1.146-.068.545 1.253-1.137 2.15-1.06.56-1.945.715-2.316.506-.212-.626-.04-1.184.094-1.433.727-.384 2.705-1.024 3.36-1.222zm181.252 7.195c1.268-.025 2.357.878 2.404 2.495.013.662-.327 1.3-.327 1.3l-2.112-1.576-1.62 1.725c-.273.098-1.26-1.146-.584-2.5.503-.98 1.382-1.428 2.238-1.445zm-377.41 4.57c1.777.813 2.086 3.32.36 4.292-.817.463-2.113.72-2.728-.224l1.753-1.914-2.007-1.7c-.078-.077 1.542-.94 2.623-.453zm212.043 7.523c.306-.006.385.115.467.407.245.81-.38 1.64-1.478 1.908-1.02.236-.912.357-1.404-.558-.38-.716-.472-.684.12-.91.715-.23 1.475-.508 2.295-.847zm185.992 3.285s-1.26 1.288-1.816 1.838l1.905 1.996c.097.245-2.194 1.276-3.388-.288-.785-1.016-.333-2.966.77-3.62 1.12-.7 2.74-.13 2.528.074zm-277.725-.2c1.117-.023 2.038.884 2.06 2.023s-.878 2.067-2.01 2.074-2.054-.884-2.06-2.024c-.007-1.14.893-2.066 2.01-2.073zm-12.71 2.532l-1.83 1.916 1.97 2.164s-1.556.262-2.11.15c-2.687-.503-2.412-3.682-.347-4.508.882-.31 1.542-.215 2.317.278zm-190 15.8s.356 4.075.69 5.455c-.214 1.59-1.234 2.658-1.692 4.3-.246.73-1.16 1.702-1.334.674-.668-1.267-.024-2.82-.578-3.718-.414-.855-.194-1.32-.38-2.196-.518-.73-.754-1.048-.675-1.697-.1-2.88-.825-2.31-2.09-2.07-4.92.42-4.926 3.27-4.626 6.9-.7 3.403.586 2.592.537 3.21-.072.97.092 2.324.386 2.472 1.754 2.03 1.842 3.43 4.116 3.093 3.863.31 10.005-.258 11.336-4.998.834-6.718 1.092-13.086-5.686-11.428zm-159.69-1.825c1.087-.02 1.977.855 1.983 1.95s-.85 1.987-1.936 1.993c-1.086.022-1.976-.854-1.982-1.948-.005-1.08.85-1.973 1.936-1.995zm175.95 2.512c.735-.014 1.595.154 2.297.834 1.513 1.465 1.585 2.79.9 8.425-.2 1.59-.756 2.91-1.48 3.496-1.477 1.154-3.282 1.99-4.775 2.36-.79.2-1.465.197-2 .192-.582-.004-.91-.275-.95-.75.128-1.313-1.206-1.44-1.97-1.365-1.376.058-1.51.2-.65-.465.98-.758 3.228-.77 3.666-.318.886-.88 1.802-.99 2.917-1.12-.173-.243-.56-1.237-.297-1.858.577-1.03 1.568-2.835 2.595-3.518 1.015-1.33.154-.727-.473-.714-.367.007-.323-.102-.39-.347-.25-1.043-.61-2.992-.616-4.148-.027-.586.49-.704 1.226-.703zm-209.832 2.24c.39.36.384.854-.022 1.217-.48.425-1.42.182-1.45-.604.06-.802.99-1.036 1.472-.614zm32.535 9.957c-1.65.08-3.002-1.697-2.378-3.466.342-.484.482-.41.482-.41l1.87 1.69 1.8-1.9c1.488 1.82.214 3.955-1.773 4.086zm308.05 21.782c-.143.51.035 1.032.055 1.278-.332.237-1.717.634-2.46 1.003-.517.18-.893-.306-.826-.754.198-.836 1.412-1.383 2.295-1.632.274-.066.733-.09.936.106zm-389.332-22.094c.505-.056.358 1.04.17 1.6-.19.403-.742.383-1.232.408-.87.048-1.984 1.07-2.462.896-.154-.074-.27-.488-.29-.765.11-1.45 2.532-1.99 3.815-2.138zm3.957 14.653c-.163.25-.712.368-1.158.238-.74-.2-.853-1.262-.202-1.63 1.156-.39 1.835.69 1.36 1.392zm87.248 6.43l-.996 1.528-1.517-.032 2.444 7.58 1.136-2.966c.157-1.358.33-2.718.47-4.09l-1.538-2.02zm370.79-2.962l1.945 1.595 1.666-1.712c1.232 2.78-.197 4.055-1.713 4.023-1.67-.045-3.46-1.643-1.897-3.907zm-221.518 2.02c.61-.12.352 1.565.26 1.613-.394.146-2.09.364-2.796.964-1.522 1.2-2.164.458-1.457-.973.657-.83 3.107-1.586 3.994-1.604zm-234.337 10.147c.672-.06 1.146.686.73 1.403-.555.52-1.542.138-1.54-.6.005-.464.382-.764.81-.803zm9.666 4.886c.1.383-.04.263-.756.477-.396.116-1.003.374-1.654.71-.94.48-1.21.733-1.533.678-.26-.056-.57-.173-.652-.45-.326-1.086.556-2.182 2.592-2.93.426-.163 1.188-.286 1.448-.306.673-.013-.056 1.064.556 1.822zm-4.888 21.618c.98-.02 1.173 1.302.428 1.532-1.72.45-1.576-1.54-.428-1.532zm5.67-3.928c.28.272.32.702.003.94-.575.288-2.753.038-2.765-.578-.008-.4.724-.538 1.397-.55.688-.03 1.148-.023 1.366.188zm91.314 27.246l-1.805 2.423 2.415 6.1 2.214-7.377-1.732.696-1.092-1.842zm444.084 23.05c.396 18.757.284 61.757.284 61.757l5.306 3.64 5.584-4.04c-.05-13.524-.093-22.86-.123-35.4l8.185 4.54s.252.364.21 2.06c-.568 4.678 3.914 7.718 6.894 5.872 1.153-.484 1.244-.563 1.48-.198.663 1.004 1.42 5.318 1.55 8.058.188 4.14 1.255 12.577 1.517 12.633l-13.336 22.585-21.076-.018.09-84.272c1.064 1.273 1.647 2.11 3.436 2.783zm-487.484 19.042l-.996 1.53-1.21-.008 2.113 7.862 2.574-7.676-1.412-.173-1.07-1.536zm361.153 62.948s-2.596 1.87-3.428 2.41c-.44.162-.64.196-.754-.233-.133-.522.078-1.497.26-3.103.17-1.482.17-1.574-.07-3.696-.26-2.212-.29-2.304-.073-5.235.243-3.27.288-6.43.036-8.397-.235-1.86-.242-6.127-.043-8.488.234-2.9.154-5.457-.21-7.575-.67-3.762-.786-5.054-.076-7.887.27-1.053.397-1.625.347-3.396-.054-1.97-.097-2.617-.794-6.98-.4-2.517-.438-2.855-.057-6.838.077-.802.097-1.342.413-1.595.362-.3 4.046-.51 4.046-.51l.403 61.522zm-387.008 274.127l4.025-.033c-.312 1.27-.385 2.24-.413 3.15l-3.567-2.364-.046-.754zm-45.675-333.144l3.535 2.334c.004.986-.07 1.912.072 2.895l-3.583-2.394-.025-2.834zm.15 12.58l3.784 2.608c.142 1.014.453 2.04.578 2.962l-4.297-2.936-.066-2.633zm122.103 21.476l.116 75.07-37.713-.046-11.93-23.136s.126-2.13.427-3.213c.357-1.317.458-1.596.962-1.652 1.345.698 2.843-.225 3.297-1.25.573-1.26-.582-3.163-2.32-3.59-.768-.187-1.62.154-2.463.817-.497.41-.603.46-.702.106-.215-.812.507-3.03 1.786-4.934.714-1.06.907-1.358 1.145-.962.934 1.63 2.947 1.298 3.71.374.927-1.112.74-3.65-1.355-4.333-4.082-1.322-5.96 2.813-5.915 2.796l-.877-4.96c4.92-1.205 7.76-1.63 9.322-3.14 1.232-1.18 1.82-3.225 1.677-5.04 0 0 13.682-5.568 20.073-9.036 10.997-5.947 20.76-13.872 20.76-13.872zm656.98 22.544l-1.007 1.79h-1.44l2.89 7.568 2.217-7.885-1.39.12-1.27-1.594zm-216.74 2.237l4.344 3.01c.095.985.22 1.846.088 2.957l-4.575-3.053.142-2.914zm-477.453-2.482l-1.09 1.44-1.242-.13 2.427 7.486c.738-2.156 1.415-5.096 2.154-7.268l-1.16.054-1.088-1.58zm384.018 10.897l4.482 2.993c.018.924.065 1.8-.26 2.454l-4.23-2.736.008-2.71zm-376.527 15.378l-1.092 2.117-1.457-.203 2.59 7.174 2.845-7.112-1.758.096-1.127-2.073zm422.42 17.807l3.9 2.88c.06.046-.22 1.315-.16 2.038l-3.703-2.3-.036-2.618zm-515.913 7.905l3.63 2.517c.004.955.067 1.847.22 2.66l-3.937-2.587.087-2.59zm.033 23.165l4.19 3.014.216 2.415-4.448-2.824.04-2.604zm33.733 20.94c4.024 1.524 7.802 9.23 7.675 19.216-.093 6.934 1.982 16.83 1.95 16.723 0 0-1.176.163-1.503-.108-1.507-5.085-2.01-10.467-2.25-14.915-.194-3.694-.402-7.325-.633-8.183-.656-2.992-1.366-6.46-3.262-8.733-1.472-1.71-3.162-2.017-4.165-.087-.827 1.572.908 4.173 2.345 3.312.348-.19.556-.534.097-.525-1.497.214-2.502-1.862-1.557-2.85 1.665-1.743 4.573 2.144 3.222 4.296-.595.92-2.152 1.09-3.4.745-2.765-1.347-3.457-4.66-2.535-6.836.717-1.663 2.275-2.648 4.016-2.05zm186.255 11.212c.323.01.105.63-.198 1.575-.72 2.278.618 5.795 2.47 6.514.557.374.53.528.15.736-1.21.686-3.393-1.366-3.973-3.65-.416-1.656-.316-3.6.48-4.43.434-.456.78-.694 1.01-.73.015-.015.046-.016.06-.016zm-56.85 6.033l4.482 2.962c.202.92.114 1.908-.02 2.896l-4.485-3.147.024-2.713zm-137.625 3.386c.337-.006.21.55.107 1.57-.213 2.376.51 4.088 2.175 5.534.7.603.888.8.588 1.113-.435.455-1.656-.152-2.625-1.165-1.766-1.86-2.34-5.347-.97-6.62.33-.27.557-.428.725-.432zm199.53 3.877c1.912-.068 3.534.67 3.703 3.04.25 3.446-2.942 5.34-5.17 3.352-1.998-1.995.04-5.1 2.348-3.636 1.162.747-.228 2.423-1.164 1.548-.42-.392-.615-.142-.316.3.915 1.367 2.7.24 2.583-.976-.246-2.368-3.138-2.342-4.237-1.41-1.49 1.26-2.817 3.135-3.785 4.494-.803 1.187-.973 1.144-.863-.306.323-3.858 3.918-6.286 6.9-6.406zm223.746 9.63c.307-.006.177.428.2 1.567.117 2.91 1.332 4.734 2.882 5.752.516.574-.15.988-1.12.698-2.217-.696-4.484-5.504-2.595-7.575.27-.282.48-.44.634-.443zm-290.975-1.85c.306-.02.135.63.158 1.847.066 2.556.84 3.79 2.737 5.354.623.512.698.45.443.73-.643.753-2.838-.313-3.77-1.85-1.108-1.827-1.268-4.582-.232-5.62.286-.282.497-.456.665-.46zm-14.21 6.18c.26-.006.116.46.153 1.567.098 2.68.706 4.007 2.383 5.253 1.057.78 1.313.544.997.86-.57.534-2.126.07-3.293-.923-1.743-1.49-2.228-5.148-.814-6.408.272-.222.453-.35.575-.35zm-32.485 6.823l4.298 3.012-.118 2.544-4.282-2.92.102-2.637zm-37.327 4.202c-1.752-.366-2.42-1.632-2.203-3.084.067-.478.352-.76.656-.12.264.996.92 2.385 1.827 2.66.354.1.058.615-.28.545zm378.465 33.195c1.98 5.014 1.934 10.5 2.25 15.67.424 6.878 1.632 11.506 2.03 12.3 0 0-1.928.022-2.026-.27 0 0-1.816-9.13-1.536-13.634.024-5.053-.95-9.486-1.54-11.478-.63-1.76-.654-.603.822-2.588zm-245.934-19.626l4.14 2.738c-.058.94-.07 1.866-.052 2.805l-4.066-2.893-.022-2.65zm-152.813 5.607c.004.155.603.282 1.532.048 1.036-.25 2.078-.21 2.863.02.846.23.948-.033.176-.372-.37-.162-.974-.535-1.86-.518-.89.002-2.716.485-2.71.823zm325.25 6.087c.094.183.41.608.69.942.533.62.687.633.447.884-.555.58-1.735-.26-1.863-1.35-.108-.8.296-1.3.725-.477zm55.796 1.84c1.937 2.782 2.217 9.293 2.246 13.93.036 4.174 1.424 11.804 1.546 11.77-.393.24-.93.157-1.44-.048-.502-.654-.798-2.48-1.37-7.446-.147-1.276-.44-5.353-.504-8.618-.056-2.895-1.648-9.15-1.648-9.15s.62-.427 1.17-.438zm-207.546-3.168c1.76 3.97 2.036 7.893 2.114 12.683.073 4.513 1.064 9.808 1.43 12.143-.595.058-1.22.116-1.472-.156-.157-.213-.286-.565-.356-1.01-.796-3.913-.986-8.16-1.208-11.746-.338-5.57-.426-6.94-1.215-9.728-.444-1.58-.597-1.545-.266-1.844.27-.22.76-.338.973-.343zm7.8 4.446c.05 1.848.28 1.088.933.798.49-.04.892.23 1.787.566 1.156.424 1.05.565 1.855.164.5-.24.897-.326 1.145-.13.95.782 2.165.342 2.857-.288.53-.287 1.13-.13 1.575-.077.66.063.483-.364.574-1.198.077-.74-.215-.813-.975-.55-.775.26-1.555.29-2.233.073-1.724-.536-2.988-.187-3.842-.047-2.03.317-2.126.118-2.59-.18-.342-.225-.9-.615-1.1-.61-.198.02-.14.68.014 1.478zm127.613 6.85c.197-.097.28.164.546.513.44.59.582.866.2.92-.992.142-1.24.04-1.205-.578.036-.51.14-.696.458-.856zm59.576-1.358c1.45 1.48 1.812 9.778 1.985 11.562.51 9.68 1.425 11.08.964 11.797-.552-.004-.747.2-1.11-.286-1.246-3.55-1.164-7.186-1.36-10.895-.278-4.894-.758-7.55-1.448-9.986-.46-1.61-.446-1.64.372-2.088.136-.08.472-.117.595-.104zm-222.697.635c.513 1.176 1.535 6.518 1.67 11.137.103 3.664.977 10.826 1.13 10.87-.534.04-1.163-.055-1.432-.465-1.575-7.072-1.065-13.906-2.903-21.02.13-.34.702-.906 1.536-.522zm-40.19 6.97l4.3 3.105.083 2.648-4.378-3.134-.005-2.618zm-97.546.6c-2.43.94-3.058 1.724-2.678 2.41.317.58 1.292.375 3.873-.708 1.928-.808 2.532-.45 2.923.775-.026 1.803-1.766 2.022-2.75 1.764-.43-.023-.368.022.087.583 2.005 1.58 4.455-1.504 3.238-3.468-.952-1.785-2.6-2.29-4.693-1.357zm338.373 7.397c-2.005 1.58-1.292 4.43.37 4.86.464.238 1.15.133 1.422-.058.257-.16.252-.436-.27-.518-1.55-.262-2.43-1.4-1.672-2.556.728-1.123 2.064-.903 4.657.217 2.238.973 3.212.677 3.48-.484.113-.51-.02-1-1.092-1.04-2.987-.127-4.95-1.952-6.895-.42zm-57.576 6.46c-.138-.815-1.454.012-2.343 1.478-.86 1.434-.947 1.636-1.13.145-.257-2.213 2.02-3.937 3.443-3.996 1.71-.203 2.847.776 2.884 1.885.088 2.186-2.498 2.206-2.853.487zm72.16 26.11l4.546 3.147s.155 1.69.05 2.587l-4.573-2.946-.023-2.788zm-363.206-16.184c-1.98 1.348-.813 3.82.57 4.102 1.46.295 1.562-.724.118-1.034-.772-.31-.97-1.044-.675-1.62.698-1.138 1.968-.393 2.725-.038 1.653.8 2.5 1.09 3.026.54.93-.972.1-2.696-1.127-2.087-.333.16-.575.318-1.283.147-1.06-.256-2.35-.493-3.352-.01zm247.63 15.71l4.47 3.087-.147 2.73-4.207-3.107-.114-2.71zm-302.49 11.23l4.207 3.03c-.07 1.158-.03 1.62.015 2.342l-4.263-2.766.042-2.605zm74.488 21.31c3.374.334 2.256 4.238-.106 3.19-.622-.48-.82-.445-1.52 1.278-.892 2.19-1.11 2.01-.99-.52.103-2.497 1.24-3.937 2.616-3.948zm385.418 13.702c.077-.002.138.013.185.042.233.258-.466 1.273-1.036 1.87-.423.285-1.464-.48-1.21-.855.283-.36 1.51-1.016 2.06-1.057zm-142.786 1.74l-.61.088c-.912-2.047-2.8-1.578-3.392.313l-.828-.093c.842-2.327 3.845-3.757 4.83-.31zm41.69 12.075l-1.023.066c-.916-2.216-2.208-2.545-3.314-.367l-.784-.23c1.37-2.8 3.646-3.015 5.123.53zm88.902 2.283c.52-.026.448.207-.09.957-.476.656-.58.75-1.063.39-.776-.57.51-1.304 1.153-1.347zm-23.062-14.49c.108.012.215.01.353.053 1.047.256 1.53.77 1.024 1.412-.33.407-.632.552-.852.294-.712-1.188-1.106-1.796-.524-1.76zm10.857 1.706c.116.444-.23.744-.62.382-.156-.15-.3-.41-.272-.596.24-.22.81-.03.892.214zm-141.346 3.163l4.33 3.135c.144 1.106.175 1.937.16 2.693l-4.45-2.98-.042-2.848zm-231.74 2.182c2.5 1.723 5.42 1.696 7.244.197.407-.33.774-.354.78-.03-.267 1.206-3.45 2.748-5.933 1.872-1.37-.482-2.482-.968-3.38-2.245-.52-.836.577-.303 1.29.207zm348.035 14.51c3.643 3.164 6.534 2.29 8.738.707.32-.083.325.21.397.763.09.706-.484 1.04-2.067 1.52-3.058.922-6.63-.102-7.28-2.154-.07-.43-.22-.95.212-.836zm-68.02 6.28l4.39 3.042-.138 2.313-4.282-2.92.03-2.435zm-343.656 5.64l4.14 2.83-.008 1.91-4.035-2.893-.098-1.847zm30.024 20.478c17.68 4.044 30.21 2.15 42.504-.017l10.873 21.525-65.66.01c4.302-6.988 7.888-14.638 12.284-21.518z"/><path id="path3442-2-7-0_1_" d="M57.832 1.454c1.885 3.275 3.374 6.65 5.077 10.006l.278.18.413.777.04.385 1.01 1.628-.008.355 4.274 8.02c3.54-1.318 32.56-3.674 43.305.244l1.57-2.666.368-.007 2.768-4.876-.04-.415.93-1.065.127-.48 3.045-4.79.015-.77 3.81-6.39-66.982-.136zm-23572.22 5844.138s-1.99 3.844-3.017 5.39c-.825-.662-3.234-.215-3.093 2.34-3.916-1.495-4.866 3.207-1.83 4.257-1.55 1.37-3.034-.188-4.218-1.228-1.157.285-3.544 1.133-4.893-1.367 0 0 .573.312 1.13.64 3.203.985 3.47-3.365 1.084-4.073-.292-.087-.86-.106-.86-.106.808-3.344-4.327-4.522-4.432-.5 0 0-.614-.095-1.072-.01-2.73.502-2.1 4.54.682 4.348.382-.023.72.047.72.047-.048.65-3.422 1.886-5.838-.346-1.146.885-2.977 1.984-5.346-.22 1.56-.06 3.067-.506 3.047-2.293-.007-1.154-1.053-2.197-2.54-2.26-.085-1.292-1.043-2.537-2.285-2.636-1.53.092-2.3 1.324-2.306 2.634-1.298.133-2.5 1.28-2.23 2.6.372 1.796 1.754 2.015 3.324 1.676-1.914 3.088-5.022 1.47-5.975.487-1.143 1.07-3.135 2.528-5.577.527 1.312-.226 2.767-.994 2.517-2.823-.197-1.444-1.797-1.875-2.5-1.8-.003-.954-.722-2.527-2.403-2.37-1.848.174-1.74 2.53-1.71 2.544-1.518-.125-2.63 1.67-2.195 2.83.532 1.408 1.628 1.85 3.67 1.47-2.374 2.234-3.89 1.37-5.185.887-1.155 1.21-2.68 1.593-4.245.53 3.508.178 2.958-6.082-1.207-3.812-2.96-3.516-2.9-1.946-5.557-7.117l64.342-.244zm330.746 19.935c.168-.004.352.023.522.112.557.28.658.772.32 1.503-.117.25-.295.545-.26.822 3.86 7.18 12.4 3.993 13.207.65.057-.217-.04-.446-.15-.675-.333-.548-.28-.996.14-1.374.904-.804 2.208.14 1.678 1.23-.132.28-.28.59-.18.974 2.18 5.01 6.55 5.387 10.2 3.405-1.687 3.038-8.232 4.89-10.962-2.435-4.384 5.956-11.335 5.83-14.48-.902-2.852 6.88-11.405 7.033-14.516 1.317-2.842 6.542-9.422 5.038-11.278.945 6.1 4.456 10.128-.183 10.855-2.17 0 0-.142-.228-.33-.424-.78-.77-.752-1.68.052-2.035 1.032-.466 2.016.547 1.47 1.528-.15.28-.286.33-.19.574 1.894 4.462 11.256 5.772 13.155-.49.07-.355.032-.693-.126-.952-.428-.73.138-1.574.872-1.603zm-209.292 31.965c1.47.08 1.068 1.366.764 1.465l-.764-1.465zm-96.74 11.074c.017.03-.916 1.65-.916 1.65-.474-.775-.355-1.748.917-1.65zm298.276 19.966s-.938 2.098-1.256 2.274c-17.49-4.525-41.89-.642-42.493-.2l-1.08-2.042c15.352-3.06 30.64-2.388 44.83-.032zm-58.278 75.744c-1.694 6.55-5.783 7.216-10.726 8.006-6.12.982-10.096-1.266-11.954-4.696 0 0-8.75 3.315-11.943 5.24 6.627 3.076 15.39 9.852 20.363 17.565 1.775 2.354 1.688 1.817 1.68 6.963-.01 11.154.01 15.313.01 15.313 2.73.408 2.89 2.316 2.733 4.445 2.2-.967 4.306.225 4.3 2.304-.017 3.837-3.772 2.786-4.545 2.37 1.214 3.38-.212 4.78-1.68 4.947-1.8.206-3.87-.663-3.255-4.54-1.96.76-4.45-.638-4.787-2.958l-.093-3.942c4.857-9.185-1.227-16.66-6.938-19.12 0 0 1.618-3.36 3.712-4.31.212-.067-1.27-2.256-3.755-1.776-1.148.023-.888.018-1.956-1.394-2.137-2.793-3.136-2.99-5.22-.006-.924 1.312-1.137 1.347-2.224 1.37-1.193.022-3.028.875-3.41 1.652-.09.172.373.363 1 1.09.892 1.046 2.268 2.498 2.05 3.965-4.706 1.927-12.53 10.384-4.33 21.223l-5.937.07-.248-38.57-4.133 2.314.16 30.223-1.172-.393c.103-9.63-.04-19.272-.333-28.91l-10.896 7.978.438 45.315 1.153.255c.856 6.176 13 1.87 13.716 2.412l.123 25.17-.528 1.243 9.655 5.326 8.864-4.61s1.19-.21 1.645-.45c3.682-1.95 6.415-1.51 8.414 1.362 1.228 1.763 1.447 2.02 1.447 2.02.758-5.083 5.237-6.958 9.594-5.626 3.204.985 7.567 4.196 8.9 8.114 0 0 .24.596.475.853l.185.073c-.018-.108-.21-.597-.292-.827-4.472-10.373-17.116-11.99-19.078-3.508l-1.794-2.522 9.423-5.793 12.853 8.53s-.615 3-.68 4.296l.215.103c.092-1.574.562-3.355 1.302-4.68.31-.544.654-.997 1.06-1.33.772-.445 1.477-.398 2.26-1.137l-1.88-1.41-.043-4.53 3.777 5.334c1.19-.27 5.815-1.655 8.554-.122.308.102 4.326-1.055 6.824 4.596l12.055-5.028s.772-.43.77-.554c-12.01-4.48-24.135-20.31-22.977-20.563 0 0-.03-1.618.06-5.61.096-4.44.054-8.967.136-13.42-4.097-1.323-3.075-4.64-3.075-4.64-2.453.54-2.845.056-3.466-.378l-.418-4.198c1.475-1.262 2.36-1.37 4.19-.976 0 0-.878-1.83-.08-3.326.68-1.184 2.488-1.928 3.927-1.094 1.862 1.273 1.27 3.95 1.003 4.325 1.942-.87 4.303.1 4.876 2.03.303-5.69.79-12.062 1.934-17.03 2.106-8.96 5.535-18.35 9.83-25.72.71-1.23 1.605-2.466 2.333-3.62.667-1.03.99-1.7.99-1.7s-.923.512-1.882.777c-1.4.382-2.45.742-2.615.9-1.024.866-2.358 1.51-3.466 1.977-3.86 1.51-6.46-.75-8.057-4.202-.894 4.378-4.878 8.076-10.754 5.773-3.31-1.784-4.358-2.92-7.463-7.54-.24-.52-.91-1.062-.91-1.062zm-167.503 168.13c2.198 4.38 5.473 7.473 8.666 8.72 5.7 1.89 9.47-1.788 10.536-5.168l1.093 1.874-8.65 6.162-13.035-8.356c.256-.19 1.424-3.125 1.39-3.232zm39.83 4.25l-3.872 2.293s-2.582 4.18-3.44 5.752c-4.527 8.022-7.923 16.747-9.698 25.425-.72 3.172-1.478 8.964-1.73 11.757-.403 4.445-.383 6.263-.273 10.343l.297.333s-.473.84-.81 1.54c-.928 1.914-1.152 2.997-1.093 5.23.13 5.128 3.21 10.028 7.582 12.022.247.118.57.266.57.266s-.755 2.033-2.105 3.477c-.9.957-1.097 1.007-.782 1.48.44.653 1.876 1.225 3.666 1.206.63-.012.63-.012 1.802 1.275 2.283 2.497 2.97 2.453 5.043-.376.61-.845.975-1.053 1.877-1.07 1.33-.027 3.744-1.106 3.734-1.614-1.636-.723-3.516-4.49-3.226-4.528 8.938-4.75 10.843-14.602 4.32-21.87l6.227-.09.184 39.343c1.225-.81 3.977-2.557 3.977-2.557l-.06-30.61c.43.084.864.4 1.694.536l.216 29.143s8.017-5.672 11.817-8.628l-.18-44.596h-.903l.103 44.584-10.578 7.756-.035-27.7s.84-.124 1.145-.16c3.1-.43 4.536-4.403 2.48-6.997-.72-.926-.215-.86 1.34-1.15 2.75-.24 4.27-2.334 3.477-3.828-.35-.64.11-.572.39-1.18.19-.48.163-1.065.077-1.54-.104-.615.15-.897.296-1.285.248-.62.005-1.31-.39-1.888-.424-.607-.315-1.272-.307-1.673-.02-.91-.343-1.042-1.293-1.917-.717-.663-.14-.813.922-1.358 1.666-.865 1.79-3.917-.424-5.23-1.192-.7-3.35-.643-8.02.096-1.77.282-3.862.462-3.862.462s-.003-17.44-.117-26.434l-10.036-6.043zm217.147 7.56s9.49 5.607 9.418 5.762c-3.19 4.392-15.11 21.896-15.217 43.08-8.715-1.107-12.3 5.757-12.73 5.72-1.117-25.938 9.358-44.476 14.715-52.346l3.814-2.216zm-6.092 6.783l-.034.63-1.887 2.827-.04-2.834 1.962-.624zm-36.51 18.88l.06 4.56-3.862 2.957-.215-4.756 4.018-2.76zm-51.945 6.03l1.986 1.377-.08 4.53-2.984-5.47 1.078-.438zm-143.706 2.576l.018 3.266c-7.61 10.78-11.61 23.105-12.853 38.72l-1.854-.056c.51-15.523 5.713-29.69 14.688-41.93zm248.472 15.884l4.683 3.097-.206 5.165-4.248-2.75-.403-1.056.173-4.456zm-256.534-4.81l-.03 4.792-3.62 2.705-.17-4.757 3.82-2.74zm113.114 6.24c.535.005.972.397 1.063 1.15.398 3.196 2.798 2.27 3.383 3.23.22.335-.294.607-1.95.47-3.02-.234-5.226-2.7-3.68-4.32.405-.36.815-.538 1.183-.53zm-222.194 3.086l4 2.57-.02 5.3-3.92-2.418-.06-5.452zm133.674 14.14l.305 4.694-4.38 2.936-.152-4.65 4.228-2.98zm109.466 2.51l-2.527 5.396-14.7 10.626-12.186-7.957-2.26-5.208 14.2 9.35 17.472-12.205zm6.556 3.35c3.903-.046 6.892 4.132 7.912 7.78.736 2.42.86 3.28.935 7.114.076 3.91.196 4.587.926 5.127.452.345.572.25.635-.444.123-1.527 1.948-.593 1.98 1.024.034 1.802-1.93 2.364-3.38.99-.78-.74-.78-.723-1.026.714-.166.975-1.288 7.02 1.573 8.536.537.05.666-.383.274-.883-.8-1.017.8-2.188 2.113-1.536 1.576.785 1.412 3.346-.27 4.257-1.938 1.04-4.426-.144-5.592-2.663-.847-1.847-.85-4.404.024-8.196.394-1.748.572-2.86.668-4.203.037-.447.09-.925.117-1.064.1-.403-.1-.43-.797-.077-1.895.96-3.944.276-4.453-1.485-.607-2.1 1.724-4.255 3.142-2.927.545.497.478 1.007-.174 1.328-1.122.56-.74 2.033.447 1.732 3.94-1.187.357-12.332-4.097-13.107-2.933-.512-5.24 2.846-3.124 4.653.825.708 1.675.322 1.503-.66-.257-1.398 1.583-1.234 2.253.186 1.102 2.32-1.754 4.208-4.412 2.92-4.785-2.85-1.507-9.03 2.822-9.114zm-201.702 7.33l3.94 2.665.024 5.177-3.903-2.342-.06-5.5zm106.46 7.73l.016 4.745-3.803 2.772.008-5.054 3.778-2.46zm58.083 6.68l-1.946 5.447-12.264 8.42-10.104-6.395-1.736-5.05 11.906 7.778 14.143-10.2zm-23.31 18.77l-.028 27.578c-3.977.17-6.257 4.113-3.29 7.86 0 0-.52.072-1.13.145-2.688.36-4.496 1.798-4.14 3.53.1.54-.01 1.065-.16 1.345-.245.713-.173 1.267.145 1.877.254.488.212.673.066 1.03-.306.777-.234 1.36.13 1.954.437.44.32.795.258 1.49-.07.987.105 1.384.725 1.773.79.492 1.097 1.302.192 1.243-.444-.038-2.037 1.503-2.037 1.503l-.096-44.26 9.367-7.07zm-418.786-4.928c.704 0 1.44.896 2.496 2.416.633 1.08.645.942 2.098.883 1.487.11 2.383.508 2.774.962.14.166-.24.22-1.186 1.178-.976.99-1.106 1.393-1.757 2.5-.238.405-.743.445-.98.065-.19-.29.297-1.254 1.224-2.397 1.307-1.258 1.03-1.39-.865-1.2-1.33.134-1.47.075-1.975-.747-1.497-3.022-2.307-2.913-3.748.088-.397.84-.245.79-1.947.655-1.35-.113-1.68.233-.915.942 1.182.978 1.64 3.28 1.58 3.266l-.918.08s-.285-.518-.4-.855c-.24-.657-.904-1.66-1.64-2.448-1.015-1.12-.46-1.716 1.83-1.977 1.268-.132 1.298-.148 1.894-1.023 1.028-1.484 1.714-2.39 2.434-2.39zm174.356 25.14l-1.332 4.71-10.463 7.368-8.5-5.718-1.127-4.43 9.765 6.248 11.657-8.178zm271.235 26.188s3.024 5.933 4.11 9.78c.952 3.34 2.273 13.02 1.917 13.61-.74-1.032-3.2-.8-3.23-.783.208-1.13-.694-3.422-2.784-3.874l-.013-18.734zm-165.63 17.91l-1.043 4.627-8.904 6.476-7.338-5.065-.96-4.48 8.127 5.48 10.118-7.04zm138.335 16.692l1.155.41.21 8.36 8.906 1.505.197 1.43-10.318-1.694c-.1-3.558-.15-10.012-.15-10.012zm-290.966-5.255l.236 9.732c-.093-.03-7.435 1.008-10.237 1.74l.174-1.327s5.09-1.117 8.786-1.528c.008-2.727-.017-5.577-.025-8.35l1.066-.267zm57.798 2.645s1.21.115 3.805-.337c6.68-1.162 8.496-.69 9.348 1.39.935 3.216-2.57 3.285-3.19 1.248-.393-1.317-1.826-1.043-6.626.1-4.1.973-6.7.192-6.64-2.15.046-2.405 2.766-2.628 3.302-.25zm403.39 19.093c.827-.015 1.513.65 1.514 1.496.016.832-.644 1.523-1.485 1.524-.825.016-1.512-.648-1.513-1.48s.66-1.538 1.485-1.54zm-325.492-16.74l1.063.32s.154 6.344.185 6.358c2.275.51 7.038 1.418 7.038 1.418l.254 1.26c-2-.47-8.357-1.532-8.357-1.532-.207-2.77-.183-7.823-.183-7.823zm-127.967-1.335s-.008 5.068-.093 7.78c.03-.015-5.402.862-8.16 1.44l.21-1.02c2.178-.49 4.556-.984 6.965-1.493-.04-1.987-.032-6.362-.032-6.362l1.11-.345zm-38.725.69c.658-.013 1.22.53 1.218 1.193.012.662-.528 1.212-1.186 1.225-.658.013-1.204-.516-1.217-1.193-.013-.663.512-1.212 1.185-1.225zm111.782 9.77c.74 1.11 1.352 1.066 2.085.96-.183.05-1.045.56-.996.728.03.09-.37 1.486.228 1.536 2.223.217 1.09 2.535 1.357 2.9.595.68 1.032 1.12.62 1.99-.367.762-.888.74-.477 1.396.883 1.338-.336 1.61-.226 2.53.072.554.27 1.305.064 1.725-.603 1.292-2.762 2.027-5.132 2.12-.337.022-.087-.538-.248-.904-.588-.374-.264-1.012-.073-1.416.204-.543.204-.543-.17-.83-1.022-.64-.966-.935-.883-1.383.218-1.36.016-1.495-.386-1.703-.525-.25-.444-.838-.214-1.567.16-.512.05-.633-.205-1.105-.143-.275-.192-.413-.195-.597.078-.695-.55-.698-1.424-.02-.74 1.295-.998 2.98-1.467 4.036-.368.824-.413 1.673.007 3.56.82 2.895.203 3.37-3.023 2.755-2.43-.6-3.14-3.22-2.467-6.407.113-.51.088-1.02.034-1.418-.256-2.198.3-4.304 1.833-5.752 2.54-2.406 3.803-2.77 9.06-2.426 2.053.144 2.21.28 2.21.28s.026-.97.087-.988zm462.255 30.055l-.617 4.48-4.937 3.5c-2.315-1.85-4.125-1.243-5.755.745-1.298-.667-3.89-2.465-3.89-2.465l-.65-5.087 7.17 5.02 8.68-6.193zm-262.195-.422c.658-.013 1.205.53 1.218 1.193.012.664-.513 1.213-1.186 1.226-.658.013-1.22-.515-1.217-1.193-.013-.662.528-1.212 1.185-1.225zm-238.864 3.458l-.283 4.32-1.75 1.328-1.763-.18-.42-2.673 4.216-2.793zm233.556 32.11c.657-.013 1.22.53 1.217 1.193.012.66-.53 1.21-1.187 1.224-.658.013-1.204-.516-1.217-1.193-.013-.66.528-1.21 1.185-1.224zm-281.173-6.63c.657-.013 1.203.516 1.216 1.193.013.662-.512 1.21-1.185 1.224-.657.013-1.203-.53-1.216-1.193-.013-.66.527-1.21 1.185-1.224zm17.137 1.583c.658-.013 1.204.53 1.217 1.193.013.662-.512 1.21-1.185 1.225-.66.013-1.22-.53-1.218-1.194-.013-.662.527-1.212 1.185-1.225zm36.146.29c.336-.02.836.478.59 1.237-.32.87-.1 1.158.45 1.856.455.59.38.67.31 1.056-.104 2.482 1.483 1.42.798 3.22-.144.387.05.953.12 1.414-.16-.428-3.083-.386-3.335.05-.414-.07-.943-2.832-.52-3.194.06 0 .36.47.518.745.396.67.472.653.35-.13-.49-3.088-.198-6.236.72-6.254zm419.842 13.22c.658-.014 1.204.53 1.217 1.192.013.662-.527 1.212-1.185 1.225s-1.204-.515-1.217-1.193c-.013-.678.512-1.227 1.185-1.225zm-434.146-8.633c.657-.013 1.204.53 1.217 1.193.012.663-.513 1.212-1.186 1.225-.657.013-1.218-.515-1.216-1.193-.013-.662.512-1.212 1.185-1.225zm-60.67-.997l3.597 2.364c.06.738-.042 1.803.21 2.168-2.346-.216-3.544 1.117-3.544 1.117l-.263-5.65zm235.178 11.94l-.28 1.283c-7.093-1.85-15.04-1.955-22.622.058l-.592-1.343c7.668-2.338 15.81-2.42 23.494.002zm-176.142 17.133c1.04-.02 2.09.375 2.84 1.208 1.393 1.576.715 4.5-1.257 5.433-2.958 1.383-6.032-1.592-4.775-4.65.51-1.275 1.86-1.964 3.19-1.99zm-112.815-4.513l-.05 1.28-.903-.753.954-.527zm386.02 11.885c1.3-.01 2.377 1.032 2.387 2.34.01 1.31-1.024 2.394-2.325 2.404-1.3.01-2.377-1.033-2.388-2.342-.025-1.31 1.025-2.393 2.326-2.403zm-158.38-2.143c-.32.006-.84.14-1.08.36-.63.582-.003.6.826.754 1.475.28 1.883 1.55 1.74 2.94-.127 1.25.3 1.24.63.772 1.385-1.89.214-4.672-2.116-4.826zm-231.918-6.18l-.06.03c0 .017.03 0 .06-.03zm332.27 13.36c1.76-.033 1.953 2.89.38 6.156-.47.98-.703.86-1.222-.623-1.265-3.657-.995-5.496.84-5.532zm-254.09-2.092c.337-.022.677.11.943.428.955 1.09.21 2.86-2.31 5.56-.615.66-.93.912-1.16.917-.628.012-.63-.096.09-2.452.316-1.038.63-2.184.7-2.54.208-1.113.99-1.868 1.738-1.913zm16.135 3.616c.17.813.466 1.932.66 2.498.196.566.328 1.103.284 1.196-.158.434-1.287-.16-2.086-1.1-1.614-1.893-2.258-3.544-1.923-4.43.492-.702 1.756-1.02 2.335-.4.61.65.697 2.02.732 2.236zm-24.524 11.626c1.703 1.015-.257 3.333-4.092 5.242-1.636.817-1.52.445-.282-1.166.478-.625 1.117-1.624 1.426-2.246.693-1.37 1.37-2.723 2.95-1.83zm45.05-8.852c.536-.01 1.1.58 2.123 2.085.457.67 1.195 1.625 1.648 2.11.454.498.815.984.787 1.093-.178 1.05-5.508-2.28-5.887-3.69-.11-.845.55-1.598 1.33-1.598zm-18.15.86c.958 1.985 1.044 3.232.24 3.68-1.134.637-2.577-.336-2.604-1.753-.01-.477-.502-2.13-.936-3.217-.37-.886-.41-1.44-.12-1.476 1.18.192 2.928 1.837 3.42 2.767zm415.35 25.452c-.375 1.132-.77 2.91-.76 3.435.005.2-.124.618-.27.93-.972 2.02-3.285.372-2.438-1.74.774-1.91 2.725-3.89 3.49-3.95.518-.057.022 1.154-.02 1.325zm-33.478-10.185c.382-.04.705.802 1.207 2.24.665 1.93.65 3.44-.09 4.07-1.55 1.37-3.18-.63-2.555-3.124.512-2.013.995-3.147 1.438-3.186zm-43.366-5.51c1.904 28.65-12.712 50.673-13.742 51.264l-4.967 2.732-8.694-4.79c9.033-12.44 14.45-26.704 14.86-43.29 8.343.823 12.65-5.886 12.543-5.914zm-240.557-4.857c.61-.165.19.367-.42 1.24-.64.938-1.477 3.48-2.143 3.88-1.486.722-3.166-.663-2.27-1.85.82-1.08 3.265-2.838 4.833-3.27zm273.518 7.072c.23-.005.677.156 1.31.467 3.092 1.525 4.63 3.544 3.303 4.494-.936.68-1.926.146-2.848-1.623-.318-.61-.887-1.507-1.28-1.992-.72-.91-.882-1.354-.484-1.346zm66.373 3.317c1.99-.024 3.627 1.577 3.65 3.58.025 2-1.565 3.65-3.555 3.674s-3.627-1.578-3.65-3.58c-.04-2.002 1.566-3.636 3.555-3.675zm95.178 8.816c-2.35 1.047-1.636 4.746.38 5.292.846.245 1.895-.114 1.46-.52-2.665-.843-2.69-2.83-1.6-4.268.164-.25-.072-.584-.24-.504zm-103.816 10.034c-.096 2.097.35 4.522-.648 6.79-1.508 3.497-6.345 5.086-8.922 4.767-.54-.22-1.172-.44-1.688-.213-.32.13-.717.122-1.057-.04-.325-.15-.643.042-.966-.075-.373-.255-.98-.83-.913-1.262.112-.603.073-1.05-.635-1.25-.97-.274-1.18-.81-.888-2.37.07-.34.143-.497-.074-.63-.713-.48-.99-1.384-.52-2.333.31-.545.548-.935-.01-1.355-.225-.504-.183-.69.295-1.33.508-.612.583-.675.267-1.192-.726-1.157.1-2.02 1.07-2.502 1.305-.534 2.447-.818 3.822-.968.506.036.484.483.798.924.458.715-.18 1.744.18 2.107.54.25.78.74.726 1.17-.026.988.042 1.325.31 1.736.3.456.408 1.3.128 1.862-.25.513-.22.466.107.768.312.302.48 1.777.356 1.75l1.345-.12c-.134.157.512-2.783 2.03-5.046-.08-1.77-.756-3.406-.694-5.75 3.315-1.173 5.712 1.66 5.585 4.56zm-489.356 10.985c.48.375 2.852 1.053 2.942.974-.07 1.14.616 3.36 3.08 4.114.032 3.188-.018 17.917-.018 17.917-3.435-5.817-5.57-13.324-6.004-23.005zm227.44-14.613s.13.43.253 1.243c.217 1.675-.023 1.91-.46.764-.515-1.347-.54-.3.04 2.77.137.738.14.923-.05 1.42-.115.31-.315 1.038-.473 1.61-.472 1.69-.738 2.172-1.223.826-.243-.688-.444-.792-.27-1.32.216-.666.16-1.173-.266-1.827-.08-.108-.22-.35-.25-1.044.138-1.56-.55-1.576-.68-1.974.018-.6-.256-2.09.158-2.037.337.04 1.578.062 2.17-.15.243-.097 1.05-.283 1.05-.283zm-267.612-4.596c1.286-.01 2.33 1.018 2.34 2.296.01 1.294-1.01 2.346-2.28 2.356s-2.33-1.018-2.356-2.296c-.01-1.278 1.01-2.33 2.296-2.356zm248.37 9.323l1.752.335c.385.13.08 24.493-13.997 42.07l-.124-4.08c6.713-9.73 11.547-21.67 12.37-38.326zm-168.36 3.576l.312 5.818c-.98-.844-3.49-2.428-3.477-2.474l.02-2.157c0 .015 2.162.173 3.145-1.187zm151.105 6.91c.418.176.793.584 1.15.885l-1.147.78-.002-1.665zm-34.64-1.03c7.575 2.27 15.043 2.216 22.42.562l.5 1.423c-8.007 2.176-15.97 2.04-23.87-.502l.95-1.482zm185.856 8.007l.4 2.52-4.276 2.78.217-3.81 2.237-1.446 1.422-.044zm-165.424 3.195c.69-.013 1.266.546 1.264 1.24.014.692-.54 1.273-1.23 1.27-.69.015-1.25-.544-1.264-1.237-.013-.692.542-1.258 1.23-1.27zm228.71 16.69c.688-.015 1.265.544 1.263 1.237.014.693-.54 1.274-1.23 1.272-.688.014-1.25-.545-1.264-1.238-.012-.694.543-1.26 1.23-1.273zm71.253 7.045c.56 1.992.432 6.478-.29 9.527-.21.913-.346 4.166-.346 4.166-.136.172 4.29-3.69 5.72 1.383.493 1.745-1.51 3.387-2.837 2.904-.262-.087-.187-.95.064-1.465.736-1.51-1.36-2.3-2.56-.967-2.77 3.09.075 10.937 4.407 11.714 3.61.638 6.508-2.977 4.094-5.133-1.06-.95-2.733.346-1.975 1.548.82 1.278-.7 1.786-1.84.607-2-2.073.25-5.183 3.264-4.472 4.828 1.107 3.828 8.707-1.23 9.13-3.866.322-6.47-1.383-8.106-4.386-1.54-2.897-1.646-5.206-.934-10.273.416-3.013.076-5.55-.75-5.533-.46.01-.807.232-.888.773-.147 1.096-.28 1.315-.962.912-.867-.507-1.358-2.145.075-3.252 1.463-1.138 3.35.643 3.28.953.03-.063.176-.343.38-1.64.638-4.204-.765-8.644-2.526-7.932-.38.163-.346.332.165.614 1.16.655.136 2.355-1.336 2.183-2.072-.252-2.54-3.154-.715-4.453 2.877-1.567 5.22.883 5.845 3.09zm-216.49 13.115s3.687 2.27 3.882 2.85c.13.368.27 3.616.27 3.616l-6.385-4.034-9.165 5.695c.144-1.25.816-4.47.816-4.47l4.884-3.1c.003.17 3.337 2.4 5.698-.557zm-32.18-20.83c.688-.013 1.265.546 1.263 1.24.014.692-.54 1.273-1.23 1.27-.69.014-1.266-.544-1.264-1.238-.013-.677.542-1.258 1.23-1.272zm243.395 7.248c.69-.013 1.266.546 1.28 1.24s-.557 1.273-1.246 1.286c-.688.014-1.25-.545-1.264-1.238-.013-.693.526-1.274 1.23-1.288zm-49.046-.902c.688-.013 1.265.546 1.28 1.24.012.692-.543 1.272-1.23 1.27-.69.014-1.267-.545-1.265-1.238-.03-.693.51-1.273 1.214-1.272zm14.81 4.062c3.32.705 6.64 1.41 9.83 1.764l.114 9.827-.935-.06-.125-8.778c-3.065-.234-5.97-.9-8.694-1.602l-.19-1.152zm-43.534 8.482l-.177 1.16s-5.735.99-8.743 1.372c-.054 1.973-.047 8.597-.047 8.597l-1.144.208.003-10.014c3.406-.36 6.797-.75 10.107-1.322zm80.97 5.54l6.76 4.505.798 4.776-7.88-5.285s-7.144 4.84-9.82 6.617l.817-4.5 9.324-6.114zm-276.254-3.46c2.72.58 5.442 1.188 8.155 1.428l.11 7.916-1.247-.33-.094-6.422c-2.132-.19-4.314-.61-6.496-1.074l-.428-1.517zm196.57 9.34l-.224 1.067s-4.35.655-6.607 1.054c-.198.05-.14 6.965-.14 6.965l-1.068.16-.11-8.07 8.15-1.177zm120.937 5.403c.688-.013 1.25.546 1.264 1.24.013.692-.542 1.273-1.23 1.27-.69.015-1.266-.544-1.264-1.237-.014-.693.54-1.274 1.23-1.272zm-110.787 6.033l7.988 5.436s.928 2.83 1.127 4.398l-9.192-5.982-11.514 7.667 1.33-4.74 10.262-6.78zm-287.742 10c.475.005.94.32 1.2 1.054.34 1.026.99 1.336 2.688 1.303 3.35-.173 6.853-1.752 10-.566 1.525.57 2.075 2.856.785 3.436-1.395.643-1.985.24-2.465-.86-.453-.47-1.003-.397-3.993.124-1.328.21-2.87.41-4.185.513-3.346.266-5.188-.792-5.595-2.802-.27-1.273.768-2.218 1.564-2.203zm-176.438-3.654c.69-.015 1.266.544 1.264 1.237.014.693-.54 1.274-1.23 1.288-.688.013-1.265-.545-1.264-1.24-.014-.707.54-1.288 1.23-1.286zm481.788 23.847c.903-.018 1.637.707 1.654 1.616.018.908-.702 1.647-1.605 1.664-.903.018-1.636-.707-1.654-1.616s.702-1.646 1.605-1.663zm-154.244 6.238s6.576 4.432 9.616 6.483l1.67 4.866-11.193-7.345-13.708 8.957 1.647-5.01 11.968-7.952zm-55.716 5.445c.597 1.622 1.677 2.85 2.82 4.105 0 0-.635 1.214-2.917 1.135-1.24-.037-1.314.15-1.74 1.005-.7 1.077-1.267 1.78-1.72 2.13-.8.615-2.286-.31-3.517-2.18-.44-.686-.628-.852-1.99-.825-2.08.04-2.827-.545-1.743-1.476.942-1.158 1.62-2.42 2.455-3.622l.936.105c.033.138-.733 2.464-1.8 3.41-.555.626.214.842 1.556.57.852-.264 1.068-.16 1.69 1.153 1.304 2.485 1.99 2.364 3.533-.147.545-1.12.527-1.242 2.003-.917 1.595.17 2.08-.04 1.427-.598-1.323-1.13-2.05-3.81-2.05-3.81l1.057-.038zm215.02 17.99s11.878 7.857 11.86 7.687l2.375 5.654-13.943-9.354-17.063 11.15 2.554-5.597 14.217-9.54zm-262.332 17.082l4.14 2.754-.01 4.945-4.235-2.874.105-4.824zm.78 28.477l.064 4.88-3.722 2.23-.196-4.57 3.853-2.54zm-10.646 3.713l-.027.185.092.045h.03l.132 4.387-4.274 2.98.026-4.96 4.02-2.637zm-15.54 16.72l3.892 2.62.148 5.235-4.233-2.798.192-5.057zm65.376 4.94l3.91 2.742.133 5.22-3.986-2.71-.057-5.253zm5.584 18.187l-.028 4.822-3.896 2.727-.172-4.928 4.096-2.622zm-73.38 3.59c-.78.817-1.057.714-1.71-.63-.686-1.387-1.708-2.03-3.208-2.015-1.882.036-.65-1.205 1.35-1.352 3.442-.144 5.186 2.18 3.57 3.997zm180.678 36.834l.094 4.836-3.88 2.017-.12-2.293 1.998-3.506 1.908-1.054zm-259.706-15.253l.14.876-.714.276.574-1.15zm18.054 69.792c-16.293 3.493-31.915 2.228-43.113.137l-5.126 8.804-.352-.01-1.318 2.276.143.26s-4.263 8.217-6.065 10.81c20.935-.18 66.883-.218 66.883-.218l-2.79-5.676.15-.157-2.763-5.924-.892-1.03s-.542-1.068-.962-2.215c-.372-1.055-1.99-3.95-1.99-3.95l-.23.02-1.575-3.128zm210.62 199.036c.218.165 20.866 4.12 42.262.11l1.172 1.98c-18.742 4.312-45.838.145-44.76-.26l1.327-1.83zm-235.12 4.987c1.88-.067 3.798.958 5.086 2.658.41.547 1.083 2.136 1.083 2.136s.905-1.513 1.794-2.255c1.34-1.135 3.08-2.094 5.593-1.99 2.313.094 4.863 1.354 7.17 5.006.586-2.106 8.207-9.25 14.457-.313.72-2.37 4.086-7.105 9.508-3.792.367.794.752 1.68.752 1.68-3.197-2.263-8.494-.758-9.742 2.78-.114.433.028.646.19 1.074 1.653 2.385-2.65 2.316-1.37.396.236-.436.26-.79-.12-1.37-1.008-1.52-4.045-3.417-6.263-3.373-2.572.05-5.43 1.77-6.38 3.33-.356.576-.437 1.148-.12 1.65.223.504.14.937-.237 1.237-.89.726-1.992-.115-1.57-1.202.282-.483.24-1.067-.327-1.873-1.15-1.626-3.83-3.345-6.17-3.3-3.352.082-6.733 2.506-6.526 4.504.094.876-.145 1.204-.85 1.11-.86-.122-.968-.952-.353-1.61.087-.218.246-.73-.037-1.125-3.538-4.814-8.822-3.416-10.04-2.345 1.153-2.056 2.804-2.95 4.47-3.015zm-1.7 24.668c1.33.02 2.76 1.024 3.203 1.817.33-.346 3.332-1.776 4.78.276-3.816-.295-3.875 3.79-1.05 4.18-1.286 3.938 4.473 4.18 4.11.49 4.314.64 3.794-4.866-.266-4.278 2.127-1.552 3.575-1.056 6.136.742.865-1.126 4.365-2.18 5.23-.21-4.015-.26-3.342 4.425-.34 4.474-.903 3.238 4.998 4.447 4.093-.404 3.738.266 3.21-4.823-.378-4.414.273-.93 3.908-1.324 5.52.447 1.472-1.354 3.107-2.28 6.07-.335-4.025-.676-4.075 4.578-.347 4.26-.346 3.472 4.936 3.538 4.047-.48 4.02-1.08 1.822-5.43-1.14-4.23 1.318-1.567 3.55-.825 4.43-.504 2.74-3.15 5.117-.516 5.117-.516-4.77-.507-3.734 6.328.916 3.85-.003 1.4.587 2.622 2.49 2.83l2.25 4.702-63.835.343 3.522-6.232c.354.118 2.394.31 2.837-2.103 4.188 1.35 4.475-3.57 1.353-4.356.377-.253.804-.354 1.248-.347zm-20.358 19.732c.41.67.067 1.107-.65 1.137-.002-.015.475-.687.65-1.137zm38.438 10.35l.415.872c-.462-.176-.512-.376-.415-.87z"/><path d="M125.23 211.55c7.8-.2 11.3-9 5.5-15.8-.8-1-.9-1.6.6-.6 3.9 2.6 11.4.9 11.8-7.1.5-9.8-13.3-12.7-15.8-2.2-.1 1.1-1 1.1-.8-.5.2-4.2 1.6-8.2 3.4-12.1h-9.3c1.8 3.9 3.1 7.8 3.4 12.1.2 1.6-.7 1.6-.8.5-2.6-10.4-16.3-7.6-15.8 2.2.4 8 7.9 9.7 11.8 7.1 1.5-1 1.5-.4.6.6-5.9 6.8-2.4 15.6 5.4 15.8zM42.73 15.05c7.8.2 11.3 9 5.5 15.8-.8 1-.9 1.6.6.6 3.9-2.6 11.4-.9 11.8 7.1.5 9.8-13.3 12.7-15.8 2.2-.1-1.1-1-1.1-.8.5.2 4.2 1.6 8.2 3.4 12.1h-9.3c1.8-3.9 3.1-7.8 3.4-12.1.2-1.6-.7-1.6-.8-.5-2.6 10.4-16.3 7.6-15.8-2.2.4-8 7.9-9.7 11.8-7.1 1.5 1 1.5.4.6-.6-5.9-6.8-2.4-15.6 5.4-15.8z"/></svg>