<!-- Generator: Adobe Illustrator 19.2.1, SVG Export Plug-In  -->
<svg version="1.1"
	 xmlns="http://www.w3.org/2000/svg" xmlns:xlink="http://www.w3.org/1999/xlink" xmlns:a="http://ns.adobe.com/AdobeSVGViewerExtensions/3.0/"
	 x="0px" y="0px" width="165.7px" height="226.6px" viewBox="0 0 165.7 226.6" style="enable-background:new 0 0 165.7 226.6;"
	 xml:space="preserve">
<defs>
</defs>
<g id="g5421_1_" transform="translate(4.9835822,-5.5524948)">
	<path id="path147-0-8-1-6-7-2-1-6-3_1_" d="M78.1,20.9
		c-7.8,0.2-11.3,9-5.5,15.8c0.8,1,0.9,1.6-0.6,0.6c-3.9-2.6-11.4-0.9-11.8,7.1c-0.5,9.8,13.3,12.7,15.8,2.2c0.1-1.1,1-1.1,0.8,0.5
		c-0.2,4.2-1.6,8.2-3.4,12.1c3.1,0,6.5,0,9.3,0c-1.8-3.9-3.1-7.8-3.4-12.1c-0.2-1.6,0.7-1.6,0.8-0.5c2.6,10.4,16.3,7.6,15.8-2.2
		c-0.4-8-7.9-9.7-11.8-7.1c-1.5,1-1.5,0.4-0.6-0.6C89.4,29.9,85.9,21.1,78.1,20.9C78.1,20.9,78.1,20.9,78.1,20.9L78.1,20.9z"/>
	<path id="path147-0-8-1-6-1-4-5-4-2_1_" d="M78.1,217.4
		c-7.8-0.2-11.3-9-5.5-15.8c0.8-1,0.9-1.6-0.6-0.6c-3.9,2.6-11.4,0.9-11.8-7.1c-0.5-9.8,13.3-12.7,15.8-2.2c0.1,1.1,1,1.1,0.8-0.5
		c-0.2-4.2-1.6-8.2-3.4-12.1c3.1,0,6.5,0,9.3,0c-1.8,3.9-3.1,7.8-3.4,12.1c-0.2,1.6,0.7,1.6,0.8,0.5c2.6-10.4,16.3-7.6,15.8,2.2
		c-0.4,8-7.9,9.7-11.8,7.1c-1.5-1-1.5-0.4-0.6,0.6C89.4,208.5,85.9,217.3,78.1,217.4C78.1,217.4,78.1,217.4,78.1,217.4L78.1,217.4z"
		/>
	<path id="path147-6-9-8-7-0-5-4-9-1_1_" d="M153.3,203.3
		c3.1-0.1,4.5-3.7,2.2-6.6c-0.3-0.4-0.4-0.7,0.2-0.3c1.6,1.1,4.6,0.4,4.7-2.9c0.2-4.1-5.3-5.3-6.3-0.9c-0.1,0.5-0.4,0.4-0.3-0.2
		c0.1-1.8,0.6-3.4,1.4-5c-1.2,0-2.5,0-3.7,0c0.7,1.6,1.3,3.3,1.4,5c0.1,0.7-0.3,0.7-0.3,0.2c-1-4.4-6.5-3.2-6.3,0.9
		c0.2,3.3,3.1,4,4.7,2.9c0.6-0.4,0.6-0.2,0.2,0.3C148.7,199.6,150.1,203.2,153.3,203.3C153.3,203.3,153.3,203.3,153.3,203.3
		L153.3,203.3z"/>
	<path id="path147-6-9-8-7-4-5-9-2-7_1_" d="M2.9,34.4
		c-3.1,0.1-4.5,3.7-2.2,6.6c0.3,0.4,0.4,0.7-0.2,0.3c-1.6-1.1-4.6-0.4-4.7,2.9c-0.2,4.1,5.3,5.3,6.3,0.9c0.1-0.5,0.4-0.4,0.3,0.2
		c-0.1,1.8-0.6,3.4-1.4,5c1.2,0,2.5,0,3.7,0c-0.7-1.6-1.3-3.3-1.4-5c-0.1-0.7,0.3-0.7,0.3-0.2c1,4.4,6.5,3.2,6.3-0.9
		c-0.2-3.3-3.1-4-4.7-2.9c-0.6,0.4-0.6,0.2-0.2-0.3C7.4,38.1,6,34.4,2.9,34.4C2.9,34.4,2.9,34.4,2.9,34.4L2.9,34.4z"/>
	<path id="path15-9-1-0-1_1_" d="M-5,31.8l0.1-1.6c0.4-5,1.5-6.7,7.6-11.9c3-2.5,3.9-3.8,4.1-5.2
		c0.4-3.4-2.6-4.5-4.6-4.5c-2.6,0-5.4,1.5-4.1,5.2l-2.9,0.9C-5.3,11.1-4.7,8-2,6.6C1.5,4.7,6.1,5.4,8.5,8.3c1.6,1.9,1.9,4.6,1.1,6.7
		C7.1,20.4-1.2,22.8-1.9,29h9.2v-3.5H10v6.4L-5,31.8L-5,31.8z"/>
	<path id="path15-5-7-4-9-4_1_" d="M160.7,205.9l-0.1,1.6c-0.4,5-1.5,6.7-7.6,11.9
		c-3,2.5-3.9,3.8-4.1,5.2c-0.4,3.4,2.6,4.5,4.6,4.5c2.6,0,5.4-1.5,4.1-5.2l2.9-0.9c0.6,3.4,0,6.5-2.7,7.9c-3.6,1.8-8.2,1.1-10.5-1.8
		c-1.6-1.9-1.9-4.6-1.1-6.7c2.4-5.4,10.7-7.7,11.4-13.9h-9.2v3.5h-2.7v-6.4L160.7,205.9L160.7,205.9z"/>
</g>
</svg>
