<!-- Generator: Adobe Illustrator 19.2.1, SVG Export Plug-In  -->
<svg version="1.1"
	 xmlns="http://www.w3.org/2000/svg" xmlns:xlink="http://www.w3.org/1999/xlink" xmlns:a="http://ns.adobe.com/AdobeSVGViewerExtensions/3.0/"
	 x="0px" y="0px" width="165.4px" height="226.6px" viewBox="0 0 165.4 226.6" style="enable-background:new 0 0 165.4 226.6;"
	 xml:space="preserve">
<style type="text/css">
	.st0{fill:#D40000;}
</style>
<defs>
</defs>
<g id="g6800_1_" transform="matrix(0.99553491,0,0,0.99680337,10.010755,-8.1397402)">
	<path id="path6994-9_1_" class="st0" d="M-2.5,53.1c-1.7-2.9-3.5-5.6-5.8-8
		c2.3-2.4,4.1-5.1,5.8-8c1.7,2.9,3.5,5.6,5.8,8C1,47.4-0.8,50.2-2.5,53.1z"/>
	<path id="path6996-5_1_" class="st0" d="M114.4,61.7c-4.1-6.9-8.5-13.5-14-19.2
		c5.5-5.7,9.8-12.3,14-19.2c4.1,6.9,8.5,13.5,14,19.2C122.9,48.1,118.6,54.8,114.4,61.7z"/>
	<path id="path6998-7_1_" class="st0" d="M148.5,206.6c-1.7-2.9-3.5-5.6-5.8-8
		c2.3-2.4,4.1-5.1,5.8-8c1.7,2.9,3.5,5.6,5.8,8C152.1,200.9,150.3,203.7,148.5,206.6z"/>
	<path id="path7000-7_1_" class="st0" d="M31.6,61.7c-4.1-6.9-8.5-13.5-14-19.2
		c5.5-5.7,9.8-12.3,14-19.2c4.1,6.9,8.5,13.5,14,19.2C40.1,48.1,35.8,54.8,31.6,61.7z"/>
	<path id="path7002-0_1_" class="st0" d="M114.4,114.6c-4.1-6.9-8.5-13.5-14-19.2
		c5.5-5.7,9.8-12.3,14-19.2c4.1,6.9,8.5,13.5,14,19.2C122.9,101.1,118.6,107.7,114.4,114.6z"/>
	<path id="path7004-0_1_" class="st0" d="M31.6,114.6c-4.1-6.9-8.5-13.5-14-19.2
		c5.5-5.7,9.8-12.3,14-19.2c4.1,6.9,8.5,13.5,14,19.2C40.1,101.1,35.8,107.7,31.6,114.6z"/>
	<path id="path7008-2_1_" class="st0" d="M73,141c-4.1-6.9-8.5-13.5-14-19.2
		c5.5-5.7,9.8-12.3,14-19.2c4.1,6.9,8.5,13.5,14,19.2C81.5,127.5,77.2,134.2,73,141z"/>
	<path id="path7016-2_1_" class="st0" d="M31.6,220.4c-4.1-6.9-8.5-13.5-14-19.2
		c5.5-5.7,9.8-12.3,14-19.2c4.1,6.9,8.5,13.5,14,19.2C40.1,206.9,35.8,213.5,31.6,220.4z"/>
	<path id="path7018-0_1_" class="st0" d="M114.4,220.4c-4.1-6.9-8.5-13.5-14-19.2
		c5.5-5.7,9.8-12.3,14-19.2c4.1,6.9,8.5,13.5,14,19.2C122.9,206.9,118.6,213.5,114.4,220.4z"/>
	<path id="path7020-7_1_" class="st0" d="M114.4,167.5c-4.1-6.9-8.5-13.5-14-19.2
		c5.5-5.7,9.8-12.3,14-19.2c4.1,6.9,8.5,13.5,14,19.2C122.9,154,118.6,160.6,114.4,167.5z"/>
	<path id="path7022-4_1_" class="st0" d="M31.6,167.4c-4.1-6.9-8.5-13.5-14-19.2
		c5.5-5.7,9.8-12.3,14-19.2c4.1,6.9,8.5,13.5,14,19.2C40.1,153.9,35.8,160.6,31.6,167.4z"/>
	<path id="path29-5-3-7-8_1_" class="st0" d="M-9.9,29.5l2.4-0.8c0.9,2.4,2.8,3.2,4.7,3
		c3.5-0.3,4.7-4.2,4.9-7.6c-1.4,1.4-3.4,2.2-5.2,2.1c-5.6-0.3-7-4.8-7.1-9.4c-0.2-3.9,1.5-6.8,4.3-8.1C-4.3,8-0.9,8,0.6,8.8
		C4,10.6,5.3,13.7,5,21.1c0,6.1-1.3,13.2-7.9,13.4C-6.6,35-9.5,32.1-9.9,29.5L-9.9,29.5L-9.9,29.5z M-0.4,22.8
		c1.1-0.7,1.8-1.4,2.3-2.4c0.4-0.8,0.6-1.3,0.4-3c-0.3-4.4-2.6-6.9-6-6.4c-1.9,0.3-2.9,1.3-3.5,3.3c-1.1,3.6,0.3,7.8,2.9,8.8
		C-3.1,23.5-1.3,23.4-0.4,22.8L-0.4,22.8L-0.4,22.8z"/>
	<path id="path29-6-2-9-2_1_" class="st0" d="M155.9,214.2l-2.4,0.8c-0.9-2.4-2.8-3.2-4.7-3
		c-3.5,0.3-4.7,4.2-4.9,7.6c1.4-1.4,3.4-2.2,5.2-2.1c5.6,0.3,7,4.8,7.1,9.4c0.2,3.9-1.5,6.8-4.3,8.1c-1.5,0.7-4.9,0.7-6.4-0.1
		c-3.4-1.8-4.7-4.9-4.5-12.3c0-6.1,1.3-13.2,7.9-13.4C152.6,208.6,155.5,211.6,155.9,214.2L155.9,214.2L155.9,214.2z M146.4,220.9
		c-1.1,0.7-1.8,1.4-2.3,2.4c-0.4,0.8-0.6,1.3-0.4,3c0.3,4.4,2.6,6.9,6,6.4c1.9-0.3,2.9-1.3,3.5-3.3c1.1-3.6-0.3-7.8-2.9-8.8
		C149.1,220.1,147.3,220.3,146.4,220.9L146.4,220.9L146.4,220.9z"/>
</g>
</svg>
