<svg xmlns="http://www.w3.org/2000/svg" width="166.3" height="226.6" viewBox="0 0 166.3 226.6"><style type="text/css">.st0{fill:#D40000;}</style><g id="g6836_1_"><path id="path7062-5_1_" class="st0" d="M8.004 44.79C6.31 41.9 4.52 39.21 2.23 36.817c2.29-2.392 4.08-5.084 5.774-7.974 1.692 2.89 3.484 5.582 5.774 7.974-2.29 2.293-4.082 5.084-5.774 7.975z"/><path id="path7064-0_1_" class="st0" d="M124.382 53.363c-4.082-6.878-8.463-13.457-13.938-19.14 5.475-5.68 9.756-12.26 13.938-19.137 4.08 6.878 8.462 13.457 13.937 19.138-5.476 5.583-9.757 12.26-13.938 19.14z"/><path id="path7066-9_1_" class="st0" d="M158.33 197.8c-1.693-2.89-3.485-5.582-5.775-7.975 2.29-2.392 4.082-5.083 5.774-7.974 1.692 2.892 3.484 5.583 5.773 7.975-2.19 2.293-4.08 5.084-5.774 7.975z"/><path id="path7068-2_1_" class="st0" d="M41.95 53.363c-4.08-6.878-8.46-13.457-13.936-19.14 5.475-5.68 9.756-12.26 13.937-19.137 4.083 6.878 8.463 13.457 13.94 19.138-5.477 5.583-9.857 12.26-13.94 19.14z"/><path id="path7070-0_1_" class="st0" d="M124.382 106.094c-4.082-6.878-8.463-13.457-13.938-19.14 5.475-5.68 9.756-12.26 13.938-19.137 4.08 6.878 8.462 13.457 13.937 19.138-5.476 5.682-9.757 12.26-13.938 19.14z"/><path id="path7072-0_1_" class="st0" d="M41.95 106.094c-4.08-6.878-8.46-13.457-13.936-19.14 5.475-5.68 9.756-12.26 13.937-19.137 4.083 6.878 8.463 13.457 13.94 19.138-5.477 5.682-9.857 12.26-13.94 19.14z"/><path id="path7074-4_1_" class="st0" d="M83.166 79.68c-4.08-6.88-8.462-13.458-13.937-19.14 5.474-5.682 9.755-12.26 13.936-19.14 4.082 6.88 8.462 13.458 13.938 19.14-5.476 5.682-9.856 12.36-13.938 19.14z"/><path id="path7084-9_1_" class="st0" d="M41.95 211.556c-4.08-6.878-8.46-13.457-13.936-19.14 5.475-5.68 9.756-12.26 13.937-19.138 4.083 6.878 8.463 13.457 13.94 19.14-5.477 5.68-9.857 12.26-13.94 19.138z"/><path id="path7086-7_1_" class="st0" d="M124.382 211.556c-4.082-6.878-8.463-13.457-13.938-19.14 5.475-5.68 9.756-12.26 13.938-19.138 4.08 6.878 8.462 13.457 13.937 19.14-5.476 5.68-9.757 12.26-13.938 19.138z"/><path id="path7088-6_1_" class="st0" d="M124.382 158.825c-4.082-6.878-8.463-13.457-13.938-19.14 5.475-5.68 9.756-12.26 13.938-19.137 4.08 6.878 8.462 13.456 13.937 19.138-5.476 5.682-9.757 12.26-13.938 19.14z"/><path id="path7090-8_1_" class="st0" d="M41.95 158.725c-4.08-6.878-8.46-13.457-13.936-19.138 5.475-5.682 9.756-12.26 13.937-19.14 4.083 6.88 8.463 13.458 13.94 19.14-5.477 5.68-9.857 12.36-13.94 19.138z"/><path id="path7092-79_1_" class="st0" d="M83.166 185.14c-4.08-6.878-8.462-13.456-13.937-19.138 5.474-5.682 9.755-12.26 13.936-19.14 4.082 6.88 8.462 13.458 13.938 19.14-5.476 5.682-9.856 12.36-13.938 19.138z"/><g id="g8345-9-6-9-5_1_"><path id="path31-8-2-5-6_1_" class="st0" d="M-.83 26.436V.116h2.588v26.32h-2.59z"/><path id="path33-2-0-3-1_1_" class="st0" d="M9.228.115c-2.49 0-4.382 2.293-4.382 4.985v16.25c0 2.793 1.992 4.986 4.382 4.986h1.395c2.49 0 4.382-2.193 4.382-4.985V5.1c0-2.79-1.992-4.985-4.382-4.985H9.228zm-1818.23 549.277c1.493 0 2.588 1.097 2.588 2.493v16.45c0 1.396-1.195 2.493-2.59 2.493s-2.59-1.097-2.59-2.493v-16.45c-.098-1.396 1.097-2.493 2.59-2.493z"/></g><g id="g8345-5-0-8-9_1_"><path id="path31-1-3-1-4_1_" class="st0" d="M164.534 200.125v26.32h-2.59v-26.32h2.59z"/><path id="path33-5-5-1-9_1_" class="st0" d="M154.375 226.446c2.49 0 4.382-2.294 4.382-4.985v-16.25c0-2.792-1.992-4.986-4.382-4.986h-1.394c-2.49 0-4.382 2.194-4.382 4.985v16.25c0 2.792 1.992 4.986 4.383 4.986h1.395zm3793.928 325.262c-1.494 0-2.59-1.097-2.59-2.493v-16.45c0-1.396 1.195-2.493 2.59-2.493s2.59 1.097 2.59 2.493v16.45c0 1.396-1.196 2.493-2.59 2.493z"/></g></g></svg>