<svg xmlns="http://www.w3.org/2000/svg" width="166.9" height="226.6" viewBox="0 0 166.9 226.6"><style type="text/css">.st0{fill:#D40000;}</style><g id="g11305-8-4_1_"><path id="path9970-5-6_1_" class="st0" d="M8.244 44.765s-1.792-2.592-4.182-5.582c-1.592-1.994-2.887-4.187-2.986-6.08-.1-2.094 1.194-4.287 3.484-4.387 2.29-.1 3.285 1.595 3.684 3.09.398-1.395 1.294-3.19 3.683-3.09 2.29.1 3.584 2.293 3.485 4.386-.1 1.894-1.394 3.987-2.987 6.08-2.39 2.99-4.18 5.583-4.18 5.583z"/><path id="path9972-9-9_1_" class="st0" d="M158.67 181.825s-1.793 2.592-4.182 5.582c-1.593 1.994-2.887 4.186-2.986 6.08-.1 2.094 1.194 4.287 3.484 4.386 2.29.1 3.285-1.595 3.683-3.09.398 1.396 1.294 3.19 3.683 3.09 2.29-.1 3.584-2.292 3.484-4.386-.1-1.894-1.393-3.987-2.986-6.08-2.39-3.09-4.18-5.582-4.18-5.582z"/><path id="path9978-0-4_1_" class="st0" d="M42.192 53.337s-3.684-6.08-8.76-13.257c-3.386-4.785-6.074-9.968-6.273-14.454-.3-5.084 2.388-10.267 7.366-10.466 4.878-.2 6.87 3.987 7.666 7.376.796-3.49 2.787-7.675 7.665-7.376 4.878.2 7.566 5.382 7.367 10.466-.298 4.486-2.887 9.67-6.272 14.454-4.977 7.177-8.76 13.257-8.76 13.257z"/><path id="path9984-9-5_1_" class="st0" d="M124.722 53.337s-3.684-6.08-8.76-13.257c-3.386-4.785-6.074-9.968-6.273-14.454-.3-5.084 2.388-10.267 7.366-10.466 4.878-.2 6.87 3.987 7.666 7.376.796-3.49 2.787-7.675 7.665-7.376 4.878.2 7.566 5.382 7.367 10.466-.298 4.486-2.887 9.67-6.272 14.454-5.077 7.177-8.76 13.257-8.76 13.257z"/><path id="path9986-7-3_1_" class="st0" d="M83.506 132.383s-3.683-6.08-8.76-13.257c-3.385-4.785-6.073-9.968-6.272-14.454-.3-5.083 2.39-10.267 7.367-10.466 4.88-.2 6.87 3.987 7.666 7.376.797-3.488 2.788-7.675 7.666-7.376 4.878.2 7.566 5.383 7.367 10.466-.3 4.486-2.888 9.67-6.273 14.454-5.077 7.177-8.76 13.257-8.76 13.257z"/><path id="path9998-0-9_1_" class="st0" d="M124.722 173.252s-3.684 6.08-8.76 13.258c-3.386 4.784-6.074 9.968-6.273 14.453-.3 5.084 2.388 10.267 7.366 10.467 4.878.2 6.87-3.987 7.666-7.376.796 3.488 2.787 7.675 7.665 7.376 4.878-.2 7.566-5.383 7.367-10.467-.298-4.485-2.887-9.67-6.272-14.453-5.077-7.177-8.76-13.258-8.76-13.258z"/><path id="path10000-8-2_1_" class="st0" d="M42.192 173.252s-3.684 6.08-8.76 13.258c-3.386 4.784-6.074 9.968-6.273 14.453-.3 5.084 2.388 10.267 7.366 10.467 4.878.2 6.87-3.987 7.666-7.376.796 3.488 2.787 7.675 7.665 7.376 4.878-.2 7.566-5.383 7.367-10.467-.298-4.485-2.887-9.67-6.272-14.453-4.977-7.177-8.76-13.258-8.76-13.258z"/><path id="path21-9-5-1-8_1_" class="st0" d="M-.02 19.546h2.59c.497 1.594 1.592 3.19 3.085 3.688 4.182.997 6.87-1.396 7.766-4.087 1.096-3.29 0-7.975-2.887-9.67-2.39-1.395-5.873-.198-7.566 2.692l-1.792-1.097L2.17.108H13.92V2.7H4.36l-.198 4.585c2.09-1.495 5.177-1.495 7.267-.4 3.882 1.895 5.674 6.18 4.977 11.265-1.095 5.084-3.385 7.875-8.562 8.274-5.774-.1-7.864-4.087-7.864-6.878z"/><path id="path21-3-0-6-3-8_1_" class="st0" d="M166.932 207.044h-2.588c-.498-1.595-1.593-3.19-3.086-3.688-4.18-.997-6.87 1.395-7.765 4.087-1.095 3.29 0 7.974 2.887 9.67 2.39 1.394 5.873.198 7.566-2.693l1.792 1.097-.996 10.965h-11.747v-2.592h9.557l.2-4.585c-2.09 1.495-5.178 1.495-7.268.398-3.883-1.894-5.675-6.18-4.978-11.264 1.095-5.084 3.385-7.875 8.562-8.274 5.873 0 7.864 4.087 7.864 6.878z"/></g></svg>