<!-- Generator: Adobe Illustrator 19.2.1, SVG Export Plug-In  -->
<svg version="1.1"
	 xmlns="http://www.w3.org/2000/svg" xmlns:xlink="http://www.w3.org/1999/xlink" xmlns:a="http://ns.adobe.com/AdobeSVGViewerExtensions/3.0/"
	 x="0px" y="0px" width="167.4px" height="226.6px" viewBox="0 0 167.4 226.6" style="enable-background:new 0 0 167.4 226.6;"
	 xml:space="preserve">
<style type="text/css">
	.st0{fill:#D40000;}
</style>
<defs>
</defs>
<g id="g11369-4-9_1_" transform="matrix(0.99553774,0,0,0.99680134,-10.596038,318.48631)">
	<g id="g9820-5-5_1_" transform="translate(1011.0782,-1064)">
	</g>
	<g id="g9826-3-1_1_" transform="translate(1037.6698,-1083.9055)">
	</g>
	<path id="path9834-5-2_1_" class="st0" d="M19.2-274.6
		c0,0-1.8-2.6-4.2-5.6c-1.6-2-2.9-4.2-3-6.1c-0.1-2.1,1.2-4.3,3.5-4.4c2.3-0.1,3.3,1.6,3.7,3.1c0.4-1.4,1.3-3.2,3.7-3.1
		c2.3,0.1,3.6,2.3,3.5,4.4c-0.1,1.9-1.4,4-3,6.1C21-277.2,19.2-274.6,19.2-274.6z"/>
	<path id="path9836-5-8_1_" class="st0" d="M170.2-137.1
		c0,0-1.8,2.6-4.2,5.6c-1.6,2-2.9,4.2-3,6.1c-0.1,2.1,1.2,4.3,3.5,4.4c2.3,0.1,3.3-1.6,3.7-3.1c0.4,1.4,1.3,3.2,3.7,3.1
		c2.3-0.1,3.6-2.3,3.5-4.4c-0.1-1.9-1.4-4-3-6.1C172-134.6,170.2-137.1,170.2-137.1z"/>
	<path id="path9840-3-6_1_" class="st0" d="M94.7-266
		c0,0-3.7-6.1-8.8-13.3c-3.4-4.8-6.1-10-6.3-14.5c-0.3-5.1,2.4-10.3,7.4-10.5c4.9-0.2,6.9,4,7.7,7.4c0.8-3.5,2.8-7.7,7.7-7.4
		c4.9,0.2,7.6,5.4,7.4,10.5c-0.3,4.5-2.9,9.7-6.3,14.5C98.5-272.1,94.7-266,94.7-266z"/>
	<path id="path9850-2-3_1_" class="st0" d="M94.7-186.7
		c0,0-3.7-6.1-8.8-13.3c-3.4-4.8-6.1-10-6.3-14.5c-0.3-5.1,2.4-10.3,7.4-10.5c4.9-0.2,6.9,4,7.7,7.4c0.8-3.5,2.8-7.7,7.7-7.4
		c4.9,0.2,7.6,5.4,7.4,10.5c-0.3,4.5-2.9,9.7-6.3,14.5C98.5-192.8,94.7-186.7,94.7-186.7z"/>
	<path id="path9854-8-0_1_" class="st0" d="M94.7-145.7
		c0,0-3.7,6.1-8.8,13.3c-3.4,4.8-6.1,10-6.3,14.5c-0.3,5.1,2.4,10.3,7.4,10.5c4.9,0.2,6.9-4,7.7-7.4c0.8,3.5,2.8,7.7,7.7,7.4
		c4.9-0.2,7.6-5.4,7.4-10.5c-0.3-4.5-2.9-9.7-6.3-14.5C98.5-139.6,94.7-145.7,94.7-145.7z"/>
	<path id="path17-2-9-8-4_1_" class="st0" d="M10.6-298.9l2-1.5c1.8,2.9,3.7,4.8,6.8,4.4
		c4.5-0.3,6.4-5.1,5.5-8.6c-0.9-3.2-4.7-4.8-7.6-3.1c-0.7,0.4-1.4,0.7-1.5,0.7c-0.3,0-1-1.4-0.9-1.8c2-2.9,6.9-8,6.9-8h-7.6v3.4
		h-2.9v-6.1H26v2.1c0,0-4,4.1-5.3,6.4c3.2,0.1,5.8,2.2,6.8,5.4c0.5,1.7,0.3,5.6-0.4,7.3c-1.2,2.8-4.5,5.1-7.4,5.2
		C14.6-292.8,12-296.3,10.6-298.9L10.6-298.9L10.6-298.9z"/>
	<path id="path17-5-3-9-1-3_1_" class="st0" d="M178.8-112.8l-2,1.5c-1.8-2.9-3.7-4.8-6.8-4.4
		c-4.5,0.3-6.4,5.1-5.5,8.6c0.9,3.2,4.7,4.8,7.6,3.1c0.7-0.4,1.4-0.7,1.5-0.7c0.3,0,1,1.4,0.9,1.8c-2,2.9-6.9,8-6.9,8h7.6v-3.4h2.9
		v6.2h-14.8v-2.1c0,0,4-4.1,5.3-6.4c-3.2-0.1-5.8-2.2-6.8-5.4c-0.5-1.7-0.3-5.6,0.4-7.3c1.2-2.8,4.5-5.1,7.4-5.2
		C174.8-118.9,177.5-115.4,178.8-112.8L178.8-112.8L178.8-112.8z"/>
</g>
</svg>
