<svg xmlns="http://www.w3.org/2000/svg" width="166.9" height="226.6" viewBox="0 0 166.9 226.6"><g><path d="M123.144 211.725c7.37-10.47 15.24-16.55 15.34-24.726 0-2.693-1.396-7.18-5.878-7.977-2.888-.598-6.872 1.795-6.972 6.58 0 .997-.996.898-.996-.398.1-3.79 1.295-8.176 3.387-11.765h-9.662c1.992 3.59 3.188 7.976 3.387 11.765 0 1.296-.996 1.296-.996.398-.1-4.785-4.084-7.178-6.972-6.58-4.482.897-5.877 5.384-5.877 7.976.1 8.175 7.968 14.157 15.24 24.725z"/><path d="M157.108 197.866c3.386-4.386 7.07-6.88 7.17-10.27 0-1.095-.696-2.99-2.788-3.388-1.394-.2-3.187.797-3.287 2.79 0 .4-.498.4-.498-.198.1-1.595.598-3.39 1.594-4.886h-4.483c.896 1.496 1.494 3.29 1.594 4.886 0 .498-.497.598-.497.2 0-1.995-1.893-2.992-3.287-2.792-2.092.398-2.79 2.193-2.79 3.39.2 3.39 3.885 5.98 7.272 10.268z"/><path d="M6.712 28.975c3.386 4.386 7.07 6.88 7.17 10.27 0 1.095-.696 2.99-2.788 3.39-1.394.198-3.187-.8-3.287-2.793 0-.4-.498-.4-.498.2.1 1.595.597 3.39 1.593 4.885H4.42c.897-1.496 1.495-3.29 1.595-4.886 0-.497-.498-.597-.498-.198 0 1.994-1.893 2.99-3.287 2.792-2.092-.4-2.79-2.194-2.79-3.39.2-3.39 3.885-5.982 7.272-10.27z"/><path d="M40.675 211.725c7.37-10.47 15.24-16.55 15.34-24.726 0-2.693-1.396-7.18-5.878-7.977-2.888-.598-6.872 1.795-6.972 6.58 0 .997-.996.898-.996-.398.1-3.79 1.294-8.176 3.386-11.765h-9.66c1.99 3.59 3.186 7.976 3.385 11.765 0 1.296-.995 1.296-.995.398-.1-4.785-4.084-7.178-6.972-6.58-4.482.897-5.876 5.384-5.876 7.976 0 8.175 7.868 14.157 15.238 24.725z"/><path d="M123.144 15.116c7.37 10.47 15.24 16.55 15.34 24.726 0 2.692-1.396 7.178-5.878 7.976-2.888.598-6.872-1.795-6.972-6.58 0-.997-.996-.897-.996.4.1 3.787 1.295 8.174 3.387 11.763h-9.662c1.992-3.588 3.188-7.975 3.387-11.763 0-1.296-.996-1.296-.996-.4-.1 4.786-4.084 7.18-6.972 6.58-4.482-.896-5.877-5.383-5.877-7.975.1-8.175 7.968-14.157 15.24-24.726z"/><path d="M40.675 15.116c7.37 10.47 15.24 16.55 15.34 24.726 0 2.692-1.396 7.178-5.878 7.976-2.888.598-6.872-1.795-6.972-6.58 0-.997-.996-.897-.996.4.1 3.787 1.294 8.174 3.386 11.763h-9.66c1.99-3.588 3.186-7.975 3.385-11.763 0-1.296-.995-1.296-.995-.4-.1 4.786-4.084 7.18-6.972 6.58-4.482-.896-5.876-5.383-5.876-7.975 0-8.175 7.868-14.157 15.238-24.726z"/><path d="M81.91 132.563c7.37-10.469 15.24-16.55 15.338-24.726 0-2.692-1.394-7.178-5.876-7.976-2.89-.597-6.873 1.796-6.972 6.582 0 .997-.996.897-.996-.4.1-3.788 1.295-8.175 3.386-11.764h-9.66c1.99 3.59 3.186 7.976 3.385 11.765 0 1.296-.996 1.296-.996.4-.1-4.787-4.084-7.18-6.973-6.582-4.482.9-5.876 5.385-5.876 7.977 0 8.176 7.87 14.257 15.24 24.726z"/><path d="M165.474 207.238h-2.59c-.497-1.595-1.593-3.19-3.087-3.69-4.183-.996-6.872 1.397-7.77 4.09-1.094 3.29 0 7.975 2.89 9.67 2.39 1.396 5.876.2 7.57-2.692l1.792 1.097-.997 10.967H151.53v-2.592h9.562l.2-4.587c-2.093 1.497-5.18 1.497-7.272.4-3.884-1.894-5.677-6.18-4.98-11.266 1.096-5.085 3.387-7.876 8.566-8.275 5.777 0 7.868 4.087 7.868 6.878z"/><path d="M-1.555 19.603h2.59c.498 1.595 1.593 3.19 3.087 3.69 4.183.996 6.873-1.397 7.77-4.09 1.095-3.29 0-7.975-2.89-9.67-2.39-1.396-5.876-.2-7.57 2.692L-.36 11.128.636.16H12.39v2.594H2.826l-.2 4.586c2.093-1.496 5.18-1.496 7.272-.4 3.883 1.895 5.676 6.182 4.98 11.267-1.097 5.085-3.387 7.876-8.567 8.275-5.876 0-7.868-4.087-7.868-6.88z"/></g></svg>