<?xml version="1.0" standalone="no"?>
<!DOCTYPE svg PUBLIC "-//W3C//DTD SVG 1.1//EN" "http://www.w3.org/Graphics/SVG/1.1/DTD/svg11.dtd" >
<svg xmlns="http://www.w3.org/2000/svg">
<metadata></metadata>
<defs>
<font id="888demibold" horiz-adv-x="1382" >
<font-face units-per-em="2048" ascent="1638" descent="-410" />
<missing-glyph horiz-adv-x="624" />
<glyph horiz-adv-x="0" />
<glyph horiz-adv-x="682" />
<glyph unicode=" "  horiz-adv-x="624" />
<glyph unicode="&#x09;" horiz-adv-x="624" />
<glyph unicode="&#xa0;" horiz-adv-x="624" />
<glyph unicode="!" horiz-adv-x="542" d="M147 127q0 51 36 89t89 38t89 -38t36 -89q0 -53 -36.5 -90t-88.5 -37t-88.5 37t-36.5 90zM172 1059v434h201v-434l-8 -623h-183z" />
<glyph unicode="&#x22;" horiz-adv-x="901" d="M147 866l58 627h207v-123l-123 -504h-142zM516 866l55 627h207v-123l-123 -504h-139z" />
<glyph unicode="#" horiz-adv-x="1441" d="M117 369v194h229l55 326h-211v194h244l64 359h198l-61 -359h293l63 359h199l-62 -359h195v-194h-227l-56 -326h211v-194h-245l-62 -369h-199l62 369h-295l-61 -369h-199l61 369h-196zM545 561h295l55 330h-291z" />
<glyph unicode="$" horiz-adv-x="1392" d="M145 166l88 184q191 -153 418 -168v490q-109 42 -179 75t-130.5 71.5t-93.5 79t-50.5 92t-17.5 116.5v4q0 159 134 265t337 120v115h103v-113q228 -12 411 -133l-82 -178q-163 100 -329 114v-434q139 -55 225.5 -101t143.5 -100.5t79.5 -115t22.5 -143.5v-3 q0 -172 -131.5 -292t-339.5 -129v-146h-103v146q-315 19 -506 184zM408 1108q0 -68 50 -108.5t193 -94.5v395q-110 -11 -176.5 -62t-66.5 -128v-2zM754 180q117 7 185.5 69t68.5 152v5q0 70 -64 124.5t-190 102.5v-453z" />
<glyph unicode="%" horiz-adv-x="2136" d="M133 1079v6q0 111 58.5 207.5t156 152.5t209.5 56q172 0 298 -123t126 -293v-6q0 -170 -126 -291.5t-298 -121.5q-171 0 -297.5 122t-126.5 291zM319 1079q0 -95 70 -163t168 -68t169 68t71 163v6q0 95 -71 164.5t-169 69.5t-168 -69t-70 -165v-6zM410 0l1067 1440l243 2 l-1067 -1442h-243zM1163 354v6q0 111 58.5 207.5t156 152.5t209.5 56q172 0 298 -123t126 -293v-6q0 -170 -126 -291.5t-298 -121.5q-171 0 -297.5 122t-126.5 291zM1350 354q0 -95 69.5 -163t167.5 -68t169 68t71 163v6q0 95 -71 164.5t-169 69.5t-167.5 -69t-69.5 -165v-6 z" />
<glyph unicode="&#x26;" horiz-adv-x="1497" d="M111 416v4q0 76 23.5 141t69.5 118t100 94.5t128 82.5q-135 162 -135 309v4q0 64 26 126.5t73 115t122.5 85t165.5 32.5q161 0 269 -103.5t108 -246.5v-4q0 -114 -70 -203.5t-233 -175.5l295 -320q54 65 94.5 142.5t83.5 189.5l137 -53q-46 -129 -90.5 -212t-114.5 -184 l246 -268l-152 -133l-223 242q-199 -209 -448 -209q-204 0 -339.5 123.5t-135.5 302.5zM315 416q0 -93 76.5 -158t194.5 -65q171 0 311 153l-328 354q-61 -30 -100 -53.5t-78 -57.5t-57.5 -75.5t-18.5 -93.5v-4zM504 1167q0 -99 114 -221q130 59 184 111.5t54 116.5v4 q0 60 -48.5 104.5t-123.5 44.5q-81 0 -130.5 -47.5t-49.5 -108.5v-4z" />
<glyph unicode="'" horiz-adv-x="532" d="M147 866l56 627h207v-123l-121 -504h-142z" />
<glyph unicode="(" horiz-adv-x="940" d="M127 627q0 306 149.5 539.5t438.5 375.5l106 -170q-245 -113 -368 -302t-123 -443q0 -249 123 -436.5t368 -301.5l-106 -170q-287 142 -437.5 375.5t-150.5 532.5z" />
<glyph unicode=")" horiz-adv-x="948" d="M119 -111q245 114 368 301.5t123 436.5q0 254 -123 443t-368 302l106 170q289 -142 438.5 -375.5t149.5 -539.5q0 -299 -150.5 -532.5t-437.5 -375.5z" />
<glyph unicode="*" horiz-adv-x="1058" d="M180 1022l219 113l-219 114l82 129l201 -131l-10 242h153l-12 -242l203 131l82 -129l-220 -114l220 -113l-82 -129l-203 129l12 -242h-153l10 242l-201 -129z" />
<glyph unicode="+" horiz-adv-x="1212" d="M145 629v192h363v383h197v-383h364v-192h-364v-385h-197v385h-363z" />
<glyph unicode="," horiz-adv-x="479" d="M84 -305l98 409h166l-104 -409h-160z" />
<glyph unicode="-" horiz-adv-x="915" d="M150 621v200h614v-200h-614z" />
<glyph unicode="." horiz-adv-x="456" d="M102 127q0 51 37 89t90 38q52 0 88.5 -38.5t36.5 -88.5q0 -52 -37 -89.5t-88 -37.5q-53 0 -90 37t-37 90z" />
<glyph unicode="/" horiz-adv-x="1234" d="M51 -203l910 1884h223l-910 -1884h-223z" />
<glyph unicode="0" horiz-adv-x="1531" d="M158 733v4q0 119 23.5 229t72.5 207t119.5 169t171.5 113.5t221 41.5q121 0 222 -41.5t171.5 -113t119.5 -168.5t72 -207t23 -230v-4q0 -121 -23 -232t-72 -208t-119.5 -168.5t-171.5 -112.5t-222 -41q-150 0 -268 62.5t-191 169.5t-111 242t-38 288zM383 735 q0 -119 23 -221t68.5 -182t121 -126t172.5 -46t172 45.5t120.5 125t68 180.5t22.5 220v4q0 117 -23.5 218.5t-69 182.5t-121.5 128t-173 47t-171.5 -46t-119.5 -126t-67.5 -181.5t-22.5 -218.5v-4z" />
<glyph unicode="1" horiz-adv-x="847" d="M94 1341l379 150h156v-1491h-207v1286l-291 -106z" />
<glyph unicode="2" horiz-adv-x="1230" d="M117 1153q173 352 491 352q112 0 200.5 -33t143.5 -90t84 -130.5t29 -157.5v-4q0 -108 -46.5 -209t-189.5 -258l-383 -424h664v-199h-975v139l565 623q103 113 133.5 180t30.5 141q0 94 -69.5 160t-188.5 66q-101 0 -185.5 -68.5t-146.5 -191.5z" />
<glyph unicode="3" horiz-adv-x="1222" d="M76 231l147 127q73 -98 167 -147t196 -49q145 0 241.5 81.5t96.5 217.5v12q1 150 -109.5 229.5t-296.5 65.5l-67 -12l-50 149l375 381h-586v197h830v-154l-383 -393q211 0 349 -131.5t138 -331.5v-6q0 -219 -154.5 -360.5t-385.5 -141.5q-154 0 -289.5 71t-218.5 195z " />
<glyph unicode="4" horiz-adv-x="1310" d="M123 322v182l682 985h188v-971h193v-196h-193v-322h-207v322h-663zM344 518h442v658z" />
<glyph unicode="5" horiz-adv-x="1251" d="M121 209l143 133q58 -80 147.5 -128t188.5 -48q141 0 234.5 87t93.5 232v4q0 143 -93.5 229.5t-224.5 86.5t-266 -107l-143 50l75 735h750v-199h-577l-41 -362q112 63 239 63q133 0 242.5 -61t175 -175t65.5 -260v-2q0 -234 -149.5 -377t-382.5 -143q-144 0 -273 66.5 t-204 175.5z" />
<glyph unicode="6" horiz-adv-x="1286" d="M145 479v4q0 124 54 232l2 2q11 28 32 59l412 707h219l-293 -492q35 6 72 6q133 0 247 -66.5t182.5 -184.5t68.5 -259v-4q0 -142 -68 -262t-182.5 -188t-247.5 -68q-99 0 -190.5 39.5t-159 107t-108 164t-40.5 203.5zM334 481q0 -141 93.5 -235t217.5 -94q126 0 216.5 93 t90.5 236v4q0 139 -93 233.5t-218 94.5q-124 0 -215.5 -94t-91.5 -234v-4z" />
<glyph unicode="7" horiz-adv-x="1236" d="M152 1284v199h960v-125l-610 -1358h-234l592 1284h-708z" />
<glyph unicode="8" horiz-adv-x="1222" d="M100 397q0 125 76.5 224.5t190.5 144.5q-101 48 -167.5 137t-66.5 203q0 180 136 300t343 120t342.5 -121.5t135.5 -304.5q0 -111 -66 -199.5t-166 -136.5q113 -47 188.5 -146t75.5 -221q0 -90 -32.5 -168.5t-94.5 -139.5t-160.5 -96.5t-220.5 -35.5q-125 0 -224.5 35.5 t-162 96.5t-95 139.5t-32.5 168.5zM303 410q0 -121 81.5 -199t229.5 -78t229 77t81 198q0 116 -92.5 196t-219.5 80t-218 -79t-91 -195zM346 1104q0 -105 80 -172.5t188 -67.5q110 0 188.5 66.5t78.5 171.5q0 103 -74 172t-195 69q-119 0 -192.5 -68t-73.5 -171z" />
<glyph unicode="9" horiz-adv-x="1304" d="M154 995v4q0 142 67.5 261.5t182 187.5t247.5 68q99 0 190.5 -39t159 -106.5t108 -163.5t40.5 -203v-5q0 -121 -53 -233l-4 -8q-5 -9 -14.5 -25t-12.5 -20l-416 -713h-219l293 492q-40 -7 -72 -7q-99 0 -190.5 39.5t-159 107t-107.5 162.5t-40 201zM342 997 q0 -139 93.5 -233t217.5 -94t216 94t92 233v4q0 141 -93.5 235.5t-218.5 94.5t-216 -93.5t-91 -236.5v-4z" />
<glyph unicode=":" horiz-adv-x="495" d="M123 127q0 51 36.5 89t90.5 38q51 0 87 -38t36 -89q0 -52 -36.5 -89.5t-86.5 -37.5q-54 0 -90.5 37t-36.5 90zM123 948q0 52 36.5 89.5t90.5 37.5q52 0 87.5 -37.5t35.5 -89.5q0 -51 -36.5 -88t-86.5 -37q-54 0 -90.5 36.5t-36.5 88.5z" />
<glyph unicode=";" horiz-adv-x="518" d="M109 -305l98 409h166l-105 -409h-159zM147 948q0 52 36 89.5t89 37.5q52 0 88.5 -37.5t36.5 -89.5q0 -51 -37 -88t-88 -37q-52 0 -88.5 37t-36.5 88z" />
<glyph unicode="&#x3c;" horiz-adv-x="1310" d="M131 666v116l1002 512v-223l-684 -346l684 -348v-223z" />
<glyph unicode="=" horiz-adv-x="1310" d="M197 360v197h917v-197h-917zM197 872v197h917v-197h-917z" />
<glyph unicode="&#x3e;" horiz-adv-x="1310" d="M180 154v223l684 348l-684 346v223l1002 -512v-116z" />
<glyph unicode="?" horiz-adv-x="1112" d="M86 1245q162 264 440 264q189 0 317 -123t128 -299v-4q0 -88 -34 -162.5t-90.5 -124t-123 -81t-137.5 -43.5l-6 -205h-181l-12 319l51 52q151 -13 241.5 59t90.5 184v4q0 94 -71 160t-175 66q-98 0 -182 -59t-125 -142zM365 127q0 51 37 89t90 38q52 0 88 -38.5t36 -88.5 q0 -52 -36.5 -89.5t-87.5 -37.5q-52 0 -89.5 37t-37.5 90z" />
<glyph unicode="@" horiz-adv-x="2025" d="M96 539q0 155 44 303.5t127.5 273.5t196 220t258 148.5t304.5 53.5q189 0 358.5 -71t288.5 -189.5t188.5 -278.5t69.5 -333q0 -144 -38 -258.5t-99.5 -182t-133 -102.5t-144.5 -35q-100 0 -168 61t-74 136q-50 -91 -140.5 -143t-193.5 -52q-177 0 -294.5 114t-117.5 302 q0 114 41 217.5t109 177t160 117t190 43.5q110 0 193 -61t102 -156l23 133l147 -33l-72 -436q-7 -38 -8.5 -72.5t5 -71.5t31.5 -59t67 -22q36 0 73 22t71 65.5t55.5 120.5t21.5 175q0 134 -54.5 258t-147.5 216.5t-226.5 147.5t-282.5 55q-155 0 -293 -66t-234 -176.5 t-152 -257t-56 -304.5q0 -223 97.5 -394.5t265.5 -262.5t380 -91q93 0 189.5 28.5t173.5 74.5l84 -168q-192 -129 -447 -129q-196 0 -368.5 68t-298 189t-198.5 298.5t-73 386.5zM723 506q0 -106 58.5 -163.5t158.5 -57.5q116 0 205 103t92 239q6 111 -53 175t-156 64 q-122 0 -213.5 -104t-91.5 -256z" />
<glyph unicode="A" horiz-adv-x="1536" d="M61 0l588 1485h238l588 -1485h-234l-131 330h-684l-133 -330h-232zM498 526h540l-270 686z" />
<glyph unicode="B" horiz-adv-x="1394" d="M147 0v1483h582q210 0 334.5 -97t124.5 -282v-2q0 -101 -41 -180.5t-113 -112.5q119 -28 189 -131.5t69 -255.5v-4q0 -215 -130.5 -316.5t-387.5 -101.5h-627zM369 199h401q167 0 240 60.5t73 189.5v4q0 128 -65 186.5t-197 58.5h-452v-499zM369 895h444q84 0 125 50.5 t41 139.5v2q0 91 -59.5 144t-171.5 53h-379v-389z" />
<glyph unicode="C" horiz-adv-x="1556" d="M119 739v4q0 122 28 234t86.5 208t141.5 166.5t199.5 111t254.5 40.5q251 0 416 -119.5t225 -314.5l-219 -55q-128 293 -424 293q-144 0 -251.5 -75.5t-161.5 -202t-54 -284.5v-4q0 -158 55 -285t163.5 -203.5t252.5 -76.5q296 0 422 281l213 -47q-63 -194 -227.5 -313.5 t-409.5 -119.5q-138 0 -254.5 40.5t-199.5 111.5t-141.5 167.5t-86.5 208.5t-28 234z" />
<glyph unicode="D" horiz-adv-x="1511" d="M147 0v1483h553q151 0 269.5 -37.5t198 -103t131.5 -159.5t75 -202t23 -236v-6q0 -125 -22.5 -232t-75 -202t-131.5 -161.5t-198.5 -105t-269.5 -38.5h-553zM369 199h323q132 0 227 38.5t150.5 111.5t81 168.5t25.5 219.5v4q0 129 -25.5 226t-81.5 170t-151.5 110 t-229.5 37h-319v-1085z" />
<glyph unicode="E" horiz-adv-x="1226" d="M147 0v1483h967v-199h-745v-379h602v-198h-602v-508h745v-199h-967z" />
<glyph unicode="F" horiz-adv-x="1208" d="M147 0v1483h957v-199h-737v-389h606v-197h-606v-698h-220z" />
<glyph unicode="G" horiz-adv-x="1644" d="M123 741v4q0 119 30 230t92 209t150 171t212 115.5t270 42.5q181 0 325 -66.5t238 -164.5l-133 -162q-83 79 -184.5 128.5t-245.5 49.5q-161 0 -279 -76t-175.5 -198.5t-57.5 -273.5v-7q0 -115 34 -216.5t98 -180t165.5 -124.5t226.5 -46q145 0 254.5 58.5t148.5 162.5 l-4 226h-305v178h524v-801h-211l-2 152q-86 -88 -200.5 -137.5t-247.5 -49.5q-140 0 -259 42.5t-203.5 116t-144 172t-88 211.5t-28.5 234z" />
<glyph unicode="H" horiz-adv-x="1474" d="M147 0v1483h222v-578h737v578h221v-1483h-221v707h-737v-707h-222z" />
<glyph unicode="I" horiz-adv-x="591" d="M186 0v1483h222v-1483h-222z" />
<glyph unicode="J" horiz-adv-x="1026" d="M72 98l94 181q112 -103 235 -103q134 0 205.5 87t71.5 263v957h221v-961q0 -283 -133 -416q-137 -137 -352 -137q-93 0 -188 36.5t-154 92.5z" />
<glyph unicode="K" horiz-adv-x="1361" d="M137 0v1483h221v-719l643 719h256l-561 -639l613 -844h-256l-496 686l-199 -227v-459h-221z" />
<glyph unicode="L" horiz-adv-x="1249" d="M162 0v1483h221v-1284h756v-199h-977z" />
<glyph unicode="M" horiz-adv-x="1765" d="M147 0v1483h242l496 -1151l495 1151h240v-1483h-221v1040l-453 -1040h-125l-454 1040v-1040h-220z" />
<glyph unicode="N" horiz-adv-x="1513" d="M147 0v1483h191l809 -1100v1100h221v-1483h-180l-821 1110v-1110h-220z" />
<glyph unicode="O" horiz-adv-x="1685" d="M102 737v4q0 158 53 298.5t148 245t234.5 165.5t302.5 61q221 0 392 -104t261 -278t90 -386v-4q0 -158 -52.5 -298t-147.5 -244t-235.5 -164t-307.5 -60q-163 0 -302 59.5t-234 162.5t-148.5 243t-53.5 299zM332 737q0 -155 62 -281t179.5 -201t268.5 -75 q159 0 277.5 74.5t178.5 199t60 281.5v8q0 151 -61.5 275t-182 200t-278.5 76q-149 0 -265.5 -74.5t-177.5 -199t-61 -275.5v-8z" />
<glyph unicode="P" horiz-adv-x="1333" d="M147 0v1483h547q277 0 407 -127t130 -359v-4q0 -237 -134 -363t-411 -126h-317v-504h-222zM369 700h303q182 0 263 68t81 223v4q0 152 -80 220.5t-262 68.5h-305v-584z" />
<glyph unicode="Q" horiz-adv-x="1773" d="M137 739v4q0 158 52.5 298t147 244t234 165t303.5 61q221 0 392 -101t261.5 -272.5t90.5 -383.5v-4q0 -297 -180 -508l151 -150l-139 -141l-162 162q-171 -110 -395 -113h-19q-219 0 -387.5 96t-259 263.5t-90.5 379.5zM369 750q0 -154 62.5 -276.5t179.5 -193.5t268 -71 q147 0 256 59l-228 228l140 139l239 -240q109 143 109 353v8q0 113 -36.5 213t-102.5 175t-165.5 119t-218.5 44q-150 0 -265.5 -74t-176.5 -198.5t-61 -276.5v-8z" />
<glyph unicode="R" horiz-adv-x="1406" d="M147 0v1483h570q143 0 249 -34.5t168 -98t91.5 -144.5t29.5 -182v-4q0 -375 -350 -455l383 -565h-252l-362 545h-305v-545h-222zM369 743h336q184 0 264 67.5t80 207.5v4q0 262 -340 262h-340v-541z" />
<glyph unicode="S" horiz-adv-x="1288" d="M84 160l100 182q119 -94 227.5 -131t237.5 -37q127 0 216 61t89 152v4q0 59 -25.5 99t-97.5 83t-213 99q-123 50 -199.5 90t-136.5 91.5t-86 113.5t-26 145v4q0 113 68 204t178.5 140t238.5 49q124 0 245.5 -39t215.5 -102l-92 -176q-186 117 -373 117 q-93 0 -171.5 -51.5t-78.5 -133.5v-4q0 -74 62.5 -123.5t230.5 -113.5q271 -108 376.5 -212t105.5 -270v-2q0 -118 -69 -216t-191 -155t-271 -57q-158 0 -303 47.5t-258 141.5z" />
<glyph unicode="T" horiz-adv-x="1284" d="M59 1284v199h1158v-199h-463v-1284h-222v1284h-473z" />
<glyph unicode="U" horiz-adv-x="1529" d="M147 610v873h222v-832q0 -231 104 -352t295 -121q393 0 393 471v834h223v-873q0 -157 -45.5 -278.5t-128 -197.5t-195 -115t-249.5 -39q-133 0 -244 38.5t-195.5 114.5t-132 198t-47.5 279z" />
<glyph unicode="V" horiz-adv-x="1517" d="M82 1483h248l436 -1161l434 1161h246l-582 -1493h-200z" />
<glyph unicode="W" horiz-adv-x="2091" d="M61 1483h252l324 -1094l324 1096h172l323 -1098l324 1096h250l-469 -1493h-195l-322 1083l-319 -1083h-195z" />
<glyph unicode="X" horiz-adv-x="1523" d="M80 0l520 754l-504 729h264l402 -584l399 584h266l-501 -729l520 -754h-264l-420 608l-418 -608h-264z" />
<glyph unicode="Y" horiz-adv-x="1368" d="M82 1483h240l364 -705l361 705h239l-489 -934v-549h-222v549z" />
<glyph unicode="Z" horiz-adv-x="1300" d="M115 0v131l770 1153h-740v199h1041v-131l-768 -1153h764v-199h-1067z" />
<glyph unicode="[" horiz-adv-x="921" d="M184 -238v1731h613v-193h-410v-1345h410v-193h-613z" />
<glyph unicode="\" horiz-adv-x="1202" d="M43 1681h221l910 -1884h-222z" />
<glyph unicode="]" horiz-adv-x="921" d="M127 -45h410v1345h-410v193h610v-1731h-610v193z" />
<glyph unicode="^" horiz-adv-x="1247" d="M168 903l405 543h103l405 -543h-231l-225 287l-228 -287h-229z" />
<glyph unicode="_" horiz-adv-x="1271" d="M49 -76h1174v-196h-1174v196z" />
<glyph unicode="`" horiz-adv-x="1105" d="M293 1587h182l178 -262h-170z" />
<glyph unicode="a" d="M98 535v4q0 157 68 284.5t191.5 201t279.5 73.5q259 0 385 -211v188h207v-1075h-207v190q-127 -213 -385 -213q-155 0 -278.5 72.5t-192 200t-68.5 285.5zM309 537q0 -157 102.5 -259t247.5 -102q149 0 249 101.5t100 259.5v4q0 156 -102.5 258t-250.5 102 q-145 0 -245.5 -102t-100.5 -258v-4z" />
<glyph unicode="b" horiz-adv-x="1359" d="M139 0v1513h207v-641q59 107 158 166.5t233 59.5q155 0 279 -72t193 -198.5t69 -284.5v-4q0 -158 -68.5 -286.5t-192.5 -202t-280 -73.5q-134 0 -233 59t-158 165v-201h-207zM369 537q0 -157 102.5 -259t247.5 -102q149 0 248.5 101.5t99.5 259.5v4q0 156 -102 258 t-250 102q-145 0 -245.5 -102t-100.5 -258v-4z" />
<glyph unicode="c" horiz-adv-x="1259" d="M109 535v4q0 157 71 285t197 201t282 73q170 0 297 -87.5t191 -234.5l-180 -80q-45 91 -123.5 148t-184.5 57q-147 0 -243.5 -101.5t-96.5 -258.5v-4q0 -158 99 -259.5t246 -101.5q111 0 191 60t118 155l184 -65q-57 -160 -188 -254.5t-310 -94.5q-236 0 -393 159.5 t-157 398.5z" />
<glyph unicode="d" d="M88 537v4q0 241 152.5 399t388.5 158q134 0 234 -60t159 -168v643h207v-1513h-207v205q-59 -108 -159 -168t-234 -60q-236 0 -388.5 159.5t-152.5 400.5zM299 537q0 -158 101 -259.5t249 -101.5q145 0 246.5 102t101.5 259v4q0 156 -101.5 258t-246.5 102 q-149 0 -249.5 -101.5t-100.5 -258.5v-4z" />
<glyph unicode="e" horiz-adv-x="1245" d="M94 535v4q0 237 154.5 398t380.5 161q128 0 230.5 -47t165 -124.5t95.5 -171.5t33 -194v-78h-846q15 -146 109 -235.5t233 -89.5q102 0 184.5 52.5t127.5 141.5l159 -86q-71 -131 -192.5 -210t-290.5 -79q-232 0 -387.5 159.5t-155.5 398.5zM315 639h633q-1 50 -20 98 t-55.5 89.5t-98 66.5t-139.5 25q-125 0 -209.5 -78t-110.5 -201z" />
<glyph unicode="f" horiz-adv-x="770" d="M51 881v194h152v160q0 141 75 219t205 78q136 0 209 -33v-164q-67 23 -151 23q-63 0 -96 -33t-33 -96v-154h280v-194h-280v-881h-209v881h-152z" />
<glyph unicode="g" horiz-adv-x="1329" d="M117 553v4q0 236 148 388.5t372 152.5q131 0 232.5 -70t123.5 -151v198h207v-1034q0 -224 -155 -370t-404 -146q-166 0 -304.5 79t-199.5 203l133 113q54 -97 153.5 -157t215.5 -60q153 0 253.5 86.5t100.5 224.5v226q-40 -91 -146.5 -153t-230.5 -62q-137 0 -251 67 t-181 188.5t-67 272.5zM319 559q0 -156 102 -258t241 -102q144 0 240.5 96t96.5 264v4q0 167 -99 264t-243 97q-139 0 -238.5 -103t-99.5 -258v-4z" />
<glyph unicode="h" horiz-adv-x="1239" d="M152 0v1513h206v-630q45 88 139.5 151.5t207.5 63.5q208 0 309.5 -126.5t101.5 -353.5v-618h-207v584q0 149 -67 233t-197 84q-108 0 -190 -75.5t-97 -188.5v-637h-206z" />
<glyph unicode="i" horiz-adv-x="550" d="M156 1354q0 49 34.5 86t85.5 37q50 0 85.5 -37.5t35.5 -85.5q0 -51 -35.5 -86t-85.5 -35q-51 0 -85.5 35t-34.5 86zM168 0v1075h207v-1075h-207z" />
<glyph unicode="j" horiz-adv-x="532" d="M-39 -221q51 -15 92 -15q53 0 85 37t32 105v1169h207v-1186q0 -142 -72.5 -219.5t-195.5 -77.5q-84 0 -148 21v166zM152 1354q0 49 34.5 86t85.5 37q50 0 85.5 -37.5t35.5 -85.5q0 -51 -35.5 -86t-85.5 -35q-51 0 -85.5 35t-34.5 86z" />
<glyph unicode="k" horiz-adv-x="1142" d="M137 0v1513h207v-946l442 508h244l-416 -481l463 -594h-241l-347 451l-145 -168v-283h-207z" />
<glyph unicode="l" horiz-adv-x="532" d="M164 0v1513h207v-1513h-207z" />
<glyph unicode="m" horiz-adv-x="1851" d="M141 0v1075h207v-176q22 69 115 134t194 65q240 0 324 -199q134 199 350 199q201 0 295 -123t94 -344v-631h-207v631q0 136 -62 203t-163 67q-88 0 -156 -48.5t-108 -137.5l-2 -6q4 -50 4 -76v-633h-207v633q0 136 -60 202t-161 66q-96 0 -168.5 -68.5t-81.5 -175.5v-657 h-207z" />
<glyph unicode="n" horiz-adv-x="1222" d="M141 0v1075h207v-178q38 82 128 140.5t192 58.5q212 0 318 -118t106 -343v-635h-207v618q0 137 -65 209t-185 72q-114 0 -193 -73t-94 -193v-633h-207z" />
<glyph unicode="o" horiz-adv-x="1314" d="M100 535v4q0 117 43 220.5t116.5 178t177 117.5t220.5 43q157 0 285 -71.5t201.5 -199t73.5 -284.5v-4q0 -239 -160.5 -400.5t-399.5 -161.5q-155 0 -283 72.5t-201 200.5t-73 285zM309 537q0 -157 102.5 -259t247.5 -102q149 0 249 101.5t100 259.5v4q0 156 -102.5 258 t-250.5 102q-145 0 -245.5 -102t-100.5 -258v-4z" />
<glyph unicode="p" horiz-adv-x="1384" d="M139 -471v1546h207v-201q59 106 157.5 164t233.5 58q236 0 388.5 -159t152.5 -400v-5q0 -240 -153 -398.5t-388 -158.5q-134 0 -233 60t-158 166v-672h-207zM369 535q0 -156 100.5 -258.5t245.5 -102.5q148 0 250 102.5t102 258.5v4q0 158 -99.5 259t-248.5 101 q-146 0 -248 -101.5t-102 -258.5v-4z" />
<glyph unicode="q" horiz-adv-x="1368" d="M104 532v5q0 241 152 400t389 159q133 0 232 -58t159 -164v201h207v-1546h-207v672q-61 -107 -160 -166.5t-231 -59.5q-236 0 -388.5 158t-152.5 399zM315 535q0 -156 101.5 -258.5t249.5 -102.5q147 0 247.5 102.5t100.5 258.5v4q0 157 -103 258.5t-249 101.5 q-148 0 -247.5 -101t-99.5 -259v-4z" />
<glyph unicode="r" horiz-adv-x="827" d="M141 0v1075h207v-246q54 121 155 193q100 71 228 70h4v-197h-26q-146 0 -253.5 -107t-107.5 -241v-547h-207z" />
<glyph unicode="s" horiz-adv-x="1030" d="M82 145l84 152q65 -63 161 -109t203 -47q101 0 159.5 38.5t58.5 103.5q0 45 -39.5 82.5t-133.5 72.5q-232 86 -318.5 163t-86.5 198q1 89 54 159q52 70 140 106q83 35 184 34h11q108 -3 194.5 -38t143.5 -83l-55 -166q-48 37 -132.5 73t-152.5 36h-9q-66 0 -116 -26 q-54 -28 -53 -91q0 -49 50 -88t159 -82q94 -38 152.5 -68.5t109.5 -70.5t74 -88.5t24 -110.5q-2 -149 -113.5 -238t-304.5 -90q-143 0 -263.5 55t-184.5 123z" />
<glyph unicode="t" horiz-adv-x="841" d="M84 881v194h143v318h207v-318h311v-194h-311v-555q0 -76 39 -115t109 -39q80 0 163 25v-174q-94 -43 -215 -43q-144 0 -223.5 76t-79.5 231v594h-143z" />
<glyph unicode="u" horiz-adv-x="1191" d="M113 506v569h206v-549q0 -83 15.5 -145.5t41 -101t63 -62t76 -32.5t85.5 -9q61 0 106.5 15t85 52.5t60 108.5t20.5 174v549h207v-569q0 -114 -26 -204.5t-70.5 -150t-107.5 -98.5t-132 -56t-149 -17q-78 0 -147 16.5t-131 55.5t-106.5 98.5t-70.5 150.5t-26 205z" />
<glyph unicode="v" horiz-adv-x="1165" d="M72 1075h227l287 -784l284 784h224l-424 -1083h-168z" />
<glyph unicode="w" horiz-adv-x="1568" d="M51 1075h209l217 -756l223 762h172l215 -762l226 756h205l-340 -1083h-168l-226 756l-227 -756h-166z" />
<glyph unicode="x" horiz-adv-x="1232" d="M82 0l420 592l-342 483h231l225 -309l226 309h233l-342 -483l420 -592h-233l-304 416l-301 -416h-233z" />
<glyph unicode="y" horiz-adv-x="1245" d="M92 -227l133 112q51 -86 145.5 -134t198.5 -48q138 0 227 86.5t89 224.5v119q-102 -121 -281 -121q-75 0 -142 16.5t-129 55.5t-106.5 98t-71 150t-26.5 205v538h207v-514q0 -103 23.5 -175.5t64.5 -110t86 -53t100 -15.5q60 0 106 15.5t86 53t61.5 109t21.5 174.5v516 h207v-1034q0 -225 -143.5 -370.5t-377.5 -145.5q-155 0 -286.5 67t-192.5 181z" />
<glyph unicode="z" horiz-adv-x="1081" d="M119 0v129l547 752h-525v194h809v-129l-547 -749h549v-197h-833z" />
<glyph unicode="{" horiz-adv-x="1024" d="M111 518v197h96q80 0 124 47.5t44 122.5v162q0 42 1 70t6 66.5t14.5 65.5t26.5 60t41 56t60 48t82.5 42.5t108.5 33t137 24.5l39 -182q-165 -24 -239 -89t-74 -195v-173q0 -92 -43 -164t-123 -94q80 -22 123 -94.5t43 -165.5v-172q0 -123 72.5 -188t240.5 -96l-39 -183 q-75 9 -137 24t-108.5 32.5t-82.5 42.5t-60 48.5t-41 56.5t-26.5 59.5t-14.5 65.5t-6 67.5t-1 70.5v162q0 75 -44 123.5t-124 48.5h-96z" />
<glyph unicode="|" horiz-adv-x="608" d="M207 -233v1853h196v-1853h-196z" />
<glyph unicode="}" horiz-adv-x="1013" d="M123 -100q168 31 240.5 96t72.5 188v172q0 93 43 165.5t123 94.5q-80 22 -123 94t-43 164v173q0 130 -74 195t-239 89l39 182q75 -9 137 -24.5t108.5 -33t82.5 -42.5t60 -48t41 -56t26.5 -60t14.5 -65.5t6 -66.5t1 -70v-162q0 -75 44 -122.5t124 -47.5h96v-197h-96 q-80 0 -124 -48.5t-44 -123.5v-162q0 -42 -1 -70.5t-6 -67.5t-14.5 -65.5t-26.5 -59.5t-41 -56.5t-60 -48.5t-82.5 -42.5t-108.5 -32.5t-137 -24z" />
<glyph unicode="~" horiz-adv-x="1114" d="M143 483q11 138 81 210.5t155 72.5q56 0 129.5 -30t135.5 -59.5t89 -29.5q72 0 105 150l145 -35q-6 -70 -28.5 -126t-54.5 -88t-66.5 -48.5t-67.5 -16.5q-52 0 -105 19t-89.5 41t-83 40t-87.5 17q-40 0 -67 -33t-45 -116z" />
<glyph unicode="&#xa1;" horiz-adv-x="542" d="M172 1378q0 52 37 88.5t90 36.5q51 0 88 -36.5t37 -88.5q0 -50 -36.5 -88.5t-88.5 -38.5q-53 0 -90 38t-37 89zM199 12v432l8 623h182l10 -623v-432h-200z" />
<glyph unicode="&#xa2;" horiz-adv-x="1271" d="M119 698v4q0 221 135.5 376.5t347.5 178.5v209h105v-206q156 -9 273 -95t177 -225l-188 -66q-38 76 -107 127t-155 60v-719q96 7 166 62.5t104 146.5l190 -55q-54 -152 -175 -247.5t-285 -105.5v-223h-105v225q-213 23 -348 177t-135 376zM330 700q0 -140 74 -235.5 t198 -118.5v713q-124 -22 -198 -118t-74 -236v-5z" />
<glyph unicode="&#xa3;" horiz-adv-x="1308" d="M145 0v178l166 15v391h-166v196h166v133q0 268 148 416q126 129 323 129q280 0 428 -268l-174 -103q-93 175 -256 175q-111 0 -180 -72q-86 -86 -86 -270v-140h551v-196h-551v-385h684v-199h-1053z" />
<glyph unicode="&#xa4;" horiz-adv-x="1202" d="M72 528q0 223 155 375q153 156 375 156q220 0 373 -156q149 -149 155 -360v-15q0 -4 -1 -12.5t-1 -13.5q-6 -202 -153 -346q-153 -156 -373 -156q-222 0 -375 156q-155 152 -155 372zM391 530q0 -89 62 -151q65 -62 149 -62q90 0 152 62q61 61 61 151q0 87 -61 148 q-60 63 -152 63q-86 0 -149 -63q-62 -62 -62 -148z" />
<glyph unicode="&#xa5;" horiz-adv-x="1345" d="M-8 1442h252l432 -676l430 676h244l-473 -744h272v-147h-375v-184h375v-146h-375v-221h-201v221h-374v146h374v184h-374v147h297z" />
<glyph unicode="&#xa6;" horiz-adv-x="608" d="M207 -233v655h196v-655h-196zM207 965v655h196v-655h-196z" />
<glyph unicode="&#xa7;" horiz-adv-x="1077" d="M139 35v192q75 -46 175 -76t175 -30q113 0 171.5 35.5t58.5 101.5q0 39 -16.5 63t-55.5 48q-42 26 -162 75q-191 75 -267.5 152.5t-76.5 187.5q0 76 48 142.5t133 107.5q-156 90 -156 240q0 127 109 202.5t290 75.5q189 0 363 -82l-74 -161q-160 77 -293 77 q-90 0 -138 -30t-48 -82q0 -43 35.5 -78.5t67.5 -50.5t116 -47q9 -4 14 -6q179 -64 257.5 -142.5t78.5 -181.5q0 -159 -166 -268q75 -48 112.5 -104.5t37.5 -131.5q0 -142 -118.5 -226.5t-320.5 -84.5q-186 0 -350 82zM350 805q0 -45 21 -75t71 -56q57 -35 187 -90 q50 27 79 67.5t29 85.5q0 40 -16.5 70.5t-56.5 56t-80 43t-113 43.5q-52 -15 -86.5 -55t-34.5 -90z" />
<glyph unicode="&#xa8;" horiz-adv-x="1105" d="M287 1395q0 42 30 73t74 31t74.5 -31t30.5 -73q0 -43 -31 -74t-74 -31t-73.5 31t-30.5 74zM657 1395q0 42 30.5 73t74.5 31t74 -31t30 -73q0 -43 -30.5 -74t-73.5 -31t-74 31t-31 74z" />
<glyph unicode="&#xa9;" horiz-adv-x="1781" d="M133 739v4q0 154 60 294t161 241t241.5 161t295.5 60t295.5 -60t241.5 -161t161 -241t60 -294v-4q0 -154 -60 -294t-161 -241t-241.5 -160.5t-295.5 -59.5t-295.5 59.5t-241.5 160.5t-161 241t-60 294zM299 739q0 -158 80 -294t216.5 -215.5t295.5 -79.5t295.5 79.5 t216.5 215.5t80 294v4q0 158 -80 294.5t-216.5 216t-295.5 79.5t-295.5 -79.5t-216.5 -216t-80 -294.5v-4zM551 741v2q0 153 100 259t254 106q177 0 281 -137l-103 -74q-71 90 -182 90q-97 0 -159 -70t-62 -172v-4q0 -101 63 -171t160 -70q104 0 184 96l109 -59 q-102 -164 -293 -164q-153 0 -252.5 106.5t-99.5 261.5z" />
<glyph unicode="&#xaa;" horiz-adv-x="872" d="M106 1165v4q0 136 91 228t221 92t223 -90v69h104v-610h-104v80q-91 -88 -221 -88q-129 0 -221.5 90t-92.5 225zM141 582v127h613v-127h-613zM229 1165q0 -85 58 -140.5t137 -55.5q87 0 143 55t56 143v2q0 89 -58 147t-143 58q-78 0 -135.5 -59t-57.5 -146v-4z" />
<glyph unicode="&#xab;" horiz-adv-x="1292" d="M113 512v70l391 456l145 -118l-309 -373l309 -373l-145 -119zM627 512v70l393 456l143 -118l-307 -373l307 -373l-143 -119z" />
<glyph unicode="&#xad;" horiz-adv-x="915" d="M150 621v200h614v-200h-614z" />
<glyph unicode="&#xae;" horiz-adv-x="1781" d="M133 739v4q0 154 60 294t161 241t241.5 161t295.5 60t295.5 -60t241.5 -161t161 -241t60 -294v-4q0 -154 -60 -294t-161 -241t-241.5 -160.5t-295.5 -59.5t-295.5 59.5t-241.5 160.5t-161 241t-60 294zM299 739q0 -158 80 -294t216.5 -215.5t295.5 -79.5t295.5 79.5 t216.5 215.5t80 294v4q0 158 -80 294.5t-216.5 216t-295.5 79.5t-295.5 -79.5t-216.5 -216t-80 -294.5v-4zM629 403v699h299q123 0 192.5 -60.5t69.5 -158.5v-2q0 -80 -45 -132t-125 -73l201 -273h-142l-182 252h-147v-252h-121zM750 764h170q77 0 117 30t40 85v2 q0 53 -39.5 82.5t-115.5 29.5h-172v-229z" />
<glyph unicode="&#xaf;" horiz-adv-x="1105" d="M276 1303v141h553v-141h-553z" />
<glyph unicode="&#xb0;" horiz-adv-x="972" d="M141 1155v4q0 134 100 231t236 97t235 -97t99 -231v-4q0 -134 -99 -231t-235 -97t-236 97t-100 231zM293 1155q0 -74 54 -127t130 -53q75 0 130 53.5t55 126.5v4q0 73 -55 126.5t-130 53.5q-76 0 -130 -53t-54 -127v-4z" />
<glyph unicode="&#xb1;" horiz-adv-x="1396" d="M139 -41h1174v-197h-1174v197zM264 594v192h363v383h196v-383h365v-192h-365v-385h-196v385h-363z" />
<glyph unicode="&#xb4;" horiz-adv-x="1105" d="M463 1327l180 262h176l-190 -262h-166z" />
<glyph unicode="&#xb6;" horiz-adv-x="1075" d="M162 973v4q0 213 154.5 339t390.5 126h167v-1442h-159v508h-33q-149 6 -265 60.5t-185.5 159.5t-69.5 245z" />
<glyph unicode="&#xb7;" horiz-adv-x="417" d="M96 487v256h228v-256h-228z" />
<glyph unicode="&#xb8;" horiz-adv-x="1105" d="M338 -299q96 -10 155.5 12.5t59.5 61.5q0 35 -30.5 47t-141.5 18l37 164h106l-12 -72q147 -27 147 -157q0 -89 -80.5 -138t-218.5 -43z" />
<glyph unicode="&#xba;" horiz-adv-x="868" d="M119 582v127h633v-127h-633zM119 1165v2q0 132 89.5 226t227.5 94q137 0 226.5 -93.5t89.5 -224.5v-4q0 -132 -87 -225.5t-231 -93.5t-229.5 93t-85.5 226zM246 1163q0 -81 54 -136.5t132 -55.5q85 0 139 55t54 139v2q0 84 -55.5 139.5t-139.5 55.5q-78 0 -131 -56 t-53 -139v-4z" />
<glyph unicode="&#xbb;" horiz-adv-x="1292" d="M129 174l307 373l-307 373l143 118l394 -456v-70l-394 -457zM643 174l309 373l-309 373l145 118l392 -456v-70l-392 -457z" />
<glyph unicode="&#xbc;" horiz-adv-x="1775" d="M68 1346l327 129h125v-920h-176v731l-240 -92zM295 -49l915 1546h226l-916 -1546h-225zM979 186v140l426 600h149v-574h113v-166h-113v-186h-170v186h-405zM1161 352h223v328z" />
<glyph unicode="&#xbd;" horiz-adv-x="1906" d="M88 1346l328 129h125v-920h-176v731l-240 -92zM313 -49l916 1546h225l-915 -1546h-226zM1135 674q41 110 125 184t202 74q123 0 205 -76.5t82 -183.5v-2q0 -67 -31 -134t-121 -165l-182 -205h354v-166h-616v111l332 374q58 65 77 104t19 77q0 43 -32 71.5t-89 28.5 t-100.5 -43.5t-81.5 -126.5z" />
<glyph unicode="&#xbe;" horiz-adv-x="1978" d="M129 705l129 104q43 -57 87.5 -82t103.5 -25q70 0 114.5 43.5t44.5 108.5v10q0 78 -52 120.5t-146 35.5l-58 -8l-47 80l205 219h-326v164h549v-117l-201 -219q111 -22 177.5 -98.5t66.5 -188.5v-4q0 -132 -97 -220.5t-230 -88.5q-204 0 -320 166zM463 -49l915 1546h226 l-916 -1546h-225zM1171 186v140l426 600h150v-574h113v-166h-113v-186h-170v186h-406zM1354 352h223v328z" />
<glyph unicode="&#xbf;" horiz-adv-x="1103" d="M57 399v4q0 88 34 162.5t90.5 124t123 81.5t137.5 44l7 203h180l12 -318l-51 -53q-151 14 -241.5 -57.5t-90.5 -183.5v-5q0 -95 71 -161t175 -66q98 0 182 59.5t125 143.5l131 -135q-162 -267 -440 -267q-189 0 -317 123t-128 301zM412 1360q0 52 37 88.5t88 36.5 q53 0 90 -36.5t37 -88.5q0 -51 -37 -89t-90 -38q-52 0 -88.5 38.5t-36.5 88.5z" />
<glyph unicode="&#xc0;" horiz-adv-x="1536" d="M61 0l588 1485h238l588 -1485h-234l-131 330h-684l-133 -330h-232zM459 1958h176l178 -262h-166zM498 526h540l-270 686z" />
<glyph unicode="&#xc1;" horiz-adv-x="1536" d="M61 0l588 1485h238l588 -1485h-234l-131 330h-684l-133 -330h-232zM498 526h540l-270 686zM614 1737l181 262h176l-191 -262h-166z" />
<glyph unicode="&#xc2;" horiz-adv-x="1536" d="M61 0l588 1485h238l588 -1485h-234l-131 330h-684l-133 -330h-232zM498 526h540l-270 686zM514 1722l197 220h137l201 -220h-140l-131 140l-125 -140h-139z" />
<glyph unicode="&#xc3;" horiz-adv-x="1536" d="M61 0l588 1485h238l588 -1485h-234l-131 330h-684l-133 -330h-232zM479 1669q-17 87 37.5 153t140.5 66q42 0 92.5 -28.5t96 -57t74.5 -28.5q43 0 67.5 28t13.5 78h97q15 -89 -39.5 -151t-140.5 -62q-42 0 -95 28.5t-100.5 56.5t-75.5 28q-41 0 -62.5 -30.5t-17.5 -82.5z M498 526h540l-270 686z" />
<glyph unicode="&#xc4;" horiz-adv-x="1536" d="M61 0l588 1485h238l588 -1485h-234l-131 330h-684l-133 -330h-232zM465 1815q0 36 26.5 64t65.5 28q37 0 63.5 -28t26.5 -64q0 -38 -26.5 -65.5t-63.5 -27.5q-38 0 -65 27.5t-27 65.5zM498 526h540l-270 686zM877 1815q0 36 26.5 64t65.5 28q37 0 63.5 -28t26.5 -64 q0 -38 -26.5 -65.5t-63.5 -27.5q-38 0 -65 27.5t-27 65.5z" />
<glyph unicode="&#xc5;" horiz-adv-x="1536" d="M61 0l588 1485h238l588 -1485h-234l-131 330h-684l-133 -330h-232zM498 526h540l-270 686zM608 1774q0 65 48 113t114 48q65 0 113.5 -48.5t48.5 -112.5q0 -65 -49 -114.5t-113 -49.5q-65 0 -113.5 49.5t-48.5 114.5zM713 1776q0 -25 16.5 -43.5t40.5 -18.5q23 0 41 18.5 t18 43.5q0 23 -18 41t-41 18q-24 0 -40.5 -17.5t-16.5 -41.5z" />
<glyph unicode="&#xc6;" horiz-adv-x="2187" d="M113 0l809 1493h1046v-199h-780v-379h719v-198h-719v-518h817v-199h-1051v342h-415l-181 -342h-245zM623 518h333v612z" />
<glyph unicode="&#xc7;" horiz-adv-x="1556" d="M119 739v4q0 122 28 234t86.5 208t141.5 166.5t199.5 111t254.5 40.5q251 0 416 -119.5t225 -314.5l-219 -55q-128 293 -424 293q-144 0 -251.5 -75.5t-161.5 -202t-54 -284.5v-4q0 -158 55 -285t163.5 -203.5t252.5 -76.5q296 0 422 281l213 -47q-41 -125 -122.5 -219.5 t-211.5 -152t-292 -58.5l-9 -48q148 -28 148 -157q0 -89 -80.5 -138t-218.5 -43l-23 107q96 -10 155.5 12.5t59.5 61.5q0 35 -30.5 47t-141.5 18l33 144q-149 16 -267.5 83.5t-193 170t-114 230.5t-39.5 271z" />
<glyph unicode="&#xc8;" horiz-adv-x="1226" d="M147 0v1483h967v-199h-745v-379h602v-198h-602v-508h745v-199h-967zM328 1958h176l178 -262h-166z" />
<glyph unicode="&#xc9;" horiz-adv-x="1226" d="M147 0v1483h967v-199h-745v-379h602v-198h-602v-508h745v-199h-967zM483 1737l181 262h176l-191 -262h-166z" />
<glyph unicode="&#xca;" horiz-adv-x="1226" d="M147 0v1483h967v-199h-745v-379h602v-198h-602v-508h745v-199h-967zM381 1722l197 220h137l200 -220h-139l-131 140l-125 -140h-139z" />
<glyph unicode="&#xcb;" horiz-adv-x="1226" d="M147 0v1483h967v-199h-745v-379h602v-198h-602v-508h745v-199h-967zM334 1815q0 36 26.5 64t65.5 28q37 0 63.5 -28t26.5 -64q0 -38 -26.5 -65.5t-63.5 -27.5q-38 0 -65 27.5t-27 65.5zM745 1815q0 36 27 64t66 28q37 0 63.5 -28t26.5 -64q0 -38 -26.5 -65.5t-63.5 -27.5 q-38 0 -65.5 27.5t-27.5 65.5z" />
<glyph unicode="&#xcc;" horiz-adv-x="591" d="M35 1958h176l178 -262h-166zM186 0v1483h222v-1483h-222z" />
<glyph unicode="&#xcd;" horiz-adv-x="591" d="M158 1737l180 262h176l-190 -262h-166zM186 0v1483h222v-1483h-222z" />
<glyph unicode="&#xce;" horiz-adv-x="591" d="M55 1722l197 220h137l201 -220h-139l-132 140l-124 -140h-140zM186 0v1483h222v-1483h-222z" />
<glyph unicode="&#xcf;" horiz-adv-x="591" d="M119 1815q0 36 26.5 64t65.5 28q37 0 63.5 -28t26.5 -64q0 -38 -26.5 -65.5t-63.5 -27.5q-38 0 -65 27.5t-27 65.5zM186 0v1483h222v-1483h-222zM530 1815q0 36 27 64t66 28q37 0 63.5 -28t26.5 -64q0 -38 -26.5 -65.5t-63.5 -27.5q-38 0 -65.5 27.5t-27.5 65.5z" />
<glyph unicode="&#xd0;" horiz-adv-x="1511" d="M72 739v201h75v543h553q151 0 269.5 -37.5t198 -103t131.5 -159.5t75 -202t23 -236v-6q0 -125 -22.5 -232t-75 -202t-131.5 -161.5t-198.5 -105t-269.5 -38.5h-553v739h-75zM369 199h323q132 0 227 38.5t150.5 111.5t81 168.5t25.5 219.5v4q0 129 -25.5 226t-81.5 170 t-151.5 110t-229.5 37h-319v-344h317v-201h-317v-540z" />
<glyph unicode="&#xd1;" horiz-adv-x="1513" d="M147 0v1483h191l809 -1100v1100h221v-1483h-180l-821 1110v-1110h-220zM465 1669q-17 87 37.5 153t140.5 66q42 0 92 -28.5t95.5 -57t74.5 -28.5q43 0 68 28t14 78h96q15 -89 -39.5 -151t-140.5 -62q-42 0 -94.5 28.5t-100 56.5t-75.5 28q-41 0 -62.5 -30.5t-17.5 -82.5z " />
<glyph unicode="&#xd2;" horiz-adv-x="1685" d="M102 737v4q0 158 53 298.5t148 245t234.5 165.5t302.5 61q221 0 392 -104t261 -278t90 -386v-4q0 -158 -52.5 -298t-147.5 -244t-235.5 -164t-307.5 -60q-163 0 -302 59.5t-234 162.5t-148.5 243t-53.5 299zM332 737q0 -155 62 -281t179.5 -201t268.5 -75 q159 0 277.5 74.5t178.5 199t60 281.5v8q0 151 -61.5 275t-182 200t-278.5 76q-149 0 -265.5 -74.5t-177.5 -199t-61 -275.5v-8zM539 1958h176l178 -262h-166z" />
<glyph unicode="&#xd3;" horiz-adv-x="1685" d="M102 737v4q0 158 53 298.5t148 245t234.5 165.5t302.5 61q221 0 392 -104t261 -278t90 -386v-4q0 -158 -52.5 -298t-147.5 -244t-235.5 -164t-307.5 -60q-163 0 -302 59.5t-234 162.5t-148.5 243t-53.5 299zM332 737q0 -155 62 -281t179.5 -201t268.5 -75 q159 0 277.5 74.5t178.5 199t60 281.5v8q0 151 -61.5 275t-182 200t-278.5 76q-149 0 -265.5 -74.5t-177.5 -199t-61 -275.5v-8zM694 1737l180 262h177l-191 -262h-166z" />
<glyph unicode="&#xd4;" horiz-adv-x="1685" d="M102 737v4q0 158 53 298.5t148 245t234.5 165.5t302.5 61q221 0 392 -104t261 -278t90 -386v-4q0 -158 -52.5 -298t-147.5 -244t-235.5 -164t-307.5 -60q-163 0 -302 59.5t-234 162.5t-148.5 243t-53.5 299zM332 737q0 -155 62 -281t179.5 -201t268.5 -75 q159 0 277.5 74.5t178.5 199t60 281.5v8q0 151 -61.5 275t-182 200t-278.5 76q-149 0 -265.5 -74.5t-177.5 -199t-61 -275.5v-8zM594 1722l197 220h137l200 -220h-139l-131 140l-125 -140h-139z" />
<glyph unicode="&#xd5;" horiz-adv-x="1685" d="M102 737v4q0 158 53 298.5t148 245t234.5 165.5t302.5 61q221 0 392 -104t261 -278t90 -386v-4q0 -158 -52.5 -298t-147.5 -244t-235.5 -164t-307.5 -60q-163 0 -302 59.5t-234 162.5t-148.5 243t-53.5 299zM332 737q0 -155 62 -281t179.5 -201t268.5 -75 q159 0 277.5 74.5t178.5 199t60 281.5v8q0 151 -61.5 275t-182 200t-278.5 76q-149 0 -265.5 -74.5t-177.5 -199t-61 -275.5v-8zM559 1669q-17 87 37.5 153t140.5 66q42 0 92 -28.5t95.5 -57t74.5 -28.5q43 0 68 28t14 78h97q15 -89 -40 -151t-141 -62q-42 0 -94.5 28.5 t-100 56.5t-75.5 28q-41 0 -62.5 -30.5t-17.5 -82.5z" />
<glyph unicode="&#xd6;" horiz-adv-x="1685" d="M102 737v4q0 158 53 298.5t148 245t234.5 165.5t302.5 61q221 0 392 -104t261 -278t90 -386v-4q0 -158 -52.5 -298t-147.5 -244t-235.5 -164t-307.5 -60q-163 0 -302 59.5t-234 162.5t-148.5 243t-53.5 299zM332 737q0 -155 62 -281t179.5 -201t268.5 -75 q159 0 277.5 74.5t178.5 199t60 281.5v8q0 151 -61.5 275t-182 200t-278.5 76q-149 0 -265.5 -74.5t-177.5 -199t-61 -275.5v-8zM545 1815q0 36 26.5 64t65.5 28q37 0 63.5 -28t26.5 -64q0 -38 -26.5 -65.5t-63.5 -27.5q-38 0 -65 27.5t-27 65.5zM956 1815q0 36 27 64t66 28 q37 0 63.5 -28t26.5 -64q0 -38 -26.5 -65.5t-63.5 -27.5q-38 0 -65.5 27.5t-27.5 65.5z" />
<glyph unicode="&#xd7;" horiz-adv-x="1144" d="M102 354l322 320l-322 321l142 142l321 -322l336 336l141 -141l-335 -336l335 -336l-141 -141l-336 335l-321 -319z" />
<glyph unicode="&#xd8;" horiz-adv-x="1685" d="M102 737v4q0 158 53 298.5t148 245t234.5 165.5t302.5 61q146 0 270 -47l109 226h223l-154 -320q140 -104 217.5 -269t77.5 -358v-4q0 -158 -52.5 -298t-147.5 -244t-235.5 -164t-307.5 -60q-107 0 -213 29l-95 -197h-223l133 277q-160 100 -250 272.5t-90 382.5z M332 737q0 -142 54.5 -262.5t152.5 -195.5l475 987q-82 28 -178 28q-149 0 -265.5 -74.5t-177.5 -199t-61 -275.5v-8zM721 195q56 -15 121 -15q159 0 277.5 74.5t178.5 199t60 281.5v8q0 125 -44 234.5t-126 185.5z" />
<glyph unicode="&#xd9;" horiz-adv-x="1529" d="M147 610v873h222v-832q0 -231 104 -352t295 -121q393 0 393 471v834h223v-873q0 -157 -45.5 -278.5t-128 -197.5t-195 -115t-249.5 -39q-133 0 -244 38.5t-195.5 114.5t-132 198t-47.5 279zM469 1958h176l178 -262h-166z" />
<glyph unicode="&#xda;" horiz-adv-x="1529" d="M147 610v873h222v-832q0 -231 104 -352t295 -121q393 0 393 471v834h223v-873q0 -157 -45.5 -278.5t-128 -197.5t-195 -115t-249.5 -39q-133 0 -244 38.5t-195.5 114.5t-132 198t-47.5 279zM625 1737l180 262h176l-190 -262h-166z" />
<glyph unicode="&#xdb;" horiz-adv-x="1529" d="M147 610v873h222v-832q0 -231 104 -352t295 -121q393 0 393 471v834h223v-873q0 -157 -45.5 -278.5t-128 -197.5t-195 -115t-249.5 -39q-133 0 -244 38.5t-195.5 114.5t-132 198t-47.5 279zM524 1722l197 220h137l201 -220h-139l-132 140l-124 -140h-140z" />
<glyph unicode="&#xdc;" horiz-adv-x="1529" d="M147 610v873h222v-832q0 -231 104 -352t295 -121q393 0 393 471v834h223v-873q0 -157 -45.5 -278.5t-128 -197.5t-195 -115t-249.5 -39q-133 0 -244 38.5t-195.5 114.5t-132 198t-47.5 279zM475 1815q0 36 26.5 64t65.5 28q37 0 63.5 -28t26.5 -64q0 -38 -26.5 -65.5 t-63.5 -27.5q-38 0 -65 27.5t-27 65.5zM887 1815q0 36 26.5 64t65.5 28q37 0 63.5 -28t26.5 -64q0 -38 -26.5 -65.5t-63.5 -27.5q-38 0 -65 27.5t-27 65.5z" />
<glyph unicode="&#xdd;" horiz-adv-x="1368" d="M82 1483h240l364 -705l361 705h239l-489 -934v-549h-222v549zM539 1737l180 262h176l-190 -262h-166z" />
<glyph unicode="&#xde;" horiz-adv-x="1300" d="M190 0v1493h211v-283h209q140 0 243.5 -32.5t164.5 -93t90 -139t29 -177.5v-4q0 -212 -131 -331.5t-404 -119.5h-201v-313h-211zM401 512h191q179 0 256.5 60.5t77.5 189.5v4q0 125 -76.5 186.5t-253.5 61.5h-195v-502z" />
<glyph unicode="&#xdf;" horiz-adv-x="1404" d="M160 -4v952q0 105 16.5 198.5t55.5 178t97 145t146.5 97t198.5 37.5q207 -3 336 -113.5t129 -300.5q0 -100 -47.5 -180t-130.5 -123q141 -45 232 -167.5t91 -279.5q0 -241 -156 -387.5t-417 -146.5q-148 0 -258 63l45 189q34 -22 92.5 -39t120.5 -17q176 0 271 91.5 t95 246.5q0 145 -102 243t-264 91v187q104 -2 162.5 52.5t58.5 155.5q0 105 -66.5 165.5t-181.5 62.5q-163 -3 -240 -123t-77 -326v-952h-207z" />
<glyph unicode="&#xe0;" d="M98 535v4q0 157 68 284.5t191.5 201t279.5 73.5q259 0 385 -211v188h207v-1075h-207v190q-127 -213 -385 -213q-155 0 -278.5 72.5t-192 200t-68.5 285.5zM309 537q0 -157 102.5 -259t247.5 -102q149 0 249 101.5t100 259.5v4q0 156 -102.5 258t-250.5 102 q-145 0 -245.5 -102t-100.5 -258v-4zM453 1587h182l178 -262h-170z" />
<glyph unicode="&#xe1;" d="M98 535v4q0 157 68 284.5t191.5 201t279.5 73.5q259 0 385 -211v188h207v-1075h-207v190q-127 -213 -385 -213q-155 0 -278.5 72.5t-192 200t-68.5 285.5zM309 537q0 -157 102.5 -259t247.5 -102q149 0 249 101.5t100 259.5v4q0 156 -102.5 258t-250.5 102 q-145 0 -245.5 -102t-100.5 -258v-4zM522 1327l180 262h177l-191 -262h-166z" />
<glyph unicode="&#xe2;" d="M98 535v4q0 157 68 284.5t191.5 201t279.5 73.5q259 0 385 -211v188h207v-1075h-207v190q-127 -213 -385 -213q-155 0 -278.5 72.5t-192 200t-68.5 285.5zM309 537q0 -157 102.5 -259t247.5 -102q149 0 249 101.5t100 259.5v4q0 156 -102.5 258t-250.5 102 q-145 0 -245.5 -102t-100.5 -258v-4zM418 1323l196 219h138l200 -219h-139l-131 139l-125 -139h-139z" />
<glyph unicode="&#xe3;" d="M98 535v4q0 157 68 284.5t191.5 201t279.5 73.5q259 0 385 -211v188h207v-1075h-207v190q-127 -213 -385 -213q-155 0 -278.5 72.5t-192 200t-68.5 285.5zM309 537q0 -157 102.5 -259t247.5 -102q149 0 249 101.5t100 259.5v4q0 156 -102.5 258t-250.5 102 q-145 0 -245.5 -102t-100.5 -258v-4zM375 1270q-17 87 37.5 153t140.5 66q33 0 72 -18t68.5 -39.5t63.5 -39.5t58 -18q43 0 68 28.5t14 78.5h96q15 -89 -39.5 -151t-140.5 -62q-42 0 -94.5 28t-100 56t-75.5 28q-41 0 -62.5 -30t-17.5 -82z" />
<glyph unicode="&#xe4;" d="M98 535v4q0 157 68 284.5t191.5 201t279.5 73.5q259 0 385 -211v188h207v-1075h-207v190q-127 -213 -385 -213q-155 0 -278.5 72.5t-192 200t-68.5 285.5zM309 537q0 -157 102.5 -259t247.5 -102q149 0 249 101.5t100 259.5v4q0 156 -102.5 258t-250.5 102 q-145 0 -245.5 -102t-100.5 -258v-4zM389 1395q0 42 30.5 73t74.5 31t74 -31t30 -73q0 -43 -30.5 -74t-73.5 -31t-74 31t-31 74zM760 1395q0 42 30 73t74 31t74.5 -31t30.5 -73q0 -43 -31 -74t-74 -31t-73.5 31t-30.5 74z" />
<glyph unicode="&#xe5;" d="M98 535v4q0 157 68 284.5t191.5 201t279.5 73.5q259 0 385 -211v188h207v-1075h-207v190q-127 -213 -385 -213q-155 0 -278.5 72.5t-192 200t-68.5 285.5zM309 537q0 -157 102.5 -259t247.5 -102q149 0 249 101.5t100 259.5v4q0 156 -102.5 258t-250.5 102 q-145 0 -245.5 -102t-100.5 -258v-4zM516 1395q0 65 48 113t114 48q65 0 113.5 -48.5t48.5 -112.5q0 -65 -49 -114.5t-113 -49.5q-65 0 -113.5 49.5t-48.5 114.5zM621 1397q0 -25 16.5 -43.5t40.5 -18.5q23 0 41 18.5t18 43.5q0 23 -18 41t-41 18q-24 0 -40.5 -17.5 t-16.5 -41.5z" />
<glyph unicode="&#xe6;" horiz-adv-x="2277" d="M143 535v4q0 157 68 284.5t192 201t281 73.5q130 0 231 -57.5t158 -157.5v192h199v-170q55 91 148 142t200 51q127 0 230 -47t166.5 -124.5t97.5 -171.5t34 -194v-69h-841q7 -157 101.5 -244.5t233.5 -87.5q101 0 187 50.5t131 131.5l160 -86q-69 -128 -194.5 -203.5 t-295.5 -75.5q-110 0 -204.5 52.5t-153.5 144.5v-174h-199v197q-57 -102 -158.5 -161t-230.5 -59q-236 0 -388.5 158.5t-152.5 399.5zM352 537q0 -157 102.5 -259t247.5 -102q149 0 249 101.5t100 259.5v4q0 156 -102.5 258t-250.5 102q-145 0 -245.5 -102t-100.5 -258v-4z M1309 629h622q-2 52 -22.5 101.5t-57 92.5t-96 69t-133.5 26q-121 0 -207.5 -81t-105.5 -208z" />
<glyph unicode="&#xe7;" horiz-adv-x="1259" d="M109 535v4q0 157 71 285t197 201t282 73q170 0 297 -87.5t191 -234.5l-180 -80q-45 91 -123.5 148t-184.5 57q-147 0 -243.5 -101.5t-96.5 -258.5v-4q0 -158 99 -259.5t246 -101.5q111 0 191 60t118 155l184 -65q-57 -160 -188 -254.5t-310 -94.5q-1 0 -3 1.5t-3 1.5 l-8 -48q148 -28 148 -157q0 -89 -80.5 -138t-218.5 -43l-23 107q96 -10 155.5 12.5t59.5 61.5q0 35 -30.5 47t-141.5 18l33 148q-195 37 -316.5 186.5t-121.5 360.5z" />
<glyph unicode="&#xe8;" horiz-adv-x="1245" d="M94 535v4q0 237 154.5 398t380.5 161q128 0 230.5 -47t165 -124.5t95.5 -171.5t33 -194v-78h-846q15 -146 109 -235.5t233 -89.5q102 0 184.5 52.5t127.5 141.5l159 -86q-71 -131 -192.5 -210t-290.5 -79q-232 0 -387.5 159.5t-155.5 398.5zM315 639h633q-1 50 -20 98 t-55.5 89.5t-98 66.5t-139.5 25q-125 0 -209.5 -78t-110.5 -201zM391 1587h182l179 -262h-170z" />
<glyph unicode="&#xe9;" horiz-adv-x="1245" d="M94 535v4q0 237 154.5 398t380.5 161q128 0 230.5 -47t165 -124.5t95.5 -171.5t33 -194v-78h-846q15 -146 109 -235.5t233 -89.5q102 0 184.5 52.5t127.5 141.5l159 -86q-71 -131 -192.5 -210t-290.5 -79q-232 0 -387.5 159.5t-155.5 398.5zM315 639h633q-1 50 -20 98 t-55.5 89.5t-98 66.5t-139.5 25q-125 0 -209.5 -78t-110.5 -201zM459 1327l180 262h176l-190 -262h-166z" />
<glyph unicode="&#xea;" horiz-adv-x="1245" d="M94 535v4q0 237 154.5 398t380.5 161q128 0 230.5 -47t165 -124.5t95.5 -171.5t33 -194v-78h-846q15 -146 109 -235.5t233 -89.5q102 0 184.5 52.5t127.5 141.5l159 -86q-71 -131 -192.5 -210t-290.5 -79q-232 0 -387.5 159.5t-155.5 398.5zM315 639h633q-1 50 -20 98 t-55.5 89.5t-98 66.5t-139.5 25q-125 0 -209.5 -78t-110.5 -201zM356 1323l197 219h137l201 -219h-139l-131 139l-125 -139h-140z" />
<glyph unicode="&#xeb;" horiz-adv-x="1245" d="M94 535v4q0 237 154.5 398t380.5 161q128 0 230.5 -47t165 -124.5t95.5 -171.5t33 -194v-78h-846q15 -146 109 -235.5t233 -89.5q102 0 184.5 52.5t127.5 141.5l159 -86q-71 -131 -192.5 -210t-290.5 -79q-232 0 -387.5 159.5t-155.5 398.5zM315 639h633q-1 50 -20 98 t-55.5 89.5t-98 66.5t-139.5 25q-125 0 -209.5 -78t-110.5 -201zM328 1395q0 42 30 73t74 31t74.5 -31t30.5 -73q0 -43 -31 -74t-74 -31t-73.5 31t-30.5 74zM698 1395q0 42 30.5 73t74.5 31t74 -31t30 -73q0 -43 -30.5 -74t-73.5 -31t-74 31t-31 74z" />
<glyph unicode="&#xec;" horiz-adv-x="577" d="M55 1587h183l178 -262h-170zM188 0v1075h199v-1075h-199z" />
<glyph unicode="&#xed;" horiz-adv-x="577" d="M125 1327l180 262h176l-190 -262h-166zM188 0v1075h199v-1075h-199z" />
<glyph unicode="&#xee;" horiz-adv-x="577" d="M20 1323l197 219h137l201 -219h-139l-131 139l-125 -139h-140zM188 0v1075h199v-1075h-199z" />
<glyph unicode="&#xef;" horiz-adv-x="577" d="M86 1395q0 42 30 73t74 31t74.5 -31t30.5 -73q0 -43 -31 -74t-74 -31t-73.5 31t-30.5 74zM188 0v1075h199v-1075h-199zM457 1395q0 42 30 73t74 31t74.5 -31t30.5 -73q0 -43 -31 -74t-74 -31t-73.5 31t-30.5 74z" />
<glyph unicode="&#xf0;" horiz-adv-x="1310" d="M100 514q0 112 43.5 214.5t117 177t176 119t216.5 44.5q93 0 170.5 -42.5t130.5 -111.5q-40 137 -127.5 264t-244.5 289l-172 -190l-134 123l175 190q-126 126 -242 203l121 139q125 -93 248 -207l167 179l132 -125l-168 -185q261 -272 380 -525t119 -556 q-2 -153 -78 -281t-202.5 -200t-274.5 -72q-114 0 -216.5 44t-176 118t-117 176t-43.5 215zM303 516q0 -143 103 -246q102 -102 247 -102q144 0 246 102q102 97 102 246q0 148 -102 250q-103 100 -246 100q-147 0 -247 -100q-103 -108 -103 -250z" />
<glyph unicode="&#xf1;" horiz-adv-x="1222" d="M141 0v1075h207v-178q38 82 128 140.5t192 58.5q212 0 318 -118t106 -343v-635h-207v618q0 137 -65 209t-185 72q-114 0 -193 -73t-94 -193v-633h-207zM303 1270q-17 87 37.5 153t140.5 66q33 0 72 -18t68.5 -39.5t63.5 -39.5t58 -18q43 0 68 28.5t14 78.5h97 q15 -89 -40 -151t-141 -62q-42 0 -94.5 28t-100 56t-75.5 28q-41 0 -62.5 -30t-17.5 -82z" />
<glyph unicode="&#xf2;" horiz-adv-x="1314" d="M100 535v4q0 117 43 220.5t116.5 178t177 117.5t220.5 43q157 0 285 -71.5t201.5 -199t73.5 -284.5v-4q0 -239 -160.5 -400.5t-399.5 -161.5q-155 0 -283 72.5t-201 200.5t-73 285zM309 537q0 -157 102.5 -259t247.5 -102q149 0 249 101.5t100 259.5v4q0 156 -102.5 258 t-250.5 102q-145 0 -245.5 -102t-100.5 -258v-4zM432 1587h182l179 -262h-170z" />
<glyph unicode="&#xf3;" horiz-adv-x="1314" d="M100 535v4q0 117 43 220.5t116.5 178t177 117.5t220.5 43q157 0 285 -71.5t201.5 -199t73.5 -284.5v-4q0 -239 -160.5 -400.5t-399.5 -161.5q-155 0 -283 72.5t-201 200.5t-73 285zM309 537q0 -157 102.5 -259t247.5 -102q149 0 249 101.5t100 259.5v4q0 156 -102.5 258 t-250.5 102q-145 0 -245.5 -102t-100.5 -258v-4zM500 1327l180 262h176l-190 -262h-166z" />
<glyph unicode="&#xf4;" horiz-adv-x="1314" d="M100 535v4q0 117 43 220.5t116.5 178t177 117.5t220.5 43q157 0 285 -71.5t201.5 -199t73.5 -284.5v-4q0 -239 -160.5 -400.5t-399.5 -161.5q-155 0 -283 72.5t-201 200.5t-73 285zM309 537q0 -157 102.5 -259t247.5 -102q149 0 249 101.5t100 259.5v4q0 156 -102.5 258 t-250.5 102q-145 0 -245.5 -102t-100.5 -258v-4zM397 1323l197 219h137l201 -219h-139l-131 139l-125 -139h-140z" />
<glyph unicode="&#xf5;" horiz-adv-x="1314" d="M100 535v4q0 117 43 220.5t116.5 178t177 117.5t220.5 43q157 0 285 -71.5t201.5 -199t73.5 -284.5v-4q0 -239 -160.5 -400.5t-399.5 -161.5q-155 0 -283 72.5t-201 200.5t-73 285zM309 537q0 -157 102.5 -259t247.5 -102q149 0 249 101.5t100 259.5v4q0 156 -102.5 258 t-250.5 102q-145 0 -245.5 -102t-100.5 -258v-4zM354 1270q-17 87 37.5 153t140.5 66q33 0 72.5 -18t69 -39.5t63.5 -39.5t58 -18q43 0 68 28.5t14 78.5h96q15 -89 -39.5 -151t-140.5 -62q-42 0 -95 28t-100.5 56t-75.5 28q-41 0 -62.5 -30t-17.5 -82z" />
<glyph unicode="&#xf6;" horiz-adv-x="1314" d="M100 535v4q0 117 43 220.5t116.5 178t177 117.5t220.5 43q157 0 285 -71.5t201.5 -199t73.5 -284.5v-4q0 -239 -160.5 -400.5t-399.5 -161.5q-155 0 -283 72.5t-201 200.5t-73 285zM309 537q0 -157 102.5 -259t247.5 -102q149 0 249 101.5t100 259.5v4q0 156 -102.5 258 t-250.5 102q-145 0 -245.5 -102t-100.5 -258v-4zM367 1395q0 42 30 73t74 31t74 -31t30 -73q0 -43 -30.5 -74t-73.5 -31t-73.5 31t-30.5 74zM737 1395q0 42 30.5 73t74.5 31t74 -31t30 -73q0 -43 -30.5 -74t-73.5 -31t-74 31t-31 74z" />
<glyph unicode="&#xf7;" horiz-adv-x="1064" d="M129 584v198h809v-198h-809zM412 313q0 54 39 93.5t96 39.5q55 0 93 -40t38 -93q0 -56 -38.5 -95.5t-92.5 -39.5q-57 0 -96 39.5t-39 95.5zM412 1079q0 54 39 93.5t96 39.5q55 0 93 -40t38 -93q0 -56 -38.5 -95.5t-92.5 -39.5q-57 0 -96 39.5t-39 95.5z" />
<glyph unicode="&#xf8;" horiz-adv-x="1376" d="M125 535v4q0 117 43 220.5t117 178t177.5 117.5t221.5 43q164 0 299 -80l119 162h149l-172 -238q162 -159 162 -399v-4q0 -157 -72.5 -286t-200.5 -202.5t-284 -73.5q-140 0 -264 62l-101 -139h-149l149 206q-92 76 -143 187.5t-51 241.5zM334 537q0 -162 106 -263 l422 578q-76 49 -180 49q-147 0 -247.5 -102t-100.5 -258v-4zM543 207q67 -31 143 -31q148 0 247 101.5t99 259.5v4q0 134 -78 231z" />
<glyph unicode="&#xf9;" horiz-adv-x="1191" d="M113 506v569h206v-549q0 -83 15.5 -145.5t41 -101t63 -62t76 -32.5t85.5 -9q61 0 106.5 15t85 52.5t60 108.5t20.5 174v549h207v-569q0 -114 -26 -204.5t-70.5 -150t-107.5 -98.5t-132 -56t-149 -17q-78 0 -147 16.5t-131 55.5t-106.5 98.5t-70.5 150.5t-26 205z M379 1587h182l178 -262h-170z" />
<glyph unicode="&#xfa;" horiz-adv-x="1191" d="M113 506v569h206v-549q0 -83 15.5 -145.5t41 -101t63 -62t76 -32.5t85.5 -9q61 0 106.5 15t85 52.5t60 108.5t20.5 174v549h207v-569q0 -114 -26 -204.5t-70.5 -150t-107.5 -98.5t-132 -56t-149 -17q-78 0 -147 16.5t-131 55.5t-106.5 98.5t-70.5 150.5t-26 205z M446 1327l181 262h176l-191 -262h-166z" />
<glyph unicode="&#xfb;" horiz-adv-x="1191" d="M113 506v569h206v-549q0 -83 15.5 -145.5t41 -101t63 -62t76 -32.5t85.5 -9q61 0 106.5 15t85 52.5t60 108.5t20.5 174v549h207v-569q0 -114 -26 -204.5t-70.5 -150t-107.5 -98.5t-132 -56t-149 -17q-78 0 -147 16.5t-131 55.5t-106.5 98.5t-70.5 150.5t-26 205z M344 1323l197 219h137l201 -219h-140l-131 139l-125 -139h-139z" />
<glyph unicode="&#xfc;" horiz-adv-x="1191" d="M113 506v569h206v-549q0 -83 15.5 -145.5t41 -101t63 -62t76 -32.5t85.5 -9q61 0 106.5 15t85 52.5t60 108.5t20.5 174v549h207v-569q0 -114 -26 -204.5t-70.5 -150t-107.5 -98.5t-132 -56t-149 -17q-78 0 -147 16.5t-131 55.5t-106.5 98.5t-70.5 150.5t-26 205z M315 1395q0 42 30.5 73t74.5 31t74 -31t30 -73q0 -43 -30.5 -74t-73.5 -31t-74 31t-31 74zM686 1395q0 42 30.5 73t74.5 31t74 -31t30 -73q0 -43 -30.5 -74t-73.5 -31t-74 31t-31 74z" />
<glyph unicode="&#xfd;" horiz-adv-x="1245" d="M92 -227l133 112q51 -86 145.5 -134t198.5 -48q138 0 227 86.5t89 224.5v119q-102 -121 -281 -121q-75 0 -142 16.5t-129 55.5t-106.5 98t-71 150t-26.5 205v538h207v-514q0 -103 23.5 -175.5t64.5 -110t86 -53t100 -15.5q60 0 106 15.5t86 53t61.5 109t21.5 174.5v516 h207v-1034q0 -225 -143.5 -370.5t-377.5 -145.5q-155 0 -286.5 67t-192.5 181zM449 1327l180 262h176l-191 -262h-165z" />
<glyph unicode="&#xfe;" horiz-adv-x="1310" d="M172 -420v1854h199v-551q60 102 158.5 158.5t230.5 56.5q151 0 272 -73.5t188.5 -201t67.5 -284.5v-4q0 -240 -150 -399t-378 -159q-133 0 -231.5 57.5t-157.5 160.5v-615h-199zM395 537q0 -158 99.5 -259.5t246.5 -101.5q143 0 242.5 102t99.5 259v4q0 156 -99 258 t-243 102q-145 0 -245.5 -102t-100.5 -258v-4z" />
<glyph unicode="&#xff;" horiz-adv-x="1245" d="M92 -227l133 112q51 -86 145.5 -134t198.5 -48q138 0 227 86.5t89 224.5v119q-102 -121 -281 -121q-75 0 -142 16.5t-129 55.5t-106.5 98t-71 150t-26.5 205v538h207v-514q0 -103 23.5 -175.5t64.5 -110t86 -53t100 -15.5q60 0 106 15.5t86 53t61.5 109t21.5 174.5v516 h207v-1034q0 -225 -143.5 -370.5t-377.5 -145.5q-155 0 -286.5 67t-192.5 181zM317 1395q0 42 30.5 73t74.5 31t74 -31t30 -73q0 -43 -30.5 -74t-73.5 -31t-74 31t-31 74zM688 1395q0 42 30.5 73t74.5 31t74 -31t30 -73q0 -43 -30.5 -74t-73.5 -31t-74 31t-31 74z" />
<glyph unicode="&#x152;" horiz-adv-x="2590" d="M121 743v2q0 158 53 298.5t148.5 245.5t237 166t308.5 61q163 0 298.5 -54t234.5 -153v184h1022v-199h-801v-374h739v-197h-739v-524h827v-199h-1048v184q-99 -99 -234.5 -153t-298.5 -54q-167 0 -308 60t-236.5 163t-149 243.5t-53.5 299.5zM350 741q0 -155 62.5 -280.5 t182 -200t275.5 -74.5q163 0 284.5 74.5t182 198.5t60.5 280v9q0 113 -36.5 213t-103.5 175.5t-168.5 119.5t-224.5 44q-154 0 -272.5 -74.5t-180 -199t-61.5 -276.5v-9z" />
<glyph unicode="&#x153;" horiz-adv-x="2215" d="M123 535v2q0 239 161 400t400 161q139 0 258 -60t197 -164q75 104 189 164t247 60q127 0 230 -47t166.5 -124.5t97.5 -171.5t34 -194v-69h-848q14 -150 107 -241t235 -91q101 0 187 50.5t131 131.5l160 -86q-69 -128 -194.5 -203.5t-295.5 -75.5q-137 0 -254.5 59.5 t-193.5 164.5q-76 -105 -194.5 -164.5t-258.5 -59.5q-239 0 -400 159t-161 399zM334 535q0 -155 103.5 -257t248.5 -102q148 0 247 101t99 258v4q0 156 -101 258t-249 102q-147 0 -247.5 -101.5t-100.5 -258.5v-4zM1262 629h624q-2 52 -22.5 101.5t-57 92.5t-96 69 t-133.5 26q-121 0 -205 -81.5t-110 -207.5z" />
<glyph unicode="&#x178;" horiz-adv-x="1368" d="M82 1483h240l364 -705l361 705h239l-489 -934v-549h-222v549zM389 1815q0 36 26.5 64t65.5 28q37 0 63.5 -28t26.5 -64q0 -38 -26.5 -65.5t-63.5 -27.5q-38 0 -65 27.5t-27 65.5zM801 1815q0 36 26.5 64t65.5 28q37 0 63.5 -28t26.5 -64q0 -38 -26.5 -65.5t-63.5 -27.5 q-38 0 -65 27.5t-27 65.5z" />
<glyph unicode="&#x2c6;" horiz-adv-x="1105" d="M293 1323l196 219h138l200 -219h-139l-131 139l-125 -139h-139z" />
<glyph unicode="&#x2dc;" horiz-adv-x="1105" d="M250 1270q-17 87 37.5 153t140.5 66q33 0 72 -18t68.5 -39.5t63.5 -39.5t58 -18q43 0 68 28.5t14 78.5h96q15 -89 -39.5 -151t-140.5 -62q-42 0 -94.5 28t-100 56t-75.5 28q-41 0 -62.5 -30t-17.5 -82z" />
<glyph unicode="&#x2000;" horiz-adv-x="999" />
<glyph unicode="&#x2001;" horiz-adv-x="1999" />
<glyph unicode="&#x2002;" horiz-adv-x="999" />
<glyph unicode="&#x2003;" horiz-adv-x="1999" />
<glyph unicode="&#x2004;" horiz-adv-x="666" />
<glyph unicode="&#x2005;" horiz-adv-x="499" />
<glyph unicode="&#x2006;" horiz-adv-x="333" />
<glyph unicode="&#x2007;" horiz-adv-x="333" />
<glyph unicode="&#x2008;" horiz-adv-x="249" />
<glyph unicode="&#x2009;" horiz-adv-x="399" />
<glyph unicode="&#x200a;" horiz-adv-x="111" />
<glyph unicode="&#x2010;" horiz-adv-x="915" d="M150 621v200h614v-200h-614z" />
<glyph unicode="&#x2011;" horiz-adv-x="915" d="M150 621v200h614v-200h-614z" />
<glyph unicode="&#x2012;" horiz-adv-x="915" d="M150 621v200h614v-200h-614z" />
<glyph unicode="&#x2013;" horiz-adv-x="1183" d="M150 623v198h886v-198h-886z" />
<glyph unicode="&#x2014;" horiz-adv-x="1912" d="M186 623v198h1540v-198h-1540z" />
<glyph unicode="&#x2018;" horiz-adv-x="507" d="M145 1094v176q0 228 152 270l39 -74q-90 -31 -90 -145h102v-227h-203z" />
<glyph unicode="&#x2019;" horiz-adv-x="481" d="M145 1286v227h203v-176q0 -229 -151 -270l-39 74q88 32 88 145h-101z" />
<glyph unicode="&#x201a;" horiz-adv-x="491" d="M133 -4v256h227v-197q0 -257 -170 -301l-43 86q99 32 99 156h-113z" />
<glyph unicode="&#x201c;" horiz-adv-x="833" d="M133 1073v197q0 255 170 299l41 -86q-50 -14 -74 -56.5t-24 -97.5h114v-256h-227zM459 1073v197q0 255 170 299l43 -86q-51 -14 -75 -56t-24 -98h113v-256h-227z" />
<glyph unicode="&#x201d;" horiz-adv-x="819" d="M113 1315v256h227v-197q0 -257 -170 -301l-43 86q98 31 98 156h-112zM438 1315v256h228v-197q0 -257 -170 -301l-41 86q50 16 74 58t24 98h-115z" />
<glyph unicode="&#x201e;" horiz-adv-x="823" d="M133 -78v256h227v-196q0 -257 -170 -301l-43 86q99 32 99 155h-113zM465 -78v256h227v-196q0 -257 -170 -301l-43 86q99 32 99 155h-113z" />
<glyph unicode="&#x2022;" horiz-adv-x="962" d="M209 725v4q0 112 80 191t194 79t194.5 -79t80.5 -191v-4q0 -112 -80.5 -191t-194.5 -79t-194 79t-80 191z" />
<glyph unicode="&#x2026;" d="M61 127q0 51 37 89t90 38q52 0 88.5 -38.5t36.5 -88.5q0 -52 -37 -89.5t-88 -37.5q-52 0 -89.5 37t-37.5 90zM539 127q0 51 37 89t90 38q52 0 88.5 -38.5t36.5 -88.5q0 -52 -37 -89.5t-88 -37.5q-52 0 -89.5 37t-37.5 90zM1016 127q0 51 36 89t89 38t89 -38t36 -89 q0 -53 -36.5 -90t-88.5 -37t-88.5 37t-36.5 90z" />
<glyph unicode="&#x202f;" horiz-adv-x="399" />
<glyph unicode="&#x2039;" horiz-adv-x="778" d="M113 512v70l391 456l145 -118l-309 -373l309 -373l-145 -119z" />
<glyph unicode="&#x203a;" horiz-adv-x="778" d="M129 174l309 373l-309 373l145 118l392 -456v-70l-392 -457z" />
<glyph unicode="&#x205f;" horiz-adv-x="499" />
<glyph unicode="&#x20ac;" horiz-adv-x="1622" d="M117 518v125h162q-8 126 2 191h-164v127h178q35 159 113.5 279t207 191.5t291.5 71.5q234 0 380.5 -109.5t205.5 -293.5l-217 -60q-30 63 -61 107.5t-74.5 83t-102.5 57.5t-133 19q-135 0 -231.5 -94.5t-134.5 -251.5h450v-127h-469q-11 -81 -2 -191h471v-125h-448 q37 -158 136 -250t238 -92q74 0 132.5 19.5t101 58.5t71.5 80.5t60 101.5l211 -49q-65 -184 -210 -297t-368 -113q-246 0 -406.5 148t-211.5 393h-178z" />
<glyph unicode="&#x2122;" horiz-adv-x="1685" d="M92 1303v192h594v-192h-201v-537h-192v537h-201zM788 766v729h152l234 -342l235 342h152v-729h-162v475l-225 -301l-224 299v-473h-162z" />
<glyph unicode="&#x25fc;" horiz-adv-x="1075" d="M0 0v1075h1075v-1075h-1075z" />
</font>
</defs>
</svg>
