<!-- Generator: Adobe Illustrator 19.2.1, SVG Export Plug-In  -->
<svg version="1.1"
	 xmlns="http://www.w3.org/2000/svg" xmlns:xlink="http://www.w3.org/1999/xlink" xmlns:a="http://ns.adobe.com/AdobeSVGViewerExtensions/3.0/"
	 x="0px" y="0px" width="14.9px" height="44.8px" viewBox="0 0 14.9 44.8" style="enable-background:new 0 0 14.9 44.8;"
	 xml:space="preserve">
<style type="text/css">
	.st0{fill:#D40000;}
</style>
<defs>
</defs>
<path id="path9766-0-8_2_" class="st0" d="M7.5,44.8c0,0-1.8-2.6-4.2-5.6c-1.6-2-2.9-4.2-3-6.1c-0.1-2.1,1.2-4.3,3.5-4.4
	s3.3,1.6,3.7,3.1c0.4-1.4,1.3-3.2,3.7-3.1c2.3,0.1,3.6,2.3,3.5,4.4c-0.1,1.9-1.4,4-3,6.1C9.3,42.2,7.5,44.8,7.5,44.8z"/>
<path id="path15-34-0-0-4_2_" class="st0" d="M0,26.2l0.1-1.6c0.4-5,1.5-6.7,7.6-12c3-2.5,4-3.8,4.1-5.3C12.1,4,9.1,2.9,7.2,2.9
	c-2.6,0-5.5,1.5-4.1,5.2L0.2,9c-0.6-3.4,0-6.6,2.7-8C6.5-0.8,11-0.1,13.3,2.8c1.6,1.9,1.9,4.6,1.1,6.7c-2.5,5.4-10.8,7.7-11.4,14
	h9.2V20h2.7v6.4L0,26.2L0,26.2z"/>
</svg>
