<!-- Generator: Adobe Illustrator 19.2.1, SVG Export Plug-In  -->
<svg version="1.1"
	 xmlns="http://www.w3.org/2000/svg" xmlns:xlink="http://www.w3.org/1999/xlink" xmlns:a="http://ns.adobe.com/AdobeSVGViewerExtensions/3.0/"
	 x="0px" y="0px" width="16.5px" height="44.7px" viewBox="0 0 16.5 44.7" style="enable-background:new 0 0 16.5 44.7;"
	 xml:space="preserve">
<defs>
</defs>
<path id="path147-6-9-8-7-4-5-62-2-3-8_2_" d="M8.3,28.8c-3.1,0.1-4.5,3.7-2.2,6.6c0.3,0.4,0.4,0.7-0.2,0.3
	c-1.6-1.1-4.6-0.4-4.7,2.9c-0.2,4.1,5.3,5.3,6.3,0.9c0.1-0.5,0.4-0.4,0.3,0.2c-0.1,1.8-0.6,3.4-1.4,5c1.2,0,2.5,0,3.7,0
	c-0.7-1.6-1.3-3.3-1.4-5C8.6,39,9,39,9,39.5c1,4.4,6.5,3.2,6.3-0.9c-0.2-3.3-3.1-4-4.7-2.9c-0.6,0.4-0.6,0.2-0.2-0.3
	C12.8,32.5,11.4,28.8,8.3,28.8L8.3,28.8L8.3,28.8z"/>
<path id="path21-39-8-1_2_" d="M0,19.5h2.6c0.5,1.6,1.6,3.2,3.1,3.7c4.2,1,6.9-1.4,7.7-4.1c1.1-3.3,0-8-2.9-9.7
	C8.1,8,4.6,9.2,3,12.1L1.2,11l1-11H14v2.6H4.3L4.1,7.2c2.1-1.5,5.2-1.5,7.3-0.4c3.9,1.9,5.7,6.2,4.9,11.3c-1,5-3.4,7.9-8.6,8.3
	C2,26.3,0,22.3,0,19.5L0,19.5L0,19.5z"/>
</svg>
