<!-- Generator: Adobe Illustrator 19.2.1, SVG Export Plug-In  -->
<svg version="1.1"
	 xmlns="http://www.w3.org/2000/svg" xmlns:xlink="http://www.w3.org/1999/xlink" xmlns:a="http://ns.adobe.com/AdobeSVGViewerExtensions/3.0/"
	 x="0px" y="0px" width="15.9px" height="45px" viewBox="0 0 15.9 45" style="enable-background:new 0 0 15.9 45;"
	 xml:space="preserve">
<defs>
</defs>
<path id="path7431-0-1_2_" d="M8,29c-3.4,4.4-7.1,6.9-7.2,10.3c0,1.1,0.6,3,2.7,3.3c1.4,0.2,3.2-0.8,3.3-2.7c0-0.4,0.5-0.4,0.5,0.2
	c-0.1,1.6-0.6,3.4-1.6,4.9c1.5,0,3,0,4.5,0c-0.9-1.5-1.5-3.3-1.6-4.9c0-0.5,0.5-0.6,0.5-0.2c0,2,1.9,3,3.3,2.7
	c2.1-0.4,2.8-2.2,2.7-3.3C15.1,35.8,11.4,33.3,8,29z"/>
<path id="path37-0-2-9_2_" d="M2.2,17.7H0v-3h2.2c0,0,0-1.6,0.1-4.5c0.1-6.1,0.3-7,2-8.7c3.5-3.3,9.3-0.6,9.2,4.4
	c-0.1,7,0,13.7-0.2,14.6c-0.4,1.7-0.4,1.8-0.3,2.1c0.3,0.6,2.9,0.9,2.9,0.7v3c-2,0.2-2.8,0-4.4-1.2c-1,1-4,1.9-6.5,0.8
	C3.2,25.1,1.8,22.8,2.2,17.7L2.2,17.7L2.2,17.7z M9.6,23c-1.1-1.6-2.9-3.7-4.6-4.5c-0.1,1.8,0,3.3,0.7,4.1C6.6,23.9,8.3,24.2,9.6,23
	L9.6,23L9.6,23z M10.5,5.7C9.7,3.4,7.6,2.6,6.1,4.1C5.2,5,5,5.9,5,11c0,3.1,0,4.5,0,4.5c3,1,5.7,4.4,5.7,4.4l0.1-9.5
	C10.8,8.7,10.7,7.2,10.5,5.7L10.5,5.7L10.5,5.7z"/>
</svg>
