<?xml version="1.0" encoding="utf-8"?>
<!-- Generator: Adobe Illustrator 19.2.1, SVG Export Plug-In . SVG Version: 6.00 Build 0)  -->
<svg version="1.1" id="Layer_1" xmlns="http://www.w3.org/2000/svg" xmlns:xlink="http://www.w3.org/1999/xlink" x="0px" y="0px"
	 viewBox="0 0 166.3 226.6" style="enable-background:new 0 0 166.3 226.6;" xml:space="preserve">
<style type="text/css">
	.st0{fill:#D40000;}
</style>
<path id="path6790-5_1_" class="st0" d="M8,44.8c-1.7-2.9-3.5-5.6-5.8-8c2.3-2.4,4.1-5.1,5.8-8c1.7,2.9,3.5,5.6,5.8,8
	C11.5,39.1,9.7,41.9,8,44.8z"/>
<path id="path23-5-3-5-5_1_" class="st0" d="M0.2,18.2c-0.3-2.2-0.3-8-0.1-9.7c0.8-5.2,2.8-7.6,6.1-8.4c3.2-0.8,7.8,0.1,8.8,4.4
	l-2.7,0.1c-1.4-2.8-5.1-2.1-7.1-0.8c-1.7,1-2.4,5.3-2.1,5.5c0,0,3.1-2.3,5.6-2.2c5.3,0.6,7.5,5.1,7.3,9.5c-0.2,5.2-1.8,9.4-7.4,9.7
	C3.2,26.2,0.8,23.2,0.2,18.2L0.2,18.2L0.2,18.2z M13.3,16.9c0-3.6-1.6-6.3-4.7-6.6c-3.1-0.3-6.2,2.7-6,6.4c0.2,3.7,1.7,6.8,5.4,6.8
	C12,23.5,13.3,19.4,13.3,16.9L13.3,16.9z"/>
</svg>
