<?xml version="1.0" encoding="utf-8"?>
<!-- Generator: Adobe Illustrator 19.2.1, SVG Export Plug-In . SVG Version: 6.00 Build 0)  -->
<svg version="1.1" id="Layer_1" xmlns="http://www.w3.org/2000/svg" xmlns:xlink="http://www.w3.org/1999/xlink" x="0px" y="0px"
	 viewBox="0 0 167.3 226.6" style="enable-background:new 0 0 167.3 226.6;" xml:space="preserve">
<style type="text/css">
	.st0{fill:#D40000;}
</style>
<path id="path12538_1_" class="st0" d="M8.9,44.8c-1.7-2.9-3.5-5.6-5.8-8c2.3-2.4,4.1-5.1,5.8-8c1.7,2.9,3.5,5.6,5.8,8
	C12.3,39.1,10.5,41.9,8.9,44.8z"/>
<path id="path12544_1_" class="st0" d="M9.4,23.5h2.7l-3.9-9.7l-3,4.1v5.6h2.1v2.9H0v-2.9h2.4V2.5H0V0h7.5v2.6H5.4v10.2l6.5-10.3
	H9.5V0h8v2.5h-2.1L10,10.9l5.3,12.5h2.3v2.9H9.4V23.5L9.4,23.5z"/>
</svg>
