<?xml version="1.0" encoding="utf-8"?>
<!-- Generator: Adobe Illustrator 19.2.1, SVG Export Plug-In . SVG Version: 6.00 Build 0)  -->
<svg version="1.1" id="Layer_1" xmlns="http://www.w3.org/2000/svg" xmlns:xlink="http://www.w3.org/1999/xlink" x="0px" y="0px"
	 viewBox="0 0 167.4 226.6" style="enable-background:new 0 0 167.4 226.6;" xml:space="preserve">
<style type="text/css">
	.st0{fill:#D40000;}
</style>
<g id="g9820-5-5_1_" transform="translate(1011.0782,-1064)">
</g>
<g id="g9826-3-1_1_" transform="translate(1037.6698,-1083.9055)">
</g>
<path id="path9834-5-2_1_" class="st0" d="M8.5,44.8c0,0-1.8-2.6-4.2-5.6c-1.6-2-2.9-4.2-3-6.1c-0.1-2.1,1.2-4.3,3.5-4.4
	s3.3,1.6,3.7,3.1c0.4-1.4,1.3-3.2,3.7-3.1c2.3,0.1,3.6,2.3,3.5,4.4c-0.1,1.9-1.4,4-3,6.1C10.3,42.2,8.5,44.8,8.5,44.8z"/>
<path id="path17-2-9-8-4_1_" class="st0" d="M0,20.5l2-1.5c1.8,2.9,3.7,4.8,6.8,4.4c4.5-0.3,6.4-5.1,5.5-8.6
	c-0.9-3.2-4.7-4.8-7.6-3.1c-0.7,0.4-1.4,0.7-1.5,0.7c-0.3,0-1-1.4-0.9-1.8c2-2.9,6.9-8,6.9-8H3.5v3.4H0.7V0h14.6v2.1
	c0,0-4,4.1-5.3,6.4c3.2,0.1,5.8,2.2,6.8,5.4c0.5,1.7,0.3,5.6-0.4,7.3c-1.2,2.8-4.5,5.1-7.4,5.2C3.9,26.6,1.4,23.1,0,20.5L0,20.5
	L0,20.5z"/>
</svg>
