<?xml version="1.0" encoding="utf-8"?>
<!-- Generator: Adobe Illustrator 19.2.1, SVG Export Plug-In . SVG Version: 6.00 Build 0)  -->
<svg version="1.1" id="Layer_1" xmlns="http://www.w3.org/2000/svg" xmlns:xlink="http://www.w3.org/1999/xlink" x="0px" y="0px"
	 viewBox="0 0 166.8 226.6" style="enable-background:new 0 0 166.8 226.6;" xml:space="preserve">
<style type="text/css">
	.st0{fill:#D40000;}
</style>
<g id="g9888-2-1_1_" transform="translate(1296.9243,-1064)">
</g>
<g id="g9894-0-0_1_" transform="translate(1323.5159,-1083.9055)">
</g>
<path id="path9902-6-7_1_" class="st0" d="M8.2,44.8c0,0-1.8-2.6-4.2-5.6c-1.6-2-2.9-4.2-3-6.1c-0.1-2.1,1.2-4.3,3.5-4.4
	s3.3,1.6,3.7,3.1c0.4-1.4,1.3-3.2,3.7-3.1c2.3,0.1,3.6,2.3,3.5,4.4c-0.1,1.9-1.4,4-3,6.1C10,42.2,8.2,44.8,8.2,44.8z"/>
<path id="path19-3-8-2-9_1_" class="st0" d="M8.4,26.3V24h2.1v-3.8H0v-2.7L11.4,0.1h1.9v17.4h3.2v2.7h-3.2L13.2,24h1.7v2.3H8.4
	L8.4,26.3z M10.5,6.4L3.3,17.5h7.2C10.5,17.5,10.5,6.4,10.5,6.4z"/>
</svg>
