<?xml version="1.0" encoding="utf-8"?>
<!-- Generator: Adobe Illustrator 19.2.1, SVG Export Plug-In . SVG Version: 6.00 Build 0)  -->
<svg version="1.1" id="Layer_1" xmlns="http://www.w3.org/2000/svg" xmlns:xlink="http://www.w3.org/1999/xlink" x="0px" y="0px"
	 viewBox="0 0 166.3 226.6" style="enable-background:new 0 0 166.3 226.6;" xml:space="preserve">
<style type="text/css">
	.st0{fill:#D40000;}
</style>
<g id="g10024-8-8_1_" transform="translate(1868.6166,-1064)">
</g>
<g id="g10030-0-6_1_" transform="translate(1895.2082,-1083.9055)">
</g>
<path id="path10038-5-0_1_" class="st0" d="M8,44.8c0,0-1.8-2.6-4.2-5.6c-1.6-2-2.9-4.2-3-6.1C0.7,31,2,28.8,4.3,28.7
	s3.3,1.6,3.7,3.1c0.4-1.4,1.3-3.2,3.7-3.1c2.3,0.1,3.6,2.3,3.5,4.4c-0.1,1.9-1.4,4-3,6.1C9.7,42.2,8,44.8,8,44.8z"/>
<path id="path23-5-2-7-3_1_" class="st0" d="M0.2,18.2c-0.3-2.2-0.3-8-0.1-9.7C0.9,3.4,2.9,1,6.2,0.2C9.4-0.6,14,0.3,15,4.6
	l-2.7,0.1c-1.5-2.9-5.2-2.2-7.2-0.9C3.4,4.8,2.7,9.1,3,9.3c0,0,3.1-2.3,5.6-2.2c5.3,0.6,7.5,5.1,7.3,9.5c-0.2,5.2-1.8,9.4-7.4,9.7
	C3.2,26.1,0.7,23.2,0.2,18.2L0.2,18.2L0.2,18.2z M13.4,16.9c0-3.6-1.6-6.3-4.7-6.6c-3.1-0.3-6.2,2.7-6,6.4c0.2,3.7,1.7,6.8,5.4,6.8
	C12.1,23.4,13.4,19.4,13.4,16.9L13.4,16.9L13.4,16.9z"/>
</svg>
