<?xml version="1.0" encoding="utf-8"?>
<!-- Generator: Adobe Illustrator 19.2.1, SVG Export Plug-In . SVG Version: 6.00 Build 0)  -->
<svg version="1.1" id="Layer_1" xmlns="http://www.w3.org/2000/svg" xmlns:xlink="http://www.w3.org/1999/xlink" x="0px" y="0px"
	 viewBox="0 0 166.5 226.6" style="enable-background:new 0 0 166.5 226.6;" xml:space="preserve">
<style type="text/css">
	.st0{fill:#D40000;}
</style>
<g id="g10092-4-5_1_" transform="translate(2154.4627,-1064)">
</g>
<g id="g10098-2-4_1_" transform="translate(2181.0543,-1083.9055)">
</g>
<path id="path10106-2-3_1_" class="st0" d="M8.1,44.8c0,0-1.8-2.6-4.2-5.6c-1.6-2-2.9-4.2-3-6.1c-0.1-2.1,1.2-4.3,3.5-4.4
	s3.3,1.6,3.7,3.1c0.4-1.4,1.3-3.2,3.7-3.1c2.3,0.1,3.6,2.3,3.5,4.4c-0.1,1.9-1.4,4-3,6.1C9.9,42.2,8.1,44.8,8.1,44.8z"/>
<path id="path25-43-2-3-9_1_" class="st0" d="M4,26.3c1.7-9.2,3.6-16,8.4-23.4H2.6v3.2H0V0h14.3l1.8,2.8c-5.2,5.6-9.9,23.7-9,23.4
	L4,26.3L4,26.3z"/>
</svg>
