<!-- Generator: Adobe Illustrator 19.2.1, SVG Export Plug-In  -->
<svg version="1.1"
	 xmlns="http://www.w3.org/2000/svg" xmlns:xlink="http://www.w3.org/1999/xlink" xmlns:a="http://ns.adobe.com/AdobeSVGViewerExtensions/3.0/"
	 x="0px" y="0px" width="17px" height="44.7px" viewBox="0 0 17 44.7" style="enable-background:new 0 0 17 44.7;"
	 xml:space="preserve">
<style type="text/css">
	.st0{fill:#D40000;}
</style>
<defs>
</defs>
<path id="path10174-9-0_2_" class="st0" d="M8.5,44.7c0,0-1.8-2.6-4.2-5.6c-1.6-2-2.9-4.2-3-6.1c-0.1-2.1,1.2-4.3,3.5-4.4
	s3.3,1.6,3.7,3.1c0.4-1.4,1.3-3.2,3.7-3.1c2.3,0.1,3.6,2.3,3.5,4.4c-0.1,1.9-1.4,4-3,6.1C10.3,42.1,8.5,44.7,8.5,44.7z"/>
<path id="path27-00-0-7-4_2_" class="st0" d="M0,18.5c0.1-3.5,1.4-4.9,3.9-6.7c-2-1.5-2.9-3.6-2.7-5.4C1.6,2.1,4.9-0.1,8.6,0
	s6.9,3,7.2,6.3c0.2,2.8-0.6,4.1-2.6,5.6c2.3,2,3.8,3.3,3.8,6.8c-0.1,3.5-3,7.6-8.2,7.8C3.7,26.3-0.1,22,0,18.5L0,18.5L0,18.5z
	 M14.4,18.5c0.2-3.2-2.6-5.4-5.8-5.4c-3.1,0-5.9,2.6-5.9,5.5c0,3.1,3.6,4.8,6,4.8C11.5,23.4,14.2,21.2,14.4,18.5L14.4,18.5
	L14.4,18.5z M13.4,7.1c0.1-2.7-2.4-4.6-5-4.6C6.1,2.6,3.7,4.3,3.7,6.6c0,2.8,2.8,4.2,5.1,4.3C10.9,10.9,13.3,9.1,13.4,7.1L13.4,7.1
	L13.4,7.1z"/>
</svg>
