<!-- Generator: Adobe Illustrator 19.2.1, SVG Export Plug-In  -->
<svg version="1.1"
	 xmlns="http://www.w3.org/2000/svg" xmlns:xlink="http://www.w3.org/1999/xlink" xmlns:a="http://ns.adobe.com/AdobeSVGViewerExtensions/3.0/"
	 x="0px" y="0px" width="17.5px" height="43.8px" viewBox="0 0 17.5 43.8" style="enable-background:new 0 0 17.5 43.8;"
	 xml:space="preserve">
<style type="text/css">
	.st0{fill:#D40000;}
</style>
<defs>
</defs>
<path id="path163-0-2-7-7-1-8-7-00-1-2_2_" class="st0" d="M7.5,43.8c0,0-1.8-2.5-4.2-5.5c-1.6-2-2.9-4.2-3-6
	c-0.1-2.1,1.2-4.3,3.5-4.4s3.3,1.6,3.7,3.1c0.4-1.4,1.3-3.2,3.7-3.1c2.3,0.1,3.6,2.2,3.5,4.4c-0.1,1.9-1.4,4-3,6
	C9.3,41.3,7.5,43.8,7.5,43.8z"/>
<path id="path39-51-8-0-0_2_" class="st0" d="M9.4,23.5H12l-3.9-9.7l-3,4.1v5.6h2.1v2.9H0v-2.9h2.4V2.6H0V0h7.5v2.6H5.4v10.2
	l6.5-10.3H9.6V0h7.9v2.5h-2.1L10,11l5.2,12.5h2.3v2.9H9.3L9.4,23.5L9.4,23.5z"/>
</svg>
