<?xml version="1.0" encoding="utf-8"?>
<!-- Generator: Adobe Illustrator 19.2.1, SVG Export Plug-In . SVG Version: 6.00 Build 0)  -->
<svg version="1.1" id="Layer_1" xmlns="http://www.w3.org/2000/svg" xmlns:xlink="http://www.w3.org/1999/xlink" x="0px" y="0px"
	 viewBox="0 0 166.8 226.6" style="enable-background:new 0 0 166.8 226.6;" xml:space="preserve">
<path id="path147-6-9-8-7-4-5-62-79-3_1_" d="M8.2,28.8c-3.1,0-4.5,3.7-2.2,6.6c0.3,0.4,0.4,0.7-0.2,0.3c-1.6-1.1-4.6-0.4-4.7,2.9
	c-0.2,4.1,5.3,5.3,6.3,0.9c0.1-0.5,0.4-0.4,0.3,0.2c-0.1,1.8-0.6,3.4-1.4,5c1.2,0,2.5,0,3.7,0c-0.7-1.6-1.3-3.3-1.4-5
	C8.6,39,9,39,9,39.5c1,4.4,6.5,3.2,6.3-0.9c-0.2-3.3-3.1-4-4.7-2.9c-0.6,0.3-0.5,0.1-0.2-0.3C12.7,32.5,11.3,28.8,8.2,28.8L8.2,28.8
	L8.2,28.8z"/>
<path id="path19-0-7-3_1_" d="M8.4,26.3V24h2.1v-3.8H0v-2.8L11.3-0.1h1.9v17.5h3.2v2.7h-3.2l-0.1,3.8h1.8v2.3L8.4,26.3L8.4,26.3z
	 M10.5,6.3L3.3,17.4h7.2V6.3z"/>
</svg>
