<?xml version="1.0" encoding="utf-8"?>
<!-- Generator: Adobe Illustrator 19.2.1, SVG Export Plug-In . SVG Version: 6.00 Build 0)  -->
<svg version="1.1" id="Layer_1" xmlns="http://www.w3.org/2000/svg" xmlns:xlink="http://www.w3.org/1999/xlink" x="0px" y="0px"
	 viewBox="0 0 165.3 226.6" style="enable-background:new 0 0 165.3 226.6;" xml:space="preserve">
<path id="path6748-4-0_1_" d="M7.5,28.9c-3.4,4.4-7.1,6.9-7.2,10.3c0,1.1,0.7,3,2.8,3.4c1.3,0.2,3.2-0.8,3.2-2.8
	c0-0.4,0.5-0.4,0.5,0.2c-0.1,1.6-0.6,3.4-1.6,4.9c1.5,0,3,0,4.5,0c-0.9-1.5-1.5-3.3-1.6-4.9c0-0.5,0.5-0.6,0.5-0.2
	c0,2,1.9,3,3.3,2.8c2.1-0.4,2.8-2.2,2.8-3.4C14.5,35.7,11,33.2,7.5,28.9L7.5,28.9z"/>
<path id="path15-3-8-9_1_" d="M0,26.3l0.1-1.6c0.4-5,1.5-6.7,7.6-12c3-2.5,4-3.8,4.1-5.3C12.2,4,9.1,2.9,7.2,2.9
	c-2.6,0-5.5,1.5-4.1,5.2L0.2,9c-0.6-3.4,0-6.6,2.7-8C6.5-0.7,11.1,0,13.4,2.8c1.6,1.9,1.9,4.6,1.1,6.7C12,14.9,3.7,17.2,3,23.5h9.2
	V20h2.7v6.4L0,26.3L0,26.3z"/>
</svg>
