<?xml version="1.0" encoding="utf-8"?>
<!-- Generator: Adobe Illustrator 19.2.1, SVG Export Plug-In . SVG Version: 6.00 Build 0)  -->
<svg version="1.1" id="Layer_1" xmlns="http://www.w3.org/2000/svg" xmlns:xlink="http://www.w3.org/1999/xlink" x="0px" y="0px"
	 viewBox="0 0 167.4 226.6" style="enable-background:new 0 0 167.4 226.6;" xml:space="preserve">
<path id="path6816-2-4_1_" d="M8.6,28.9c-3.4,4.4-7.1,6.9-7.2,10.3c0,1.1,0.7,3,2.8,3.4c1.4,0.2,3.2-0.8,3.3-2.8
	c0-0.4,0.5-0.4,0.5,0.2c-0.1,1.6-0.6,3.4-1.6,4.9c1.5,0,3,0,4.5,0c-0.9-1.5-1.5-3.3-1.6-4.9c0-0.5,0.5-0.6,0.5-0.2
	c0,2,1.9,3,3.3,2.8c2.1-0.4,2.8-2.2,2.8-3.4C15.6,35.7,12,33.2,8.6,28.9L8.6,28.9z"/>
<path id="path17-9-11-4_1_" d="M0,20.6l2-1.5c1.8,2.9,3.7,4.8,6.8,4.4c4.5-0.3,6.4-5.1,5.5-8.6c-1-3.2-4.7-4.8-7.7-3.1
	c-0.7,0.4-1.4,0.7-1.5,0.7c-0.3,0-1-1.4-0.9-1.8c2-2.9,6.9-8,6.9-8H3.5v3.4H0.6V0.1h14.7v2.1c0,0-4,4.1-5.3,6.4
	c3.2,0.1,5.8,2.2,6.8,5.4c0.5,1.7,0.3,5.6-0.4,7.3c-1.2,2.8-4.5,5.1-7.4,5.2C4,26.7,1.3,23.1,0,20.6L0,20.6L0,20.6z"/>
</svg>
