<?xml version="1.0" encoding="utf-8"?>
<!-- Generator: Adobe Illustrator 19.2.1, SVG Export Plug-In . SVG Version: 6.00 Build 0)  -->
<svg version="1.1" id="Layer_1" xmlns="http://www.w3.org/2000/svg" xmlns:xlink="http://www.w3.org/1999/xlink" x="0px" y="0px"
	 viewBox="0 0 166.8 226.6" style="enable-background:new 0 0 166.8 226.6;" xml:space="preserve">
<path id="path6884-6-5_1_" d="M8.2,28.9C4.8,33.3,1.1,35.7,1,39.1c0,1.1,0.7,3,2.8,3.4c1.4,0.2,3.2-0.8,3.3-2.8
	c0-0.4,0.5-0.4,0.5,0.2C7.5,41.5,7,43.3,6,44.8c1.5,0,3,0,4.5,0c-0.9-1.5-1.5-3.3-1.6-4.9c0-0.5,0.5-0.6,0.5-0.2c0,2,1.9,3,3.3,2.8
	c2.1-0.4,2.8-2.2,2.8-3.4C15.3,35.7,11.7,33.2,8.2,28.9L8.2,28.9z"/>
<path id="path19-08-0-9_1_" d="M8.4,26.3V24h2.1v-3.8H0v-2.7L11.4,0.1h1.9v17.4h3.2v2.7h-3.2L13.2,24h1.7v2.3L8.4,26.3L8.4,26.3z
	 M10.5,6.4L3.3,17.5h7.2V6.4z"/>
</svg>
