<?xml version="1.0" encoding="utf-8"?>
<!-- Generator: Adobe Illustrator 19.2.1, SVG Export Plug-In . SVG Version: 6.00 Build 0)  -->
<svg version="1.1" id="Layer_1" xmlns="http://www.w3.org/2000/svg" xmlns:xlink="http://www.w3.org/1999/xlink" x="0px" y="0px"
	 viewBox="0 0 166.3 226.6" style="enable-background:new 0 0 166.3 226.6;" xml:space="preserve">
<path id="path7020-0-8_1_" d="M8,28.9c-3.4,4.4-7.1,6.9-7.2,10.3c0,1.1,0.7,3,2.8,3.4c1.4,0.2,3.2-0.8,3.3-2.8
	c0-0.4,0.5-0.4,0.5,0.2c-0.1,1.6-0.6,3.4-1.6,4.9c1.5,0,3,0,4.5,0c-0.9-1.5-1.5-3.3-1.6-4.9c0-0.5,0.5-0.6,0.5-0.2
	c0,2,1.9,3,3.3,2.8c2.1-0.4,2.8-2.2,2.8-3.4C15.1,35.7,11.4,33.2,8,28.9L8,28.9z"/>
<path id="path23-1-9-8_1_" d="M0.2,18.2c-0.3-2.2-0.3-8-0.1-9.7C0.9,3.3,2.9,1,6.2,0.2C9.4-0.6,14,0.3,15,4.5l-2.7,0.1
	c-1.5-2.9-5.2-2.2-7.2-0.9C3.4,4.7,2.7,9,3,9.2c0,0,3.1-2.3,5.6-2.2c5.3,0.6,7.5,5.1,7.3,9.5c-0.2,5.2-1.8,9.4-7.4,9.7
	C3.2,26.1,0.7,23.2,0.2,18.2L0.2,18.2L0.2,18.2z M13.4,16.8c0-3.6-1.6-6.3-4.7-6.6c-3.1-0.3-6.2,2.7-6,6.4s1.7,6.8,5.4,6.8
	C12.1,23.4,13.4,19.4,13.4,16.8L13.4,16.8L13.4,16.8z"/>
</svg>
