<?xml version="1.0" encoding="utf-8"?>
<!-- Generator: Adobe Illustrator 19.2.1, SVG Export Plug-In . SVG Version: 6.00 Build 0)  -->
<svg version="1.1" id="Layer_1" xmlns="http://www.w3.org/2000/svg" xmlns:xlink="http://www.w3.org/1999/xlink" x="0px" y="0px"
	 viewBox="0 0 166.5 226.6" style="enable-background:new 0 0 166.5 226.6;" xml:space="preserve">
<path id="path7088-9-3_1_" d="M8.1,28.9C4.7,33.3,1,35.7,0.9,39.1c0,1.1,0.7,3,2.8,3.4c1.4,0.2,3.2-0.8,3.3-2.8
	c0-0.4,0.5-0.4,0.5,0.2c-0.1,1.6-0.6,3.4-1.6,4.9c1.5,0,3,0,4.5,0c-0.9-1.5-1.5-3.3-1.6-4.9c0-0.5,0.5-0.6,0.5-0.2
	c0,2,1.9,3,3.3,2.8c2.1-0.4,2.8-2.2,2.8-3.4C15.2,35.7,11.5,33.2,8.1,28.9L8.1,28.9z"/>
<path id="path25-4-6-4_1_" d="M4,26.3c1.7-9.2,3.6-16,8.4-23.4H2.5V6h-2.6V0h14.3l1.8,2.8c-5.2,5.6-9.9,23.7-9,23.4L4,26.3L4,26.3z"
	/>
</svg>
