<?xml version="1.0" encoding="utf-8"?>
<!-- Generator: Adobe Illustrator 19.2.1, SVG Export Plug-In . SVG Version: 6.00 Build 0)  -->
<svg version="1.1" id="Layer_1" xmlns="http://www.w3.org/2000/svg" xmlns:xlink="http://www.w3.org/1999/xlink" x="0px" y="0px"
	 viewBox="0 0 166.3 226.6" style="enable-background:new 0 0 166.3 226.6;" xml:space="preserve">
<path id="path7431-0-1_1_" d="M8,28.9c-3.4,4.4-7.1,6.9-7.2,10.3c0,1.1,0.6,3,2.7,3.3c1.4,0.2,3.2-0.8,3.3-2.7
	c0-0.4,0.5-0.4,0.5,0.2c-0.1,1.6-0.6,3.4-1.6,4.9c1.5,0,3,0,4.5,0c-0.9-1.5-1.5-3.3-1.6-4.9c0-0.5,0.5-0.6,0.5-0.2
	c0,2,1.9,3,3.3,2.7c2.1-0.4,2.8-2.2,2.7-3.3C15.1,35.7,11.4,33.2,8,28.9z"/>
<path id="path37-0-2-9_1_" d="M2.2,17.6H0v-3h2.2c0,0,0-1.6,0.1-4.5c0.1-6.1,0.3-7,2-8.7c3.5-3.3,9.3-0.6,9.2,4.4
	c-0.1,7,0,13.7-0.2,14.6c-0.4,1.7-0.4,1.8-0.3,2.1c0.3,0.6,2.9,0.9,2.9,0.7v3c-2,0.2-2.8,0-4.4-1.2c-1,1-4,1.9-6.5,0.8
	C3.2,25,1.8,22.7,2.2,17.6L2.2,17.6L2.2,17.6z M9.6,22.9c-1.1-1.6-2.9-3.7-4.6-4.5c-0.1,1.8,0,3.3,0.7,4.1
	C6.6,23.8,8.3,24.1,9.6,22.9L9.6,22.9L9.6,22.9z M10.5,5.6C9.7,3.3,7.6,2.5,6.1,4C5.2,4.9,5,5.8,5,10.9c0,3.1,0,4.5,0,4.5
	c3,1,5.7,4.4,5.7,4.4l0.1-9.5C10.8,8.6,10.7,7.1,10.5,5.6L10.5,5.6L10.5,5.6z"/>
</svg>
