<?xml version="1.0" encoding="utf-8"?>
<!-- Generator: Adobe Illustrator 19.2.1, SVG Export Plug-In . SVG Version: 6.00 Build 0)  -->
<svg version="1.1" id="Layer_1" xmlns="http://www.w3.org/2000/svg" xmlns:xlink="http://www.w3.org/1999/xlink" x="0px" y="0px"
	 viewBox="0 0 166.5 226.6" style="enable-background:new 0 0 166.5 226.6;" xml:space="preserve">
<path id="path147-6-9-8-7-4-5-62-5-2-9_1_" d="M8.1,28.8c-3.1,0.1-4.5,3.7-2.2,6.6c0.3,0.4,0.4,0.7-0.2,0.3C4,34.5,1,35.2,0.9,38.6
	c-0.2,4.1,5.3,5.3,6.3,0.9c0.1-0.5,0.4-0.4,0.3,0.2c-0.1,1.8-0.6,3.4-1.4,5c1.2,0,2.5,0,3.7,0c-0.7-1.6-1.3-3.3-1.4-5
	C8.3,39,8.7,39,8.7,39.5c1,4.4,6.5,3.2,6.3-0.9c-0.2-3.3-3.1-4-4.7-2.9c-0.6,0.4-0.6,0.2-0.2-0.3C12.6,32.5,11.2,28.8,8.1,28.8
	L8.1,28.8L8.1,28.8z"/>
<path id="path25-6-8-8_1_" d="M4,26.3c1.7-9.1,3.6-16,8.4-23.5H2.6V6H0V0h14.4l1.8,2.8C11,8.4,6.3,26.5,7.1,26.3H4L4,26.3z"/>
</svg>
