<?xml version="1.0" encoding="utf-8"?>
<!-- Generator: Adobe Illustrator 19.2.1, SVG Export Plug-In . SVG Version: 6.00 Build 0)  -->
<svg version="1.1" id="Layer_1" xmlns="http://www.w3.org/2000/svg" xmlns:xlink="http://www.w3.org/1999/xlink" x="0px" y="0px"
	 viewBox="0 0 167.4 226.6" style="enable-background:new 0 0 167.4 226.6;" xml:space="preserve">
<path id="path147-6-9-8-7-4-5-62-4-0-0_1_" d="M8.5,28.8c-3.1,0-4.5,3.7-2.2,6.6c0.3,0.4,0.4,0.7-0.2,0.3c-1.6-1.1-4.6-0.4-4.7,2.9
	c-0.2,4.1,5.3,5.3,6.3,0.9C7.8,39,8.1,39.1,8,39.7c-0.1,1.8-0.6,3.4-1.4,5c1.2,0,2.5,0,3.7,0c-0.7-1.6-1.3-3.3-1.4-5
	C8.8,39,9.2,39,9.2,39.5c1,4.4,6.5,3.2,6.3-0.9c-0.2-3.3-3.1-4-4.7-2.9c-0.6,0.4-0.6,0.2-0.2-0.3C13.1,32.5,11.7,28.8,8.5,28.8
	L8.5,28.8L8.5,28.8z"/>
<path id="path27-3-3-2_1_" d="M0,18.6c0.1-3.5,1.4-4.9,3.9-6.7c-2-1.4-2.8-3.6-2.7-5.4C1.6,2.1,5-0.1,8.7-0.1c3.7,0.1,6.9,3,7.1,6.2
	c0.2,2.8-0.6,4.1-2.6,5.6c2.3,2,3.8,3.3,3.8,6.8c-0.1,3.5-3,7.6-8.2,7.7C3.7,26.4-0.1,22.1,0,18.6L0,18.6L0,18.6z M14.4,18.6
	c0.2-3.2-2.6-5.4-5.8-5.4c-3.1,0-5.9,2.6-5.9,5.5c0,3.1,3.6,4.8,5.9,4.8C11.5,23.5,14.2,21.3,14.4,18.6L14.4,18.6z M13.4,7.1
	c0.1-2.7-2.4-4.6-5-4.5c-2.3,0.1-4.7,1.8-4.7,4c0,2.8,2.7,4.2,5.1,4.3C10.9,11,13.3,9.2,13.4,7.1L13.4,7.1z"/>
</svg>
