<!-- Generator: Adobe Illustrator 19.2.1, SVG Export Plug-In  -->
<svg version="1.1"
	 xmlns="http://www.w3.org/2000/svg" xmlns:xlink="http://www.w3.org/1999/xlink" xmlns:a="http://ns.adobe.com/AdobeSVGViewerExtensions/3.0/"
	 x="0px" y="0px" width="166.3px" height="226.6px" viewBox="0 0 166.3 226.6" style="enable-background:new 0 0 166.3 226.6;"
	 xml:space="preserve">
<style type="text/css">
	.st0{fill:#D40000;}
	.st1{fill:#131F67;}
	.st2{fill:#E2CF00;}
</style>
<defs>
</defs>
<g id="g6073_1_" transform="matrix(0.99999718,0,0,1.000002,-4.9738447,-6.5473594)">
	<path id="path10446-4-8_1_" class="st0" d="M13,51.3
		c0,0-1.8-2.5-4.2-5.5c-1.6-2-2.9-4.2-3-6c-0.1-2.1,1.2-4.3,3.5-4.4c2.3-0.1,3.3,1.6,3.7,3.1c0.4-1.4,1.3-3.2,3.7-3.1
		c2.3,0.1,3.6,2.2,3.5,4.4c-0.1,1.9-1.4,4-3,6C14.7,48.8,13,51.3,13,51.3L13,51.3z"/>
	<path id="path10448-8-7_1_" class="st0" d="M163.3,188.4
		c0,0-1.8,2.5-4.2,5.5c-1.6,2-2.9,4.2-3,6c-0.1,2.1,1.2,4.3,3.5,4.4c2.3,0.1,3.3-1.6,3.7-3.1c0.4,1.4,1.3,3.2,3.7,3.1
		c2.3-0.1,3.6-2.2,3.5-4.4c-0.1-1.9-1.4-4-3-6C165.1,190.9,163.3,188.4,163.3,188.4z"/>
	<path id="path37-2-5-5-0_1_" class="st0" d="M7.2,24.2H5v-3h2.2c0,0,0-1.6,0.1-4.5
		c0.1-6.1,0.3-7,2-8.7c3.5-3.3,9.3-0.6,9.2,4.4c-0.1,7,0,13.7-0.2,14.6c-0.4,1.7-0.4,1.8-0.3,2.1c0.3,0.6,2.9,0.9,2.9,0.7v3
		c-2,0.2-2.8,0-4.4-1.2c-1,1-4,1.9-6.5,0.8C8.2,31.5,6.8,29.2,7.2,24.2L7.2,24.2L7.2,24.2z M14.6,29.4c-1.1-1.6-2.9-3.7-4.6-4.5
		c-0.1,1.8,0,3.3,0.7,4.1C11.6,30.3,13.3,30.6,14.6,29.4L14.6,29.4L14.6,29.4z M15.5,12.1c-0.8-2.3-2.9-3.1-4.4-1.6
		c-0.9,0.9-1.1,1.8-1.1,6.9c0,3.1,0,4.5,0,4.5c3,1,5.7,4.4,5.7,4.4l0.1-9.5C15.8,15.1,15.7,13.6,15.5,12.1L15.5,12.1L15.5,12.1z"/>
	<path id="path37-3-27-3-0-9_1_" class="st0" d="M169.1,215.5h2.2v3h-2.2c0,0,0,1.6-0.1,4.5
		c-0.1,6.1-0.3,7-2,8.7c-3.5,3.3-9.3,0.6-9.2-4.4c0.1-7,0-13.7,0.2-14.6c0.4-1.7,0.4-1.8,0.3-2.1c-0.3-0.6-2.9-0.9-2.9-0.7v-3
		c2-0.2,2.8,0,4.4,1.2c1-1,4-1.9,6.5-0.8C168.1,208.2,169.5,210.4,169.1,215.5L169.1,215.5L169.1,215.5z M161.7,210.3
		c1.1,1.6,2.9,3.7,4.6,4.5c0.1-1.8,0-3.3-0.7-4.1C164.6,209.3,163,209,161.7,210.3L161.7,210.3z M160.8,227.6
		c0.8,2.3,2.9,3.1,4.4,1.6c0.9-0.9,1.1-1.8,1.1-6.9c0-3.1,0-4.5,0-4.5c-3-1-5.7-4.4-5.7-4.4l-0.1,9.5
		C160.5,224.5,160.6,226.1,160.8,227.6L160.8,227.6L160.8,227.6z"/>
	
		<path id="path3054-4-0-3_1_" class="st1" d="
		M153.4,14.6H22.8v210.5l130.6,0L153.4,14.6z M137.3,16.3h14v81.2c0,0-1.2,0-1.1-0.6c0.1-0.8,0-2.2-0.5-2.8
		c-0.2-0.3-0.6-0.6-0.7-0.9c-0.4-0.7-1-1.5-1.4-1.7c-0.2-0.1-0.5-0.2-0.5-0.3c0-0.2-0.1-0.7-0.2-1.1c-0.3-1.2-0.5-1.1,0.3-2.3
		c2.5-4,3.5-7.7,3.2-11.4c-0.1-1.1-0.4-2.6-0.5-2.8c-2.5,2.5-4.2,5.6-5.9,7.8c-0.4-3.2-0.3-5.7-0.4-8.3c1.3-0.4,2.1-1.1,2.7-2.9
		c0,0,1.4,1.1,2.3,1l-0.6-2.1c3.8-1.2,4.3-6.1-0.2-7.2l0.4-2.6c0,0-1.3,0.5-1.9,0.7c-0.3,0.1-0.4,0-0.6-0.4
		c-2.1-3.3-5.3-2.6-6.7,0.6l-1.7-0.7c0.2,0.9,0.4,1.8,0.3,2.7c-3.6,1.6-2.7,6.1,0.2,6.7l-0.3,2.1l2.2-0.7c0.3,1,0.2,1.6,1.9,2.7
		c0,4.4-0.1,7.1,0,11c-2.3-2.4-4.5-4-8.3-5.2c0,0,0,0.9,0.2,2.4c0.1,0.5,0.1,0.4-0.2,0.4c-0.5,0-2.8-3.7-2.8-3.7s-0.3,0-0.5,0.2
		c-0.3,0.3,0.3,0.8,1.2,2.1c1,1.5,0.9,1.4,0.1,2.1c-4.5,3.9-11.1,18.6-10,20c-2.9,0.2-14,5.7-16,17c-0.1,0.5-0.4,1.2-0.4,1.2
		l-3.2-0.8c1.9-9.3,6.3-28.2,6.3-28.2s3.1-0.9,4.9-1.1l0-0.7l-4.2,1l0.2-1.6l4-0.8l0-0.4l-4.2,0.6l0.7-2.7c0,0-9.5,1.4-12.9,1.3
		c0.2,10.5-0.6,19.2-0.2,30.5l-4.7-2.8C91.1,106.8,91,87,91,87l-12.9-2l0.4,3.1c-10.7-4.3-21.3-8.2-29.2-16.5
		c4.8-3.7,12.9-7.5,12.9-7.5L62,63.5C42.1,73.9,34.9,81,24.9,89.9V16.3h53.8l-0.2,13.5c0,0-0.1,0.3-0.2,0.5c-0.7,3.2,1.2,9,0.9,11.8
		c0.2,0.9,0.1,2.5,0.1,2.5c-3.2,4.5-5,8.7-6.4,13.9c-0.6,0.2-1.4,0.7-2,0.8L70.8,60c1.3-0.7,4.9-1.9,4.9-1.9
		c16.1,7.9,27.9,6,40.5,0.1c-2,7.1,2.4,16.2,9.6,18.1c0.8,0.2,2.2,0.4,3,0.2c0.8-0.2-1.8-6.3-3-6.5c-3.5-1.5-4.9-5.1-4.5-9.2l-0.6-1
		c-1.2,5,1.7,10,5.6,11.2l1.1,2.3c-7.1-2.1-10.1-8.8-7.8-15.5c0-4.1-2.6-6-3.8-7.7c-6.2-2.4-7.3-8.1-6.2-12.8
		c2.9,1.2-1.9-4.1-1.9-4.1c-2.1,4.6-3,10.5,1.8,16.4c-3.1,4.2-7.2,7.5-11.7,10.3c-6.6,3.5-11.6,1.1-14.7-6.6
		c-1.9-4.6-2.6-9.2-2.6-14c0-3,0-3.1,1.2-2.6c1,0.5,3.3,0.5,4.7-0.2c1.8-1,1.8-0.4-0.2,1.7c-0.5,0.6-1.1,1.1-1.1,1.2
		c0,0.6,0.9,0.1,2.1-1.1c0.4-0.4,0.8-0.9,0.9-0.9c0.2,0,0.1,0.6,0,1.2C87.7,39,87.4,40,87.2,41s-0.5,2.1-0.6,2.6
		c-0.5,1.7-0.4,2.5,1.2,3.3c0.9,0.4,2.3,1.8,2.3,1.8c0,0-0.4-1.6-0.2-2.1c0.2-0.6,0.9-0.2,1.6,0.2c1.6,0.8,2.5,0.8,3.4,0.1
		c1.2-1,0.8-3.2-0.6-3.8c-1.1-0.4-1.3,0-0.2,0.7c1.6,1.1-0.2,2.9-1.6,1.8c-1.1-0.8-2.9-0.9-3.1-0.2c-0.2,0.7-0.4,0.5-1.1,0.1
		c-1.2-0.7-1.2-0.8-0.2-4.5c1.8-7.1,1.6-9.7-0.8-11.8c-1.8-1.6-4.7-2.3-7.8-0.6v-2.4c4.5-1.8,7.8-4.9,10.4-9.9h0.5
		c2.6,5.7,6.9,9.9,14.9,13c3.1,3.1-4-8.9-1.7-4c-4.2-1.7-8-4.9-10.1-9h1.2c1.2,1.8,3.7,5.1,8.1,7.3c1.9,0-2.8-5.8-3.5-7.3h36.9
		c-1.2,9-2.8,18.7,3.7,36.3c-3-1.6-15.2,1.8-13.1,2.5c1.1-1.3,8.8-3.1,14.6-1.7C140.8,52.9,132.5,33.5,137.3,16.3L137.3,16.3z
		 M141.3,53.4C141.3,53.4,141.3,53.4,141.3,53.4C141.3,53.4,141.3,53.4,141.3,53.4z M112.8,88.3l0,1.4l0.3-0.1l-0.2-1.4L112.8,88.3z
		 M79.5,16.3h1.6c-0.4,0.7-0.9,1.4-1.7,1.8L79.5,16.3z M82.3,16.3H84c-1.4,2.2-2.8,3.6-4.5,4.6l0-1.7C80.5,18.3,81.5,17.3,82.3,16.3
		L82.3,16.3z M85.2,16.3h1.6c-2.2,3.4-4.4,5.7-7.3,7.2v-1.4C81.3,20.7,83.8,18.5,85.2,16.3z M87.6,16.3h1.3c-2.2,4.3-5.4,7.3-9.4,9
		v-1C84,21.8,85.9,19.1,87.6,16.3z M91.2,16.3h1.6c2.1,4.3,6.6,8.4,11.5,10.2l0.7,1.7C98.5,25.9,94.3,22.4,91.2,16.3L91.2,16.3z
		 M95.7,16.3h1.1c1.2,1.6,2.6,3.1,4.3,4.2l1,2C99.8,20.9,97.3,19,95.7,16.3z M97.7,16.3H99l1.6,2.9C99.5,18.6,98.7,17.2,97.7,16.3
		L97.7,16.3z M96.3,27.5c-1.7,0-3.3,0.5-4.4,1.4c-1.2,1-0.3,2,1.4,1.2c2.9-1.4,6.3-0.7,9.9,1.2c3,1.7,2-0.1-0.9-1.9
		C100.4,28.1,98.2,27.5,96.3,27.5z M82.6,29.7c2.4,0,5.3,1.1,5.3,2.6c-1.6-1.4-4.9-2-8-0.6c-0.2-0.1-0.3-0.9-0.1-1.2
		C80.4,29.9,81.5,29.7,82.6,29.7z M97.4,30.6c-1.5,0-3,0.4-3.6,1.3c-0.3,0.4-0.4,0.5-0.8,0.4c-0.7-0.1-0.7,0.3,0.1,1.4
		c0.4,0.6,0.3,1.2-0.2,1.9c-0.6,0.9-0.5,0.9,1.3,1.8c1.4,0.7,2.5,1.7,3.8,2.5c0.9,0.5,1.1,0.1,0.2-0.6c-0.3-0.2-1.1-0.8-1.9-1.3
		c-1.3-0.8-2.2-1.7-1.2-1.3c0.5,0.2,0.6,0.2,1.1,0.3c1.3,0.3,2.6,0.5,3.8,0.2c0.8-0.2,1.8-0.7,2.7-1.4c0.2-0.1,0.4,0,1,0
		c2,0.1,1.6-0.5-1.3-2.1c-2.9-1.6-5.2-1.9-7-1c-0.8,0.4-1.2,0.5-1.1,0.2c0.1-0.2,0.3-0.5,0.7-0.7c3-1.8,5.4-0.3,8,1
		c1.1,0.7,1.4,0.9,1.6,0.6c0.2-0.3-1.3-1.3-3.2-2.3C100.2,30.9,98.8,30.6,97.4,30.6L97.4,30.6z M87.8,32.7c0.5,0.2,0.3,0.8-0.2,0.6
		c-2.8-1.2-3.3-1.9-6.6-0.7c-1.1,0.4-1.5,0-0.2-0.5C83.8,30.8,85.9,31.7,87.8,32.7z M85.9,34.2c-0.7,3.8-4.5,2.6-4.1,0l0.7,0
		c0.1,2.3,2.4,2.3,2.7,0L85.9,34.2z M108,34.2l1,2.2c-2.2,5.5,0.8,13,7.4,14.8c0,0,1.1,1.6,0.9,1.9C104.8,50.2,105.8,38.4,108,34.2z
		 M96.3,34.3l0.3,0c1.1,2.7,2.6,1.1,2.9,0l0.8,0C100.1,37.1,95.9,37.6,96.3,34.3L96.3,34.3z M86.7,34.4c0.5-0.1,0.7,0.7,0.5,0.8
		c0,0-1,0.9-1.1,0.4C86,34.9,86.5,34.4,86.7,34.4L86.7,34.4z M81,34.5c0,0,0.1,0,0.1,0c0.3,0.2,0.4,0.9,0.3,1.3
		c-0.2,0.2-0.9-0.1-1.1-0.4C80.1,35,80.3,34.5,81,34.5L81,34.5z M101,34.7c0.2,0,0.9,0.3,0.8,0.6c0,0.1-1,0.8-1.2,0.7
		C100.3,35.8,100.8,34.8,101,34.7C100.9,34.7,101,34.7,101,34.7L101,34.7z M95.5,34.8C95.6,34.8,95.6,34.8,95.5,34.8
		c0.1,0.1,0.7,0.4,0.2,1.1c0,0-0.7-0.2-0.7-0.3C94.9,35.3,95.5,34.9,95.5,34.8z M110.5,39.7c-0.2,3.2,0.7,6.3,4.1,8.2l-0.7-1.4
		c-0.9-0.7-2.7-2.7-2.5-5.1L110.5,39.7z M79.6,45.4l0.4,2.1c-1.9,3.2-3.3,6.3-4.5,9.9l-1.8,0.7C75.1,53.5,76.4,49.8,79.6,45.4z
		 M80.3,48.6l0.5,1.8c-0.9,1.7-1.9,3.7-2.5,6l-2,0.7C77.2,54.1,78.5,51.2,80.3,48.6z M86.6,49.4C86.6,49.4,86.5,49.4,86.6,49.4
		c-0.1,0.4-0.1,1.3,0,3c0,0.3,0.3,0.2,1.2-0.3c0.7-0.4,0.7-0.4,1.4-0.2c2,0.7,2.9,0.4,3.6,0.2c1.2-0.3,1.7-0.2,2.3,0.2
		c0.4,0.2,0.9,0.4,1,0.4c0.5,0.2,0.3,0,0-1.5c-0.4-1.7-0.2-1.8-0.9-1.4c-0.1,0.1-0.6,0.3-0.8,0.4c-0.6,0.1-1.5-0.6-2.1-0.4
		c-1.4,0.5-1.4,0.4-2.7,0.1c-0.6-0.2-1.3,0.2-1.8,0.3C87.5,50.2,87,49.4,86.6,49.4z M110.1,50.2c2.3,2.2,4.7,2.9,7.3,3.7
		c-0.3,1.1-0.9,2.3-1.2,3.7c-13.5,7.2-27.2,7-40,0.4l6.7-2.6c3.6,6.3,8.3,8,13.6,6C102.3,58.7,106.6,54.9,110.1,50.2z M81.2,51.5
		l0.6,1.6l-0.9,2.3l-1.6,0.7C79.6,54.5,80.2,53.2,81.2,51.5z M93.4,53.3c-0.4,0-1,0.3-2.4,0.3c-0.8,0-1.3-0.1-1.6,0
		c-0.6,0.1,0.1,0.4,1.5,0.8c1.4,0.4,3-0.2,3.2-0.8C94.1,53.5,93.9,53.3,93.4,53.3L93.4,53.3z M82.1,54.1l0.4,0.8l-0.6,0.2L82.1,54.1
		z M118.1,54.5l1,2.3c-1.8,3.8-2.9,14.3,8.8,17.5l0.5,1.5C120.5,76,112.5,65.8,118.1,54.5L118.1,54.5z M91.3,55.3
		c-1.1,0-2.3,0.3-3.1,0.9c-0.7,0.6,0.2,0.9,1.1,0.5c1.2-0.6,3.1-0.5,4.3,0.2c0.9,0.6,1.3,0.5,0.7-0.4C93.9,55.7,92.6,55.3,91.3,55.3
		L91.3,55.3z M142.4,57.9c3.1-0.1,3.4,4.4,2.8,4.7c0.2-0.1,0.7-0.2,1.4-0.2c2.2,0.1,3.4,1.3,3.5,3.1c0.1,1.8-1.2,2.8-3.3,2.7
		c-0.7,0-1.3-0.1-1.2,0c0.4,1.5-0.1,3.7-2,4.2c-0.2,0.1-0.5,0.4-0.5,0.5c-0.1,2.3,0.5,10.3,0.5,10.3s3.6-6.1,4.4-7
		c1.6-2.2,2.2-2,1.9,1.6c-0.4,5-1.1,6.2-4,10.4c-1.3,1.8-4.2,0.9-4,2.1c0.1,0.3,0.5,0.8,1,1.2c0.3,0.3,0.6,0.5,1.4,0.5
		c1.3,0,1.8-0.3,1,0.8c-0.6,0.9-2.7,1.1-3,1.5c-0.6,1.1-0.2,0.8-1.1,1.8c-0.7,0.8-0.5,0.4-0.1,1c0.5,0.8,0.3,2.5-0.2,3.7
		c-0.4,0.9-0.4,1.6-0.4,1.6c0,0.1,1.2-1.2,1.5-2.7c0.3-1.2,0.6-1.9,0.6-1.2c0,0.9,0.1,2.1,0.9,2.5c0.6,0.4,0.7,0.7,0.6,1.2
		c-0.1,0.5,0.4,0.9,0.9,1.2c0.1,0.1,0.5,0.3,0.4,0.5c-0.1,0.8,0.2,1.7,0.7,1.8c0.2,0.1,1.8,0,2.1-0.9c0-0.3,0-1.5-0.6-1.5
		c-0.4-0.2-0.4-0.3,0.3-0.7c1-0.6,1.7-1,2.2-1.1c0.7-0.1,1.3-0.8,1.3-0.8l0.1,48c-5.9,6.1-12.4,12.2-21,18.2
		c-5-4.2-10.4-8.4-16.2-11.6l-2-1.2l0.7-0.9l-3.5-4.6l3.9-3.2l1,1.3l-1.8,1.8l2.8,3.1l6.2-6.1l-4.1-3.9l2.1-4l1.4,0.7l-1,2.6l3.1,2
		l3.9-7.8l-4.9-2.3l1.3-5.2l1.5,0.2l-0.5,3.8l3.9,0.8l1.6-8.9l-5.7-1l0.5-5.1l1.6,0l-0.2,2.8l4,0.6l0.8-7.8l-5.5-0.9l0.7-6l1.3,0.2
		l-0.2,3.7l4.1,0.7c0.4-2.5,0.8-5.6,1.5-8.1l-5.2-2l1.9-5l1.2,0.4l-1,2.7l3.9,1.7l3.3-6.5l-4.6-3.2c1-1.7,2-3.3,3.5-4.7l0.9,0.8
		c0,0-0.3,0.3-0.8,1c-0.6,0.9-0.8,1.3-0.7,1.5c0.1,0.2,2.9,2.3,3.1,2.3c0.2,0,1.2-0.9,1.7-1.4c0.5-0.6,0.8-0.7,1.3-0.3
		c0.1,0.1,0.3,0.2,0.4,0.4c0.1,0.2,0.2,0.3,0.2,0.4c0,0.1,0,0.2,0,0.2c0,0,0.1-0.1,0.4-0.2c0.4-0.2-0.7-1.2-1.7-1.7
		c-2.7-1.6-6-4.5-6.7-8.1c-0.3-1.6,3.9,0.3,6.9,3.3c0.4,0.4,2.1,2,2.1,2c-0.2-4.2-0.6-8.5-0.4-12.8l-0.6-0.4
		c-0.9-0.6-1.2-1.7-1.3-2.7c-0.1-0.7,0.6-1.1-0.8-1c-2.9,0-4.6-2.7-2.8-5.1c0.6-0.9,3.3-1.3,3.3-1.3
		C138.9,59.6,140.9,58.1,142.4,57.9L142.4,57.9z M141.4,90.5C141.3,90.6,141.3,90.6,141.4,90.5z M145.2,62.6
		C145.2,62.7,145.1,62.7,145.2,62.6C145.1,62.7,145.2,62.7,145.2,62.6z M48.8,71.8c8.1,6.9,13.2,11.5,29.7,16.6l0.4,2.5
		c-9.5-2.2-19.8-6.7-32.1-17.7L48.8,71.8z M46.4,73.4c5.1,4.8,10.4,8.5,15.7,11.6l1.9,1.1l-1,1l3.1,4.5l-4,3.3l-1-1l2.1-2.1l-3-3
		l-6.1,6.2l4.2,3.7l-2.4,3.7l-0.9-0.4l1.3-2.6l-3.9-2.1l-4.3,8l5.5,2.5l-1.2,4.9l-1.3-0.1l0.4-3.9l-4.1-0.7l-1.4,9l5.3,0.8l-0.1,5.2
		l-1.4,0l0.1-2.9l-4.2-0.2l-0.4,7.6l5.2,0.7l-0.5,6.1l-1.3-0.3l0.1-4l-4-0.4l-1.4,8.5l5.3,1.5l-1.9,5.3l-1.2-0.6l0.8-2.7
		c-1-0.4-3.7-1.6-3.7-1.6l-3.5,6.6l4.5,3.1l-2.8,4.9L40,154l1.9-2.9l-3.8-2.4l-2.1,2.9c-0.9-0.8-2.5-1.9-3.2-2.6
		c-0.7-0.6-1.2-0.7-2-0.5c-0.7,0.2-1.3,0.3-1.2,0c0.1-0.1,1.4-1,3.3-2.2c0.5-0.3,1-0.7,1-1c0-0.2,0.3-0.6,0.7-0.8
		c0.4-0.3,0.3-0.5,0.3-0.8c-0.4-1.5-0.1-3.8,0.6-5.3c0.5-1,0.7-1.2,0.3-1.2c-1,0.1-2.1,3.6-2.3,4.6c-0.1-0.1-0.2-1-0.2-1.3
		c-0.1-0.6-0.2-1-0.7-1.2c-0.6-0.1-0.4-0.4-0.5-0.9c-0.1-0.7-0.5-1.2-1.1-1.5c-0.6-0.3-0.7-0.4-0.6-1c0-0.5-0.5-1.3-0.9-1.6
		l-2.1,0.8c-0.2,0.6,0.1,1.3,0.4,1.6c1.1,1-0.5,1-1.6,1.7c-0.3,0.2-0.6,0.6-0.9,0.5c-0.7-0.2-0.6,1.8-1.3,1.6l0.2-48.8
		C29.9,85.7,46.4,73.4,46.4,73.4L46.4,73.4z M132,82l0.8,0.9c-2.5,2.9-4.4,5.8-6.4,9.4c-1.7,3.1-3.2,7.4-4,12.1
		c-0.6,2.9-0.7,5.8-1.1,8.7c-0.4,3.2-0.5,7.4-1.1,10.8c-1.1,9.2-3.7,14-9.2,19.2c-2.4,2.3-10,6.6-10.2,6.6l-1.8-0.4
		c15.6-8,19.5-13.6,21.1-32.5C120.5,92.9,131.3,83.6,132,82L132,82z M133.5,83.6l0.8,0.8l-4.5,6.5l4.5,3.2l-1.8,4.2l-1.4-0.5l1-2.8
		l-3.8-1.6l-3,8.3l5.4,1.7l-0.9,5.4l-1.1-0.3v-3.7l-4-0.8l-1.2,9.3l5.9,0.8l-0.4,4.8l-1.4-0.1l-0.1-2.8l-4.1-0.2l-0.9,8l5.8,1
		l-1,5.7l-1.2-0.3l0.3-3.8l-3.9-0.5l-2.2,7.7l4.9,2.5l-2.4,4.9l-1-0.7l1.3-2.9l-3.8-1.9l-3.7,6.4l4,3.9l-3.9,4.1l-0.9-1.1l2-2.2
		l-3-3l-6.2,5l3.2,4.2l-0.4,0.5l-3.3-1.3l-1.6-2.1l-1.9,0.8l-1.5-0.6c9.2-4.8,15.1-10.5,17.6-18.9c1.4-4.7,1.8-9.8,2.2-14.9
		c0.2-2.7,0.5-5.4,0.8-8c0.5-4.3,1.1-7.9,2.8-12.1C127.8,91,130.4,87.5,133.5,83.6L133.5,83.6z M84.2,86.8l6.3,3.3l-0.1,2.2
		l-5.8-2.9L84.2,86.8z M85.9,86.9l4.5,0.6l0,1.8L85.9,86.9z M65.7,86.9l2.6,1.2l2.2,2.6l1.7-1.1l1.8,0.7c-5.7,3-10.8,6.5-14.7,12.6
		c-4.4,6.8-4.9,15.7-5.4,24.3c-0.9,11.8-3,20.2-10.8,29.8l-1.2-0.7l4.2-6.8l-4.8-3.1l2.2-4l1.1,0.4l-0.8,2.4l3.9,2.1l3-8.5l-5.6-1.7
		l0.9-5.3l1.4,0.1l-0.4,3.8l4,0.6l1.1-9l-5.3-0.8l0.1-4.8l1.3,0.1l0,2.9l4.2,0.2l0.3-8.2l-5.2-0.6l0.6-5.8l1.5,0.2l-0.3,3.5l4,0.6
		l1.9-7.5l-5.2-2.4l2.8-5.1l1.3,0.6l-1.3,2.8l3.6,1.8l3.8-5.9l-4.1-3.9l4-4.2l1,1l-2.2,2.5l3,2.8l5.9-5l-2.9-4.4L65.7,86.9z
		 M103.4,87.2l-0.2,2.1l-6.3,3.6v-2.1L103.4,87.2z M137.3,87.3l1.4,0.9l-1,1.2l-1.2-0.8L137.3,87.3z M100.7,87.6L97,89.8v-2.2
		L100.7,87.6z M145.4,89.6c0.2,0,0.4,0,0.5,0.1c0.4,0.3,0.3,0.9-0.1,1.2c-0.6,0.4-2.1,0.4-2.2,0C143.3,90.3,144.5,89.6,145.4,89.6
		L145.4,89.6z M85,90.5l5.4,2.9l0,2.1l-5.2-2.9L85,90.5z M102.7,90.6l-0.3,2.7l-5.6,3l0-2.3L102.7,90.6z M75.6,90.6l2.2,0.6
		c-8.2,3.7-16.4,9.1-19.6,18.4c-1,2.8-1.7,5.9-2.1,9.9c-0.2,4.2-0.7,8.4-0.9,11.9c-0.4,7.2-2.7,16.8-10.8,27.1l-0.8-0.6
		c5-6.1,7.5-11.7,9.1-17.6c2.5-9.4,1.3-19.7,4-29.2c1.6-5.7,5-10.9,10.1-15.3C70.4,93.1,75.6,90.6,75.6,90.6L75.6,90.6z M79.3,91.4
		C79.4,91.4,79.4,91.4,79.3,91.4c2,6.8,4.5,19.2,4.5,19.2c-5.3-2.6-14.1-2.1-14.1-2.1s-5-6.4-5.9-7C67.8,96.1,78.6,91.4,79.3,91.4
		L79.3,91.4z M147.5,92.5c1.2,0,1.1,1.8-0.4,3.1c-0.8,0.6-1.2,0.6-1.7,0c-0.2-0.2-0.7-0.4-1-0.4c-0.9,0,0.8-1.8,2.4-2.5
		C147,92.5,147.3,92.5,147.5,92.5L147.5,92.5z M85.6,94l4.8,2.5l0,2.1L86,96.1L85.6,94z M102,94.3l-0.3,2.3l-5,2.6l0-2.1L102,94.3z
		 M149.2,95.1c0.2,0,0.3,0,0.4,0.2c0.7,0.8-0.6,3.1-2.1,3.8c-0.6,0.3-0.9,0.2-1.4-0.2c-0.2-0.2-0.6-0.5-0.8-0.4
		c-0.8,0.1-0.4-0.9,0.3-0.9c0.2,0,1.4-0.9,2.3-1.7C148.5,95.4,148.9,95.1,149.2,95.1L149.2,95.1z M144.1,96c1.1,0,1.5,0.9,0.2,1.3
		c-0.9,0.3-1.4,0.1-1.4-0.5C143,96.1,143.6,96.1,144.1,96L144.1,96z M86.3,97.2l4.3,2.2l0,2.2l-3.9-2.1L86.3,97.2z M101.6,97.5
		l-0.3,2.1l-4.6,2.4l0-1.7L101.6,97.5z M150.1,98.4c0.3,0,0.4,0.3,0.4,0.9c0,1-0.6,1.9-1.6,2.3c-0.7,0.3-1.2,0.3-1.5-0.1
		c-0.2-0.2-0.4-0.3-0.5-0.3c-1.5-0.1-1.3-0.4,0.2-1c0.5-0.2,1.5-0.9,2-1.2C149.5,98.6,149.9,98.4,150.1,98.4L150.1,98.4z
		 M144.6,99.1c0.7,0,1.4,0.5,1,0.9c-0.3,0.3-1.5,0.4-1.7,0.2C143.4,99.7,143.8,99.1,144.6,99.1z M87,100.6l3.7,2l0,2.1l-3.5-2
		L87,100.6z M101,100.8l-0.1,2.2l-4.2,2.1l0-2.1L101,100.8z M146.2,101.7c0.7,0.1,0.6,0.7,0,1.1c-0.4,0.3-1,0.1-1.2-0.2
		C144.6,101.6,145.7,101.7,146.2,101.7z M147.7,103.9c0.1,0.2,0.1,0.7-0.2,0.8c-0.3,0.1-1.1,0-1.2-0.2c-0.1-0.2-0.1-0.3,0.1-0.5
		C146.7,103.7,147.4,103.5,147.7,103.9z M87.5,103.9l3.1,1.7l0,2.1l-2.9-1.7L87.5,103.9z M100.5,104l-0.2,2l-3.6,1.8l0-1.9
		L100.5,104z M62.4,105.2c0.8,0,1.4,0.5,0.9,1.4c-0.3,0.6-0.5,0.8-1.7,1.6c-0.5,0.4-1,0.7-1,0.7c0,0-0.4,0.3-0.6,0.4
		c-1.1,0.8-0.7-0.8,0.7-3.2C61.1,105.5,61.8,105.2,62.4,105.2z M100.2,107l-0.3,2.2l-3.3,1.7v-2.1L100.2,107z M88,107.2l2.6,1.3
		l0,2.1l-2.4-1.3L88,107.2z M119.6,107.4c0.1,0,0.2,0,0.2,0.1c0.2,0.3,0.2,1.6,0,2.4c-0.4,0.9-1.1-1.3-1-1.9
		C119,107.7,119.3,107.4,119.6,107.4L119.6,107.4z M64.3,107.8c1.1,0,1.8,0.7,1.5,1.8c-0.4,1-2.8,1.7-3.9,2.4
		c-0.7,0.4-0.9,0-0.7-0.6c0.1-0.3,0.2-0.5-0.4-0.6c-1.3-0.2-0.5-0.8,1.9-2.5C63.3,108,63.8,107.8,64.3,107.8L64.3,107.8z
		 M117.1,108.5c0.4,0,0.8,0.2,1.3,0.7c0.8,0.9,1.4,2.8,1,3.3c-0.3,0-0.5,0.5-0.5,0.7c-0.1,0.6-1.1-0.5-2.2-2.2
		C115.8,109.6,116.2,108.5,117.1,108.5L117.1,108.5z M72.8,108.8c3.2,0,9.4,0.7,18,6.1c1.1,0.7,2.2,1.4,3.4,2.1
		c3.3,1.8,5.9,3,10.1,3.7l-0.1,2.2c0,0.7,1.1,4.7,0.6,6.9c-0.8,0,0.7,0.7,0.7,0.7l1,2c0,0-5.1,0-7.5-0.5c-3.8-0.6-10.6-3.8-14-6.4
		c-3.5-2.5-8.7-4.7-13.1-5.5l-0.1-1.9c0,0-0.4-6.4-0.8-7.3l-0.8-2C70.4,109,71.3,108.8,72.8,108.8L72.8,108.8z M99.8,110.2l-0.2,2.2
		l-2.9,1.3v-1.8L99.8,110.2z M114,110.3c0.8,0,2,0.9,3.4,2.8c0.3,0.4,0.6,0.8,0.6,1c0,0.2-0.1,0.4-0.3,0.3c-0.5-0.1-0.7-0.3-0.9,0.4
		c0,0.2,0.1,0.5-0.1,0.4c-1-0.3-3.7-3.1-3.6-4C113.2,110.6,113.6,110.3,114,110.3L114,110.3z M88.6,110.4l2.1,1.1l0.1,2.1l-1.8-0.8
		L88.6,110.4z M66.3,111.1c0.6,0,1,0.2,1.2,0.7c0.5,1.2-0.4,1.9-2.9,2.5c-2.2,0.5-2.2,0.6-1.9-0.3c0.2-0.6-0.5-0.6-0.9-0.8
		c-0.7-0.2-0.1-0.3,1.8-1.3C64.8,111.4,65.6,111.1,66.3,111.1z M58.8,111.7c0.1,0,0.1,0.1,0.2,0.2c3.2,4,2.4,9.7-1.7,12.6
		c-0.5,0.3-0.5,0-0.4-0.6l0.1-1.2c0-0.2,4.7-3.1,1.2-9.6l0.3-0.9C58.7,111.9,58.7,111.7,58.8,111.7L58.8,111.7z M111.9,112.9
		c1.3,0,4.9,3.3,3.3,3.4c-0.2,0-0.1,0.2-0.1,0.4c0,0.1,0,0.4,0,0.5c-0.1,0.3-0.5,0.2-1.2-0.2c-1.6-1-2-1.3-2.6-1.8
		C110.2,114.2,110.5,112.9,111.9,112.9L111.9,112.9z M99.2,113.5l0,1.8l-2.6,1.3l0-1.6L99.2,113.5z M66.7,114.7
		c1.7-0.1,2.7,1.7,1,2.6c-0.7,0.4-3,0.1-4,0c-1.2-0.1-0.5-0.5-0.4-0.6c0.2-0.3,0.3-0.3-0.3-0.7c-0.5-0.5-0.8-0.7,0.5-0.8
		c0.6-0.1,2.1-0.2,2.6-0.4C66.2,114.8,66.5,114.7,66.7,114.7z M119.3,115.1c0.1,0,0.1,0.2,0.1,0.8l-0.1,1.2c-0.8,0.1-4.7,5-1.5,10.7
		l-0.3,1c-0.1,0.5-0.2,0.6-0.6,0.3c-2.4-1.7-3.1-10.1,1.8-13.6C119,115.3,119.2,115.2,119.3,115.1z M110,116.1c0.5,0,1,0.1,1.7,0.4
		c1.5,0.7,2.5,1.2,2.7,1.6c0.1,0.2-0.1,0.4-0.4,0.5c-0.4,0.1-0.4,0.3-0.3,0.7c0,0.3,0.1,0.5-0.2,0.5c-0.6,0-1.9-0.4-3.2-1.1
		C108.1,117.6,108.4,116.1,110,116.1z M98.8,116.2v2.2l-2.1-1L98.8,116.2z M63.5,118c0.2,0,0.5,0,0.9,0.1c0.5,0.1,1.2,0.1,1.6,0.1
		c2.4,0,3.4,1.6,1.4,2.5c-0.5,0.2-0.8,0.2-2.2-0.2c-0.7-0.2-1.6-0.4-1.9-0.5c-0.7-0.2-1-0.4-0.5-0.6c0.4-0.2,0.5-0.5,0.2-0.9
		C62.8,118.2,63,118,63.5,118L63.5,118z M119.3,118c-0.3,3.3-0.6,5.9-1.1,9.2C117.8,127.1,115.2,120.9,119.3,118z M109.2,119.6
		c0.8,0,2.1,0.3,3.4,0.8c1.1,0.4,1.3,0.5,0.5,0.9c-0.5,0.2-0.4,0.4-0.3,0.7c0.2,0.2,0.6,0.7,0,0.6c-0.8,0.1-2.7-0.1-3.3-0.2
		c-1.8-0.3-2.3-2-0.8-2.7C108.7,119.6,108.9,119.6,109.2,119.6z M62.7,120.5c0.2,0,0.5,0.1,1,0.3c3.2,1,4.6,2.3,3,3.5
		c-0.5,0.4-1.2,0.2-2.5-0.6c-1.4-0.8-2.1-1.2-2.3-1.5c-0.3-0.3-0.1-0.6,0.3-0.6c0.5,0,0.5-0.2,0.4-0.7
		C62.5,120.6,62.5,120.5,62.7,120.5z M71.4,120.8l2.5,0.6l-6.2,27.4c-2.1,0.6-3.3,0.9-4.8,1.7l4.3-0.7l-0.4,2l-3.9,0.7l-0.1,0.6
		l4.5-0.8c0,0-0.2,1.9-0.3,2.6c4.3-0.3,8.5-1.5,12.8-1.6c0,0,0.1-21.6,0.1-24c0-2.5,0-5.6,0-5.6l4.3,2.4l0.7,27.2l13.5,2.2
		c-0.1-0.5-0.5-2.6-0.5-2.6c10,3,20.1,7.4,29.1,16.4c-4.2,2.3-8.1,4.5-12.2,6.7l-0.6,0.9c10.3-4.8,25.9-14.9,37.2-26v72.3H97.6
		c0,0,0-3.5,0-6.7l0-6c-0.2-3.9,0.4-8.1-0.7-11.4l-0.2-3.4c3.3-3.9,5.1-8.8,6.7-13.8c0,0,1.6-0.6,2.4-0.9l0.3-1
		c-1.5,0.8-5.1,2.1-5.1,2.1c0.4-0.3-7.6-3.7-12.5-4.5c-8.1-1.3-19,0-27.7,4.4c-0.4,0.3-0.6,0.3-0.5-0.1c2-7.4-2.2-14.8-9.7-16.9
		c-1.6-0.5-2.9-0.5-2.9-0.5l0.1,0.6c12.2,1.4,15,14.3,10.3,20.4c-1.2,2-1.4,2.6,1.2,2.5c10.4-0.1,14.1,11.6,9.3,18.1
		c0-0.1,0.4,0.8,0.4,0.8c3-3.9,3.8-11.4-1.5-16.7c3.9-4.4,11.3-11.3,17.8-10.9c2.3,0.1,4.7,3,6.2,5.3c3.3,4.8,4.1,11.6,4.3,15.4
		c0.1,1,0.2,1.7,0.2,2.3c0,1.5-0.3,1.4-1.3,1.1c-1.2-0.3-2.9-0.3-4.2,0.1c-2,0.6-1.7,0.3,0.1-2c1.1-1.3,1.2-1.7,0.8-1.8
		c-0.1,0-0.6,0.4-1.2,1.3c-1.8,2.7-1.6,1.6-0.4-2.7c0.8-2.8,0.7-3-1.5-4.7c-0.8-0.6-1.7-1.1-1.8-1.3c-0.4-0.9-0.6,0.2-0.2,1
		c0.4,0.7-0.4,1.1-1.8,0.3c-3.3-1.8-5.4,1.9-2.5,3.5c0.7,0.4,1.1,0.1,0.5-0.4c-1.8-1.7-0.5-3.1,1.9-1.6c1.4,0.9,1.9,0.6,2.4-0.5
		c0.3-0.4,2.5,1.1,2.4,1.8c0,0.4-0.3,1.7-0.5,2.6c-0.7,2.4-0.9,3.2-1.2,4.8c-0.6,2.9-0.5,4.3,0.1,5.6c1.3,2.8,4.6,4.1,7.5,3
		c0.4-0.2,1.2-0.3,1.2-0.3l0,2.1c-5.7,2.2-9.8,8.9-9.6,9.2l-2,0c-2.7-5.4-7.4-9.4-13.5-11.7c-1.2-1,0.3,2.8,1.6,3.6
		c2.9,1.5,6.6,4.1,8.7,8.1l-1.4,0c-1.8-2.7-4-4.5-6.2-6.1c-0.5-0.1,0.4,4.9,2.4,6.4l-37.1,0.7c2.5-10,3-21-2.9-35.6
		c4.9,0.3,9.3-0.8,13.3-2.5l-0.4-1c-4.6,2.2-9.6,2.6-14.6,2.1c3.8,7.1,7.1,21.8,3.9,36H24.9v-77.5c0,0,0.8,0.5,1,0.7
		c0.4,0.4,0.7,1.1,0.8,1.5c0.2,0.6,0.3,0.6,1.2,1.3c0.4,0.3,0.6,0.6,0.6,0.7c0,0.2,0,0.7,0.2,1.1c0.7,0.9,0.6,1.5,0.1,2.1
		c-2.6,2.7-4.2,8.5-2.9,14.5c3.1-2.1,6.3-7.6,6.4-7.6l0.3,7.5c-0.3-0.1-2.2,1.1-2.2,2.5c-0.9,0.3-1.9-0.2-2.8-0.4l0.6,2.2
		c-3.2,1.3-3.3,5.7,0.3,6.9c0,0-0.3,1.7-0.6,2.6l2.4-0.4c1.4,4.2,6.7,2.8,6.7-0.1c0,0,1.6,0.6,2.2,0.9l-0.6-2.8c6.1-3,1.5-7,0.1-7
		c0-0.8,0.4-1,0.7-2l-2.4,0.2c-0.4-1.5-2.1-2.7-2.2-2.5l-0.3-10.7c1.9,1.6,3.7,3.3,6.1,4.6c2.3,1.2,2.5,0.9,2.2-1.1
		c-0.2-0.9-0.1-1.5-0.1-1.5c0.8,0.2,3,3,2.9,4.4c0.8,1,1.5-1.7-0.5-4.1c5.4-5.7,9.5-15.1,10.3-21.5l7.2-2.9l0.1-0.9
		C67.6,130.5,70.1,125.9,71.4,120.8L71.4,120.8z M77.4,122.4l1.6,0.7l-1.9,0.9L77.4,122.4z M61.5,122.9c0.3,0.1,0.8,0.5,1.5,1
		c1.4,1,2.2,1.7,2.2,2.4c0,0.3-0.2,0.7-0.6,0.9c-0.8,0.5-1.7,0.1-3.5-1.8c-0.6-0.6-1-0.9-1.2-1.2c-0.2-0.3-0.1-0.6,0.3-0.5
		C61.8,124.3,60.5,122.4,61.5,122.9L61.5,122.9z M111.9,123.3c0.3,0,0.5,0,0.7,0c0.4,0.1,0.5,0.3,0.3,0.5c-0.4,0.3-0.3,0.7,0.1,0.9
		c0.3,0.1,0.2,0.4-0.2,0.6c-0.2,0.1-0.5,0.2-0.9,0.3c-2.2,0.7-3.9,0.5-4.3-0.6c-0.5-1.2,0.5-1.8,3.2-1.8
		C111.2,123.3,111.6,123.3,111.9,123.3L111.9,123.3z M79.2,124l0,1.6l-2.3,1.1l0.3-1.6L79.2,124z M59.4,124.5c0.2,0,0.5,0.3,1,0.9
		c2.2,2.8,2.6,3.3,1.8,4c-0.9,0.9-2.1,0-3.4-2.4c-0.2-0.3-0.4-0.7-0.5-0.9c-0.5-0.6-0.3-0.7,0.3-0.7c0.3,0,0.5-0.1,0.5-0.4
		C59.2,124.7,59.3,124.5,59.4,124.5L59.4,124.5z M113.3,125.9c0.4,0,0.4,0.1,0.2,0.6c-0.1,0.4-0.4,0.6,0.2,0.8
		c0.1,0,0.3,0.3,0.1,0.4c-0.5,0.3-2.6,1.3-3.3,1.5c-1.5,0.5-2.4-0.7-1.5-1.9c0.4-0.5,2.9-1.4,4.1-1.5
		C113.2,125.9,113.2,125.9,113.3,125.9L113.3,125.9z M58.3,127.5c1.5,2.2,1.7,3.3,0.7,3.9c-0.6,0.5-1.9-0.2-2.3-1.7
		c-0.2-1.1-0.3-2.3,0-3.2C57.3,125.2,58.1,127.3,58.3,127.5L58.3,127.5z M79.2,126.6l0,1.8l-2.8,1.4l0.3-1.9L79.2,126.6z M85,126.7
		l2.7,1.7l0.2,1.5l-2.8-1.5L85,126.7z M114.7,128.4c0.1,0,0.1,0,0.1,0.1c0,0.2-0.1,0.9,0.3,1c0.8,0.1,0.6,0.4-0.1,1
		c-0.7,0.7-1.4,1.4-2.3,1.9c-2.3,0.9-3-1.6-0.8-2.9c0.8-0.4,1.4-0.7,1.9-0.9C114.3,128.5,114.6,128.4,114.7,128.4z M85.1,129.3
		l3.1,1.8l0.1,1.8l-3.1-1.6L85.1,129.3z M79.1,129.5l0,1.6l-3,1.7l0.2-1.8L79.1,129.5z M91.6,130.8c0.9,0.4,11.8,3.5,15.4,2.4
		c0,0,3.1,4.5,5.4,6.1c-3.6,5.3-15.6,10.4-15.6,10.4L91.6,130.8z M116.2,130.9c0.2,0,0.2,0.2,0.2,0.6c0,1.1-1.8,5.1-3.2,3
		c-0.4-0.8,0-1.6,1.2-2.5C115.5,131.2,116,130.9,116.2,130.9L116.2,130.9z M56.6,131.5c0.3,0.3,0.1,1.2-0.4,1.1
		c-0.2,0-0.2-0.9-0.1-1.4C56.3,131.1,56.5,131.4,56.6,131.5z M79.2,132l0,2l-3.6,2l0.4-2.3L79.2,132z M85.1,132.3l3.5,1.9l0.4,2.2
		l-3.9-2L85.1,132.3z M79.1,135.1v2.1l-4,2.1l0.3-2L79.1,135.1z M85.1,135.2l4,2.3l0.5,2.1l-4.4-2.3L85.1,135.2z M29,135.3
		c0.6,0,0.9,0.7,0.4,1.1c-0.3,0.3-1.2,0.2-1.3,0C27.7,136,28.2,135.3,29,135.3z M30.2,137.5c0.1,0,0.2,0,0.3,0
		c0.5,0.1,0.8,0.8,0.5,1.2c-0.5,0.7-1.9,0.2-1.7-0.7C29.3,137.8,29.8,137.5,30.2,137.5z M79.1,138.2v1.8l-4.4,2.3l0.3-2.1
		L79.1,138.2z M85.3,138.4l4.5,2.4l0.3,2.1l-4.8-2.5L85.3,138.4z M28.1,138.5c0.2,0,0.4,0,0.5,0.2c0.1,0.1,0.2,0.5,0.5,0.7
		c0.6,0.3,0.6,0.4-0.5,0.9c-0.5,0.2-1.4,0.8-1.7,1.1c-1,0.7-1.4,0.4-1.5-0.3C25.3,140,27.1,138.5,28.1,138.5L28.1,138.5z M31.5,140
		c0.2,0,0.4,0,0.6,0.1c0.4,0.2,0.4,0.8,0,1c-0.8,0.5-2.1-0.2-1.4-0.8C30.9,140.1,31.2,140,31.5,140L31.5,140z M79.1,141l0,2.4
		l-4.9,2.6l0.3-2.4L79.1,141z M29,141.3c0.3,0,0.6,0.1,0.9,0.3c0.3,0.4,0.6,0.5,0.8,0.5c0.8,0,0.6,0.3-0.3,0.7
		c-1.2,0.6-2.1,1.3-2.9,2.1c-0.9,0.8-1,1-1.3,0.7C25.2,144.2,27.3,141.4,29,141.3L29,141.3z M85.3,141.3l5.1,2.8l0.4,2.4l-5.5-3.1
		V141.3z M32.4,143c0.2,0,0.4,0,0.6,0.2c0.4,0.3,0.2,0.9-0.3,1.1c-0.4,0.2-1.1,0.1-1.3-0.1C30.8,143.7,31.7,143,32.4,143L32.4,143z
		 M29.9,144.2c0.3,0,0.6,0.4,0.8,0.8c0.1,0.1,0.4,0.1,0.7,0.1c1,0,1.1,0.4,0.2,0.9c-0.3,0.2-1.2,0.8-1.8,1.3
		c-1.6,1.5-2.5,1.2-2.3-0.4C27.8,145.4,29.1,144.2,29.9,144.2L29.9,144.2z M85.3,144.3l5.6,3.1l0.5,2.6l-6.2-3.4V144.3z M79.1,144.3
		l0,2.4l-5.3,2.8l0.4-2.4L79.1,144.3z M85.4,147.3l6.3,3.8l0.2,2.5l-6.5-3.8V147.3z M79.1,147.8l0,2.3l-5.9,3l0.3-2.2L79.1,147.8z
		 M31.5,149.3c0.1,0,0.3,0,0.4,0.1c0.7,0.3,0.5,0.9-0.5,1.4c-1.1,0.6-1.4,0.5-1.6-0.2C29.5,150.1,30.7,149.3,31.5,149.3z
		 M97.4,149.6c11,2.5,21.7,8,32.2,17.6l-2.2,1.6c0,0-9.1-10.5-29.5-16.7L97.4,149.6z M85.5,150.7l3,1.8l0,0.5l-3.1-0.3L85.5,150.7z
		 M33.6,150.7c0.2,0,0.4,0.1,1.5,0.7c4.4,3.2,6.1,5.1,7.2,8.6c0.7,2.1,0.6,2-1.5,0.9c-2-1.1-4.8-2.9-6.5-5.2
		c-0.3,5.4,0.3,12.2,0.3,12.2c2.7,1.4,1.8,4.9,1.8,4.9c7-1.9,5.5,7.4,0.3,5.4c1.2,7-6.7,6.4-5.9,0.4c-6.3-0.2-5.2-7.2,0-6.2
		c-0.5-2.1,0.2-3.6,2.1-4.5l-0.3-9.2c0,0-5.2,7.5-6,7.3c-0.5-0.1-1.3-0.9,0-7.5c0.7-3.4,4.3-7.6,6.3-7.7
		C33.3,150.8,33.5,150.7,33.6,150.7L33.6,150.7z M38.7,150.8l0.9,0.6l-0.9,1.6l-1-0.7L38.7,150.8z M79.1,151.2l0,1.4l-2.8,0.2
		L79.1,151.2z M49.3,167.7c6.7,1,10.8,9.3,7.7,15.3c-0.4,0.3,0.2,1.6,0.6,1.1c3.3-4.7,0.8-16.1-8.7-17.2
		C47,166.6,48.7,167.2,49.3,167.7L49.3,167.7z M50.4,169.9c-0.5,1.5-0.7,1.8,0.7,1.2c2.4,0.9,5.1,4.9,4.2,8.9
		c-0.3,0.5,0.2-0.3,0.5,1C57.1,178.1,55.9,171.8,50.4,169.9z M81.4,177.4c6.9,0,13.6,1.5,19,4.6c-1.8,1-7.7,2.5-7.7,2.5
		c-3.3-3.7-5-7.4-10.9-5.5c-6.2,1.6-11.8,7-15,10.6c-3.2-1.9-4.9-2.4-7.7-2.5c-0.2,0-0.4,0.7-0.2-0.4c0.8-1.2,1.4-2.7,1.9-4.1
		C66.7,179.1,74.1,177.4,81.4,177.4z M102.7,182.1c-1.4,4.4-3.1,8.8-6.1,12.7l-0.4-1.9c2.8-4.3,4.1-8.3,4.7-10L102.7,182.1z
		 M100,183.3c0.2,0.3-2.7,7.2-4.2,8.5l-0.6-1.8c1.2-1.8,2.9-6.1,2.8-6.1L100,183.3z M82.3,183.3c-0.1,0-0.1,0.1-0.1,0.3
		c0,0.6,0.7,1.1,1.9,1.4c1.6,0.4,3.9-0.2,3.9-1c0-0.4-0.3-0.5-1.2,0c-1.2,0.5-2.2,0.4-3.7-0.4C82.6,183.4,82.4,183.3,82.3,183.3
		L82.3,183.3z M96.8,184.4c-0.5,1.7-1.1,2.9-2,4.2l-0.3-0.9c0.6-1,1-2.1,1.5-3.1L96.8,184.4z M95.1,185c-0.2,0.6-0.5,1.3-1,1.8
		l-0.7-1.4L95.1,185z M84.8,186.3c-1.1,0-2.2,0.4-2.3,1c0,0.3,0.4,0.2,2.4-0.1c1.1-0.1,1.6,0.5,2.6,0.4c0.5-0.1,0-0.5-0.1-0.7
		C86.9,186.4,85.8,186.2,84.8,186.3z M80.1,187.5c-0.1,0,0,0.3,0.4,1c0.2,0.4,0.3,1.2,0.3,1.7c-0.1,1.2,0,1.2,0.6,0.5
		c0.4-0.4,1.1-0.3,2.3,0c0.8,0.2,0.9,0.3,1.5-0.1c0.6-0.4,0.7-0.2,1.3-0.1c0.5,0.1,1-0.1,1.5-0.3c0.7-0.2,0.8-0.1,1.4,0
		c0.9,0.4,0.8,0.4,0.8-1.1c0.1-1.5,0-1.6-0.9-1.1c-0.8,0.5-1.4,0.7-2.7,0.3c-1.4-0.5-1.6-0.4-2.6-0.1c-1.2,0.4-1.8,0.5-2.7-0.1
		C80.6,187.8,80.2,187.5,80.1,187.5L80.1,187.5z M60.5,189.8l0.5,0.9c4.9,1.7,8.1,5.7,6.2,12.5l0.5,0.7
		C70.1,197.1,67.3,191.5,60.5,189.8L60.5,189.8z M62,192.7l0.7,1.4c3.7,1.8,3.4,6.7,3.2,6.5l0.6,1.3C67.4,198.6,65.7,194,62,192.7
		L62,192.7z M77.2,200c-0.1,0-0.2,0.1-0.3,0.2c-0.1,0.2,0.2,0.4,1.9,1.6c1.4,1,2.5,1.7,2.5,1.9c-0.1,0.1-0.9-0.1-1.6-0.3
		c-1.7-0.5-4.1,0.1-5.5,1.1c-0.3,0.2-0.9,0-1.4-0.2c-0.2-0.1-0.6-0.1-0.9-0.1c-1,0.3,0,1.3,2.5,2.6c3.1,1.6,4.8,1.7,6.7,0.8
		c1.3-0.7,1.7-0.2,0.3,0.6c-2.4,1.3-4.7,0.9-8.5-1.7c-1.8-1.2-2.5-1-1,0.1c2.7,2.1,7.8,4.7,10.9,1.5c0.1,0,0.4,0,0.5,0
		c0.7,0,0.7-0.2,0-1.3c-0.4-0.7-1.2-1.3-0.2-2.1c0.8-0.6,0.7-0.9-0.2-1.2c-0.2-0.1-0.2,0.1-0.6-0.2C80.2,201.3,78,200,77.2,200
		L77.2,200z M78.2,203.6c0.9,0,1.9,0.8,2.2,2.1c0,0.1,0,0.2,0.1,0.4l-0.8,0c-0.7-2.7-2.7-1.8-2.8-0.2l-0.7-0.1
		C76.3,204.2,77.3,203.5,78.2,203.6L78.2,203.6z M94.7,205.8l-0.5,0.1c-0.3-1-1.9-2.3-2.7,0.1l-0.7,0
		C91.3,202.7,94.2,203.2,94.7,205.8L94.7,205.8z M90.6,204.5c0.2,0.3-0.2,0.8-0.4,1.1c-0.2,0.2-0.7,0-0.9-0.2
		c-0.2-0.2,0-0.7,0.2-0.8C89.9,204.4,90.4,204.3,90.6,204.5L90.6,204.5z M81.3,204.6c0.2,0.5-0.4,0.9-0.5,0.7
		c-0.1,0-0.3-0.9-0.2-0.9C80.8,204.4,81.2,204.4,81.3,204.6L81.3,204.6z M95.3,204.5c0.3,0,0.7,0.2,0.8,0.6c0,0.3-0.3,0.5-0.6,0.5
		c-0.1,0-0.7-0.4-0.6-1C95,204.4,95.1,204.5,95.3,204.5z M75.8,204.7c0.1,0.2-0.1,0.7-0.2,0.8c0,0-0.7,0-0.7,0
		c0-0.1-0.1-0.5,0.1-0.8C75.3,204.5,75.7,204.5,75.8,204.7L75.8,204.7z M88.8,206.4c0.1,0,0.2,0,0.3,0.1c2,1.3,4.6,1.9,6.4,1
		c0.4-0.2,0.7-0.2,0.7,0c0,0.2-0.5,0.7-1.3,0.9c-1.9,0.6-5.1-0.2-6.2-1.4C88.5,206.7,88.6,206.4,88.8,206.4L88.8,206.4z M71.3,207.8
		c-0.2,0-0.3,0.1-0.2,0.3c0.1,0.8,5.5,3.9,7.7,4.3c1.8,0.3,3.3,0.2,4.4-0.5c2.7-1.6,2-3.8-0.6-2.1c-1.8,1.1-6.3,0.6-9-1
		C72.3,208.1,71.6,207.8,71.3,207.8L71.3,207.8z M95.4,208.9c0.7-0.3,1-0.4,1.1-0.3c0.7,0.6-0.4,1.5-2.5,1.8
		c-1.6,0.3-2.6,0.3-4.5-1.1c-1.5-1.1-0.8-1.6,0.1-1.1C91.8,209.6,93.4,209.6,95.4,208.9L95.4,208.9z M71.8,212.3
		c4.7,1.7,10.1,5.8,12.5,10.8l-1.5,0c-1.6-2.9-4.8-6.5-10.1-9C72.2,213.7,72,213,71.8,212.3L71.8,212.3z M96.6,214.6v1.6
		c-2.9,1.5-5.4,3.8-7.2,6.9l-1.7,0C89.6,219.7,92.5,216.6,96.6,214.6L96.6,214.6z M96.6,217v1.9c-1.9,1.1-3.4,2.5-4.5,4.2h-2
		C91.8,220.5,93.9,218.3,96.6,217L96.6,217z M74.9,218.5c1.4,0.8,3.7,3,4.6,4.7l-0.8,0c-0.8-1-2-2.1-3-3
		C75.2,219.4,74.9,218.5,74.9,218.5L74.9,218.5z M96.6,219.7C96.7,219.7,96.7,219.7,96.6,219.7v1.6c0,0-1.4,1-2,1.8H93
		C94.1,221.1,96.4,219.7,96.6,219.7L96.6,219.7z M96.6,222.3v0.9l-1,0C95.7,223,96.3,222.4,96.6,222.3L96.6,222.3z M77.1,222.5
		c0.3,0.2,0.5,0.7,0.5,0.7l-0.3,0L77.1,222.5z"/>
	
		<path id="path3052-2-5-5_1_" class="st2" d="
		M36.6,188.7c3.3,0.1,10.2-1.1,10.1-1c0,0,21.6,36.1,20.7,35.7c-0.3,0.4-27.6,0.4-27.6,0.4C39.2,223.8,45.6,210.5,36.6,188.7z
		 M46.4,163.3c10.5-8.8,21.5-8.8,33.3-10l0.3-29.8l4.3,2.6l0.1,27.3c15.6,1.2,29.1,6.9,40.6,17c0.1,0.2-16.7,9.3-24.1,11.7
		c-5.7-4.2-20.9-6.9-30.9-3.7c-2.8,0.9-6.1,2.3-9.4,3.4c2.4-14.4-8.8-16.5-12.7-17.2C47.4,164.5,46.8,163.4,46.4,163.3z M32.9,167.9
		c0.2-3.1,0-6.1-0.2-9.3c-0.1-0.7-6.1,9.3-6.5,6.9c-0.9-6.1,2.2-13.9,6.9-14.8c0.5-0.6,9.8,5.2,9.4,10.2c-0.1,1.6-8.3-5.5-8.4-5.1
		c-0.2,0.8,0.2,12.1,0.5,12.1c2.4,1.3,1.8,3.1,2.1,4.5c6.3-0.9,6,6.1,0,5.9c0.4,8.4-7.3,4.6-5.8,0.1c-7.8-0.4-3.9-7.7-0.1-6.1
		C30.6,170.5,31,168.6,32.9,167.9L32.9,167.9z M41.8,132.5c-0.4-0.2-16.6-1-16.6-1l0.8-39.5c8.2-19,39.2-10.1,34.3-6.1
		C45.6,95.6,43.3,113.4,41.8,132.5z M71.6,116.2l-0.5-4.4c-1.3-2.7,32.9,13.2,33.3,13.5l1,4.7C105.6,132.1,83.6,121.7,71.6,116.2z
		 M133.8,108.4c-2.6,19.7-2.4,39.5-16.9,46.4c10.9,10.6,20,2.4,33.7-4.4c0.4,0-0.5-42.2-0.7-42.1
		C144.6,108.5,139.2,108.6,133.8,108.4z M141.4,89.2c-2.7-0.4-9-7-7.7-8.9c0-1.5,7.8,4.2,8.6,5.7c-0.4-0.5-0.5-13.9-0.6-13.4
		c-0.3,0.2-2.4-1.3-1.8-4.1c-6,1.3-5.6-6.5-0.4-6.1c-0.7-7.1,7.9-4.5,5.6,0.3c7.4-1.4,6.1,6.9,0.5,5.6c0.5,3.2-0.8,4-2.6,4.7
		c0.1,1.3,0.6,10.1,0.6,10.1s5.4-8.4,5.8-7.7C150.9,77.4,148.6,91.3,141.4,89.2L141.4,89.2z M116.2,58.3
		c-2.5,8.5,4.3,18.2,10.6,18.2c1.3-0.2,3.7,0.5,2.9,1.2c-10,8.2-33.4,9.9-33.4,9.5c0.2,10-0.2,20.2-0.4,30.2l-4.3-2.6
		c-0.1-9.1-0.4-18.5-0.6-27.7c-15-2-28.4-6.8-39.1-17.2c7.1-5.3,15.5-8.6,23.6-11.9C85.7,63.4,99.9,66.5,116.2,58.3L116.2,58.3z
		 M108.8,17.8c-0.5-0.2,1.6-1.8,1.6-1.8s17.4,0.2,26,0.1c-3.1,13-0.9,24.6,3.1,35.8c-1.1-0.3-8.2,0.3-10,1.1
		C129.3,53.4,109,18.2,108.8,17.8z"/>
	
		<path id="path3050-3-4-7_1_" class="st0" d="
		M68,223.4l-21-35.8l3.2-1.4l21.7,37.2L68,223.4z M30.6,175.5l3-3.1l3,3.1l-3.2,3L30.6,175.5z M98.1,155.5l-0.4-2.6
		c12.1,3,22,9.3,29.2,16.1l-1.7,1.3C125.7,170.1,107.9,156.7,98.1,155.5L98.1,155.5z M63.3,153.1l3.5-0.7l-0.1,2.1l-3.4,0.7
		L63.3,153.1z M133.9,151.3l-2.1-1.7l1.5-1.8l2,1.6L133.9,151.3z M62.7,133.9c5.2-2.5,9.3-12.5,8.8-13.2l2.8,0.7l-6.6,27.4l-4.5,1
		C63.1,144.6,62.7,139.2,62.7,133.9z M96.9,149.4c-1.8-5.8-5.2-18.8-5.2-18.8c0.1,0.4,11.3,3.6,15.3,2.5c1.7,2.3,3.6,4.4,5.5,6.3
		C108.3,143.4,103.2,146.8,96.9,149.4z M143.7,128.4l-2-1.7l1.8-2.2l2.2,1.7L143.7,128.4z M118,127.3c-1.6-2.9-1.7-6.2,1.3-9.4
		L118,127.3z M56.9,122.2c-0.1-2.9,0.3-5.8,1-8.5C59.6,116.9,59.6,120,56.9,122.2z M101.8,119.5c0,0,4.3-20.2,6.2-28.1l4.8-1.1
		l-0.2,16.3c-4.8,3.9-8.1,13.2-7.9,13.2L101.8,119.5z M32.4,116.2l-2.1-2l1.8-1.9l1.8,1.9L32.4,116.2z M69.8,108.3
		c-1.5-2.2-3.6-4.5-5.7-6.8c3.6-5,9.4-7.9,15.7-10.1l4.2,19C79.2,108.9,74,107.4,69.8,108.3L69.8,108.3z M40.5,91.4l1.5-1.8l1.9,1.5
		l-1.5,2L40.5,91.4z M109.6,85.9l3-0.7l0.1,2.3l-3.6,0.7L109.6,85.9z M49.4,71.4l2.3-1.4c8,7.2,16.8,12.2,26.4,15l0.3,2.7
		C67.5,84.3,57.6,79.6,49.4,71.4L49.4,71.4z M142.6,68.5l-3-2.9l2.7-3l3.2,2.7C144.4,66.9,142.6,68.5,142.6,68.5z M126.2,54.3
		l-22.1-38l3.2,0L129,52.8L126.2,54.3z"/>
	
		<path id="path3048-5-8-9_1_" d="
		M103.9,15.6l-5.3,0l30,60.7c0,0-0.8,0.1-2.4-0.3c-7.2-1.9-11.6-9.6-10-17.1c0.2-0.6,0.2-1.1,0.2-1.1c-18.6,8.5-30.1,5.3-40.8,0
		L71,59.7c0.3-2.8,3.7-13.2,8.8-18.1l0-5.3l-0.1-2.5l-0.4-4.5c-7.6,7.2-16.5,18.5-17.6,34.7c0,0-6.9,3.6-12.8,7.5
		c0.3,0,9.2,10.9,30.5,17.1L78.5,85c3.2,0.9,7.7,1.6,12.2,2.2l0.6,27.5l5.1,3l0.2-30.4c0.2,0.1,8.1-0.3,12.4-1.3l-0.6,2.9l4.2-0.8
		v2.1l-4.6,1.1l-6.6,28.5l3.9,0.9c1.1-5.7,4-10.4,8.1-13.2l0-1.1c2.6-1.9,8.1-3.4,8.2-3.4c1.9-9.2,6.2-15.6,10.9-21.7l-2.2-3
		l8.5-3.1l-11.8-20.2c4.5-3.1,13.5-2,13.5-2c-3.8-10.5-7.2-21.2-3.4-37.1l-32.7,0L103.9,15.6z M114.6,16.3c0,2.6-3.4,2.4-3.9,0
		L114.6,16.3z M135.7,16.2c-2.1,12.1-1.4,23.9,3.4,35.2c0,0-0.7,0-0.8,0c-0.1,0,0.1-0.6,0-0.8c-0.1-0.4-0.8-0.2-1.4,0.2
		c-0.3,0.2-0.5,0.4-0.7,0.5c-0.6,0.3-3.6,0.3-3.6,0.3c1-0.7,2.4-2.6,1.6-3.7c-0.2-0.2-0.3-0.1-0.5,0.2c-0.9,1.5-1.3,1.8-2.4,1.8
		c-1.8,0-3.1-1.1-3-2.8c0.1-1.7,2.6-2.5,2.2-0.9c-0.1,1.4,1.3,1.7,1.6,0.3c0.1-0.5,0-0.3,0.1-0.9c2.8-1.5,1.3-4.6-1.4-3.9
		c-0.6,0.2-0.7,0.2-1.1,0c-0.8-0.4-1.5-0.3-1.8,0.3c-0.3,0.5,0.1,0.9,0.7,0.9c0.6,0,0.7,0.3,0.7,0.7c0,0.9-1.5,1.3-2.5,0.8
		c-2.6-1.3-1.7-4.9,1.4-4.8c0.9,0,1.3,0.1,1.4-0.1c0.1-0.6-1.3-1.5-2.1-1.4c-0.7,0.1-1.1,0.3-0.7-0.6c0.2-0.9,0.2-1.4,0-2.1
		c-0.5-1-0.5-0.5-0.8,0.3c-1,1.7-2.5,2-3.8,1.1c-1.2-0.9-1.2-2.5,0-3.6c0.8-0.8,1.7-0.3,1.2,0.6c-0.2,0.4,0,0.8,0.3,0.9
		c0.7,0.2,1.2-0.2,1.2-1.1c0-0.5-0.1-0.6,0.7-1.1c2.2-1.3,0.6-4.8-2-3.7c-0.6,0.2-0.7,0.5-0.9,0.4c-1.1-1-2.6,0.3-1.7,0.9
		c0.4,0.2,0.9,0.3,1,0.3c0.2,0.1,0.1,0.4-0.2,0.8c-1,1.2-3.4,0.6-4-1.1c-0.7-2,1.4-4.2,3-3c0.5,0.4,0.9,0.4,0.9-0.1
		c0-0.8-1-1.7-2.3-1.6c-1.3,0.1-1.2,0.3-0.5-0.9c0.5-1.1,0.5-2.1,0-2.7c-0.4-0.5-0.7-0.6-0.7-0.1c0.3,1.6-1.5,3.1-3,2.4
		c-1.4-0.7-2.2-2.3-1.5-3.7c0.7-1.3,2.2-1.4,2,0c-0.1,0.9,0.5,1.4,1.2,0.8c0.2-0.2,0.3-0.4,0.3-0.9c0-0.6-0.2-0.8,0.2-1.2
		c1.1-0.1,1.1-2.4,1-2.5L135.7,16.2L135.7,16.2z M116.5,16.3c0.7,0,1.2,0.2,1.2,0.9s-0.5,1.2-1.2,1.2c-0.7,0-1.2-0.6-1.2-1.2
		S115.8,16.3,116.5,16.3z M104.4,16.4h2.7l21.6,36.3l-2.6,1.3L104.4,16.4z M108.9,17.7c1.3,0.8,2.5,1.4,4.2,1.5
		c-0.5,1-0.9,2.1-1,3.9L108.9,17.7z M113.3,25c1.3,0.5,2.5,1.2,4.7,0.5c-1.2,1-1.8,2.3-2.3,3.6L113.3,25z M124.5,29.3
		c0.6,0,1.1,0.5,1.1,1.1s-0.5,1.1-1.1,1.1s-1.1-0.5-1.1-1.1S123.9,29.3,124.5,29.3z M117.5,32.2c1,0.4,2,0.6,3.1,0.5
		c-0.6,0.8-0.7,1.9-0.8,3.3L117.5,32.2z M120.8,37.9c0.9,0.4,1.9,1.1,3.8,0.9c-1.2,2.1-1,2.7-1.1,3.6L120.8,37.9z M131.7,42.1
		c0.7,0,1.2,0.5,1.2,1.2c0,0.7-0.5,1.2-1.2,1.2c-0.7,0-1.2-0.5-1.2-1.2C130.5,42.7,131,42.1,131.7,42.1z M125,44.9
		c0.8,0.5,2.4,0.7,2.4,0.6c-0.1-0.1-0.5,1.6-0.5,2.6L125,44.9z M128.7,51c1.2,0.7,2.4,0.6,3.2,0.7c-0.8,0.2-1.6,0.4-2.4,0.7
		L128.7,51z M142.4,57.8c-2.8,0.2-3.4,2.3-3.1,4.5c-2.1-0.3-4.5,1.7-3.9,4.2c0.6,2.4,2.8,2.4,4.3,2.3c-0.1,0.6-0.4,2.5,1.9,4.1
		l0.3,12.3c0,0-1-0.9-1.7-1.6c-2.9-2.9-7.3-5-7-3.4c0,0.2,0.1,0.9,0.2,1.4c0.5,2.8,4.2,5.8,6.7,7.3c0.9,0.5,1.5,1,1.5,1
		c-4.7,5.1-7.3,10.5-7.9,15.9c-0.6,5-1.1,9.5-1.5,14.1c-1.9,23-11.8,28.8-12.2,30l-0.2,3.1l-2.7-0.2l-3.2,2.8
		c10.4,5.4,16.4,11.9,16.3,12c8.3-5.4,15.4-11.5,22.1-17.8l-0.1-51.3c0,0-0.6,0.2-0.7,0.2c-0.5,0-0.6,0.2-0.8,1.2
		c-0.1,0.5-0.4,1-0.6,1.4c-0.5,0.7-0.3,0.3,0.3,0.6c1.3,0.5-0.4,3-2.3,3.3c-1.4,0.2-2.1,0.5-2.3,0.8c-2.9,2.5-5.7,2.9-7.9,2
		c-1.1-0.5-2.2-1.1-2.6-2.2c-0.9-2.5,1-6.1,2-8.2c2-3.8,5.3-6.7,5.3-6.7l-0.5-0.6c0,0,0.6,0,0.8,0c2.8-1,3-1.1,3.5-1.8
		c0.5-0.8,1.8-2.9,2.1-3.6c1.5-3.8,1.7-4.1,1.7-6.6c0-2-0.1-3.4-0.5-3.5c-2.2,1.7-4.5,5.8-5.8,8.1c-0.5-3.5-0.6-9.7-0.6-9.7
		c0.5-0.5,3.2-0.2,2.6-4.6c2.4,1.1,4.9-0.6,4.8-2.9c-0.2-3.6-2.9-3.5-5.1-3C146.5,60.3,144.5,57.7,142.4,57.8L142.4,57.8z
		 M142.4,58.1c2.9,0.1,3.5,3.3,1.7,5.2c0,0-1.2-0.9-1.8-1.4c-0.6,0.5-0.8,0.9-1.4,1.3c-0.8-0.6-1.2-1.6-1.2-2.5
		C139.7,59.2,141.3,58.1,142.4,58.1L142.4,58.1z M75.6,58.2c11.8,6.7,26.6,7.1,40.2,0.3l-0.2,1.1l-1.5,0.8l0.8,1.6l0.5-0.2l0,1
		c-11.2,6.1-29.9,7.3-44.6-2.8l1.3-0.6c0,0,0.3,0.2,0.6,0.4c0.5,0.3,1.4,0.9,2,1.1l0.9-1.3c0,0-1.4-0.8-1.2-0.9L75.6,58.2L75.6,58.2
		z M76.7,60.3L76,61.8l1.7,0.9l0.6-1.6L76.7,60.3z M70.3,60.4c18.2,11.5,35.2,8.1,45.3,3.4l0.1,1.2c-13.1,5.6-30.4,7.1-46.8-4
		L70.3,60.4z M113.1,61.2l-1.6,0.7l0.6,1.5l1.7-0.7L113.1,61.2z M68.1,61.5c14.8,9.6,30.7,11.5,47.8,4.4l0.7,1.8
		c-16.7,6.7-34.2,6-50.3-5.5L68.1,61.5z M79.4,61.5l-0.7,1.6l1.8,0.7l0.5-1.6L79.4,61.5z M110.6,62.2l-1.6,0.5l0.5,1.5l1.7-0.6
		L110.6,62.2z M82.2,62.6l-0.4,1.6l1.9,0.5l0.3-1.6L82.2,62.6z M150,65.3c0.3,2.8-3.8,4.1-5.3,1.5l1.3-1.6l-1.2-1.1
		C146.5,61.5,149.8,62.7,150,65.3L150,65.3z M65.8,62.7l4.4,3.1l-3.2,5l-4.8-3.2L65.8,62.7z M142.3,62.8l2.8,2.4l-2.6,3l-2.6-2.7
		L142.3,62.8z M140.6,63.7l-1.6,1.8l1.7,1.8c-2,2.2-5,0.8-5-1.8C135.7,63.5,138.8,61.5,140.6,63.7L140.6,63.7z M107.9,63l-1.7,0.5
		l0.4,1.5l1.7-0.5L107.9,63z M85.2,63.4L84.9,65l1.9,0.4l0.3-1.6L85.2,63.4z M105.1,63.7l-1.8,0.4l0.3,1.6l1.8-0.4L105.1,63.7z
		 M142.5,64.1l-1.5,1.5l1.5,1.5l1.5-1.5L142.5,64.1z M88.3,64.1L88,65.7l2,0.3l0.2-1.6L88.3,64.1z M101.9,64.3l-1.8,0.2l0.2,1.6
		l1.9-0.2L101.9,64.3z M91.2,64.5l0,1.7l1.8,0.1v-1.6L91.2,64.5z M99,64.7l-1.8,0.1l0,1.6l1.8-0.1L99,64.7L99,64.7z M66.4,64.7
		c-1,0-1.9,0.9-1.9,1.9c0,1.1,0.8,1.9,1.9,1.9s1.9-0.9,1.9-1.9C68.3,65.6,67.5,64.7,66.4,64.7z M96,64.8l-1.8,0l0,1.6l1.8,0L96,64.8
		L96,64.8z M142.5,64.8l0.8,0.8l-0.8,0.8l-0.8-0.8L142.5,64.8z M66.4,65.4c0.7,0,1.2,0.6,1.2,1.3c0,0.7-0.6,1.3-1.2,1.3
		c-0.7,0-1.2-0.6-1.2-1.3C65.2,65.9,65.7,65.4,66.4,65.4z M59.7,65.5l2.5,2.1c-0.8,1.5-3.3,4.8-3.3,4.8l-4.7-3.8l2.4-1.4
		c-0.1,0.3-0.2,0.5-0.2,0.9c0,1,0.8,1.9,1.9,1.9c1,0,1.9-0.8,1.9-1.9c0-1-0.8-1.8-1.7-1.9L59.7,65.5z M58.3,66.8
		c0.7,0,1.3,0.6,1.3,1.3c0,0.7-0.6,1.3-1.3,1.3c-0.7,0-1.3-0.6-1.3-1.3S57.6,66.8,58.3,66.8z M144.1,67.4c0,0,0.7,0.3,0.9,0.5
		c1.4,2.1-0.1,4.6-2.3,4.5c-2.7-0.1-3.4-3.4-1.5-4.8l1.5,1.4L144.1,67.4z M75.2,68.2l5.2,2l-2,5.7l-5.7-2.4L75.2,68.2z M53.7,68.8
		c21.3,19.4,51.6,20.7,73.7,7.9l1.3,0l0.7,0.7C104.3,92.4,73.1,89.1,52,69.9L53.7,68.8z M112.4,70l1.7,5.7l-5.8,1.5l-1.3-5.7
		L112.4,70z M51.5,70.2C58,76.5,67.1,82,77.9,85.1l0.3,2.3c-11.4-3.5-20-8.1-28.4-16.1L51.5,70.2z M76.5,70.3c-1,0-1.9,0.8-1.9,1.9
		c0,1,0.8,1.9,1.9,1.9c1,0,1.9-0.8,1.9-1.9C78.4,71.1,77.6,70.3,76.5,70.3z M67.2,70.7l5.4,2.9L70,79l-5.7-3.1L67.2,70.7z
		 M76.5,70.9c0.7,0,1.3,0.6,1.3,1.3c0,0.7-0.6,1.3-1.3,1.3c-0.7,0-1.3-0.6-1.3-1.3S75.8,70.9,76.5,70.9z M85.5,71.7l5.2,0.8
		l-0.2,5.8l-6-0.7C84.6,75.5,85.5,71.7,85.5,71.7z M110.5,71.8c-1,0-1.9,0.8-1.9,1.9c0,1,0.8,1.9,1.9,1.9c1,0,1.9-0.8,1.9-1.9
		C112.4,72.7,111.5,71.8,110.5,71.8z M110.5,72.4c0.7,0,1.3,0.6,1.3,1.3c0,0.7-0.6,1.3-1.3,1.3c-0.7,0-1.3-0.6-1.3-1.3
		S109.8,72.4,110.5,72.4z M68.3,72.5c-1,0-1.9,0.8-1.9,1.9c0,1,0.8,1.9,1.9,1.9c1,0,1.9-0.8,1.9-1.9C70.2,73.4,69.4,72.5,68.3,72.5z
		 M101.5,72.5l0.7,5.8l-5.7,0.3l-0.3-5.8L101.5,72.5z M142,73.1h0.8c0.1,5,0.5,10.8,1,15.1c0.1,0.6,0.1,0.8,0.1,0.9
		c-0.6,1-1.2-0.3-1.5-3.1c-0.1-0.8-0.2-1.9-0.3-2.7C141.9,81,142,73.1,142,73.1L142,73.1z M46.4,73.1c-8.5,5.3-22.7,18.1-22.6,18.4
		l0.1,49.1l1.1,0.1l0.9-1.8c-1.4-0.4-1-3,1.7-3.6c0.5-0.1,1.9-0.6,2.2-0.8c2.1-1.6,5.4-2.5,7.7-1.9c3.4,0.9,4.1,3.4,2.5,7.8
		c-1.3,3.5-3.9,7.9-6.3,9.2c-0.2,0.1-0.6,0.3-0.6,0.3s0.6,0.5,0.8,0.6c6.6-3.9,10-17.7,9.8-26.4c0.3-8.8,1.8-17.7,5.3-24.2
		c5.9-10.7,13.6-15,13.6-15C62.6,85,52.1,78.6,46.4,73.1z M68.3,73.1c0.7,0,1.3,0.6,1.3,1.3c0,0.7-0.6,1.3-1.3,1.3
		c-0.7,0-1.3-0.6-1.3-1.3S67.6,73.1,68.3,73.1z M120,73.3l2,5.4l-5.6,2.3l-2-5.7L120,73.3z M87.7,73.4c-1,0-1.9,0.8-1.9,1.9
		c0,1,0.8,1.9,1.9,1.9c1,0,1.9-0.8,1.9-1.9C89.6,74.2,88.8,73.4,87.7,73.4z M99.1,73.8c-1,0-1.9,0.8-1.9,1.9c0,1,0.8,1.9,1.9,1.9
		c1,0,1.9-0.8,1.9-1.9C101,74.7,100.2,73.8,99.1,73.8z M87.7,74c0.7,0,1.3,0.6,1.3,1.3c0,0.7-0.6,1.3-1.3,1.3
		c-0.7,0-1.3-0.6-1.3-1.3C86.5,74.6,87,74,87.7,74z M99.1,74.5c0.7,0,1.3,0.6,1.3,1.3S99.8,77,99.1,77c-0.7,0-1.3-0.6-1.3-1.3
		S98.4,74.5,99.1,74.5z M118.2,75.1c-1,0-1.9,0.8-1.9,1.9c0,1,0.8,1.9,1.9,1.9c1,0,1.9-0.8,1.9-1.9
		C120.1,75.9,119.2,75.1,118.2,75.1z M118.2,75.7c0.7,0,1.3,0.6,1.3,1.3c0,0.7-0.6,1.3-1.3,1.3c-0.7,0-1.3-0.6-1.3-1.3
		C116.9,76.3,117.5,75.7,118.2,75.7z M78.5,75.8l5.6,1.4l-1.3,5.9l-6.3-1.7L78.5,75.8z M149.5,75.7c0.9,2.9-0.8,6.6-0.9,6.8
		c-1,2.9-2.2,5.3-2.7,5.4c-0.4,0.1-0.5,0.1-0.5-0.3c0-0.5,1.3-4.3,2.2-6.7c0.2-0.6,0.8-2.4,0.8-2.7c0-0.4-0.4,0.3-0.9,1.4
		c-0.9,2.2-2.2,4.6-2.5,6.8c-0.2,1.8-0.5,1.5-0.8-0.6c-0.3-2.9,0.3-4.4,3.6-8.5C148.6,76.4,149.4,75.4,149.5,75.7L149.5,75.7z
		 M108.3,77.2l1.6,5.8l-6.6,1.1l-1-5.9L108.3,77.2z M80.6,77.8c-1,0-1.9,0.8-1.9,1.9c0,1,0.8,1.9,1.9,1.9s1.9-0.8,1.9-1.9
		C82.4,78.6,81.6,77.8,80.6,77.8z M90.5,78.1l6,0.3l0.1,6L90,84.2L90.5,78.1z M80.5,78.4c0.7,0,1.3,0.6,1.3,1.3
		c0,0.7-0.6,1.3-1.3,1.3c-0.7,0-1.3-0.6-1.3-1.3C79.3,78.9,79.9,78.4,80.5,78.4z M105.7,78.9c-1,0-1.9,0.8-1.9,1.9
		c0,1,0.8,1.9,1.9,1.9c1,0,1.9-0.8,1.9-1.9C107.6,79.8,106.7,78.9,105.7,78.9z M93.3,79.4c-1,0-1.9,0.8-1.9,1.9c0,1,0.8,1.9,1.9,1.9
		c1,0,1.9-0.8,1.9-1.9C95.1,80.2,94.3,79.4,93.3,79.4z M105.7,79.5c0.7,0,1.3,0.6,1.3,1.3c0,0.7-0.6,1.3-1.3,1.3
		c-0.7,0-1.3-0.6-1.3-1.3S105,79.5,105.7,79.5z M93.3,80c0.7,0,1.3,0.6,1.3,1.3c0,0.7-0.6,1.3-1.3,1.3c-0.7,0-1.3-0.6-1.3-1.3
		S92.6,80,93.3,80z M134.1,80.4c0.1,0,0.2,0,0.3,0c1.3,0,5.9,3.2,7,5.2c1,1.7,0.5,2.4-0.6,0.9c-1.5-1.7-4.3-4.2-4.7-4.2
		c-0.4,0,0.1,0.6,1.9,2.3c1.8,1.7,3.7,4,3.7,4.4c0,0.3-0.4,0.2-0.9-0.1c-1.1-0.7-2.1-1.4-2.6-1.9c-0.3-0.3-0.9-0.8-1.3-1.2
		c-1.7-1.5-3.5-4.8-3-5.5C134,80.4,134.1,80.4,134.1,80.4L134.1,80.4z M50.5,80.9c1.2,0,2.5,0.7,2.5,2.1c0,1,0.1,1,1,1
		c0.8,0,3.2,0.3,3.2,0.3l0,2.7c0,0-1.1,0-2.5-0.1c-2.2-0.1-2.2-0.1-2.5,0.9c-0.1,0.4-0.3,0.6-0.7,0.9c-2,1.3-4-1.1-2.7-3.4
		c0.4-0.8,0.5-1.1,0.2-1.5C48.3,82.4,49.1,80.9,50.5,80.9L50.5,80.9z M51,82.2c-0.2,0-0.5,0.1-0.8,0.4c-0.3,0.3-0.3,1.3,0,1.8
		c0.3,0.5,0.3,0.7-0.1,1c-0.7,0.6-0.7,1.8,0,2.3c0.6,0.4,1.2-0.1,1.2-1c0-0.9,0.6-0.9,0.6-0.9l4.2,0.1l0-0.7L53.1,85
		c-0.4,0-0.9,0-1.2-0.3c-0.3-0.2-0.7-0.7-0.4-1.2C52.1,82.9,51.6,82.2,51,82.2L51,82.2z M41.9,83.8l2,3.4l2.3,0.1l0.2,2.1l2.8,1.8
		l-2.9,1.7L46.2,95L44,95.3l-2,2.6l-2-2.6l-2.2,0l0-2.1l-3-1.9l3.2-1.8l0-2.5l2.3-0.2L41.9,83.8L41.9,83.8z M112.5,85.4l0.1,2.1
		l-3.3,0.6l0.4-2.1L112.5,85.4z M91.5,87.4l4.4,0.1l-0.3,29c0,0-0.9,0-1,0l0-1.1l-1.4,0l-1.4-0.9L91.5,87.4z M41.9,88.2l-2.6,3.3
		l3.1,2.8l2.8-3.2L41.9,88.2z M92.8,88.6V90h1.8v-1.3H92.8z M41.9,89.8l1.8,1.3L42.3,93l-1.8-1.5L41.9,89.8z M112.6,90.5l-0.1,15.9
		c-6.1,4.8-7.9,13.2-7.9,13.2l-2.5-0.1l6.3-28L112.6,90.5z M79.7,90.9c-5.5,2.6-10.9,4.6-16.4,10.8c2.1,1.9,4.3,3.8,6.3,7.1
		c4.5-0.7,9.5,0.1,15,2.3L79.7,90.9z M92.8,91.2v1.4h1.8v-1.4H92.8z M31.5,93.2c0.1,0.4,0.2,0.9,0.2,0.9c4-0.3,3,4.3,0.4,4.5
		c-0.3,0,0.2,0.8,0.8,1.1c1.5,0.6,2.6,0.2,3.6-1.1c0.8-1,0.8-1.2,0.8-1.2l2.5,1.3c0,0,0.1,0-0.4,1.1c-0.8,2.1,0.4,4.6,1.3,2.8
		c0.5-1,1.9-1.6,2.8-1.1c1.1,0.5,1.5,2.5,0.7,3.8c-0.2,0.4-0.2,0.5-0.1,0.8c0.2,0.5,0.4,1.9,0.1,2.4c-0.3,0.6-0.7,0.7-1.3,0.2
		c-0.9-0.7-1.5-0.9-3.1-1.4c-2.8-0.5-3.4-1.5-4.5-3.9c-3.4,1-8.4-1.1-7.7-6.1c0.3-1.1,0.4-3.2-0.2-3.7c-1.1-0.9,0.1-2.1,1.8-2.3
		C30.6,91.2,31.3,92.5,31.5,93.2L31.5,93.2z M79.2,91.8l4.4,18.5c-4.8-1.8-9.5-3.2-13.7-2.1c-1.9-3.1-3.5-4.6-5.7-6.6
		C68.3,96.5,73.6,93.7,79.2,91.8L79.2,91.8z M29.6,92.7c-0.3,0-0.6,0.1-0.9,0.4c0,0,0.3,0.2,0.5,0.6c0.3,0.5,0.3,0.5,0,1.7
		c-1.3,4.8,1.8,8,6.3,6.6c1.1-0.3,1.1-0.3,1.4,1c0.5,2.2,2,3.3,5,3.7c0.2,0,0.5,0.1,0.7,0.2c1.3,0.9,0.8-0.3,0.4-0.7
		c-0.3-0.3-0.7-0.7-0.7-0.7s0.4-0.3,0.6-0.4c0.8-0.5,1.2-2.2,0.5-2.6c-0.6-0.3-1.7,0.2-1.7,0.8c0,1.2-1.5,1.3-2.8,0.3
		c-1.7-1.3-0.2-4.5-0.2-4.5l-1-0.4c0.1,0.1-2,3.2-4.6,2.1c-1.8-0.7-3.1-2.9-2.3-3.5c0.6-0.2,1.4,0.2,1.8-0.2c0.9-0.7,0.2-2-1.2-2
		c-0.3,0-0.9,0.1-0.9,0.1c0.1-0.6,0.2-1,0.1-1.6C30.6,93.1,30.2,92.7,29.6,92.7L29.6,92.7z M92.8,94.1v1.1l1.8,0v-1.1L92.8,94.1z
		 M92.8,96.4v1.2h1.8v-1.2H92.8z M92.8,99v1.2h1.8V99H92.8z M92.8,101.3v1.3h1.8v-1.3H92.8z M92.8,103.7v1.2h1.8v-1.2H92.8z
		 M92.8,106.1v1.2h1.8v-1.2H92.8z M32.7,107.3l1.6,2.6l1.8,0.1l0.1,1.8l3.1,2.4l-2.7,2l-0.2,2l-2.2,0.1l-1.8,3l-2.2-2.6l-1.7-0.3
		l-0.2-2.4l-2.7-2l2.5-2l0.2-2.1l2.1,0.2L32.7,107.3z M135,108.5c0.2,0,0.4,0.1,0.5,0.2c0.7,0.3,0.9,0.4,2.6,0.5
		c2,0.1,2.7,0.3,3.6,0.9c0.6,0.4,0.6,0.4,1.3,0c2.8-1.8,5.9-0.2,6.2,3.3c0.1,0.9,0.2,1.3,0.5,2c0.2,0.5,0.5,0.9,0.3,1.3
		c-0.4,1-2.6,1.1-3.7-0.4c-0.2-0.2-0.4-0.3-0.7-0.3c-0.6,0.2-2.1-1-2-1c-0.1,0.8-0.2,1.5-0.3,2.6l-2.6,0c0,0-0.1-0.5-0.2-2.1
		c-0.1-1.9-0.6-2.5-1.2-1.4c-1,1.8-3.8,1-4-1.1c-0.1-0.7-0.1-0.8-0.5-1.1C133.5,110.6,133.9,108.5,135,108.5L135,108.5z M92.8,108.6
		v1.1h1.8v-1.1H92.8z M135.3,109.8c-0.5,0-0.2,1,0.6,1.4c0.5,0.3,0.5,0.3,0.4,1.1c-0.1,1.5,1.3,2.3,2,1c0.1-0.2,0.2-0.5,0.1-0.7
		c-0.3-1.1,2.1-0.8,2.7,0.3c0.1,0.3,0.3,1,0.3,1.7c0.1,0.7,0.1,1.4,0.1,1.4h0.8c0,0,0-0.5,0-0.9c0.2-1.9,1-3.1,2.1-3.1
		c0.5,0,0.5,0.1,0.2,0.7c-0.6,1.1,0,1.8,1.3,1.8c0.8,0,0.8,0,1.1,0.6c0.3,0.7,0.6,0.9,0.9,0.7c0.2-0.1,0.2,0-0.1-2.2
		c-0.4-3.4-2.4-4.3-5.1-2.4c-0.8,0.5-0.9,0.5-1.6-0.1c-1-1-1.6-1.2-3.6-1.3c-0.9,0-1.9-0.1-2.1-0.2
		C135.5,109.8,135.4,109.8,135.3,109.8L135.3,109.8z M71.8,110.7c-0.4,0-0.9,0.1-1.4,0.1c0.5,2.6,0.7,5.2,0.9,7.8
		c2.3-0.4,5.2,0,9,1.8c2.4,1.1,5.3,3,8.3,5.1c3.3,2.3,7.1,3.7,10.4,4.4c4,0.9,7.2,0.8,7.1,0.6c-0.2,0-1.4-6.4-1.3-7.7
		c-5.5-0.5-10.8-2.6-14.9-5.3C84.6,113.8,78.4,110.6,71.8,110.7z M92.8,110.9v1.1h1.8v-1.1H92.8z M32.1,111.1l-2.9,3.1l3.2,3
		l2.7-3.1L32.1,111.1z M32.1,112.5l1.7,1.6l-1.3,1.7l-1.9-1.6L32.1,112.5z M73.3,112.8c0.4,0,0.8,0.3,2.1,1c1.1,0.8,1.9,1.2,1.6,0
		c0.2-0.3,1.4,0.8,2.9,1.5c1.7,1.4,1.7,1,1.9,0.4c0.2-0.5,0.5-0.2,1.9,1.1c1.8,1.7,1.6,1.7,2,1.3c0.4-0.8,0.5-0.8,2,0.9
		c1.5,1.7,1.8,2.1,2.2,1.3c0.5-0.4,0.8,0,2.8,1.9c1,1,1.2,0.9,1.4,0.2c0.2-0.7,0.3-0.5,2,0.8c2,1.6,2.2,1.7,2.3,1.2
		c0.1-0.9,0.7-0.6,2.8,0.9c1.2,0.9,1.7,1.1,2,0.9c0.3-0.5-0.7-1.4,1.3-0.5l0.5,2.9l-0.7-0.2c-0.4-0.1-1.3-0.4-1,0.5
		c0.2,0.5-0.3,0.5-1.8-0.5c-2.2-1.3-2.6-1.6-2.8-1.4c-0.3,1-0.3,1.1-1.7-0.1c-1.7-1.3-2.1-1.7-2.3-1.2c0,1-0.5,0.8-2.1-0.6
		c-1.4-1.2-1.7-1.8-2.3-0.9c-0.2,0.3-0.3,0.2-0.6,0.1c-0.8-0.6-2.4-2.3-2.8-2.8c-0.4-0.4-0.6-0.3-0.8,0.1c-0.3,0.3-0.3,0.2-1.2-0.6
		c-2.1-1.9-2.5-2.4-2.8-2.2c-0.2,0.5,0,1.1-1.6-0.2c-2-1.5-2.9-2.1-2.8-1.2c-0.3,0.4-0.1,0.5-2.1-0.6c-1.9-1.1-2.2-1.4-2.5-1
		c-0.2,0.6-0.8,0.4-0.8,0.3l-0.4-3l0.7,0C72.3,113.1,73,112.8,73.3,112.8L73.3,112.8z M57.8,113c-0.2,0.5-1.2,3.1-1.2,9.8
		c0.1,0.2,2.6-2.4,2.8-4.8C59.5,115.7,57.8,113,57.8,113z M92.8,113.2v1.2h1.8v-1.2H92.8z M57.9,114.2c2.4,3.8-0.2,7.3-0.9,7.5
		C57.1,118.9,57.5,116.3,57.9,114.2z M119.6,117.3c-3.9,2.5-3.2,9.1-1.3,10.8C118.4,128.1,119.6,121,119.6,117.3z M119.1,118.2
		l-1,8.5C116.7,125.2,116.5,120.7,119.1,118.2z M143.5,119.6l2,2.6l1.8,0.1l0.4,1.9l2.6,2.2l-2.7,1.8l-0.2,2.1l-2,0.2l-2,3.1l-1.9-3
		l-1.8-0.2l-0.1-2l-2.9-2.1l2.7-1.7l0.1-2.2l2.1,0L143.5,119.6z M71.2,120.4c-1.3,6.2-4.4,10.5-8.8,13.3l0,0.6l-7.4,3
		c-1.6,7.6-4.5,15-10.6,21.9l1.7,3.5l-8.2,2.8l11.8,20.3c0.8,0-5.7,3.1-13.6,2.3c5,12.3,6,25,3.2,36.1l38.5-0.2l-29.4-58.2L48,165
		c-0.4-0.8,15.7,2.3,12.2,17.3c0,0.3,0.1,0.4,0.3,0.2c3.1-2.7,23.9-10.2,40.4-0.3l4.9-2.1c-2.3,8.3-5,13.9-9.5,18.9l0.8,11.7
		c7.9-6.5,16.6-18.6,17.7-34.5c3.6-1.8,6.7-3.7,10-5.6l0.4,0.1l2.2-1.3c-6.9-7.6-21-14.9-30.1-16.8l0.5,2.6c-5-1.4-8.7-1.6-12.6-2.1
		l-0.6-27.3l-5-3L79.5,153c-3.8,0-12.4,1.5-12.4,1.5l0.4-2.6l-4,0.8l-0.1-2.5l4.5-1.3l6.5-27.7L71.2,120.4z M71.7,121l2.1,0.4
		l-6.4,27.2c0,0-3.6,1-3.8,0.9c-0.3-5.1-0.4-15.5-0.4-15.5C69.5,128.7,70.5,124.9,71.7,121L71.7,121z M27.6,123c1,0,2,0.7,2.1,1.3
		c0.2,0.4,0.3,0.6,0.6,0.6c1.6,0.2,1.7,0.7,1.7,1.6c-0.2,1.8,1,0.3,1.3-1.5c0-0.2,0-1.6,0-1.6l2,0c0,0,0.1,1.4,0.1,1.7
		c0.2,1.4,0.8,2.5,1.2,1.8c1.4-2.5,4.6-1.2,4.1,1.2c-0.1,0.6-0.1,0.6,0.3,1c0.6,0.7,0.9,1.5,0.7,2.1c-0.2,0.6-0.7,0.7-1.6,0.4
		c-0.5-0.2-1-0.2-2.5-0.3c-2.1-0.1-2.2-0.1-3-0.9L34,130l-0.9,0.5c-1.5,0.9-2.8,0.9-4.3,0.1c-1-0.5-1.6-1.8-1.7-3.7
		c0-1-0.3-1.8-0.9-2c-0.3-0.3,0-1,0.6-1.6C27,123.1,27.3,123,27.6,123L27.6,123z M143.3,123.3l-2.7,3.4l3.2,2.9l3-3.6L143.3,123.3z
		 M80.2,123.8l3.8,2.2l0.5,27l-4.3-0.1L80.2,123.8L80.2,123.8z M27.7,124.2c-0.3,0-0.1,0.5,0.1,1.2c0.2,0.6,0.2,1,0.2,1.5
		c-0.4,3,3,4.5,5.4,2.4c0.6-0.7,0.8-0.7,1.3,0.1c0.7,0.8,1.6,1.1,3.7,1c0.9-0.1,1.5,0.4,1.9,0.1c0.3-0.2,0-0.8-0.6-1.1
		c-0.3-0.2-0.4-0.2-0.3-0.9c0.2-1.7-1.3-2.2-2.3-0.7c-0.8,1.2-2.1,0.4-2.5-1.6c-0.2-1.5-0.4-1.5-0.6-0.2c-0.2,1.6-2.3,3.4-3.2,2.6
		c-0.2-0.2-0.2-0.2,0-1c0.3-1.1,0.1-1.5-1.1-1.7c-0.2,0-0.4-0.2-0.5-0.3C28.7,124.5,28.7,124.2,27.7,124.2L27.7,124.2z M143.6,124.8
		l1.7,1.5l-1.5,1.8l-1.8-1.4L143.6,124.8z M81.3,125.8v1.2v0H83v-1.3H81.3z M81.3,128.3v1.2v0.1H83v-1.3L81.3,128.3z M91.1,129.9
		c1.8,6.8,3.6,13.5,5.5,20.3c1.7-0.7,11.7-5.1,16.4-10.8c-0.2,0-4.3-4-5.7-6.6C102.5,133.5,97.1,132.5,91.1,129.9L91.1,129.9z
		 M81.3,130.7v1.2v0H83v-1.3H81.3z M92.1,131c4.3,1.3,9.7,3.1,14.8,2.2c1.3,2.4,3.2,4.3,5.3,6.1c-3.8,4.2-9.3,7.4-15,9.8L92.1,131z
		 M132.7,131.5c0.2,0,0.4,0.1,0.6,0.3c0.7,0.6,1.2,0.8,2.6,1c2.2,0.4,3.9,1.8,4.4,3.6c0.2,0.8,0.3,0.8,1.4,0.5
		c4.2-1.1,7.4,2.4,6.4,7.1c-0.3,1.6-0.5,1.8,0,2.5c1.1,1.2,1.3,1.2,0.1,2.2c-1.1,1-3.2,0.5-3.6-1.1c-0.4-0.9-0.4-0.9-1.1-1
		c-2.7-0.4-2.6-4.3,0-4.7c0.2,0,0.4,0,0.5,0c0.7-0.3-0.8-2.1-2.1-1.8c-1.6,0.3-2.3,1.3-2.9,2.9l-2.4-1.4c0.6-1.3,1.1-2.9,0.5-3.9
		c-0.4-0.9-1-0.9-1.1-0.1c-0.4,1.9-2.8,2.5-4.3,0.9c-0.9-0.9-1-1.8-0.3-3.1c0.4-0.8,0.4-0.9,0.2-1.2
		C130.9,133,131.7,131.5,132.7,131.5L132.7,131.5z M81.3,133.1v1.3l1.6,0v-1.3L81.3,133.1L81.3,133.1z M133,133.2
		c-0.5,0-0.5,0.5,0,1.1c0.4,0.4,0.5,0.6-0.1,1c-0.7,0.7-0.9,1.7-0.4,2.4c0.7,1.1,2.4,0.5,2.2-0.8c-0.1-0.9,0.6-1.4,1.8-1
		c1.7,0.5,2.5,2.4,1.8,4.3c-0.1,0.4-0.4,1.2-0.4,1.2l0.5,0.3c0,0,0.6-1,0.8-1.2c1.9-2.4,6.5-1.2,6,1.8c-0.1,0.9-0.1,1.1-1.1,0.8
		c-0.7-0.3-1.3,0.4-1.3,1.3c0,0.8,0.7,1.5,1.7,1.3c0.8-0.1,1-0.1,0.9,0.9c0.1,0.7,0.3,1.2,0.8,1.5c1.2,0.5,1.7-0.2,0.8-1.1
		c-0.6-0.6-0.5-1.5-0.2-2.3c0.4-1,0.2-3.3-0.4-4.5c-0.9-1.8-3.5-2.6-5.7-1.7c-1,0.5-1.1,0.7-1.2-0.3c-0.5-2.3-2.3-4.1-4.4-4.2
		C134.4,133.8,133.5,133.3,133,133.2L133,133.2z M81.3,135.6v1.2H83v-1.2H81.3z M81.3,137.9v1.3H83v-1.3H81.3z M81.3,140.5v1.3
		c0,0,0.9,0,1.6,0v-1.3H81.3z M134.1,142.6l1.8,2.6l2,0.1l0.2,2.1l3,1.9l-2.6,1.6l0,2.1l-2.5,0.2l-2.2,2.9l-1.8-2.6l-1.8,0l-0.4-2.3
		l-3.3-1.7l3.4-1.9l-0.1-2.4l2.3,0L134.1,142.6L134.1,142.6z M81.3,143v1.4H83V143H81.3z M81.3,145.4v1.3H83v-1.3H81.3z
		 M133.1,146.5l-2.5,3.4l3.4,2.8l2.7-3.4L133.1,146.5z M81.3,147.8v1.5H83v-1.5H81.3z M133.3,148l1.8,1.4l-1.3,1.6l-1.7-1.3
		L133.3,148z M81.3,150.5v1.2H83v-1.2H81.3z M33.3,150.7c-3.1,0-6.1,5.1-6.8,7.5c-0.8,3.1-1,8.7-0.2,8.8c2.8-2,4.1-5.4,6.2-8
		c0.3,3,0.3,8.7,0.3,8.7s-1.2,0.7-1.9,1.7c-0.5,0.9-0.6,1.9-0.2,2.9c-1.6-0.5-4.4,0.1-4.5,2.9c0.1,4.1,4.5,3.5,4.5,3.4
		c-0.1,0-0.9,4.3,3,4.8c1.4,0.2,3.9-0.9,3.1-4.8c2.5,0.4,4.6-1,4.6-3.3c0-1.6-1.2-3-3.3-3.1c-0.4,0-1.4,0.2-1.4,0.2
		c0-0.2,0.9-2.8-2-4.6L34.3,156c0,0,1,1.1,1.4,1.5c1.9,1.8,3.1,2.7,5.3,3.8c2.1,1.1,1.9,0.9,1.5-1.3c-1-3.2-3.1-5.7-7.6-8.7
		C34.4,150.9,33.9,150.7,33.3,150.7L33.3,150.7z M33.6,150.9l0.6,16.6l-0.9,0L32.5,151L33.6,150.9z M125.2,151.5c0.1,0,0.2,0,0.3,0
		c2,0.2,2.5,2.4,1.6,3.4c-0.4,0.4-0.5,0.5-0.3,0.7c0.9,1.1,0.4,2.8-0.5,3.1c-2.7,0.9-3.1-0.6-3.1-2.4l-4.2-0.2l0-2.5l4.6,0.1
		C123.3,152.7,124,151.5,125.2,151.5L125.2,151.5z M31.7,151.5C31.7,151.5,31.7,151.5,31.7,151.5c0.5,0,0,1.2-1.2,3
		c-0.8,1.2-2,3.3-2.3,4.2c-0.7,1.9-1.3,5.2-0.7,4.6c0.5-1.4,0.5-2,0.9-3c0.5-1.3,2.9-5.7,3.4-6.1c0.4-0.4,0.5-0.1,0.5,1.1
		c0,2.8-1.3,5.6-4.4,9c-0.5,0.6-1.2,1.2-1.2,1.2c-0.3,0-0.3-0.6-0.3-1.9c0-5.2,1.9-9.8,4.9-11.8C31.4,151.6,31.5,151.5,31.7,151.5
		L31.7,151.5z M34.8,151.8c1.4,0.4,3.8,2.6,4.8,3.7c1.2,1.3,2.7,4.8,2.4,5.3c-0.1,0.2-0.3,0.2-1-0.2c-4.3-2.4-7.4-5.5-6.6-6.4
		c0.2-0.3,1.2,0.3,2.4,1.4c0.8,0.8,1.7,1.5,2.5,2.3c1.2,1.2,1.5,1.4,0.8,0c-0.7-1.2-2.5-3.2-4.8-4.9
		C34.4,152.3,34.2,151.8,34.8,151.8L34.8,151.8z M125.5,152.5c-0.1,0-0.1,0-0.1,0c-0.8,0.4-0.5,1.5-0.6,2.3l-4.7-0.2l0,0.7l4.4,0.2
		c0.1,0.7-0.3,2.1,0.3,2.3c1.2,0.5,1.9-1.1,0.9-2c-0.4-0.3-0.8-0.5,0.3-0.9c0.7-0.6,0.8-1.7,0.2-2.2
		C125.9,152.5,125.6,152.5,125.5,152.5L125.5,152.5z M66.5,152.7l-0.2,1.7l-2.7,0.7l-0.1-1.9L66.5,152.7z M98.4,153.3
		c10,2.7,21.1,8.9,28.3,15.8l-1.4,1c-7.5-7-17.4-12.2-26.4-14.9L98.4,153.3z M81.2,153.5c16.4,0,31.4,6.4,43.5,16.8l-2,1.3
		c-11-9.2-23.2-15.3-39.7-16c-10.7-0.5-23,2.3-35.1,9l-0.9-1.6C58.8,156.4,70.3,153.6,81.2,153.5L81.2,153.5z M79.9,156l6.5,0.2
		l-0.4,6l-5.9-0.2L79.9,156z M73,156.5l0.9,5.8l-5.6,1.1l-1.6-5.8L73,156.5z M93.4,157.2l6.4,1.7l-2.1,5.9l-5.6-1.6L93.4,157.2z
		 M83.1,157.3c-1,0-1.8,0.8-1.8,1.9c0,1,0.8,1.9,1.8,1.9c1,0,1.8-0.8,1.8-1.9C85,158.1,84.1,157.3,83.1,157.3z M83.1,158
		c0.7,0,1.2,0.5,1.2,1.2c0,0.7-0.6,1.2-1.2,1.2s-1.2-0.5-1.2-1.2C81.9,158.5,82.5,158,83.1,158z M70.4,158c-1,0-1.8,0.8-1.8,1.9
		c0,1,0.8,1.9,1.8,1.9c1,0,1.8-0.8,1.8-1.9C72.2,158.8,71.4,158,70.4,158z M70.4,158.6c0.7,0,1.2,0.5,1.2,1.2c0,0.7-0.6,1.2-1.2,1.2
		c-0.7,0-1.2-0.5-1.2-1.2C69.2,159.2,69.7,158.6,70.4,158.6z M95.8,159.4c-1,0-1.8,0.8-1.8,1.9c0,1,0.8,1.9,1.8,1.9
		c1,0,1.8-0.8,1.8-1.9C97.6,160.2,96.8,159.4,95.8,159.4z M60,159.6l1.9,5.7l-5.4,2.2l-2-5.6L60,159.6z M95.8,160
		c0.7,0,1.2,0.5,1.2,1.2c0,0.7-0.6,1.2-1.2,1.2c-0.7,0-1.2-0.5-1.2-1.2C94.6,160.5,95.1,160,95.8,160z M106.5,161.4l5.8,3.1l-3,5.4
		l-5.4-2.8L106.5,161.4z M58.1,161.9c-1,0-1.8,0.8-1.8,1.9c0,1,0.8,1.9,1.8,1.9s1.8-0.8,1.8-1.9C59.9,162.7,59.1,161.9,58.1,161.9z
		 M79.9,162l0.3,5.7l-5.1,0.4l-0.9-5.7L79.9,162z M86.1,162.3l5.8,0.8l-1.4,5.5l-5.3-0.9L86.1,162.3L86.1,162.3z M58.1,162.5
		c0.7,0,1.2,0.5,1.2,1.2s-0.6,1.2-1.2,1.2c-0.7,0-1.2-0.5-1.2-1.2S57.4,162.5,58.1,162.5z M77.2,163.2c-1,0-1.8,0.8-1.8,1.9
		s0.8,1.9,1.8,1.9c1,0,1.8-0.8,1.8-1.9S78.2,163.2,77.2,163.2z M67.9,163.5l1.5,5.6l-5.6,1.6l-1.7-5.4L67.9,163.5z M88.3,163.6
		c-1,0-1.8,0.8-1.8,1.9c0,1,0.8,1.9,1.8,1.9c1,0,1.8-0.8,1.8-1.9C90.1,164.4,89.3,163.6,88.3,163.6z M77.2,163.9
		c0.7,0,1.2,0.5,1.2,1.2s-0.6,1.2-1.2,1.2c-0.7,0-1.2-0.5-1.2-1.2C76,164.4,76.5,163.9,77.2,163.9z M88.3,164.2
		c0.7,0,1.2,0.5,1.2,1.2c0,0.7-0.6,1.2-1.2,1.2c-0.7,0-1.2-0.5-1.2-1.2C87.1,164.8,87.6,164.2,88.3,164.2z M108,164.2
		c-1,0-1.8,0.8-1.8,1.9c0,1,0.8,1.9,1.8,1.9c1,0,1.8-0.8,1.8-1.9C109.9,165.1,109.1,164.2,108,164.2z M98.1,164.8l5.6,1.9l-2.2,5.3
		l-5.4-2.1L98.1,164.8z M108,164.9c0.7,0,1.2,0.5,1.2,1.2c0,0.7-0.6,1.2-1.2,1.2c-0.7,0-1.2-0.5-1.2-1.2
		C106.8,165.4,107.4,164.9,108,164.9z M65.6,165.1c-1,0-1.8,0.8-1.8,1.9c0,1,0.8,1.9,1.8,1.9c1,0,1.8-0.8,1.8-1.9
		C67.5,165.9,66.7,165.1,65.6,165.1z M65.6,165.7c0.7,0,1.2,0.5,1.2,1.2c0,0.7-0.6,1.2-1.2,1.2c-0.7,0-1.2-0.5-1.2-1.2
		C64.4,166.2,65,165.7,65.6,165.7z M99.8,166.8c-1,0-1.8,0.8-1.8,1.9c0,1,0.8,1.9,1.8,1.9c1,0,1.8-0.8,1.8-1.9
		C101.6,167.6,100.8,166.8,99.8,166.8z M99.8,167.4c0.7,0,1.2,0.5,1.2,1.2c0,0.7-0.6,1.2-1.2,1.2s-1.2-0.5-1.2-1.2
		C98.6,168,99.1,167.4,99.8,167.4z M33.8,168.1c1.5,0.1,2.6,1.4,2.6,2.8c0.1,1.1-1.3,2.4-1.3,2.4l-1.6-1.4l-1.5,1.4
		c-0.3,0.1-1.4-1.9-1.1-2.9C31.5,169,32.4,168,33.8,168.1L33.8,168.1z M117.6,168.1l4.5,3.7c0,0-2,1.2-2.3,1.4
		c0-0.2,0.1-0.3,0.1-0.5c0-1-0.8-1.9-1.8-1.9c-1,0-1.8,0.8-1.8,1.9c0,0.9,0.6,1.6,1.4,1.8c-0.5,0.3-1.1,0.6-1.1,0.6l-2.4-2
		L117.6,168.1z M110.5,177.9l-2,0.8c-12.2-8-28.8-12.4-47.8-4.3l-0.7-1.6C74.2,166.9,92,165,110.5,177.9z M109.4,169.9l4.8,3l-3,4.7
		l-4.7-3L109.4,169.9z M108,179l-2,0.8c-14.8-9.6-30.6-9.1-44.8-3.3l-0.2-1.3C77.6,167.8,94.3,170.1,108,179L108,179z M117.9,171.4
		c0.7,0,1.2,0.5,1.2,1.2c0,0.7-0.6,1.2-1.2,1.2s-1.2-0.5-1.2-1.2C116.7,172,117.2,171.4,117.9,171.4z M31.6,173.6l-1.6,1.7l1.5,1.7
		c0,0-0.5,0.4-0.8,0.6c-2,1.1-4.1-0.6-4-2.5C26.8,172.5,30,171.2,31.6,173.6L31.6,173.6z M110.1,172.4c-1,0-1.8,0.8-1.8,1.9
		c0,1,0.8,1.9,1.8,1.9c1,0,1.8-0.8,1.8-1.9C111.9,173.2,111.1,172.4,110.1,172.4z M38.3,172.4c1.5,0,2.6,1.1,2.7,2.5
		c0.1,1-0.4,2-1.6,2.7c-1.6,1-3.4-0.6-3.4-0.7l1.3-1.3l-1.6-1.6C35.8,174,36.9,172.4,38.3,172.4z M33.7,172.8l2.7,2.7l-2.9,2.7
		l-2.7-2.7L33.7,172.8z M105.4,180l-1.5,0.7l-2.1-1.3l-0.6,1.2l1.2,0.7l-1.2,0.5c-13.9-7.8-29.5-5.6-39.9-0.4c0,0,0.1-0.8,0.1-0.8
		l1.1-0.6l-0.4-1.4l-0.6,0.2l0-1.6C76.2,170.5,93,172,105.4,180L105.4,180z M110.1,173c0.7,0,1.2,0.5,1.2,1.2c0,0.7-0.6,1.2-1.2,1.2
		c-0.7,0-1.2-0.5-1.2-1.2C108.9,173.6,109.4,173,110.1,173z M33.6,174l-1.4,1.5l1.4,1.5l1.4-1.5L33.6,174z M79,174.3l-1.9,0.1
		l0.1,1.6l1.9,0L79,174.3z M80.3,174.3l0,1.6l1.7,0l0-1.5L80.3,174.3L80.3,174.3z M83.4,174.3l-0.1,1.6L85,176l0.1-1.5L83.4,174.3z
		 M76,174.5l-1.9,0.2l0.2,1.6l1.8-0.2L76,174.5z M86.5,174.6l-0.1,1.6l1.8,0.2l0.2-1.5L86.5,174.6z M33.6,174.6l0.8,0.9l-0.8,0.8
		l-0.9-0.9L33.6,174.6z M72.7,175l-1.9,0.3L71,177l1.8-0.4L72.7,175z M89.7,175l-0.3,1.5l1.7,0.4l0.3-1.5L89.7,175z M69.6,175.7
		l-1.6,0.4l0.3,1.6l1.7-0.4L69.6,175.7z M92.7,175.8l-0.3,1.5l1.8,0.5l0.4-1.5L92.7,175.8z M67,176.5l-1.6,0.6l0.4,1.5l1.7-0.6
		L67,176.5z M95.8,176.7l-0.5,1.5l1.5,0.6l0.7-1.3L95.8,176.7z M64.3,177.5l-1.6,0.6l0.6,1.4l1.5-0.7L64.3,177.5z M32,177.6l1.6,1.6
		l1.9-1.7c1.6,1.5,1.6,4.9-1.3,5.5C31.7,183.4,29.4,179.6,32,177.6L32,177.6z M98.6,177.9l-0.6,1.3l1.7,0.8l0.6-1.3L98.6,177.9z
		 M50,186.5l21.5,36.8l-3.4-0.1l-20.8-35.5L50,186.5z M46.5,187.9l1.2,1.9c-2.3-1.9-5.7-0.3-5.6,2.1c0.1,1,1,1.7,1,0.7
		c-0.1-1.1,1.4-2,2.5-1.9c2,0,3.2,2.6,1.8,3.9c-0.9,0.8-2.1,0.8-1.7-0.3c0.1-0.4,0-0.5-0.2-0.7c-0.6-0.5-1.6,0.2-1.4,0.9
		c0.2,0.5,0.2,0.6-0.4,1c-2.3,1.6-0.7,4.8,2.1,3.3c0.6-0.2,0.8-0.2,1-0.1c1.1,0.4,1.9-0.6,0.8-1.1c-0.6-0.3-0.6-0.8,0-1.2
		c1.3-0.9,3.3,0.5,3.3,2.2c0,1.2-1.6,2.2-3.2,1.8c-0.9-0.2-1,0.4-0.2,1.1c1.6,1.3,4.1,0.2,4.8-2.1c0.2-0.7,0.2-0.9,0.2-0.9l2.2,3.6
		c0,0-0.7-0.3-1.1-0.5c-2.1-0.6-4.4,0.7-4.4,2.6c0,0.9,0.5,1.2,0.8,0.5c0.7-1.6,2.1-2.2,3.6-1.5c1.4,0.6,2,2,1.5,3.3
		c-0.6,1.3-2.4,1.7-2.2,0.5c0.1-0.6-0.3-0.9-0.9-0.9c-0.2,0-0.5,0.7-0.5,1.1c0.1,0.3,0,0.4-0.8,1c-1.9,1.5-0.4,4,1.9,3.2
		c0.4-0.1,0.6-0.1,0.9,0.1c0.9,0.4,1.8,0.2,1.8-0.5c0-0.5-0.2-0.6-0.7-0.6c-0.8,0-0.6-0.9,0.3-1.4c2.3-1.1,4.6,1.7,3.2,4
		c-0.6,1-1,1.1-3.1,0.8c-0.3,0-0.5,0.2-0.3,0.5c0.6,0.9,2.5,1.2,3.6,0.7c1.2-0.5,1.9-1.9,2-3.3l2.4,4.2c-1.9-2-5.1-1.2-5.6,1.6
		c0,0.7,0.6,1.1,0.9,0.5c1-2.5,4.7-1.8,4.7,1c0,0.4-0.1,0.7-0.4,1.1c-0.7,1.3-2.4,1.6-2.1,0.5c0.1-0.4-0.1-0.8-0.6-0.9
		c-0.5-0.1-0.8,0.3-0.8,1c0,0.5,0,0.7,0,0.7c-0.9,0.4-1.4,1.1-1.6,2.2l-16.8,0c2-11.7,1.5-22.4-2.3-32.4c-0.3-0.9-0.8-2.1-0.8-2.1
		l3,0.1c0.7,0.6,3.4,0.4,4.5-0.6L46.5,187.9z M49.3,192.5l1.7,3.1c-0.7-0.4-1.5-0.7-2.6-0.8C49.1,194,49.1,193.2,49.3,192.5z
		 M44.8,195.8c0.6,0,1.1,0.5,1.1,1.2c0,0.6-0.5,1.2-1.1,1.2s-1.1-0.5-1.1-1.2C43.6,196.4,44.1,195.8,44.8,195.8z M56.8,205.2l1.7,3
		c-0.8-0.3-1.5-0.7-2.8-0.7C56.1,207,56.5,206.1,56.8,205.2z M51.9,208.5c0.6,0,1.1,0.5,1.1,1.1s-0.5,1.1-1.1,1.1
		c-0.6,0-1.1-0.5-1.1-1.1S51.3,208.5,51.9,208.5z M64.1,217.8l2.5,4.4c-1-0.6-2-1.3-3.3-1.1C63.8,219.7,64.2,219,64.1,217.8z
		 M60.8,223.3l-2.7,0C58.7,221,60.8,221.6,60.8,223.3z M63.3,222.2c0.9,0,1.7,0.4,2.2,1.1l-3.3,0C62.1,223.3,62.1,222.2,63.3,222.2
		L63.3,222.2z"/>
	<path id="path163-0-2-5-8-7-5-8-8-7_1_" class="st0" d="
		M46.9,59.9c0,0-3.7-6.1-8.7-13.3c-3.4-4.8-6-10-6.3-14.5c-0.3-5.1,2.4-10.3,7.3-10.5c4.9-0.2,6.9,3.9,7.7,7.4
		c0.8-3.5,2.8-7.7,7.7-7.4c4.9,0.2,7.6,5.4,7.3,10.5c-0.2,4.5-2.9,9.7-6.3,14.5C50.6,53.8,46.9,59.9,46.9,59.9L46.9,59.9z"/>
	<path id="path163-0-2-5-8-7-7-8-4-8-6_1_" class="st0" d="
		M129.4,179.8c0,0-3.7,6.1-8.7,13.3c-3.4,4.8-6,10-6.3,14.5c-0.3,5.1,2.4,10.3,7.3,10.5c4.9,0.2,6.9-3.9,7.7-7.4
		c0.8,3.5,2.8,7.7,7.7,7.4c4.9-0.2,7.6-5.4,7.3-10.5c-0.2-4.5-2.9-9.7-6.3-14.5C133.1,185.9,129.4,179.8,129.4,179.8z"/>
</g>
</svg>
