<!-- Generator: Adobe Illustrator 19.2.1, SVG Export Plug-In  -->
<svg version="1.1"
	 xmlns="http://www.w3.org/2000/svg" xmlns:xlink="http://www.w3.org/1999/xlink" xmlns:a="http://ns.adobe.com/AdobeSVGViewerExtensions/3.0/"
	 x="0px" y="0px" width="166.4px" height="226.6px" viewBox="0 0 166.4 226.6" style="enable-background:new 0 0 166.4 226.6;"
	 xml:space="preserve">
<defs>
</defs>
<g id="g5120_1_" transform="matrix(0.99999712,0,0,1.000002,5.9820329,-5.5506344)">
	<path id="path147-0-8-1-6-1-1-0-9-1-8_1_" d="M77.2,100
		c-7.8,0.2-11.3,9-5.5,15.8c0.8,1,0.9,1.6-0.6,0.6c-3.9-2.6-11.4-0.9-11.8,7.1c-0.5,9.8,13.3,12.7,15.8,2.2c0.1-1.1,1-1.1,0.8,0.5
		c-0.2,4.2-1.6,8.2-3.4,12.1c3.1,0,6.5,0,9.3,0c-1.8-3.9-3.1-7.8-3.4-12.1c-0.2-1.6,0.7-1.6,0.8-0.5c2.6,10.4,16.3,7.6,15.8-2.2
		c-0.4-8-7.9-9.7-11.8-7.1c-1.5,1-1.5,0.4-0.6-0.6C88.6,109,85.1,100.2,77.2,100C77.2,100,77.2,100,77.2,100L77.2,100z"/>
	<path id="path147-6-9-8-7-0-5-0-8-3_1_" d="M152.4,203.3
		c3.1-0.1,4.5-3.7,2.2-6.6c-0.3-0.4-0.4-0.7,0.2-0.3c1.6,1.1,4.6,0.4,4.7-2.9c0.2-4.1-5.3-5.3-6.3-0.9c-0.1,0.5-0.4,0.4-0.3-0.2
		c0.1-1.8,0.6-3.4,1.4-5c-1.2,0-2.5,0-3.7,0c0.7,1.6,1.3,3.3,1.4,5c0.1,0.7-0.3,0.7-0.3,0.2c-1-4.4-6.5-3.2-6.3,0.9
		c0.2,3.3,3.1,4,4.7,2.9c0.6-0.4,0.6-0.2,0.2,0.3C147.9,199.6,149.3,203.2,152.4,203.3C152.4,203.3,152.4,203.3,152.4,203.3
		L152.4,203.3z"/>
	<path id="path41-6-3-5-1_1_" d="M-6,31.9v-2.3h2.1L0.7,5.5h2.6l5,24.1h1.7v2.3H4.2v-2.3h1.6
		l-0.6-3.7h-6l-0.5,3.7h1.6v2.3H-6z M4.6,23.3L2.1,10.4l-2.4,12.9H4.6z"/>
	<path id="path41-6-4-0-2-8_1_" d="M144.4,205.8v2.3h2.1l4.6,24.1h2.6l5-24.1h1.7v-2.3h-5.9v2.3
		h1.6l-0.6,3.7h-6l-0.5-3.7h1.6v-2.3H144.4L144.4,205.8z M155,214.4l-2.6,12.9l-2.4-12.9H155L155,214.4z"/>
	<path id="path147-6-9-8-7-4-5-6-8-9_1_" d="M2.1,34.4
		c-3.1,0.1-4.5,3.7-2.2,6.6c0.3,0.4,0.4,0.7-0.2,0.3C-2,40.1-5,40.8-5.1,44.2c-0.2,4.1,5.3,5.3,6.3,0.9c0.1-0.5,0.4-0.4,0.3,0.2
		c-0.1,1.8-0.6,3.4-1.4,5c1.2,0,2.5,0,3.7,0c-0.7-1.6-1.3-3.3-1.4-5c-0.1-0.7,0.3-0.7,0.3-0.2c1,4.4,6.5,3.2,6.3-0.9
		c-0.2-3.3-3.1-4-4.7-2.9c-0.6,0.4-0.6,0.2-0.2-0.3C6.6,38.1,5.2,34.4,2.1,34.4C2.1,34.4,2.1,34.4,2.1,34.4L2.1,34.4z"/>
</g>
</svg>
