<!-- Generator: Adobe Illustrator 19.2.1, SVG Export Plug-In  -->
<svg version="1.1"
	 xmlns="http://www.w3.org/2000/svg" xmlns:xlink="http://www.w3.org/1999/xlink" xmlns:a="http://ns.adobe.com/AdobeSVGViewerExtensions/3.0/"
	 x="0px" y="0px" width="166.3px" height="226.6px" viewBox="0 0 166.3 226.6" style="enable-background:new 0 0 166.3 226.6;"
	 xml:space="preserve">
<style type="text/css">
	.st0{fill:#D40000;}
	.st1{fill:#E2CF00;}
	.st2{fill:#131F67;}
</style>
<defs>
</defs>
<g id="g4942_1_" transform="matrix(0.99999718,0,0,1.000002,-4.9738447,-5.5505123)">
	<path id="path147-6-9-8-7-0-5-6-46-4-5_1_" d="
		M163.3,203.3c3.1-0.1,4.5-3.7,2.2-6.6c-0.3-0.4-0.4-0.7,0.2-0.3c1.6,1.1,4.6,0.4,4.7-2.9c0.2-4.1-5.3-5.3-6.3-0.9
		c-0.1,0.5-0.4,0.4-0.3-0.2c0.1-1.8,0.6-3.4,1.4-5c-1.2,0-2.5,0-3.7,0c0.7,1.6,1.3,3.3,1.4,5c0.1,0.7-0.3,0.7-0.3,0.2
		c-1-4.4-6.5-3.2-6.3,0.9c0.2,3.3,3.1,4,4.7,2.9c0.6-0.4,0.6-0.2,0.2,0.3C158.8,199.6,160.2,203.2,163.3,203.3L163.3,203.3
		L163.3,203.3z"/>
	<path id="path147-6-9-8-7-4-5-62-9-4-5_1_" d="M13,34.4
		c-3.1,0.1-4.5,3.7-2.2,6.6c0.3,0.4,0.4,0.7-0.2,0.3c-1.6-1.1-4.6-0.4-4.7,2.9c-0.2,4.1,5.3,5.3,6.3,0.9c0.1-0.5,0.4-0.4,0.3,0.2
		c-0.1,1.8-0.6,3.4-1.4,5c1.2,0,2.5,0,3.7,0c-0.7-1.6-1.3-3.3-1.4-5c-0.1-0.7,0.3-0.7,0.3-0.2c1,4.4,6.5,3.2,6.3-0.9
		c-0.2-3.3-3.1-4-4.7-2.9c-0.6,0.4-0.6,0.2-0.2-0.3C17.5,38.1,16.1,34.4,13,34.4C13,34.4,13,34.4,13,34.4L13,34.4z"/>
	<path id="path37-5-2-4_1_" d="M7.2,23.2H5v-3h2.2c0,0,0-1.6,0.1-4.5c0.1-6.1,0.3-7,2-8.7
		c3.5-3.3,9.3-0.6,9.2,4.4c-0.1,7,0,13.7-0.2,14.6c-0.4,1.7-0.4,1.8-0.3,2.1c0.3,0.6,2.9,0.9,2.9,0.7v3c-2,0.2-2.8,0-4.4-1.2
		c-1,1-4,1.9-6.5,0.8C8.2,30.5,6.8,28.2,7.2,23.2L7.2,23.2L7.2,23.2z M14.6,28.4c-1.1-1.6-2.9-3.7-4.6-4.5c-0.1,1.8,0,3.3,0.7,4.1
		C11.6,29.3,13.3,29.6,14.6,28.4L14.6,28.4L14.6,28.4z M15.5,11.1c-0.8-2.3-2.9-3.1-4.4-1.6c-0.9,0.9-1.1,1.8-1.1,6.9
		c0,3.1,0,4.5,0,4.5c3,1,5.7,4.4,5.7,4.4l0.1-9.5C15.8,14.1,15.7,12.6,15.5,11.1L15.5,11.1L15.5,11.1z"/>
	<path id="path37-3-2-7-4_1_" d="M169.1,214.5h2.2v3h-2.2c0,0,0,1.6-0.1,4.5c-0.1,6.1-0.3,7-2,8.7
		c-3.5,3.3-9.3,0.6-9.2-4.4c0.1-7,0-13.7,0.2-14.6c0.4-1.7,0.4-1.8,0.3-2.1c-0.3-0.6-2.9-0.9-2.9-0.7v-3c2-0.2,2.8,0,4.4,1.2
		c1-1,4-1.9,6.5-0.8C168.1,207.2,169.5,209.4,169.1,214.5L169.1,214.5L169.1,214.5z M161.7,209.3c1.1,1.6,2.9,3.7,4.6,4.5
		c0.1-1.8,0-3.3-0.7-4.1C164.6,208.3,163,208,161.7,209.3L161.7,209.3L161.7,209.3z M160.8,226.6c0.8,2.3,2.9,3.1,4.4,1.6
		c0.9-0.9,1.1-1.8,1.1-6.9c0-3.1,0-4.5,0-4.5c-3-1-5.7-4.4-5.7-4.4l-0.1,9.5C160.5,223.5,160.6,225.1,160.8,226.6L160.8,226.6
		L160.8,226.6z"/>
	<g id="g5457-6-3-6_1_" transform="matrix(1.0221444,0,0,1.026231,3100.8569,-1473.3086)">
		<g id="g3405-1-0-4_1_" transform="matrix(0.15135237,-0.00168536,0.00168536,0.15135237,320.81553,485.20923)">
			
				<path id="path3391-4-8-9-0_1_" class="st0" d="
				M-21636.6,7471.6c3.3-41.9,1.4-86.9,3.7-121c-1.3-2.4,3.5-9,3.7-9c-2.7-5.1-3.5-18.1,0.1-29.6c28.6-104.2,79.2-185,131.2-260.2
				c40.2,125.8-91.4,212.3-120.1,321.5c-9.6,37.8-8.5,64.3-12.4,98.5L-21636.6,7471.6z M-21853.8,7470.7l-152.7-241.8l33.9-16.1
				l156.9,257.4L-21853.8,7470.7z M-21647.8,7028.2c1.3,6.9,6.7,10.7,12.5,7.6c5.7-3,6.3-3.2,2.8,2.2c-7.9,11.9,7.7,23.7,17.9,13.5
				c3.6-3.6,4.3-9.6,1.1-12.6c-3.6-3.5-4.4-5.2,1-2.6c13.5,5.7,21.2-13.9,8.1-20.7c-3.4-1.7-10-0.3-12.5,2.3c-3,3.1-3.5,2-2.6-0.4
				c0.5-1.4,0.9-3.8,2-6.5c0.9-2.2,1.6-5.1,1.6-5.1l-13.9,0c0,0,1.1,3.2,2.2,5.9c1,2.5,1.4,4.4,1.9,5.5c1.8,3.8-0.4,2.4-4.1-0.5
				c-5.3-4-11.9-3-15.8,2.2C-21647.2,7021.9-21648.4,7025.1-21647.8,7028.2z M-21625.6,6833.2l29.9-0.6l31.8,91
				c-26.8,43.4-34.4,92.5-4.4,142.8l-94.7-0.9C-21639.9,6990.5-21635.6,6910.8-21625.6,6833.2z M-21595.7,6951.5
				c4-3.5,4.6-10,1-14.4c-4.5-5.5-3.5-5.8,2.6-2.1c8.8,5.2,17.5-5.8,12.3-15.7c-3.3-6.3-14-7.8-18.2-2.3c-3.5,4.6-3.1,0.4-0.3-5.8
				c1-2.2,2.4-6.5,2.4-6.5l-14.5,0.1c0,0,1.8,4.1,2.8,6.8c2.6,7,2.6,9.2-1.4,4.7c-8.8-7.5-19.2-2.3-19.4,8.4
				c0,8.2,7.4,13.5,13.9,9.8c4-2.3,5.8-2.8,1.2,2.5c-3.1,5.1-2.1,11.6,1.9,14.7C-21605.6,6955.1-21599.7,6954.9-21595.7,6951.5z
				 M-21796.1,6977.5c1.2-0.8,1.6-0.3,0.9,0.9c-0.6,1-2.2,2.4-3.5,3.8c-6.8,7.4,1.8,17.1,12.7,15.7c7.4-0.9,11.9-12.5,6.5-17.2
				c-1.8-1.2-3.1-1.4-4.5-3.1c-0.1-0.6,0.2-1.1,0.9-0.8c1,0.4,2.9,2,3.9,2.3c6.9,1.9,12.1-0.8,13.9-5.7c1.2-5.6,0.2-11.7-4.4-14.9
				c-4.2-2.9-10.6-2.2-14.3,2.7c-3.8,5-4.3,0.2-1.1-6.7c1.2-2.6,2-6.2,2-6.2l-13.3,0.6c0,0,0.7,2.9,1.8,6.2c2.9,7.5,5,9.7,1.2,5.8
				c-16.2-9.8-21.7,3.2-22,8.4C-21816.1,6979-21802,6984.7-21796.1,6977.5L-21796.1,6977.5z M-21729.4,6831.2l24,0.4
				c-19.2,96.1-57.2,176.3-120.2,231.1l-117.5-1.7l-56.2-40.2l22.2-28.2C-21828.1,7009.6-21763.7,6936.4-21729.4,6831.2z
				 M-21840,7053.2c7.1-3,10.1-11,5.5-16.3c-4.2-4.9-4.6-6.4,1.9-2.6c8.6,5.1,17.1-4.8,12.9-14.7c-2.6-6.1-10.9-8.1-16.9-4
				c-5.3,3.9-5.2,2.1-2.4-4.1c1.4-3.1,2.5-8,2.5-8l-14.7,0c0,0,1,3.5,2.1,5.9c2.4,5.5,3.3,8.1,2.1,8.1c-0.6,0-2.4-1.7-3.4-2.7
				c-2.9-2.7-10.9-3.3-13.9-0.5c-8.9,8.3-4.1,23.1,7.1,20.5c7.3-1.7,8.9-4.4,2.9,2.3C-21861.8,7045.5-21850.5,7057.7-21840,7053.2z
				 M-21932.8,7049.2c6.1-2.8,8.2-9.8,4.9-14.4c-3.4-4.6-5-7.6,1-3.4c8.1,4.2,15.2-1.2,15.2-10.4c0-9.7-10.8-14.3-18.8-8.6
				c-1.4,1-3,1.8-3.3,1.8c-1,0,0.9-5.2,2.8-8.6c0.9-1.5,2.4-4.5,2.4-4.5l-14.7-0.7c0,0,0.8,4,1.9,7.1c2.3,6.3,2.8,8.4-1.2,4.8
				c-11-10.5-22.9,2.6-18.4,14c2.4,6.4,9.9,6.5,14.4,3.4c4.1-3.1,2,1-0.8,4.3C-21955.1,7043.1-21944.2,7054.4-21932.8,7049.2z
				 M-21257.8,6815.3l0.6,17.8l-192,156.4l-7.8-12.3L-21257.8,6815.3z M-21965.7,6840.8c27.6-19.2,58.5-53.8,88.7-71.7
				C-21855.6,6819.8-21907.7,6868.7-21965.7,6840.8z M-21465.5,6837.1c-18.2-107,96.3-83.4,90.1-74L-21465.5,6837.1z
				 M-22080.6,6764.9l190-151.4l8.4,13l-200.5,160.5L-22080.6,6764.9z M-21563,6615.8c0.5,1.6,6.1,7.8,6.1,8.3
				c-1.6-1.2-11.2-6.8-16-1.5c-1.7,1.9-3.8,6.5-3.6,11.3c1.9,8.6,11.6,11.7,18.6,5.9c2-1.7,3.7-3.7,4.1-3c0.3,0.6-0.8,3.6-1.7,5.9
				c-1,2.4-4.9,7.4-2.1,7.4l13.4,0.1c0,0-0.5-3.1-2-6.6c-2.9-6.5-2.8-10,0.8-5.3c6.9,9.2,20.6,1.7,19.3-9.2
				c-0.9-7.9-8.9-12.5-14.8-8.8c-0.6,0.4-2.5,2.2-2.8,2.3c-0.7,0,1.3-3,2.6-5.4c4.4-8.2-1.9-16-11.8-15.2c-3.2,0.2-6.7,2.2-6.7,2.5
				C-21563.4,6607.3-21564.1,6612.5-21563,6615.8z M-21399.6,6540.6c18.6,17.5,37.3,30.5,56.1,41.8l-18.1,27.9
				c-120.4-12.5-208.5,34.2-246.5,162.9l-19.9,3.6c8.4-80.5,36.3-160.1,117-237.3L-21399.6,6540.6z M-21515.3,6558.6
				c0,3.8,7,8.4,5.4,9.5c-0.7,0.4-4.9-3.3-6.8-3.5c-13.9-1.6-17,20-3.3,22.5c2.7,0.5,8.3-1.1,10-2.5c2.2-1.8,3.8-3.3,4.2-3.1
				c0.8,0.3-1.1,4.2-2.7,7c-1.4,2.6-3.5,8.1-3.5,8.1l15.8,0.2c0,0-1.4-4.9-2.8-8.3c-1.8-4.4-2.1-7.2-0.9-6.9
				c0.5,0.1,1.1,1.5,2.2,2.5c6.8,6,16.9,3.6,19.6-5.6c2.6-8.6-7.7-17.6-14.9-12.9c-2.5,1.7-2.5,0.4,0-3.4c2.3-3.4,1.8-8.7-0.2-11.8
				C-21500.4,6542.4-21515.5,6548-21515.3,6558.6z M-21402,6585.5c-0.4-1.9,0.1-1.4,2.1,0.8c6.3,6.7,17.2,5.8,20.1-2.9
				c2.9-8.7-5.5-18.8-12.9-15.4c-3.9,1.7-3.9,1.1-1.7-1.7c5.7-7.3-0.4-17.1-10.1-17.1c-8.9,0-14.2,8.5-10,15.9
				c1.7,3,1.2,3.7-1.9,2.1c-9-4.5-17.7,9.8-11.1,18.4c3.9,5.1,12.9,5.7,18.1,0.8c2.8-2.6,2.7-1.4,0.7,4.1c-1.8,4.8-3.8,8.6-3.8,8.6
				l15.7,0.3C-21396.8,6599.2-21400.9,6591.1-21402,6585.5z M-21740.8,6774.9c4.6-1.1-15.4-67-30.3-96.5
				c17.8-41.2,41.9-81.1,2.7-141.2l96.7,0.8c-30.6,67.4-33.2,238.4-40.2,238.7L-21740.8,6774.9z M-21731.5,6699
				c0,0-4.7-6.6-4.9-11.9c-0.5-3.4,0.3-3.6,2.1-0.1c8.5,9.6,20.3,0.6,20.4-7.9c1.1-7.7-7.9-14.4-13.7-10.6c-4.1,2.7-5.2,1.9-1.5-3.1
				c5.2-7-0.3-16.3-9.4-16.3c-11.9,0-16.5,11-8.1,19c6.2,5.9,0.4,2.4-4.6,0.3c-9.7-4.2-16.2,5.6-11.9,15.7c2.9,6.9,11.7,8.8,17,3.3
				c2.9-3,5.5-4.8,3.9-0.2c-0.8,3.7-5.3,11.6-5.3,11.6L-21731.5,6699z M-21715.4,6595c0,0-5.6-7.2-6.6-12.7c-0.3-2,1.1-1.5,4.3,1.4
				c10.3,9,24.8-6.8,15.2-16.7c-3.3-3.4-6.7-4.4-10.6-2.4c-4.9,2.5-4.5,1.3-2-1.3c3.6-3.8,3.4-10.8-0.4-14.3
				c-10.5-9.5-27.4,4.3-17.7,14.5c4.2,4.4,2.2,3.8-2.5,1c-8.9-5.4-18.9,9.1-12.3,17.7c7.9,6.8,13.8,3.6,19.4-0.6
				c1.2-0.6,2.2-0.9,2.2-0.4c0,1-5.6,13.8-5.6,13.8L-21715.4,6595z M-21841.8,6553.1c-5.9-0.5-9.5-55.6-2.1-73
				c16.2-73.5,63.7-126.6,93.4-171.4c47.6-66.7,43-178.3,45-173.8l6.6,0.8c0,0-5.9,65.4-3.3,94.9c2.7,26,2.1,27.6,0.2,30.2
				c-0.5,2.4,0.1,9.5-0.4,11.9c-21.9,96-72.8,194.4-125,268.5L-21841.8,6553.1z M-21358,6390.4l-155.5-251.3l38.1-3
				c13.9,22.5,149,237.3,149,237.3L-21358,6390.4z"/>
			
				<path id="path3395-8-0-1-6_1_" class="st1" d="
				M-22021.8,7473.3c18.7-65.8-28.3-219.8-58.6-240.2c35.8-1.1,78.7,0,77.4-3.3c0,0,149.3,240.7,148,242
				C-21856.1,7473-22021.8,7473.3-22021.8,7473.3L-22021.8,7473.3z M-21401.7,7105.9c-36.8-5.6-21.9-36.1,1.8-39
				c-3.1,0.5,2.7-15.2,21.9-21.3c4.4-7.8,8-21.2,12-27.4c-11.5,3.6-25.5,13.1-77.4,4.9c4.8-24.6,54.6-28.2,72.5-24.2
				c10.3,2.5,20.4,18.1,23.5,18.4c32-5,72.3,24.4,59.7,53.6c-2,4.2-6.7-5-17.4-9.1c-34.6-13-36.8-31.8-44.7-40.3
				c-2.9-0.6-18.6,29.7-18.6,29.7l4.6,20.7c8.3-0.7,45.1,22.6-1.2,37.6C-21378.3,7153.2-21402,7122-21401.7,7105.9L-21401.7,7105.9z
				 M-21312.3,6910.7c-1.9-2,1.7-15.7,6.5-23.5c2.6-4.2,8.4-7,11.9-6.4c6.1,1.1,5,10-3.3,35.8
				C-21297.7,6920.4-21305.9,6920.7-21312.3,6910.7z M-22043.7,6720.8c-10.1-0.1-0.7-27.5,5.6-36.2c2.1-2.7,10.1,3.2,10.4,7.2
				C-22027,6698.9-22038.2,6723.7-22043.7,6720.8z M-22048.7,6533.8c12.3,3.1,31.6,15.7,40.9,22.7c11.5,8.8,8.1,25.7,17.4,27.3
				c6.3-3,18.1-30.7,18.1-30.7s3-14.2-5.1-18.7c-20.2-11.2-19.7-23-18.4-24c6.2-15.5,18.1-12.6,24.6-13.4
				c0.2-8.5,0.2-26.6,17.8-24.5c15.4,1.6,16.7,23.7,10.2,23.9c-0.1-0.4,29.3-3.9,28.8,15.5c-0.3,10.5-17.8,23.7-23.2,18.8
				c0,0,2.7,21-23.7,27.8c-6.2,6.2-11.5,32.7-11.5,30.4c16-14.1,40.9-17.2,80-11.6c-24.8,44.7-91.7,22.9-96.8,14.2
				C-22023.4,6580.8-22054.9,6567.2-22048.7,6533.8z M-21758.4,6429.2c35.7,3.6,74.9-7.1,104.5-0.9c3.4,0.5,7,5.5,9,6.7
				c15.3,8.5,31.4,6.1,56.2-3c6.1-2.2,119.4-0.1,119.4-0.1c25.4,38.4,70.4,110.6,71.5,108.2c0,0-62.8-1.4-91.7,0
				c-20.4,1-8.4,3.9-22.6,4.3c-99.8,73.2-120.4,233.7-120.4,233.7s31.5-7.9,39.7,0.8c40.2-113.4,114.6-164.5,217.5-153.2
				c47.5,5.2,103.8,52.7,103.8,52.7l-102.8,81.8c-78.5-40.7-113.6,76.3-89.7,76.8l207-165.4c0,0,3.4,13.7,3,14.2
				c-14.8,19-261.6,214.8-261.6,214.8l-10.6-12c0,0-6.8,5.9-10.4,9.9c-0.4,6.5,1.8,12,6.7,17.2c-48.9,38.3-51.3,109.7-16,149
				c0,0-15.9,0.9-17.5,1.2c-20.2,3.2-39.9-96.3,0.5-142c-19.7-39.7-31.5-93.5-34-96.1c0.5,6.3-31.8,3.9-31.8,3.9
				c-3.4,80.2-12.6,158.7-32.7,234.3l148.4,4.8l-64.4,109c0,0-70.9-2.6-101.4-5c-31.7-18.9-50.2-5-80.2,1.5
				c-42.6,0.8-105.3-1.9-105.3-1.3c-20.8-42.5-43.3-73.8-74-110.3c-3.9-6.6,126.1-1.1,126.1-1.1s66.1-97.6,78.2-125.2
				c9.5-21.6,31.1-100.2,31.1-100.2c0.9,4.1-11.6-20.6-41.3-20.4c-26.4,163.1-221.2,216-336.8,109.5l-0.9-19l259.8-206l11.3,13.3
				c-2.4-2-159.5,125.7-156.9,125c45.8,24.6,99.4,5.7,94.1-73.6c36.8-26,69.5-56.4,101.7-87.5c0.7-1.2,34.6,78.5,33.6,93.7
				c20.1-6.5,31.8,7.7,31.4,5.3c-6.7-46,35.4-219.4,36.4-239.4c-22.3-2-51.9-1.6-98.3-3.9c36.5,72.6,23,121.3-29.6,165.1l-10.7-13.8
				c4.4,2.5,76.8-58.7,20.1-152c-2.6,0.2-30.4-2.8-30.4-2.8S-21761.4,6441.9-21758.4,6429.2z M-21478.5,6134.1
				c0,0,162.5-2.1,162.5,2.7c-6.2,87.2,13.3,167.1,61.6,241.3c0,0-71.9-3.4-70.6-2.4L-21478.5,6134.1z"/>
			
				<path id="path3393-8-5-4-3_1_" d="
				M-21240,6130.6l-844.2-9.4l-15.1,1355.2l844.2,9.4L-21240,6130.6z M-21319.4,6135.6c-0.1-0.1-12.5,143.3,61.3,238.1
				c-45.7-7.4-71.9-0.7-98.8,17.8l3.6,3.8c36.9-22.1,68-15.9,99.8-12l-2.1,184.6c-0.3,9-38.2,4.5-61.4-13.3
				c-11-6.7-25.2-20.6-31.5-31c-1.9-3.2-3.9-6.3-4.5-7c-2.1-2.5-15.2-27.5-39.1-74.8c-12.2-24.1-28.3-56.9-41.4-82.3
				c-8.5-16.5-24.2-47.6-25.3-50.1c-2.3-5.2-19.4-39.5-26.1-52c-17.6-33-46.1-90.7-56.2-111.3c-2.2-5.4-5.7-7.9,0.5-7.6
				c1.4,0,2.8,0.1,3.6,0.3c1.1,0.6,2.5-1.9,2.5-1.9L-21319.4,6135.6z M-22081.2,6903.5l0.2-14.5l248.2-199.7l7.7,10.2
				L-22081.2,6903.5z M-21839,6551.6c-1,0.4-2.1,0.7-3.3,1.1c-6-28.2-2-65.7,5.8-93.9c11.3-39.1,31.8-70.3,54.7-101.6
				c52.3-71.6,75.7-125.7,75.8-222.6l7.3,0.9c-0.5,15.3-2.6,26.8-3.5,47.2c-1.2,21.8-1,38.4,1.1,59.8c1,10.5,1.6,17.3-0.1,18.6
				c-0.8,0.7-1.6,4.3-0.9,5.6c-0.2,2.9-0.6,8.7-0.6,8.7C-21715.1,6332.8-21780,6480.1-21839,6551.6L-21839,6551.6z M-21809.8,6683.1
				l-12.8-16.1c0,0-9.9-8.2-0.8-17.2c26.3-26.1,26.8-59.6,2-90c-1.6-3.8,8.1-23.1,8.1-23.1l19.8,0.5
				C-21763.1,6575.2-21755.5,6641.6-21809.8,6683.1z M-21790,6534.3c0.6-2.6-29.3-1.9-29.3-1.9c18.9-27.5,35-55.8,50.9-84.2
				c24.6-43,58.8-118.4,69.9-173.2c7.1,64.3,17.4,159.8,72.3,164.2c18,1.4,39-10.7,42.4-8.6l114.2,0.4
				c22.9,47.8,47.7,78.6,77.2,111.4c21.3,12.4,47.3,22.4,72.5,29c14.3,3.7,15.7,1.4,43.9,5.7c7.5,1.1,18.9-1.9,18.7-1.9
				c-22.8,17.6-48.8,12.2-77.4,4.3c-1.6-0.4-3.3-1-5-1.6l-22,32.4c-48.1-12-203.1-5.6-245.8,162.4c0,0,4.2,2.2,3.2,1
				c34.1-145.8,171.4-173.4,236.5-158.2l-5.7,8.5c-108.2-14.5-197.2,52.3-219.3,148.2l2.1,1.9c42.3-144.9,213.8-196.7,318.7-94.8
				l19.6-13.5l-0.8,18.6l-263,215.4l-10.3-10.9c0,0-1.8,1.4-3.9,3.1c-6.8,5.5-9.5,6.9-7.6,10c1.8,3.1,9.1,10.3,9.4,11.1
				c-43.6,34.7-58.1,102.5-17.5,150.5c4.5,5.1,3.7,6.4,2.9,0.7c-36.4-40.5-30.9-111.4,15.4-144.4l9.1,12.2
				c-20.7,44.2-32.3,113.3,20.8,119.9c18.5,51.3-4.1,111.5-29,151.8c-26.4,46.4-58.3,84.9-78.5,135.6
				c-9.8,21.1-25.6,83.9-25.4,132.1l-5.7-0.1c0.2-19.6,1.8-42.9,2.1-57.8c1.6-72.6,1.5-68.3,3.1-70.1c0.5-0.6,2.1-1.2,2.2-1.7
				c0.2-0.8-1.2-2.3-1.7-4.1c-0.5-1.8-1.5-5-1.3-7.7c0.1-2.7,2.7-6.6,2.2-7.5c-11-40.2-11.1-112.2-47.7-145.6
				c-17.9-15.8-42-16.6-73.3-4.2c-68.7-0.6-58.6,3-114.1-0.8c-22.5-42.3-49.9-83.6-79.7-114.3c-13.9-15.9-33.4-24.7-51.7-36.3
				c7.5-13.9,16-24.1,25.3-30.6c1.9-2.7,3.3-5.6,5.7-7.9c187,20.1,229.6-160.7,221-156.2l-1.7,1.4
				c-53.2,186.2-235.3,177.4-325.9,95.6c0,0-13.1,11.1-13-1.2c0.1-11.2,4.2-14.4,4.2-14.4l259.3-206.6c4.7,3,9.6,13.1,11.7,12
				c4.8-2.5,11.8-7.4,11.6-10.4c-0.1-2.3-9.2-17-9.2-17C-21737.8,6615.5-21768.5,6583.3-21790,6534.3L-21790,6534.3z
				 M-21688.1,6135.5c1.2,0,2.4,0.6,3.3,2c1.5,2.5-4.9,16.9-8.7,19.4c-3.7,2.4-3.9-0.4-1.1-14.4
				C-21693.9,6138.4-21690.9,6135.5-21688.1,6135.5z M-21311.2,6140.1l60.4,0.7l-2.5,228.4
				C-21297,6306.2-21319.2,6234.1-21311.2,6140.1z M-21672.2,6136.5c1.5-0.1,2.8,0.4,3.2,1.5c1.5,3.9-7.4,20.4-18.4,34.1
				c-5.7,7.1-8.5,9.1-10.3,7.4c-1.4-3.3-1.4-7.1,3.9-13c4.3-4.9,11.7-16.3,14.7-22.6C-21677.7,6140.1-21676.3,6136.7-21672.2,6136.5
				z M-21611.1,6138c1.7,0,3.5,0,4,0.9c10.2,21.3,29.5,40.6,49.4,51.1c2.9,1.7,1.5,5.8,2.4,8.8c-22.5-3.6-51.6-35.8-59.2-59.1
				C-21614.5,6137.9-21612.8,6137.9-21611.1,6138z M-21575.9,6138.3c4.4,4.6,11.4,10.2,12.9,15.4c0.9,3.2,1.6,6.9,0.9,8.6
				c-3.9,2.4-23.1-20.3-22.3-23C-21581.9,6137.7-21578.8,6137.4-21575.9,6138.3z M-21660.1,6137.1c1.9,0.1,4.8,0,5.2,1.5
				c2.3,9.9-20.5,47.9-37,58.5c-5.9,3.8-6.2,2.8-5.7-3.7c0.4-4.3,0.8-4,6.8-9.6c8.6-8,18.1-20.5,23.3-31.6
				C-21660.7,6138-21662.3,6137.1-21660.1,6137.1z M-21644.9,6137.4c2.1,0,4.1,0.8,4.7,1.7c0.7,1.3-0.3,3.4-1,5.9
				c-7.6,20.8-26.3,50.7-48.1,67.6c-8.5,6.4-9.9,6.3-10.4-0.4c-0.3-3.9,1.5-5,5.5-7.7c18.4-12.5,35.1-34.3,42.4-56.8
				c1.4-4.4,0.9-8.3,3.3-9.6C-21647.5,6137.6-21646.2,6137.4-21644.9,6137.4z M-21531.7,6174.9c0.9,1.5,7,11.4,1.9,7.6
				c-2.1-1.8-5.9-6.1-11.9-13.1c-14.2-16.5-14.7-15.5-14.3-19.6c0.2-5.3-3.5-14,4.7-11.7
				C-21543.3,6147.7-21538.4,6163-21531.7,6174.9z M-21596.9,6138.3c1.6,0,3.6,0.3,5.2,0.7c9.3,17.9,32.3,33.9,32.2,33.8
				c0,0,0.5,7.8-0.4,9.1c-0.5,2.4-36.5-25.6-40.4-42.2C-21599.8,6138.6-21598.5,6138.3-21596.9,6138.3z M-21622.7,6138.3
				c8.3,15.8,25.5,51.5,66.7,66.3c3,0.7,6,9.2,3.7,11.5c-22.6-6.8-63.4-29.5-76.9-77.6
				C-21627.7,6137.2-21624.1,6137.4-21622.7,6138.3z M-21633.8,6141.2c-1.4,0,18.8,60.6,78.3,79.3c5.1,1.7,8.1,3.9,7.8,7
				c-0.5,3.8-0.3,4.3-6,1.4c-16.2-8.7-39.3-12.9-58.8-3.3c-3,1.5-6.2,5.7-3.7,8.3c1.4,1.4,4.8,0.4,9.2-1.2c22.6-8.5,57.1-3,63,10.9
				c4.2,9.8,4.9,17.1,2.5,18.2c-1.8,0.9-4.8-2.4-10.2-7.2c-17-15.2-37.4-19.6-53.9-5.4c-3.6,3.1-7,2.5-8.3,3.8
				c-1.2,1.2,0.2,4.1,1.2,6.8c1,2.9,1.1,3.7,0,6.1c-1.5,3.3-1.6,7.5-1.4,10.7c0.3,7.7,5.3,14.4,19.9,24.7c11.3,8,20.2,12.6,6.4,1.2
				c-23.8-19.7-28.1-27.7-12.6-20.8c15.5,6.4,37.1,0.4,52.5-11.1c5.2,0,8.3-0.9,11,1.1c11.1,26.8,20,62.5,34.7,97.1
				c-18.3,20.2-81.7,69.5-126.5,67.2c-38.7-2-51.7-65.5-59.8-100.6c-2.7-14.8-5.8-30-5.2-50.9c0,0,0.7-0.6,1.7-0.4
				c6.5,1.3,17.6,2.3,23.3,1c10.3-2.3,12.4-4.1,13-2.6c0.7,1.8-3.6,5.8-11.2,10.8c-3.3,2.2-12.8,6.7-11.8,7.3
				c2.2,1.5,13.8-4.4,15.7-6c3-2.5,5.1-2.6,6.5-1.2c1.7,1.7,2-0.1-3.7,13.6c-6.3,15.1-5.7,16.5,6.1,26c4.1,3.3,7.9,6.6,8.8,8
				c1.1,1.9,1.9,4.1,2.4,4.8c2,2.7,0.8-1.6-0.3-8.6c-1.3-5.1-6.3-10.3-9.8-12.8c-6.5-4.6-5.4-9,0.2-24.4
				c16.4-45.3,12.6-65.7-4.8-75.7c-7.8-4.5-30-3.6-37,2.1c-3.5,2.8-2.9-2.8-2.4-3.2C-21655,6195.1-21644.8,6167.7-21633.8,6141.2
				L-21633.8,6141.2z M-21553,6164.4c11.8,12,26.5,28.2,35.3,39.7c4.8,6.1,7.4,12.4,11.2,18.9c0.7,1.2,1.4,2.5,0.9,3
				c-0.2,0.2-1.9-0.8-2.8-1.5c-8.7-6.7-44.3-48.2-44.3-48.2C-21554.3,6169.6-21555.4,6167.3-21553,6164.4z M-21546.2,6192.4
				c0,0,30.9,34.5,48.6,51.5c3.4,7.4,10.1,18.2,9.9,20c-0.1,0.8-3.8-2.1-3.8-2.1c-19.6-18.5-37.6-39.1-56.4-58.8
				c0.2,0.1-1.4-8.1-1.4-11.3C-21548.8,6189.9-21547,6191.7-21546.2,6192.4z M-21479.3,6280.6c4.1,6.9,7.1,13.1,9.1,17.1
				c3.3,6.4,2.2,6.6-0.8,4.2c-22.2-18.6-40.6-41.1-61.5-61.7c-2.7-2.8-8.1-9.2-8.1-9.2c0.2,0.2-6.7-14.8-2.3-14.4
				c3.5,1.4,5.7,5.2,7.9,7.6C-21524,6236.1-21503.2,6256.7-21479.3,6280.6z M-21673.9,6229.7c9.2-0.2,18.3,2.3,22.8,8
				c4.1,5.2,5.7,13.4,3.4,15.7c-1.5,1.5-6.5-2.8-6.5-2.8c-21.6-12.4-29.1-6.6-41-3.2c-1.7,0.5-3.4-4.1-1.2-8.5
				C-21692,6231.5-21681.1,6229.8-21673.9,6229.7L-21673.9,6229.7z M-21537.3,6242.7c23,23.6,46.3,49.7,71.2,70c3.5,3,5.9,5,7.5,6.6
				c3.2,6.6,10.7,22.4,10.7,22.4c-26.7-19.1-86.7-84.8-86.1-84.3C-21533.4,6257.7-21538.9,6245.5-21537.3,6242.7z M-21582.8,6246.1
				c4.2,0,8.9,1.4,12.5,2.9c11.7,4.8,19,9.8,6.9,8c-16.8-2.5-22.6-2.7-28.8-1.7c-11.5,1.7-12.4,3-13.4,1.2
				C-21608.2,6251.6-21595.6,6246.1-21582.8,6246.1z M-21678.7,6246.4c4.2,0,8.8,1,13.3,3c14.2,6.4,16.7,10.5,4.6,8.4
				c-6.3-1.1-17.9-1.1-26.2,0.9c-2.6,0.6-5.6,2.1-6.3,2.4c-3,0.9-3.7-1.3-2.4-5C-21693.5,6249.8-21686.7,6246.3-21678.7,6246.4z
				 M-21575.2,6265.8l3,0.2c-3.9,20.9-24.8,18.6-30.2,0.6l3,0C-21588.7,6283.9-21580.4,6273.9-21575.2,6265.8z M-21563.6,6267
				c9.7,0,9,5.8-1.1,9.6c-7.7,2.9-8.6,2.3-5.7-3.4C-21567.7,6267.7-21568,6267-21563.6,6267z M-21663,6266.7
				c0.7,18.8-25.6,22-26.9,1.4l2.5-0.1c8.4,16.2,18.5,6.6,21.7-1.4L-21663,6266.7z M-21651.4,6269.4c2.9,2.1,1.1,4.8-5.4,8.7
				c-5.9,3.6-7.3-0.8-2.4-6.9C-21657.2,6269.3-21653.9,6267.7-21651.4,6269.4z M-21605.9,6269.8c1.2-0.3,3.8,4.8,1.5,6
				c-1.4,0.7-3.4-1.4-3.6-2.9C-21608.2,6271.6-21607.4,6270.3-21605.9,6269.8z M-21527.3,6271.9c17.3,19.5,34.7,39.1,85.8,81.6
				c0,0,7.1,13,8.7,18.1c-1.3,1.5-1.9,1.3-5.5-0.5c-33.3-26.3-64.3-58.3-88.4-87.9C-21527.9,6279.1-21530.4,6275.1-21527.3,6271.9z
				 M-21694.3,6272c2,0,4.7,4.4,3.2,7.1c-1.3,1-3.3-0.6-4.1-1.8c-0.8-1.2-0.8-3.4-0.3-4.4
				C-21695.2,6272.2-21694.8,6272-21694.3,6272z M-21520.3,6300.6c-0.1-0.7,80.5,82.9,91,81.5c4.8,2.9,16.7,26.6,16.7,26.6
				c0.3,0.7,0.3,2.1-1.7,1.1c-13.7-7-70.9-55.5-99.9-91.4C-21516.3,6313.2-21518.8,6306.5-21520.3,6300.6z M-21617.4,6311.7
				c14.2,7,7.9,21.1-7,11.9c-11.8-7.3-21.1-8.1-21.1-1.9c0,2.6,3.2,6,6.3,6c5.8,0.4,11.1,2.6,16.9,4c8.9,2,15.7-0.3,18-5.7
				c3.9-9.2-5-19.4-11-18.9C-21621.4,6307.6-21619.9,6310.5-21617.4,6311.7L-21617.4,6311.7z M-21505,6335.5
				c-1-0.9,40.1,45.1,96.3,83.4c2.2,2.6,7.5,15.8,8.4,17.5c-0.2,1.2-1.5,0-1.5,0c-28.4-16.9-65.9-50.1-101.2-87.7
				c0,0-3.4-8.3-4.3-13.7C-21506.6,6334.7-21505.7,6335.2-21505,6335.5z M-21599.6,6350.9c-1.3,0.2-3,2.1-5.2,3.2
				c-4.4,2.4-5.8,3-16.4-0.4c-5.8-1.8-6.7-1.7-10.2,0.8c-3.1,2.2-4.7,2.6-8.1,1c-6.1-2.8-8.9-0.8-14.6,1.1c-5.4,1.9-7.2-0.5-12-1.7
				c-0.6,0-1.1,19.5-0.5,20.1c0.2,0.2,5.1-2.9,7.8-4.2c4.7-2.3,4-2,10.9-1.6c10.1,1.9,20.1,1.4,26.9-1.2c8.4-2.3,15-1.8,20.8,3.1
				c3.5,2.9,8.2,2.5,5.5-2.8c-0.9-1.8-3-8.6-2.7-11.2c0.4-3.8-0.4-6.2-1.8-6.3C-21599.4,6350.9-21599.5,6350.9-21599.6,6350.9z
				 M-21492,6367.3c18.9,18.6,42.2,46.8,97.3,79.9c2.8,5.1,6.7,11.9,9.1,17.2c0.2,1.5-0.2,2.7-1.6,2.2c-34.1-22.1-53-32.9-100-80.3
				c-2.9-4.8-6-12.9-8.3-19.5C-21494.9,6364.9-21492.8,6366.8-21492,6367.3z M-21500.1,6374.2l20.8,40.1l-71.5-0.9
				C-21532.5,6402.7-21515,6388.5-21500.1,6374.2z M-21618.6,6373.8c-11.8,4.5-13.6,5.5-25.2,2.5c-6.8-1.7-4.9,2.2-1.5,3.9
				c8.7,4.2,21.5,1.4,26.2-1.8C-21615.9,6376.5-21613.7,6371.9-21618.6,6373.8z M-21630.8,6385.9c-12.3,0-23.9,4.2-24.9,9.2
				c-0.2,1,0.8,2.1,2.7,0.9c8.4-4.9,29.1-6.3,44.7-0.5c2.5,0.9,3-0.6,0.4-2.8C-21613.7,6387.8-21622.4,6385.9-21630.8,6385.9z
				 M-21475,6404.7c22.9,21.6,45,41.5,94.5,70.6c3.5,7.9,8.6,17.3,9.5,18.1c-46.4-23.2-96.8-68.4-96.8-68.4s-7.8-14.3-9.6-20.5
				C-21477.6,6402.5-21475.6,6404.2-21475,6404.7z M-21459.4,6438.1c0,0,42.2,36.5,90.5,61.5c1.9,1.9,6.7,13.6,8.3,14.8
				c1.6,1.3-1.9,1.2-5.4-0.6c-25.3-12-79.4-50.1-79.4-50.1C-21450.6,6455.2-21458,6446.2-21459.4,6438.1z M-21970.9,6583
				c4-8.3,8.1-17.5,10.7-25c11.6,0.3,17.3-4,21.5-9.2c5.9-0.1,10.4,0,18.4-0.2c-0.2-7.9,0.3-19.1,0.3-19.1
				c8.2-8.3,13.8-17.8,1.4-32.8c0,0-0.4-6.9-0.5-18.6c-5.8-1-18.8-0.5-18.8-0.5c-10.3-14.9-29-11.4-34.8-0.4c0,0-8.4,0.4-14.1,0.3
				c-0.2,3.1-1.3,17-1.3,17s-24.7,16.4,0.5,36.4l-0.5,16.5c4.8,0.4,8.2,0.2,14.4,1.4c0,0-10,22.5-16.5,33.1
				c-2.2,0.5-1.7-0.7-4.2-8.2c-3.1-8.9-10.2-18.6-16.2-23.4c-8.2-6.5-19.5-8.6-27.3-14.2c-7.5-5.4-12.8-12.4-15.3-11.1
				c-0.8,2.7-1.9,18.1,0.9,28c3.9,16.3,27.2,27,46.7,35c1.5,1,2.8,2.5,2.8,3c0,2.7-2.6,1.8-9,1.1c-9.7-1.1-13.7,1.5-17.2,9.8
				c-1,2-3.5,5.5-5.5,7.8s-4.1,4.6-4.4,5.6c-0.3,1-2.4,6-4.4,10.2c-1.3,2.6-3.3,5.3-3.5,9.1c-0.6,11.7-0.9,27.4,0.7,37.3
				c1.2,7.3,10.3,11.6,13.5,12.2c4.8,1,5.7,5.9,4.9,9.9c-4,19.8-15.5,31.8-19.1,25.3c-0.9-1.7-1.9-9.8-2.1-9.7
				c-0.2,0.1-2,6.9-1.4,9.7c0.7,3,4.5,5.2,8.3,3.9c5.6-2,10.1-7.4,13.7-20c1.5-5.1,2.9-8,5.3-8.3c4.4,0.4,11.2,9.5,11.2,9.5
				c-23.1,18.8-67.5,53-67.5,53l7-625.6l361.5,4c1.5,49.6-5,91.8-23.3,135.8c-21.6,47.4-54.8,82.4-80.4,125.9
				c-30.9,52.6-41.2,107.3-31.5,162.6c-31.4,40.1-57.6,59.3-82.6,77.8c0,0-18.3-19.7-28.5-30.7c0,0,4.4-0.3,9.4-0.5
				c23.5-2.4,49-5.4,59.1-29.8c1.4-2.7,0.9-3.9-0.8-4.3c-18.4,2.3-34.4-0.4-44.8,0.2C-21960,6574.3-21970.9,6583-21970.9,6583
				L-21970.9,6583z M-21968.3,6601.1c0,0-29.4-14.4-31.6-14.8c-12.8-2.5-43.7-19-48.8-30c-0.7-1.4-2.2-21.5-2.7-25.6
				c0.2-1.3,0.7-1.3,2-0.3c3.3,2.3,16.1,10.8,20.8,13.2c19.5,9.7,27,16.6,31.7,31c1.2,3.6,2.4,7.4,3.1,8.1c1.6,1.7,2.2,1.6,4.2,0.1
				c8.5-10.8,12.6-19.8,16.6-31.4c0.5-1.3,1.6-2.6,1-4.5c-1.5-5.2-5.2-11.9-1.3-16.9c-12.3,0.4-23.9-8.7-22.4-17.7
				c3.5-16.6,10.5-13.5,23.8-15.8c-1.1-38.6,34.9-28.8,34.5-2c39.6,3.8,20.5,40.2-2.5,34.4c8.9,20.9-18.6,28.4-22.4,24.8
				c-1.6,6.7-12.3,28.3-14.6,34.7c29.6-20.5,76.7-10.7,83.6-12C-21910.8,6611.9-21966.5,6602.6-21968.3,6601.1z M-21438.1,6475.6
				c7.4,5.8,70.2,46.1,81.8,47.1c0,0,5.5,6.3,10.1,12.1c4.2,5.4,5.8,6.2,6.3,7.3c0.5,1.1-1.6,1-2,1c-28.3-12.7-57.1-26-81.5-46.8
				c-3.3-2.9-4-4.1-5.6-6.3C-21431.2,6487-21437.5,6476.7-21438.1,6475.6z M-21417.6,6507.7c28.7,16.6,53.1,32.6,79.4,41.4
				c3.7,1.5,5.7,1.6,7.5,2.9s9.8,6.4,11.7,7.5c11.9,7.2,13.2,6.9,10.2,8c-3.3,1.3-24.4-5.1-42.1-11.9c-31.5-12-42.6-18.8-54-29.3
				C-21407.4,6523.7-21419.2,6509.2-21417.6,6507.7z M-21995,6591.9c2.4,0,6.3,1.5,10.3,4.7c4.3,3.4,14.9,10.5,19.3,12.4
				c2.2,1,2.9,1.2,2.9,1.2l28.1,32.6l-73.9,58.7c0,0-5.9-6.1-7.7-8.2c-1.8-1.9-1.2-3.5,1-5.7c1.8-1.7,2-5.5,1.7-7.4
				c-0.4-2.8-0.3-5.9,3.2-8.4c2.8-2,3.3-5.7,3.2-6.7c-0.1-0.8,1.6-3.4,4-5.2c5.2-3.7,6.8-8.2,5.1-13.6c-0.7-2.3-1.1-2.8,1.9-4.8
				c5.3-3.4,6.6-6.7,7.1-11.8c0.1-0.8-0.1-1.7-0.2-2.3c-1-5.4,3.8-4,7.6,2.8c2.1,3.7,2.6,9.8,3.6,16.7c1.2,8.2,2,10.4,2.5,9.3
				c2.6-6.6-0.1-31.3-7.6-34.7c-10.9-5-20-15.1-17.2-19c1-1.3,1.1-0.9,7.8,2.3c3.9,1.9,7.5,3.4,8.1,3.4c7.8,0.3,3.1-3,0.6-3.4
				c-3-0.5-12-6.1-13.1-8C-21998.5,6593.6-21997.5,6592-21995,6591.9z M-22013.8,6596c7.2,0,8.5,1.9,8.5,8.1c0,3.6,1.3,6.4,6.9,13.8
				c2.3,3,3.8,5.3,3.7,6.4c-0.3,1.9-0.9-0.1-8.8-1.1c-2.8-0.4-4.2-0.4-5.2,1c-2.8,4-8.5-0.3-11.9-6.2
				C-22028.9,6603.7-22025.9,6596-22013.8,6596z M-21877.6,6606l76.8,96.1l-8.9,6.7l-77.1-94.8L-21877.6,6606z M-21890.7,6611.7
				l8.2,14.2c0,0-24.3,20.3-30.8,26.1c-51.7,40.9-168.4,133.8-168.4,133.8l-1.3-19L-21890.7,6611.7z M-22031.2,6612.7
				c1.5,0.1,3.2,2,5.7,5.8c2.1,3.3,6.6,9.9,11.4,14.4c9.4,8.8,10.3,8.1,2.6,8.8c-3.1,0.3-4.1-0.1-6,4.6c-5.7,7-22.1-18.4-18.1-28.1
				C-22034,6614.5-22032.7,6612.6-22031.2,6612.7z M-22004.2,6626.6c1.4-0.1,3.3,0.5,5.4,1.8c4.1,1.7,4.4,2.7,3.7,6.7
				c-0.7,3.8-3.6,4.7-9.2-0.3C-22008.6,6630.7-22007.8,6626.8-22004.2,6626.6L-22004.2,6626.6z M-21880,6630.3l9,11.9l-209.2,165.6
				l0.2-19.3C-22074.9,6789.2-21940.7,6675-21880,6630.3z M-22041,6630.5c0.6-0.1,1.4,1.8,3.7,5.3c4.6,7.1,8.9,11.8,13.7,15.6
				c4.6,3.5,5.1,5.5,1.9,5.5c-1.4,0-3.2,1.4-4.2,3.1c-2,3.4-2.2,2.6-5.2,0.7c-4.3-2.6-8.6-6.5-10.3-11.5c-1.6-4.8-1.7-12-0.3-17.2
				C-22041.4,6631-22041.2,6630.5-22041,6630.5z M-22008.4,6644.2c5.3-0.1,9,6.1,5.5,11c-2,1.9-3.7,2.8-7.6,0.4
				c-5.1-3.1-6-7.7-1.7-10.3C-22010.9,6644.6-22009.6,6644.3-22008.4,6644.2z M-22042.6,6657.2c1.1,0,3.1,1.6,6.4,5.1
				c2.5,2.7,7,5,8.8,6c4,2.3,4.2,3.1,2,4.8c-0.9,0.8-4,0.8-4.9,3.2c-2.5,6.9-12.5-1.3-13.3-11.2
				C-22044,6660-22044,6657.2-22042.6,6657.2z M-22017.2,6658.3c6.6,0.3,9.7,8.1,4.3,11.8c-2.9,2-10.1-1.7-10.8-5.5
				C-22024.1,6662.2-22019.7,6658.2-22017.2,6658.3z M-21862.5,6665.8c3.8,0,6.9,3.2,6.9,7c0,3.8-3.2,6.9-7,6.9
				c-3.8,0-6.9-3.2-6.9-7S-21866.3,6665.7-21862.5,6665.8z M-21883.3,6668.4c3.8,0,6.9,3.2,6.9,7s-3.2,6.9-7,6.9
				c-3.8,0-6.9-3.2-6.9-7C-21890.3,6671.4-21887.1,6668.4-21883.3,6668.4z M-22022.6,6676.1c0.4,0,0.9,0,1.3,0
				c6.4,0.4,6.6,6.5,2.8,9.7c-2.3,1.9-4.3,2.5-7.3,0.1C-22030.9,6681.7-22028.9,6676.4-22022.6,6676.1z M-21868,6688
				c3.8,0,6.9,3.2,6.9,7s-3.2,6.9-7,6.9c-3.8,0-6.9-3.2-6.9-7C-21875.1,6691-21871.9,6688-21868,6688z M-21257.7,6695.2l-0.2,17.6
				l-247.5,201.4l-8.2-10.9L-21257.7,6695.2z M-21882.2,6689.8l-18.6,40.5l-5.3-10.6l-13.6-0.2l4.3-12.1l-7.9-9.8L-21882.2,6689.8z
				 M-21497.8,6863.5l32.6-25.5c-13.1-70.3,42.7-97.6,95.2-76.6l33.1-27.6C-21397.2,6681.9-21540.7,6715-21497.8,6863.5z
				 M-21933.2,6721.6c3.8,0,6.9,3.2,6.9,7s-3.2,6.9-7,6.9c-3.8,0-6.9-3.2-6.9-7S-21937.1,6721.5-21933.2,6721.6z M-21954.3,6723
				c3.8,0,6.7,3,6.7,6.8s-3,7.2-6.8,7.1c-3.8,0-6.9-3.2-6.9-7.1S-21958.2,6723-21954.3,6723z M-21842.2,6738.4l-32.3,25.3
				c7.5,67.3-25.5,101.1-95.5,77.3l-34.3,26.6C-21913.2,6931.7-21792.2,6851.6-21842.2,6738.4z M-21940.8,6743.4
				c3.8,0,6.9,3.2,6.9,7c0,3.8-3.2,6.9-7,6.9c-3.8,0-6.9-3.2-6.9-7S-21944.7,6743.3-21940.8,6743.4z M-21267.3,6752.6
				c3.8,0,6.9,3.2,6.9,7s-3.2,6.9-7.1,6.9c-3.8,0-6.9-3.2-6.9-7C-21274.3,6755.7-21271.1,6752.6-21267.3,6752.6z M-21955.2,6746.6
				l-20.9,40.3l-5-12.3l-13.7,0l4.6-14.1l-8.5-7.4L-21955.2,6746.6z M-21294.8,6758.2l6.2,10.8l13.4,0.5l-5.2,10.1l9.6,10.1
				l-43.9,10.3L-21294.8,6758.2z M-22004.5,6779.8c3.8,0,6.9,3.2,6.9,7c0,3.8-3.2,6.9-7.1,6.9c-3.8,0-6.9-3.2-6.9-7
				C-22011.4,6782.8-22008.3,6779.7-22004.5,6779.8z M-22024.5,6780.3c3.8,0,6.9,3.2,6.9,7c0,3.8-3.2,6.9-7.1,6.9
				c-3.8,0-6.9-3.2-6.9-7S-22028.3,6780.3-22024.5,6780.3z M-21329.1,6792.2c3.8,0,6.9,3.2,6.9,7c0,3.8-3.2,6.9-7,6.9
				c-3.8,0-6.9-3.2-6.9-7C-21336.1,6795.2-21332.9,6792.1-21329.1,6792.2z M-21258,6794l-0.2,15.4l-201,163.4l-8.3-10.9L-21258,6794
				z M-22010.8,6800.7c3.8,0,6.9,3.2,6.9,7c0,3.8-3.2,6.9-7,6.9c-3.8,0-6.9-3.2-6.9-7.1
				C-22017.7,6803.8-22014.6,6800.7-22010.8,6800.7z M-21315,6810.1c3.8,0,6.9,3.2,6.9,7s-3.2,6.9-7,6.9c-3.8,0-6.9-3.2-6.9-7.1
				C-21322,6813.2-21318.9,6810.1-21315,6810.1z M-21334.7,6811.2c3.8,0,6.9,3.2,6.9,7s-3.2,6.9-7,6.9c-3.8,0-6.9-3.2-6.9-7.1
				C-21341.7,6814.2-21338.6,6811.1-21334.7,6811.2z M-21257.1,6814.5l-0.8,19.6c-62.6,52.2-190.7,155.9-190.3,156l-9.4-13.3
				C-21457.6,6976.7-21317.1,6858.4-21257.1,6814.5z M-22023.5,6803.1l-19.6,43l-8.1-11.7l-12.1-1l3-11.7l-11-7.7L-22023.5,6803.1z
				 M-21359.9,6827.5l12.2-2.2l-2.3,12.5l8.5,9.1l-45.1,9.4l22.2-40.1L-21359.9,6827.5z M-21295,7038.7c9,13.8,8.2,28.7,4.4,30.9
				c-4-2.3-7.5-6.3-11.6-8.1c-20.9-9.3-37.5-16.9-40.4-30.2C-21353.7,7001-21302.5,7027.2-21295,7038.7z M-21404.3,6957.5l71.2-56.7
				c0,0,10.8,5.7,12.8,8.3c0.7,2.8-1.3,3.6-4.2,6.2c-1.3,1.7-2.2,3.3-2.3,7c-0.1,3.9,1.2,5.7-0.5,7.4c-2.7-0.2-4.8,3.3-4.7,6.1
				c0.1,2.1-2.8,4.5-4.4,6.1c-3,2.8-3.8,3.4-5.8,13.1c-0.2,1-0.2,3.5-1.5,4.8c-4.1,0.3-7.2,10.3-9,10.9c-3-0.2-7.7-3.9-8.8-9.3
				c-0.7-3.5-0.4-10.3,0.4-14.7c1-5.2,1.5-9.9,1.2-11.2c-0.7-2.9-2.7-1.1-2.7,2.9c0,1.7-0.7,6.6-1.8,11.3c-1.1,4.7-4,10.9-2.8,14.6
				c1.9,5.5,8.9,7.9,12,10.9c8.3,7.8,10,11.5,11,13.2c6.5,12.3,6.5,14.4,4.8,23.5c-1,5.3-6.2,4.3-9.2,2.1c0,0-19.7-14.7-28.2-21.9
				C-21389.9,6981.1-21398.9,6969.9-21404.3,6957.5L-21404.3,6957.5z M-21378,6997.3c7.5,3.1,27.1,17.7,27.1,17.7l-18.4,37.1
				c3.2,5.9,4.4,20.4,4.4,20.4c22.7-1.5,34.6,36.9-0.7,33c3.8,23.7-34.5,41.8-33-0.6c-39.7,2.6-25.9-42.2-1.5-33.5
				c-0.5-19.1,12.2-21.4,21.2-26c7.4-8.2,12.2-27,12.2-27l-1.7-5.8v0c-7.7,13.1-39.8,16.5-74.9,9.1
				C-21433.7,6999.4-21404.8,7000.3-21378,6997.3L-21378,6997.3z M-21448.3,7024.9c-1.2,4.5-1.3,4.4,4.2,3.9
				c2.8-0.2,13.8-0.1,21.5,0.3c14.2,1.3,36.5,1.6,47.7-6.8c2.2-2,3.4-1.9,3.8-0.8c0.9,5.5-10.2,23.5-10.2,23.5l-18,9.7
				c0,0-7.3,0.3-16.4-0.1l-0.3,16.1c-7.2,4.1-19.6,22.1-0.1,36.1l-0.8,17.6l17.3,0.5c11.4,11.1,20.7,11.2,31.4,0.9l20,0.2l0.1-19
				c9.9-7.8,11.5-21.2,1.5-32.1l0-19.3l-15.4-0.1c0,0-3.2-2.5-3.2-4.5c0-1.3,11.5-22.8,13.7-25.8c2.8-4,2.1-1.7,6.4,7.6
				c6.2,13.3,12.5,18.8,28.6,26.8c14.4,7.2,19.5,10.5,23.7,14.5c3.3,3.2,5.3,2.2,6.6-2.5c2.9-10.6,2.2-21.2-3.6-30.9
				c-12.1-20.6-33.5-21.8-36.8-26.5c-0.4-1.1,3.9-2.4,8.7-4.4c8.2-4.8,20.2-19.6,21.8-25.6c-0.2-2.9,1.8-11.9,3.2-13.9
				c1.7-3.6,1.9-5.2,1.9-14.8c-1.4-5.5,0-12.6,0.7-15c0.8-5-1.8-10.9-5.5-18.1c-1.3-6.7-1-5,3.5-20c0.7-2.4,5.8-23.3-0.4-24.8
				c0.1,0.2,0.6,0.8,0.8,1.2c2,6.9,0.6,13.3-1.1,19.6c-5,16.8-5.2,18.8-9.6,17.3c-1.2-0.4-9-6.5-9-6.5s0-7.9,1.8-15.7
				c-1,2.6-1.7,9.5-4.8,11.1c-1.7,0.4-3.9-1.1-8.2-4.9c-1.6-1.4-5.1-3.9-5.1-3.9s50.6-42.4,69.7-56.4l-7.1,635.8l-359.8-3.9
				c-4.1-39.4,8.3-91.4,28.5-143.4c12.5-32.1,30.2-55.9,50.1-84.5c38.2-54.6,67.3-110.2,57.2-181.2c-1.3-10.5-2.7-15.6-2.2-18.4
				c4.7-8.5,23.1-34.4,36.5-45c19.6-15.7,47-39.1,49.1-37.7c6.3,12.5,13.9,22.7,23.9,30.5c1.8,2,1.8,3.7-2.3,4.5
				C-21411.4,6995.7-21439.1,7001.3-21448.3,7024.9L-21448.3,7024.9z M-22072.4,6837.3c3.8,0,6.9,3.2,6.9,7c0,3.8-3.2,6.9-7,6.9
				c-3.8,0-6.9-3.2-6.9-7C-22079.4,6840.3-22076.2,6837.3-22072.4,6837.3z M-21398.4,6846.4c3.8,0,6.9,3.2,6.9,7s-3.2,6.9-7,6.9
				c-3.8,0-6.9-3.2-6.9-7C-21405.4,6849.4-21402.3,6846.3-21398.4,6846.4z M-21383.5,6865.6c3.8,0,6.9,3.2,6.9,7s-3.2,6.9-7,6.9
				c-3.8,0-6.9-3.2-6.9-7S-21387.3,6865.6-21383.5,6865.6z M-21406,6868.3c3.8,0,6.9,3.2,6.9,7c0,3.8-3.2,6.9-7,6.9
				c-3.8,0-6.9-3.2-6.9-7C-21413,6871.4-21409.8,6868.3-21406,6868.3z M-21431,6883.9l12.6-0.5c-1.6,4.5-2.5,9.1-3.5,13.8l10.2,7.6
				l-44.4,7l19.5-39L-21431,6883.9z M-21462.5,6998l-73.5-97.1l9.1-7.2l74.1,96.1L-21462.5,6998z M-21470.6,6904.3
				c3.8,0,6.9,3.2,6.9,7s-3.2,6.9-7,6.9c-3.8,0-6.9-3.2-6.9-7C-21477.6,6907.4-21474.4,6904.3-21470.6,6904.3z M-21314.1,6916.9
				c6,4.8-0.1,11.3-5.9,8.6c-5-2.2-4.6-7.3-0.6-9.2C-21318,6915.1-21316.2,6915.4-21314.1,6916.9z M-21306.1,6921.4
				c6.2,0.2,12.9,14.9,11.6,19.2c-1.9,5-3.6,5.2-12.3-2.3c-8.6-7.4-8.7-7.7-5.1-11.6C-21309.9,6924.5-21309,6921.5-21306.1,6921.4
				L-21306.1,6921.4z M-21453.6,6922.5c3.8,0,6.9,3.2,6.9,7c0,3.8-3.2,6.9-7,6.9c-3.8,0-6.9-3.2-6.9-7.1
				S-21457.4,6922.4-21453.6,6922.5z M-21475.2,6924.9c3.8,0,6.9,3.2,6.9,7c0,3.8-3.2,6.9-7,6.9c-3.8,0-6.9-3.2-6.9-7
				C-21482.2,6927.9-21479,6924.9-21475.2,6924.9z M-21322.6,6931.6c6.8,1.1,8.6,6.3,5.4,10.1c-4.3,5.2-13.9,0.3-11.6-5.9
				C-21327.7,6933-21325.2,6931.6-21322.6,6931.6L-21322.6,6931.6z M-21310.4,6939.5c2.7-0.2,6.7,3.6,11,9.8c4.9,7,5.3,9.2,3.8,13.4
				c-2.1,6.1-3.4,7.2-7.8,1.2c-1.7-2.3-5.5-7.6-8.3-10.6c-5.9-6.3-6.8-4.7-3.2-9.5C-21313.1,6941.7-21312,6939.7-21310.4,6939.5z
				 M-21326.6,6946.6c6.1,3.2,6.7,7.4,3,10.3c-4.3,2.3-11.8-0.6-13.3-4.8C-21338.9,6945.9-21332.3,6942.8-21326.6,6946.6z
				 M-21316.2,6955.9c3.5-0.2,6.3,3.4,10.5,10.4c7.1,11.8,7.5,15.8,1.2,23.4c-4.5,5.5-5,5.8-9.2-3.1c-3.5-7.3-10.2-15.8-16.4-21
				c-2.6-2.2-3.5-5.1-1.6-5.3c0.6-0.1,2.9-0.1,5.2-0.2c3.4-0.1,4.6-0.5,6.4-2.3C-21318.9,6956.6-21317.6,6956-21316.2,6955.9z
				 M-21341.3,6964.8c3.2-0.1,7.4,1.7,10.5,5.3c3.5,3.8,3,7.2-3.9,7.8c-3.1,1.2-11.6-4.5-11.6-8.2
				C-21346.3,6966.5-21344.2,6964.9-21341.3,6964.8z M-21325.1,6978.5c0.2,0,0.3,0,0.5,0c2.9,0.2,4.4,3,7.6,9.6
				c4.9,10.1,3.4,15.6-5.3,20c-5.9,3-10.4,3.8-11.2,0.4c-0.2-1-0.2-3.9-0.6-6.7c-0.6-3.8-1.4-7.7-4.7-12.7
				c-5.2-8.1-6.1-10.9-0.3-8.5c3.1,1.3,6.4,1.2,10-0.6C-21327.7,6979.1-21326.3,6978.6-21325.1,6978.5L-21325.1,6978.5z
				 M-21354.8,6994.4c-2-0.1-3.3,1.2-2.8,4.5c1.8,0.9,4.7,0.1,6.9,0.9c2.9,1.1,4.7,5.9,7.9,5.2
				C-21342.5,7001-21350.3,6994.6-21354.8,6994.4L-21354.8,6994.4z M-21957.3,7058.1c-16.2-7.9-56.2-26.3-75.6-26.8
				c-35.8-10.5-37.1-5.9-49.7-9.3c66.9-16.6,111.3,17.2,127.9,33.6C-21947,7063.3-21951.2,7061.1-21957.3,7058.1z M-21916.5,7215.9
				c37.4,66.7,72.2,141.8,130.7,253.1l-5.8,1.7l-227.7-2.1c12.6-122.1-52.1-239.3-56.6-234.8c51.6,1.5,94.5-7.9,103.7-26.9l-7.3-2.2
				c-30.3,25.6-75.3,26.3-105.2,17.9c1.4-63.7-0.5-131,2.2-194.6c35.5-2.2,63.7,11.1,83,37.2
				C-21967,7109.2-21945.2,7164.8-21916.5,7215.9z M-22019,7038.3c9.1-0.6,58.8,20.5,80.9,36c6.1,6.5,15,17.7,15,18.8
				c0,3-4.4-0.7-25.8-13.3c-16.2-9.3-33-16.9-49.4-24.1c-0.8-0.3-2.3-1-2.3-1s-1.2-1.4-3.3-3.1
				C-22009.6,7047.1-22020.9,7038.9-22019,7038.3L-22019,7038.3z M-21995,7061.8c-0.5-0.1,49.2,18.5,88.6,50.6
				c5.2,4.3,11.5,20,11.5,20c-3.5-6.7-65.8-44.9-87.7-53.8C-21982.6,7078.6-21995,7061.8-21995,7061.8z M-21977.7,7086
				c2.7-1.6,75.3,42.3,85.9,53.6c4.8,3.8,16,21.9,16,25.5c0,3.2-3.5,0.4-10-5.7c-33.3-31.8-81.6-56-82-55.5L-21977.7,7086z
				 M-21964.4,7111.2c34.1,14.9,76.8,50.2,98.3,71.2c5.4,5.4,9.2,13.3,9.9,16.9c0.4,2.3-0.7,2.1-1.2,3.3
				c-27.8-32.6-89.3-70.2-97.5-73.2C-21954.8,7131.4-21961.5,7116.8-21964.4,7111.2z M-21851.7,7213.2c3.9,4.1,10,18.2,8.6,19.9
				c-0.7,0.8-0.6,0.4-2.3-0.8c-8.9-9.1-54.8-50.7-93.1-74.1c-3.6-1.9-15.6-21.2-13-21.5
				C-21931.4,7143.5-21874.1,7190.3-21851.7,7213.2L-21851.7,7213.2z M-21934.7,7166.4c0.7,0.1,1.9,0.9,3.9,2.1
				c35.3,20,86.3,69.9,95.9,81.9c2.2,3.7,5.6,10.4,5.3,14.5c-0.5,3.2-1.7,0.5-15.9-13.8c-22.8-22.9-49.1-45-77.1-63.7
				c-5.4-3.8-4.3-4.2-8.2-11.1C-21934.7,7169.3-21936.2,7166.3-21934.7,7166.4L-21934.7,7166.4z M-21707.5,7169.7
				c25.4,1,35.1,20.3,50.3,55.9c12.4,35,17.3,67,17.6,92.5c0,1.7-3.1,0.2-4.5-0.2c-6.8-1.9-15.2-3.7-25-1.3
				c-7.2,1.7-14.1,1.5-6.6-3.3c2.4-1.5,8.9-7.4,12.4-9.5c7-4.2,2.8-4.2-4.2-0.9c-5.3,2.5-8.8,5.7-10.9,6.2c-1.3,0.3-0.5-4.1,0.9-7.2
				c7.6-18.1,9.9-28.8-1-32.3c-3-0.9-6.9-3.7-8.8-5.6c-1.5-1.5-2.7-7.4-3.2-7.6c-0.5-0.3-0.9,5.3-0.9,6.2c0,2.9,3.7,8.9,8.1,12.1
				c7.6,5.6,9.1,7.1,4.8,20c-6,18.1-7.3,22.6-8.4,26.8c-0.6,2.4-1.9,6.5-2.5,9.2c-2.4,10.3-2.2,19.3-1.9,27.9
				c2.3,19.2,22.8,28.8,50.6,18.5c2.6-1,3.7-0.1,3.7-0.1c-22.3,22.2-47.2,36.2-62.1,81.4c-18.1-37.6-44.1-67.2-87.6-79.4l-0.6-7.8
				c15.2,7.5,44.6,17.7,63.5,6.8c10.1-6.7,7.1-11.2-5.1-6.6c-14.6,5.5-40.8,4.5-53.8-3c-2.6-1.5-5.4-0.3-6.1,0
				c-0.6-4.4-6.7-21-5.8-27.3c-0.5-0.9,4-0.9,4.8,0.3c3.6,4.9,21.8,19.5,40.9,18.6c9.5-0.5,17.3-3.2,25.7-11.9
				c0.7-0.6,4.1-1,4.5-1.5c0.7-0.8,0.2-2.1,0.2-2.5c-0.2-0.7-1.4-2.5-2.2-4.5c-1-1.8-1.2-3.7-1-5.1c0-1.2,0.8-1.8,1.5-2.6
				c0.7-1.6,0.6-3.6,0.2-4.7c-1.7-1.2-1.5-3.3-0.5-4.3c2.6-2.9-22-25.8-26.8-25.8c-1.8,0-0.8,3.2,2.8,5.7
				c12.5,8.5,21.6,19.6,19.5,21c-1.6,1.1-7.2-1.4-13-2.8c-11.5-2.8-25.4-4.7-40.5,6c-5.7,4.6-20.6,5.1-20.6,5.1
				c-0.1-8.1-33.3-98.9-33.4-95c12.6-14.4,52.1-48.3,91.5-62.7C-21729.2,7170.3-21716.2,7168.4-21707.5,7169.7L-21707.5,7169.7z
				 M-21856.4,7188.3l71.1,1.9c-18,8.8-50.9,40.7-50.9,40.7C-21845.2,7212.1-21847.9,7202.7-21856.4,7188.3L-21856.4,7188.3z
				 M-21918,7197c5.3,0.1,61.3,46.7,69.2,57.7c1,1.3,6.6,7.4,12.6,13.5c14.4,14.8,20.4,23.3,20.4,29.4c0,2.9-2.6,1-6.4-3.4
				c-28.9-32.8-47.7-50.7-83.6-76c-4.1-2.2-16.6-19.3-12.3-21.2C-21918.1,7197-21918.1,7197-21918,7197L-21918,7197z
				 M-21724.9,7207.6c-1.6-0.1-1.3,1.5-0.5,2.9c8.9,8,32.5,7.9,40.8,1.6c7.5-5.7-2.3-2.8-5.3-1.5c-7.1,3-14.7,2.5-24.5-0.2
				C-21720.1,7208.8-21723.3,7207.7-21724.9,7207.6L-21724.9,7207.6z M-21703.2,7220.7c-8.3,0-17,2.4-15.1,5.4
				c0.7,1.1,2.9,3.2,8.4,0.3c7.9-3.8,23.8,1.5,24.3,1.6c1.6,0.4-5.3-4.7-7.6-5.7C-21695.8,7221.2-21699.4,7220.7-21703.2,7220.7z
				 M-21902.7,7227.1c30.1,18.9,66.7,56.5,88.6,83.3c3.6,4.6,6.2,10.3,6.2,13.6c0,4.8-1,2.1-20.9-18.5
				c-15.6-16.4-39.2-38.6-54.9-50.7c-9.4-7-11.1-7.9-15.5-16.2C-21903.2,7230.8-21904.7,7227-21902.7,7227.1L-21902.7,7227.1z
				 M-21713.7,7235.4c-5.7,2.6-13.3,2-20.6-0.6c-6.6-2.4-5.1-0.4-2.7,6.9c1.1,3.3,1.8,8,1.8,8.7c0,1.6,0,1.7,4.7-0.8
				c4.1-2.2,5-3,13.7-0.9c8.9,2.2,9,1.4,13.2-0.7c3.7-1.9,4.4-3,6.9-2c4.9,2,10.4,2.9,16.7-0.3c4.8-2.5,6.4-0.7,8.6,0.4
				c3,1.5,4.2,0.6,3-2.4c-0.5-1.2-1.3-6.3-1.3-8c0-3.1-0.7-5.9-2-5.2c-4.8,2.4-8.7,4.9-13.3,4.7
				C-21693.3,7235-21700.6,7229.9-21713.7,7235.4L-21713.7,7235.4z M-22084.9,7237.6c74.6,95.1,61,230.8,58.5,229.7l-61.1-0.4
				L-22084.9,7237.6z M-21887,7258.9c30,21.5,65.5,58.9,85.2,84.6c3.3,4.4,0.6,5.8,2.2,11.2c0.6,2-2.7-1-12.2-11.4
				c-11.8-13-31.3-32.5-44.1-43.9c-14-12.4-18.1-15.6-21.1-19.8C-21879.3,7276.1-21888.8,7259.3-21887,7258.9L-21887,7258.9z
				 M-21717,7269.4c-0.3,0-0.6,0-0.9,0c-10.8,0.4-16.4,12.4-7.2,21c3.4,3.2,8.9,5.2,8.9,3.5c0-0.4-1.7-2.2-2.9-3.1
				c-7.6-6-6.7-15.2,2-15.2c3,0,3.2,1.1,10.2,6.2c8.2,6,17.9,6.1,17.8,0.2c0-4.4-1.6-8.9-9-8.2c-1.9,0.2-4.5,0.3-6.8-0.3
				c-2.2-0.6-4-1.9-4.8-2.3C-21712.3,7270-21714.8,7269.5-21717,7269.4z M-21867.8,7295.5c22.9,15.8,54.3,51.2,70.3,72.1
				c3.7,4.9,3.9,10.3,2.3,13.1c-0.4,0.6-3.2-1.2-3.2-1.2c-18.5-22.3-39.6-42.7-60.3-63.3
				C-21858.6,7316.2-21870.7,7296.1-21867.8,7295.5z M-21644,7331.6l-5,2.4c-7.4-11.4-14.4-11.7-20.3,1.5l-3.7-1
				C-21675.8,7331.5-21662.7,7302.8-21644,7331.6L-21644,7331.6z M-21645,7321.9c2.1,0.1,5.7,1.3,6.5,3.4c0.9,2-0.2,4.2-3,4
				c-0.4,0-3.2-3.4-4.5-5.5C-21647,7322.5-21646.6,7321.8-21645,7321.9z M-21730.1,7334.8l-5.6,0.2c-10.5-14.1-18.6-4.8-23.4,1
				l-6-0.9C-21763.9,7319.7-21736.7,7314.7-21730.1,7334.8L-21730.1,7334.8z M-21675.6,7323.5c0.8,0,1.7,0.2,2.4,0.5
				c-2.2,3.3-2.6,6.1-3.2,9.1c-2.2,0.9-5.3,2.7-7.6,0.3C-21688.1,7329.4-21681.5,7323.3-21675.6,7323.5L-21675.6,7323.5z
				 M-21762.9,7324.1c2.6,0,1.8-0.1,0.7,1.3c-1.2,1.5-2.8,4.1-3.7,6.5c-0.4,1.6-0.7,2.2-2.2,2.3c-3,0.1-8.9-1.1-8.9-1
				C-21779.2,7331-21769.7,7324.2-21762.9,7324.1L-21762.9,7324.1z M-21729.1,7326.4c1.8-0.2,1.3,2.3,0.7,3.3
				c-1.1,1.3-1.6,1.7-2.2,0.1c-0.3-0.8-0.7-1.4-1.1-1.9c-0.9-1.1-0.8-1.2,0.3-1.4C-21730.9,7326.4-21729.7,7326.4-21729.1,7326.4z
				 M-21637.9,7338.6c6.5-0.1,2,10.9-7.1,13.5c-10.1,5-21.5,3.6-33.1-3.2c-6.6-3.9-8.6-7.9-2.8-6.2c21.8,6.3,27.1,5.2,40.4-3.2
				C-21639.7,7338.8-21638.8,7338.7-21637.9,7338.6z M-21848.2,7333.8c21.6,18.7,37.7,39.7,54.9,59.2c3.4,4.3,5,8.5,4.3,11.3
				c-0.9,3.5-7.9-4.9-7.9-4.9c0.2,0.1-42-45.9-42-45.9S-21849.5,7333.9-21848.2,7333.8z M-21783.2,7340.9c1.5,0.1,4.5,0.8,9.3,2.1
				c20.9,6.6,27.2,6.4,39.3,1c7.7-3.4,10.9-2.9,7.5,2.4c-6.1,9.7-27.5,10.5-43.4,4.9c-4.2-1.5-7.9-4.1-12-7.2
				C-21784.6,7341.9-21785.2,7340.9-21783.2,7340.9z M-21686.7,7348.5c1.3-0.1,3.6,1.4,6.4,3c17.4,10.1,30.4,8.5,41.3,1.9
				c2-1.8,3-0.9,3.3,0.8c0.9,6.1,1.1,10.4-1.7,13.3c-1.6,1.7-4.4,2.4-8.5,3.8c-17,5.5-37.7,1.2-41.5-11.6
				C-21688.7,7353.2-21689.5,7348.6-21686.7,7348.5L-21686.7,7348.5z M-21826.2,7374.2c0.1,0,0.1,0,0.2,0c1.2,0.2,4,2.7,8.4,7.8
				c23,26.7,35.8,42.1,33.3,49.7c-0.2,0-0.4,1.6-1.4,0.8c-12.7-11.2-23.1-23.5-30.7-36.2
				C-21824.7,7382.4-21828.1,7374.4-21826.2,7374.2z M-21638.2,7395c-19.9,14.8-44.2,50.4-46.5,68.1c-0.4,3.4-0.1,5.9-1.4,7.1
				c-1,1-3.2,1-6.2,0.4c-1.8-0.4-1.4-0.6-1.8-2.6c-1.6-8.1,6.4-28.4,22.7-52.2c8.5-12.5,27.8-29.3,33.2-29.3
				C-21634.7,7388-21638.3,7395.1-21638.2,7395z M-21784,7385.2c1.4,0,3.5,0.7,6.5,2c17.6,7.8,24.2,10.6,35.5,20.1
				c21.1,17.6,44.4,59.2,37.4,63c-3.1,1.7-5.2,0.6-6.4-3.3c-0.2-0.7-2.4-6.5-5-11.4c-14-26.4-32.4-44.7-58.5-57.8
				c-9.6-4.8-10.6-4.3-11.3-8.3C-21786.3,7386.5-21785.8,7385.2-21784,7385.2L-21784,7385.2z M-21638.6,7402
				c1.8-0.1,2.2,3.1,1.5,9.6c-0.5,5.3-0.9,5.2-6.8,11.3c-9.5,7.5-20.9,25.4-26.3,43.6c0,0.6-0.5,2-1.4,2.8c-2.5,2.1-5.5,1-7.6,0.9
				c-1.5-0.8-1-4.1-0.8-6c4.5-16.6,15.4-36.9,32.3-54.6C-21643,7404.7-21640.2,7402.1-21638.6,7402L-21638.6,7402z M-21780.5,7400.8
				c9.4-0.1,42.4,25.1,55.6,47c8.6,14.3,11,20.2,8.9,22.2c-1.1,1.1-5.8,1.2-8.3,0.2c-2.2-0.9-3.1-4.3-7.2-12.3
				c-10.8-20.8-26.4-35.9-43.5-44c-3.2-1.5-4.9-2.5-5.9-3.6C-21782,7408-21783.4,7401.3-21780.5,7400.8L-21780.5,7400.8z
				 M-21775.6,7419.4c2.9,0.6,10.9,5.9,17.6,10.9c11.8,8.9,29.6,35.7,25.8,39.5c-1.2,1.2-5.4,1.2-7.5,0.4
				c-12.5-22.8-28.9-33.8-35.5-40.1C-21777.3,7426.5-21782,7418.4-21775.6,7419.4z M-21802.1,7423.1c0.6-0.1,2.8,2.1,6.8,6.4
				c11.8,12.7,19.2,26.7,17.4,33.7c-1.5,5.9-3.3,2.7-16.6-23.6C-21800.3,7428.5-21802.9,7423.3-21802.1,7423.1z M-21638.7,7425.3
				c0.2,7.2-0.4,9-1.2,12.8c-0.5,2.6-2.3,3.8-3.9,5.8c-4.1,5-8.8,13.7-11.2,20.8c-2,5.7-1.1,7.1-8.1,6.2c-3.3-0.5-2.5-1.3-1.1-5.1
				C-21659.8,7453.4-21649,7433.5-21638.7,7425.3L-21638.7,7425.3z M-21774.6,7437.3c0.2-3.7,31.7,28.8,27.3,32.3
				c-4.2,0.7-6.6,0.8-8.4-0.7c-3.3-7.7-18.4-22.3-18.4-22.3L-21774.6,7437.3z M-21640.7,7449c0.1,0,0.1,0,0.2,0
				c1.4,0.3,0.4,20.1-0.8,21.7c-2.3,1.1-6.6,1.2-8.9-0.1c-1.4-0.8-1.8-2.2-1.3-3.7C-21650.1,7463-21643,7449.4-21640.7,7449z
				 M-21761.4,7469.3c-1,1.6-7.2,1.8-9.6,0c-0.7-0.6-1.4-10.4-0.5-12.1C-21769,7455.6-21760.6,7467.2-21761.4,7469.3z"/>
			
				<path id="path3389-2-3-5-0_1_" d="
				M-21519.5,6129.9l3.9,5.3l-23.4-0.1c3.8,3.3,88.4,178.5,196.9,381.1c17.9,35.5,52.8,48.7,93.3,50.7l-105.6-174.4
				c11.5-6.1,34.5-22.6,48.2-19.3c0.8,4.2,4.9,2.6,5-1.2l5,0.2l1.7,2.7l20.9,0.2l1.7-2.4l18,2.8c-47.5-59.9-71.9-151.6-62.6-240.8
				l-159.7-1.4l-2.1-2.8L-21519.5,6129.9z M-21538.9,6135.1c-0.1-0.1-0.2-0.1-0.2,0L-21538.9,6135.1z M-21723.8,6249.2
				c-18.8,58.4-64.2,106.1-91.4,154.4c-29.2,52.7-36.4,98.7-28.9,149.2l5.2,0.5c61.8-82.4,110.1-181.2,137.6-278.5
				c0.6-2.1-0.3-5.9,0.2-8c-1.1-2.6-0.1-5.4,0.6-6.1c1.6-1.6,1.1-7.9,0-18.4c-2.5-31.1-1.7-55.6,1.2-83.7c2.2-21.6,2.2-25,2.2-25
				l-10.4-0.3C-21706,6170.1-21711.3,6215.5-21723.8,6249.2L-21723.8,6249.2z M-21471.7,6138.4l17.1,0.5c2.1,52.4,46.1,59.7,52.9,59
				c-11.7,35.3,6.6,74.4,51.4,80.4c-10.7,32.7,7.1,76.2,43,75.4l3.8,2.4c-2.4,4.7-3,14.4-2.8,14.6c-8,0.5-12.3,1.6-17.5,2.6
				C-21369.5,6302.8-21471.7,6138.4-21471.7,6138.4z M-21319.4,6140.1c-5.8,58.4,5,138.9,31.9,186.7c0,0-0.9,3.2-1.5,4
				c-2.7,3.9-3.9,0.5-5.5-2.7c-5.7-10.9-16.8-12.7-21.7-6.7c-10.9,14.5,0.7,20.3,9.6,28.7c-36.8-2.7-48.6-43.3-39.8-63.2
				c-0.2,3.8,1.8,9.6,4.4,13.7c10.2,15.8,25.4,2.7,21.2-9.7c-1.7-5.2-8.2-13.8-8.2-13.8s9-1.2,12.7-3.4c3.4-2.1,5.6-5.8,4.8-11
				c-0.7-4.1-0.8-5.9-3-9.7c-2.7-3.4-7.5-5.8-11.4-5.6c-7.6,0.4-8.6,5.6-13.6,9.2c-1.1-9.4-7.1-16.6-16.9-15
				c-7.5,1.3-13,9.2-8.5,19.2c2.3,5.1,5.5,6.7,8.7,11.1c-52.8-6.5-46.3-69.2-40.5-68c0,0,1.6-0.3,1.1,2.1
				c-3.2,15.3,15.8,24.7,24.3,13.6c5.4-9-5.9-23.4-5.9-23.4s7.6-1.6,11.1-3.5c13.9-7.8-0.6-30.8-13.5-25.4c-4.5,2-5.7,6.2-10.1,8.3
				c-2.9-3.3-3-6.9-8.3-9.9c-14.4-8.2-23.7,10.8-15.7,19.2c3.3,3.4,9,6.6,7.9,7c-44.9-6.2-43.9-53.2-42.9-52.9L-21319.4,6140.1z
				 M-21705.7,6136.2l6.2,0.1c-2.1,27.9-6.5,64.6-4.2,91.9c2.7,26,2.8,29.7,0.9,32.3c-2.6,2.8-1.2,4.2-0.8,6.5
				c0.6,4.3,0.7,4.3,0.1,6.7c-5.7,21.8-12.9,44.3-22,67c-29.8,79.4-77.9,165.8-115.4,211c0-0.2-1.7,0.1-1.7,0
				c-9.4-63.7,12.8-116.5,24.3-138.1c23.4-43.9,59.8-81.1,81.6-127.1C-21718.1,6247.3-21704.1,6200.1-21705.7,6136.2
				L-21705.7,6136.2z M-21478,6138.4l148.1,236l-27.6,13.2l-151.5-248.7L-21478,6138.4z M-21390.2,6185.2c3.9,0,7,3.3,7,7.2
				c0,3.9-3.2,7-7.1,7c-3.9,0-7-3.3-7-7.2S-21394.1,6185.1-21390.2,6185.2z M-21341.1,6263.9c3.9,0,7.1,3.3,7.1,7.2
				c0,3.9-3.3,7.1-7.2,7.1s-7.1-3.3-7.1-7.2C-21348.3,6267-21345.1,6263.8-21341.1,6263.9z M-21700.3,6273.9
				c2.5,10.2-49.6,162.9-122.4,259.7l31.3,1l0.9,3.5c43.1,65.2,15.1,122.1-20.6,148.3l12.1,16.5l-11.1,8.8l-10.9-13.2
				c-90.4,66.3-267,213.2-267,213.2l0.7,23.9l13.8-10.6c87.8,86.9,276,84.3,327.3-92.5l13.2,0.4
				c-31.3,129.6-153.3,179.2-244.8,156.6l-21.8,30.6l5.7,3.1c-1-1.7-2-2.2-0.4-3.7l18.5-23.3c137,19.1,220.6-57.6,248.7-162.5
				l17.5,0.5c-16,88.2-58.3,165.5-118,225.7c-42.6-0.6-117.5-2.5-117.5-2.5c27,26.7,78.2,108,80.2,116.2c0,0,53.6,2.3,111.1,1.5
				c21.2-9.2,49.4-12.7,62.5-6c23,11.9,44.3,55.4,53.3,125c2.3,17.9,4.5,25.5,5.2,29.1c0.1,0.7,1.7,1.1,1.9,1
				c0.9-0.5-1.4,3.1-1.6,5.8c-0.1,2.7-0.1,6.7,1.2,8.2c1.6,1.8,1.4,3,1.2,3.7c-0.2,0.5-3.3,3.4-3.3,3.4
				c-0.9,40.4-1.1,77.2-3.9,126.9l7.9,0.1c0.8-80.1,25.8-153.9,63.6-204.4c23-33.2,47.4-69,61-103.2c15.3-38.5,17.8-79.1,10.2-113.4
				l-5.5,0.2c-32.5-22.8-45.3-70.9-4.6-104.6l-14.1-18.7c-40.6,30.7-50.5,88-9.3,136l-16.3-0.2c-40.1-51.3-30.5-109.5,17-150.6
				l-10.4-13.5l11.6-10l10.2,11.4l265.1-216.5l0.1-24l-20.3,16.1c-116.6-110.2-292.1-35.7-319.2,95.2l-16,0
				c35.1-140.8,159.3-179.3,248.6-159.5l22.5-33.2c-16.2-4.7-31.9-15.7-46.7-28.6c-6.2-5.4-10.2-8.8-14.7-14.2
				c-41.9-45.3-70-107.8-71.3-107.9l-115.2-1.6c-17,8.2-46.1,17.4-61.8,4.4c-33.8-27.9-44.6-83.6-48.9-119.5
				c-1.3-11.1-2.3-30.5-3.3-37C-21697.9,6273.7-21699.2,6273.7-21700.3,6273.9L-21700.3,6273.9z M-21292.4,6340.2
				c3.9,0,6.9,3.2,6.9,7.1s-3.2,6.9-7.1,6.9s-6.9-3.2-6.9-7.1S-21296.3,6340.2-21292.4,6340.2z M-21277.5,6348.6
				c5.6,7.4,10.6,15.1,13.3,23.1c-2.6-0.1-5.1,0.7-8.1-1.6c-0.6-8.1-3.9-13-8-18.5L-21277.5,6348.6z M-21298.7,6358.7
				c2.3,1.2,4.1,10,2.4,11.5c-2.8,0.6-4.7,0.3-5.7-0.6C-21303.3,6367.2-21300.6,6359.1-21298.7,6358.7z M-21757.9,6430l107,1.3
				c18.5,14.5,36.7,12.8,63.2,1.6l119,1.3l6.6,12.3l-301.7-3.4C-21762.1,6438.7-21757.9,6430-21757.9,6430z M-21766.9,6449
				l307.9,3.4l7.6,12.6l-323.3-3.6L-21766.9,6449z M-21737.4,6467.5l34.5,0.4l-13,21.6l-35.6-0.4L-21737.4,6467.5z M-21660.7,6468.4
				l33,0.4l-14.9,21.5l-32.7-0.4L-21660.7,6468.4z M-21554.1,6469.6l-14.1,21.5l-33.5-0.4l14.6-21.3L-21554.1,6469.6z
				 M-21512.7,6470l33,0.4l-12.6,21.6l-34.2-0.4L-21512.7,6470z M-21956.3,6468.5c-21.4-0.5-17.8,28-15.7,27.1
				c-13.4-3.2-23.4,3-25.2,14.5c-1.4,9.1,7.3,22.1,22.9,20.5c-2.1,2.4-0.1,16.1,1.9,17.4c0,0,0.2,2-8.1,19
				c-10,20.2-12,21.1-16.2,7.7c-4.6-14.4-11.8-21.7-30.8-31.2c-5.1-2.5-12.2-6.9-15.9-9.8c-8.5-6.5-8.6-6.4-8.3,6.6
				c0.3,16.9,5.4,24.4,23.4,34.6c8.8,5,25.7,12.1,28.7,12.1c2.2,0,10.1,3.6,21.7,10c2.3,1.2,10.1,5.7,20.2,6.7
				c10.7,0.9,34.8-1.4,48.8-9.3c7.9-4.4,10.9-8.4,16.8-19.9c0,0-19.8,0.8-28.8-1.7c-18.8-1.3-28.1-0.3-42.4,6.9
				c-12,6-12.7,7.1-7.6-3c2.3-4.7,4.5-10.2,6.5-15.6c2.1-5.4,2.7-5.9,7.9-6.4c11.4-1,18-7.6,19.2-19c0.3-3.1-0.1-6.3-0.1-6.3
				c7.8,1.2,23.7-2.4,23.4-18.5c-0.3-14.5-10.6-17.9-23.3-19.1C-21935.7,6484.6-21940.9,6468.8-21956.3,6468.5z M-21956.1,6473
				c18.8,0.3,18.1,17.6,9.8,27.2l-9.9-8.3l-8.1,7.3C-21973,6493.5-21972.7,6472.7-21956.1,6473z M-21442.8,6478.9l9.1,13.7l-19-0.2
				L-21442.8,6478.9z M-21793.3,6494.6l35.3,0.4l-14.4,19.8l-33.4-0.4C-21805.8,6514.4-21798.2,6501.7-21793.3,6494.6z
				 M-21682,6495.8l-13.6,20.6l-30.9-0.3l12.6-20.1L-21682,6495.8z M-21640.6,6496.3l31.9,0.4l-12.9,21.9l-31.5-0.4L-21640.6,6496.3
				z M-21565.5,6497.1l32.3,0.4l-13.4,21.9l-31.9-0.4L-21565.5,6497.1z M-21492.2,6497.9l33.3,0.4l-14,21.9l-32.1-0.4
				L-21492.2,6497.9z M-21955.9,6496.9l15.7,16.2l-15.6,15.3l-15.8-15.4L-21955.9,6496.9z M-21915.9,6512.9
				c-3,18.6-20.9,17.3-25.9,8.2l7.4-8.2l-8.9-8.9C-21934.4,6490.1-21913.6,6498.9-21915.9,6512.9z M-21969.1,6503.4l-8.7,9.6
				l9.3,9.2c-6.2,8.4-29.5,7.4-24.6-12.8C-21989.9,6496.5-21976.8,6494.3-21969.1,6503.4z M-21424.9,6507.1l9.7,13.6l-18.4-0.1
				L-21424.9,6507.1z M-21808.3,6519.4l395,5.7l10.4,13c-137.9,0.8-272.9-5.3-413.8-6.9L-21808.3,6519.4z M-21947.2,6526.3
				c15.5,9.8,3.8,29.9-13,26.2c-12.5-5.6-14.9-18.7-3.5-26.1l8.7,7.4L-21947.2,6526.3z M-21811.9,6535.5l-10.8-0.1l-10.6,12.2
				c39.2,42.3,37.4,78.5,0,109.7l14.7,16.8C-21776.7,6639.1-21766.9,6583.5-21811.9,6535.5z M-21771.1,6537.6
				c21.9,35,40.4,101.1-26.6,160.6l-7.9-9.8c58.3-55.7,45.3-103.3,20-150.6L-21771.1,6537.6z M-21764.9,6538.5l89.7,1.3
				c-20,73-34,115.9-37.3,230.4l-25.9-0.1c2.9-2.6-12.7-69.3-31.3-92.5C-21729.3,6610.5-21750.3,6572.2-21764.9,6538.5z
				 M-22047.1,6535.5c1.6,0,4.7,2,10.9,5.8c5.5,3.4,12.8,7.7,16,9.6c12.2,7,18.3,13.6,21.7,23.6c2.5,7.5,0.9,7.6-6.6,0.5
				c-5.5-5.3-11.5-9.8-26.3-20.2c-5.2-3.7-6.9-3.1-3.9,1.3c2.2,3.2,6.9,6.8,16.4,12.8c6.9,4.3,16.4,12.9,15.6,14.1
				c-0.7,1.1-1.9,1-5.2-0.5c-1.5-0.7-6.5-2.8-11-4.7c-19.4-8.1-27.7-18-28.7-34.2C-22048.5,6538-22048.8,6535.4-22047.1,6535.5z
				 M-21637.8,6540.4c0,0,2.7,3.6,3,5.1c0.7,3.2-2.5,6.1-12.4,10.4c-3.4,1.5-6.3,2.3-6.2,4.3c0.4,4.7,9.3,11.9,8.1,18.2
				c-2.1,4.8-14.6,9.5-17.7,15.2c0,3.9,8,10.1,6.8,15.4c-0.6,1.6-3.3,3.2-7.1,6.5c-8,6.7-8.5,7.8-5.6,13.1
				c6.6,12.4,6.8,11.5-2.4,20.2c-9.3,8.7-9.2,8.6-4.8,16.4c4.7,8.3,4.4,8-2,13.2c-6.3,5.1-6.1,6.2-2.8,12.7
				c3.2,6.3,3.9,6.4-1.6,11.2c-6.4,5.6-7.6,6.2-3.2,13.3c4.6,7.4,4.9,7.1-0.4,13c-5,5.6-5.6,5.9-3,9.8c3.3,4.9,4,6.2,0.3,11.5
				c-3.9,5.7-3.9,5.3-0.4,10.7c2.9,4.6,2.3,9.6,2.3,9.6l-11.1-0.1c0,0,0-6.4-1.3-8.7c-3.1-5.7-3-7.5,0.8-12.5
				c3.9-5.1,3.3-5.6-0.3-10.8c-3.6-5.3-3-5.2,1.7-11.1c4.4-5.4,4.6-8,2.2-11.2c-5.7-7.5-5.7-10.6,0.2-15.4c4.5-3.7,4.9-5.3,1.2-11.8
				c-3.7-6.3-4.2-6.9,2.8-13c7.1-6.3,7.1-6.2,2.4-13.4c-4.5-7.1-4.3-7.5,3.2-14.3c7.5-6.8,7.6-6.9,2.8-15.6c-4.5-8.2-4.5-8.1,4.5-16
				c9-7.3,12-8.2,3.3-19c-4.9-8.5-1.3-9.3,6.8-13.4c14.3-8.5,7.9-8.1,2-21.1c-4.9-8.7-2-8.7,6.7-13c2.2-0.9,4.6-2,7.1-3.3
				c5.9-3.2,2.7-6.2,2.7-6.2L-21637.8,6540.4z M-21619.1,6540.8l42.8,1c-50.3,62.8-75.1,143.6-84.7,229l-16.2-0.4
				C-21677.4,6703.6-21655.5,6620.4-21619.1,6540.8z M-21399.3,6544.7c24.3,20.9,42.3,32.9,55.1,37.7c0,0-17.6,28.5-18.9,27.4
				c-99.1-20.2-217.9,36.4-246,160.9l-15.7-0.1c6.3-48.9,19.7-89.7,43.9-132.1c24-41.2,46-65.2,79.1-95.3L-21399.3,6544.7z
				 M-21570.2,6541.7l21.1,0.6c0,0,3.9,4.8,5.7,6.5c9,10.4,9.8,8.4-10.4,19.5c-12.8,7-18.4,10.3-19.2,13.3c-0.6,3,5.4,9.1,6.1,13.1
				c0,0.5-17.4,11.8-20.5,13.4c-4.4,2.1-4.6,3.9-0.4,11.4c4.9,8.7,4.5,8.4-6.3,15.7c-10.5,7.2-12.6,6.4-8.2,13.7
				c6.1,10.1,3.1,12.4-11.5,20.1c-3.7,1.9-3.8,3.9-1.3,10.8c3.5,9.6,4.4,8.6-3.2,13.7c-8.9,6-10.5,6.2-8.6,9.9
				c5.6,10.9,7.8,13.6,0.2,17.1c-5.9,2.6-6,4.2-2.9,11.4c3.2,7.3,4,7-1.8,11c-5.4,3.7-8.5,2.8-3.4,9.1c4,4.9,3.6,8.8,0.3,11.7
				c-2.9,1.2-4.3,6.6-3.4,6.8l-7.4,0.1c-5.7-7.9,1.2-12.3,2.2-13c1-1.8-0.2-3.1-2.5-7.3c-3.2-5.9-3-6.6,1.6-9.9
				c4.7-3.4,4.8-2.5,1.8-10.1c-3.5-8.9-3.3-9.9,2.4-13.9c5.7-4,5.7-4.9,2-12.7c-3.9-8.2-3.9-8.2,6.1-14.7c7.1-4.6,7.2-4.3,3.5-13
				c-2.5-6-0.7-8,9-14.5c5.5-3.7,5.9-4.4,3.4-8.9c-6.9-12.3-6.9-12.7,5.4-20.5c10.1-6.4,10-6.9,6.2-15.6c-4.1-9.4-4.4-8.7,9.3-16.7
				c11.3-6.6,12-6.2,7.4-14.4c-5.7-10.2-5.3-8.5,17.4-21.2c8.2-5.5,15.5-3.5,7.5-13C-21565.9,6546.7-21570.2,6541.7-21570.2,6541.7z
				 M-21968.6,6554c1.6,0,2.8,1.9,2.6,5.5c-0.3,5-2.8,10-5.1,14.9c-4.9,10.1-9.7,17.6-12.2,17.6c-5.9,0-5.7-1.3,2.3-16.6
				c3.7-7,7.4-14.9,8-16.4C-21971.7,6555.6-21970,6554-21968.6,6554z M-21896.4,6577.8c-0.1,21.5-67.7,31.6-71.1,20.7
				c11.9-9.1,46.6-4.6,54-12.8c-8.9-0.6-20.9,0.7-29.2,0.8c-10.3,0.1-26.9,4.3-27.1,6.1c-1-5.7,17.8-16.1,32.7-16.6
				C-21923.2,6575.5-21908.1,6577.3-21896.4,6577.8z M-21891,6610.6c0,0-132.7,107.4-198.3,159.3l0.1,23.5l209.9-168L-21891,6610.6z
				 M-21891.5,6616l8.3,10.3l-197.1,156.9l-0.5-16.7L-21891.5,6616z M-21274.8,6678.7l-7.1,7.4c-189.2-144-367.2,69.5-272.1,224.7
				c-0.9,2-7.7,6.8-7.7,6.8C-21667.6,6737.5-21458.7,6530.4-21274.8,6678.7z M-21379.4,6646.5c10.8,0.2,30.7,7.9,39,18.1
				c9.7,11.9,6.8,17.1-5.6,5.9c-13.3-9.9-24.3-12.3-5.8-0.6c4.1,2.6,7.7,7.6,7.9,8.1c0.7,2-2.7-0.1-18.3-6
				c-9.2-3.5-20.9-12.7-23.8-19C-21388.3,6648.3-21385.1,6646.4-21379.4,6646.5z M-21419.6,6646.3c3.4,0,6.4,0.3,8.5,0.9
				c13.6,4.1,17.9,6.2,22.9,10.2c3.4,2.7,2.3,4.7-1.7,2.9c-4.7-2.1-19.5-6.7-22.2-6.4c-3.9,0.4,0,2.9,5.5,4.4
				c12.3,3.2,18.4,6.5,9.6,6.5c-4.6,0.6-24.7,0.5-30.1-0.2c-9.1-1.2-22.7-9.7-19.5-12.6
				C-21443.2,6648.8-21429.7,6646.3-21419.6,6646.3z M-21458.8,6658.7c16.2,0.4,24.9,6.5,7.2,7.5c-30.5,4.5-36.4,11-2.6,3.5
				c7.9-1.7,7.7,1.1,2.2,3.7c-4.5,2.1-10,3.1-14.6,5.3c-8.3,3.4-27.4,3.9-34.8,1C-21512.4,6675.5-21477.8,6658.3-21458.8,6658.7z
				 M-21328.7,6662.9c8.2,0.3,25.5,12.3,33.1,23.5c5,7.3,2.4,12.5-5.2,6.6c-1.5-1.2-12.4-10.7-13-10.9c-1-0.4,9,9.4,10.5,12.1
				c1.2,2.3,4.1,7.6-1.4,7.7c-8.6-1.2-28.4-23.9-28.4-35C-21333.1,6664-21331.4,6662.8-21328.7,6662.9z M-21430.2,6668.1
				c3.4-0.1,1.6,1.7-4.9,6.2c-11.8,8.1-5.7,6.5,8.1-0.4c4.2-2.1,9.2-3.7,10.9-4s3.9-0.8,4.7-1c3.7-1.1,0.8,3.4-5.2,8.1
				c-12.7,9.9-26.9,17.7-36.7,20c-12.5,2.9-15.1,3.3-10.5-4.4c7.5-12.3,18.2-22.1,28.4-23.9
				C-21433,6668.4-21431.3,6668.2-21430.2,6668.1z M-21388.2,6668.8c5.2,0,11.6,1.1,21.7,3.4c7.1,2.3,5.2,2.8-3.3,3.6
				c-16,1.6-9.4,3.5,6.2,3.4c21.3,0.1-10.7,7.5-21.1,9c-8.1,0.3-10.4,0-28-3.5c-6.7-1.3-2.6-6.2,10.2-12.1
				C-21397.4,6670.1-21393.4,6668.8-21388.2,6668.8z M-21256.9,6673.1l0.4,13.7l-259.8,212.3l-8.6-9.8L-21256.9,6673.1z
				 M-21344.6,6683.9c10.3,0,25,7.3,23.4,11.5c-0.6,1.6-1.8,1.5-9.6-0.7c-5.1-1.4-14.3-3-13.1-1.8c0.4,0.4,7.6,3.2,10.3,3.9
				c9,2.3,19.8,7.5,17.4,9c-4.2,2.5-8.1,0.5-13-0.1c-12.4-1.9-32.8-8.4-36.1-11.6C-21369.1,6690.6-21355.7,6684-21344.6,6683.9z
				 M-21464.7,6683.4c1.8,0.1,2.5,1.8,0.7,4.2c-2.7,3.5-4,6.5-6.4,10.8c-8.8,13.2-14.2,18.4-22.6,23.5c-8.3,5.1-9.5,4.2-8.7-6.5
				c1.1-11.1,9.1-22.7,20.5-28.1c5.2-0.7,8.2-2,2.7,4.5c-9.8,11.5-3.2,10.4,6-2.7C-21469.5,6684.8-21466.5,6683.3-21464.7,6683.4z
				 M-21498.1,6684.6c5.6,0,7.4,2,0.2,5.3c-6.8,3.1-20.5,12.4-20.8,13.5c-0.6,1.8,4.5-1,13-5.5c11.3-6,12.3-5.9,6.8,1.1
				c-6.2,7.9-21.2,17.7-32.8,21.2c-16.3,4.3-15.9,1.2-6.7-10.8c8.8-13,16.2-19.2,27.4-22.6
				C-21506.1,6685.2-21501.4,6684.6-21498.1,6684.6z M-21773.8,6683.5c57.8,102.4,24,205.3-45.1,257.3
				c-72.1,54.3-183.4,49.8-248.3-17.1l9.2-8.5c0,0,102.4,106.7,233.8,14.5c66.7-46.8,95.3-158.7,41.6-237.5L-21773.8,6683.5z
				 M-22038,6680.8c-0.2,0-0.3,0-0.5,0.1c-2,1.3-9.7,23.2-11.3,32.3c-0.5,2.7,0.2,5.3,2.3,7.5c1.5,1.5,4,0.6,4.8,0.3
				c5-2.2,7.8-5.6,12.3-16.5c3-6,3.5-13.1,2.9-15.6c-0.2-1-1.8-3.4-3.8-4.8C-22033.5,6682.4-22036.6,6680.8-22038,6680.8z
				 M-22036.9,6685.4c2.4,0,7,3.9,7.5,6.6c0,4.8-2.8,12.7-4.9,11.5c-3.4-4.3-7.3-1.6-7.9-3.2c-0.4-4.7,2.7-10.8,4.8-14.9
				C-22037.2,6685.4-22037,6685.4-22036.9,6685.4z M-21400,6696.3c26.2,0.3,52.2,8.3,71.2,25.4l-10.3,9.3
				c-44.6-32.5-96.9-23.7-128.2-2.5c-30.9,21-58.6,68.1-32.7,135l-9.7,8.6c-29.2-53.9-12.4-124.6,40.7-157.5
				c18.7-11.6,42.6-18.1,66.5-18.3C-21401.7,6696.3-21400.8,6696.3-21400,6696.3z M-21787.9,6699.8c0.8,0,2,2.6,1.8,5.8
				c-0.2,3.8-1.9,8.8-4.5,9.9c-2.9,1.2-4.7-7.6-4.7-7.6C-21793.4,6705-21790.9,6702.2-21787.9,6699.8z M-21318.4,6708
				c1.1,0,2.1,0,3,0.1c2.9,0.4,2.9,3,0.1,5.5c-3,2.7-4.6,2.8-7.5,0.6c-2.7-2-2.8-3.4-0.4-5.1
				C-21322,6708.4-21320.2,6708.1-21318.4,6708z M-21822,6703l8.6,10.8l-30.4,23.9l-3.6,0.2l-232.9,188.5l0.1-17L-21822,6703z
				 M-21340.1,6734.2l-31.7,25.6c-62.5-33.3-113.5,24.3-96.3,77.3l-27.4,23.3C-21542.7,6726.4-21400,6682.4-21340.1,6734.2
				L-21340.1,6734.2z M-21504.5,6712c0.1,0,0.2,0,0.3,0c0.2,0,0.4,0.2,0.6,0.4c1.1,1.1-1.3,18.8-3,22c-0.6,1.2-1.1,2.7-1.1,3.4
				c0,1.5-5.9,13.5-10.6,21.5c-1.7,3-3.6,6.9-4.1,8.8c-3.8,17.5-11.4-10.8-8.4-27.1c1.4-7.7,12.5-23.4,15.6-22.2
				c1.6,0.6,1.5,1.8-1.4,7.9c-8.1,17-10.1,25.9-1.7,9.4C-21508.5,6717.2-21506,6712.3-21504.5,6712z M-22038.4,6706.4
				c1.2,0.1,2.1,0.7,2.6,2.1c0.3,1.2,0.7,3.6,0,4.8c-1.7,3.6-5,6-8.4,5.7c-1.5-0.1-3.1-1.4-3.3-3c-0.2-1.5,0.2-3.9,2.1-5.8
				C-22043,6707.8-22040.4,6706.3-22038.4,6706.4L-22038.4,6706.4z M-21799.2,6710.2c3.7,0.2,7.5,10.3,5,14.8c-2.1,3.7-2.5,3-6-4.3
				c-1.8-3.8-3.2-7.9-3.2-7.9l3.1-2.4c0.2-0.1,0.5-0.2,0.8-0.2C-21799.4,6710.2-21799.3,6710.2-21799.2,6710.2z M-21805.5,6714.4
				c0,0,3.8,7.1,4.7,12.8c0.5,3.5,0.5,2.8-3.3,1.3c-3-1.9-3.6-3-5.4-5.3c-1.2-2.2-2.4-3.8-2.4-3.8L-21805.5,6714.4z
				 M-21781.9,6716.1c2,0,4.1,2,6,6.9c7.1,18.5,6.2,39.1-2.1,48.7c-1.4,1.6-1.7,1.7-3.3,0.6c-1.3-0.8-1.4-9.6,0-12
				c0.4-0.8,1.7-6,1.8-9c0.3-7.1-1.6-8-2.6-1.4c-1.2,7.5-2.4,12.8-4.4,8.3c-1-2.3-1.5-4.6-2.3-7.1
				C-21792.9,6735.1-21787.9,6716.3-21781.9,6716.1z M-21813.8,6720.5c0,0,6.9,9.2,9.8,12.4c1,1.8,1,2.2-0.7,2.8
				c-2.8,1-12-5.3-15.7-7.2c-2-1.6-1.1-2.8-1.1-2.8C-21818.9,6723.8-21816.4,6722-21813.8,6720.5z M-21536.5,6723.9
				c3.8,0,3.7,1.3-0.3,7c-22.7,31.9-18.2,27.2-3.7,9.8c8-9.7,9.4-10.6,10.2-8.4c0.6,1.6-9,20.6-13.9,27.4
				c-2.6,3.5-11.2,9.4-15.6,11.6c-10.7,5.3-9.5,3.1-5.4-10.2C-21560,6740.4-21547.3,6723.9-21536.5,6723.9z M-21827.1,6731.8
				c59.6,153.1-109,218.2-183.9,146.8l8.9-6.9c104.6,72.6,209.8-40.7,163.2-130.8C-21838.9,6740.9-21834.5,6737.3-21827.1,6731.8z
				 M-21812.9,6735.6c10.1,1.1,24.8,19.8,25.4,30.1c1.5,7.3-0.6,8.6-4.1,3.4c-5.9-11.2-5.3-4.1-0.3,7c2.7,5.6,3.2,12.4,0.4,12.7
				c-3.9-0.8-12.1-14.3-14.6-19.9c-6-12.2-6.5-10.1-9.6-28.1C-21816.3,6737.4-21815.4,6735.6-21812.9,6735.6z M-21843.5,6740.3
				c45.7,90.1-55.9,196.5-157.3,125.9l30.9-24c53,26.2,112.9-4.9,96.7-78.6L-21843.5,6740.3z M-21377.8,6762.2l-85,69.2
				C-21479.5,6773.1-21415.5,6740.5-21377.8,6762.2z M-21534.3,6760.3c2.8-0.5,4.9,17.1,5.1,41.8c0.2,24.2,0.8,26.6-6.6,17.6
				c-3.1-3.7-6.9-7.2-8.6-10.4c-4.9-9.5-3.2-19.4-1.7-33.2c1.4-12.9,6-10.8,5.1,2.7c-0.6,8.7-0.6,19.5,0.8,19.5c0.5,0,0.6-0.8,0.3-2
				c-0.6-2.5,2.7-30.4,3.9-33.7C-21535.3,6761.1-21534.8,6760.4-21534.3,6760.3z M-21766.5,6768.4c6.1,2.4,7.6,22.8,0.8,42.3
				c-2.9,8.4-7.3,13.9-13.9,17.2c-4.7,2.4-5.7,1.6-3.6-2.6c3.9-6.9,6-14,7.7-22.9c0.7-8.7-3.9-1.8-3.6,2c-3.8,16.2-8.5,18.6-7.7,1.5
				c0.6-12.6,2.3-18,8.3-26.5C-21775.5,6775-21772.3,6769.1-21766.5,6768.4z M-21555.3,6772.8c2.5,0.1,3.1,3.4,0.8,9.9
				c-1.6,4.5-7.1,19.1-6.4,19.1c0.4,0,6.2-13.2,7.4-15.3c1.9-3.5,2.7-4.2,4.3-4c1.6,6.5-0.2,14.7-1.1,21.4
				c-3.6,17.6-15.8,35.6-20.4,30.2c-7.4-8.9-3.5-44.6,6.6-55.3C-21560.4,6774.7-21557.3,6772.7-21555.3,6772.8z M-21876.1,6771.9
				c8.4,62.4-43.3,88.4-87.5,69.1C-21962.7,6840.8-21876.1,6771.9-21876.1,6771.9z M-21666.1,6775.4l8.8,11.8l16.4,1l-8.5,12.3
				l8.2,15.9l-18.3,0.1l-10.7,12l-9-11l-16-1l9.5-14.8l-7.4-14.3l17.3-0.6L-21666.1,6775.4z M-21803.8,6779.2
				c2.1,0.1,12,13.5,13,18.4c2.9,11.9,1.5,34.4-2.7,33.6c-4.5-16.2-2.6-24.6-4.2-22.7c-2.9,2.9,1.5,27.8-0.1,33.9
				c-0.8,1.6-3.2-0.4-6-4.4c-7.3-10.8-5.9-52.6-0.1-58.7C-21803.9,6779.2-21803.9,6779.2-21803.8,6779.2z M-21256.4,6810.5
				l-204.3,165.4l11.5,15.2l192.8-155.6L-21256.4,6810.5z M-21548.8,6810.2c0.9-0.2,2.9,1.3,6.6,5.5c6.5,9,13.4,21.4,15.9,30.9
				c0.9,3.7,2.4,8.6,3.4,10.9c1.4,3.4,1.5,4.4,0.6,5.4c-3.6,4.3-18.1-6.8-22.7-17.2c-6.5-14.7-6.5-27.9,0-15
				c2.4,4.7,5.3,11.5,5.3,8.8c0-0.8-2.8-10.6-5-15C-21546.1,6821.6-21551,6810.6-21548.8,6810.2z M-21258.7,6817.5l0.3,13.9
				l-190.2,155.5l-7.3-9.1C-21455.9,6977.8-21276.8,6832.1-21258.7,6817.5z M-21553,6822.8c0.9,0.1,1.3,1.4,1,4.2
				c-1,9.2-3.4,29.1-3,30.8c0.3,1.1,3.1-13.2,3.8-15.7c3.4-13.2,7.9,18.5,4.8,32.6c-0.5,2.2-1.5,5.8-2,8c-0.5,2.2-2.1,6-2.8,6.9
				c-5.4,8.3-17.6-25.2-15.3-42.2C-21565.1,6836.8-21556.2,6822.4-21553,6822.8z M-21771.2,6827.7c2.5-0.1,2.9,2.3,2.4,7.4
				c-1.6,17.4-13.4,35.6-26.2,40.3c-12.7,4.7-13.9,3.7-6.3-5.2c5.8-6.8,9.3-14,8.3-14.9c-0.5-0.5-1.8,2.3-6.5,8.2
				c-5.9,7.3-6.7,1.1-1.4-9.8c4.6-9.4,8.9-14.2,17.5-19.9C-21777.1,6829.8-21773.4,6827.8-21771.2,6827.7z M-21656.6,6834.2
				c-3.4,75.1-23,156.4-60,227l-33.8-0.3c42-60.5,69.3-135.6,77.6-226.5L-21656.6,6834.2z M-21641.8,6834.5c0,0,5,5.3,7,8.9
				c2.2,3.9,2.8,7.4-1.3,10.2c-4.8,4-6.8,2.5,0.9,12.6c4.1,5.3,2.7,6.2-2.4,10.6c-5.3,4.5-5.6,4.8-0.8,11.1
				c5.2,6.7,6.1,7.8-0.8,12.8c-6.2,4.6-6.3,5.7-1.6,13.2c4.4,7,5.7,6.9-2.9,14c-7.3,6.1-7.5,4.4-0.6,15.7c2.5,4.2,2.3,4.4-2.4,8.6
				c-11.7,10.1-11.1,9.5-9.5,12.2c12.5,18.4,6.8,17.8-5.8,26.3c-2.5,2.1-1.9,4.5,3.6,13.7c4.7,7.8,4,9.5-7.3,17
				c-11.7,7.9-12.1,9-6.4,17.2c5.6,8.1,5.8,7.6-3.6,15.8c-4.2,3.7-7.7,7.1-7.7,7.1l-20.6-0.2c0,0,4.4-3.9,7.4-6.1
				c17.1-12.3,17-11,9.9-20.1c-6.2-8.1-5.6-8.6,0.8-13.1c4.6-3.2,10.9-6.6,15.6-9.9c2.5-1.8,0.7-3.3-3.4-11.2
				c-4.6-8.9-4.8-7.9,3.9-15c9.6-7.7,9.8-7.4,4.7-17.4c-5.1-10-5.2-9.2,1.4-14.4c9.8-7.8,10.3-7.4,5.3-16.7c-4-7.4-4-7.2,2.9-14
				c7-6.9,6.2-6.4,2.1-12.9c-4.1-6.5-3.9-7.4,1.7-12.2c6-5.2,5.2-4.9,0.3-11.7c-4.8-6.7-4.7-6.2,1.2-11.3c3.1-2.7,6.3-5.4,6.1-6.7
				c-0.4-3.3-3.5-8-6.5-12.5c-1.1-1.7,1.2-2.2,4.9-6c3.8-3.9,3.6-2.9,0.8-8.1c-1.5-2.8-4.4-7.6-4.4-7.6L-21641.8,6834.5z
				 M-21697,6834l5.9,0.2c0,0,1,1.3,2.3,2.8c3.7,3.9,3.9,6.2,0.1,8.2c-3.7,1.9-2.3,4.7,0.7,9.2c3.2,4.8,3.2,4.2-1.5,8.8
				c-4.8,3.8-7.3,4.9-2.1,12.3c3,3.4,2.5,7-2.1,10c-3.6,2.3-9.5,4.2-3.4,13.2c3,6.4,3.2,6-3.2,10.4c-8.5,5.9-10.1,4.9-6.3,13.7
				c4.2,9.8,4.6,9.9-4.3,16.4c-10.4,7.5-10.8,8.1-6.6,17.2c4.2,9.2,4.4,6.9-6.6,15.3c-8.1,6.1-9.9,6.5-7.6,11.6
				c4.3,9.7,6.2,12.3-6.8,18.8c-15,7.5-15.8,8.1-8.7,19.5c5.7,9.3,4.5,8-5.2,13.4c-14,7.9-20.2,11.3-20.7,13.8
				c-0.3,2.8,10.7,11.3,10.7,11.3l-19.5,0.3c0,0-8.1-6.7-11.2-9.9c-8.7-8.7-8.8-5.9,20.6-19.7c16.2-7.7,14.9-5.9,12.3-10.5
				c-7.6-13.6-7.9-15,6.8-22.2c12.8-6.2,10.6-6.7,7.6-16.4c-2.6-8.4-2.2-7.7,4.6-12.6c16.3-11.8,15.8-10.6,13.4-16.5
				c-2.4-5.8-4.3-8.5-2.4-11.4c5.9-8.3,18.3-9.9,13.4-19.9c-2.3-6.4-3.1-7.9,4.1-13.4c6.5-5.3,6.5-4.6,2.5-11.7
				c-4.9-6.5-4.2-7.6,3.2-12.6c5.3-4.7,5.2-4.6,2.3-9.3c-4-6.5-3.8-6.7,2.1-11.7c4.8-4.1,5.6-4.3,2.6-8.9c-3.9-6.1-3.2-7.4,2-10.3
				c3.2-1.8,3.2-2.5,3-5.6C-21695.4,6837.5-21697,6834-21697,6834L-21697,6834z M-21624.1,6835.2l27.1,0.4
				c8.1,50.3,23,71.1,31.5,87.1c-34.8,54.6-27.6,100.3-7.1,140.9l-85.7-1.3C-21635.6,6987.3-21623.4,6911.8-21624.1,6835.2z
				 M-21809.9,6833.3c1-0.1,1.7,1.6,3.3,4.4c5.3,9.3,1.3,22.4-6.8,36c-6.1,10.2-7,2.3-4.2-12.4c1.8-9.3-3,4.6-5.4,15.9
				c-1.3,6.1-4.3,11-7.4,10.7c-3-0.5-2-9.1-1.9-11c0.8-13.5,6-23,15.9-36.3C-21812.6,6835.6-21811.1,6833.4-21809.9,6833.3z
				 M-21533.9,6862.8c1.3,0,3.1,0.5,5.3,1.8c1.7,1,4.8,2.9,6.9,4.1c7.5,4.2,8.1,5.5,4.4,9.6c-4.5,5.1-7.3,3.1-14.8-5.5
				C-21537.1,6867-21537.1,6862.9-21533.9,6862.8z M-21536.5,6874.1c1.2,0,3.7,1.4,6.1,4.2c4.9,5.7,4.2,10.5-1.2,9.1
				c-2.2-3.3-3.3-8.3-5.4-12C-21537.5,6874.5-21537.2,6874.1-21536.5,6874.1z M-21294.7,6877.5c-4.8,0-12.9,6.2-14.5,12.6
				c-4.9,19.6-4.9,18.7-0.7,21.6c1.2,0.9,2.1,1.5,2.7,1.9c2.4,2,5.7,5,6.2,4.4c4,0.1,10.3-25,10.2-30.2c0.3-5.5,0.5-6.1-0.8-8.6
				C-21292.2,6878-21293.3,6877.5-21294.7,6877.5z M-21540.2,6875.2c0.3-0.1,0.7,0.1,1.2,0.5c3.1,3.2,4.3,8.8,5.9,12.8
				c0,0.9-0.4,2.3-0.8,3.1c-2.8,5.2-6.9,0.1-7.3-8.9C-21541.4,6877.7-21541.1,6875.4-21540.2,6875.2L-21540.2,6875.2z
				 M-21295.5,6881.8c0.2,0,0.4,0,0.6,0c3.2,0.2,2.7,3.5-1.8,8.3c-2.4,2.5-7.2,3.7-8.8,2.1c-2.3-2.3,2.6-8.5,7.8-10
				C-21296.8,6882-21296.1,6881.8-21295.5,6881.8z M-21839.3,6878.5c0.2,0,0.3,0,0.5,0c1.7,0.1,3.1,0.9,4.2,2.2
				c2.1,2.7,1.2,6.8,0.1,10.2c-2.6,8.9-19.7,26.1-25.7,26.1c-3.6-0.7,11.6-19.6,12.2-22.8c-1.1-1.1-10.5,9.5-15,17
				c-2,3.4-4.3,7.5-5.5,8.2c-3.1,0.3-6.8,2.3-6.8,0.2c0.6-9.5,19.5-30.1,26-35.8C-21845.4,6880.1-21842,6878.5-21839.3,6878.5
				L-21839.3,6878.5z M-21794.3,6879.9c14.4,0-14.3,31.2-32.7,35.6c-5.7,1.4-16.3,1.6-17,0.4c-0.7-1.2,0.1-2.2,2.5-2.7
				c3.8-1,22.7-12.7,22.7-14.1c0-1.8-7.8,1.1-14.5,5.3c-4.3,2.7-6.3,2.1-4-1.2C-21826.3,6887.7-21811.8,6879.9-21794.3,6879.9
				L-21794.3,6879.9z M-21544.6,6882.7c0.8,0.1,1.6,1.7,2.1,5.3c2.5,6.8,2.7,8.6,0.2,10.6c-4.3,3.4-5.3,2.4-5.2-5.4
				C-21547.4,6886.8-21546,6882.6-21544.6,6882.7L-21544.6,6882.7z M-22019.9,6886.4c0,0,5.2,2,3,4.5c-1.5,1.7-8,0.2-8-0.3
				L-22019.9,6886.4z M-21295.3,6894.7c1.7-0.1,1.7,1.5,0.8,5.5c-0.5,2.1-2.7,13.1-6.4,16.2c-0.4,0.3-5.7-2.9-7.2-4.4
				c-0.7-0.7-2.7-2.3-3-3.3c-0.9-3.4,0.2-7.7,2.7-9.8c1-0.8,3-1.3,4.1-1.3c0.8,0,3.3-0.8,5.5-1.7
				C-21297.2,6895.1-21296.1,6894.7-21295.3,6894.7z M-22018.1,6894.2c3.5,0,7.7,0.4,11.3,1.7c10.6,3.2,30,12.2,33,15.1
				c4.3,4.2-7.1,8.5-20.8,8.5c-7.3,0-8.6-1.5-18.6-7.7c-1.3-0.9-7.1-4.8-5.4-6.2c1.9-1.9,7.5,0.6,14.4,4.3c2.3,1.2,7.8,0.9,7.8-0.1
				c0-1.2-13.9-6.6-24.3-10c-6.8-2.3-6.7-4.5-2.4-5.4C-22022,6894.4-22020.2,6894.2-22018.1,6894.2L-22018.1,6894.2z
				 M-22031.9,6898.9c0,0,2.9,2.6,6.6,5.4c4,3.1,8.7,6.9,12,12c4.7,5.9,12.1,20.4,11.2,23c-2,6-22-4.8-38.2-21.4
				c-5.3-5.4-8.4-9.4-8.4-9.4l6.3-5.6c0,0,5.5,4.7,11.8,10.4c11.8,10.7,11.8,7-0.1-4.2c-3.4-3.2-6.5-6-6.5-6
				C-22037,6901-22035.1,6899.2-22031.9,6898.9z M-21540.8,6904.8c0,0,6.3,6.7,8.7,9.8c-39.6,37.8-55.1,91.1-18,148.4l-18.1-0.3
				C-21601.3,6995.6-21584.7,6945.5-21540.8,6904.8L-21540.8,6904.8z M-21871.7,6902.7c2.4-0.1,0.2,2.8-4.2,10.1
				c-8.2,13.6-9.8,17.1-23,20.3c-3.4,0.8-8.2,0.1-10.2,0.3c-5.6,0.6-3.1,0,5.6-5.5c12-7.6,1.8-3.7-9.3,1.8c-6.4,3.2-13.2,3-13.7,1.3
				c-0.3-0.9,2.6-3.4,4.5-5c17-14.9,22.2-14.2,37.9-19.4C-21877.2,6904.2-21873.3,6902.8-21871.7,6902.7z M-21942.2,6915.7
				c6.1,0.1,11.8,0.8,16.8,2c3.3,0.8,8.8,1.5,4.1,5.6c-5.3,4.8-19.4,11.4-29.8,11.7c-1.5,0-22.9-1.7-18.2-6.3
				c0.9-0.5,3.8-0.3,6.3-0.8c11.9-2.1,8.7-4.1-5.9-3.4c-18.3,0.8-19.1-1.1-5.2-4.8c10.2-2.7,20.1-4,29.2-4
				C-21943.9,6915.7-21943,6915.7-21942.2,6915.7L-21942.2,6915.7z M-21844.5,6918.2c8.1,0,14.4,1.5,14.4,4.6c0,5-15.5,15.9-25.7,18
				c-2.4,0.5-5.8,1.2-7.5,1.6c-3.5,0.8-23.1-0.1-25-0.9c-9.1-3.4-2.7-4.7,14.1-6.4c7.3-0.8,10.8-2.6,10.8-4c0-0.7-5.4-0.9-13.4,0
				c-9,1-7.2-1.6,4-7.2C-21865.3,6920.1-21853.7,6918.1-21844.5,6918.2z M-21995.2,6923.5c1.1,0,3.9,1,8.4,3
				c9.7,2.9,23.1,6.3,32.1,16.4c7.3,7.3,9.1,9.6,7.5,12.1c-1.9,3-24.9,0.5-34.5-3.8c-6.4-2.8-13.9-8.7-17.3-13.8
				c-8.3-12.4-4.7-15.6,5.9-6.9c12.8,10.5,14.7,11.6,17,11.1c0.9-0.2-1.3-2.3-5.6-5.6
				C-21992.4,6927.8-21997.7,6923.4-21995.2,6923.5L-21995.2,6923.5z M-21915.9,6937.5c10.8,0.1,13.1,1,23.6,5.9
				c13.1,4.8,9.8,8.9-13.5,14.4c-11.7,2.6-23.4,0.6-31.9-4.8c-18.6-11.8-17.4-14.1,3.5-8.7c6.9,1.8,13.7,2.2,14.2,0.9
				c0.3-1-8-3.2-14.7-5.5c-7.3-2.5-1-2.2,13.7-2.2C-21919.1,6937.5-21917.4,6937.5-21915.9,6937.5L-21915.9,6937.5z
				 M-21376.2,6993.4c0,0-2.4,1.1-3.5,1.7c-0.8,0.5-7.3,1.2-14.4,1.6c-14,0.9-23.4,3-32,6.3c-12.9,5-21.6,20.8-21.6,20.8
				c9.6-0.5,63.7,9.9,79-9.5c3.2-4.1-8.4,30.8-14.2,32.3c-14.3-1.9-20.5,20.5-19.1,19.6c-14.5,5.4-25.7,8.6-22.2,25.4
				c1.5,7.3,8.8,16.1,24.5,14.1c-4.6,29,30.8,36.9,35.1,1.9c0,0,6.9-1.2,9.6-1.5c16.2-3.7,20.4-27.3-3.3-35c-6.6-2-6.9-3.3-6.9-3.3
				c1.3-5.3,1.1-10.9-2.7-17.2c5.4-12.4,18.7-36.4,18.7-36.4L-21376.2,6993.4z M-21373.8,7000.7c3.2,4.4-13.9,11.4-32.1,12.8
				c-4.1,0.3-13,1-13.3,1.4c-2,3.4,35.1,1.3,46.7-5c4-2.2,4.3-0.2,2.6,3.2c-13.6,17.1-45.9,12.5-71.1,9.2c-1.4-1.5-0.2-3.2,5.5-7.8
				c10.5-8.3,18-11,34.4-12.5C-21396.5,7001.8-21375.8,6998.2-21373.8,7000.7z M-21354,7018.7c-2.4,7.4-14.8,29.9-14.8,29.9
				c-1.5,1.5-6.9,2.5-6.4-3.2c0.1-6.1,11.9-31.3,15-31.8C-21356.4,7013.3-21353.7,7016.1-21354,7018.7z M-21346.3,7020.5
				c3.3,26,22.9,32.4,41.7,40.8c4.9,2.3,9.1,6.4,14.1,9.1c9.5-12.6-0.8-37.5-17.1-45.7c-12.2-5.8-23.2-10.5-30.1-10.1
				C-21341.7,7014.9-21346.2,7017.4-21346.3,7020.5L-21346.3,7020.5z M-21336.1,7019.1c2.1,0,5.1,0.6,16.1,3.7
				c16.6,4.6,28.2,17,31.1,33.2c0.1,0.7,0.8,13.2-2,12.7c-4.3-1.3-6.6-5.7-13.5-8.7c-8.6-3.7-20.8-8.6-28.2-15.5
				c-6-5.6-9.2-11.5-9.9-16.6c-0.7-5.3,1.1-5.8,5.4-1.5c9.8,8,19.5,10.8,29.2,18.5c2.7,2.1,12.4,7.6,5.8,0.9
				c-4.5-4.6-17.6-12.7-24.7-16.2C-21336.5,7024.9-21341.8,7019.1-21336.1,7019.1L-21336.1,7019.1z M-22086.6,7036.6l109.7,175.8
				c-27.6,14.2-41.3,20.4-86.9,16.3l0.1,2.3l-19.4-1.3c32.9,52.7,73.5,121.3,60.4,240.2l136,1.4c0,0,2.1,2,2.3,2.2
				c2,1.4,5-2.3,5-2.3l61.4,0.4l1.6,2l28.6,0.1c0,0-128.1-246.3-192.4-368.5C-22006.5,7056-22034.4,7034-22086.6,7036.6
				L-22086.6,7036.6z M-21382.5,7050.3c7.3-0.1,14.6,5,14.5,14.8c0,5.1-4.4,12.2-4.4,12.2l-9.9-9.6l-9.6,9.4
				c-4.6-3.9-7.3-11.3-5.8-15.5C-21394.7,7054.4-21388.2,7050.3-21382.5,7050.3L-21382.5,7050.3z M-21498.1,7052.4
				c9,36.9,18.7,87.8-64.6,204.3c-49.2,68.9-65.8,134.2-68.7,214.1l-4.9,0c2.8-43.8,4-123.4,4-123.4l4.6-4c0,0-2-3.4-2.9-7.4
				c-1.5-6.7-0.2-4.5,4-22.4C-21608.8,7227.1-21498.1,7052.4-21498.1,7052.4L-21498.1,7052.4z M-21935.9,7064.5l415.3,6.5l-5.6,10.8
				l-401.9-7.3L-21935.9,7064.5z M-21382.3,7073.8l15.3,15.2l-15.3,16.8l-15.7-16.8L-21382.3,7073.8z M-21395,7080l-8.5,8.9l7.2,7.8
				c-7.7,15.7-27.5,3.2-26.7-8.6C-21422.1,7074.2-21405.9,7068.7-21395,7080L-21395,7080z M-21368.5,7098.1l6.8-8.4l-7.5-8.4
				c12.5-12.1,24.1-1.2,25.2,9C-21343,7101.2-21360.1,7113.3-21368.5,7098.1z M-21860.3,7082.2l34,0.7l-12.9,23.5l-34.5-0.5
				L-21860.3,7082.2z M-21784.6,7083.2l31.2,0.3l-13.5,23.9l-31.6-0.4L-21784.6,7083.2z M-21710.8,7084.1l33.1,0.4l-13.7,23.8
				l-34-0.4L-21710.8,7084.1z M-21636.6,7084.9l33.9,0.4l-12.6,23.9l-35.2-0.4L-21636.6,7084.9z M-21561,7085.7l32.7,0.4l-13.5,23.9
				l-33.6-0.4L-21561,7085.7z M-21922.1,7081.8l22,0.2l-9.2,15.7L-21922.1,7081.8z M-21374.3,7103.1c12.5,10.2,3.5,26.7-9.6,26.9
				c-9,0.1-22-15.3-7.6-27.6l9.3,8.7L-21374.3,7103.1z M-21836.7,7110.7l31.9,0.4l-12.3,21.5l-31.3-0.3L-21836.7,7110.7z
				 M-21765.7,7111.6l35,0.4l-12.6,21.5l-33.3-0.4L-21765.7,7111.6z M-21690.6,7112.5l34.9,0.4l-11.6,21.5l-35.2-0.4
				L-21690.6,7112.5z M-21615.9,7113.3l34.6,0.4l-11,21.5l-36.6-0.4L-21615.9,7113.3z M-21901.2,7111l22,0.2l-9.6,17.2
				L-21901.2,7111z M-21884.8,7136.2l323.7,6.5l-5.6,10.4l-310-3.4L-21884.8,7136.2z M-21873.7,7155.1l303.4,4.1l-7.1,14.4
				l-104.8-1.6c-20.3-15.5-43.7-8.7-70.5-0.3c0,0-80.2-0.1-111.8-1.2L-21873.7,7155.1z M-21975.3,7215.5l157.2,254.3l-35.4-0.8
				l-149.3-239.3L-21975.3,7215.5z M-22007.5,7231.6l148.4,237.7c-6.9-0.2-13.4,0.1-20.3-0.1c3.3-44.1-31.9-65.1-52.8-66.4
				c13.1-51.4-24.3-73.5-49.3-77.9c10.9-66.9-44.4-77-45.3-76.3c0.3-5.5-0.7-9.5-1.3-14.1L-22007.5,7231.6L-22007.5,7231.6z
				 M-22032,7235.1c-0.3,1.4,2.7,14.8-3.3,12.3l-0.3-12.3L-22032,7235.1z M-22063.8,7235.1c2.1,8.9,6.6,10.7,12.7,16.7
				c0,0-7.9,1.3-9.8,0c-3.3-2.3-10-16.9-10-16.9L-22063.8,7235.1z M-22040.4,7250.4c3.8,0,6.9,3.2,6.8,7c0,3.8-3.2,6.9-7,6.8
				c-3.8,0-6.9-3.2-6.8-7C-22047.3,7253.4-22044.2,7250.3-22040.4,7250.4z M-22026.7,7255.9c19.9-1.1,48.5,20.6,40.4,60.4
				c-1.3-2.8-2.8-8.9-6-13.3c-13.5-18.6-29.9,6.5-19.1,17c5.3,5.1,7.7,7.1,7.2,7.6c-12.2-2.5-21.6,8.3-16.7,20.4
				c8.3,15.7,20.2,7.6,27.2-1.6c0,0,4,14,8.2,15.8c6.4,2.8,15.2-0.6,18.3-8.3c4.6-11.5-6.2-14.5-8.6-21c23,1,51.9,34.9,38.2,63.9
				c1.8-6.6-5.1-21.6-19-17.9c-6.9,2.3-9.5,12.4-4,22.8c1.7,3.3,2.7,4.6,2.7,4.6s-6,0.7-7.6,1.7c-18.1,10.9,4.7,41.3,18.3,22.6
				c1.4-2.2,3.7-4.8,3.7-4.8c2.2,4.2,2.8,10.1,6.8,12.2c16.5,8.5,24-9,17.2-17.7c-3.9-4.9-8.2-10.5-8.2-10.5
				c-0.7-3.1,49.5,10.6,42.8,59.5l-133.3-1.7c13.2-75-15.8-161.3-30.7-187.7l6.7-8.7c1.6,3.3,4.3,11.5,9.1,13.1
				c15.4,5.1,20.2-5.6,18.3-16.7C-22015.9,7261.6-22024.1,7256.7-22026.7,7255.9L-22026.7,7255.9z M-21992.2,7327
				c3.6,0,6.5,3,6.5,6.7c0,3.6-3,6.5-6.6,6.5s-6.6-3-6.5-6.6C-21998.8,7329.9-21995.8,7326.9-21992.2,7327z M-21943.1,7405.8
				c3.7,0,6.6,3.1,6.6,6.7s-3.1,6.6-6.7,6.6c-3.7,0-6.6-3.1-6.6-6.7S-21946.7,7405.8-21943.1,7405.8z"/>
		</g>
		<g id="printing-marks-1-5-5-6_1_">
		</g>
	</g>
	<path id="path147-0-8-1-3-6-7-5-8_1_" d="M129.4,217.1
		c7.8-0.2,11.3-9,5.5-15.8c-0.8-1-0.9-1.6,0.6-0.6c3.9,2.6,11.4,0.9,11.8-7.1c0.5-9.8-13.3-12.7-15.8-2.2c-0.1,1.1-1,1.1-0.8-0.5
		c0.2-4.2,1.6-8.2,3.4-12.1c-3.1,0-6.5,0-9.3,0c1.8,3.9,3.1,7.8,3.4,12.1c0.2,1.6-0.7,1.6-0.8,0.5c-2.6-10.4-16.3-7.6-15.8,2.2
		c0.4,8,7.9,9.7,11.8,7.1c1.5-1,1.5-0.4,0.6,0.6C118,208.1,121.5,216.9,129.4,217.1C129.4,217.1,129.4,217.1,129.4,217.1
		L129.4,217.1z"/>
	<path id="path147-0-8-1-0-3-83-6-6-4_1_" d="M46.9,20.6
		c7.8,0.2,11.3,9,5.5,15.8c-0.8,1-0.9,1.6,0.6,0.6c3.9-2.6,11.4-0.9,11.8,7.1c0.5,9.8-13.3,12.7-15.8,2.2c-0.1-1.1-1-1.1-0.8,0.5
		c0.2,4.2,1.6,8.2,3.4,12.1c-3.1,0-6.5,0-9.3,0c1.8-3.9,3.1-7.8,3.4-12.1c0.2-1.6-0.7-1.6-0.8-0.5c-2.6,10.4-16.3,7.6-15.8-2.2
		c0.4-8,7.9-9.7,11.8-7.1c1.5,1,1.5,0.4,0.6-0.6C35.6,29.6,39.1,20.8,46.9,20.6C46.9,20.6,46.9,20.6,46.9,20.6L46.9,20.6z"/>
</g>
</svg>
