<!-- Generator: Adobe Illustrator 19.2.1, SVG Export Plug-In  -->
<svg version="1.1"
	 xmlns="http://www.w3.org/2000/svg" xmlns:xlink="http://www.w3.org/1999/xlink" xmlns:a="http://ns.adobe.com/AdobeSVGViewerExtensions/3.0/"
	 x="0px" y="0px" width="168px" height="226.6px" viewBox="0 0 168 226.6" style="enable-background:new 0 0 168 226.6;"
	 xml:space="preserve">
<style type="text/css">
	.st0{fill:#E2CF00;}
	.st1{fill:#D40000;}
	.st2{fill:#131F67;}
</style>
<defs>
</defs>
<g transform="matrix(0.99999718,0,0,1.000002,-5.9698507,-5.5506344)">
	<path d="M165.1,203.3
		c3.1-0.1,4.5-3.7,2.2-6.6c-0.3-0.4-0.4-0.7,0.2-0.3c1.6,1.1,4.6,0.4,4.7-2.9c0.2-4.1-5.3-5.3-6.3-0.9c-0.1,0.5-0.4,0.4-0.3-0.2
		c0.1-1.8,0.6-3.4,1.4-5c-1.2,0-2.5,0-3.7,0c0.7,1.6,1.3,3.3,1.4,5c0.1,0.7-0.3,0.7-0.3,0.2c-1-4.4-6.5-3.2-6.3,0.9
		c0.2,3.3,3.1,4,4.7,2.9c0.6-0.4,0.6-0.2,0.2,0.3C160.6,199.6,162,203.2,165.1,203.3C165.1,203.3,165.1,203.3,165.1,203.3
		L165.1,203.3z"/>
	<path d="M14.8,34.4
		c-3.1,0.1-4.5,3.7-2.2,6.6c0.3,0.4,0.4,0.7-0.2,0.3c-1.6-1.1-4.6-0.4-4.7,2.9c-0.2,4.1,5.3,5.3,6.3,0.9c0.1-0.5,0.4-0.4,0.3,0.2
		c-0.1,1.8-0.6,3.4-1.4,5c1.2,0,2.5,0,3.7,0c-0.7-1.6-1.3-3.3-1.4-5c-0.1-0.7,0.3-0.7,0.3-0.2c1,4.4,6.5,3.2,6.3-0.9
		c-0.2-3.3-3.1-4-4.7-2.9c-0.6,0.4-0.6,0.2-0.2-0.3C19.3,38.1,17.9,34.4,14.8,34.4L14.8,34.4L14.8,34.4z"/>
	<path d="M15.4,29h2.6l-3.9-9.7l-3,4.1l0,5.6h2.1v2.9H6V29h2.4V8.1L6,8.1
		V5.5h7.5v2.6h-2.1l0,10.2l6.5-10.3h-2.3V5.5h7.9v2.5h-2.1L16,16.5L21.2,29h2.3l0,2.9h-8.2L15.4,29L15.4,29z"/>
	<path d="M164.5,208.7h-2.6l3.9,9.7l3-4.1l0-5.6h-2.1v-2.9h7.3v2.9h-2.4
		v20.9l2.4,0v2.5h-7.5v-2.6h2.1l0-10.2l-6.5,10.3h2.3v2.5h-7.9v-2.5h2.1l5.4-8.4l-5.2-12.5h-2.3l0-2.9h8.2L164.5,208.7L164.5,208.7z
		"/>
	<g transform="matrix(1.0146544,0,0,1.0241582,3367.1174,-1472.4599)">
		<g>
			<g transform="translate(-735.6996,-760.44497)">
				<g transform="translate(-1318.1979,540.76888)">
				</g>
				<g transform="matrix(0.15086704,-0.00311503,0.00311532,0.15083482,965.0168,1197.8387)">
					<g transform="translate(346.10401,401.33141)">
						
							<path class="st0" d="
							M-23147.1,5858.2l-426.9-6.7l52.1,103.8c111.1-7.7,208.2,3.2,309.4,8.6L-23147.1,5858.2z M-23446,6213.2
							c-0.5,0.6-17.9,4.7-16.2,8.7c43.2,97.7,61.8,176.9,78.6,276.7c9.7-7.5,25.1-6.9,25.1-6.9c-6.9-37.1,39.8-40.7,39.3-2.1
							c8.9,2.3,18.1,2.5,26,11.7c5.9-108.6,47.2-220.3,99.2-297.2c-57.9,21.5-143.2,76.4-143.2,76.4S-23406.8,6250.2-23446,6213.2
							L-23446,6213.2z M-23097.4,6232c-77.9,70.9-111.9,271.6-106.5,274.5c-98.4-5.3-130.5,102.6-46.3,162.9
							c-3.6,11.3-12.1,20.3-18.8,30.2c8.7,5.2,18.3,6.5,27.9,7.8c7.1,8.8,14.1,18.9,22,19.9c8.7-5.2,15-13,22.3-19.7
							c9-2.1,17.9-4.4,26.4-8.1c-7.3-10.6-16-21.4-16-31.2c75.3-50.8,66.6-122.1,0.4-159.9c22.4-119.4,53.1-195.3,87.9-249
							L-23097.4,6232z M-23625.4,6313.7c-9.8,4.5-15.3,14.4-22.5,22.1c-9.7,0.2-19.1,3.4-28.3,7.3c0,0,21.5,31,20.1,32.6
							c-72.7,45.5-73.6,114.2-5.6,160.9c9.7,98-76.6,251-80.7,246.5l-0.8,32c60.5-63.4,96.7-179.4,102-273.6
							c118.3-5.4,124.8-119.4,44.4-164c-6.1-5.9,21.1-31.8,21.1-31.8c-6.6-6.8-18-7.8-27.9-8.8
							C-23609.8,6329.2-23615.1,6321.6-23625.4,6313.7z M-23127.5,6403c15.9,37.5,77.9-6.5,88,13.5c8.4,11.4,27,12.9,26.4-6
							c-3.1-18.8-15.4-23.2-64.4-16c-18.6,2.7-26.2,4.4-25.9-4.1C-23115.9,6374.7-23127.3,6395.5-23127.5,6403z M-23072,6458.4
							c-13.7-0.3-17.1,53.2-17.3,69.3c-40.9,61.8,80.2,57.2,29.3-12.1c2-8.9-6.2-23.6-5.8-30
							C-23070.1,6484.9-23071.4,6460.7-23072,6458.4z M-23781.8,6524.5c-1.6,16.2,9.3,65.6,13.7,64c16-24.6,14.6-46,13.5-70.4
							C-23716.2,6447.7-23842.9,6474.3-23781.8,6524.5z M-23551.8,6540.7c-7.7,104.5-35.4,206.5-95.3,294.3
							c50.5-22.3,99.6-51.3,147.1-76.1l108.3,70.2c6.4-2.6,10.8-3.9,15.1-8c-49-75-62.5-181.7-82.5-278.4
							c-8.5,5.8-24.3,8.4-24.3,8.4c-1.8,33.4-37.1,43.5-43.3-0.2L-23551.8,6540.7z M-23818.3,6616.8c-11.7,0.5-21.1,29.3,11.9,34.3
							c23.3,3.8,53.5-7.1,68.3-1.5c16.7,27.9,33-12.3,10.1-19.4c-24.7-7.6-75.5,9.9-80.8-6
							C-23811.5,6618.7-23815,6616.6-23818.3,6616.8z M-23628.7,7073.8l-68.6,115.5l423.1,6.2l-53-112.6
							C-23326.2,7081.7-23512.4,7101.2-23628.7,7073.8z"/>
						
							<path class="st1" d="
							M-23515.5,5966.6l8.1,15.4c99.4-14.3,177.5-15.2,279.6,6.7l9.7-15.6C-23311.3,5954.2-23406.6,5945.3-23515.5,5966.6z
							 M-23426.7,6197.6l85.3,57.7c0,0,42-28.4,59.9-40.4l-10.4-16c-38.2,79.9-101.2,14.8-124.5-23.7
							C-23416.4,6175.3-23423.3,6189.8-23426.7,6197.6z M-23195,6229.5c6,0,9.3,2.4,12.2,8.5c3.3,7,4.6,5.3,2.6-3.3
							c-3.2-13.6,11.4-22.1,24.8-12.8c9.7,6.7,8.9,22.5-1.9,25.2c-8.7,2.2-9,4.4-1.4,4.2c13.6-0.4,16.9,17.9,7,26.5
							c-11.3,10-25.4,2.5-26.4-10.4c-0.5-3.6-1.3-3.6-2.5-1.6c-3.6,5.8-4,13.5-3.5,20.5l-19.9-12.9c7.2-3.4,11.6-5.4,16.9-10.7
							c0.7-0.7,1.2-1.2,1.2-1.5c0-0.5-2.2,0.1-6.3,0.5c-12.2,1-21.4-7.1-18.6-18.4C-23208.6,6233.6-23203.4,6229.5-23195,6229.5
							L-23195,6229.5z M-23290.2,6543.2c22.4-24.6,49.9-40.1,87.6-37c7-104.8,45.2-197.2,105.2-280l-63.3-39.8l-26,15
							C-23247.7,6288.1-23290.4,6398.1-23290.2,6543.2z M-23765.3,6288.3c0,0-44,31.6-64.5,46.9l-5,289.1l5.6,2
							c0.4,0.6-0.4-4.3,2.2-6.5c2.1-1.8,5.5-3.8,7.5-4.5c5.6-1.9,5.9-5.6,0.8-8.9c-4-2.6-5.4-6.5-4.8-12.9c0.4-4.5,0.2-5.5-1.6-8.6
							c-2.3-3.9-2.4-8.7-0.3-13.7c1-2.3,0.9-2.9-0.7-6.1c-2-4-2.2-8.4-0.5-13c0.6-1.8,1.1-5.6,1.2-8.6c0-11.5,9.7-19,27.3-21
							c6.9-0.8,7.1-1.1,4.1-6.9c-17.1-32.8,23.2-48.9,26.1-43.7L-23765.3,6288.3z M-23218.5,6315.7c16.2,0.1,29.3,13.3,29.2,29.6
							s-13.3,29.3-29.6,29.2c-16.2-0.1-29.3-13.3-29.2-29.6S-23234.8,6315.6-23218.5,6315.7z M-23218.4,6321
							c-13-0.1-23.6,10.4-23.7,23.4c-0.1,13,10.4,23.6,23.4,23.7s23.6-10.4,23.7-23.4C-23194.9,6331.6-23205.4,6321-23218.4,6321z
							 M-23217.9,6328.4c8.8,0.1,15.9,7.2,15.9,16c-0.1,8.8-7.3,15.9-16.1,15.9c-8.8-0.1-15.9-7.3-15.8-16.1
							C-23233.9,6335.5-23226.7,6328.4-23217.9,6328.4z M-23801.4,6328.5c1.2,0,2.5,0.2,3.7,0.6c7.3,2.5,9.7,9,5.6,15
							c-3.2,4.7-2.9,5.2,2.6,3.2c4.3-1.5,6.5-1,9.8,2.5c9.9,10.2-5.5,26.8-15.2,16.4c-4.8-5.2-5.3-3.7-2.1,5.1
							c1,2.8,2.8,7.3,2.8,7.3l-14.5-0.5c0,0,2.4-5.8,3.5-8.5c2.7-6.5,2.8-7.5-2.6-3.5c-12,9.1-25.1-7.2-14-17.4
							c2.3-2.1,5.8-2.1,10.7-0.1c3.6,1.5,4,0.5,1.4-2.9C-23815.4,6338.2-23809.8,6328.4-23801.4,6328.5z M-23500.4,6360.6
							c-6.7,38.6-2.7,93.1-3.4,122.2c15.7,3.3,15.7,14.1,17.8,27.5c7.7-2.5,24.3,9.2,26.6,8.2
							C-23456.9,6479.2-23474.9,6364.6-23500.4,6360.6z M-23239.4,6404.8c22.4,2.3,17.7,19.5,10.9,26.4c-3.2,3.6-2.7,5.2,0.8,3.2
							c9.6-5.5,17-1.2,19.8,8.7c4.9,16.9-17.5,31-27.1,15.7c-3.2-5.2-5.3-4.1-4.6,1.3c0.4,5.2,5.2,16,5.2,16l-21.9-2.4
							c0,0,6.9-11,8.2-14c2.6-6.2,1.3-7.9-3.5-2.9c-14,12.3-32.7-4.2-23.5-20.7c4.5-8.1,12.7-10.6,21.2-3.9c5.8,4,7.1,2.3,1.9-2.4
							C-23261.5,6420.8-23252.6,6403.5-23239.4,6404.8L-23239.4,6404.8z M-23802,6407c0.3,0,0.5,0,0.8,0c1.9,0.1,3.8,0.6,5.8,1.8
							c5.4,3.2,6.8,9.3,3.2,14.5c-2,3-1.5,4.9,0.8,3c3.1-2.6,9.8-0.7,12.4,3.5c6.6,10.8-7,24.4-15.2,15.4c-3.7-4-5.1-4.2-4.7-1.6
							c1.1,4.8,4.1,13.1,4.1,13.1l-15.2-0.1c0,0,3.5-8.6,4.3-12.9c0.6-3.5-0.8-3-4.5,1c-3.6,3.9-6.8,4.3-11.3,1.2
							c-10.9-7.6-1.7-26.3,9.8-19.7c3.9,2.3,4.5,1,1.5-3.2C-23815.6,6415.5-23809.8,6407.2-23802,6407L-23802,6407z
							 M-23011.7,6416.5c-25.2,24.9-17.1,10.1-6.1,29.7c-0.2,12.8,7,23,0.7,43c-2,3.9-2.2,5.8-1.2,9.8
							c-2.3,22.3-20.1,21.6-37.6,24.7c2.9-0.1,26.6,45.9-19.5,48.5l-3.3,185.1l73.2-51.7l5.7-289L-23011.7,6416.5z M-23554.8,6503.1
							c-20.7,12.8-50.1,45.1-86.1,37.2c-6.8,115.4-46.5,204.1-102.2,279.8c18.4,11.4,38.7,25.1,57.6,34c16.3-8,25.4-11.3,41.6-24
							C-23576.8,6731-23553.9,6621.7-23554.8,6503.1z M-23385.5,6527.7c2.4,59.4,10.9,115.8,40.8,161.5l4.7-126
							c-10.9-2.9-19.8-10.2-22.6-30.4L-23385.5,6527.7z M-23609.2,6558.1l20.6,0.9c0,0-4.9,9.2-7,14.4c-2.6,6.3-1.4,7.6,3.3,3.3
							c6.2-5.6,16-6,21-0.7c13.3,13.9-1.4,35.9-17.3,25.8c-6.8-4.3-8-2.9-2.6,3.1c10.4,10.1-1,24.1-13.4,23.9
							c-9-0.2-14.7-7.5-15.2-15.5c-0.2-5,2.4-9.9,6.7-12.3c4.6-2.4,1.4-4.2-3.6-1.6c-16.2,8.3-26.4-14.1-14.1-26.4
							c7.1-7.1,14.5-6.3,21.4,0.8c4.8,4.9,6.6,4.5,5.3-1.2C-23605.3,6566.1-23609.2,6558.1-23609.2,6558.1L-23609.2,6558.1z
							 M-23053.1,6587l14.8,0.3c-1.5,3.6-3.5,7.3-4.7,10.9c-1.3,3.9-0.4,4.4,3.6,0.7c10.3-6.6,21,0.4,18.6,11.2
							c-1.7,7.4-8,11-15.2,7.6c-6.3-3-4.3-1.7-0.8,2.7c4.2,5.3,3,11.3-2.8,15.2c-10.2,6.9-23.3-5.2-16.4-15.3c4.1-6,2.2-5.4-1.4-2.5
							c-5.5,3.8-13.5-1.9-13.5-9.6c-0.4-11.1,10.9-17.1,18.7-9.1c3.7,3.2,4.6,2.9,3-1.8
							C-23050.6,6593.9-23051.1,6590.3-23053.1,6587z M-23053.9,6667.7l15.5,0.1c0,0-0.2,1.2-2.7,5.6c-2.9,5.2-2.6,10.7,0.4,7
							c5.1-6.1,15.5-4.2,18.8,3.5c3.8,9-4.2,18.6-12.2,14.7c-5.2-2.5-5.6-2-2.2,3.1c3.3,5,1.7,11-3.9,14.4
							c-11,6.7-23.8-7.4-14.5-16.1c2.5-2.3,1.7-3.5-1.2-2c-12.1,6.3-20.7-10.1-10.1-19.4c4.5-4,7.9-3.6,15,1.6c2.2,1.6,2.7,0,1.1-4
							C-23052.6,6669.6-23053.9,6667.7-23053.9,6667.7z M-23628.8,6665.6c17.2,0.1,31.1,14.2,31,31.4c-0.1,17.2-14.1,31.1-31.4,31
							c-17.2-0.1-31.1-14.2-31-31.4S-23646.1,6665.5-23628.8,6665.6z M-23628.6,6671.1c-14.2-0.1-25.7,11.3-25.8,25.5
							c-0.1,14.2,11.3,25.7,25.5,25.8c14.2,0.1,25.7-11.3,25.8-25.5C-23603,6682.8-23614.4,6671.2-23628.6,6671.1z M-23628.5,6681
							c8.7,0.1,15.7,7.2,15.7,15.9c-0.1,8.7-7.2,15.8-15.9,15.7c-8.7-0.1-15.8-7.2-15.7-15.9
							C-23644.3,6688-23637.2,6680.9-23628.5,6681z M-23669.3,6755.8l17.8,9.2c0,0-8.7,6.8-12.1,10.3c-4.4,4.5-4.2,6.7,1.7,4.6
							c11.2-4,22.3,2.5,22.3,14.1c0,15.5-18.5,22.5-27,10.6c-2.5-3.5-5.6-5-4.5-2.2c2.8,7,0.8,15.7-4.4,19.1
							c-4.2,2.8-11.8,3.5-15.6,1.4c-13-7.1-13.4-22.3-0.7-28c6.4-2.9,6.7-5.7,0.4-4.3c-13,3-20.2-12.9-10.7-23.4
							c10.1-11.2,26.3-8.5,27.7,8.4c0.3,3,2.4,0.9,3.4-3.7C-23669.8,6768.6-23669.3,6755.8-23669.3,6755.8z M-23501.9,6784.7
							c0,0-66.7,36.2-64.8,37.8c0.4,0.2,14.2,20.6,14.2,20.6c34.3-73.5,111.3-10.4,123.1,27.7c2.7,1.7,3.2,1.3,6.1,2.7
							c0.3-2.7,6.3-28.9,6.3-28.9L-23501.9,6784.7z M-23615.7,7056.3l-10.9,14.9c-3.7,1.5,163.8,33.4,297,7.2l-8.8-17.6
							C-23447,7086.1-23617.4,7058.2-23615.7,7056.3L-23615.7,7056.3z"/>
						
							<path class="st2" d="
							M-23829.9,5833.5l-28.1,1362.2l852.9,17.6l28.1-1362.2L-23829.9,5833.5z M-23574.4,5849.4l428.2,7.2l-81.9,133.9
							c0.9-7.1-153.3-32.2-280.2-8.1L-23574.4,5849.4z M-23818.2,5847.5l232.9,4.8l75.6,142.2c0,0,4.4,8.9,1.5,18
							c-3.2,10-5.9,14.4-8.7,19.4c0.3-2.9-22.5-6.3-21,13.4c1,13.3,17.7,21.2,30.4,11.1c2-0.1,1.9,1.7,1.4,5
							c-1.3,7.6-9.9,31.5-15.5,33c-27.7-23.7-38.6,18.3-19.8,27.1c10.9,5.1,27.9,1.4,36.1-11.6c6.3-10,5.6-8.3,7.2,4
							c0.6,4.6,1.5,9.9,2,12.3c1.5,7.5-0.2,8.9-12.8,12c-10.2,3.7-20.4,5.7-30.9,7.7c-19.1,2.7-29.1,16.9-29.9,34.3
							c-0.2,3.8-0.1,5.5-0.9,6.6c-81,28.9-166.5,69.8-257.6,140.9L-23818.2,5847.5z M-23290.5,6192.9c-2.9-5-12.1-31-14.6-41.9
							c-5.9-52.5-5.9-114.6-12.4-163.4l9.8,1.3c0,0,3.4,14.2,6.6,52.3c1.6,18.9,2.8,58.2,4.1,76.3c1.9,26.9,13.2,70,20.4,81
							c11.9,17.9,36.7,7,28.9-14.1c-4-11-20.6-9.5-18.5,1.8c0,2,1.6-1.4,4.1-3.5c7.2-2.6,15.1,5,10.7,13.9
							c-5.4,11.3-20.7,5.8-25.6-8.7c-5.8-17.3,15.1-29.8,30.3-19c16.9,12,16.3,41.7,2.3,50.8
							C-23267.8,6227.6-23283.3,6210.4-23290.5,6192.9L-23290.5,6192.9z M-23233.5,6215.9c-0.9-0.6,0.1-2.4,1.3-6.6
							c4.6-15.9,2.2-28.4-7.9-40.4c-5.6-6.7-7.8-7.9-4.7-9c6.5-2.4,20.4,8.2,24.1,18.4c3.6,10,4.4,20.3-1.3,31.4
							C-23225.9,6211.9-23231.8,6216.6-23233.5,6215.9z M-23215.8,6205.6c0-1.9,1.4-7.7,1.8-10.6c1.4-11.1-3.6-22.6-12.7-31.6
							c-7.6-7.6-8.3-8.4-1-8.3c18.9,0.1,30.4,30.9,21.3,45.8C-23208.7,6203.2-23215.6,6207.9-23215.8,6205.6z M-23199.6,6195.6
							c6.1-26-18.7-43.9-19.3-43.1c1.4-5.8,11.3-2.3,14.7,0.1c12.6,8.8,19.4,31.3,11.3,43.9c-0.9,1.5-1.9,2.4-3.3,3.2
							c-2.7,1.6-4.2,2.9-4.8,1.7C-23201.3,6200.6-23199.7,6196.9-23199.6,6195.6L-23199.6,6195.6z M-23419.6,6106.4
							c2.7-2.5,3.5-2.6,8.5-0.6c15.7,6.3,28.6-4.8,25.1-16.8c-1.3-4.4-7.1-9.2-10.8-9.6c-6-0.7-6.1,2.4,0.2,5
							c7.9,3.1,8.5,11.5,1.4,15.2c-8.3,5.4-21.4-8.9-31.3-8c-4.7,1.3-7.8,5.6-5.3,11.1
							C-23429.6,6106.4-23422.6,6108.9-23419.6,6106.4z M-23437.2,6104.4c-5.4-2.7-7.5-2.7-6.4-8.6c0.8-3.9,7-30.4,9.8-40.6
							c8.7-30.6,1.5-47.8-21.1-55.2c-15.3-5-28.6-2.9-44.5,5.1l-2.6-8.8c66.1-15.8,178.2-9.7,177.8-9.1c2,8.9,2.7,17.8,3.4,26.6
							c0,0-20.8-10.7-31.7-14.4c-16.8-5.5-43.6-0.4-48.5,9.2c-2.8,5.4-1.5,9.1,10,3.3c18.8-9.6,56.6-1.2,69.7,9.7
							c3,2.5,2.9,3,2.9,5.9c0,4.4,0.3,4.6-5.8,1.3c-31.6-17-58.8-15.6-68.7,5.6c-2.2-0.7-10.4-2.3-10.4-2.3l8.6,13.3l1.4,13.8
							c0,0,14.3,8.4,22.3,11.9c7.8,3.5,3.3-0.1-6.2-7.1c-7-5.1-1.3-6.5,3.3-4.6c9.6,2.4,23.6,5.5,40.1-4.5
							c5.1-3.1,16.6-0.1,16.8,1.4c0,0,1.3,12.1,2.3,37.2c0.5,11.9,1.6,27.4,2.3,33.8c2.1,19.3,2.8,20.4-7.1,11
							c-3.3-3.2-8.9-8.4-8.9-8.1c-1.4,5.9,13.3,16.7,16.7,20.4c5.2,5.6,9.1,19.6,7,20.4c-1.3,0.5-15.3-11.8-26.2-22.9
							c-4.1-4.1-10.2-9.7-10.4-9.5c-2.3,1.5,6.8,12.3,15.4,20.3c10,9.4,11.2,10.3,7.7,11.6c-6.4,2.4-12.1-0.9-27.2-14
							c-1.5-1.3-7.2-5.5-7.5-5.2c-1.4,1.8,12.5,15.6,15.7,16.8c6,2.3,7.6,8.1,2.8,10.3c-3.2,1.5-14.8-5.2-24.1-13.6
							c-1.7-1.5-6.3-4.1-6.6-3.8c-1.9,1.2,8.5,10.5,18.4,16.8c9.7,6.1,11.3,7.6,8.7,12.5c-2.4,5-23.8-7.2-34.4-19.5
							c-2.2-2.6-4-3.8-3.6-2.9c4.4,13.2,19.8,22.9,31.2,26.8c2,0.7,5,1.6,6.3,2.7c3.2,2.7,2.4,5.4-1.1,6.8
							c-12.4,3.2-31.5-12.1-45-28c-1.6-0.7-0.7,1.4-0.3,2.1c11.2,18.7,33.1,33.2,46.5,30.9c7.8-1.4,14.1,1.1,14.1,3.7
							c0,2.1-4.4,5.5-12.8,5.9c-19,1-48.3-20.4-65.1-47.3c-0.5-0.8-1.2-1.2-1.2-0.7c-0.6,5.6,9.9,19.6,18,27.6
							c24.1,23.9,47.2,32.3,65.6,19.5c10.4-7.7,20.6-24.8,5.5-31c-8-3.2-13.3,7.8-6.4,4.7c9.1-0.9,11,3.9,9.8,8.4
							c-2.5,7.7-10.2,8.8-16.4,5.4c-10.8-6.1-8-26.3,6.1-29.5c12.8-2.8,23.6,8.2,24.9,18.4c1.9,15.9-16.3,32.7-30.8,36.7
							c-49.2,13.6-86.1-55.3-86.3-56.8c-2.4-4.8-5.3-7.3-7.2-1.9c-2.2,7.9-13.7,31.1-19.6,30.8c2-8.2,10-21.9,8.4-34.1
							c-3.5,9.9-10.8,31.1-24.2,42.1c-3.5,3-13.6,6.5-6.5-1.4c8.6-11.5,19.8-27.3,17.9-42.4c-2.3,3.3-3.7,11.9-6.3,17.5
							c-6.6,14-20.8,30.5-30,33c-6.8,1.9-6.1-0.4,0.9-7.5c7.6-7.6,21.1-30.2,20.5-40.1c-0.3-4.4-14.4,37.4-39.4,48.4
							c-6.8,2.3-10.5-0.9-10.5-0.9c9.9-5.4,37.4-31.5,35.5-61.7c0,0-1.5,4.4-3.8,11.1c-9.7,28.6-29.8,47.2-45.1,48.4
							c-12.2,1-20.7-4.1-17.6-6.2c15.8,0.4,29-4.8,39.5-20c10.7-15.5,15-40.6,9.3-67.5c-5.2-24.2-5.9-45.9-7.4-69.1
							c17.2,6.3,34.6,10.6,51.7,4.3c-1.8,6.9-4.7,7.7-9.2,12.8c-3.3,3.7-2.2,4.7,10.6-4c3.7-2.5,5.1-4.6,5.7-3.9
							c1.1,1.1-0.8,8.2-4.7,22.3c-5.9,21.1-4.5,22.6,15.6,31c3.8,1.6,5.1,3.1,6.4,4.7c0.6,0.8,3.8,6.8,4.1,7.1
							c0.7,0.5,0.7-6.1,0.3-7.8c-1-4.5-3.3-7.9-5.4-9.2C-23427.8,6106.6-23433.5,6106.1-23437.2,6104.4L-23437.2,6104.4z
							 M-23059.1,6388.4l0.7-22l21,15.6l-0.4,7.2L-23059.1,6388.4z M-23095.6,6392.4l7.6-406.5c0,0,16.6-10.6,24.9-15.8
							c4.8,16.2,4,50.8,1.8,66.1c-3.4,10-5.8,54.5-2.6,77.3c2.5,18.2,1.4,48.1-1.7,62.3c-1.2,5.6-0.9,31.8,0.6,56.1
							c1.2,18.6,0.4,35.4-2.1,45c-1.9,7.6-1.9,34.8-0.1,45.3c2.6,15.4,2.1,64.8,0.7,67.5
							C-23070,6393.7-23097.5,6393.7-23095.6,6392.4z M-23054.4,5967.7c0,0,16.3,11.2,24.1,16.9l-0.2,17.5l-23.5-16.1
							L-23054.4,5967.7z M-23301.3,5990.9l10.2,0.8c3.6,21.3,4.9,45.4,6,69.5c-0.2,37.2,3.5,76.5,11.7,102.4l-7.7,7.7
							c-12.2-29.7-12.2-76.2-14.4-107.8C-23296,6028.2-23301,5991.1-23301.3,5990.9L-23301.3,5990.9z M-23052.9,5992.3l21.9,15.5
							l-0.2,19.1l-22.1-15.3L-23052.9,5992.3z M-23286.6,5992.6l8.9,1.2c2.2,25.2,6,42.3,7.1,70.1c1.3,35.9,6.9,65.4,10.2,93.4
							l-6.8,2.1c-4.5,2-11.3-31.2-13.2-98.3C-23281,6040.7-23283.9,6017.8-23286.6,5992.6L-23286.6,5992.6z M-23273.1,5993.8
							l10.7,2.1c3.4,63.7,9.7,123.6,16.8,158l-9.3,0.4C-23265.5,6105.2-23265,6048.6-23273.1,5993.8L-23273.1,5993.8z
							 M-23257.7,5996.4l9.8,1.9c8.8,145.7,16.2,144,18.3,149.8l-10.7,4.1C-23250.9,6110.1-23252,6051.1-23257.7,5996.4
							L-23257.7,5996.4z M-23215.9,6140.2c-1.8,4.9-5.8,4.3-10.1,4.7c-4.6-13.5-7.1-29.5-8.8-45.1c-3.8-34.4-4.7-66.5-8.7-100.5
							l11.7,1.4C-23232.3,6001.1-23226,6120.3-23215.9,6140.2L-23215.9,6140.2z M-23465.8,6007.1c15.5,1.1,28.1,8.3,29.2,18.5
							c0.2,2.3-1.6,1.1-3.6-0.5c-13.1-10.5-28.2-14-46.6-7.8c-4,1.4-7.3,3.5-9.1,3.2c-1.6-1.1-2-3.5-0.8-5.6
							C-23492.2,6007.9-23473.4,6006.6-23465.8,6007.1z M-23502.1,6026.8c0,16-4.1,24.8-12.6,28.3c-10.2,4.3-23.1-5.6-16.5-16.2
							c4.9-8,13.1-5.4,14.5,3.2l13.5-28.4C-23503.1,6013.6-23502,6022.8-23502.1,6026.8L-23502.1,6026.8z M-23031.1,6033.9
							l-0.5,16.5l-23.5-16.4l1.9-15.8L-23031.1,6033.9z M-23453.1,6023.1c11.6,4.9,15.8,10.6,16.2,13.2c-0.7,1.9-1.9,0.6-10.3-4.2
							c-13-8.4-30.2-10-45.5-0.1c-3.8,0.7-4.1-1.5-0.3-5.5C-23481.3,6017.7-23465.4,6017.9-23453.1,6023.1z M-23364,6021.8
							c10.3-0.1,22.6,2.8,32.9,8.2c4.6,2.4,8.7,3.9,11.6,6.6c2.4,1.3,2.4,6.8,0.7,7.1c-1.6,0.2-4.1-1.1-7.9-3.8
							c-24.4-16.6-42.2-15-56.8-5.4c-0.8,0.5-3.3,1-4.2,0.9c-2.7-0.3-2.8-1.4-1.7-2.8C-23382.6,6025.3-23372.7,6021.9-23364,6021.8
							L-23364,6021.8z M-23055.1,6039.8l23.5,17.2l-0.3,16.4l-25-18.1L-23055.1,6039.8z M-23485.6,6037.5l3.5,0.2
							c7.7,19.8,18.1,9.9,22.5,2.1l4.2,0.8C-23462.6,6066.8-23489.3,6052.5-23485.6,6037.5L-23485.6,6037.5z M-23491.6,6040
							c3.9,0.6,3.7,5,4.9,8.3c2.6,7.3-7.7,1-9.5-0.8C-23499.1,6044.2-23494.8,6040.3-23491.6,6040z M-23373.6,6041.7
							c10,15.9,16.1,6.7,22.1,0l2.8,0.9c-1,11.2-20.1,22.8-28.6-0.8L-23373.6,6041.7z M-23342,6044.1c1.1,0,3.3,0.9,5.3,1.7
							c5.6,2.4,5.2,4-1,6.7c-10,4.2-13.5,4.7-10.4-1.5C-23346.4,6048.2-23345.1,6044.5-23342,6044.1L-23342,6044.1z
							 M-23381.1,6045.7c2.5,1.9,4.1,4,4.3,7.3c0.2,2.3-7.6-0.5-7.5-4.2C-23384,6046.4-23382.7,6044.5-23381.1,6045.7z
							 M-23450,6045.2c5.1,2,4.4,4.4,0.8,6.6c-6.5,3.4-9.2,2.7-4.9-2.8C-23452.2,6046.3-23451.7,6045.2-23450,6045.2z
							 M-23057.2,6061.5l25.4,18.7l-0.6,16.7l-25.4-18.1C-23058.8,6071.6-23057.6,6066.8-23057.2,6061.5L-23057.2,6061.5z
							 M-23503.9,6078.1c1.2,0.1,1.6,4.1,1.8,10c0.3,9.8-10,23.3-20.2,27.9c-12.3,5.4-25.2-2.8-22.8-14.6c2.2-10.8,17.7-11,18.1-0.9
							c-1.6,2.6,0.5,4.9,1.4,4.7c4-1,13.6-9.2,17.6-18.6c1.6-3.6,2.5-7.4,3.6-8.3C-23504.2,6078.2-23504,6078.1-23503.9,6078.1z
							 M-23058.3,6084.2l25.4,19.4l-0.2,16.6l-25.2-18.1C-23059.2,6094.6-23058.7,6089.4-23058.3,6084.2L-23058.3,6084.2z
							 M-23371.9,6104c-2,3.2-0.5,9.1,3.6,4.2c10.5-11.8,25.1,3.5,16.9,12.9c-7.4,8.5-16.2,5.5-34.9-2c-13.6-5.5-15.8-3.8-19.2-0.1
							c-2.8,3.1-1.6,9.3,2,9.3c11,2.7,20.6,5.4,32,8c24.2,5.5,39.6-25.5,17.7-37.4C-23359,6096.1-23370.1,6099.4-23371.9,6104z
							 M-23479.1,6105.4c-9.6,8.3-2.3,30.7,11.6,33c2.9,0.5,7.3,0.4,12.2-0.9c9.8-2.6,20.7-8.2,21.2-11.5c2.3-15.2-20.7-2-23.7-0.3
							c-7.3,4.2-14.8,3.5-18.5-1.8c-8.4-11.8,7.3-24.9,16.4-10.4c2.3,3.6,1.6-2.5-0.9-6.7
							C-23464.4,6101-23473.8,6101.2-23479.1,6105.4z M-23057.2,6109.3l23.9,17.6l-0.5,15.9l-23.2-17.4L-23057.2,6109.3z
							 M-23055.8,6132.6l22.6,17l0.1,16.6l-23.8-16.4C-23056.3,6143.9-23056.1,6138.3-23055.8,6132.6L-23055.8,6132.6z
							 M-23184.8,6139.5c20.2,0.7,31,30.8,20.1,43c-3.2,3.6-5.8,4.6-7.2,3.2c-0.3-0.3,0.3-3.6,0.6-7.4c0.9-12-1.5-20.3-10.1-29.6
							C-23187.9,6141.7-23190.3,6139.5-23184.8,6139.5z M-23433.5,6139.1c-3.8,1.3-7.9,4-11,3.2c-3.1-0.7-4.6,0.8-5.8,3.2
							c-4.8,9.2-3.4,12.2,5.8,7.1c4.4-2.4,5.9-1.5,17.5,1c8.3,1.7,13.9,1.7,21.3,0c9.1-2.2,14.6-2.2,19.1,0.4
							c4.6,2.6,7.6,6.1,7.8,3.3c-0.4-3.3-3.2-11.8-3.8-14.6c-0.3-1.4-2.6-0.2-4.7-0.1c-7.5,0.4-16.4-6.6-22.3-3.1
							c-4.7,2.8-5.4,3.5-11.7-0.4C-23426,6136.1-23429.3,6137.7-23433.5,6139.1z M-23190.3,6146.2c13.4,11.7,16.7,21.9,15.2,30.2
							c-0.8,6-1.4,12.7-7.4,16.2c-1.1,0.5-2.7,0.8-4.3,1c5-17.1-0.1-32.6-19.1-49.4C-23200.2,6141.6-23194.5,6142.6-23190.3,6146.2z
							 M-23498.7,6139.8c0.6,0,1.3,0.1,1.9,0.4c2.4,0.8,2.6,7,0.7,9s-3.4,0.3-5.4-4.7
							C-23503.1,6141.7-23501.3,6139.8-23498.7,6139.8z M-23511.4,6144.4c5,0,6.8,4.6,7.6,8.3c0.7,3.1-0.4,12.4-3,9.1
							c-0.6-2-3.2-8.4-5.3-10.1C-23517,6147.9-23516.4,6144.4-23511.4,6144.4z M-23525.6,6148.7c0.7,0,1.7,0.1,2.8,0.3
							c7.8,1.5,13.5,14,11.5,21c-4.3,7.5-5.7,2.3-6.9-4.5c-1-2.9-4.1-7.4-6-9.7C-23528.2,6150.9-23528.7,6148.7-23525.6,6148.7z
							 M-23056.9,6154.8l23.4,17.5l-0.3,18.2l-24.5-17.2C-23057.7,6166.9-23057.3,6160.8-23056.9,6154.8L-23056.9,6154.8z
							 M-23541.1,6152.2c11.6,0,21.3,14,17.3,26.9c-4.8,13.5-27.4,10.1-23.3-3.3c1.2-3.9,5.4-6.6,9.3-4.1c5.7,3.6,5.2-2.1,1.6-4.2
							c-5.6-3.3-13.3-1.5-15.2,4.8c-6.5,22,21.9,30.2,37.8,7.6c5.8-8.3,12.2-17.1,15.7-20.8c3.1-3.4,3.8-3,3.2,1.4
							c-2.4,20.6-17.3,46-44.2,44c-26.1-3-33.7-31-13.6-47.9C-23548.7,6153.9-23545.1,6152.2-23541.1,6152.2z M-23402.4,6156.2
							c-9.7,4.4-18.4,6-27.7,1.7c-6.9-3.2-6.9,0.1-3.9,2.9c8.6,7.6,24.6,4.6,31.5,0.5C-23400.3,6160-23399.5,6156.1-23402.4,6156.2
							L-23402.4,6156.2z M-23034,6196.7l-0.3,16.6l-26.1-18.3c-0.3-4,0.2-10,1.2-16.2L-23034,6196.7z M-23059.6,6201.7l24.9,17.1
							l0.3,16.4l-24.2-15.7L-23059.6,6201.7z M-23058.4,6224.8l23.8,17.2l0,17.9l-23.5-16.2L-23058.4,6224.8z M-23646.3,6231.5
							l-15.7,44.3l9.6,0.8l6.3,11.9l6.9-11.9l10.2-0.6L-23646.3,6231.5z M-23057.9,6249.6l22.9,16.4l0,16.6l-23.8-17.2
							L-23057.9,6249.6z M-23059.2,6269.8l23.5,17.7l0.1,17.6l-26.6-18.5L-23059.2,6269.8z M-23592.1,6268.7l-15.6,47.4l8.3-0.9
							l7.4,12.9l8-11.3l7.4,0.6L-23592.1,6268.7z M-23702.1,6270l-14.9,47.1l9.3,0.2l7.6,12.1l7.1-11.4l10.6-0.1L-23702.1,6270z
							 M-23062.8,6291.9l27.5,20.2l-0.2,18.7l-26.7-18.7L-23062.8,6291.9z M-23036.1,6336.8l0,16.4l-23.2-17.2l-2.2-18.2
							L-23036.1,6336.8z M-23534.9,6329.4l-18.1,47.8l11.4,0.3l6.7,11.7l5.8-11.5l9.2,0.3L-23534.9,6329.4z M-23057.9,6344
							l21.5,15.4l-0.5,16.8l-21.2-14.8L-23057.9,6344z M-23475.3,6530.5l-12.2-12.2c-0.1-1,10.3-5.8,16.6-2.5
							c8.3,4.4,12.3,19.6,2.7,27.3c-7.6,6.2-18.9,0.7-19.1-0.1L-23475.3,6530.5z M-23485.9,6510.6c0.6-18.4-9-23.4-17-27.3
							c0,0,1.1-117,1.3-120.4c0,0.5-1.8-12.7-2-13.5l0,0c0,0-1.9-0.6-1.9-0.5c0.1,11.9-1.6,133.4-1.8,134.2
							c-15.1,1.4-19.5,11.5-21.1,25.2c-11.7-1.1-19.5,5.8-19.8,7c-4.2-6-0.8-14.7-4.1-21c-11.1,36.1,8.6,58.3,26.3,56.6
							c2.1,35,40.4,42.1,40-0.3C-23439.5,6548.6-23454.4,6505.6-23485.9,6510.6z M-23701.4,6359.3l-17.8,46.9l11.8-1.1l4.1,8.8
							c19.2-16.3,28.3,9.7,19.1-12.6L-23701.4,6359.3z M-23063.1,6456.5c2.2-0.1,5,1.9,5.5,4.6c0.2,8-10.4,6-10.7,0.9
							C-23068.4,6458.4-23065.2,6456.6-23063.1,6456.5z M-23057.2,6508.5c4.7-3.7,12-1.4,12,4.3c0,5.1-5.8,6.6-10.3,3.7
							C-23059,6514.2-23059.1,6510.2-23057.2,6508.5L-23057.2,6508.5z M-23056.8,6522.5c25.3,2.4,44.5-14.4,36.7-26.9
							c7-8.4,1.5-13.4,3.5-18.3c5.5-5.4,1.2-17.3-0.1-17.4c-0.8-15.9-5.4-18.1-12.1-26.7c-2-2.5,4.9-4.8,7.6-8.9
							c-8.1,2-12.4-2.2-16.7-7.7c-46.9,1.2-89.1,3.6-88.8,67.2c-7.3,26.8,3.6,51.1,36.5,44.4c7.3-6.3,2.8-15.6,2-20.1
							c-2.5-12.3,0.8-20.2,1.9-26c3.2-17.7,16.5-33.9,17.4-6.1c2.4-3.4,1.3-4,5.1-5.4c9.1-3.1,8.9,6,6.9,9.7c-1.2,1.9-3,1.7-4.8,1.4
							c-2.6-0.4-6-1.4-6-2.4c-0.8,2.9,4.6,8.4,4,11.1c-0.8,2.6-1.2,2.3,1.2,0.7c11.4-7.8,18.1,10.3,1.9,7.9
							C-23052.8,6503.6-23065,6515.9-23056.8,6522.5z M-23071.5,6425.2c8.9-0.3,11-0.3,10.5,4.4c1.5,8.6,3.6,12.7,14.8,12
							c11.3-1.2,14.9-1.9,3.4,4.7c-5.8,2.4-7.7,2.9-14.5,2.1c-6.9-0.8-6.3-1.4-10.3,0.8c-2.2,1.3-4.6,2.8-6.4,3.1
							c-2.7,0.4-7.3,1.3-7.3,1.3c-2.9,13.3-7.1,20-12.8,26.2c-8,8.7-12,10.2-2.4,9.8c3.5,0.3,1.7-1.5,3,12.9
							c0.4,5.1,1.3,10.9,2,12.9c2.4,6.6,2.6,9.9-6.9,10.2c-23.7,1.3-28.8-21.9-25.4-33.6c0.3-1.8,1.5-8,1.9-12.8
							c0.2-2.7-0.3-4.9-0.2-7.6c1-22,6.3-27.7,26.1-41.6C-23090,6425.8-23079.4,6425.1-23071.5,6425.2z M-23050.7,6426.8
							c10.9,0,21.4,5.5,16.1,8.8c-3.5,2.1-15.7,1-19.1-1.5C-23058.1,6430.8-23056.4,6426.8-23050.7,6426.8z M-23539.1,6435.4
							l-4.5,7.6c1.7,16.8,1.8,25.6-4.6,43l8.7,11.9l7.3-12l11.1,0.4L-23539.1,6435.4z M-23027.3,6442.4c7.1,1.6,7.2,8,5.3,12
							c-4.1,8.7-30.7,12.4-30.7,12.4c-0.1-3.8,0.5-7.4-2.2-11.7c0,0,17.8-4.3,21.6-7.6
							C-23030.9,6445.2-23029.3,6442.4-23027.3,6442.4L-23027.3,6442.4z M-23022.5,6462.4c2.6,0.1,3.9,2,4.5,5.8
							c0.3,2-0.5,3.8-2.2,5.9c-6.9,7.2-25.9,11.9-32.7,9.9c-0.5-0.6,0.9-8.3,1.4-11.7
							C-23042.4,6472.7-23026.9,6464.9-23022.5,6462.4z M-23293.2,6501.9c-8.8-13.2-28.9-11.7-26.7-10.8
							c0.4-11.2-1.2-26.6-18.1-28.5c-17.1-1.6-26.3,20.7-20,30.4c-10.5-4.6-26.5,6.1-26.5,7.1c-1.3,0-14.1,31.7,22.5,34.1
							c3,15.2,8.6,22.6,20.1,29l-2.3,123.2l4,5.7l3-129.1c18.7-0.4,21.5-21.8,20.2-26.8c8.3,0.5,15.9-1,22.4-5.7l1.8,21.1
							c0,0,4.5-7.3,3.7-11.3c-5.7-121.1,40.8-251.1,100-334.7c3.1-3.5,4.2-7.7,5.7-7.7c14.2-7.3,23.1-12.2,23.1-12.2
							c22.9,11.6,63.6,39.2,63.6,39.2l-2.9,172.4c-0.6-1.7,77-7.1,75.8-5c0,0-6.7-2.8-6.7-7.3l6.3-403.4l-33.4-22.8
							c0,0-28.2,17.6-36.2,23.7l-4,237.5l-59.3-36.4c0,0,1.1-8.4,1.3-11.1c-0.3-32.4-16-43.6-46.5-34.6c-4.1,1.2-6.9,2.3-8.9,0.6
							c-12-37.5-15.7-135.6-15.7-135.6l88.4-143l145,2.2l-8.9,553.3l-0.7,290.1l-75.1,52.4l2.8-185.8c0,0-10.5-5.3-13.3-5.7
							c-1-0.1-2.4,2.2-0.6,3.4c2.7,1.8,9.3,4.4,9.3,4.4l-2.2,184.1c0,0-29.2,18.8-42.2,26.6c-24.3,12.7-48.2,24.7-73.3,35.2
							c-24.7,10-79.1,31.3-79.1,31.3c-4.4-15.6-49.9-52.6-102.4-28.2c-4.8,1.7-10.7,3.1-14.8,5.8c-19.9,3.2-26.9,24.3-30.3,44.8
							c-0.1,0.8,1.6,0.7,1.6,0.7c0.2,0.3,5.1-19.7,7-23.4c4-8,8.9-12.8,11.5-13.5c1.2-0.2,2.1,1.7,0.5,4.5
							c-3.3,5.6-6.1,17.6-6.9,23.1c-0.8,5-1,9-0.1,9.2c0.2,0.2,4.9-15.1,7-20.5c5.5-14,8.9-19.8,14-22.7c5.2-3,6.4-2.5,5.3,0.7
							c-8,14.8-11.4,26-13.2,41.9c-0.3,3.2,1.3,3.3,2.7-1.9c4.5-16.6,10.8-39.1,24.5-45.5c5.9-2.5,8.4-2.3,7.8-0.5
							c-16.6,20.1-21.1,42.7-21.1,50.1c0,2.4,1,2,3.2-3.3c5.9-20,14.4-37,24.2-45.2c3.8-3.2,8.3-4,12.1-4.4
							c11.5-1.2,11.8,3.1,1.7,8.7c-11.5,6.4-25.1,30.1-26.9,48.1c-0.6,6.2,1.6,7,3.3-1.3c7.5-35.7,38.7-58.8,63.1-47.3
							c11,5.2,12.8,12.1,3.3,8.8c-19.4-6.6-41.4,6.8-50.7,25.9c-8.4,17.3-8.5,26.5-3.3,50c3.4,21.7,10.4,49.4,7.5,70.5
							c-2.8,4.1-11.1-1.9-21.1-3.4c-6-1.3-13.4-1.7-19.7,0.6c-5.5,2-8.7,2.5-9.6-0.5c-0.3-1,4.4-5.5,6.4-8.1c3.3-4,1.5-4.7-3.2-0.4
							c-2.3,2.1-7.2,7.2-8.5,7.4c-2.9,0.5-3-2.7-0.4-11c8.9-32.1,6.7-32.7-7.2-39.5c-13.8-5.6-9.4-8.2-15.4-13.6
							c-4.4,3.3,5.3,19.1,16.6,22.7c9.2,3,8,7.7,3.7,20.4c-4.5,17.8-12,41.3-8.3,57.3c7.9,33.5,41.7,33.5,67.9,20.6l3,8.6
							c-22.1,8.4-137.8,13.6-176.6,8.3c-2.8-10.6-3-13.3-4-25.7c0,0,23.8,11.4,35.8,13.5c14.9,2.7,38,3.2,44.2-10.4
							c1.9-4,0.1-7.5-5.1-5.2c-9.6,4.1-25.9,7-39,5.9c-11-0.9-26.6-5.7-33.3-9.9c-3.2-2-5.8-5.9-3.2-10.6c2.3-0.5,5.1,2.1,6.9,3
							c19.7,10.4,30.5,12.6,43.6,9c9.9-2.7,23.4-13.1,20.2-16.1c-3.3,1.1-14.6,10.1-22.2,12c-15.7,3.8-32.3-2.9-48.3-13.7
							c-4.9-4.5-2.6-7.6,3.5-4c24.1,12.8,34.1,21.1,57.7,4.4c5.3-3.8,8.2-3.2,11.2-0.8c11.9,11.1,12,5,3.3-6.4
							c-2-2.6-3.7-6.2-4.8-10.1c-0.8-2.8-1-5.7-2.6-7.5c-2.7-3.2-7.6-4.8-13.2-7.5c-8.1-3.8-10.8-2.1-4.9,1
							c10.4,5.4,15.5,11,2.4,7.7c-11.8-5.6-31.7-3-43.1,4.6c-8.9,4.1-12.9,8.6-14.8-1.1c-3.9-20.4,0.9-47.9-4.2-83.4
							c-1-6.8-2.2-11.1-0.8-12c1.8-1.1,6.3,3.3,11.7,11.3c2.5,3.6,7.4,10.7,7.4,9.2c0.3-7.5-11-21.8-20.6-27.6
							c-5.2-3.2-8.5-17.3-2.5-14.1c4.6,2.4,28.5,24.3,33,32c2.1,3.6,3.9,1.4,1.8-2.8c-1.3-2.5-6.9-10-12.3-15.5
							c-9.7-9.8-10.8-9.4-8.9-11.3c3.8-3.8,11.7,1.4,25.8,14.6c3.6,4.7,8.3,9,7.8,6.7c1.5-3.6-12.4-19.2-20.8-23.5
							c-1.6-1-1.8-2.1-1.6-4c1-7.2,17.2,3.8,30.5,16.5c5,4.8,1-4.1-4.8-10.2c-4.5-4.8-11.9-10.8-17-12.9c-5-2.2-5.2-6.6-1.2-8.4
							c13.7-0.3,27.5,14,35.7,25.1c2.3,3.1,4.3,5.4,2-0.3c-7.4-17.3-23.4-27.4-34.6-29.6c-9.1-1.8-8.7-10-0.2-8.9
							c9.4,1.2,24.6,10,37.4,23.5c3.7,3.9,9.9,12.7,8.7,7.6c0-1.4-3.9-6.9-8.4-12.3c-10.5-10.8-22.7-20.5-35.8-23.6
							c-6.1-1.9-24.5,1.3-24.5-1.9c0-2.3,2-3.7,7.9-5.5c22.8-7.1,55.5,13.1,72.9,43.3c1.3,2.2,3.7,3.1,3.8,2.6
							c-8.2-24.6-34.9-47.3-56.4-51.5c-14.6-2.7-29.5,0.8-36.8,10.5c-8.2,11-5.4,25.9,6.6,25c6.3-0.4,5.8-4,5.7-4.1
							c-0.4-0.4-4.1,1.2-6.3,0.7c-8.1-1.8-6.9-16.5,4.9-14.8c13.7,2,15.1,23.6-0.2,27.8c-14.2,3.9-19.3-2.7-23-10.4
							c-5.4-11.3,1-29.3,11.1-36c28.3-18.8,63.3-1.8,82.9,17.8c9.7,9.7,16.7,21.2,20.9,33.5c1.1,2.9,3.6,2.6,2.5-0.3
							c-26.6-72.3-110.4-82.4-123.8-27c-19.7-32.3-37.4-34.9-64.9-21.5c-28,10.9-41.9,20-67.8,31.5l-57.6-32.5
							c-2.2-57.9,0.9-115.9,2.3-173.8c0.2-1.3-12.6,0.7-34,3.6c-56.8,10.1-51.4-20.1-58.7-21.8c-3.9-0.9-3.7,0.8-2.6-106
							c0.3-31,0.8-85.6,1.1-121.2c0.3-35.6,0.8-65.3,1.1-65.9c0.3-0.6,3.6-3.3,7.3-5.8c14-9.5,21.9-15.2,52.5-37.7
							c6.9-5.1,8.7-5.9,8.7-5.9c2.1,64.2-2.4,131.5-1.8,186.7l2.5,0.1l2.8-185.2c-5.2-1.5,120.5-71.6,189.1-93.8
							c1.3-0.4,4.4,1.1,4.4,1.1c38.1,48.7,141.2,36.3,150.7-21.8c16.3,35.9,89.7,106.5,125.6,24c0,0,11.9,24.2,22.5,26
							c23.8,3.7,26.6-0.1,79.7-24.5C-23251.3,6289-23286.5,6385-23293.2,6501.9L-23293.2,6501.9z M-23324.7,6478.5
							c1.2,4.1,1.6,9.3,0.4,13.4c-1.6,3.2-3.9,3.1-3.9,3.1l-11.4-10.2l-11.6,10.3c0,0-6.8-7.2-2.8-16.8
							C-23346.5,6464.8-23329.8,6467.6-23324.7,6478.5z M-23023.7,6483.1c7.5-0.3,3.4,8.2-7.7,13.8c-7,3.5-12.8,4.4-15.2,3
							c-1.3-4.1-0.1-7.7,0.8-9.3C-23041,6488.2-23028,6484.3-23023.7,6483.1L-23023.7,6483.1z M-23505.4,6489.3
							c8.3,0,15.3,6,15.4,16.5c0,4.3-2.3,8.4-2.3,8.4l-13.6-10.5l-10.8,11c-1.8,0.6-8.1-7.6-3.5-16.3
							C-23516.8,6492.1-23511,6489.3-23505.4,6489.3z M-23305.5,6498.2c11.5,5.5,13.2,21.8,1.8,27.9c-5.4,2.9-13.9,4.4-17.8-1.8
							l11.7-12.2l-12.9-11.3C-23323.2,6500.3-23312.5,6494.9-23305.5,6498.2L-23305.5,6498.2z M-23026.1,6499.7c2,0,2.5,0.8,3,2.7
							c1.5,5.3-2.7,10.6-9.9,12.2c-6.7,1.4-6,2.2-9.1-3.8c-2.4-4.7-3-4.5,0.9-5.9C-23036.5,6503.5-23031.5,6501.8-23026.1,6499.7z
							 M-23357.2,6500.9c0,0-8.4,8.2-12.1,11.7l12.2,13.2c0.6,1.6-14.5,8-22.1-2.3c-5-6.7-1.8-19.3,5.5-23.4
							C-23366.3,6495.7-23355.8,6499.6-23357.2,6500.9z M-23339.4,6499.8c7.3,0,13.2,6,13.2,13.4s-6,13.3-13.4,13.2
							s-13.3-6-13.2-13.4C-23352.7,6505.6-23346.7,6499.7-23339.4,6499.8z M-23521.4,6518.4l-12.2,12.2l12.6,14.3
							c0,0-10.2,1.5-13.8,0.7c-17.5-3.6-15.3-24.2-1.7-29.3C-23530.7,6514.4-23526.4,6515.1-23521.4,6518.4z M-23755.3,6517.8
							c0,0,1.8,26.5,3.8,35.5c-1.6,10.3-8.4,17.1-11.6,27.7c-1.7,4.7-7.8,10.9-8.8,4.2c-4.2-8.3,0.2-18.3-3.3-24.2
							c-2.6-5.6-1.1-8.6-2.2-14.3c-3.3-4.8-4.8-6.9-4.2-11.1c-0.3-18.7-5.1-15.1-13.4-13.7c-32.2,2.1-32.6,20.6-31.1,44.2
							c-5,22,3.5,16.9,3.1,20.9c-0.6,6.3,0.3,15.1,2.2,16.1c11.2,13.4,11.6,22.5,26.5,20.6c25.2,2.5,65.4-0.4,74.7-31
							C-23713.3,6549.2-23710.8,6507.9-23755.3,6517.8z M-23504.2,6518.7c7.1,0,12.8,5.8,12.7,12.9s-5.8,12.8-12.9,12.7
							c-7.1,0-12.8-5.8-12.7-12.9C-23517,6524.4-23511.3,6518.7-23504.2,6518.7z M-23744.3,6520.5c4.8,0,10.4,1.2,14.9,5.7
							c9.7,9.7,10,18.3,4.8,54.8c-1.5,10.3-5.3,18.8-10.1,22.5c-9.8,7.3-21.7,12.5-31.5,14.7c-5.2,1.2-9.6,1.1-13.1,1
							c-3.8-0.1-5.9-1.9-6.1-5c1-8.5-7.7-9.5-12.7-9.1c-9,0.2-9.9,1.1-4.2-3.1c6.5-4.8,21.2-4.6,24-1.6c5.9-5.6,11.9-6.2,19.2-6.9
							c-1.1-1.6-3.5-8.1-1.7-12.1c3.9-6.6,10.6-18.2,17.4-22.5c6.8-8.5,1.1-4.7-3-4.7c-2.4,0-2.1-0.7-2.5-2.3
							c-1.5-6.8-3.6-19.5-3.5-27C-23752.5,6521.1-23749.1,6520.4-23744.3,6520.5z M-23786.7,6529c2.5,2.4,2.4,5.6-0.3,7.9
							c-3.2,2.7-9.3,1-9.4-4.1C-23795.9,6527.6-23789.8,6526.2-23786.7,6529z M-23339.7,6556.5c-10.8,0.3-19.4-11.4-15.1-22.8
							c2.3-3.1,3.2-2.6,3.2-2.6l12,11.2l12-12.1C-23318.1,6542.2-23326.7,6555.9-23339.7,6556.5z M-23799.8,6529.2
							c-1,3.3,0.1,6.7,0.2,8.3c-2.2,1.5-11.3,3.9-16.2,6.2c-3.4,1.1-5.8-2.1-5.3-5c1.4-5.4,9.4-8.8,15.2-10.3
							C-23804.1,6528-23801.1,6527.9-23799.8,6529.2z M-23798.2,6544.7c3.3-0.3,2.2,6.8,0.9,10.4c-1.3,2.6-4.9,2.4-8.1,2.5
							c-5.7,0.2-13.1,6.7-16.2,5.5c-1-0.5-1.7-3.2-1.8-5C-23822.5,6548.7-23806.6,6545.5-23798.2,6544.7L-23798.2,6544.7z
							 M-23781.1,6555c-1.1,1.6-4.7,2.3-7.6,1.4c-4.8-1.4-5.4-8.3-1.1-10.6C-23782.2,6543.4-23777.9,6550.5-23781.1,6555z
							 M-23305.2,6549.1l-6.7,9.8l-9.9-0.4l15,49.5l7.8-19.1c1.2-8.8,2.5-17.6,3.6-26.5L-23305.2,6549.1z M-23516.4,6548.9
							l12.5,10.6l11.1-10.9c7.7,18.2-1.8,26.3-11.7,25.9C-23515.4,6574-23526.9,6563.4-23516.4,6548.9z M-23795.3,6561.8
							c4-0.7,2.1,10.2,1.5,10.5c-2.6,0.9-13.7,2.1-18.4,5.9c-10.1,7.6-14.2,2.7-9.4-6.5
							C-23817.2,6566.4-23801.1,6561.8-23795.3,6561.8z M-23782.7,6562.5c4.4-0.3,7.4,4.6,4.6,9.2c-3.7,3.3-10.1,0.7-10-4.1
							C-23788,6564.6-23785.5,6562.7-23782.7,6562.5z M-23789.8,6590c0.6,2.5-0.3,1.7-5,3c-2.6,0.7-6.6,2.3-10.9,4.4
							c-6.2,3-8,4.6-10.1,4.2c-1.7-0.4-3.7-1.2-4.2-3c-2-7.1,3.9-14.1,17.3-18.7c2.8-1,7.8-1.7,9.5-1.8
							C-23788.8,6578.1-23793.7,6585-23789.8,6590z M-23781.7,6579.6c6.4,0,7.5,8.6,2.6,10
							C-23790.4,6592.3-23789.2,6579.4-23781.7,6579.6z M-23790.3,6610.9c1.8,1.8,2,4.6-0.1,6.1c-3.8,1.8-18-0.1-18-4.1
							c0-2.6,4.8-3.4,9.2-3.4C-23794.7,6609.4-23791.7,6609.5-23790.3,6610.9z M-23145.6,6628.6l-12.1,15.5l15,39.9l15.4-47.6
							l-11.4,4.3L-23145.6,6628.6z M-23812.3,6655.5c0.2,121.8-6,400.9-6,400.9l34.2,24.3l37-25.5c1.4-87.8,2.3-148.4,3.7-229.8
							l52.9,30.5c0,0,1.6,2.4,1.1,13.4c-4.3,30.3,24.6,50.6,44.3,39c7.6-3,8.2-3.5,9.7-1.1c4.2,6.6,8.6,34.7,9.1,52.5
							c0.7,26.9,6.6,81.8,8.3,82.2l-90,144.9l-137.7-2.8l11.3-547C-23827.6,6645.4-23823.9,6650.9-23812.3,6655.5L-23812.3,6655.5z
							 M-23307.1,6654.2l-6.7,9.8l-7.9-0.2l12.8,51.3l17.8-49.5l-9.2-1.3L-23307.1,6654.2z M-23751.2,7051.6
							c0,0-17.2,11.8-22.7,15.2c-2.9,1-4.2,1.2-4.9-1.6c-0.8-3.4,0.7-9.7,2.1-20.1c1.3-9.6,1.3-10.2,0-24c-1.4-14.4-1.6-15,0.2-34
							c2-21.2,2.7-41.7,1.3-54.5c-1.3-12.1-0.8-39.8,0.8-55.1c1.9-18.8,1.7-35.4-0.4-49.2c-3.9-24.5-4.5-32.9,0.5-51.2
							c1.9-6.8,2.8-10.5,2.7-22c-0.1-12.8-0.3-17-4.3-45.4c-2.3-16.4-2.5-18.6,0.5-44.4c0.6-5.2,0.8-8.7,2.9-10.3
							c2.4-1.9,26.5-2.8,26.5-2.8L-23751.2,7051.6z M-23806.6,6656.1l26.3,0.3c-2.2,8.2-2.8,14.5-3.1,20.4l-23-15.8L-23806.6,6656.1
							z M-23806.4,6666.6l22.8,15.6c-0.1,6.4-0.7,12.4,0.1,18.8l-23.1-16L-23806.4,6666.6z M-23806.8,6690.6l24.4,17.4
							c0.8,6.6,2.7,13.3,3.4,19.3l-27.7-19.6L-23806.8,6690.6z M-23006.5,6713.8l-8.8,487.3l-246.4-5.1l-75-151.7
							c0,0,1.1-13.8,3.2-20.8c2.5-8.5,3.2-10.3,6.5-10.6c8.7,4.7,18.6-1.1,21.7-7.7c3.9-8.1-3.4-20.6-14.7-23.6
							c-5-1.3-10.6,0.8-16.2,5c-3.3,2.6-4,2.9-4.6,0.6c-1.3-5.3,3.7-19.6,12.3-31.8c4.8-6.8,6.1-8.7,7.6-6.1
							c5.9,10.7,19.1,8.8,24.2,2.9c6.2-7.1,5.3-23.6-8.3-28.3c-26.5-9.1-39.3,17.5-39,17.4l-5.1-32.3c32.3-7.2,50.9-9.6,61.3-19.2
							c8.2-7.5,12.3-20.7,11.6-32.5c0,0,90.1-34.4,132.3-56.1C-23071.3,6764-23006.5,6713.8-23006.5,6713.8L-23006.5,6713.8z
							 M-23142.5,6714.5l-6.8,11.5l-9.4-0.2l17.9,49.5l15.5-50.9l-9.1,0.6L-23142.5,6714.5z M-23806.2,6714.9l28,20.1
							c0.5,6.4,1.2,12,0.2,19.2l-29.5-20.4L-23806.2,6714.9z M-23252.7,6720.3l-7.3,9.2l-8.1-1l14.9,48.9c5.1-13.9,9.9-32.9,15-46.9
							l-7.6,0.2L-23252.7,6720.3z M-23807.2,6739.8l28.9,20c0,6,0.2,11.7-2,15.9l-27.3-18.3L-23807.2,6739.8z M-23198.4,6755.2
							l-7.4,13.6l-9.5-1.5l16,46.9l19.5-45.8l-11.5,0.4L-23198.4,6755.2z M-23807.6,6762.5l25.1,19.2c0.4,0.3-1.6,8.5-1.3,13.2
							l-23.9-15.4L-23807.6,6762.5z M-23807.4,6785.6l23.4,16.8c-0.1,6.2,0.2,12,1.1,17.3l-25.4-17.3L-23807.4,6785.6z
							 M-23808.3,6809.1l27,20.1l1.1,15.7l-28.7-18.9L-23808.3,6809.1z M-23582.6,6820.4c26.1,10.4,49.8,60.9,47.7,125.7
							c-1.5,45,10.8,109.5,10.6,108.8c0,0-7.7,0.9-9.8-0.9c-9.2-33.2-11.8-68.2-12.8-97.1c-0.8-24-1.7-47.6-3.1-53.2
							c-3.9-19.5-8.1-42.1-20.2-57.1c-9.4-11.3-20.4-13.5-27.2-1.1c-5.6,10.1,5.4,27.2,14.9,21.8c2.3-1.2,3.7-3.4,0.7-3.4
							c-9.8,1.2-16.1-12.4-9.8-18.7c11.1-11.1,29.6,14.5,20.5,28.3c-4,5.9-14.2,6.8-22.3,4.4c-17.9-9.1-22-30.7-15.7-44.7
							C-23604.2,6822.5-23593.9,6816.3-23582.6,6820.4L-23582.6,6820.4z M-23614.6,6826.1c2.1,0.1,0.6,4.1-1.5,10.2
							c-5,14.7,3.3,37.7,15.3,42.6c3.6,2.5,3.4,3.5,0.9,4.8c-8,4.3-22-9.3-25.5-24.2c-2.5-10.8-1.6-23.4,3.7-28.7
							c2.9-2.9,5.2-4.4,6.7-4.6C-23614.9,6826.1-23614.7,6826.1-23614.6,6826.1L-23614.6,6826.1z M-23809,6830.8l28.9,19.8
							c1.2,6,0.5,12.4-0.5,18.8l-28.9-21L-23809,6830.8z M-23632.3,6834.2c2.2,0,1.3,3.6,0.5,10.2c-1.7,15.4,2.8,26.6,13.5,36.2
							c4.5,4,5.7,5.3,3.7,7.3c-2.9,2.9-10.8-1.2-17-7.9c-11.3-12.3-14.6-35-5.5-43.1C-23634.9,6835.2-23633.4,6834.2-23632.3,6834.2
							L-23632.3,6834.2z M-23306.5,6843.6c12.5-0.2,23,4.8,23.8,20.2c1.2,22.4-19.9,34.3-34.2,21.1c-12.8-13.2,0.9-33.1,15.8-23.3
							c7.5,5-1.8,15.7-7.8,9.9c-2.7-2.6-4-1-2.1,1.9c5.8,9,17.6,1.9,17-6c-1.3-15.4-20.2-15.6-27.5-9.7c-9.9,8-18.8,20-25.3,28.7
							c-5.4,7.6-6.5,7.3-5.6-2.1C-23349.8,6859.3-23326,6844-23306.5,6843.6L-23306.5,6843.6z M-23647.5,6841.5
							c2,0,1.1,2.8,1.1,10.2c0.4,18.9,8.1,30.9,18.1,37.7c3.3,3.8-1.1,6.4-7.4,4.4c-14.4-4.8-28.6-36.3-16-49.5
							C-23649.9,6842.5-23648.5,6841.5-23647.5,6841.5z M-23661.7,6847.4c2-0.1,0.8,4.1,0.8,12c0.1,16.6,5,24.7,17.2,35.1
							c4,3.4,4.5,3,2.8,4.8c-4.3,4.8-18.5-2.4-24.4-12.5c-7-12-7.7-29.9-0.8-36.5C-23664.2,6848.5-23662.8,6847.4-23661.7,6847.4
							L-23661.7,6847.4z M-23676,6855.1c1.7,0,0.7,3,0.8,10.2c0.3,17.4,4.1,26.1,14.9,34.4c6.8,5.2,8.5,3.7,6.4,5.7
							c-3.8,3.4-13.9,0.2-21.4-6.4c-11.2-9.9-13.9-33.7-4.5-41.7C-23678,6855.9-23676.8,6855.1-23676,6855.1z M-23809,6854.8
							l27.7,20.1l-1.1,16.5l-27.6-19.5L-23809,6854.8z M-23317.5,6895.9c-11.4-2.6-15.6-10.9-14-20.3c0.5-3.1,2.4-4.9,4.3-0.7
							c1.6,6.5,5.7,15.6,11.6,17.5C-23313.3,6893.1-23315.3,6896.4-23317.5,6895.9L-23317.5,6895.9z M-23563.5,6871.3
							c12.3,32.8,11.3,68.4,12.7,102c1.9,44.7,9.2,74.9,11.7,80.1c0,0-12.6-0.1-13.2-2c0,0-10.7-59.5-8.3-88.7
							c0.8-32.8-5-61.7-8.6-74.7C-23573.1,6876.5-23573.4,6884-23563.5,6871.3L-23563.5,6871.3z M-23809.7,6879l26.7,18.3
							c-0.5,6.1-0.7,12.1-0.7,18.2l-26.2-19.3L-23809.7,6879z M-23445.5,6885c0,1,3.9,1.9,10,0.5c6.8-1.5,13.6-1.1,18.7,0.5
							c5.5,1.6,6.2-0.1,1.2-2.4c-2.4-1.1-6.3-3.6-12.1-3.6C-23433.5,6879.9-23445.5,6882.8-23445.5,6885z M-23335.8,6886.6
							c0.6,1.2,2.6,4,4.4,6.2c3.4,4.1,4.4,4.2,2.8,5.8c-3.7,3.7-11.3-1.9-12-9C-23341.2,6884.4-23338.5,6881.2-23335.8,6886.6z
							 M-23578.3,6882.9c12.3,18.3,13.3,60.6,12.9,90.7c-0.3,27.1,7.8,76.8,8.6,76.6c-2.6,1.5-6.1,0.9-9.4-0.5
							c-3.2-4.3-4.9-16.2-8-48.5c-0.8-8.3-2.2-34.8-2.2-56c0-18.8-9.6-59.6-9.6-59.6S-23581.9,6882.9-23578.3,6882.9
							L-23578.3,6882.9z M-23592.5,6887.1c11,26,12.3,51.5,12.2,82.6c-0.1,29.3,5.7,63.8,7.8,79c-3.9,0.3-8,0.6-9.6-1.2
							c-1-1.4-1.8-3.7-2.2-6.6c-4.7-25.5-5.4-53.1-6.4-76.4c-1.5-36.2-1.9-45.1-6.7-63.3c-2.7-10.3-3.7-10.1-1.5-12
							C-23597.1,6887.8-23593.9,6887.1-23592.5,6887.1L-23592.5,6887.1z M-23463,6895.7c0.1,12,1.7,7.1,6,5.3
							c3.2-0.2,5.8,1.6,11.6,3.9c7.5,2.9,6.8,3.8,12.1,1.3c3.3-1.5,5.9-2,7.5-0.7c6.1,5.2,14.1,2.5,18.7-1.5
							c3.5-1.8,7.4-0.7,10.3-0.3c4.3,0.5,3.2-2.3,3.9-7.7c0.6-4.8-1.3-5.3-6.3-3.7c-5.1,1.6-10.2,1.7-14.6,0.2
							c-11.2-3.7-19.5-1.6-25.1-0.8c-13.3,1.8-13.9,0.5-16.9-1.5c-2.2-1.5-5.8-4.1-7.1-4.1
							C-23464.2,6886.2-23463.9,6890.5-23463,6895.7L-23463,6895.7z M-23345.6,6892.7c1.3-0.6,1.8,1.1,3.5,3.4
							c2.8,3.9,3.7,5.7,1.2,6c-6.5,0.8-8.1,0.1-7.8-3.9C-23348.4,6894.9-23347.7,6893.7-23345.6,6892.7L-23345.6,6892.7z
							 M-23606.2,6893c9.3,9.8,10.6,63.7,11.5,75.3c2.1,62.9,7.9,72.1,4.8,76.7c-3.6-0.1-4.9,1.2-7.2-2c-7.7-23.2-6.7-46.8-7.5-70.9
							c-1.2-31.8-4-49.1-8.2-65c-2.8-10.5-2.7-10.7,2.7-13.5C-23609.2,6893.1-23607,6892.9-23606.2,6893L-23606.2,6893z
							 M-23619.2,6900.3c3.2,7.7,9.2,42.5,9.5,72.5c0.2,23.8,5,70.4,6,70.7c-3.5,0.2-7.6-0.5-9.3-3.2c-9.4-46.1-5.2-90.4-16.3-136.8
							C-23628.4,6901.3-23624.6,6897.7-23619.2,6900.3L-23619.2,6900.3z M-23809.8,6902l27.7,20.7l0.2,17.2l-28.2-20.9
							L-23809.8,6902z M-23392.3,6908.4c-16,5.8-20.2,10.8-17.8,15.3c2,3.8,8.4,2.6,25.4-4.1c12.7-5,16.6-2.6,19,5.4
							c-0.4,11.7-11.8,12.9-18.2,11.1c-2.8-0.2-2.4,0.1,0.5,3.8c12.9,10.5,29.3-9.2,21.6-22.1
							C-23367.8,6906.1-23378.5,6902.6-23392.3,6908.4z M-23491.9,6911.2c-13.3,10-9,28.6,1.8,31.6c3,1.6,7.5,1,9.3-0.2
							c1.7-1,1.7-2.8-1.7-3.4c-10.1-1.9-15.7-9.4-10.6-16.8c4.9-7.2,13.6-5.6,30.4,2c14.5,6.6,20.9,4.8,22.8-2.7
							c0.8-3.3,0-6.5-7-6.9C-23466.4,6913.6-23479,6901.5-23491.9,6911.2z M-23317.4,6943.1c-0.8-5.3-9.5-0.1-15.5,9.3
							c-5.8,9.2-6.4,10.5-7.4,0.8c-1.4-14.4,13.7-25.3,23-25.5c11.2-1.1,18.5,5.4,18.6,12.6
							C-23298.4,6954.5-23315.3,6954.3-23317.4,6943.1L-23317.4,6943.1z M-23810.8,6924.4l29.3,21c0,0,0.8,11,0,16.8l-29.5-19.7
							L-23810.8,6924.4z M-23453.9,6938.6c-13.1,8.5-5.8,24.7,3.2,26.7c9.5,2.1,10.3-4.5,0.9-6.7c-5-2.1-6.2-6.9-4.2-10.6
							c4.7-7.3,12.9-2.3,17.8,0.1c10.7,5.4,16.2,7.4,19.7,3.9c6.2-6.2,1-17.5-7.1-13.7c-2.2,1-3.8,2-8.4,0.8
							C-23438.9,6937.3-23447.3,6935.6-23453.9,6938.6L-23453.9,6938.6z M-23811.1,6948.7l28.8,20.6l-1.3,17.7l-27.1-20.7
							L-23811.1,6948.7z M-23811,6973.1l27.1,20.2c-0.6,7.5-0.4,10.5-0.2,15.2l-27.5-18.5L-23811,6973.1z M-23324.5,6986.9
							c22,2.6,14.2,27.8-1.1,20.7c-4-3.2-5.3-3-10.1,8.1c-6.1,14.1-7.5,12.9-6.4-3.5C-23341.1,6996-23333.5,6986.8-23324.5,6986.9z
							 M-23498.4,6987.2c0.5,0,0.9,0.1,1.2,0.3c1.5,1.7-3.2,8.2-7,12c-2.8,1.8-9.5-3.3-7.8-5.7
							C-23510.1,6991.5-23502,6987.4-23498.4,6987.2L-23498.4,6987.2z M-23469.2,7000.8l-4,0.5c-5.7-13.4-18.1-10.6-22.2,1.6
							l-5.4-0.7C-23495,6987.2-23475.2,6978.3-23469.2,7000.8L-23469.2,7000.8z M-23358.2,7006.1l-6.7,0.3
							c-5.7-14.5-14.1-16.8-21.6-2.8l-5.1-1.6C-23382.3,6984-23367.4,6982.9-23358.2,7006.1L-23358.2,7006.1z M-23391.2,6989
							c3.4-0.1,2.9,1.4-0.7,6.2c-3.2,4.2-3.9,4.8-7,2.4C-23403.9,6993.8-23395.4,6989.2-23391.2,6989z M-23359.6,6990.1
							c0.7,0.1,1.4,0.1,2.3,0.4c6.8,1.8,9.9,5.2,6.5,9.3c-2.2,2.6-4.2,3.5-5.6,1.8C-23360.9,6993.8-23363.4,6989.8-23359.6,6990.1
							L-23359.6,6990.1z M-23463.6,6992.5c0.7,2.9-1.6,4.8-4.1,2.4c-1-1-1.9-2.7-1.7-3.9
							C-23467.8,6989.6-23464.1,6990.9-23463.6,6992.5L-23463.6,6992.5z M-23811.7,6995.1l27.9,20.9c0.8,7.2,0.9,12.6,0.7,17.5
							l-28.7-19.9L-23811.7,6995.1z M-23399.5,7009.8c16.1,11.5,35.2,11.7,47.3,2.2c2.7-2.1,5.1-2.2,5.1-0.1
							c-1.9,7.8-22.9,17.4-39,11.4c-8.9-3.3-16.1-6.6-21.8-15C-23411.2,7002.8-23404.1,7006.4-23399.5,7009.8z M-23406.5,7015.1
							c23.4,21,42.4,15.7,57,5.7c2.1-0.5,2.1,1.4,2.5,5c0.5,4.6-3.3,6.7-13.7,9.6c-20.1,5.6-43.3-1.5-47.3-14.9
							C-23408.4,7017.7-23409.3,7014.3-23406.5,7015.1L-23406.5,7015.1z M-23812.3,7019l28.3,20.3l-1.2,15l-27.6-19.5L-23812.3,7019
							z M-23812.3,7042.1l26.7,18.9l-0.3,12.4l-26-19.3L-23812.3,7042.1z M-23615.8,7052c115,28.5,197.1,17.8,277.7,5.3l68.3,141.1
							l-429-8.3C-23669.8,7145.3-23645.4,7096.1-23615.8,7052z"/>
						
							<path id="path3442-2-7-0_1_" d="
							M-23580.1,5844.6c11.9,21.5,21.2,43.6,31.9,65.6l1.8,1.2l2.6,5.1l0.2,2.5l6.4,10.7l-0.1,2.3l26.9,52.6
							c23.3-8.1,213.2-19.7,282.9,7.1l10.6-17.1l2.4,0l18.7-31.3l-0.2-2.7l6.2-6.8l0.9-3.1l20.5-30.7l0.2-5l25.7-41L-23580.1,5844.6
							z M-23150.9,5859.4c0,0-13.5,24.7-20.4,34.6c-5.3-4.4-21.1-1.8-20.5,14.8c-25.4-10.2-32.2,20.2-12.5,27.4
							c-10.3,8.7-19.8-1.6-27.4-8.5c-7.6,1.7-23.3,6.9-31.8-9.5c0,0,3.7,2.1,7.3,4.3c20.8,6.8,23.1-21.4,7.6-26.3
							c-1.9-0.6-5.6-0.8-5.6-0.8c5.7-21.6-27.7-29.9-28.9-3.8c0,0-4-0.7-7-0.2c-17.9,2.9-14.3,29.2,3.9,28.3
							c2.5-0.1,4.7,0.4,4.7,0.4c-0.4,4.2-22.6,11.8-38.1-3c-7.6,5.6-19.7,12.5-34.9-2.1c10.2-0.2,20.1-2.9,20.2-14.5
							c0.1-7.5-6.6-14.4-16.3-15c-0.4-8.4-6.5-16.6-14.6-17.4c-10,0.4-15.2,8.3-15.4,16.8c-8.5,0.7-16.5,8-14.9,16.6
							c2.2,11.7,11.2,13.3,21.5,11.3c-12.9,19.8-33,8.9-39.1,2.4c-7.6,6.8-20.8,16-36.5,2.7c8.6-1.3,18.2-6.1,16.8-18
							c-1.1-9.4-11.5-12.4-16.1-12c0.1-6.2-4.4-16.5-15.4-15.7c-12.1,0.9-11.7,16.2-11.5,16.3c-9.9-1-17.4,10.5-14.7,18.1
							c3.3,9.2,10.4,12.2,23.8,10c-15.8,14.2-25.6,8.4-34,5.1c-7.7,7.7-17.7,10-27.8,2.9c22.9,1.6,20.1-39.1-7.4-24.9
							c-18.9-23.2-18.7-13-35.4-46.9L-23150.9,5859.4z M-23365.6,5895c1.1,0,2.3,0.2,3.4,0.8c3.6,1.9,4.2,5.1,1.9,9.8
							c-0.8,1.6-2,3.5-1.8,5.3c24.3,47.1,80.5,27.5,86.2,5.9c0.4-1.4-0.2-2.9-0.9-4.4c-2.1-3.6-1.7-6.5,1.1-8.9
							c6-5.1,14.4,1.2,10.8,8.2c-0.9,1.8-1.9,3.8-1.3,6.3c13.6,32.8,42.1,35.8,66.2,23.4c-11.4,19.5-54.4,30.7-71.3-17.2
							c-29.4,38.1-74.8,36.4-94.5-7.7c-19.5,44.3-75.4,44.2-95,6.7c-19.4,42.1-62.2,31.5-73.8,4.7c39.3,29.7,66.2,0.1,71.2-12.7
							c0,0-0.9-1.5-2.1-2.8c-5-5.1-4.7-11,0.6-13.2c6.8-2.9,13.1,3.8,9.4,10.1c-1,1.8-1.9,2.1-1.3,3.7c11.8,29.2,72.8,38.9,86-1.5
							c0.5-2.3,0.3-4.5-0.7-6.2C-23374.2,5900.5-23370.4,5895.1-23365.6,5895z M-23544.5,5907.7c9.6,0.7,6.8,9,4.8,9.6
							L-23544.5,5907.7z M-23186.4,5920.3c0.1,0.2-6.2,10.6-6.2,10.6C-23195.6,5925.8-23194.7,5919.5-23186.4,5920.3z
							 M-23220.1,5973.1c0,0-6.4,13.5-8.5,14.6c-113.7-31.6-273.6-9.5-277.6-6.7l-6.8-13.4
							C-23412.3,5949.7-23312.5,5956-23220.1,5973.1z M-23417.3,6171.7c-11.9,42.3-38.7,46.1-71.1,50.6c-40.1,5.6-65.8-9.5-77.5-32
							c0,0-57.6,20.4-78.7,32.5c42.9,20.8,99.3,65.9,130.8,116.6c11.3,15.5,10.8,12,10.1,45.4c-1.5,72.4-1.9,99.4-1.9,99.4
							c17.8,3,18.6,15.4,17.3,29.2c14.5-6,28.1,2,27.8,15.5c-0.6,24.9-25,17.6-30,14.8c7.5,22.1-2,31-11.6,31.9
							c-11.8,1.1-25.2-4.8-20.7-29.9c-12.9,4.7-29-4.7-30.9-19.8l-0.1-25.6c32.9-59-5.9-108.3-42.9-125c0,0,11-21.6,24.8-27.5
							c1.4-0.4-8-14.8-24.3-12c-7.5,0-5.8,0-12.6-9.3c-13.6-18.4-20.1-19.8-34.1-0.7c-6.2,8.4-7.6,8.6-14.7,8.6
							c-7.8,0-19.9,5.3-22.5,10.3c-0.6,1.1,2.4,2.4,6.4,7.2c5.7,6.9,14.5,16.5,12.9,26c-31,11.9-83.2,65.8-31,137.2l-38.8-0.3
							l3.3-250.4l-27.3,14.5l-2.8,196.2l-7.6-2.7c1.9-62.5,2.2-125.1,1.5-187.7l-72.2,50.4l-2.9,294.2l7.5,1.8
							c4.8,40.2,84.7,13.8,89.3,17.4l-2.4,163.4l-3.6,8l62.4,35.8l58.5-28.8c0,0,7.8-1.2,10.8-2.7c24.3-12.2,42.1-9,54.8,9.9
							c7.8,11.6,9.2,13.3,9.2,13.3c5.6-32.9,35.1-44.5,63.4-35.3c20.8,6.8,48.9,28.2,57.1,53.8c0,0,1.5,3.9,3,5.6l1.2,0.5
							c-0.1-0.7-1.3-3.9-1.8-5.4c-27.9-67.9-110.3-80-124.2-25.2l-11.4-16.6l62.3-36.4l82.9,57c0,0-4.4,19.4-5,27.8l1.4,0.7
							c0.8-10.2,4.1-21.7,9.1-30.2c2.1-3.5,4.4-6.4,7.1-8.5c5.1-2.8,9.7-2.4,14.9-7.1l-12.1-9.4l0.3-29.4l24,35.1
							c7.8-1.6,38.2-10,55.9,0.3c2,0.7,28.4-6.3,44,30.7l79.4-31.1c0,0,5.1-2.7,5.1-3.5c-77.9-30.6-155.1-134.9-147.5-136.4
							c0,0,0-10.5,1.1-36.4c1.2-28.8,1.5-58.2,2.6-87.1c-26.6-9.1-19.5-30.5-19.5-30.5c-16.1,3.2-18.6,0-22.6-2.9l-2.2-27.3
							c9.8-8,15.6-8.6,27.5-5.8c0,0-5.5-12-0.1-21.6c4.6-7.6,16.5-12.2,25.8-6.6c12,8.5,7.8,25.8,6,28.2
							c12.8-5.4,28.1,1.2,31.6,13.8c2.7-36.9,6.7-78.2,14.8-110.3c14.9-57.9,38.5-118.4,67.5-165.7c4.8-7.9,10.8-15.8,15.7-23.2
							c4.5-6.6,6.7-10.9,6.7-10.9s-6.1,3.2-12.4,4.8c-9.2,2.3-16.1,4.5-17.2,5.5c-6.8,5.5-15.6,9.5-22.9,12.4
							c-25.4,9.3-42.1-5.7-52.1-28.3c-6.4,28.3-32.9,51.8-71,36.1c-21.4-12-28.1-19.5-47.8-49.9
							C-23413,6175.3-23417.3,6171.7-23417.3,6171.7L-23417.3,6171.7z M-23416.6,6176.3c13.8,28.7,34.8,49.2,55.5,57.7
							c37,13,62.1-10.4,69.5-32.2l6.9,12.3l-57.3,38.9l-84.1-55.9C-23424.4,6195.9-23416.4,6177-23416.6,6176.3L-23416.6,6176.3z
							 M-23160.2,6183.6l-25.6,14.4c0,0-17.4,26.8-23.2,36.9c-30.6,51.5-53.9,107.7-66.6,163.8c-5.1,20.5-10.8,58-12.8,76.1
							c-3.2,28.8-3.3,40.6-3.1,67.1l1.9,2.2c0,0-3.2,5.4-5.5,9.9c-6.3,12.3-7.9,19.3-7.8,33.8c0.2,33.3,19.7,65.5,48,79
							c1.6,0.8,3.7,1.8,3.7,1.8s-5.2,13.1-14.2,22.3c-6,6.1-7.3,6.4-5.3,9.5c2.8,4.3,12.1,8.2,23.8,8.3c4.1,0,4.1,0,11.6,8.5
							c14.6,16.5,19.1,16.3,33-1.8c4.1-5.4,6.5-6.7,12.4-6.7c8.7,0,24.6-6.7,24.6-10c-10.6-4.9-22.4-29.6-20.5-29.8
							c59-29.7,72.7-93.4,31-141.4l40.7,0.2l-3.8,255.4c8.1-5.1,26.3-16.1,26.3-16.1l3.5-198.7c2.8,0.6,5.6,2.7,11,3.7l-2.3,189.2
							c0,0,53.1-35.8,78.3-54.5l4.5-289.5l-5.9-0.1l-5,289.4l-70.1,49l3.3-179.8c0,0,5.5-0.7,7.5-0.9c20.3-2.4,30.2-28,17.1-45.1
							c-4.6-6.1-1.3-5.6,8.9-7.3c18-1.2,28.2-14.6,23.2-24.4c-2.2-4.2,0.8-3.7,2.7-7.6c1.3-3.1,1.2-6.9,0.7-10
							c-0.6-4,1.1-5.8,2.1-8.3c1.7-4,0.2-8.5-2.3-12.3c-2.7-4-1.9-8.3-1.8-10.9c0-5.9-2.1-6.8-8.2-12.6c-4.6-4.4-0.8-5.3,6.2-8.7
							c11-5.4,12.2-25.2-2.1-34c-7.7-4.7-21.8-4.6-52.4-0.4c-11.6,1.6-25.3,2.5-25.3,2.5s2.2-113.2,2.6-171.6L-23160.2,6183.6z
							 M-23160.3,6187.6c0,0,61.3,37.6,60.8,38.6c-21.4,28.1-101.5,140.2-104.9,277.7c-56.8-8.3-81.1,35.8-83.9,35.5
							c-4-168.5,66.8-287.5,102.8-337.9L-23160.3,6187.6z M-23199.9,6208.9l-0.3,4.1l-12.7,18.1l0.1-18.4L-23199.9,6208.9z
							 M-23219,6214.9l-0.2,29.6l-25.6,18.7l-0.8-30.9L-23219,6214.9z M-23452.7,6216.9l12.8,9.2l-1.1,29.4l-18.8-35.9
							L-23452.7,6216.9z M-23098.5,6234.1l-0.3,21.2c-51.1,69-78.8,148.5-88.9,249.7l-12.1-0.6
							C-23194.5,6403.7-23158.7,6312.4-23098.5,6234.1z M-23434.9,6229.3l30.2,20.7l-2,33.5l-27.4-18.4l-2.5-6.9L-23434.9,6229.3z
							 M-23249.5,6234.6l-0.8,31.1l-24,17.1l-0.5-30.9L-23249.5,6234.6z M-23536.5,6236.8c3.5,0.1,6.3,2.7,6.8,7.6
							c2.2,20.8,18,15.1,21.7,21.4c1.4,2.2-2,3.9-12.8,2.8c-19.7-1.9-33.8-18.2-23.5-28.5
							C-23541.6,6237.8-23538.9,6236.7-23536.5,6236.8z M-23400.2,6253l25.8,17.2l-0.8,34.4l-25.3-16.2L-23400.2,6253z
							 M-23280.8,6255.5l1.4,30.5l-29,18.5l-0.4-30.2L-23280.8,6255.5z M-23226.3,6256.8l-17.2,34.7l-97.4,67.1l-78.6-53.2
							l-14.1-34.1l91.6,62.5L-23226.3,6256.8z M-23485.3,6265.3c25.5,0.2,44.5,27.7,50.7,51.5c4.5,15.8,5.2,21.4,5.2,46.3
							c0,25.4,0.7,29.8,5.4,33.4c2.9,2.3,3.7,1.7,4.2-2.8c1-9.9,12.8-3.6,12.8,6.9c0,11.7-12.9,15.1-22.2,6c-5-4.9-5-4.8-6.8,4.5
							c-1.2,6.3-9.3,45.4,9.2,55.6c3.5,0.4,4.4-2.4,1.9-5.7c-5.1-6.7,5.5-14.1,14-9.7c10.2,5.3,8.8,21.9-2.3,27.6
							c-12.8,6.5-28.9-1.5-36.2-18c-5.3-12.1-5-28.7,1.2-53.2c2.8-11.3,4.1-18.5,4.9-27.2c0.3-2.9,0.7-6,0.9-6.9
							c0.7-2.6-0.6-2.8-5.2-0.6c-12.5,6-25.8,1.3-28.9-10.2c-3.7-13.7,11.8-27.4,20.9-18.6c3.5,3.3,3,6.6-1.3,8.6
							c-7.4,3.5-5.1,13.1,2.7,11.3c25.9-7.2,3.9-80-25.1-85.6c-19.1-3.7-34.6,17.8-21,29.8c5.3,4.7,10.9,2.3,9.9-4.1
							c-1.5-9.1,10.5-7.8,14.7,1.5c6.9,15.2-12,27.1-29.2,18.4C-23535.8,6305-23513.6,6265.3-23485.3,6265.3z M-23369.8,6273.5
							l25.4,17.8l-0.5,33.6l-25.2-15.7L-23369.8,6273.5z M-23313.3,6277.5l-0.5,30.8l-25.2,17.5l0.7-32.8L-23313.3,6277.5z
							 M-23246.8,6299.1l-13.4,35.1l-81.2,53.1l-65.2-42.8l-10.7-33l76.8,52L-23246.8,6299.1z M-23766.7,6290.9l-3.7,179
							c-26,0.6-41.4,25.9-22.5,50.6c0,0-3.4,0.4-7.4,0.8c-17.6,2-29.6,11.1-27.5,22.4c0.6,3.5-0.2,6.9-1.2,8.7
							c-1.7,4.6-1.3,8.2,0.7,12.2c1.6,3.2,1.3,4.4,0.3,6.7c-2.1,5-1.7,8.8,0.6,12.7c2.8,2.9,2,5.2,1.5,9.7c-0.6,6.4,0.5,9,4.5,11.6
							c5.1,3.3,7,8.6,1.1,8.1c-2.9-0.3-13.5,9.5-13.5,9.5l5-287.3L-23766.7,6290.9z M-23626.4,6316.8c4.6,0.1,9.3,6,16,16
							c4,7.1,4.1,6.2,13.6,6c9.7,0.9,15.5,3.6,18,6.6c0.9,1.1-1.6,1.4-7.9,7.5c-6.5,6.3-7.4,8.9-11.8,16c-1.6,2.6-4.9,2.8-6.4,0.3
							c-1.2-1.9,2.1-8.1,8.3-15.4c8.7-8,6.9-8.9-5.5-7.9c-8.7,0.7-9.6,0.3-12.8-5.1c-9.4-19.8-14.7-19.2-24.5,0.1
							c-2.7,5.4-1.7,5.1-12.8,4c-8.8-0.9-11,1.3-6.1,6c7.6,6.5,10.3,21.5,9.9,21.4l-6,0.4c0,0-1.8-3.4-2.5-5.6
							c-1.5-4.3-5.7-10.9-10.4-16.1c-6.5-7.4-2.8-11.2,12.2-12.6c8.3-0.7,8.5-0.8,12.5-6.4
							C-23635.7,6322.5-23631.1,6316.7-23626.4,6316.8z M-23263.5,6342.1l-9.3,30.4l-69.3,46.5l-54.8-38.2l-6.8-28.9l63,41.8
							L-23263.5,6342.1z M-23499.6,6361.5c0,0,19,38.9,25.6,64c5.8,21.8,13.2,84.8,10.8,88.6c-4.7-6.8-20.8-5.6-21-5.5
							c1.5-7.3-4.1-22.3-17.7-25.5L-23499.6,6361.5z M-23275.1,6380.2l-7.4,29.9l-59,40.9l-47.3-33.8l-5.7-29.2l52.4,36.6
							L-23275.1,6380.2z M-23613.3,6374.9l7.5,2.8l0.3,54.3l58,10.9l1.1,9.3l-67.2-12.3
							C-23613.8,6416.8-23613.3,6374.9-23613.3,6374.9z M-23642.9,6375.9l0.3,63.2c-0.6-0.2-48.7,5.6-67.1,10l1.3-8.6
							c0,0,33.4-6.6,57.6-8.8c0.4-17.7,0.6-36.2,0.9-54.2L-23642.9,6375.9z M-23101.7,6398.7c0,0,7.9,0.9,24.9-1.7
							c43.8-6.7,55.6-3.4,60.9,10.2c5.7,21-17.2,21-21,7.7c-2.4-8.6-11.8-7-43.3-0.2c-26.9,5.8-43.8,0.4-43.1-14.8
							C-23122.7,6384.3-23104.9,6383.2-23101.7,6398.7z M-23460.4,6379.9c5.4,0,9.8,4.4,9.7,9.9c0,5.4-4.4,9.8-9.9,9.7
							c-5.4,0-9.8-4.4-9.7-9.8S-23465.8,6379.8-23460.4,6379.9z M-23602.4,6378.7l6.9,2.2c0,0,0.2,41.2,0.4,41.3
							c14.8,3.6,45.8,10.1,45.8,10.1l1.5,8.2c-13-3.3-54.4-11-54.4-11C-23603.2,6411.5-23602.4,6378.7-23602.4,6378.7z
							 M-23652.7,6378.4c0,0-0.7,32.9-1.6,50.5c0.2-0.1-35.4,4.9-53.5,8.3l1.5-6.6c14.3-2.9,29.9-5.8,45.7-8.8
							c0-12.9,0.6-41.3,0.6-41.3L-23652.7,6378.4z M-23627.5,6386c4.3,0,7.9,3.6,7.8,7.9c0,4.3-3.6,7.8-7.9,7.8
							c-4.3,0-7.8-3.5-7.8-7.9C-23635.4,6389.5-23631.9,6386-23627.5,6386z M-23036.9,6418.7c4.7,7.3,8.7,7.1,13.5,6.5
							c-1.2,0.3-6.9,3.5-6.6,4.6c0.2,0.6-2.6,9.6,1.3,10c14.5,1.7,6.8,16.6,8.5,19c3.8,4.5,6.6,7.4,3.8,13c-2.5,4.9-5.9,4.7-3.3,9
							c5.6,8.8-2.4,10.4-1.8,16.4c0.4,3.6,1.6,8.5,0.2,11.2c-4.1,8.3-18.3,12.8-33.8,13.1c-2.2,0.1-0.5-3.5-1.5-5.9
							c-3.8-2.5-1.6-6.6-0.3-9.2c1.4-3.5,1.4-3.5-1-5.4c-6.6-4.3-6.2-6.2-5.6-9.1c1.6-8.8,0.3-9.7-2.3-11.1
							c-3.4-1.7-2.8-5.5-1.2-10.2c1.1-3.3,0.4-4.1-1.2-7.2c-0.9-1.8-1.2-2.7-1.2-3.9c0.6-4.5-3.5-4.6-9.3-0.3
							c-5,8.3-6.9,19.2-10.1,26c-2.5,5.3-2.9,10.8-0.4,23.1c5,18.9,0.9,21.9-20.1,17.5c-15.8-4.2-20.1-21.3-15.3-41.9
							c0.8-3.3,0.7-6.6,0.4-9.2c-1.4-14.3,2.5-27.9,12.7-37.1c16.9-15.3,25.2-17.5,59.5-14.6c13.4,1.2,14.4,2.1,14.4,2.1
							S-23037.3,6418.8-23036.9,6418.7L-23036.9,6418.7z M-23284.5,6417.9l-4.6,29l-32.7,22.1c-14.9-12.3-26.8-8.6-37.7,4.1
							c-8.4-4.5-25.1-16.5-25.1-16.5l-3.6-33.1l46.2,33.5L-23284.5,6417.9z M-23627.5,6417.7c4.3,0,7.8,3.6,7.8,7.9
							c0,4.3-3.5,7.8-7.9,7.8c-4.3,0-7.9-3.5-7.8-7.9C-23635.4,6421.2-23631.8,6417.7-23627.5,6417.7z M-23290.6,6454.5l-2.4,28
							l-11.6,8.4l-11.5-1.4l-2.4-17.4L-23290.6,6454.5z M-23628.3,6447.7c4.3,0,7.9,3.6,7.8,7.9c0,4.3-3.6,7.8-7.9,7.8
							c-4.3,0-7.8-3.5-7.8-7.9C-23636.2,6451.2-23632.6,6447.7-23628.3,6447.7z M-23596.7,6449.2c4.3,0,7.8,3.5,7.8,7.9
							c0,4.3-3.5,7.8-7.9,7.8c-4.3,0-7.8-3.6-7.8-7.9C-23604.6,6452.7-23601,6449.2-23596.7,6449.2z M-23659.6,6449.4
							c4.3,0,7.8,3.6,7.8,7.9c0,4.3-3.5,7.8-7.9,7.8c-4.3,0-7.9-3.6-7.8-7.9C-23667.5,6452.9-23663.9,6449.4-23659.6,6449.4z
							 M-23075.4,6462.8c2.2-0.1,5.4,3.2,3.7,8.1c-2.2,5.6-0.8,7.5,2.7,12.1c2.9,3.9,2.4,4.4,1.9,6.9c-1,16.1,9.5,9.4,4.8,21
							c-1,2.5,0.2,6.2,0.6,9.2c-1-2.8-20.1-2.9-21.8-0.1c-2.7-0.5-5.8-18.5-3-20.8c0.4,0,2.3,3.1,3.3,4.9c2.5,4.4,3,4.3,2.3-0.8
							C-23083.7,6483.2-23081.4,6462.8-23075.4,6462.8z M-23565,6454.1c4.3,0,7.8,3.6,7.8,7.9c0,4.3-3.6,7.8-7.9,7.8
							s-7.8-3.5-7.8-7.9C-23572.9,6457.5-23569.4,6454-23565,6454.1z M-23692.3,6452.9c4.3,0,7.8,3.6,7.8,7.9c0,4.3-3.5,7.8-7.9,7.8
							c-4.3,0-7.9-3.5-7.8-7.9C-23700.2,6456.4-23696.7,6452.9-23692.3,6452.9z M-23384.3,6461.5l23.2,15.8
							c0.3,4.8-0.5,11.7,1.1,14.1c-15.3-1.7-23.3,6.8-23.3,6.8L-23384.3,6461.5z M-23552.5,6482.5l-2,8.3
							c-46.1-12.9-98-14.6-147.8-2.5l-3.7-8.8C-23655.6,6465.3-23602.4,6465.8-23552.5,6482.5z M-23772.1,6477.4
							c6.8,0,13.6,2.7,18.4,8.2c8.9,10.4,4.1,29.3-8.9,35.1c-19.5,8.6-39.2-11.1-30.6-30.8
							C-23789.7,6481.7-23780.8,6477.4-23772.1,6477.4z M-23294.1,6489.7l-0.5,8.3l-5.8-5L-23294.1,6489.7z M-23417,6487.6
							c8.5,0.1,15.4,7,15.3,15.5c-0.1,8.5-7,15.4-15.5,15.3c-8.5-0.1-15.4-7-15.3-15.5C-23432.5,6494.4-23425.5,6487.5-23417,6487.6
							z M-23771.7,6480.7c-2.1,0-5.5,0.8-7.1,2.2c-4.2,3.7-0.1,3.9,5.3,5c9.6,2,12.1,10.3,11,19.3c-1,8.1,1.8,8.1,4,5.1
							C-23749.2,6500.2-23756.5,6482-23771.7,6480.7z M-23324.3,6494.1c-0.2,0.1-0.4,0.2-0.4,0.2
							C-23324.7,6494.4-23324.5,6494.3-23324.3,6494.1z M-23629.1,6492.6c11.5,0,12.4,19,1.7,40c-3.2,6.3-4.7,5.5-7.9-4.2
							C-23643.1,6504.5-23641.1,6492.6-23629.1,6492.6z M-23602.5,6493.7c2.2-0.1,4.4,0.8,6.1,2.9c6.1,7.2,1,18.6-15.8,35.8
							c-4.1,4.2-6.2,5.8-7.7,5.8c-4.1,0-4.1-0.7,0.9-15.9c2.2-6.7,4.4-14.1,4.9-16.4C-23612.6,6498.7-23607.4,6493.9-23602.5,6493.7
							z M-23644.6,6509.8c1,5.3,2.8,12.6,4,16.3c1.2,3.7,2,7.2,1.7,7.8c-1.1,2.8-8.4-1.2-13.5-7.4c-10.3-12.5-14.3-23.3-12-29
							c3.3-4.5,11.6-6.4,15.3-2.3C-23645.2,6499.5-23644.8,6508.4-23644.6,6509.8z M-23571.3,6499.1c11,6.8-2.1,21.6-27.4,33.5
							c-10.8,5.1-10,2.7-1.7-7.6c3.2-4,7.5-10.4,9.6-14.4C-23586.1,6501.8-23581.5,6493.1-23571.3,6499.1z M-23682.8,6496.8
							c3.5,0,7.1,3.9,13.6,13.8c2.9,4.4,7.6,10.7,10.5,13.9c2.9,3.3,5.2,6.5,5,7.2c-1.3,6.8-35.7-15.5-38-24.7
							C-23692.3,6501.5-23687.9,6496.7-23682.8,6496.8z M-23184.8,6526.9c6,13,6.4,21.1,1.1,23.9c-7.5,4-16.8-2.5-16.8-11.7
							c0-3.1-3-13.9-5.7-21c-2.3-5.8-2.5-9.4-0.6-9.6C-23199.1,6509.9-23187.9,6520.8-23184.8,6526.9z M-23226.2,6516.3
							c-2.6,7.3-5.4,18.8-5.4,22.2c0,1.3-0.9,4-1.9,6c-6.6,13-21.5,2-15.7-11.6c5.3-12.3,18.3-24.9,23.3-25.2
							C-23222.5,6507.4-23225.9,6515.2-23226.2,6516.3z M-23215.9,6509.4c2.5-0.2,4.5,5.3,7.6,14.7c4.1,12.6,3.8,22.4-1.1,26.4
							c-10.3,8.7-20.7-4.5-16.3-20.6C-23222.1,6516.9-23218.8,6509.6-23215.9,6509.4z M-23556.4,6504.7
							c8.8,186.2-89.5,327.3-96.3,331l-32.8,17.1l-56.2-32.2c60.6-79.6,97.8-171.5,102.6-279.1
							C-23584.7,6547.9-23555.7,6504.9-23556.4,6504.7z M-23243.9,6511.7c4-1,1.2,2.4-2.9,8c-4.3,6-10.1,22.4-14.5,24.9
							c-9.8,4.5-20.6-4.7-14.6-12.3C-23270.4,6525.4-23254.2,6514.3-23243.9,6511.7z M-23186.1,6514.2c1.5,0,4.4,1.1,8.5,3.2
							c20,10.3,29.8,23.6,21,29.6c-6.2,4.3-12.6,0.7-18.4-10.9c-2-4-5.6-9.9-8.1-13.1C-23187.7,6517-23188.7,6514.1-23186.1,6514.2z
							 M-23072.4,6523.1c13,0.1,23.5,10.7,23.4,23.7c-0.1,13-10.7,23.5-23.7,23.4s-23.5-10.7-23.4-23.7
							C-23096.1,6533.5-23085.4,6523.1-23072.4,6523.1z M-23079.7,6529.1c-15.5,6.5-11.3,30.6,1.8,34.4c5.5,1.7,12.4-0.5,9.6-3.2
							c-17.3-5.8-17.2-18.7-9.9-27.9C-23077.1,6530.8-23078.6,6528.6-23079.7,6529.1z M-23718.1,6549c-0.9,13.6,1.7,29.4-5.1,44
							c-10.3,22.5-42.1,32.2-58.9,29.8c-3.5-1.5-7.6-3-11-1.6c-2.1,0.8-4.7,0.7-6.9-0.4c-2.1-1-4.2,0.2-6.3-0.6
							c-2.4-1.7-6.3-5.5-5.8-8.3c0.8-3.9,0.6-6.8-4-8.2c-6.3-1.9-7.6-5.4-5.5-15.5c0.5-2.2,1-3.2-0.4-4.1c-4.6-3.2-6.3-9.1-3.1-15.2
							c2.1-3.5,3.7-6,0.1-8.8c-1.4-3.3-1.1-4.5,2.1-8.6c3.4-3.9,3.9-4.3,1.9-7.7c-4.6-7.6,0.9-13.1,7.3-16.1
							c8.6-3.3,16.1-5,25.1-5.8c3.3,0.3,3.1,3.2,5.1,6.1c2.9,4.7-1.4,11.3,0.9,13.7c3.5,1.7,5,4.9,4.6,7.7
							c-0.3,6.4,0.1,8.6,1.8,11.3c1.9,3,2.5,8.5,0.6,12.1c-1.7,3.3-1.5,3,0.6,5c2,2,2.9,11.6,2.1,11.4l8.8-0.6
							c-0.9,1,3.7-18,13.9-32.5c-0.3-11.5-4.5-22.2-3.8-37.4C-23732.2,6511.5-23716.9,6530.2-23718.1,6549L-23718.1,6549z
							 M-23381.6,6530c3.1,2.5,18.5,7.2,19.1,6.7c-0.6,7.4,3.6,21.9,19.6,27.1c-0.2,20.7-2.4,116.3-2.4,116.3
							C-23367,6641.9-23380,6592.9-23381.6,6530L-23381.6,6530z M-23758.2,6525.6c0,0,0.8,2.8,1.5,8.1c1.2,10.9-0.4,12.4-3.1,4.9
							c-3.2-8.8-3.5-2-0.1,18c0.8,4.8,0.8,6-0.5,9.2c-0.8,2-2.2,6.7-3.3,10.4c-3.3,10.9-5.1,14-8.1,5.2c-1.5-4.5-2.8-5.2-1.6-8.6
							c1.5-4.3,1.2-7.6-1.5-11.9c-0.5-0.7-1.4-2.3-1.5-6.8c1.1-10.1-3.4-10.3-4.2-12.9c0.2-3.9-1.4-13.6,1.3-13.2
							c2.2,0.3,10.3,0.6,14.2-0.7C-23763.5,6526.7-23758.2,6525.6-23758.2,6525.6L-23758.2,6525.6z M-23422.7,6533.8
							c8.4,0.1,15.1,6.9,15,15.2c-0.1,8.4-6.9,15.1-15.2,15s-15.1-6.9-15.1-15.2C-23437.9,6540.5-23431.1,6533.8-23422.7,6533.8z
							 M-23656.6,6538.2l11.4,2.4c2.5,0.9-2.6,159-96.8,271.3l-0.3-26.5C-23697.2,6723.1-23664.1,6646.2-23656.6,6538.2z
							 M-23462.2,6545.6l1.3,37.8c-6.3-5.6-22.5-16.2-22.4-16.5l0.4-14C-23482.9,6553-23468.8,6554.3-23462.2,6545.6
							L-23462.2,6545.6z M-23550.6,6544.3c2.7,1.2,5.1,3.9,7.4,5.9l-7.6,4.9L-23550.6,6544.3z M-23287.8,6551.6
							c49.2,15.7,98,16.3,146.4,6.5l3.1,9.3c-52.6,13.1-104.6,11.2-155.9-6.3L-23287.8,6551.6z M-23527.8,6553.7l2.3,16.4
							l-28.3,17.5l1.9-24.7l14.8-9.1L-23527.8,6553.7z M-23280.7,6572.4c4.5,0,8.2,3.7,8.1,8.2c0,4.5-3.7,8.2-8.2,8.1
							c-4.5,0-8.1-3.7-8.1-8.2C-23288.9,6576-23285.2,6572.4-23280.7,6572.4z M-23153.5,6575.7c4.5,0,8.2,3.7,8.1,8.2
							c0,4.5-3.7,8.2-8.2,8.1c-4.5,0-8.1-3.7-8.1-8.2C-23161.7,6579.3-23158,6575.7-23153.5,6575.7z M-23392.3,6596.2
							c3.4,13,2,42.1-3.1,61.8c-1.5,5.9-2.8,27-2.8,27c-0.9,1.1,28.5-23.4,37.2,9.7c3,11.4-10.3,21.8-18.9,18.5
							c-1.7-0.6-1.1-6.2,0.6-9.5c5-9.7-8.6-15.1-16.6-6.6c-18.5,19.7-0.9,71,27.3,76.6c23.5,4.6,42.9-18.5,27.4-32.8
							c-6.8-6.3-17.9,1.9-13.1,9.8c5.2,8.4-4.8,11.5-12.1,3.7c-12.8-13.7,2.3-33.6,21.9-28.6c31.4,7.8,23.9,57-9.2,59.1
							c-25.3,1.6-42.1-9.8-52.4-29.5c-9.7-19-10.1-34-4.8-66.8c3.1-19.5,1.2-36-4.2-36c-3,0-5.3,1.4-5.9,4.9c-1.1,7.1-2,8.5-6.4,5.8
							c-5.6-3.4-8.6-14.1,0.9-21.1c9.7-7.2,21.8,4.6,21.3,6.6c0.2-0.4,1.2-2.2,2.7-10.6c4.7-27.2-3.9-56.2-15.5-51.8
							c-2.5,1-2.3,2.1,1,4c7.5,4.4,0.6,15.3-9,14c-13.5-1.9-16.2-20.8-4.1-29C-23411.1,6565.6-23396.1,6581.8-23392.3,6596.2
							L-23392.3,6596.2z M-23484.4,6571.6c0,0,23.8,15.2,25,19c0.8,2.4,1.3,23.5,1.3,23.5l-41.2-27l-60.6,35.8
							c1.1-8.1,5.9-28.9,5.9-28.9l32.3-19.5C-23521.7,6575.6-23500.2,6590.5-23484.4,6571.6z M-23185.5,6579.1
							c4.5,0,8.2,3.7,8.1,8.2c0,4.5-3.7,8.2-8.2,8.1c-4.5,0-8.2-3.7-8.1-8.2C-23193.7,6582.8-23190,6579.1-23185.5,6579.1z
							 M-23249.2,6577.9c4.5,0,8.2,3.7,8.2,8.2s-3.8,8.2-8.3,8.2c-4.5,0-8.1-3.7-8.1-8.2
							C-23257.4,6581.6-23253.8,6577.9-23249.2,6577.9z M-23217.2,6580.5c4.5,0,8.2,3.7,8.2,8.2c0,4.5-3.7,8.2-8.2,8.1
							c-4.5,0-8.2-3.7-8.1-8.2C-23225.4,6584.1-23221.8,6580.4-23217.2,6580.5z M-23297.7,6590.4c21.6,5,43.2,10,64,12.7l-0.5,63.8
							l-6.1-0.5l0.3-57c-20-1.9-38.9-6.6-56.6-11.5L-23297.7,6590.4z M-23136.5,6595.8l-1.3,7.5c0,0-37.6,5.7-57.3,7.8
							c-0.6,12.8-1.4,55.8-1.4,55.8l-7.5,1.2l1.3-65C-23180.4,6601.2-23158.2,6599.1-23136.5,6595.8L-23136.5,6595.8z
							 M-23499.5,6591.9l43.6,30.1l4.6,31.1l-50.8-35.3c0,0-47.3,30.5-65,41.7l5.9-29.1L-23499.5,6591.9z M-23295.8,6601.9
							c17.7,4.1,35.4,8.4,53.1,10.3l-0.3,51.4l-8.1-2.3l0.2-41.7c-13.9-1.5-28.1-4.5-42.3-7.8L-23295.8,6601.9z M-23138.6,6606.7
							l-1.6,6.9c0,0-28.5,3.7-43.3,6c-1.3,0.3-1.8,45.2-1.8,45.2l-7,0.9l0.3-52.4L-23138.6,6606.7z M-23218.4,6610.8
							c4.5,0,8.1,3.7,8.1,8.2c0,4.5-3.7,8.2-8.2,8.1c-4.5,0-8.2-3.7-8.1-8.2C-23226.6,6614.4-23222.9,6610.7-23218.4,6610.8z
							 M-23500.9,6623.5l51.5,36.3c0,0,5.7,18.5,6.8,28.7l-59.3-40l-76.2,48.3l9.3-30.6L-23500.9,6623.5z M-23817.3,6618
							c3.1,0.1,6.1,2.2,7.7,7c2.1,6.7,6.3,8.8,17.4,8.8c21.9-0.7,45-10.5,65.4-2.4c9.9,3.9,13.2,18.8,4.7,22.4c-9.2,4-13,1.3-16-5.9
							c-2.9-3.1-6.5-2.7-26.1,0.3c-8.7,1.2-18.8,2.3-27.4,2.8c-21.9,1.3-33.8-5.8-36.2-18.9
							C-23829.4,6623.8-23822.5,6617.8-23817.3,6618z M-23219.5,6642.3c4.5,0,8.2,3.7,8.1,8.2c0,4.5-3.7,8.2-8.2,8.2
							c-4.5,0-8.2-3.7-8.1-8.2C-23227.7,6645.9-23224,6642.2-23219.5,6642.3z M-23379.6,6648.9c5.9,0,10.6,4.8,10.6,10.7
							c0,5.9-4.8,10.6-10.7,10.6c-5.9,0-10.6-4.8-10.6-10.7S-23385.5,6648.9-23379.6,6648.9z M-23501.4,6653.9
							c0,0,42.4,29.6,62,43.3l10.3,31.8l-72.2-49.1l-90.7,56.4l11.4-32.3L-23501.4,6653.9z M-23191.5,6670.2
							c3.7,10.6,10.6,18.7,17.9,27c0,0-4.3,7.8-19.2,7c-8.1-0.4-8.6,0.8-11.5,6.3c-4.7,6.9-8.5,11.4-11.5,13.6
							c-5.3,3.9-14.9-2.3-22.7-14.6c-2.8-4.5-4-5.6-12.9-5.6c-13.6,0-18.4-3.9-11.2-9.8c6.3-7.4,10.9-15.5,16.5-23.2l6.1,0.8
							c0.2,0.9-5.1,15.9-12.2,21.9c-3.7,4,1.3,5.5,10.1,3.9c5.6-1.6,7-0.9,10.9,7.7c8.2,16.3,12.7,15.6,23.1-0.5
							c3.7-7.2,3.6-8,13.2-5.7c10.4,1.3,13.6,0,9.4-3.7c-8.5-7.5-12.9-25-12.9-25L-23191.5,6670.2z M-23501.7,6685.4
							c0,0,76.6,52.5,76.5,51.4l14.8,37l-89.9-62.5l-112.9,70.2l17.4-36L-23501.7,6685.4z M-23499.4,6718.9l26.7,18.4l-0.7,32.1
							l-27.3-19.2L-23499.4,6718.9z M-23506.4,6719.6l-0.2,31.7l-24.6,14l-0.7-29.7L-23506.4,6719.6z M-23537.6,6739.4l-0.2,1.2
							l0.6,0.3l0.2,0l0.3,28.5l-28.3,18.8l0.8-32.2L-23537.6,6739.4z M-23466.1,6741.2l25.1,17.5l0.3,34l-27.3-18.7L-23466.1,6741.2
							z M-23435,6762.6l25.2,18.3l0.2,33.9l-25.7-18.1L-23435,6762.6z M-23570.2,6759.9l-0.8,31.3l-25.8,17.2l-0.5-32
							L-23570.2,6759.9z M-23302.3,6805.9c-5.2,5.2-7,4.5-11.1-4.3c-4.3-9.1-10.9-13.4-20.7-13.5c-12.3,0-4.1-7.9,9-8.6
							C-23302.6,6779-23291.5,6794.3-23302.3,6805.9z M-23603.1,6781.3l0,31.4l-25.6,12.6l-0.5-14.9l13.5-22.5L-23603.1,6781.3z
							 M-23636.6,6822.6l0.8,5.7l-4.7,1.7L-23636.6,6822.6z M-23336.9,7055.4c-106.9,20.6-208.8,10.4-281.7-4.6l-34.6,56.5l-2.3-0.1
							l-8.9,14.6l0.9,1.7c0,0-28.9,52.8-41,69.4c136.8,1.5,437,7.1,437,7.1l-17.5-37.2l1-1l-17.3-38.8l-5.7-6.8c0,0-3.4-7-6-14.5
							c-2.3-6.9-12.5-25.9-12.5-25.9l-1.5,0.1L-23336.9,7055.4z M-23614.9,7057.7c1.4,1.1,135.8,29.4,276.1,6.1l7.4,13
							c-123,25.6-299.5-4.9-292.4-7.4L-23614.9,7057.7z M-23613.1,7082.9c12.3-0.2,24.7,6.7,32.9,17.9c2.6,3.6,6.8,14,6.8,14
							s6.1-9.7,12-14.4c8.9-7.2,20.4-13.2,36.8-12.2c15.1,0.9,31.6,9.4,46.2,33.4c4.1-13.6,54.8-59,94.5-0.2
							c5-15.3,27.6-45.6,62.6-23.4c2.3,5.2,4.7,11,4.7,11c-20.6-15.1-55.4-6-64,16.8c-0.8,2.8,0.1,4.2,1.1,7
							c10.5,15.7-17.6,14.7-9,2.4c1.6-2.8,1.8-5.1-0.6-8.9c-6.4-10-26-22.7-40.5-22.7c-16.8,0-35.7,10.8-42.1,20.8
							c-2.4,3.7-3,7.4-1,10.7c1.4,3.3,0.8,6.1-1.7,8c-5.9,4.6-13-1-10.1-8c1.9-3.1,1.7-6.9-1.9-12.2c-7.3-10.7-24.6-22.2-39.9-22.2
							c-21.9,0.1-44.3,15.4-43.2,28.4c0.5,5.7-1.1,7.8-5.7,7.1c-5.6-0.9-6.2-6.3-2.1-10.5c0.6-1.4,1.7-4.7-0.1-7.3
							c-22.5-31.7-57.2-23.3-65.3-16.5C-23634.9,7088.7-23624,7083.1-23613.1,7082.9L-23613.1,7082.9z M-23634.1,7104.2
							c8.7,0.3,17.9,7,20.7,12.2c2.2-2.2,22-11.1,31.2,2.4c-24.9-2.4-25.8,24.1-7.4,27c-8.9,25.4,28.7,27.7,26.8,3.7
							c28.1,4.7,25.4-31.1-1.2-27.8c14.1-9.8,23.5-6.4,40,5.6c5.8-7.2,28.8-13.6,34.2-0.7c-26.2-2.2-22.4,28.3-2.8,29
							c-6.3,20.9,32.1,29.5,26.8-2.1c24.4,2.2,21.6-30.9-1.9-28.7c1.9-6,25.7-8.1,36,3.6c9.8-8.6,20.6-14.4,39.7-1.4
							c-26.2-4.9-27.2,29.2-2.8,27.6c-2.7,22.5,31.8,23.6,26.5-2.6c26.4-6.5,12.6-35-6.9-27.6c8.8-10,23.3-4.9,29-2.7
							c18.3-20.1,33.5-2.7,33.5-2.7c-31.1-3.9-25.2,40.6,5.5,25.1c-0.2,9.1,3.5,17.1,15.9,18.7l14.1,30.8l-417.1-5.9l23.8-40
							c2.3,0.8,15.6,2.3,18.8-13.3c27.2,9.3,29.7-22.6,9.4-28.1C-23639.8,7104.7-23637,7104.1-23634.1,7104.2L-23634.1,7104.2z
							 M-23650.7,7115.4c2.6,4.4,0.3,7.2-4.4,7.3C-23655.1,7122.6-23651.9,7118.3-23650.7,7115.4z M-23307.6,7128.1l2.6,5.7
							C-23308,7132.6-23308.3,7131.3-23307.6,7128.1z"/>
					</g>
				</g>
			</g>
		</g>
		<g>
		</g>
	</g>
	<path d="M131.2,217.1
		c7.8-0.2,11.3-9,5.5-15.8c-0.8-1-0.9-1.6,0.6-0.6c3.9,2.6,11.4,0.9,11.8-7.1c0.5-9.8-13.3-12.7-15.8-2.2c-0.1,1.1-1,1.1-0.8-0.5
		c0.2-4.2,1.6-8.2,3.4-12.1c-3.1,0-6.5,0-9.3,0c1.8,3.9,3.1,7.8,3.4,12.1c0.2,1.6-0.7,1.6-0.8,0.5c-2.6-10.4-16.3-7.6-15.8,2.2
		c0.4,8,7.9,9.7,11.8,7.1c1.5-1,1.5-0.4,0.6,0.6C119.9,208.1,123.4,216.9,131.2,217.1C131.2,217.1,131.2,217.1,131.2,217.1
		L131.2,217.1z"/>
	<path d="M48.7,20.6
		c7.8,0.2,11.3,9,5.5,15.8c-0.8,1-0.9,1.6,0.6,0.6c3.9-2.6,11.4-0.9,11.8,7.1c0.5,9.8-13.3,12.7-15.8,2.2c-0.1-1.1-1-1.1-0.8,0.5
		c0.2,4.2,1.6,8.2,3.4,12.1c-3.1,0-6.5,0-9.3,0c1.8-3.9,3.1-7.8,3.4-12.1c0.2-1.6-0.7-1.6-0.8-0.5c-2.6,10.4-16.3,7.6-15.8-2.2
		c0.4-8,7.9-9.7,11.8-7.1c1.5,1,1.5,0.4,0.6-0.6C37.4,29.6,40.9,20.8,48.7,20.6C48.7,20.6,48.7,20.6,48.7,20.6L48.7,20.6z"/>
</g>
</svg>
