<!-- Generator: Adobe Illustrator 19.2.1, SVG Export Plug-In  -->
<svg version="1.1"
	 xmlns="http://www.w3.org/2000/svg" xmlns:xlink="http://www.w3.org/1999/xlink" xmlns:a="http://ns.adobe.com/AdobeSVGViewerExtensions/3.0/"
	 x="0px" y="0px" width="167.4px" height="226.6px" viewBox="0 0 167.4 226.6" style="enable-background:new 0 0 167.4 226.6;"
	 xml:space="preserve">
<defs>
</defs>
<g id="g5431_1_" transform="translate(3.9868881,-5.5524942)">
	<path id="path147-0-8-1-6-7-2-5-9-2_1_" d="M79.7,20.9
		c-7.8,0.2-11.3,9-5.5,15.8c0.8,1,0.9,1.6-0.6,0.6c-3.9-2.6-11.4-0.9-11.8,7.1c-0.5,9.8,13.3,12.7,15.8,2.2c0.1-1.1,1-1.1,0.8,0.5
		c-0.2,4.2-1.6,8.2-3.4,12.1c3.1,0,6.5,0,9.3,0c-1.8-3.9-3.1-7.8-3.4-12.1c-0.2-1.6,0.7-1.6,0.8-0.5c2.6,10.4,16.3,7.6,15.8-2.2
		c-0.4-8-7.9-9.7-11.8-7.1c-1.5,1-1.5,0.4-0.6-0.6C91.1,29.9,87.5,21.1,79.7,20.9C79.7,20.9,79.7,20.9,79.7,20.9L79.7,20.9z"/>
	<path id="path147-0-8-1-6-1-4-3-4-3_1_" d="M79.7,217.4
		c-7.8-0.2-11.3-9-5.5-15.8c0.8-1,0.9-1.6-0.6-0.6c-3.9,2.6-11.4,0.9-11.8-7.1c-0.5-9.8,13.3-12.7,15.8-2.2c0.1,1.1,1,1.1,0.8-0.5
		c-0.2-4.2-1.6-8.2-3.4-12.1c3.1,0,6.5,0,9.3,0c-1.8,3.9-3.1,7.8-3.4,12.1c-0.2,1.6,0.7,1.6,0.8,0.5c2.6-10.4,16.3-7.6,15.8,2.2
		c-0.4,8-7.9,9.7-11.8,7.1c-1.5-1-1.5-0.4-0.6,0.6C91.1,208.5,87.5,217.3,79.7,217.4C79.7,217.4,79.7,217.4,79.7,217.4L79.7,217.4z"
		/>
	<path id="path147-0-8-1-6-1-1-0-4-8-8_1_" d="M79.7,100
		c-7.8,0.2-11.3,9-5.5,15.8c0.8,1,0.9,1.6-0.6,0.6c-3.9-2.6-11.4-0.9-11.8,7.1c-0.5,9.8,13.3,12.7,15.8,2.2c0.1-1.1,1-1.1,0.8,0.5
		c-0.2,4.2-1.6,8.2-3.4,12.1c3.1,0,6.5,0,9.3,0c-1.8-3.9-3.1-7.8-3.4-12.1c-0.2-1.6,0.7-1.6,0.8-0.5c2.6,10.4,16.3,7.6,15.8-2.2
		c-0.4-8-7.9-9.7-11.8-7.1c-1.5,1-1.5,0.4-0.6-0.6C91.1,109,87.5,100.2,79.7,100C79.7,100,79.7,100,79.7,100L79.7,100z"/>
	<path id="path147-6-9-8-7-0-5-5-1-4_1_" d="M154.9,203.3
		c3.1-0.1,4.5-3.7,2.2-6.6c-0.3-0.4-0.4-0.7,0.2-0.3c1.6,1.1,4.6,0.4,4.7-2.9c0.2-4.1-5.3-5.3-6.3-0.9c-0.1,0.5-0.4,0.4-0.3-0.2
		c0.1-1.8,0.6-3.4,1.4-5c-1.2,0-2.5,0-3.7,0c0.7,1.6,1.3,3.3,1.4,5c0.1,0.7-0.3,0.7-0.3,0.2c-1-4.4-6.5-3.2-6.3,0.9
		c0.2,3.3,3.1,4,4.7,2.9c0.6-0.4,0.6-0.2,0.2,0.3C150.4,199.6,151.8,203.2,154.9,203.3C154.9,203.3,154.9,203.3,154.9,203.3
		L154.9,203.3z"/>
	<path id="path147-6-9-8-7-4-5-8-2-3_1_" d="M4.5,34.4
		C1.4,34.4,0,38.1,2.3,41c0.3,0.4,0.4,0.7-0.2,0.3c-1.6-1.1-4.6-0.4-4.7,2.9c-0.2,4.1,5.3,5.3,6.3,0.9c0.1-0.5,0.4-0.4,0.3,0.2
		c-0.1,1.8-0.6,3.4-1.4,5c1.2,0,2.5,0,3.7,0c-0.7-1.6-1.3-3.3-1.4-5c-0.1-0.7,0.3-0.7,0.3-0.2c1,4.4,6.5,3.2,6.3-0.9
		c-0.2-3.3-3.1-4-4.7-2.9c-0.6,0.4-0.6,0.2-0.2-0.3C9.1,38.1,7.7,34.4,4.5,34.4C4.5,34.4,4.5,34.4,4.5,34.4L4.5,34.4z"/>
	<path id="path17-9-7-6-4_1_" d="M-4,26.1l2-1.5c1.8,2.9,3.7,4.7,6.7,4.4c4.5-0.3,6.4-5,5.4-8.6
		c-0.9-3.2-4.6-4.8-7.6-3.1c-0.7,0.4-1.4,0.7-1.5,0.7c-0.3,0-1-1.4-0.9-1.8c2-2.9,6.8-8,6.8-8h-7.6v3.4h-2.9V5.6h14.8v2.1
		c0,0-4,4.1-5.3,6.4c3.2,0.1,5.8,2.2,6.7,5.4c0.5,1.7,0.3,5.6-0.4,7.3c-1.2,2.8-4.4,5.1-7.4,5.2C0,32.2-2.7,28.7-4,26.1L-4,26.1
		L-4,26.1z"/>
	<path id="path17-5-0-1-5-7_1_" d="M163.4,211.6l-2,1.5c-1.8-2.9-3.7-4.7-6.7-4.4
		c-4.5,0.3-6.4,5-5.4,8.6c0.9,3.2,4.6,4.8,7.6,3.1c0.7-0.4,1.4-0.7,1.5-0.7c0.3,0,1,1.4,0.9,1.8c-2,2.9-6.8,8-6.8,8h7.6V226h2.9v6.1
		h-14.8v-2.1c0,0,4-4.1,5.3-6.4c-3.2-0.1-5.8-2.2-6.7-5.4c-0.5-1.7-0.3-5.6,0.4-7.3c1.2-2.8,4.4-5.1,7.4-5.2
		C159.5,205.5,162.1,209,163.4,211.6L163.4,211.6L163.4,211.6z"/>
</g>
</svg>
