<!-- Generator: Adobe Illustrator 19.2.1, SVG Export Plug-In  -->
<svg version="1.1"
	 xmlns="http://www.w3.org/2000/svg" xmlns:xlink="http://www.w3.org/1999/xlink" xmlns:a="http://ns.adobe.com/AdobeSVGViewerExtensions/3.0/"
	 x="0px" y="0px" width="166.9px" height="226.6px" viewBox="0 0 166.9 226.6" style="enable-background:new 0 0 166.9 226.6;"
	 xml:space="preserve">
<style type="text/css">
	.st0{fill:#D40000;}
</style>
<defs>
</defs>
<g id="g11305-8-4_1_" transform="matrix(0.99553774,0,0,0.99680134,-53.280526,318.48631)">
	<g id="g9956-4-1_1_" transform="translate(1582.7704,-1064)">
	</g>
	<g id="g9962-7-4_1_" transform="translate(1609.362,-1083.9055)">
	</g>
	<path id="path9970-5-6_1_" class="st0" d="M61.8-274.6
		c0,0-1.8-2.6-4.2-5.6c-1.6-2-2.9-4.2-3-6.1c-0.1-2.1,1.2-4.3,3.5-4.4c2.3-0.1,3.3,1.6,3.7,3.1c0.4-1.4,1.3-3.2,3.7-3.1
		c2.3,0.1,3.6,2.3,3.5,4.4c-0.1,1.9-1.4,4-3,6.1C63.6-277.2,61.8-274.6,61.8-274.6z"/>
	<path id="path9972-9-9_1_" class="st0" d="M212.9-137.1
		c0,0-1.8,2.6-4.2,5.6c-1.6,2-2.9,4.2-3,6.1c-0.1,2.1,1.2,4.3,3.5,4.4c2.3,0.1,3.3-1.6,3.7-3.1c0.4,1.4,1.3,3.2,3.7,3.1
		c2.3-0.1,3.6-2.3,3.5-4.4c-0.1-1.9-1.4-4-3-6.1C214.7-134.6,212.9-137.1,212.9-137.1z"/>
	<path id="path9978-0-4_1_" class="st0" d="M95.9-266
		c0,0-3.7-6.1-8.8-13.3c-3.4-4.8-6.1-10-6.3-14.5c-0.3-5.1,2.4-10.3,7.4-10.5c4.9-0.2,6.9,4,7.7,7.4c0.8-3.5,2.8-7.7,7.7-7.4
		c4.9,0.2,7.6,5.4,7.4,10.5c-0.3,4.5-2.9,9.7-6.3,14.5C99.7-272.1,95.9-266,95.9-266z"/>
	<path id="path9984-9-5_1_" class="st0" d="M178.8-266
		c0,0-3.7-6.1-8.8-13.3c-3.4-4.8-6.1-10-6.3-14.5c-0.3-5.1,2.4-10.3,7.4-10.5c4.9-0.2,6.9,4,7.7,7.4c0.8-3.5,2.8-7.7,7.7-7.4
		c4.9,0.2,7.6,5.4,7.4,10.5c-0.3,4.5-2.9,9.7-6.3,14.5C182.5-272.1,178.8-266,178.8-266z"/>
	<path id="path9986-7-3_1_" class="st0" d="M137.4-186.7
		c0,0-3.7-6.1-8.8-13.3c-3.4-4.8-6.1-10-6.3-14.5c-0.3-5.1,2.4-10.3,7.4-10.5c4.9-0.2,6.9,4,7.7,7.4c0.8-3.5,2.8-7.7,7.7-7.4
		c4.9,0.2,7.6,5.4,7.4,10.5c-0.3,4.5-2.9,9.7-6.3,14.5C141.1-192.8,137.4-186.7,137.4-186.7z"/>
	<path id="path9998-0-9_1_" class="st0" d="M178.8-145.7
		c0,0-3.7,6.1-8.8,13.3c-3.4,4.8-6.1,10-6.3,14.5c-0.3,5.1,2.4,10.3,7.4,10.5c4.9,0.2,6.9-4,7.7-7.4c0.8,3.5,2.8,7.7,7.7,7.4
		c4.9-0.2,7.6-5.4,7.4-10.5c-0.3-4.5-2.9-9.7-6.3-14.5C182.5-139.6,178.8-145.7,178.8-145.7z"/>
	<path id="path10000-8-2_1_" class="st0" d="M95.9-145.7
		c0,0-3.7,6.1-8.8,13.3c-3.4,4.8-6.1,10-6.3,14.5c-0.3,5.1,2.4,10.3,7.4,10.5c4.9,0.2,6.9-4,7.7-7.4c0.8,3.5,2.8,7.7,7.7,7.4
		c4.9-0.2,7.6-5.4,7.4-10.5c-0.3-4.5-2.9-9.7-6.3-14.5C99.7-139.6,95.9-145.7,95.9-145.7z"/>
	<path id="path21-9-5-1-8_1_" class="st0" d="M53.5-299.9l2.6,0c0.5,1.6,1.6,3.2,3.1,3.7
		c4.2,1,6.9-1.4,7.8-4.1c1.1-3.3,0-8-2.9-9.7c-2.4-1.4-5.9-0.2-7.6,2.7l-1.8-1.1l1-11h11.8v2.6h-9.6l-0.2,4.6
		c2.1-1.5,5.2-1.5,7.3-0.4c3.9,1.9,5.7,6.2,5,11.3c-1.1,5.1-3.4,7.9-8.6,8.3C55.6-293.1,53.5-297.1,53.5-299.9L53.5-299.9
		L53.5-299.9z"/>
	<path id="path21-3-0-6-3-8_1_" class="st0" d="M221.2-111.8l-2.6,0c-0.5-1.6-1.6-3.2-3.1-3.7
		c-4.2-1-6.9,1.4-7.8,4.1c-1.1,3.3,0,8,2.9,9.7c2.4,1.4,5.9,0.2,7.6-2.7l1.8,1.1l-1,11h-11.8v-2.6h9.6l0.2-4.6
		c-2.1,1.5-5.2,1.5-7.3,0.4c-3.9-1.9-5.7-6.2-5-11.3c1.1-5.1,3.4-7.9,8.6-8.3C219.2-118.7,221.2-114.6,221.2-111.8L221.2-111.8
		L221.2-111.8z"/>
</g>
</svg>
