<!-- Generator: Adobe Illustrator 19.2.1, SVG Export Plug-In  -->
<svg version="1.1"
	 xmlns="http://www.w3.org/2000/svg" xmlns:xlink="http://www.w3.org/1999/xlink" xmlns:a="http://ns.adobe.com/AdobeSVGViewerExtensions/3.0/"
	 x="0px" y="0px" width="166.3px" height="226.6px" viewBox="0 0 166.3 226.6" style="enable-background:new 0 0 166.3 226.6;"
	 xml:space="preserve">
<style type="text/css">
	.st0{fill:#D40000;}
</style>
<defs>
</defs>
<g id="g11270-7-7_1_" transform="matrix(0.99553774,0,0,0.99680134,-74.622859,318.48631)">
	<g id="g10024-8-8_1_" transform="translate(1868.6166,-1064)">
	</g>
	<g id="g10030-0-6_1_" transform="translate(1895.2082,-1083.9055)">
	</g>
	<path id="path10038-5-0_1_" class="st0" d="M83-274.6
		c0,0-1.8-2.6-4.2-5.6c-1.6-2-2.9-4.2-3-6.1c-0.1-2.1,1.2-4.3,3.5-4.4c2.3-0.1,3.3,1.6,3.7,3.1c0.4-1.4,1.3-3.2,3.7-3.1
		c2.3,0.1,3.6,2.3,3.5,4.4c-0.1,1.9-1.4,4-3,6.1C84.7-277.2,83-274.6,83-274.6z"/>
	<path id="path10040-7-6_1_" class="st0" d="M234-137.1
		c0,0-1.8,2.6-4.2,5.6c-1.6,2-2.9,4.2-3,6.1c-0.1,2.1,1.2,4.3,3.5,4.4c2.3,0.1,3.3-1.6,3.7-3.1c0.4,1.4,1.3,3.2,3.7,3.1
		c2.3-0.1,3.6-2.3,3.5-4.4c-0.1-1.9-1.4-4-3-6.1C235.8-134.6,234-137.1,234-137.1z"/>
	<path id="path10046-1-1_1_" class="st0" d="M117.1-266
		c0,0-3.7-6.1-8.8-13.3c-3.4-4.8-6.1-10-6.3-14.5c-0.3-5.1,2.4-10.3,7.4-10.5c4.9-0.2,6.9,4,7.7,7.4c0.8-3.5,2.8-7.7,7.7-7.4
		c4.9,0.2,7.6,5.4,7.4,10.5c-0.3,4.5-2.9,9.7-6.3,14.5C120.8-272.1,117.1-266,117.1-266z"/>
	<path id="path10048-2-0_1_" class="st0" d="M199.9-186.7
		c0,0-3.7-6.1-8.8-13.3c-3.4-4.8-6.1-10-6.3-14.5c-0.3-5.1,2.4-10.3,7.4-10.5c4.9-0.2,6.9,4,7.7,7.4c0.8-3.5,2.8-7.7,7.7-7.4
		c4.9,0.2,7.6,5.4,7.4,10.5c-0.3,4.5-2.9,9.7-6.3,14.5C203.6-192.8,199.9-186.7,199.9-186.7z"/>
	<path id="path10052-3-1_1_" class="st0" d="M199.9-266
		c0,0-3.7-6.1-8.8-13.3c-3.4-4.8-6.1-10-6.3-14.5c-0.3-5.1,2.4-10.3,7.4-10.5c4.9-0.2,6.9,4,7.7,7.4c0.8-3.5,2.8-7.7,7.7-7.4
		c4.9,0.2,7.6,5.4,7.4,10.5c-0.3,4.5-2.9,9.7-6.3,14.5C203.6-272.1,199.9-266,199.9-266z"/>
	<path id="path10056-4-2_1_" class="st0" d="M117.1-186.7
		c0,0-3.7-6.1-8.8-13.3c-3.4-4.8-6.1-10-6.3-14.5c-0.3-5.1,2.4-10.3,7.4-10.5c4.9-0.2,6.9,4,7.7,7.4c0.8-3.5,2.8-7.7,7.7-7.4
		c4.9,0.2,7.6,5.4,7.4,10.5c-0.3,4.5-2.9,9.7-6.3,14.5C120.8-192.8,117.1-186.7,117.1-186.7z"/>
	<path id="path10066-9-2_1_" class="st0" d="M199.9-145.7
		c0,0-3.7,6.1-8.8,13.3c-3.4,4.8-6.1,10-6.3,14.5c-0.3,5.1,2.4,10.3,7.4,10.5c4.9,0.2,6.9-4,7.7-7.4c0.8,3.5,2.8,7.7,7.7,7.4
		c4.9-0.2,7.6-5.4,7.4-10.5c-0.3-4.5-2.9-9.7-6.3-14.5C203.6-139.6,199.9-145.7,199.9-145.7z"/>
	<path id="path10068-1-2_1_" class="st0" d="M117.1-145.7
		c0,0-3.7,6.1-8.8,13.3c-3.4,4.8-6.1,10-6.3,14.5c-0.3,5.1,2.4,10.3,7.4,10.5c4.9,0.2,6.9-4,7.7-7.4c0.8,3.5,2.8,7.7,7.7,7.4
		c4.9-0.2,7.6-5.4,7.4-10.5c-0.3-4.5-2.9-9.7-6.3-14.5C120.8-139.6,117.1-145.7,117.1-145.7z"/>
	<path id="path23-5-2-7-3_1_" class="st0" d="M75.2-301.2c-0.3-2.2-0.3-8-0.1-9.7
		c0.8-5.2,2.8-7.6,6.1-8.4c3.2-0.8,7.8,0.1,8.8,4.4l-2.7,0.1c-1.5-2.9-5.2-2.2-7.2-0.9c-1.7,1-2.4,5.3-2.1,5.5c0,0,3.1-2.3,5.6-2.2
		c5.3,0.6,7.5,5.1,7.3,9.5c-0.2,5.2-1.8,9.4-7.4,9.7C78.2-293.3,75.7-296.2,75.2-301.2L75.2-301.2L75.2-301.2z M88.4-302.6
		c0-3.6-1.6-6.3-4.7-6.6c-3.1-0.3-6.2,2.7-6,6.4c0.2,3.7,1.7,6.8,5.4,6.8C87.1-296,88.4-300,88.4-302.6L88.4-302.6L88.4-302.6z"/>
	<path id="path23-6-5-1-7-1_1_" class="st0" d="M241.7-110.5c0.3,2.2,0.3,8,0.1,9.7
		c-0.8,5.2-2.8,7.6-6.1,8.4c-3.2,0.8-7.8-0.1-8.8-4.4l2.7-0.1c1.5,2.9,5.2,2.2,7.2,0.9c1.7-1,2.4-5.3,2.1-5.5c0,0-3.1,2.3-5.6,2.2
		c-5.3-0.6-7.5-5.1-7.3-9.5c0.2-5.2,1.8-9.4,7.4-9.7C238.8-118.4,241.2-115.5,241.7-110.5L241.7-110.5L241.7-110.5z M228.6-109.1
		c0,3.6,1.6,6.3,4.7,6.6c3.1,0.3,6.2-2.7,6-6.4c-0.2-3.7-1.7-6.8-5.4-6.8C229.9-115.7,228.6-111.7,228.6-109.1L228.6-109.1
		L228.6-109.1z"/>
</g>
</svg>
