<!-- Generator: Adobe Illustrator 19.2.1, SVG Export Plug-In  -->
<svg version="1.1"
	 xmlns="http://www.w3.org/2000/svg" xmlns:xlink="http://www.w3.org/1999/xlink" xmlns:a="http://ns.adobe.com/AdobeSVGViewerExtensions/3.0/"
	 x="0px" y="0px" width="167.4px" height="226.6px" viewBox="0 0 167.4 226.6" style="enable-background:new 0 0 167.4 226.6;"
	 xml:space="preserve">
<style type="text/css">
	.st0{fill:#D40000;}
</style>
<defs>
</defs>
<g id="g11195-3-7_1_" transform="matrix(0.99553774,0,0,0.99680134,-117.30742,318.48631)">
	<g id="g10160-2-4_1_" transform="translate(2440.3089,-1064)">
	</g>
	<g id="g10166-2-7_1_" transform="translate(2466.9005,-1083.9055)">
	</g>
	<path id="path10174-9-0_1_" class="st0" d="M126.4-274.6
		c0,0-1.8-2.6-4.2-5.6c-1.6-2-2.9-4.2-3-6.1c-0.1-2.1,1.2-4.3,3.5-4.4c2.3-0.1,3.3,1.6,3.7,3.1c0.4-1.4,1.3-3.2,3.7-3.1
		c2.3,0.1,3.6,2.3,3.5,4.4c-0.1,1.9-1.4,4-3,6.1C128.2-277.2,126.4-274.6,126.4-274.6z"/>
	<path id="path10176-9-9_1_" class="st0" d="M277.4-137.1c0,0-1.8,2.6-4.2,5.6
		c-1.6,2-2.9,4.2-3,6.1c-0.1,2.1,1.2,4.3,3.5,4.4c2.3,0.1,3.3-1.6,3.7-3.1c0.4,1.4,1.3,3.2,3.7,3.1c2.3-0.1,3.6-2.3,3.5-4.4
		c-0.1-1.9-1.4-4-3-6.1C279.2-134.6,277.4-137.1,277.4-137.1z"/>
	<path id="path10178-8-4_1_" class="st0" d="M201.9-226.3
		c0,0-3.7-6.1-8.8-13.3c-3.4-4.8-6.1-10-6.3-14.5c-0.3-5.1,2.4-10.3,7.4-10.5c4.9-0.2,6.9,4,7.7,7.4c0.8-3.5,2.8-7.7,7.7-7.4
		c4.9,0.2,7.6,5.4,7.4,10.5c-0.3,4.5-2.9,9.7-6.3,14.5C205.7-232.5,201.9-226.3,201.9-226.3z"/>
	<path id="path10182-1-9_1_" class="st0" d="M160.5-266
		c0,0-3.7-6.1-8.8-13.3c-3.4-4.8-6.1-10-6.3-14.5c-0.3-5.1,2.4-10.3,7.4-10.5c4.9-0.2,6.9,4,7.7,7.4c0.8-3.5,2.8-7.7,7.7-7.4
		c4.9,0.2,7.6,5.4,7.4,10.5c-0.3,4.5-2.9,9.7-6.3,14.5C164.3-272.1,160.5-266,160.5-266z"/>
	<path id="path10184-9-1_1_" class="st0" d="M243.3-186.7
		c0,0-3.7-6.1-8.8-13.3c-3.4-4.8-6.1-10-6.3-14.5c-0.3-5.1,2.4-10.3,7.4-10.5c4.9-0.2,6.9,4,7.7,7.4c0.8-3.5,2.8-7.7,7.7-7.4
		c4.9,0.2,7.6,5.4,7.4,10.5c-0.3,4.5-2.9,9.7-6.3,14.5C247.1-192.8,243.3-186.7,243.3-186.7z"/>
	<path id="path10188-5-4_1_" class="st0" d="M243.3-266
		c0,0-3.7-6.1-8.8-13.3c-3.4-4.8-6.1-10-6.3-14.5c-0.3-5.1,2.4-10.3,7.4-10.5c4.9-0.2,6.9,4,7.7,7.4c0.8-3.5,2.8-7.7,7.7-7.4
		c4.9,0.2,7.6,5.4,7.4,10.5c-0.3,4.5-2.9,9.7-6.3,14.5C247.1-272.1,243.3-266,243.3-266z"/>
	<path id="path10192-3-6_1_" class="st0" d="M160.5-186.7
		c0,0-3.7-6.1-8.8-13.3c-3.4-4.8-6.1-10-6.3-14.5c-0.3-5.1,2.4-10.3,7.4-10.5c4.9-0.2,6.9,4,7.7,7.4c0.8-3.5,2.8-7.7,7.7-7.4
		c4.9,0.2,7.6,5.4,7.4,10.5c-0.3,4.5-2.9,9.7-6.3,14.5C164.3-192.8,160.5-186.7,160.5-186.7z"/>
	<path id="path10196-7-3_1_" class="st0" d="M201.9-185.4
		c0,0-3.7,6.1-8.8,13.3c-3.4,4.8-6.1,10-6.3,14.5c-0.3,5.1,2.4,10.3,7.4,10.5c4.9,0.2,6.9-4,7.7-7.4c0.8,3.5,2.8,7.7,7.7,7.4
		c4.9-0.2,7.6-5.4,7.4-10.5c-0.3-4.5-2.9-9.7-6.3-14.5C205.7-179.2,201.9-185.4,201.9-185.4L201.9-185.4z"/>
	<path id="path10202-2-8_1_" class="st0" d="M243.3-145.7
		c0,0-3.7,6.1-8.8,13.3c-3.4,4.8-6.1,10-6.3,14.5c-0.3,5.1,2.4,10.3,7.4,10.5c4.9,0.2,6.9-4,7.7-7.4c0.8,3.5,2.8,7.7,7.7,7.4
		c4.9-0.2,7.6-5.4,7.4-10.5c-0.3-4.5-2.9-9.7-6.3-14.5C247.1-139.6,243.3-145.7,243.3-145.7z"/>
	<path id="path10204-9-4_1_" class="st0" d="M160.5-145.7
		c0,0-3.7,6.1-8.8,13.3c-3.4,4.8-6.1,10-6.3,14.5c-0.3,5.1,2.4,10.3,7.4,10.5c4.9,0.2,6.9-4,7.7-7.4c0.8,3.5,2.8,7.7,7.7,7.4
		c4.9-0.2,7.6-5.4,7.4-10.5c-0.3-4.5-2.9-9.7-6.3-14.5C164.3-139.6,160.5-145.7,160.5-145.7z"/>
	<path id="path27-00-0-7-4_1_" class="st0" d="M117.8-300.8c0.1-3.5,1.4-4.9,3.9-6.7
		c-2-1.5-2.9-3.6-2.7-5.4c0.4-4.4,3.8-6.6,7.5-6.5c3.7,0.1,6.9,3,7.2,6.3c0.2,2.8-0.6,4.1-2.6,5.6c2.3,2,3.8,3.3,3.8,6.8
		c-0.1,3.5-3,7.6-8.2,7.8C121.6-293,117.7-297.3,117.8-300.8L117.8-300.8L117.8-300.8z M132.3-300.8c0.2-3.2-2.6-5.4-5.8-5.4
		c-3.1,0-5.9,2.6-5.9,5.5c0,3.1,3.6,4.8,6,4.8C129.4-295.9,132.1-298.1,132.3-300.8L132.3-300.8L132.3-300.8z M131.3-312.3
		c0.1-2.7-2.4-4.6-5-4.6c-2.3,0.1-4.7,1.8-4.7,4.1c0,2.8,2.8,4.2,5.1,4.3C128.8-308.5,131.2-310.3,131.3-312.3L131.3-312.3
		L131.3-312.3z"/>
	<path id="path27-0-1-0-8-9_1_" class="st0" d="M268.9-110.9c0.1,3.5,1.4,4.9,3.9,6.7
		c-2,1.5-2.9,3.6-2.7,5.4c0.4,4.4,3.8,6.6,7.5,6.5c3.7-0.1,6.9-3,7.2-6.3c0.2-2.8-0.6-4.1-2.6-5.6c2.3-2,3.8-3.3,3.8-6.8
		c-0.1-3.5-3-7.6-8.2-7.8C272.6-118.7,268.7-114.4,268.9-110.9L268.9-110.9L268.9-110.9z M283.3-110.9c0.2,3.2-2.6,5.4-5.8,5.4
		c-3.1,0-5.9-2.6-5.9-5.5c0-3.1,3.6-4.8,6-4.8C280.4-115.8,283.1-113.6,283.3-110.9L283.3-110.9z M282.3-99.4c0.1,2.7-2.4,4.6-5,4.6
		c-2.3-0.1-4.7-1.8-4.7-4.1c0-2.8,2.8-4.2,5.1-4.3C279.8-103.3,282.2-101.4,282.3-99.4L282.3-99.4L282.3-99.4z"/>
</g>
</svg>
