<!-- Generator: Adobe Illustrator 19.2.1, SVG Export Plug-In  -->
<svg version="1.1"
	 xmlns="http://www.w3.org/2000/svg" xmlns:xlink="http://www.w3.org/1999/xlink" xmlns:a="http://ns.adobe.com/AdobeSVGViewerExtensions/3.0/"
	 x="0px" y="0px" width="166.8px" height="226.6px" viewBox="0 0 166.8 226.6" style="enable-background:new 0 0 166.8 226.6;"
	 xml:space="preserve">
<defs>
</defs>
<g id="g5444_1_" transform="matrix(0.99999718,0,0,1.000002,2.9940799,-5.5506344)">
	<path id="path147-0-8-1-6-13-2-06-7_1_" d="M121.6,20.9
		c-7.8,0.2-11.3,9-5.5,15.8c0.8,1,0.9,1.6-0.6,0.6c-3.9-2.6-11.4-0.9-11.8,7.1c-0.5,9.8,13.3,12.7,15.8,2.2c0.1-1.1,1-1.1,0.8,0.5
		c-0.2,4.2-1.6,8.2-3.4,12.1c3.1,0,6.5,0,9.3,0c-1.8-3.9-3.1-7.8-3.4-12.1c-0.2-1.6,0.7-1.6,0.8-0.5c2.6,10.4,16.3,7.6,15.8-2.2
		c-0.4-8-7.9-9.7-11.8-7.1c-1.5,1-1.5,0.4-0.6-0.6C132.9,29.9,129.4,21.1,121.6,20.9C121.6,20.9,121.6,20.9,121.6,20.9L121.6,20.9z"
		/>
	
		<path id="path147-0-8-1-6-75-2-83-35-3_1_" d="
		M39.2,20.9c-7.8,0.2-11.3,9-5.5,15.8c0.8,1,0.9,1.6-0.6,0.6c-3.9-2.6-11.4-0.9-11.8,7.1c-0.5,9.8,13.3,12.7,15.8,2.2
		c0.1-1.1,1-1.1,0.8,0.5c-0.2,4.2-1.6,8.2-3.4,12.1c3.1,0,6.5,0,9.3,0c-1.8-3.9-3.1-7.8-3.4-12.1c-0.2-1.6,0.7-1.6,0.8-0.5
		c2.6,10.4,16.3,7.6,15.8-2.2c-0.4-8-7.9-9.7-11.8-7.1c-1.5,1-1.5,0.4-0.6-0.6C50.5,29.9,47,21.1,39.2,20.9
		C39.2,20.9,39.2,20.9,39.2,20.9L39.2,20.9z"/>
	<path id="path147-0-8-1-6-7-5-5-7-77-6_1_" d="
		M121.6,217.4c-7.8-0.2-11.3-9-5.5-15.8c0.8-1,0.9-1.6-0.6-0.6c-3.9,2.6-11.4,0.9-11.8-7.1c-0.5-9.8,13.3-12.7,15.8-2.2
		c0.1,1.1,1,1.1,0.8-0.5c-0.2-4.2-1.6-8.2-3.4-12.1c3.1,0,6.5,0,9.3,0c-1.8,3.9-3.1,7.8-3.4,12.1c-0.2,1.6,0.7,1.6,0.8,0.5
		c2.6-10.4,16.3-7.6,15.8,2.2c-0.4,8-7.9,9.7-11.8,7.1c-1.5-1-1.5-0.4-0.6,0.6C132.9,208.4,129.4,217.3,121.6,217.4
		C121.6,217.4,121.6,217.4,121.6,217.4L121.6,217.4z"/>
	
		<path id="path147-0-8-1-6-75-6-1-2-08-0_1_" d="
		M39.2,217.4c-7.8-0.2-11.3-9-5.5-15.8c0.8-1,0.9-1.6-0.6-0.6c-3.9,2.6-11.4,0.9-11.8-7.1c-0.5-9.8,13.3-12.7,15.8-2.2
		c0.1,1.1,1,1.1,0.8-0.5c-0.2-4.2-1.6-8.2-3.4-12.1c3.1,0,6.5,0,9.3,0c-1.8,3.9-3.1,7.8-3.4,12.1c-0.2,1.6,0.7,1.6,0.8,0.5
		c2.6-10.4,16.3-7.6,15.8,2.2c-0.4,8-7.9,9.7-11.8,7.1c-1.5-1-1.5-0.4-0.6,0.6C50.5,208.4,47,217.3,39.2,217.4
		C39.2,217.4,39.2,217.4,39.2,217.4L39.2,217.4z"/>
	<path id="path147-6-9-8-7-0-5-6-17-9_1_" d="M155.6,203.3
		c3.1-0.1,4.5-3.7,2.2-6.6c-0.3-0.4-0.4-0.7,0.2-0.3c1.6,1.1,4.6,0.4,4.7-2.9c0.2-4.1-5.3-5.3-6.3-0.9c-0.1,0.5-0.4,0.4-0.3-0.2
		c0.1-1.8,0.6-3.4,1.4-5c-1.2,0-2.5,0-3.7,0c0.7,1.6,1.3,3.3,1.4,5c0.1,0.7-0.3,0.7-0.3,0.2c-1-4.4-6.5-3.2-6.3,0.9
		c0.2,3.3,3.1,4,4.7,2.9c0.6-0.4,0.6-0.2,0.2,0.3C151,199.6,152.4,203.2,155.6,203.3C155.6,203.3,155.6,203.3,155.6,203.3
		L155.6,203.3z"/>
	<path id="path147-6-9-8-7-4-5-62-79-3_1_" d="M5.2,34.4
		C2.1,34.4,0.7,38.1,3,41c0.3,0.4,0.4,0.7-0.2,0.3c-1.6-1.1-4.6-0.4-4.7,2.9c-0.2,4.1,5.3,5.3,6.3,0.9c0.1-0.5,0.4-0.4,0.3,0.2
		c-0.1,1.8-0.6,3.4-1.4,5c1.2,0,2.5,0,3.7,0c-0.7-1.6-1.3-3.3-1.4-5C5.6,44.6,6,44.6,6,45.1c1,4.4,6.5,3.2,6.3-0.9
		c-0.2-3.3-3.1-4-4.7-2.9C7,41.6,7.1,41.4,7.4,41C9.7,38.1,8.3,34.4,5.2,34.4C5.2,34.4,5.2,34.4,5.2,34.4L5.2,34.4z"/>
	<path id="path19-0-7-3_1_" d="M5.4,31.9v-2.3h2.1v-3.8H-3V23L8.3,5.5l1.9,0V23h3.2v2.7h-3.2
		l-0.1,3.8h1.8v2.3L5.4,31.9L5.4,31.9z M7.5,11.9L0.3,23h7.2V11.9z"/>
	<path id="path19-4-4-9-1_1_" d="M155.4,205.8v2.3h-2.1v3.8h10.5v2.7l-11.3,17.4l-1.9,0v-17.4
		h-3.2V212h3.2l0.1-3.8h-1.8v-2.3L155.4,205.8L155.4,205.8z M153.3,225.7l7.2-11.1h-7.2V225.7z"/>
</g>
</svg>
