<!-- Generator: Adobe Illustrator 19.2.1, SVG Export Plug-In  -->
<svg version="1.1"
	 xmlns="http://www.w3.org/2000/svg" xmlns:xlink="http://www.w3.org/1999/xlink" xmlns:a="http://ns.adobe.com/AdobeSVGViewerExtensions/3.0/"
	 x="0px" y="0px" width="166.4px" height="226.6px" viewBox="0 0 166.4 226.6" style="enable-background:new 0 0 166.4 226.6;"
	 xml:space="preserve">
<defs>
</defs>
<g id="g8409-3-3_1_" transform="matrix(0.99553774,0,0,0.99680134,138.38974,79.60164)">
	<path id="path153-0-1-2-5-5-5-3-4_1_" d="M-130.9-50.9
		c-3.4,4.4-7.1,6.9-7.2,10.3c0,1.1,0.7,3,2.8,3.4c1.4,0.2,3.2-0.8,3.3-2.8c0-0.4,0.5-0.4,0.5,0.2c-0.1,1.6-0.6,3.4-1.6,4.9
		c1.5,0,3,0,4.5,0c-0.9-1.5-1.5-3.3-1.6-4.9c0-0.5,0.5-0.6,0.5-0.2c0,2,1.9,3,3.3,2.8c2.1-0.4,2.8-2.2,2.8-3.4
		C-123.8-44-127.5-46.6-130.9-50.9z"/>
	<path id="path153-0-1-2-5-6-5-9-1-9_1_" d="M20.1,118.5
		c-3.4-4.4-7.1-6.9-7.2-10.3c0-1.1,0.7-3,2.8-3.4c1.4-0.2,3.2,0.8,3.3,2.8c0,0.4,0.5,0.4,0.5-0.2c-0.1-1.6-0.6-3.4-1.6-4.9
		c1.5,0,3,0,4.5,0c-0.9,1.5-1.5,3.3-1.6,4.9c0,0.5,0.5,0.6,0.5,0.2c0-2,1.9-3,3.3-2.8c2.1,0.4,2.8,2.2,2.8,3.4
		C27.2,111.6,23.5,114.2,20.1,118.5L20.1,118.5z"/>
	<path id="path153-6-3-1-6-92-7-2-9-8_1_" d="M-55.4,14.6
		c-7.4,10.5-15.3,16.6-15.4,24.8c0,2.7,1.4,7.2,5.9,8c2.9,0.6,6.9-1.8,7-6.6c0-1,1-0.9,1,0.4C-57,45-58.2,49.4-60.3,53
		c3.2,0,6.4,0,9.7,0c-2-3.6-3.2-8-3.4-11.8c0-1.3,1-1.3,1-0.4c0.1,4.8,4.1,7.2,7,6.6c4.5-0.9,5.9-5.4,5.9-8
		C-40.1,31.2-48,25.1-55.4,14.6z"/>
	<path id="path41-4-9-2_1_" d="M-139-53.5v-2.3h2.2l4.6-24.1h2.6l5.1,24.1h1.7v2.3h-5.9v-2.3h1.6
		l-0.6-3.7h-6l-0.5,3.7h1.6v2.3H-139L-139-53.5z M-128.3-62l-2.6-12.9l-2.4,12.9H-128.3z"/>
	<path id="path41-4-2-4-0_1_" d="M12,121.1v2.3h2.2l4.6,24.1h2.6l5.1-24.1h1.7v-2.3h-5.9v2.3h1.6
		l-0.6,3.7h-6l-0.5-3.7h1.6v-2.3H12L12,121.1z M22.7,129.6l-2.6,12.9l-2.4-12.9H22.7L22.7,129.6z"/>
</g>
</svg>
