<!-- Generator: Adobe Illustrator 19.2.1, SVG Export Plug-In  -->
<svg version="1.1"
	 xmlns="http://www.w3.org/2000/svg" xmlns:xlink="http://www.w3.org/1999/xlink" xmlns:a="http://ns.adobe.com/AdobeSVGViewerExtensions/3.0/"
	 x="0px" y="0px" width="165.3px" height="226.6px" viewBox="0 0 165.3 226.6" style="enable-background:new 0 0 165.3 226.6;"
	 xml:space="preserve">
<defs>
</defs>
<g id="g8417-9-8_1_" transform="matrix(0.99553774,0,0,0.99680134,77.963108,79.60164)">
	<path id="path6748-4-0_1_" d="M-70.8-50.9
		c-3.4,4.4-7.1,6.9-7.2,10.3c0,1.1,0.7,3,2.8,3.4C-73.9-37-72-38-72-40c0-0.4,0.5-0.4,0.5,0.2c-0.1,1.6-0.6,3.4-1.6,4.9
		c1.5,0,3,0,4.5,0c-0.9-1.5-1.5-3.3-1.6-4.9c0-0.5,0.5-0.6,0.5-0.2c0,2,1.9,3,3.3,2.8c2.1-0.4,2.8-2.2,2.8-3.4
		C-63.7-44-67.3-46.6-70.8-50.9L-70.8-50.9z"/>
	<path id="path6752-9-1_1_" d="M80.2,118.5
		c-3.4-4.4-7.1-6.9-7.2-10.3c0-1.1,0.7-3,2.8-3.4c1.4-0.2,3.2,0.8,3.3,2.8c0,0.4,0.5,0.4,0.5-0.2c-0.1-1.6-0.6-3.4-1.6-4.9
		c1.5,0,3,0,4.5,0c-0.9,1.5-1.5,3.3-1.6,4.9c0,0.5,0.5,0.6,0.5,0.2c0-2,1.9-3,3.3-2.8c2.1,0.4,2.8,2.2,2.8,3.4
		C87.4,111.6,83.7,114.2,80.2,118.5L80.2,118.5z"/>
	<path id="path6760-2-4_1_" d="M4.7-64.8
		C-2.7-54.2-10.6-48.2-10.7-40c0,2.7,1.4,7.2,5.9,8c2.9,0.6,6.9-1.8,7-6.6c0-1,1-0.9,1,0.4C3.1-34.4,1.9-30-0.1-26.4
		c3.2,0,6.4,0,9.7,0c-2-3.6-3.2-8-3.4-11.8c0-1.3,1-1.3,1-0.4c0.1,4.8,4.1,7.2,7,6.6c4.5-0.9,5.9-5.4,5.9-8
		C20-48.2,12.1-54.2,4.7-64.8L4.7-64.8z"/>
	<path id="path6774-6-2_1_" d="M4.7,132.4
		c-7.4-10.5-15.3-16.6-15.4-24.8c0-2.7,1.4-7.2,5.9-8c2.9-0.6,6.9,1.8,7,6.6c0,1,1,0.9,1-0.4C3.1,102,1.9,97.6-0.1,94
		c3.2,0,6.4,0,9.7,0c-2,3.6-3.2,8-3.4,11.8c0,1.3,1,1.3,1,0.4c0.1-4.8,4.1-7.2,7-6.6c4.5,0.9,5.9,5.4,5.9,8
		C20,115.8,12.1,121.8,4.7,132.4L4.7,132.4z"/>
	<path id="path15-3-8-9_1_" d="M-78.3-53.5l0.1-1.6c0.4-5,1.5-6.7,7.6-12c3-2.5,4-3.8,4.1-5.3
		c0.4-3.4-2.7-4.5-4.6-4.5c-2.6,0-5.5,1.5-4.1,5.2l-2.9,0.9c-0.6-3.4,0-6.6,2.7-8c3.6-1.8,8.2-1.1,10.5,1.8c1.6,1.9,1.9,4.6,1.1,6.7
		c-2.5,5.4-10.8,7.7-11.5,14h9.2v-3.5h2.7v6.4L-78.3-53.5L-78.3-53.5z"/>
	<path id="path15-3-5-1-4_1_" d="M87.8,121.1l-0.1,1.6c-0.4,5-1.5,6.7-7.6,12
		c-3,2.5-4,3.8-4.1,5.3c-0.4,3.4,2.7,4.5,4.6,4.5c2.6,0,5.5-1.5,4.1-5.2l2.9-0.9c0.6,3.4,0,6.6-2.7,8c-3.6,1.8-8.2,1.1-10.5-1.8
		c-1.6-1.9-1.9-4.6-1.1-6.7c2.5-5.4,10.8-7.7,11.5-14h-9.2v3.5h-2.7v-6.4L87.8,121.1L87.8,121.1z"/>
</g>
</svg>
