<!-- Generator: Adobe Illustrator 19.2.1, SVG Export Plug-In  -->
<svg version="1.1"
	 xmlns="http://www.w3.org/2000/svg" xmlns:xlink="http://www.w3.org/1999/xlink" xmlns:a="http://ns.adobe.com/AdobeSVGViewerExtensions/3.0/"
	 x="0px" y="0px" width="166.9px" height="226.6px" viewBox="0 0 166.9 226.6" style="enable-background:new 0 0 166.9 226.6;"
	 xml:space="preserve">
<defs>
</defs>
<g id="g8447-5-9_1_" transform="matrix(0.99553774,0,0,0.99680134,-103.31667,79.601599)">
	<g id="g8459-0-4_1_" transform="matrix(-1,0,0,-1,3489.2901,-631.00533)">
		<path id="path6950-9-9_1_" d="M3260.3-763.4
			c-7.4,10.5-15.3,16.6-15.4,24.8c0,2.7,1.4,7.2,5.9,8c2.9,0.6,6.9-1.8,7-6.6c0-1,1-0.9,1,0.4c-0.1,3.8-1.3,8.2-3.4,11.8
			c3.2,0,6.4,0,9.7,0c-2-3.6-3.2-8-3.4-11.8c0-1.3,1-1.3,1-0.4c0.1,4.8,4.1,7.2,7,6.6c4.5-0.9,5.9-5.4,5.9-8
			C3275.5-746.8,3267.6-752.8,3260.3-763.4L3260.3-763.4z"/>
		<path id="path6952-6-0_1_" d="M3226.2-749.5
			c-3.4,4.4-7.1,6.9-7.2,10.3c0,1.1,0.7,3,2.8,3.4c1.4,0.2,3.2-0.8,3.3-2.8c0-0.4,0.5-0.4,0.5,0.2c-0.1,1.6-0.6,3.4-1.6,4.9
			c1.5,0,3,0,4.5,0c-0.9-1.5-1.5-3.3-1.6-4.9c0-0.5,0.5-0.6,0.5-0.2c0,2,1.9,3,3.3,2.8c2.1-0.4,2.8-2.2,2.8-3.4
			C3233.3-742.6,3229.6-745.2,3226.2-749.5L3226.2-749.5z"/>
		<path id="path6956-5-0_1_" d="M3377.2-580.1
			c-3.4-4.4-7.1-6.9-7.2-10.3c0-1.1,0.7-3,2.8-3.4c1.4-0.2,3.2,0.8,3.3,2.8c0,0.4,0.5,0.4,0.5-0.2c-0.1-1.6-0.6-3.4-1.6-4.9
			c1.5,0,3,0,4.5,0c-0.9,1.5-1.5,3.3-1.6,4.9c0,0.5,0.5,0.6,0.5,0.2c0-2,1.9-3,3.3-2.8c2.1,0.4,2.8,2.2,2.8,3.4
			C3384.3-587,3380.6-584.4,3377.2-580.1L3377.2-580.1z"/>
		<path id="path6958-4-1_1_" d="M3343.1-763.4
			c-7.4,10.5-15.3,16.6-15.4,24.8c0,2.7,1.4,7.2,5.9,8c2.9,0.6,6.9-1.8,7-6.6c0-1,1-0.9,1,0.4c-0.1,3.8-1.3,8.2-3.4,11.8
			c3.2,0,6.4,0,9.7,0c-2-3.6-3.2-8-3.4-11.8c0-1.3,1-1.3,1-0.4c0.1,4.8,4.1,7.2,7,6.6c4.5-0.9,5.9-5.4,5.9-8
			C3358.4-746.8,3350.5-752.8,3343.1-763.4L3343.1-763.4z"/>
		<path id="path6970-5-5_1_" d="M3260.3-566.2
			c-7.4-10.5-15.3-16.6-15.4-24.8c0-2.7,1.4-7.2,5.9-8c2.9-0.6,6.9,1.8,7,6.6c0,1,1,0.9,1-0.4c-0.1-3.8-1.3-8.2-3.4-11.8
			c3.2,0,6.4,0,9.7,0c-2,3.6-3.2,8-3.4,11.8c0,1.3,1,1.3,1,0.4c0.1-4.8,4.1-7.2,7-6.6c4.5,0.9,5.9,5.4,5.9,8
			C3275.5-582.8,3267.6-576.8,3260.3-566.2L3260.3-566.2z"/>
		<path id="path6972-5-8_1_" d="M3343.1-566.2
			c-7.4-10.5-15.3-16.6-15.4-24.8c0-2.7,1.4-7.2,5.9-8c2.9-0.6,6.9,1.8,7,6.6c0,1,1,0.9,1-0.4c-0.1-3.8-1.3-8.2-3.4-11.8
			c3.2,0,6.4,0,9.7,0c-2,3.6-3.2,8-3.4,11.8c0,1.3,1,1.3,1,0.4c0.1-4.8,4.1-7.2,7-6.6c4.5,0.9,5.9,5.4,5.9,8
			C3358.4-582.8,3350.5-576.8,3343.1-566.2L3343.1-566.2z"/>
		<path id="path6980-6-3_1_" d="M3301.7-684
			c-7.4,10.5-15.3,16.6-15.4,24.8c0,2.7,1.4,7.2,5.9,8c2.9,0.6,6.9-1.8,7-6.6c0-1,1-0.9,1,0.4c-0.1,3.8-1.3,8.2-3.4,11.8
			c3.2,0,6.4,0,9.7,0c-2-3.6-3.2-8-3.4-11.8c0-1.3,1-1.3,1-0.4c0.1,4.8,4.1,7.2,7,6.6c4.5-0.9,5.9-5.4,5.9-8
			C3317-667.4,3309.1-673.5,3301.7-684L3301.7-684z"/>
		<path id="path21-4-5-5_1_" d="M3217.8-758.9l2.6,0c0.5,1.6,1.6,3.2,3.1,3.7
			c4.2,1,6.9-1.4,7.8-4.1c1.1-3.3,0-8-2.9-9.7c-2.4-1.4-5.9-0.2-7.6,2.7l-1.8-1.1l1-11h11.8v2.6h-9.6l-0.2,4.6
			c2.1-1.5,5.2-1.5,7.3-0.4c3.9,1.9,5.7,6.2,5,11.3c-1.1,5.1-3.4,7.9-8.6,8.3C3219.9-752,3217.8-756.1,3217.8-758.9L3217.8-758.9
			L3217.8-758.9z"/>
		<path id="path21-4-9-2-8_1_" d="M3385.5-570.7l-2.6,0c-0.5-1.6-1.6-3.2-3.1-3.7
			c-4.2-1-6.9,1.4-7.8,4.1c-1.1,3.3,0,8,2.9,9.7c2.4,1.4,5.9,0.2,7.6-2.7l1.8,1.1l-1,11h-11.8v-2.6h9.6l0.2-4.6
			c-2.1,1.5-5.2,1.5-7.3,0.4c-3.9-1.9-5.7-6.2-5-11.3c1.1-5.1,3.4-7.9,8.6-8.3C3383.5-577.6,3385.5-573.5,3385.5-570.7L3385.5-570.7
			L3385.5-570.7z"/>
	</g>
</g>
</svg>
