<!-- Generator: Adobe Illustrator 19.2.1, SVG Export Plug-In  -->
<svg version="1.1"
	 xmlns="http://www.w3.org/2000/svg" xmlns:xlink="http://www.w3.org/1999/xlink" xmlns:a="http://ns.adobe.com/AdobeSVGViewerExtensions/3.0/"
	 x="0px" y="0px" width="165.4px" height="226.6px" viewBox="0 0 165.4 226.6" style="enable-background:new 0 0 165.4 226.6;"
	 xml:space="preserve">
<defs>
</defs>
<g id="g8526-6-2_1_" transform="matrix(0.99553774,0,0,0.99680134,-345.02296,79.60164)">
	<path id="path7225-5-2_1_" d="M388.2-64.8
		C380.8-54.2,373-48.2,372.8-40c0,2.7,1.4,7.2,5.9,8c2.9,0.6,6.9-1.8,7-6.6c0-1,1-0.9,1,0.4c-0.1,3.8-1.3,8.2-3.4,11.8
		c3.2,0,6.4,0,9.7,0c-2-3.6-3.2-8-3.4-11.8c0-1.3,1-1.3,1-0.4c0.1,4.8,4.1,7.2,7,6.6c4.5-0.9,5.9-5.4,5.9-8
		C403.5-48.2,395.6-54.2,388.2-64.8z"/>
	<path id="path7227-2-8_1_" d="M354.1-50.9
		c-3.4,4.4-7.1,6.9-7.2,10.3c0,1.1,0.7,3,2.8,3.4C351-37,352.9-38,353-40c0-0.4,0.5-0.4,0.5,0.2c-0.1,1.6-0.6,3.4-1.6,4.9
		c1.5,0,3,0,4.5,0c-0.9-1.5-1.5-3.3-1.6-4.9c0-0.5,0.5-0.6,0.5-0.2c0,2,1.9,3,3.3,2.8c2.1-0.4,2.8-2.2,2.8-3.4
		C361.3-44,357.6-46.6,354.1-50.9L354.1-50.9z"/>
	<path id="path7229-4-8_1_" d="M388.2,79.5
		c-7.4-10.5-15.3-16.6-15.4-24.8c0-2.7,1.4-7.2,5.9-8c2.9-0.6,6.9,1.8,7,6.6c0,1,1,0.9,1-0.4c-0.1-3.8-1.3-8.2-3.4-11.8
		c3.2,0,6.4,0,9.7,0c-2,3.6-3.2,8-3.4,11.8c0,1.3,1,1.3,1,0.4c0.1-4.8,4.1-7.2,7-6.6c4.5,0.9,5.9,5.4,5.9,8
		C403.5,62.9,395.6,68.9,388.2,79.5z"/>
	<path id="path7231-7-8_1_" d="M505.2,118.5
		c-3.4-4.4-7.1-6.9-7.2-10.3c0-1.1,0.7-3,2.8-3.4c1.4-0.2,3.2,0.8,3.3,2.8c0,0.4,0.5,0.4,0.5-0.2c-0.1-1.6-0.6-3.4-1.6-4.9
		c1.5,0,3,0,4.5,0c-0.9,1.5-1.5,3.3-1.6,4.9c0,0.5,0.5,0.6,0.5,0.2c0-2,1.9-3,3.3-2.8c2.1,0.4,2.8,2.2,2.8,3.4
		C512.3,111.6,508.6,114.2,505.2,118.5L505.2,118.5z"/>
	<path id="path7233-8-9_1_" d="M471.1-64.8
		c-7.4,10.5-15.3,16.6-15.4,24.8c0,2.7,1.4,7.2,5.9,8c2.9,0.6,6.9-1.8,7-6.6c0-1,1-0.9,1,0.4c-0.1,3.8-1.3,8.2-3.4,11.8
		c3.2,0,6.4,0,9.7,0c-2-3.6-3.2-8-3.4-11.8c0-1.3,1-1.3,1-0.4c0.1,4.8,4.1,7.2,7,6.6c4.5-0.9,5.9-5.4,5.9-8
		C486.3-48.2,478.4-54.2,471.1-64.8z"/>
	<path id="path7235-9-4_1_" d="M388.2-11.9
		C380.8-1.3,373,4.7,372.8,12.9c0,2.7,1.4,7.2,5.9,8c2.9,0.6,6.9-1.8,7-6.6c0-1,1-0.9,1,0.4c-0.1,3.8-1.3,8.2-3.4,11.8
		c3.2,0,6.4,0,9.7,0c-2-3.6-3.2-8-3.4-11.8c0-1.3,1-1.3,1-0.4c0.1,4.8,4.1,7.2,7,6.6c4.5-0.9,5.9-5.4,5.9-8
		C403.5,4.7,395.6-1.3,388.2-11.9z"/>
	<path id="path7241-7-2_1_" d="M471.1-11.9
		c-7.4,10.5-15.3,16.6-15.4,24.8c0,2.7,1.4,7.2,5.9,8c2.9,0.6,6.9-1.8,7-6.6c0-1,1-0.9,1,0.4c-0.1,3.8-1.3,8.2-3.4,11.8
		c3.2,0,6.4,0,9.7,0c-2-3.6-3.2-8-3.4-11.8c0-1.3,1-1.3,1-0.4c0.1,4.8,4.1,7.2,7,6.6c4.5-0.9,5.9-5.4,5.9-8
		C486.3,4.7,478.4-1.3,471.1-11.9z"/>
	<path id="path7245-1-6_1_" d="M388.2,132.4
		c-7.4-10.5-15.3-16.6-15.4-24.8c0-2.7,1.4-7.2,5.9-8c2.9-0.6,6.9,1.8,7,6.6c0,1,1,0.9,1-0.4c-0.1-3.8-1.3-8.2-3.4-11.8
		c3.2,0,6.4,0,9.7,0c-2,3.6-3.2,8-3.4,11.8c0,1.3,1,1.3,1,0.4c0.1-4.8,4.1-7.2,7-6.6c4.5,0.9,5.9,5.4,5.9,8
		C403.5,115.8,395.6,121.8,388.2,132.4L388.2,132.4z"/>
	<path id="path7247-0-6_1_" d="M471.1,132.4
		c-7.4-10.5-15.3-16.6-15.4-24.8c0-2.7,1.4-7.2,5.9-8c2.9-0.6,6.9,1.8,7,6.6c0,1,1,0.9,1-0.4c-0.1-3.8-1.3-8.2-3.4-11.8
		c3.2,0,6.4,0,9.7,0c-2,3.6-3.2,8-3.4,11.8c0,1.3,1,1.3,1,0.4c0.1-4.8,4.1-7.2,7-6.6c4.5,0.9,5.9,5.4,5.9,8
		C486.3,115.8,478.4,121.8,471.1,132.4L471.1,132.4z"/>
	<path id="path7251-3-6_1_" d="M471.1,79.5
		c-7.4-10.5-15.3-16.6-15.4-24.8c0-2.7,1.4-7.2,5.9-8c2.9-0.6,6.9,1.8,7,6.6c0,1,1,0.9,1-0.4c-0.1-3.8-1.3-8.2-3.4-11.8
		c3.2,0,6.4,0,9.7,0c-2,3.6-3.2,8-3.4,11.8c0,1.3,1,1.3,1,0.4c0.1-4.8,4.1-7.2,7-6.6c4.5,0.9,5.9,5.4,5.9,8
		C486.3,62.9,478.4,68.9,471.1,79.5z"/>
	<path id="path7255-7-8_1_" d="M429.6,14.6
		c-7.4,10.5-15.3,16.6-15.4,24.8c0,2.7,1.4,7.2,5.9,8c2.9,0.6,6.9-1.8,7-6.6c0-1,1-0.9,1,0.4c-0.1,3.8-1.3,8.2-3.4,11.8
		c3.2,0,6.4,0,9.7,0c-2-3.6-3.2-8-3.4-11.8c0-1.3,1-1.3,1-0.4c0.1,4.8,4.1,7.2,7,6.6c4.5-0.9,5.9-5.4,5.9-8
		C444.9,31.2,437,25.1,429.6,14.6z"/>
	<path id="path29-33-4-4_1_" d="M346.7-58.5l2.4-0.8c0.9,2.4,2.8,3.2,4.7,3
		c3.5-0.3,4.7-4.2,4.9-7.6c-1.4,1.4-3.4,2.2-5.2,2.1c-5.6-0.3-7-4.8-7.1-9.4c-0.2-3.9,1.5-6.8,4.3-8.1c1.5-0.7,4.9-0.7,6.4,0.1
		c3.4,1.8,4.7,4.9,4.5,12.3c0,6.1-1.3,13.2-7.9,13.4C350-53,347.1-55.9,346.7-58.5L346.7-58.5L346.7-58.5z M356.2-65.2
		c1.1-0.7,1.8-1.4,2.3-2.4c0.4-0.8,0.6-1.3,0.4-3c-0.3-4.4-2.6-6.9-6-6.4c-1.9,0.3-2.9,1.3-3.5,3.3c-1.1,3.6,0.3,7.8,2.9,8.8
		C353.5-64.5,355.3-64.7,356.2-65.2L356.2-65.2z"/>
	<path id="path29-33-3-8-6_1_" d="M512.5,126.1l-2.4,0.8c-0.9-2.4-2.8-3.2-4.7-3
		c-3.5,0.3-4.7,4.2-4.9,7.6c1.4-1.4,3.4-2.2,5.2-2.1c5.6,0.3,7,4.8,7.1,9.4c0.2,3.9-1.5,6.8-4.3,8.1c-1.5,0.7-4.9,0.7-6.4-0.1
		c-3.4-1.8-4.7-4.9-4.5-12.3c0-6.1,1.3-13.2,7.9-13.4C509.3,120.6,512.1,123.5,512.5,126.1L512.5,126.1L512.5,126.1z M503,132.8
		c-1.1,0.7-1.8,1.4-2.3,2.4c-0.4,0.8-0.6,1.3-0.4,3c0.3,4.4,2.6,6.9,6,6.4c1.9-0.3,2.9-1.3,3.5-3.3c1.1-3.6-0.3-7.8-2.9-8.8
		C505.8,132.1,504,132.2,503,132.8L503,132.8z"/>
</g>
</svg>
