<!-- Generator: Adobe Illustrator 19.2.1, SVG Export Plug-In  -->
<svg version="1.1"
	 xmlns="http://www.w3.org/2000/svg" xmlns:xlink="http://www.w3.org/1999/xlink" xmlns:a="http://ns.adobe.com/AdobeSVGViewerExtensions/3.0/"
	 x="0px" y="0px" width="168px" height="226.6px" viewBox="0 0 168 226.6" style="enable-background:new 0 0 168 226.6;"
	 xml:space="preserve">
<style type="text/css">
	.st0{fill:#131F67;}
	.st1{fill:#E2CF00;}
	.st2{fill:#D40000;}
</style>
<defs>
</defs>
<g id="g6583_1_" transform="matrix(0.99999718,0,0,1.000002,-5.9698507,-7.5442065)">
	<path id="path7499-2-5_1_" d="M14.8,36.4
		c-3.4,4.4-7.1,6.9-7.2,10.3c0,1.1,0.6,3,2.7,3.3c1.4,0.2,3.2-0.8,3.3-2.7c0-0.4,0.5-0.4,0.5,0.2c-0.1,1.6-0.6,3.4-1.6,4.9
		c1.5,0,3,0,4.5,0c-0.9-1.5-1.5-3.3-1.6-4.9c0-0.5,0.5-0.6,0.5-0.2c0,2,1.9,3,3.3,2.7c2.1-0.4,2.8-2.2,2.7-3.3
		C21.9,43.2,18.2,40.7,14.8,36.4L14.8,36.4z"/>
	<path id="path7503-7-0_1_" d="M165.1,205.3
		c-3.4-4.4-7.1-6.9-7.2-10.3c0-1.1,0.6-3,2.7-3.3c1.4-0.2,3.2,0.8,3.3,2.7c0,0.4,0.5,0.4,0.5-0.2c-0.1-1.6-0.6-3.4-1.6-4.9
		c1.5,0,3,0,4.5,0c-0.9,1.5-1.5,3.3-1.6,4.9c0,0.5,0.5,0.6,0.5,0.2c0-2,1.9-3,3.3-2.7c2.1,0.4,2.8,2.2,2.7,3.3
		C172.2,198.4,168.6,200.9,165.1,205.3L165.1,205.3z"/>
	<path id="path39-5-1-0_1_" d="M15.4,31h2.6l-3.9-9.7l-3,4.1l0,5.6h2.1v2.9H6V31h2.4V10.1l-2.4,0
		V7.5h7.5v2.6h-2.1l0,10.2l6.5-10.3h-2.3V7.5h7.9v2.5h-2.1L16,18.5L21.2,31h2.3l0,2.9h-8.2L15.4,31L15.4,31z"/>
	<path id="path39-5-7-0-0_1_" d="M164.5,210.7h-2.6l3.9,9.7l3-4.1l0-5.6h-2.1v-2.9h7.3v2.9h-2.4
		v20.9l2.4,0v2.5h-7.5v-2.6h2.1l0-10.2l-6.5,10.3h2.3v2.5h-7.9v-2.5h2.1l5.4-8.4l-5.2-12.5h-2.3l0-2.9h8.2L164.5,210.7L164.5,210.7z
		"/>
	
		<path id="path4096-2-4-0_1_" class="st0" d="
		M24.6,15.6h130.6v210.5H24.6V15.6z M117.4,224.8c-4.9-8.9-12.5-23.3-12.8-23.4c-2.8,1.5-31.8,5.4-45.7,1.6
		c-4.8,7.2-9.4,14.3-13.6,21.4L117.4,224.8z M72.9,198.3c-0.7,0-1.5,0.5-1.4,0.1c0.1-0.2,0.3-2.5,0.4-3.3c0.2-0.4,0.5,0.6,0.5,1.5
		c0,0.5,0.2,0.1,1.9,0.2c1.8,0.1,3.2,0.4,3.8,0.6c2.1,0.5,6.2,0.1,7.9-1.1c0.9-0.7,1.3,0.1,0.3,0.8c-4.4,3.4-7.9,2.1-11.7,1.5
		C74.1,198.4,73.5,198.3,72.9,198.3L72.9,198.3z M74.8,195.1c-0.3-0.2-0.5-0.2-0.8,0c-1.4,0.6-1-0.3,0-1.2c0.4-0.4,0.4-0.6,0.1-1.1
		c-0.2-0.2-0.5-0.3-0.4-0.6c0.3-1.4,2.3-3.6,4.5-4.6c0.9-0.4,1.1,0-0.1,0.7c-1.8,1.1-2.4,2-1.4,1.6c2-0.7,3.8-0.2,6.4,1.1
		c0.7,0.4,1.1,0.4,1.7,0.4c0.5-0.4,0.9,0.1,1.2,0.3c0.2,0.1,0.2,0.2,0.4,0.2c1.5-0.3,0.6,0.6-1.4,2
		C81.4,196.4,77.5,197.6,74.8,195.1L74.8,195.1z M80.2,195.7c1.5-0.4,3.2-1.4,4.3-2.3c1.3-1.2,0.6-1-0.9-0.3
		c-2.2,1.1-3.7,1.4-6.2,1.3c-2.1,0-2-0.1-2.1,0.1C75.1,195.5,77.9,196.4,80.2,195.7L80.2,195.7z M76.2,192.2
		c0.1-0.4,0.2-0.9,0.1-1.1c-0.2-0.3-0.6-0.1-1.1,0.6c-0.3,0.4-0.3,0.5,0,0.8c0.2,0.1,0.3,0.2,0.4,0.2
		C76.1,192.9,76.1,192.5,76.2,192.2L76.2,192.2z M77.1,192.7c0.6-2.2,2.1-2.1,3.1-0.1l0.7,0c-1.5-4-4.3-2-4.4,0
		C76.8,192.8,77.1,192.7,77.1,192.7L77.1,192.7z M82.4,192.3c0.7-0.4,0.6-0.6-0.3-1.1c-0.6-0.3-0.9-0.4-1-0.2c0,0.4,0,1.1,0.3,1.4
		C81.7,192.7,82,192.5,82.4,192.3z M73,186.1c-0.1-0.2-0.1-0.6,0.4-0.8c2.9-1.3,0.8-4.2-1.4-2c-0.7,0.6-1.8,0.9-2.6,0.5
		c-0.8-0.3-0.8-1.3,0.2-1.5c0.3-0.1,1.2-0.2,1.5-0.5c3.9-2.1,5.9,2.4,3.2,3.9C73.7,186.1,73.1,186.3,73,186.1L73,186.1z M62.2,182
		c-1.6-0.7-1.8-3.2-0.3-4.2c0.9-0.6,1.9-0.8,4.5,0.5c1.8,0.9,2.9-0.1,2.8,1c0,0.6-0.1,1.3-1.1,1.4c-1.7,0.3-2.9-2.1-5.1-1.9
		c-1.6,0.2-1.4,2.1-0.2,2.5C64.2,181.9,63.3,182.5,62.2,182L62.2,182z M91.1,182.4c-0.3,0.1-0.4-0.5-0.3-0.8
		c0.8-1.9,1.5-3.3,2.2-5.1c0.6-1.4,0.9-2,1.2-2c0.3,0,0.4,0.2-0.1,1.1C93.5,177.3,91.1,182.6,91.1,182.4L91.1,182.4z M78.2,181.9
		c-0.7-0.5-0.6-1.2,0.2-0.7c1,0.7,2.7-0.6,2.3-1.8c-0.4-1.5-2.4-1.9-4-0.5c-2.6,2.1-5.5,2.2-5.5,0.6c0-0.5-0.1-0.6,1-0.7
		c1.3-0.1,2.7-0.7,3.4-1.1c3.2-1.9,6.6-0.6,5.9,2.6C81.2,181.9,79.3,182.6,78.2,181.9z M66.5,177.1c-0.3,0-0.7,0.3-0.9,0.2
		c-0.3-0.2-0.2-0.8-0.4-1.4c-0.4-1.1,0-0.8,0.7-0.5c0.9,0.4,1.8,0.3,2.6,0c0.8-0.3,1.9-0.2,3.5,0c1.4,0.2,2.1,0.1,3.4-0.2
		c1.3-0.4,1-0.3,0.8,0.6c-0.1,0.5-0.3,1.3-0.5,1.4c-0.9-0.5-1.6-0.3-2.2,0c-1,0.4-1.7,0.5-2.5,0.3c-0.8-0.4-1.2-0.4-1.8,0
		C67.9,178,67.5,177.2,66.5,177.1L66.5,177.1z M86.4,174.9c0.2-0.3,0.5-0.8,0.7-1.3c2.1-4.1,2.2-5.3,0.7-6.6c-2-1.9-3.6-1.1-5.5,2.7
		c-0.5,0.9-0.7,1.6-0.9,1.9c-0.2,0.3-0.5,0.1-0.6-0.1c-0.2-0.2,1.9-4.2,2.7-5.1c2.1-2.3,6.1-0.5,5.9,2.6c-0.1,1.5-0.4,2.4-1.8,5.2
		c-0.3,0.7-0.7,1.3-0.8,1.6C86.1,176.2,86.3,175.2,86.4,174.9L86.4,174.9z M67,174.7c0.3-1.5,5-2.1,6.2-0.2c0.1,0.2,0,0.2-0.5,0
		c-2.4-0.8-2.9-0.7-5.1,0.2C67.3,174.8,67,174.9,67,174.7L67,174.7z M84.8,174.4c0-0.1,0.2-0.7,0.4-1.2c1.6-3.1,2-3.8,1.5-4.4
		c-0.9-1.1-2.2-0.1-3.3,3.1c-0.4,1.2-0.7,1-0.9,0.8c-0.4-0.4,1.4-4.1,2.2-4.7c1.9-1.2,3.5,0.2,2.6,2.7c-0.7,1.1-1.2,2.9-1.8,3.8
		C85.2,174.9,84.8,174.8,84.8,174.4L84.8,174.4z M77.8,169.4c-0.1-0.2,0.1-0.4,0.8-1.8c0.9-2,1.2-2.7,0.8-3.9
		c-0.7-2-3.2-2.5-4.7-1.2c-0.5,0.4-0.8,1-1.1,1.5c-0.6,1.2-1,2.8-1.3,3.2c-0.3,0.3-0.7,0.3-0.7-0.2c0.4-1.1,0.5-1.9,1.4-3.5
		c2.1-4.7,8.3-2.5,6.9,2.4c-0.5,1.8-1.2,3.1-1.5,3.6C78.2,169.8,77.9,169.6,77.8,169.4z M76.4,168.5c0-0.2,0.2-0.6,0.5-1.2
		c1-2.6,1.1-3.4-0.5-3.4c-0.9,0.1-1,0.5-1.8,2.5c-0.3,0.7-0.4,1.1-0.6,1.3c-0.2,0.2-0.5,0.1-0.6,0c-0.3-0.3,1.1-3.7,1.9-4.3
		c1.7-1.5,4,0.6,2.9,2.6c-0.5,1.3-0.9,2.3-1.2,2.7C76.7,169,76.4,169,76.4,168.5L76.4,168.5z M39.5,138.3l-5.3-0.4
		c0.9,5.7,1,11.9,0,16.3c-0.8,3.8-0.8,6.6-0.6,9.8c0.3,3.8,1.9,7,2.3,11.1c0.3,2.9-0.4,6-0.9,8.9c-1,4.9-0.8,5.4-0.6,11.1
		c0.1,5.3-0.4,5.1-0.7,4.8c0,0-0.1-1-0.1-2.1c0-1.1-0.1-3.8-0.1-5.7c-0.1-3.8,0.3-7.1,0.6-8.5c0.6-2.8,1.3-5.7,0.9-8.7
		c-0.9-3.9-2.1-7.8-2.5-11.6c-0.5-4.6,0.8-9.3,1.2-12.7c0.4-3.3,0-8.9-0.9-11.2c-0.1-0.8-0.8-1.8-0.8-1.8c-0.8-0.1-1.6-0.2-2.7-0.2
		c-0.1,22.3,0,44.7,0,67l4.9,4.6l5-4.8L39.5,138.3z M39.9,163.9c0,0,7.5,4.3,15.7,8.6c-0.8-4.9,1.7-5.6,4-6.2
		c-0.6-9.4,8-7.5,9.3,0.7l0.8,0c1.5-4.1,3-6.9,6.3-7.6c2.6-0.5,5.2,1.1,5.9,5.1c-0.1-0.3,8.7-5.2,8.9,5.2c4-2.5,6.9-0.3,8,2.8
		c1.7-2.6,5.9-2.7,7.3-2.9c0.5-0.5,1.3-0.9,2.8-0.8c1.3-0.1,3-1,3.9,0.1c1.4,0.2,2.4,0,3.6,0.9c0.9,0.7,2,2.3,3.5,1.2
		c2.9-1.4,6.2-2.1,8.9-3.8c0,0-0.7-0.9-0.5-0.8c0.1,0,0.4,0.5,0.9,0.7c0.2,0.1,1.8-0.9,1.8-0.9c-10.9-12.7-19.9-37.4-14-60.3
		c0.2-0.4-0.5-0.5-0.8-0.7c0.1-0.2,1.7,0.1,1,1.5c-0.7,4.4-1.5,9.1-1.6,12.8c0,0.4,0,0.8,0,0.8c24.5,11.4,21.5,36,15.2,44.6l1,1.3
		c0.4,0.3,19.3-10.8,18.7-11.2l3.6-1.8l-0.6-48.3l-14.1-1.1c0,0,0.2-0.4,0.3-0.5c0.1-3-0.1-7.3,0-11c0.1-10.4,0.2-14,0-14.3
		c-4.4-2.9-10.8-7.1-16.3-9.1c0.2,0.1-0.1,4.3-0.3,4.6c-5.1,1.6-2.7,3.7-4.6,6c-1.3,1.4-4.2,1.7-5.7,0c-1.7-1.7-2.5-5.5-2.5-5.5
		c-2.7,2.9-2.1,6.4-5.8,7.7c-5.8,2.9-7.7-5.8-7.3-5.6c-2.2,2.2-8.5,3.9-9.2-5.2c-2.8,2.6-6,1.3-7.3-1.9c-1.7,0.1-3.6,1.4-5.4,2.1
		c-1.6,0.7-3.7,1.1-5.2,1.1c-1.9,0.2-3.5,0.2-5.2-0.3c-0.8,0.3-2.6-0.5-3.2-1.7c-0.9-1-1.6-1.1-2.4-0.9c-2.8,1.5-5.8,1.8-9.1,3.4
		c-0.2,0.1,0.3,0.4,0.1,0.4c-0.1,0-1.7,0.8-1.7,0.8c16.7,22.1,17.6,44.4,14.1,60.2c-0.1,0.5-0.2,0.9,0.1,1.4
		c-0.5-0.1-0.5,0.1-0.6-0.3l1.7-13.3c0.1-1.6,0.3-1.5-1.2-2.1c-1.3-0.6-2.5-1.1-3.6-1.7c-4.1-3-8.7-6.8-10.9-11.4
		c-6.4-10-4.3-22,0.5-31.5l-1.2-1.2c-14,7.1-22.3,14.7-22.3,14.7l0.1,47.4L40,138L39.9,163.9z M32.9,132.3c-0.5-0.5-1.6-0.6-2.1-0.2
		c-0.1,0.1-0.4,0.6-0.4,0.6c-0.7-0.2-1.1-0.3-1.2-0.9l0.7-1.1c0.5-0.8,1.3-1.1,2.7-1.4c0.5-0.1,1.2-0.2,1.4-0.3c1-0.4,1.3-1.4,0.3-1
		c-0.7,0.2-1.8,0.1-1.9-0.5c-0.1-0.6-0.6-0.8-1.1-0.7c-1,0.2-1.9,0.7-2.7,1.3c-0.4,0.2-1.1,0.8-1.1,0.8c-0.1,0.2-0.5-1.1-0.1-1.5
		c0.5,0.1,0.9,0.1,1.4-0.1c1.2-0.5,2.3-1.1,3.5-1.5c0.8-0.3,0.8-0.3,0.6-0.8c-0.1-0.2-0.2-0.9-0.1-1.2c0.1-0.4,0.1-0.6-0.1-0.7
		c-0.5-0.4-1.8,0-3.7,0.9c-0.6,0.3-0.9,0.4-1.3,0.7c0.2-0.6,0.1-0.7,0.1-1.3c0.7,0.1,1.4-0.2,2-0.5c0.5-0.3,1-0.5,2.4-0.7
		c0.4,0,0.2-1.4-0.2-1.8c-0.4-0.4-1.2-0.4-2.2-0.1c-0.9,0.2-2,0.4-2.6,1.4c-0.8,0.7,0-1.2,1.4-2c0.6,0,2-0.3,2.3-0.4
		c0.5-0.1,0.6-1.4-0.2-2c-0.5-0.4,1.8-0.5,1.8-0.3c0,0.1-0.1,0.6,0.1,0.8c1,0.3,1,1.1,1.1,1.5c1.1,1.9,1.7,0.7,2.5,0.1
		c-0.2,4.1,1.3,4.6,1.5,4.8c-2,3.7-0.5,3.8,1.4,4.6c0,0-0.7,0.3-1.2,0.3c-0.7,0-2.1,0.8-2.8,1.3c-0.3,0.3-0.3,0-1.7,0
		c-1.3,0-1.4,0.1-2,0.3c-1.1,0.5-1.1,1,0,0.8c1.2-0.2,2.4,0.5,2.5,1.5c0.1,0.2,0,0.5,0,0.5c-0.2,0-0.8,0-0.8-0.1
		C33.2,133,33.2,132.6,32.9,132.3L32.9,132.3z M34.7,127.3c0.3-0.2,0.4-0.8,0.1-1c-0.3-0.2-1.3-0.1-1.7,0.2
		C32.4,126.9,33.7,127.9,34.7,127.3L34.7,127.3z M35.4,124.8c0.4-0.3,0.5-1.1,0.1-1.5c-0.6-0.7-2.1-0.3-2.2,0.6
		C33.2,124.9,34.5,125.4,35.4,124.8L35.4,124.8z M34.9,121.4c0.1-0.8-0.7-1.3-1.5-1c-0.9,0.5-0.4,1.5,0.8,1.4
		C34.8,121.8,34.8,121.8,34.9,121.4L34.9,121.4z M32.2,118c-0.4,0.2-0.5,0.7,0,1.1C33.8,120,33.3,117.6,32.2,118z M145.7,123
		c-0.7-2.6-2.7,0-2.7,0c-0.1-2.7,0.4-3.9-1.6-4.8c2-3.1,1.6-3.5-0.5-4.7c0.2,0,2.9-0.6,3.3-2.1c0.1,0.1,4.2,1.1,4.7-1.2
		c-1.2,0.6-3.6,0.6-3.7-1.8c0.2-0.1,0.8,0,0.8,0.1c-0.3,1.5,2.5,1.9,2.9,0.7c0,0,0.9,0.6,1.3,0.7c0,0-1.3,1.9-2.5,2.1
		c-2.2,0.7-2.9,0.9-2.9,1.3c0,0.2,0.4,0.2,1,0.3c1.3,0.1,1.3,0.4,1.5,0.8c0.2,0.4,0.3,0.5,0.8,0.4c1.5-0.5,2.3-0.8,3.4-1.9
		c0.1,0,0.3,1.1,0.4,1.2c0-0.2-1.1,0.1-2.8,1.1c-1.4,0.8-1.9,0.9-2.1,1.1c-0.1,0.2,0.2,0.7,0.2,1.2c0,0.5-0.3,0.7-0.1,0.8
		c0.3,0.2,0.7,0.1,1.2,0c1.2-0.3,2.1-0.8,3.1-1.4c-0.2,0.4,0.2,1.5,0.2,1.5s-0.5-0.4-1-0.2c-0.8,0.4-2.2,0.9-2.6,1
		c-0.4,0.1-0.5,0.1-0.6,0.2c-0.2,0.1-0.1,0.5-0.1,1c0,0.4-0.1,0.7,0.1,0.8c0.5,0.2,1.5,0.1,2.5-0.2c0.4-0.2,1.4-0.7,1.4-0.7
		l-0.3,1.5c-0.4-0.4-1.5-0.1-2.3,0.2c-0.4,0.1-0.5,0.4-0.6,0.7c-0.2,0.6,0.2,1,0.6,1.1c0.3,0.1,0.7,0.1,0.7,0.1
		c-1.9,0.7-1.6,1-2.7,0.5C146.3,124.2,145.9,123.6,145.7,123L145.7,123z M147.7,123c-0.3-0.4-0.9-0.6-1.2-0.4
		c-0.3,0.2-0.2,0.5-0.1,0.7C146.6,123.9,148.3,123.7,147.7,123L147.7,123z M146.6,121.1c0.5-0.6,0-1.4-0.9-1.4
		c-0.6,0-0.9,0.4-0.9,0.8C144.8,121.3,146.2,121.6,146.6,121.1L146.6,121.1z M145.6,118.8c0.8-0.2,1.1-1.1,0.5-1.6
		c-0.4-0.4-1.7-0.5-2.1-0.1C143.2,118,144.2,119.2,145.6,118.8L145.6,118.8z M146.3,115.8c0.5-0.3,0.6-0.7,0.2-1.2
		c-0.8-0.7-2.2-0.1-1.7,0.8C145,115.9,145.7,116.1,146.3,115.8L146.3,115.8z M45.1,93c0.7-0.3,1.3-0.9,2.1-1.3
		c0.5-0.3,0.4-0.2-0.3-0.6c-0.5-0.2-1.6-1.3-1.7-1.1C44.9,90.4,44.9,93,45.1,93z M63.9,119.5c0-0.5,0.1-1.3,0.1-1.9
		c0.1-1.1-0.1-0.8-0.7-0.4c-0.4,0.3-1.1,0.7-1.4,0.8c-1.1,0.5-0.9,0.6,0.6,1.3C63.7,119.9,63.8,119.8,63.9,119.5L63.9,119.5z
		 M62.4,116.9c1-0.6,1.4-1,1.4-1.7c0-0.8-0.1-1.1-0.8-0.6c-2.5,2-5.1-1.9-2.8-4.1c0.5-0.4,1.1-1.1,1.1-1.3c0-1.3-1.4,0-2.5,1.7
		c-1.3,1.6-2.1,3.5-0.9,5.4C58.7,117.7,60.7,118,62.4,116.9L62.4,116.9z M56.7,114.4c0-0.6,0.1-1.3,0.2-1.5c0.3-0.7,0.3-0.8-1-0.2
		c-0.5,0.2-1.1,0.3-1.3,0.3c-1,0-0.8,0.3,0.7,1.6C56.8,115.8,56.8,115.9,56.7,114.4L56.7,114.4z M60.3,108.4
		c0.2-0.4-0.2-0.5-0.5-0.5c0,0-0.6,0.4-1.2,0.9c-1.9,1.5-3.4,1.7-4.3,0.5c-1-1.2-0.6-2.6,1.6-4.2c1-0.7,1.2-0.8,0.7-1.1
		c-0.4-0.2-0.4-0.2-1.8,0.7c-2.8,1.9-3.6,3.2-3.3,5.1c0.1,0.8,0.5,1.2,0.9,1.5C55,113.8,58.7,110.5,60.3,108.4L60.3,108.4z
		 M63.1,109.5l-0.2-2.6c-2.8-2.5-5.5-6.6-6.4-10.1c-0.9-3.1-0.2-9.5,0-9l-1.5-2.9c-1.3,3.1-1.9,7.8-0.5,12.6
		C55.6,101.5,58.1,106.4,63.1,109.5L63.1,109.5z M51.2,108c0.9-1.7,0.9-1.5-0.8-1.6c-2,0-1.8-0.3-0.6,1.4
		C50.6,109.2,50.4,109.3,51.2,108z M52.3,105.6c1.1-0.4,0.9-0.3,2.4-1.3c1.7-1.1,1.8-1.8,0.1-0.9c-2.2,1.1-4.2,0.8-4.9-0.6
		c-0.7-1.3,0.7-2.9,2.9-3.6c0.8-0.2,1.2-0.4,1.2-0.7c0-1-3.8,0.3-5.4,1.9C45.6,103.4,48.2,106.9,52.3,105.6L52.3,105.6z M47.4,100.9
		c0.1-0.2,0.4-0.5,0.6-0.9c1.1-1.3,0.2-0.9-0.8-1.2c-0.5-0.2-1-0.4-1.3-0.3c-0.6,0.1,0.2,1.2,0.4,1.9
		C46.9,102,46.8,101.9,47.4,100.9z M51.5,98.1c1.9-0.2,2.1-0.4,2.1-0.8c0-0.4-0.2-0.3-1.2-0.2c-2.6,0.4-4.2-0.3-4.6-1.7
		c-0.4-1.4,1.4-2.8,3.7-2.7c1.2,0,2.1-0.4,1.3-0.8c-0.4-0.2-3.8-0.2-4.6,0.1c-2.3,0.7-3.2,1.9-3,3.7c0.3,2.2,1.5,2.8,4.4,2.7
		C50.1,98.4,50.8,98.1,51.5,98.1L51.5,98.1z M53,91c0-0.3-0.5-0.4-2.4-0.7c-2.4-0.4-3.5-2.6-2-4c0.6-0.5,1.9-0.7,2.6-0.6
		c1.6,0.3,2.6,0.6,2.6,0.1c0-0.5-0.5-0.5-3.4-1.2c-4.5-1-7,3.5-3.4,5.7C48.3,91.2,53,91.6,53,91L53,91z M54.1,84.6
		c0-0.2-0.1-0.3-0.5-0.4c-0.5-0.2-0.8-0.2-2-1c-1.5-1-1.9-3-0.9-4.1c1-1-0.8-2.2-2.2-1.1c-1.4,1.2-1.3,3.1,0.3,4.6
		C50.4,84,54.1,85.4,54.1,84.6z M46.8,84.3c1.6-0.7,2.7-0.3,1.5-1.3c-0.7-0.6-1.2-2.4-1.7-0.9c-0.4,0.9-0.6,2.5-0.6,2.7
		C46,84.8,46,84.7,46.8,84.3z M102.3,80.5c-1.8-0.4-3-2.5-2.6-4.5c0.3-1.1,1.3-3.8,1.5-4c0.8-0.6,0.7,0.2,0,1.7
		c-0.7,1.5-1.2,2.7-1,3.6c0.3,1.3,0.8,2.2,2.1,2.5c0.9,0.2,1.8-0.2,2.4-0.6c0.8-0.5,1.5-2,2.4-3.9c0.3-0.5,0.7-2.2,1.1-1.2
		c0.2,0.5-1.6,4.1-2.3,5C105,80.1,103.5,80.8,102.3,80.5z M113.1,79.3c0.9,0.8,2.3,1.3,3.3,1c2.4-0.8,3.4-3.1,2.5-6.7
		c-0.5-2-0.8-3.3-1.2-3.5c-0.2-0.1-0.4,0.1-0.6,0.4c-0.2,0.3,0.1,0.6,0.4,1.6c1.1,4,0.8,5.8-0.5,6.6c-2,1.1-3.7-0.2-4.3-3
		c-0.1-0.4-0.4-1.3-0.4-1.3c-0.2-0.4-1.4-0.3-0.9,1C111.4,76.2,112.4,78.7,113.1,79.3z M123.2,68.8c0-1.4-3-7.5-3.2-6.9
		c0,0,0,1.4,0.1,2c0,0.2,0.2,0.4,0.3,0.6c2.6,4.6,2.2,7.8-0.1,8.5c-0.8,0.3-0.9,0.7-0.6,1c0.7,0.7,2.4-0.7,2.7-1.3
		C123.3,71.7,123.2,69.5,123.2,68.8z M80.3,67.8c1-1.1,3.1-4.8,3.7-6.8c2-5.8,4.1-12.5,4.7-18.8c0.1-0.8,0.1-2,0.1-2.1
		c-0.2-0.2-1.2-0.1-1.5,0.1c-0.2,0.2-0.1,0.7-0.1,1.3c-0.9,7-2.6,13.3-5,19.8c-1.1,2.8-2.1,4.7-3.4,6.6c-0.2,0.3-0.5,0.7-0.6,0.9
		c-0.3,0.5-0.1,0.8,0.3,0.6C79.3,69,79.8,68.3,80.3,67.8L80.3,67.8z M77,69.5c3.1-4.3,5.3-9.4,7-15.4c1.1-3.9,2-7.9,2.6-11.9
		c0.1-0.9,0.2-1.4,0-1.7c-0.4-0.1-1.2,0-1.5,0.2c-0.2,0.3-0.1,0.8-0.2,1.9c-0.4,3-1,6-2,9.9c-2.6,8.7-5,13.6-8.2,17.9
		c-0.3,0.4-0.5,0.6-0.5,0.7c0,0.2,0.3,0.2,0.8-0.1C75.8,70.5,76.6,70,77,69.5L77,69.5z M72.4,71.7c1.5-0.9,4.2-4.6,6-8.6
		c2.1-4.8,3.9-10.1,5-14.8c0.5-2,1.2-7.1,1.1-7.5c-0.1-0.4-1.6-0.1-1.4,0.2c0,0-1.5,8.2-3,12.7c-2.9,8.4-5.4,14-8.2,16.8
		c-0.4,0.4-1.1,1.1-1.1,1.1s0,0.3,0.2,0.4C71.6,72.1,72,71.9,72.4,71.7L72.4,71.7z M70.1,71.4c3.4-1.9,7.4-10.8,10.6-22.1
		c0.6-1.9,1.6-8.3,1.6-8.3s-1.4,0.1-1.6,0.3c-0.3,0.4-0.2,1.4-0.6,3.7c-1.5,7.1-3.7,13.6-7,20c-1.4,2.8-3.8,5.5-5.3,6.3
		c-0.8,0.4-1.1,0.9-0.5,0.9c1,0,1.1,0.3,1.9-0.2L70.1,71.4z M116.6,171.3c-2.5,0-4.7,2.5-6.6,5.5c-4.1,6.3-6.9,16.9-7.5,22.6
		l1.5-0.3c-0.2,0.1,2.9-15,7.6-21.4c2.6-4.1,2.5-4.1,3.9-4.5c1.8-0.5,3.3,1.5,2.4,2.7c-0.3,0.4-0.7,0.1-0.6-0.5
		c0.3-1.8-2.3-2.2-3.1-0.4c-0.9,2.1,1.4,3.9,3.7,3.1c2-0.7,2.8-3.5,1.4-5.6C118.6,171.8,117.5,171.2,116.6,171.3L116.6,171.3z
		 M103.2,171c-3,3.9-4.6,7.8-6.4,13.2c-1.9,5.4-3.2,10.7-3.8,16.8l1.6-0.2c-0.1-3.9,4.2-22.5,10.1-29.4c0.3-0.4,0.6-0.8,0.6-0.9
		C105,169.5,103.6,170.6,103.2,171z M109.9,169.6c-4,3.3-7.1,10.4-9.2,17c-2.2,7.1-3.3,13.6-3.1,13.6l1.6-0.2
		c-0.1-0.4,4.4-25.5,12.8-30.1c0.7-0.4,0.9-0.7,0.3-0.9C111.3,168.9,110.6,169.2,109.9,169.6L109.9,169.6z M114.3,169.6
		c-8.6,1.1-14.3,27.8-14.5,30c0,0,0,0.2,0,0.2l1.7-0.4c0,0,0-0.1,0-0.1c1.2-6.8,2.3-11.6,5-17.8c2.1-4.6,5-10.4,9.3-11
		c0.4,0,0.7,0.1,0.6-0.3C116.2,169.6,114.9,169.6,114.3,169.6L114.3,169.6z M62.9,161.2c-3.1,0.8-3.2,4.6-1.1,9.4
		c0.2,0.4,0.1,0.6,0.3,0.7c0.4,0.3,0.6-0.1,0.7-0.4c0.1-0.4-0.1-1-0.5-1.9c-1.3-3.3-1-5.3,0.3-6.1c3.3-1.7,4.1,1.8,4.6,3.4
		c0.1,0.4,0.2,0.9,0.4,1c0.7,0.1,1-0.1,1-0.1c0,0-0.9-3-1.4-4.1C66.3,161.1,64.3,160.8,62.9,161.2L62.9,161.2z M40.3,164.7l0,39.7
		l-6,5.7c-2.6-2.2-5.9-5.7-5.9-5.7l0.1-67.1l-1.9-0.2c-0.5,28.8,0,58.3,0,87.2H44l14.6-23c0,0,0.2-0.3,0.2-0.4
		c0.2-0.4,0.2-1.1,0.1-3.6c0-1,0.1-1.8-0.1-2c-0.1-0.2-0.5-0.1-0.7,0.1c-0.3,0.1-0.5,0.1-0.3-0.3c0.1-0.2,0.4-0.6,0.6-1.1
		c0.8-1.4,1-1.8,0.7-3.3c-0.1-0.4-0.4-0.7-0.7-1.1c-2.5-3.7-3.5-9.1-2.2-13.1c0.4-1.8,0.2-2.1-0.6-3.5L40.3,164.7z M117.5,122
		c-1.6-0.8-1.6-0.8-1.6,0.8c0,1.2,0,1.5,0.5,1.3c0.6-0.3,1.4-0.6,2-0.9C119.5,122.8,118.1,122.4,117.5,122L117.5,122z M123.9,126.1
		c-1.2-1-0.8-0.9-1.1,1.4c-0.2,1.4-0.5,1.4,0.9,0.9c0.8-0.3,2.4-0.1,1.7-1C125.4,127.4,124.1,126.3,123.9,126.1z M73.9,160.8
		c-1.9,1.2-3.9,6.8-3.9,6.8c-6.7,0.8-9.5,7.4-9.8,13c-0.2,4.4-0.5,9.5-0.1,9.9c4.4-2,6.1,0.3,6.5-0.3c0.2-0.3-1-1.2-2.4-2
		c-0.3-0.2-0.9-0.5-1.1-0.7c-0.5-0.4,1.1-0.1,2.1,0.6c1.3,0.9,1.5,0.7,0.9-1.9c-0.6-2.8-0.7-3.1,1.4-4.3c0.9-0.4,1.3-0.8,1.9-1.5
		c0.5-0.6,0.6-0.7,0.4,0.1c-0.3,1.4-1.6,2-2.7,2.6c-0.6,0.3-0.8,0.9-0.8,1.4c0,0.5,0.6,3.2,0.8,4.1c0.2,0.8,0.3,1.7,0.5,2.5
		c0.5,2.2,0.5,2.6,0.3,4.2c-0.1,0.9-0.2,1.5-0.2,2c0,0.5,0.1,1.2,0.1,1.2c0,0-1.2-1.2-3.8-0.2c-1.9,0.7-3.4,0-4.4-0.6
		c-0.2,0.9-0.2,1.8-0.2,2.8c10.9,2,20.1,1.7,28,0.9c0.2-2.3,1.2-9.7,3.3-16.4c0.9-2.8,1.8-5.7,2.9-7.7c0.7-1.3,1.5-2.2,1.8-2.4
		c0.1-0.1,0.1-0.1,0.1-0.1v-0.2c0-0.4-0.1-1.1-0.5-1.4c-0.9-0.7-2.3,0.2-2.8,1.8c-0.4,1-2.3,5.2-2.4,5.1c-0.1-0.1-0.4-0.1-0.3-0.4
		c0.7-1.7,1.7-3.5,2.3-5c0.8-2.2,2.5-3.4,3.7-2c0.4,0.5,0.6,0.9,0.8,1.1c0.1,0.1,0.3,0,0.5-0.2c0.5-0.7-0.6-2.4-1.8-2.7
		c-1.7-0.5-3,0.8-4.9,4.8c-1.1,2.3-1.3,2.9-1.5,2.8c0,0-0.3,0-0.2-0.4c0.2-1,1.7-3.8,2.8-5.6c1.6-2.7,4.5-2.9,5.8-0.6
		c0.2,0.3,0.2,0.7,0.4,1c0.4,0.5,1,0.4,1.2-0.4c-0.2-0.5-1.2-2.5-1.9-2.8c-1.7-1.1-3.7-0.9-5.4,0.6c-0.4,0.3-0.8,1-1.9,3.3
		c-1.7,3.7-1.7,3.7-2.1,3.1c0.7-1.8,2.4-4.7,3.1-6.5c0.1-0.3,0.2-0.6,0.2-0.8c0-1.3,0.2-3.6-2.6-5.2c-2.3-1.3-5.4,0.1-6.4,2.6
		c-0.8,1.9-1.4,3.2-1.8,3.5c-0.6,0.4-0.5-0.1-0.4-0.3c0.8-1.7,1.9-3.5,2.1-5.2C81.6,160.2,76.9,158.5,73.9,160.8L73.9,160.8z
		 M49.5,72.9c3.7-1.7,6.2-2.6,9.9-3.7c0.5-0.2,0.6-0.3,0-1.3c-2.4-4.7,4.1-8.5,6.4-3.9c0.3,0.6,0.4,1,0.7,0.7
		c0.5-0.7,1.2-1.7,1.9-2.9c2.5-3.9,3.6-8.3,4.9-12.3c0.6-2.3,1.3-4.7,1.5-7.2c-4.9-8.7-13.6-24.6-13.6-24.6H26.5v69.7
		C36.2,79.1,42.8,76.2,49.5,72.9L49.5,72.9z M88.5,70.3c0.4-0.4,0.8-1.2,2.3-4.3c0.3-0.6,0.7-1.4,0.9-1.8c0.2-0.7,1.1-1.2,0.7,0.1
		c-0.1,0.3-0.3,0.7-0.5,1.2c-0.5,0.9-1,2-1.3,2.7c-1.9,3.9-1.8,6.2,0.3,7.9c1.6,1.6,5,1.7,6.8-0.8c0.3-0.4,0.5-0.9,0.6-1.1
		c0.8-1.9,1.4-2.9,1.5-3.1c0.8-1,0.9,0.2-0.3,2.2C98,75.6,98,78,99.2,79.7c1.8,2.5,5.1,2.6,7.2,0.6l0,0c1.1-1.3,1.9-2.9,2.6-5
		c0.2-0.5,0.3-0.8,0.4-1.1c0.2-0.4,0.4-0.6,1.1-0.7c4.4-0.9,8.2-5.5,8.7-10.5c0.1-0.7,0.3-1.9,0.3-2.6c0.1-1.4,0.1-8.8,0-9.3
		c-0.1-0.2-0.2-0.4-0.5-0.4c-0.2,0-0.5,0.1-1,0.2c-1.5,0.5-2.1,0.7-3.6,0.2c-0.5-0.2-0.8-0.2-1-0.2c-0.6,0.1,0.2,1,2,1.9
		c0.8,0.4,1.4,1,0.8,1c-0.2,0-2.4-1.2-2.7-1.3c-1-0.6-0.7,0.2-0.2,2.2c0.7,2.7,0.3,3.5-1.9,4.6c-0.4,0.2-0.9,0.6-1.2,0.9
		c-1.1,1.7-0.8,0.4-0.3-0.5c1-1,0.4-1.4-1.6-0.7c-2.3,0.8-3.3,0.2-4-1.1c-0.7-1.5,0.6-3.3,1.8-3.3c0.4,0,0.3,0.1-0.2,0.5
		c-0.7,0.5-1,0.9-1,1.7c-0.1,1.6,1,2.2,2.5,1.2c0.7-0.5,1.3-0.8,1.9-1c0.6-0.1,1.4,0.1,1.4,0.5c0,0.2,0,0.6,0,0.7
		c0.1,0.5,0.9-0.2,1.3-0.5c1.2-0.9,1.1-1.1,0.8-2.5c-0.5-2-0.8-3.8-1.3-5.9c-0.3-1.1-0.3-2.3-0.1-3.4c0.1-0.5,0.3-1.7,0.3-2.4
		c0-0.8,0-1.9,0-1.9c1.2,0.9,1.6,1.1,2.8,0.6c1.8-0.7,2.9-0.7,4.3,0.1c0.5,0.3,1,0.5,1,0.5l0.1-2.3c0,0-1.4-0.3-3.9-0.6
		c-7.6-1-23.2-1.2-23.8-0.3c-0.1,0.2-0.3,1.9-0.7,4.2c-0.9,4.8-2,9.5-3.3,14.1c-0.3,0.9-0.6,1.3-0.4,1.4c0.1,0,0.3-0.4,0.5-0.5
		c0.7-0.9,0.2,1.2-0.9,3.7c-0.1,0.2-0.2,0.5-0.2,0.5c0,0.1-0.7,1.9-1.2,2.9c-0.3,0.6-0.6,0.8-0.5,0.4c0.3-1.4,1.2-3.3,1.4-4.5
		c-0.8,1.1-1.9,3-2.8,4.2c-0.2,0.3,0,0.4,0.1,0.8c0.5,1.4,1.8,1.5,2.5,0.3c0.4-0.7,1.7-3.4,2.1-4.6c0.5-1.2,0.8-1.8,0.9-1.9
		c0.3-0.2,0.4,0.5-0.2,1.7c-1.6,3.5-2.3,5.4-3.1,6.1C85.8,69,84.7,69,84.1,68c-1-1.7-1.9-1.1-0.9,0.6c1,1.8,3.1,1.9,4.3,0.3
		c0.4-0.5,2.1-3.9,2.7-5.3c0.3-0.8,0.6-1.4,0.8-1.4c0.6-0.2-0.1,1.5-1.8,5.1c-0.6,1.4-1.4,2.8-2.6,3.2c-2.9,0.6-3.3-0.9-4.3-2.7
		c-0.5-0.4-0.9,0.3-0.8,1c0.3,1.3,0.9,1.8,1.8,2.4C85,72.5,87.6,71.7,88.5,70.3L88.5,70.3z M101.5,77.7c-0.3-0.6-0.2-1.2-0.1-1.8
		c0.3-1.3,0.8-2.5,1.4-3.6c1-0.5,0.2,1.4,0.1,1.6c-1.2,2.4-1.3,3.4-0.2,3.7c0.9,0.2,1.4-0.3,2.3-2.5c0.4-1.1,0.6-1.6,0.8-1.7
		c0.3-0.1,0.5,0,0.5,0.3c-0.6,1.4-1,2.9-2,4.1C103.4,78.8,102,78.8,101.5,77.7L101.5,77.7z M92.8,75.9c-0.4-0.1-1.1-0.6-1.6-1
		c-1.6-1.5-1.4-3.6,0.7-7.5c0.2-0.3,0.7-1.5,0.9-1.9c0.3-0.7,0.7-0.4,0.7,0c0,0.1-0.5,1.2-1,2.2c-2.2,4.4-2.2,6.2,0,7.3
		c2.1,1,3.1,0.4,4.8-2.9c1-2.5,1.5-2.6,1.4-1.6c0,0.4-1.2,2.8-2,3.9C95.7,75.9,94.7,76.2,92.8,75.9L92.8,75.9z M93,73.7
		c-0.8-0.5-1.2-1.8-0.7-2.9c0.4-0.9,1.6-4.2,2.1-4.4c0.9,0,0.4,0.7-0.7,2.8c-1.3,2.7-1.2,3.5-0.2,3.9c0.9,0.4,1.3-0.4,2.7-3.6
		c0.2-0.5,0.5-1,0.7-0.9c0.2,0,0.6,0.1-0.1,1.6c-0.2,0.3-0.5,1.1-0.8,1.7C95.1,73.9,94.1,74.4,93,73.7L93,73.7z M108.1,67.9
		c-0.4-0.2-2.1-0.9-1.8-1.4c0-0.1,0.1,0,0.2,0c1.6,1.1,3.5,1.3,5.6-0.1c0.3-0.3,0.6-0.1,0.4,0.3C111.8,67.9,109,68.4,108.1,67.9z
		 M103,66.1c0-0.1,0.2-0.5,0.3-0.9c0.2-0.7,0.1-1.2,0.3-1.2c0.7,0.4,2,0.4,2.6,0c0.7-0.4,2.1-0.6,2.6-0.2c0.7,0.5,1.1,0.3,1.6-0.1
		c0.6-0.5,0.6-0.3,1.6,0.1c0.8,0.3,1.1,0.5,1.4,0.4c0.1,0,0.4-0.3,0.5-0.3c0.2,0,0.3,0.8,0.5,1.6c0.2,0.7,0.1,0.9-0.6,0.5
		c-0.5-0.3-1.8-0.5-3.3,0c-1,0.3-1.3,0.2-2.1,0.1c-1.9-0.3-3.3-0.6-4.7,0.3C103,66.6,102.7,66.9,103,66.1L103,66.1z M98.2,62.6
		c-0.9-1.9,1.2-4.4,3.1-3.5c0.6,0.3,1.2,1.4,0.3,0.9c-4.3-0.9-3.2,5.5,1.4,2.1c3.1-2,5.2-2.4,5.4-0.4c-0.1,0.7-0.7,0.6-1.2,0.7
		c-1.3,0.2-1.7,0.4-3.2,1C101.7,64.1,99.5,64.7,98.2,62.6L98.2,62.6z M115,63.5c-1-0.3-2-0.7-3-0.9c-1.1-0.2-1.6-0.8-1.4-1.5
		c0.2-0.8,1.3-0.9,2.9,0.1c1.8,1.1,3.1,1.4,3.8,1c1.3-0.8,0.6-2.2-0.7-2.6c-1-0.3-0.3-0.6,0.8-0.3c1.7,0.6,1.7,3.6,0,4.3
		C116.8,63.7,115.8,63.6,115,63.5L115,63.5z M100.4,53.5c1.2-0.8,2.4-1.4,2.8-1.9c0.2-0.2,0.8-1,0.4-0.8c-2.5,1.5-5.4,0.3-7.4-0.8
		c-1-0.5-0.8-0.3-1.5-0.2c-0.5,0-0.9,0.1-1-0.2c0-0.2-0.3-0.1-0.5-0.1c-0.8-0.1-0.3-1.1,1.3-2.2c1.9-1.3,3.6-2.2,5.2-2.6
		c1.7-0.4,3.5-0.2,4.7,1.1c0.5,0.5,0.4,0.8,0.9,0.5c1-0.7,1,0.2,0.2,1c-0.6,0.6-0.4,0.7,0.4,1.3c0.3,0.3,0.1,0.5-0.1,0.9
		c-0.1,0.2,0,0.5-0.1,0.7c-0.2,0.8-3.8,3.6-5.1,4.1C99.6,54.4,100.1,53.7,100.4,53.5L100.4,53.5z M102.9,48.2l-0.6,0
		c-0.7,2.1-2,2.8-3,0.3l-0.5,0C98.8,50.7,102.5,52.1,102.9,48.2z M99,50.2c-0.2-0.4-0.5-1.4-0.8-1.4c-0.7,0-1.7,0.1-1.5,0.5
		C97.1,50.1,99.2,50.7,99,50.2z M103.8,49.8c0.7-0.4,0.8-0.7,0.4-1.1c-0.5-0.6-0.8-0.3-1,0.6C103,50.1,103.1,50.3,103.8,49.8z
		 M95,48.4c4.4-2,6-2.3,7.8-1.8c0.4,0.1,0.8,0.3,1,0.3c0.9-0.1,0.3-1-1.2-1.6c-1.7-0.6-2.8-0.3-6.2,1.4C94.4,47.8,92.8,49.3,95,48.4
		L95,48.4z M107.6,45.9c-0.1-0.1-0.3-0.9-0.4-1.2c-0.1-0.3-0.1-0.6-0.2-0.6c-2,0.3-3.8-0.1-4.3-0.2c-3.1-0.7-6-0.6-8.2,0.3
		c-0.5,0.2-1.2,0.6-1.3,0.6c-0.2,0.2-0.4,0-0.4-0.2c0-0.2,1.4-1.3,2.2-1.8c2.6-1.3,5.4-1.5,8.4-0.7c2,0.8,3.2,0.6,4.5,0.1
		c0.6-0.3,0.2,0.4,0,1.3c-0.1,0.6,0,1.1,0,1.5C107.9,45.9,107.8,46.3,107.6,45.9L107.6,45.9z M153.3,224.3v-69.9
		c-17.4,12.1-25,14.5-33.2,17.5c2.7,5.6-3.3,10.5-6.8,4.7c-3.6,4-8.5,18.2-8.6,22.9c0,0,9.5,16.5,14.1,24.8L153.3,224.3z M90,201.4
		c0.3-3.5,1.1-9.5,3.4-16.4c1-2.9,2.1-6.2,3.8-9.2c0.7-1,0.7-1.4,0-1.1c-0.4,0.2-2.5,2.5-2.7,3.1c-3.1,6.6-4.5,14.6-5.7,20.6
		c-0.3,1.4-0.3,3.1-0.3,3.1L90,201.4z M92.3,201.1c0.7-8.5,3.9-20.1,8.5-27.6c0.4-0.7,1-1.3,1-1.6c-0.1-0.7-1.9,0.5-3.3,2.7
		c-1.6,3.1-3.1,6.5-4.3,10.1c-1.7,5.2-2.9,10-3.4,16.5L92.3,201.1z M96.7,200.4c0.5-4.9,2-9.4,3.3-14c1.6-5.5,3.6-9.6,6-13.3
		c0.8-1.2,1.7-2.3,2.6-3.4c0.1-0.1,0.2-0.4,0.2-0.5c-0.6-0.1-1,0.1-1.4,0.3c-0.6,0.3-1.4,1.2-1.9,1.8c-3.4,4.4-5.3,9.6-7,14.8
		c-1.6,5-2.8,9.8-3.1,14.4L96.7,200.4z M65.9,196.6c0.7-0.1,1.1,0.1,1.3-0.1c0.2-0.2,0.1-0.7,0.2-1.3c0.1-1.4,0-1.3-0.8-0.4
		c-1.4,1.4-3.9,2-5.4,1.1c-0.8-0.4-1.3-0.7-1.4-0.4c-0.1,0.4,0,0.8,0.4,1C62,197.4,63.7,196.8,65.9,196.6z M64.2,195.6
		c1-0.3,1.9-0.8,2.5-1.6c0.5-0.8,0.5-0.9,0.1-0.7c-2,1-3.2,1.5-5,1.2c-2.4-0.4-2.5-0.1-0.9,0.9C62,196,62.8,196,64.2,195.6z
		 M60.8,192.6c0.4-0.3,0.5-1.4,0.2-1.4c-0.3-0.1-0.7,0.5-0.8,0.9C60,192.6,60.4,192.8,60.8,192.6L60.8,192.6z M64.4,192.5l0.6-0.1
		c-0.3-2.8-3.3-2.9-3.9,0.3l0.5,0.1C62.3,190.3,64.1,190.3,64.4,192.5L64.4,192.5z M66.4,192.1c0.9-0.5,0.6-1.2-0.6-1.4
		c-0.8-0.2-0.8,0.5-0.3,1.4C65.6,192.5,65.8,192.4,66.4,192.1L66.4,192.1z M59.3,188.6c0-0.3-0.1-0.8-0.3-1.1
		c-1.1-2.2-1.6-4.8-1.5-8c0.1-2.3,0.1-3-0.4-3c-0.7,0.3-1.1,4.6-0.2,8.2C57.6,187.2,59.4,190.3,59.3,188.6z M59.3,185.2
		c-0.1-1.2,0.2-3.9,0.1-4.5c-0.2-0.8-0.6-1.5-0.9-1.7c-0.4-0.3-0.5,0.3-0.4,1.7C58.5,184.1,59,186.7,59.3,185.2L59.3,185.2z
		 M59.7,179c0.3-0.5,0.2-1-0.4-2.1c-2.3-4.5-2.6-7.5-0.2-8.6c0.3-0.1,0.4-0.1,0.6-0.2c0.7-0.4,0.5-1.2-0.7-0.9
		c-3.1,0.9-3.7,3.8-1.1,9.2C59.2,179,59.4,179.4,59.7,179L59.7,179z M60.2,176.5c0-0.2,0.1-0.9,0.2-1.1c0-0.1-0.3-0.6-0.6-1.4
		c-0.9-2.2-0.9-3.2,0.1-3.8c0.3-0.2,0.6-0.2,0.7-0.4c0.1-0.3,0.1-0.9-0.1-1c-1.4,0-2,0.8-2.2,1.6c-0.4,1.2,0,3,1.1,5.1
		C59.7,176.1,60,177.4,60.2,176.5L60.2,176.5z M61.3,173.6c0.7-1.5,0-3.4-1-2.7c-0.6,0.4-0.7,0.9-0.3,2.1
		C60.5,174.4,60.8,174.6,61.3,173.6L61.3,173.6z M63.8,169.6c0.3-0.3,0-0.7-0.5-2.3c-0.5-1.4-0.2-2.4,0.6-2.6c1.3-0.3,1.7,1.8,2,2.6
		c0.1,0.7,0.6,0.9,1,0.4c0.1-0.1,0.1-0.2,0-1c-0.8-3.2-1.9-4.2-3.6-3.4c-1.6,0.7-1.4,2.4-0.2,5.9c0.2,0.5,0.3,0.8,0.4,0.9
		C63.5,170.1,63.6,169.8,63.8,169.6z M65.2,168.5c0.4-0.4,0.4-0.2-0.1-1.5c-0.5-1.5-0.7-1.8-1.3-1.3c-0.3,0.3-0.2,0.7,0.2,1.9
		C64.5,169,64.6,169.1,65.2,168.5L65.2,168.5z M130.9,163.3c2.5-1.7,1.5-4.9-1.8-6c-0.4-0.1-0.8-0.3-1-0.4c-1.5-0.7-2.7-1-2.7-0.4
		c0,0.3,0.5,0.5,1.9,1.2c2.1,1.1,2.6,2.3,1.6,3.8C128.2,162.7,129.6,163.9,130.9,163.3L130.9,163.3z M133.2,159.5
		c0.2-0.9,0.5-1.7,0.7-2.2c0.2-0.8-0.1-0.6-0.6-0.5c-1.4,0.7-2.4,0.3-1.7,1.3C132.4,159.5,133,160.5,133.2,159.5z M133,156.4
		c1.7-1,2.1-3.7,0.5-5c-0.4-0.3-1-0.7-1.8-1c-1.6-0.5-4-0.7-4.8-0.5c-0.2,0.2-0.2,0.6,0,0.7c0.2,0.1,0.7,0.1,1.3,0.2
		c2.4,0.2,3.6,1,3.5,2.7c-0.1,1.8-1.5,2.4-4,1.9c-1.4-0.3-2-0.2-1.4,0.2c0.6,0.4,2,0.9,3.4,1.2C130.7,156.9,132,157,133,156.4
		L133,156.4z M124.8,155.9c1.9-4.4,3-15.9-8.1-24.2l0.4,2.3c6.5,5.8,8.1,13.1,6.7,19.8L124.8,155.9z M134.7,148.1
		c-0.7,0.5-1.3,0.9-2.2,1.3c-0.5,0.2-0.5,0.3,0.2,0.7c0.3,0.2,0.9,0.5,1.1,0.8c0.4,0.4,0.8,0.6,1,0.4
		C134.8,150.7,135,148.5,134.7,148.1z M131.4,148.9c2.2-0.7,3.4-1.8,3.2-3.6c-0.4-2.7-2.6-3.2-6.7-2.2c-2,0.5-2.2,1.4-0.3,1
		c2.4-0.6,4.3,0.3,4,2.1c-0.1,1.5-1.4,2.4-3.5,2.4c-1.1,0-1.5,0.1-1.3,0.5C126.9,149.3,130.5,149.2,131.4,148.9z M127.7,142.6
		c3.7-1.3,5.4-3.2,4.5-5.4c-1-2.6-4.2-2.6-7.4-0.2c-1.5,1.1-1.3,1.5,0.2,1c1.9-0.9,3.1-1,3.9-0.3c1.4,1.3,0.5,3.4-1.7,4.2
		c-1,0.4-1.4,0.7-1.4,1C125.9,143.3,126.1,143.1,127.7,142.6L127.7,142.6z M133.9,142.5c0.1-0.8-0.8-3.4-1.1-2.8
		c-0.1,0.2-0.4,0.9-0.9,1.3c-1.3,1.1-1,0.7,0.2,1.1C132.8,142.3,133.8,142.8,133.9,142.5z M124.2,136.9c3.7-2.2,5.1-5.2,3.2-7.3
		c-1.7-1.8-4.6-0.8-7.2,2.6c-1.2,1.5-0.3,1.3,1.3-0.1c1.9-1.7,4.3-0.9,4.3,1.2c0,0.9-1.3,2.4-2.5,3.1c-0.4,0.2-0.4,0.6-0.3,0.8
		C123.2,137.4,123.5,137.3,124.2,136.9L124.2,136.9z M130.7,134.6c-0.2-0.6-1.6-3.1-1.9-3c-0.3,0.6-0.3,1.5-0.7,2.2
		c-0.5,1-0.5,0.9,1.2,0.9C130.5,134.6,130.6,134.8,130.7,134.6L130.7,134.6z M119.8,131.8c3.1-3.3,3.4-7.1,0.5-7.9
		c-1.6-0.5-4.2,0.7-4.2,1.9c0,0.8,0.1,0.9,0.8,0.6c2.7-1,4.9,1.6,2.4,4.7c-0.6,0.9-0.7,1.1-0.5,1.3
		C119,132.6,119.1,132.5,119.8,131.8L119.8,131.8z M153.3,104V17.6h-18.2l-14.5,22.9l0,5.6c0,0.2,0.3,0.3,0.5,0.1
		c0.8-0.6,0.5,0-0.4,1.5c-1,1.5-0.7,2.7,0.4,4.2c2.2,3.3,3.4,9.4,2.4,12.6c-0.4,1.2-0.4,1.7-0.2,2.4c0.3,0.8,0.4,1.2,1.2,1.7
		c0.7,0.5,6.2,2.6,15,8.4l0-40.5l5.6-5.4l5.9,5.7l0.2,66.8C151.2,104.4,153.3,105,153.3,104L153.3,104z M150.1,37l-4.9-4.6l-4.9,4.6
		c0,21.8,0.1,66.4,0.1,66.4l4.8,0.4c0,0,0.4-1-0.1-3.7c-0.7-4-0.6-8.8,0.5-16.1c0.7-4.5,0-8.4-1-12.5c-0.9-2.7-0.9-5.3-0.8-7.7
		c0.3-3.9,1.4-6.9,1.5-12.5c0.1-3.2-0.1-6.3,0-10.3c0-0.5,0.3-0.5,0.3,0.1c0.1,3.6,0.3,7,0.3,10.5c-0.1,4.5-1.2,9.2-1.3,13.4
		c-0.1,2.9-0.1,3.9,1.1,7.4c1.9,5.5,0.6,14,0.6,14.1c-0.8,5.4-1.4,12.4,1.3,17.6l2.6,0.2L150.1,37z M116.1,78.1
		c1.5-0.7,1.7-1.9,1-4.7c-0.1-0.5-0.3-1.1-0.4-1.4c-0.2-0.7-0.5-0.8-0.9-0.2c-0.3,0.3,0,0.4,0.4,2c0.6,2.4,0.2,3.2-0.6,3.2
		c-0.8,0-1.4-0.7-1.6-2.2c-0.1-0.5-0.2-0.9-0.3-1.1c-0.2-0.4-0.5-0.3-0.7,0.1c-0.3,0.5,0.2,2.6,0.9,3.6
		C114.6,78.4,115.1,78.6,116.1,78.1L116.1,78.1z M115.7,76c0.3-0.6-0.1-2-0.3-3c-0.2-0.5-0.4-0.7-0.7-0.6c-0.5,0.1-0.5,0.7-0.3,1.6
		C114.8,76,115,76.2,115.7,76z M120.2,72.5c1.7-1,1.8-2.6,0.7-5.6c-0.5-1.2-1-2.1-1.3-2.1c-0.1,0.8-0.2,1.2-0.1,1.5
		c0.1,0.3,0.3,0.7,0.5,1.1c0.9,2.2,0.7,3.5-0.2,4.2C118.9,72.2,119.4,72.8,120.2,72.5L120.2,72.5z M65.6,71.4
		c3.9-0.8,7.4-7.2,9.7-12.8c2-5.7,4.2-11.9,4.5-17.1c0,0-1.5,0.1-1.7,0.4c-0.2,0.3-0.2,1-0.4,1.9c-1,4.8-1.8,8.4-3.6,12.9
		c-1.2,3.1-2.6,6.7-5.9,11.4c-1.1,1.3-2.4,2.2-3.9,2.4c-0.4,0.1-1.1,0-1.2,0.1c-0.3,0.2,0,0.7,0.7,0.9
		C64.5,71.6,65.2,71.5,65.6,71.4L65.6,71.4z M119.5,70.6c0.6-0.6,0.7-1.4,0-3c-0.2-0.4-0.3-0.7-0.5-0.6c-0.5,0.1-1,1.4-0.7,2.4
		C118.7,70.8,119,71.2,119.5,70.6L119.5,70.6z M64.3,69.6c1.1-0.2,2.6-1.1,3.6-2.5c2.2-2.8,3.6-6.1,4.7-8.6c0.9-2,2.5-6.4,2.9-8
		c0.9-3.4,1.4-5.5,1.8-7.9c0-0.2,0.1-0.6,0-0.7c-0.5-0.1-1.4-0.1-1.8,0.3c-0.5,3.9-1.8,7.7-2.8,10.9c-1.6,5.5-6.1,14.2-8.5,14.6
		c-1.3,0.2-2.8-0.9-2.6-2.1c0.1-0.7,0.2-1,0.6-1.2c0.9-0.3,1.3,0.3,0.4,0.7c-1.1,0.9,0.9,2.4,2.1,1.4c2-1.7-1-5-3.4-3.5
		c-2.7,1.7-2,4.6-0.3,6C62.1,69.7,63.1,69.8,64.3,69.6L64.3,69.6z M83.4,65.7c1.7-1.7,2.9-4,3.8-6.8c2-6.3,3.6-13.5,4.2-19.1
		c0,0-1.4-0.1-1.7,0.2c-0.2,0.2,0,0.4-0.6,4.5c-1,6-2.5,12-4.7,17.1c-0.9,2.1-1.1,2.3-1.8,3.4C81.8,66.6,82.2,67,83.4,65.7
		L83.4,65.7z M120.5,52.6c-0.2-0.1-0.1,0-0.2,0c-0.2,0.2-0.1,1,0.4,2.2c1.4,2.2,1.5,6.5,1.4,8.1c0,0.5-0.1,0.8,0.1,1.2
		c0.1,0.4,0.4,0.9,0.8,0.1c0.4-3.2,0.1-6.5-1.1-9.2C121.5,54.1,121,53.1,120.5,52.6L120.5,52.6z M121.5,62c0.2-0.9-0.2-4.2-0.7-5.4
		c-0.2-0.5-0.6-0.5-0.6,0c0,1.2-0.1,3.4,0,4.1C120.8,62,121.3,62.9,121.5,62L121.5,62z M118.4,48.3l-0.6,0c0,2.2-1.9,2.8-2.7,0.2
		l-0.6,0.1C115.3,52.4,118.8,50.6,118.4,48.3L118.4,48.3z M114.5,50c-0.3-1-0.2-1.3-1-0.9c-0.6,0.3-1,0.7-0.1,1.1
		C114.2,50.5,114.7,50.6,114.5,50L114.5,50z M119.4,49.4c0.3-0.5,0.2-1-0.2-1c-0.3,0-0.4,0.2-0.5,0.8
		C118.6,50.1,119,50.3,119.4,49.4L119.4,49.4z M119.8,45.7c0.2-0.1,0.2-0.4,0.1-0.9c-1.1-1.5-3.7-1-4.6-0.7
		c-1.1,0.4-1.4,0.2-2.1-0.1c-0.6-0.1-0.7,0-0.8,0.3c-0.1,0.3-0.2,0.8-0.2,1.6c0,0.7,0,1.1,0.2,0.8c1-0.9,2.1-2,3.7-2
		C118.1,44.6,119.8,45.7,119.8,45.7L119.8,45.7z M112.6,47.7c0,0.3,0.3,0.1,0.9-0.3c2.4-1.4,3.7-1.2,5.7-0.5
		c0.4,0.1,0.7-0.3,0.2-0.7C117,44.2,114.1,45.4,112.6,47.7z M121.1,38.6l12.8-21.2l-71-0.1l12.1,22.6
		C84.7,37.6,100.9,34.6,121.1,38.6L121.1,38.6z"/>
	
		<path id="path4098-7-2-7_1_" class="st1" d="
		M58.1,204.8c1.5-2.3,9,1.8,9.4,3.4c4.4-3.5,9.8-3.8,14.1,0.6c4.4-4.9,9.2-4.5,14.1-1.7c-0.6-1.1,6.3-6,10.5-2.9l11.3,20.2
		l-72.3,0.2C49.4,218.2,53.2,210.5,58.1,204.8z M26.5,99.2c-0.4-1.1-2-12.3,2-12.6c6.5,2.9,14.8,13.3,18.6,19.6
		c4.8,7.9,9.6,26,6.9,25.2c-0.4-0.1,8.2,8.6,8.8,9.4c1,1.4-14.5,27.3-17,26.4c-0.8-0.3-5.9-3.4-5.9-3.4l0.1-8.7l0.1-17.5l-14.2-1.2
		l0.5-3.8c4.7,0.4,9.6,1.3,14,0.3c2.9-5.3,1.8-13.3-1.7-16.5c-1.8-1.1-3.6-0.8-5.4-0.5C25.9,114.6,29.8,101.8,26.5,99.2z M153.3,105
		l0,3.2c-5,1.1-13.8-3.2-16.5,3.7c0.3,7.4,2,10.7,3.1,13c0.9,2,6.9-0.3,9.1,1.7c6.1,7.6,4.7,17.7,4.7,26.9l-2.7,1.4
		c-18.4-10.9-32.5-44.9-34.5-54.6c-0.1-6.2,16.9-26.2,16.9-26.2c0,0,6.2,3.8,6.2,3.8c0.1,0.1-0.1,26.2-0.1,26.1
		C144.5,104.2,149.2,104.7,153.3,105z M116.9,81.2C95.4,119,104.2,147,120,171.1c0,0-1.4,0.3-1.5,0.2c-3.5-3.1-5.9-2.6-7.6-2.6
		c-3.4-0.1-4.3,1-6.3,1.2c-5,0.5-4.5,0.6-8.7-1c-5.3-4.4-12.4-7.7-18-9.5c-4.5,0.4-11.4,2.6-14,0.8c18.2-33.8,15.4-55.4-3.4-90.8
		c1.6,0.5,1.8,1.9,3,2.3c3.9,1.5,9.2,0.9,12.4-0.5c5.1-2.3,10.5,3.9,26.1,10.8c1.3,0.7,2.9-0.4,4.3-0.7c2.9-0.6,5.3-1.8,7.5-1.1
		C114.2,80.5,116.9,81.2,116.9,81.2L116.9,81.2z M73.6,36.9c-0.9-1.7-10.4-19.9-10.4-19.9l70.3,0.4L123,35c-1,0.9-6,3.6-11-2.4
		c-0.1,0.9-7.5,6.2-13.9-0.2c-3.8,3.5-7.7,5.5-14.2,1.6C83.7,35.1,78.7,40,73.6,36.9L73.6,36.9z"/>
	
		<path id="path4094-0-9-9_1_" class="st2" d="
		M81.3,208.4c-6.8-6.4-13.9-0.6-13.7-0.3c-2.7-2.8-5.3-5-8.9-3.9c0,0,0-1,0-1c10.6,2,26.8,2.5,45.8-1.5l1,2.1
		c-5.1-1.8-7.7,0.6-10,3.5C87.3,202.1,85.3,206.6,81.3,208.4z M97.1,133.5l4.8-0.1c0.9,14.2,12.6,35.8,12.9,35.8
		c-0.8-1.1-8.6-0.2-8.5-0.1C102.1,157.7,97.5,146.2,97.1,133.5z M69,167.1c0,0-1.6-4.1-2.5-5.8c5.1-8.7,9.2-17.8,11.3-27.8l3.4,0
		C80.3,147.4,69.3,168.4,69,167.1z M131.1,165.2c7.6-13.8,6.3-33.8-15.3-44.8c0,0,0.6-14.6,2.2-14.6c0.4,0.1,9.8-0.1,9.8-0.1
		c2.5-6.1,6.4-13.5,12-18.4l0.1,16.3c-4.1,0.4-6.6,1.7-7.8,5l-5.7,1.3c0.4,16.4,6.5,31.6,24.7,45.2c-4.3,3.8-19.2,11.4-19.1,11.3
		L131.1,165.2z M40.1,154.9l0.2-17c2.8-0.6,4.9,0.2,7.2-4.8c0,0,3.8,1.8,5.1,2.5C49,142.1,45.9,148.9,40.1,154.9z M76.3,124.8
		l0.2-8.6l8.1,0.2c-0.7,2.9-0.9,5.9,0,8.8L76.3,124.8z M94.8,124.7c0.6-2.8,1-5.7-0.2-8.7l8.8,0.2l-0.2,8.6L94.8,124.7z M78.1,107.8
		c-1.5-16.9-13-36.1-13.1-35.7c1.4,0.2,3.7,0.9,5.1,0.3c1.6,0.3,3,0.1,3-0.1c0.1-0.6,10.7,24.6,9.3,35.5
		C82.2,108.1,78.4,108.1,78.1,107.8L78.1,107.8z M98.4,107.9c1.2-7.8,4.4-22.1,12-33.7c0.9,2.1,1.6,4.2,2.8,6.1
		c-5.7,8.4-9.2,18-11.4,27.7L98.4,107.9z M45.8,103.7c-3.5-7.1-17.9-18.4-17.1-17.2c6-5.4,12.6-8.8,19.2-12.3c0,0,1.2,1.1,1,1.4
		c-4.1,6.5-6.1,20.2-2.1,28.1c3.8,8.4,10.5,13.4,17.4,17.3c-0.5,5.3-0.8,9.1-2.1,14.3c0,0-4.3-2.3-7.9-3.8
		C53.7,121.7,51.7,112.8,45.8,103.7L45.8,103.7z M84,33.9c5.1,3.1,9.6,2.8,14-1.4c5.5,5.1,11.5,2.7,14,0.4c2.3,2.7,5.4,4.1,9.8,3.3
		l-1.1,2.3c0.3-1.2-30.7-3.3-45.8,1c0,0-0.9-1.8-0.8-1.8C75.5,37.5,79.9,39.2,84,33.9L84,33.9z"/>
	
		<path id="path4092-7-7-9_1_" d="
		M62.1,16.5l12.5,23.6c0,0,0.4-0.1,0.6-0.1c17.4-3.4,31.1-3.9,45.9-1.3l13.1-21.9C110.4,16.5,62.1,16.5,62.1,16.5z M63.5,17.5
		l69.7,0.1l-3.9,6.5c-2.3-0.7-3.7,0.4-4,2.6c0,0-0.3-0.1-0.8-0.2c-3.4-0.4-3.9,4.2-0.7,4.7c0.8,0.1,1,0,1,0c-2.9,2.4-4.5,0.8-5.8,0
		c0,0.3-2.6,2.2-4.9-0.1c3.4,0.3,3.9-3.1,2.3-4.4c-0.3-0.3-0.7-0.6-0.7-0.6c0.8-0.7,1-1.6,0.5-2.7c-1-2.2-4.3-2-4.8,0.3
		c-0.2,0.9-0.2,1.1-0.2,1.1c-2.6,0.2-3.2,2.7-2.3,4.1c0.5,0.8,1.6,1,2.7,0.9c-1.4,2-4.6,1.3-6-0.3c-2.3,2.7-4.9,2.4-6.1,0.9
		c0.9,0,1.5,0,2.3-0.8c1.4-1.3,0.7-3.6-1.2-4.2c-0.4-0.1-0.6-0.1-0.7-0.2c0,0,0.1-0.1,0.1-0.8c0.5-4-5.4-3.6-4.8,0.3
		c0.1,0.5,0.2,0.7,0.2,0.7s-0.6,0-1,0.1c-3.3,1.5-1,5.7,1.5,4.6c0.2-0.1,0.9-0.4,1-0.4c-3.1,3.9-5.8,1.1-6.5,0.7
		c-2.1,3.2-5.8,1-5.9,0.8c0.2,0.1,0.9-0.1,1.6-0.4c2.1-1.1,1.5-3.9-0.1-4.5c-0.5-0.2-1.1-0.2-1.8-0.1c0,0,0.1-0.7,0-1
		c-1-3.8-5.7-1.9-4.6,1.3c0.1,0.3,0.4,0.6,0.4,0.6s-0.6,0.4-0.9,0.7c-2.2,2,0,5.4,2.7,4c0.3-0.2,0.7-0.6,0.8-0.5
		c-1.2,2.3-3.1,3.1-5.8,1.2c-1.6,2.6-4.3,1.5-5.1,0.2c2.5,0.2,4.1-4.6-0.7-4.8c-0.4-1.3-0.4-3.3-3.4-3L63.5,17.5z M97.6,25.9
		c0.6,0,1,0.5,1,1c0,0.6-0.4,1-1,1s-1-0.5-1-1C96.6,26.3,97,25.9,97.6,25.9z M113.2,26c0.6,0,1.1,0.5,1.1,1.1c0,0.6-0.5,1.1-1.1,1.1
		c-0.6,0-1.1-0.5-1.1-1.1S112.6,26,113.2,26z M82.6,27.2c0.6,0,1,0.5,1,1c0,0.6-0.5,1-1,1s-1-0.5-1-1S82.1,27.2,82.6,27.2z
		 M126.4,28.4l-0.9,1.6C124.5,29.2,125.2,28,126.4,28.4z M70.4,30.6L69.5,29C71.1,29.1,70.7,30.2,70.4,30.6z M97.4,29.7
		c6,6.9,11.3,4.9,14.9,0.3c1.5,3.9,4.9,6.6,10.6,4c-0.3,0.6-1.2,1.7-1.2,1.7c-5.1,1.4-7.6-1-9.6-3.3c-5.2,4.4-10.1,3.3-14.1-0.5
		c-3.4,4.4-9,5.3-14.2,1.7c-2.4,3.5-5.7,4.9-10,3.2c0,0-0.9-1.4-1-1.5c0.6,0.5,8.4,3.8,10.4-4.1C85.9,35.8,94.9,36,97.4,29.7
		L97.4,29.7z M98,32.6c6.7,6.4,13.8,0.9,14,0.5c0.1,0.4,3.9,5,9.5,3.2l-0.9,1.6c-10.4-1.8-20-2.9-42,0.3c0,0,3.5-1,5.3-3.9
		C84.9,35,92.5,39.2,98,32.6z M74.5,37.8c0,0,2.9,0.3,3.2,0.4c0.3,0.2-2.5,1-2.5,0.9L74.5,37.8z M80.4,68.2c-0.2,0-0.4,0.2-0.8,0.6
		c-0.8,0.8-1,0.9-1.7,1c-0.6,0.1-1.8,0.8-2.6,1.5c-0.2,0.2-0.6,0.3-1,0.4c-0.4,0.1-0.9,0.2-1.2,0.2c-0.3,0-0.6,0.1-0.7,0.2
		c-0.4,0.2-1,0.3-1.7,0.1C70,72,69.9,72,69.1,72.2c-1.1,0.3-1.8,0.3-2.4,0c-0.5-0.3-1.4-0.5-2-0.3c-0.8,0.3-2.9-1-2.9-1.8
		c0-0.2-1.2-1.1-1.5-1.1C59.3,69,50,72.7,50,72.9c11.5,14.3,21.1,36.2,13.9,62.9l-1.3-0.6c1.1-4.9,1.5-9.7,1.8-14.7
		c-21.6-9.4-23.4-31.3-15-45.1L48,73.9c-5.1,2.7-10.2,4.3-22.8,14.9l0,17.2c0,15.5,0,30.7,0,30.7c4.5,0.5,9.5,0.9,14.5,1.4
		c0,0-0.1,15.4-0.2,21.4c-0.1,5.1,0.1,4.8,0.1,4.8l16.3,8.7c-1.1-4.6,1.7-6.4,4.1-6.2c-1-4.4,1.6-6.4,4.5-5.9c2,0.4,2.7,1.5,3.9,5.2
		c0.2,0.6,0.4,1.4,0.4,1.4l1.1,0c1.4-3.1,2.4-7.1,5.8-7.6c4.4-0.7,6,2.4,6,5.4c4.3-3.8,9.4-0.9,9.1,4.8c2.1-1.4,5.8-2.7,8.1,2.7
		c0.9-0.2,1.3-1.2,2.5-1.5c0.5-0.1,1.5-0.7,1.5-0.7l0-0.2c0,0,1-0.3,2.2-0.5c1.1,0.4,0.8,0.4,1.4-0.3c0.7-0.3,1.7-0.6,2.5-0.5
		c0.9,0.1,1.2,0.1,1.8-0.1c0.8-0.3,1.5-0.4,2,0.1c0.3,0.4,0.8,0.2,1.3,0.2c1,0,2.4,0.4,2.9,1.3c0.6,0.7,2,1.3,2,1.3l1.1-0.3l0.1-0.4
		l9.2-3.6c-18.8-20.8-18.3-48.5-13.9-62.5l1.7,0.8c-0.9,4.1-1.9,8.4-1.8,14.6c17,7.6,25.4,27.4,15.1,44.7l1.1,1.4
		c4.3-1.8,15-7.9,18.8-11.2l0.8,0.1c0,0,2.3-1.5,3.3-2.3l0.1-45.8l-0.8,0.2l-0.1-2.7l-14-1.1c0.2-0.1,0.3-0.2,0.4-0.5L140,78.1
		c-0.5-0.8-12.2-7.7-16.6-9.4c-0.2,0-0.1,0.3,0,1c0.2,2.5-1.4,4.7-3.4,4.7c-0.7,0-0.8,0.3-0.8,1.7c0,2-0.7,3.4-2.8,4.2
		c-2.5,0.9-4.2-0.4-5.6-5.6c-0.4-1.4-1.1-1-1.8,0.8c-0.3,0.9-1.4,3.2-2.1,4.4c-0.5,0.9-1.3,1.3-2.4,1.8c-0.9,0.4-2.7,0.4-3.8-0.2
		c-1.9-1-2.7-2.2-3.2-5.1c-0.1-0.4-0.3-0.4-0.9,0.1c-3.4,2.6-8.2-0.1-8.1-4.6c0-1.3,0-1.4-0.8-0.7c-2.3,1.9-5.4,0.9-6.7-2.1
		C80.8,68.5,80.6,68.2,80.4,68.2L80.4,68.2z M60.9,69.8c0.2,0,1,1,1,1c0.7,0.8,1.6,1.2,2.6,1.7c0.1-0.1,11.2,15,13.1,35.9l5.2,0
		c-1-20.3-6.5-30-9-36.3l1.9-0.6c4.2,8.1,9.3,24.5,9.1,38.8h-8.6c-1.2-14.4-6.7-28.4-14.5-39C61.1,70.5,60.7,69.9,60.9,69.8
		C60.9,69.8,60.9,69.8,60.9,69.8L60.9,69.8z M57.6,71.9l0.9,2.8c0,0,0.1-0.6,0.4-0.9c1.7-1.5,3.3,0.5,2.5,3.2
		c-0.2,0.8-0.5,2.5-0.5,2.5s-1.7-0.9-2.6-1.2c-2.4-1-3.1-3-1.3-3.2c0.3,0,0.9-0.1,0.9-0.1c-0.8-0.6-2.4-2-2.4-2L57.6,71.9z
		 M65.5,72.2c0.7,0.4,2.6,0.9,3.6,0.4c0.9-0.3,1.5-0.1,2.4-0.1c0.5,0,1.5-0.2,1.5-0.2c5.1,10.8,8.6,23.6,9.1,35.3l-4,0
		c-1.5-12.4-6.3-25.1-12.3-34.4C65.6,72.9,65.3,72.2,65.5,72.2L65.5,72.2z M82.2,72.4c1.5,0,3.2,1.6,4,4.1c0.5,1.4,0.7,1.3,1.3,1.1
		c1.7-0.6,3.5,1.3,1.2,1.6c-2.2,0.4-1,4.8-1.1,5.1c-0.9,0.2-2.6-3.6-2.5-4.7c0.1-2.7-2.4-5-4-3.8c-0.7,0.5-0.7,0.9-0.9,0.7
		c-0.7-0.6-0.8-2.3,0-3.2C80.8,72.7,81.5,72.4,82.2,72.4L82.2,72.4z M128.1,73.3c0,0,0.1,3.6,0,4.4c-0.3,2.4-3.3,2.6-3.5,0.7
		c-0.5,0.8-0.8,1.7-1,2.6l-2.2-1.5c0.8-0.6,1.6-1.1,2.2-1.9c-1.6,0.1-2.5-1.3-1.4-2.5C123.3,73.7,126.7,73.6,128.1,73.3L128.1,73.3z
		 M47.8,74.5l1,1.1C40.2,91,43.2,110.7,64,121c-0.1,4.7-0.7,9.5-1.9,13.9l-7.7-3.8c0.1-17.4-9.7-34-25.3-44.9
		C34.9,81.7,41.1,77.6,47.8,74.5L47.8,74.5z M110.5,74.6c0.4,2,2.3,5.7,2.4,5.5c0-0.1-7.9,10.2-11.4,27.6l-2.9,0
		C100.6,96.1,104.4,85.2,110.5,74.6L110.5,74.6z M134.9,75.1l1.6,1c-8.2,6.9-13.6,15.7-17.6,25.2l-2.1-1
		C123,86.5,129.1,80.4,134.9,75.1L134.9,75.1z M137.1,76.6c0.4,0,0.9,0.6,1.7,1c0.8,0.4,0.6,0.7-0.9,1.8c-1.7,1.3-1.9,1.3-1.9-0.6
		C136.1,77.5,136.4,76.7,137.1,76.6C137.1,76.6,137.1,76.6,137.1,76.6L137.1,76.6z M135.2,78.6c0.1,0,0.2,0,0.2,0.1
		c0.1,0.5,0.1,1.7-0.1,2.8c-0.2,0.7-2.4,2.6-3.2,3.4c-0.3,0.2-0.5,0.1-0.5-0.2c0-0.6,0.1-1.4,0.1-2.2c0-0.2,0-0.5,0.2-0.7
		C133,80.4,134.6,78.6,135.2,78.6L135.2,78.6z M139.3,79.2C139.3,79.2,139.3,79.2,139.3,79.2c0.2,0.1,0.2,2.7,0.1,2.9
		c-0.6,0.2-2.4-0.1-2.8-0.3C136.5,81.4,138.9,79.2,139.3,79.2L139.3,79.2z M62.5,80l0.6,2.5c0,0,0.2-0.3,0.2-0.4
		c1.2-1.8,2.6-0.8,2.6,1.8c0,0.8-0.7,4-0.7,4s-4.5-2.2-4.8-3.1c-0.3-0.9,0.1-1.8,1-1.8c0.3,0,0.6-0.1,1,0l-1.9-2L62.5,80z
		 M113.5,80.4l2,0.8c-4.2,6.9-8.6,13.8-11.7,29.4h-8.5c1.2-9.5,3.6-18.9,7.9-28.1c0,0,1.7-0.5,2.6-0.8c0,0-7,16.2-7.8,26.6l4.1,0.1
		C104.3,98.2,108.4,87.7,113.5,80.4z M97.5,80.6c1.1,0,2,0.8,1.9,2.2c0,1.3-0.1,1.5-1.1,1c-1.2-0.7-2.2-0.7-3.2,0.1
		c-0.6,0.4-1.2,0.8-1.2,0.8s0.5-2.3,1.3-3C96,81,96.8,80.6,97.5,80.6z M93.2,84c-0.1,0.8-0.3,1.1-0.5,1.8c0,0,0.7-0.3,1-0.4
		c1.5-0.7,3.1,0.6,3.1,2.1c0.1,1-1,2.3-2.4,2.3c-0.5,0-0.9-0.1-1.4-0.5c0.3,1.9,0.4,2.8-1,3.7c-1.1,0.8-3.5-0.1-3.4-2.2l0.1-1.3
		l-1.2,0.2c-3.2,0.1-3.3-3.9-0.7-4.5c1-0.2,2.2,0.6,2.2,0.6c-0.5-1-0.5-2.7,0.2-3.5C90.8,80.3,93.4,82.1,93.2,84L93.2,84z
		 M121.3,81.5c0.2,1.5,0.8,3.1,0.6,4.5c-0.3,1.8-1.8,2.8-2.9,1.7c-0.1-0.1-0.4-0.4-0.4-0.4c-0.5,0.7-0.9,2.6-0.9,2.6l-2.1-1.3
		c0,0,1.4-1,1.8-1.6c0.1-0.2,0.2-0.5,0.2-0.5c-1.2,0.4-2.1-0.8-1.8-1.9C116.4,82.9,119.5,82.2,121.3,81.5L121.3,81.5z M135.8,82.6
		c0.8,0,2,0.2,2.9,0.3c0.7,0.1,0.3,0.5-1.3,2.2c-1.5,1.5-1.5,1.3-2.6,1.3c-2.7,0-3.2,0-1.6-1.7c0.8-0.9,1.6-1.7,2.1-2
		C135.5,82.6,135.7,82.6,135.8,82.6L135.8,82.6z M130.9,82.9C131,82.9,131,82.9,130.9,82.9c0.3,0.2,0.2,1,0.2,2.1
		c0,1.2,0,1.2-0.5,1.9c-0.6,0.8-1.2,1.6-1.8,2.4c-0.6,0.6-0.6,0.6-0.9-1c-0.3-1.5-0.1-1.9,1.7-4.1C130.2,83.4,130.7,82.9,130.9,82.9
		z M139.4,83.7l0,3c-5.6,5.5-9.4,11.8-12,18.6l-2-0.8C128.9,95.8,133.9,89,139.4,83.7L139.4,83.7z M90.8,85.5
		c-0.9,0-1.7,0.8-1.7,1.7s0.8,1.7,1.7,1.7s1.7-0.8,1.7-1.7S91.7,85.5,90.8,85.5z M90.8,86.1c0.6,0,1.2,0.5,1.2,1.2
		c0,0.6-0.5,1.2-1.2,1.2s-1.2-0.5-1.2-1.2C89.6,86.6,90.2,86.1,90.8,86.1z M28.5,86.8c17.5,11.3,25.3,28.9,25.3,44l-1-0.4
		c-1-21.3-12.5-34.5-24.9-43L28.5,86.8z M132.1,87c0.4,0,0.9,0.1,1.7,0.2c1.4,0.1,1.6,0.2,0.6,1.3c-0.3,0.3-0.8,1-1.2,1.5
		c-0.4,0.5-0.8,1-1,1.1c-0.3,0.1-2.8,0-3.6-0.1c-0.2,0,0.1-0.3,1.3-2.1c0.9-1.4,1.1-1.8,1.9-1.9C132,87,132,87,132.1,87L132.1,87z
		 M139.4,87.5c0,0,0.3,9.7,0.1,15.9c-4-0.1-6.3,1.4-7.3,4.3l-4.2-2.1C131,97.7,135.1,92.1,139.4,87.5z M127,87.8
		c0.2,0,0.4,0.5,0.4,1.4c0.3,1.7,0.2,1.9-0.5,2.9c-0.3,0.5-0.8,1.3-1,1.7c-0.4,0.7-0.7,0.9-0.8,0.6c-0.5-1.8-0.7-2.9-0.5-3.3
		c0.3-0.6,1.8-2.7,2-3C126.8,87.9,126.9,87.8,127,87.8L127,87.8z M27.2,87.9c14.1,8.8,24.4,23.8,24.8,42c0,0-3-1.4-4.8-2.5l-0.1-1.8
		l1,0l0.3,2l2.1-0.1l-0.6-5l-3.4,0.3l-0.7-2.8l1-0.2l0.6,1.8l2.2-0.6l-1.2-4.4l-3.4,0.9l-1.1-3l1.1-0.4l0.9,1.8l2.1-0.7l-1.9-4.4
		l-3.1,1.5l-1.6-2.9l1.2-0.7l1,1.7l1.9-1l-2.4-4.1l-2.9,1.7l-1.5-2.2l0.9-0.6l1,1.2l1.7-1.2l-2.6-3.5l-2.8,2.2l-2.1-2.4l1-0.8
		l1.4,1.3l1.6-1.4l-3.1-3.4l-2.7,2.5l-2-1.8l1-1.1l1.2,1l1.3-1.6l-3.3-2.8l-2.5,2.5l-2.4-1.6v-1.2c0.8,0.3,1.6,0.7,2.3,1.1l1.2-1.9
		l-3.6-2.4L27.2,87.9z M66.4,88.7l0.5,3.1c0.5-0.8,0.9-1.4,2-1.1c1.3,0.5,1.3,2.5,0.2,5.6c-0.2,0.6-0.5,1.1-0.5,1.1s-0.6-0.2-1-0.5
		c-0.8-0.6-2.2-1.2-2.8-2.3c-0.7-1.2-0.7-2.8,0.6-2.6c0.3,0,0.8,0.1,0.8,0.1l-2-2.6L66.4,88.7z M26.4,89.6l2.4,1.6l-0.5,0.9
		l-1.9-0.9V89.6z M87.5,90.4c0.7,1-1.8,3.9,1.5,5.1c0,0,0.1,0.7-0.6,1.1c-1.6,1.2-3.9-1-3.2-3.2C85.6,92,87,90.4,87.5,90.4z
		 M94.2,90.4c0,0,1,0.7,1.2,0.9c1.8,1.8,1.8,4.3,0.2,5.1c-1.1,0.6-2.3,0.1-2.7-0.7C92.6,95.4,93,95,93.4,95c0.8,0,1.4-1.5,1.1-3.1
		C94.4,91.2,94.2,90.4,94.2,90.4z M115.6,91c0,0,0.2,2.1,0.5,3.1c0.9,2.7-0.3,4.3-2,3.4c-0.3-0.1-0.7-0.7-0.7-0.7l-0.2,3.1l-2.5-0.7
		c0.5-0.9,1.3-1.5,1.9-2.5c0,0-0.4,0-0.7,0c-1.5,0.1-2.1-1.6-0.5-3C112.5,92.6,115.6,91,115.6,91L115.6,91z M128.7,91.7
		c0.3,0,0.7,0,1.2,0c1.6,0,2-0.2,1.3,0.8c-0.3,0.4-0.9,1.5-1.1,1.9c-0.4,0.8-0.5,1-1.2,1.1c-1,0.2-2.1,0.1-3.2,0.1
		c-0.2,0,0.3-0.8,0.5-1.4c0.7-1.3,1.1-2.2,1.7-2.4C128.2,91.8,128.4,91.7,128.7,91.7L128.7,91.7z M123.8,92.7c0.2,0,0.3,0.3,0.5,1.1
		c0.4,1.7,0.5,1.7-0.2,3.1c-0.3,0.7-0.9,1.9-1.2,2.4c-0.6,1.3-0.7,1.2-1.1,0.1c-0.8-2.2-0.8-1.9,0.4-4.4
		C123.1,93.5,123.5,92.7,123.8,92.7z M31.5,93.3l2.3,1.8l-0.6,0.6l-1.3-0.9l-1.8,2l3,2.8l2.6-2.6l2.2,2.3l-0.7,0.6l-1.3-1.3
		l-1.9,1.7l2.9,3.5l2.9-2.2l1.8,2.4l-0.7,0.5l-1.2-1.2l-1.9,1.3l2.4,3.4l3-1.7l1.7,2.8l-0.9,0.5l-1-1.5l-2.1,1.2l2,3.9l3.2-1.4
		l1.3,3l-1,0.4l-0.8-1.8l-2.2,0.9l1.4,4.1l3.3-0.9l0.8,3.1l-1,0.3l-0.5-1.7l-2.1,0.5l0.9,4.1l3.3-0.2l0.4,3.3l-1,0l-0.3-2l-2.1,0
		c0,0.7,0.1,2.1,0.1,2.1l-1.3-0.6c-1.9-12.7-8.6-23.3-18.7-30.7l-0.1-1.5l2.5,1.6C28.9,95.9,31.1,93.8,31.5,93.3L31.5,93.3z
		 M128.2,96.3c0.7,0,0.4,0.5-0.5,2.2c-1,1.8-1.1,1.9-2.9,2.3c-2.2,0.5-2.1,0.7-0.9-1.9c0.5-1,0.8-1.8,1.2-2.2
		c0.5-0.4,1.6-0.3,2.7-0.4C128,96.3,128.1,96.3,128.2,96.3L128.2,96.3z M26.6,96.8c10.5,6.8,17.1,20.9,17.9,29.5
		c0,0-0.3-0.2-0.9-0.5c-0.8-0.4-1-0.6-1.2-1.8c-2.1-10.5-7.9-19.3-15.8-25.6L26.6,96.8z M120.8,98.6c0.4-0.1,1.2,3.1,1,3.8
		c-0.2,0.5-1.7-0.7-2.3-0.9C119.2,101.3,120.5,98.6,120.8,98.6L120.8,98.6z M70.4,98.7l0,3.3c0,0,0.4-0.5,0.6-0.6
		c0.8-0.6,2,0.2,2,1.2c0.1,1.4-0.1,1.9-1.2,3.8c-0.3,0.6-0.8,1.3-0.8,1.3s-1.3-0.9-2.7-2.3c-1.5-1.5-1.2-3.5,0.1-3.5
		c0.4,0,0.7,0.1,1.1,0.2c-0.3-1-1.3-2.9-1.3-2.9L70.4,98.7z M111.3,101.2c0,0,0.7,0.9,1.5,3.3c0.7,2.3-0.4,4-2,3.1
		c-0.3-0.2-0.6-0.5-0.6-0.5c-0.1,1.1,0.1,3.1,0.1,3.1l-2.5-0.4c0,0,1.4-2.2,1.5-2.8c0,0-0.2,0.1-0.8,0.1c-2.5,0-2-3,0.9-4.7
		C109.8,102.2,111.3,101.2,111.3,101.2L111.3,101.2z M125.8,101.3c0.5,0,0.3,0.5-0.3,1.8c-0.7,1.4-0.5,1.3-1.9,0.5
		c-2-1-1.9-1.1,0.6-1.8C125,101.4,125.5,101.3,125.8,101.3z M89.8,101.7c2,0,3.5,2,3.2,4.8c-0.5,4.8-0.2,4.5,0.3,5
		c0.9,0.9-0.3,1.4-1.5,0.6c-0.8-0.6-1-1.2-1-3.8c0-3.1-0.1-3.8-1.2-3.6c-0.7,0.2-0.9,0.7-0.8,2.8c0.1,2.9-0.1,3.6-1.2,4.6
		c-1.2,0.9-2.4,0.1-1.4-0.5c0.5-0.6,0.6-1.3,0.4-3C86.4,107,85.6,101.6,89.8,101.7L89.8,101.7z M139.7,104.1
		c3.8,0.1,13.5,0.9,13.5,0.9l0.1,2.9c-0.4,0.3-7.6-0.8-13-0.7c-1.2,0-2.1,0.6-3,0.1c0.9,0.4,0.8,4.7-3,3.7c-3.2-1.2-1.7-5.6,2.5-6.7
		C137.8,104.1,138.7,104.1,139.7,104.1L139.7,104.1z M117.7,106l8.3,4.1c1.2,15.7,6.5,32.2,24.7,44.8c-3,2.1-10.4,7.4-18.8,11
		l-0.7-0.8c10.1-17.3,2.5-36.3-15.2-44.9C116,115.4,116.6,110.7,117.7,106z M146.7,108.7c1.6-0.1,2,0.1,2.1,0.8
		c0.1,0.7,0.6,0.8,1.2,0.6c1.5-0.5,2.3,2.1,1.1,3.2c-0.7,0.7-0.6,1,0,1c1.5,0,1.5,2-0.1,3.2c-0.6,0.5-0.6,0.7,0,1
		c1.1,0.6,0.9,1.7-0.5,2.6c-0.8,0.5-0.8,0.6-0.2,0.8c1.6,0.4,0,2.8-1.8,2.4c-0.7-0.2-1.4,0-2.1,0.4c-1.9,0.8-2.2,1-4.2,0.7
		c-1.8-0.3-2.6-0.9-3.1-2.5c-1-3.2-2.2-6.8-2.2-10.3c-0.2-2.2,3.4-4.1,5.1-4.2C143.6,108.1,145.2,108.6,146.7,108.7L146.7,108.7z
		 M33.7,108.7c1.9,0,3.4,1.6,3.4,3.5c0,1.9-1.5,3.5-3.4,3.5c-1.9,0-3.4-1.6-3.4-3.5C30.3,110.3,31.8,108.7,33.7,108.7z M71.9,109.7
		l-0.3,3c0,0,0.5-0.4,0.6-0.5c0.9-0.8,2.3,0.1,2,1.3c-0.1,1-1.9,4.1-2.6,4.8c0,0-2.8-3.1-3.1-3.7c-0.7-1.4,0.2-2.8,1.5-2.2
		c0.2,0.1,0.7,0.5,0.7,0.5l-0.9-2.9L71.9,109.7z M33.9,110c-1.2,0-2.4,0.8-2.2,1.8c0.1,0.4,0.8-0.2,1.4-0.6c0.5-0.3,1.1-0.4,1.6-0.1
		c0.5,0.2,0.7,0.6,1,1c0.2,0.3,0.5,0.5,0.7,0.4c0.1-0.2,0.1-0.4,0-0.5C36.2,110.6,35.1,109.9,33.9,110L33.9,110z M126.5,110.5
		l1.2,0.6c1.7,22.2,12.7,35.2,24.4,42.9l-0.9,0.6C136.9,145.3,127,128.8,126.5,110.5L126.5,110.5z M128.4,111.4c0,0,3.1,1.6,4.7,2.3
		l0.1,2l-1.1,0l-0.4-1.9l-2.2,0.2l0.7,4.6l3.6-0.4l0.5,2.8l-1.2,0.3l-0.6-1.7l-2.1,0.5l1.3,4.5l3.3-1.1l1,2.9l-1.1,0.4l-0.7-1.7
		l-2.1,0.8l1.7,4.4l3.4-1.1l1.4,2.8l-1,0.5l-1-1.7l-2,1.1l2.4,4.1l3.1-1.6l1.4,2.2l-1.1,0.8l-1-1.3l-1.7,1.1l2.6,3.6l2.6-2l2,2.3
		l-0.9,0.8l-1.3-1.4l-1.6,1.4l3.1,3.5l2.7-2.4l1.9,1.8l-0.6,0.6l-1.3-0.8l-1.7,1.9l3.3,2.9l2.6-2.9l2.2,1.7v1.2l-2-1l-1.3,2l3.3,2.5
		l0,1C134.3,142.3,129.4,124.5,128.4,111.4L128.4,111.4z M89.6,111.6c0.8,0,1.7,0.8,3.1,2.4c4,4.7,2.9,11.9-2.3,15.7
		c-0.8,0.5-1.1,0.5-2-0.3c-5.4-4.6-5.7-10.9-0.9-16.3C88.4,112.1,89,111.6,89.6,111.6L89.6,111.6z M108.7,112.2
		c1,1.5,2.2,3.1,2.4,4.9c-0.1,1.8-1.3,2.2-2.6,1.1c-0.2,1,0.4,2.8,0.4,2.8l-2.3-0.2c0,0,0.9-1.6,0.9-2.6c-1.6,1.1-2.8-0.3-2.6-1.5
		C105.4,114.8,107.1,113.4,108.7,112.2L108.7,112.2z M89.7,113.4c-0.2,0-0.4,0.1-0.7,0.4c-1.4,1.1-2.5,2.5-3.1,4
		c-1.2,3.1-0.4,6.6,2.3,9.3c1.4,1.4,1.9,1.3,4-1.6c1.8-2.4,2.1-5.4,1-8.1c-0.5-1.3-1.5-2.6-2.6-3.5
		C90.1,113.6,89.9,113.4,89.7,113.4L89.7,113.4z M133.7,114l1.8,0.9c2.3,15.1,9.6,24.3,17.8,30.7l0,1.4l-2.2-1.7l-2.6,2.8l-2.1-1.8
		l0.8-0.8l1.2,0.8l1.6-1.8l-3.1-2.8l-2.7,2.3l-2.2-2.3l0.7-0.6l1.5,1.4l1.7-1.5l-3-3.4l-2.7,2l-1.9-2.5l0.8-0.5l1,1.4l2.1-1.3
		l-2.2-3.4l-3.1,1.6l-1.6-2.9l0.9-0.4l1,1.6l1.9-0.9l-1.9-4l-3.2,1.1l-1.2-3.1l0.9-0.3l0.8,1.9l2.1-0.7l-1.5-4.3l-3.3,0.9l-0.8-3.2
		l1-0.2l0.5,1.7l2.3-0.5l-0.8-4.1l-3.4,0.4c-0.1-0.7-0.6-2.6-0.6-3.3l1-0.1l0.3,1.8l2.3-0.1L133.7,114z M89.8,114.3
		c1.2,0.2,2.7,2.6,3.1,3.4c0.6,1.7,0.7,3.7,0.1,5.3c-0.5,1.3-1.9,3.5-2.9,4.1c-0.7,0.4-1.4,0.1-2.4-1.4c-2.1-2.9-2.5-6.3-0.8-8.7
		C88.1,115.3,89,114.3,89.8,114.3L89.8,114.3z M136.1,115.1l0.9,0.4c1.1,8.8,6.2,20.8,16.3,28v1.1
		C145.5,138.8,138.2,129,136.1,115.1L136.1,115.1z M89.6,115.7c-3.5,2.7-3,6.9-0.3,9.7C92.2,123.4,93.2,118.3,89.6,115.7z
		 M35.9,115.8c2,0,3.2,0.7,3.8,2c0.9,2.2,1.1,2.6,1.3,3.7c0.1,0.6,0.3,1.6,0.4,2.2c1,5.9,0.3,8.1-3.3,9c-1.1,0.3-2.5,0.4-3.5,0.1
		c-0.3-0.1-1.3-0.1-2-0.1c-1.5-0.1-2-0.2-2.8-0.8c-0.3-0.2-0.5-0.4-0.9-0.5c-1.8-0.3-2.3-1.9-0.9-3.1c0.8-0.7,0.8-0.8,0.8-0.9
		c0-0.1-0.4-0.1-0.7-0.1c-1.8,0-1.8-1.9,0-3.2c0.8-0.6,1.2-1.2,0.7-1.1c-1.6,0.4-2.2-2-0.5-2.7c0.9-0.5,1.5-0.9,0.7-1
		c-0.7,0.1-1.3-0.5-1.1-1.1c0.3-0.8,1.8-1.5,2.6-1.2c0.7,0.2,1.3,0.4,1.7,0.1c1-0.7,1.5-1.1,2.3-1.2C35,115.9,35.5,115.8,35.9,115.8
		L35.9,115.8z M94.9,116.3l8.2,0.2l-0.2,8.1l-7.7-0.1C95.2,124.4,96.8,120.8,94.9,116.3L94.9,116.3z M76.6,116.5l7.8,0.1
		c-1.3,3-0.8,6.2-0.3,7.9l-7.6-0.1L76.6,116.5z M89.7,116.5c2.1,1.2,2.7,5.7-0.2,8C86.7,121.7,87.2,118.1,89.7,116.5z M70.4,120
		l2.1,0.2l-0.7,3c0,0,0.3-0.4,0.4-0.4c2.7-1.3,2.9,1.6,0.1,4.2c-0.6,0.6-1.6,1.4-1.6,1.4s-0.8-1.2-1.4-2.2c-0.7-1.1-1.2-2.2-1-2.8
		c0.2-0.9,1.2-1.5,1.9-0.9c0.3,0.3,0.7,0.7,0.7,0.7L70.4,120z M107.8,122.2c0,0,0.9,0.9,1.4,1.5c1.8,2,2.2,4,1.2,4.5
		c-0.8,0.4-1.3,0.1-2-0.4c0.1,1.3,1.1,3.1,1.1,3.1l-2.8,0.4c0,0,0.7-2.5,0.6-3.5c0,0-0.6,0.4-0.8,0.5c-1.8,0.7-2.7-1.4-1.2-3.5
		C106.7,123.3,107.8,122.2,107.8,122.2L107.8,122.2z M145.5,126.1c1.9,0,3.4,1.5,3.4,3.4s-1.5,3.4-3.4,3.4s-3.4-1.5-3.4-3.4
		C142.2,127.6,143.7,126.1,145.5,126.1z M147.2,127.6c-0.1,0-0.3,0.4-0.3,1.1c-0.2,1.5-1.4,2.1-2.8,1.4c-0.6-0.3-1-0.7-1-0.4
		c0,0.2,0.4,1.1,0.8,1.4c1.2,1.1,4,0.8,3.9-1.7C147.7,128.3,147.4,127.5,147.2,127.6L147.2,127.6z M86.3,128.9
		c0.4,0,0.8,0.1,1.1,0.4c0.9,0.6,1.1,1.4,1.1,4.5c0.1,2.7,0,2.8,0.4,3.1c1.1,0.8,1.7-0.4,1.4-3.1c-0.3-2.6,0.6-4.5,2.2-4.5
		c0.8,0,0.9,0.5,0.3,1c-0.6,0.6-0.8,1.4-0.6,2.9c0.5,3.9,0.1,5.8-1.6,6.6c-1.7,0.8-3.9-0.1-4.2-2.3c-0.2-1.4-0.2-3.1-0.1-4.7
		c0-1.7,0-1.9-0.6-2.8C85.5,129.2,85.8,128.9,86.3,128.9L86.3,128.9z M43.8,130.1c0.9,0,1.9,0.5,2.5,1.8c1.4,2.9-1.6,5.3-4.4,5.5
		c-4.8,0.1-10.5-0.6-15.4-1.3l0.1-2.8c4.4,0.3,9.4,0.6,14.8,0.9C40.8,131.7,42.3,130.1,43.8,130.1L43.8,130.1z M69.2,130.7l2.7,0.6
		l-1.7,2.8c0.5-0.2,0.9-0.4,1.4-0.2c1.1,0.4,1.1,1.8,0.3,3.1c-0.6,1-2.4,2.1-3.6,2.8c-0.7-1.5-2.2-4.1-1.6-5.5
		c0.3-0.8,1.2-1.1,2-0.7c0.3,0.2,0.8,0.4,0.8,0.4L69.2,130.7z M75.5,130.8l8.2,0.1c-1.2,8.4-3.5,19.5-8.1,28.6l-1.9,0.5
		c4-9,6.7-17.5,8-27h-4.1c-2.4,10.2-5.8,19.6-11.2,27.8L64,160C69.7,150.8,74.3,140.6,75.5,130.8L75.5,130.8z M94.2,130.9h9.1
		c1.7,17,7.4,28.6,15.8,40.1c0,0-0.5,0.1-0.8,0c-0.9-1.1-1.7-1.8-3-2.1c-7.1-10.4-11.9-24.8-13-35.9h-5.4
		c0.6,13.9,4.4,25.3,9.5,36.4l-2.8,0.5C99.5,160,95,151.4,94.2,130.9L94.2,130.9z M108.4,133c0.8,0.6,1.6,1.2,2.3,1.7
		c2.1,1.5,2,4.2,0,4.2c-0.2,0-0.7,0-0.7,0s0.8,1.8,1.3,2.7c-0.8,0.2-2.6,0.6-2.6,0.6s0.2-1.8,0.2-3.2c0,0-0.3,0.4-0.6,0.5
		c-1.3,0.6-2.4-0.6-2.3-2C106.3,135.6,108.4,133,108.4,133L108.4,133z M47.5,133.4l4.5,2.3c-3.1,7-6.6,13.6-11.6,18.6l0.1-16.3
		C43.2,137.9,46.1,137.9,47.5,133.4z M78.2,133.6h2.8c-1.2,13-9.7,30.5-11.3,32.7l-0.5,0.4c0,0-1.1-4-2.4-5.4
		C71.5,154.7,76.5,142.2,78.2,133.6z M97.6,133.6h4.2c1.3,10.3,4.5,21.5,12.5,35.1c0,0-0.8,0.1-1.4-0.3c-1.4-0.9-2.3,0.3-3.1,0.2
		c-1.3-0.1-1.5-0.1-2.8,0.2C100.2,154.7,98.4,143.6,97.6,133.6z M52.5,135.9l1.5,0.7c-3.2,7.5-6.1,13.4-13.7,20.7l0-2.2
		C45.7,150,49.3,143.1,52.5,135.9L52.5,135.9z M54.7,137c0.7,0.3,1.5,0.7,2.2,1.1c0.2,0.1,0.2,0.3,0.2,0.5c-0.3,0.7-1.5,1-2,1.2
		c-0.6,0.2-1.1,0.3-1.2,0.3c-0.6,0.2-0.4-0.5,0.3-1.9C54.4,137.4,54.5,137,54.7,137L54.7,137z M57.7,138.6c0.4,0,2.2,1,2.6,1.3
		c0.1,0.4-0.3,1.1-0.8,2.3c-0.9,1.9-1,2-1.3,0.4c0-0.3-0.3-1.2-0.5-1.8C57.3,139.5,57.3,138.7,57.7,138.6L57.7,138.6z M60.9,140.1
		c0,0,1,0.5,1.4,0.7c-4.7,14.1-17.1,25.8-17,25.6l-1.9-1.2C51.6,157.7,57.7,148.8,60.9,140.1L60.9,140.1z M56,140.3
		c0.5,0,0.1,0.6-0.6,1.9c-0.6,1.3-0.8,1.8-1.3,2c-0.8,0.3-1.9,0.3-2.9,0.5c-0.4,0.1-0.2-0.3,0.4-1.6c0.8-1.6,0.8-1.9,2-2.2
		C54.4,140.8,55.3,140.3,56,140.3L56,140.3z M57.6,143.1c0.5,1.8,0.5,2.1,0.1,2.7c-0.6,1.1-1.4,2.5-1.6,2.8c-0.5,0.9-0.7,0.7-1-1.5
		c-0.2-1.4-0.4-2-0.2-2.6c0.3-0.7,1.1-2.2,1.5-3.2C57.1,139.5,57.5,142.9,57.6,143.1z M66.2,141.6l2.5,0.8l-1.9,2.3
		c0,0,0.8-0.1,0.9-0.1c1.9,0.1,1.6,2.1,0.1,3.2c-0.6,0.6-3.7,2-3.7,2c-0.3-1.7-1-2.8-0.8-4.6c0.1-1,0.2-1.8,1.4-1.8
		c0.6,0,0.9,0.6,1.3,1.1L66.2,141.6z M110.7,143.7c0,0,1.5,0.8,2.8,1.8c1.8,1.4,2.1,3,0.3,3.6c-0.2,0.1-0.8,0-0.8,0
		c0.5,0.9,1.7,2.2,1.7,2.2c-0.6,0.4-1.4,0.7-2.3,1c0,0-0.2-2.2-0.4-3c0,0-0.2,0.5-0.5,0.7c-1.7,1.1-3.1-1-2.1-3.5
		C109.8,145,110.7,143.7,110.7,143.7L110.7,143.7z M91.8,144.1c4.3-0.1,1.8,7-0.4,6.5c0-0.1,1.8-4.2-0.7-4.9
		C89.6,145.4,90.6,144,91.8,144.1L91.8,144.1z M84.7,144.6c1.3,0,2.3,0.9,1,1.5c-2,0.9-0.8,3.2-0.8,4.5c0,0.8-1.8-0.7-2.2-2.3
		C82.3,146.3,82.5,144.7,84.7,144.6L84.7,144.6z M53,145.3c0.3,0,0.5,0,0.6,0.1c0.1,0.3-0.5,1.4-1.3,2.7c-0.5,0.7-0.7,0.9-0.9,1.1
		c-0.7,0.4-1.6,0.3-2.4,0.3c-1.2,0-1,0,0.3-2.1c0.6-0.9,1-1.7,1.3-1.9C50.6,145.5,52.1,145.3,53,145.3L53,145.3z M54.5,146.8
		c0,2.6,0.9,3.4,0.2,4.2c-0.8,1.3-1.8,2.6-2.1,3.1c-0.6,0.7-0.5,0.6-0.7-1.3c-0.1-1.4-0.2-2.3-0.1-2.8c0.5-1.3,1.1-1.9,1.8-3.2
		C54.2,145.7,54.5,145.9,54.5,146.8L54.5,146.8z M88.4,148.1c1.2,0,2,1.4,2,2.6l-0.1,1.2c1.6-0.6,3.6,0,3.7,1.6
		c0.2,2.7-1.8,2.4-3.5,2.3c0.2,0.1,0.4,2.4-0.6,3.4c-1.6,1.8-4.5,0-3.7-2.6c0.2-0.5,0.2-0.9,0.2-0.9s-1,0.4-1.4,0.4
		c-3.2-0.1-2.9-4.7,0.3-4.1c0.6,0.1,1.1,0.3,1.1,0.3s-0.1-0.3-0.2-0.7C85.7,149.6,86.7,148.1,88.4,148.1L88.4,148.1z M151.6,148.9
		l1.7,1v1.9l-2.4-1.8L151.6,148.9z M49.5,150.2c0.7,0,1.2,0,1.1,0.2c0,0.3-1.5,2.4-2.3,3.4c-0.7,0.8-0.8,0.7-2.7,0.6
		c-0.7,0-1.2,0-1.2-0.2c0.8-1.1,2-2.5,2.8-3.7C47.5,150.3,48.6,150.2,49.5,150.2z M51.1,151.1c0.1,0,0.2,0.3,0.2,0.9
		c0,0.5,0.1,1.8,0.1,2.5c0.1,1.1,0.1,1.1-0.3,1.8c-0.6,0.6-1.1,1.5-1.9,2.2c-1.1,1.2-1,1.3-1-1.3c0-2.1-0.1-2.1,0.3-2.5
		c0.2-0.3,0.9-1.1,1.4-1.8C50.6,151.7,51,151.1,51.1,151.1L51.1,151.1z M61.7,151.4l2.3,1.2l-2.3,2.3c0,0,0.6,0,0.8,0
		c1.5,0.3,1.3,1.8-0.1,3c-0.9,0.6-4,1.7-4,1.7c-0.1-1.3-0.4-2.5-0.3-3.9c0-0.7,0.1-1.4,0.6-1.9c0.3-0.4,0.9-0.6,1.7-0.1
		c0.4,0.4,0.6,0.8,0.6,0.8L61.7,151.4z M88.4,152.2c-0.9,0-1.6,0.7-1.6,1.6s0.7,1.6,1.6,1.6s1.6-0.7,1.6-1.6S89.3,152.2,88.4,152.2z
		 M113.7,152.6c0,0,3,1.1,4.3,2.4c1.2,1.1,0.7,2.8-0.6,2.8c-0.1,0-0.6-0.1-0.6-0.1c0.4,0.6,1.8,2.2,1.8,2.2l-2.3,0.9
		c0,0-0.4-1.8-0.7-2.8c-0.8,1.9-2.8,0.7-2.9-0.5C112.5,155.9,113.2,154.2,113.7,152.6L113.7,152.6z M88.4,152.8
		c0.6,0,1.1,0.5,1.1,1.1S89,155,88.4,155s-1.1-0.5-1.1-1.1C87.3,153.3,87.8,152.8,88.4,152.8z M44.6,155.1c0.8,0,1.8,0,2.2,0.1
		c0.3,0.3-0.4,1.1-1.7,2.5c-1.1,1.2-1.3,1-2.6,1c-2.2,0-2.3,0-1.3-1.1c1.1-1.3,1.8-2.1,2.3-2.4C43.7,155.1,44.1,155.1,44.6,155.1
		L44.6,155.1z M47.3,156.2c0.2,0,0.2,0.6,0.1,1.9l-0.1,2.3l-1.7,1.7c-2,1.8-1.8,1.9-1.8,0.2c0-1.4,0-2.3,0.3-2.9
		c0.9-1.1,1.8-2,2.8-3C47.2,156.3,47.3,156.2,47.3,156.2L47.3,156.2z M91.6,156.8c0.5,0,1.7,2.1,2,3.9c0.7,4.1,3.1,6,4.8,4.4
		c0.7-1,0.8,0.1,0.7,0.6c-0.4,5.2-6.2,3-6.8-2.1c-2,1.3-3.9-1.4-2.7-1.3C92.6,161.3,91.8,158.6,91.6,156.8L91.6,156.8z M84.9,156.8
		c0.3,1.8-2.9,4.9-4.7,2.7c-0.9-1.1-0.1-3.4,1.1-2C82.5,158.5,83.8,157.4,84.9,156.8L84.9,156.8z M40.9,159.3c0.7,0,1.6,0.1,2,0.1
		c0.6,0.1,0.2,0.3-1.1,1.5c-1.1,1-1.4,1.5-1.5,1c-0.1-0.7,0-1.5,0-2.5C40.4,159.3,40.6,159.3,40.9,159.3L40.9,159.3z M55.8,160.5
		l2,1.4l-1.9,1.8c1.7-0.1,1.9,1.6,1.2,2.5c-0.4,0.6-2.1,1.3-3.7,1.6c-1,0.2-1.8,0.3-1.8,0.3s0-0.8-0.1-2.1c-0.1-2.6,0.1-3.7,1.1-4.2
		c0.7-0.4,1.9,0.2,2.2,0.9c0.1,0.2,0.4,0.6,0.4,0.6L55.8,160.5z M43.3,160.6C43.3,160.6,43.3,160.6,43.3,160.6
		c0.1,0.2-0.3,4.4-0.3,4.4l-2.8-1.6C40.2,163.4,43,160.7,43.3,160.6L43.3,160.6z M118.1,161.1c2,1,3.5,0.8,4.9,2
		c1.2,0.6,0.8,2.3,0,2.7c-0.4,0.1-1,0.1-1,0.1c0.7,0.9,2.3,2,2.3,2l-2.5,1c0,0-0.3-1.7-0.7-2.6c-0.5,1.4-2,1.3-2.9,0.7
		c-0.6-0.5-0.9-2.1-0.6-3.5C117.8,163.2,118.1,161.1,118.1,161.1L118.1,161.1z M104.9,200.9c-24.5,5.9-44.3,2.2-46.3,1.5l-1.6,2.3
		c-0.2,0.4-0.3,1.6-1.4,1.9l-1.6,2.4l0.3,0.3l-1.4,1.2l0.3,0.4l-1,1.5l-0.4,0l-2.4,3.6l0.4,0.4l-5.4,8.6l73.5,0
		C113.7,217,109.1,209,104.9,200.9L104.9,200.9z M104.5,201.9l0.4,1.2c-1.2-0.2-2.6-0.2-4.1-0.3
		C102.1,202.6,103.3,202.3,104.5,201.9z M100.2,203c-2.3,1.1-3.7,2.4-4.8,3.8c-1.3-1-3-1.8-5.1-2.3L100.2,203z M58.9,203.6l1,0.1
		c0,0-0.3,0.3-0.6,0.2C59.1,203.9,58.9,203.6,58.9,203.6z M105.7,204.2l0.7,1.3c-1.6-0.9-8.4-2.8-10.3,4c-2-2.8-10.4-6.8-14.7,1.8
		c-1.2-2.3-8.2-9-14.7-0.5c-2.5-5.3-4.6-5.7-9.3-5c3.3-3.2,7.9,0.1,9.9,2.9c5.5-4.6,10.2-3.2,14.2,0.5c5.2-5.7,10.4-4.4,14.1-1.5
		C98.2,203.9,100.7,202.7,105.7,204.2L105.7,204.2z M62.9,204.2c3.3,0.4,6.6,0.7,9.9,0.8c-1.9,0.7-3.9,1.3-5.4,2.7
		C66.2,206.1,64.6,205.2,62.9,204.2L62.9,204.2z M86.7,204.8c-1.8,0.9-3.7,2.1-5.3,3.5c-1.7-1.4-3.4-2.6-5.3-3.2
		C79.6,205.2,83.4,205.1,86.7,204.8L86.7,204.8z M107.8,207.5c0,0-0.7,0.1-0.9,0.2c-2.9,0.8-2.3,4.9,0.7,4.9c0.3,0,1-0.1,1-0.1
		c-0.1,2.8,0.8,3.5,3.6,3.3l4.8,8.7l-71-0.3l4.5-7.3c2.3,0.3,3.7-1,3.2-3c0,0,1.4,0.4,1.8,0.4c2.6,0,3.2-4,0.8-4.7
		c-0.3-0.1-1-0.2-1-0.2c1.1-2.8,4.2-1.2,5.1,0c2-1.7,4.2-0.9,5.1,1.2c0,0-0.4-0.2-0.5-0.3c-2.3-1.7-4.5,1.8-2.2,3.5
		c0.2,0.2,0.7,0.3,0.7,0.3s-0.3,0.2-0.5,0.7c-1.2,2,0.7,4.5,3,3.8c1.8-0.7,1.8-2,1.8-3.5c0,0,0.6,0,1.2,0.1c2.1,0,2.7-2.7,1.4-4
		c-0.7-0.7-1.6-0.6-2.1-0.7c2.5-2.4,4.1-0.8,5.8,0.4c0.3,0,3-3.3,6.3-0.1c-1.6-0.4-3.2,0.6-3.2,2.3c0,1.1,0.8,2,2.4,2.1
		c-0.2,0.5-0.3,0.9-0.3,1.5c0,1.7,1.3,2.8,3,2.6c1.4-0.2,2.5-1.8,2-3.2c-0.2-0.6-0.5-0.8-0.5-0.8c3.8,0.5,3.8-4.4,0.8-4.7
		c-0.7-0.1-1.3,0.2-2,0.9c1.8-3.6,5-2.9,6.2-1.4c1.6-1.2,3.9-2.9,6.6,0.1c-0.4-0.1-1.1-0.1-1.6,0c-2.2,0.6-2.2,3.3-0.5,4.2
		c0.5,0.2,1.1,0.4,1.7,0.4c-0.6,2.3,2,4,3.8,2.9c1.3-0.8,1.6-2.7,0.2-4.4c2.4-0.1,2.6-3.1,1.2-4.1c-1.1-0.8-2.3-0.4-3.2,0.7
		c-0.3-0.9,2-3.8,5.3-1.7C104,206.4,105.8,206,107.8,207.5L107.8,207.5z M108.8,209.8l0.9,1.7C109.1,211.5,108.2,210.9,108.8,209.8z
		 M96.9,211.5c0.6,0,1,0.5,1,1.1c0,0.6-0.5,1.1-1,1.1c-0.6,0-1-0.5-1-1.1C95.8,212,96.3,211.5,96.9,211.5z M53.8,211.6
		c0.1,0.6,0.2,1.1-0.8,1.2L53.8,211.6z M65.8,212.6c0.5,0,1,0.4,1,1s-0.4,1-1,1s-1-0.4-1-1C64.8,213,65.2,212.6,65.8,212.6z
		 M81.7,212.9c0.6,0,1,0.5,1,1c0,0.6-0.5,1-1,1c-0.6,0-1-0.5-1-1C80.7,213.4,81.1,212.9,81.7,212.9z"/>
	<path id="path153-6-3-1-9-0-4-7_1_" d="M48.7,22.6
		c-7.3,10.5-15.2,16.5-15.3,24.7c0,2.7,1.4,7.2,5.9,8c2.9,0.6,6.9-1.8,7-6.6c0-1,1-0.9,1,0.4c-0.1,3.8-1.3,8.2-3.3,11.8
		c3.2,0,6.4,0,9.6,0c-2-3.6-3.2-8-3.3-11.8c0-1.3,1-1.3,1-0.4c0.1,4.8,4.1,7.1,7,6.6c4.5-0.9,5.9-5.4,5.9-8
		C63.9,39.1,56.1,33.1,48.7,22.6L48.7,22.6z"/>
	<path id="path153-6-3-1-8-6-4-8-4_1_" d="M131.2,219.1
		c-7.3-10.5-15.2-16.5-15.3-24.7c0-2.7,1.4-7.2,5.9-8c2.9-0.6,6.9,1.8,7,6.6c0,1,1,0.9,1-0.4c-0.1-3.8-1.3-8.2-3.3-11.8
		c3.2,0,6.4,0,9.6,0c-2,3.6-3.2,8-3.3,11.8c0,1.3,1,1.3,1,0.4c0.1-4.8,4.1-7.1,7-6.6c4.5,0.9,5.9,5.4,5.9,8
		C146.4,202.6,138.5,208.6,131.2,219.1L131.2,219.1z"/>
</g>
</svg>
