<!-- Generator: Adobe Illustrator 19.2.1, SVG Export Plug-In  -->
<svg version="1.1"
	 xmlns="http://www.w3.org/2000/svg" xmlns:xlink="http://www.w3.org/1999/xlink" xmlns:a="http://ns.adobe.com/AdobeSVGViewerExtensions/3.0/"
	 x="0px" y="0px" width="166.3px" height="226.6px" viewBox="0 0 166.3 226.6" style="enable-background:new 0 0 166.3 226.6;"
	 xml:space="preserve">
<defs>
</defs>
<g id="g5468_1_" transform="matrix(0.99999718,0,0,1.000002,1.0020682,-5.5505123)">
	<path id="path147-0-8-1-6-13-2-5-7-1_1_" d="M123.4,20.9
		c-7.8,0.2-11.3,9-5.5,15.8c0.8,1,0.9,1.6-0.6,0.6c-3.9-2.6-11.4-0.9-11.8,7.1c-0.5,9.8,13.3,12.7,15.8,2.2c0.1-1.1,1-1.1,0.8,0.5
		c-0.2,4.2-1.6,8.2-3.4,12.1c3.1,0,6.5,0,9.3,0c-1.8-3.9-3.1-7.8-3.4-12.1c-0.2-1.6,0.7-1.6,0.8-0.5c2.6,10.4,16.3,7.6,15.8-2.2
		c-0.4-8-7.9-9.7-11.8-7.1c-1.5,1-1.5,0.4-0.6-0.6C134.7,29.9,131.2,21.1,123.4,20.9C123.4,20.9,123.4,20.9,123.4,20.9L123.4,20.9z"
		/>
	
		<path id="path147-0-8-1-6-75-2-83-8-8-7_1_" d="
		M40.9,20.9c-7.8,0.2-11.3,9-5.5,15.8c0.8,1,0.9,1.6-0.6,0.6c-3.9-2.6-11.4-0.9-11.8,7.1c-0.5,9.8,13.3,12.7,15.8,2.2
		c0.1-1.1,1-1.1,0.8,0.5c-0.2,4.2-1.6,8.2-3.4,12.1c3.1,0,6.5,0,9.3,0c-1.8-3.9-3.1-7.8-3.4-12.1c-0.2-1.6,0.7-1.6,0.8-0.5
		c2.6,10.4,16.3,7.6,15.8-2.2c-0.4-8-7.9-9.7-11.8-7.1c-1.5,1-1.5,0.4-0.6-0.6C52.2,29.9,48.7,21.1,40.9,20.9
		C40.9,20.9,40.9,20.9,40.9,20.9L40.9,20.9z"/>
	<path id="path147-0-8-1-6-7-5-5-7-8-7-8_1_" d="
		M123.4,217.4c-7.8-0.2-11.3-9-5.5-15.8c0.8-1,0.9-1.6-0.6-0.6c-3.9,2.6-11.4,0.9-11.8-7.1c-0.5-9.8,13.3-12.7,15.8-2.2
		c0.1,1.1,1,1.1,0.8-0.5c-0.2-4.2-1.6-8.2-3.4-12.1c3.1,0,6.5,0,9.3,0c-1.8,3.9-3.1,7.8-3.4,12.1c-0.2,1.6,0.7,1.6,0.8,0.5
		c2.6-10.4,16.3-7.6,15.8,2.2c-0.4,8-7.9,9.7-11.8,7.1c-1.5-1-1.5-0.4-0.6,0.6C134.7,208.4,131.2,217.3,123.4,217.4
		C123.4,217.4,123.4,217.4,123.4,217.4L123.4,217.4z"/>
	
		<path id="path147-0-8-1-6-75-6-1-2-0-6-8_1_" d="
		M40.9,217.4c-7.8-0.2-11.3-9-5.5-15.8c0.8-1,0.9-1.6-0.6-0.6c-3.9,2.6-11.4,0.9-11.8-7.1c-0.5-9.8,13.3-12.7,15.8-2.2
		c0.1,1.1,1,1.1,0.8-0.5c-0.2-4.2-1.6-8.2-3.4-12.1c3.1,0,6.5,0,9.3,0c-1.8,3.9-3.1,7.8-3.4,12.1c-0.2,1.6,0.7,1.6,0.8,0.5
		c2.6-10.4,16.3-7.6,15.8,2.2c-0.4,8-7.9,9.7-11.8,7.1c-1.5-1-1.5-0.4-0.6,0.6C52.2,208.4,48.7,217.3,40.9,217.4
		C40.9,217.4,40.9,217.4,40.9,217.4L40.9,217.4z"/>
	<path id="path147-0-8-1-6-7-5-7-3-0-9-6-4_1_" d="
		M123.4,100c-7.8,0.2-11.3,9-5.5,15.8c0.8,1,0.9,1.6-0.6,0.6c-3.9-2.6-11.4-0.9-11.8,7.1c-0.5,9.8,13.3,12.7,15.8,2.2
		c0.1-1.1,1-1.1,0.8,0.5c-0.2,4.2-1.6,8.2-3.4,12.1c3.1,0,6.5,0,9.3,0c-1.8-3.9-3.1-7.8-3.4-12.1c-0.2-1.6,0.7-1.6,0.8-0.5
		c2.6,10.4,16.3,7.6,15.8-2.2c-0.4-8-7.9-9.7-11.8-7.1c-1.5,1-1.5,0.4-0.6-0.6C134.7,109,131.2,100.2,123.4,100
		C123.4,100,123.4,100,123.4,100L123.4,100z"/>
	
		<path id="path147-0-8-1-6-75-6-6-5-3-0-0-2_1_" d="
		M40.9,100c-7.8,0.2-11.3,9-5.5,15.8c0.8,1,0.9,1.6-0.6,0.6c-3.9-2.6-11.4-0.9-11.8,7.1c-0.5,9.8,13.3,12.7,15.8,2.2
		c0.1-1.1,1-1.1,0.8,0.5c-0.2,4.2-1.6,8.2-3.4,12.1c3.1,0,6.5,0,9.3,0c-1.8-3.9-3.1-7.8-3.4-12.1c-0.2-1.6,0.7-1.6,0.8-0.5
		c2.6,10.4,16.3,7.6,15.8-2.2c-0.4-8-7.9-9.7-11.8-7.1c-1.5,1-1.5,0.4-0.6-0.6C52.2,109,48.7,100.2,40.9,100
		C40.9,100,40.9,100,40.9,100L40.9,100z"/>
	<path id="path147-6-9-8-7-0-5-6-4-2-8_1_" d="M157.3,203.3
		c3.1-0.1,4.5-3.7,2.2-6.6c-0.3-0.4-0.4-0.7,0.2-0.3c1.6,1.1,4.6,0.4,4.7-2.9c0.2-4.1-5.3-5.3-6.3-0.9c-0.1,0.5-0.4,0.4-0.3-0.2
		c0.1-1.8,0.6-3.4,1.4-5c-1.2,0-2.5,0-3.7,0c0.7,1.6,1.3,3.3,1.4,5c0.1,0.7-0.3,0.7-0.3,0.2c-1-4.4-6.5-3.2-6.3,0.9
		c0.2,3.3,3.1,4,4.7,2.9c0.6-0.4,0.6-0.2,0.2,0.3C152.8,199.6,154.2,203.2,157.3,203.3C157.3,203.3,157.3,203.3,157.3,203.3
		L157.3,203.3z"/>
	<path id="path147-6-9-8-7-4-5-62-0-2-9_1_" d="M7,34.4
		c-3.1,0.1-4.5,3.7-2.2,6.6c0.3,0.4,0.4,0.7-0.2,0.3c-1.6-1.1-4.6-0.4-4.7,2.9c-0.2,4.1,5.3,5.3,6.3,0.9c0.1-0.5,0.4-0.4,0.3,0.2
		c-0.1,1.8-0.6,3.4-1.4,5c1.2,0,2.5,0,3.7,0c-0.7-1.6-1.3-3.3-1.4-5c-0.1-0.7,0.3-0.7,0.3-0.2c1,4.4,6.5,3.2,6.3-0.9
		c-0.2-3.3-3.1-4-4.7-2.9c-0.6,0.4-0.6,0.2-0.2-0.3C11.5,38.1,10.1,34.4,7,34.4C7,34.4,7,34.4,7,34.4L7,34.4z"/>
	<path id="path23-8-1-4_1_" d="M-0.8,23.8c-0.3-2.2-0.3-7.9-0.1-9.6C0,8.9,2,6.6,5.3,5.8
		C8.5,5,13,5.9,14,10.2l-2.7,0.1C9.9,7.3,6.2,8.1,4.1,9.4c-1.7,1-2.4,5.3-2.1,5.5c0,0,3.1-2.3,5.6-2.2c5.3,0.6,7.5,5.1,7.3,9.5
		c-0.2,5.2-1.8,9.4-7.4,9.6C2.2,31.7-0.2,28.8-0.8,23.8L-0.8,23.8L-0.8,23.8z M12.4,22.4c0-3.6-1.6-6.3-4.7-6.6
		c-3.1-0.3-6.2,2.7-6,6.4C1.9,25.9,3.3,29,7,29C11.1,29,12.3,25,12.4,22.4L12.4,22.4L12.4,22.4z"/>
	<path id="path23-6-8-9-6_1_" d="M165,213.9c0.3,2.2,0.3,7.9,0.1,9.6c-0.8,5.2-2.8,7.6-6.1,8.3
		c-3.2,0.8-7.7-0.1-8.7-4.4l2.7-0.1c1.5,2.9,5.1,2.1,7.2,0.9c1.7-1,2.4-5.3,2.1-5.5c0,0-3.1,2.3-5.6,2.2c-5.3-0.6-7.5-5.1-7.3-9.5
		c0.2-5.2,1.8-9.4,7.4-9.6C162.1,206,164.5,208.9,165,213.9L165,213.9L165,213.9z M151.9,215.3c0,3.6,1.6,6.3,4.7,6.6
		c3.1,0.3,6.2-2.7,6-6.4c-0.2-3.7-1.6-6.8-5.4-6.8C153.2,208.7,151.9,212.7,151.9,215.3L151.9,215.3L151.9,215.3z"/>
</g>
</svg>
