<!-- Generator: Adobe Illustrator 19.2.1, SVG Export Plug-In  -->
<svg version="1.1"
	 xmlns="http://www.w3.org/2000/svg" xmlns:xlink="http://www.w3.org/1999/xlink" xmlns:a="http://ns.adobe.com/AdobeSVGViewerExtensions/3.0/"
	 x="0px" y="0px" width="167.4px" height="226.6px" viewBox="0 0 167.4 226.6" style="enable-background:new 0 0 167.4 226.6;"
	 xml:space="preserve">
<defs>
</defs>
<g id="g5495_1_" transform="matrix(0.99999718,0,0,1.000002,-0.9898215,-5.5505123)">
	<path id="path147-0-8-1-6-13-2-2-3-8_1_" d="M125.9,20.9
		c-7.8,0.2-11.3,9-5.5,15.8c0.8,1,0.9,1.6-0.6,0.6c-3.9-2.6-11.4-0.9-11.8,7.1c-0.5,9.8,13.3,12.7,15.8,2.2c0.1-1.1,1-1.1,0.8,0.5
		c-0.2,4.2-1.6,8.2-3.4,12.1c3.1,0,6.5,0,9.3,0c-1.8-3.9-3.1-7.8-3.4-12.1c-0.2-1.6,0.7-1.6,0.8-0.5c2.6,10.4,16.3,7.6,15.8-2.2
		c-0.4-8-7.9-9.7-11.8-7.1c-1.5,1-1.5,0.4-0.6-0.6C137.3,29.9,133.8,21.1,125.9,20.9C125.9,20.9,125.9,20.9,125.9,20.9L125.9,20.9z"
		/>
	
		<path id="path147-0-8-1-6-75-2-83-9-8-9_1_" d="
		M43.5,20.9c-7.8,0.2-11.3,9-5.5,15.8c0.8,1,0.9,1.6-0.6,0.6c-3.9-2.6-11.4-0.9-11.8,7.1c-0.5,9.8,13.3,12.7,15.8,2.2
		c0.1-1.1,1-1.1,0.8,0.5c-0.2,4.2-1.6,8.2-3.4,12.1c3.1,0,6.5,0,9.3,0c-1.8-3.9-3.1-7.8-3.4-12.1c-0.2-1.6,0.7-1.6,0.8-0.5
		c2.6,10.4,16.3,7.6,15.8-2.2c-0.4-8-7.9-9.7-11.8-7.1c-1.5,1-1.5,0.4-0.6-0.6C54.8,29.9,51.3,21.1,43.5,20.9
		C43.5,20.9,43.5,20.9,43.5,20.9L43.5,20.9z"/>
	<path id="path147-0-8-1-6-7-5-5-7-62-3-0_1_" d="
		M125.9,217.4c-7.8-0.2-11.3-9-5.5-15.8c0.8-1,0.9-1.6-0.6-0.6c-3.9,2.6-11.4,0.9-11.8-7.1c-0.5-9.8,13.3-12.7,15.8-2.2
		c0.1,1.1,1,1.1,0.8-0.5c-0.2-4.2-1.6-8.2-3.4-12.1c3.1,0,6.5,0,9.3,0c-1.8,3.9-3.1,7.8-3.4,12.1c-0.2,1.6,0.7,1.6,0.8,0.5
		c2.6-10.4,16.3-7.6,15.8,2.2c-0.4,8-7.9,9.7-11.8,7.1c-1.5-1-1.5-0.4-0.6,0.6C137.3,208.4,133.8,217.3,125.9,217.4
		C125.9,217.4,125.9,217.4,125.9,217.4L125.9,217.4z"/>
	
		<path id="path147-0-8-1-6-75-6-1-2-41-4-5_1_" d="
		M43.5,217.4c-7.8-0.2-11.3-9-5.5-15.8c0.8-1,0.9-1.6-0.6-0.6c-3.9,2.6-11.4,0.9-11.8-7.1c-0.5-9.8,13.3-12.7,15.8-2.2
		c0.1,1.1,1,1.1,0.8-0.5c-0.2-4.2-1.6-8.2-3.4-12.1c3.1,0,6.5,0,9.3,0c-1.8,3.9-3.1,7.8-3.4,12.1c-0.2,1.6,0.7,1.6,0.8,0.5
		c2.6-10.4,16.3-7.6,15.8,2.2c-0.4,8-7.9,9.7-11.8,7.1c-1.5-1-1.5-0.4-0.6,0.6C54.8,208.4,51.3,217.3,43.5,217.4
		C43.5,217.4,43.5,217.4,43.5,217.4L43.5,217.4z"/>
	<path id="path147-0-8-1-6-2-00-7-5-5-3_1_" d="M84.7,60.5
		c-7.8,0.2-11.3,9-5.5,15.8c0.8,1,0.9,1.6-0.6,0.6C74.7,74.3,67.2,76,66.8,84c-0.5,9.8,13.3,12.7,15.8,2.2c0.1-1.1,1-1.1,0.8,0.5
		c-0.2,4.2-1.6,8.2-3.4,12.1c3.1,0,6.5,0,9.3,0c-1.8-3.9-3.1-7.8-3.4-12.1c-0.2-1.6,0.7-1.6,0.8-0.5c2.6,10.4,16.3,7.6,15.8-2.2
		c-0.4-8-7.9-9.7-11.8-7.1c-1.5,1-1.5,0.4-0.6-0.6C96,69.4,92.5,60.6,84.7,60.5C84.7,60.5,84.7,60.5,84.7,60.5L84.7,60.5z"/>
	<path id="path147-0-8-1-6-7-5-7-3-0-4-4-6_1_" d="
		M125.9,100c-7.8,0.2-11.3,9-5.5,15.8c0.8,1,0.9,1.6-0.6,0.6c-3.9-2.6-11.4-0.9-11.8,7.1c-0.5,9.8,13.3,12.7,15.8,2.2
		c0.1-1.1,1-1.1,0.8,0.5c-0.2,4.2-1.6,8.2-3.4,12.1c3.1,0,6.5,0,9.3,0c-1.8-3.9-3.1-7.8-3.4-12.1c-0.2-1.6,0.7-1.6,0.8-0.5
		c2.6,10.4,16.3,7.6,15.8-2.2c-0.4-8-7.9-9.7-11.8-7.1c-1.5,1-1.5,0.4-0.6-0.6C137.3,109,133.8,100.2,125.9,100
		C125.9,100,125.9,100,125.9,100L125.9,100z"/>
	
		<path id="path147-0-8-1-6-75-6-6-5-3-2-4-8_1_" d="
		M43.5,100c-7.8,0.2-11.3,9-5.5,15.8c0.8,1,0.9,1.6-0.6,0.6c-3.9-2.6-11.4-0.9-11.8,7.1c-0.5,9.8,13.3,12.7,15.8,2.2
		c0.1-1.1,1-1.1,0.8,0.5c-0.2,4.2-1.6,8.2-3.4,12.1c3.1,0,6.5,0,9.3,0c-1.8-3.9-3.1-7.8-3.4-12.1c-0.2-1.6,0.7-1.6,0.8-0.5
		c2.6,10.4,16.3,7.6,15.8-2.2c-0.4-8-7.9-9.7-11.8-7.1c-1.5,1-1.5,0.4-0.6-0.6C54.8,109,51.3,100.2,43.5,100
		C43.5,100,43.5,100,43.5,100L43.5,100z"/>
	<path id="path147-0-8-1-6-2-0-8-6-42-9-6_1_" d="
		M84.7,177.9c-7.8-0.2-11.3-9-5.5-15.8c0.8-1,0.9-1.6-0.6-0.6c-3.9,2.6-11.4,0.9-11.8-7.1c-0.5-9.8,13.3-12.7,15.8-2.2
		c0.1,1.1,1,1.1,0.8-0.5c-0.2-4.2-1.6-8.2-3.4-12.1c3.1,0,6.5,0,9.3,0c-1.8,3.9-3.1,7.8-3.4,12.1c-0.2,1.6,0.7,1.6,0.8,0.5
		c2.6-10.4,16.3-7.6,15.8,2.2c-0.4,8-7.9,9.7-11.8,7.1c-1.5-1-1.5-0.4-0.6,0.6C96,168.9,92.5,177.7,84.7,177.9
		C84.7,177.9,84.7,177.9,84.7,177.9L84.7,177.9z"/>
	<path id="path147-6-9-8-7-0-5-6-1-6-9_1_" d="M159.9,203.3
		c3.1-0.1,4.5-3.7,2.2-6.6c-0.3-0.4-0.4-0.7,0.2-0.3c1.6,1.1,4.6,0.4,4.7-2.9c0.2-4.1-5.3-5.3-6.3-0.9c-0.1,0.5-0.4,0.4-0.3-0.2
		c0.1-1.8,0.6-3.4,1.4-5c-1.2,0-2.5,0-3.7,0c0.7,1.6,1.3,3.3,1.4,5c0.1,0.7-0.3,0.7-0.3,0.2c-1-4.4-6.5-3.2-6.3,0.9
		c0.2,3.3,3.1,4,4.7,2.9c0.6-0.4,0.6-0.2,0.2,0.3C155.4,199.6,156.8,203.2,159.9,203.3L159.9,203.3L159.9,203.3z"/>
	<path id="path147-6-9-8-7-4-5-62-4-0-0_1_" d="M9.5,34.4
		C6.4,34.4,5,38.1,7.3,41c0.3,0.4,0.4,0.7-0.2,0.3c-1.6-1.1-4.6-0.4-4.7,2.9c-0.2,4.1,5.3,5.3,6.3,0.9c0.1-0.5,0.4-0.4,0.3,0.2
		c-0.1,1.8-0.6,3.4-1.4,5c1.2,0,2.5,0,3.7,0c-0.7-1.6-1.3-3.3-1.4-5c-0.1-0.7,0.3-0.7,0.3-0.2c1,4.4,6.5,3.2,6.3-0.9
		c-0.2-3.3-3.1-4-4.7-2.9c-0.6,0.4-0.6,0.2-0.2-0.3C14.1,38.1,12.7,34.4,9.5,34.4L9.5,34.4L9.5,34.4z"/>
	<path id="path27-3-3-2_1_" d="M1,24.2c0.1-3.5,1.4-4.9,3.9-6.7c-2-1.4-2.8-3.6-2.7-5.4
		C2.6,7.7,6,5.5,9.7,5.5c3.7,0.1,6.9,3,7.1,6.2c0.2,2.8-0.6,4.1-2.6,5.6c2.3,2,3.8,3.3,3.8,6.8c-0.1,3.5-3,7.6-8.2,7.7
		C4.7,32,0.9,27.7,1,24.2L1,24.2L1,24.2z M15.4,24.2c0.2-3.2-2.6-5.4-5.8-5.4c-3.1,0-5.9,2.6-5.9,5.5c0,3.1,3.6,4.8,5.9,4.8
		C12.5,29.1,15.2,26.9,15.4,24.2L15.4,24.2z M14.4,12.7c0.1-2.7-2.4-4.6-5-4.5C7.1,8.3,4.7,10,4.7,12.2c0,2.8,2.7,4.2,5.1,4.3
		C11.9,16.6,14.3,14.8,14.4,12.7L14.4,12.7z"/>
	<path id="path27-0-0-5-0_1_" d="M151.3,213.5c0.1,3.5,1.4,4.9,3.9,6.7c-2,1.4-2.8,3.6-2.7,5.4
		c0.4,4.4,3.8,6.6,7.5,6.5c3.7-0.1,6.9-3,7.1-6.2c0.2-2.8-0.6-4.1-2.6-5.6c2.3-2,3.8-3.3,3.8-6.8c-0.1-3.5-3-7.6-8.2-7.7
		C155.1,205.7,151.2,210,151.3,213.5L151.3,213.5L151.3,213.5z M165.7,213.5c0.2,3.2-2.6,5.4-5.8,5.4c-3.1,0-5.9-2.6-5.9-5.5
		c0-3.1,3.6-4.8,5.9-4.8C162.8,208.6,165.5,210.8,165.7,213.5L165.7,213.5L165.7,213.5z M164.7,225c0.1,2.7-2.4,4.6-5,4.5
		c-2.3-0.1-4.7-1.8-4.7-4.1c0-2.8,2.7-4.2,5.1-4.3C162.2,221.1,164.7,222.9,164.7,225L164.7,225z"/>
</g>
</svg>
