<!-- Generator: Adobe Illustrator 19.2.1, SVG Export Plug-In  -->
<svg version="1.1"
	 xmlns="http://www.w3.org/2000/svg" xmlns:xlink="http://www.w3.org/1999/xlink" xmlns:a="http://ns.adobe.com/AdobeSVGViewerExtensions/3.0/"
	 x="0px" y="0px" width="165.4px" height="226.6px" viewBox="0 0 165.4 226.6" style="enable-background:new 0 0 165.4 226.6;"
	 xml:space="preserve">
<defs>
</defs>
<g id="g5510_1_" transform="matrix(0.99999718,0,0,1.000002,-1.9858274,-5.5505123)">
	<path id="path147-0-8-1-6-13-2-9-8-8_1_" d="M125.9,20.9
		c-7.8,0.2-11.3,9-5.5,15.8c0.8,1,0.9,1.6-0.6,0.6c-3.9-2.6-11.4-0.9-11.8,7.1c-0.5,9.8,13.3,12.7,15.8,2.2c0.1-1.1,1-1.1,0.8,0.5
		c-0.2,4.2-1.6,8.2-3.4,12.1c3.1,0,6.5,0,9.3,0c-1.8-3.9-3.1-7.8-3.4-12.1c-0.2-1.6,0.7-1.6,0.8-0.5c2.6,10.4,16.3,7.6,15.8-2.2
		c-0.4-8-7.9-9.7-11.8-7.1c-1.5,1-1.5,0.4-0.6-0.6C137.2,29.9,133.7,21.1,125.9,20.9C125.9,20.9,125.9,20.9,125.9,20.9L125.9,20.9z"
		/>
	
		<path id="path147-0-8-1-6-75-2-83-3-5-0_1_" d="
		M43.4,20.9c-7.8,0.2-11.3,9-5.5,15.8c0.8,1,0.9,1.6-0.6,0.6c-3.9-2.6-11.4-0.9-11.8,7.1c-0.5,9.8,13.3,12.7,15.8,2.2
		c0.1-1.1,1-1.1,0.8,0.5c-0.2,4.2-1.6,8.2-3.4,12.1c3.1,0,6.5,0,9.3,0c-1.8-3.9-3.1-7.8-3.4-12.1c-0.2-1.6,0.7-1.6,0.8-0.5
		c2.6,10.4,16.3,7.6,15.8-2.2c-0.4-8-7.9-9.7-11.8-7.1c-1.5,1-1.5,0.4-0.6-0.6C54.8,29.9,51.3,21.1,43.4,20.9
		C43.5,20.9,43.5,20.9,43.4,20.9L43.4,20.9z"/>
	<path id="path147-0-8-1-6-7-5-5-7-63-0-4_1_" d="
		M125.9,217.4c-7.8-0.2-11.3-9-5.5-15.8c0.8-1,0.9-1.6-0.6-0.6c-3.9,2.6-11.4,0.9-11.8-7.1c-0.5-9.8,13.3-12.7,15.8-2.2
		c0.1,1.1,1,1.1,0.8-0.5c-0.2-4.2-1.6-8.2-3.4-12.1c3.1,0,6.5,0,9.3,0c-1.8,3.9-3.1,7.8-3.4,12.1c-0.2,1.6,0.7,1.6,0.8,0.5
		c2.6-10.4,16.3-7.6,15.8,2.2c-0.4,8-7.9,9.7-11.8,7.1c-1.5-1-1.5-0.4-0.6,0.6C137.2,208.4,133.7,217.3,125.9,217.4
		C125.9,217.4,125.9,217.4,125.9,217.4L125.9,217.4z"/>
	
		<path id="path147-0-8-1-6-75-6-1-2-46-5-0_1_" d="
		M43.4,217.4c-7.8-0.2-11.3-9-5.5-15.8c0.8-1,0.9-1.6-0.6-0.6c-3.9,2.6-11.4,0.9-11.8-7.1c-0.5-9.8,13.3-12.7,15.8-2.2
		c0.1,1.1,1,1.1,0.8-0.5c-0.2-4.2-1.6-8.2-3.4-12.1c3.1,0,6.5,0,9.3,0c-1.8,3.9-3.1,7.8-3.4,12.1c-0.2,1.6,0.7,1.6,0.8,0.5
		c2.6-10.4,16.3-7.6,15.8,2.2c-0.4,8-7.9,9.7-11.8,7.1c-1.5-1-1.5-0.4-0.6,0.6C54.8,208.4,51.3,217.3,43.4,217.4
		C43.5,217.4,43.5,217.4,43.4,217.4L43.4,217.4z"/>
	<path id="path147-0-8-1-6-1-1-0-5-61-2-0_1_" d="M84.7,100
		c-7.8,0.2-11.3,9-5.5,15.8c0.8,1,0.9,1.6-0.6,0.6c-3.9-2.6-11.4-0.9-11.8,7.1c-0.5,9.8,13.3,12.7,15.8,2.2c0.1-1.1,1-1.1,0.8,0.5
		c-0.2,4.2-1.6,8.2-3.4,12.1c3.1,0,6.5,0,9.3,0c-1.8-3.9-3.1-7.8-3.4-12.1c-0.2-1.6,0.7-1.6,0.8-0.5c2.6,10.4,16.3,7.6,15.8-2.2
		c-0.4-8-7.9-9.7-11.8-7.1c-1.5,1-1.5,0.4-0.6-0.6C96,109,92.5,100.2,84.7,100C84.7,100,84.7,100,84.7,100L84.7,100z"/>
	<path id="path147-6-9-8-7-0-5-6-5-2-8_1_" d="M159.9,203.3
		c3.1-0.1,4.5-3.7,2.2-6.6c-0.3-0.4-0.4-0.7,0.2-0.3c1.6,1.1,4.6,0.4,4.7-2.9c0.2-4.1-5.3-5.3-6.3-0.9c-0.1,0.5-0.4,0.4-0.3-0.2
		c0.1-1.8,0.6-3.4,1.4-5c-1.2,0-2.5,0-3.7,0c0.7,1.6,1.3,3.3,1.4,5c0.1,0.7-0.3,0.7-0.3,0.2c-1-4.4-6.5-3.2-6.3,0.9
		c0.2,3.3,3.1,4,4.7,2.9c0.6-0.4,0.6-0.2,0.2,0.3C155.3,199.6,156.7,203.2,159.9,203.3L159.9,203.3L159.9,203.3z"/>
	
		<path id="path147-0-8-1-6-75-2-9-77-4-4-2_1_" d="
		M43.4,73.7c-7.8,0.2-11.3,9-5.5,15.8c0.8,1,0.9,1.6-0.6,0.6c-3.9-2.6-11.4-0.9-11.8,7.1c-0.5,9.8,13.3,12.7,15.8,2.2
		c0.1-1.1,1-1.1,0.8,0.5c-0.2,4.2-1.6,8.2-3.4,12.1c3.1,0,6.5,0,9.3,0c-1.8-3.9-3.1-7.8-3.4-12.1c-0.2-1.6,0.7-1.6,0.8-0.5
		c2.6,10.4,16.3,7.6,15.8-2.2c-0.4-8-7.9-9.7-11.8-7.1c-1.5,1-1.5,0.4-0.6-0.6C54.8,82.6,51.3,73.8,43.4,73.7
		C43.5,73.7,43.5,73.7,43.4,73.7L43.4,73.7z"/>
	
		<path id="path147-0-8-1-6-75-2-8-0-6-4-4_1_" d="
		M43.4,164.7c-7.8-0.2-11.3-9-5.5-15.8c0.8-1,0.9-1.6-0.6-0.6c-3.9,2.6-11.4,0.9-11.8-7.1c-0.5-9.8,13.3-12.7,15.8-2.2
		c0.1,1.1,1,1.1,0.8-0.5c-0.2-4.2-1.6-8.2-3.4-12.1c3.1,0,6.5,0,9.3,0c-1.8,3.9-3.1,7.8-3.4,12.1c-0.2,1.6,0.7,1.6,0.8,0.5
		c2.6-10.4,16.3-7.6,15.8,2.2c-0.4,8-7.9,9.7-11.8,7.1c-1.5-1-1.5-0.4-0.6,0.6C54.8,155.7,51.3,164.5,43.4,164.7
		C43.5,164.7,43.5,164.7,43.4,164.7L43.4,164.7z"/>
	
		<path id="path147-0-8-1-6-75-2-9-7-1-36-2-4_1_" d="
		M125.9,73.7c-7.8,0.2-11.3,9-5.5,15.8c0.8,1,0.9,1.6-0.6,0.6c-3.9-2.6-11.4-0.9-11.8,7.1c-0.5,9.8,13.3,12.7,15.8,2.2
		c0.1-1.1,1-1.1,0.8,0.5c-0.2,4.2-1.6,8.2-3.4,12.1c3.1,0,6.5,0,9.3,0c-1.8-3.9-3.1-7.8-3.4-12.1c-0.2-1.6,0.7-1.6,0.8-0.5
		c2.6,10.4,16.3,7.6,15.8-2.2c-0.4-8-7.9-9.7-11.8-7.1c-1.5,1-1.5,0.4-0.6-0.6C137.2,82.6,133.7,73.8,125.9,73.7
		C125.9,73.7,125.9,73.7,125.9,73.7L125.9,73.7z"/>
	
		<path id="path147-0-8-1-6-75-2-8-5-1-55-5-4_1_" d="
		M125.9,164.7c-7.8-0.2-11.3-9-5.5-15.8c0.8-1,0.9-1.6-0.6-0.6c-3.9,2.6-11.4,0.9-11.8-7.1c-0.5-9.8,13.3-12.7,15.8-2.2
		c0.1,1.1,1,1.1,0.8-0.5c-0.2-4.2-1.6-8.2-3.4-12.1c3.1,0,6.5,0,9.3,0c-1.8,3.9-3.1,7.8-3.4,12.1c-0.2,1.6,0.7,1.6,0.8,0.5
		c2.6-10.4,16.3-7.6,15.8,2.2c-0.4,8-7.9,9.7-11.8,7.1c-1.5-1-1.5-0.4-0.6,0.6C137.2,155.7,133.7,164.5,125.9,164.7
		C125.9,164.7,125.9,164.7,125.9,164.7L125.9,164.7z"/>
	<path id="path147-6-9-8-7-4-5-62-7-8-4_1_" d="M9.5,34.4
		C6.4,34.4,5,38.1,7.3,41c0.3,0.4,0.4,0.7-0.2,0.3c-1.6-1.1-4.6-0.4-4.7,2.9c-0.2,4.1,5.3,5.3,6.3,0.9c0.1-0.5,0.4-0.4,0.3,0.2
		c-0.1,1.8-0.6,3.4-1.4,5c1.2,0,2.5,0,3.7,0c-0.7-1.6-1.3-3.3-1.4-5c-0.1-0.7,0.3-0.7,0.3-0.2c1,4.4,6.5,3.2,6.3-0.9
		c-0.2-3.3-3.1-4-4.7-2.9c-0.6,0.4-0.6,0.2-0.2-0.3C14,38.1,12.6,34.4,9.5,34.4L9.5,34.4L9.5,34.4z"/>
	<path id="path29-2-3-4_1_" d="M2.2,26.8L4.6,26c0.9,2.4,2.7,3.1,4.7,3c3.5-0.3,4.6-4.2,4.9-7.6
		c-1.4,1.4-3.4,2.2-5.1,2.1c-5.5-0.3-7-4.7-7-9.4C1.8,10.2,3.5,7.3,6.2,6c1.5-0.7,4.8-0.7,6.3,0.1C16,7.9,17.2,11,17,18.5
		c0,6.1-1.3,13.2-7.8,13.3C5.4,32.3,2.5,29.4,2.2,26.8L2.2,26.8L2.2,26.8z M11.6,20.1c1.1-0.7,1.8-1.4,2.3-2.4
		c0.4-0.8,0.6-1.3,0.4-3c-0.3-4.4-2.6-6.9-6-6.4c-1.9,0.3-2.9,1.3-3.5,3.3c-1.1,3.6,0.3,7.8,2.9,8.8C8.9,20.8,10.7,20.7,11.6,20.1
		L11.6,20.1z"/>
	<path id="path29-6-1-3-7_1_" d="M167.2,210.9l-2.4,0.8c-0.9-2.4-2.7-3.1-4.7-3
		c-3.5,0.3-4.6,4.2-4.9,7.6c1.4-1.4,3.4-2.2,5.1-2.1c5.5,0.3,7,4.7,7,9.4c0.2,3.9-1.5,6.8-4.2,8.1c-1.5,0.7-4.8,0.7-6.3-0.1
		c-3.4-1.8-4.7-4.9-4.4-12.3c0-6.1,1.3-13.2,7.8-13.3C163.9,205.4,166.8,208.3,167.2,210.9L167.2,210.9L167.2,210.9z M157.8,217.6
		c-1.1,0.7-1.8,1.4-2.3,2.4c-0.4,0.8-0.6,1.3-0.4,3c0.3,4.4,2.6,6.9,6,6.4c1.9-0.3,2.9-1.3,3.5-3.3c1.1-3.6-0.3-7.8-2.9-8.8
		C160.5,216.8,158.7,217,157.8,217.6L157.8,217.6z"/>
</g>
</svg>
