<!-- Generator: Adobe Illustrator 19.2.1, SVG Export Plug-In  -->
<svg version="1.1"
	 xmlns="http://www.w3.org/2000/svg" xmlns:xlink="http://www.w3.org/1999/xlink" xmlns:a="http://ns.adobe.com/AdobeSVGViewerExtensions/3.0/"
	 x="0px" y="0px" width="48px" height="48px" viewBox="0 0 48 48" style="enable-background:new 0 0 48 48;" xml:space="preserve">
<style type="text/css">
	.st0{fill:none;}
	.st1{fill:#016FDE;}
</style>
<defs>
</defs>
<rect class="st0" width="48" height="48"/>
<g id="Icons_2_">
	<g id="Color_2_" transform="translate(-200.000000, -200.000000)">
		<g id="Line-1_2_" transform="translate(200.000000, 200.000000)">
			<path id="Facebook_2_" class="st1" d="M25.3,44H6.2C5,44,4,43,4,41.8V6.3c0-1.2,1-2.2,2.2-2.2h35.5c1.2,0,2.2,1,2.2,2.2v35.5
				c0,1.2-1,2.2-2.2,2.2H31.5V28.5h5.2l0.7-6h-6v-3.8c0-1.7,0.5-2.9,3-2.9h3.2v-5.5c-0.6-0.1-2.4-0.2-4.7-0.2c-4.6,0-7.7,2.8-7.7,8
				v4.4H20v6h5.2L25.3,44L25.3,44z"/>
		</g>
	</g>
</g>
</svg>
