<!-- Generator: Adobe Illustrator 19.2.1, SVG Export Plug-In  -->
<svg version="1.1"
	 xmlns="http://www.w3.org/2000/svg" xmlns:xlink="http://www.w3.org/1999/xlink" xmlns:a="http://ns.adobe.com/AdobeSVGViewerExtensions/3.0/"
	 x="0px" y="0px" width="166.4px" height="226.6px" viewBox="0 0 166.4 226.6" style="enable-background:new 0 0 166.4 226.6;"
	 xml:space="preserve">
<style type="text/css">
	.st0{fill:#D40000;}
</style>
<defs>
</defs>
<g id="g6708_1_" transform="matrix(0.99553491,0,0,0.99680337,8.5462702,-8.1397402)">
	<path id="path6399-9_1_" class="st0" d="M-0.5,53.1c-1.7-2.9-3.5-5.6-5.8-8
		c2.3-2.4,4.1-5.1,5.8-8c1.7,2.9,3.5,5.6,5.8,8C3,47.4,1.2,50.2-0.5,53.1z"/>
	<path id="path6403-1_1_" class="st0" d="M150.5,206.6c-1.7-2.9-3.5-5.6-5.8-8
		c2.3-2.4,4.1-5.1,5.8-8c1.7,2.9,3.5,5.6,5.8,8C154.1,200.9,152.3,203.7,150.5,206.6z"/>
	<path id="path6413-1_1_" class="st0" d="M75,141c-4.1-6.9-8.5-13.5-14-19.2
		c5.5-5.7,9.8-12.3,14-19.2c4.1,6.9,8.5,13.5,14,19.2C83.5,127.5,79.2,134.2,75,141z"/>
	<path id="path41-87-9-4-8_1_" class="st0" d="M-8.6,34.6v-2.3h2.2l4.6-24.1h2.6l5.1,24.1h1.7v2.3
		H1.6v-2.3h1.6l-0.6-3.7h-6l-0.5,3.7h1.6v2.3H-8.6L-8.6,34.6z M2.1,26l-2.6-12.9L-2.9,26H2.1z"/>
	<path id="path41-8-5-6-1_1_" class="st0" d="M142.5,209.1v2.3h2.2l4.6,24.1h2.6l5.1-24.1h1.7
		v-2.3h-5.9v2.3h1.6l-0.6,3.7h-6l-0.5-3.7h1.6v-2.3H142.5L142.5,209.1z M153.1,217.7l-2.6,12.9l-2.4-12.9H153.1L153.1,217.7z"/>
</g>
</svg>
