<!-- Generator: Adobe Illustrator 19.2.1, SVG Export Plug-In  -->
<svg version="1.1"
	 xmlns="http://www.w3.org/2000/svg" xmlns:xlink="http://www.w3.org/1999/xlink" xmlns:a="http://ns.adobe.com/AdobeSVGViewerExtensions/3.0/"
	 x="0px" y="0px" width="166.4px" height="226.6px" viewBox="0 0 166.4 226.6" style="enable-background:new 0 0 166.4 226.6;"
	 xml:space="preserve">
<style type="text/css">
	.st0{fill:#D40000;}
</style>
<defs>
</defs>
<g id="g11425-5-5_1_" transform="matrix(0.99553774,0,0,0.99680134,32.088628,318.48631)">
	<g id="g9684-3-0_1_" transform="translate(439.38585,-1064)">
	</g>
	<g id="g9690-5-6_1_" transform="translate(465.9774,-1083.9055)">
	</g>
	<path id="path9698-0-0_1_" class="st0" d="M-24.2-274.6
		c0,0-1.8-2.6-4.2-5.6c-1.6-2-2.9-4.2-3-6.1c-0.1-2.1,1.2-4.3,3.5-4.4c2.3-0.1,3.3,1.6,3.7,3.1c0.4-1.4,1.3-3.2,3.7-3.1
		c2.3,0.1,3.6,2.3,3.5,4.4c-0.1,1.9-1.4,4-3,6.1C-22.4-277.2-24.2-274.6-24.2-274.6z"/>
	<path id="path9700-3-2_1_" class="st0" d="M126.9-137.1
		c0,0-1.8,2.6-4.2,5.6c-1.6,2-2.9,4.2-3,6.1c-0.1,2.1,1.2,4.3,3.5,4.4c2.3,0.1,3.3-1.6,3.7-3.1c0.4,1.4,1.3,3.2,3.7,3.1
		c2.3-0.1,3.6-2.3,3.5-4.4c-0.1-1.9-1.4-4-3-6.1C128.7-134.6,126.9-137.1,126.9-137.1z"/>
	<path id="path9714-6-6_1_" class="st0" d="M51.4-186.7
		c0,0-3.7-6.1-8.8-13.3c-3.4-4.8-6.1-10-6.3-14.5c-0.3-5.1,2.4-10.3,7.4-10.5c4.9-0.2,6.9,4,7.7,7.4c0.8-3.5,2.8-7.7,7.7-7.4
		c4.9,0.2,7.6,5.4,7.4,10.5c-0.3,4.5-2.9,9.7-6.3,14.5C55.1-192.8,51.4-186.7,51.4-186.7z"/>
	<path id="path41-87-8-3-9_1_" class="st0" d="M-32.2-293.1v-2.3h2.2l4.6-24.1h2.6l5.1,24.1h1.7
		v2.3H-22v-2.3h1.6l-0.6-3.7h-6l-0.5,3.7h1.6v2.3L-32.2-293.1L-32.2-293.1z M-21.6-301.7l-2.6-12.9l-2.4,12.9H-21.6z"/>
	<path id="path41-8-5-1-8-7_1_" class="st0" d="M118.8-118.6v2.3h2.2l4.6,24.1h2.6l5.1-24.1h1.7
		v-2.3H129v2.3h1.6l-0.6,3.7h-6l-0.5-3.7h1.6v-2.3H118.8L118.8-118.6z M129.5-110l-2.6,12.9l-2.4-12.9H129.5L129.5-110z"/>
</g>
</svg>
