<!-- Generator: Adobe Illustrator 19.2.1, SVG Export Plug-In  -->
<svg version="1.1"
	 xmlns="http://www.w3.org/2000/svg" xmlns:xlink="http://www.w3.org/1999/xlink" xmlns:a="http://ns.adobe.com/AdobeSVGViewerExtensions/3.0/"
	 x="0px" y="0px" width="165.4px" height="226.6px" viewBox="0 0 165.4 226.6" style="enable-background:new 0 0 165.4 226.6;"
	 xml:space="preserve">
<style type="text/css">
	.st0{fill:#D40000;}
</style>
<defs>
</defs>
<g id="g11153-5-1_1_" transform="matrix(0.99553774,0,0,0.99680134,-138.64975,318.48631)">
	<g id="g10228-2-6_1_" transform="translate(2726.1551,-1064)">
	</g>
	<g id="g10234-4-4_1_" transform="translate(2752.7467,-1083.9055)">
	</g>
	<path id="path10240-7-9_1_" class="st0" d="M180.9-213.1
		c0,0-3.7-6.1-8.8-13.3c-3.4-4.8-6.1-10-6.3-14.5c-0.3-5.1,2.4-10.3,7.4-10.5c4.9-0.2,6.9,4,7.7,7.4c0.8-3.5,2.8-7.7,7.7-7.4
		c4.9,0.2,7.6,5.4,7.4,10.5c-0.3,4.5-2.9,9.7-6.3,14.5C184.7-219.2,180.9-213.1,180.9-213.1z"/>
	<path id="path10242-3-8_1_" class="st0" d="M146.8-274.6c0,0-1.8-2.6-4.2-5.6
		c-1.6-2-2.9-4.2-3-6.1c-0.1-2.1,1.2-4.3,3.5-4.4c2.3-0.1,3.3,1.6,3.7,3.1c0.4-1.4,1.3-3.2,3.7-3.1c2.3,0.1,3.6,2.3,3.5,4.4
		c-0.1,1.9-1.4,4-3,6.1C148.6-277.2,146.8-274.6,146.8-274.6z"/>
	<path id="path10244-4-5_1_" class="st0" d="M297.9-137.1
		c0,0-1.8,2.6-4.2,5.6c-1.6,2-2.9,4.2-3,6.1c-0.1,2.1,1.2,4.3,3.5,4.4c2.3,0.1,3.3-1.6,3.7-3.1c0.4,1.4,1.3,3.2,3.7,3.1
		c2.3-0.1,3.6-2.3,3.5-4.4c-0.1-1.9-1.4-4-3-6.1C299.6-134.6,297.9-137.1,297.9-137.1z"/>
	<path id="path10250-9-0_1_" class="st0" d="M180.9-266
		c0,0-3.7-6.1-8.8-13.3c-3.4-4.8-6.1-10-6.3-14.5c-0.3-5.1,2.4-10.3,7.4-10.5c4.9-0.2,6.9,4,7.7,7.4c0.8-3.5,2.8-7.7,7.7-7.4
		c4.9,0.2,7.6,5.4,7.4,10.5c-0.3,4.5-2.9,9.7-6.3,14.5C184.7-272.1,180.9-266,180.9-266z"/>
	<path id="path10254-7-3_1_" class="st0" d="M263.8-213.1
		c0,0-3.7-6.1-8.8-13.3c-3.4-4.8-6.1-10-6.3-14.5c-0.3-5.1,2.4-10.3,7.4-10.5c4.9-0.2,6.9,4,7.7,7.4c0.8-3.5,2.8-7.7,7.7-7.4
		c4.9,0.2,7.6,5.4,7.4,10.5c-0.3,4.5-2.9,9.7-6.3,14.5C267.5-219.2,263.8-213.1,263.8-213.1z"/>
	<path id="path10256-4-7_1_" class="st0" d="M263.8-266
		c0,0-3.7-6.1-8.8-13.3c-3.4-4.8-6.1-10-6.3-14.5c-0.3-5.1,2.4-10.3,7.4-10.5c4.9-0.2,6.9,4,7.7,7.4c0.8-3.5,2.8-7.7,7.7-7.4
		c4.9,0.2,7.6,5.4,7.4,10.5c-0.3,4.5-2.9,9.7-6.3,14.5C267.5-272.1,263.8-266,263.8-266z"/>
	<path id="path10258-5-9_1_" class="st0" d="M222.3-186.7
		c0,0-3.7-6.1-8.8-13.3c-3.4-4.8-6.1-10-6.3-14.5c-0.3-5.1,2.4-10.3,7.4-10.5c4.9-0.2,6.9,4,7.7,7.4c0.8-3.5,2.8-7.7,7.7-7.4
		c4.9,0.2,7.6,5.4,7.4,10.5c-0.3,4.5-2.9,9.7-6.3,14.5C226.1-192.8,222.3-186.7,222.3-186.7z"/>
	<path id="path10266-8-9_1_" class="st0" d="M263.8-198.6
		c0,0-3.7,6.1-8.8,13.3c-3.4,4.8-6.1,10-6.3,14.5c-0.3,5.1,2.4,10.3,7.4,10.5c4.9,0.2,6.9-4,7.7-7.4c0.8,3.5,2.8,7.7,7.7,7.4
		c4.9-0.2,7.6-5.4,7.4-10.5c-0.3-4.5-2.9-9.7-6.3-14.5C267.5-192.5,263.8-198.6,263.8-198.6z"/>
	<path id="path10268-2-7_1_" class="st0" d="M180.9-198.6
		c0,0-3.7,6.1-8.8,13.3c-3.4,4.8-6.1,10-6.3,14.5c-0.3,5.1,2.4,10.3,7.4,10.5c4.9,0.2,6.9-4,7.7-7.4c0.8,3.5,2.8,7.7,7.7,7.4
		c4.9-0.2,7.6-5.4,7.4-10.5c-0.3-4.5-2.9-9.7-6.3-14.5C184.7-192.5,180.9-198.6,180.9-198.6z"/>
	<path id="path10270-1-4_1_" class="st0" d="M263.8-145.7
		c0,0-3.7,6.1-8.8,13.3c-3.4,4.8-6.1,10-6.3,14.5c-0.3,5.1,2.4,10.3,7.4,10.5c4.9,0.2,6.9-4,7.7-7.4c0.8,3.5,2.8,7.7,7.7,7.4
		c4.9-0.2,7.6-5.4,7.4-10.5c-0.3-4.5-2.9-9.7-6.3-14.5C267.5-139.6,263.8-145.7,263.8-145.7z"/>
	<path id="path10272-0-7_1_" class="st0" d="M180.9-145.7
		c0,0-3.7,6.1-8.8,13.3c-3.4,4.8-6.1,10-6.3,14.5c-0.3,5.1,2.4,10.3,7.4,10.5c4.9,0.2,6.9-4,7.7-7.4c0.8,3.5,2.8,7.7,7.7,7.4
		c4.9-0.2,7.6-5.4,7.4-10.5c-0.3-4.5-2.9-9.7-6.3-14.5C184.7-139.6,180.9-145.7,180.9-145.7z"/>
	<path id="path29-5-8-5-4_1_" class="st0" d="M139.4-298.2l2.4-0.8c0.9,2.4,2.8,3.2,4.7,3
		c3.5-0.3,4.7-4.2,4.9-7.6c-1.4,1.4-3.4,2.2-5.2,2.1c-5.6-0.3-7-4.8-7.1-9.4c-0.2-3.9,1.5-6.8,4.3-8.1c1.5-0.7,4.9-0.7,6.4,0.1
		c3.4,1.8,4.7,4.9,4.5,12.3c0,6.1-1.3,13.2-7.9,13.4C142.7-292.6,139.8-295.6,139.4-298.2L139.4-298.2L139.4-298.2z M148.9-304.9
		c1.1-0.7,1.8-1.4,2.3-2.4c0.4-0.8,0.6-1.3,0.4-3c-0.3-4.4-2.6-6.9-6-6.4c-1.9,0.3-2.9,1.3-3.5,3.3c-1.1,3.6,0.3,7.8,2.9,8.8
		C146.2-304.2,148-304.3,148.9-304.9L148.9-304.9L148.9-304.9z"/>
	<path id="path29-6-2-3-6-6_1_" class="st0" d="M305.2-113.5l-2.4,0.8c-0.9-2.4-2.8-3.2-4.7-3
		c-3.5,0.3-4.7,4.2-4.9,7.6c1.4-1.4,3.4-2.2,5.2-2.1c5.6,0.3,7,4.8,7.1,9.4c0.2,3.9-1.5,6.8-4.3,8.1c-1.5,0.7-4.9,0.7-6.4-0.1
		c-3.4-1.8-4.7-4.9-4.5-12.3c0-6.1,1.3-13.2,7.9-13.4C302-119.1,304.8-116.1,305.2-113.5L305.2-113.5L305.2-113.5z M295.7-106.8
		c-1.1,0.7-1.8,1.4-2.3,2.4c-0.4,0.8-0.6,1.3-0.4,3c0.3,4.4,2.6,6.9,6,6.4c1.9-0.3,2.9-1.3,3.5-3.3c1.1-3.6-0.3-7.8-2.9-8.8
		C298.5-107.5,296.7-107.4,295.7-106.8L295.7-106.8L295.7-106.8z"/>
</g>
</svg>
