<?xml version="1.0" standalone="no"?>
<!DOCTYPE svg PUBLIC "-//W3C//DTD SVG 1.1//EN" "http://www.w3.org/Graphics/SVG/1.1/DTD/svg11.dtd" >
<svg xmlns="http://www.w3.org/2000/svg">
<metadata></metadata>
<defs>
<font id="888regular" horiz-adv-x="1490" >
<font-face units-per-em="2048" ascent="1638" descent="-410" />
<missing-glyph horiz-adv-x="643" />
<glyph horiz-adv-x="0" />
<glyph horiz-adv-x="682" />
<glyph unicode=" "  horiz-adv-x="643" />
<glyph unicode="&#x09;" horiz-adv-x="643" />
<glyph unicode="&#xa0;" horiz-adv-x="643" />
<glyph unicode="!" horiz-adv-x="540" d="M190 82q0 31 24.5 55.5t57.5 24.5t56.5 -24.5t23.5 -55.5q0 -34 -24 -58t-56 -24q-34 0 -58 24t-24 58zM217 1151v305h109v-305l-9 -752h-92z" />
<glyph unicode="&#x22;" horiz-adv-x="819" d="M176 895l53 561h125v-51l-108 -510h-70zM479 895l53 561h127v-51l-108 -510h-72z" />
<glyph unicode="#" horiz-adv-x="1472" d="M150 393v103h237l78 456h-238v103h254l68 381h104l-67 -381h411l68 381h104l-67 -381h219v-103h-236l-77 -456h235v-103h-254l-65 -393h-105l66 393h-412l-65 -393h-105l66 393h-219zM492 494h409l80 460h-410z" />
<glyph unicode="$" horiz-adv-x="1406" d="M174 141l33 111q186 -153 455 -166v635q-256 86 -358.5 167t-102.5 220v4q0 100 62.5 181t167 126.5t231.5 50.5v129h63v-129q223 -6 408 -112l-33 -105q-179 105 -375 115v-549q262 -89 366.5 -187t104.5 -251v-4q0 -165 -131.5 -279t-339.5 -118v-152h-63v154 q-291 10 -488 159zM319 1110q0 -92 74 -149t269 -121v528q-147 -6 -245 -77.5t-98 -176.5v-4zM725 84q159 3 258.5 85.5t99.5 205.5v4q0 107 -84 181.5t-274 137.5v-614z" />
<glyph unicode="%" horiz-adv-x="1976" d="M145 1081v4q0 156 115.5 269.5t274.5 113.5q158 0 273.5 -113t115.5 -270v-4q0 -155 -115 -267t-274 -112t-274.5 112t-115.5 267zM244 1081q0 -117 85.5 -200.5t205.5 -83.5t206 83.5t86 200.5v4q0 119 -86 204t-206 85t-205.5 -85t-85.5 -204v-4zM393 0l1057 1436h129 l-1059 -1436h-127zM1057 350v4q0 157 115.5 270t273.5 113t273.5 -113t115.5 -270v-4q0 -155 -115 -267t-274 -112t-274 112t-115 267zM1153 350q0 -117 86.5 -200.5t206.5 -83.5t206.5 83.5t86.5 200.5v4q0 118 -86.5 203.5t-206.5 85.5t-206.5 -85.5t-86.5 -203.5v-4z" />
<glyph unicode="&#x26;" horiz-adv-x="1503" d="M152 377v4q0 66 20 123.5t51.5 100.5t81.5 84t98 69.5t113 60.5q-168 181 -168 342v4q0 57 23.5 113.5t66 103.5t110 76t148.5 29q149 0 245.5 -94t96.5 -222v-4q0 -114 -79 -202t-271 -179l383 -413q109 146 193 375l77 -29q-84 -238 -208 -410l247 -270l-80 -68 l-235 254q-201 -241 -469 -241q-193 0 -318.5 115t-125.5 278zM260 377q0 -119 94 -204t242 -85q219 0 399 213l-405 436q-52 -24 -85 -41.5t-76 -43t-69.5 -51.5t-51.5 -59t-36.5 -73.5t-11.5 -87.5v-4zM457 1163q0 -67 35.5 -137.5t123.5 -161.5q175 78 244.5 146.5 t69.5 156.5v4q0 83 -65 147t-169 64q-108 0 -173.5 -66.5t-65.5 -150.5v-2z" />
<glyph unicode="'" horiz-adv-x="516" d="M176 895l53 561h125v-51l-108 -510h-70z" />
<glyph unicode="(" horiz-adv-x="940" d="M176 602q0 289 141.5 516.5t415.5 374.5l55 -86q-249 -130 -376 -337t-127 -468q0 -257 127 -463t376 -336l-55 -88q-274 148 -415.5 375.5t-141.5 511.5z" />
<glyph unicode=")" horiz-adv-x="944" d="M154 -197q247 130 374 336t127 463q0 261 -126.5 467.5t-374.5 337.5l53 86q274 -147 416.5 -375t142.5 -516q0 -284 -142.5 -511t-416.5 -376z" />
<glyph unicode="*" horiz-adv-x="1038" d="M213 1010l242 125l-242 125l47 75l225 -145l-10 268h88l-12 -268l225 145l49 -75l-243 -125l243 -125l-49 -76l-225 145l12 -268h-88l10 268l-225 -145z" />
<glyph unicode="+" horiz-adv-x="1249" d="M182 672v100h391v412h103v-412h391v-100h-391v-412h-103v412h-391z" />
<glyph unicode="," horiz-adv-x="460" d="M131 -256l74 342h104l-80 -342h-98z" />
<glyph unicode="-" horiz-adv-x="927" d="M188 666v106h551v-106h-551z" />
<glyph unicode="." horiz-adv-x="413" d="M127 82q0 32 24 56t58 24q32 0 55 -24.5t23 -55.5q0 -34 -23 -58t-55 -24q-34 0 -58 24t-24 58z" />
<glyph unicode="/" horiz-adv-x="1161" d="M51 -238l942 1891h117l-942 -1891h-117z" />
<glyph unicode="0" horiz-adv-x="1546" d="M190 721v6q0 149 37.5 282t108 238t184 166.5t254.5 61.5t253.5 -61.5t183 -166.5t108 -238t37.5 -282v-6q0 -150 -37.5 -283t-108 -238t-183 -166t-253.5 -61t-254.5 61t-184 165.5t-108 237.5t-37.5 284zM307 723q0 -104 18 -199t56.5 -177t93 -143t132 -95.5 t169.5 -34.5q114 0 204 52.5t145.5 142.5t84.5 204.5t29 245.5v4q0 104 -18 199t-56.5 177.5t-93 143.5t-131.5 96t-168 35q-114 0 -204.5 -52.5t-146.5 -143t-85 -205t-29 -244.5v-6z" />
<glyph unicode="1" horiz-adv-x="788" d="M100 1331l336 131h84v-1462h-108v1352l-287 -107z" />
<glyph unicode="2" horiz-adv-x="1214" d="M133 0v72l567 626q126 139 166.5 223t40.5 166q0 119 -86.5 201t-232.5 82q-117 0 -209.5 -74t-155.5 -202l-86 55q73 151 186.5 238.5t266.5 87.5q198 0 311 -109.5t113 -271.5v-4q0 -104 -47.5 -202t-198.5 -265l-465 -519h766v-104h-936z" />
<glyph unicode="3" horiz-adv-x="1210" d="M94 207l80 67q168 -200 410 -200q162 0 273.5 103t111.5 265v9q0 181 -127 277.5t-342 90.5l-58 -4l-26 76l430 459h-660v104h797v-82l-432 -461q236 -2 381 -126t145 -334v-5q0 -208 -143.5 -341.5t-351.5 -133.5q-299 0 -488 236z" />
<glyph unicode="4" horiz-adv-x="1310" d="M154 352v97l686 1013h96v-1005h219v-105h-219v-352h-109v352h-673zM276 457h551v827z" />
<glyph unicode="5" horiz-adv-x="1255" d="M156 182l77 72q67 -85 165.5 -131.5t207.5 -46.5q161 0 274 108t113 287v4q0 88 -32.5 162t-86 121.5t-121 73.5t-139.5 26q-133 0 -297 -100l-73 26l67 668h697v-102h-605l-49 -469q143 73 279 73q92 0 176.5 -33.5t149.5 -93.5t104 -151t39 -199v-4q0 -149 -68 -265 t-180.5 -176.5t-249.5 -60.5q-130 0 -252 56.5t-196 154.5z" />
<glyph unicode="6" horiz-adv-x="1286" d="M166 459v4q0 127 49 225h-2l6 10q15 30 35 60l405 694h119l-311 -520q84 35 176 35q128 0 237 -64t174.5 -179.5t65.5 -256.5v-4q0 -214 -140 -359t-337 -145q-128 0 -237 64t-174.5 179.5t-65.5 256.5zM268 461q0 -174 112.5 -289t264.5 -115q153 0 263 114.5t110 289.5 v4q0 174 -112.5 288.5t-264.5 114.5t-262.5 -114.5t-110.5 -288.5v-4z" />
<glyph unicode="7" horiz-adv-x="1210" d="M180 1350v102h893v-66l-643 -1386h-123l635 1350h-762z" />
<glyph unicode="8" horiz-adv-x="1210" d="M125 371q0 133 86.5 235t214.5 144q-113 43 -188.5 134.5t-75.5 213.5q0 172 124.5 285.5t319.5 113.5t320 -114.5t125 -286.5q0 -120 -76 -211.5t-189 -134.5q127 -44 213 -146t86 -233q0 -87 -29.5 -162t-87 -133t-150.5 -91.5t-212 -33.5q-96 0 -175.5 22t-135.5 61 t-95 92t-57 115t-18 130zM233 377q0 -145 96.5 -238.5t278.5 -93.5q181 0 276 92.5t95 235.5q0 92 -53 169.5t-139 120t-183 42.5q-149 0 -260 -94.5t-111 -233.5zM274 1098q0 -129 102 -213t232 -84t231 82t101 211q0 132 -93.5 218.5t-242.5 86.5q-148 0 -239 -84.5 t-91 -216.5z" />
<glyph unicode="9" horiz-adv-x="1314" d="M178 985v4q0 214 140 359t337 145q129 0 239 -64t175.5 -179.5t65.5 -256.5v-4q0 -115 -50 -225l-6 -12q-27 -48 -32 -56l-408 -696h-119l311 520q-87 -33 -176 -33q-196 0 -336.5 143t-140.5 355zM281 987q0 -173 112.5 -287t263.5 -114q153 0 264 113.5t111 287.5v4 q0 174 -113.5 289t-265.5 115t-262 -114t-110 -290v-4z" />
<glyph unicode=":" horiz-adv-x="454" d="M147 82q0 32 24 56t58 24q32 0 55 -24.5t23 -55.5q0 -33 -23.5 -57.5t-54.5 -24.5q-35 0 -58.5 24t-23.5 58zM147 963q0 33 23.5 57t58.5 24q32 0 55 -24t23 -57t-23.5 -56.5t-54.5 -23.5q-35 0 -58.5 23t-23.5 57z" />
<glyph unicode=";" horiz-adv-x="475" d="M141 -256l74 342h104l-79 -342h-99zM170 963q0 33 23.5 57t56.5 24t56.5 -24t23.5 -57t-23.5 -56.5t-56.5 -23.5q-34 0 -57 23t-23 57z" />
<glyph unicode="&#x3c;" horiz-adv-x="1347" d="M166 692v60l964 493v-117l-798 -405l798 -406v-118z" />
<glyph unicode="=" horiz-adv-x="1347" d="M236 420v104h876v-104h-876zM236 913v105h876v-105h-876z" />
<glyph unicode="&#x3e;" horiz-adv-x="1347" d="M217 199v118l799 406l-799 405v117l965 -493v-60z" />
<glyph unicode="?" horiz-adv-x="1128" d="M115 1214q64 121 170 191t243 70q173 0 292.5 -116.5t119.5 -283.5v-4q0 -88 -36.5 -162t-96.5 -122.5t-129 -78t-141 -40.5l-2 -256h-95l-6 319l25 25q161 3 266.5 89.5t105.5 223.5v4q0 124 -88.5 210.5t-216.5 86.5q-107 0 -200 -63t-138 -160zM412 82q0 31 23.5 55.5 t56.5 24.5t56 -24t23 -56q0 -34 -23 -58t-56 -24q-34 0 -57 24t-23 58z" />
<glyph unicode="@" horiz-adv-x="2062" d="M160 537q0 148 42 290t121.5 261t186.5 209t245 141t289 51q179 0 339.5 -67t274 -179t179.5 -263t66 -314q0 -133 -34.5 -239t-90 -167.5t-118 -93t-126.5 -31.5q-108 0 -167.5 68t-59.5 159q-53 -103 -147.5 -165t-201.5 -62q-160 0 -264 100.5t-104 268.5 q0 141 64 259t169 184.5t224 66.5q116 0 200.5 -65t104.5 -171l32 174l82 -18l-71 -410q-8 -37 -10.5 -73t2.5 -77t20 -71t47.5 -50t79.5 -20q45 0 90.5 25.5t85.5 75t65 135.5t25 195q0 144 -58 277.5t-157.5 232.5t-241.5 158t-301 59q-165 0 -312 -70.5t-248.5 -188 t-160.5 -272.5t-59 -321q0 -236 105.5 -420t286.5 -282.5t405 -98.5q234 0 430 123l47 -86q-202 -135 -479 -135q-187 0 -351.5 65t-285 180t-190.5 284t-70 368zM696 506q0 -126 71.5 -197t190.5 -71q92 0 172 56t127 147.5t48 191.5q3 123 -70.5 200.5t-187.5 77.5 q-141 0 -246 -117.5t-105 -287.5z" />
<glyph unicode="A" d="M86 0l600 1460h119l600 -1460h-123l-164 389h-747l-164 -389h-121zM412 494h665l-334 821z" />
<glyph unicode="B" horiz-adv-x="1376" d="M172 0v1452h547q199 0 316.5 -86.5t117.5 -257.5v-2q0 -106 -41.5 -185.5t-118.5 -109.5q126 -24 197.5 -126t71.5 -267v-4q0 -414 -502 -414h-588zM289 104h471q199 0 295 79.5t96 242.5v2q0 167 -79 245.5t-238 78.5h-545v-648zM289 854h532q115 0 168 66t53 178v4 q0 116 -79.5 182t-225.5 66h-448v-496z" />
<glyph unicode="C" horiz-adv-x="1542" d="M139 725v4q0 119 28 229.5t85.5 204.5t138 164t193 110t243.5 40q222 0 377.5 -105t229.5 -280l-113 -33q-69 144 -195.5 228.5t-300.5 84.5q-131 0 -239 -51.5t-178 -139.5t-108 -203.5t-38 -246.5v-4q0 -130 39 -247t110 -206t179 -141.5t239 -52.5q176 0 301 84 t195 227l107 -31q-75 -175 -230.5 -279t-374.5 -104q-163 0 -296 61t-217.5 164.5t-129.5 237.5t-45 285z" />
<glyph unicode="D" d="M172 0v1452h498q151 0 269 -36.5t196 -100t128.5 -156t72.5 -198.5t22 -232v-4q0 -104 -15.5 -194t-48.5 -172.5t-87.5 -147t-129.5 -112.5t-178 -73.5t-229 -25.5h-498zM289 104h379q573 0 573 619v4q0 111 -17.5 202.5t-59.5 171t-107.5 133.5t-164.5 85t-228 31h-375 v-1246z" />
<glyph unicode="E" horiz-adv-x="1224" d="M172 0v1452h922v-102h-805v-482h663v-104h-663v-660h805v-104h-922z" />
<glyph unicode="F" horiz-adv-x="1206" d="M172 0v1452h905v-102h-788v-494h657v-104h-657v-752h-117z" />
<glyph unicode="G" horiz-adv-x="1650" d="M170 725v4q0 117 28.5 226t87.5 205t142 167.5t199.5 112.5t253.5 41q307 0 534 -213l-69 -86q-90 87 -199 137.5t-266 50.5q-140 0 -253.5 -53t-185.5 -142.5t-110.5 -203.5t-38.5 -240v-4q0 -131 39.5 -247t113 -206t190 -142t261.5 -52q108 0 205 34.5t168.5 108.5 t91.5 174l-2 250h-365v96h480v-743h-111l-2 205q-77 -109 -208 -171.5t-275 -62.5q-138 0 -254.5 40t-199 110t-141 165.5t-86.5 206.5t-28 232z" />
<glyph unicode="H" horiz-adv-x="1462" d="M174 0v1452h115v-584h885v584h114v-1452h-114v766h-885v-766h-115z" />
<glyph unicode="I" horiz-adv-x="585" d="M236 0v1452h114v-1452h-114z" />
<glyph unicode="J" horiz-adv-x="993" d="M102 74l37 104q113 -96 248 -96q153 0 245.5 105.5t92.5 314.5v950h117v-946q0 -273 -135 -408q-120 -123 -316 -123q-78 0 -155 27t-134 72z" />
<glyph unicode="K" horiz-adv-x="1280" d="M168 0v1452h117v-836l755 836h136l-566 -633l598 -819h-139l-534 735l-250 -280v-455h-117z" />
<glyph unicode="L" horiz-adv-x="1216" d="M178 0v1452h117v-1348h805v-104h-922z" />
<glyph unicode="M" horiz-adv-x="1734" d="M172 0v1452h137l559 -1276l559 1276h136v-1452h-117v1231l-547 -1231h-63l-547 1231v-1231h-117z" />
<glyph unicode="N" horiz-adv-x="1511" d="M172 0v1452h100l953 -1255v1255h114v-1452h-96l-956 1260v-1260h-115z" />
<glyph unicode="O" horiz-adv-x="1652" d="M115 723v4q0 152 48 287.5t136.5 239.5t224.5 164.5t301 60.5t301.5 -60.5t225.5 -163.5t137.5 -238.5t48.5 -287.5v-4q0 -153 -48 -288.5t-137 -238.5t-225.5 -163t-302.5 -60q-165 0 -300.5 60t-224 163t-137 238t-48.5 287zM233 725q0 -130 40.5 -246t114.5 -204.5 t188 -140.5t251 -52q140 0 253.5 51.5t186.5 139.5t112.5 203t39.5 245v6q0 128 -40.5 243.5t-114.5 204.5t-189 141t-254 52q-137 0 -249.5 -51.5t-185.5 -139t-113 -202.5t-40 -244v-6z" />
<glyph unicode="P" horiz-adv-x="1292" d="M172 0v1452h498q270 0 389 -115.5t119 -335.5v-4q0 -226 -123 -342t-393 -116h-373v-539h-117zM289 643h366q220 0 315 85.5t95 266.5v4q0 176 -93.5 263.5t-312.5 87.5h-370v-707z" />
<glyph unicode="Q" horiz-adv-x="1773" d="M168 725v4q0 152 48.5 287.5t137 238.5t224.5 163.5t301 60.5q133 0 248 -39t199.5 -108t144.5 -162.5t90 -204.5t30 -232v-4q0 -158 -51 -295.5t-149 -236.5l163 -164l-73 -74l-170 170q-175 -126 -422 -129h-10q-165 0 -300.5 56t-224.5 154t-137.5 230t-48.5 285z M289 729q0 -129 40.5 -241.5t114.5 -197t187.5 -133t251.5 -48.5q204 0 350 100l-264 264l73 72l269 -269q164 170 164 451v6q0 128 -40.5 243t-114.5 203.5t-188.5 140.5t-254.5 52q-137 0 -249.5 -51.5t-185.5 -139t-113 -202.5t-40 -244v-6z" />
<glyph unicode="R" horiz-adv-x="1357" d="M172 0v1452h506q510 0 510 -416v-4q0 -366 -385 -418l405 -614h-133l-397 604h-10h-379v-604h-117zM289 709h381q218 0 312.5 81.5t94.5 239.5v4q0 316 -405 316h-383v-641z" />
<glyph unicode="S" horiz-adv-x="1292" d="M117 141l49 101q110 -89 226 -124.5t259 -35.5q162 0 274.5 82.5t112.5 204.5v4q0 115 -85 188t-318 156q-235 85 -335.5 169t-100.5 224v4q0 104 65.5 188.5t168 129.5t216.5 45q115 0 232 -33.5t213 -89.5l-52 -94q-185 112 -397 112q-80 0 -154.5 -32t-123 -91.5 t-48.5 -130.5v-2q0 -97 79 -159.5t278 -131.5q265 -94 372 -193t107 -253v-4q0 -167 -145.5 -282.5t-362.5 -115.5q-320 0 -530 164z" />
<glyph unicode="T" horiz-adv-x="1253" d="M70 1350v102h1110v-102h-496v-1350h-115v1350h-499z" />
<glyph unicode="U" horiz-adv-x="1536" d="M172 625v827h117v-811q0 -272 128.5 -415.5t352.5 -143.5q228 0 352.5 141.5t124.5 415.5v813h117v-827q0 -316 -161.5 -480.5t-434.5 -164.5q-131 0 -238.5 40t-188 118.5t-125 202.5t-44.5 284z" />
<glyph unicode="V" horiz-adv-x="1458" d="M94 1452h129l510 -1292l508 1292h127l-586 -1462h-102z" />
<glyph unicode="W" horiz-adv-x="2052" d="M86 1452h129l387 -1259l379 1263h90l381 -1266l387 1262h127l-463 -1462h-100l-379 1251l-375 -1251h-102z" />
<glyph unicode="X" horiz-adv-x="1460" d="M90 0l559 739l-540 713h137l483 -637l483 637h140l-541 -713l559 -739h-137l-504 664l-500 -664h-139z" />
<glyph unicode="Y" horiz-adv-x="1275" d="M82 1452h127l432 -823l424 823h129l-498 -946v-506h-114v506z" />
<glyph unicode="Z" horiz-adv-x="1308" d="M135 0v68l881 1282h-848v102h1008v-68l-883 -1280h876v-104h-1034z" />
<glyph unicode="[" horiz-adv-x="958" d="M238 -254v1710h567v-96h-461v-1518h461v-96h-567z" />
<glyph unicode="\" horiz-adv-x="1144" d="M55 1653h117l942 -1891h-119z" />
<glyph unicode="]" horiz-adv-x="958" d="M154 -158h460v1518h-460v96h567v-1710h-567v96z" />
<glyph unicode="^" horiz-adv-x="1200" d="M217 969l354 473h56l354 -473h-113l-268 338l-268 -338h-115z" />
<glyph unicode="_" horiz-adv-x="1269" d="M59 -188h1151v-103h-1151v103z" />
<glyph unicode="`" horiz-adv-x="1142" d="M338 1573h117l198 -256h-108z" />
<glyph unicode="a" horiz-adv-x="1392" d="M119 518v4q0 234 152 390.5t380 156.5q150 0 266 -72.5t177 -199.5v247h108v-1044h-108v252q-61 -128 -177 -201.5t-266 -73.5t-271.5 70t-191 194t-69.5 277zM229 520q0 -190 127.5 -315t305.5 -125q179 0 302 124.5t123 315.5v4q0 190 -126 315.5t-304 125.5 q-180 0 -304 -125t-124 -316v-4z" />
<glyph unicode="b" horiz-adv-x="1359" d="M166 0v1501h108v-713q61 130 178 205.5t269 75.5q150 0 271.5 -70.5t191 -195t69.5 -277.5v-4q0 -153 -69 -278t-191 -196t-272 -71q-151 0 -268.5 74.5t-178.5 202.5v-254h-108zM285 520q0 -126 59.5 -227.5t157.5 -157t213 -55.5q179 0 302.5 124.5t123.5 315.5v4 q0 190 -126 315.5t-304 125.5q-116 0 -213 -56t-155 -157.5t-58 -227.5v-4z" />
<glyph unicode="c" horiz-adv-x="1269" d="M131 518v4q0 233 154 390t381 157q154 0 275 -74.5t189 -201.5l-92 -52q-57 102 -155 163t-217 61q-179 0 -301.5 -125t-122.5 -316v-4q0 -190 125 -315t303 -125q126 0 225.5 65t153.5 174l94 -40q-62 -139 -188.5 -220.5t-288.5 -81.5q-149 0 -271.5 70t-193 194 t-70.5 277z" />
<glyph unicode="d" horiz-adv-x="1382" d="M104 518v4q0 154 69 279.5t191.5 196.5t272.5 71q151 0 268 -75.5t178 -205.5v713h109v-1501h-109v258q-61 -130 -178 -205.5t-268 -75.5q-150 0 -272 70t-191.5 194t-69.5 277zM215 520q0 -190 126 -315t304 -125t303 125t125 315v4q0 126 -59.5 228t-157.5 157.5 t-213 55.5q-180 0 -304 -125t-124 -316v-4z" />
<glyph unicode="e" horiz-adv-x="1269" d="M127 518v4q0 114 41 216t110 174.5t164.5 114.5t200.5 42q121 0 219.5 -45t159 -119.5t93 -166.5t32.5 -191v-35h-909q3 -190 124 -314t291 -124q122 0 222.5 62t156.5 169l84 -49q-68 -129 -190 -205t-279 -76q-142 0 -261 70t-189 195.5t-70 277.5zM242 598h794 q-3 98 -47.5 181t-134.5 137.5t-209 54.5q-155 0 -267.5 -105t-135.5 -268z" />
<glyph unicode="f" horiz-adv-x="724" d="M63 942v102h158v203q0 130 64.5 198t181.5 68q106 0 170 -22v-90q-61 18 -148 18q-77 0 -118 -44t-41 -128v-203h307v-102h-307v-942h-109v942h-158z" />
<glyph unicode="g" horiz-adv-x="1345" d="M139 526v4q0 114 40.5 215t109 171.5t163 111.5t199.5 41q84 0 160 -27t128 -70t86.5 -92.5t45.5 -97.5v262h109v-1044q0 -207 -148 -341t-379 -134q-159 0 -287 70t-192 194l76 59q57 -108 164 -168.5t237 -60.5q180 0 300 103.5t120 267.5v282q-38 -116 -158 -196 t-270 -80q-102 0 -194.5 40t-160.5 109t-108.5 168.5t-40.5 212.5zM248 528q0 -188 124 -313t290 -125q174 0 292.5 115t118.5 323v4q0 106 -34 191t-92 139t-132.5 82.5t-157.5 28.5q-167 0 -288 -126t-121 -315v-4z" />
<glyph unicode="h" horiz-adv-x="1255" d="M186 0v1501h109v-702q17 47 49.5 92.5t80 86.5t115 66t142.5 25q199 0 306.5 -127.5t107.5 -345.5v-596h-109v580q0 176 -86.5 280.5t-245.5 104.5q-146 0 -250 -107t-110 -264v-594h-109z" />
<glyph unicode="i" horiz-adv-x="540" d="M193 1321q0 33 22.5 56.5t56.5 23.5q32 0 54 -23.5t22 -56.5q0 -32 -22.5 -55t-53.5 -23q-34 0 -56.5 22.5t-22.5 55.5zM213 0v1044h109v-1044h-109z" />
<glyph unicode="j" horiz-adv-x="520" d="M-6 -264q38 -10 80 -10q65 0 104 45.5t39 130.5v1142h109v-1146q0 -129 -62.5 -198t-167.5 -69q-56 0 -102 15v90zM190 1321q0 33 23.5 56.5t56.5 23.5q32 0 55 -24t23 -56t-23.5 -55t-54.5 -23q-34 0 -57 23t-23 55z" />
<glyph unicode="k" horiz-adv-x="1099" d="M168 0v1501h108v-1069l555 612h130l-422 -473l450 -571h-131l-387 498l-195 -215v-283h-108z" />
<glyph unicode="l" horiz-adv-x="493" d="M193 0v1501h108v-1501h-108z" />
<glyph unicode="m" horiz-adv-x="1873" d="M170 0v1044h109v-215q23 91 119 165.5t216 74.5q135 0 221.5 -65.5t120.5 -186.5q60 113 157 182.5t226 69.5q185 0 279 -117.5t94 -328.5v-623h-108v627q0 169 -78 253.5t-205 84.5q-112 0 -199.5 -67.5t-130.5 -178.5l-12 -35q2 -20 2 -59v-625h-109v627 q0 169 -77.5 253.5t-204.5 84.5q-121 0 -214 -93.5t-97 -238.5v-633h-109z" />
<glyph unicode="n" horiz-adv-x="1224" d="M170 0v1044h109v-227q35 98 132.5 174t229.5 76q203 0 309.5 -112t106.5 -328v-627h-109v616q0 170 -82.5 259.5t-238.5 89.5q-140 0 -241 -101.5t-107 -257.5v-606h-109z" />
<glyph unicode="o" horiz-adv-x="1316" d="M119 518v4q0 153 71 278.5t195 197t274 71.5q149 0 272.5 -70.5t195 -195t71.5 -277.5v-4q0 -232 -155.5 -388.5t-383.5 -156.5q-150 0 -273.5 70t-195 194t-71.5 277zM229 520q0 -190 127.5 -315t305.5 -125q179 0 302 124.5t123 315.5v4q0 190 -126 315.5t-304 125.5 q-180 0 -304 -125t-124 -316v-4z" />
<glyph unicode="p" horiz-adv-x="1388" d="M166 -471v1515h108v-256q61 130 178.5 204.5t268.5 74.5q150 0 272 -71t191 -196t69 -278v-4q0 -234 -152 -388.5t-380 -154.5q-152 0 -269 75.5t-178 205.5v-727h-108zM285 520q0 -126 58 -227.5t155 -157t213 -55.5q178 0 304 125t126 315v4q0 191 -123.5 316 t-302.5 125q-115 0 -213 -55.5t-157.5 -157.5t-59.5 -228v-4z" />
<glyph unicode="q" horiz-adv-x="1376" d="M129 518v4q0 153 69 278t191.5 196t272.5 71q151 0 267 -74.5t179 -204.5v256h109v-1515h-109v727q-63 -130 -179 -205.5t-267 -75.5q-228 0 -380.5 154.5t-152.5 388.5zM240 520q0 -190 126 -315t304 -125q180 0 304 124.5t124 315.5v4q0 190 -127 315.5t-305 125.5 q-179 0 -302.5 -125t-123.5 -316v-4z" />
<glyph unicode="r" horiz-adv-x="790" d="M170 0v1044h109v-294q47 134 154 225q106 90 250 90h3v-102h-16q-111 0 -203 -68t-140 -165t-48 -193v-537h-109z" />
<glyph unicode="s" horiz-adv-x="1019" d="M106 137l44 86q24 -24 59.5 -48.5t84.5 -50t112.5 -41.5t128.5 -17q128 0 200 55t72 143q0 63 -52 115.5t-184 101.5q-205 78 -289 151q-82 71 -81 168q1 86 51 149q50 61 126 90q74 28 161 28h6q97 -1 180.5 -33t126.5 -67l-27 -93q-50 36 -126 66.5t-156 30.5 q-93 0 -162.5 -40t-69.5 -124q0 -62 66 -115.5t207 -105.5q180 -70 254.5 -141.5t74.5 -170.5q0 -138 -101 -219.5t-280 -81.5h-5q-132 -1 -244 49q-114 50 -177 115z" />
<glyph unicode="t" horiz-adv-x="794" d="M96 942v102h154v340h108v-340h326v-102h-326v-674q0 -96 46 -139t133 -43q71 0 147 18v-94q-80 -24 -168 -24q-266 0 -266 264v692h-154z" />
<glyph unicode="u" horiz-adv-x="1159" d="M131 471v573h111v-565q0 -397 342 -397q336 0 336 395v567h108v-573q0 -114 -27 -202t-69.5 -141.5t-103 -88t-120.5 -47t-128 -12.5t-127.5 12.5t-120 46.5t-104 87.5t-70.5 141.5t-27 203z" />
<glyph unicode="v" horiz-adv-x="1101" d="M90 1044h119l344 -901l342 901h117l-412 -1052h-92z" />
<glyph unicode="w" horiz-adv-x="1521" d="M70 1044h110l260 -882l277 889h90l272 -889l264 882h109l-326 -1052h-92l-272 885l-277 -885h-90z" />
<glyph unicode="x" horiz-adv-x="1193" d="M98 0l437 582l-347 462h127l281 -372l283 372h127l-344 -462l434 -582h-127l-373 489l-371 -489h-127z" />
<glyph unicode="y" horiz-adv-x="1187" d="M117 -250l73 60q56 -93 157.5 -142t211.5 -49q154 0 254 103.5t100 267.5v180q-102 -178 -335 -178q-62 0 -119 12.5t-117 46.5t-103.5 87t-71.5 142t-28 203v561h109v-552q0 -96 22.5 -170t56.5 -116t80.5 -68.5t88 -35t86.5 -8.5q47 0 89 8.5t88 34.5t78.5 68t54 115 t21.5 169v555h109v-1044q0 -208 -127.5 -341.5t-333.5 -133.5q-139 0 -260.5 58t-183.5 167z" />
<glyph unicode="z" horiz-adv-x="1079" d="M141 0v66l637 876h-614v102h766v-65l-637 -877h641v-102h-793z" />
<glyph unicode="{" horiz-adv-x="1036" d="M141 547v104h64q111 0 166 65t55 165v163q0 42 1 69.5t5.5 64t12.5 61t22.5 55t35.5 51t52.5 43.5t71.5 39t93.5 31t119.5 25l20 -97q-104 -18 -169.5 -47t-100 -74t-46.5 -95t-12 -126v-167q0 -110 -51 -186t-151 -93q100 -14 151 -90.5t51 -185.5v-168q0 -75 12 -125 t46.5 -95t100 -74.5t169.5 -49.5l-20 -97q-66 11 -119.5 26t-93.5 31.5t-71.5 39.5t-52.5 43.5t-35.5 51t-22.5 55t-12.5 61t-5.5 64t-1 69.5v163q0 100 -55 165t-166 65h-64z" />
<glyph unicode="|" horiz-adv-x="645" d="M272 -250v1878h101v-1878h-101z" />
<glyph unicode="}" horiz-adv-x="1032" d="M172 -190q104 20 169.5 49.5t100 74.5t46.5 95t12 125v168q0 109 51 185.5t149 90.5q-99 17 -149.5 93t-50.5 186v167q0 75 -12.5 126t-47 95.5t-100 73.5t-168.5 47l21 97q65 -10 118.5 -25t93.5 -31t71.5 -39t52.5 -43.5t35.5 -50.5t22.5 -55t12.5 -61.5t5.5 -64 t1 -69.5v-163q0 -100 54.5 -165t166.5 -65h64v-104h-64q-112 0 -166.5 -65t-54.5 -165v-163q0 -42 -1 -69.5t-5.5 -64t-12.5 -61t-22.5 -55t-35.5 -51t-52.5 -43.5t-71.5 -39.5t-93.5 -31.5t-118.5 -26z" />
<glyph unicode="~" horiz-adv-x="1073" d="M203 508q16 106 66.5 158.5t117.5 52.5q43 0 103.5 -29.5t115 -59.5t82.5 -30q36 0 63 30.5t48 106.5l73 -16q-14 -106 -63.5 -158.5t-110.5 -52.5q-38 0 -82.5 19t-78.5 41.5t-74 41t-70 17.5q-40 0 -68 -31t-49 -106z" />
<glyph unicode="&#xa1;" horiz-adv-x="540" d="M231 1384q0 34 24 58t58 24q32 0 56 -24t24 -58q0 -31 -23.5 -55t-56.5 -24t-57.5 24t-24.5 55zM258 10v305l8 752h92l9 -752v-305h-109z" />
<glyph unicode="&#xa2;" horiz-adv-x="1284" d="M141 694v4q0 219 137 371.5t345 171.5v203h65v-199q149 -3 268 -77.5t185 -198.5l-97 -45q-55 97 -149.5 155.5t-206.5 61.5v-885q122 3 219.5 66.5t147.5 171.5l98 -37q-63 -136 -185.5 -218t-279.5 -85v-220h-65v222q-208 19 -345 169.5t-137 368.5zM252 696 q0 -175 105.5 -295t265.5 -141v879q-162 -19 -266.5 -140t-104.5 -299v-4z" />
<glyph unicode="&#xa3;" horiz-adv-x="1345" d="M180 0v88l178 14v523h-178v104h178v197q0 265 142 407q123 123 309 123q257 0 405 -244l-90 -55q-123 195 -317 195q-140 0 -232 -92q-49 -48 -78.5 -132.5t-29.5 -195.5v-203h592v-104h-592v-521h735v-104h-1022z" />
<glyph unicode="&#xa4;" horiz-adv-x="1202" d="M72 528q0 223 155 375q153 156 375 156q220 0 373 -156q149 -149 155 -360v-15q0 -4 -1 -12.5t-1 -13.5q-6 -202 -153 -346q-153 -156 -373 -156q-222 0 -375 156q-155 152 -155 372zM391 530q0 -89 62 -151q65 -62 149 -62q90 0 152 62q61 61 61 151q0 87 -61 148 q-60 63 -152 63q-86 0 -149 -63q-62 -62 -62 -148z" />
<glyph unicode="&#xa5;" horiz-adv-x="1382" d="M68 1436h133l493 -746l490 746h129l-512 -777h346v-81h-402v-261h402v-81h-402v-236h-106v236h-403v81h403v261h-403v81h356z" />
<glyph unicode="&#xa6;" horiz-adv-x="645" d="M272 -250v662h101v-662h-101zM272 967v661h101v-661h-101z" />
<glyph unicode="&#xa7;" horiz-adv-x="1095" d="M166 31v100q175 -82 328 -82q149 0 231 48t82 136q0 55 -24.5 88.5t-82.5 67.5q-61 30 -186 80q-191 71 -264.5 140t-73.5 171q0 86 55 155.5t154 104.5q-93 44 -138.5 102t-45.5 138q0 116 101.5 183t275.5 67q180 0 331 -64l-39 -86q-153 62 -295 62q-122 0 -191 -43.5 t-69 -116.5q0 -22 4.5 -41.5t16 -36t21.5 -29.5t31 -26.5t34.5 -21.5t42 -20t43 -18t47.5 -18.5t47 -17.5q181 -60 255.5 -130.5t74.5 -168.5q0 -170 -195 -279q93 -47 135.5 -99.5t42.5 -133.5q0 -131 -111 -207t-308 -76q-170 0 -330 72zM291 793q0 -61 30.5 -100 t100.5 -72q62 -37 235 -101q74 36 118 92.5t44 118.5q0 102 -105 165q-62 37 -237 96h-1h-1l-1 1h-1l-2 1h-1h-1l-2 1q-75 -19 -125.5 -75t-50.5 -127z" />
<glyph unicode="&#xa8;" horiz-adv-x="1142" d="M340 1352q0 30 22 52.5t54 22.5q30 0 51.5 -22.5t21.5 -52.5q0 -32 -21 -54t-52 -22t-53.5 22t-22.5 54zM686 1352q0 30 22 52.5t52 22.5q32 0 54 -22.5t22 -52.5q0 -32 -22.5 -54t-53.5 -22t-52.5 22t-21.5 54z" />
<glyph unicode="&#xa9;" horiz-adv-x="1818" d="M162 725v4q0 152 59 290t159 238t238.5 159t290.5 59q204 0 376 -100t272 -271.5t100 -374.5v-4q0 -152 -59 -290t-159 -237.5t-238.5 -158.5t-291.5 -59t-291 59t-238 158.5t-159 237.5t-59 290zM250 725q0 -133 52.5 -255t141 -210.5t210.5 -141t255 -52.5 q178 0 330 88.5t241 240.5t89 330v4q0 177 -89 328.5t-241 240t-330 88.5q-133 0 -255 -52.5t-210.5 -140.5t-141 -209.5t-52.5 -254.5v-4zM559 729v4q0 158 104 268.5t261 110.5q172 0 286 -127l-59 -47q-92 104 -229 104q-123 0 -205 -90t-82 -217v-4q0 -126 83 -216.5 t206 -90.5q133 0 233 111l60 -41q-113 -144 -293 -144q-157 0 -261 111t-104 268z" />
<glyph unicode="&#xaa;" horiz-adv-x="868" d="M123 1151v4q0 132 87.5 221.5t215.5 89.5q74 0 139 -33t107 -90v103h65v-590h-65v111q-42 -57 -106 -89t-140 -32q-127 0 -215 87t-88 218zM180 623v69h549v-69h-549zM195 1153q0 -103 69 -169t164 -66q101 0 168.5 65.5t67.5 169.5v2q0 106 -69 175t-169 69 q-96 0 -163.5 -69.5t-67.5 -174.5v-2z" />
<glyph unicode="&#xab;" horiz-adv-x="1169" d="M141 514v35l373 436l74 -61l-326 -392l326 -393l-74 -59zM557 514v35l373 436l71 -61l-323 -392l323 -393l-71 -59z" />
<glyph unicode="&#xad;" horiz-adv-x="927" d="M188 666v106h551v-106h-551z" />
<glyph unicode="&#xae;" horiz-adv-x="1818" d="M162 725v4q0 152 59 290t159 238t238.5 159t290.5 59q204 0 376 -100t272 -271.5t100 -374.5v-4q0 -152 -59 -290t-159 -237.5t-238.5 -158.5t-291.5 -59t-291 59t-238 158.5t-159 237.5t-59 290zM250 725q0 -133 52.5 -255t141 -210.5t210.5 -141t255 -52.5 q178 0 330 88.5t241 240.5t89 330v4q0 177 -89 328.5t-241 240t-330 88.5q-133 0 -255 -52.5t-210.5 -140.5t-141 -209.5t-52.5 -254.5v-4zM645 379v729h305q121 0 194 -58t73 -155v-4q0 -87 -54.5 -141.5t-150.5 -69.5l227 -301h-84l-221 291h-217v-291h-72zM717 735h227 q96 0 150.5 41.5t54.5 112.5v4q0 69 -54 109t-149 40h-229v-307z" />
<glyph unicode="&#xaf;" horiz-adv-x="1142" d="M295 1284v80h553v-80h-553z" />
<glyph unicode="&#xb0;" horiz-adv-x="1003" d="M188 1155v4q0 124 92.5 213.5t217.5 89.5t217 -89.5t92 -213.5v-4q0 -123 -92 -212t-217 -89t-217.5 89t-92.5 212zM272 1155q0 -89 67 -154t159 -65t158.5 65t66.5 154v4q0 91 -66.5 156t-158.5 65t-159 -65t-67 -156v-4z" />
<glyph unicode="&#xb1;" horiz-adv-x="1433" d="M182 -90h1151v-105h-1151v105zM317 635v98h392v412h102v-412h389v-98h-389v-412h-102v412h-392z" />
<glyph unicode="&#xb4;" horiz-adv-x="1142" d="M506 1317l199 256h108l-207 -256h-100z" />
<glyph unicode="&#xb6;" horiz-adv-x="1079" d="M172 989v4q0 203 148.5 323t381.5 120h125v-1436h-90v543h-26q-153 3 -273.5 54.5t-193 153t-72.5 238.5z" />
<glyph unicode="&#xb7;" horiz-adv-x="454" d="M160 522v166h135v-166h-135z" />
<glyph unicode="&#xb8;" horiz-adv-x="1142" d="M381 -309q97 -6 154 20t57 74q0 44 -33.5 62t-132.5 22l27 127h67l-14 -72q151 -17 151 -139q0 -77 -69 -119t-193 -39z" />
<glyph unicode="&#xba;" horiz-adv-x="860" d="M127 1151v4q0 126 86 215.5t217 89.5q132 0 217.5 -88.5t85.5 -214.5v-4q0 -125 -85.5 -215t-219.5 -90q-133 0 -217 89t-84 214zM133 623v69h594v-69h-594zM203 1153q0 -98 65 -165.5t162 -67.5q100 0 163.5 66.5t63.5 164.5v4q0 98 -66 166t-163 68t-161 -67.5 t-64 -164.5v-4z" />
<glyph unicode="&#xbb;" horiz-adv-x="1169" d="M168 139l326 393l-326 392l72 61l374 -436v-35l-374 -434zM584 139l323 393l-323 392l71 61l373 -436v-35l-373 -434z" />
<glyph unicode="&#xbc;" horiz-adv-x="1660" d="M61 1327l314 123h71v-883h-96v779l-266 -101zM264 -43l907 1513h119l-907 -1513h-119zM901 203v76l416 608h80v-592h129v-92h-129v-203h-92v203h-404zM1008 295h297v442z" />
<glyph unicode="&#xbd;" horiz-adv-x="1734" d="M90 1327l316 123h71v-883h-96v779l-268 -101zM266 -43l908 1513h118l-907 -1513h-119zM1008 678q40 97 113.5 158t174.5 61q116 0 188 -69t72 -169v-2q0 -64 -29 -125.5t-122 -162.5l-248 -279h430v-90h-577v61l333 373q73 82 97 129.5t24 91.5q0 64 -46.5 107t-123.5 43 q-131 0 -207 -172z" />
<glyph unicode="&#xbe;" horiz-adv-x="1892" d="M143 698l74 60q94 -117 229 -117q87 0 147 57t60 144v6q0 102 -68 156t-186 51l-43 -4l-28 47l241 262h-372v90h501v-66l-237 -258q130 -12 208.5 -86.5t78.5 -195.5v-2q0 -125 -89.5 -207t-212.5 -82q-185 0 -303 145zM479 -43l907 1513h119l-907 -1513h-119zM1128 203 v76l416 608h80v-592h129v-92h-129v-203h-92v203h-404zM1237 295h295v442z" />
<glyph unicode="&#xbf;" horiz-adv-x="1140" d="M102 379v4q0 88 36.5 162t97 122.5t129.5 78t141 40.5l2 256h94l6 -319l-24 -25q-161 -3 -267 -89.5t-106 -223.5v-4q0 -124 88.5 -210.5t216.5 -86.5q107 0 200 63t138 160l74 -67q-64 -121 -170.5 -190.5t-243.5 -69.5q-173 0 -292.5 116t-119.5 283zM471 1372 q0 34 23 58t57 24t57 -24t23 -58q0 -31 -23.5 -55.5t-56.5 -24.5t-56.5 24.5t-23.5 55.5z" />
<glyph unicode="&#xc0;" d="M86 0l600 1460h119l600 -1460h-123l-164 389h-747l-164 -389h-121zM412 494h665l-334 821zM430 1966h109l198 -256h-100z" />
<glyph unicode="&#xc1;" d="M86 0l600 1460h119l600 -1460h-123l-164 389h-747l-164 -389h-121zM412 494h665l-334 821zM596 1726l199 256h108l-207 -256h-100z" />
<glyph unicode="&#xc2;" d="M86 0l600 1460h119l600 -1460h-123l-164 389h-747l-164 -389h-121zM412 494h665l-334 821zM516 1722l203 213h100l205 -213h-94l-162 164l-158 -164h-94z" />
<glyph unicode="&#xc3;" d="M86 0l600 1460h119l600 -1460h-123l-164 389h-747l-164 -389h-121zM412 494h665l-334 821zM469 1649q-6 80 45 137t127 57q34 0 73 -19.5t68 -43t64 -43t63 -19.5q49 0 78 31t25 86h69q6 -81 -44.5 -132.5t-127.5 -51.5q-36 0 -75.5 19t-69 41.5t-64.5 41.5t-63 19 q-47 0 -75 -34t-27 -91z" />
<glyph unicode="&#xc4;" d="M86 0l600 1460h119l600 -1460h-123l-164 389h-747l-164 -389h-121zM412 494h665l-334 821zM457 1788q0 27 20 47t47 20t46.5 -20t19.5 -47q0 -28 -19 -48t-47 -20t-47.5 20t-19.5 48zM868 1788q0 27 19.5 47t48.5 20q26 0 45.5 -20.5t19.5 -46.5q0 -28 -19.5 -48 t-45.5 -20q-29 0 -48.5 20t-19.5 48z" />
<glyph unicode="&#xc5;" d="M86 0l600 1460h119l600 -1460h-123l-164 389h-747l-164 -389h-121zM412 494h665l-334 821zM614 1745q0 54 38 91.5t91 37.5q54 0 91.5 -37.5t37.5 -91.5q0 -53 -37.5 -91t-91.5 -38q-53 0 -91 38t-38 91zM682 1747q0 -27 17.5 -45.5t43.5 -18.5t45 19t19 45t-19 44.5 t-45 18.5t-43.5 -18.5t-17.5 -44.5z" />
<glyph unicode="&#xc6;" horiz-adv-x="2197" d="M156 0l798 1456h992v-102h-848v-482h782v-104h-782v-664h880v-104h-1001v395h-483l-211 -395h-127zM541 489h436v783z" />
<glyph unicode="&#xc7;" horiz-adv-x="1542" d="M139 725v4q0 119 28 229.5t85.5 204.5t138 164t193 110t243.5 40q222 0 377.5 -105t229.5 -280l-113 -33q-69 144 -195.5 228.5t-300.5 84.5q-131 0 -239 -51.5t-178 -139.5t-108 -203.5t-38 -246.5v-4q0 -130 39 -247t110 -206t179 -141.5t239 -52.5q176 0 301 84 t195 227l107 -31q-75 -175 -230.5 -279t-374.5 -104h-10l-10 -53q151 -17 151 -139q0 -77 -69 -119t-193 -39l-14 64q97 -6 154 20t57 74q0 44 -33.5 62t-132.5 22l23 111q-117 11 -216.5 56t-171.5 115t-122.5 161t-75.5 195.5t-25 217.5z" />
<glyph unicode="&#xc8;" horiz-adv-x="1224" d="M172 0v1452h922v-102h-805v-482h663v-104h-663v-660h805v-104h-922zM332 1966h108l199 -256h-100z" />
<glyph unicode="&#xc9;" horiz-adv-x="1224" d="M172 0v1452h922v-102h-805v-482h663v-104h-663v-660h805v-104h-922zM498 1726l198 256h109l-207 -256h-100z" />
<glyph unicode="&#xca;" horiz-adv-x="1224" d="M172 0v1452h922v-102h-805v-482h663v-104h-663v-660h805v-104h-922zM418 1722l203 213h100l205 -213h-95l-161 164l-158 -164h-94z" />
<glyph unicode="&#xcb;" horiz-adv-x="1224" d="M172 0v1452h922v-102h-805v-482h663v-104h-663v-660h805v-104h-922zM358 1788q0 26 20 46.5t48 20.5q27 0 46.5 -20t19.5 -47q0 -28 -19 -48t-47 -20t-48 20t-20 48zM770 1788q0 27 19.5 47t48.5 20q26 0 45.5 -20.5t19.5 -46.5q0 -28 -19.5 -48t-45.5 -20 q-29 0 -48.5 20t-19.5 48z" />
<glyph unicode="&#xcc;" horiz-adv-x="585" d="M51 1966h109l198 -256h-100zM236 0v1452h114v-1452h-114z" />
<glyph unicode="&#xcd;" horiz-adv-x="585" d="M168 1726l199 256h108l-207 -256h-100zM236 0v1452h114v-1452h-114z" />
<glyph unicode="&#xce;" horiz-adv-x="585" d="M88 1722l203 213h100l205 -213h-94l-162 164l-158 -164h-94zM236 0v1452h114v-1452h-114z" />
<glyph unicode="&#xcf;" horiz-adv-x="585" d="M72 1788q0 27 20 47t47 20t46.5 -20t19.5 -47q0 -28 -19 -48t-47 -20t-47.5 20t-19.5 48zM236 0v1452h114v-1452h-114zM483 1788q0 27 19.5 47t48.5 20q26 0 45.5 -20.5t19.5 -46.5q0 -28 -19.5 -48t-45.5 -20q-29 0 -48.5 20t-19.5 48z" />
<glyph unicode="&#xd0;" d="M53 774v107h119v571h498q151 0 269 -36.5t196 -100t128.5 -156t72.5 -198.5t22 -232v-4q0 -104 -15.5 -194t-48.5 -172.5t-87.5 -147t-129.5 -112.5t-178 -73.5t-229 -25.5h-498v774h-119zM289 104h379q573 0 573 619v4q0 111 -17.5 202.5t-59.5 171t-107.5 133.5 t-164.5 85t-228 31h-375v-469h315v-107h-315v-670z" />
<glyph unicode="&#xd1;" horiz-adv-x="1511" d="M172 0v1452h100l953 -1255v1255h114v-1452h-96l-956 1260v-1260h-115zM477 1649q-6 80 45 137t127 57q34 0 73 -19.5t68 -43t64.5 -43t63.5 -19.5q49 0 77.5 31t24.5 86h70q6 -81 -44.5 -132.5t-127.5 -51.5q-36 0 -75.5 19t-69 41.5t-65 41.5t-63.5 19q-47 0 -75 -34 t-27 -91z" />
<glyph unicode="&#xd2;" horiz-adv-x="1652" d="M115 723v4q0 152 48 287.5t136.5 239.5t224.5 164.5t301 60.5t301.5 -60.5t225.5 -163.5t137.5 -238.5t48.5 -287.5v-4q0 -153 -48 -288.5t-137 -238.5t-225.5 -163t-302.5 -60q-165 0 -300.5 60t-224 163t-137 238t-48.5 287zM233 725q0 -130 40.5 -246t114.5 -204.5 t188 -140.5t251 -52q140 0 253.5 51.5t186.5 139.5t112.5 203t39.5 245v6q0 128 -40.5 243.5t-114.5 204.5t-189 141t-254 52q-137 0 -249.5 -51.5t-185.5 -139t-113 -202.5t-40 -244v-6zM512 1966h109l198 -256h-100z" />
<glyph unicode="&#xd3;" horiz-adv-x="1652" d="M115 723v4q0 152 48 287.5t136.5 239.5t224.5 164.5t301 60.5t301.5 -60.5t225.5 -163.5t137.5 -238.5t48.5 -287.5v-4q0 -153 -48 -288.5t-137 -238.5t-225.5 -163t-302.5 -60q-165 0 -300.5 60t-224 163t-137 238t-48.5 287zM233 725q0 -130 40.5 -246t114.5 -204.5 t188 -140.5t251 -52q140 0 253.5 51.5t186.5 139.5t112.5 203t39.5 245v6q0 128 -40.5 243.5t-114.5 204.5t-189 141t-254 52q-137 0 -249.5 -51.5t-185.5 -139t-113 -202.5t-40 -244v-6zM678 1726l199 256h108l-207 -256h-100z" />
<glyph unicode="&#xd4;" horiz-adv-x="1652" d="M115 723v4q0 152 48 287.5t136.5 239.5t224.5 164.5t301 60.5t301.5 -60.5t225.5 -163.5t137.5 -238.5t48.5 -287.5v-4q0 -153 -48 -288.5t-137 -238.5t-225.5 -163t-302.5 -60q-165 0 -300.5 60t-224 163t-137 238t-48.5 287zM233 725q0 -130 40.5 -246t114.5 -204.5 t188 -140.5t251 -52q140 0 253.5 51.5t186.5 139.5t112.5 203t39.5 245v6q0 128 -40.5 243.5t-114.5 204.5t-189 141t-254 52q-137 0 -249.5 -51.5t-185.5 -139t-113 -202.5t-40 -244v-6zM600 1722l203 213h100l205 -213h-94l-162 164l-158 -164h-94z" />
<glyph unicode="&#xd5;" horiz-adv-x="1652" d="M115 723v4q0 152 48 287.5t136.5 239.5t224.5 164.5t301 60.5t301.5 -60.5t225.5 -163.5t137.5 -238.5t48.5 -287.5v-4q0 -153 -48 -288.5t-137 -238.5t-225.5 -163t-302.5 -60q-165 0 -300.5 60t-224 163t-137 238t-48.5 287zM233 725q0 -130 40.5 -246t114.5 -204.5 t188 -140.5t251 -52q140 0 253.5 51.5t186.5 139.5t112.5 203t39.5 245v6q0 128 -40.5 243.5t-114.5 204.5t-189 141t-254 52q-137 0 -249.5 -51.5t-185.5 -139t-113 -202.5t-40 -244v-6zM551 1649q-6 80 45 137t127 57q34 0 73 -19.5t68 -43t64 -43t63 -19.5q49 0 78 31 t25 86h69q6 -81 -44.5 -132.5t-127.5 -51.5q-36 0 -75.5 19t-69 41.5t-64.5 41.5t-63 19q-48 0 -76 -34t-27 -91z" />
<glyph unicode="&#xd6;" horiz-adv-x="1652" d="M115 723v4q0 152 48 287.5t136.5 239.5t224.5 164.5t301 60.5t301.5 -60.5t225.5 -163.5t137.5 -238.5t48.5 -287.5v-4q0 -153 -48 -288.5t-137 -238.5t-225.5 -163t-302.5 -60q-165 0 -300.5 60t-224 163t-137 238t-48.5 287zM233 725q0 -130 40.5 -246t114.5 -204.5 t188 -140.5t251 -52q140 0 253.5 51.5t186.5 139.5t112.5 203t39.5 245v6q0 128 -40.5 243.5t-114.5 204.5t-189 141t-254 52q-137 0 -249.5 -51.5t-185.5 -139t-113 -202.5t-40 -244v-6zM539 1788q0 27 20 47t47 20t46.5 -20t19.5 -47q0 -28 -19 -48t-47 -20t-47.5 20 t-19.5 48zM950 1788q0 27 19.5 47t48.5 20q26 0 45.5 -20.5t19.5 -46.5q0 -28 -19.5 -48t-45.5 -20q-29 0 -48.5 20t-19.5 48z" />
<glyph unicode="&#xd7;" horiz-adv-x="1124" d="M127 311l348 348l-348 349l76 73l348 -348l373 373l73 -74l-372 -373l372 -372l-73 -76l-373 373l-348 -348z" />
<glyph unicode="&#xd8;" horiz-adv-x="1652" d="M115 723v4q0 152 48 287.5t136.5 239.5t224.5 164.5t301 60.5q170 0 310 -64l131 264h116l-155 -313q149 -100 230 -269t81 -368v-4q0 -153 -48 -288.5t-137 -238.5t-225.5 -163t-302.5 -60q-144 0 -268 45l-117 -231h-116l137 277q-165 96 -255.5 270.5t-90.5 386.5z M233 725q0 -176 73 -325t206 -232l571 1145q-119 55 -262 55q-137 0 -249.5 -51.5t-185.5 -139t-113 -202.5t-40 -244v-6zM606 121q103 -39 221 -39q140 0 253.5 51.5t186.5 139.5t112.5 203t39.5 245v6q0 164 -63.5 305.5t-181.5 227.5z" />
<glyph unicode="&#xd9;" horiz-adv-x="1536" d="M172 625v827h117v-811q0 -272 128.5 -415.5t352.5 -143.5q228 0 352.5 141.5t124.5 415.5v813h117v-827q0 -316 -161.5 -480.5t-434.5 -164.5q-131 0 -238.5 40t-188 118.5t-125 202.5t-44.5 284zM467 1966h108l199 -256h-100z" />
<glyph unicode="&#xda;" horiz-adv-x="1536" d="M172 625v827h117v-811q0 -272 128.5 -415.5t352.5 -143.5q228 0 352.5 141.5t124.5 415.5v813h117v-827q0 -316 -161.5 -480.5t-434.5 -164.5q-131 0 -238.5 40t-188 118.5t-125 202.5t-44.5 284zM633 1726l198 256h109l-207 -256h-100z" />
<glyph unicode="&#xdb;" horiz-adv-x="1536" d="M172 625v827h117v-811q0 -272 128.5 -415.5t352.5 -143.5q228 0 352.5 141.5t124.5 415.5v813h117v-827q0 -316 -161.5 -480.5t-434.5 -164.5q-131 0 -238.5 40t-188 118.5t-125 202.5t-44.5 284zM555 1722l203 213h100l205 -213h-94l-162 164l-158 -164h-94z" />
<glyph unicode="&#xdc;" horiz-adv-x="1536" d="M172 625v827h117v-811q0 -272 128.5 -415.5t352.5 -143.5q228 0 352.5 141.5t124.5 415.5v813h117v-827q0 -316 -161.5 -480.5t-434.5 -164.5q-131 0 -238.5 40t-188 118.5t-125 202.5t-44.5 284zM494 1788q0 27 20 47t47 20t46.5 -20t19.5 -47q0 -28 -19 -48t-47 -20 t-47.5 20t-19.5 48zM905 1788q0 27 19.5 47t48.5 20q26 0 45.5 -20.5t19.5 -46.5q0 -28 -19.5 -48t-45.5 -20q-29 0 -48.5 20t-19.5 48z" />
<glyph unicode="&#xdd;" horiz-adv-x="1275" d="M82 1452h127l432 -823l424 823h129l-498 -946v-506h-114v506zM492 1726l198 256h109l-207 -256h-100z" />
<glyph unicode="&#xde;" horiz-adv-x="1331" d="M256 0v1456h111v-285h235q506 0 506 -409v-4q0 -198 -123.5 -308t-390.5 -110h-227v-340h-111zM367 444h223q217 0 311 79t94 233v4q0 148 -92.5 228.5t-308.5 80.5h-227v-625z" />
<glyph unicode="&#xdf;" horiz-adv-x="1384" d="M195 -4v948q0 130 27 238t82 191.5t145.5 131t209.5 49.5q196 -5 309 -102t113 -272q0 -111 -49.5 -190t-138.5 -118q145 -42 239.5 -161.5t94.5 -276.5q0 -219 -148.5 -354t-388.5 -135q-158 0 -274 71l30 97q101 -68 242 -68q197 0 312.5 108.5t115.5 280.5 q0 160 -118.5 271.5t-297.5 107.5v102q124 -3 197.5 62t73.5 188q0 130 -81 204.5t-224 74.5q-93 0 -164 -39.5t-114 -109t-64 -156.5t-21 -189v-954h-108z" />
<glyph unicode="&#xe0;" horiz-adv-x="1392" d="M119 518v4q0 234 152 390.5t380 156.5q150 0 266 -72.5t177 -199.5v247h108v-1044h-108v252q-61 -128 -177 -201.5t-266 -73.5t-271.5 70t-191 194t-69.5 277zM229 520q0 -190 127.5 -315t305.5 -125q179 0 302 124.5t123 315.5v4q0 190 -126 315.5t-304 125.5 q-180 0 -304 -125t-124 -316v-4zM481 1573h117l199 -256h-109z" />
<glyph unicode="&#xe1;" horiz-adv-x="1392" d="M119 518v4q0 234 152 390.5t380 156.5q150 0 266 -72.5t177 -199.5v247h108v-1044h-108v252q-61 -128 -177 -201.5t-266 -73.5t-271.5 70t-191 194t-69.5 277zM229 520q0 -190 127.5 -315t305.5 -125q179 0 302 124.5t123 315.5v4q0 190 -126 315.5t-304 125.5 q-180 0 -304 -125t-124 -316v-4zM530 1317l199 256h109l-207 -256h-101z" />
<glyph unicode="&#xe2;" horiz-adv-x="1392" d="M119 518v4q0 234 152 390.5t380 156.5q150 0 266 -72.5t177 -199.5v247h108v-1044h-108v252q-61 -128 -177 -201.5t-266 -73.5t-271.5 70t-191 194t-69.5 277zM229 520q0 -190 127.5 -315t305.5 -125q179 0 302 124.5t123 315.5v4q0 190 -126 315.5t-304 125.5 q-180 0 -304 -125t-124 -316v-4zM432 1317l203 213h100l205 -213h-94l-162 164l-158 -164h-94z" />
<glyph unicode="&#xe3;" horiz-adv-x="1392" d="M119 518v4q0 234 152 390.5t380 156.5q150 0 266 -72.5t177 -199.5v247h108v-1044h-108v252q-61 -128 -177 -201.5t-266 -73.5t-271.5 70t-191 194t-69.5 277zM229 520q0 -190 127.5 -315t305.5 -125q179 0 302 124.5t123 315.5v4q0 190 -126 315.5t-304 125.5 q-180 0 -304 -125t-124 -316v-4zM369 1243q-6 80 45 137.5t127 57.5q34 0 73 -19.5t68 -43t64 -43t63 -19.5q49 0 77.5 31t24.5 86h70q6 -81 -44.5 -133t-127.5 -52q-36 0 -75.5 19t-69 41.5t-64.5 41.5t-63 19q-48 0 -76 -34t-27 -91z" />
<glyph unicode="&#xe4;" horiz-adv-x="1392" d="M119 518v4q0 234 152 390.5t380 156.5q150 0 266 -72.5t177 -199.5v247h108v-1044h-108v252q-61 -128 -177 -201.5t-266 -73.5t-271.5 70t-191 194t-69.5 277zM229 520q0 -190 127.5 -315t305.5 -125q179 0 302 124.5t123 315.5v4q0 190 -126 315.5t-304 125.5 q-180 0 -304 -125t-124 -316v-4zM412 1352q0 30 21.5 52.5t53.5 22.5q30 0 52 -22.5t22 -52.5q0 -32 -22 -54t-52 -22q-32 0 -53.5 22t-21.5 54zM758 1352q0 30 22 52.5t54 22.5q30 0 51.5 -22.5t21.5 -52.5q0 -32 -21.5 -54t-51.5 -22q-32 0 -54 22t-22 54z" />
<glyph unicode="&#xe5;" horiz-adv-x="1392" d="M119 518v4q0 234 152 390.5t380 156.5q150 0 266 -72.5t177 -199.5v247h108v-1044h-108v252q-61 -128 -177 -201.5t-266 -73.5t-271.5 70t-191 194t-69.5 277zM229 520q0 -190 127.5 -315t305.5 -125q179 0 302 124.5t123 315.5v4q0 190 -126 315.5t-304 125.5 q-180 0 -304 -125t-124 -316v-4zM551 1350q0 54 38 91.5t91 37.5q54 0 91.5 -37.5t37.5 -91.5q0 -53 -37.5 -91t-91.5 -38q-52 0 -90.5 38.5t-38.5 90.5zM618 1352q0 -26 18 -45t44 -19t44.5 19t18.5 45t-18.5 44.5t-44.5 18.5t-44 -18.5t-18 -44.5z" />
<glyph unicode="&#xe6;" horiz-adv-x="2306" d="M156 518v4q0 234 152 390.5t380 156.5q146 0 262.5 -72.5t177.5 -195.5v243h107v-245q57 123 170 196.5t248 73.5q98 0 181.5 -29.5t142.5 -80t100.5 -117.5t61.5 -142t20 -153v-33h-908q1 -106 35.5 -191t92.5 -138.5t131 -82t153 -28.5q123 0 225 61t156 166l86 -49 q-67 -127 -191 -201t-282 -74q-136 0 -249.5 73t-172.5 196v-246h-107v246q-61 -124 -177 -196.5t-263 -72.5q-150 0 -271.5 70t-191 194t-69.5 277zM262 520q0 -126 59.5 -227.5t157.5 -157t213 -55.5q179 0 302.5 124.5t123.5 315.5v4q0 190 -126 315.5t-304 125.5 q-116 0 -213 -56t-155 -157.5t-58 -227.5v-4zM1253 594h791q-3 72 -30.5 139t-76 120.5t-122.5 85.5t-162 32q-152 0 -266 -105.5t-134 -271.5z" />
<glyph unicode="&#xe7;" horiz-adv-x="1269" d="M131 518v4q0 233 154 390t381 157q154 0 275 -74.5t189 -201.5l-92 -52q-57 102 -155 163t-217 61q-179 0 -301.5 -125t-122.5 -316v-4q0 -190 125 -315t303 -125q126 0 225.5 65t153.5 174l94 -40q-62 -139 -188.5 -220.5t-288.5 -81.5h-35l-10 -53q151 -17 151 -139 q0 -77 -69 -119t-193 -39l-14 64q97 -6 154 20t57 74q0 44 -33.5 62t-132.5 22l24 117q-191 34 -312.5 180.5t-121.5 351.5z" />
<glyph unicode="&#xe8;" horiz-adv-x="1269" d="M127 518v4q0 114 41 216t110 174.5t164.5 114.5t200.5 42q121 0 219.5 -45t159 -119.5t93 -166.5t32.5 -191v-35h-909q3 -190 124 -314t291 -124q122 0 222.5 62t156.5 169l84 -49q-68 -129 -190 -205t-279 -76q-142 0 -261 70t-189 195.5t-70 277.5zM242 598h794 q-3 98 -47.5 181t-134.5 137.5t-209 54.5q-155 0 -267.5 -105t-135.5 -268zM440 1573h117l199 -256h-109z" />
<glyph unicode="&#xe9;" horiz-adv-x="1269" d="M127 518v4q0 114 41 216t110 174.5t164.5 114.5t200.5 42q121 0 219.5 -45t159 -119.5t93 -166.5t32.5 -191v-35h-909q3 -190 124 -314t291 -124q122 0 222.5 62t156.5 169l84 -49q-68 -129 -190 -205t-279 -76q-142 0 -261 70t-189 195.5t-70 277.5zM242 598h794 q-3 98 -47.5 181t-134.5 137.5t-209 54.5q-155 0 -267.5 -105t-135.5 -268zM489 1317l199 256h109l-207 -256h-101z" />
<glyph unicode="&#xea;" horiz-adv-x="1269" d="M127 518v4q0 114 41 216t110 174.5t164.5 114.5t200.5 42q121 0 219.5 -45t159 -119.5t93 -166.5t32.5 -191v-35h-909q3 -190 124 -314t291 -124q122 0 222.5 62t156.5 169l84 -49q-68 -129 -190 -205t-279 -76q-142 0 -261 70t-189 195.5t-70 277.5zM242 598h794 q-3 98 -47.5 181t-134.5 137.5t-209 54.5q-155 0 -267.5 -105t-135.5 -268zM391 1317l203 213h100l205 -213h-94l-162 164l-158 -164h-94z" />
<glyph unicode="&#xeb;" horiz-adv-x="1269" d="M127 518v4q0 114 41 216t110 174.5t164.5 114.5t200.5 42q121 0 219.5 -45t159 -119.5t93 -166.5t32.5 -191v-35h-909q3 -190 124 -314t291 -124q122 0 222.5 62t156.5 169l84 -49q-68 -129 -190 -205t-279 -76q-142 0 -261 70t-189 195.5t-70 277.5zM242 598h794 q-3 98 -47.5 181t-134.5 137.5t-209 54.5q-155 0 -267.5 -105t-135.5 -268zM369 1352q0 30 21.5 52.5t53.5 22.5q30 0 52 -22.5t22 -52.5q0 -32 -22 -54t-52 -22q-32 0 -53.5 22t-21.5 54zM715 1352q0 30 22 52.5t54 22.5q30 0 51.5 -22.5t21.5 -52.5q0 -32 -21.5 -54 t-51.5 -22q-32 0 -54 22t-22 54z" />
<glyph unicode="&#xec;" horiz-adv-x="587" d="M92 1573h117l199 -256h-109zM240 0v1044h106v-1044h-106z" />
<glyph unicode="&#xed;" horiz-adv-x="587" d="M141 1317l199 256h109l-207 -256h-101zM240 0v1044h106v-1044h-106z" />
<glyph unicode="&#xee;" horiz-adv-x="587" d="M43 1317l203 213h100l205 -213h-94l-162 164l-158 -164h-94zM240 0v1044h106v-1044h-106z" />
<glyph unicode="&#xef;" horiz-adv-x="587" d="M59 1352q0 30 22 52.5t54 22.5q30 0 52 -22.5t22 -52.5q0 -32 -22 -54t-52 -22q-32 0 -54 22t-22 54zM240 0v1044h106v-1044h-106zM406 1352q0 30 21.5 52.5t53.5 22.5q30 0 52 -22.5t22 -52.5q0 -32 -22 -54t-52 -22q-32 0 -53.5 22t-21.5 54z" />
<glyph unicode="&#xf0;" horiz-adv-x="1347" d="M127 518q0 147 72 272t197 199t274 74q131 0 234 -61.5t167 -157.5q-45 183 -151 345t-314 386l-192 -209l-72 64l195 212q-136 144 -252 228l63 74q117 -86 258 -230l187 197l63 -66l-182 -200q135 -142 229.5 -266t168 -262.5t109.5 -286.5t36 -312 q-1 -150 -75.5 -275.5t-199.5 -196.5t-272 -71q-149 0 -274 72.5t-197 197.5t-72 273zM231 518q0 -180 129 -309q126 -129 310 -129q88 0 169 34t142 95q129 129 129 309q0 88 -34.5 169.5t-96.5 143.5q-59 59 -140 93t-169 34q-183 0 -310 -127q-61 -62 -95 -143.5 t-34 -169.5z" />
<glyph unicode="&#xf1;" horiz-adv-x="1224" d="M170 0v1044h109v-227q35 98 132.5 174t229.5 76q203 0 309.5 -112t106.5 -328v-627h-109v616q0 170 -82.5 259.5t-238.5 89.5q-140 0 -241 -101.5t-107 -257.5v-606h-109zM293 1243q-6 80 45 137.5t127 57.5q34 0 73 -19.5t68 -43t64 -43t63 -19.5q49 0 78 31t25 86h69 q6 -81 -44.5 -133t-127.5 -52q-36 0 -75.5 19t-69 41.5t-64.5 41.5t-63 19q-48 0 -76 -34t-27 -91z" />
<glyph unicode="&#xf2;" horiz-adv-x="1316" d="M119 518v4q0 153 71 278.5t195 197t274 71.5q149 0 272.5 -70.5t195 -195t71.5 -277.5v-4q0 -232 -155.5 -388.5t-383.5 -156.5q-150 0 -273.5 70t-195 194t-71.5 277zM229 520q0 -190 127.5 -315t305.5 -125q179 0 302 124.5t123 315.5v4q0 190 -126 315.5t-304 125.5 q-180 0 -304 -125t-124 -316v-4zM459 1573h116l199 -256h-108z" />
<glyph unicode="&#xf3;" horiz-adv-x="1316" d="M119 518v4q0 153 71 278.5t195 197t274 71.5q149 0 272.5 -70.5t195 -195t71.5 -277.5v-4q0 -232 -155.5 -388.5t-383.5 -156.5q-150 0 -273.5 70t-195 194t-71.5 277zM229 520q0 -190 127.5 -315t305.5 -125q179 0 302 124.5t123 315.5v4q0 190 -126 315.5t-304 125.5 q-180 0 -304 -125t-124 -316v-4zM508 1317l199 256h108l-207 -256h-100z" />
<glyph unicode="&#xf4;" horiz-adv-x="1316" d="M119 518v4q0 153 71 278.5t195 197t274 71.5q149 0 272.5 -70.5t195 -195t71.5 -277.5v-4q0 -232 -155.5 -388.5t-383.5 -156.5q-150 0 -273.5 70t-195 194t-71.5 277zM229 520q0 -190 127.5 -315t305.5 -125q179 0 302 124.5t123 315.5v4q0 190 -126 315.5t-304 125.5 q-180 0 -304 -125t-124 -316v-4zM410 1317l202 213h101l205 -213h-95l-161 164l-158 -164h-94z" />
<glyph unicode="&#xf5;" horiz-adv-x="1316" d="M119 518v4q0 153 71 278.5t195 197t274 71.5q149 0 272.5 -70.5t195 -195t71.5 -277.5v-4q0 -232 -155.5 -388.5t-383.5 -156.5q-150 0 -273.5 70t-195 194t-71.5 277zM229 520q0 -190 127.5 -315t305.5 -125q179 0 302 124.5t123 315.5v4q0 190 -126 315.5t-304 125.5 q-180 0 -304 -125t-124 -316v-4zM346 1243q-6 80 45 137.5t127 57.5q34 0 73 -19.5t68 -43t64 -43t63 -19.5q49 0 78 31t25 86h69q6 -81 -44.5 -133t-127.5 -52q-36 0 -75.5 19t-69 41.5t-64.5 41.5t-63 19q-47 0 -75 -34t-27 -91z" />
<glyph unicode="&#xf6;" horiz-adv-x="1316" d="M119 518v4q0 153 71 278.5t195 197t274 71.5q149 0 272.5 -70.5t195 -195t71.5 -277.5v-4q0 -232 -155.5 -388.5t-383.5 -156.5q-150 0 -273.5 70t-195 194t-71.5 277zM229 520q0 -190 127.5 -315t305.5 -125q179 0 302 124.5t123 315.5v4q0 190 -126 315.5t-304 125.5 q-180 0 -304 -125t-124 -316v-4zM387 1352q0 30 22 52.5t54 22.5q30 0 52 -22.5t22 -52.5q0 -32 -22 -54t-52 -22q-32 0 -54 22t-22 54zM733 1352q0 30 22 52.5t54 22.5q30 0 52 -22.5t22 -52.5q0 -32 -22 -54t-52 -22q-32 0 -54 22t-22 54z" />
<glyph unicode="&#xf7;" horiz-adv-x="1062" d="M156 631v106h751v-106h-751zM453 354q0 38 27 66.5t67 28.5q36 0 63 -29t27 -66q0 -38 -27 -66t-63 -28q-39 0 -66.5 27.5t-27.5 66.5zM453 1040q0 38 27 66.5t67 28.5q36 0 63 -29t27 -66q0 -38 -27 -66t-63 -28q-39 0 -66.5 27.5t-27.5 66.5z" />
<glyph unicode="&#xf8;" horiz-adv-x="1415" d="M160 518v4q0 153 71 278.5t195 197t274 71.5q187 0 330 -108l144 184h88l-179 -232q156 -156 156 -387v-4q0 -232 -155.5 -388.5t-383.5 -156.5q-148 0 -276 72l-113 -147h-88l142 186q-96 73 -150.5 185t-54.5 245zM270 520q0 -106 43.5 -196t118.5 -150l533 698 q-117 93 -267 93q-180 0 -304 -125t-124 -316v-4zM489 135q99 -55 213 -55q179 0 302.5 124.5t123.5 315.5v4q0 176 -112 301z" />
<glyph unicode="&#xf9;" horiz-adv-x="1159" d="M131 471v573h111v-565q0 -397 342 -397q336 0 336 395v567h108v-573q0 -114 -27 -202t-69.5 -141.5t-103 -88t-120.5 -47t-128 -12.5t-127.5 12.5t-120 46.5t-104 87.5t-70.5 141.5t-27 203zM395 1573h117l199 -256h-109z" />
<glyph unicode="&#xfa;" horiz-adv-x="1159" d="M131 471v573h111v-565q0 -397 342 -397q336 0 336 395v567h108v-573q0 -114 -27 -202t-69.5 -141.5t-103 -88t-120.5 -47t-128 -12.5t-127.5 12.5t-120 46.5t-104 87.5t-70.5 141.5t-27 203zM442 1317l199 256h109l-207 -256h-101z" />
<glyph unicode="&#xfb;" horiz-adv-x="1159" d="M131 471v573h111v-565q0 -397 342 -397q336 0 336 395v567h108v-573q0 -114 -27 -202t-69.5 -141.5t-103 -88t-120.5 -47t-128 -12.5t-127.5 12.5t-120 46.5t-104 87.5t-70.5 141.5t-27 203zM346 1317l203 213h100l205 -213h-94l-162 164l-158 -164h-94z" />
<glyph unicode="&#xfc;" horiz-adv-x="1159" d="M131 471v573h111v-565q0 -397 342 -397q336 0 336 395v567h108v-573q0 -114 -27 -202t-69.5 -141.5t-103 -88t-120.5 -47t-128 -12.5t-127.5 12.5t-120 46.5t-104 87.5t-70.5 141.5t-27 203zM324 1352q0 30 21.5 52.5t53.5 22.5q30 0 52 -22.5t22 -52.5q0 -32 -22 -54 t-52 -22q-32 0 -53.5 22t-21.5 54zM670 1352q0 30 21.5 52.5t53.5 22.5q30 0 52 -22.5t22 -52.5q0 -32 -22 -54t-52 -22q-32 0 -53.5 22t-21.5 54z" />
<glyph unicode="&#xfd;" horiz-adv-x="1187" d="M117 -250l73 60q56 -93 157.5 -142t211.5 -49q154 0 254 103.5t100 267.5v180q-102 -178 -335 -178q-62 0 -119 12.5t-117 46.5t-103.5 87t-71.5 142t-28 203v561h109v-552q0 -96 22.5 -170t56.5 -116t80.5 -68.5t88 -35t86.5 -8.5q47 0 89 8.5t88 34.5t78.5 68t54 115 t21.5 169v555h109v-1044q0 -208 -127.5 -341.5t-333.5 -133.5q-139 0 -260.5 58t-183.5 167zM428 1317l199 256h108l-207 -256h-100z" />
<glyph unicode="&#xfe;" horiz-adv-x="1347" d="M225 -451v1885h105v-635q63 125 178.5 197.5t263.5 72.5t269.5 -71.5t190 -197t68.5 -278.5v-4q0 -232 -151.5 -386.5t-376.5 -154.5q-149 0 -264 72.5t-178 198.5v-699h-105zM338 520q0 -126 58 -227.5t155 -157t213 -55.5q177 0 302.5 125t125.5 315v4 q0 191 -123.5 316t-302.5 125q-177 0 -302.5 -125.5t-125.5 -315.5v-4z" />
<glyph unicode="&#xff;" horiz-adv-x="1187" d="M117 -250l73 60q56 -93 157.5 -142t211.5 -49q154 0 254 103.5t100 267.5v180q-102 -178 -335 -178q-62 0 -119 12.5t-117 46.5t-103.5 87t-71.5 142t-28 203v561h109v-552q0 -96 22.5 -170t56.5 -116t80.5 -68.5t88 -35t86.5 -8.5q47 0 89 8.5t88 34.5t78.5 68t54 115 t21.5 169v555h109v-1044q0 -208 -127.5 -341.5t-333.5 -133.5q-139 0 -260.5 58t-183.5 167zM309 1352q0 30 22 52.5t54 22.5q30 0 52 -22.5t22 -52.5q0 -32 -22 -54t-52 -22q-32 0 -54 22t-22 54zM655 1352q0 30 22 52.5t54 22.5q30 0 52 -22.5t22 -52.5q0 -32 -22 -54 t-52 -22q-32 0 -54 22t-22 54z" />
<glyph unicode="&#x152;" horiz-adv-x="2668" d="M168 725v4q0 121 30 233t91 206t145.5 164t200 109.5t248.5 39.5q200 0 353.5 -84.5t246.5 -231.5v291h971v-102h-857v-480h793v-104h-791v-39v-4q0 -47 -2 -70v-553h887v-104h-1001v291q-93 -146 -246 -230t-354 -84q-166 0 -303 60t-226 163t-137.5 238t-48.5 287z M287 727q0 -130 41 -246t115.5 -204.5t189 -140.5t252.5 -52t250.5 48.5t186.5 132.5t115.5 194.5t45.5 236.5v58q-5 125 -47 235.5t-116.5 196t-188 135t-250.5 49.5q-139 0 -253 -51.5t-187.5 -139t-113.5 -202.5t-40 -244v-6z" />
<glyph unicode="&#x153;" horiz-adv-x="2283" d="M147 516v4q0 153 71 278.5t195.5 197t274.5 71.5q158 0 287 -80t196 -215q65 135 190.5 216t274.5 81q121 0 219.5 -45t159 -119.5t93 -166.5t32.5 -191v-33h-909q3 -190 124.5 -315t291.5 -125q122 0 223.5 61t157.5 166l83 -49q-68 -127 -190.5 -201t-280.5 -74 q-152 0 -278 79.5t-191 213.5q-67 -135 -195.5 -215t-287.5 -80q-150 0 -274 70t-195.5 194t-71.5 277zM258 518q0 -190 127 -315t305 -125q179 0 302.5 124.5t123.5 315.5v4q0 190 -126 315.5t-304 125.5q-180 0 -304 -125t-124 -316v-4zM1235 594h790q-2 72 -29.5 139 t-75.5 120.5t-122 85.5t-162 32q-152 0 -265 -106.5t-136 -270.5z" />
<glyph unicode="&#x178;" horiz-adv-x="1275" d="M82 1452h127l432 -823l424 823h129l-498 -946v-506h-114v506zM352 1788q0 26 20 46.5t48 20.5q27 0 46 -20t19 -47q0 -28 -19 -48t-46 -20q-28 0 -48 20t-20 48zM764 1788q0 27 19 47t48 20q26 0 46 -20.5t20 -46.5q0 -28 -20 -48t-46 -20q-29 0 -48 20t-19 48z" />
<glyph unicode="&#x2c6;" horiz-adv-x="1142" d="M324 1317l202 213h101l204 -213h-94l-162 164l-157 -164h-94z" />
<glyph unicode="&#x2dc;" horiz-adv-x="1142" d="M260 1243q-6 80 45 137.5t127 57.5q34 0 73 -19.5t68 -43t64 -43t63 -19.5q49 0 78 31t25 86h69q6 -81 -44.5 -133t-127.5 -52q-36 0 -75.5 19t-69 41.5t-64.5 41.5t-63 19q-47 0 -75 -34t-27 -91z" />
<glyph unicode="&#x2000;" horiz-adv-x="991" />
<glyph unicode="&#x2001;" horiz-adv-x="1982" />
<glyph unicode="&#x2002;" horiz-adv-x="991" />
<glyph unicode="&#x2003;" horiz-adv-x="1982" />
<glyph unicode="&#x2004;" horiz-adv-x="660" />
<glyph unicode="&#x2005;" horiz-adv-x="495" />
<glyph unicode="&#x2006;" horiz-adv-x="330" />
<glyph unicode="&#x2007;" horiz-adv-x="330" />
<glyph unicode="&#x2008;" horiz-adv-x="247" />
<glyph unicode="&#x2009;" horiz-adv-x="396" />
<glyph unicode="&#x200a;" horiz-adv-x="110" />
<glyph unicode="&#x2010;" horiz-adv-x="927" d="M188 666v106h551v-106h-551z" />
<glyph unicode="&#x2011;" horiz-adv-x="927" d="M188 666v106h551v-106h-551z" />
<glyph unicode="&#x2012;" horiz-adv-x="927" d="M188 666v106h551v-106h-551z" />
<glyph unicode="&#x2013;" horiz-adv-x="1220" d="M188 668v104h844v-104h-844z" />
<glyph unicode="&#x2014;" horiz-adv-x="1949" d="M203 668v104h1544v-104h-1544z" />
<glyph unicode="&#x2018;" horiz-adv-x="491" d="M180 1137v127q0 97 24.5 147t80.5 70l24 -47q-67 -25 -67 -142h63v-155h-125z" />
<glyph unicode="&#x2019;" horiz-adv-x="466" d="M174 1169q71 27 68 142h-62v155h125v-127q0 -97 -25 -146.5t-81 -70.5z" />
<glyph unicode="&#x201a;" horiz-adv-x="483" d="M170 -147q75 27 72 145h-68v166h135v-135q0 -102 -26 -154.5t-86 -71.5z" />
<glyph unicode="&#x201c;" horiz-adv-x="731" d="M174 1128v136q0 102 27 155t88 72l24 -49q-71 -30 -71 -146h67v-168h-135zM416 1128v136q0 102 26 155t86 72l27 -49q-75 -31 -72 -146h68v-168h-135z" />
<glyph unicode="&#x201d;" horiz-adv-x="724" d="M162 1176q74 31 71 145h-67v168h135v-135q0 -102 -26.5 -155.5t-86.5 -72.5zM403 1176q75 31 72 145h-67v168h135v-135q0 -102 -26.5 -155.5t-86.5 -72.5z" />
<glyph unicode="&#x201e;" horiz-adv-x="727" d="M170 -176q75 27 72 145h-68v166h135v-135q0 -101 -26 -154t-86 -73zM414 -176q74 27 71 145h-67v166h135v-135q0 -101 -26.5 -154t-86.5 -73z" />
<glyph unicode="&#x2022;" horiz-adv-x="999" d="M262 723v4q0 97 71 166.5t169 69.5t168.5 -69.5t70.5 -166.5v-4q0 -98 -70.5 -168t-168.5 -70t-169 70t-71 168z" />
<glyph unicode="&#x2026;" horiz-adv-x="1232" d="M61 82q0 32 24 56t58 24q32 0 55 -24.5t23 -55.5q0 -34 -23 -58t-55 -24q-34 0 -58 24t-24 58zM494 82q0 32 23 56t56 24t56.5 -24.5t23.5 -55.5q0 -34 -23 -58t-57 -24q-33 0 -56 24t-23 58zM924 82q0 31 23.5 55.5t56.5 24.5t56 -24t23 -56q0 -34 -23 -58t-56 -24 q-34 0 -57 24t-23 58z" />
<glyph unicode="&#x202f;" horiz-adv-x="396" />
<glyph unicode="&#x2039;" horiz-adv-x="755" d="M141 514v35l373 436l74 -61l-326 -392l326 -393l-74 -59z" />
<glyph unicode="&#x203a;" horiz-adv-x="755" d="M168 139l326 393l-326 392l74 61l372 -436v-35l-372 -434z" />
<glyph unicode="&#x205f;" horiz-adv-x="495" />
<glyph unicode="&#x20ac;" horiz-adv-x="1603" d="M150 526v76h176q-15 155 4 260h-180v74h190q51 240 205 390.5t373 150.5q368 0 528 -336l-111 -37q-71 130 -168 199t-249 69q-167 0 -289 -120.5t-166 -315.5h563v-74h-575q-19 -117 -7 -260h582v-76h-567q42 -203 168 -324.5t303 -121.5q76 0 139 20.5t112.5 60.5 t86.5 86t73 109l107 -30q-170 -349 -518 -349q-231 0 -389 150t-205 399h-186z" />
<glyph unicode="&#x2122;" horiz-adv-x="1566" d="M98 1360v100h531v-100h-215v-574h-101v574h-215zM750 786v674h79l252 -362l252 362h82v-674h-88v527l-246 -342l-243 342v-527h-88z" />
<glyph unicode="&#x25fc;" horiz-adv-x="1044" d="M0 0v1044h1044v-1044h-1044z" />
</font>
</defs>
</svg>
