<!-- Generator: Adobe Illustrator 19.2.1, SVG Export Plug-In  -->
<svg version="1.1"
	 xmlns="http://www.w3.org/2000/svg" xmlns:xlink="http://www.w3.org/1999/xlink" xmlns:a="http://ns.adobe.com/AdobeSVGViewerExtensions/3.0/"
	 x="0px" y="0px" width="166.8px" height="226.6px" viewBox="0 0 166.8 226.6" style="enable-background:new 0 0 166.8 226.6;"
	 xml:space="preserve">
<style type="text/css">
	.st0{fill:#D40000;}
</style>
<defs>
</defs>
<g id="g11338-3-7_1_" transform="matrix(0.99553774,0,0,0.99680134,-31.938292,318.48631)">
	<g id="g9888-2-1_1_" transform="translate(1296.9243,-1064)">
	</g>
	<g id="g9894-0-0_1_" transform="translate(1323.5159,-1083.9055)">
	</g>
	<path id="path9902-6-7_1_" class="st0" d="M40.3-274.6c0,0-1.8-2.6-4.2-5.6c-1.6-2-2.9-4.2-3-6.1
		c-0.1-2.1,1.2-4.3,3.5-4.4c2.3-0.1,3.3,1.6,3.7,3.1c0.4-1.4,1.3-3.2,3.7-3.1c2.3,0.1,3.6,2.3,3.5,4.4c-0.1,1.9-1.4,4-3,6.1
		C42.1-277.2,40.3-274.6,40.3-274.6z"/>
	<path id="path9904-6-0_1_" class="st0" d="M191.4-137.1c0,0-1.8,2.6-4.2,5.6
		c-1.6,2-2.9,4.2-3,6.1c-0.1,2.1,1.2,4.3,3.5,4.4c2.3,0.1,3.3-1.6,3.7-3.1c0.4,1.4,1.3,3.2,3.7,3.1c2.3-0.1,3.6-2.3,3.5-4.4
		c-0.1-1.9-1.4-4-3-6.1C193.1-134.6,191.4-137.1,191.4-137.1z"/>
	<path id="path9910-2-6_1_" class="st0" d="M74.4-266c0,0-3.7-6.1-8.8-13.3
		c-3.4-4.8-6.1-10-6.3-14.5c-0.3-5.1,2.4-10.3,7.4-10.5c4.9-0.2,6.9,4,7.7,7.4c0.8-3.5,2.8-7.7,7.7-7.4c4.9,0.2,7.6,5.4,7.4,10.5
		c-0.3,4.5-2.9,9.7-6.3,14.5C78.2-272.1,74.4-266,74.4-266z"/>
	<path id="path9916-8-0_1_" class="st0" d="M157.2-266c0,0-3.7-6.1-8.8-13.3
		c-3.4-4.8-6.1-10-6.3-14.5c-0.3-5.1,2.4-10.3,7.4-10.5c4.9-0.2,6.9,4,7.7,7.4c0.8-3.5,2.8-7.7,7.7-7.4c4.9,0.2,7.6,5.4,7.4,10.5
		c-0.3,4.5-2.9,9.7-6.3,14.5C161-272.1,157.3-266,157.2-266z"/>
	<path id="path9930-7-9_1_" class="st0" d="M157.2-145.7c0,0-3.7,6.1-8.8,13.3
		c-3.4,4.8-6.1,10-6.3,14.5c-0.3,5.1,2.4,10.3,7.4,10.5c4.9,0.2,6.9-4,7.7-7.4c0.8,3.5,2.8,7.7,7.7,7.4c4.9-0.2,7.6-5.4,7.4-10.5
		c-0.3-4.5-2.9-9.7-6.3-14.5C161-139.6,157.3-145.7,157.2-145.7z"/>
	<path id="path9932-9-8_1_" class="st0" d="M74.4-145.7c0,0-3.7,6.1-8.8,13.3
		c-3.4,4.8-6.1,10-6.3,14.5c-0.3,5.1,2.4,10.3,7.4,10.5c4.9,0.2,6.9-4,7.7-7.4c0.8,3.5,2.8,7.7,7.7,7.4c4.9-0.2,7.6-5.4,7.4-10.5
		c-0.3-4.5-2.9-9.7-6.3-14.5C78.2-139.6,74.4-145.7,74.4-145.7z"/>
	<path id="path19-3-8-2-9_1_" class="st0" d="M40.5-293.1v-2.3h2.1v-3.8H32.1v-2.7l11.4-17.5
		l1.9,0v17.5h3.2v2.7h-3.2l-0.1,3.8H47v2.3L40.5-293.1L40.5-293.1z M42.6-313.1L35.4-302h7.2V-313.1z"/>
	<path id="path19-4-46-0-1-9_1_" class="st0" d="M191.2-118.6v2.3h-2.1v3.8h10.5v2.7l-11.4,17.5
		l-1.9,0v-17.5h-3.2v-2.7h3.2l0.1-3.8h-1.8v-2.3L191.2-118.6L191.2-118.6z M189.1-98.6l7.2-11.1h-7.2V-98.6z"/>
</g>
</svg>
