<!-- Generator: Adobe Illustrator 19.2.1, SVG Export Plug-In  -->
<svg version="1.1"
	 xmlns="http://www.w3.org/2000/svg" xmlns:xlink="http://www.w3.org/1999/xlink" xmlns:a="http://ns.adobe.com/AdobeSVGViewerExtensions/3.0/"
	 x="0px" y="0px" width="166.7px" height="225.6px" viewBox="0 0 166.7 225.6" style="enable-background:new 0 0 166.7 225.6;"
	 xml:space="preserve">
<style type="text/css">
	.st0{fill:#D40000;}
	.st1{fill:#E2CF00;}
	.st2{fill:#131F67;}
</style>
<defs>
</defs>
<g id="g6155_1_" transform="matrix(0.99999718,0,0,1.000002,-5.9698507,-6.5473594)">
	<path id="path163-0-2-7-7-1-8-7-00-1-2_1_" class="st0" d="
		M13.5,50.3c0,0-1.8-2.5-4.2-5.5c-1.6-2-2.9-4.2-3-6c-0.1-2.1,1.2-4.3,3.5-4.4c2.3-0.1,3.3,1.6,3.7,3.1c0.4-1.4,1.3-3.2,3.7-3.1
		c2.3,0.1,3.6,2.2,3.5,4.4c-0.1,1.9-1.4,4-3,6C15.3,47.8,13.5,50.3,13.5,50.3z"/>
	<path id="path163-0-2-7-7-1-8-1-9-4-6-8_1_" class="st0" d="
		M163.8,187.4c0,0-1.8,2.5-4.2,5.5c-1.6,2-2.9,4.2-3,6c-0.1,2.1,1.2,4.3,3.5,4.4c2.3,0.1,3.3-1.6,3.7-3.1c0.4,1.4,1.3,3.2,3.7,3.1
		c2.3-0.1,3.6-2.2,3.5-4.4c-0.1-1.9-1.4-4-3-6C165.6,189.9,163.8,187.4,163.8,187.4L163.8,187.4z"/>
	<path id="path39-51-8-0-0_1_" class="st0" d="M15.4,30h2.6l-3.9-9.7l-3,4.1l0,5.6h2.1v2.9H6V30
		h2.4V9.1L6,9.1V6.5h7.5v2.6h-2.1l0,10.2l6.5-10.3h-2.3V6.5h7.9v2.5h-2.1L16,17.5L21.2,30h2.3l0,2.9h-8.2L15.4,30L15.4,30z"/>
	<path id="path39-3-9-6-0-8_1_" class="st0" d="M163.2,208.7h-2.6l3.9,9.7l3-4.1l0-5.6h-2.1v-2.9
		h7.3v2.9h-2.4v20.9l2.4,0v2.5h-7.5v-2.6h2.1l0-10.2l-6.5,10.3h2.3v2.5h-7.9v-2.5h2.1l5.4-8.4l-5.2-12.5H155l0-2.9h8.2L163.2,208.7
		L163.2,208.7z"/>
	
		<path id="path3876-2-1-7_1_" class="st1" d="
		M64.3,205.4c14,1.6,28.3,2,43,0.9c3.8,5.3,11.4,16.1,11.4,16.1l-69.3,0.6L64.3,205.4z M46.3,209.1c1.9-3.8,2.2-7.4,1.9-12.7
		c-0.3-4,2.2-7.2,4.8-6c2,0.9,1.1,4.7-1,3.9c-0.8-0.3-1.5,0-1.4,1.8c0.2,4.5,1.4,9.5,0.3,13.8C50.3,214.1,44.6,212.2,46.3,209.1z
		 M28.9,203.3c-2.2-3.3,1.7-6.4,4.2-4.9c1.2,0.5,1,1.7-0.5,1.1c-2-0.9-4.3,2.3-2.5,3.5c0.8,0.6,1.1,0.5,0.5-0.2
		c-1.7-1.9,2.6-2.8,2.5-1.5c-0.3,1.6-0.3,2.2-0.5,2.5C31.8,205.2,30.2,204.5,28.9,203.3L28.9,203.3z M35,189.4
		c-2.4-3,0.3-5.3,0.3-5.2c0.7-0.8-5.6-12.7-4.8-12.8c8-0.9,16.1-0.2,24.1,0c0,0-4.3,7.8-6,11.6c-0.7,1.5,0.9,3.4,0.3,4.5
		c-2.1,2.3-0.8,4.8-2.1,4.9c-3.3-0.6-6.8-1-11.1,0C35.4,192.4,35.5,190.4,35,189.4L35,189.4z M69.6,106.6c4,20.8-1.9,42.8-15.6,57.3
		c-1.9-1.9-3.4-5.4-5.3-7.7c-5.3-1.6-9.2,0.3-12.9,2.2c-3.3-1.9-7.1-3.1-10.7-3l-0.1-3.2c3.7-0.1,7.6,0.3,10.9,2.3l5.1-2.1
		l-16.1-16.8l0.2-2.9l19.5,19.8l2.5,0.1C41.6,137.8,46.5,114.3,69.6,106.6L69.6,106.6z M96.8,132.7l2.8,13.6
		c0,0-15.8,15.8-24.1,23.9l-6.9-0.6c3.5-5.2,5.4-10.5,7.7-15.7L96.8,132.7z M152.8,151.3c-6.6,7.5-14.5,12.2-23.3,17.5
		c-3.5-4-7.8-8.3-10.2-12.2c7.7-4.1,15-7.3,22.5-14.6c-0.4,0.5-9.6,3.6-9.5,3.2c-0.3,1.5-0.1,2.5-1.6,2.9c-1.8-2.5-3.5-4.5-6.2-5.6
		c-1.2,0.1-2.7-0.7-2.7-0.7c0.8-0.2,0.4-9.7,0-9.8c0.9-0.3,1.7-0.9,2.9,0.4c0.5,0.4,5.8-5,7.6-6.8c7.1-0.6,13.3,0.1,20.2-0.1
		C152.3,134,152.8,142.8,152.8,151.3L152.8,151.3z M108,129.8c-0.2-0.4-2-14.4-0.3-23.2c4.6-14.8,3.5-19,15.5-33.6
		c0.8-0.8,3.5,1.7,5.6,6.1c6,3.8,13.7-1.1,13.7-1.1s3,2.5,9.7,3.8l-0.1,2.6c0,0.8-7.6-0.8-9.2-2.4c0,0-5.7,1.9-5.7,2.2
		c0,1.5,15.1,15.5,15.1,15.5l-0.1,3.3c0.1,0-20.6-21.7-20.9-19.4C137.2,109.2,127.2,122.1,108,129.8L108,129.8z M83.1,125.3
		l-0.3-13.5l12.7,0.2l0.5,13.6L83.1,125.3z M25,110.7c0.3-0.5-0.5-25.1-0.4-25.1c8.1-8.1,16-12.7,23.9-17.6c3.6,3.6,6.6,6.6,9.3,11
		l-10.9,6.8c0.4,1.7-0.7,2.3,6.4,8.7c0.1-0.4,2.4-1.8,2.8,0.2c-1,4.1,0.4,7.7,0.6,9.9c-1,1.3-3.1-0.1-3.1-0.1
		c-1.4-1.5-6.8,5.8-8.4,6.6C38.3,110.8,24.6,111.3,25,110.7L25,110.7z M101.4,66.9c0,0.1,7,0,6.9,0.2c-1.3,3.1-4.1,9.4-7,16.2
		c-2.4,4-19.7,20.7-19.7,20.7c-0.8-4.8-2-9.6-3.3-14.3L101.4,66.9z M131.3,43.6c2.5,1.1,9.5,0.5,10.6,0c1.4,1,0.5,2.3,0.4,3
		c1.5,1.9,2.3,2.5,0.6,5.6c-0.4,0,5.1,12.5,5.3,12.5c0,0-5.8-2.8-7.9-4.7l-4,5.4l-4.7-6.1c0,0.5-9,6.6-9.1,6.3
		c-0.3-0.3,8.2-9.5,6.5-14.9c-0.4-1.3,0.5-2.6,1.2-3.8C130.7,46.2,130.1,44.7,131.3,43.6L131.3,43.6z M126.7,42.5
		c0.4-0.4-2.2-11.8,0.6-16.3c1.2-1.7,3.3-1.7,4.2-0.4c0.7,1.9-1.3,4.5-1.7,5.8c-1.3,3.6,0.6,8.3-0.3,11.7
		C126.6,50.7,121.5,42.6,126.7,42.5L126.7,42.5z M145.6,37.5c-1.5,0.1-0.5-4.5-0.2-5.8c0-0.3,2.7-0.9,3.7,0.9
		C150.8,35.3,148.9,38.6,145.6,37.5L145.6,37.5z M127.7,14.6L113.6,32c-14.3-1.7-28.6-2.7-43.2-0.5L58.6,15L127.7,14.6z"/>
	
		<path id="path3874-3-1-4_1_" class="st2" d="
		M154,13.6H23.4v210.5H154V13.6z M127.6,14.7L112,34.1l-0.4,0.1c1,3.1,2.5,6.9,4,9.9c2.3,4.7,8,13.4,4.4,20.4
		c-0.3,0.6-0.7,0.9-1.1,0.9c-0.6,0-0.6-0.4-0.2-1.1c0.8-1.5,1.3-5.2,1-7.1c-0.2-1.2-0.9-3.1-2.2-6c-5.9-11.1-7.8-17-7.5-17
		c-0.1-0.1-0.2-0.1-0.4-0.2l-0.6-0.2c2.1,7,5.4,12.9,8.1,18.4c2.2,5.1,2.4,7,1.3,10.7c-0.4,1.4-1.2,2.3-2,2.3
		c-0.6,0-0.6-0.1-0.2-0.8c2.1-3.8,1.6-7.9-1-12.7c-3.8-7.9-6-12.9-7.4-18c0,0-0.7-0.2-0.9-0.3c1.1,5.3,4.2,11.4,7.1,17.7
		c2.4,4.8,3.1,8.3,2.2,11.1c-0.3,1.2-1.2,3-2.3,3c-0.4,0-0.5-0.2-0.1-0.9c1.8-3.1,2.1-5.9-1.1-12.4c-2.9-6-5.9-12.6-6.9-18.4
		c-0.1-0.5-1.3-1-1.1-0.3c1.6,6.9,4.7,13.9,8,20.8c1.9,4.3,2.1,7,0.7,9.4c-0.8,1.3-1,1.6-1.6,1.6c-0.7,0-0.7,0-0.3-0.8
		c1.7-3.6,1.4-6.7-0.8-11.9c-3.1-7.1-5.7-13-6.8-19.2c-0.2-0.1-1.3-0.5-1.1-0.2c1.6,6,3.5,11.5,6.1,17.1c0.9,1.9,2.3,5.7,2.8,7.6
		c0.9,3.6-1.1,8.5-3.7,8.8c-1,0.1-0.9-0.4,0.2-1.4c1.9-1.8,2.2-4.6,1.6-7.8c-0.5-2.5-1.3-5.2-2.4-7.9c-2.3-5.5-4.8-11.3-5.6-16.4
		c0-0.5-1-0.5-0.7,0c0.6,3.6,1.9,7.7,3.4,11.5c1.6,4.2,4,8.8,4.8,13.9c0.6,4.2-1.9,8.1-5.1,8.3c-3.8,0.3-4.5-3.5-3.6-5.3
		c1.5-2.6,5.8-1.1,4.5,1.6c-0.7,1.6-3,1.1-2.9-0.6c0-0.2,0.2-0.6,0.2-0.6c-0.1,0-0.4,0.3-0.5,0.4c-0.8,1.4,1.5,3.2,3.1,2.1
		c5.3-2.9,1.7-11.8-0.6-17.3c-2.2-5.1-3.9-9.6-4.6-14.3c-0.2-0.1-1.1-0.4-1-0.2c0.6,2.5,0.9,4.6,1.6,6.7c1,3.3,2.8,7,4.3,10.7
		c1.3,3.6,2.7,6.7,2.1,10.5c-0.1,0.4-0.2,0.8-0.4,1c-0.2,0.3-0.4,0.2-0.5-0.8c0-0.1-0.2-0.3-0.2-0.5c0.1-1.4,0-2.8-0.3-4.2
		c-0.3-1.1-0.9-2.3-2.2-4.5c-0.5-0.8-1.8-3.3-1.3-1.6c0.3,1,1.1,3.1,2.1,4.7c0.6,1,1.2,3.6,1,4.1c-0.2,0.5-0.6,0.5-0.8,0.4
		c-0.2-0.2-0.2-0.9-0.2-1.3c-0.2-1.8-2-4.9-3.3-6.2c-0.9-1,2.1,4.4,2.4,5.8c0.1,0.6,0.3,1.1,0.1,1.4c-0.1,0.2-0.4,0.2-0.7,0.1
		c-0.3-0.1-0.2-0.2-0.5-1.2c-0.5-1.6-1-2.4-2.2-3.8c-0.4-0.5-0.7,0.1,0,0.9c0.9,1.4,1.6,2.4,1.8,4.2c-0.6,0.8-0.9,0.7-2.1-1.5
		C98.4,56.3,98,56,97.7,56c-0.5,0,0,0.7,1.5,3.1c0.8,1.3,0.8,2.1-0.1,2.1c-0.3,0-2-1.9-2.4-2.7c-0.4-0.7-0.8-1.2-0.8-0.4
		c0,0.3,1,2.1,1.8,2.9c1.1,1.3,1.5,1.6,1.6,2.2c0.1,0.3,0.2,0.8,0.3,1.1c0.3,1,0.1,1.2-0.4,0.7c-0.3-0.7-0.5-0.8-1.2-1.3
		c-0.6-0.5-1.5-1.6-2-2.5c-0.2-0.3-0.4-0.7-0.6-1c-0.5-1-1.3-1.1-0.7-0.1c0.2,0.5,0.7,1.3,1.1,1.9c0.7,1,0.6,1.6-0.3,1.6
		c-0.4,0-1.4-1.3-2-2.4c-0.4-0.7-1.1-1.2-1-0.5c0,0.2,0.5,1.4,1.3,2.3c0.8,1,0.9,1.6,0.1,1.6c-0.5,0-1-0.5-1.7-1.6
		c-0.6-1-1.1-1.4-1.2-1.2c-0.2,0.1,0.9,2.1,1.9,3.2c0.9,1,0.2,1.6-0.8,0.7c-0.6-0.5-1.7-2-2-2.7c-0.6-1.3-0.9-0.9-0.6,0.1
		c0.4,1.1,1,2.3,1.8,3.1c0.4,0.4,1.2,0.7,1.6,1.1c1.1,1,1.9,1.9,1.8,2.1c-3.2,0.2-5.9-3.3-6.6-5.4c-0.5-1.4-1.1-1.6-0.5,0.4
		c1.6,4.9,6.5,7.4,9.9,5.2c2.1-1.3,0.2-4.8-1.4-3.6c-0.5,0.3-0.5,1.2,0.1,0.7c1.1-0.9,2.2,1.3,1,1.9c-1.7,0.9-3.5-0.8-2.4-2.9
		c1.1-2.1,5.6-0.9,4.7,2.5c-0.5,1.6-2.9,3.5-4.9,3.5c-3.7,0.1-6.3-2.8-7.7-5.7c-0.2-0.4-0.5-1.1-0.8-1.7c-0.2-0.5-0.4-0.9-0.4-0.9
		c0.4,3.5,3.7,7.8,6.6,8.5c4.9,1.2,6.2-1.8,9.4-4.8c0,0,2.3,0.3,2.4,0.3c0.2-0.1,4.5-0.3,4.7-0.2c-17.4,32-16.1,69.9-1.1,98.7
		c1,2.1,1.2,1.7-0.5,1.3c-1.7-0.4-3.2,0.2-4.6-0.1c-2.8-0.6-3.5,1.4-5.6,2.4c-2.7,1-2.1,3-2.8,4.8c-0.2,0.3-0.4,0.5-0.2,0.5
		c0.2-0.1,0.8-0.6,0.8-1.1c0.1-1.2,0.5-2.2,1-2.7c0.5-0.5,0.8-0.7,0.9-0.5c0.1,0.2,0,0.7-0.2,1.2c-0.7,1.3,0.2,5.5,0.3,2.5
		c0-2.4,1.5-5.1,3.5-6.2c1.6-0.8,2.1-0.7,0.8,0.5c-1.5,1.6-2.5,3.5-2.6,5.8c0,1,0.4,1.8,0.5,0.9c-0.1-4.4,4.3-9.3,9-6.9
		c0.2,0.2,0.4,0.5,0.4,0.7c-4.5-0.8-8.5,1.7-7.9,7.7c0,0,0.4-1.2,0.6-2.3c0.7-3.6,4.8-5.2,7.6-4.2c0.5,0.2,1,1,0.9,1.1
		c-3.5-1.1-7.3,2.2-7.5,5.8c-0.1,1.2,0,2.2,0.5,0.1c2.3-8,9.2-4.4,8.3-3.7c-5.4-0.6-7.3,3-7.2,7.2c0.1,0.4,0.3,0.5,0.4,0.9
		c0.7,1.6,1,3,1.1,5.9c-0.1,0.7,0.6,5.5-0.1,5.3c-2-0.7-3.4-1.6-6.8-0.1c-0.3,0-0.4-0.2-0.3-0.4c0.1-0.4,0.7-1.1,1.6-2.1
		c2.1-2.2,0.9-1.6-0.8-0.1c-1.1,1-0.9,0.3,0.2-3.1c0.4-1.4,0.2-1.6-1.7-2.5c-1.9-1-3.2-1.1-1.6-0.1c0.6,0.4,1.3,0.8,2,1.1
		c0.8,0.5,0.7,0.6,0.1,2.7c-1.2,3.9-1.6,5.3-1.5,7.9c0.2,6.4,6.1,5.7,9.6,4.3l0.1,4.2l12.9,18.3c0,0-44.9,0-69,0.4
		c1.4-3.3,15.9-17.5,16.8-20c0.1,0-1.6-5.2-2.5-7.4c-4.2-10.6-9.7-15.1-6.5-22.1c0.7-1.4,0.8-1.9,1.3-1.8c0.7,0,0.9,0.5,0.1,1.8
		c-3.4,5.8,3.9,15.9,6.4,22.3c0.4,1,2.1,5.8,2.3,7.5c0,0.5,1.2,0.7,0.9,0.1c-0.9-3.3-2.1-6.9-2.6-8.1c-2-4.7-4-8-5.9-12.6
		c-1.1-2.9-1.6-6.3,0-9.3c0.6-1.1,0.8-1.7,1.2-1.8c0.3,0,0.5,0.1,0.6,0.4c0,0.3-0.2,0.8-0.6,1.6c-2.9,5,2.2,13,4.8,18.7
		c1.7,3.7,3.1,7.7,3.7,11.2c0,0.2,0.3,0.9,1,0.5c-1.1-6.6-4.3-13-7.2-19.2c-2.4-4.8-3.3-9-0.1-13c0.3-0.3,0.9-0.2,0.9,0.2
		c0,0.3-0.2,0.8-0.7,1.9c-2.8,6,1.6,10.9,3.6,16.7c2,4.8,3.9,8.8,4.6,14c0.6,0.2,0.9,0.5,0.9-0.2c-1.5-7.2-4.7-13.7-7.4-20
		c-1.3-2.7-1.7-4-1.8-5.8c-0.1-2.5,1.1-5.7,2.2-6.5c0.3-0.2,0.5-0.3,0.7-0.1c0.4,0.2,0.3,0.3-0.4,1.7c-1.4,2.6-1.5,5.6-0.2,8.7
		c2.2,4.8,4,8.7,5.4,12.2c1.4,3.8,2.2,7.2,2.6,10.2c0,0,1,0.4,0.8-0.2c-0.6-4.2-2-8.6-3.5-12.3c-1.4-3.5-3.2-6.9-4.6-10.3
		c-1.7-4.2-0.3-8.7,3.2-11l1.6,0c-0.1,0-3.7,1.4-3.9,6.7c-0.2,5,2.2,8.1,3.8,12.3c2.1,5.1,3.9,9.6,4.3,15c0.2,0.2,1.1,0.2,1,0.2
		c-0.4-3.7-1.5-7.2-3-11.4c-1.6-4.6-3.2-6.6-4.7-11.4c-1-3.2-0.9-7.6,1.4-9.6c3.4-3.4,8.1-1,6.9,2.9c-0.9,2.8-4.7,2.2-4.6-0.4
		c0-1.7,2-2.1,2.7-0.9c0.2,0.2,0.3,1.3,0.3,1.4c0.1,0,0.3-0.8,0.3-1c0-1.4-1.8-2.5-3.2-1.8c-1.9,1-3.1,3.2-3,6.1
		c0.1,3.1,0.7,5.2,3.2,10.1c3,5.7,3.9,11.9,4.6,16.1c0.3-0.1,0.6,0,0.7,0c-0.4-5.7-2.3-11.5-4.6-16.4c-2.8-5.9-3.6-9.5-2.6-12.1
		c0.1-0.4,0.3-0.7,0.4-0.7c0.3,0,0.4,0.5,0.7,1.5c0.1,0.3,0,0.8-0.1,1.2c-0.2,2.4,1.4,7.4,3,9.7c0.5,0.6,1,0.6,0.5-0.5
		c-1.6-2.9-2.6-5.6-2.7-9.1c0-1,1.2-0.6,1.2-0.1c0.1,1.7,0.3,3.7,1.1,5.1c1.6,2.8,2.5,2.9,0.9-0.2c-0.4-0.7-1.4-3.8-1-4.9
		c0.2-0.2,0.5-0.3,0.7,0c0.5,1.7,1.1,3.5,2.3,4.8c0.6,0.7,0.7,0.4,0.4-0.5c-0.5-1-2.2-4.4-1.4-5.1c0.2-0.2,0.1-0.1,0.8,1
		c0.9,1.5,1.4,2.1,1.9,2.6c0.6,0.6,0.7,0.2,0.1-0.9c-1.2-2.1-2-3.8-1.5-4.3c0.4-0.4,0.5-0.2,1.5,1.5c0.4,0.8,1.1,1.9,1.3,2.1
		c0.2,0.3,0.4,0.3,0.4,0.1c-0.2-2-2-4.4-2.7-4.8c-0.1-0.2-0.1-1.8-0.1-1.8c2.6,1.4,2.7,2.9,4.4,5.2c0.2,0.2,0.4,0,0.4-0.4
		c-0.1-0.4-1.1-2.4-1.7-3.3c-0.5-0.7-0.5-1.1-0.1-1.3c0.7-0.3,1.7,0.7,2.7,2.6c0.5,0.9,1.1,1.4,1.1,0.9c0-0.2-0.9-2.5-1.5-3.1
		c-1-1.1-0.5-1.8,0.7-0.8c0.5,0.4,1.3,0.8,2,2.4c0.4,1,0.8,1.1,0.8,0.3c0-0.9-1.4-2.9-2.4-3.5c-0.7-0.4-1.2-0.9-1-1.3
		c0.6-1,3.3,1.5,4.2,3.8c0.3,0.7,0.7,1,0.8,0.7c0.2-0.2-0.3-1.8-0.9-2.6c-0.9-1.7-3-3.4-4.3-3.2c-0.2,0-0.9-1.4-0.9-1.4
		c3.2-0.5,6.3,3.4,6.9,4.8c1.1,2.8,1.6,2.4,0.7,0c-1.8-4.7-7.4-7.4-10.5-5.1c-1.8,1.3-0.7,4.4,1.1,3.9c0.7-0.3,1.4-1,0.2-0.8
		c-1.4,0.1-1.9-2-0.4-2.5c2.3-0.7,2.9,3,1,3.9c-1.9,0.8-3.9-0.4-3.7-2.6c0.3-4.1,5.3-5.3,10.2-2c1.4,0.9,3.1,3.9,3.6,5.9
		c0.2,0.6,0.8,0.9,0.9,0.8c0.2-0.2-1.4-3.6-1.9-4.4c-2.1-4.9-9.8-5.2-9.8-4.9c0,0-3,1.9-5.7,5.1l-6.9-0.6
		c17.5-28.4,18.9-70.3,0.9-99.9c0.2,0.2,3.5,1,4.6,0.1c0.8-0.4,1.1-0.5,2-0.2c1,0.4,2.1,0,3.2-1c0.8-0.8,0.9-1,1.4-0.9
		c1.6,0.2,2.7-0.7,3-3.1c0.1-0.9,0.2-1.9,0.1-1.7c-0.1,0.1-0.3,0.9-0.4,1.4c-0.3,1.4-0.6,1.9-1.1,2.3c-0.9,0.7-1.4,0.3-1-0.8
		c0.3-0.7,0.6-2.6,0.2-3.4c-0.1-0.2-0.1,0.4-0.2,0.9c-0.9,3.6-1.9,5.5-3.7,5.9c-0.8,0.2-1.2,0.1-0.9-0.4c3-3.3,2.8-6.9,2.6-6.6
		c-0.6,2.1-1.8,5.2-3.8,6.5c-1.7,1.1-4.2,1.2-5.6,0.3c-0.8-0.5,0.4-0.7,2.2-0.7c3,0,5.8-4.1,5.3-7.5c-0.1-0.6-0.3,0-0.5,1.1
		c-1.1,3.7-3,6.3-7.3,5.5c-0.3-0.1-0.6-0.3-0.7-0.4c-0.7-0.5-0.4-0.8,1-0.6c3.1,0.4,5.9-2.6,5.8-6.1c0-1.7-0.3-1.7-0.5-0.4
		c-0.4,1.8-1.8,7.3-6.8,5.5c-0.9-0.5-1.4-1.1-1.1-1.2c3,0.6,5.7-0.1,6.7-4c0.5-1.7,0.3-3.3-0.1-4.7c-0.1-0.9-0.5-1.7-0.6-2.6
		c-0.3-2.6-0.7-5.4-0.6-8.2c0.2-0.2,0.3-0.2,1.1,0.4c1.7,1.1,2.9,0.9,4.6,0.2c2.2-0.8,2-0.7-0.3,2c-0.5,0.5-1,1.2-1,1.3
		c-0.6,1.1,0.5,0.3,1.3-0.7c1.1-1.4,1.4-1.8,1.6-1.8c0.1,1.6-0.5,3.4-0.8,4.7c-0.4,1.4-0.4,1.7,0.5,2.1c0.4,0.2,1.1,0.5,1.5,0.7
		c1.9,0.9,1.7,0.2,0.2-0.7c-2-1.1-2-1.1-1.5-3c0.7-2.2,1-4.2,1.4-6.4c0.9-5.5-3.2-8.5-8.6-6.6c-0.3,0.2-0.7-2.9-0.6-3.7
		c0-0.3-0.8-0.2-1.5-1.1c0.2-0.2-8-10.6-11.8-16.9C82.6,15.1,106.1,14.6,127.6,14.7L127.6,14.7z M110,34.2
		C110,34.2,110.1,34.3,110,34.2C110,34.2,110,34.2,110,34.2z M128.6,15.1h23.6v50.3l-2.3,0.1c0,0-3.8-6.7-4.9-9.8
		c-0.3-0.8-0.7-1.9-0.9-2.3c-0.4-1-0.7-1.1-0.1-1.7c1-1.2,0.8-3.6-0.2-4.7c-0.3-0.4-0.5-0.2-0.5-1.2c0-0.8,0.1-1.3-0.1-1.7
		c-0.3-0.7-0.6-0.7-0.1-1.5c0.5-0.8,1.2-2,1.5-3c0.5-1.6,0.1-1.9,1.2-1.5c2.6,0.8,4.8-1,4.7-3.7c-0.1-2.2-2.1-4.2-4.5-3.6
		c-0.6,0.1-0.7,0.1-1.5-0.4c-0.2-0.2-0.6-0.5-0.9-0.6c-0.4-0.2-0.7-0.1-0.9-0.4c-0.3-0.6-1.3-1.4-2.5-1.4c-0.7,0-1.7-0.2-2-0.4
		c-0.4-0.2-1.6,0-3.1-0.3c-0.7-0.1-1.2,0.2-1.5,0.2c-0.9,0-0.6-0.1-0.7-0.8c-1.2-3.7-4.6-3.3-6.1-0.5c-0.6,1.1-1,2.7-1.2,4.4
		l-9.2-0.1L128.6,15.1z M57.4,15.3c3.4,4.4,6.7,9.4,10.2,13.9c4.3,5.5,4.4,6.1,3.3,11.6c-0.6,3.1-0.9,3.8-2.2,3.6
		c-1.2-0.2-2.2,0.7-2.4,2c-0.3,2.3,1.9,3.7,4.1,2.6c1.2-0.6,1.2-0.7,0.8,1.3c-0.6,2.9-1.7,5.3-2.4,5.3c-1.8-4-6.3-1.1-4.8,3
		c-0.5,0.7,0.1,1.6,0.4,2.4c0,0,0,0.1-2.6,0.9c-12.6,3.8-28,13.6-36.5,22.9V15.4L57.4,15.3z M129.7,24.7c0.5,0,1,0.2,1.5,0.5
		c1.1,1,0.8,2.4-0.7,5c-1.6,3.7-1.2,6.5-0.8,10.4c0,2.2-0.8,4.3-1.9,5.3c-1.9,1.5-4.3-0.5-3.3-2.5c0.5-1,1.6-0.4,1.9-1.4
		c0.4-3.5-0.5-7.1-0.6-10.5c0-1.5,0.5-3.5,1.2-4.9C127.6,25.4,128.7,24.7,129.7,24.7L129.7,24.7z M132.8,30.7
		c-0.4,0.4-1.2,0.4-1.2-0.1c0-0.5,0.4-2,0.6-2.2C133.7,28,133.2,30.3,132.8,30.7z M135.1,28.3c1.3-0.1,2.2,3.3,1,5.3
		c-0.2,0-1.8,0-1.8,0.1c0-0.4,0.1-1.1,0.2-1.7c0.1-0.6,0.2-1,0-1.6C134.1,28.7,133.8,28.4,135.1,28.3L135.1,28.3z M137.6,28.3
		c0,0,0.1,0,0.2,0c1.3,0,2.1,2.6,1.7,5.4c-0.1,0.4-0.1,0.8-0.2,0.9c-0.6-0.2-2.1,0.4-2.1,0.4c-0.1-0.1-0.1-1,0.1-1.7
		c0.4-1.3,0.5-2.2,0-3.6C136.9,28.6,136.9,28.3,137.6,28.3L137.6,28.3z M140.9,29.1c1.5,0.2,1.5,4.3,1,5.6c-0.1,0.2-0.7,0.1-0.9,0.2
		c-1.2,0.4-1,0.5-0.8-1.4c0.1-1.4,0.1-2.4-0.1-3.6c-0.1-0.5-0.1-0.8,0.2-0.9C140.5,29,140.7,29,140.9,29.1L140.9,29.1z M133.7,30.7
		c0.6,0.8,0.1,2.7-0.3,3.3c-0.5,0.8-0.7,0.8-0.4,1.2c0.1,0.1,0.4,0.9,0.2,1.2c-0.3,0.6,0.4,0.7,1.1,1c1,0.6,1.6,1.6,2.3,3.4
		c0.3,0.6,0.8,0.4,0.6-0.3c-0.2-0.6-0.3-1.5-0.5-2.1c-0.2-0.6,0-0.9,0.7-0.7c1,0.3,0.9,0,1.3-0.1c0.8-0.5,1.4,0.2,0.9,0.6
		c-0.3,0.2-0.9,0.3-1.6,0.5c-0.6,0.2-0.4,0.7,0.1,0.7c0.5,0,2.1-0.4,3.1-0.7c2.9-0.9,3-1.3,2.7,0.3c-0.4,2.2-1.5,3.8-3.5,4.4
		c-1.7,0.5-5.6,0.4-7.4-0.2c-1.7-0.8-1.8-1.3-2.3-2.8c-0.7-2-1.1-5.4-0.3-7.4c0.7-1.7,0.6-1.5,1.3-1.4c0.6,0.2,1.4,0,1.6-0.4
		C133.3,31,133.6,30.6,133.7,30.7L133.7,30.7z M144.7,31.9c0.2,0.9,0.2,1.8-0.1,2.5c-0.2,0.3-1.2,0.3-1.6,0.3c-0.2,0.1-0.2-3,0-3.4
		C143.6,30.4,144.3,31.1,144.7,31.9L144.7,31.9z M115.5,31.3l2.8,0v0.7l-3.4,0L115.5,31.3z M125.5,31.5v0.9l-4.3,0v5.7l4.8,0l0,1.2
		l-6.4,0l0-7.8L125.5,31.5L125.5,31.5z M147.2,31.3c4.4,1,2.4,5.9,0.8,6.2c-2.1,0.4-3.8,0.1-3.2-1.7c0.6-1.2,0.2-2.8,0.3-3.9
		C145.5,31.5,146.6,31.1,147.2,31.3z M114.1,33l4.2,0V34l-4.8,0L114.1,33z M123.5,33.9c0.7,0,1.2,0.6,1.2,1.2c0,0.7-0.5,1.2-1.2,1.2
		c-0.7,0-1.2-0.6-1.2-1.2C122.3,34.4,122.8,33.9,123.5,33.9z M135.4,34.4c0.8,0.1,0.9,1.3,0.5,1.7c-0.4,0.4-1.2,0.2-1.4-0.4
		C134.3,35.1,134.8,34.3,135.4,34.4z M113,34.9l5.4,0v0.8l-5.5,0l-0.1-0.5L113,34.9z M143.4,35.2c0.7,0,1.2,0.6,0.7,1.2
		C143.4,37.2,142,36,143.4,35.2z M85.8,36.9c-1.2,1-0.2,2.1,1.4,1.1c3.5-2.1,8.6-0.4,11.9,1.3c0.7,0.3,0.7-0.5,0.1-1
		C96.1,35.5,89.5,34,85.8,36.9L85.8,36.9z M138.2,35.4c0.8,0,0.8,1.1,0.3,1.5c-0.5,0.2-0.6,0.2-1,0C137,36.7,137.3,35.4,138.2,35.4
		L138.2,35.4z M141.1,35.5c1,0.1,0.9,2.1-0.6,1.4C140,36.2,140.3,35.5,141.1,35.5z M113.2,36.5l5.3,0v0.9l-4.9-0.1L113.2,36.5z
		 M79.3,38.6c1.4,1.2,1,1.2-1.4,0.4c-1.6-0.4-3.1-0.1-4.1,0.3c-1.2,0.5-1.4,0.3-0.9-0.5C74.2,37.2,77.9,37.5,79.3,38.6L79.3,38.6z
		 M86.2,40.5c-0.1,0.4-0.6-0.3-1.3-0.2c-1,0.2-0.7,0.2,0.3,1.4c1,1.2,1.3,1.4,1.3,1.9c-0.1,0.7,0.1,1,0.7,0.9c0.3,0,0.7,0.3,1.2,0.8
		c1.6,1.5,2.5,2.3,3,2.5c2.2,1,1.2-0.1-0.2-1.1c-2.3-1.6-3.1-2.7-1.5-2.1c1.8,0.6,4.5,0.3,5.9-0.6c0.7-0.4,1.1-1,2.1-0.7
		c1.3,0.4,1.8-0.4,1.5-0.8c-0.6-0.4-2-0.9-3.3-1.8c-2.8-1.4-5.8-1.4-7.7-0.2c-1.2,0.7-1.6,0.2-0.4-0.5c4.6-2.5,8.2-0.1,11.1,1.7
		c0.5,0.3,0.9,0.3,0.9,0.1c-0.1-0.7-1.4-1.2-1.9-1.5C93.6,37.7,89.4,36.9,86.2,40.5L86.2,40.5z M113.9,38.3l4.6,0v0.9l-4.2,0
		L113.9,38.3z M76.8,39.4c1.3,0,4,1.1,4,2.1c-0.1,0.4-0.7,0-1.3-0.3c-1.2-0.7-2.9-0.9-4.6-0.6c-1.3,0.2-1.7,0.5-1.9,0.3
		C72.5,39.9,75.6,39.4,76.8,39.4z M126.1,40.1l0,1.6c-2.5,0.2-3,3-1.4,4.5c1.3,1.3,3.5,0.8,4.5-1c0.2-0.3,0.2-0.5,0.3-0.4
		c0.1,0.1,0.1,0.4,0.2,0.7c0.2,0.9-0.1,1.1-0.6,1.8c-0.9,1.2-1,2.7-0.5,3.8c0.2,0.3,0.5,0.7,0.4,0.9c0.3,0-2.8,8.9-7.4,13.4
		c-0.8,0.5-1.3-0.1-0.9-0.9c3.7-8.6-3.4-16.7-6.2-24.4L126.1,40.1L126.1,40.1z M93,41.6l0.7,0.1c-0.5,4-4.3,3.3-4.5,0.1l0.5,0
		C90.5,44.7,93,43.5,93,41.6L93,41.6z M71.5,41.7c0,0,0.3,0.4,0.3,0.7c0,0.9,0,2.3,0,2.7c-0.2,3.8-5,4.5-4.6,1.3
		c0.3-1.4,2-1.5,2.4-0.3c0.6,1.6,0.7-0.4,0.7-1C70.8,44.1,71.1,42.9,71.5,41.7L71.5,41.7z M94.6,41.9c0.2,0,0.5,0.2,0.8,0.5
		c0.3,0.3,0.2,0.5-0.5,0.9c-0.8,0.4-1.2,0.4-0.9-0.5C94.2,42.3,94.3,41.9,94.6,41.9z M130.4,42.2c0.1,0,0.4,0.1,0.3,0.6
		c-0.1,0.7-0.7,1.1-0.9,0.9C130,43.3,130.1,42.3,130.4,42.2z M88.9,43.5c-0.1,0.3-0.3,0.2-0.7-0.2c-0.5-0.4-0.4-0.7,0-0.9
		C88.9,41.9,88.9,43.2,88.9,43.5L88.9,43.5z M74.3,42.5c0.8,2.6,2.4,2.2,3.2,0.1l0.7,0c-0.2,3.3-4.3,3.2-4.3,0.1L74.3,42.5z
		 M72.9,42.8c0.2,0,0.1,0.8,0.1,0.8s-0.7-0.4-0.3-0.7C72.7,42.8,72.9,42.8,72.9,42.8z M79,43c0.1,0,0.2,0.1,0.4,0.2
		c0.4,0.3,0.3,0.4-0.1,0.8c-0.7,0.6-1,0.3-0.6-0.5C78.7,43.1,78.8,43,79,43z M131.5,43.5c0.3,0,0.7,0.1,1.6,0.4
		c2.4,0.7,5.7,0.6,8.5-0.1c0.9-0.2,1.5,1.3,1.1,2.4c-0.2,0.5-0.2,0.6,0.5,1.2c0.9,1,1,2.5,0.4,3.9c-0.5,1-0.5,0.9,0.1,2.7
		c1.3,3.8,3.1,7.3,5.1,10.8l-2.6-1c0,0-11.9,10.3-20.2,10.7l3,4.8c4.8,1.9,9.3,1.4,13.7-1.3c-0.1,0.4,5.3,3.1,9.7,3.4l0,3.2
		c-3.3-0.4-6.6-0.5-9.7-2.4c0,0-2.8,1.2-5.6,2.1l15.8,16.6l0,2.8c0,0-6.7-6.4-13.7-13.6l0.1,35.4l13.7,0.3
		c-0.4,9.2-0.3,15.1-0.2,25.6c-6.5,6.7-15.3,13.4-23.5,17.5c-3.9-3.8-7.1-7.9-9.9-12.3c-0.1-0.1,0.3-0.3,0.2-0.4
		c-0.1-0.1-0.6-0.2-0.7-0.3c-1.7-2.6-5.7-9.7-5-9.9c1.2,0.1,6.8-0.6,8-4c0-0.2-0.1-0.8,0-1.5c0.4-1.9,0.6-4.7-0.1-6.5
		c-1.2-3.2,2.4-2.2,2.5-2v-12.2c-4.7,3.8-9.5,7.6-15.8,9.2c-3.9-20.1,2.3-45.2,20.1-62.1l-1-0.1c-18.3,19.2-23.1,40.3-19.9,62.5
		c0,0,0.1,0.7,0.1,0.9c0,0.6-0.1,0.8-0.6,1.2c-0.5,0.3-0.9,0.6-0.8,1c0.1,0.7-0.6,0.7-1.5,0.7c-0.4-0.4-1,0.1-1.3,0.3
		c-0.5,0.1-0.7-1.8-1.3-0.4c-0.2,0.9-0.6,0.9-1.6,0.5c-0.6-0.2-0.6,0.1,0,0.8c0.8,0.9,1.5,2.2,1.4,2.6c-0.3,0.9-0.2,1.8,1.1,2.3
		c-0.1,0-0.8,2.7,1.2,2.7c0.6,0,2.2,0.3,2.2,0.3c0.1,0.5-0.1,0.8-0.3,1l-1.3-0.7l-0.4,1.6l-1.8-0.1l4.4,5.5l0.5-4.3l5.1,0.7
		c0.8,2.2,6,14.1,15.8,23c-0.1,0.3-6.8,3.1-6.8,3.1l-1.1-3.3l-0.8,1.2l-1.5-0.4l-0.2,1.4l-1.3,0.4l2.4,1.6l-6.1,1.8
		c-17.2-28.1-24.9-66.8-3.5-108.1l5.4,0.1l-1.1,1.8l1.5-0.2l0.4,1.3L117,69l1.1,1.4l1.3-3.9c0,0,3.8,0.1,4.3,0
		c0.4,0,8.1-6.6,7.9-6.9c-0.1-0.2-8.4,6-8.7,5.7c0,0-0.8,0.2-0.2-0.6c1.2-1.4,2-2.5,3.2-4.5c1.9-2.7,2.8-6,3.3-8.2
		c0-0.2,0-0.5-0.1-0.8c-0.7-1.5-0.6-2.5,0.8-4.2c0.5-0.6,0.5-0.8,0.4-1.2c-0.3-0.9,0-1.6,0.6-2.2C131.1,43.7,131.3,43.6,131.5,43.5
		L131.5,43.5z M86,49.5c3.4,1.4,0.7,4.5-1.8,1.8c-1.3-1.4-2.4-1.3-3.1-0.3c-0.3,0.5,0.1,1.3,0.6,1c0.4-0.2,0.8-0.5,1.4,0
		c4.3,4,7.4-1.6,3.7-3C86.2,48.9,85.6,49.3,86,49.5L86,49.5z M72.1,49.4c0,0,0.1,0,0.1,0c0.2,0.1,0.2,1.5,0,2.1c-0.5,3-2.7,10-7,6.6
		c-1.7-1.4-0.2-4.8,1.9-3.6c1.6,0.9,0.5,3.1-1.2,1.8c-0.8-0.6-0.6,0.6,0.1,1c1.2,0.6,3.4-0.5,4.4-2.4c0.4-0.8,0.8-2.2,1.2-4.2
		C71.9,49.7,72,49.4,72.1,49.4L72.1,49.4z M72.5,54.6c0.4,2.2-1.3,6-3.6,6.6c-1.8,0.4-4-0.7-3.8-1.8c0-0.3,0.2,0.1,1.8,0.4
		c2.3,0.4,3.7-0.9,5-3.7C72.2,55.1,72.4,54.6,72.5,54.6L72.5,54.6z M78.1,55.7c0,0.2-0.1,0.9-0.2,1.3c-0.2,1-0.4,1.4,0.7,0.9
		c0.7-0.3,1.8-0.7,2.9-0.1c1.2,0.7,2.4,0.6,3.8-0.1c1.2-0.4,1.8-0.4,2.5,0c1.3,0.7,0.8,0.3,0.7-1.6c-0.1-1.3-0.5-1.1-0.9-0.6
		c-0.3,0.3-0.9,0.4-1.6,0c-0.8-0.4-1.9-0.2-2.3,0.1c-0.4,0.3-0.9,0.4-1.7-0.2c-0.5-0.3-0.8-0.2-1.4,0.1c-1,0.4-1.4,0.2-1.9-0.2
		C78.3,55,78.1,55.1,78.1,55.7L78.1,55.7z M73.2,57.2c0.1,0,0.1,0.5,0.1,1.5c-0.4,3.7-3.3,5.8-6.7,4c-1.5-0.9-1.3-1.5,0.2-0.9
		c2.3,0.9,4.7-0.3,5.8-3.4C72.9,57.6,73.1,57.2,73.2,57.2z M81.5,59.9c1.7,0.7,3.5,0.5,4-0.1c0.5-0.7-0.3-0.6-0.7-0.5
		c-1.5,0.4-2.5,0.2-3.1,0C80,58.5,80.1,59.3,81.5,59.9z M64,62c2.2,2.7,2.5,3.2,4.3,6.3c13.7,23.6,18.1,53.4,9.1,80.5
		c-2.5,7.5-6,15.1-9.9,21.2l-4.7,0.1l1.6-1.9l-2.2,0.2l-0.1-1.2l-1.7,0.5l-0.8-1.9l-1.5,4.3l-8.7,0c20.4-20.1,24.4-44.4,20.6-64
		c0,0,1.7-1.1,1.9-1.7c0.1-0.2,0.2-0.8,0.3-0.9c0.8-0.5,1.3-1,1.6-0.9c0.2,0.1,0.3,0.2,0.5,0.4c0.7,1.1,0.9,1.2,1.3,0.2
		c0.3-0.8,0.2-1.1,1.1-0.9c0.5,0.3,1.3,0.3,1.2,0.2c0-0.1-0.8-1-1.2-1.5c-0.9-1.2-1.1-1.4-1-2c0.1-0.8-0.5-1.7-0.9-1.9
		c0.1-2.2-0.7-2.4-3.1-2.9c0-0.4,0.1-0.7,0.2-1l1.4,1.1l0.5-2.1l1.9,0.1l-5.5-5.4c0,1.5,0.1,3,0,4.5c-2.6-0.1-5.1-1-5.1-0.8
		c-3.8-9-9.5-16.6-15.5-22.5l6-2.9l1.7,3.3l0.4-1.9l1.5,0.3l0.3-1.2l1.7-0.2l-1.8-1.8L64,62z M100,65.9c0.2,0.3,0.4,0.3,0.7,0.6
		l-0.6,0.4C100.1,66.5,100.1,66.3,100,65.9L100,65.9z M59.7,67c-0.5,0-0.9,0.4-0.9,0.9c0,0.5,0.4,0.9,0.9,0.9s0.9-0.4,0.9-0.9
		C60.7,67.4,60.3,67,59.7,67z M64.8,67.1c-0.5,0-0.9,0.4-0.9,0.9c0,0.5,0.4,0.9,0.9,0.9s0.9-0.4,0.9-0.9
		C65.7,67.5,65.3,67.1,64.8,67.1z M48.5,67.8c3,2.5,5.7,5.8,9.1,11l-0.1,0.7l1,0.4c0,0,5.6,7.4,5.3,10.7c-1.9,0.4-3.6-0.1-7.1,3.1
		c-1.6-0.9-2.6-0.6-4.2-0.1c0,0,0,0.7,0.6,1c1.1-1.3,2.3-0.7,3-0.4c-0.2,0.1-0.8,7.5,0.3,9c0.9,2.5-1.4,2-3,1.4l0.5,11.7
		c5.3-6.1,16.4-10.2,15.6-9.8c5.6,30-7.7,50.1-21.6,64.7l7.3,0c0,0-6.3,10.3-6.8,13.1c0.4,0.9,1.3,2.9-0.3,4.3
		c-0.6,0.6-0.6,3.5-0.6,3.5c-3.8,0.1-7.2-1.2-11.6,0.4c-0.5,0.2-0.6-2.4-0.6-2.9c-2.5-2.2-0.2-6.1,0.1-5.8c-2-6-6-13.1-6-13.1
		s-2.4-0.1-3.9-0.2c-0.3-0.3-0.5-7.2-0.2-7.4c10.9,0.9,28.1-0.1,28.1-0.1l-4.6-6.5c-5.7-2.2-13.4,1.6-13.1,1.8c0,0-6.2-3.5-10.5-3
		l0.1-3.4c3.8,0,7.4,0.7,10.5,2.6l5.3-2l-16.1-17.2l0.2-2.8c5.3,4.9,13.9,14.5,13.9,14.5l0-36l-13.9,0l-0.4-7.3l-0.4-0.6l-0.2-5.2
		l0.4-0.5l-0.1-2.2l-0.1-0.3l-0.2-5.3l0.3-0.4l0-3.4C31.2,79,48.5,67.8,48.5,67.8L48.5,67.8z M60.4,68.8L62,76l1.1-1.4l1.7,0.5
		l0.1-1.7l1.5-0.5L60.4,68.8z M115.4,70c-0.5,0-0.9,0.4-0.9,0.9s0.4,0.9,0.9,0.9c0.5,0,0.9-0.4,0.9-0.9C116.4,70.4,116,70,115.4,70z
		 M111.1,70.6c-0.5,0-0.9,0.4-0.9,0.9c0,0.5,0.4,0.9,0.9,0.9c0.5,0,0.9-0.4,0.9-0.9S111.6,70.6,111.1,70.6z M57.7,71.4
		c-0.5,0-0.9,0.4-0.9,0.9s0.4,0.9,0.9,0.9c0.5,0,0.9-0.4,0.9-0.9S58.2,71.4,57.7,71.4z M114.4,72l-6.5,6.2l1.8-0.1l0.3,1.8l1.6-0.8
		l1.3,1.2L114.4,72z M117.2,74.1c-0.5,0-0.9,0.4-0.9,0.9s0.4,0.9,0.9,0.9c0.5,0,0.9-0.4,0.9-0.9S117.7,74.1,117.2,74.1z M65.6,75.3
		c-0.5,0-0.9,0.4-0.9,0.9s0.4,0.9,0.9,0.9s0.9-0.4,0.9-0.9S66.1,75.3,65.6,75.3z M69.7,76.1c-0.5,0-0.9,0.4-0.9,0.9
		c0,0.5,0.4,0.9,0.9,0.9c0.5,0,0.9-0.4,0.9-0.9C70.6,76.5,70.2,76.1,69.7,76.1z M66,77.5c0.2,2.5,0.5,5.5,0.5,8.1l1.2-1.2l1.4,0.6
		l0.5-1.6l1.5-0.1L66,77.5z M105.9,79.6c-0.5,0-0.9,0.4-0.9,0.9c0,0.5,0.4,0.9,0.9,0.9c0.5,0,0.9-0.4,0.9-0.9
		C106.8,80,106.4,79.6,105.9,79.6z M63.3,79.8c-0.5,0-0.9,0.4-0.9,0.9c0,0.5,0.4,0.9,0.9,0.9c0.5,0,0.9-0.4,0.9-0.9
		C64.3,80.2,63.8,79.8,63.3,79.8z M109.6,80c-0.5,0-0.9,0.4-0.9,0.9c0,0.5,0.5,0.9,0.9,0.9c0.4,0,0.9-0.4,0.9-0.9
		C110.5,80.4,110.1,80,109.6,80z M109.1,82.1l-5.4,5.6l1.8,0.2l0.6,1.6l1.1-1l1.4,1L109.1,82.1z M112,83.3c-0.5,0-0.9,0.4-0.9,0.9
		c0,0.5,0.4,0.9,0.9,0.9s0.9-0.4,0.9-0.9C112.9,83.7,112.5,83.3,112,83.3z M69.6,85c-0.5,0-0.9,0.4-0.9,0.9s0.4,0.9,0.9,0.9
		s0.9-0.5,0.9-0.9C70.6,85.5,70.2,85,69.6,85z M46.7,85.8l-1.4,1.1c1.1,0.4,1.7,1.4,1.7,1.4C47.1,88.2,46.9,87.7,46.7,85.8
		L46.7,85.8z M74,86.4c-0.5,0-0.9,0.4-0.9,0.9s0.4,0.9,0.9,0.9c0.5,0,0.9-0.4,0.9-0.9S74.6,86.4,74,86.4z M67.4,87.8
		c-0.5,0-0.9,0.4-0.9,0.9c0,0.5,0.4,0.9,0.9,0.9s0.9-0.4,0.9-0.9C68.3,88.2,67.9,87.8,67.4,87.8z M105.9,89.7
		c-0.5,0-0.9,0.4-0.9,0.9c0,0.5,0.4,0.9,0.9,0.9c0.5,0,0.9-0.4,0.9-0.9C106.8,90.1,106.4,89.7,105.9,89.7z M102.2,91
		c-0.5,0-0.9,0.4-0.9,0.9c0,0.5,0.4,0.9,0.9,0.9c0.5,0,0.9-0.4,0.9-0.9S102.7,91,102.2,91z M139.7,91.3l1.9,2.1v31.2l-1.9,0
		L139.7,91.3z M64.4,91.5c1.6,0,3.3,0.2,3.9,1.2c0.9,1.1-1,0.7-2.5,0.9c-1.4,0.2-0.6,0.5,1.4,0.6c2.8,0.2,3.9,0.2,4.3,0.9
		c0.2,0.6,0.1,1,0.1,1.7l-3.2-0.2c-1.6,0-2.6,0-3.1,0.1c-0.4,0.1-0.3,0.4-0.1,0.6c0.1,0.1,1.3,0.1,2.8,0.1c4,0.1,4.9,0.2,5.1,1.5
		c0.2,1.2-0.7,1-4.8,0.6c-1.8-0.2-2.8,0.3-3.1,0.4c-0.4,0.2,1.3,0.4,1.9,0.3c0.4-0.1,3,0.2,3.9,0.4c0.8,0.1,0.1,0.1-0.3,0.6
		c-0.3,0.4-0.2,0.9-0.6,1.1c-0.5,0.3-1.6,0.3-3.4,0.3c-2.1,0-3.1,0.5-0.2,0.7c1.9,0.1,2,0.1,2.1,0.6c0.4,1.4-0.5,1.6-2.4,1.9
		c-0.9,0.2-2.3,0.1-3.3,0c-4.1-0.3-5.5-1.3-6-3.1c-2-6.8,0.5-10.9,6.4-11.2C63.6,91.5,64,91.5,64.4,91.5L64.4,91.5z M105.3,91.8
		l-4.6,6.8l1.8-0.7l0.8,1.8l1.4-1l1.4,0.9L105.3,91.8z M71.1,92.6c0.2,0.3,0.1,0.5-0.3,0.7c-0.3,0.2-0.9,0-1.3-0.1
		C69.1,93,69,92.1,69.4,92C70,91.9,70.7,92.2,71.1,92.6L71.1,92.6z M37.9,92.3l-2.1,2.3c0,0,1.9-0.7,3-1.1L37.9,92.3z M108.2,93.3
		c-0.5,0-0.9,0.4-0.9,0.9s0.4,0.9,0.9,0.9c0.5,0,0.9-0.4,0.9-0.9S108.7,93.3,108.2,93.3z M142.3,94.1c0,0,2.3,2.3,3.3,3.3l-0.9,0
		l0,1.8l2.8,0l1.5,1.5l-4.2,0v1.9l5.2,0l0-0.8l2.1,1.9l0.2,20.9l-9.9,0C142.3,114.4,142.3,104.5,142.3,94.1L142.3,94.1z M74.1,96.4
		c-0.1,0.5-0.5,0.5-1,0.2c-0.8-0.3-0.7-1.2-0.1-1.3C74.1,95.2,74.4,95.7,74.1,96.4L74.1,96.4z M77.2,96.8c-0.5,0-0.9,0.4-0.9,0.9
		c0,0.5,0.4,0.9,0.9,0.9s0.9-0.4,0.9-0.9C78.1,97.2,77.7,96.8,77.2,96.8z M73.9,97.5c0.4,0,0.7,0.2,0.9,0.4c0.5,0.5,0.3,1-0.2,1.3
		c-0.6,0.3-1.1-0.1-1.3-0.9C73.2,97.8,73.5,97.5,73.9,97.5z M103.2,100c-0.5,0-0.9,0.4-0.9,0.9c0,0.5,0.4,0.9,0.9,0.9
		c0.5,0,0.9-0.4,0.9-0.9C104.1,100.4,103.7,100,103.2,100z M72.4,101.2c0.8,0,1,0.9,0.6,1.3c-0.6,0.6-1.5,0.3-1.7-0.2
		C71.3,101.6,71.8,101.2,72.4,101.2z M99.8,101.5c-0.5,0-0.9,0.4-0.9,0.9c0,0.5,0.4,0.9,0.9,0.9c0.5,0,0.9-0.4,0.9-0.9
		C100.8,102,100.3,101.5,99.8,101.5z M103.1,102.2l-4.2,7.1l1.7-0.7l1,1.4l1.1-0.9l1.6,0.8L103.1,102.2z M70.4,103.4
		c0.7,0,1,0.6,0.4,1.1c-0.4,0.4-0.8,0.4-1.2,0C69,104,69.5,103.4,70.4,103.4z M106.1,103.4c-0.5,0-0.9,0.4-0.9,0.9
		c0,0.5,0.4,0.9,0.9,0.9c0.5,0,0.9-0.4,0.9-0.9C107,103.9,106.6,103.4,106.1,103.4z M75.7,104.2c-0.5,0-0.9,0.4-0.9,0.9
		c0,0.5,0.4,0.9,0.9,0.9s0.9-0.4,0.9-0.9C76.7,104.6,76.2,104.2,75.7,104.2L75.7,104.2z M144.8,104.4v2l5.3,0v-2L144.8,104.4z
		 M75.8,106.2l-2,7.5l1.7-1l1,1.1l1-1.2l1.8,0.5L75.8,106.2z M79.4,107c-0.5,0-0.9,0.4-0.9,0.9c0,0.5,0.4,0.9,0.9,0.9
		s0.9-0.4,0.9-0.9C80.3,107.4,79.9,107,79.4,107z M72.8,107.4c-0.5,0-0.9,0.4-0.9,0.9c0,0.5,0.4,0.9,0.9,0.9s0.9-0.4,0.9-0.9
		C73.7,107.8,73.3,107.4,72.8,107.4z M144.8,108v1.8h5.3V108L144.8,108z M101.5,110.3c-0.5,0-0.9,0.4-0.9,0.9c0,0.5,0.4,0.9,0.9,0.9
		c0.5,0,0.9-0.4,0.9-0.9C102.5,110.7,102.1,110.3,101.5,110.3z M144.8,111.3v1.9h5.3v-1.9H144.8z M36.5,111.6l1.8,0l0,33.8l-1.8-1.9
		L36.5,111.6z M35.7,111.6l-0.1,30.9l-3.5-3.7l0.9,0v-2.1l-3,0l-1.3-1.3l4.3,0v-2.1l-5.1,0v1.3l-2.5-2.7l0-20.2L35.7,111.6z
		 M101.7,112.6l-2.8,7.4l1.8-1l0.9,0.9l0.9-0.9l1.6,0.8L101.7,112.6z M27.9,112.9l0,2h5.2v-2H27.9z M104.9,113.3
		c-0.5,0-0.9,0.4-0.9,0.9s0.4,0.9,0.9,0.9c0.5,0,0.9-0.4,0.9-0.9S105.4,113.3,104.9,113.3z M98.5,113.4c-0.5,0-0.9,0.4-0.9,0.9
		s0.4,0.9,0.9,0.9c0.5,0,0.9-0.4,0.9-0.9S99,113.4,98.5,113.4z M76.6,113.8c-0.5,0-0.9,0.4-0.9,0.9s0.4,0.9,0.9,0.9
		c0.5,0,0.9-0.4,0.9-0.9C77.5,114.2,77.1,113.8,76.6,113.8z M144.8,114.5v2.1h5.3v-2.1H144.8z M76.5,115.7l-0.8,1.2l-1.8-0.6
		l2.4,7.5l3.1-7.8l-1.8,1L76.5,115.7z M27.9,116.3v2h5.1v-2H27.9z M144.8,118v2.1h5.2V118H144.8L144.8,118z M27.9,119.8v2h5.1v-2
		H27.9z M101.6,120.1c-0.5,0-0.9,0.4-0.9,0.9c0,0.5,0.4,0.9,0.9,0.9s0.9-0.4,0.9-0.9C102.5,120.6,102.1,120.1,101.6,120.1z
		 M73.6,121.1c-0.5,0-0.9,0.4-0.9,0.9c0,0.5,0.4,0.9,0.9,0.9s0.9-0.4,0.9-0.9C74.5,121.5,74.1,121.1,73.6,121.1z M79.5,121.3
		c-0.5,0-0.9,0.4-0.9,0.9c0,0.5,0.4,0.9,0.9,0.9c0.5,0,0.9-0.4,0.9-0.9C80.5,121.7,80.1,121.3,79.5,121.3z M144.8,121.4v1.9h5.2
		v-1.9H144.8L144.8,121.4z M101.6,122.3l-1.1,1.2l-1.6-0.5l3.6,6.9l1.8-7.4l-1.6,1L101.6,122.3z M27.9,123v2.2h5.1V123H27.9z
		 M76.5,124c-0.5,0-0.9,0.4-0.9,0.9c0,0.5,0.4,0.9,0.9,0.9c0.5,0,0.9-0.4,0.9-0.9C77.4,124.4,77,124,76.5,124z M76.5,126
		c-0.4,0.3-0.6,0.8-1,1.1l-1.7-0.7l1,9.4l4.7-8.8l-2.2,0.4L76.5,126z M27.9,126.3v2.3h5.1v-2.3H27.9z M105.3,127.4
		c-0.5,0-0.9,0.4-0.9,0.9c0,0.5,0.4,0.9,0.9,0.9c0.5,0,0.9-0.4,0.9-0.9C106.2,127.8,105.8,127.4,105.3,127.4z M99.2,127.5
		c-0.5,0-0.9,0.4-0.9,0.9c0,0.5,0.4,0.9,0.9,0.9c0.5,0,0.9-0.4,0.9-0.9C100.1,127.9,99.7,127.5,99.2,127.5z M27.9,129.7v2.3h5.1
		v-2.3H27.9z M102.6,130.2c-0.5,0-0.9,0.4-0.9,0.9c0,0.5,0.4,0.9,0.9,0.9c0.5,0,0.9-0.4,0.9-0.9
		C103.5,130.6,103.1,130.2,102.6,130.2z M115.8,130.3c5,0.2,5.7,1.8,5.8,7.4c0,4.5-1.3,6.3-4.5,7.1c-1.2,0.3-5.6,0-6.8-0.4
		c0-0.4-0.6-1.3-0.8-2c0.3-0.1,1.3,0.1,3.2,0.2c1.5,0.1,1.9-0.1,1.5-0.4c-2.9-0.7-4.9-0.5-7.7-1.1c0-0.8-0.7-1.8-0.7-1.8
		c0.2-0.1,4.3,0.4,6.5,0.3c1,0,0.4-0.5,0-0.6c-2.6-0.4-4.2-0.3-6.9-0.7c0.1-0.7-0.3-1.3-0.7-1.9c0,0,1.4,0,4.2,0
		c1.5,0,2.8,0.1,3.4,0.1c1.1,0,1-0.5,0-0.6c-1.2-0.1-5.7-0.2-5.7-0.2c0.3-0.2,0.8-2.2,0.6-2.2c0,0,1.2,0,1.9,0
		c3.6-0.1,4.3-0.1,4.3-0.2c0.5-0.4-0.8-0.6-2.2-0.6c-0.6,0-1.4,0.1-1.4-0.2c0-0.3,0-0.9-0.3-1.5
		C111.7,130.3,113.8,130.2,115.8,130.3L115.8,130.3z M72.6,131.4c-0.5,0-0.9,0.4-0.9,0.9c0,0.5,0.4,0.9,0.9,0.9s0.9-0.4,0.9-0.9
		C73.5,131.8,73.1,131.4,72.6,131.4z M108.3,131.6c0.6,0,0.8,1.1,0.2,1.3c-0.9,0.3-1.4,0.1-1.3-0.5
		C107.2,132.1,107.9,131.6,108.3,131.6L108.3,131.6z M78.7,132.6c-0.5,0-0.9,0.4-0.9,0.9c0,0.5,0.4,0.9,0.9,0.9s0.9-0.4,0.9-0.9
		C79.6,133,79.2,132.6,78.7,132.6z M105.3,133.7c2.1,0,1,2.9-0.6,1.8C103.9,135,104.5,133.7,105.3,133.7z M71.9,136
		c0,0-0.1,0-0.1,0.1l0.5,8.9l5.1-8.3l-2,0.8l-0.9-1.3l-1.1,0.9C73,137.4,72.1,136,71.9,136L71.9,136z M103.4,136.9
		c0.9,0.1,1.6,1.1,0.9,1.6C102.8,139.1,102,137,103.4,136.9z M101.1,138.9c-0.5,0-0.9,0.4-0.9,0.9c0,0.5,0.4,0.9,0.9,0.9
		c0.5,0,0.9-0.4,0.9-0.9C102,139.3,101.6,138.9,101.1,138.9z M104.7,139.7c0.8,0,1.2,1.2,0.4,1.6c-0.2,0.1-0.7,0.1-0.9,0
		C103.2,140.5,103.7,139.7,104.7,139.7L104.7,139.7z M69.7,141.1c-0.5,0-0.9,0.4-0.9,0.9c0,0.5,0.4,0.9,0.9,0.9
		c0.5,0,0.9-0.4,0.9-0.9C70.6,141.6,70.2,141.1,69.7,141.1z M141.1,142.3l-3.5,1.2v1.7C139.2,144.7,140,143.4,141.1,142.3
		L141.1,142.3z M108.6,143.1c0.6,0.3,0.8,1.1,0.2,1.4c-0.4,0.2-1.5,0.2-1.8-0.2C106.4,143.2,107.9,142.8,108.6,143.1L108.6,143.1z
		 M76,143.4c-0.5,0-0.9,0.4-0.9,0.9c0,0.5,0.4,0.9,0.9,0.9s0.9-0.4,0.9-0.9C76.9,143.9,76.5,143.4,76,143.4z M72.1,145.1
		c-0.5,0-0.8,0.4-0.8,0.8c0,0.5,0.4,0.8,0.8,0.8s0.8-0.4,0.8-0.8C73,145.5,72.6,145.1,72.1,145.1z M111,146.5
		c-0.5,0-0.9,0.4-0.9,0.9c0,0.5,0.4,0.9,0.9,0.9s0.9-0.4,0.9-0.9C111.9,146.9,111.5,146.5,111,146.5z M69.1,146.6l0,8.4l5.5-6.9
		l-1.9,0.4l-0.8-1.7l-1.2,0.8L69.1,146.6z M104.1,148.5c-0.5,0-0.9,0.4-0.9,0.9c0,0.5,0.4,0.9,0.9,0.9c0.5,0,0.9-0.4,0.9-0.9
		C105,148.9,104.6,148.5,104.1,148.5z M131.7,148.5l-0.9,1.6l2.6-1.4L131.7,148.5z M107.8,149.6c-0.5,0-0.9,0.4-0.9,0.9
		c0,0.5,0.4,0.9,0.9,0.9c0.5,0,0.9-0.4,0.9-0.9C108.8,150.1,108.4,149.6,107.8,149.6z M111,150.7l-1.1,1.6l-1.5-0.5l-0.4,1.5
		l-1.8-0.1l5.7,5.1L111,150.7z M66.2,151.3c-0.5,0-0.9,0.4-0.9,0.9c0,0.5,0.4,0.9,0.9,0.9s0.9-0.4,0.9-0.9
		C67.1,151.7,66.7,151.3,66.2,151.3z M152.2,153.6v69h-32l-13.4-18.9c-0.3-3-0.1-6.2,1.1-10.2c1.3,0.9,4.2,0.4,4.1-3.2
		c-0.1-2.3-3.6-3.5-5.4-1.8c0.1-2.3,1-5.7,2.3-6.7c0.9,0.8,1.1,2.1,3.1,1.7c1.4-0.2,2.6-1.9,2-3.8c-0.2-0.5-0.2-1.1-0.2-1.5
		c0-0.4,0-1.1,0-1.5c-0.1-0.5-0.1-1.1-0.1-1.1C128.5,172.2,141.5,163,152.2,153.6L152.2,153.6z M72.8,153.9c-0.5,0-0.9,0.4-0.9,0.9
		c0,0.5,0.4,0.9,0.9,0.9s0.9-0.4,0.9-0.9C73.7,154.3,73.3,153.9,72.8,153.9z M68.4,154.8c-0.5,0-0.9,0.4-0.9,0.9
		c0,0.5,0.4,0.9,0.9,0.9c0.5,0,0.9-0.4,0.9-0.9C69.3,155.2,68.9,154.8,68.4,154.8z M114.6,155.2c-0.5,0-0.9,0.4-0.9,0.9
		c0,0.5,0.4,0.9,0.9,0.9c0.5,0,0.9-0.4,0.9-0.9C115.6,155.7,115.1,155.2,114.6,155.2z M65,156.3l-1.5,8.8l6.4-6.6l-1.7,0l-0.3-1.5
		l-1.6,0.5L65,156.3z M108.3,158.1c-0.5,0-0.9,0.4-0.9,0.9c0,0.5,0.4,0.9,0.9,0.9c0.5,0,0.9-0.4,0.9-0.9S108.8,158.1,108.3,158.1z
		 M112.4,159.2c-0.5,0-0.9,0.4-0.9,0.9c0,0.5,0.4,0.9,0.9,0.9c0.5,0,0.9-0.4,0.9-0.9C113.4,159.6,112.9,159.2,112.4,159.2z
		 M61,160.3c-0.5,0-0.9,0.4-0.9,0.9c0,0.5,0.4,0.9,0.9,0.9c0.5,0,0.9-0.4,0.9-0.9C62,160.8,61.5,160.3,61,160.3z M116.1,161
		l-1.5,1.2l-1.4-0.9l-0.3,1.9l-1.2,0.6l5,3.6L116.1,161z M119.8,163.6c-0.5,0-0.9,0.4-0.9,0.9c0,0.5,0.4,0.9,0.9,0.9
		c0.5,0,0.9-0.4,0.9-0.9C120.8,164,120.4,163.6,119.8,163.6z M67,163.9c-0.5,0-0.9,0.4-0.9,0.9c0,0.5,0.4,0.9,0.9,0.9
		c0.5,0,0.9-0.4,0.9-0.9C67.9,164.3,67.5,163.9,67,163.9z M62.8,165.1c-0.5,0-0.9,0.4-0.9,0.9c0,0.5,0.4,0.9,0.9,0.9
		c0.5,0,0.9-0.4,0.9-0.9C63.7,165.6,63.3,165.1,62.8,165.1z M117.4,167.6c-0.5,0-0.9,0.4-0.9,0.9c0,0.5,0.4,0.9,0.9,0.9
		s0.9-0.4,0.9-0.9C118.4,168.1,118,167.6,117.4,167.6z M113.5,168.5c-0.5,0-0.9,0.4-0.9,0.9c0,0.5,0.4,0.9,0.9,0.9
		c0.5,0,0.9-0.4,0.9-0.9C114.5,168.9,114,168.5,113.5,168.5z M77.3,169.8C77.3,169.8,77.3,169.8,77.3,169.8c0.1,0.1,0.4,1,0.2,1.4
		c-0.1-0.1-0.8-0.7-0.6-0.9C76.9,170.2,77.2,169.8,77.3,169.8L77.3,169.8z M56.1,171.3c0,0,0.9,0,1.1,0.1c0,0.2-0.2,0.7-0.5,1.3
		c-1.2,2.9-1.4,6.1-0.2,9.2c1.9,4.2,7.4,14.2,7,15.1l-12.1,0.1l0.1-1.9c3.4-0.1,3.9-2.3,3.1-4c-0.6-1.2-2.2-1.9-3.8-1.3
		c-2.2,0.9-2.3,2-3.1,3.7l-0.3-0.4c0.7-0.9,0.9-1.7,0.8-2.7c-0.1-1-0.1-0.7,0.2-1.2c1.9-2.1,0.7-4.8,0.7-4.8
		C48.9,182.9,54.8,172.3,56.1,171.3L56.1,171.3z M28.3,171.6c3.5,2.8,6.4,12.2,6.3,12.3c-0.2-0.1-2.8,3,0,6c0,0-0.2,1.8,0.4,2.7
		c-1.2,2.6-1.5,2.8-1.6,5c0,0-0.2,0-1.4,0c-5.7,0-6,7.4-0.3,7.8c0.8,0.1,1.1-0.1,1.5,0.3c0.5,0.6,0.9,1.2,1.7,0.9
		c0.2,0,0.5,0.2,0.8,0.5c0.5,0.8,1.3,1.3,2.5,1.1c0.4,0,0.8,0.2,1.3,0.3c0.5,0.4,1.4,0.7,2,0.4c0.2-0.1,0.6-0.1,0.9,0
		c0.8,0.4,1.7,0.1,2-0.1c0.8-0.4,0.9,0.2,0.9,0.8c-0.4,1.4,0.5,2.6,1.8,3.2c2.7,0.9,4.1-0.9,4.7-4.3c0.1-0.7,0.3-1.6,0.3-1.6
		l9.2,0.2l-13.2,15.5h-23v-51C26.2,171.5,27.3,171.6,28.3,171.6L28.3,171.6z M111,174.4c1.7,0.7,1.8,1.9,0.1,1.3
		c-2.7-0.8-5.6,0.8-6.2,3.2c-0.1,0.4-0.2,0.8-0.3,0.9c-0.4,0.5-0.4,0-0.2-1.3c0.2-2.6,2-4.5,4.4-4.5
		C109.5,174,110.4,174.1,111,174.4L111,174.4z M110.2,176.2c0.7,0,1.4,0.2,2,0.7c0.6,0.7,0.4,1.2,0,1.1c-2.3-1-5.2,0.2-6.3,3.1
		c-0.7,1.8-0.8,0.8-0.5-0.6C105.9,178.1,107.8,176.3,110.2,176.2L110.2,176.2z M94.4,176.9c-1,0-1.9,0.2-2.4,0.7
		c-0.9,0.9-0.2,0.9,1.5,0.3c0.8-0.3,2.3-0.2,3.3,0.2c0.8,0.3,1.1,0.4,1.1,0.2C97.8,177.4,96,176.9,94.4,176.9L94.4,176.9z
		 M112.9,179.8c0.4,1,0.1,2.7-1.3,2.9c-1.7,0.2-2.6-2.7,0.5-2.2c-0.4-1.2-1.8-0.8-2.5-0.6c-1.4,0.6-2.4,2-3.3,4.6
		c-0.3,0.8-0.4,1.2-0.5,1.1c-0.2-0.1-0.2-1.3,0.1-2.8c0.7-2.6,2.4-4.2,4.1-4.2C111.2,178.5,112.6,179,112.9,179.8L112.9,179.8z
		 M88.3,178.7c-0.2,0,0.1,0.6,0.5,1.4c0.2,0.5,0.4,1.1,0.4,1.2c0,0.5,0.3,0.6,0.9,0.3c0.6-0.3,0.7-0.6,1.5-0.2
		c0.8,0.4,1.6,0.7,2.3,0.3c0.4-0.2,0.6-0.2,1.4,0c0.9,0.2,1,0.3,1.7,0c0.9-0.4,1.9-0.1,2.1,0.1c0.2,0.2,0.1-0.1,0.6-1.2
		c0.2-0.5,0.5-1.1,0.4-1.3c-0.1-0.2-0.9,0-1.8,0.3c-0.5,0.1-0.9,0.1-1.8-0.2c-1.9-0.5-3-0.4-4.2,0.2C91.7,179.8,90,179.4,88.3,178.7
		C88.3,178.7,88.3,178.7,88.3,178.7L88.3,178.7z M91.9,183.8c-0.8,0-1.6,0.5-2,1.3c-0.4,1,0.3,2.9,1.3,3c0.9,0.1,0.9-0.4,0.4-0.6
		c-0.7-0.2-1.6-1.3-1-2.2c0.4-0.6,1.5-0.6,2.3,0.1c1.6,1.5,3.4,1.6,3.7,0.3c0.1-0.5-0.3-1.2-0.9-1.1c-0.5,0.1-1.6,0.2-2.5-0.4
		C92.9,183.9,92.4,183.8,91.9,183.8L91.9,183.8z M108.6,188.6c4-0.2,2.3,5.3,0,3.9c-0.8-0.5-0.5-2.4,1.7-2.4
		c-2.2-1.7-3.6,0.4-3.1,2.7c-0.5,0.8-0.6,2.2-0.9,3c-0.5,0.9-0.9-1.5-0.4-3.9C106.4,189.7,107.2,188.7,108.6,188.6L108.6,188.6z
		 M85.8,188.8c-0.8,0,0,0.9,0.2,1c2.5,2,3.7,3.2,1.7,2.6c-3.3-0.8-4.1,0.1-6.6,1.3c-0.5,0.2-0.6,0.1-1.1-0.1c-2.2-0.7-2,0.7,0.3,2
		c3.5,1.9,6.3,2.3,9,0.9c1.7-0.9,1.8-0.3,0.2,0.7c-2.8,1.6-5.7,1.4-10.1-1.4c-1.4-0.9-1.6-0.3-0.2,0.7c3.4,2.1,7.9,3.9,11.6,0.9
		c0.7-0.7,0.9-1,1.4-0.7c1.5,0.7,1-0.6,0-1.8c-0.4-0.4-0.6-0.8-0.6-1.1c0.1-1.1-0.5-1.1-1-1c-0.6,0-0.6-0.2-1.3-1.1
		C88,190.4,86.7,189.1,85.8,188.8L85.8,188.8z M52.3,194.5c-1.4,0.1-1.7,0.2-1.4,3.1c0.1,0.5,0.3,2.2,0.4,2.8
		c0.8,7.6,0.2,11-1.9,11.9c-0.8,0.3-1.5,0.2-2,0c-1.3-0.5-1.9-2.2-0.9-4.1c0.3-0.5,0.6-1.3,0.7-1.8c0.1-0.5,0.4-1.5,0.6-2.3
		c0.5-1.9,0.8-4.8,0.5-7.6c-0.2-1.9-0.2-2,0.3-3.3c1-1.9,1.7-2.8,3.8-2.9C54.7,190.6,55.4,194.3,52.3,194.5L52.3,194.5z
		 M103.6,194.3l-0.7,0c-0.8-2.7-2.4-1.8-2.7,0.1l-0.6,0C99.8,190.9,104.1,191.8,103.6,194.3L103.6,194.3z M42.3,192.4
		c4.5,0.4,5.3,1.6,5.6,7c0,2.6-0.1,4.2-0.5,4.8c-0.7,0.3-1.3-0.3-2.3,0.3c-0.5,0.3-0.4,0.4-0.6,0c-0.2-0.3,0-1.7,0.4-2.8
		c0.3-1.1-0.2-1.7-1.7-3c-0.4-0.4-0.7-0.9-1.1-1.6c-0.8-2.1-1.2-1.2-0.5,0.6c0.3,0.8,0.4,1.2-0.6,0.8c-0.6-0.2-1.1,0-1.5,0.3
		c-1.2,0.3-2.3-0.4-1.2-0.8c0.6-0.2,1.8-0.6,2.2-0.6c0.3,0,0.4-0.1,0.4-0.2c0-0.5-2.4-0.5-4.2,0.2c-2.2,1-2.3,0.8-2.1-0.8
		C35,192.6,38.7,192.1,42.3,192.4L42.3,192.4z M85.8,192.7c1.1-0.1,2.2,1.3,2,2.4l-0.5,0c-0.3-2.1-2.2-2.2-2.8,0.2l-0.8,0
		C84.2,193.4,85.1,192.7,85.8,192.7L85.8,192.7z M99.1,192.8c0.4,0.3,0.1,1-0.3,1.2c-0.2,0-0.8-0.4-0.6-0.6
		C98.4,193,98.8,192.8,99.1,192.8L99.1,192.8z M104.2,193.1c0.3,0,0.7,0.2,0.8,0.6c0,0.6-0.5,0.5-0.6,0.4
		C104,193.9,103.9,193.1,104.2,193.1L104.2,193.1z M88.6,193.6c0.8,0.1,1.1,1.2,0.2,1.2C88.3,194.9,88.3,193.9,88.6,193.6z
		 M83.5,193.7c0.1,0-0.1,0.9-0.3,1c-0.4,0.3-0.9,0-0.9-0.3C82.3,193.8,83.1,193.7,83.5,193.7L83.5,193.7z M98.1,195.9
		c1.6,0.6,3.7,1.2,5.6,0.5c0.7-0.3,1.3-0.6,1.3-0.3c0,0.3-0.6,0.8-1.6,1.1c-2.1,0.6-3.6,0.4-5.1-0.7
		C97.9,196.1,97.8,195.8,98.1,195.9L98.1,195.9z M97.4,196.8c2.6,1.5,4.9,1.7,7,0.6c0.8-0.3,0.9,0,0.9,0.5
		C101.5,201.2,96.8,197.7,97.4,196.8L97.4,196.8z M34.1,199.1c-0.6,1.3-1,4.5-2,5.5C24.9,204.2,29.5,194.6,34.1,199.1z M78.2,198
		c-0.4,0.2,0,1.2,0.6,1.5c5.5,2.4,8.2,2.7,11.3,1.6c1.3-0.5,2-1.5,2-2c0.1-0.6-0.8-0.7-2.2,0c-4.4,1.8-7.2,0.4-10.8-1
		C78.9,197.9,78.6,197.9,78.2,198L78.2,198z M57.4,198.1l0,8.1l-5.2-0.1l0.1-1.2l3.9,0.1l-0.1-5.8l-4.5,0l0-1.1L57.4,198.1
		L57.4,198.1z M58.6,198.1l5.2,0l0.3,0.8h-5.4V198.1L58.6,198.1z M37.7,200.7c-0.3,0.3-0.9,0.4-1.2,0.1c-0.5-0.6,0-1.6,0.9-1.6
		C38.3,199.2,38.3,200.1,37.7,200.7L37.7,200.7z M40.1,199.4c0.8,0,1,0.7,0.4,1.3c-0.4,0.4-0.6,0.4-1,0.1
		C39.1,200.4,39.3,199.4,40.1,199.4z M34.9,199.6c0.2,0,0.4,0,0.5,0.2c0.5,1-1.1,1.7-1.4,0.9C33.8,200.1,34.4,199.6,34.9,199.6z
		 M64.2,199.7l0.3,1l-6,0v-1L64.2,199.7z M42.9,200c0.9,0.1,0.8,1,0.3,1.4c-0.7,0.7-1.4,0.5-1.2-0.4C42.1,200.4,42.5,200,42.9,200
		L42.9,200z M38.1,202.9c-0.3,1.1,0.4,3.4,0.2,3.7c-0.4,0.5-1.1,0.3-1.4,0.1c-1.1-0.7-1.1-4.8-0.1-5.1c0.7,0.3,1.1-0.3,1.4-0.4
		C38.4,201.2,38.2,201.7,38.1,202.9L38.1,202.9z M53.9,201.3c0.6,0,1.1,0.5,1.1,1.1c0,0.6-0.5,1.1-1.1,1.1s-1.1-0.5-1.1-1.1
		C52.8,201.7,53.3,201.3,53.9,201.3z M58.6,201.4h6.1c0.4,0.5,0.3,0.9,0.2,1.2l-6.3,0V201.4L58.6,201.4z M40.6,201.5
		c0.3,0,0.4,0.6,0.2,1.3c-0.3,1.2-0.3,3-0.1,3.7c0.2,0.5,0.3,0.9,0.2,1c-0.3,0.5-1.3,0.2-1.7-0.5c-1-1.9-0.8-5.4,0.4-5.1
		C40.1,202.1,40.4,201.7,40.6,201.5z M35.3,202c-0.3,0.5-0.1,3.2-0.1,3.4c0,0.3-0.8,0.1-1.2-0.1c-1-0.5-0.8-1.7-0.6-2.8
		c0.2-0.8,0.7-0.9,1.3-0.9C35,201.6,35.5,201.6,35.3,202L35.3,202z M43.6,202.2c0.3,0,0.4,0.2,0.3,1.2c-0.1,0.8-0.1,1.4,0,2.2
		c0.3,1.6,0.3,2-0.1,2.3c-0.5,0.4-1.1,0.3-1.6-0.2c-1-0.8-1-4.7-0.3-5C42.7,202.9,43.1,202.3,43.6,202.2L43.6,202.2z M64.7,203.3
		l-0.9,1.2h-5.2v-1.2L64.7,203.3L64.7,203.3z M46.1,205c0.8,0,0.7,1.5,0.2,2.4c-0.4,0.6-0.6,0.6-1.2,0.1
		C44.5,206.9,45.2,205,46.1,205z M63.1,205.4l-0.7,0.7l-3.8,0v-0.7L63.1,205.4L63.1,205.4z"/>
	
		<path id="path3872-3-7-5_1_" class="st0" d="
		M37.6,176.3l-6.3-5c7.5-0.2,15.1,0,22.6,0.1l-7.5,5.4c-1.5-1.7-2.4-4-4.6-5.1C40.1,172.4,38.9,174.7,37.6,176.3z M92.8,174.4
		c-0.2-0.1-0.3-0.4-0.4-1.2c-1.9-8.9-11.1-8.3-11.1-8c-0.1-0.4,11.5-10.9,18.3-19.2c2.1,6.3,8.3,20.8,8,20.8c0,0-1.8,0-6.5-0.1
		c-4.2,1.9-7.2,3.8-7.1,6.6c0,1-0.3,1.4-0.6,1.3C93.2,174.6,93,174.5,92.8,174.4z M113.8,145.9c6-0.1,7.1-3.1,7.8-3.4
		c3.9-0.7,6.4,1.9,8.1,4.7c2.2,1.3,1.9,0.1,2.4-2l5.5-1.6l0,1.8c-1.7,0.9-4.2,3.3-4.2,3.3l-1.7-0.1l-1,1.3
		c-3.8,2.1-7.6,4.6-11.6,6.2C119.2,156.1,114.4,149.7,113.8,145.9L113.8,145.9z M39,146.4l-0.1-35.2c2.5-0.2,7.1-0.2,7.1-0.2
		c1.9-3.4,4.5-5,7.2-7c0.4,4.3,0.5,8.5,0.4,12.8c-7.1,8.8-11.1,19.7-6.7,35.9l-2.6-0.3L39,146.4z M78.3,148.4
		c2-7.3,3.6-14.8,4.3-22.5l13.6-0.2l0.3,4.7L78.3,148.4z M124.5,132.4l-0.3-13.2c9.9-12,10.5-22.5,6.8-35.7c3.3,0.8,4.9,3.3,8.1,6.9
		v34.3c-2.2,0.3-7.5,0.6-7.5,0.6C131.4,127,126.9,130.9,124.5,132.4L124.5,132.4z M82.6,111.7l-0.6-5.8l17.6-17.1
		c-1.5,7.4-3.2,15-3.7,22.9L82.6,111.7z M53.4,93.5c-1.3,0.8-5.9-4.1-6.6-7.3c1.2-1.6,11.4-6.7,11.4-6.7s6,7.8,5.7,11
		c-2.6,0.7-4.9,0.9-7,3.1C55.7,93.8,55.3,92.4,53.4,93.5z M45.3,87c1.4,0.2,0.5,2.2,0.3,3.6l-7.5,2.3C40.7,90.6,42.5,88.7,45.3,87
		L45.3,87z M69.7,69.8c1.5,0,3.1,0.6,4.3,0.1c0.4-0.2,1.3-0.4,2.3-0.3c2.2,0.7,3-1.8,4.5-1.8c1.8,0,2.9-1.3,2.9-3.9
		c0-1.1,0.1-1.3,0.3-1.4c0.6-0.3,1.3,0.1,1.4,0.8c1.3,4.8,4.7,9.2,9.9,8.8c-4.2,4.3-17,17.7-17,17.7C76.1,82.7,73,76.1,69.7,69.8
		L69.7,69.8z M124.1,65.6l7.7-5.7l4.6,5.7l4-5.4c2.3,1.7,7.7,5.5,7.7,5.5S132.1,66,124.1,65.6L124.1,65.6z"/>
	
		<path id="path3870-4-7-1_1_" d="
		M128.5,14.2l-70.8,0.5l13.8,18.6c14.6-3,27.3-1.1,40.5,1.3L128.5,14.2z M126.7,15.2l-4.7,5.9c-1.3-1.2-4.2-0.8-3.8,1.9
		c-3.6-1.9-4.4,3.3-1.3,3.1c-0.4,1-3.5,1.3-4.4-0.6c-3.2,1.8-4.1,0.1-5-1.1c4,2.8,6-2.9,1.6-3.3c1.7-3.6-4.5-5.2-4.1-0.5
		c-4.1-0.9-3.2,4.9-0.1,3.7c-2,3-5.2,1-5.8,0.4C97.3,26,94.2,26,93.3,24c4.6,0.9,4.1-5.2,0-3.8c2.2-4.7-5-4.1-3.3-0.2
		c-4.1-0.2-3.2,5,0.4,4.1c-3.2,3.1-5.6,0.2-6.1,0.1c-1.9,2.1-5.2,1-5.7-0.3c3.3,1.3,4.3-4.3,0.2-3.9c1.1-3.6-4.9-4-3.6,0.1
		c-3.3-0.7-3.4,4.5,0.2,3.7c0.2,1.5-2.6,2.8-4.4,1.4c-1.3,0.7-2.7,1.8-4.4,0.2c2.6-0.4,3-4.8-1.2-3.9c0.2-2.7-1.3-2.9-3.2-2.2
		l-3-4.2L126.7,15.2z M77.8,21.8c-0.2,0.5-0.6,0.8-0.5,1.2c0.1,0.3,0.4,0.8,0.8,1.3c3.5,4.7,10.7,4.5,12.9-0.3
		c0.4-0.9,0.4-1.1-0.2-1.9c-0.6-0.9,0.1-1.9,0.9-1.8c1.2,0.1,1.4,1.2,0.8,1.9c-1.2,1.6,2.1,5.1,5.5,5.6c4.3,0.7,8.4-2.4,7.8-5.1
		c0-0.2-0.1-0.3-0.1-0.5c-0.5-2.3,3.1-1.2,1.8,0.3c-0.5,0.5-0.7,0.7-0.7,1.3c1,4.9,6.9,5.4,9.7,3.9c-3.6,5.9-9.3,1.4-10.3-2.8
		c-5,7.4-11.1,5.8-14.4-0.6c0.4,0.4-6.6,11.6-14.6,0.1c-3.4,9.3-9.5,3-9.1,2.6c2.8,1.6,8,1,8.5-3.9c0.1-0.6-0.4-0.6-0.7-1.1
		C74.5,19.6,78.8,19.6,77.8,21.8L77.8,21.8z M64.5,22.4c0.6,0.1,0.7,0.3,0.6,1L64.5,22.4z M119.4,24.2l-0.9,1.2
		C118.3,24.8,118.3,24.2,119.4,24.2z M129.5,24.6c-2.2,0.1-3.9,3.2-3.8,7.3c0.1,2,0.4,7,0.5,7.8c0.2,1,0,2.5-0.4,2.6
		c-1,0.4-1.3,0.6-1.6,1.1c-0.7,1.2-0.1,2.6,1.3,3.2c1,0.4,2.3-0.2,3.1-1.5c0.5-0.7,0.6-1,1-2.9c0.2-0.8,0.2-2.2,0-3.5
		c-0.5-2.9-0.1-6.5,0.9-8.2c1.8-3.1,1.7-5.1-0.1-5.7C130.2,24.6,129.9,24.5,129.5,24.6L129.5,24.6z M129.4,25c2.6,0,2.5,2.6,1.1,3.4
		c-0.6,0.2-1.2,0.3-1.9-0.1c-0.8-0.4-0.7,0.1,0.1,0.6c0.9,0.7,1.3,0.6,0.8,2.2c-0.5,1.5-0.7,4.7-0.5,6.5c0.7,5,0.1,7.4-2,8.3
		c-1,0.4-2.1-0.2-2.4-1c-0.4-1.3,0.3-2.4,2.3-2.1c0,0,0.1-0.4-0.4-4.7c-0.7-6-0.4-10.2,0.7-11.7C127.9,25.7,128.7,25,129.4,25z
		 M146.8,31.2c-0.6,0-1.2,0.2-1.9,0.5c0,0-0.1,2.7-0.1,3.1c-0.4,2.3-0.3,2.6,0.7,2.9c2.5,0.8,4.6-0.9,4.5-3.6
		C150,32.6,148.6,31.2,146.8,31.2z M147.1,31.6c1.4,0,2.7,1.6,2.5,3.2c-0.1,1.9-1.8,2.9-3.4,2.5c-0.5-0.1-0.9-0.2-1.1-0.5
		c-0.3-0.5,0.2-0.7,1.2-0.7c1.2,0,1.4-0.2,1.8-0.8c0.8-1.3-0.2-3-1.5-2.6c-0.4,0.1-0.5,0.3,0,0.4c1.5,0.7,1,1.7,0.4,2.1
		c-0.6,0.5-1.7-0.2-1.8-0.6l0.1-2.5C145.4,32.1,145.9,31.6,147.1,31.6L147.1,31.6z M131.5,43.2c0,0-0.6,0.3-0.9,0.5
		c-0.6,0.6-0.7,1.4-0.4,2.3c0.1,0.4,0.1,0.4-0.4,1.1c-1.3,1.8-1.5,2.6-0.8,4.2c0.3,0.7,0.3,0.7,0,1.7c-1.3,4.1-3.7,8.7-6.4,11.9
		c-0.4,0.5-0.6,1-0.6,1s0.6,0,1-0.2c2.7-1.4,5.6-4.1,8.3-5.8c-4.2,3.5-8.8,6.6-8.8,6.6l5.8,0.3c-1.4,1.5-26.8,23.3-20,62.3
		c7.9-2,11.6-5.3,15.8-9.1c0,3.1,0.1,11.6,0.1,11.6c0.1-0.1-3.7-1.4-2.8,1.7c0.5,1.7,0.8,6-0.1,8.5c0,0.1,0.4,0.3,0.4,0.4
		c-0.1,0.1-0.6,0.1-0.6,0.1c-1.4,2.7-5.1,3.3-7,3.2c-0.7-0.1-0.4,0.9-0.3,1.2c0.3,1.4,1.9,4.4,4.9,9.2l0.8,0.1l-0.5,0.4
		c0.3,0.6,1.3,1.9,1.3,1.9l0,0.4c0,0,1.6,2.3,2.5,3.4c0.1,0.1,0.2-0.1,0.3,0c0.5,0.6,1.1,1.3,1.6,1.8c0,0-0.1,0.2,0,0.3
		c0.9,1,2.7,3.1,2.7,3.1l0.4-0.1l1.4,1.6c11.9-5.5,24.3-17.6,24.2-17.6l0.1-26.1l-14.1,0l-0.1-34.6l14.1,14.1l-0.1-4
		c-3.2-3.1-16-16.2-16-16.2c1.9-0.3,3.7-0.9,5.4-1.8c3.1,1.7,6.3,2.7,10.1,2.2l0-3.8c-4.3,0-6.9-1.4-8.8-3.2l-2.6-0.1
		c-4.9,3.7-8.3,2-12,1.3l-2.5-3.7l26.1-0.1l-0.2-9l-4,0.1l-2.6-1.9l3,1.3c0,0,0-0.5-0.6-1.4c-1.6-2.7-3.7-6.6-4.9-10
		c-0.6-1.7-0.6-1.7-0.1-2.7c0.7-1.4,0.5-3.1-0.4-4.1c-0.6-0.7-0.6-0.8-0.4-1.3c0.8-2-1.2-2.7-1.2-2.6
		C137.2,45.1,131.4,43.3,131.5,43.2L131.5,43.2z M141.7,44c0.9,0,1,0.4,1,1c-0.1,1.2-1.6,1.6-2.3,1.8c-3.4,0.8-9.2,0.3-9.6-1.3
		c-0.3-1.2,0.4-1.8,2.8-1.2C137.4,45.1,139.7,44.2,141.7,44z M130.8,47.3c0.3,0,0.8,0.4,0.9,0.9c0.1,0.5-0.4,2-0.8,2.3
		c-1.1,0.8-2-0.5-1.3-1.9C130,47.9,130.4,47.3,130.8,47.3L130.8,47.3z M142.3,47.5c0.2,0,0.4,0,0.6,0.2c0.8,0.6,0.9,2.7,0.1,3
		c-0.8,0.3-1.6-0.5-1.5-1.9C141.5,48,141.8,47.5,142.3,47.5L142.3,47.5z M139.6,47.9c0.2,0,0.4,0,0.5,0.1c0.7,0.3,1,2.5,0.3,3.2
		c-0.5,0.5-1.7,0.5-2-0.6C138,49.3,138.7,48,139.6,47.9L139.6,47.9z M133.6,48c1,0,1.3,2.3,0.3,3.3c-0.8,0.8-2.1,0-1.7-1.6
		C132.4,48.9,132.8,48,133.6,48z M136.6,48.4c1.5,0.3,1.4,4-0.6,3.6C134.8,51.2,134.9,48.4,136.6,48.4z M130,52.4l2.1,0.2
		c-0.1,0-3.4,7.2-6.4,9.1C127.4,58.9,128.8,55.6,130,52.4L130,52.4z M142.8,52.4c1.2,3.4,2.5,6.8,4.2,10.2c-2.6-2.5-4.9-6.4-7-10.1
		L142.8,52.4z M132.7,52.7l1.4,0c0.5,2.2,1.3,3.6,2.2,4.8c0.8-1.4,1.4-3,1.9-4.6l1.1,0c0.4,0.3-1.3,6.8-3,7.6
		C134.5,59,133,55,132.7,52.7z M132.1,54.3c-0.1,0.2,2.2,5.8,4.1,7.6c1.8-1.8,3-4.2,3.8-7.1l6.1,8.6l-5.9-4.1
		c-1.2,2-2.4,3.9-3.9,5.5c-1.6-1.8-3-3.9-4.5-5.9c-2.3,1.7-3.9,3.5-6.8,5.1C125,64.2,130.8,57.8,132.1,54.3z M131.6,60.4l4.1,5.1
		l-11-0.2L131.6,60.4z M140.5,60.5l6.9,4.8l-10.3,0.1L140.5,60.5z M85.3,62.9c0,0,0.1,0.3,0.1,0.5c1.2,5.1,4.6,9.3,9.7,8.8l-16.8,17
		c0,0-2.8-9.5-8.4-19.3c0,0,1,0.2,1.8,0.4c0.8,0.1,1.3,0.1,1.9-0.1c0.4-0.1,0.8-0.3,1.1-0.4c0.6-0.1,1.5,0.1,1.9,0.3
		c1.2,0.2,1.9-0.4,3.4-1.7c0.4-0.3,0.5-0.3,1-0.3c1.8,0,3-1.6,2.8-4L83.8,63l-0.2,1.2c-0.4,2.3-0.7,3.3-3,3.4
		c-0.5,0-0.7,0.4-1.6,1.1c-1.2,1-2.1,1.1-2.9,0.7c-0.9-0.4-1-0.2-1.8,0.2c-0.9,0.5-2.3,0.4-3.5,0c-1.7-0.5-1.5-0.3-1.5-0.3
		c10,18,13.5,35.3,13.3,50.7c-0.3,21.9-7.9,39.5-14.5,50.2c0,0,1.1-0.1,2.1-0.3c0.5-0.1,0.9,0,1.3,0.2c0.4,0.2,0.8,0.2,1.2,0.1
		c0.3,0,1.2,0,1.7,0.1c1.2,0.2,1.3,0,2.6-1.3c3.8-3.7,3.5-3.6,6.3-3.5c4.1,0.1,7.4,2.9,8.8,7.4c0.2,0.6,0.4,1.4,0.4,1.4l-0.3-1.2
		c-1.2-6-6.3-8.2-10.5-8.1l17.8-18.1c-0.1,0,4.1,13.8,7.8,19.9c0,0-1.1-0.5-3.2-0.2c-1.1,0.1-2.4,0-3.1-0.1c-0.9,0-1.4,0.2-2.6,1.2
		c-0.5,0.4-0.9,0.8-1.8,1.2c-2.2,0.9-3,1.9-3,4.3c0,0.4-0.1,1-0.1,1.2c0,0.1,0,0.2,0,0.2c0,0,0.1-0.1,0.1-0.2
		c0.1-0.2,0.3-0.6,0.5-1.6c0.3-1.8,0.7-2.4,2.4-3.2c0.5-0.2,1.6-0.9,2-1.3c1.6-1.3,2.1-1.5,3.3-1.2c0.7,0.2,1.3,0.3,2.3,0.1
		c1.1-0.1,1.2-0.2,2.4,0.1c0.8,0.2,1.9,0.4,1.9,0.4c-17.3-35.2-16.7-67.8,0.3-101c0,0-5,0.1-5.3,0.2c-0.1,0.1-0.7,0-1.4-0.1
		c-1.4-0.3-1.1-0.1-4.3,3.2c-4,4.1-10.4,0.8-12.3-6c-0.1-0.4-0.2-0.6-0.3-0.8C85.4,63,85.3,62.9,85.3,62.9L85.3,62.9z M101.6,66.9
		c0.7,0.1,1.3,0.3,1.2,1L79,91.6L78.6,90L101.6,66.9z M106.6,67.1c-0.3,0.6-1.1,1.3-1.4,1.9l1.3,1.6l-0.7,1.3l-2-1.7L100,74l3.2,3.6
		l-3,3.1l-1-1.1l1.6-1.7l-2.5-2.3l-4.3,4.3l3.5,3.6l-2.6,2.5l-1-1l1.4-1.5L92.9,81l-4,4.2l3.2,3.6l-2.5,2.5l-1.1-1.1l1.2-1.3
		l-2.3-2.4l-4.1,4.1l3.3,3.7l-2.4,2.2l-0.9-0.9l1.2-1.3l-2.2-2.4l-2.5,2.3l-0.4-1.6l25.2-25.4L106.6,67.1z M108.1,67.5l-1.1,2.2
		l-0.8-0.9l1.1-1.1L108.1,67.5z M48.7,67.6C48,67.8,33,76.2,24.5,85.5l0,3.5l-0.3,0.4l0.2,5.4l0.2,0.3l0.1,2.2l-0.3,0.6v6l0.5,0.1
		l0.1,7.4l14,0l0,35.1c0,0-8.2-9.2-14.2-14.6l0,4.1l15.7,16.5c-1.1,0.2-2.5,0.4-4.6,1.6c-5.1-3.2-11-2.2-11-2.2l0,4.2
		c3.7-0.4,7.1,0.2,11.1,2.8c3.2-2.2,7.1-3.6,13-1.8c1.3,2.1,2.6,4.2,3.8,5.6l-27.8,0.2l0,8.5c1.2,0,4.3,0,4.3,0
		c1.6,3.1,4.6,7.3,5.9,12.7c-1.8,2.1-1.6,3.9,0.1,6c0,1-0.3,2,0.8,3.1c3.5-1.8,7.5-1,10.5-0.1c1,0.3,1.4-0.9,1.4-2.3
		c-0.1-0.8-0.1-1.2,0.5-1.8c1.5-1.3,0.6-4.1,0.3-4.1c-0.1-2.4,7.5-14.4,7.5-14.2l-1.5,0.6l-6.5,0c17-16.6,24.1-35.6,22.6-57.1
		c-0.3-5.4-1.2-7.9-1.2-7.9c-6,2.7-10.9,4.7-15.7,9.9l-0.3-11.2c0.3,0.5,2,1,2.8,0.3c0.5-0.4,0.6-0.7,0.1-2.1
		c-0.7-2-0.9-6.2-0.4-7.6c0.1-0.2,0.1-0.6,0.2-1.1c0.1-0.6-0.1-0.6-0.1-0.6c0.1,0,0.7,0.1,0.8,0c2-1.8,4.2-3,6.9-3.1l0.1-1.3
		c-2-5.1-3.7-7.1-5.5-10c0,0-0.5-0.2-0.8-0.1l0.4-0.4C55.6,74.9,52,71.1,48.7,67.6C48.7,67.6,48.7,67.6,48.7,67.6L48.7,67.6z
		 M48.5,68.3l1.8,1.7c-8.6,4.2-17,10.3-25.4,18.6l0.1-3.1C34.5,76.6,41.6,72.2,48.5,68.3L48.5,68.3z M103.6,71.3l1.1,1.1l-1.5,1.8
		l1,1l-0.5,1.3l-2.5-2.6L103.6,71.3z M50.1,71.5c0.6,0,1,0.5,1,1c0,0.6-0.5,1-1,1s-1-0.5-1-1S49.5,71.5,50.1,71.5z M123.5,72.9
		c17.5,19.8,8.5,48.5-14.8,55.4l-0.3-1.6c23.6-8.1,29.1-35,13.8-51.9L123.5,72.9z M53.1,73.1l1.1,1.3c-10,4.8-19.7,12.1-29.1,22.5
		L25,94.3C33.9,84.8,43.3,78,53.1,73.1L53.1,73.1z M46.7,73.5c0.6,0,1,0.5,1,1s-0.5,1-1,1s-1-0.5-1-1C45.7,73.9,46.1,73.5,46.7,73.5
		z M43.6,75.4c0.6,0,1,0.5,1,1s-0.5,1-1,1s-1-0.5-1-1C42.5,75.9,43,75.4,43.6,75.4z M53.9,76.1c0.6,0,1,0.5,1,1c0,0.6-0.5,1-1,1
		s-1-0.5-1-1S53.4,76.1,53.9,76.1z M98.4,76.8l1,1.1l-1.6,1.7l2.3,2.4l2.2-2.2l-1.1,3.2l-19.6,19.9l-0.4-2.1l1.5-1.6l-2.4-2.4
		l-0.4-1.6l2.3-2.2l1,1l-1.4,1.6l2.2,2.2l4-3.7l-3.3-3.7l2.7-2.7l0.9,0.9l-1.3,1.4l2.3,2.5l4.1-4l-3.3-3.6l2.7-2.7l1,1L92.5,85
		l2.3,2.3l4-4l-3.3-3.5L98.4,76.8z M40.5,77.5c0.6,0,1,0.5,1,1s-0.5,1-1,1s-1-0.5-1-1C39.5,78,39.9,77.5,40.5,77.5z M56.6,77.7
		l0.8,1.3c-11.9,6.1-20.1,12.2-32.2,26.2v-1.8C34.6,91.8,44.3,84.2,56.6,77.7L56.6,77.7z M50.7,77.9c0.6,0,1,0.5,1,1
		c0,0.6-0.5,1-1,1c-0.6,0-1-0.5-1-1S50.1,77.9,50.7,77.9z M142.5,78.3c2.1,1.9,6.5,3.8,9.3,3.6l0.1,2.3c-4.9,0.5-9.3-2.7-9.3-2.7
		c-3.8,2.4-7.7,2.7-11.7,1.6l-1.6-3.4C135.4,82.4,141,79.8,142.5,78.3L142.5,78.3z M118.9,78.9c0.2,0.4,1,0.9,1,0.9
		c4.6-1.2,6,3.6,3.9,6.4l0.6,2c0.8,0.2,1.5,0.4,2.1,0.9c1.1,0.8,1.7,2.2,1.6,3.6c0.2,1.6-2.1,3-2.3,2.9l0,2.2
		c0.6,0.5,1.4,1.1,1.9,1.8c1.1,1.9,0.7,3.8-1,5c-1,0.7-2.1,0.8-2.2,0.7l-1.1,2.5c0.9,0.5,1.2,1.5,1.3,2.1c0.3,1.4-0.7,3.3-1.9,3.9
		c-1.6,0.9-3.7,0.1-3.7,0.1l-1.5,1.5c0.4,1.3,0.5,2.1,0.3,2.9c-0.5,1.9-2.5,2.7-4.1,2.5c-1.3-0.1-2.2-1-2.2-1l-1.7,0.7
		c0,0,0,2.2-0.8,2.8c-0.3,0.3-1.2,0.9-1.2,0.9l-0.2-1.5c0.7-0.5,1.1-1.7,0.9-2.5l3.6-1.8c0,0.1,1,1.1,1.7,1.2
		c1.4,0.3,2.8-0.8,2.8-2.1c0-0.8-0.4-1.3-0.5-1.9l3.1-3.2c1.3,0.4,2.2,0.5,2.7,0.2c1.1-0.6,1.4-1.9,1.2-2.7
		c-0.2-0.9-1.1-1.5-1.1-1.6l1.7-4.4c0.8,0,1.3-0.1,1.9-0.5c1.3-0.8,1.1-2.5,0.6-3.3c-0.7-1-1.6-1.1-1.7-1.1l0.1-4.6
		c0,0,1.7-0.8,1.9-1.9c0.3-1.5-0.3-2.5-2.2-2.9c-1-0.2-1,0-1,0l-1.4-4.1c2.3-1.4,1.6-3.6,0.4-4.4c-1.2-0.8-2.9-0.1-2.9-0.1
		s-0.8-0.8-1.4-1.4L118.9,78.9z M58,79.7c1.5,2,4,6.1,5.4,9.8c0.1,0.2,0,1,0,1c-4,0.4-5.4,2-6.9,3.1c-1.1-0.6-1.6-1.3-3.6,0
		c0,0.1-5.1-3.1-6.1-7.5C50.6,83.8,54.1,81.6,58,79.7L58,79.7z M37.5,79.7c0.6,0,1,0.5,1,1s-0.5,1-1,1s-1-0.5-1-1
		C36.5,80.2,36.9,79.7,37.5,79.7z M47.2,79.9c0.6,0,1,0.5,1,1c0,0.6-0.5,1-1,1s-1-0.5-1-1S46.6,79.9,47.2,79.9z M117.2,81.2
		c1.8,2.4,4.4,6.8,5.1,10.8c0.9,5.5,0.3,11.4-2.2,15.4c-4.5,8.7-12.4,10.5-12.4,10.9l-0.1-1.8c0.1,0.4,6-2.1,10.1-7.9
		c2.5-3.9,3.9-9.5,3.4-13.8c-0.3-6.3-4.7-12-4.7-12.1L117.2,81.2z M34.3,82.1c0.6,0,1,0.5,1,1c0,0.6-0.5,1-1,1s-1-0.5-1-1
		S33.8,82.1,34.3,82.1z M44,82.1c0.6,0,1,0.5,1,1c0,0.6-0.5,1-1,1c-0.6,0-1-0.5-1-1C43,82.6,43.4,82.1,44,82.1z M131.4,83.8
		c2.3,0.2,5,4.4,7.6,6.8l0,34.1l-7.5,0.2c-1,2.4-3.3,4.8-6.9,7.1v-12.8C136.9,105.7,133.5,91,131.4,83.8L131.4,83.8z M31.5,84.2
		c0.6,0,1,0.5,1,1s-0.5,1-1,1c-0.6,0-1-0.5-1-1C30.5,84.7,31,84.2,31.5,84.2z M40.9,84.4c0.6,0,1,0.5,1,1c0,0.6-0.5,1-1,1
		c-0.6,0-1-0.5-1-1S40.3,84.4,40.9,84.4z M136.7,84.5l15.4,15.8l-0.1,2.3l-17.4-17.9L136.7,84.5z M46.5,86l0.4,2
		c-0.5-0.8-0.5-1.1-1.4-1.2L46.5,86z M38.2,86.6c0.6,0,1,0.5,1,1c0,0.6-0.5,1-1,1c-0.6,0-1-0.5-1-1S37.6,86.6,38.2,86.6z M28.9,86.8
		c0.6,0,1,0.5,1,1s-0.5,1-1,1s-1-0.5-1-1C27.9,87.3,28.4,86.8,28.9,86.8z M115.7,86.8l3,2.2l-1,3.9l-3.1-2.8L115.7,86.8z M45.3,87.2
		l0.5,0.3l-0.6,2.7l-7,2.6C40.5,90.8,42.8,88.7,45.3,87.2L45.3,87.2z M46.5,88.4c0.5,2,1.6,5,2.9,7.5c-0.9,0.5-4.1,2.3-4.1,3.2
		c0.5,1.6,3.9,3,3.9,3c-1.3,2.1-2.5,4.6-3.5,7.5c-0.6-1-0.7-5,0.6-6.6c-1.2-0.5-2.9-1.6-4.2-2.8c0.8-3,4.4-4.8,4.5-4.8
		C46.5,95.5,45.5,89.1,46.5,88.4L46.5,88.4z M35.1,88.9c0.6,0,1,0.5,1,1c0,0.6-0.5,1-1,1s-1-0.5-1-1C34.1,89.4,34.5,88.9,35.1,88.9z
		 M113.2,89c4.6,8.6,1.8,16.1-5.4,21.4l0.2-2c5-3.7,8.3-11,4.6-17.9L113.2,89z M26.5,89.3c0.6,0,1,0.5,1,1c0,0.6-0.5,1-1,1
		s-1-0.5-1-1S25.9,89.3,26.5,89.3z M99.3,89.3c-3.3,12.6-3.3,18.4-3.6,21.9l-13,0.1l-0.5-4.6L99.3,89.3z M47.5,89.7
		c0,0,2.8,2.7,5.3,5l-0.3,0.6l-2.5,0.3C48.2,91.8,47.5,89.7,47.5,89.7z M45.1,91L45.1,91l0.2,1.9c-0.8,0-10,3.8-17,10
		c1-1.9,2.8-3.7,4.5-5.2C36.5,94.2,45.1,91,45.1,91L45.1,91z M32.2,91.5c0.6,0,1,0.5,1,1s-0.5,1-1,1c-0.6,0-1-0.5-1-1
		C31.2,91.9,31.6,91.5,32.2,91.5z M37.9,92.7l0.5,0.5L36,94.5L37.9,92.7z M54.8,93.2c0,0,0.1,0,0.1,0c0.4,0,0.5,0.2,0.7,0.4
		c-0.5-0.1-0.9-0.2-1.4-0.1C54.4,93.4,54.6,93.2,54.8,93.2L54.8,93.2z M45.5,93.6l0.2,1.4c-5.2,3-11.5,5.9-20.6,14.6v-2.9
		C30.9,101.4,37.5,96.9,45.5,93.6L45.5,93.6z M52.6,93.7c0.3,0.1,0.6,0.1,0.9,0c0,0-0.2,0.4-0.4,0.4C52.9,94.2,52.6,93.7,52.6,93.7
		L52.6,93.7z M54.8,93.8c0.7,0,1.1,0.6,1,1.4c-0.5,2.7-0.5,5.4,0.1,7.3c0.4,1.5,0.5,2,0.2,2.2c-3.1,2.2-4.8-7.6-2.2-10.4
		C54.2,94,54.5,93.8,54.8,93.8L54.8,93.8z M29.6,94.2c0.6,0,1,0.5,1,1s-0.5,1-1,1c-0.6,0-1-0.5-1-1C28.5,94.6,29,94.2,29.6,94.2z
		 M118.5,94.4l1.9,3.3l-2.7,3l-1.6-3.5L118.5,94.4z M52.3,96.2l-0.1,1.1c-1.4,0.4-2.6,1-3.6,1.9c-0.2,0.2,3.2,1.7,3.6,1.4l0,1.2
		c0,0.4-5.6-1.4-6-2.7C46.7,98.2,50.2,96.1,52.3,96.2L52.3,96.2z M26.9,96.8c0.6,0,1,0.5,1,1s-0.5,1-1,1s-1-0.5-1-1
		S26.3,96.8,26.9,96.8z M42.1,98c-0.4,0.8-1,1.8-1.1,2.9c-3.8,2.4-7.7,4.6-12.5,10l-2.6,0l-0.1-0.7C31.1,105.1,36.7,100.7,42.1,98
		L42.1,98z M51.9,98.3l0,1.4c-0.9,0-1.4-0.3-2-0.6C50.5,98.7,50.9,98.4,51.9,98.3L51.9,98.3z M80.7,98.5l0.7,0.8L81,99.6L80.7,98.5z
		 M42,101.4l1.4,0.9c-3.6,1.9-7.5,4.8-10.8,8.5h-2.8C33.3,106.9,37.1,103.4,42,101.4L42,101.4z M117.5,102.4l0.3,3.9l-3.6,2l0.1-4.1
		L117.5,102.4z M49.9,102.5l2.4,0.3l0.3,1.1c-2.1,1.3-3.8,2.9-5.5,4.5C47.7,106.2,48.7,104.1,49.9,102.5L49.9,102.5z M44,102.9
		l1,0.5l-0.4,1.8c-3,1.4-5.4,3.2-7.9,5.6h-2.9C36.3,108.1,40.5,104.6,44,102.9L44,102.9z M53.1,104.6
		C53.1,104.6,53.1,104.6,53.1,104.6l0.4,11.9c-10.6,12.6-10,24.7-6.9,35.7l-2-0.1c-2.3-3-5.5-6-5.5-6l0-34.7l7.3,0
		C48.1,107.5,52.8,104.6,53.1,104.6L53.1,104.6z M44.5,106.2l0.1,1.6c-1.5,0.9-2.8,1.9-3.9,3H38C39.8,109,41.7,107.2,44.5,106.2z
		 M69.3,107l0.4,1.9c-24.5,9-29,35.2-14.5,53.2l-1,1.1C37.6,145.1,44.9,115.5,69.3,107z M44.7,108.9c0,0,0.1,1.4,0.2,1.9h-2.7
		C42.7,110.1,43.3,109.3,44.7,108.9z M113.7,109.5l-1.6,3.7l-4.2,0.1l1.9-3.7L113.7,109.5z M87,112.1h3.8v3.7H87V112.1z M70.4,112.4
		l0.1,1.6c-1.7,0.9-1.3,2.3-1.7,2.3c-1,0.3-3.8,1.8-3.8,1.8c-1-0.9-2.3-0.7-2.9-0.2c-0.9,0.6-1,1.9-0.8,3l-2.9,3.5
		c-1.4-0.6-2.8-0.6-3.5,0.4c-0.8,1.1-0.5,2.4,0.8,3.9l-1.6,4.2c-0.2-0.2-2.9,0.5-2.9,2.2c0,1.7,2.2,2.8,2.2,3l-0.1,4.6
		c-0.1-0.2-2.3,0.7-2,2.9c0.3,2,3,1.8,3.1,1.9l1.5,4.4c-0.1-0.1-2,1.8-0.8,3.5c1,1.5,3.8,0.5,3.8,0.4l0.8,1.1l-0.9,1
		c0,0-0.4-0.5-0.6-0.4c-1.6,0.3-3.5-0.1-4.4-1.4c-1.2-1.9,0.1-4.8,0.6-4.8l-1-2.5c-1.9,0-3.4-1.7-3.5-3.1c-0.2-2.9,2.2-4.2,2.2-4.2
		l0.1-2.7c-0.1,0.2-2.4-1.4-2.3-3.2c0-1.3,1.1-2.9,2.5-3.5c0.4-0.2,1-0.5,1-0.5l0.9-2.2c0,0-1.3-1.9-1-3.8c0.6-2.9,4.4-2.7,5-2.4
		l1.7-2.2c-0.9-2,0.6-4.4,2.6-4.7c0.9-0.1,3.3,0.4,3.3,0.4l2.2-1.2C67.8,114,69.1,113.2,70.4,112.4L70.4,112.4z M83,116.5h3.3v3.7
		H83V116.5z M91.8,116.5h3.7v3.7h-3.7V116.5z M70.6,117.4l0,1.4C49.3,129.3,58,151,61.1,153.5l-0.7,1.5
		C56.7,152.8,47,127.8,70.6,117.4L70.6,117.4z M87,121.2h4l0,3.8h-4L87,121.2z M69.7,123.1l-1.3,3.5l-3.9,0.3l1.4-3.5L69.7,123.1z
		 M149.5,125.6l2.7,0c-5,5.9-10.4,10-15.7,12.2c0,0,0-0.5,0.1-0.9c0.1-0.3-0.1-1.2-0.1-1.2C142.5,132.8,146.5,129.3,149.5,125.6
		L149.5,125.6z M135.8,125.7c-0.7,0.8-1.5,1.6-2.4,2.1l-0.4-2.2C133.8,125.6,135.8,125.7,135.8,125.7z M140.5,125.6
		c0.3,0.7-7,4.7-7,4.3l0-1.3l3.9-3L140.5,125.6z M142.1,125.6L142.1,125.6l2.1,0c-1.9,3-11.6,8.3-11.2,7.6l0.4-2.2
		C136.5,129.7,139.4,127.7,142.1,125.6L142.1,125.6z M145.6,125.6l2.7,0c-4.1,5.2-8.2,7.1-12.1,9.4c-0.2,0-0.1-0.1-0.9-0.1l-1.4-1.1
		C134.2,134.1,143,128.9,145.6,125.6z M70.1,125.8l-0.1,1.6c-5.7,5-8,11.3-5,18.6l-0.7,1.6C61.1,139.8,62.1,132.2,70.1,125.8
		L70.1,125.8z M95.9,126.1l0.3,4.3l-17.6,17.4c2.7-9.7,3.4-15.6,4.1-21.7L95.9,126.1z M152.4,127.1l0,2.4c-6.9,7.8-14,11.3-20,12.7
		l-0.1-0.9l2.8-1.8C144.1,135.5,148,131.4,152.4,127.1L152.4,127.1z M131.3,127.1c0.1,1.7-1.4,4.9-3.1,6.8l-2.9,0l-0.3-1.3
		C127.4,131.3,129.6,129.5,131.3,127.1L131.3,127.1z M132.2,127.7c1.1,1.8-0.5,6.3-0.6,6.1c-0.1,0.3,9.2,2.3-0.4,7
		c0.2,1.4,1.1,4.3,0.4,6.2c-0.2-0.7-1.9-5.4-3.2-6.6c3-0.9,5.2-2.7,4.9-3.3c-0.5-0.9-1.8-1.9-4.1-2.7
		C131.2,131.5,131.8,129.5,132.2,127.7L132.2,127.7z M63.4,128.5l0.3,3.6l-3.4,2.1l-0.3-3.9L63.4,128.5z M122.9,131.9
		c0.3,0,0.5,0.1,0.6,0.2c1.7,0.7,1.8,9.1,0.3,9.9c-1.1,0.7-1.9-0.4-1.9-0.6c0.7-3.8,0.3-6.2,0-8.9C122,132,122.5,131.9,122.9,131.9
		L122.9,131.9z M152.4,132v3c-9.9,10.5-20.6,18.7-31.6,23.3l-1-1.7C133.1,150.3,144.2,141.4,152.4,132z M150.6,132.3
		c-4.6,6.5-10.2,10.7-17.9,12.7l-0.1-1.8C142.2,140.9,150.9,132.3,150.6,132.3z M25.4,133.3c6,6.2,12.1,12.4,18.2,18.8l-2.4,0.1
		l-15.9-16.7L25.4,133.3z M96.8,133.6l0.2,1.5l-1.7,1.9l2.8,3l0.1,0.7l-2.4,2.5l-1.1-1.1l1.3-1.5l-2.2-2.4l-4.1,4l3.4,3.7l-2.6,2.5
		l-1-1.1l1.3-1.5l-2.3-2.4l-4.2,4.2l3.2,3.6l-2.1,2.4l-1-1.1l1.1-1.3l-2.3-2.4l-4,3.9l3.3,3.7l-2.7,2.7l-1-1l1.5-1.7l-2.5-2.4
		l-2,1.9c0,0,0.8-1.9,0.9-2.2c0.2-0.5,0.8-0.8,5-5C86.6,143.9,91.8,139.1,96.8,133.6L96.8,133.6z M125.5,134.6c1.5,0,4,0.4,5.2,1
		c2.2,1.2,1.5,2.1,0.1,2.9c-1.7,0.8-3.2,1.3-5.1,1.3l0.1-1c1.1-0.3,2.3-0.6,3.3-1.1c0.7-0.4,0.9-0.7,0.9-0.7s-0.7-0.7-1.8-1.1
		c-0.8-0.3-1.9-0.3-2.5-0.4L125.5,134.6z M60,135.9l1.8,2.8l-2.2,3.7l-2.1-3.2L60,135.9z M97.1,136.2c0.1,0.5,0.7,2.6,0.4,2.2
		l-1.2-1.4L97.1,136.2z M125.6,136.5c1,0.1,2.1,0.1,2.8,0.5c-0.9,0.7-1.8,0.8-2.8,1L125.6,136.5z M151.2,137.9
		c0.6,0,1.1,0.5,1.1,1.1c0,0.6-0.5,1.1-1.1,1.1c-0.6,0-1.1-0.5-1.1-1.1C150.1,138.4,150.6,137.9,151.2,137.9z M93.7,139.9l1,0.9
		l-1.2,1.5l2.2,2.4l2.8-2.6l0.4,1.7l-25.9,25.8l-1.4-0.1l1.6-2l-1.9-1.9l0.8-1.4l2.2,2l4-3.9l-3.3-3.5l2.8-2.9l1.1,0.9l-1.6,1.8
		l2.3,2.4l4.2-4.2l-3.3-3.7l2.6-2.6l1,0.9l-1.2,1.3l2.4,2.5l3.6-3.8l-3.2-3.6l2.9-2.8l0.9,0.9l-1.3,1.5l2.4,2.5l3.9-4.1l-3.2-3.5
		L93.7,139.9z M148.6,140.5c0.6,0,1.1,0.5,1.1,1.1c0,0.6-0.5,1.1-1.1,1.1c-0.6,0-1.1-0.5-1.1-1.1C147.5,141.1,148,140.5,148.6,140.5
		z M127.6,140.6c1.8,2.1,2.8,4.4,3,6.9c-1.4-2.2-3.2-4.1-5.5-5.7l0.4-1.1L127.6,140.6z M152.4,140.8v2.5c-7.8,9-17.3,15.8-27.1,20.5
		l-1.7-2C135.2,156.5,143.5,150,152.4,140.8z M140.9,142.5l-3.2,2.5V144L140.9,142.5L140.9,142.5z M124.5,142.7c2.7,1.3,5,3.6,6.3,7
		c-3.7,2.4-7.7,4.3-11.6,6.2c-1.9-3-3.7-5.9-5.2-9.8c6,0,7.6-3.3,7.6-3.4C123.1,143.2,123.4,143.3,124.5,142.7L124.5,142.7z
		 M145.9,143.2c0.6,0,1.1,0.4,1.1,1.1c0,0.6-0.5,1.1-1.1,1.1c-0.6,0-1.1-0.5-1.1-1.1C144.9,143.5,145.4,143.2,145.9,143.2
		L145.9,143.2z M137.6,144l0,1.1c-1.5,1.4-4.5,3.5-4.5,3.5l-1.2-0.1l0.4-3.1C134.2,145,136,144.5,137.6,144L137.6,144z M59.9,144.1
		l2.9,2.4l-0.9,3.8l-2.9-2.2L59.9,144.1z M99,144.8l0.3,1.1l-24,24l-1.4-0.2L99,144.8z M143.2,145.7c0.6,0,1.1,0.5,1.1,1.1
		c0,0.6-0.5,1.1-1.1,1.1c-0.6,0-1.1-0.5-1.1-1.1C142.1,146.2,142.6,145.7,143.2,145.7z M152.1,145.7c0.1,0,0.3,0,0.3,0.1v2.1
		c-0.1,0-0.2,0.1-0.4,0.1c-0.6,0-1-0.5-1-1.1C151,146.2,151.5,145.7,152.1,145.7z M149.4,148.2c0.6,0,1.1,0.5,1.1,1.1
		c0,0.6-0.5,1.1-1.1,1.1c-0.6,0-1.1-0.5-1.1-1.1C148.3,148.7,148.8,148.2,149.4,148.2z M140,148.3c0.6,0,1.1,0.5,1.1,1.1
		c0,0.6-0.5,1.1-1.1,1.1c-0.6,0-1.1-0.5-1.1-1.1C138.9,148.8,139.4,148.3,140,148.3z M131.9,148.6l1.1,0l-2.1,1.3
		C131.3,149.4,131.7,149.1,131.9,148.6L131.9,148.6z M152.4,149.1l0,2.3c-5.5,5.6-12.4,11.3-23,16.9l-1.3-1.4
		C136.7,162.8,144.8,156.9,152.4,149.1L152.4,149.1z M136.8,150.4c0.6,0,1.1,0.5,1.1,1.1c0,0.6-0.5,1.1-1.1,1.1
		c-0.6,0-1.1-0.5-1.1-1.1C135.7,150.9,136.2,150.4,136.8,150.4z M146.7,150.5c0.6,0,1.1,0.5,1.1,1.1s-0.5,1.1-1.1,1.1
		c-0.6,0-1.1-0.5-1.1-1.1C145.6,151,146.1,150.5,146.7,150.5z M35.7,155c3.8-2.2,6.8-2.5,11.2-1.8l1.3,2.6
		c-4.2-0.8-8.7-0.7-12.5,2.3c-3.9-2.5-6.9-3.3-10.2-2.8l-0.1-2.7C29.7,151.9,33.5,153.4,35.7,155L35.7,155z M133.7,152.6
		c0.6,0,1.1,0.5,1.1,1.1c0,0.6-0.5,1.1-1.1,1.1c-0.6,0-1.1-0.5-1.1-1.1S133.1,152.6,133.7,152.6z M143.9,153c0.6,0,1.1,0.5,1.1,1.1
		c0,0.6-0.5,1.1-1.1,1.1c-0.6,0-1.1-0.5-1.1-1.1C142.8,153.5,143.3,153,143.9,153z M130.4,154.7c0.6,0,1.1,0.5,1.1,1.1
		c0,0.6-0.5,1.1-1.1,1.1c-0.6,0-1.1-0.5-1.1-1.1C129.3,155.2,129.8,154.7,130.4,154.7z M140.8,155.4c0.6,0,1.1,0.5,1.1,1.1
		c0,0.6-0.5,1.1-1.1,1.1c-0.6,0-1.1-0.5-1.1-1.1C139.7,155.9,140.2,155.4,140.8,155.4z M126.9,156.7c0.6,0,1.1,0.5,1.1,1.1
		s-0.5,1.1-1.1,1.1c-0.6,0-1.1-0.5-1.1-1.1S126.3,156.7,126.9,156.7z M137.8,157.7c0.6,0,1.1,0.5,1.1,1.1c0,0.6-0.5,1.1-1.1,1.1
		c-0.6,0-1.1-0.5-1.1-1.1C136.7,158.2,137.2,157.7,137.8,157.7z M123.6,158.4c0.6,0,1.1,0.5,1.1,1.1c0,0.6-0.5,1.1-1.1,1.1
		s-1.1-0.5-1.1-1.1C122.5,159,123,158.4,123.6,158.4z M74.4,159.5l2.8,2.6l-2.9,2.9l-1-1l1.6-1.7l-1.1-1.5L74.4,159.5z M134.7,159.7
		c0.6,0,1.1,0.5,1.1,1.1c0,0.6-0.5,1.1-1.1,1.1c-0.6,0-1.1-0.5-1.1-1.1C133.6,160.2,134.1,159.7,134.7,159.7z M131.5,161.6
		c0.6,0,1.1,0.5,1.1,1.1c0,0.6-0.5,1.1-1.1,1.1c-0.6,0-1.1-0.5-1.1-1.1S130.9,161.6,131.5,161.6z M128,163.6c0.6,0,1.1,0.5,1.1,1.1
		c0,0.6-0.5,1.1-1.1,1.1c-0.6,0-1.1-0.5-1.1-1.1C126.9,164.1,127.4,163.6,128,163.6z M70.7,166.8l0.9,0.7l-1.4,1.7l-1.1,0
		L70.7,166.8z M53.2,171.4c-3.2,1.6-4.7,2.6-6.9,4.5l-3.2-4.4L53.2,171.4z M31.7,171.5l8.4,0.1l-2.8,4
		C35.5,173.6,33.6,172.3,31.7,171.5z M41.7,171.9c0.9,0.3,3.3,3.7,4.4,5.6c2.4-1.9,4.7-4.1,7.3-5.3c-3,3.3-5.7,6.6-7.6,9.9
		c-0.5-1.5-2-5.7-3.9-7.5c-3,2.8-4.2,6.3-4.2,6.3c-1.6-2.8-3.5-5.6-5.8-8.2c-0.4-0.5,2.7,1.4,5.8,4.5C38.6,175,40.9,172,41.7,171.9
		L41.7,171.9z M31.6,174.1c1.4,1.2,5.4,6.3,5.8,9.4l-1.9,0.1C34.6,180.4,32.9,177.2,31.6,174.1L31.6,174.1z M52.5,174.6
		c-1.4,3-3.2,6-4.5,9.3l-1.9-0.1C48.3,179.3,49,178.4,52.5,174.6z M41.9,175.9C41.9,175.9,41.9,175.9,41.9,175.9
		c1.8,2.5,2.6,4.8,3.2,7.7l-1.4-0.1c0,0-1-2.9-1.6-3.9c-0.4-0.6-0.8-0.5-1.1,0c-0.7,1.2-0.9,2.5-1.3,3.8l-1.6-0.1
		C37.8,181.1,41.3,176,41.9,175.9L41.9,175.9z M41.6,184.4c0.6,0,1.3,0.7,1.3,1.9c0,0.6-0.4,1.9-0.9,1.9c-0.9,0.5-1.9-1-1.7-2.3
		C40.6,184.9,41.1,184.4,41.6,184.4L41.6,184.4z M38.5,184.6c1.3,0.1,1.5,3,1,3.6c-0.6,0.6-2.1,0.2-2.3-0.9
		C36.8,186,37.7,184.6,38.5,184.6L38.5,184.6z M44.8,184.6c1.4,0.2,1,3.4,0.3,3.8c-1.1,0.6-1.9-0.4-1.6-1.9
		C43.8,185.3,44.2,184.6,44.8,184.6z M47.9,185.1c1.6,0.2,0.7,3,0,3.5c-1,0.8-2-0.4-1.5-1.8C46.8,185.7,47.4,185.1,47.9,185.1
		L47.9,185.1z M35.2,185.2c1.1,0.2,1.8,2.8,1.1,3.6c-0.4,0.4-1.4-0.2-1.9-0.9C33.9,187,34.4,185.2,35.2,185.2z M47.4,190.9
		c0.1,1.4-0.9,1.4-3.9,0.7c-1.5-0.3-4.1-0.1-5.5,0.1c-2.3,0.4-2.6,0.3-2.6-0.7c0-1.1,1.3-1.7,4.2-1.8
		C41.8,189.2,47.1,189.2,47.4,190.9z M52,190.1c-3.5,0.3-4.5,4.8-4.1,6.5c0.3,2.8,0.2,5.7-0.3,7.6c-0.4,1.4-0.7,2.8-1.3,4.1
		c-0.9,1.9-0.7,3.3,0.7,4c1.1,0.6,2.5,0.4,3.4-0.5c1.6-1.7,1.8-5.4,0.8-13.6c-0.3-2.9-0.2-3.5,1.2-3.3
		C55.3,194.7,55.2,190.1,52,190.1L52,190.1z M51.6,193.9c-0.8-0.3-1.3,0.4-1.2,2.2c0,0.8,0.2,1.7,0.3,2.4c1.1,7.9,0.7,13.3-1.7,13.5
		c-2.1,0.3-3.5-1.2-2.5-2.8c0.6-0.9,1.1-1,2.2-0.6c1.5,1,1.2-0.4-0.2-1.5c-0.9-0.6-1-0.6-0.5-2.6c0.6-2.7,0.9-4.6,0.6-8
		c-0.3-2.4,0.5-5.6,3.5-5.8C55.1,190.6,54.2,195,51.6,193.9L51.6,193.9z M30,204.3c1,0.5,2,0.4,2.9,0c0.4-1.7,0.4-3.1,1.5-5.4
		c-1.9-1.9-5-1.1-5.9,0.8C27.6,201.8,28.4,203.6,30,204.3L30,204.3z M32.9,198.5c1.1,0.2,1,1.4-0.1,1.1c-2.5-1.2-4.6,2.4-2.6,3.8
		c1,0.6,1.5,0.3,0.5-0.6c-0.4-0.5-0.3-0.7-0.1-1.2c0.5-1,2.5-0.8,2.3-0.1c-0.4,2.3-0.7,3-1.4,3C27.7,204.6,26.9,197.2,32.9,198.5
		L32.9,198.5z M66.4,202.6c0,0-11.7,13.5-17.4,20.3l70.8-0.3l-13.5-18.9C94.7,206.5,81.2,205.7,66.4,202.6z M66,206.9
		c1.8,0,3.8,1.3,5.5,5.7c0.1,0,7.8-11.9,14.4,0.5c1.1-2.8,7.4-10,14.6-0.7c2.6-6.2,8.5-4.1,9.1-1.9c-0.1-0.5-5.7-1.8-8.1,2.3
		c-0.4,0.9-0.5,1.7,0,2.2c1.2,1.2-0.1,2.8-1.5,1.9c-0.5-0.4-0.6-1.1-0.2-1.7c1.2-0.9-1.3-3.7-3.3-4.8c-2.8-1.4-6.7-0.8-8.5,1.2
		c-1,1.1-1.6,2-1.8,2.8c-0.1,0.4,0,0.5,0.2,0.8c0.8,1,0.3,2.3-0.8,2.2c-1.4-0.2-1.2-1.6-0.3-2.3c0.3-0.1,0.2-0.3,0.1-0.6
		c-2.6-7.5-12.4-6.1-13.4-0.9c0,0.2-0.1,0.4-0.1,0.6c0.1,0.5,0.4,0.9,0.3,1.3c-0.4,1.6-2.4,1.1-2.5-0.2c0-0.6,0.6-0.8,0.9-1.3
		c0.2-0.3,0.3-0.8,0.1-1.1c-2.6-5.6-7.2-4.4-9.4-3.2C61.4,209.6,63.4,206.9,66,206.9L66,206.9z M63.1,210.2c1,0,1.8,0.4,2.7,1.4
		c2.8-1.5,4.7,1.1,4.4,1.3c-3.9-2.6-5.2,3.4-1.3,3.2c-1.7,3.6,4.4,5.1,3.7,0.5c3.7,1.3,4.4-3.9,0.6-3.8c1.2-2.2,4.4-1.6,5.8-0.2
		c1.6-2,5.5-0.1,5.9,1.6c-4.4-2.3-4.8,4.7-0.6,3.2c-1.2,4.4,5.5,3.8,3.6,0c4.2,1.4,3.6-4.9-0.5-3.7c-0.2-0.3,3.2-4,5.8-0.6
		c0.3-0.6,4.3-2.6,6.5,0.5c-4.7-1.6-3.8,4.8-0.4,3.5c-0.9,4.3,5.2,3.6,3.6-0.1c4.7,1.2,2.6-6.1-0.7-3.4c0.5-2.9,4.5-1.7,4.5-1.3
		c0,0,2.1-2.3,4.5-0.6c-3.7,0.3-2.4,5.4,1,3.9c0,1.7,1.4,2.8,3.3,2.3l3,4.2l-67.8,0.4l5.4-6.6c1.8,1.5,3.7,0.8,3.9-1.6
		c3.9,2.5,5-3.4,1.3-3.6C61.7,210.5,62.4,210.2,63.1,210.2L63.1,210.2z M59.3,212.1c0.2,0.2-0.1,1-0.6,0.7L59.3,212.1z M112.2,213.8
		c0.2,0.3,0.3,0.5,0.5,0.8C112.8,214.8,111.7,214.4,112.2,213.8z"/>
	<path id="path163-0-2-5-8-7-5-6-5-5_1_" class="st0" d="
		M47.4,58.9c0,0-3.7-6.1-8.7-13.3c-3.4-4.8-6-10-6.3-14.5c-0.3-5.1,2.4-10.3,7.3-10.5c4.9-0.2,6.9,3.9,7.7,7.4
		c0.8-3.5,2.8-7.7,7.7-7.4c4.9,0.2,7.6,5.4,7.3,10.5c-0.2,4.5-2.9,9.7-6.3,14.5C51.1,52.7,47.4,58.9,47.4,58.9L47.4,58.9z"/>
	<path id="path163-0-2-5-8-7-7-8-9-1-8_1_" class="st0" d="
		M129.9,178.8c0,0-3.7,6.1-8.7,13.3c-3.4,4.8-6,10-6.3,14.5c-0.3,5.1,2.4,10.3,7.3,10.5c4.9,0.2,6.9-3.9,7.7-7.4
		c0.8,3.5,2.8,7.7,7.7,7.4c4.9-0.2,7.6-5.4,7.3-10.5c-0.2-4.5-2.9-9.7-6.3-14.5C133.6,184.9,129.9,178.8,129.9,178.8L129.9,178.8z"
		/>
</g>
</svg>
