<!-- Generator: Adobe Illustrator 19.2.1, SVG Export Plug-In  -->
<svg version="1.1"
	 xmlns="http://www.w3.org/2000/svg" xmlns:xlink="http://www.w3.org/1999/xlink" xmlns:a="http://ns.adobe.com/AdobeSVGViewerExtensions/3.0/"
	 x="0px" y="0px" width="166.5px" height="226.6px" viewBox="0 0 166.5 226.6" style="enable-background:new 0 0 166.5 226.6;"
	 xml:space="preserve">
<style type="text/css">
	.st0{fill:#131F67;}
	.st1{fill:#D40000;}
	.st2{fill:#E2CF00;}
</style>
<defs>
</defs>
<g id="g6392_1_" transform="matrix(0.99999718,0,0,1.000002,-3.9778391,-7.5442065)">
	<path id="path7363-8-9_1_" d="M12,36.4
		c-3.4,4.4-7.1,6.9-7.2,10.3c0,1.1,0.6,3,2.7,3.3c1.4,0.2,3.2-0.8,3.3-2.7c0-0.4,0.5-0.4,0.5,0.2c-0.1,1.6-0.6,3.4-1.6,4.9
		c1.5,0,3,0,4.5,0c-0.9-1.5-1.5-3.3-1.6-4.9c0-0.5,0.5-0.6,0.5-0.2c0,2,1.9,3,3.3,2.7c2.1-0.4,2.8-2.2,2.7-3.3
		C19.1,43.2,15.4,40.7,12,36.4L12,36.4z"/>
	<path id="path7367-3-1_1_" d="M162.4,205.3
		c-3.4-4.4-7.1-6.9-7.2-10.3c0-1.1,0.6-3,2.7-3.3c1.4-0.2,3.2,0.8,3.3,2.7c0,0.4,0.5,0.4,0.5-0.2c-0.1-1.6-0.6-3.4-1.6-4.9
		c1.5,0,3,0,4.5,0c-0.9,1.5-1.5,3.3-1.6,4.9c0,0.5,0.5,0.6,0.5,0.2c0-2,1.9-3,3.3-2.7c2.1,0.4,2.8,2.2,2.7,3.3
		C169.5,198.4,165.8,200.9,162.4,205.3L162.4,205.3z"/>
	<path id="path35-7-9-2_1_" d="M11.9,7.5v2.8h2.7c0,0,0.1,2.7,0.1,8.3c0,5.5,0.1,8.2-0.2,9.7
		c-0.9,3.6-6.1,3.6-7.2,1c-0.6-1.5-0.4-2.7-0.5-4.2H4c0,0,0,0.8,0,1.7c0,4,1.4,6,4.5,6.7c3.2,0.9,7-0.5,8.3-3.2
		c0.8-1.6,0.7-1.7,0.7-11.1c0-6.3,0.1-8.9,0.1-8.9h2.5V7.5L11.9,7.5L11.9,7.5z"/>
	<path id="path35-7-8-1-4_1_" d="M162.5,234.1v-2.8h-2.7c0,0-0.1-2.7-0.1-8.3
		c0-5.5-0.1-8.2,0.2-9.7c0.9-3.6,6.1-3.6,7.2-1c0.6,1.5,0.4,2.7,0.5,4.2h2.9c0,0,0-0.8,0-1.7c0-4-1.4-6-4.5-6.7
		c-3.2-0.9-7,0.5-8.3,3.2c-0.8,1.6-0.7,1.7-0.7,11.1c0,6.3-0.1,8.9-0.1,8.9h-2.5v2.8H162.5L162.5,234.1z"/>
	<g id="g3851-4-2-7-4_1_" transform="matrix(0.15513522,0.00255852,-0.00256389,0.1548104,3382.9204,-262.82254)">
		
			<path id="path4037-8-0-2_1_" class="st0" d="
			M-21629.6,2155.8l22.5,1359.5l841.7-13.9l-22.5-1359.5L-21629.6,2155.8z M-21362.1,2158.9l381.3-4.9l-57.6,91.5
			c-77.5-23.2-202.2-5.2-266.5,8.2C-21322.2,2225.6-21347.4,2190.4-21362.1,2158.9L-21362.1,2158.9z M-21618.3,2166.6l244.8-4
			l59.2,103.7c2.1,2.9,0.2,8.9-0.9,12.3c-6.8,20.1-12.8,31.8-26.8,55.8c-13.2,22.8-17.8,43.5-12.7,57.3c0.8,1.7,1.4,4.3,1.2,6.5
			c-0.7,6.9-6.4,15-14.2,20.7c-5.4,1-16.5,1.8-22.9,8.3c-5.5,5.6-9.9,13.7-8.9,28.3c0.4,5.2,1.1,8.6,1.1,8.6
			c-72.6,31.6-124.4,68.1-122.7,69.4c-0.7-0.3-65.2-28.5-91.8-35.3L-21618.3,2166.6z M-20967.1,2155.8l168-2.8l7.9,480.7l-64.1-40.8
			c5.2-3.8,8.5-6,14-9.9c1-0.3,2.9-0.4,4.1-0.7c11.2-2.7,18.9-11.2,14.8-19.9c-2.7-5.9,0.9-5.6,4.1-10.4c3.6-5.5,2.7-10.3,0.3-14.8
			c-1.2-2.2-0.6-3.2,1.3-7.4c5-6.5,1.1-17.2-5.6-20.6c-0.7-1,0.7-2.6,1-4.1c1.7-8.7-1.8-16.2-9.3-18c-3.9-0.9-5.2-1.6-3.9-5
			c2.3-6.1-0.9-8.4-5.9-10.3c-8.5-3.2-6.1-3.8,4.2-8.6c21.2-9.9,25.7-38.5,10.6-64.1c-1.9-3.3-7-10.9-10.5-16c-4-6-8-11.1-8-11.1
			l27.6-39.8c0,0-20-22.9-27.2-35.7c1.5-6.4,20.9-26.7,23.1-46.1c3.5-30.4-19.9-49.5-41.7-46.8c-15.1,1.8-33.6,11.8-31.7,39.9
			c0.6,8.7,4.1,17.7,10.5,28.5c4.5,8.1,10.2,16.7,15.7,24.9l-27.8,39.3l29.3,35.9c0,0-0.4,0.6-1,1.6c-2.8,4.6-10.9,18.1-14.3,26
			c-10.2,21.1-13.6,44.1,8.4,60c3.8,2.3,6.8,4.2,8.4,5.8c2.2,2.1,0.9,3.7-2.6,4.6c-4,0.9-8.1,0.9-12.4,2.7
			c-13.5,5.2-27.1,13.4-36.7,21.5c-5.4,4.5-13.9,18.6-19.1,30c-5.6,12.4-7.2,15.2-7.2,15.2l-100.9-62.2c0,0-2.6-2-3.3-2.7
			c-1.9-2.1-1.2-3.3,0-5.6c1.1-2,1-7.7,0.5-12.1c-0.3-8.4-0.2-8.4,4.5-16.2c1.7-2.7,2.3-5.5,1.3-9.6c-1.6-4.7-1.8-3.2,1.2-6.4
			c1.1-1.5,2.5-2.2,2.7-3.7c0.3-2.1,0-5.7-0.1-12.5c-0.2-13.6-0.3-12.5,7.2-18.6c9.4-7.6,12.8-11.1,14.3-14.5
			c2.1-4.8-0.1-8.4-5.6-18c-2.5-4.3-6.4-10.2-8.2-13.5c-3.5-5.9-8.6-13.6-11-21.1c-3.6-5.7-3.3-15.7-0.1-21.6
			c4-7.4,5.1-11.9,4.7-26.7c-0.4-13.8-1.3-12.5,2.1-17.1C-21007.7,2221.9-20967.1,2155.8-20967.1,2155.8z M-20859.4,2205.7
			c0.6,0,1.1,0,1.7,0c8.3,0.3,16.5,2.8,24.2,10c10.5,10.2,10.1,25.2,6.9,40.8c-1.5,4.5-2.6,9.2-5.7,13.9c-1.7,2.7-3.1,5.1-3.1,5.5
			c0,0.3-2.5,4.5-5.5,9.2c-3,4.7-6.4,11.1-6.4,11.1s5,8.7,13.8,19.5c6.7,9.6,11.1,18,11.5,17.5c0,0-1.6,4.2-3.8,7.2
			c-6.7,9.1-19,28.1-19.5,30.1c-0.1,0.5-1.4,1-1.4,1.4c0.1,1.7,2.7,3.8,6.5,8.9c23.3,30.9,27,57.3,10.1,73.1
			c-8.4,7.9-16.8,10.4-25.8,9.6c-16.6-1.5-32-15.4-30.6-35.9c0.6-9.5,0.1-12.3,5.5-23.3c2.4-6.2,7.9-16.9,11.6-22.3
			c3.2-3.9,6.7-9.4,6.7-9.4s-8.3-12.4-23.5-29.7c-2.7-3.2-4.5-7.5-4.5-7.5l24.9-38.3c0,0-3.1-7.3-8.2-14.6
			c-10.5-15.1-17.3-31.2-17.4-40.3C-20891.5,2219.5-20876.8,2206-20859.4,2205.7z M-20786.9,2745.3c-15,8.3-29.2,35.9-0.8,16.3
			l1,15.7c-14.6,21.4-44,6.4-37-15.7c-20.1,2.9-23.6-17.5-22.7-27.2c-26.6-5.3-17.9-33.6-17.9-33.6c-15.5-12.6-18.4-25.9-6.3-40.3
			c-12.7-7.6-16.3-12.5-30.2-18c12.1,93.8,63.7,141.8,117.8,184.5c-1.4,0-1.1,30.3-4.5,24.8c-77.2-55.7-127.3-120.1-137.5-225.3
			c-0.6,1.7-36.6-26.9-42.5-25.2c-9.5,170.8,128.2,280.8,185.1,301.9c0,0,1.2,23.8,0.2,23.9c-86.2-35.9-183.3-144-203.8-274.1
			l-49.2,79.1l-19.1-7.8l79.6-130.1l-55.8-33.7l-87.6,144c0,0-2.2,11.9,4.3,11.6c126.5,11.4,316.7,160,257.9,407.9
			c-5.5-2.1-14.2-6.1-14.7-6c9.5-21.4,34.8-159.7-49.9-269.7c-38.8-50.4-98.5-103.7-193.2-118.1c8.1,16,5.3,52.5,5.3,52.5l22.1,4.1
			c-7.6-7.7-13.9-14.1-17-22.5c-4.3-13.2,1.6-21.1,16.4-13.5c5.9,3.2,7.3,3,13-1.3c11.7-9,25.3-0.2,22.4,14.5
			c-0.4,2.2,0.2,3.5,5.8,3.9c12.7,1.1,25.7,7.1,34.1,16.9c4.2,5.1,5.1,4.4,8.6,1.2c8.7-7.9,23.6,2.6,21.2,14.6
			c-1.4,6.8-0.5,8.5,2.6,9.7c17.5,7,21.8,11.5,27.4,26.6c2.1,5.5,3.7,7.3,4.7,7c0.7-0.2,3.5-1.2,6-2.2c12.9-5.1,20.7,10.4,11.7,22.8
			c-1.8,2.5-0.4,4.9,3,6.7c10.9,5.7,18.4,19.6,19.9,34.3c0.6,5.6,1.2,5.6,6.8,5.3c14.3-0.8,21.5,18.4,9.9,25.7c-4,2.5-3.2,5.7,0,9.4
			c8.5,9.8,10.6,16.9,10,28.2c-0.7,15.1,0.2,14.7,5,16.5c14,5.1,11.8,27.4-1.9,27.5c10.2,22.8-2.3,50.9-1.8,51.4
			c26.5,14.3,3,30.4-4.6,27.8c0,0-3.7,10.4,0.8,15.6c-22.5,30.8-52.6,36.4-85.7,52.1l-2.8-107.2c14.1,10.9,28,21.1,41.9,31.3
			c0,0,3.5-1.1,0.2-4c-6.2-5.6-21.8-15.2-26.1-19.1c-9.4-6.9-44-38.9-50.2-46.5c-2.8-5.1-6.8-2.1-6.7-1.7c4.2,7,7.4,15.1,12.8,22.3
			c11.6,15.6,23,33,22.1,50.3c0.1,9.7-3.6,19.8-5.6,24.7c-1.5,6.7-12.2-0.9-9.7-6.6c4.5-15.5,8.2-28.1-9.1-52.6
			c-8.4-11.9-19.5-33.6-19.5-33.6l-6.8,1.8l2.6,139.9c-5.7,0.3-20.2,4.3-17.2,4.4c45.1-9.8,60,54.7,16.4,57.5
			c-8.3,0.4-16.6,14.9-17.4,22.6c0.7,18.8,3.8,38.6-9.7,56.8c-3.5,4.8-5.1,12.4-8.3,18.3c-16.3,30-23.5,47.2-21.7,54.8
			c0.5,2,0.9,4.6,0.9,4.6c-53.3,14.2-93.3,18.3-147.2,20.5c-0.5-0.8,17.2-53.5,30.3-80.6c9.7-20,14.7-33.7,11.8-37.7
			c-42.7,2.8-35.5-59.9,5.4-58.4c0,0,9.7-36.3,20.9-52.7c10.8-6.2,32.8,1.6,44.9-6.7c28.7-9.3,48.2,24.5,48.2,24.5l7.2-32.6
			l-255.4,3c0,0-24.7,10.7-38.2,5.4c-8.7-3.4-21.1-12.6-21.1-12.6c0,0,95.9-159.5,109.9-182.4c1.1-1.9-2.6-5.7-2.6-5.8
			c-0.6-5.1-113.9,184.4-113.9,184.4c-66.4-41-149.9-92.9-223.8-138.4l-1.4-70.3c52.6-34.4,47.6-48-1-10.7
			c-0.7,0.6-1.5-26.4-1.5-26.4c36.9-34.1,5.9-23.1-1.3-11.4c0-8.4-2.1-19.7,3.2-24.8c16.1-15.4,35.7-1.8,37,20.5
			c21.4,3.8,19.1,22.7,24.7,30.1c22,11.9,10.8,30.8,16.3,37.1c23.2,14.1,7.6,37.6,2.7,37.2c2.9,1.9,31.8,20.6,34.2,19.8
			c-4.1-100.2-105.7-179.5-119.1-189.1l2-21.7c0,0,139.4,86,140.6,227.6l44.4,25.4c-6.3-145.2-73.7-242.7-185.7-303.3l-1.9-26.9
			c93.9,41.8,181.7,128.1,204.2,271.6l50.2-80.9l18.3,8.5l-80.6,134.2l52.3,33.1c39.2-53.5,71.6-118.8,91.5-149.9
			c-0.6-2.8-1.8-6.8-1.8-6.8c-197.7-29.3-311.8-212.2-262-406.1l13.8,5.8c-38.7,143.6,31.7,348.3,246.8,386.9
			c-0.7-15.2-4-52.5-4-52.5s-28.3-8-24.1-4.7c7,5.8,22.9,31,16.5,40.1c-4.7,0.7-12.6-1.8-21.4-7.9c-3.3-2.3-3.4-1.8-7,2.1
			c-10,11-24.8,5-25.2-9.8c-0.2-6.3-0.4-7.6-9.3-7.5c-13.5,0.1-19.6-2.1-27.9-12.8c-5.9-7.6-5.3-7.6-12.1-5.2
			c-12.8,6.4-23.4-6.4-19.5-17.1c1.9-5-0.2-6.6-6.2-7.5c-11.5-1.7-24.7-15.9-27.3-27.6c-0.5-2.4-1.7-3-8.5-2.6
			c-13.3,0.7-20.7-7.2-15.7-18.6c2.7-6.1,3.5-8.6-1.9-12.6c-6.6-4.9-10.3-8.4-13.3-14.5c-2.4-4.8-2.8-7.9-4.5-18.3
			c-0.6-3.6-1.8-4.2-6.5-4.7c-13.7-1.6-19.4-15.5-9.5-24.8c3-2.8,3-2.8-1.7-8.7c-9.2-11.5-12.8-26.6-9-36.7c1-2.8-0.1-6.1-3.3-6.8
			c-12.6-2.9-13-16.8-1.2-24.8c3.4-2.3,3.6-3.8,0.9-8.3c-4.7-7.9-4.9-28.9-0.6-38.9c2.8-6.5,2.7-6.7-1.8-9.4
			c-9.6-5.9-7.2-22.7,4-25.6c5.4-1.4,5.8-2.1,4.2-8.7c-2.8-11.8-3.3-14.8,3.6-19.6c19-12.8,67.7-37.4,67.7-37.4l16.1-8
			c0,0,3.3,99.1,2.4,110.8c-0.5,5.1,4,8,9.4,13.2c11.1,10.5,17.3,23.4,32,32.2c0,0,9-5.2,14.5-8.9l-1.8-141.2
			c1.1-3.2,1.9-3.6,5.6-4.1c3.1-0.6,10.8-1.6,13.4-2.4c6.2-1.9,7.2-4.5-1-3.5c-2.5,0.3-6.2,1.4-10.3,2.3
			c-25.6,8.1-45.3-31.6-26-52.1c3.7-3.4,17.6-9.5,24-10c1.8,0,7.2-6.9,10.9-13.2c3.7-6.3,5.1-11,2.9-17.3
			c-4.8-13.1-0.8-33.5,12.4-55.9c14.3-21.1,25.3-44.7,30.8-69.6c51.9-7.1,95.8-20.8,142.9-18.7c2.1,15.9-49.6,110.4-38.4,115.8
			c42.1,9.3,28.6,59.3-3.3,58.1c-4.8,0.1-5.2,0.5-8.1,11.1c-5.5,15.5-9.1,27.3-15,41.8c0,3.7-20.8,3-38.2,3.2
			c-7.4,5.9-39.2,22.1-57.4-17.6l-0.1,34.2c0,0,239.8-7.8,282.6-3.1c0.7-10.7,23.9,7.9,23.9,7.9l-114,186.1l5.6,5.3
			c16.6-20.8,115.7-186.8,115.7-186.8l222.8,138.6c-1.5,21.2,1.4,68.6,1.4,68.6c-60,33.1-41.2,49.2-0.2,9.6L-20786.9,2745.3z
			 M-21160.4,2247.6c0,0,62.4-0.5,93.8,4c27.5,3.9,26.1,3.2,26.3,23.1c0.2,14.1,0.1,13.8-3.4,20.7c-6.5,12.6-5.1,24.9,5.7,42
			c10.5,16.6,18.3,28.8,18.3,31.2c0.1,3.7-0.5,8.2-9.3,14.6c-10.4,7.5-12.3,12.7-12,20.1c0.2,6-0.9,8-4.5,8.1
			c-1.4,0-6.5,2.5-11.9,5.1c-9.6,4.7-9.6,4.7-18.6,4.8c-4.5,0-6.7-1.6-8-1.1c-2.4,1.2-4.5,9.3-4.4,11.7c0.3,0.8,1.6,0.3,4.2-0.6
			c14.8-5.4,37.1-3.4,37.7-1.2c3.1,2.7,3.1,6.9-1.3,11.3c-2.9,4.7-4.2,7.1-2.8,14.2c1.8,9.7,0.6,13.6-4.3,17
			c-15,10.5-35.2,12.1-67.7,6.4c-34.2-6-57.8-18.6-77.6-41.6c-8.8-10.3-11-13.9-6.8-14.7c5.3-0.9,11.1-2.1,16.5-4.5
			c23.8-10.7,22.7-54.6-9.7-58.7C-21213.3,2359.2-21173.9,2296.4-21160.4,2247.6z M-21129.1,2277.4c-11.5,6.7-17.4,14.7-17.4,19
			c0,1.8,0.4,1.4,5.9-2.3c15.9-10.8,58-26.8,73.3-18.2c11,6.4,15.2,4.2,8.7-4.5C-21073.7,2250.9-21113.4,2268.5-21129.1,2277.4z
			 M-21087.6,2283.6c-1.7,0-3.5,0.3-5.3,0.7c-11.1,2.7-23.3,12.1-33.3,20.4c-5,4.1-11.9,12.1-13,14.2c-2.4,4.7,3.2,9.8,10.7,5.5
			c4.4-2.5,4.8-1.9,9-1.4c9.8,2.8,21,7.2,38.2,5.4c1.6,0.3,1.5,0.7,1,2.2c-1,2.8-7,8.1-14.8,14.1c-4.1,3.1-7.6,5.7-7.9,6.1
			c-1.2,2,4.3,2.1,10.2-1.4c8.4-5,18.1-15.8,23.9-24.5c0.6-0.8,1.3-1.5,1.6-2.4c0.6-2-3-1.1-5-1.6c-0.8-0.2-0.7-2.3-0.9-3.3
			c-0.6-2.5,0.3-6.7,0.7-10.3c0.3-2.9,3.4-5.3,5.4-7.4c8.8-9.5,8.1-13.7-3.9-6.3c-2,1.2-3.6,2-5.6,2.2c-17.8,0.9-28.2,0.3-42.8,13.1
			c-6.5,5.4-10.5,6-4.7,0.3c8.9-7.4,19.9-17.9,32.3-20.9c7.5-2,14.7,3.6,18,2.1C-21073.8,2286.3-21080.2,2283.4-21087.6,2283.6
			L-21087.6,2283.6z M-21089.7,2309.5c2.1,1.3,4.2,8.3,4,10.6c-0.2,2.7-4.9,1.7-5.6,0.4l-2.7-7.7
			C-21095.1,2310.2-21091.8,2308.6-21089.7,2309.5z M-21098.8,2311.2c2.2,2.1,2.8,6.8,4.1,10.6c-0.7,2.8-18.4-0.7-20.6-3.7
			C-21112.7,2314.6-21103.8,2310.4-21098.8,2311.2L-21098.8,2311.2z M-21067.2,2360.7c-1.3-0.1-3.1,0.6-4.6,2.3
			c-7.8,8.2-5,22,4.6,26.3c4.7,2.1,11.7,0.4,21.9-3c4.9-1.6,8.4-2.3,9.4-2.4c4,0,6.1-6.3,3.2-9.2c-3.3-3.3-11.1-2.6-19.3,3.9
			c-4.2,3.3-7.2,5-10.6,5c-8.3,0-12.5-8.5-4.2-17.7C-21063.9,2363-21065,2360.9-21067.2,2360.7L-21067.2,2360.7z M-21124.7,2421
			c10,7.8,28.6,3.3,41-5.2c11.1-7.6,15.7-9.9,24.8-8.5c11.1,1.7,10.6-2.6,5.7-8c-5.5-6.1-18.9-4-30,3.6
			c-24.6,16.9-33.5,19.8-40.9,11c-7.9-9.4,1.1-21.9,10.3-15.3c7.6,5,7.4,1.1,4.2-2.3C-21127.7,2381.5-21140.3,2408.9-21124.7,2421
			L-21124.7,2421z M-21211.9,2430.3c12.8,15.7,25,28.6,43.2,38l0.2,3l-58.3,0.8C-21222.8,2465-21211.8,2430.8-21211.9,2430.3z
			 M-21408.6,2475c-0.8,24,3.7,38,18,54.5c15.2,17.6,14.6,45.3,5.2,62.6c-4.1,7.7-12.9-1.5-8.9-6.4c5.7-7.4,5.7-25.2,2.8-36.2
			c-6.4-18.3-20.5-27-26.5-46.3c-2-8.3-1.7-23.2-1.7-23.2L-21408.6,2475z M-21390.3,2476.7c1-0.2,2.7,0.9,5.1,2.9
			c8.4,7,7.3,27.5-1.9,40.7c-2.8,4-5.2,2.9-8.1-0.7c-3.8-3.6-2.5-4,0.5-10.5c3.2-6.8,4.1-14.4,3.3-23.3
			C-21392,2479.8-21391.8,2477-21390.3,2476.7z M-20855.5,2474.9c7.3-0.2,16.4,1.2,17.3,3.8c0.8,3.2-0.8,5.8-4.9,7.6
			c-10.6,4.7-24.8-1.4-21.3-9.1C-20863.6,2475.7-20859.9,2475-20855.5,2474.9z M-20873.9,2476.9c2.1-0.1,3.7,0.4,5,1
			c3.5,1.7-1.8,14.1,15.6,13.6c4.2,0.5,7.2-0.5,6.7,1.4c-0.8,2.8-8.2,7.2-16.3,8.5c-24.1,4-23.1,2.8-21.7,19.8
			c0.9,11.2,0.2,14.9-1.2,21.7c-2.4,11.8-3.3,23.1-1.6,19.4c2.3-5,8-20.9,7.9-29.8c-0.3-13.2,4.4-15.9,6.4-6.4
			c0.9,6.3-1.9,9.9,2.5,16.3c2.5,3.6,3.6,3.5,2.1,9.2c-1.3,5-0.3,6.4,1.4,8.9c1.8,2.5,3.6,3.1,2.1,6.6c-3.1,7.7,2.1,14.9,9.3,15.4
			c3.4,0.2,4.3,1.7,3.3,3c-1.7,2.2-5.3,3.3-8.2,4l-77.7-47.8c0,0,5.5-11.5,7.2-14.6c10.6-24.4,19.2-35.6,51.3-48.8
			C-20877.4,2477.4-20875.5,2477-20873.9,2476.9z M-20832.8,2492.1c2.1-0.1,3.7,1,5.5,3.2c4.8,6,0.8,13.6-10.7,20.4
			c-9.8,5.8-12.7,6.5-15-2.3c-0.5-1.6-1.9-3.5-2.7-4.3c-2.3-2.1-1.8-3.8,1.1-5.4c1.4-0.8,5.8-2.7,9.3-5.1
			C-20839.1,2494.4-20835.5,2492.3-20832.8,2492.1z M-20865.2,2510.3c2.4,0,4.9,0.5,6.8,1.7c3.1,1.9,3.2,7,0.1,9
			c-6.1,2.6-15.9-0.6-15.2-6.3C-20873.1,2511.9-20869.3,2510.3-20865.2,2510.3z M-20825.6,2515.8c2.2-0.1,3.9,0.9,5.2,3
			c3.7,5.5-0.4,11.2-12.5,17.4c-8,4.1-18.2,5.9-17.5,3.6c0.5-1.9-2.5-11-3.8-12.4c-0.5-1.5,0.1-0.2,10.2-3.5c3.7-1.2,8-3.2,10.1-4.5
			C-20830.5,2517.1-20827.8,2515.9-20825.6,2515.8z M-21402,2539.9c-5.4,13.6-6.2,19.7-3.3,33.9c2.4,11.8,5.1,17.7,17.6,35.1
			c9.5,13.2,12.5,18.3,10.4,22.6c-1.5,2.3-5,4.5-7.3,2.3c-4.6-5.8-7.5-13-12-19.5c-17.4-24.7-18.7-31-21.2-50.7
			c-1.1-9,3.7-28.2,8.1-31.2C-21404.8,2530.3-21400.5,2536.7-21402,2539.9z M-21008.9,2527.1c-4.6,3.5-7.4,10.5-9.7,15.6
			c0.6,3.6,3.4,1.2,10.9-10.2C-21005.9,2529.8-21007.2,2526.9-21008.9,2527.1z M-20862.4,2530.8c6.8,0.1,9.3,6.2,6.3,9.4
			c-4.4,4.7-12.4,1.3-12.5-5.2C-20868.6,2532.3-20867.4,2530.8-20862.4,2530.8z M-20824.5,2538.9c3.9,0.1,4.5,4,2.5,9.6
			c-2.5,5.3-5.6,6.2-14.9,9.3c-11.2,3.7-13,3.2-14.8-7.1c-0.7-3.9-0.4-3.1,9.9-6c4.4-1.3,9.6-3.4,12.3-4.6
			C-20827.5,2539.2-20825.8,2538.8-20824.5,2538.9z M-21486.4,2554.4l3.1,20.8l4.2-15.7L-21486.4,2554.4z M-20860.7,2551.1
			c5.5-0.1,8.6,4.8,5.8,7.8c-1.5,1.7-5.5,1.8-7.4,0.8C-20866.8,2556.7-20866.1,2551.2-20860.7,2551.1z M-21029,2564.8l10.9,6.4
			l-85,139.3l-10.5-0.1l-1-2.2L-21029,2564.8z M-20830.9,2562.8c6.4-0.2,7.1,5.9-0.6,11.6c-3.2,2.1-6.7,2.7-9.5,2.8
			c-3.9,0.2-6.5-0.7-6.9-3.4c-1.8-6.6-2.8-8.2,3.2-7.9c1.2,0.1,4.5-0.2,7.1-1.3C-20834.9,2563.4-20832.7,2562.9-20830.9,2562.8z
			 M-20857.5,2569.3c4.5,0,7.4,4.7,4.4,7.2c-3.6,3-8.3,1.3-8.3-3.2C-20861.4,2570.4-20860.6,2569.3-20857.5,2569.3z
			 M-21485.6,2589.4l-23.4,21.4c8.9,10.2,16.4,20.3,24.1,31L-21485.6,2589.4z M-21005.2,2582.8c10.3-0.6,13.8,4.3,8.9,7.8
			c-6.6,4.6-12.3,4.4-19.8,3.5c-10-1.7-2.2-9.8,8.7-11.1C-21006.6,2582.9-21005.9,2582.9-21005.2,2582.8z M-21015.9,2598
			c2.1-0.1,5.2,0.4,9.2,1.7c6.8,2.2,15.3,9.1,15,13c-0.5,6.4-12.5,3.3-22.3-5.7C-21020.2,2601.5-21020.5,2598.2-21015.9,2598z
			 M-21025,2598.3c5.9,0.5,12,20.1,7.6,26.3c-4.3,6-12.4-6.7-11.1-16.8c0.5-4,1.4-9.3,3-9.5
			C-21025.4,2598.3-21025.2,2598.2-21025,2598.3z M-21406.7,2608.9c3.3,0.7,7.6,5.2,6.7,8.7c-0.6,1.4-2,1-3.5,0.7
			c-2.7-1.1-4.9-4.8-4.4-8C-21407.7,2609.5-21407.4,2609-21406.7,2608.9z M-20963.7,2605l17.4,11.4l-17.2,1L-20963.7,2605z
			 M-21034.4,2629.7c13.2-0.1,16,4.1,6.3,9.4c-4.1,2.2-14,2.8-19.2,1.1C-21055.6,2637.6-21045.9,2629.9-21034.4,2629.7z
			 M-20927.7,2636.9l1.1,11.9l-33,3.4l-1.9-12.4L-20927.7,2636.9z M-21041.9,2644.7c2.3-0.2,6,0.8,10.8,3.2
			c9.1,4.5,14.3,12.2,9.7,14.7c-4.2,2.3-11.7-0.2-17.1-5.7C-21045.7,2649.6-21046.3,2645-21041.9,2644.7z M-21053.2,2644.9
			c6,0.3,11.5,16.6,7.7,24.9c-2.1,4.5-4.9,3.6-8.9-3.7c-3.9-7-4.3-19.5,0-21C-21054,2644.9-21053.6,2644.9-21053.2,2644.9z
			 M-21483.2,2656.7l-14,29.3l26.6,22.4L-21483.2,2656.7z M-20923.1,2669.8l2.5,11.5l-31.6,8.3l-3.3-12.5L-20923.1,2669.8z
			 M-21061.7,2674.3c3.9,0,7.5,0.9,9.6,2.7c2.9,2.5,2.3,3.7-4.5,6.5c-12.1,5.2-27.1,2.4-18.6-5.1
			C-21072,2675.8-21066.7,2674.3-21061.7,2674.3z M-20855.5,2670.3c-12,8.3-0.2,12.6,8.3,6.3
			C-20847.8,2674.5-20852.9,2670.3-20855.5,2670.3z M-21070.3,2690.1c8.7,0.1,25.9,11.8,22.3,17.5c-1.9,3.2-13.3,0.7-17.9-3.6
			c-6-5.6-9.3-13.2-6-13.8C-21071.4,2690.1-21070.9,2690.1-21070.3,2690.1z M-21081.2,2690.8c4.5-0.9,12,19.8,6.6,25.3
			c-2,2-2.6,1.9-6-1c-6.9-5.9-5.9-17-1.9-23.2C-21082.2,2691.3-21081.7,2690.9-21081.2,2690.8z M-20814.6,2697.4
			c-1.2-2.2-2.7-3.2-4.3-4.4C-20860.8,2710-20849.8,2725.2-20814.6,2697.4z M-20914.4,2700.5l4.4,11.6l-31.8,13.2l-4.9-12.7
			L-20914.4,2700.5z M-21460.9,2731.6l-10.4,28.7c11.8-0.1,22.5,5.3,33.3,10L-21460.9,2731.6z M-20903.3,2730.8l7,11.3l-29.8,16.8
			l-6.2-12L-20903.3,2730.8z M-21601.6,2764.6l12.5,8.5l-17.7,22.8l-1.7-3.1l-0.1-18.7L-21601.6,2764.6z M-20886.4,2759.9l7.4,10.4
			l-28.6,20.6l-7.3-11.3L-20886.4,2759.9z M-21570.2,2784.7l13.5,10l-20.6,25.7l-12.9-9.5L-21570.2,2784.7z M-21423.7,2788.5
			l-0.1,30.5l31.3,0.7L-21423.7,2788.5z M-21061.8,2796.3l35.9,19.9l-5.9-31.2C-21041,2787-21052.8,2793.2-21061.8,2796.3z
			 M-20866.5,2786.7l8.5,10.2l-26.4,22.9l-8.8-10.6L-20866.5,2786.7z M-21542.6,2806.9l12.6,11.3l-21.5,24l-11.7-10.6
			L-21542.6,2806.9z M-20843.2,2812.1l9.8,9.6l-24,25.7l-9.8-9.6L-20843.2,2812.1z M-21514,2835.6l9.8,11l-24.6,20.2l-9.4-11.1
			L-21514,2835.6z M-21370.2,2835.8l7.5,29.8c-0.5-2.2,30.9-9.4,35.1-7.2L-21370.2,2835.8z M-21002.7,2832.3l30.3,31l2.8-30.4
			L-21002.7,2832.3z M-20818.3,2834.2l10.9,8.2l-19.5,28.8l-12.4-9.4L-20818.3,2834.2z M-21492,2864.3l9.1,12.7l-25.9,16l-7.6-11.2
			L-21492,2864.3z M-20789.8,2855.8l1.7,1.6l0.3,20.3l-8.1,12.3l-11.4-6.5L-20789.8,2855.8z M-20957.9,2881.4l27.1,47.5l6.8-35.9
			C-20933.7,2893-20949.2,2887-20957.9,2881.4L-20957.9,2881.4z M-21470.7,2896.3l6.5,13.7l-27.4,13.1l-6.5-13.6L-21470.7,2896.3z
			 M-21455.2,2929l5.3,13.8l-29.2,10.2l-4.9-13.3L-21455.2,2929z M-21586.1,2956.3l9.3,6.3
			C-21529.6,2936.7-21544.6,2929.6-21586.1,2956.3z M-21317,2935.9c1.8-0.2,3.9,2.2,5.7,7.7c2.7,8.3,1.5,18.6-4.1,18.5
			c-3.8-0.4-5.4-10.1-5.4-12.9C-21321.1,2940.9-21319.3,2936.2-21317,2935.9L-21317,2935.9z M-21290.8,2940.5l11.4,1l0,3.2l-88,145
			l-11.1-6.8L-21290.8,2940.5z M-21339.4,2944.6c3.6,0,8.9,2.4,13.7,7.2c2.8,2.9,5.8,7.1,6.6,11.4c-0.1,1.4-2.5,0.9-4.8,0.6
			c-6-0.7-14.9-4.8-17.8-9.8C-21345.4,2947.8-21343.5,2944.6-21339.4,2944.6L-21339.4,2944.6z M-20923.8,2942.8l13,58.6
			c3.5-14.8,11.2-23.4,16.9-35C-20909.4,2959.6-20915.8,2951.3-20923.8,2942.8z M-21442.9,2963.3l3.1,15.2l-30.3,7.6l-3.4-14.7
			L-21442.9,2963.3z M-21329.3,2966.7c0.4,0,0.9,0,1.3,0c11.2,1.1,12.8,3.5,5.4,8.7c-4.5,3.1-16.8,3.8-18.8,0.5
			C-21343.7,2972.5-21335.8,2966.9-21329.3,2966.7L-21329.3,2966.7z M-21550.1,2979.3l9.5,5.4
			C-21524.5,2972.7-21542.3,2970.6-21550.1,2979.3z M-21345.1,2981c3.4,0,5.6,6,6.8,11.6c1.2,5.4,1.7,10.3-0.3,13
			c-2.5,3.4-5,4-7.1,0.7C-21351.7,2996.8-21351.8,2981.1-21345.1,2981z M-21370,2990.3c1.6-0.1,3.6,0.3,5.9,1.1
			c7.9,2.9,18.6,14.8,14.2,16.5c-6.5,2.6-20.9-4.4-23.7-11.6C-21375,2992.7-21373.5,2990.4-21370,2990.3L-21370,2990.3z
			 M-21435,3001.1l1,15l-32,1.8l-1.2-14.9L-21435,3001.1z M-21356.4,3012.4c3.2-0.1,6.3,0.2,8.9,1.3c4.6,1.9,1.3,5.5-6.5,8.4
			c-5.2,1.9-12.6,2.5-15.2,0.5C-21375.3,3017.9-21365.8,3012.9-21356.4,3012.4z M-21604.2,3018.3c22.2,13,68.1,41.9,68.1,41.9
			c-2.1,0.5-4.4,2.2-6.5,3.9c-1.6,1.4-3.4,2.6-4.9,3.3c-2.4,1-4.6,1.2-6.7,1.7c-14.1,3.3-20.9,11.4-16.3,21.3
			c1.8,3.9,2.2,3.2-0.7,6.6c-8.3,8.2-7.2,10.6-4.1,20.8c0.1,1.5-9.8,14-0.7,23.2c5,4.2,5.2,1.5,3.6,11.3c-0.5,5.9,1.2,10.7,9.7,12.2
			c4.8,2.1,4.7,1.3,3.1,5.4c-1.1,5.8,0.6,8.2,4.7,10.2c3.7,2.2,5.2,2.8,2.7,4.9c-28.2,15-36.6,40.5-9.1,77.5
			c3.2,4.4,11.4,16.6,11.4,16.6c-8.8,13.6-17.3,24.8-26.3,36.9l27.5,37.1c-4.2,6.9-14.2,20.9-20.2,34.7c-9,20.7-2.4,49.4,24.8,57.6
			c11.6,3.5,26.9,0.3,36.3-11.1c7.7-9.2,11.6-27.3,4.2-46c-9.4-20.9-20.4-31.1-24-37l28.2-36.6c0,0-20.3-28.2-28.4-38.4
			c52.8-66.9,8.5-84.6-0.1-90.2c-1.3-0.9-1.1-5.1-1.1-5.1c48.3-6.4,64.5-33.2,78.2-67.2c29.2,18.1,71,42.5,100.3,61.6
			c2.8,2.5,4.7,4.1,4.3,5.6c-0.3,1.2-1.4,6.5-1.3,12c1.5,8.7,0.9,12.7-2.6,16.1c-3.3,3.2-2.6,4.6-2,8c1,5.9,1.9,6.5-0.7,9.5
			c-3.2,3.7-4.3,5.5-3.5,14.4c0.4,5.3,1.2,9.3-0.1,12.4c-1.7,4.1-6.6,6.2-13,11.4c-11.2,9.1-9.6,11.8,6.6,43.9
			c13.8,27.3,15.4,33.6,10.5,43.5c-4.1,8.2-5.6,14.5-4.9,26.3c0.2,3,0.5,6.2,0.5,7.8c0,3.8,0.1,3.4-2.1,5.8
			c-1.7,1.9-4.5,5.6-6.2,8.3c-18.2,28.2-66,100.8-66,100.8l-165.2,2.7L-21604.2,3018.3z M-21372.7,3027.5c1.9-0.2,4.3,3.2,7.1,10.2
			c1.6,4,1.5,11-0.9,13.7c-4.8,5.4-11.8-7-9.8-17C-21375.4,3029.9-21374.2,3027.6-21372.7,3027.5z M-20909.5,3012.3
			c0.4,25.5,0.4,58.5-7.9,83l10,4.3c-3.6-25,0-45.5,22.8-56.7C-20895.2,3035.9-20903.3,3024.1-20909.5,3012.3L-20909.5,3012.3z
			 M-21397.3,3036.4c0.8,0,1.7,0.1,2.7,0.5c3.7,1,8.3,3.1,11.1,5.8c4.8,4.7,9.8,10.4,8.5,11c-7.7,3.5-27.7-6.6-25.2-14.8
			C-21399.6,3037.1-21398.6,3036.4-21397.3,3036.4z M-21431.9,3038l0.4,12.5l-19.4-11.9L-21431.9,3038z M-20994.5,3036.8
			c3.1,0.2,8,4.2,7.3,7c-1.3,3.1-2.9,2.8-5.1-0.4C-20995.1,3039.5-20996.2,3037-20994.5,3036.8z M-21382.2,3058.6
			c4.6-0.2,8.7,0.8,9.2,3.2c0,2.3-3.5,5.3-7.8,6.7c-10.8,3.5-19,1.5-16.1-3.9C-21395.2,3061.1-21388.2,3058.9-21382.2,3058.6z
			 M-21002.9,3066.5c-4.5,8.3-4.6,34.7,3.7,45.3c12.8,13.7,24.8,31.7,23.8,55.8l-12,5.6c0.3-19.9-0.7-32.8-16.4-49.6
			c-18.8-19.8-15-54.6-8.8-64.9C-21007.3,3048.6-20999.2,3062.7-21002.9,3066.5z M-21534.2,3064.3c3.9-0.3,8.7,1.9,17.3,7.4
			c22.2,15.2,34.2,21,56.2,36c3.2,2.9,3.1,2.5,2.6,4.9c-7.8,32-31.5,57.6-67.2,62.8c-4.1,0.6-2-2-4.6-7c-2.7-5.1-7.4-7.3-12.7-7.2
			c-14.8,0.1-2.3-8.4,15.7-11.1c5.9-1,13.1-1.9,16.9-5.6c0.8,0.4-3.5-24.8,0.4-33.8c1.9-8-0.1-11.9-2.2-6.9
			c-1.4,3.1-3.2,11.3-4.1,19.6c-0.8,7-2.2,8-3.9,4.6c-0.8-1.5-0.8-5.2,0.3-8.2c1.2-6.6-7.2-11.5-5.6-17.6c2.2-5.1-0.3-10.6-3.1-12.5
			c-1.6-3.3-1.4-5.6-1.3-7.9c0.4-5.4-3.3-10.5-9-12.6c-2.5-1.2-1.8-2.6,0.8-3.9C-21536.6,3064.8-21535.5,3064.4-21534.2,3064.3
			L-21534.2,3064.3z M-21552,3073.7c1.4,0,2.8,0.1,4.2,0.4c2.9,1.7,5.4,11.7,2.2,12.2c-1.2,0.2-4.9,0.7-7.8,1.6
			c-9.8,3-14.4,2.7-14.3-2.9C-21567.6,3079.2-21559.6,3073.9-21552,3073.7z M-21538.9,3074.5c3.9,0,7.1,4.4,4.7,6.9
			c-2.5,2.5-7.3,0.8-7.4-2.8C-21541.6,3076.6-21540.8,3074.5-21538.9,3074.5L-21538.9,3074.5z M-21536,3090.1
			c1.1-0.1,2.3,0.2,3.7,0.7c3.6,1.6,5.8,7.7,3.5,10c-1.7,1.7-6.7,1.2-9.4-1C-21543,3095.9-21540.8,3090.4-21536,3090.1z
			 M-21548.2,3091.2c2.2,0,3.8,0.7,4.3,2.2c0.4,1.3-0.2,2.5,0.4,4.4c1,2.9,2.9,5.2,1.3,6.4c-7.5-0.3-23,9.4-27.5,9
			c-3.8-0.4-4.3-3.9-1.1-9.6C-21567.1,3097.1-21554.8,3091.2-21548.2,3091.2L-21548.2,3091.2z M-21543.3,3109.4
			c1.6-0.1,1.9,0.8,1.3,3.2c-0.4,1.7,0,5.8,1.2,8.4c1.3,2.8,3.6,4.4,2.4,5.5c-1.9,0.6-8.4,2-13.8,4.1c-6.9,4-26.4,16-21.8-2.8
			c1.5-6.3,8.6-10.7,21.2-15.4C-21548,3110.7-21545,3109.6-21543.3,3109.4z M-21533,3109.5c3-0.3,6.5,1.1,8.2,4.9
			c4.7,9-8.4,10.5-12.7,3C-21540.1,3113-21536.9,3109.8-21533,3109.5L-21533,3109.5z M-21530.1,3130.6c6.8-0.1,12.2,8.3,7.3,11.6
			c-3.6,2.3-8.2,1.9-12.4,1C-21541.5,3140.4-21538.8,3130.7-21530.1,3130.6L-21530.1,3130.6z M-20878.3,3120
			c26.1,13.1,61.5,25.1,95.8,33.8l5.6,336.7l-233.5,3.9l-65.8-110.5c0,0-2.2-3.6-2.9-5.2c-1.3-3-0.9-5.5-0.1-8.6
			c2-7.6,8.2-22.6,13.9-33.2c15-28.6,36.4-60.1,24.1-87.1c-1.4-3.1,11.9-20.2,11.9-20.2c21,1.4,38.2-12.6,31.4-44.8
			C-20954.4,3166.1-20918.5,3150.9-20878.3,3120L-20878.3,3120z M-21542.2,3132.6c0.6,0-1.1,7.4,2.7,11.8c2.4,3.5,2,3.4-5.8,6.6
			c-2.9,1.6-5.8,4.1-7.5,5.6c-11.1,10.2-22.5-2.7-11.7-13.5c8.7-8,17.8-9.9,22.2-10.5
			C-21542.3,3132.7-21542.2,3132.6-21542.2,3132.6z M-21006.6,3130.7c3.8,0.6,8.8,5.6,7.2,8.3c-5.2,9-5.3,13.8-5.7,23.1
			c-0.4,10.3,1.4,11.8-2.5,10.1c-2.6-1.2-7.4-3.1-8.5-5.7C-21018.7,3160.5-21012.9,3129.7-21006.6,3130.7z M-21545.3,3165.5
			c4.2-0.1,8.6,1.2,11.1,4.3c2.1,2.6,2.4,4.9,0.3,6c-4.8,2.7-21,1.6-21.9-1.7C-21557.1,3169-21551.4,3165.7-21545.3,3165.5z
			 M-21300.8,3168c19.7-0.2,42.8,3.6,60.7,11c25.4,9.1,48.1,33,53.3,43.4c1.6,3.1-1.5,3.2-4.2,3.5c-30,5.5-39.4,42.7-13.7,60
			c8,4.8,14.5,4.2,14.5,4.2c6.4-0.7-27.5,67.2-40.8,109.4c-43.2-1.1-75.8,6.1-118.2-7.7c-4.7-7.5-3.9-24.1-0.7-32.8
			c2.9-7.9,6.8-14,4.7-22.9c-3.6-15.6-18.2-35.7-23.2-48.6c-4.4-9.8-4.1-13.5,3.1-19.3c8.5-6.8,10.6-8.2,12.9-11.6
			c2.1-3.2,1.2-3.9,1.1-10.9c-0.1-8.6-0.3-7.2,6.8-8.6c2.5-0.5,8.3-2.4,12.7-4.9c9.2-5,15.6-5,21.1-2c2.4,0.6,2.1-1.8,3-5.1
			c0.4-1.4,1.4-3.7,1.3-4.4c-0.2-1.4-3.3-1-6.7-0.4c-13.7,2.2-24.6,2.8-30.2,0.8c-4.9-1.7-4.9-5-2.2-10.4c2.4-4.9,4.2-4.8,3-14.9
			c-1.5-12.6,0.2-15.3,6-19.5C-21329.4,3170.9-21316.1,3168.2-21300.8,3168L-21300.8,3168z M-21229.4,3178l64.1-1.1
			c-6.1,10.2-12.9,26-16.6,40.9c-0.6,1.2-1.2,2.3-2.7,0.8C-21193.5,3206.4-21203.5,3193.4-21229.4,3178z M-21281.7,3224
			c-7.7,0.3-17.2,4.2-29.1,11.3c-8.1,4.8-14.7,7.8-23.4,6.4c-5-0.8-5.6-0.1-6.2,1.5c-2.8,7.3,8.2,14.9,19,9.6
			c3.2-1.4,27.4-14.4,28.7-15.6c1.4-1.2,11.5-4.3,14.2-4.4c8.1,0,13.2,6.2,12.3,13.6c-1.2,9.8-15,10.5-16.1,1.8
			c-0.8-6.7-3.6-3.7-3.8-0.4c0,2.8,2.3,9.2,4.6,10.6c11.8,7.1,27.1-7.4,19.4-21.9C-21266.8,3227.7-21273.1,3223.6-21281.7,3224z
			 M-21333.8,3258.9c-7.9,1.6-13,4.8-21.6,5.7c-7,1.7-6.4,7.3-2,10.2c3.4,2.2,7.7,0.8,19.9-7.3c12-7.9,22.7,8,13.1,16.4
			c-6,5.3-1.8,6.6,2.3,3.4C-21311.3,3279-21317.9,3255.6-21333.8,3258.9L-21333.8,3258.9z M-21295.4,3299.7
			c-0.9-0.1-2.4,0.3-4.4,1.2c-9,4.3-16,8.8-20.2,14.8c-0.7,1.3-0.3,3.4-0.6,5.1c-0.3,1.3-1.3,3-1.1,3.9c0.2,0.8,2.8,1.6,3.2,2.3
			c1.6,3,0.7,10.6-0.1,16.1c-0.4,2.6-4.3,3.5-5.8,5.1c-5,5.3-3.7,6.9,1.7,4.7c3.8-1.5,2.1-4.1,11.6-2.4c12.3,2.2,21.9-1.3,31.5-6.8
			c10.6-6.1,14.4-9.5,14.9-8.8c0.7,1.2,0.2,1.8-7.3,8.2c-18.8,16.2-33,20.1-43.8,14.4c-3.2-2.1-5.8-3-3.3,1.7c0.3,0.5,3,2.5,4.8,3.3
			c11.1,4.8,24.8,0.4,42.2-13.8c3.8-3.1,7.2-6.6,11.6-10.4c14.4-12.4,10.5-18-5.9-11.8c-5.2,2-6.7,0-13.7-2.6
			c-9.5-3.5-12.6-3.8-23.4-3.8c-9.4,0-10.8,0.9-10.9-0.7c0-2,6.2-9.3,13.3-12.5C-21294.5,3303.7-21292.6,3299.9-21295.4,3299.7z
			 M-21277.6,3329.6c1.8,1.7-0.7,2.9-7.5,6.3c-3.8,1.9-7.3,3.5-7.8,3.5c-0.6,1.1-7.3-13.3-5.5-14
			C-21297.7,3325-21281.9,3326-21277.6,3329.6z M-21302.3,3328.4c1.6,3.3,2.9,6.7,3.6,9.8c0.2,1,0.9,2.4-0.7,2.4
			c-1.2,0.2-3.2,0.3-3.9-0.8c-1.6-2.4-3.4-10.6-2.9-12.2C-21305.1,3326.1-21303,3327.1-21302.3,3328.4z M-21245.8,3353.6
			c-0.6,0-1.6,0.5-3.3,1.5c-26.8,16.5-59.2,25.3-80.2,17.8c-7.1-2.5-8.4-1.6-5.7,3.2c1.8,3.3,5.4,7.2,10.8,8.6
			c17.2,4.4,44.5-2.9,65.5-17.1C-21250.3,3361.7-21243.4,3353.5-21245.8,3353.6L-21245.8,3353.6z M-21085.6,3393.8
			c0.1,0,54.2,97.9,58.9,102.4l-389.8,4.8l64.1-94C-21351.7,3412.3-21193.5,3431.3-21085.6,3393.8L-21085.6,3393.8z"/>
		
			<path id="path4035-6-4-6_1_" class="st1" d="
			M-21414,3501l61.4-94c93.4,16.2,177,5.4,268.4-12.5l62.8,102L-21414,3501z M-20926.2,3146.4l-1.3-55.2l19.3,6.8
			c-7.1-25.6,9.3-52.7,24.6-54c-49.6-36.2-9.6-76.4-10.4-77.2c-54.1-26.8-27.9-69.7-31.7-73.5c-65.6-15.9-41-68.1-45.8-62.7
			c-37.8,12.1-59.3-19.5-60.4-45.4c-32.6,19.2-83.9-6.4-68.4-36.3c0,0,17.6,8,20.6,6.3c26.5-20,24.9,8.1,30.6,14.1
			c20-3.2,32.1,11.9,37.2,19.3c29.6-0.5,28.2-7.5,29,21.1c22.4,5.3,21.7,17.3,34.9,33.6c28.1-0.2,23.5,9.1,17.4,24.7
			c20.5,15.8,22.4,28.4,25.9,43c22.2,7.6,26.2,10.8,12.1,29.7c20,28.9,10.9,46,13.9,47.5c24.6,17.1,12.5,23.7,2,30.6
			c4.1,23.2,7.1,26.6-1.1,50.5c28.3,19.4-4,28.8-5.6,28.4l0.2,19.6L-20926.2,3146.4z M-21604.7,3013.7l-1.7-68.4l239.3,149.1
			l-29.1,47.4L-21604.7,3013.7z M-21288.6,3109.1l54-118.1l-22.2-127.5l160.4,0.9c18.7,40.7,30.2,75.4,77.5,142.4l-48.6,16l3.1,82.1
			L-21288.6,3109.1z M-21151.9,3076.1c-1.7-3.4-2.6-5.7-2.4-7.2c0.6-2,2.1-1.9,4-0.9c6.9,3.2,13.7,5.9,18.7-0.4
			c2.5-3.3,1.7-8-0.5-10.6c-4-7.8-16-1.9-20-1.6c-3.8,0.1-5.3-3-2.3-7.6c1.8-2,2.9-4.2,3.2-6.8c1.8-17.9-28.6-11.1-17.7,6.1
			c4.9,6.4,2.2,10.3-5,6.3c-7.9-4.3-18.6,0-18.1,9.4c0.4,7.1,9.4,11.4,16.9,7c1.7-1,3.1-2.1,4.3-2.7c3.5-1.6,6-0.4,4.9,3.6
			c-3.1,5-6.6,12.1-3.5,16.7c3.2,6.7,13.8,5.9,17.4,1.6C-21149.5,3086.2-21148.9,3081.5-21151.9,3076.1L-21151.9,3076.1z
			 M-20787.9,2710.8l-239.7-149.8c14.4-19.3,22.8-34.7,30.7-50.2l208.1,129L-20787.9,2710.8z M-21159.6,2665l26.3,123.7l-165.6,5.1
			c-9.8-41.5-68.2-134.9-68-133.3l42.4-109.2l219.7-3.9L-21159.6,2665z M-21222.5,2619.8c4.1-3.9,3.8-9.8-1-16.3
			c-4.6-6.3-2.7-11,4.6-6.8c4,2.6,10.3,3.1,14.6,1.6c5.4-1.9,7.6-6.3,6.7-11.7c-1.1-6.6-8.4-8.3-16.2-5.3c-2.2,0.5-3.6,2.4-5.5,3.3
			c-4.2,1.9-5.9-3.1-2.2-9.7c4.2-7.4-0.4-15.1-8.3-15.6c-8.4-0.6-13.3,9-9.7,14.2c5,7.4,1.6,12.7-5.6,7.8
			c-10.3-7.1-23.4,2.3-17.7,13c2.7,5.2,11.5,6.4,19.2,3c6.5-2.9,8.5,0.3,4.6,7C-21246.9,2618.2-21233.4,2630.1-21222.5,2619.8
			L-21222.5,2619.8z M-21464.8,2501.9l-0.7,66.2c-25-14.7-21.3-15-22.3-14.7c7.6,19.8-0.5,44.5-21.3,56.9
			c38.5,34.9,18.4,60.2,12.5,77.2c48.8,27.3,25.1,76.2,25.3,73.7c47.7-0.5,47.4,41.2,49.1,58.6c58.9-4.7,51.8,42.6,59.6,46.5
			c28.4-13.3,61.8-9.4,71.3,28.9c6.1,21.7-15.3,1-24.4,2.1c-32.3,20.8-26.5-10.2-28.4-14.5c-27,3-30.8-9.8-42.8-18.7
			c-29.1,6.1-26.8-3.5-25.4-21.3c-23-4.3-28.2-18.5-37.5-32.3c-31.6,1.5-19.1-21-19-25.4c-3.9-3.4-22.3-20.9-23.6-41.3
			c-32.6-8.6-12.5-25.3-11.4-31c-12.5-15.1-15.9-26.3-12.1-45.6c-29-13-5.2-26-3.3-33.6c-9.8-24.9-3.1-32.6,0.4-46.2
			c-18.9-21.4-7.8-20.4,5.5-33.8c1.7-2.4-3.2-13.2-3.1-19.7L-21464.8,2501.9z M-21302.5,2254l-53.4-92.1l370.8-6.1
			c0,0-39.4,56.6-54.6,85C-21132.5,2227.7-21218.9,2236.1-21302.5,2254z"/>
		
			<path id="path4039-1-1-4_1_" class="st2" d="
			M-21541.8,3442.7c-32.6-6.9-38.8-47.6-8.9-82.1c2.4-2.8,4-7.1,4-7.1c-10.8-16.1-15.8-21.8-26.8-37.8c9.3-14.5,20.2-25.7,27.1-38.2
			c-0.5-2.2-3.7-4.3-7.6-9.8c-22.6-32.1-25.2-44.9-14.3-64.4c10.2-18.3,35.3-20.8,50.8-5.1c16.8,17,16.3,32.7-4.6,65
			c-4.6,7.1-7.9,13.5-7.9,13.5c6.1,11.9,16.4,22.8,26.9,37.7c-9.3,11.9-18.8,23.1-27,36.8c0,0,0.9,2.9,2.8,5
			c34.7,38,32.8,82.4-5.7,86.8C-21534.9,3443.3-21539.7,3443.1-21541.8,3442.7z M-21275.8,2945.5c-0.9-1.4-119.4,197.6-119.4,197.6
			l14,8.7l113.4-184c1.8,1.3,3.5,2.9,3.2,5.1c0,0-93.3,157.9-108.9,183.1c-0.4,0.7,24,14.6,24.8,14.6
			c35.4-18.2,184.4-5.4,283.1-13.1c0.4,0.3-0.9,34.7-0.9,34.7s-23-25.7-27.5-25.8c-22.5-0.4-45.9,9.5-62.9,8.8
			c-10.8,3.5-22.4,43.1-24.7,53c-19.7-2-38.3,18.9-33.5,38c6.8,21.2,17.8,19.4,29.7,19.5c-0.7,24.1-42.2,88.3-41.9,119.6
			c44.9-4.3,93.6-5.9,139.8-20.7c0,0,16.6-50.4,38.1-83.8c7-12.8,10.2-31.8,7.1-43.7c-2.1-13.1,3.5-16.5,8.4-25.7
			c3-5.8,14.3-5.7,15.8-6.2c29.4-9,18.2-47,5.5-53.6c-15.8-8.2-37.7,5.3-46.5-11.8c-9.3-18-7-55.7-7-55.7l-222.9,4.7
			c0,0,61-120.7,59.4-121.6C-21246.9,2978.2-21275.6,2945.8-21275.8,2945.5L-21275.8,2945.5z M-21423.1,3056.8
			c0.8-12.1-0.5-208.8-187.9-303.5l0.6-25.9c1.1-1.4,170.3,73,202.4,272.8l50.5-82.1l19.2,7.2
			C-21365.9,2968.2-21420.2,3071.8-21423.1,3056.8L-21423.1,3056.8z M-21537.1,2987.9c7.3-22.8-5.1-10.6-16.5-11.3
			c-7.9-4.1-15.7-9.5-23-14.2c53.8-29.7,21.5-27.7-9.8-7c-8.3-4.3-18.8-13.9-19.4-13c60.6-40.4,37.6-40.8-1.1-11.7
			c0.9-26.8,0.1-16.7,0.5-25.7c32.8-36.4,2-16.4-0.3-15.9c-8.8-35.6,30.7-28.8,34.7-1.8c7,5,20.7,11.2,25.1,33.3
			c19.1,11.7,17.3,21.7,16.6,36.2c7.5,7.2,26.8,22.3,4.8,36.9L-21537.1,2987.9z M-21610.3,2825.9l0.9-19.8
			c2.4-8.1,147.4,91.8,139.3,223.3c1.7-0.9-16-8.9-21.1-13.3C-21492.7,2919.5-21596.8,2836.2-21610.3,2825.9z M-20786.5,2923.3
			c-96.3-42.2-188.9-145.8-195.9-282.3l-52.5,91.4l-19.3-7.8c1.8,1.5,41.5-75.2,82.8-128.4c14.7,172.2,83.6,251.2,187,307.7
			L-20786.5,2923.3z M-21288.3,2868.5c-92.8-10-228.9-133.9-191.7-305.6c5.4-17.5,96.3,77.3,96.3,77.3
			c0.5-4.4,82.4,122.9,80.6,148.1c67.7,18.1,198.9-2.3,198.9-2.3c109.7,22.6,226,138.7,187.5,307c0,0-29.4-18.6-54-40.4
			c-75-70.1-99.4-128.4-126.6-192.6C-21191.9,2853-21280.2,2871.5-21288.3,2868.5L-21288.3,2868.5z M-20789,2717.8
			c1.8,8.5,1,26.2,1.3,26.1c-24.2,27.2-26.7,27.8,4,18.6c-3.4,25.8-22.3,30.3-33.8,21.8c-4.2-3.2-4.5-20.9-4.5-20.9
			c-18.8-4.4-25.3-9.9-23-30.1c-21.6-2.2-20.9-12.7-19.5-34.7c-19.8-10.7-15.2-28.4-3.7-36.1l9.8,6.5c-3.1,2.8-1.3,20.3,15.7,7
			c0,0,13.9,11.2,20.6,15.5c-49.3,32.8-19.2,25.3,11.1,3.8c5.8,3.8,13.8,10.1,17.9,12.8
			C-20832.9,2737.9-20845.8,2762.3-20789,2717.8z M-20784.8,2826.6l-1.3,23.1c-99.3-58.5-127.2-137.4-135.9-221.8
			c0,0,13.4,9.5,19.5,13.4C-20891.9,2750.2-20790.9,2822.2-20784.8,2826.6L-20784.8,2826.6z M-21328.1,2549.5l235.8-2.4l-60.5,120.6
			l33.6,38.4c0,0,79.8-129,119.9-196.5l-14.4-8.3l-114.5,186.7l-4.8-5.1l112.8-186.5c-7-4.4-20.3-11.5-20.3-11.5s-200.7,6.5-288,7.6
			c2.6-12.1,2.9-33.5,2.9-33.5c13.2,18.3,27.2,34.5,56.9,15.9c0,0,35.5,0.6,36.8-1.1c4.2-7.1,11.6-29.3,20.1-54.4
			c34.2-2.9,30.5-19.4,34.3-24.8c-3.4-48.6-30.3-22-28.2-39.7c7.2-31.6,45.4-103.7,40.3-109.8c-10.3-6.6-110.8,14.9-140.1,19
			c-2.7-1-16.3,46.1-31.1,66.3c-16.1,22.1-21.6,45.5-12.8,67.4c-8.3,24.4-25,22.2-38.3,29.2c-14.9,16.7-10.3,41.8,4.3,51.3
			c10.2,6.6,25.7,6,41.2-7.1L-21328.1,2549.5z M-20862.4,2372.6l-28.2-36.6l26.1-39.4c-10.8-16.6-28.7-41.9-25.9-62.2
			c6.1-40.4,60.5-35.4,65.9,3.1c2.9,17.8-9.8,40-22.7,58.8c9,15.8,12.8,18.3,25.8,36.4c-7.3,13.4-25.3,39.8-25.3,39.8
			c11.8,19.1,28.1,40.1,27.2,59.7c-0.9,16.9-19,34.2-36.2,30.9C-20909,2452.8-20880.2,2395.4-20862.4,2372.6z"/>
		<g id="g4049-4-4-2_1_">
			
				<path id="path4033-2-3-3_1_" d="
				M-21364.8,2157.9c15.1,27.2,57.8,100.6,57.8,100.6c98.4-22.1,181.4-28.7,268.9-11l60.8-95.6L-21364.8,2157.9z M-21351.9,2163.2
				l17.8-0.3l36.2,71.5l60.2-13.1l-11.3-59.7l17.1-0.2l9.6,57.4l88.7-3.7l10.6-55.7l16.4-0.1l-10.8,56.6l70.4,8.3l33.3-66.7
				l23.6-0.4l-50.9,82.5c-93.3-16.6-185.6-9-262.7,11.3L-21351.9,2163.2z M-21318.2,2162.7l52.1-0.9l13.3,48.4
				c-6.3,3.4-30.1,9.6-38.2,8.9C-21300.8,2202.6-21311,2178.5-21318.2,2162.7z M-21217.7,2161l79.3-1.3l-6.1,41.5l-66.5,3.2
				L-21217.7,2161z M-21092,2158.9l61.1-1l-23.3,50.7l-46.2-5.5L-21092,2158.9z M-20858.4,2205.4c-3.6,0-6.9,0.4-9.9,1.1
				c-15.8,3.6-23.9,15.9-23.7,35.8c0.1,9.1,7.1,25.1,17.5,40.2c5.1,7.3,8.5,14.1,8.5,14.1l-25.9,39.5l28.9,36.5c0,0-4.3,5.2-6.9,9
				c-12.7,18.6-18.4,35.8-17.3,49.9c1.1,15.2,10.2,26.6,26.9,31.9c9.2,2.9,22.1-1,30.7-9.1c6.9-6.5,10.4-14.9,10.3-24.6
				c0-13.9-7-30.7-20.7-48.9c-3.7-4.9-5.6-8.8-5.6-8.8s18.3-27,25.2-39.4l-26.3-36.4c19.9-31,23.9-37.8,24.1-56.7
				C-20823.7,2220.9-20837.5,2205.2-20858.4,2205.4z M-20861,2207.7c0.9,0,1.8,0,2.7,0c23.3,1.4,35.9,18.5,33.2,40.8
				c-2.8,21.2-21.6,41.3-24.5,48.2c9.4,14.8,27.1,35.7,27.1,35.7c-7.1,13.5-25.7,39.7-25.7,39.7s1.1,2.1,2.4,3.8
				c20.3,27.7,25.9,40.9,24.9,57.8c-0.9,13.3-11.1,25.3-24.2,27.9c-20.6,4.2-37.9-10.3-40.3-30.1c-1.6-17.3,9.4-34.4,17.8-47.7
				c3.6-5.6,6.7-10.9,6.7-10.9l-28.8-36.6c8.4-13.8,19-27.3,26.8-38.9c0,0-4.3-6.7-8.3-12.8c-15.9-24.2-20.4-36.6-18.2-50.2
				C-20886.9,2217.8-20874.2,2208.2-20861,2207.7z M-20858.6,2220.2c-8.6,0.4-16.7,6.9-19.8,16.1c-4.4,17.3,14.1,43,22.5,49.9
				c15.1-18,24.7-38.1,18.7-51.9C-20841.2,2225.9-20850,2219.8-20858.6,2220.2z M-20856.4,2225.7c15.6,0.1,21.7,18.5,10.1,39.7
				c-4,7.3-10,14.9-10,14.9s-5.8-7-9.4-12.3c-14.3-21.6-11-38.7,6.1-42C-20858.6,2225.8-20857.5,2225.7-20856.4,2225.7z
				 M-21166.6,2240.5c-40.8,0.9-95.2,8.6-143,20.3c-3.7,25.8-16.2,51.8-30,72.5c-13.2,22.4-17.8,41.7-13,54.9
				c4.4,12.3-6.8,31-19.5,32.3c-15.8,1.7-25.7,12.9-25.2,28.6c0,25.1,17.6,40.3,41,31.3c2.4-0.3,4,1.2,4,1.2l1,143.9
				c-13.2,2.3-22,5.3-33.2,11.5c-21.3-23.5-39.1-40.1-55.3-51.7c-1-32-0.2-64.2-2.2-96.2c-23.5,9.5-48.5,24.9-69,39.1
				c-6.9,4.8-7.5,7.4-4.7,19.2c1.6,6.6,1.2,7.3-4.2,8.7c-11.2,2.9-14.4,20.9-4.8,26.8c4.5,2.8,4.5,2.9,1.8,9.4
				c-4.3,10.1-3.8,29.2,0.9,37.2c2.7,4.5,2.6,6-0.9,8.3c-11.8,8-10.8,24.6,1.8,27.5c3.2,0.7,4.1,2.1,3.1,4.9
				c-3.7,10.2,0.1,25.4,9.2,36.9c4.8,6,4.7,5.9,1.7,8.7c-9.9,9.3-4.2,25.5,9.5,27c4.7,0.5,4.7,0.5,5.3,4.1c1.7,10.3,2.5,13.2,4.9,18
				c3,6.1,6.5,10.2,13.1,15.1c5.4,4,5.4,4.1,2.6,10.2c-5,11.3,3.5,22.4,16.7,21.7c6.8-0.3,6.8-0.4,7.3,2c2.6,11.7,16.8,25.3,28.3,27
				c5.9,0.9,6.9,2.3,4.9,7.3c-3.1,8.1-0.9,13.2,7.3,17.3c5.5,2.7,7.1,2.8,13,0.6c6.7-2.4,6.8-2.4,12.7,5.2
				c8.3,10.7,13.7,13.3,27.2,13.2c8.9-0.1,9.2,0.1,9.4,6.4c0.4,14.9,16.2,20.8,26.2,9.8c3.6-4,3.6-3.9,6.9-1.6
				c14.4,10.2,27.1,12.7,25.8,2.9c-3.1-22.8-19.9-36.5-19.9-36.5l20.8,5.1c1.3,24.1,2.6,53.2,8,73.3l-89.7,148.3
				c0,0-5.6-3.3-11.6-7.3c-8.8-5.8-19.5-12.7-26.1-16.6c-3.4-2-7.7-4.5-11-7.3c-3.3-2.6,1.9-6.2,2.9-9.1c20.6-38.2,53-84.3,76.5-129
				l-23.5-8.7c-17.4,28.5-30.2,51.4-46.5,77.6c-18.6-121.5-105.3-227-208.9-270.3l0.9,31.9c108.8,53.4,187.7,166.1,187.9,300.5
				c-0.4,0.5-9.1-4.5-20.9-12.1c-6.2-4-18.7-11.9-20.2-12.6c2.5-148.9-146.5-234.5-146.7-230.3c0,0-0.6,19.2-0.9,28.2
				c63.6,41.1,114.3,116.9,120.4,185.1c0.1,0.6-29.8-18-29.8-18c17.5-9.1,12.2-31.7-0.5-37.6c-4-1.7-4.2-2.6-2.4-8
				c3.9-11.1-3.8-27.5-14.1-30.1c-4.5-1.1-5.3-2.3-5.6-8.6c-0.6-11.5-7.1-19-18.6-21.3c-3.2-0.6-3.2-0.7-3.5-4.6
				c-1.3-22.3-23.3-31.1-39.5-15.7c-1.8,1.7-3.7,5-3.7,5l0.3,24.2c5.5-3.2,13.9-13.8,17.4-13.5c3.9,0.4,2,3-6.5,10.6
				c-5.5,4.9-10.9,10.2-10.9,10.2l0.9,31.9c9.2-6.2,18.5-13.2,27.1-19.5c7.4-5.4,11.3-7.2,12.2-5.7c1.1,1.7-0.6,3.9-4.8,6.6
				c-11.4,7.8-24.6,17-34.1,24.8l0.3,22l1.9,2.7l0.9,19.2l-1.7,0.5l0.4,24.2l229.4,141.3l112.5-184.1l1.9,1.9l-112.5,183.4
				c0,0,4.8,4,9.4,6.3c4.6,2.5,10.4,5.8,15.4,9c2.4,3.8,6.5,7,10.8,6.5c3.9-4.4,21.2-9.3,22.8-11.3c64.6-2,250.1-3.8,250.1-3.8
				l1.5,29.7c-8.8-28.6-35.8-34.1-56.7-20.9l-34.7,0.6c-0.3,0-19.9,37.3-22.6,56.6c-14.6-1.7-33.8,12.8-34.6,27.2
				c-2,20.6,11.7,35.3,29.3,32.1c0.3,0.1-2.4,20.4-12.2,36.4c-12.8,28.1-19.3,43.8-27,67.7c-5.2,15-3.3,17.7-2.4,18
				c51.8-1.6,99.4-7.4,148.2-24.1c0,0-1-3.5-1.4-5.5c-1.9-7.9,4.5-24.3,22.9-58.3c14.2-26.2,18.2-36.2,19.5-48.5
				c0.6-6.2,0.5-7.8-1.9-19.4c-0.2-1.1-1-2.6-0.8-3.8c1.4-7.8,13-21.7,13.3-21.4c0,0,4.3-0.9,6-1c26.8-2.3,34.4-38.9,11.6-54.9
				c-11.1-6.6-17.6-7-29.2-3.7l-2.5-141.2l16.3,0.3l17.7-9.1c29.2,24.1,48.3,48.9,79.6,67.2l-0.5,1.3l-23.3-15.4l1.6,92.5
				c26.4-14.3,51-27.5,74.6-47.3l-4.9-4.1l0-13.2c22.5,1.4,24.2-27.3,5.7-30.4c0,0,0.4-2.3,2.1-6c5.5-11.7,6-22.7,1.7-34.7
				c-2.6-7.3-2.6-9.2,0.4-9.2c13.7-0.2,12-24.4-2-29.4c-4.8-1.7-4.5-0.2-3.7-15.3c0.5-11.3-2.3-18.9-10.9-28.7c-3.2-3.7-3-5.5,1-8
				c11.5-7.3,2.8-27.7-11.6-26.9c-5.6,0.3-5.6,0.3-6.2-5.3c-1.5-14.7-10-28.6-20.8-34.3c-3.4-1.8-3.9-3.2-2-5.8
				c9-12.4,0.1-29.1-12.7-23.9c-2.5,1-5.1,2-5.8,2.2c-1,0.3-1.9-1.1-3.9-6.6c-5.6-15.1-10.5-19.7-27.7-26.6
				c-3.4-1.4-3.6-2.4-2.2-9.3c2.4-12-14.2-22.8-22.9-14.9c-3.6,3.2-3.7,3.2-7.8-2c-8.3-9.2-21.5-15.5-33.3-16.5
				c-5.6-0.4-6.5-0.8-6-3c2.9-14.7-11.5-23.9-23.2-15c-5.6,4.3-7.1,4.5-13,1.3c-12.4-6.7-17.7-6.8-18.9-0.6
				c-0.3,5.2,0.9,11.3,2.2,15.1c3.2,10.2,7.1,14,15.7,21c0,0-14.1-3.7-17.7-4.3c0.3-0.4-1.8-48.7-11.5-75.9l87.4-144.3l52,33
				l-80,131.4l24.1,9.3c0,0,31.1-53.6,47.4-79.9c13.1,129,114.9,240.7,205.9,272.8c-0.3,0.2,0-18.6,0.2-27.7
				c-96.2-40.5-188.9-156.4-185.5-297.5l38.8,23.9c13,112.8,63.3,178.2,146.3,232.9l-0.6-34.6c-57.2-40.9-105.1-94.7-118.9-181.9
				c0,0,19.4,11.8,28,17.4c0,0-2.4,1.4-3.6,2.5c-10.1,8.7-6.7,26.2,6.9,35.8c2.2,1.6,2.2,1.6,0.3,7.1c-3.9,11,2.6,24.1,13.3,26.7
				c6.2,1.5,6.1,1.4,6.3,8.4c0.4,13.6,6,19.8,20.6,22.8c2,0.4,2.1,0.6,2.1,6.7c0.2,15.1,14.8,24.9,27.3,18.4
				c3.9-2,16.1-12.6,16.1-12.6l-0.4-24.2c0,0-5.5,4.7-9.5,8.5c-7,6.7-9.2,7.6-9.3,3.6c0-2.9,3.2-6.8,9.9-12c3.5-2.7,8.8-8.4,8.8-8.4
				l-0.5-28.2c0,0-3.3-5-3.2-11c0.1-3.3,0.9-8.3,0.9-8.3l3.4,0l-0.6-32.7l-4.2-3.2l-0.2-21.7l-226.8-141.5l-113.8,187.9l-3-3.4
				l114-186.7l-31.4-19.4l-18.6,9.6c0,0-129.9,0.1-256.6,3.8c0,0-0.4-3.5-0.5-13.4c-0.1-12.4,0.4-14.2,2.8-9
				c5.3,11.7,18.2,18.5,32.9,17.6c8.3-0.5,9.5-0.9,18.7-6c3.4-1.9,4-2,20.3-2.1c17.4-0.2,20.5-0.9,20.5-4.5
				c5.8-13.9,11.5-30,14.8-42.1c1.6-5.9,2.3-8.4,3.6-9.7c1-0.9,1.9-0.7,4.4-0.9c11.1-0.9,14.2-1.7,22.1-9.6
				c15.8-16.4,6.1-49.2-17.3-48.9c-6.2,0.1-2.2-16.4,10.4-43.3c13-27.8,14.9-32.1,21.5-50.7c4.4-12.2,6.4-20.9,6.9-26.1
				C-21164,2240.4-21165.3,2240.5-21166.6,2240.5z M-21167.7,2248.5c3.3,2.7-4.5,22.7-18.5,53.1c-11.6,25.1-16.7,37.6-19.2,46.7
				c-0.7,2.6-1.7,6.4-2.2,8.4c-0.7,2.8-1.8,4.2-4.5,6.2c-1.9,1.4-4.6,3.5-6,4.7c-3.9,3.2-4.8,2.2-4-4.1c1.6-11.8,6.1-24.6,16.5-46.9
				c8.3-17.7,16.3-36.8,22.5-56.1c1.4-4.5,2-9.1,4.4-10.8C-21175.2,2247.5-21171.5,2247.9-21167.7,2248.5L-21167.7,2248.5z
				 M-21185.2,2249.9c2.2,1.5-7.8,29-25.5,67.1c-22,47.6-22.7,80.8-2,88.5c16.3,6.1,32.3-12,22.1-24.8c-4.9-6.2-15.2-6.5-18.7,0
				c-1.9,3.6,0.9,7.6,4.3,2.6c4.9-7.3,15.2,0.9,12.9,9.4c-1.6,5.9-9.7,10.7-14.8,9.8c-22.5-4.1-18.8-35.8,4.4-37.9
				c22.2-2,32.8,27.7,16.9,45c-5,5.6-11,8.5-21.4,8.6c-14.5,0.2-28.2-11.5-27-22.6c1.7-10.2,1.9-18.4-1.7-26.3
				c-1.1-2.5-2.5-5.1-2.5-8.3c0.1-9,7.2-23,23.1-57.8c5.7-12.4,12.6-34,16-47.5c1.2-4,0.6-5.1,2-5.6
				C-21193.4,2249.3-21188.2,2248.1-21185.2,2249.9z M-21204.2,2250.7c3.4,0.1-4,25.1-13.5,46.4c-7.2,16.3-17,37.3-24.3,56.7
				c-2.4,4.1-4,4.5-9,1.9c-5.5-2.8-4-7.5,8.5-33.4c9.4-19.6,18.4-41.8,24.6-64.1c0.5-2.7,1.4-5,3.6-6.3
				C-21210.9,2250.4-21207.6,2250.6-21204.2,2250.7L-21204.2,2250.7z M-21222.3,2253.8c1.8,2.4-9.4,36.1-27.1,74.1
				c-3.8,8.1-6.3,15.5-10.1,23.7c-1.9,1.9-9.1,3-12.7,3.8c-3.8-0.4-0.3-7.5,10-29.3c8.4-17.8,10.8-22.8,15.2-33.6
				c3.2-7.9,7.8-21.5,12.2-34.2c0.3-1,0.7-3.3,1.6-3.8C-21229.8,2253.1-21225.7,2252.4-21222.3,2253.8z M-21240.2,2256.2
				c0.3,0.8-0.3,2.5-0.6,3.8c-2.7,13.5-9,26.2-13.6,39.2c-0.5,1.8-5.6,12.8-11.3,24.6c-5.7,11.7-10.9,22.9-11.5,24.9
				c-0.7,2-2.5,7.2-4.1,11.6c-10.1,22.7,1.5,40.3,15.4,41.4c21.8,1.4,23.3-29.1,7.9-31.7c-5.8-0.9-12.1,2.4-12,9.1
				c-0.3,3.5,4,7.4,3.8,2.5c-0.4-9.1,12.3-8.9,14-1.2c3.3,15-13.7,22.6-24,11c-4.3-4.8-4.3-10.3-3.6-15.3
				c1.9-13.5,17.2-23.5,31.8-13.6c19.9,13.6,13.6,44.4-11.7,49.8c-8.6,2.4-19.6-0.3-26.6-7.2c-4.4-4.4-7.4-11-8.6-19.2
				c-0.7-4.6-1-9.9-0.4-15c1.8-15.8,12.9-39,22.7-58.7c7.5-16.3,13.3-37.8,20.1-55.1C-21250.6,2255.4-21239.9,2253.9-21240.2,2256.2
				L-21240.2,2256.2z M-21259.3,2258.7c1.2,0.3-4.5,19.1-12.6,39.4c-9,20.6-20.7,44.2-27.2,64.5c-2.1,5-3.7,4.9-9.9-0.8
				c-3.3-3-1.5-7.5,9.4-30.9c16.9-36,23.1-51.3,25.6-59.9c1.2-4,2.1-8.9,4.7-10.5C-21265.9,2259-21262.6,2257.7-21259.3,2258.7
				L-21259.3,2258.7z M-21276.7,2263.4c-1.8,6-7.5,23.9-17.5,45.2c-6.3,13.4-12.4,28.3-18.6,42.1c-3.4,8.5-3.5,8.5-9.6,9.9
				c-10.3,2.3-10.3,2.2-1.5-16.4c2.6-5.5,7.6-15.7,11.2-22.6c6.6-12.7,16.6-37.3,20.2-49.5c1-3.3,2.3-6.4,3.9-8.1
				C-21287.5,2263.6-21279.5,2261-21276.7,2263.4z M-21299.2,2266.1c1.8-0.1,3.5,0.2,4.3,1.2c0.5,4.2-10.4,31.2-17.1,43.7
				c-2.1,3.8-4.1,8.8-6.4,13.3c-8.6,14.3-18.8,41.5-21.4,52.8c-4.1,17.9,16.6,31.1,27,18c6.6-8-0.6-22-10.3-17.9
				c-3.4,1.4-2,2.9,2.7,3.2c7.6,0.5,8.4,12.3,0.4,15c-8.9,2.9-15.7-4.8-15.8-12.8c-0.2-16.4,17.6-22.7,29-13.9
				c11.3,9.1,13.5,31.2-3.3,40.1c-16.4,8.6-36.9-2.4-41.3-22.1c-3.4-15.1-0.2-29,14-52.6c8.1-13.6,20.8-37,27.1-57.4
				c1.2-3.5,2.3-6.3,3.5-7.8C-21305.8,2267.5-21302.2,2266.2-21299.2,2266.1L-21299.2,2266.1z M-20855.8,2306.4l-21.7,28.6
				c6.5,9.1,22.1,27.1,22.1,27.1l20.6-27.5L-20855.8,2306.4z M-20855.4,2322.1l9.4,11.7l-10.3,12.6l-10-11.4L-20855.4,2322.1z
				 M-20853.5,2383.4c0,0-26.3,29.8-19.8,51.5c5.8,19.3,35.1,23.6,41.7-5c0.5-2.3,0-5.3-0.3-9.1
				C-20832.7,2409.3-20853.5,2383.4-20853.5,2383.4z M-20853.4,2389.2c0,0,7.9,11,13.5,20.8c6.2,9.3,8.3,35.6-13.3,35.1
				c-11.7,1.4-23.1-13.8-14.1-32.8C-20864.9,2406.5-20853.4,2389.2-20853.4,2389.2z M-21295.8,2401.3c1.5-0.3,3,2.9,4,5.3
				c1.3,3.2-2.2,12.4-5.9,17c-0.7,0.8-5.6,1.3-12.9,5.1c-0.1-3.4,1.9-11,3.2-14.3c4.9-5,9-11,11-12.7
				C-21296.2,2401.4-21296,2401.3-21295.8,2401.3z M-21349.2,2403.8c3.4,3.7,6.6,6.9,6.6,9.2c-0.1,3.4-4,7.6-7,10.6
				c-3.7,3.8-11.3,1.7-11.3-3.1C-21361,2418.7-21350.5,2403.8-21349.2,2403.8z M-21235.6,2406.8c3.2,1.7,6.5,7.4,7,10
				c-4.3,25.2-21,56.2-20.4,55c0,0-10.6,2.1-15.1-0.2c11.4-16.3,18.8-37,23.8-53.9C-21238.2,2410.5-21237.2,2406.8-21235.6,2406.8z
				 M-21245.4,2410.4c1.8-0.1,2.5,1.3,1.1,5.2c-6.4,27.9-21.3,57.3-33.2,62.9c-15.7,7.2-31.6,1.7-38.6-10.1
				c-7.5-12.8-6.6-33.2,17.8-38.1c14.3-1.7,29.3,9.4,21.9,27.7c-8.3,13.7-31.4,6.5-24.9-11c5-6.5,15.7-1.1,12.4,6.2
				c-1.7,3.7,0,5.9,2.6,3.3c8.2-8.3-5.8-22-14.9-14.9c-14.9,11.7,4.2,36.4,21.6,25.4c5.3-3.4,14.7-21.9,18.1-35.4
				c1.5-5.8,2.8-11.3,6.5-14.9C-21251.7,2413.4-21247.7,2410.6-21245.4,2410.4z M-21285.5,2412.2c0.9,0,1.9,0.4,3.3,1.1
				c1.8,0.8,3.9,2.4,3.7,4.4c-0.2,2.4-1.5,7.5-4.2,10.1c-1.7-0.5-6.2-2.3-9.3-3c-1.9-0.5,0.6-4.7,1.7-7c1.8-3.7,2.9-5.3,4.4-5.5
				C-21285.7,2412.2-21285.6,2412.2-21285.5,2412.2z M-21335.4,2414c2.3-0.1,5.9,2.4,8.3,2.7c0.5,3.4-3.8,10.9-10.8,19.7
				c-5.7,7.2-5.7,7.3-9.7-0.5c-2.6-5.1-2.7-4.9,4.4-14c3.8-4.9,5.6-7.1,7.3-7.8C-21335.7,2414-21335.5,2414-21335.4,2414z
				 M-21312.7,2416.1c0.1,1.8-0.7,5.9-1.5,8.3c-7.7,24.3-26.2,48.6-41.8,54.8c-20.3,7-39.1-3.4-40-28.2c0-29.2,34.6-37.8,45.5-11.4
				c4.9,11.9-7.7,30.2-18.9,27.4c-11.3-2.9-16.3-20.3-7.1-24.8c6-2.9,12.4,1.7,11.2,8.2c-0.4,2.2-0.3,2.6,1,2.3
				c5.8-1.2,2.5-12.7-4.4-15.5c-13-5.3-22.5,12.3-13.5,25.1c10.7,15.3,27,12.1,36.2-7.2c1.6-3.3,4.5-8,6.6-10.5
				c5.6-6.7,7.4-9.3,12.3-18.2c2.7-4.9,4.1-7.9,5.5-9.5C-21319.2,2416.6-21317.6,2417.2-21312.7,2416.1z M-21266.9,2416.7
				c2.4,0,4.4,1.5,4.4,4.9c0,2.8-3.9,14.9-5.7,17.7c-0.7,1.1-2.3,5-2.6,4.1c-2.5-7.9-6.8-10.3-7.5-12.4c-0.8-2.4,1.4-4.8,2.3-7
				C-21274.1,2419.3-21270.1,2416.7-21266.9,2416.7z M-21223.8,2419.7c3-0.1,7.2,1.2,8.1,3.4c2.8,4.7-14.7,49.1-15.4,49.2l-13.6-0.4
				c7.9-17.7,14.8-35.2,19.8-52.1C-21224.6,2419.8-21224.2,2419.7-21223.8,2419.7z M-21039.8,2486.5l17.5,10l-111.2,183.3
				l-16.8-12.4L-21039.8,2486.5z M-21324.7,2494.9c106.7-1.4,253.5-4,253.5-4l-6,11.9c0,0-160.5,1.1-247.4,2.7L-21324.7,2494.9z
				 M-21468.5,2504.7l0.8,59.6c-11.2-9.5-44.9-30.2-45.1-29.7C-21512.9,2534.7-21484.4,2515-21468.5,2504.7z M-21011.8,2503.1
				l10.8,6.6l-116.8,193l-6.9-13L-21011.8,2503.1z M-21324.4,2510.9l16.7-0.3l0.3,18.9l-16.7,0.3L-21324.4,2510.9z M-21286.1,2510.3
				l20.3-0.3l0.3,18.9l-20.3,0.3L-21286.1,2510.3z M-21241.8,2509.8l20.8-0.3l0.3,18.9l-20.8,0.3L-21241.8,2509.8z M-21198.4,2509.1
				l21.1-0.3l0.3,18.9l-21.1,0.3L-21198.4,2509.1z M-21154.6,2508.5l20.8-0.3l0.3,18.9l-20.8,0.3L-21154.6,2508.5z M-21110.7,2508.2
				l21.3-0.4l0.2,13.3l-3.1,5.6l-18,0.3L-21110.7,2508.2z M-20996,2512.4l205.7,128.3l0.2,18.2l-214.1-133.4L-20996,2512.4z
				 M-21009.1,2528.1l1.8,1.2l-8.4,13.3l-1.8-1L-21009.1,2528.1z M-21323.4,2535.2l228.4-3.8l-6.7,11.7l-221.5,3.3L-21323.4,2535.2z
				 M-21510.8,2544.2c1.5-0.1,4.6,1.2,9.3,3.7c11.3,6.1,18.6,19.3,13.9,24.2c-4.2,4.3-14.5-4.6-21-17.6
				C-21512.2,2547.6-21513.1,2544.4-21510.8,2544.2z M-21106.5,2548.9l-71.7,119c-17-22.6-36-42-76.6-27.9
				c-21.5-16.1-44.1-18.3-67.7-3.9l-1.1-83.2L-21106.5,2548.9z M-21485.8,2555.2l5.8,4.9c-1.6,3.3-2.3,8-3.4,12.2
				C-21483.5,2566.6-21484.1,2560.9-21485.8,2555.2L-21485.8,2555.2z M-21018.6,2548.7l229.5,145.6l0.2,13.8l-237.5-147.5
				L-21018.6,2548.7z M-21515.9,2560.4c2.9-0.1,5.8,1.1,8,3.7c3.5,4.1,2.2,11.7-2.6,15c-9.5,6.6-21.2-5.7-13.7-14.4
				C-21521.8,2561.9-21518.8,2560.5-21515.9,2560.4z M-21478.2,2561.5l12.6,9.7c-19.5,123.1,44,246,177.1,280.9l1.8,15.7
				c0.3,0.7-56.5-15.9-81.5-33.9c-34.1-22.3-63.2-53.9-83.4-91c-13.8-23.9-21.6-50.3-26.7-71.7
				C-21484.8,2634.5-21485.2,2598.1-21478.2,2561.5z M-21492,2578.4c4.8,0.1,5.3,3.5,1.6,10.2c-4.8,8.5-12,14.6-23.9,19.8
				c-6.5,2.9-8.3,1.6-7.6-5.4c1-10.6,8.2-18.4,20.8-22.7C-21498.1,2579.4-21495,2578.4-21492,2578.4L-21492,2578.4z
				 M-21455.5,2579.1c2,1.6,2.6,2.1,5,4.1c-4,1.5-6.9,5.3-6.8,9.9c0.1,5.7,4.8,10.3,10.5,10.2c5.1-0.1,9.3-3.9,10-8.8
				c1.9,1.6,3.6,3,5,4.2c-2.3,6.1-8.1,10.4-15,10.5c-9,0.1-16.4-7-16.5-16C-21463.4,2587.2-21460.3,2582-21455.5,2579.1
				L-21455.5,2579.1z M-21447.1,2587.1c0.6,0,1.1,0.1,1.6,0.2c1.3,1.1,2.4,2,3.7,3c0.4,0.7,0.6,1.6,0.6,2.5c0.1,3.2-2.5,5.8-5.7,5.9
				c-3.2,0.1-5.8-2.5-5.9-5.7C-21452.9,2589.8-21450.3,2587.2-21447.1,2587.1z M-21486.1,2591.5c-1.1,15.9-0.4,32.4,0.4,49
				c-3.3-13.1-10.2-22.8-21.7-29.3C-21499.7,2605.6-21491.6,2598.9-21486.1,2591.5L-21486.1,2591.5z M-21426.2,2603l11.2,9.3
				c-7.3,130.1,107.3,177.5,110.4,175.3l5,14.6C-21378.7,2776.7-21434.4,2696.4-21426.2,2603L-21426.2,2603z M-20786.9,2904
				l-0.3,16.4c-89.8-33.1-193.6-159.2-194.3-281.6c-22.3,35.5-34.8,59.1-54,91.1l-15.8-7.2c25.1-38.8,48.9-80.2,74.1-118.3
				c2.9-4.3,5.2-6.3,5.5,3C-20970.9,2649.5-20955,2822.5-20786.9,2904L-20786.9,2904z M-21517.3,2614.6c2.9-0.2,7,1.1,12.2,4.5
				c8.3,5.3,17.7,22.1,14.6,25.9c-2.8,3.4-15-0.4-21.1-6.7C-21523.7,2626-21524.6,2615.2-21517.3,2614.6z M-21447.7,2615.2
				c9-0.1,16.4,7,16.5,16c0.1,9-7,16.4-16,16.5c-9,0.1-16.4-7-16.5-16C-21463.9,2622.7-21456.7,2615.3-21447.7,2615.2z
				 M-21411.3,2616.1l10.8,12.3c3.9,109,90.5,141.2,89.7,141.5l2.8,11.7C-21312.7,2782.3-21415.2,2737.7-21411.3,2616.1z
				 M-21447.6,2621.1c-5.7,0.1-10.3,4.8-10.2,10.5c0.1,5.7,4.8,10.3,10.5,10.2s10.3-4.8,10.2-10.5
				C-21437.2,2625.5-21441.9,2621-21447.6,2621.1z M-21447.5,2625.6c3.2-0.1,5.8,2.5,5.9,5.7s-2.5,5.8-5.7,5.9
				c-3.2,0.1-5.8-2.5-5.9-5.7S-21450.7,2625.7-21447.5,2625.6z M-21392.4,2634.6c1.3,0,7.6,8.8,7.6,8.8s-6.7,2.5-9.7-0.4
				C-21397.4,2640.1-21395.9,2634.6-21392.4,2634.6z M-20921,2630.8l16.1,10.6c8.7,73.4,51.9,139.9,116.2,185.4l-0.1,18.2
				C-20867.1,2794-20911.2,2723.7-20921,2630.8z M-21518.5,2641.9c0.3,0,0.5,0,0.8,0c9.8,0,14.1,14.9,3.8,19.4
				c-6.5,2.8-13.7-1-14.5-7.6c-0.6-4.7,2.8-9.8,7.6-11.3C-21520.1,2642.2-21519.3,2642-21518.5,2641.9z M-21385.3,2649.6
				c2.6,0,5.4,1.4,8,4.3c7.1,7.8,7.1,10.1-0.2,13.2c-10.3,4.4-19-1.3-15.7-10.3C-21391.5,2652.1-21388.6,2649.6-21385.3,2649.6z
				 M-21491.6,2651.7c0.8,0,1.6,0.1,2.4,0.3c7.7,2.9-8.4,33.5-19.3,36.8c-6.9,2.1-8.4-0.6-6.3-11.3
				C-21512.5,2665.6-21499.7,2652-21491.6,2651.7z M-21442.7,2651.6c9-0.1,16.4,7,16.5,16c0.1,9-7,16.4-16,16.5
				c-9,0.1-16.4-7-16.5-16C-21458.9,2659.1-21451.7,2651.7-21442.7,2651.6z M-21442.7,2657.5c-5.7,0.1-10.3,4.8-10.2,10.5
				s4.8,10.3,10.5,10.2c5.7-0.1,10.3-4.8,10.2-10.5S-21436.9,2657.4-21442.7,2657.5z M-21483.3,2659c1.7,15,4.4,28.9,11.4,47.3
				c-6.4-9.9-15.5-14.7-24.1-20.3C-21490.2,2677-21483.4,2668-21483.3,2659z M-21442.6,2662c3.2-0.1,5.8,2.5,5.9,5.7
				s-2.5,5.8-5.7,5.9s-5.8-2.5-5.9-5.7S-21445.8,2662.1-21442.6,2662z M-21350.5,2662.3c17-0.6,29.2,13.1,28.7,26.5
				c0.8,15.5,1.5,25.5,0.5,44.8l-14.2-25c-0.3-7.1,0.8-12.6,0.1-19.7c-1.9-19.1-20.6-16.1-21.4-14.2l-6.1-9.5
				C-21358.5,2663.4-21354.4,2662.4-21350.5,2662.3z M-21290.7,2663.2c15.9-0.3,25.3,8.5,26,24.4c1.4,30.5,1,100.2,1,100.2
				l-34.4,0.6l-19.5-46.2c0,0-0.8-4.5-0.7-7.7c0.9-14.9-0.1-31.5,0.2-45C-21316.4,2675.1-21304.9,2663.5-21290.7,2663.2z
				 M-21370.2,2669.4c2.2-0.1,4.3,0.6,5.9,2.1c8.1,7.9,8.2,13.2,0.1,17c-10.6,5-16.2,4.2-20-2.9
				C-21387.8,2678.6-21378.1,2669.6-21370.2,2669.4z M-20868.7,2663.3l8.8,5.5c0,0-1.8,2.9-2.8,4.6c-4.8,8.6,3.7,13.5,15.3,8.7
				c2.1-0.9,3.9-2,3.9-2l7.3,4.8c0,0-5.1,2.9-10.8,5.8c-14.4,7.4-24.9,4.5-28.7-7.8c-1.5-4.9-0.2-11,2.5-14.6
				C-20871.8,2666.4-20868.7,2663.3-20868.7,2663.3z M-21237.6,2670.4c13.3-0.7,26.4,9.5,29.7,23.4c1.4,6.5,1.2,93.1,1.2,93.1
				l-52.8,0.8l-0.6-90.8c-0.4-5.7-0.2-11.4,2.8-15.5C-21251.6,2674.1-21244.6,2670.8-21237.6,2670.4z M-21292.4,2675.3
				c-10.7,0.7-16.4,18-5.3,26c4.6,3.3,4.7,4,2.5,15.5c-2.6,13.2,0.6,31.1,7.3,41.1c5.2,8.3,4.1,4,1.4-3.4c-3.5-14-2.1-24.3,5.7-40.7
				c7-13.8,13.6-35-9.4-38.5C-21291,2675.3-21291.7,2675.2-21292.4,2675.3z M-20854,2672l4.8,3.1c0,0-0.7,0.6-1.7,1.6
				c-1.9,1.9-5.7,2.2-6.9,0.8C-20859.7,2675.3-20854,2672-20854,2672z M-21234.4,2685c-11.5-0.2-18.7,21.2-3.9,26.1
				c3.4,2.1,4,4.9,2,8.9c-2.7,5.4-5.3,18.1-4.7,23.4c0.7,7.6,2.9,17.5,4.4,20.9c4,9.4,3.2,5.7,2-5.3c-0.6-12.3,1.7-21.2,8.7-33
				c8.2-14.2,19.5-37.3-7.3-41C-21233.6,2685-21234,2685-21234.4,2685L-21234.4,2685z M-21431.7,2688.3c9-0.1,16.4,7,16.5,16
				s-7,16.4-16,16.5s-16.4-7-16.5-16C-21447.8,2695.9-21440.6,2688.5-21431.7,2688.3z M-21356.2,2688.7c2.8-0.1,4.9,1.8,7.6,5.5
				c7.2,10.4,6.4,12.5-7,20.2c-14.2,8.1-24.1-11.6-10.6-21c4.1-2.8,7-4.4,9.4-4.7C-21356.6,2688.7-21356.4,2688.7-21356.2,2688.7z
				 M-21505.1,2692c15.1-0.1,39.1,21.1,27.7,24.4c-1.6,0.5-3.7,0.8-4.6,0.8C-21501.1,2716.3-21523.3,2692.1-21505.1,2692z
				 M-21431.6,2694.2c-5.7,0.1-10.3,4.8-10.2,10.5c0.1,5.7,4.8,10.3,10.5,10.2s10.3-4.8,10.2-10.5
				C-21421.1,2698.7-21425.9,2694.1-21431.6,2694.2z M-20832.1,2687.4l7.6,5c0,0-4.6,2.2-10,5.2c-14.6,8.1-18.8,14-13.6,19.1
				c1.9,1.8,4,2.6,7.9,1c10.2-4.1,19.6-11.3,29-17l5.7,3.8c-0.1-0.3-22.3,16.3-34.4,23.3c-19.1,10.2-30.4-9.8-19.9-23.5
				C-20851.7,2696-20842.9,2693.2-20832.1,2687.4z M-21431.5,2698.8c3.2-0.1,5.8,2.5,5.9,5.7c0.1,3.2-2.5,5.8-5.7,5.9
				c-3.2,0.1-5.8-2.5-5.9-5.7S-21434.7,2698.8-21431.5,2698.8z M-20820.2,2694.1l4.2,2.7c0,0-0.4,0.2-12.9,7.7
				c-13.6,8.1-14.2,8.3-15,7c-0.7-0.4,0.2-3.6,4.4-6.5C-20832.2,2699.9-20819.3,2693.6-20820.2,2694.1z M-21177,2700.4
				c9.3-0.3,18.9,3.9,24.5,13.3c2.9,7.2,3.2,13.9,3.3,21.4l0.6,50.8l-53.2,0.9c0,0-3-34.6-1-63.5
				C-21200.6,2708.9-21189,2700.8-21177,2700.4z M-21342,2710.6c3.4-0.3,5.9,3,9.2,10.1c3.3,7.1,1,11.1-8.9,15.6
				c-1.3,0.6-2.7,1-3.2,1c-10.1-0.8-14.4-12.4-7.3-19.6C-21347.8,2713.3-21344.7,2710.9-21342,2710.6z M-20801.3,2706.9l4.7,2.8
				c0,0-2.3,2.2-19.3,15c-13.7,10.3-15.7,13.1-12.7,18.8c2.4,4.5,7.5,3.9,14.4-1.6c9.6-7.6,24.7-20.5,24.7-20.5l0.6,8.6
				c-9.9,8.3-21.9,22.3-31.4,27.7c-18.5,9.5-32.3-15.5-15.5-28.2C-20821.3,2718.4-20801.3,2706.9-20801.3,2706.9z M-21174.7,2713.1
				c-13.9,0.1-18.7,20.8-3.7,25c4.3,2.2,4,3.4,1.3,13.8c-1.6,6.3-2.1,13.9-1,18.8c1.2,6.2,2.6,6,1.9-0.6c0-3.6,3.6-13.5,7.2-19.6
				C-21155.5,2730.8-21159.4,2713-21174.7,2713.1L-21174.7,2713.1z M-21498.7,2718.7c9.2-0.1,14.5,12.6,6.7,18.2
				c-5.6,4-17.4-0.6-17.5-6.7c-0.1-5.3,4-10.3,9-11.3C-21499.9,2718.8-21499.3,2718.7-21498.7,2718.7L-21498.7,2718.7z
				 M-21472.3,2719.3c2.9-0.1,4.6,4.1,4.7,12.5c0.2,12-3.9,22.5-11.2,28.8c-10.5,9-13.3-15.1-3.6-31.2
				C-21478.3,2722.7-21474.8,2719.4-21472.3,2719.3z M-20791.5,2711.3c2.6-0.1,2.2,1.9-0.8,4.1c-2.3,1.7-6.3,5-18.5,15.7
				c-2.2,1.9-5.4,4.5-7.1,5.6c-4.1,2.8-7.6,2.2-5.6-1.1C-20821.5,2732.4-20793.9,2711.3-20791.5,2711.3z M-21414.9,2722.1
				c9-0.1,16.4,7,16.5,16c0.1,9-7,16.4-16,16.5s-16.4-7-16.5-16C-21431,2729.7-21423.8,2722.3-21414.9,2722.1z M-21414.8,2728
				c-5.7,0.1-10.3,4.8-10.2,10.5c0.1,5.7,4.8,10.3,10.5,10.2s10.3-4.8,10.2-10.5C-21404.3,2732.5-21409,2727.9-21414.8,2728z
				 M-21609.3,2731.5c111,53.8,181.3,156.8,200.2,275.1l52.1-85.7l14.5,5.2l-75.8,128.3l-3.4-1c-2.4-124-66.1-240.4-187.5-302.8
				L-21609.3,2731.5z M-21414.7,2732.6c3.2-0.1,5.8,2.5,5.9,5.7c0.1,3.2-2.5,5.8-5.7,5.9c-3.2,0.1-5.8-2.5-5.9-5.7
				C-21420.4,2735.3-21417.9,2732.6-21414.7,2732.6z M-21460.1,2734c5,10.6,11,21.6,20.3,34.2c-9.3-8.5-19.3-7.9-29.3-9.1
				L-21460.1,2734z M-21329.2,2734.1c1.7-0.1,3.4,0.6,4.8,2.4c4.6,6.1,5.5,11.8,2.4,15c-4.2,4.3-11.1,2.8-14.3-3.2
				C-21339.5,2742-21334.3,2734.5-21329.2,2734.1z M-20789.3,2733.8l0.3,9.6c0,0-2,2.5-4.2,4.6c-6,5.8-14.3,15.1-14.8,17.5
				c-1.8,7.6,5.7,10.3,13,4.6c2.5-2,6.1-5,6.1-5l0.2,11.8c-6.2,5.4-12.3,10.7-20.8,9.1c-5-1.4-9.4-5.3-10.4-10.2
				c-3.8-14.9,10.5-23.4,21.6-33.6C-20794.7,2739-20789.3,2733.8-20789.3,2733.8z M-21391.4,2752.2c0.3,0,0.5,0,0.8,0
				c9-0.1,16.4,7,16.5,16c0.1,9-7,16.4-16,16.5s-16.4-7-16.5-16C-21406.8,2760-21400,2752.7-21391.4,2752.2z M-21064.6,2750.4
				c8.9-0.2,13.8,11.7,6.7,18.6c-2.8,2.7-9.1,4.7-12.7,2.3C-21080.6,2764.5-21073.5,2751-21064.6,2750.4z M-21082.2,2760.2
				c5.2,5.4,9.4,21.1,6.4,24.1c-6.6,7-26.4-15.6-25.5-30.7C-21099.3,2744.6-21084.1,2758.2-21082.2,2760.2z M-21320.1,2755.5
				c3.7,0,4.5,3.3,3.7,5.3c-0.8,1.9-3.7,2.1-6,1.2C-21326.4,2760.4-21324.7,2755.5-21320.1,2755.5z M-21390.5,2758
				c-5.7,0.1-10.3,4.8-10.2,10.5c0.1,5.7,4.8,10.3,10.5,10.2c5.7-0.1,10.3-4.8,10.2-10.5C-21380.1,2762.5-21384.8,2758-21390.5,2758
				z M-21467.9,2763.9c19.6-0.3,40.6,14.8,22.6,18.2c-13.3,2.5-22,0-32.6-9.3c-5.4-4.7-3.5-7.3,6.1-8.6
				C-21470.5,2764-21469.2,2763.9-21467.9,2763.9L-21467.9,2763.9z M-21390.4,2762.6c3.2-0.1,5.8,2.5,5.9,5.7s-2.5,5.8-5.7,5.9
				s-5.8-2.5-5.9-5.7S-21393.6,2762.6-21390.4,2762.6z M-21363,2776.9c0.3,0,0.6,0,0.8,0c9-0.1,16.4,7,16.5,16c0.1,9-7,16.4-16,16.5
				s-16.4-7-16.5-16C-21378.3,2784.7-21371.6,2777.4-21363,2776.9z M-21043.2,2772.4c4.6-0.2,8.7,0.7,11.1,2.8
				c2.9,2.6-1.3,7.7-10.1,12.2c-10.2,5.2-28.2,4.8-28.3-0.6C-21070.5,2779.5-21055.1,2772.8-21043.2,2772.4z M-21434.9,2783.2
				c9-0.1,11.9,27.8,4.3,41.4c-4,7-9.5,2.5-13.6-11.2C-21447.6,2802.1-21441.8,2783.2-21434.9,2783.2z M-21362.1,2782.8
				c-5.7,0.1-10.3,4.8-10.2,10.5c0.1,5.7,4.8,10.3,10.5,10.2s10.3-4.8,10.2-10.5C-21351.6,2787.2-21356.4,2782.7-21362.1,2782.8z
				 M-21024.9,2779c0.8,0,1.7,0.4,3,1c9.9,4.7,17.5,27.1,12.5,37.3c-5.2,10.7-17.7-9.5-17.9-29c-0.1-6.4,0.3-9,2.1-9.2
				C-21025.1,2779-21025,2779-21024.9,2779z M-21460.4,2787.7c0.2,0,0.4,0,0.6,0c8.9,0.1,15.6,12.3,7.3,18.7
				c-3.6,2.8-9.3,3.4-12.8,1.2c-6.9-4.2-6.7-14.8,0.3-18.6C-21463.4,2788.2-21461.9,2787.7-21460.4,2787.7z M-21362,2787.3
				c3.2-0.1,5.8,2.5,5.9,5.7c0.1,3.2-2.5,5.8-5.7,5.9c-3.2,0.1-5.8-2.5-5.9-5.7C-21367.8,2790-21365.2,2787.4-21362,2787.3z
				 M-21422.8,2790.3c5,7.2,25.1,26,27.8,27.6c-8.8-2.7-17.7-1.3-26.7,0C-21420.7,2811.2-21419.8,2800.3-21422.8,2790.3z
				 M-21105.5,2786.7c134.3,29.1,218.4,169.7,188.3,303.5c0,0-11.4-6.1-13.2-9.1c4.4-23.1,6.7-59.7,0.1-96.3
				c-11.1-62.1-63.1-152.6-174.2-182.1C-21105.7,2798.6-21105.5,2786.7-21105.5,2786.7z M-21033.4,2786.4c1.7,9.1,3.3,18.2,5.7,26.4
				c-9.5-6.6-20.3-12.3-31.3-16.8C-21051.3,2794.3-21044.2,2792.8-21033.4,2786.4z M-20994.7,2788.7c5.3-0.2,10.8,3.5,10.8,10
				c0,2.9-3,8.1-5.4,9.4c-8.8,4.7-18.1-3.8-14.3-13.1C-21002,2790.9-20998.4,2788.9-20994.7,2788.7z M-21330.9,2797.8
				c9-0.1,16.4,7,16.5,16s-7,16.4-16,16.5c-9,0.1-16.4-7-16.5-16C-21347,2805.4-21339.8,2798-21330.9,2797.8z M-21330.8,2803.7
				c-5.7,0.1-10.3,4.8-10.2,10.5c0.1,5.7,4.8,10.3,10.5,10.2s10.3-4.8,10.2-10.5C-21320.3,2808.2-21325.1,2803.6-21330.8,2803.7z
				 M-21607.6,2809.8c67.1,38.1,128.2,120.6,134.1,214.9l-16.3-10.3c-8-63.5-41.7-132.1-118.1-187.5
				C-21607.9,2827-21607.8,2820.9-21607.6,2809.8z M-21239.5,2803.8l85.9-1.4l0.3,18.5l25.6-13.7l0.7,41l-26-15.2l0.3,17.9
				l-85.9,1.4l-0.3-18.8l-26.1,13.2l-0.4-40.8l26.3,14.2L-21239.5,2803.8z M-21330.7,2808.3c3.2-0.1,5.8,2.5,5.9,5.7
				s-2.5,5.8-5.7,5.9c-3.2,0.1-5.8-2.5-5.9-5.7S-21333.9,2808.3-21330.7,2808.3z M-21296.8,2811c0.1,0,0.2,0,0.3,0l1.1,5.9
				c-0.2,0-0.3,0-0.5,0c-5.7,0.1-10.3,4.8-10.2,10.5c0.1,5.7,4.8,10.3,10.5,10.2c1.4,0,2.7-0.3,3.9-0.8l1.1,5.9
				c-1.5,0.5-3.2,0.8-4.9,0.8c-9,0.1-16.4-7-16.5-16C-21312.1,2818.7-21305.4,2811.5-21296.8,2811z M-21102.7,2809.8
				c0.3,0,0.6,0,0.8,0c9-0.1,16.4,7,16.5,16c0.1,7.7-5.2,14.2-12.3,16l-1.1-5.8c4.4-1.3,7.6-5.3,7.5-10.1
				c-0.1-5.7-4.8-10.3-10.5-10.2c-0.2,0-0.5,0-0.7,0l-1.1-5.8C-21103.3,2809.9-21103,2809.8-21102.7,2809.8z M-20988.5,2813.4
				c20.1-0.2,28.6,11.2,12.2,16.3c-7.6,2.4-17.6,1.4-27.5-2.8C-21012,2823.4-21000.9,2813.5-20988.5,2813.4z M-21407.9,2821.4
				c4.9-0.1,9.6,0.6,13.1,2.2c8.5,3.8,8.3,6.5-0.6,11.9c-12.4,7.4-42,0.6-33.2-7.7C-21424.5,2823.9-21416,2821.6-21407.9,2821.4z
				 M-21295.8,2821.4c0.4,0,0.9,0,1.3,0.1l2,10.5c-0.9,0.6-1.9,0.9-3.1,1c-3.2,0.1-5.8-2.5-5.9-5.7
				C-21301.6,2824.1-21299,2821.4-21295.8,2821.4z M-21101.6,2820.2c3.2,0,5.8,2.5,5.8,5.7c0,2.5-1.5,4.7-3.8,5.5L-21101.6,2820.2z
				 M-21066.2,2823.8c9-0.1,16.4,7,16.5,16s-7,16.4-16,16.5s-16.4-7-16.5-16C-21082.3,2831.3-21075.1,2823.9-21066.2,2823.8z
				 M-21382.9,2833.1c1-0.1,2.1,0.4,3.2,1.3c9.9,7.8,15,24.6,11.4,37.2c-3.5,12-19-9-19.2-25.9
				C-21387.5,2837.9-21385.8,2833.3-21382.9,2833.1z M-20961.5,2827.6c1.3,0,2.8,1,4.2,3.3c6.2,10,6.3,30.8,0.1,37.4
				c-3.5,3.7-4.8,3.1-8.7-4.4C-20972.4,2851.2-20968,2827.6-20961.5,2827.6z M-21066.1,2829.7c-5.7,0.1-10.3,4.8-10.2,10.5
				c0.1,5.7,4.8,10.3,10.5,10.2s10.3-4.8,10.2-10.5C-21055.6,2834.2-21060.3,2829.6-21066.1,2829.7z M-21369.9,2837.5
				c12.4,7.6,25.1,14.4,38.3,20.1c-12.3-2.7-21.3,1.6-30.5,7.3C-21360.5,2854.6-21364.1,2846.3-21369.9,2837.5z M-21000.6,2833.6
				c9.2,1.1,18.3,2.5,28.9,0.3c-1.8,9-2.3,18.2-1.3,27.6C-20981.2,2851.4-20990.1,2841.9-21000.6,2833.6L-21000.6,2833.6z
				 M-21066,2834.2c3.2-0.1,5.8,2.5,5.9,5.7s-2.5,5.8-5.7,5.9c-3.2,0.1-5.8-2.5-5.9-5.7S-21069.2,2834.3-21066,2834.2z
				 M-21395.7,2845.2c7.6,3.6,8,12.7,0.7,17.6c-9.1,6.2-21.3-4.2-15.7-13.3C-21405.6,2843.3-21402.1,2843.3-21395.7,2845.2
				L-21395.7,2845.2z M-21033.2,2844.5c9-0.1,16.4,7,16.5,16c0.1,9-7,16.4-16,16.5s-16.4-7-16.5-16
				C-21049.3,2852-21042.1,2844.6-21033.2,2844.5z M-20937.9,2845.7c1.6-0.1,3.2,0.3,4.8,1.1c5.8,2.9,7.2,10.6,2.7,15.2
				c-5,5.1-12,4.3-15.5-1.6C-20950,2853.5-20944.7,2845.9-20937.9,2845.7z M-21094.8,2850.6c80.5,25.9,135.7,114.2,124.1,200.2
				l-10.2-9.3c6.8-48.7-21.4-141.2-111.3-177.8L-21094.8,2850.6z M-21033.1,2850.4c-5.7,0.1-10.3,4.8-10.2,10.5
				c0.1,5.7,4.8,10.3,10.5,10.2s10.3-4.8,10.2-10.5C-21022.6,2854.9-21027.3,2850.3-21033.1,2850.4z M-21033,2854.9
				c3.2-0.1,5.8,2.5,5.9,5.7c0.1,3.2-2.5,5.8-5.7,5.9s-5.8-2.5-5.9-5.7S-21036.2,2855-21033,2854.9z M-21337.5,2861
				c4.1,0.3,11-0.6,12.7,3.3c1.9,4.8-8,13.4-20.6,15.3c-5.2,0.4-16.2,1.9-18.6-1.8C-21366.3,2873.2-21351.6,2861.4-21337.5,2861z
				 M-21591.7,2868.1c10.8-0.7,23.3,13.6,12.5,25.6c-8.6,9.2-26.4,21.9-26.4,21.9l-0.1-7.9c0,0,17.4-13.2,17.6-18.9
				c-0.1-6.7-5.7-10.4-11.8-6.3c-1.2,0.8-6,4.8-6,4.8l0.2-13.3C-21602.5,2870.3-21596.8,2868.4-21591.7,2868.1L-21591.7,2868.1z
				 M-21315.1,2866.9c8,0.2,27.1,28.6,22.5,34.5c-3.7,4.7-19-5.3-24.8-16.3c-3.1-5.9-2.4-16.5,1.3-18
				C-21315.8,2866.9-21315.5,2866.9-21315.1,2866.9z M-21191.2,2868.3c0,0,1.9,66.7-1.7,73.1c-14.6,27.5-47.3,13.8-50.4-6.5
				c-2.2-12.3-1.9-65.6-1.9-65.6L-21191.2,2868.3z M-21186.5,2868.2l51.9-0.9c0,0,1.3,94-0.7,99.4c-1.6,4.4-9,12.1-13.7,14.3
				c-15.1,6.9-31.6-2.3-35.9-20C-21188,2948.2-21186.5,2868.2-21186.5,2868.2L-21186.5,2868.2z M-21130.2,2867.3l34.4-0.6
				c0,0,1.3,5,2.7,9c2.5,7.1,11,27.4,11.9,28.7c4.3,5.5,5.5,67,1.5,74c-14.8,23-40.2,16.8-49.9-8.3
				C-21132,2962.2-21130.2,2867.3-21130.2,2867.3z M-21090,2869c62.3,28.3,110.6,89.8,106,169.7l-11.5-11.1
				c3.2-55.2-39.9-123.4-89.2-143L-21090,2869z M-21004.9,2869.4c9-0.1,16.4,7,16.5,16c0.1,9-7,16.4-16,16.5c-9,0.1-16.4-7-16.5-16
				C-21021.1,2877-21013.9,2869.6-21004.9,2869.4z M-20944,2870.1c6,0,13.5,2,19.1,6.4c6.7,5.3,7.7,9.6,2.6,11.3
				c-9.8,3.2-21.8,0.5-29.3-6.8C-20958.7,2874.3-20952.8,2870.1-20944,2870.1z M-21004.8,2875.3c-5.7,0.1-10.3,4.8-10.2,10.5
				c0.1,5.7,4.8,10.3,10.5,10.2s10.3-4.8,10.2-10.5C-20994.4,2879.8-20999.1,2875.2-21004.8,2875.3z M-21330.3,2882
				c8.7-0.1,12.8,12,6.3,18.3c-2.7,2.6-10.1,3.2-13.4,1.2C-21346.4,2895.9-21341.4,2882.1-21330.3,2882z M-21215.7,2883.2
				c-2.7,8.3-7.2,17.7-10.9,24.1c-9.9,17.2-8.4,28.6,2.5,34.2c16,8.2,27.1-14.7,11.4-23.4c-5.5-3-5.5-3.1-3.7-11.6
				C-21214.2,2896-21214,2883.4-21215.7,2883.2z M-21004.8,2879.9c3.2-0.1,5.8,2.5,5.9,5.7s-2.5,5.8-5.7,5.9
				c-3.2,0.1-5.8-2.5-5.9-5.7C-21010.5,2882.6-21008,2879.9-21004.8,2879.9z M-21160,2885.8c-0.7,0-0.1,4.2,0,11.7
				c0.1,12.2-0.8,15.9-8.3,32.3c-9.6,21-8,35.2,4.4,39.6c9.6,3.4,18.8-4,18.7-15.2c-0.1-5.3-2.5-9.4-6.1-10.4
				c-3.3-0.2-7-1.6-6.7-3.2C-21156.5,2928.1-21146.1,2904.5-21160,2885.8z M-20954.8,2884.1c8.1,4.9,16.5,9.6,28.4,10
				c-4.9,12.3-4.2,21.2-4.9,31C-20936.6,2912-20944.8,2897.6-20954.8,2884.1L-20954.8,2884.1z M-21567.5,2896.1c0.6,0,1.3,0,1.9,0.1
				c7.7,1.1,14.3,10.8,12.4,18.1c-1.7,6.4-2.2,7.5-26.7,24.4c-13.6,9.4-15,9.8-15,9.8l-7.4-4.8c0,0,6.2-4.3,15.9-11
				c18.8-13.1,21.5-16.1,19.4-21.8c-2.2-6.2-9.3-4.7-20.4,4.1c-16.4,13.1-18.1,13.9-18.1,13.9l-0.1-7.6c0,0,7.2-5.9,10.3-8.7
				C-21587.6,2907-21577.1,2896.4-21567.5,2896.1z M-21076.5,2891.3c1.9-0.1,3.3,1.7,2.7,3.3c-0.3,0.8-1.4,1.3-2.8,1.3
				c-3,0-3.2-4.2-0.3-4.6C-21076.7,2891.3-21076.6,2891.3-21076.5,2891.3L-21076.5,2891.3z M-20909.7,2897.4
				c3.7,12-3.5,32.2-8.1,34.8c-4.8,5-8,0.4-9.3-12.2C-20927.2,2909.8-20916,2877.7-20909.7,2897.4z M-21107.4,2894
				c1.8,17.3,2.6,31.7-5.3,45.9c-10.2,18.4-7.2,34,4.1,37.3c11.3,3.3,21.1-4.9,18.9-15.8c-0.7-3.3-5.3-8.7-8.2-9.4
				c-3.5-0.8-3.9-3-2.1-9.9c3.6-13.4,2-30.2-3.9-42.3C-21104.4,2897.9-21106.6,2893.9-21107.4,2894L-21107.4,2894z M-21069.5,2899.1
				c9.5-0.1,14.1,12.1,7.2,18.8c-3.9,3.7-6.4,2.1-10.7-6.7C-21077,2903-21075.9,2899.2-21069.5,2899.1z M-20981.2,2900.2
				c9-0.1,16.4,7,16.5,16c0.1,9-7,16.4-16,16.5c-9,0.1-16.4-7-16.5-16C-20997.4,2907.7-20990.2,2900.3-20981.2,2900.2z
				 M-20981.1,2906.1c-5.7,0.1-10.3,4.8-10.2,10.5c0.1,5.7,4.8,10.3,10.5,10.2s10.3-4.8,10.2-10.5
				C-20970.7,2910.5-20975.4,2906-20981.1,2906.1z M-20981,2910.6c3.2-0.1,5.8,2.5,5.9,5.7c0.1,3.2-2.5,5.8-5.7,5.9
				c-3.2,0.1-5.8-2.5-5.9-5.7C-20986.8,2913.3-20984.2,2910.7-20981,2910.6z M-21050.8,2916.1c1.3-0.1,2.6,0.1,3.8,0.7
				c8.6,4,7.9,15.9-1.4,23.1c-5.9,4.6-8.5,3.1-14.2-8.4C-21065.8,2925.2-21057.9,2916.5-21050.8,2916.1z M-21547.6,2925.6
				c0.9,0,1.7,0.1,2.5,0.3c8.9,2.3,14.6,12.5,12.6,20.4c-4.7,12.2-21.1,16.5-33.5,21.8l-6.6-4.6c0,0,9.1-5.4,17.9-9.6
				c8.3-4,9.6-5.5,8.9-10.4c-1.4-9.5-5.9-9-26.5,2.5c-8.4,4.7-14.5,8.8-14.5,8.8l-4.7-3.7c6.8-4.6,10.9-7.2,18.3-12.5
				c12.4-8.8,19.5-12.6,24.7-12.9C-21548.2,2925.6-21547.9,2925.6-21547.6,2925.6L-21547.6,2925.6z M-20887.4,2921.7
				c3.2,9.1-2.9,17.3-12.2,13.8c-5.1-1.9-8.7-8.3-5.7-14.3C-20901.3,2914.7-20889.6,2915.6-20887.4,2921.7z M-21073.7,2921.6
				l15.1,26c0,0,0.3,7.3,0.5,11.4c0.8,17,4.6,22.6,14.5,20.8c0.7-0.1,4.3-1.2,4.3-1.2l6.5,10.6c0,0-6.8,3.1-8.6,3.5
				c-11.7,2.7-28.1-5.9-30.9-17.7C-21074.9,2963.7-21073.7,2921.6-21073.7,2921.6L-21073.7,2921.6z M-21552.6,2940.3
				c4.4,0.2,2.6,3.7,0.6,4.8c-8.5,4.5-16.6,9.4-25.4,14.7l-6.1-3.6c0,0,4.6-2.7,7.7-4.7
				C-21566,2945.3-21556.1,2940.5-21552.6,2940.3z M-20964.9,2934c9-0.1,16.4,7,16.5,16c0.1,9-7,16.4-16,16.5s-16.4-7-16.5-16
				C-20981,2941.5-20973.8,2934.1-20964.9,2934z M-21033.7,2937.3c3.7-0.2,6.9,1.4,9,4.7c4.5,7.1,0,16-10.5,20.9
				c-5.8,2.7-6.8,2.2-13.3-7c-4.3-6.2-4.3-7.3,0.3-11.4C-21042.9,2940-21037.9,2937.5-21033.7,2937.3L-21033.7,2937.3z
				 M-21604.7,2948.2l235.5,147.1l-6.5,11.4l-228.4-144.2L-21604.7,2948.2z M-20912.3,2938.7c14.2,0,32.9,16.1,26.5,22.7
				c-0.7,0.7-2,1.2-3,1.2C-20909,2961.8-20931.7,2938.7-20912.3,2938.7z M-20964.8,2939.9c-5.7,0.1-10.3,4.8-10.2,10.5
				c0.1,5.7,4.8,10.3,10.5,10.2s10.3-4.8,10.2-10.5C-20954.3,2944.3-20959.1,2939.8-20964.8,2939.9z M-21276,2947.9l6.4,15.9
				l-112.9,186.6l-11.5-7.1L-21276,2947.9z M-20964.7,2944.4c3.2-0.1,5.8,2.5,5.9,5.7s-2.5,5.8-5.7,5.9c-3.2,0.1-5.8-2.5-5.9-5.7
				C-20970.5,2947.1-20967.9,2944.5-20964.7,2944.4z M-20922.1,2945.7c5.9,10.5,15.4,16.8,26.3,21.1c-10,8.5-15,19.5-14.4,30.9
				C-20913,2980.6-20915.5,2963.7-20922.1,2945.7z M-21535.1,2961.4c2.5,0,4.7,0.5,6.5,1.6c22,14.5,2.3,29.6,0.4,28.5l-7.5-4.6
				c2.5-4.3,8.2-10.1-1.2-15.3c-5.3-2.2-11.1,0.6-16.2,4.3l-7.9-5.2C-21561,2970.8-21545.9,2961.5-21535.1,2961.4L-21535.1,2961.4z
				 M-21022.4,2961.3c0.8,0,1.6,0,2.4,0.1c12.3,2.2,11.7,15.2-1,21.4c-7.2,3.6-8.5,2.9-15.1-8
				C-21039.2,2969.9-21030.3,2961.7-21022.4,2961.3z M-21538.8,2974.6c1.3,0,3,1.1,3.2,2.2c0.7,3.4-5.6,6.9-5.6,6.9l-7.4-4.7
				C-21545.5,2977.3-21542.3,2974.9-21538.8,2974.6z M-20885.1,2966.9c1.8-0.2,3.1,0.6,3.6,2.8c2.7,10.1-8.3,29-18.6,32.2
				c-6,1.9-7.8-0.9-6-9.4C-20903.5,2980.8-20891.5,2967.5-20885.1,2966.9L-20885.1,2966.9z M-21261,2973.9l19.1,13.4l-110.3,180.8
				l-19.8-11.3L-21261,2973.9z M-20952.9,2970.3c9-0.1,16.4,7,16.5,16c0.1,9-7,16.4-16,16.5s-16.4-7-16.5-16
				C-20969,2977.8-20961.8,2970.4-20952.9,2970.3z M-20952.8,2976.2c-5.7,0.1-10.3,4.8-10.2,10.5s4.8,10.3,10.5,10.2
				s10.3-4.8,10.2-10.5C-20942.3,2980.7-20947.1,2976.1-20952.8,2976.2z M-20952.7,2980.7c3.2-0.1,5.8,2.5,5.9,5.7
				c0.1,3.2-2.5,5.8-5.7,5.9c-3.2,0.1-5.8-2.5-5.9-5.7S-20955.9,2980.8-20952.7,2980.7z M-21212.9,2985.6
				c12.5,13.7,26.8,44.4,74.8,29c16.6,13.1,39.4,20.3,67.1,5l1.6,83.5l-214,3.8L-21212.9,2985.6z M-21603.7,2994.2l213,135.2
				l-6.4,11.8l-206.5-127.2L-21603.7,2994.2z M-21012,2984.6c0.2,0,0.4,0,0.5,0c10.8,2.5,12.2,13.2,2.3,17.5
				c-5.3,2.3-6.4,1.8-11.7-5.7c-2.1-3-3.3-5.4-3-6.2C-21023.2,2988.4-21015.1,2984.6-21012,2984.6L-21012,2984.6z M-20876.6,2993.7
				c3.8,0,7.5,1.9,9.4,5.8c2.7,5.9,1.3,10.8-4.1,14.2c-8.9,5.6-19.1-4.2-14.6-14C-20884.2,2995.8-20880.4,2993.8-20876.6,2993.7
				L-20876.6,2993.7z M-21008.4,3007.2c5-0.1,9.2,4.6,6.8,7.5c-1.6,1.9-3.6,1.4-6.3-1.6
				C-21011,3009.7-21011.2,3007.3-21008.4,3007.2L-21008.4,3007.2z M-20947.9,3008.3c9-0.1,16.4,7,16.5,16c0.1,9-7,16.4-16,16.5
				s-16.4-7-16.5-16C-20964.1,3015.9-20956.9,3008.5-20947.9,3008.3z M-20902.1,3008.5c12.3-0.1,29.6,20.1,26.9,31.4
				c-0.9,3.7-7.8,1.8-16.1-4.3C-20902.4,3027.2-20909.9,3008.5-20902.1,3008.5z M-20947.8,3014.2c-5.7,0.1-10.3,4.8-10.2,10.5
				c0.1,5.7,4.8,10.3,10.5,10.2c5.7-0.1,10.3-4.8,10.2-10.5C-20937.4,3018.7-20942.1,3014.1-20947.8,3014.2z M-20908.4,3015.7
				c3.6,9.9,7.2,20.1,22.6,27.1c-23.5,11.4-27.8,30.1-23.8,54l-5.6-3.3C-20910.5,3071.9-20907,3047.5-20908.4,3015.7
				L-20908.4,3015.7z M-20947.8,3018.8c3.2-0.1,5.8,2.5,5.9,5.7s-2.5,5.8-5.7,5.9c-3.2,0.1-5.8-2.5-5.9-5.7
				S-20951,3018.8-20947.8,3018.8z M-20950.4,3044.9c9-0.1,16.4,7,16.5,16c0.1,5.7-2.7,10.7-7.1,13.7l-5.3-3.8
				c3.9-1.6,6.6-5.4,6.5-9.8c-0.1-5.7-4.8-10.3-10.5-10.2c-5.4,0.1-9.8,4.4-10.1,9.7l-5.3-3.9
				C-20963.8,3050-20957.7,3045.1-20950.4,3044.9z M-20876.3,3045.8c7.7-0.1-3.9,21.6-14.9,27.6c-8.3,4.6-16,5.1-16.1,1
				C-20907.4,3063.7-20888.1,3045.9-20876.3,3045.8z M-20950.2,3055.4c3.2-0.1,5.8,2.5,5.9,5.7c0.1,3.2-2.5,5.8-5.7,5.9
				c-3.2-0.3-5.8-2.8-5.9-5.7C-20955.9,3058.1-20953.4,3055.4-20950.2,3055.4z M-20878.3,3073.8c3.8,0,7.6,1.6,9.3,4.8
				c2.1,4.1,1.4,7.9-2.3,11.7c-9.2,9.4-22.1,0.1-16.2-11.7C-20885.9,3075.4-20882.1,3073.8-20878.3,3073.8L-20878.3,3073.8z
				 M-20908.1,3083c13,0.2,23.2,16.2,21,25.5c-2,2.5-16.6-8.2-18.1-9.3C-20907.1,3096-20907.3,3090.7-20908.1,3083z
				 M-20925.7,3093.3c14.1,9.1,27.8,17.2,41.2,23.9l-40.3,26.8L-20925.7,3093.3z M-21289.2,3111.5l219.4-2.8l0.2,9.2l-225.4,3.9
				L-21289.2,3111.5L-21289.2,3111.5z M-21297.9,3126.1l14.7-0.2l0.3,18l-20.2,0.3l-0.2-9.9L-21297.9,3126.1z M-21087.1,3123
				l17.7-0.3l0.3,18l-17.7,0.3L-21087.1,3123z M-21261.2,3126l20.2-0.3l0.3,18l-20.2,0.3L-21261.2,3126z M-21219.2,3125.5l21.8-0.4
				l0.3,18l-21.8,0.4L-21219.2,3125.5z M-21174.6,3124.7l21-0.3l0.3,18l-21,0.3L-21174.6,3124.7z M-21129.7,3124.3l20-0.3l0.3,18
				l-20,0.3L-21129.7,3124.3z M-21312,3149.5l243.3-3.4l0.2,10.8l-250.3,3.6L-21312,3149.5z M-21104,3168.7
				c24.8-0.7,39.7,26.7,20.6,46.5c-17.5,18.1-47.6-4.2-33.1-24.5c8.1-11.3,28.6-2.6,23.7,9.4c-3.2,7.9-14.2,4.4-14-4.1
				c0-3.4-2.5-1-2.8,2.6c-0.3,4.6,4.5,9.6,10,9.6c14.4-0.2,16.2-19.3,2.2-26.1c-12.5-6-25.4,2.1-28.1,18c-0.3,1.7-2.3,6.1-3.8,9.2
				c-4.4,9.3-5.8,14.6-7.9,25.1c-1,1.3-4.2,3.5-6.4,4.6c-7,3.6-6.7,2.2-4.3-9.4c7.1-33.2,19.2-54.7,34.3-59.3
				C-21110.3,3169.3-21107.1,3168.8-21104,3168.7L-21104,3168.7z M-21030.7,3169.2c15.3-0.6,27,11.8,29.2,21.5
				c9.3,29.5-29.7,48.3-43.9,21.7c-7.9-15.2,7.6-33.8,22.3-26.9c12,5.6,11.5,23.8-0.6,23.9c-6.6,0.4-10.7-5.4-7.1-10.3
				c1.9-1.9,4.1-0.5,5-3.6c0.4-1.3-1.5-2.3-6-1.4c-7.4,1.6-6.4,16.7,2.3,19.5c13,4.2,23.8-9.5,17.4-22.9c-7.6-16-27.6-15.8-36.5,1.3
				c-1.3,2.5-3.3,6-4.4,7.6c-13.3,18.7-14.3,21.5-18.2,31.9c-0.4,1-1.1,1.8-2.3,1.7c-3.8,0.1-7.4,0.9-9.9,2
				c-1.7-0.4,0.4-6.9,0.6-7.4C-21074.1,3199-21050.8,3170.3-21030.7,3169.2z M-21149.1,3179.2c-3.1,5.7-12.5,24.1-18.8,51.2
				c-1.8-1.1-6.6-3-10.1-4.1c-1.3-0.4-0.3-2-0.4-4.2c2.2-12.2,9.8-33.6,18.3-44.6C-21158.3,3176.1-21146.5,3175.5-21149.1,3179.2
				L-21149.1,3179.2z M-21135.2,3184.4c-8.1,10.7-16.3,39.1-17.9,53.7c-0.2,2.2-0.6,4.6-0.8,5.4c-1.2,4.4-9.5-4.8-9.6-10.6
				c-0.1-9.8,10.3-39.9,17.9-51.5c2.6-4,3-4.7,8.7-5C-21127.6,3176-21131.6,3179.7-21135.2,3184.4L-21135.2,3184.4z
				 M-21541.6,3184.1c-2.1,0.1-4.1,0.4-6.1,0.9c-12,3.2-26.1,16.2-27.3,29.7c-0.7,0.4-2.1,9.9-1,14.7c4.3,18.1,15.1,30.2,28.3,48
				c0,0-15.9,25.5-26.9,37.4l27.1,37.8c-7.1,14.6-19.6,25.7-22.5,43.6c-4.6,23.5,8.1,46.2,34.2,47.9c19.5,0.3,32.1-13.1,34.2-33.1
				c0.8-13.3-5-29.9-25.1-55.8c-1-1.3-2.9-4-2.9-4s2.2-2.6,3.3-4.4c6.8-9.5,24.4-32.6,24.4-32.6l-27.6-37.6c0,0,1.1-2.6,3.2-5.5
				c21.5-30.3,25.3-45.6,21.2-60.5c-1.6-5.8-5.4-10.3-10.4-15.2C-21523.5,3187.5-21532.7,3183.8-21541.6,3184.1L-21541.6,3184.1z
				 M-21542.2,3187.8c8.6-0.3,17.5,3,24.8,10.4c16.8,17,15.6,31.6-5.3,63.9c-4.6,7.1-9.1,14.9-9.1,14.9l27.7,36.9
				c-8.7,12.7-18.6,24-27.6,37.4c4.8,7.1,12.6,14.7,17.5,23.3c5.9,9.7,9.5,19.4,10.7,28.4c2.5,18.8-9.4,39-30.3,39.9
				c-20.3,0.5-36-16.2-35.9-37.4c0-9.5,3.8-18.3,8.4-26.9c4.7-8.8,15.8-25.8,15.8-25.8l-26.8-37.8l27.1-37.5
				c0,0-20.6-24.4-27.1-42.1c-5.4-20.1,3.9-31.8,5.1-33.6C-21561.2,3193-21551.9,3188.1-21542.2,3187.8L-21542.2,3187.8z
				 M-21558.5,3241.8c4.2,10.4,10.9,18.1,18.4,25.5c6.7-8.2,14.2-18.9,18.3-29C-21502.3,3189.3-21580.7,3186.6-21558.5,3241.8z
				 M-21540.4,3262.4c-10.1-11.4-17.3-20.9-18.2-36.1c-1.6-30.2,37.9-27.4,36.4-0.4C-21524.2,3240.7-21531.7,3250.1-21540.4,3262.4z
				 M-21051.9,3206.9c0.8,4.2,5.1,11.4,4.8,13.1c-1.8,4.5-4.6,6.8-8.4,14.2c-0.8,1.6-0.4,1.9-2.6,1.5c-2.1-0.3-5.7-1.3-7.6-1.8
				c-1.1-0.3-2.4-0.9-1.9-2.3C-21064.1,3222.9-21060,3212.5-21051.9,3206.9L-21051.9,3206.9z M-21117.1,3221l-4.4,12.1
				c-0.4,1.3-0.5,1.5-1.8,1.3c-2.7-0.3-5-0.5-7.6-0.2c-5.8-0.6,4.7-22.3,6.3-25.6C-21122.4,3208.9-21118.7,3218-21117.1,3221
				L-21117.1,3221z M-21112.7,3223.7c0.1,0,0.2,0,0.3,0c2.4,0.3,5.9,1.5,8.5,2.6c1.5,0.6,1.5,0.6,0.9,2.4c-1.3,2.7-2.8,10.3-4.5,13
				c0,0.4-8.3-4.7-10.6-5.7C-21118.2,3234.6-21115.7,3224.1-21112.7,3223.7z M-21043.5,3224c2.7,0,6.1,2.4,7.9,3.8
				c0.9,1.7,0.1,3.4-2.8,8.6c-2.6,4.6-5.3,9.6-6,9.1c-2-1.5-5.8-3.5-7.7-6c-1.4-1.9,1.1-6.8,2.9-9.4
				C-21046.4,3225.8-21045.1,3224.2-21043.5,3224z M-21087.5,3224.1c2.5,0.5-1.2,13.4-2,15c-2.3,3.6-5.9,8.3-8.8,10.2
				c-1.5,1-6.1-1.7-6.1-4.9c0-2.3,4.2-13.9,5.6-16.9C-21098.5,3227-21090.3,3224.2-21087.5,3224.1L-21087.5,3224.1z
				 M-21189.2,3230.7c0.6,0,1.1,0,1.7,0c9.8-0.4,20,4.2,26.5,14.9c3.1,5.1,3.1,5.3,2.5,10.1c-1.4,11.2-0.7,18.8,2.3,25.6
				c3.5,7.8,3,10.5-4.9,28c-8,17.7-17.7,39.2-25,59.1c-3.2,8.5-6.2,18.2-8,26.1c-1.2,5-7.3,3.6-13.3,3.4c-3,0.7,4.1-20,14.7-44.7
				c8.5-19.8,20.2-42.2,24.7-64.3c3.6-18,2.2-25.4,0-32.9c-8.7-21.8-37.4-15.9-37,4.3c0.8,13.1,16.1,19.9,21.4,6.9
				c0.8-5.9-2-2.4-4.4,0.5c-5.1,6.2-14.2-0.5-12.9-9.5c1.7-11.9,17-16.1,24.5-6.8c8.3,10.2,6.7,20.8-4.9,29
				c-12,9.1-23.1,4.2-29.3-4.9C-21223.8,3254.8-21206.5,3231.5-21189.2,3230.7L-21189.2,3230.7z M-21129.2,3238.4
				c12,0,25.2,9.9,27.5,17.8c1.2,5.4-0.4,11.8,1.6,17c1.7,4.2,3.3,6.5,2.2,10.3c-9.4,32-32.1,66.3-43.1,104.2
				c-1.3,2.6-2.5,3-5.5,3.9c-4.6,1.4-6.4,1.3-6.9-1.1c-0.5-2.3,1-6.7,3.5-14.9c3.1-9.8,9.9-26.7,14-34.6
				c9.4-18.5,14.7-31.1,21.5-46.9c1.3-2.9,1.6-4.7,3.6-8.9c8.6-18.2-1.8-35.9-20.2-35.7c-14.7,0.2-20.8,23.2-7.9,29.7
				c12.7,6.4,21.7-11,10.5-17c-2.7-1.4-3.4,0-1.2,2.5c5.1,5.9,0.7,14-6.2,10.9c-10.8-4.8-5.6-23.1,6.9-22.2
				c19.3,1.3,22.3,29.3,2.7,36.7c-26.9,10.2-41.8-33.1-16.6-48.1C-21138.5,3239.5-21133.9,3238.4-21129.2,3238.4L-21129.2,3238.4z
				 M-21072.3,3238.3c7.1-0.3,14.6,2.1,20.9,7.9c15.4,14.3,11.7,36.7-13.1,80.5c-8.1,14.7-16,32.2-20.2,45c-1.1,3.2-2,4.8-4.4,6.2
				c-4.4,2.5-9.4,2.9-10.1,1.2c-1.7-4.4,10.5-32,32.3-75.3c5.7-11.6,13-25,12.4-38.6c-1.7-10.8-10.8-18.4-22.8-14.7
				c-8.1,2.5-11.2,14-5.1,19.7c2.5,2.4,5.6,3.6,7.6,3.3c3.7,0.1,7.9-3.7,0.7-4c-7.7,0.1-10.4-9.5-4-13.9c9.2-6.4,20,0.8,19.4,12.9
				c-1.2,24.4-36.8,21.4-38.2-3.7C-21097.9,3249.3-21085.8,3238.9-21072.3,3238.3L-21072.3,3238.3z M-21172.3,3279
				c5.4-0.5-3.4,28.7-19.1,61.5c-8.5,18.2-14.9,37.6-21.5,56.6c-1.8,2.6-13,3.2-13,0.6c18.7-63.8,32.6-74.9,38.9-99.2
				c1.1-4.2,1.9-10.2,2-10.8C-21179.9,3286.3-21175.8,3280.2-21172.3,3279z M-21538.6,3289.4l-20.5,27.7l21,28.7l20.8-28.1
				L-21538.6,3289.4z M-21084.4,3290.3c0,3.3-6,19.1-10.5,28.7c-19.9,41.8-24.8,53.1-28.1,64.2c-0.6,2-1.6,3.3-2.9,3.8
				c-2.5,1-9.6,2.5-10.3,1.5c3.9-24.3,36.3-80,42.3-104.2C-21091.3,3284.2-21084.6,3288-21084.4,3290.3L-21084.4,3290.3z
				 M-21068,3287.5c1.4-0.1,2,0.4,1.6,2.3c-0.6,3-4.1,10.1-10.1,22.5c-16.7,34.3-25.5,54.6-28.2,65c-0.6,2.4-1,4.3-2.2,5
				c-2.4,1.3-10.6,4.8-11.1,1.2c2.3-15.4,12.3-25.6,37.4-90.1c1.2-2.1,2.2-3.2,3.4-3.4C-21073.9,3289.4-21071.1,3287.8-21068,3287.5
				L-21068,3287.5z M-21138.8,3299.2c-0.6,4-5,12.3-12.2,27.8c-12.1,25.7-19.8,44.8-24.4,61.7c-0.8,2.7-1.8,5.6-2.8,6.4
				c-2,1.4-11.1,1.2-11.1,1.2c-1.5-6.9,9.1-33.1,20.8-60.6c6.4-15,13.9-29.9,18.8-43.3
				C-21146.2,3292.8-21139.3,3296.1-21138.8,3299.2z M-21120.4,3292.3c3.7-0.1,0.9,6.2-7.6,23.8c-7,14.3-18.1,34.5-25.1,57.5
				c-1.9,5.1-4,11.4-4.8,14c-1,3.4-2,5.1-3.4,5.8c-2.6,1.4-9.1,1.4-10.3,0c-1.8-2.2,7.3-28.1,16.3-48.1c8-16.8,13.5-30.2,20.4-45.7
				c1.9-3.1,2-3.3,3.9-3.7C-21126.9,3295.6-21122.7,3292.8-21120.4,3292.3L-21120.4,3292.3z M-21538.1,3302.6l11,14.3l-12.4,16
				l-10.8-15.2L-21538.1,3302.6z M-21538.7,3364.9c0,0-4.5,5.4-9.1,13.8c-13.4,23.2-13.5,40.2,2.9,50c6.9,3.4,15.9,2.5,21.4-2.6
				c18.2-16.4,4.1-38.2-8.1-53C-21534.7,3368.7-21538.7,3364.9-21538.7,3364.9z M-21537.9,3370.8c7,8,12.2,14.1,17,24.2
				c5.5,13.7,2.3,24.6-7.9,29.8c-16.1,8.3-31.1-9.5-23.7-28.9C-21547.1,3381.6-21537.9,3370.8-21537.9,3370.8z M-21083.8,3390.5
				c1.6,2.9-153.5,41.5-268.9,12.4l-68.2,102.3l403.5-7.4L-21083.8,3390.5z M-21089.6,3397.7c0,0,38.6,64.3,57.5,95.8l-25.9,0.4
				l-38.2-78.3c-19.6,5.8-39,10.1-58.7,12.9l14.2,66.7l-19.4,0.3l-12-63.8c-28.2,2.6-57,4-86.4,3.6l-11.7,62l-20.3,0.3l12-61.6
				c-22.4-2.6-44.6-5.1-67.3-8.5l-36.8,71.6l-28.6,0.5l58.2-90C-21263.6,3426.1-21181.5,3420.6-21089.6,3397.7L-21089.6,3397.7z
				 M-21103.1,3432.8l30.3,61.4l-55.4,0.9l-11.1-55L-21103.1,3432.8z M-21340.2,3441.2l48.5,5.5l-11.7,51.3l-65.4,1.1
				L-21340.2,3441.2z M-21182,3446.2l7.5,49.6l-83.4,1.4l8.5-48.9L-21182,3446.2z"/>
		</g>
	</g>
	<path id="path153-6-3-1-9-5-1-4_1_" d="M46,22.6
		c-7.3,10.5-15.2,16.5-15.3,24.7c0,2.7,1.4,7.2,5.9,8c2.9,0.6,6.9-1.8,7-6.6c0-1,1-0.9,1,0.4c-0.1,3.8-1.3,8.2-3.3,11.8
		c3.2,0,6.4,0,9.6,0c-2-3.6-3.2-8-3.3-11.8c0-1.3,1-1.3,1-0.4c0.1,4.8,4.1,7.1,7,6.6c4.5-0.9,5.9-5.4,5.9-8
		C61.2,39.1,53.3,33.1,46,22.6z"/>
	<path id="path153-6-3-1-8-6-9-9-4_1_" d="M128.4,219.1
		c-7.3-10.5-15.2-16.5-15.3-24.7c0-2.7,1.4-7.2,5.9-8c2.9-0.6,6.9,1.8,7,6.6c0,1,1,0.9,1-0.4c-0.1-3.8-1.3-8.2-3.3-11.8
		c3.2,0,6.4,0,9.6,0c-2,3.6-3.2,8-3.3,11.8c0,1.3,1,1.3,1,0.4c0.1-4.8,4.1-7.1,7-6.6c4.5,0.9,5.9,5.4,5.9,8
		C143.6,202.6,135.8,208.6,128.4,219.1z"/>
</g>
</svg>
