<!-- Generator: Adobe Illustrator 19.2.1, SVG Export Plug-In  -->
<svg version="1.1"
	 xmlns="http://www.w3.org/2000/svg" xmlns:xlink="http://www.w3.org/1999/xlink" xmlns:a="http://ns.adobe.com/AdobeSVGViewerExtensions/3.0/"
	 x="0px" y="0px" width="289.2px" height="245.9px" viewBox="0 0 289.2 245.9" style="enable-background:new 0 0 289.2 245.9;"
	 xml:space="preserve">
<style type="text/css">
	.st0{opacity:0.88;}
	.st1{fill:#0080FF;}
</style>
<defs>
</defs>
<g>
	<g class="st0">
		<g>
			<g>
				<path class="st1" d="M14.1,81.2C4.7,90.6,0,101.9,0,115.2c0,13.3,4.7,24.6,14.1,34c9.4,9.4,20.7,14.1,34,14.1
					c13.3,0,24.6-4.7,34-14.1c8.8-8.8,13.5-19.3,14-31.4c0.1-0.9,0.1-1.7,0.1-2.5c0-0.4,0-0.8,0-1.2c-0.3-12.7-4.9-23.6-14.1-32.7
					c-9.4-9.4-20.6-14-33.9-14C34.9,67.2,23.5,71.8,14.1,81.2z M48.3,95.9c5.3,0,9.9,1.9,13.7,5.7c3.8,3.8,5.7,8.2,5.7,13.5
					c0,5.3-1.9,9.8-5.7,13.6c-3.8,3.7-8.6,5.7-13.9,5.7c-5.3,0-9.7-1.9-13.4-5.7c-3.8-3.8-5.7-8.3-5.7-13.6c0-5.3,1.9-9.8,5.7-13.5
					C38.4,97.8,43,95.9,48.3,95.9z"/>
			</g>
		</g>
	</g>
	<g class="st0">
		<g>
			<g>
				<path class="st1" d="M110.6,81.2c-9.4,9.4-14.1,20.7-14.1,34c0,13.3,4.7,24.6,14.1,34c9.4,9.4,20.9,14.1,34.1,14.1
					c13.2,0,24.5-4.7,33.8-14.1c8.8-8.8,13.4-19.3,14-31.4c0-0.9,0.1-1.7,0.1-2.5c0-0.4,0-0.8,0-1.2c-0.3-12.7-4.9-23.6-14.1-32.7
					c-9.4-9.4-20.6-14-33.8-14C131.5,67.2,120,71.8,110.6,81.2z M144.8,95.9c5.4,0,10,1.9,13.7,5.7c3.8,3.8,5.7,8.2,5.7,13.5
					c0,5.3-1.9,9.8-5.7,13.6c-3.8,3.7-8.4,5.7-13.7,5.7c-5.4,0-9.8-1.9-13.6-5.7c-3.8-3.8-5.7-8.3-5.7-13.6c0-5.3,1.9-9.8,5.7-13.5
					C135,97.8,139.4,95.9,144.8,95.9z"/>
			</g>
		</g>
	</g>
	<g class="st0">
		<g>
			<g>
				<path class="st1" d="M207.2,81.2c-9.4,9.4-14.1,20.7-14.1,34c0,13.3,4.7,24.6,14.1,34c9.4,9.4,20.8,14.1,34.1,14.1
					c13.2,0,24.5-4.7,33.9-14.1c8.8-8.8,13.4-19.3,14-31.4c0-0.9,0.1-1.7,0.1-2.5c0-0.4,0-0.8,0-1.2c-0.3-12.7-4.9-23.6-14.1-32.7
					c-9.4-9.4-20.6-14-33.9-14C228,67.2,216.6,71.8,207.2,81.2z M241.3,96.1c5.4,0,10,1.7,13.8,5.5c3.8,3.8,5.7,8.2,5.7,13.5
					c0,5.3-1.9,9.8-5.7,13.6c-3.8,3.7-8.4,5.7-13.8,5.7c-5.4,0-9.7-1.9-13.5-5.7c-3.8-3.8-5.7-8.3-5.7-13.6c0-5.3,1.9-9.8,5.7-13.5
					C231.5,97.8,235.9,96.1,241.3,96.1z"/>
			</g>
		</g>
	</g>
	<g class="st0">
		<g>
			<g>
				<path class="st1" d="M96,50.6c0.1-0.9,0.1-1.7,0.1-2.5c0-0.4,0-0.8,0-1.2C95.8,34.1,91.2,23.2,82,14.1C72.6,4.7,61.4,0,48,0
					c-13.3,0-24.6,4.7-34,14.1C4.7,23.5,0,34.7,0,48c0,13.2,4.7,24.6,14.1,34c9.4,9.4,20.7,13.9,34,13.9c13.3,0,24.6-4.5,34-13.9
					C90.9,73.3,95.5,62.7,96,50.6z M48,28.8c5.3,0,10.1,1.9,13.9,5.7c3.8,3.8,5.7,8.2,5.7,13.5c0,5.3-1.9,9.9-5.7,13.6
					c-3.8,3.7-8.6,5.6-13.9,5.6c-5.3,0-9.7-1.9-13.4-5.6C30.9,57.9,29,53.3,29,48c0-5.3,1.9-9.8,5.7-13.5
					C38.4,30.7,42.8,28.8,48,28.8z"/>
			</g>
		</g>
	</g>
	<g class="st0">
		<g>
			<g>
				<path class="st1" d="M192.6,50.6c0-0.9,0.1-1.7,0.1-2.5c0-0.4,0-0.8,0-1.2c-0.3-12.7-4.9-23.6-14.1-32.7
					C169.2,4.7,158,0,144.8,0c-13.2,0-24.8,4.7-34.1,14.1c-9.4,9.4-14.1,20.7-14.1,34c0,13.2,4.7,24.6,14.1,34
					c9.4,9.4,20.9,13.9,34.1,13.9c13.2,0,24.5-4.5,33.8-13.9C187.4,73.3,192,62.7,192.6,50.6z M144.8,28.8c5.4,0,10,1.9,13.7,5.7
					c3.8,3.8,5.7,8.2,5.7,13.5c0,5.3-1.9,9.9-5.7,13.6c-3.8,3.7-8.4,5.6-13.7,5.6s-9.8-1.9-13.6-5.6c-3.8-3.7-5.7-8.3-5.7-13.6
					c0-5.3,1.9-9.8,5.7-13.5C135,30.7,139.4,28.8,144.8,28.8z"/>
			</g>
		</g>
	</g>
	<g class="st0">
		<g>
			<path class="st1" d="M289.2,48c0-0.4,0-0.8,0-1.2c-0.3-12.7-4.9-23.6-14.1-32.7C265.8,4.7,254.5,0,241.3,0
				c-13.2,0-24.6,4.7-34.1,14.1c-9.4,9.4-14.1,20.7-14.1,34c0,13.2,4.7,24.6,14.1,34c9.4,9.4,20.8,14.1,34.1,14.1
				c13.2,0,24.5-4.7,33.9-14.1c8.8-8.8,13.4-19.3,14-31.4C289.2,49.7,289.2,48.9,289.2,48z M255.1,34.4c3.8,3.8,5.7,8.2,5.7,13.5
				c0,5.3-1.9,9.9-5.7,13.6c-3.8,3.7-8.4,5.6-13.8,5.6c-5.4,0-9.7-1.9-13.5-5.6c-3.8-3.7-5.7-8.3-5.7-13.6c0-5.3,1.9-9.8,5.7-13.5
				c3.8-3.8,8.2-5.7,13.5-5.7C246.6,28.8,251.3,30.7,255.1,34.4z"/>
		</g>
	</g>
	<g>
		<path class="st1" d="M116.1,206.5v0.2c0,12.5-8.8,21.8-21.1,21.8c-7.2,0-12.3-3.4-15.3-8.8v26.2h-8.1v-60.4h8.1v7.8
			c3-5.4,8.1-8.6,15.3-8.6C107.3,184.7,116.1,194,116.1,206.5z M107.8,206.4c0-8.3-5.9-14.1-13.6-14.1c-7.4,0-13.7,5.8-13.7,14.1
			v0.2c0,8.2,6.1,14.1,13.5,14.1c7.6,0,13.8-5.8,13.8-14.1V206.4z"/>
		<path class="st1" d="M122.9,206.6v-0.2c0-12.4,9.4-21.8,21.8-21.8s21.8,9.2,21.8,21.7v0.2c0,12.5-9.4,21.9-21.8,21.9
			C132.3,228.4,122.9,219.1,122.9,206.6z M158.3,206.5v-0.2c0-8.2-6.2-14.1-13.8-14.1c-7.4,0-13.5,5.8-13.5,14.1v0.2
			c0,8.3,6.2,14.1,13.7,14.1C152.4,220.6,158.3,214.8,158.3,206.5z"/>
		<path class="st1" d="M187.8,209.9l-5.7,6.6v11h-8.1v-59.1h8.1v37l17.3-19.8h9.5l-16.2,18.8l18.1,23.2h-9.4L187.8,209.9z"/>
		<path class="st1" d="M252.7,208.6h-33c0.8,7.6,6.1,12.7,13.4,12.7c5.4,0,9.8-3,12.2-7.6l6.2,3.4c-3.4,6.3-9.6,11.3-18.9,11.3
			c-12.1,0-21.2-9.3-21.2-21.8v-0.2c0-12.4,9.1-21.8,20.9-21.8c13.8,0,20.5,10.8,20.5,21V208.6z M244.7,202.5
			c-0.1-5-3.8-10.9-12.2-10.9c-6.7,0-11.2,4.7-12.5,10.9H244.7z"/>
		<path class="st1" d="M260.2,185.5h8.1v9.6c2.7-6.1,8.1-10.3,15.1-10.2v7.7h-1c-7.8,0-14.1,6.8-14.1,13.6v21.4h-8.1V185.5z"/>
	</g>
</g>
</svg>
