<!-- Generator: Adobe Illustrator 19.2.1, SVG Export Plug-In  -->
<svg version="1.1"
	 xmlns="http://www.w3.org/2000/svg" xmlns:xlink="http://www.w3.org/1999/xlink" xmlns:a="http://ns.adobe.com/AdobeSVGViewerExtensions/3.0/"
	 x="0px" y="0px" width="1161px" height="1761.9px" viewBox="0 0 1161 1761.9" style="enable-background:new 0 0 1161 1761.9;"
	 xml:space="preserve">
<style type="text/css">
	.st0{fill:#FFFFFF;}
</style>
<defs>
</defs>
<g>
	<path class="st0" d="M1161,1224.9c-1.5,1-3.1,1.8-4.4,3.1c-55.9,55.8-111.7,111.6-167.5,167.6c-3.4,3.4-5.1,3.6-8.6,0.1
		c-65.6-65.9-131.4-131.6-197.2-197.4c-5.5-5.5-5.5-5.5-11.1,0.1c-65.7,65.8-131.5,131.5-197.2,197.3c-3.5,3.5-5.4,3.3-8.8-0.1
		c-31.6-31.8-63.3-63.5-95-95.2c-4.8-4.8-4.8-4.8,0-9.7c134.9-134.9,269.8-269.8,404.8-404.8c4.2-4.2,4.3-4.5-0.4-9.1
		C741.6,742.6,607.2,608.2,472.9,473.9c-1.1-1.1-2.1-2.2-3.2-3.2c-2.6-2.3-2.3-4.2,0.2-6.6c32.7-32.6,65.3-65.2,97.9-97.9
		c3.2-3.2,4.9-0.9,6.9,1.1c20.3,20.3,40.5,40.5,60.8,60.8c46,46,92,91.9,137.8,138c3.7,3.7,5.7,3.4,9.1,0
		c66-66.2,132.1-132.2,198.3-198.3c1.3-1.3,2.6-2.5,5.2-4.9c2.9,3.5,5.5,7,8.5,10c53.6,53.7,107.2,107.3,160.8,160.8
		c1.7,1.7,3.9,2.8,5.8,4.2c0,69.7,0,139.3,0,209c-2.4-2-4.9-3.9-7.1-6.1C1099,685.9,1044.1,631,989.3,576c-3.4-3.4-5.3-3.6-8.8-0.1
		c-31.1,31.3-62.4,62.5-93.6,93.7c-4.9,4.9-4.9,5-0.2,9.7c66,66,131.9,132,197.9,197.9c2.5,2.5,4.6,4.3,0.9,8
		c-66.4,66.2-132.7,132.6-199.2,198.8c-3.5,3.5-3.5,5.4-0.1,8.8c27.2,27,54.3,54.1,81.3,81.3c5.6,5.6,10.9,11.6,16.4,17.6
		c2.2-2,3.4-2.9,4.4-4c56.4-56.5,112.8-112.9,169.2-169.3c0.8-0.8,2.2-1.1,3.3-1.7C1161,1086.2,1161,1155.5,1161,1224.9z"/>
	<path class="st0" d="M2,1761.9c0.6-1.2,1-2.7,2-3.7c118.2-118.2,236.3-236.4,354.5-354.5c5.4-5.4,5.3-5.4,10.8,0
		c31.4,31.5,62.9,62.9,94.3,94.4c4.4,4.4,4.4,4.7-0.1,9.1c-82.9,83-165.9,165.9-248.8,248.9c-1.7,1.7-3.1,3.8-4.7,5.7
		C140.7,1761.9,71.3,1761.9,2,1761.9z"/>
	<path class="st0" d="M416,1761.9c0.6-1.1,0.9-2.5,1.7-3.3c118-118,236-236,354.1-354c6-6,6-6,12-0.1c31.2,31.2,62.4,62.5,93.7,93.6
		c3.4,3.4,4,5.3,0.2,9c-83.6,83.4-167.1,166.9-250.6,250.5c-1.2,1.2-2.1,2.9-3.1,4.4C554.7,1761.9,485.3,1761.9,416,1761.9z"/>
	<path class="st0" d="M1161,332.9c-1.1-0.7-2.4-1.1-3.3-2C1067.9,241,978,151.1,888.2,61.2C869.1,42.2,850,23.1,830.9,4
		c-0.7-0.7-1.2-1.5-2.4-3.1c2.2-0.4,3.7-0.8,5.2-0.8c65.8,0,131.6-0.1,197.4,0.2c2.8,0,6.3,2,8.4,4.1
		c38.9,38.6,77.6,77.4,116.4,116.1c1.4,1.4,3.4,2.3,5.1,3.4C1161,193.5,1161,263.2,1161,332.9z"/>
	<path class="st0" d="M830,1761.9c0.6-1.2,1-2.7,1.9-3.7c107.8-107.8,215.5-215.6,323.4-323.3c1.6-1.6,3.8-2.7,5.7-4.1
		c0,69.3,0,138.7,0,208c-1.7,1.3-3.6,2.4-5,3.9c-38.2,38.1-76.3,76.2-114.4,114.4c-1.4,1.4-2.4,3.1-3.6,4.7
		C968.7,1761.9,899.3,1761.9,830,1761.9z"/>
	<path class="st0" d="M0,0.7c3.1-0.3,4.8-0.6,6.5-0.6c64.8,0,129.6,0,194.4-0.1c4.7,0,8,1.5,11.3,4.8
		C296,88.6,379.7,172.4,463.5,256.1c4.4,4.4,4.3,4.6-0.1,9.1c-31.6,31.6-63.1,63.1-94.7,94.7c-4.8,4.8-4.9,4.9-9.8,0
		C241.2,242.2,123.6,124.6,5.9,6.9C4.3,5.2,2.6,3.5,0,0.7z"/>
	<path class="st0" d="M415.7,0.5c1.6-0.1,3.1-0.4,4.7-0.4c65.3,0,130.6,0,195.9-0.1c4.1,0,6.8,1.5,9.6,4.2
		C710,88.5,794.2,172.7,878.5,256.9c2.8,2.8,2.8,4.6,0,7.3c-32.3,32.2-64.6,64.5-96.8,96.8c-2.9,2.9-4.7,2.9-7.7-0.1
		C657.4,244.2,540.6,127.4,423.8,10.7c-2.9-2.9-6.1-5.4-9.2-8.1C415,1.9,415.3,1.2,415.7,0.5z"/>
</g>
</svg>
