<!-- Generator: Adobe Illustrator 19.2.1, SVG Export Plug-In  -->
<svg version="1.1"
	 xmlns="http://www.w3.org/2000/svg" xmlns:xlink="http://www.w3.org/1999/xlink" xmlns:a="http://ns.adobe.com/AdobeSVGViewerExtensions/3.0/"
	 x="0px" y="0px" width="215.7px" height="209.7px" viewBox="0 0 215.7 209.7" style="enable-background:new 0 0 215.7 209.7;"
	 xml:space="preserve">
<style type="text/css">
	.st0{fill:none;stroke:#8E8E8E;stroke-miterlimit:10;}
	.st1{fill:#8E8E8E;}
	.st2{fill:none;stroke:#8E8E8E;stroke-miterlimit:10;stroke-dasharray:5;}
	.st3{fill:none;stroke:#8E8E8E;stroke-miterlimit:10;stroke-dasharray:1;}
</style>
<defs>
</defs>
<path class="st0" d="M122,150.2h23.5c2.5,0,4.5,2,4.5,4.5v12.1c0,2.5-2,4.5-4.5,4.5h-14c-1.4,0-2.7-0.8-3.4-2.1l-3-5.8
	c-0.7-1.3-2-2.1-3.4-2.1h-14.9c-1.4,0-2.7,0.8-3.4,2l-3.1,5.8c-0.7,1.2-2,2-3.4,2H77.4c-2.5,0-4.5-2-4.5-4.5v-12.1
	c0-2.5,2-4.5,4.5-4.5h28.9"/>
<path class="st0" d="M114.2,201.3H88.4c-2.5,0-4.5-2-4.5-4.5v-13.9c0-2.5,2-4.5,4.5-4.5h25.8c2.5,0,4.5,2,4.5,4.5v13.9
	C118.7,199.2,116.7,201.3,114.2,201.3z"/>
<path class="st0" d="M116.5,171.2h-5.8c-1,0-1.8-0.8-1.8-1.8v-3c0-1,0.8-1.8,1.8-1.8h5.8c1,0,1.8,0.8,1.8,1.8v3
	C118.3,170.4,117.5,171.2,116.5,171.2z"/>
<path class="st0" d="M73,166.7v35c0,4.2,3.4,7.5,7.5,7.5h61.9c4.2,0,7.5-3.4,7.5-7.5v-35"/>
<circle class="st0" cx="134.5" cy="190.1" r="7.3"/>
<path class="st0" d="M103.8,162.7l2.8-12.1c0.4-1.6,1.8-2.8,3.5-2.8h8.4c1.7,0,3.2,1.2,3.5,2.8l2.6,12"/>
<path class="st0" d="M98.1,150.4l-0.6-6.7c0-1.3,5.2-7.8,16-7.8s15,6.5,15,7.8l-0.6,6.7"/>
<path class="st0" d="M128.2,147.9l1.6-2.6c0.8-1.3,1.3-2.7,1.4-4.3l0.5-5.8c0-1.5-6-9.3-19.1-9.3s-18.4,7.8-18.4,9.3l0.5,5.7
	c0.1,1.6,0.7,3.1,1.5,4.5l1.5,2.3"/>
<g>
	<path class="st0" d="M132.6,81.2c0.1-2.7,2.4-4.8,5-4.7c2.7,0.1,4.8,2.4,4.7,5"/>
	<line class="st0" x1="139.6" y1="74.7" x2="142.3" y2="68.3"/>
	<line class="st0" x1="144.2" y1="78.6" x2="149.7" y2="76.3"/>
	<line class="st0" x1="129.8" y1="78.8" x2="123.4" y2="76.1"/>
	<line class="st0" x1="133.7" y1="74.2" x2="131.4" y2="68.7"/>
</g>
<polygon class="st0" points="88.7,75.8 81.3,92.8 96.8,92.8 "/>
<polyline class="st0" points="96.8,92.8 118.3,92.8 103,67 93,84.3 "/>
<polyline class="st0" points="99.1,73.7 102.2,78 104.3,73.7 108.2,75.8 "/>
<path class="st0" d="M72.3,61.2c-0.2,0-0.3,0-0.5,0c-0.6-1.4-1.9-2.4-3.5-2.4c-1.6,0-2.9,0.9-3.5,2.3c-1.5,0-2.7,1.2-2.7,2.7
	c0,1.5,1.2,2.7,2.7,2.7c0.6,0,1.1-0.2,1.6-0.5c0.6,0.3,1.2,0.5,1.9,0.5c0.8,0,1.6-0.3,2.2-0.7c0.5,0.4,1.1,0.7,1.8,0.7
	c1.5,0,2.7-1.2,2.7-2.7C75,62.4,73.8,61.2,72.3,61.2z"/>
<polygon class="st1" points="80.8,93.3 66.1,93.5 82.6,89.3 "/>
<line class="st0" x1="85.8" y1="82.8" x2="21.8" y2="82.8"/>
<line class="st0" x1="111.8" y1="81.8" x2="199.8" y2="81.8"/>
<line class="st2" x1="93.5" y1="132.6" x2="0.3" y2="46.8"/>
<line class="st2" x1="133.5" y1="132.6" x2="215.3" y2="46.3"/>
<path class="st3" d="M5.8,45.3c0,0,97-82,202.5,1"/>
<g>
	<path class="st1" d="M101.9,0.8L101.9,0.8l-1,0.5l-0.1-0.6l1.2-0.7h0.6v5.6h-0.7V0.8z"/>
	<path class="st1" d="M104.6,4.3c0-0.7,0.4-1.2,1.1-1.5l0,0c-0.6-0.3-0.9-0.8-0.9-1.3c0-0.9,0.7-1.5,1.7-1.5c1.1,0,1.6,0.7,1.6,1.4
		c0,0.5-0.2,1-0.9,1.3v0c0.7,0.3,1.1,0.8,1.1,1.4c0,1-0.8,1.6-1.9,1.6C105.3,5.8,104.6,5.1,104.6,4.3z M107.6,4.2
		c0-0.7-0.5-1-1.2-1.2c-0.7,0.2-1,0.6-1,1.2c0,0.6,0.4,1.1,1.1,1.1C107.1,5.2,107.6,4.8,107.6,4.2z M105.5,1.4c0,0.6,0.4,0.9,1.1,1
		c0.5-0.2,0.9-0.5,0.9-1c0-0.4-0.3-0.9-0.9-0.9C105.8,0.5,105.5,1,105.5,1.4z"/>
	<path class="st1" d="M109.3,2.7c0-0.4,0-0.8,0-1.1h0.7l0,0.7h0c0.2-0.4,0.6-0.8,1.3-0.8c0.6,0,1,0.3,1.2,0.8h0
		c0.1-0.2,0.3-0.4,0.5-0.5c0.2-0.2,0.5-0.3,0.9-0.3c0.6,0,1.4,0.4,1.4,1.8v2.5h-0.7V3.3c0-0.8-0.3-1.3-0.9-1.3
		c-0.4,0-0.8,0.3-0.9,0.7c0,0.1-0.1,0.2-0.1,0.4v2.6h-0.7V3.2c0-0.7-0.3-1.1-0.9-1.1c-0.5,0-0.8,0.4-0.9,0.8c0,0.1-0.1,0.2-0.1,0.4
		v2.5h-0.7V2.7z"/>
	<path class="st1" d="M116.5,2.7c0-0.4,0-0.8,0-1.1h0.7l0,0.7h0c0.2-0.4,0.6-0.8,1.3-0.8c0.6,0,1,0.3,1.2,0.8h0
		c0.1-0.2,0.3-0.4,0.5-0.5c0.2-0.2,0.5-0.3,0.9-0.3c0.6,0,1.4,0.4,1.4,1.8v2.5h-0.7V3.3c0-0.8-0.3-1.3-0.9-1.3
		c-0.4,0-0.8,0.3-0.9,0.7c0,0.1-0.1,0.2-0.1,0.4v2.6h-0.7V3.2c0-0.7-0.3-1.1-0.9-1.1c-0.5,0-0.8,0.4-0.9,0.8c0,0.1-0.1,0.2-0.1,0.4
		v2.5h-0.7V2.7z"/>
</g>
<g>
	<path class="st1" d="M103.6,18.1h-2.1l-0.2,1.4c0.1,0,0.2,0,0.5,0c0.4,0,0.9,0.1,1.2,0.3c0.4,0.2,0.8,0.7,0.8,1.4
		c0,1.1-0.9,1.9-2.1,1.9c-0.6,0-1.1-0.2-1.4-0.3l0.2-0.6c0.2,0.1,0.7,0.3,1.2,0.3c0.7,0,1.3-0.5,1.3-1.2c0-0.7-0.5-1.2-1.6-1.2
		c-0.3,0-0.6,0-0.8,0.1l0.4-2.7h2.7V18.1z"/>
	<path class="st1" d="M108.4,20.2c0,1.9-0.7,3-1.9,3c-1.1,0-1.8-1-1.9-2.9c0-1.9,0.8-2.9,1.9-2.9C107.7,17.4,108.4,18.4,108.4,20.2z
		 M105.3,20.3c0,1.5,0.4,2.3,1.1,2.3c0.8,0,1.1-0.9,1.1-2.3c0-1.4-0.4-2.3-1.1-2.3C105.8,18,105.3,18.8,105.3,20.3z"/>
	<path class="st1" d="M109.3,20c0-0.4,0-0.8,0-1.1h0.7l0,0.7h0c0.2-0.4,0.6-0.8,1.3-0.8c0.6,0,1,0.3,1.2,0.8h0
		c0.1-0.2,0.3-0.4,0.5-0.5c0.2-0.2,0.5-0.3,0.9-0.3c0.6,0,1.4,0.4,1.4,1.8v2.5h-0.7v-2.4c0-0.8-0.3-1.3-0.9-1.3
		c-0.4,0-0.8,0.3-0.9,0.7c0,0.1-0.1,0.2-0.1,0.4v2.6h-0.7v-2.5c0-0.7-0.3-1.1-0.9-1.1c-0.5,0-0.8,0.4-0.9,0.8c0,0.1-0.1,0.2-0.1,0.4
		v2.5h-0.7V20z"/>
	<path class="st1" d="M116.5,20c0-0.4,0-0.8,0-1.1h0.7l0,0.7h0c0.2-0.4,0.6-0.8,1.3-0.8c0.6,0,1,0.3,1.2,0.8h0
		c0.1-0.2,0.3-0.4,0.5-0.5c0.2-0.2,0.5-0.3,0.9-0.3c0.6,0,1.4,0.4,1.4,1.8v2.5h-0.7v-2.4c0-0.8-0.3-1.3-0.9-1.3
		c-0.4,0-0.8,0.3-0.9,0.7c0,0.1-0.1,0.2-0.1,0.4v2.6h-0.7v-2.5c0-0.7-0.3-1.1-0.9-1.1c-0.5,0-0.8,0.4-0.9,0.8c0,0.1-0.1,0.2-0.1,0.4
		v2.5h-0.7V20z"/>
</g>
<g>
	<path class="st1" d="M98.8,43c0.2,0.1,0.7,0.4,1.2,0.4c1,0,1.3-0.6,1.3-1.1c0-0.8-0.7-1.1-1.4-1.1h-0.4v-0.6h0.4
		c0.6,0,1.2-0.3,1.2-0.9c0-0.4-0.3-0.8-1-0.8c-0.4,0-0.9,0.2-1.1,0.4l-0.2-0.6c0.3-0.2,0.9-0.4,1.5-0.4c1.1,0,1.6,0.7,1.6,1.3
		c0,0.6-0.3,1.1-1,1.3v0c0.7,0.1,1.2,0.7,1.2,1.4c0,0.9-0.7,1.7-2,1.7c-0.6,0-1.2-0.2-1.5-0.4L98.8,43z"/>
	<path class="st1" d="M106.8,41c0,1.9-0.7,3-1.9,3c-1.1,0-1.8-1-1.9-2.9c0-1.9,0.8-2.9,1.9-2.9C106.1,38.2,106.8,39.2,106.8,41z
		 M103.7,41.1c0,1.5,0.4,2.3,1.1,2.3c0.8,0,1.1-0.9,1.1-2.3c0-1.4-0.4-2.3-1.1-2.3C104.2,38.8,103.7,39.6,103.7,41.1z"/>
	<path class="st1" d="M111.2,41c0,1.9-0.7,3-1.9,3c-1.1,0-1.8-1-1.9-2.9c0-1.9,0.8-2.9,1.9-2.9C110.5,38.2,111.2,39.2,111.2,41z
		 M108.2,41.1c0,1.5,0.4,2.3,1.1,2.3c0.8,0,1.1-0.9,1.1-2.3c0-1.4-0.4-2.3-1.1-2.3C108.6,38.8,108.2,39.6,108.2,41.1z"/>
	<path class="st1" d="M112.1,40.8c0-0.4,0-0.8,0-1.1h0.7l0,0.7h0c0.2-0.4,0.6-0.8,1.3-0.8c0.6,0,1,0.3,1.2,0.8h0
		c0.1-0.2,0.3-0.4,0.5-0.5c0.2-0.2,0.5-0.3,0.9-0.3c0.6,0,1.4,0.4,1.4,1.8v2.5h-0.7v-2.4c0-0.8-0.3-1.3-0.9-1.3
		c-0.4,0-0.8,0.3-0.9,0.7c0,0.1-0.1,0.2-0.1,0.4v2.6h-0.7v-2.5c0-0.7-0.3-1.1-0.9-1.1c-0.5,0-0.8,0.4-0.9,0.8c0,0.1-0.1,0.2-0.1,0.4
		v2.5h-0.7V40.8z"/>
	<path class="st1" d="M119.3,40.8c0-0.4,0-0.8,0-1.1h0.7l0,0.7h0c0.2-0.4,0.6-0.8,1.3-0.8c0.6,0,1,0.3,1.2,0.8h0
		c0.1-0.2,0.3-0.4,0.5-0.5c0.2-0.2,0.5-0.3,0.9-0.3c0.6,0,1.4,0.4,1.4,1.8v2.5h-0.7v-2.4c0-0.8-0.3-1.3-0.9-1.3
		c-0.4,0-0.8,0.3-0.9,0.7c0,0.1-0.1,0.2-0.1,0.4v2.6h-0.7v-2.5c0-0.7-0.3-1.1-0.9-1.1c-0.5,0-0.8,0.4-0.9,0.8c0,0.1-0.1,0.2-0.1,0.4
		v2.5h-0.7V40.8z"/>
</g>
<line class="st2" x1="86.3" y1="121.8" x2="42.8" y2="41.8"/>
<line class="st2" x1="181.3" y1="43.8" x2="137.8" y2="123.8"/>
<path class="st3" d="M48.8,47.3c0,0,57.5-44.5,127.5,0"/>
<line class="st2" x1="84.8" y1="53.3" x2="93.8" y2="128.3"/>
<line class="st2" x1="132.8" y1="128.3" x2="141.8" y2="53.3"/>
<path class="st3" d="M89.3,53.3c0,0,22-14,48,0.5"/>
</svg>
