<!-- Generator: Adobe Illustrator 19.2.1, SVG Export Plug-In  -->
<svg version="1.1"
	 xmlns="http://www.w3.org/2000/svg" xmlns:xlink="http://www.w3.org/1999/xlink" xmlns:a="http://ns.adobe.com/AdobeSVGViewerExtensions/3.0/"
	 x="0px" y="0px" width="181.4px" height="174.5px" viewBox="0 0 181.4 174.5" style="enable-background:new 0 0 181.4 174.5;"
	 xml:space="preserve">
<style type="text/css">
	.st0{fill:none;stroke:#8E8E8E;stroke-miterlimit:10;}
	.st1{fill:none;stroke:#8E8E8E;stroke-miterlimit:10;stroke-dasharray:1,3;}
	.st2{fill:none;stroke:#8E8E8E;stroke-linecap:round;stroke-linejoin:round;stroke-miterlimit:10;}
	.st3{fill:#8E8E8E;}
	.st4{fill:none;stroke:#8E8E8E;stroke-miterlimit:10;stroke-dasharray:5;}
</style>
<defs>
</defs>
<path class="st0" d="M101.2,114.9h23.5c2.5,0,4.5,2,4.5,4.5v12.1c0,2.5-2,4.5-4.5,4.5h-14c-1.4,0-2.7-0.8-3.4-2.1l-3-5.8
	c-0.7-1.3-2-2.1-3.4-2.1H86.1c-1.4,0-2.7,0.8-3.4,2l-3.1,5.8c-0.7,1.2-2,2-3.4,2H56.7c-2.5,0-4.5-2-4.5-4.5v-12.1
	c0-2.5,2-4.5,4.5-4.5h28.9"/>
<path class="st0" d="M93.4,166H67.6c-2.5,0-4.5-2-4.5-4.5v-13.9c0-2.5,2-4.5,4.5-4.5h25.8c2.5,0,4.5,2,4.5,4.5v13.9
	C97.9,164,95.9,166,93.4,166z"/>
<path class="st0" d="M95.7,135.9h-5.8c-1,0-1.8-0.8-1.8-1.8v-3c0-1,0.8-1.8,1.8-1.8h5.8c1,0,1.8,0.8,1.8,1.8v3
	C97.5,135.1,96.7,135.9,95.7,135.9z"/>
<path class="st0" d="M52.2,131.5v35c0,4.2,3.4,7.5,7.5,7.5h61.9c4.2,0,7.5-3.4,7.5-7.5v-35"/>
<circle class="st0" cx="113.7" cy="154.8" r="7.3"/>
<path class="st0" d="M83,127.5l2.8-12.1c0.4-1.6,1.8-2.8,3.5-2.8h8.4c1.7,0,3.2,1.2,3.5,2.8l2.6,12"/>
<path class="st0" d="M77.3,115.1l-0.6-6.7c0-1.3,5.2-7.8,16-7.8s15,6.5,15,7.8l-0.6,6.7"/>
<path class="st0" d="M107.5,112.6l1.6-2.6c0.8-1.3,1.3-2.7,1.4-4.3l0.5-5.8c0-1.5-6-9.3-19.1-9.3s-18.4,7.8-18.4,9.3l0.5,5.7
	c0.1,1.6,0.7,3.1,1.5,4.5l1.5,2.3"/>
<ellipse class="st0" cx="88.5" cy="48" rx="63.5" ry="31.5"/>
<circle class="st1" cx="141.3" cy="39.8" r="39.2"/>
<path class="st2" d="M42.2,41.1c0,0,1.4-3,4.2-3c2.8,0,2.2,2.2,4.8,2.3c2.6,0.2,2.5-2.3,4.7-2.2c2.2,0.2,4.4,1.6,4.7,2.3"/>
<path class="st2" d="M74.2,33.1c0,0,1.4-3,4.2-3c2.8,0,2.2,2.2,4.8,2.3c2.6,0.2,2.5-2.3,4.7-2.2c2.2,0.2,4.4,1.6,4.7,2.3"/>
<path class="st2" d="M65.2,59.1c0,0,1.4-3,4.2-3c2.8,0,2.2,2.2,4.8,2.3c2.6,0.2,2.5-2.3,4.7-2.2c2.2,0.2,4.4,1.6,4.7,2.3"/>
<g>
	<path class="st3" d="M44.5,10.7l-1.6-6.2h0.8l0.7,3.1c0.2,0.8,0.3,1.5,0.5,2.1h0c0.1-0.6,0.3-1.3,0.5-2.1l0.8-3.1h0.8l0.8,3.1
		c0.2,0.7,0.3,1.5,0.4,2.1h0c0.1-0.7,0.3-1.4,0.5-2.1l0.8-3.1h0.8l-1.8,6.2h-0.8l-0.8-3.2c-0.2-0.8-0.3-1.4-0.4-2h0
		c-0.1,0.6-0.2,1.2-0.5,2l-0.9,3.2H44.5z"/>
	<path class="st3" d="M52,5c0,0.3-0.2,0.5-0.5,0.5C51.2,5.5,51,5.3,51,5c0-0.3,0.2-0.5,0.5-0.5C51.8,4.5,52,4.7,52,5z M51.1,10.7
		V6.3h0.8v4.4H51.1z"/>
	<path class="st3" d="M54.2,5v1.3h1.2v0.6h-1.2v2.4c0,0.6,0.2,0.9,0.6,0.9c0.2,0,0.4,0,0.5-0.1l0,0.6c-0.2,0.1-0.4,0.1-0.7,0.1
		c-0.4,0-0.7-0.1-0.9-0.3c-0.2-0.2-0.3-0.6-0.3-1.2V6.9h-0.7V6.3h0.7V5.2L54.2,5z"/>
	<path class="st3" d="M56.3,4.2h0.8V7h0c0.1-0.2,0.3-0.4,0.6-0.6c0.2-0.1,0.5-0.2,0.8-0.2c0.6,0,1.6,0.4,1.6,1.9v2.6h-0.8V8.1
		c0-0.7-0.3-1.3-1-1.3c-0.5,0-0.9,0.4-1.1,0.8c0,0.1-0.1,0.2-0.1,0.4v2.7h-0.8V4.2z"/>
	<path class="st3" d="M65.4,8.4c0,1.6-1.1,2.4-2.2,2.4C62,10.8,61,9.9,61,8.5c0-1.5,1-2.4,2.2-2.4C64.5,6.2,65.4,7.1,65.4,8.4z
		 M61.9,8.5c0,1,0.6,1.7,1.3,1.7c0.8,0,1.4-0.7,1.4-1.7c0-0.8-0.4-1.7-1.3-1.7S61.9,7.6,61.9,8.5z"/>
	<path class="st3" d="M70.1,9.5c0,0.5,0,0.9,0,1.2h-0.7l0-0.7h0c-0.2,0.4-0.7,0.8-1.5,0.8c-0.7,0-1.5-0.4-1.5-1.9V6.3h0.8v2.5
		c0,0.8,0.3,1.4,1,1.4c0.5,0,0.9-0.4,1.1-0.7c0-0.1,0.1-0.3,0.1-0.4V6.3h0.8V9.5z"/>
	<path class="st3" d="M72.4,5v1.3h1.2v0.6h-1.2v2.4c0,0.6,0.2,0.9,0.6,0.9c0.2,0,0.4,0,0.5-0.1l0,0.6c-0.2,0.1-0.4,0.1-0.7,0.1
		c-0.4,0-0.7-0.1-0.9-0.3c-0.2-0.2-0.3-0.6-0.3-1.2V6.9H71V6.3h0.7V5.2L72.4,5z"/>
	<path class="st3" d="M76.5,4.5h3.3v0.7h-2.5v2.1h2.3v0.7h-2.3v2.8h-0.8V4.5z"/>
	<path class="st3" d="M81.6,5c0,0.3-0.2,0.5-0.5,0.5c-0.3,0-0.5-0.2-0.5-0.5c0-0.3,0.2-0.5,0.5-0.5C81.4,4.5,81.6,4.7,81.6,5z
		 M80.7,10.7V6.3h0.8v4.4H80.7z"/>
	<path class="st3" d="M82.9,4.2h0.8v6.5h-0.8V4.2z"/>
	<path class="st3" d="M86,5v1.3h1.2v0.6H86v2.4c0,0.6,0.2,0.9,0.6,0.9c0.2,0,0.4,0,0.5-0.1l0,0.6c-0.2,0.1-0.4,0.1-0.7,0.1
		c-0.4,0-0.7-0.1-0.9-0.3c-0.2-0.2-0.3-0.6-0.3-1.2V6.9h-0.7V6.3h0.7V5.2L86,5z"/>
	<path class="st3" d="M88.5,8.6c0,1.1,0.7,1.5,1.5,1.5c0.6,0,0.9-0.1,1.2-0.2l0.1,0.6c-0.3,0.1-0.8,0.3-1.5,0.3
		c-1.4,0-2.2-0.9-2.2-2.2s0.8-2.4,2.1-2.4c1.5,0,1.8,1.3,1.8,2.1c0,0.2,0,0.3,0,0.4H88.5z M90.8,8c0-0.5-0.2-1.3-1.1-1.3
		c-0.8,0-1.2,0.8-1.2,1.3H90.8z"/>
	<path class="st3" d="M92.6,7.6c0-0.5,0-1,0-1.4h0.7l0,0.9h0c0.2-0.6,0.7-1,1.2-1c0.1,0,0.2,0,0.2,0v0.8c-0.1,0-0.2,0-0.3,0
		c-0.6,0-1,0.4-1.1,1c0,0.1,0,0.2,0,0.4v2.4h-0.8V7.6z"/>
</g>
<g>
	<path class="st3" d="M124.6,17.7l-1.6-6.2h0.9l0.7,3.2c0.2,0.8,0.4,1.6,0.5,2.2h0c0.1-0.6,0.3-1.4,0.5-2.2l0.8-3.1h0.8l0.8,3.2
		c0.2,0.7,0.3,1.5,0.4,2.1h0c0.1-0.7,0.3-1.4,0.5-2.2l0.8-3.1h0.8l-1.8,6.2H128l-0.8-3.2c-0.2-0.8-0.3-1.4-0.4-2h0
		c-0.1,0.6-0.2,1.2-0.5,2l-0.9,3.2H124.6z"/>
	<path class="st3" d="M132.1,12c0,0.3-0.2,0.5-0.5,0.5c-0.3,0-0.5-0.2-0.5-0.5c0-0.3,0.2-0.5,0.5-0.5
		C131.9,11.4,132.1,11.7,132.1,12z M131.2,17.7v-4.5h0.8v4.5H131.2z"/>
	<path class="st3" d="M134.4,11.9v1.3h1.2v0.6h-1.2v2.4c0,0.6,0.2,0.9,0.6,0.9c0.2,0,0.4,0,0.5-0.1l0,0.6c-0.2,0.1-0.4,0.1-0.7,0.1
		c-0.4,0-0.7-0.1-0.9-0.3c-0.2-0.2-0.3-0.6-0.3-1.2v-2.4h-0.7v-0.6h0.7v-1.1L134.4,11.9z"/>
	<path class="st3" d="M136.4,11.1h0.8v2.8h0c0.1-0.2,0.3-0.4,0.6-0.6c0.2-0.1,0.5-0.2,0.8-0.2c0.6,0,1.6,0.4,1.6,1.9v2.7h-0.8v-2.6
		c0-0.7-0.3-1.3-1-1.3c-0.5,0-0.9,0.4-1.1,0.8c0,0.1-0.1,0.2-0.1,0.4v2.7h-0.8V11.1z"/>
	<path class="st3" d="M143.6,11.5h3.4v0.7h-2.6v2.1h2.4v0.7h-2.4v2.8h-0.8V11.5z"/>
	<path class="st3" d="M148.7,12c0,0.3-0.2,0.5-0.5,0.5c-0.3,0-0.5-0.2-0.5-0.5c0-0.3,0.2-0.5,0.5-0.5
		C148.5,11.4,148.7,11.7,148.7,12z M147.8,17.7v-4.5h0.8v4.5H147.8z"/>
	<path class="st3" d="M150,11.1h0.8v6.6H150V11.1z"/>
	<path class="st3" d="M153.1,11.9v1.3h1.2v0.6h-1.2v2.4c0,0.6,0.2,0.9,0.6,0.9c0.2,0,0.4,0,0.5-0.1l0,0.6c-0.2,0.1-0.4,0.1-0.7,0.1
		c-0.4,0-0.7-0.1-0.9-0.3c-0.2-0.2-0.3-0.6-0.3-1.2v-2.4h-0.7v-0.6h0.7v-1.1L153.1,11.9z"/>
	<path class="st3" d="M155.6,15.6c0,1.1,0.7,1.6,1.5,1.6c0.6,0,0.9-0.1,1.2-0.2l0.1,0.6c-0.3,0.1-0.8,0.3-1.5,0.3
		c-1.4,0-2.2-0.9-2.2-2.3c0-1.3,0.8-2.4,2.1-2.4c1.5,0,1.8,1.3,1.8,2.1c0,0.2,0,0.3,0,0.4H155.6z M158,15c0-0.5-0.2-1.3-1.1-1.3
		c-0.8,0-1.2,0.8-1.2,1.3H158z"/>
	<path class="st3" d="M159.8,14.6c0-0.5,0-1,0-1.4h0.7l0,0.9h0c0.2-0.6,0.7-1,1.2-1c0.1,0,0.2,0,0.2,0v0.8c-0.1,0-0.2,0-0.3,0
		c-0.6,0-1,0.4-1.1,1c0,0.1,0,0.2,0,0.4v2.4h-0.8V14.6z"/>
</g>
<g>
	<path class="st0" d="M117.8,54.3c0,0,6.6-6.8,14.8,0.2C132.5,54.5,126,60.4,117.8,54.3z"/>
	<polyline class="st0" points="114.8,52.3 117.8,54.3 114.4,56.6 	"/>
</g>
<g>
	<path class="st0" d="M136.5,39.1c0,0-4,4.2-9.1-0.1C127.4,38.9,131.4,35.3,136.5,39.1z"/>
	<polyline class="st0" points="138.3,40.3 136.5,39.1 138.5,37.7 	"/>
</g>
<path class="st0" d="M103.3,33c0,0,3.8,0.2,8.2,3c0,0-2.8,2.2-9.2,2"/>
<line class="st4" x1="73.5" y1="99.9" x2="0.4" y2="13.3"/>
<line class="st4" x1="111" y1="99.9" x2="181" y2="11.5"/>
</svg>
