<!-- Generator: Adobe Illustrator 19.2.1, SVG Export Plug-In  -->
<svg version="1.1"
	 xmlns="http://www.w3.org/2000/svg" xmlns:xlink="http://www.w3.org/1999/xlink" xmlns:a="http://ns.adobe.com/AdobeSVGViewerExtensions/3.0/"
	 x="0px" y="0px" width="214.7px" height="205px" viewBox="0 0 214.7 205" style="enable-background:new 0 0 214.7 205;"
	 xml:space="preserve">
<style type="text/css">
	.st0{fill:none;stroke:#8E8E8E;stroke-miterlimit:10;}
	.st1{fill:none;stroke:#8E8E8E;stroke-width:3;stroke-miterlimit:10;stroke-dasharray:1,3;}
	.st2{fill:#8E8E8E;}
	.st3{fill:none;stroke:#8E8E8E;stroke-miterlimit:10;stroke-dasharray:5;}
</style>
<defs>
</defs>
<path class="st0" d="M116.3,114.7h23.5c2.5,0,4.5,2,4.5,4.5v12.1c0,2.5-2,4.5-4.5,4.5h-14c-1.4,0-2.7-0.8-3.4-2.1l-3-5.8
	c-0.7-1.3-2-2.1-3.4-2.1h-14.9c-1.4,0-2.7,0.8-3.4,2l-3.1,5.8c-0.7,1.2-2,2-3.4,2H71.8c-2.5,0-4.5-2-4.5-4.5v-12.1
	c0-2.5,2-4.5,4.5-4.5h28.9"/>
<path class="st0" d="M108.5,165.8H82.7c-2.5,0-4.5-2-4.5-4.5v-13.9c0-2.5,2-4.5,4.5-4.5h25.8c2.5,0,4.5,2,4.5,4.5v13.9
	C113,163.8,111,165.8,108.5,165.8z"/>
<path class="st0" d="M110.8,135.7H105c-1,0-1.8-0.8-1.8-1.8v-3c0-1,0.8-1.8,1.8-1.8h5.8c1,0,1.8,0.8,1.8,1.8v3
	C112.6,134.9,111.8,135.7,110.8,135.7z"/>
<path class="st0" d="M67.3,131.3v35c0,4.2,3.4,7.5,7.5,7.5h61.9c4.2,0,7.5-3.4,7.5-7.5v-35"/>
<circle class="st0" cx="128.8" cy="154.6" r="7.3"/>
<path class="st0" d="M98.1,127.3l2.8-12.1c0.4-1.6,1.8-2.8,3.5-2.8h8.4c1.7,0,3.2,1.2,3.5,2.8l2.6,12"/>
<path class="st0" d="M92.4,115l-0.6-6.7c0-1.3,5.2-7.8,16-7.8s15,6.5,15,7.8l-0.6,6.7"/>
<path class="st0" d="M122.6,112.5l1.6-2.6c0.8-1.3,1.3-2.7,1.4-4.3l0.5-5.8c0-1.5-6-9.3-19.1-9.3s-18.4,7.8-18.4,9.3l0.5,5.7
	c0.1,1.6,0.7,3.1,1.5,4.5l1.5,2.3"/>
<g>
	
		<ellipse transform="matrix(0.2912 -0.9567 0.9567 0.2912 43.3708 265.2033)" class="st0" cx="200.7" cy="103.3" rx="4.9" ry="4.9"/>
	<line class="st0" x1="202.8" y1="96.2" x2="204.9" y2="89.5"/>
	<line class="st0" x1="207.8" y1="99.5" x2="213" y2="96.7"/>
	<line class="st0" x1="207.8" y1="105.5" x2="214.5" y2="107.6"/>
	<line class="st0" x1="204.5" y1="110.5" x2="207.3" y2="115.7"/>
	<line class="st0" x1="198.5" y1="110.5" x2="196.4" y2="117.2"/>
	<line class="st0" x1="193.5" y1="107.1" x2="188.3" y2="109.9"/>
	<line class="st0" x1="193.5" y1="101.1" x2="186.8" y2="99.1"/>
	<line class="st0" x1="196.9" y1="96.2" x2="194.1" y2="91"/>
</g>
<path class="st0" d="M14.4,104.3c-1-3.1-0.1-6.4,2.1-8.6c-1.4-0.3-2.9-0.2-4.3,0.2c-4.6,1.4-7.1,6.3-5.7,10.8
	c1.4,4.6,6.3,7.1,10.8,5.7c1.4-0.4,2.7-1.2,3.7-2.2C17.9,109.6,15.4,107.4,14.4,104.3z"/>
<path class="st1" d="M123.7,9.9c36.1,7,64.9,34.5,73.7,70"/>
<path class="st1" d="M13.3,81.4C21.8,44.7,51.6,16.1,89,9.6"/>
<circle class="st0" cx="106.2" cy="9.2" r="8.7"/>
<polyline class="st0" points="105.5,4.5 106.2,9.2 108.8,13.2 "/>
<path class="st1" d="M87.9,199c-36.1-7-64.9-34.5-73.7-70"/>
<path class="st1" d="M198.4,127.5c-8.5,36.7-38.4,65.2-75.8,71.8"/>
<g>
	<path class="st2" d="M99,194.5v10.3h-1.3v-10.3H99z"/>
	<path class="st2" d="M101.1,203.2c0.6,0.4,1.5,0.7,2.4,0.7c1.4,0,2.2-0.7,2.2-1.8c0-1-0.6-1.5-1.9-2.1c-1.7-0.6-2.7-1.5-2.7-2.9
		c0-1.6,1.3-2.8,3.3-2.8c1.1,0,1.8,0.2,2.3,0.5l-0.4,1.1c-0.3-0.2-1-0.5-2-0.5c-1.4,0-1.9,0.8-1.9,1.5c0,1,0.6,1.4,2.1,2
		c1.7,0.7,2.6,1.5,2.6,3c0,1.6-1.2,3-3.6,3c-1,0-2.1-0.3-2.6-0.7L101.1,203.2z"/>
	<path class="st2" d="M117.7,199.5c0,3.6-2.2,5.4-4.8,5.4c-2.7,0-4.6-2.1-4.6-5.2c0-3.3,2-5.4,4.8-5.4
		C115.8,194.3,117.7,196.5,117.7,199.5z M109.7,199.7c0,2.2,1.2,4.2,3.3,4.2c2.1,0,3.3-1.9,3.3-4.3c0-2.1-1.1-4.2-3.3-4.2
		C110.8,195.4,109.7,197.4,109.7,199.7z"/>
</g>
<g>
	<path class="st2" d="M16.2,157.9l2.7-0.3l0.4,1l-8.5,0.8l-0.5-1.2l6.3-5.8l0.5,1l-2,1.8L16.2,157.9z M14.4,155.8l-1.8,1.7
		c-0.4,0.4-0.8,0.7-1.2,1l0,0c0.5-0.1,1-0.2,1.5-0.2l2.5-0.2L14.4,155.8z"/>
	<path class="st2" d="M8.4,154l4.4-1.9c1.7-0.7,2-1.8,1.6-2.8c-0.5-1.1-1.5-1.5-3.2-0.7l-4.4,1.9l-0.4-1l4.3-1.9
		c2.3-1,3.7-0.2,4.4,1.4c0.7,1.5,0.3,3-2,4.1l-4.4,1.9L8.4,154z"/>
	<path class="st2" d="M5.9,146.1l1,2.2l-0.8,0.4l-2.4-5.5l0.8-0.4l1,2.3l6.6-2.9l0.4,1L5.9,146.1z"/>
	<path class="st2" d="M4.2,134.8c2.5-1.1,4.6-0.2,5.4,1.7c0.9,2,0,4-2.3,5c-2.3,1-4.5,0.3-5.4-1.7C1,137.7,2,135.7,4.2,134.8z
		 M6.9,140.4c1.6-0.7,2.6-2.2,1.9-3.7c-0.7-1.5-2.4-1.7-4.1-1c-1.5,0.7-2.7,2.1-2,3.7C3.4,141,5.2,141.2,6.9,140.4z"/>
</g>
<g>
	<path class="st2" d="M210.7,133.7L210.7,133.7l-0.3-1.5l0.8,0.1l0.3,1.9l-0.3,0.9l-7.4-2.4l0.3-1L210.7,133.7z"/>
	<path class="st2" d="M205.2,141.4c-2.5-0.8-3.6-2.2-3.1-3.9c0.5-1.4,2.2-2,4.6-1.2c2.5,0.8,3.5,2.3,3,3.8
		C209.2,141.7,207.6,142.2,205.2,141.4z M206.4,137.3c-1.9-0.6-3.2-0.4-3.5,0.5c-0.3,1,0.7,1.9,2.6,2.5c1.8,0.6,3.2,0.5,3.5-0.5
		C209.3,139,208.4,138,206.4,137.3z"/>
	<path class="st2" d="M203.3,147.2c-2.5-0.8-3.6-2.2-3.1-3.9c0.5-1.4,2.2-2,4.6-1.2c2.5,0.8,3.5,2.3,3,3.8
		C207.3,147.6,205.6,148,203.3,147.2z M204.5,143.2c-1.9-0.6-3.2-0.4-3.5,0.5c-0.3,1,0.7,1.9,2.6,2.5c1.8,0.6,3.2,0.5,3.5-0.5
		C207.4,144.8,206.5,143.8,204.5,143.2z"/>
</g>
<polygon class="st0" points="95,60.3 87.7,77.3 103.2,77.3 "/>
<polyline class="st0" points="103.2,77.3 124.6,77.3 109.3,51.5 99.3,68.8 "/>
<polyline class="st0" points="105.4,58.3 108.6,62.6 110.7,58.3 114.6,60.3 "/>
<path class="st0" d="M78.6,45.8c-0.2,0-0.3,0-0.5,0c-0.6-1.4-1.9-2.4-3.5-2.4c-1.6,0-2.9,0.9-3.5,2.3c-1.5,0-2.7,1.2-2.7,2.7
	c0,1.5,1.2,2.7,2.7,2.7c0.6,0,1.1-0.2,1.6-0.5c0.6,0.3,1.2,0.5,1.9,0.5c0.8,0,1.6-0.3,2.2-0.7c0.5,0.4,1.1,0.7,1.8,0.7
	c1.5,0,2.7-1.2,2.7-2.7C81.3,47,80.1,45.8,78.6,45.8z"/>
<polygon class="st2" points="87.2,77.8 72.4,78.1 88.9,73.8 "/>
<line class="st0" x1="92.2" y1="67.3" x2="28.2" y2="67.3"/>
<line class="st0" x1="118.2" y1="66.3" x2="176.2" y2="66.3"/>
<line class="st3" x1="84.8" y1="90.2" x2="33.2" y2="6.8"/>
<line class="st3" x1="126.8" y1="90.2" x2="176.7" y2="3.3"/>
<g>
	<path class="st2" d="M198.6,48.1L198.6,48.1l-1.1-0.9l0.6-0.5l1.4,1.1l0.3,0.8l-6.5,2.8l-0.4-0.9L198.6,48.1z"/>
	<path class="st2" d="M193.7,53.5l8.5-0.3l0.3,0.7l-8.5,0.3L193.7,53.5z"/>
	<path class="st2" d="M202.3,56.7L202.3,56.7l-1.1-0.9l0.6-0.5l1.4,1.1l0.3,0.8L197,60l-0.4-0.9L202.3,56.7z"/>
	<path class="st2" d="M203.2,65.3c-2.2,1-3.8,0.7-4.4-0.8c-0.5-1.3,0.3-2.6,2.4-3.6c2.2-0.9,3.8-0.5,4.4,0.8
		C206.2,63.1,205.3,64.4,203.2,65.3z M201.6,61.8c-1.7,0.7-2.4,1.7-2.1,2.5c0.4,0.9,1.6,0.9,3.3,0.2c1.6-0.7,2.5-1.6,2.1-2.5
		C204.5,61.2,203.3,61,201.6,61.8z"/>
	<path class="st2" d="M205.4,70.4c-2.2,1-3.8,0.7-4.4-0.8c-0.6-1.3,0.3-2.6,2.4-3.6c2.2-0.9,3.8-0.5,4.4,0.8
		C208.4,68.2,207.5,69.5,205.4,70.4z M203.8,66.9c-1.7,0.7-2.4,1.7-2.1,2.5c0.4,0.9,1.6,0.9,3.3,0.2c1.6-0.7,2.5-1.6,2.1-2.5
		C206.8,66.3,205.6,66.2,203.8,66.9z"/>
	<path class="st2" d="M207.7,75.6c-2.2,1-3.8,0.7-4.4-0.8c-0.6-1.3,0.3-2.6,2.4-3.6c2.2-0.9,3.8-0.5,4.4,0.8
		C210.6,73.4,209.7,74.7,207.7,75.6z M206,72.1c-1.7,0.7-2.4,1.7-2.1,2.5c0.4,0.9,1.6,0.9,3.3,0.2c1.6-0.7,2.5-1.6,2.1-2.5
		C209,71.5,207.8,71.3,206,72.1z"/>
</g>
<g>
	<path class="st2" d="M0.8,77.9L0.8,77.9l0.3,1.4l-0.8,0L0,77.6l0.2-0.8l6.9,1.7l-0.2,0.9L0.8,77.9z"/>
	<path class="st2" d="M8,76.6l-6.9-4.9L1.2,71l6.9,4.9L8,76.6z"/>
	<path class="st2" d="M3.1,68.9L3.1,68.9l0.3,1.4l-0.8,0l-0.4-1.7l0.2-0.8l6.9,1.7l-0.2,0.9L3.1,68.9z"/>
	<path class="st2" d="M10,66.9l-0.6-0.1l-0.5-0.9c-1.2-2.2-1.9-3.2-3-3.5c-0.7-0.2-1.4,0-1.7,1c-0.2,0.6,0,1.2,0.2,1.6l-0.7,0.1
		c-0.3-0.6-0.4-1.3-0.2-2.1C3.8,61.6,5,61.2,6,61.5c1.3,0.3,2.1,1.5,3.1,3.3l0.4,0.7l0,0l0.8-3.1l0.8,0.2L10,66.9z"/>
	<path class="st2" d="M6.2,55.9l-0.7,2.6l1.7,0.7c0-0.2,0-0.3,0.1-0.6c0.1-0.5,0.4-1,0.7-1.4c0.4-0.5,1.1-0.8,2-0.5
		c1.3,0.3,2.1,1.7,1.7,3.1c-0.2,0.8-0.6,1.3-0.8,1.6l-0.7-0.4c0.2-0.2,0.6-0.8,0.7-1.4c0.2-0.9-0.2-1.8-1.1-2
		c-0.9-0.2-1.7,0.2-2,1.6c-0.1,0.4-0.1,0.7-0.2,1L4.6,59l0.8-3.3L6.2,55.9z"/>
</g>
</svg>
