<!-- Generator: Adobe Illustrator 19.2.1, SVG Export Plug-In  -->
<svg version="1.1"
	 xmlns="http://www.w3.org/2000/svg" xmlns:xlink="http://www.w3.org/1999/xlink" xmlns:a="http://ns.adobe.com/AdobeSVGViewerExtensions/3.0/"
	 x="0px" y="0px" width="202.6px" height="211.8px" viewBox="0 0 202.6 211.8" style="enable-background:new 0 0 202.6 211.8;"
	 xml:space="preserve">
<style type="text/css">
	.st0{fill:none;stroke:#8E8E8E;stroke-miterlimit:10;}
	.st1{fill:none;stroke:#8E8E8E;stroke-width:3;stroke-miterlimit:10;stroke-dasharray:1,3;}
	.st2{fill:#8E8E8E;}
	.st3{fill:none;stroke:#8E8E8E;stroke-miterlimit:10;stroke-dasharray:5;}
</style>
<defs>
</defs>
<line class="st0" x1="97" y1="170.3" x2="71.5" y2="188.8"/>
<line class="st0" x1="111" y1="170.3" x2="139" y2="198.3"/>
<line class="st0" x1="105.2" y1="171.5" x2="100.5" y2="211.5"/>
<line class="st0" x1="65.5" y1="189.3" x2="78.5" y2="189.3"/>
<line class="st0" x1="130.5" y1="198.3" x2="143.5" y2="198.3"/>
<line class="st0" x1="93.5" y1="211.3" x2="106.5" y2="211.3"/>
<path class="st0" d="M112.7,111.7h23.5c2.5,0,4.5,2,4.5,4.5v12.1c0,2.5-2,4.5-4.5,4.5h-14c-1.4,0-2.7-0.8-3.4-2.1l-3-5.8
	c-0.7-1.3-2-2.1-3.4-2.1H97.6c-1.4,0-2.7,0.8-3.4,2l-3.1,5.8c-0.7,1.2-2,2-3.4,2H68.1c-2.5,0-4.5-2-4.5-4.5v-12.1
	c0-2.5,2-4.5,4.5-4.5H97"/>
<path class="st0" d="M104.9,162.8H79c-2.5,0-4.5-2-4.5-4.5v-13.9c0-2.5,2-4.5,4.5-4.5h25.8c2.5,0,4.5,2,4.5,4.5v13.9
	C109.4,160.8,107.3,162.8,104.9,162.8z"/>
<path class="st0" d="M107.2,132.7h-5.8c-1,0-1.8-0.8-1.8-1.8v-3c0-1,0.8-1.8,1.8-1.8h5.8c1,0,1.8,0.8,1.8,1.8v3
	C108.9,131.9,108.1,132.7,107.2,132.7z"/>
<path class="st0" d="M63.7,128.3v35c0,4.2,3.4,7.5,7.5,7.5h61.9c4.2,0,7.5-3.4,7.5-7.5v-35"/>
<circle class="st0" cx="125.2" cy="151.6" r="7.3"/>
<path class="st0" d="M94.5,124.3l2.8-12.1c0.4-1.6,1.8-2.8,3.5-2.8h8.4c1.7,0,3.2,1.2,3.5,2.8l2.6,12"/>
<path class="st0" d="M88.7,112l-0.6-6.7c0-1.3,5.2-7.8,16-7.8s15,6.5,15,7.8l-0.6,6.7"/>
<path class="st0" d="M118.9,109.5l1.6-2.6c0.8-1.3,1.3-2.7,1.4-4.3l0.5-5.8c0-1.5-6-9.3-19.1-9.3s-18.4,7.8-18.4,9.3l0.5,5.7
	c0.1,1.6,0.7,3.1,1.5,4.5l1.5,2.3"/>
<g>
	<path class="st0" d="M135.3,22.8c0.1-2.7,2.4-4.8,5-4.7c2.7,0.1,4.8,2.4,4.7,5"/>
	<line class="st0" x1="142.3" y1="16.3" x2="145" y2="9.8"/>
	<line class="st0" x1="146.9" y1="20.1" x2="152.4" y2="17.9"/>
	<line class="st0" x1="132.5" y1="20.3" x2="126" y2="17.7"/>
	<line class="st0" x1="136.3" y1="15.8" x2="134.1" y2="10.3"/>
</g>
<path class="st1" d="M183.6,163.8c8.1-18.8,10.1-40.2,4.8-61"/>
<g>
	<path class="st2" d="M184.7,81.1l-9.4,4.3l-0.5-1.2l9.4-4.3L184.7,81.1z"/>
	<path class="st2" d="M177.7,86.7c-0.1,0.7,0,1.6,0.4,2.5c0.6,1.2,1.5,1.7,2.5,1.2c0.9-0.4,1.2-1.1,1.1-2.6
		c-0.2-1.8,0.2-3.1,1.5-3.7c1.5-0.7,3.1,0.1,3.9,1.9c0.4,1,0.5,1.8,0.5,2.3l-1.1,0.1c0-0.4,0-1.1-0.4-2c-0.6-1.3-1.6-1.4-2.2-1.1
		c-0.9,0.4-1.1,1.2-1,2.7c0.1,1.9-0.3,3-1.7,3.7c-1.5,0.7-3.2,0.2-4.2-2.1c-0.4-0.9-0.6-2-0.5-2.7L177.7,86.7z"/>
	<path class="st2" d="M187.8,100.3c-3.2,1.5-5.8,0.3-6.9-2.1c-1.1-2.5,0-5.1,2.9-6.4c3-1.4,5.8-0.4,6.9,2.1
		C191.8,96.4,190.6,99,187.8,100.3z M184.4,93c-2,0.9-3.3,2.8-2.5,4.7c0.9,1.9,3.1,2.2,5.3,1.2c1.9-0.8,3.4-2.7,2.5-4.7
		C188.7,92.3,186.4,92.1,184.4,93z"/>
</g>
<g>
	<path class="st2" d="M201.7,154.1L201.7,154.1l-0.2-1.5l0.8,0.1l0.3,1.9l-0.3,0.8l-7.3-2.7l0.4-1L201.7,154.1z"/>
	<path class="st2" d="M195.9,161.6c-2.5-0.9-3.5-2.4-2.9-4c0.5-1.4,2.2-1.9,4.7-1c2.5,0.9,3.4,2.5,2.9,4
		C199.9,162.1,198.2,162.5,195.9,161.6z M197.3,157.6c-1.9-0.7-3.2-0.5-3.5,0.4c-0.4,1,0.6,1.9,2.5,2.6c1.8,0.7,3.2,0.6,3.5-0.4
		C200.1,159.4,199.3,158.4,197.3,157.6z"/>
	<path class="st2" d="M193.8,167.4c-2.5-0.9-3.5-2.4-2.9-4c0.5-1.4,2.2-1.9,4.7-1c2.5,0.9,3.4,2.5,2.9,4
		C197.8,167.9,196.1,168.3,193.8,167.4z M195.1,163.4c-1.9-0.7-3.2-0.5-3.5,0.4c-0.4,1,0.6,1.9,2.5,2.6c1.8,0.7,3.2,0.6,3.5-0.4
		C197.9,165.2,197.1,164.1,195.1,163.4z"/>
</g>
<polygon class="st0" points="91.3,17.3 84,34.3 99.5,34.3 "/>
<polyline class="st0" points="99.5,34.3 121,34.3 105.7,8.5 95.7,25.8 "/>
<polyline class="st0" points="101.8,15.3 104.9,19.6 107,15.3 110.9,17.3 "/>
<path class="st0" d="M75,2.8c-0.2,0-0.3,0-0.5,0c-0.6-1.4-1.9-2.4-3.5-2.4c-1.6,0-2.9,0.9-3.5,2.3c-1.5,0-2.7,1.2-2.7,2.7
	c0,1.5,1.2,2.7,2.7,2.7c0.6,0,1.1-0.2,1.6-0.5C69.6,8,70.3,8.2,71,8.2c0.8,0,1.6-0.3,2.2-0.7c0.5,0.4,1.1,0.7,1.8,0.7
	c1.5,0,2.7-1.2,2.7-2.7S76.5,2.8,75,2.8z"/>
<polygon class="st2" points="83.5,34.8 68.8,35.1 85.2,30.8 "/>
<line class="st0" x1="88.5" y1="24.3" x2="24.5" y2="24.3"/>
<line class="st0" x1="114.5" y1="23.3" x2="172.5" y2="23.3"/>
<line class="st3" x1="81.2" y1="87.2" x2="29.5" y2="3.8"/>
<line class="st3" x1="123.2" y1="87.2" x2="173" y2="0.3"/>
<path class="st0" d="M29.3,167.3H5.6c-2.8,0-5.1-2.3-5.1-5.1v-52.2c0-2.8,2.3-5.1,5.1-5.1h23.6c2.8,0,5.1,2.3,5.1,5.1v52.2
	C34.4,165,32.1,167.3,29.3,167.3z"/>
<circle class="st0" cx="17.5" cy="153.2" r="7"/>
<g>
	<line class="st0" x1="18" y1="149.8" x2="18" y2="156.8"/>
	<line class="st0" x1="14.5" y1="153.3" x2="21.5" y2="153.3"/>
</g>
<polygon class="st0" points="21.8,133.7 13.8,138.3 13.8,129 "/>
<rect x="13.4" y="114.7" class="st0" width="7.4" height="7.4"/>
</svg>
