<!-- Generator: Adobe Illustrator 19.2.1, SVG Export Plug-In  -->
<svg version="1.1"
	 xmlns="http://www.w3.org/2000/svg" xmlns:xlink="http://www.w3.org/1999/xlink" xmlns:a="http://ns.adobe.com/AdobeSVGViewerExtensions/3.0/"
	 x="0px" y="0px" width="242px" height="229.2px" viewBox="0 0 242 229.2" style="enable-background:new 0 0 242 229.2;"
	 xml:space="preserve">
<style type="text/css">
	.st0{fill:none;stroke:#8E8E8E;stroke-miterlimit:10;}
	.st1{fill:none;stroke:#8E8E8E;stroke-miterlimit:10;stroke-dasharray:1;}
	.st2{fill:#8E8E8E;}
	.st3{fill:none;stroke:#8E8E8E;stroke-miterlimit:10;stroke-dasharray:5;}
</style>
<defs>
</defs>
<g>
	<path class="st0" d="M215.6,37.4c0-2.7,2.2-4.9,4.9-4.9s4.9,2.2,4.9,4.9"/>
	<line class="st0" x1="217.3" y1="30.5" x2="214.6" y2="24"/>
	<line class="st0" x1="223.3" y1="30" x2="225.6" y2="24.5"/>
	<line class="st0" x1="227.1" y1="34.5" x2="233.6" y2="31.9"/>
	<line class="st0" x1="212.7" y1="34.3" x2="207.2" y2="32"/>
</g>
<g>
	<path class="st0" d="M16.6,37.4c0-2.7,2.2-4.9,4.9-4.9s4.9,2.2,4.9,4.9"/>
	<line class="st0" x1="18.3" y1="30.5" x2="15.6" y2="24"/>
	<line class="st0" x1="24.3" y1="30" x2="26.6" y2="24.5"/>
	<line class="st0" x1="28.1" y1="34.5" x2="34.6" y2="31.9"/>
	<line class="st0" x1="13.7" y1="34.3" x2="8.2" y2="32"/>
</g>
<path class="st0" d="M127.5,169.7H151c2.5,0,4.5,2,4.5,4.5v12.1c0,2.5-2,4.5-4.5,4.5h-14c-1.4,0-2.7-0.8-3.4-2.1l-3-5.8
	c-0.7-1.3-2-2.1-3.4-2.1h-14.9c-1.4,0-2.7,0.8-3.4,2l-3.1,5.8c-0.7,1.2-2,2-3.4,2H82.9c-2.5,0-4.5-2-4.5-4.5v-12.1
	c0-2.5,2-4.5,4.5-4.5h28.9"/>
<path class="st0" d="M119.7,220.8H93.9c-2.5,0-4.5-2-4.5-4.5v-13.9c0-2.5,2-4.5,4.5-4.5h25.8c2.5,0,4.5,2,4.5,4.5v13.9
	C124.2,218.7,122.2,220.8,119.7,220.8z"/>
<path class="st0" d="M122,190.7h-5.8c-1,0-1.8-0.8-1.8-1.8v-3c0-1,0.8-1.8,1.8-1.8h5.8c1,0,1.8,0.8,1.8,1.8v3
	C123.8,189.9,123,190.7,122,190.7z"/>
<path class="st0" d="M78.5,186.2v35c0,4.2,3.4,7.5,7.5,7.5H148c4.2,0,7.5-3.4,7.5-7.5v-35"/>
<circle class="st0" cx="140" cy="209.6" r="7.3"/>
<path class="st0" d="M109.3,182.2l2.8-12.1c0.4-1.6,1.8-2.8,3.5-2.8h8.4c1.7,0,3.2,1.2,3.5,2.8l2.6,12"/>
<path class="st0" d="M103.6,169.9l-0.6-6.7c0-1.3,5.2-7.8,16-7.8s15,6.5,15,7.8l-0.6,6.7"/>
<path class="st0" d="M133.8,167.4l1.6-2.6c0.8-1.3,1.3-2.7,1.4-4.3l0.5-5.8c0-1.5-6-9.3-19.1-9.3s-18.4,7.8-18.4,9.3l0.5,5.7
	c0.1,1.6,0.7,3.1,1.5,4.5l1.5,2.3"/>
<path class="st0" d="M117.1,154.9"/>
<polyline class="st0" points="136.7,130.7 135.9,114.1 128.2,118.9 117.9,112.4 107.5,118.9 99.8,114.1 99,130.7 "/>
<ellipse class="st0" cx="117.9" cy="131" rx="18.8" ry="8.5"/>
<line class="st1" x1="99.1" y1="134" x2="99.3" y2="149.2"/>
<line class="st1" x1="137.1" y1="134" x2="137.3" y2="149.2"/>
<polygon class="st0" points="98.8,31.4 91.5,48.4 107,48.4 "/>
<polyline class="st0" points="107,48.4 128.5,48.4 113.2,22.6 103.2,39.9 "/>
<polyline class="st0" points="109.3,29.3 112.4,33.7 114.5,29.3 118.4,31.4 "/>
<polygon class="st2" points="91,48.9 76.2,49.2 92.8,44.9 "/>
<path class="st0" d="M153.8,54.2c0-1.8-1.5-3.3-3.3-3.3c-1.6,0-3,1.2-3.2,2.8c-1.3,0.2-2.3,1.3-2.3,2.7c0,1.5,1.2,2.8,2.8,2.8
	c0,0,0.1,0,0.1,0c0.3,1.2,1.4,2,2.6,2c1.5,0,2.8-1.2,2.8-2.8c0-0.7-0.2-1.3-0.6-1.8C153.3,56,153.8,55.2,153.8,54.2z"/>
<line class="st0" x1="150.8" y1="66.9" x2="150.7" y2="61.4"/>
<path class="st2" d="M151,66.9h-13.6c0,0,1.1-3.3,4-3.3s6,1.8,6,1.8L151,66.9z"/>
<line class="st0" x1="0" y1="38.4" x2="96" y2="38.4"/>
<line class="st0" x1="122" y1="37.4" x2="242" y2="37.4"/>
<polygon class="st0" points="87,63.4 95,63.4 97.5,67.4 103.5,67.4 103.5,71.4 81.5,71.4 81.5,66.9 "/>
<line class="st0" x1="81" y1="67.4" x2="97" y2="67.4"/>
<path class="st0" d="M89.6,71.3c0,1.4-1.2,2.6-2.6,2.6s-2.6-1.2-2.6-2.6"/>
<path class="st0" d="M101.9,71.3c0,1.4-1.2,2.6-2.6,2.6s-2.6-1.2-2.6-2.6"/>
<polygon class="st2" points="86,73.5 71,73.9 76.5,71.9 84.2,71.9 "/>
<polygon class="st2" points="97.7,73.6 88.6,73.5 89.8,71.9 96.2,71.9 "/>
<line class="st3" x1="96.7" y1="112.2" x2="32.7" y2="0.2"/>
<line class="st3" x1="138.7" y1="112.2" x2="202.7" y2="0.2"/>
</svg>
