<!-- Generator: Adobe Illustrator 19.2.1, SVG Export Plug-In  -->
<svg version="1.1"
	 xmlns="http://www.w3.org/2000/svg" xmlns:xlink="http://www.w3.org/1999/xlink" xmlns:a="http://ns.adobe.com/AdobeSVGViewerExtensions/3.0/"
	 x="0px" y="0px" width="69px" height="50px" viewBox="0 0 69 50" style="enable-background:new 0 0 69 50;" xml:space="preserve">
<style type="text/css">
	.st0{fill:none;stroke:#FFFFFF;stroke-width:2;stroke-linecap:round;stroke-linejoin:round;stroke-miterlimit:10;}
	.st1{fill:none;stroke:#FFFFFF;stroke-width:2;stroke-miterlimit:10;}
</style>
<defs>
</defs>
<polyline class="st0" points="12,1 1,1 1,49 12,49 "/>
<polyline class="st0" points="57,1 68,1 68,49 57,49 "/>
<line class="st1" x1="27" y1="10" x2="27" y2="40"/>
<line class="st1" x1="23" y1="10" x2="23" y2="40"/>
<line class="st1" x1="32" y1="10" x2="32" y2="40"/>
<line class="st1" x1="40" y1="10" x2="40" y2="40"/>
<line class="st1" x1="44" y1="10" x2="44" y2="40"/>
<line class="st1" x1="36" y1="10" x2="36" y2="40"/>
<line class="st1" x1="19" y1="32" x2="49" y2="32"/>
<line class="st1" x1="19" y1="36" x2="49" y2="36"/>
<line class="st1" x1="19" y1="16" x2="49" y2="16"/>
<line class="st1" x1="19" y1="20" x2="49" y2="20"/>
<line class="st1" x1="19" y1="24" x2="49" y2="24"/>
<line class="st1" x1="19" y1="28" x2="49" y2="28"/>
</svg>
