<!-- Generator: Adobe Illustrator 19.2.1, SVG Export Plug-In  -->
<svg version="1.1"
	 xmlns="http://www.w3.org/2000/svg" xmlns:xlink="http://www.w3.org/1999/xlink" xmlns:a="http://ns.adobe.com/AdobeSVGViewerExtensions/3.0/"
	 x="0px" y="0px" width="48px" height="48px" viewBox="0 0 48 48" style="enable-background:new 0 0 48 48;" xml:space="preserve">
<style type="text/css">
	.st0{fill:none;}
	.st1{fill:#016FDE;}
</style>
<defs>
</defs>
<rect class="st0" width="48" height="48"/>
<g>
	<g>
		<path class="st1" d="M26.6,29.5c-0.4-0.6-0.9-1.1-1.4-1.5c-0.5-0.5-1-0.9-1.5-1.3c-0.5-0.4-1-0.8-1.4-1.1c-0.4-0.4-0.7-0.7-1-1.1
			c-0.3-0.4-0.4-0.8-0.4-1.2c0-0.6,0.2-1.1,0.5-1.6c0.4-0.5,0.8-1,1.3-1.4c0.5-0.5,1-1,1.5-1.5c0.5-0.5,0.9-1.3,1.3-2.2
			c0.4-0.9,0.5-1.9,0.5-3.1c0-1.4-0.3-2.7-0.9-3.9c-0.6-1.3-1.5-2.2-2.6-2.9h3.1l3.1-1.8H18.9c-1.4,0-2.9,0.2-4.4,0.5
			c-2.2,0.5-4,1.6-5.4,3.3c-1.5,1.7-2.2,3.7-2.2,5.8c0,2.3,0.8,4.2,2.5,5.7c1.7,1.5,3.6,2.3,5.9,2.3c0.5,0,1,0,1.6-0.1
			c0,0.1-0.1,0.3-0.2,0.5c-0.1,0.2-0.1,0.4-0.2,0.5c0,0.1-0.1,0.3-0.1,0.5c0,0.2,0,0.4,0,0.5c0,1,0.5,2.2,1.5,3.5
			c-1.2,0-2.3,0.1-3.5,0.3c-1.1,0.2-2.3,0.5-3.6,0.8c-1.3,0.4-2.4,0.9-3.4,1.7c-1,0.7-1.7,1.6-2.2,2.6c-0.6,1.1-0.9,2.2-0.9,3.1
			c0,1,0.2,2,0.7,2.8c0.5,0.8,1.1,1.5,1.8,2.1c0.7,0.5,1.6,1,2.5,1.3c1,0.4,1.9,0.6,2.8,0.8c0.9,0.2,1.9,0.2,2.8,0.2
			c4.2,0,7.4-1,9.8-3c2.2-1.9,3.3-4.1,3.3-6.6c0-0.9-0.1-1.7-0.4-2.5C27.4,30.8,27.1,30.1,26.6,29.5z M17.7,21.1
			c-0.8,0-1.5-0.2-2.3-0.6c-0.7-0.4-1.3-0.9-1.8-1.6c-0.5-0.6-0.9-1.4-1.3-2.2c-0.4-0.8-0.6-1.6-0.8-2.4c-0.2-0.8-0.3-1.6-0.3-2.3
			c0-1.5,0.4-2.8,1.2-3.8c0.8-1.1,1.9-1.6,3.4-1.6c1,0,2,0.3,2.8,1c0.8,0.6,1.5,1.4,2,2.4c0.5,1,0.8,2,1.1,3c0.3,1,0.4,2,0.4,3
			c0,1.6-0.3,2.8-1,3.7C20.3,20.6,19.2,21.1,17.7,21.1z M24.1,38.6c-0.4,0.7-1,1.3-1.7,1.7c-0.7,0.4-1.5,0.7-2.3,0.9
			c-0.8,0.2-1.7,0.3-2.6,0.3c-1,0-2-0.1-3-0.3c-1-0.2-1.9-0.6-2.8-1.1c-0.9-0.5-1.6-1.1-2.2-2c-0.6-0.8-0.8-1.8-0.8-2.8
			c0-0.9,0.2-1.8,0.6-2.5c0.4-0.7,1-1.3,1.6-1.7c0.7-0.4,1.4-0.8,2.3-1.1c0.9-0.3,1.7-0.5,2.5-0.6c0.8-0.1,1.6-0.2,2.5-0.2
			c0.5,0,0.9,0,1.2,0c0.1,0.1,0.3,0.2,0.7,0.5s0.6,0.4,0.8,0.5c0.1,0.1,0.4,0.3,0.7,0.5c0.3,0.3,0.6,0.5,0.7,0.6
			c0.1,0.1,0.4,0.3,0.6,0.6c0.3,0.3,0.5,0.5,0.6,0.7c0.1,0.2,0.3,0.4,0.5,0.7c0.2,0.3,0.3,0.5,0.4,0.8c0.1,0.3,0.2,0.5,0.2,0.8
			c0.1,0.3,0.1,0.6,0.1,0.9C24.7,37,24.5,37.8,24.1,38.6z"/>
		<polygon class="st1" points="37.1,10.8 37.1,4.9 34.1,4.9 34.1,10.8 28.2,10.8 28.2,13.8 34.1,13.8 34.1,19.8 37.1,19.8 
			37.1,13.8 43.1,13.8 43.1,10.8 		"/>
	</g>
</g>
</svg>
