<!-- Generator: Adobe Illustrator 19.2.1, SVG Export Plug-In  -->
<svg version="1.1"
	 xmlns="http://www.w3.org/2000/svg" xmlns:xlink="http://www.w3.org/1999/xlink" xmlns:a="http://ns.adobe.com/AdobeSVGViewerExtensions/3.0/"
	 x="0px" y="0px" width="69px" height="50px" viewBox="0 0 69 50" style="enable-background:new 0 0 69 50;" xml:space="preserve">
<style type="text/css">
	.st0{fill:none;stroke:#FFFFFF;stroke-width:2;stroke-linecap:round;stroke-linejoin:round;stroke-miterlimit:10;}
	.st1{fill:none;stroke:#FFFFFF;stroke-width:2;stroke-miterlimit:10;}
</style>
<defs>
</defs>
<polyline class="st0" points="12,1 1,1 1,49 12,49 "/>
<polyline class="st0" points="57,1 68,1 68,49 57,49 "/>
<path class="st1" d="M35,17.7c-2.3-2.3-5.8-2.8-8.6-1.4l4.5,4.5l0,3.3l-3.5,0L23,19.7c-1.4,2.8-0.9,6.2,1.4,8.6
	c2.3,2.3,5.7,2.7,8.5,1.4l8.7,8.7L45,35l-8.7-8.7C37.7,23.5,37.3,20,35,17.7z"/>
</svg>
