<!-- Generator: Adobe Illustrator 19.2.1, SVG Export Plug-In  -->
<svg version="1.1"
	 xmlns="http://www.w3.org/2000/svg" xmlns:xlink="http://www.w3.org/1999/xlink" xmlns:a="http://ns.adobe.com/AdobeSVGViewerExtensions/3.0/"
	 x="0px" y="0px" width="236.8px" height="67.8px" viewBox="0 0 236.8 67.8" style="enable-background:new 0 0 236.8 67.8;"
	 xml:space="preserve">
<style type="text/css">
	.st0{fill:#FFFFFF;}
</style>
<defs>
</defs>
<g>
	<path class="st0" d="M76.2,5.3c0,0.7-0.1,1.4-0.4,2C75.5,8,75.2,8.5,74.7,9c-0.6,0.6-1.2,1-2,1.3c-0.8,0.3-1.7,0.4-2.9,0.4h-1.9
		v6.2h-2.2V0.3h4.2c1,0,1.8,0.1,2.5,0.2c0.7,0.2,1.3,0.4,1.8,0.8c0.6,0.4,1.1,1,1.4,1.6C76,3.6,76.2,4.4,76.2,5.3z M73.9,5.3
		c0-0.6-0.1-1.1-0.3-1.5c-0.2-0.4-0.5-0.8-0.9-1c-0.3-0.2-0.8-0.4-1.2-0.5c-0.5-0.1-1-0.1-1.7-0.1h-1.8v6.6h1.5
		c0.9,0,1.6-0.1,2.2-0.2c0.5-0.1,1-0.4,1.4-0.8c0.3-0.3,0.6-0.7,0.7-1.1C73.8,6.3,73.9,5.9,73.9,5.3z"/>
	<path class="st0" d="M75.9,16.9l5.6-16.6h2.7l5.6,16.6h-2.3L86,12.2h-6.3l-1.5,4.6H75.9z M85.4,10.4l-2.6-7.8l-2.5,7.8H85.4z"/>
	<path class="st0" d="M104.2,16.9h-2.9l-5.2-6.6h-2.5v6.6h-2.2V0.3h4.3c0.9,0,1.7,0.1,2.4,0.2c0.6,0.1,1.2,0.3,1.8,0.7
		c0.6,0.4,1,0.8,1.4,1.4c0.3,0.6,0.5,1.3,0.5,2.2c0,1.2-0.3,2.2-0.9,3c-0.6,0.8-1.5,1.4-2.5,1.8L104.2,16.9z M99.5,5
		c0-0.5-0.1-0.9-0.3-1.3C99,3.3,98.8,3,98.4,2.8c-0.3-0.2-0.7-0.4-1.1-0.4c-0.4-0.1-0.9-0.1-1.5-0.1h-2.2v6.2h1.9
		c0.6,0,1.2-0.1,1.7-0.2c0.5-0.1,0.9-0.3,1.3-0.7c0.3-0.3,0.6-0.7,0.7-1.1C99.4,6,99.5,5.5,99.5,5z"/>
	<path class="st0" d="M103.7,16.9l5.6-16.6h2.7l5.6,16.6h-2.3l-1.5-4.6h-6.3l-1.5,4.6H103.7z M113.2,10.4l-2.6-7.8l-2.5,7.8H113.2z"
		/>
	<path class="st0" d="M132.2,8.6c0,1.5-0.3,2.9-0.9,4.1c-0.6,1.2-1.4,2.2-2.5,2.8c-0.8,0.5-1.7,0.9-2.6,1.1c-0.9,0.2-2,0.3-3.3,0.3
		h-3.8V0.3h3.8c1.6,0,2.8,0.1,3.7,0.4c0.9,0.2,1.6,0.6,2.3,1c1.1,0.7,1.9,1.6,2.5,2.8C131.9,5.6,132.2,7,132.2,8.6z M129.9,8.6
		c0-1.3-0.2-2.4-0.6-3.3c-0.4-0.9-1-1.6-1.9-2.1c-0.6-0.4-1.2-0.6-1.9-0.8s-1.5-0.2-2.5-0.2h-1.7V15h1.7c1,0,1.8-0.1,2.6-0.2
		s1.4-0.4,2-0.9c0.8-0.5,1.3-1.2,1.7-2.1S129.9,9.9,129.9,8.6z"/>
	<path class="st0" d="M140.4,16.9H134v-1.7h2.1V2H134V0.3h6.4V2h-2.1v13.2h2.1V16.9z"/>
	<path class="st0" d="M147.7,17.2c-1.2,0-2.2-0.1-3.1-0.4s-1.6-0.6-2.4-0.9v-2.8h0.2c0.7,0.7,1.5,1.2,2.5,1.6
		c0.9,0.4,1.8,0.6,2.7,0.6c1.2,0,2.1-0.3,2.8-0.8c0.6-0.5,0.9-1.2,0.9-2c0-0.7-0.2-1.2-0.5-1.6c-0.3-0.4-0.8-0.7-1.6-0.9
		c-0.5-0.1-1-0.3-1.4-0.4c-0.4-0.1-1-0.2-1.6-0.4c-0.6-0.1-1.1-0.3-1.5-0.6c-0.5-0.2-0.9-0.5-1.2-0.9c-0.3-0.4-0.6-0.8-0.8-1.3
		c-0.2-0.5-0.3-1.1-0.3-1.7c0-1.3,0.5-2.5,1.6-3.4c1-0.9,2.4-1.4,4-1.4c0.9,0,1.8,0.1,2.6,0.3c0.8,0.2,1.6,0.4,2.3,0.8v2.6h-0.2
		c-0.5-0.5-1.2-0.9-2-1.3c-0.8-0.4-1.7-0.5-2.6-0.5c-1,0-1.8,0.2-2.5,0.7s-0.9,1.1-0.9,1.9c0,0.7,0.2,1.3,0.6,1.7
		c0.4,0.4,0.9,0.7,1.6,0.9c0.5,0.1,1,0.3,1.7,0.4c0.7,0.2,1.2,0.3,1.7,0.4c1.1,0.3,2,0.9,2.5,1.6s0.8,1.6,0.8,2.6
		c0,0.6-0.1,1.3-0.4,1.9c-0.3,0.6-0.6,1.2-1.1,1.6c-0.5,0.5-1.1,0.9-1.8,1.1S148.7,17.2,147.7,17.2z"/>
	<path class="st0" d="M155.8,16.9V0.3h10.4v2H158v4.5h7.6v2H158v6.1h8.1v2H155.8z"/>
</g>
<g>
	<g>
		<polygon class="st0" points="52.8,67.8 39.8,67.8 39.8,25.8 52.8,25.8 52.8,31.8 45.8,31.8 45.8,61.8 52.8,61.8 		"/>
	</g>
	<g>
		<polygon class="st0" points="102.8,67.8 88.8,67.8 88.8,61.8 96.8,61.8 96.8,31.8 89.8,31.8 89.8,25.8 102.8,25.8 		"/>
	</g>
	<g>
		<path class="st0" d="M71.8,61.8c-8.3,0-15-6.7-15-15s6.7-15,15-15s15,6.7,15,15S80.1,61.8,71.8,61.8z M71.8,37.8c-5,0-9,4-9,9
			s4,9,9,9s9-4,9-9S76.8,37.8,71.8,37.8z"/>
	</g>
	<g>
		<path class="st0" d="M20,56.7c-0.9,1.8-2.2,2.7-3.4,2.7c-1.3,0-2.5-0.9-3.4-2.8L6.8,43.4v20.9H0v-35h6.7l9.9,20.2l9.8-20.2h6.7v35
			h-6.8V43.4L20,56.7z"/>
	</g>
	<g>
		<path class="st0" d="M129.7,56.7c-0.9,1.8-2.2,2.7-3.4,2.7c-1.3,0-2.5-0.9-3.4-2.8l-6.4-13.1v20.9h-6.8v-35h6.7l9.9,20.2l9.8-20.2
			h6.7v35H136V43.4L129.7,56.7z"/>
		<path class="st0" d="M160.7,64.3c-7.8,0-10.7-2.3-10.7-9.2V29.3h23v6.1h-16.2v8.2h11.4l-0.5,6.1h-10.9v4.9c0,2.8,1.1,3.6,4.3,3.6
			H173v6.1H160.7z"/>
		<path class="st0" d="M207,60.8c0,2.2-1.5,3.9-3.3,3.9c-1.5,0-3.6-0.4-5.6-3.9l-12.1-18.9v22.5h-6.8v-35h6.6l14.3,22.9V29.3h6.8
			V60.8z"/>
		<path class="st0" d="M227.4,35.4v28.9h-6.8V35.4h-9.3v-6.1h25.5v6.1H227.4z"/>
	</g>
</g>
</svg>
