<!-- Generator: Adobe Illustrator 19.2.1, SVG Export Plug-In  -->
<svg version="1.1"
	 xmlns="http://www.w3.org/2000/svg" xmlns:xlink="http://www.w3.org/1999/xlink" xmlns:a="http://ns.adobe.com/AdobeSVGViewerExtensions/3.0/"
	 x="0px" y="0px" width="247px" height="229.2px" viewBox="0 0 247 229.2" style="enable-background:new 0 0 247 229.2;"
	 xml:space="preserve">
<style type="text/css">
	.st0{fill:none;stroke:#8E8E8E;stroke-miterlimit:10;}
	.st1{fill:none;stroke:#8E8E8E;stroke-miterlimit:10;stroke-dasharray:1;}
	.st2{fill:#8E8E8E;}
	.st3{fill:none;stroke:#8E8E8E;stroke-miterlimit:10;stroke-dasharray:5;}
	.st4{fill:none;stroke:#8E8E8E;stroke-linecap:round;stroke-linejoin:round;stroke-miterlimit:10;}
</style>
<defs>
</defs>
<path class="st0" d="M132.5,169.7H156c2.5,0,4.5,2,4.5,4.5v12.1c0,2.5-2,4.5-4.5,4.5h-14c-1.4,0-2.7-0.8-3.4-2.1l-3-5.8
	c-0.7-1.3-2-2.1-3.4-2.1h-14.9c-1.4,0-2.7,0.8-3.4,2l-3.1,5.8c-0.7,1.2-2,2-3.4,2H87.9c-2.5,0-4.5-2-4.5-4.5v-12.1
	c0-2.5,2-4.5,4.5-4.5h28.9"/>
<path class="st0" d="M124.7,220.8H98.9c-2.5,0-4.5-2-4.5-4.5v-13.9c0-2.5,2-4.5,4.5-4.5h25.8c2.5,0,4.5,2,4.5,4.5v13.9
	C129.2,218.7,127.2,220.8,124.7,220.8z"/>
<path class="st0" d="M127,190.7h-5.8c-1,0-1.8-0.8-1.8-1.8v-3c0-1,0.8-1.8,1.8-1.8h5.8c1,0,1.8,0.8,1.8,1.8v3
	C128.8,189.9,128,190.7,127,190.7z"/>
<path class="st0" d="M83.5,186.2v35c0,4.2,3.4,7.5,7.5,7.5H153c4.2,0,7.5-3.4,7.5-7.5v-35"/>
<circle class="st0" cx="145" cy="209.6" r="7.3"/>
<path class="st0" d="M114.3,182.2l2.8-12.1c0.4-1.6,1.8-2.8,3.5-2.8h8.4c1.7,0,3.2,1.2,3.5,2.8l2.6,12"/>
<path class="st0" d="M108.6,169.9l-0.6-6.7c0-1.3,5.2-7.8,16-7.8s15,6.5,15,7.8l-0.6,6.7"/>
<path class="st0" d="M138.8,167.4l1.6-2.6c0.8-1.3,1.3-2.7,1.4-4.3l0.5-5.8c0-1.5-6-9.3-19.1-9.3s-18.4,7.8-18.4,9.3l0.5,5.7
	c0.1,1.6,0.7,3.1,1.5,4.5l1.5,2.3"/>
<path class="st0" d="M122.1,154.9"/>
<ellipse class="st0" cx="122.9" cy="131" rx="18.8" ry="8.5"/>
<ellipse class="st0" cx="122.9" cy="128" rx="18.8" ry="8.5"/>
<line class="st1" x1="104.1" y1="134" x2="104.3" y2="149.2"/>
<line class="st1" x1="142.1" y1="134" x2="142.3" y2="149.2"/>
<g>
	<polygon class="st0" points="76.8,24.4 69.5,41.4 85,41.4 	"/>
	<polyline class="st0" points="85,41.4 106.5,41.4 91.2,15.6 81.2,32.9 	"/>
	<polyline class="st0" points="87.3,22.3 90.4,26.7 92.5,22.3 96.4,24.4 	"/>
	<polygon class="st2" points="69,41.9 54.2,42.2 70.8,37.9 	"/>
</g>
<g>
	<path class="st0" d="M96.8,48.2c0-1.8-1.5-3.3-3.3-3.3c-1.6,0-3,1.2-3.2,2.8C89,47.9,88,49.1,88,50.4c0,1.5,1.2,2.8,2.8,2.8
		c0,0,0.1,0,0.1,0c0.3,1.2,1.4,2,2.6,2c1.5,0,2.8-1.2,2.8-2.8c0-0.7-0.2-1.3-0.6-1.8C96.3,50,96.8,49.2,96.8,48.2z"/>
	<line class="st0" x1="93.8" y1="60.9" x2="93.7" y2="55.4"/>
	<path class="st2" d="M94,60.9H80.4c0,0,1.1-3.3,4-3.3s6,1.8,6,1.8L94,60.9z"/>
</g>
<line class="st0" x1="0" y1="36.4" x2="71" y2="36.4"/>
<path class="st0" d="M247,37.4h-69c0,0-2.3,4.8-7,10.2s-20.3-0.7-27.7,1c-7.3,1.7-28,4.7-35.7,2c-7.7-2.7-5.7-4.7-1.2-9.2"/>
<line class="st3" x1="101.7" y1="112.2" x2="37.7" y2="0.2"/>
<line class="st3" x1="143.7" y1="112.2" x2="207.7" y2="0.2"/>
<line class="st0" x1="178" y1="37.4" x2="104" y2="37.4"/>
<path class="st4" d="M113.1,47.7c0,0,0.9-1.8,2.6-1.8s1.3,1.3,3,1.4c1.6,0.1,1.5-1.4,2.9-1.3c1.3,0.1,2.7,1,2.9,1.4"/>
<path class="st4" d="M130.1,43.7c0,0,0.8-1.8,2.5-1.8c1.7,0,1.3,1.3,2.9,1.4c1.6,0.1,1.5-1.4,2.8-1.3c1.3,0.1,2.6,0.9,2.8,1.4"/>
<path class="st4" d="M154.1,44.7c0,0,0.8-1.8,2.5-1.8c1.7,0,1.3,1.3,2.9,1.4c1.6,0.1,1.5-1.4,2.8-1.3c1.3,0.1,2.6,0.9,2.8,1.4"/>
<path class="st0" d="M119.5,3.9c-0.2,0-0.3,0-0.5,0c-0.6-1.4-1.9-2.4-3.5-2.4c-1.6,0-2.9,0.9-3.5,2.3c-1.5,0-2.7,1.2-2.7,2.7
	c0,1.5,1.2,2.7,2.7,2.7c0.6,0,1.1-0.2,1.6-0.5c0.6,0.3,1.2,0.5,1.9,0.5c0.8,0,1.6-0.3,2.2-0.7c0.5,0.4,1.1,0.7,1.8,0.7
	c1.5,0,2.7-1.2,2.7-2.7S121,3.9,119.5,3.9z"/>
<g>
	<path class="st0" d="M170.8,36.9c0.1-2.7,2.4-4.8,5-4.7c2.7,0.1,4.8,2.4,4.7,5"/>
	<line class="st0" x1="177.8" y1="30.4" x2="180.5" y2="23.9"/>
	<line class="st0" x1="182.4" y1="34.2" x2="187.9" y2="31.9"/>
	<line class="st0" x1="168" y1="34.4" x2="161.5" y2="31.7"/>
	<line class="st0" x1="171.8" y1="29.8" x2="169.6" y2="24.3"/>
</g>
</svg>
