<!-- Generator: Adobe Illustrator 19.2.1, SVG Export Plug-In  -->
<svg version="1.1"
	 xmlns="http://www.w3.org/2000/svg" xmlns:xlink="http://www.w3.org/1999/xlink" xmlns:a="http://ns.adobe.com/AdobeSVGViewerExtensions/3.0/"
	 x="0px" y="0px" width="224.3px" height="180.3px" viewBox="0 0 224.3 180.3" style="enable-background:new 0 0 224.3 180.3;"
	 xml:space="preserve">
<style type="text/css">
	.st0{fill:none;stroke:#8E8E8E;stroke-miterlimit:10;}
	.st1{fill:none;stroke:#8E8E8E;stroke-miterlimit:10;stroke-dasharray:5;}
</style>
<defs>
</defs>
<path class="st0" d="M176,166H25.4c-6.6,0-11.9-5.3-11.9-11.9V69c0-6.6,5.3-11.9,11.9-11.9H176c6.6,0,11.9,5.3,11.9,11.9v85.1
	C187.9,160.7,182.6,166,176,166z"/>
<path class="st0" d="M209.1,179.8h-194c-8.1,0-14.6-6.6-14.6-14.6v-106c0-8.1,6.6-14.6,14.6-14.6h194c8.1,0,14.6,6.6,14.6,14.6v106
	C223.8,173.3,217.2,179.8,209.1,179.8z"/>
<path class="st0" d="M201.3,44.5h-31.1v-2.9c0-2.9,2.3-5.2,5.2-5.2h20.7c2.9,0,5.2,2.3,5.2,5.2V44.5z"/>
<circle class="st0" cx="205.8" cy="76.7" r="7.5"/>
<circle class="st0" cx="207.3" cy="154.2" r="7.5"/>
<g>
	<circle class="st0" cx="104.7" cy="94" r="4.4"/>
	<path class="st0" d="M107.6,99.9h-5.9c-2.7,0-4.9,2.2-4.9,4.9v11.3c0,2,1.2,3.7,2.9,4.5v14.1c0,2.2,1.8,3.9,3.9,3.9h2
		c2.2,0,3.9-1.8,3.9-3.9v-14.1c1.7-0.8,2.9-2.5,2.9-4.5v-11.3C112.5,102.1,110.3,99.9,107.6,99.9z"/>
</g>
<path class="st0" d="M156.7,80c0-4.5-3.6-8.1-8.1-8.1c-4.1,0-7.5,3-8,7c-3.2,0.6-5.7,3.4-5.7,6.8c0,3.8,3.1,6.9,6.9,6.9
	c0.1,0,0.2,0,0.3,0c0.8,2.9,3.5,5,6.6,5c3.8,0,6.9-3.1,6.9-6.9c0-1.7-0.6-3.2-1.6-4.4C155.6,84.8,156.7,82.5,156.7,80z"/>
<line class="st0" x1="149.3" y1="111.2" x2="149" y2="97.4"/>
<polygon class="st0" points="42.6,82.9 34.5,101.7 51.6,101.7 "/>
<polyline class="st0" points="51.8,101.7 75.3,101.7 58.4,72.9 47.5,92.2 "/>
<polyline class="st0" points="54.1,80.1 57.6,84.9 59.9,80.1 64.2,82.4 "/>
<line class="st0" x1="13.8" y1="92.7" x2="38.8" y2="92.7"/>
<line class="st0" x1="68.8" y1="91.7" x2="100.8" y2="91.7"/>
<line class="st0" x1="108.8" y1="91.7" x2="137.8" y2="91.7"/>
<line class="st0" x1="155.8" y1="91.7" x2="187.8" y2="91.7"/>
<g>
	<circle class="st0" cx="102.5" cy="10.3" r="1.9"/>
	<path class="st0" d="M103.8,12.9h-2.6c-1.2,0-2.2,1-2.2,2.2v5c0,0.9,0.5,1.6,1.3,2v6.2c0,1,0.8,1.7,1.7,1.7h0.9
		c1,0,1.7-0.8,1.7-1.7V22c0.8-0.3,1.3-1.1,1.3-2v-5C106,13.9,105,12.9,103.8,12.9z"/>
</g>
<path class="st0" d="M125.5,4.2c0-2-1.6-3.6-3.6-3.6c-1.8,0-3.3,1.3-3.5,3.1c-1.4,0.2-2.5,1.5-2.5,3c0,1.7,1.4,3,3,3
	c0,0,0.1,0,0.1,0c0.4,1.3,1.5,2.2,2.9,2.2c1.7,0,3-1.4,3-3c0-0.7-0.3-1.4-0.7-2C125,6.2,125.5,5.3,125.5,4.2z"/>
<line class="st0" x1="122.2" y1="17.9" x2="122.1" y2="11.8"/>
<polygon class="st0" points="75.2,5.4 71.6,13.7 79.1,13.7 "/>
<polyline class="st0" points="79.8,13.7 89.6,13.7 82.1,1 77.6,9.5 "/>
<polyline class="st0" points="80.2,4.2 81.8,6.3 82.8,4.2 84.7,5.2 "/>
<line class="st0" x1="11.8" y1="9.7" x2="72.8" y2="9.7"/>
<line class="st0" x1="86.8" y1="9.7" x2="100.8" y2="9.7"/>
<line class="st0" x1="104.8" y1="9.7" x2="116.8" y2="9.7"/>
<line class="st0" x1="124.8" y1="9.7" x2="199.8" y2="9.7"/>
<circle class="st1" cx="103.8" cy="113.2" r="32.7"/>
</svg>
