<!-- Generator: Adobe Illustrator 19.2.1, SVG Export Plug-In  -->
<svg version="1.1"
	 xmlns="http://www.w3.org/2000/svg" xmlns:xlink="http://www.w3.org/1999/xlink" xmlns:a="http://ns.adobe.com/AdobeSVGViewerExtensions/3.0/"
	 x="0px" y="0px" width="213.4px" height="200.8px" viewBox="0 0 213.4 200.8" style="enable-background:new 0 0 213.4 200.8;"
	 xml:space="preserve">
<style type="text/css">
	.st0{fill:none;stroke:#8E8E8E;stroke-miterlimit:10;}
	.st1{fill:#8E8E8E;}
	.st2{fill:none;stroke:#8E8E8E;stroke-width:3;stroke-miterlimit:10;stroke-dasharray:1,3;}
	.st3{fill:none;stroke:#8E8E8E;stroke-miterlimit:10;stroke-dasharray:5;}
	.st4{fill:none;stroke:#8E8E8E;stroke-linecap:round;stroke-linejoin:round;stroke-miterlimit:10;}
</style>
<defs>
</defs>
<g>
	<ellipse transform="matrix(0.2912 -0.9567 0.9567 0.2912 48.213 259.7388)" class="st0" cx="199.4" cy="97.3" rx="4.9" ry="4.9"/>
	<line class="st0" x1="201.6" y1="90.2" x2="203.6" y2="83.5"/>
	<line class="st0" x1="206.5" y1="93.5" x2="211.8" y2="90.7"/>
	<line class="st0" x1="206.6" y1="99.5" x2="213.3" y2="101.6"/>
	<line class="st0" x1="203.2" y1="104.5" x2="206" y2="109.7"/>
	<line class="st0" x1="197.2" y1="104.5" x2="195.2" y2="111.2"/>
	<line class="st0" x1="192.3" y1="101.1" x2="187" y2="103.9"/>
	<line class="st0" x1="192.2" y1="95.1" x2="185.5" y2="93.1"/>
	<line class="st0" x1="195.6" y1="90.2" x2="192.8" y2="85"/>
</g>
<path class="st0" d="M126.4,175.4H79.4c-2.5,0-4.5-2-4.5-4.5v-4.1c0-2.5,2-4.5,4.5-4.5h46.9c2.5,0,4.5,2,4.5,4.5v4.1
	C130.9,173.4,128.8,175.4,126.4,175.4z"/>
<path class="st0" d="M117.1,162.2H98v-0.1c0-1.3,1-2.3,2.3-2.3h14.4C116,159.8,117.1,160.9,117.1,162.2L117.1,162.2z"/>
<path class="st0" d="M75.1,172.3l6.3,21.5c1.5,3.9,5.2,6.5,9.4,6.5h25.9c3.6,0,6.8-2.5,7.7-6l5.6-20.7"/>
<path class="st0" d="M84.8,179.3h35.4c1.4,0,2.4,1.3,2.1,2.6l-2.9,12.7c-0.2,1-1.1,1.7-2.1,1.7H88.5c-1,0-1.8-0.6-2.1-1.5l-3.7-12.7
	C82.3,180.7,83.3,179.3,84.8,179.3z"/>
<polyline class="st0" points="95.2,196.3 100.7,187.8 107.6,196.3 "/>
<polyline class="st0" points="103.4,191.1 109.2,183.2 117.2,196.3 "/>
<polygon class="st0" points="99.7,83.3 92.4,100.3 107.9,100.3 "/>
<polyline class="st0" points="107.9,100.3 129.4,100.3 114.1,74.5 104,91.8 "/>
<polyline class="st0" points="110.2,81.3 113.3,85.6 115.4,81.3 119.3,83.3 "/>
<path class="st0" d="M83.4,68.8c-0.2,0-0.3,0-0.5,0c-0.6-1.4-1.9-2.4-3.5-2.4c-1.6,0-2.9,0.9-3.5,2.3c-1.5,0-2.7,1.2-2.7,2.7
	c0,1.5,1.2,2.7,2.7,2.7c0.6,0,1.1-0.2,1.6-0.5c0.6,0.3,1.2,0.5,1.9,0.5c0.8,0,1.6-0.3,2.2-0.7c0.5,0.4,1.1,0.7,1.8,0.7
	c1.5,0,2.7-1.2,2.7-2.7S84.8,68.8,83.4,68.8z"/>
<polygon class="st1" points="91.9,100.8 77.1,101.1 93.6,96.8 "/>
<line class="st0" x1="96.9" y1="90.3" x2="32.9" y2="90.3"/>
<line class="st0" x1="122.9" y1="89.3" x2="180.9" y2="89.3"/>
<polygon class="st0" points="127.9,115.3 135.9,115.3 138.4,119.3 144.4,119.3 144.4,123.3 122.4,123.3 122.4,118.8 "/>
<line class="st0" x1="121.9" y1="119.3" x2="137.9" y2="119.3"/>
<path class="st0" d="M130.5,123.2c0,1.4-1.2,2.6-2.6,2.6c-1.4,0-2.6-1.2-2.6-2.6"/>
<path class="st0" d="M142.8,123.2c0,1.4-1.2,2.6-2.6,2.6s-2.6-1.2-2.6-2.6"/>
<polygon class="st1" points="126.9,125.5 111.9,125.8 117.4,123.8 125.1,123.8 "/>
<polygon class="st1" points="138.6,125.5 129.5,125.5 130.6,123.8 137.1,123.8 "/>
<path class="st0" d="M13.1,97.3c-1-3.1-0.1-6.4,2.1-8.6c-1.4-0.3-2.9-0.2-4.3,0.2c-4.6,1.4-7.1,6.3-5.7,10.8
	c1.4,4.6,6.3,7.1,10.8,5.7c1.4-0.4,2.7-1.2,3.7-2.2C16.7,102.6,14.1,100.4,13.1,97.3z"/>
<path class="st2" d="M123.4,9.9c36.1,7,64.9,34.5,73.7,70"/>
<path class="st2" d="M13,81.4c8.5-36.7,38.4-65.2,75.8-71.8"/>
<line class="st3" x1="44.2" y1="114.2" x2="95.9" y2="159.3"/>
<line class="st3" x1="169.6" y1="113.5" x2="121.4" y2="159.8"/>
<circle class="st0" cx="105.9" cy="9.2" r="8.7"/>
<polyline class="st0" points="105.2,4.5 105.9,9.2 108.6,13.2 "/>
<g>
	<path class="st1" d="M200.1,54.3L200.1,54.3l-0.9-0.7l0.5-0.4l1.1,0.9l0.3,0.6l-5.2,2.3l-0.3-0.7L200.1,54.3z"/>
	<path class="st1" d="M196.2,58.6l6.8-0.3l0.2,0.5l-6.8,0.3L196.2,58.6z"/>
	<path class="st1" d="M203.1,61.2L203.1,61.2l-0.9-0.7l0.5-0.4l1.1,0.9l0.3,0.6l-5.2,2.3l-0.3-0.7L203.1,61.2z"/>
	<path class="st1" d="M203.8,68.1c-1.8,0.8-3,0.5-3.5-0.6c-0.4-1,0.2-2.1,1.9-2.9c1.8-0.8,3-0.4,3.5,0.6
		C206.2,66.3,205.5,67.4,203.8,68.1z M202.5,65.3c-1.4,0.6-2,1.3-1.7,2c0.3,0.7,1.3,0.7,2.6,0.1c1.3-0.6,2-1.3,1.7-2
		C204.9,64.8,203.9,64.7,202.5,65.3z"/>
	<path class="st1" d="M205.6,72.2c-1.8,0.8-3,0.5-3.5-0.6c-0.4-1,0.2-2.1,1.9-2.9c1.8-0.8,3-0.4,3.5,0.6
		C208,70.4,207.3,71.5,205.6,72.2z M204.3,69.4c-1.4,0.6-2,1.3-1.7,2c0.3,0.7,1.3,0.7,2.6,0.1c1.3-0.6,2-1.3,1.7-2
		C206.7,68.9,205.7,68.8,204.3,69.4z"/>
	<path class="st1" d="M207.4,76.3c-1.8,0.8-3,0.5-3.5-0.6c-0.4-1,0.2-2.1,1.9-2.9c1.8-0.8,3-0.4,3.5,0.6
		C209.8,74.6,209.1,75.6,207.4,76.3z M206.1,73.5c-1.4,0.6-2,1.3-1.7,2c0.3,0.7,1.3,0.7,2.6,0.1c1.3-0.6,2-1.3,1.7-2
		C208.5,73,207.5,72.9,206.1,73.5z"/>
</g>
<g>
	<path class="st1" d="M0.7,77.4L0.7,77.4l0.2,1.1l-0.6,0L0,77.1l0.2-0.6L5.7,78l-0.2,0.7L0.7,77.4z"/>
	<path class="st1" d="M6.5,76.5L1,72.4l0.2-0.6l5.5,4.1L6.5,76.5z"/>
	<path class="st1" d="M2.7,70.1L2.7,70.1l0.2,1.1l-0.6,0L2,69.9l0.2-0.6l5.5,1.5l-0.2,0.7L2.7,70.1z"/>
	<path class="st1" d="M6.5,64.3c1.9,0.5,2.7,1.5,2.4,2.7c-0.3,1.1-1.5,1.5-3.3,1c-1.8-0.5-2.6-1.6-2.3-2.7
		C3.5,64.2,4.7,63.8,6.5,64.3z M5.7,67.3c1.4,0.4,2.4,0.2,2.6-0.5c0.2-0.8-0.6-1.4-2-1.8c-1.4-0.4-2.3-0.3-2.5,0.5
		C3.6,66.2,4.2,66.9,5.7,67.3z"/>
</g>
<line class="st4" x1="117.9" y1="119.3" x2="107.9" y2="119.3"/>
<line class="st4" x1="120.9" y1="115.3" x2="110.9" y2="115.3"/>
</svg>
