<!-- Generator: Adobe Illustrator 19.2.1, SVG Export Plug-In  -->
<svg version="1.1"
	 xmlns="http://www.w3.org/2000/svg" xmlns:xlink="http://www.w3.org/1999/xlink" xmlns:a="http://ns.adobe.com/AdobeSVGViewerExtensions/3.0/"
	 x="0px" y="0px" width="295.2px" height="293.3px" viewBox="0 0 295.2 293.3" style="enable-background:new 0 0 295.2 293.3;"
	 xml:space="preserve">
<style type="text/css">
	.st0{fill:none;stroke:#8E8E8E;stroke-miterlimit:10;}
	.st1{fill:none;stroke:#8E8E8E;stroke-miterlimit:10;stroke-dasharray:5;}
	.st2{fill:none;stroke:#8E8E8E;stroke-miterlimit:10;stroke-dasharray:12;}
	.st3{fill:#8E8E8E;}
</style>
<defs>
</defs>
<g>
	<circle class="st0" cx="17.5" cy="74" r="4.9"/>
	<line class="st0" x1="17.5" y1="66.5" x2="17.5" y2="59.5"/>
	<line class="st0" x1="23.2" y1="68.3" x2="27.4" y2="64.1"/>
	<line class="st0" x1="25" y1="74" x2="32" y2="74"/>
	<line class="st0" x1="23.2" y1="79.7" x2="27.4" y2="83.9"/>
	<line class="st0" x1="17.5" y1="81.5" x2="17.5" y2="88.5"/>
	<line class="st0" x1="11.8" y1="79.7" x2="7.6" y2="83.9"/>
	<line class="st0" x1="10" y1="74" x2="3" y2="74"/>
	<line class="st0" x1="11.8" y1="68.3" x2="7.6" y2="64.1"/>
</g>
<g>
	<circle class="st0" cx="276.5" cy="80" r="4.9"/>
	<line class="st0" x1="276.5" y1="72.5" x2="276.5" y2="65.5"/>
	<line class="st0" x1="282.2" y1="74.3" x2="286.4" y2="70.1"/>
	<line class="st0" x1="284" y1="80" x2="291" y2="80"/>
	<line class="st0" x1="282.2" y1="85.7" x2="286.4" y2="89.9"/>
	<line class="st0" x1="276.5" y1="87.5" x2="276.5" y2="94.5"/>
	<line class="st0" x1="270.8" y1="85.7" x2="266.6" y2="89.9"/>
	<line class="st0" x1="269" y1="80" x2="262" y2="80"/>
	<line class="st0" x1="270.8" y1="74.3" x2="266.6" y2="70.1"/>
</g>
<path class="st0" d="M166.5,165.1h-46.9c-2.5,0-4.5-2-4.5-4.5v-4.1c0-2.5,2-4.5,4.5-4.5h46.9c2.5,0,4.5,2,4.5,4.5v4.1
	C171,163,169,165.1,166.5,165.1z"/>
<path class="st0" d="M157.2,151.9h-19.1v-0.1c0-1.3,1-2.3,2.3-2.3h14.4C156.2,149.5,157.2,150.6,157.2,151.9L157.2,151.9z"/>
<path class="st0" d="M115.3,162l6.3,21.5c1.5,3.9,5.2,6.5,9.4,6.5h25.9c3.6,0,6.8-2.5,7.7-6l5.6-20.7"/>
<path class="st0" d="M124.9,169h35.4c1.4,0,2.4,1.3,2.1,2.6l-2.9,12.7c-0.2,1-1.1,1.7-2.1,1.7h-28.7c-1,0-1.8-0.6-2.1-1.5l-3.7-12.7
	C122.4,170.4,123.5,169,124.9,169z"/>
<polyline class="st0" points="135.3,186 140.9,177.5 147.7,186 "/>
<polyline class="st0" points="143.5,180.8 149.3,172.9 157.4,186 "/>
<line class="st1" x1="140.4" y1="149.5" x2="28.7" y2="37.8"/>
<line class="st1" x1="154.8" y1="149.5" x2="265.2" y2="39.2"/>
<polygon class="st0" points="143.8,53 136.5,70 152,70 "/>
<polyline class="st0" points="152,70 173.5,70 158.2,44.2 148.2,61.5 "/>
<polyline class="st0" points="154.3,50.9 157.4,55.2 159.5,50.9 163.4,53 "/>
<path class="st0" d="M138.7,5.1c-0.3,0-0.6,0-0.9,0.1c-1.2-2.8-3.9-4.7-7.1-4.7c-3.1,0-5.8,1.9-7,4.6c-3,0-5.4,2.4-5.4,5.4
	c0,3,2.4,5.4,5.4,5.4c1.2,0,2.3-0.4,3.2-1.1c1.1,0.7,2.5,1.1,3.9,1.1c1.6,0,3.2-0.5,4.4-1.4c1,0.9,2.2,1.4,3.6,1.4
	c3,0,5.4-2.4,5.4-5.4S141.6,5.1,138.7,5.1z"/>
<path class="st0" d="M237.7,23.1c-0.3,0-0.6,0-0.9,0.1c-1.2-2.8-3.9-4.7-7.1-4.7c-3.1,0-5.8,1.9-7,4.6c-3,0-5.4,2.4-5.4,5.4
	c0,3,2.4,5.4,5.4,5.4c1.2,0,2.3-0.4,3.2-1.1c1.1,0.7,2.5,1.1,3.9,1.1c1.6,0,3.2-0.5,4.4-1.4c1,0.9,2.2,1.4,3.6,1.4
	c3,0,5.4-2.4,5.4-5.4S240.6,23.1,237.7,23.1z"/>
<path class="st0" d="M286.4,96.8c5.4,15.3,8.3,31.8,8.3,48.9c0,81.2-65.9,147.1-147.1,147.1S0.5,227,0.5,145.7
	c0-18.1,3.3-35.3,9.2-51.3"/>
<line class="st2" x1="13.3" y1="96.2" x2="5.3" y2="92.5"/>
<line class="st2" x1="290.3" y1="95.4" x2="282.4" y2="99.3"/>
<polygon class="st3" points="136,70.5 121.3,70.8 137.8,66.5 "/>
<path class="st0" d="M188.8,75.7c0-1.8-1.5-3.3-3.3-3.3c-1.6,0-3,1.2-3.2,2.8c-1.3,0.2-2.3,1.3-2.3,2.7c0,1.5,1.2,2.8,2.8,2.8
	c0,0,0.1,0,0.1,0c0.3,1.2,1.4,2,2.6,2c1.5,0,2.8-1.2,2.8-2.8c0-0.7-0.2-1.3-0.6-1.8C188.3,77.6,188.8,76.7,188.8,75.7z"/>
<line class="st0" x1="185.8" y1="88.5" x2="185.7" y2="83"/>
<path class="st3" d="M186,88.5h-13.6c0,0,1.1-3.3,4-3.3s6,1.8,6,1.8L186,88.5z"/>
<line class="st0" x1="72" y1="60" x2="141" y2="60"/>
<line class="st0" x1="167" y1="59" x2="229" y2="59"/>
<polygon class="st0" points="122,85 130,85 132.5,89 138.5,89 138.5,93 116.5,93 116.5,88.5 "/>
<line class="st0" x1="116" y1="89" x2="132" y2="89"/>
<path class="st0" d="M124.6,92.9c0,1.4-1.2,2.6-2.6,2.6c-1.4,0-2.6-1.2-2.6-2.6"/>
<path class="st0" d="M136.9,92.9c0,1.4-1.2,2.6-2.6,2.6c-1.4,0-2.6-1.2-2.6-2.6"/>
<polygon class="st3" points="121,95.1 106,95.5 111.5,93.5 119.3,93.5 "/>
<polygon class="st3" points="132.7,95.2 123.6,95.1 124.8,93.5 131.3,93.5 "/>
</svg>
