<!-- Generator: Adobe Illustrator 19.2.1, SVG Export Plug-In  -->
<svg version="1.1"
	 xmlns="http://www.w3.org/2000/svg" xmlns:xlink="http://www.w3.org/1999/xlink" xmlns:a="http://ns.adobe.com/AdobeSVGViewerExtensions/3.0/"
	 x="0px" y="0px" width="163.2px" height="144.8px" viewBox="0 0 163.2 144.8" style="enable-background:new 0 0 163.2 144.8;"
	 xml:space="preserve">
<style type="text/css">
	.st0{fill:none;stroke:#8E8E8E;stroke-miterlimit:10;}
	.st1{fill:#8E8E8E;}
	.st2{fill:none;stroke:#8E8E8E;stroke-miterlimit:10;stroke-dasharray:5;}
	.st3{fill:none;stroke:#8E8E8E;stroke-linecap:round;stroke-linejoin:round;stroke-miterlimit:10;}
</style>
<defs>
</defs>
<polygon class="st0" points="74,19.6 65.9,38.3 83,38.3 "/>
<polyline class="st0" points="83.2,38.3 106.7,38.3 89.8,9.6 78.9,28.8 "/>
<polyline class="st0" points="85.5,16.8 89,21.6 91.3,16.8 95.6,19.1 "/>
<path class="st0" d="M55.9,3c-0.2,0-0.3,0-0.5,0.1c-0.6-1.5-2.1-2.6-3.9-2.6c-1.7,0-3.2,1-3.9,2.5c-1.6,0-3,1.3-3,3c0,1.6,1.3,3,3,3
	c0.7,0,1.3-0.2,1.7-0.6C50,8.7,50.7,9,51.5,9c0.9,0,1.7-0.3,2.4-0.8c0.5,0.5,1.2,0.8,2,0.8c1.6,0,3-1.3,3-3S57.6,3,55.9,3z"/>
<polygon class="st1" points="65.3,38.4 49.1,38.7 67.3,34 "/>
<path class="st0" d="M123.6,44.2c0-2-1.6-3.6-3.6-3.6c-1.8,0-3.3,1.3-3.6,3.1c-1.4,0.2-2.5,1.5-2.5,3c0,1.7,1.4,3,3,3
	c0,0,0.1,0,0.1,0c0.4,1.3,1.5,2.2,2.9,2.2c1.7,0,3-1.4,3-3c0-0.7-0.3-1.4-0.7-2C123.1,46.3,123.6,45.3,123.6,44.2z"/>
<line class="st0" x1="120.3" y1="58.3" x2="120.1" y2="52.2"/>
<path class="st1" d="M120.5,57.8h-15c0,0,1.2-3.4,4.4-3.4c3.1,0,6.6,1.8,6.6,1.8L120.5,57.8z"/>
<line class="st0" x1="71.2" y1="26.3" x2="0.2" y2="26.3"/>
<line class="st0" x1="99.2" y1="25.3" x2="163.2" y2="25.3"/>
<polygon class="st0" points="49.9,54.3 58.7,54.3 61.5,58.3 67.7,58.3 67.7,63.3 43.7,63.3 43.7,58.3 "/>
<line class="st0" x1="43.2" y1="58.3" x2="61.2" y2="58.3"/>
<path class="st0" d="M52.8,63.1c0,1.6-1.3,2.9-2.9,2.9S47,64.7,47,63.1"/>
<path class="st0" d="M66.3,63.1c0,1.6-1.3,2.9-2.9,2.9c-1.6,0-2.9-1.3-2.9-2.9"/>
<polygon class="st1" points="48.8,65.6 32.2,66 38.3,63.8 46.9,63.8 "/>
<polygon class="st1" points="61.7,65.7 51.6,65.6 52.9,63.8 60.1,63.8 "/>
<path class="st0" d="M100.7,98.3H67.5c-0.7,0-1.1-0.8-0.7-1.3l2.6-2.5c0.2-0.2,0.4-0.3,0.7-0.3l28,0.1c0.3,0,0.5,0.1,0.7,0.3
	l2.5,2.3C101.7,97.5,101.4,98.3,100.7,98.3z"/>
<path class="st0" d="M100.5,144.3H67.8c-0.6,0-1-0.5-1-1V98h34.8v45.3C101.6,143.9,101.1,144.3,100.5,144.3z"/>
<path class="st0" d="M96.9,138.5h-25c-0.9,0-1.6-0.7-1.6-1.6v-33.6c0-0.9,0.7-1.6,1.6-1.6h25c0.9,0,1.6,0.7,1.6,1.6v33.6
	C98.4,137.7,97.7,138.5,96.9,138.5z"/>
<path class="st0" d="M80.4,94.7c0-3.9,3.1-7,7-7s7,3.1,7,7"/>
<path class="st0" d="M92.9,89.9c0-3-2.5-5.5-5.5-5.5s-5.5,2.5-5.5,5.5"/>
<path class="st2" d="M31.1,9.7c-1.5,75,51.1,76.9,51.1,76.9"/>
<path class="st2" d="M144.1,9.7c-7,80.2-51.1,76.9-51.1,76.9"/>
<path class="st0" d="M74.3,138.5c0,0-3-17.7,8.4-25.4c0,0,8.8,7,7,25"/>
<path class="st0" d="M85.9,116.7c0,0-0.4-4,4.8-9.2c0,0,8.1,5.9,7.7,19.9"/>
<circle class="st0" cx="32.5" cy="104.9" r="6.9"/>
<circle class="st0" cx="32.5" cy="108.2" r="6.9"/>
<circle class="st0" cx="7.4" cy="118.1" r="6.9"/>
<circle class="st0" cx="7.4" cy="113.7" r="6.9"/>
<circle class="st0" cx="7.4" cy="121.4" r="6.9"/>
<circle class="st0" cx="34.7" cy="135.5" r="4.7"/>
<circle class="st0" cx="34.7" cy="138.8" r="4.7"/>
<polyline class="st3" points="128.2,135.5 140.4,103 144.1,140.7 "/>
<line class="st0" x1="140.4" y1="103" x2="158" y2="127.2"/>
<line class="st0" x1="135.2" y1="103.3" x2="147.2" y2="103.3"/>
</svg>
