<!-- Generator: Adobe Illustrator 19.2.1, SVG Export Plug-In  -->
<svg version="1.1"
	 xmlns="http://www.w3.org/2000/svg" xmlns:xlink="http://www.w3.org/1999/xlink" xmlns:a="http://ns.adobe.com/AdobeSVGViewerExtensions/3.0/"
	 x="0px" y="0px" width="172px" height="135.5px" viewBox="0 0 172 135.5" style="enable-background:new 0 0 172 135.5;"
	 xml:space="preserve">
<style type="text/css">
	.st0{fill:none;stroke:#8E8E8E;stroke-miterlimit:10;}
	.st1{fill:none;stroke:#8E8E8E;stroke-miterlimit:10;stroke-dasharray:1,1;}
	.st2{fill:none;stroke:#8E8E8E;stroke-miterlimit:10;stroke-dasharray:5;}
</style>
<defs>
</defs>
<polygon class="st0" points="65.8,28 60.9,39.4 71.3,39.4 "/>
<polyline class="st0" points="71,39.4 85.7,39.4 75.4,21.9 68.6,33.6 "/>
<polyline class="st0" points="72.8,26.1 74.9,29 76.3,26.1 78.9,27.5 "/>
<polyline class="st0" points="69,108.4 76.3,108.4 71.9,99.3 68.5,106.6 "/>
<polyline class="st0" points="77,108.4 87.9,108.4 79.6,94.4 74.6,103.8 "/>
<polyline class="st0" points="77.5,97.9 79.2,100.2 80.4,97.9 82.5,99 "/>
<g>
	<path class="st0" d="M147.6,21.9c0-2-1.6-3.6-3.6-3.6c-1.8,0-3.3,1.3-3.5,3.1c-1.4,0.2-2.5,1.5-2.5,3c0,1.7,1.4,3,3,3
		c0,0,0.1,0,0.1,0c0.4,1.3,1.5,2.2,2.9,2.2c1.7,0,3-1.4,3-3c0-0.7-0.3-1.4-0.7-2C147.1,24,147.6,23,147.6,21.9z"/>
	<line class="st0" x1="144.4" y1="35.6" x2="144.2" y2="29.6"/>
</g>
<path class="st0" d="M111.9,68.2H64.4c-1,0-1.5-1.1-1-1.9l3.8-3.6c0.2-0.3,0.6-0.5,1-0.5l40.1,0.2c0.4,0,0.7,0.2,1,0.5l3.6,3.4
	C113.5,67.1,112.9,68.2,111.9,68.2z"/>
<path class="st0" d="M113.2,67.2v67.1c0,0.4-0.3,0.7-0.7,0.7H64c-0.4,0-0.7-0.3-0.7-0.7V67.2"/>
<path class="st0" d="M107.1,126.5H70c-0.9,0-1.6-0.7-1.6-1.6V75.3c0-0.9,0.7-1.6,1.6-1.6h37.2c0.9,0,1.6,0.7,1.6,1.6v49.6
	C108.7,125.8,108,126.5,107.1,126.5z"/>
<line class="st0" x1="64" y1="33.4" x2="0" y2="33.4"/>
<line class="st0" x1="82" y1="32.4" x2="172" y2="32.4"/>
<path class="st0" d="M85,102.6c1.4,0,23.6,0.1,23.6,0.1"/>
<g>
	<ellipse transform="matrix(0.2912 -0.9567 0.9567 0.2912 57.8032 110.3099)" class="st0" cx="103.3" cy="16.1" rx="3" ry="3"/>
	<line class="st0" x1="104.7" y1="11.8" x2="105.9" y2="7.7"/>
	<line class="st0" x1="107.7" y1="13.8" x2="110.9" y2="12.1"/>
	<line class="st0" x1="107.7" y1="17.5" x2="111.8" y2="18.7"/>
	<line class="st0" x1="105.7" y1="20.5" x2="107.4" y2="23.7"/>
	<line class="st0" x1="102" y1="20.5" x2="100.8" y2="24.6"/>
	<line class="st0" x1="99" y1="18.5" x2="95.8" y2="20.2"/>
	<line class="st0" x1="99" y1="14.8" x2="94.9" y2="13.6"/>
	<line class="st0" x1="101" y1="11.8" x2="99.3" y2="8.6"/>
</g>
<g>
	<ellipse transform="matrix(0.2912 -0.9567 0.9567 0.2912 -17.4428 157.4244)" class="st0" cx="97.5" cy="90.5" rx="2.1" ry="2.1"/>
	<line class="st0" x1="98.5" y1="87.4" x2="99.3" y2="84.5"/>
	<line class="st0" x1="100.6" y1="88.8" x2="102.8" y2="87.6"/>
	<line class="st0" x1="100.6" y1="91.4" x2="103.5" y2="92.3"/>
	<line class="st0" x1="99.2" y1="93.5" x2="100.4" y2="95.8"/>
	<line class="st0" x1="96.6" y1="93.6" x2="95.7" y2="96.5"/>
	<line class="st0" x1="94.4" y1="92.1" x2="92.2" y2="93.3"/>
	<line class="st0" x1="94.4" y1="89.5" x2="91.5" y2="88.7"/>
	<line class="st0" x1="95.9" y1="87.4" x2="94.7" y2="85.2"/>
</g>
<line class="st1" x1="79.5" y1="73.9" x2="79.5" y2="126.9"/>
<line class="st1" x1="96.5" y1="73.9" x2="96.5" y2="126.9"/>
<line class="st1" x1="68" y1="90.4" x2="109" y2="90.4"/>
<line class="st1" x1="69" y1="110.4" x2="109" y2="110.4"/>
<line class="st2" x1="73.7" y1="58.2" x2="38.7" y2="0.9"/>
<line class="st2" x1="91.4" y1="58.1" x2="124.7" y2="0.2"/>
</svg>
