<!-- Generator: Adobe Illustrator 19.2.1, SVG Export Plug-In  -->
<svg version="1.1"
	 xmlns="http://www.w3.org/2000/svg" xmlns:xlink="http://www.w3.org/1999/xlink" xmlns:a="http://ns.adobe.com/AdobeSVGViewerExtensions/3.0/"
	 x="0px" y="0px" width="273.6px" height="173.7px" viewBox="0 0 273.6 173.7" style="enable-background:new 0 0 273.6 173.7;"
	 xml:space="preserve">
<style type="text/css">
	.st0{fill:none;stroke:#8E8E8E;stroke-miterlimit:10;}
	.st1{fill:#8E8E8E;}
	.st2{fill:none;stroke:#8E8E8E;stroke-linecap:round;stroke-linejoin:round;stroke-miterlimit:10;}
	.st3{fill:none;stroke:#8E8E8E;stroke-miterlimit:10;stroke-dasharray:5;}
</style>
<defs>
</defs>
<g>
	
		<ellipse transform="matrix(5.550149e-02 -0.9985 0.9985 5.550149e-02 224.0584 278.2321)" class="st0" cx="259.1" cy="20.7" rx="4.9" ry="4.9"/>
	<line class="st0" x1="259.5" y1="13.2" x2="259.9" y2="6.2"/>
	<line class="st0" x1="265.1" y1="15.3" x2="269.5" y2="11.3"/>
	<line class="st0" x1="266.6" y1="21.1" x2="273.6" y2="21.5"/>
	<line class="st0" x1="264.5" y1="26.7" x2="268.4" y2="31.1"/>
	<line class="st0" x1="258.7" y1="28.2" x2="258.3" y2="35.2"/>
	<line class="st0" x1="253.1" y1="26.1" x2="248.6" y2="30"/>
	<line class="st0" x1="251.6" y1="20.3" x2="244.6" y2="19.9"/>
	<line class="st0" x1="253.7" y1="14.7" x2="249.7" y2="10.2"/>
</g>
<polygon class="st0" points="135.4,22.7 128.1,39.7 143.6,39.7 "/>
<polyline class="st0" points="143.6,39.7 165.1,39.7 149.8,13.9 139.8,31.2 "/>
<polyline class="st0" points="145.9,20.6 149,24.9 151.1,20.6 155,22.7 "/>
<path class="st0" d="M119.1,8.2c-0.2,0-0.3,0-0.5,0c-0.6-1.4-1.9-2.4-3.5-2.4c-1.6,0-2.9,0.9-3.5,2.3c-1.5,0-2.7,1.2-2.7,2.7
	c0,1.5,1.2,2.7,2.7,2.7c0.6,0,1.1-0.2,1.6-0.5c0.6,0.3,1.2,0.5,1.9,0.5c0.8,0,1.6-0.3,2.2-0.7c0.5,0.4,1.1,0.7,1.8,0.7
	c1.5,0,2.7-1.2,2.7-2.7S120.5,8.2,119.1,8.2z"/>
<path class="st0" d="M229.1,31.2c-0.2,0-0.3,0-0.5,0c-0.6-1.4-1.9-2.4-3.5-2.4c-1.6,0-2.9,0.9-3.5,2.3c-1.5,0-2.7,1.2-2.7,2.7
	c0,1.5,1.2,2.7,2.7,2.7c0.6,0,1.1-0.2,1.6-0.5c0.6,0.3,1.2,0.5,1.9,0.5c0.8,0,1.6-0.3,2.2-0.7c0.5,0.4,1.1,0.7,1.8,0.7
	c1.5,0,2.7-1.2,2.7-2.7C231.7,32.4,230.5,31.2,229.1,31.2z"/>
<path class="st0" d="M56.1,28.2c-0.2,0-0.3,0-0.5,0c-0.6-1.4-1.9-2.4-3.5-2.4c-1.6,0-2.9,0.9-3.5,2.3c-1.5,0-2.7,1.2-2.7,2.7
	c0,1.5,1.2,2.7,2.7,2.7c0.6,0,1.1-0.2,1.6-0.5c0.6,0.3,1.2,0.5,1.9,0.5c0.8,0,1.6-0.3,2.2-0.7c0.5,0.4,1.1,0.7,1.8,0.7
	c1.5,0,2.7-1.2,2.7-2.7C58.7,29.4,57.5,28.2,56.1,28.2z"/>
<polygon class="st1" points="127.6,40.2 112.8,40.4 129.3,36.2 "/>
<polygon class="st0" points="31.4,85.7 24.1,102.7 39.6,102.7 "/>
<polyline class="st0" points="39.6,102.7 61.1,102.7 45.8,76.9 35.8,94.2 "/>
<polyline class="st0" points="41.9,83.6 45,87.9 47.1,83.6 51,85.7 "/>
<polygon class="st1" points="23.6,103.2 8.8,103.4 25.3,99.2 "/>
<g>
	<path class="st0" d="M180.4,45.4c0-1.8-1.5-3.3-3.3-3.3c-1.6,0-3,1.2-3.2,2.8c-1.3,0.2-2.3,1.3-2.3,2.7c0,1.5,1.2,2.8,2.8,2.8
		c0,0,0.1,0,0.1,0c0.3,1.2,1.4,2,2.6,2c1.5,0,2.8-1.2,2.8-2.8c0-0.7-0.2-1.3-0.6-1.8C179.9,47.3,180.4,46.4,180.4,45.4z"/>
	<line class="st0" x1="177.4" y1="58.2" x2="177.3" y2="52.7"/>
	<path class="st1" d="M177.6,58.2H164c0,0,1.1-3.3,4-3.3s6,1.8,6,1.8L177.6,58.2z"/>
</g>
<g>
	<path class="st0" d="M210.4,76.4c0-1.8-1.5-3.3-3.3-3.3c-1.6,0-3,1.2-3.2,2.8c-1.3,0.2-2.3,1.3-2.3,2.7c0,1.5,1.2,2.8,2.8,2.8
		c0,0,0.1,0,0.1,0c0.3,1.2,1.4,2,2.6,2c1.5,0,2.8-1.2,2.8-2.8c0-0.7-0.2-1.3-0.6-1.8C209.9,78.3,210.4,77.4,210.4,76.4z"/>
	<line class="st0" x1="207.4" y1="89.2" x2="207.3" y2="83.7"/>
	<path class="st1" d="M207.6,89.2H194c0,0,1.1-3.3,4-3.3s6,1.8,6,1.8L207.6,89.2z"/>
</g>
<g>
	<path class="st0" d="M80.4,59.4c0-1.8-1.5-3.3-3.3-3.3c-1.6,0-3,1.2-3.2,2.8c-1.3,0.2-2.3,1.3-2.3,2.7c0,1.5,1.2,2.8,2.8,2.8
		c0,0,0.1,0,0.1,0c0.3,1.2,1.4,2,2.6,2c1.5,0,2.8-1.2,2.8-2.8c0-0.7-0.2-1.3-0.6-1.8C79.9,61.3,80.4,60.4,80.4,59.4z"/>
	<line class="st0" x1="77.4" y1="72.2" x2="77.3" y2="66.7"/>
	<path class="st1" d="M77.6,72.2H64c0,0,1.1-3.3,4-3.3s6,1.8,6,1.8L77.6,72.2z"/>
</g>
<g>
	<path class="st0" d="M99.4,36.4c0-1.8-1.5-3.3-3.3-3.3c-1.6,0-3,1.2-3.2,2.8c-1.3,0.2-2.3,1.3-2.3,2.7c0,1.5,1.2,2.8,2.8,2.8
		c0,0,0.1,0,0.1,0c0.3,1.2,1.4,2,2.6,2c1.5,0,2.8-1.2,2.8-2.8c0-0.7-0.2-1.3-0.6-1.8C98.9,38.3,99.4,37.4,99.4,36.4z"/>
	<line class="st0" x1="96.4" y1="49.2" x2="96.3" y2="43.7"/>
	<path class="st1" d="M96.6,49.2H83c0,0,1.1-3.3,4-3.3s6,1.8,6,1.8L96.6,49.2z"/>
</g>
<polygon class="st0" points="113.6,54.7 121.6,54.7 124.1,58.7 130.1,58.7 130.1,62.7 108.1,62.7 108.1,58.2 "/>
<line class="st0" x1="107.6" y1="58.7" x2="123.6" y2="58.7"/>
<path class="st0" d="M116.2,62.6c0,1.4-1.2,2.6-2.6,2.6c-1.4,0-2.6-1.2-2.6-2.6"/>
<path class="st0" d="M128.5,62.6c0,1.4-1.2,2.6-2.6,2.6c-1.4,0-2.6-1.2-2.6-2.6"/>
<polygon class="st1" points="112.6,64.8 97.6,65.2 103.1,63.2 110.8,63.2 "/>
<polygon class="st1" points="124.3,64.9 115.2,64.8 116.3,63.2 122.8,63.2 "/>
<path class="st0" d="M183.2,113.2l2.6-3.7c0-0.2-0.1-0.2-0.1-0.4l-22.5-12.5c-0.1-0.1-0.3,0-0.3,0.1l-3.1,3.6c0,0.2,0,0.2,0.1,0.4
	l23.2,12.6C183,113.3,183.1,113.3,183.2,113.2z"/>
<path class="st2" d="M183,154.1l-22.5-12.2c-0.6-0.4-1-1-1-1.7v-39.8"/>
<polygon class="st2" points="185.9,109.3 186.3,150.2 183.3,153.7 183.1,113.4 "/>
<polygon class="st2" points="180,115.4 179.8,145.9 162.3,136.7 162,106 "/>
<path class="st0" d="M92.7,113.2l-2.6-3.7c0-0.2,0.1-0.2,0.1-0.4l22.5-12.5c0.1-0.1,0.3,0,0.3,0.1l3.1,3.6c0,0.2,0,0.2-0.1,0.4
	l-23.2,12.6C92.8,113.3,92.7,113.3,92.7,113.2z"/>
<path class="st2" d="M92.9,154.1l22.5-12.2c0.6-0.4,1-1,1-1.7v-39.8"/>
<polygon class="st2" points="90,109.3 89.5,150.2 92.5,153.7 92.8,113.4 "/>
<polygon class="st2" points="95.8,115.4 96,145.9 113.5,136.7 113.8,106 "/>
<path class="st0" d="M152.6,98.4h-30c-0.6,0-1-0.7-0.6-1.2l2.4-2.2c0.1-0.2,0.4-0.3,0.6-0.3l25.4,0.1c0.2,0,0.5,0.1,0.6,0.3l2.3,2.1
	C153.6,97.7,153.2,98.4,152.6,98.4z"/>
<path class="st0" d="M152.4,140.2h-29.4c-0.6,0-1-0.5-1-1v-41h31.5v41C153.4,139.7,153,140.2,152.4,140.2z"/>
<path class="st0" d="M149,134.9h-22.3c-0.9,0-1.6-0.7-1.6-1.6v-30.1c0-0.9,0.7-1.6,1.6-1.6H149c0.9,0,1.6,0.7,1.6,1.6v30.1
	C150.6,134.1,149.9,134.9,149,134.9z"/>
<path class="st0" d="M118.8,168c4,3.2,10.1,5.2,17.1,5.2c12,0,21.7-6,21.7-13.5c0-0.9-0.2-1.8-0.4-2.7"/>
<path class="st0" d="M151.7,150.5c-4-2.7-9.6-4.3-15.9-4.3c-12,0-21.7,6-21.7,13.5"/>
<polyline class="st0" points="118.2,155.5 114.2,159.7 112.8,153.5 "/>
<polyline class="st0" points="154.2,162.4 156.9,157.3 159.9,162.8 "/>
<ellipse class="st0" cx="135.2" cy="159.9" rx="4" ry="2.7"/>
<path class="st0" d="M131.6,28.7c-1.5,0-52,0-52,0L0.3,103.4"/>
<polyline class="st0" points="158.6,28.7 199.6,28.7 267.6,102.4 "/>
<line class="st3" x1="173.1" y1="96.2" x2="211.1" y2="1.2"/>
<line class="st3" x1="108.1" y1="97.2" x2="69.1" y2="0.2"/>
<line class="st3" x1="185.6" y1="103.2" x2="269.3" y2="81.4"/>
<line class="st3" x1="96.6" y1="103.2" x2="0.3" y2="77.9"/>
<line class="st3" x1="127.1" y1="91.2" x2="63.6" y2="6.2"/>
<line class="st3" x1="149.6" y1="91.7" x2="220.1" y2="4.2"/>
<g>
	<path class="st1" d="M172.2,121.3L172.2,121.3l-2.5,0.9l-0.1-1.4l3-1.1l1.5,0.2l-1.8,12.9l-1.7-0.2L172.2,121.3z"/>
</g>
<g>
	<path class="st1" d="M133.1,124.7v-1.1l1.4-1.3c3.3-3.2,4.8-4.8,4.8-6.8c0-1.3-0.6-2.5-2.6-2.5c-1.2,0-2.2,0.6-2.8,1.1l-0.6-1.2
		c0.9-0.8,2.2-1.3,3.7-1.3c2.8,0,4,1.9,4,3.8c0,2.4-1.7,4.3-4.5,7l-1,1v0h5.8v1.5H133.1z"/>
</g>
<g>
	<path class="st1" d="M101.7,131.2c0.5,0.2,1.8,0.5,3,0.3c2.2-0.4,2.7-1.9,2.5-3c-0.3-1.8-2.1-2.3-3.8-2l-1,0.2l-0.2-1.3l1-0.2
		c1.3-0.2,2.8-1.1,2.5-2.7c-0.2-1-1-1.8-2.6-1.5c-1,0.2-1.9,0.8-2.4,1.3l-0.7-1.2c0.6-0.6,1.8-1.3,3.2-1.6c2.5-0.4,3.9,0.9,4.2,2.4
		c0.2,1.3-0.4,2.6-1.8,3.4l0,0c1.6,0,3.1,1,3.4,2.8c0.4,2.1-0.9,4.1-4,4.7c-1.4,0.2-2.8,0-3.5-0.3L101.7,131.2z"/>
</g>
<g>
	<path class="st1" d="M240,47.2c0.5-0.1,1.2-0.2,1.9-0.2c1,0,1.7,0.2,2.2,0.6c0.4,0.3,0.7,0.8,0.7,1.4c0,0.8-0.5,1.5-1.4,1.8v0
		c0.8,0.2,1.7,0.8,1.7,2c0,0.7-0.3,1.2-0.7,1.6c-0.6,0.5-1.5,0.8-2.8,0.8c-0.7,0-1.3,0-1.6-0.1V47.2z M241,50.5h0.9
		c1.1,0,1.8-0.6,1.8-1.4c0-0.9-0.7-1.3-1.8-1.3c-0.5,0-0.8,0-0.9,0.1V50.5z M241,54.4c0.2,0,0.5,0,0.9,0c1.1,0,2.1-0.4,2.1-1.6
		c0-1.1-0.9-1.6-2.1-1.6H241V54.4z"/>
	<path class="st1" d="M246.5,51.2c0-0.7,0-1.3,0-1.8h0.9l0,1.1h0c0.3-0.8,0.9-1.3,1.6-1.3c0.1,0,0.2,0,0.3,0v1c-0.1,0-0.2,0-0.4,0
		c-0.7,0-1.3,0.6-1.4,1.4c0,0.1,0,0.3,0,0.5v3.1h-1V51.2z"/>
	<path class="st1" d="M251.6,47.8c0,0.4-0.3,0.6-0.7,0.6c-0.4,0-0.6-0.3-0.6-0.6c0-0.4,0.3-0.7,0.7-0.7
		C251.4,47.1,251.6,47.4,251.6,47.8z M250.4,55.2v-5.8h1.1v5.8H250.4z"/>
	<path class="st1" d="M258.3,49.4c0,0.4,0,0.9,0,1.6v3.4c0,1.3-0.3,2.1-0.8,2.7c-0.6,0.5-1.4,0.7-2.1,0.7c-0.7,0-1.5-0.2-1.9-0.5
		l0.3-0.8c0.4,0.2,1,0.5,1.7,0.5c1.1,0,1.9-0.6,1.9-2v-0.6h0c-0.3,0.5-0.9,1-1.8,1c-1.4,0-2.5-1.2-2.5-2.8c0-2,1.3-3.1,2.6-3.1
		c1,0,1.6,0.5,1.8,1h0l0-0.9H258.3z M257.2,51.7c0-0.2,0-0.3-0.1-0.5c-0.2-0.6-0.7-1.1-1.5-1.1c-1,0-1.7,0.9-1.7,2.2
		c0,1.1,0.6,2.1,1.7,2.1c0.6,0,1.2-0.4,1.5-1.1c0.1-0.2,0.1-0.4,0.1-0.6V51.7z"/>
	<path class="st1" d="M260,46.7h1.1v3.6h0c0.2-0.3,0.4-0.6,0.8-0.7c0.3-0.2,0.7-0.3,1.1-0.3c0.8,0,2,0.5,2,2.5v3.5h-1.1v-3.3
		c0-0.9-0.3-1.7-1.3-1.7c-0.7,0-1.2,0.5-1.4,1.1c-0.1,0.1-0.1,0.3-0.1,0.5v3.5H260V46.7z"/>
	<path class="st1" d="M267.8,47.7v1.7h1.5v0.8h-1.5v3.1c0,0.7,0.2,1.1,0.8,1.1c0.3,0,0.5,0,0.6-0.1l0,0.8c-0.2,0.1-0.5,0.1-0.9,0.1
		c-0.5,0-0.9-0.2-1.1-0.4c-0.3-0.3-0.4-0.8-0.4-1.5v-3.2h-0.9v-0.8h0.9V48L267.8,47.7z"/>
</g>
<g>
	<path class="st1" d="M14.3,46.2c0.6-0.1,1.4-0.2,2.2-0.2c1.5,0,2.6,0.3,3.3,1c0.7,0.7,1.1,1.6,1.1,2.9c0,1.3-0.4,2.4-1.2,3.1
		c-0.8,0.8-2,1.2-3.6,1.2c-0.7,0-1.4,0-1.9-0.1V46.2z M15.3,53.4c0.3,0,0.6,0.1,1.1,0.1c2.2,0,3.4-1.2,3.4-3.4
		c0-1.9-1.1-3.1-3.3-3.1c-0.5,0-0.9,0-1.2,0.1V53.4z"/>
	<path class="st1" d="M25.4,54.2l-0.1-0.7h0c-0.3,0.5-0.9,0.9-1.8,0.9c-1.2,0-1.8-0.8-1.8-1.7c0-1.4,1.2-2.2,3.5-2.2v-0.1
		c0-0.5-0.1-1.3-1.3-1.3c-0.5,0-1.1,0.2-1.5,0.4l-0.2-0.7c0.5-0.3,1.2-0.5,1.9-0.5c1.8,0,2.2,1.2,2.2,2.4v2.2c0,0.5,0,1,0.1,1.4
		H25.4z M25.3,51.2c-1.2,0-2.5,0.2-2.5,1.3c0,0.7,0.5,1,1,1c0.8,0,1.2-0.5,1.4-1c0-0.1,0.1-0.2,0.1-0.3V51.2z"/>
	<path class="st1" d="M28,50.2c0-0.7,0-1.3,0-1.8h0.9l0,1.1h0c0.3-0.8,0.9-1.3,1.6-1.3c0.1,0,0.2,0,0.3,0v1c-0.1,0-0.2,0-0.4,0
		c-0.7,0-1.3,0.6-1.4,1.4c0,0.1,0,0.3,0,0.5v3.1h-1V50.2z"/>
	<path class="st1" d="M33,51L33,51c0.2-0.2,0.4-0.5,0.5-0.7l1.7-2h1.3l-2.2,2.4l2.6,3.4h-1.3l-2-2.8L33,52v2.2h-1v-8.5h1V51z"/>
</g>
</svg>
