<!-- Generator: Adobe Illustrator 19.2.1, SVG Export Plug-In  -->
<svg version="1.1"
	 xmlns="http://www.w3.org/2000/svg" xmlns:xlink="http://www.w3.org/1999/xlink" xmlns:a="http://ns.adobe.com/AdobeSVGViewerExtensions/3.0/"
	 x="0px" y="0px" width="196.7px" height="220.7px" viewBox="0 0 196.7 220.7" style="enable-background:new 0 0 196.7 220.7;"
	 xml:space="preserve">
<style type="text/css">
	.st0{fill:none;stroke:#8E8E8E;stroke-miterlimit:10;}
	.st1{fill:#8E8E8E;}
	.st2{fill:none;stroke:#8E8E8E;stroke-miterlimit:10;stroke-dasharray:5;}
	.st3{fill:none;stroke:#8E8E8E;stroke-width:3;stroke-miterlimit:10;stroke-dasharray:1,3;}
	.st4{fill:#8E8E8E;stroke:#8E8E8E;stroke-miterlimit:10;}
</style>
<defs>
</defs>
<polygon class="st0" points="83.2,34 75.2,52.7 92.3,52.7 "/>
<polyline class="st0" points="92.5,52.7 116,52.7 99.1,24 88.1,43.2 "/>
<polyline class="st0" points="94.8,31.2 98.2,36 100.5,31.2 104.9,33.5 "/>
<path class="st0" d="M65.2,17.4c-0.2,0-0.3,0-0.5,0.1c-0.6-1.5-2.1-2.6-3.9-2.6c-1.7,0-3.2,1-3.9,2.5c-1.6,0-3,1.3-3,3
	c0,1.6,1.3,3,3,3c0.7,0,1.3-0.2,1.7-0.6c0.6,0.4,1.4,0.6,2.1,0.6c0.9,0,1.7-0.3,2.4-0.8c0.5,0.5,1.2,0.8,2,0.8c1.6,0,3-1.3,3-3
	C68.2,18.8,66.8,17.4,65.2,17.4z"/>
<polygon class="st1" points="74.6,52.8 58.3,53.1 76.5,48.4 "/>
<path class="st0" d="M132.8,58.6c0-2-1.6-3.6-3.6-3.6c-1.8,0-3.3,1.3-3.6,3.1c-1.4,0.2-2.5,1.5-2.5,3c0,1.7,1.4,3,3,3
	c0,0,0.1,0,0.1,0c0.4,1.3,1.5,2.2,2.9,2.2c1.7,0,3-1.4,3-3c0-0.7-0.3-1.4-0.7-2C132.3,60.7,132.8,59.7,132.8,58.6z"/>
<line class="st0" x1="129.6" y1="72.7" x2="129.4" y2="66.6"/>
<path class="st1" d="M129.8,72.2h-15c0,0,1.2-3.4,4.4-3.4c3.1,0,6.6,1.8,6.6,1.8L129.8,72.2z"/>
<line class="st0" x1="80.5" y1="40.7" x2="9.5" y2="40.7"/>
<line class="st0" x1="108.5" y1="39.7" x2="172.5" y2="39.7"/>
<polygon class="st0" points="59.2,68.7 68,68.7 70.8,72.7 77,72.7 77,77.7 53,77.7 53,72.7 "/>
<line class="st0" x1="52.5" y1="72.7" x2="70.5" y2="72.7"/>
<path class="st0" d="M62.1,77.5c0,1.6-1.3,2.9-2.9,2.9c-1.6,0-2.9-1.3-2.9-2.9"/>
<path class="st0" d="M75.6,77.5c0,1.6-1.3,2.9-2.9,2.9s-2.9-1.3-2.9-2.9"/>
<polygon class="st1" points="58.1,80 41.5,80.4 47.6,78.2 56.1,78.2 "/>
<polygon class="st1" points="71,80.1 60.9,80 62.2,78.2 69.4,78.2 "/>
<path class="st0" d="M114.5,114.5H72.8c-0.9,0-1.3-1-0.8-1.7l3.3-3.1c0.2-0.3,0.5-0.4,0.8-0.4l35.2,0.2c0.3,0,0.6,0.2,0.8,0.4
	l3.2,2.9C115.8,113.5,115.3,114.5,114.5,114.5z"/>
<path class="st0" d="M114.6,172.5H72.9c-0.6,0-1-0.5-1-1v-57.3h43.8v57.3C115.6,172,115.1,172.5,114.6,172.5z"/>
<path class="st0" d="M110.1,165.1H77.8c-0.9,0-1.6-0.7-1.6-1.6v-43.1c0-0.9,0.7-1.6,1.6-1.6h32.2c0.9,0,1.6,0.7,1.6,1.6v43.1
	C111.7,164.4,111,165.1,110.1,165.1z"/>
<path class="st0" d="M89,110c0-4.9,3.9-8.8,8.8-8.8c4.9,0,8.8,3.9,8.8,8.8"/>
<path class="st0" d="M104.7,104c0-3.8-3.1-6.9-6.9-6.9c-3.8,0-6.9,3.1-6.9,6.9"/>
<line class="st2" x1="88.8" y1="98.2" x2="36.8" y2="0.2"/>
<line class="st2" x1="158.8" y1="0.2" x2="106.8" y2="98.2"/>
<polygon class="st0" points="82.9,135.5 77.2,148.7 89.2,148.7 "/>
<polyline class="st0" points="89.5,148.7 106,148.7 94.1,128.5 86.4,142 "/>
<polyline class="st0" points="91,133.5 93.5,136.9 95.1,133.5 98.1,135.1 "/>
<line class="st0" x1="100.5" y1="138.7" x2="111.5" y2="138.7"/>
<circle class="st0" cx="51.2" cy="152.6" r="5"/>
<circle class="st0" cx="49.8" cy="154.6" r="5"/>
<rect x="129.8" y="132" class="st0" width="25.5" height="32.2"/>
<rect x="131.8" y="130" class="st0" width="25.5" height="32.2"/>
<path class="st3" d="M81.3,211.4c-36.1-7-64.9-34.5-73.7-70"/>
<path class="st3" d="M191.7,139.9c-8.5,36.7-38.4,65.2-75.8,71.8"/>
<rect x="94" y="206.7" class="st0" width="13.5" height="13.5"/>
<line class="st0" x1="94" y1="220.2" x2="107.5" y2="206.7"/>
<g>
	<path class="st1" d="M98.4,208.3v2.1h2v0.5h-2v2.1h-0.6v-2.1h-2v-0.5h2v-2.1H98.4z"/>
</g>
<g>
	<path class="st1" d="M105.2,216.1v0.6H103v-0.6H105.2z"/>
</g>
<path class="st0" d="M196.2,129.5c0,2.3-1.9,4.2-4.2,4.2s-4.2-1.9-4.2-4.2c0-2.3,4.2-7.8,4.2-7.8S196.2,127.2,196.2,129.5z"/>
<g>
	<path class="st4" d="M0.5,131.2c0,3.6,3.5,6.5,6.5,6.5v-13C4,124.7,0.5,127.6,0.5,131.2z"/>
	<path class="st0" d="M8,124.7v13c3.6,0,6.5-2.9,6.5-6.5S11.6,124.7,8,124.7z"/>
</g>
</svg>
