<!-- Generator: Adobe Illustrator 19.2.1, SVG Export Plug-In  -->
<svg version="1.1"
	 xmlns="http://www.w3.org/2000/svg" xmlns:xlink="http://www.w3.org/1999/xlink" xmlns:a="http://ns.adobe.com/AdobeSVGViewerExtensions/3.0/"
	 x="0px" y="0px" width="314px" height="283.3px" viewBox="0 0 314 283.3" style="enable-background:new 0 0 314 283.3;"
	 xml:space="preserve">
<style type="text/css">
	.st0{fill:none;stroke:#8E8E8E;stroke-miterlimit:10;}
	.st1{fill:none;stroke:#8E8E8E;stroke-miterlimit:10;stroke-dasharray:12;}
	.st2{fill:none;stroke:#8E8E8E;stroke-width:3;stroke-miterlimit:10;}
	.st3{fill:none;stroke:#8E8E8E;stroke-miterlimit:10;stroke-dasharray:5;}
</style>
<defs>
</defs>
<path class="st0" d="M12.5,135.7c0-1.9,0-3.7,0.1-5.5c0.6-16,3.8-31.4,9.1-45.8"/>
<path class="st0" d="M289.2,205.3c-24.8,46.2-73.6,77.6-129.7,77.6c-63.4,0-117.5-40.1-138.1-96.4"/>
<path class="st0" d="M298.3,86.8c5.4,15.3,8.3,31.8,8.3,48.9c0,6.3-0.4,12.5-1.2,18.6"/>
<line class="st1" x1="25.3" y1="86.2" x2="17.3" y2="82.5"/>
<line class="st1" x1="302.3" y1="85.4" x2="294.4" y2="89.3"/>
<g>
	<circle class="st0" cx="299.5" cy="178" r="4.9"/>
	<line class="st0" x1="299.5" y1="170.5" x2="299.5" y2="163.5"/>
	<line class="st0" x1="305.2" y1="172.3" x2="309.4" y2="168.1"/>
	<line class="st0" x1="307" y1="178" x2="314" y2="178"/>
	<line class="st0" x1="305.2" y1="183.7" x2="309.4" y2="187.9"/>
	<line class="st0" x1="299.5" y1="185.5" x2="299.5" y2="192.5"/>
	<line class="st0" x1="293.8" y1="183.7" x2="289.6" y2="187.9"/>
	<line class="st0" x1="292" y1="178" x2="285" y2="178"/>
	<line class="st0" x1="293.8" y1="172.3" x2="289.6" y2="168.1"/>
</g>
<g>
	<circle class="st0" cx="14.5" cy="159" r="4.9"/>
	<line class="st0" x1="14.5" y1="151.5" x2="14.5" y2="144.5"/>
	<line class="st0" x1="20.2" y1="153.3" x2="24.4" y2="149.1"/>
	<line class="st0" x1="22" y1="159" x2="29" y2="159"/>
	<line class="st0" x1="20.2" y1="164.7" x2="24.4" y2="168.9"/>
	<line class="st0" x1="14.5" y1="166.5" x2="14.5" y2="173.5"/>
	<line class="st0" x1="8.8" y1="164.7" x2="4.6" y2="168.9"/>
	<line class="st0" x1="7" y1="159" x2="0" y2="159"/>
	<line class="st0" x1="8.8" y1="153.3" x2="4.6" y2="149.1"/>
</g>
<path class="st0" d="M110.7,5.1c-0.3,0-0.6,0-0.9,0.1c-1.2-2.8-3.9-4.7-7.1-4.7c-3.1,0-5.8,1.9-7,4.6c-3,0-5.4,2.4-5.4,5.4
	c0,3,2.4,5.4,5.4,5.4c1.2,0,2.3-0.4,3.2-1.1c1.1,0.7,2.5,1.1,3.9,1.1c1.6,0,3.2-0.5,4.4-1.4c1,0.9,2.2,1.4,3.6,1.4
	c3,0,5.4-2.4,5.4-5.4S113.6,5.1,110.7,5.1z"/>
<path class="st0" d="M188.6,27.7c0-7.9-6.4-14.3-14.3-14.3c-7.2,0-13.2,5.4-14.2,12.3c-5.7,1-10.1,5.9-10.1,11.9
	c0,6.7,5.4,12.1,12.1,12.1c0.2,0,0.3,0,0.5,0c1.4,5.1,6.1,8.8,11.6,8.8c6.7,0,12.1-5.4,12.1-12.1c0-3-1.1-5.7-2.8-7.8
	C186.6,36,188.6,32.1,188.6,27.7z"/>
<line class="st2" x1="175.4" y1="82.5" x2="174.9" y2="58.3"/>
<g>
	<circle class="st0" cx="153.7" cy="60.6" r="2.7"/>
	<path class="st0" d="M155.5,64.2H152c-1.6,0-3,1.3-3,3V74c0,1.2,0.7,2.3,1.8,2.7v8.6c0,1.3,1.1,2.4,2.4,2.4h1.2
		c1.3,0,2.4-1.1,2.4-2.4v-8.6c1-0.5,1.8-1.5,1.8-2.7v-6.8C158.5,65.5,157.2,64.2,155.5,64.2z"/>
</g>
<g>
	<circle class="st0" cx="235.9" cy="48.5" r="2.7"/>
	<path class="st0" d="M237.7,52.1h-3.6c-1.6,0-3,1.3-3,3v6.8c0,1.2,0.7,2.3,1.8,2.7v8.6c0,1.3,1.1,2.4,2.4,2.4h1.2
		c1.3,0,2.4-1.1,2.4-2.4v-8.6c1-0.5,1.8-1.5,1.8-2.7V55C240.6,53.4,239.3,52.1,237.7,52.1z"/>
</g>
<g>
	<circle class="st0" cx="89" cy="48.5" r="2.7"/>
	<path class="st0" d="M90.8,52.1h-3.6c-1.6,0-3,1.3-3,3v6.8c0,1.2,0.7,2.3,1.8,2.7v8.6c0,1.3,1.1,2.4,2.4,2.4h1.2
		c1.3,0,2.4-1.1,2.4-2.4v-8.6c1-0.5,1.8-1.5,1.8-2.7V55C93.8,53.4,92.4,52.1,90.8,52.1z"/>
</g>
<line class="st0" x1="76.5" y1="45.9" x2="99.6" y2="69"/>
<line class="st0" x1="222.1" y1="45.9" x2="245.2" y2="69"/>
<path class="st3" d="M184,70.7c9.9,2.7,16.2,6.9,16.2,11.6c0,8.1-19.1,14.7-42.6,14.7S115,90.4,115,82.2c0-6,10.2-11.1,24.9-13.4"/>
<path class="st0" d="M184.5,151.1h-46.9c-2.5,0-4.5-2-4.5-4.5v-4.1c0-2.5,2-4.5,4.5-4.5h46.9c2.5,0,4.5,2,4.5,4.5v4.1
	C189,149,187,151.1,184.5,151.1z"/>
<path class="st0" d="M175.2,137.9h-19.1v-0.1c0-1.3,1-2.3,2.3-2.3h14.4C174.1,135.5,175.2,136.6,175.2,137.9L175.2,137.9z"/>
<path class="st0" d="M133.3,148l6.3,21.5c1.5,3.9,5.2,6.5,9.4,6.5h25.9c3.6,0,6.8-2.5,7.7-6l5.6-20.7"/>
<path class="st0" d="M142.9,155h35.4c1.4,0,2.4,1.3,2.1,2.6l-2.9,12.7c-0.2,1-1.1,1.7-2.1,1.7h-28.7c-1,0-1.8-0.6-2.1-1.5l-3.7-12.7
	C140.4,156.4,141.4,155,142.9,155z"/>
</svg>
