<!-- Generator: Adobe Illustrator 19.2.1, SVG Export Plug-In  -->
<svg version="1.1"
	 xmlns="http://www.w3.org/2000/svg" xmlns:xlink="http://www.w3.org/1999/xlink" xmlns:a="http://ns.adobe.com/AdobeSVGViewerExtensions/3.0/"
	 x="0px" y="0px" width="213.4px" height="214.7px" viewBox="0 0 213.4 214.7" style="enable-background:new 0 0 213.4 214.7;"
	 xml:space="preserve">
<style type="text/css">
	.st0{fill:none;stroke:#8E8E8E;stroke-miterlimit:10;}
	.st1{fill:#8E8E8E;}
	.st2{fill:none;stroke:#8E8E8E;stroke-miterlimit:10;stroke-dasharray:5;}
	.st3{fill:none;stroke:#8E8E8E;stroke-width:3;stroke-miterlimit:10;stroke-dasharray:1,3;}
	.st4{fill:none;stroke:#8E8E8E;stroke-miterlimit:10;stroke-dasharray:1,1;}
</style>
<defs>
</defs>
<polygon class="st0" points="93.6,27 85.5,45.7 102.6,45.7 "/>
<polyline class="st0" points="102.8,45.7 126.3,45.7 109.4,17 98.5,36.2 "/>
<polyline class="st0" points="105.1,24.2 108.6,29 110.9,24.2 115.2,26.5 "/>
<path class="st0" d="M75.6,10.4c-0.2,0-0.3,0-0.5,0.1c-0.6-1.5-2.1-2.6-3.9-2.6c-1.7,0-3.2,1-3.9,2.5c-1.6,0-3,1.3-3,3
	c0,1.6,1.3,3,3,3c0.7,0,1.3-0.2,1.7-0.6c0.6,0.4,1.4,0.6,2.1,0.6c0.9,0,1.7-0.3,2.4-0.8c0.5,0.5,1.2,0.8,2,0.8c1.6,0,3-1.3,3-3
	S77.2,10.4,75.6,10.4z"/>
<polygon class="st1" points="85,45.8 68.7,46.1 86.9,41.4 "/>
<path class="st0" d="M143.2,51.6c0-2-1.6-3.6-3.6-3.6c-1.8,0-3.3,1.3-3.6,3.1c-1.4,0.2-2.5,1.5-2.5,3c0,1.7,1.4,3,3,3
	c0,0,0.1,0,0.1,0c0.4,1.3,1.5,2.2,2.9,2.2c1.7,0,3-1.4,3-3c0-0.7-0.3-1.4-0.7-2C142.7,53.7,143.2,52.7,143.2,51.6z"/>
<line class="st0" x1="139.9" y1="65.7" x2="139.8" y2="59.6"/>
<path class="st1" d="M140.1,65.2h-15c0,0,1.2-3.4,4.4-3.4c3.1,0,6.6,1.8,6.6,1.8L140.1,65.2z"/>
<line class="st0" x1="90.8" y1="33.7" x2="19.8" y2="33.7"/>
<line class="st0" x1="118.8" y1="32.7" x2="182.8" y2="32.7"/>
<polygon class="st0" points="69.5,61.7 78.3,61.7 81.1,65.7 87.3,65.7 87.3,70.7 63.3,70.7 63.3,65.7 "/>
<line class="st0" x1="62.8" y1="65.7" x2="80.8" y2="65.7"/>
<path class="st0" d="M72.4,70.5c0,1.6-1.3,2.9-2.9,2.9s-2.9-1.3-2.9-2.9"/>
<path class="st0" d="M85.9,70.5c0,1.6-1.3,2.9-2.9,2.9c-1.6,0-2.9-1.3-2.9-2.9"/>
<polygon class="st1" points="68.4,73 51.9,73.4 57.9,71.2 66.5,71.2 "/>
<polygon class="st1" points="81.3,73.1 71.2,73 72.5,71.2 79.7,71.2 "/>
<path class="st0" d="M124.8,107.5H83.1c-0.9,0-1.3-1-0.8-1.7l3.3-3.1c0.2-0.3,0.5-0.4,0.8-0.4l35.2,0.2c0.3,0,0.6,0.2,0.8,0.4
	l3.2,2.9C126.2,106.5,125.7,107.5,124.8,107.5z"/>
<path class="st0" d="M124.9,165.5H83.2c-0.6,0-1-0.5-1-1v-57.3H126v57.3C126,165,125.5,165.5,124.9,165.5z"/>
<path class="st0" d="M120.4,158.1H88.2c-0.9,0-1.6-0.7-1.6-1.6v-43.1c0-0.9,0.7-1.6,1.6-1.6h32.2c0.9,0,1.6,0.7,1.6,1.6v43.1
	C122,157.4,121.3,158.1,120.4,158.1z"/>
<line class="st2" x1="99.2" y1="98.2" x2="47.2" y2="0.2"/>
<line class="st2" x1="169.2" y1="0.2" x2="117.2" y2="98.2"/>
<path class="st3" d="M86.6,204.4c-36.1-7-64.9-34.5-73.7-70"/>
<path class="st3" d="M197,132.9c-8.5,36.7-38.4,65.2-75.8,71.8"/>
<path class="st0" d="M109.2,133.9h-11c-1.5,0-2.7-1.2-2.7-2.7v-9.3c0-1.5,1.2-2.7,2.7-2.7h11c1.5,0,2.7,1.2,2.7,2.7v9.3
	C111.9,132.7,110.7,133.9,109.2,133.9z"/>
<line class="st4" x1="89.8" y1="152.7" x2="115.8" y2="152.7"/>
<line class="st0" x1="90.3" y1="151.2" x2="90.3" y2="154.2"/>
<line class="st0" x1="116.3" y1="151.2" x2="116.3" y2="154.2"/>
<line class="st0" x1="108.3" y1="150.2" x2="108.3" y2="155.2"/>
<circle class="st0" cx="104.8" cy="205.6" r="8.7"/>
<polyline class="st0" points="104.2,200.9 104.8,205.6 107.5,209.6 "/>
<g>
	
		<ellipse transform="matrix(0.2912 -0.9567 0.9567 0.2912 35.3646 269.1996)" class="st0" cx="199.3" cy="110.7" rx="4.9" ry="4.9"/>
	<line class="st0" x1="201.5" y1="103.6" x2="203.6" y2="96.9"/>
	<line class="st0" x1="206.5" y1="106.9" x2="211.7" y2="104.1"/>
	<line class="st0" x1="206.5" y1="112.9" x2="213.2" y2="115"/>
	<line class="st0" x1="203.1" y1="117.9" x2="205.9" y2="123.1"/>
	<line class="st0" x1="197.2" y1="117.9" x2="195.1" y2="124.6"/>
	<line class="st0" x1="192.2" y1="114.5" x2="187" y2="117.3"/>
	<line class="st0" x1="192.2" y1="108.6" x2="185.5" y2="106.5"/>
	<line class="st0" x1="195.6" y1="103.6" x2="192.8" y2="98.4"/>
</g>
<path class="st0" d="M12.1,115.7c-1-3.1-0.1-6.4,2.1-8.6c-1.4-0.3-2.9-0.2-4.3,0.2c-4.6,1.4-7.1,6.3-5.7,10.8
	c1.4,4.6,6.3,7.1,10.8,5.7c1.4-0.4,2.7-1.2,3.7-2.2C15.6,121,13.1,118.8,12.1,115.7z"/>
<g>
	<path class="st1" d="M210.3,136.9L210.3,136.9l-0.2-1.4l0.7,0.1l0.2,1.7l-0.3,0.8l-6.7-2.4l0.3-0.9L210.3,136.9z"/>
	<path class="st1" d="M203.1,137.4l6.4,5.6l-0.3,0.7l-6.4-5.6L203.1,137.4z"/>
	<path class="st1" d="M207.1,145.7L207.1,145.7l-0.2-1.4l0.7,0.1l0.2,1.7l-0.3,0.8l-6.7-2.4l0.3-0.9L207.1,145.7z"/>
	<path class="st1" d="M201.9,152.5c-2.3-0.8-3.2-2.1-2.7-3.6c0.5-1.3,2-1.7,4.2-0.9c2.2,0.8,3.1,2.2,2.6,3.6
		C205.5,153,204,153.3,201.9,152.5z M203.1,148.9c-1.7-0.6-2.9-0.5-3.2,0.4c-0.3,0.9,0.6,1.8,2.3,2.4c1.6,0.6,2.9,0.6,3.2-0.4
		C205.7,150.5,204.9,149.5,203.1,148.9z"/>
	<path class="st1" d="M199.9,157.8c-2.3-0.8-3.2-2.1-2.7-3.6c0.5-1.3,2-1.7,4.2-0.9c2.2,0.8,3.1,2.2,2.6,3.6
		C203.6,158.2,202.1,158.5,199.9,157.8z M201.2,154.1c-1.7-0.6-2.9-0.5-3.2,0.4c-0.3,0.9,0.6,1.8,2.3,2.4c1.6,0.6,2.9,0.6,3.2-0.4
		C203.7,155.7,203,154.8,201.2,154.1z"/>
	<path class="st1" d="M198,163c-2.3-0.8-3.2-2.1-2.7-3.6c0.5-1.3,2-1.7,4.2-0.9c2.2,0.8,3.1,2.2,2.6,3.6
		C201.7,163.5,200.1,163.8,198,163z M199.2,159.4c-1.7-0.6-2.9-0.5-3.2,0.4c-0.3,0.9,0.6,1.8,2.3,2.4c1.6,0.6,2.9,0.6,3.2-0.4
		C201.8,161,201,160,199.2,159.4z"/>
</g>
<g>
	<path class="st1" d="M8.7,161.6L8.7,161.6l1.1,0.9l-0.6,0.4l-1.3-1.2L7.6,161l6.6-2.5l0.3,0.9L8.7,161.6z"/>
	<path class="st1" d="M13.9,156.4l-8.5-0.1l-0.3-0.7l8.5,0.1L13.9,156.4z"/>
	<path class="st1" d="M5.5,152.8L5.5,152.8l1.1,0.9l-0.6,0.4L4.6,153l-0.3-0.8l6.7-2.5l0.3,0.9L5.5,152.8z"/>
	<path class="st1" d="M10.1,147.4l-0.6,0.2l-0.9-0.5c-2.2-1.1-3.4-1.5-4.4-1.2c-0.7,0.3-1.2,0.8-0.8,1.8c0.2,0.6,0.7,1,1.1,1.2
		l-0.5,0.5c-0.6-0.3-1.1-0.9-1.4-1.6c-0.5-1.4,0.2-2.4,1.2-2.8c1.2-0.5,2.5,0.1,4.4,1l0.7,0.3l0,0l-1.1-3l0.7-0.3L10.1,147.4z"/>
	<path class="st1" d="M0.8,140.3l0.9,2.5l1.8-0.4c-0.1-0.1-0.2-0.3-0.2-0.5c-0.2-0.5-0.3-1.1-0.2-1.6c0.1-0.6,0.5-1.3,1.4-1.6
		c1.3-0.5,2.7,0.2,3.2,1.6c0.3,0.7,0.3,1.4,0.2,1.8l-0.8,0c0.1-0.3,0.1-1-0.2-1.6c-0.3-0.8-1.1-1.4-2-1c-0.9,0.3-1.3,1.1-0.8,2.5
		c0.1,0.4,0.3,0.7,0.4,0.9l-3.4,0.8L0,140.6L0.8,140.3z"/>
</g>
<g>
	<path class="st1" d="M99,141.4l-0.6,1.8h-0.7l1.9-5.6h0.9l1.9,5.6h-0.8l-0.6-1.8H99z M100.8,140.8l-0.5-1.6c-0.1-0.4-0.2-0.7-0.3-1
		h0c-0.1,0.3-0.2,0.7-0.3,1l-0.5,1.6H100.8z"/>
	<path class="st1" d="M103.2,137.6c0.3-0.1,0.8-0.1,1.4-0.1c0.7,0,1.2,0.2,1.6,0.5c0.3,0.3,0.5,0.7,0.5,1.2c0,0.5-0.1,0.9-0.4,1.2
		c-0.4,0.4-1,0.6-1.7,0.6c-0.2,0-0.4,0-0.6,0v2.2h-0.7V137.6z M103.9,140.3c0.2,0,0.4,0.1,0.6,0.1c0.9,0,1.4-0.4,1.4-1.2
		c0-0.7-0.5-1.1-1.3-1.1c-0.3,0-0.6,0-0.7,0.1V140.3z"/>
	<path class="st1" d="M107.6,137.6c0.3-0.1,0.8-0.1,1.4-0.1c0.7,0,1.2,0.2,1.6,0.5c0.3,0.3,0.5,0.7,0.5,1.2c0,0.5-0.1,0.9-0.4,1.2
		c-0.4,0.4-1,0.6-1.7,0.6c-0.2,0-0.4,0-0.6,0v2.2h-0.7V137.6z M108.3,140.3c0.2,0,0.4,0.1,0.6,0.1c0.9,0,1.4-0.4,1.4-1.2
		c0-0.7-0.5-1.1-1.3-1.1c-0.3,0-0.6,0-0.7,0.1V140.3z"/>
</g>
<polyline class="st0" points="95.5,131.2 101.8,123 109.2,133.9 "/>
<line class="st0" x1="103.7" y1="126.6" x2="109.2" y2="119.2"/>
</svg>
