<!-- Generator: Adobe Illustrator 19.2.1, SVG Export Plug-In  -->
<svg version="1.1"
	 xmlns="http://www.w3.org/2000/svg" xmlns:xlink="http://www.w3.org/1999/xlink" xmlns:a="http://ns.adobe.com/AdobeSVGViewerExtensions/3.0/"
	 x="0px" y="0px" width="207.8px" height="228.5px" viewBox="0 0 207.8 228.5" style="enable-background:new 0 0 207.8 228.5;"
	 xml:space="preserve">
<style type="text/css">
	.st0{fill:none;stroke:#8E8E8E;stroke-miterlimit:10;}
	.st1{fill:#8E8E8E;}
	.st2{fill:none;stroke:#8E8E8E;stroke-width:3;stroke-miterlimit:10;stroke-dasharray:1,3;}
	.st3{fill:none;stroke:#8E8E8E;stroke-miterlimit:10;stroke-dasharray:5;}
	.st4{fill:none;stroke:#8E8E8E;stroke-miterlimit:10;stroke-dasharray:1;}
</style>
<defs>
</defs>
<path class="st0" d="M113.2,130h23.5c2.5,0,4.5,2,4.5,4.5v12.1c0,2.5-2,4.5-4.5,4.5h-14c-1.4,0-2.7-0.8-3.4-2.1l-3-5.8
	c-0.7-1.3-2-2.1-3.4-2.1H98.1c-1.4,0-2.7,0.8-3.4,2l-3.1,5.8c-0.7,1.2-2,2-3.4,2H68.6c-2.5,0-4.5-2-4.5-4.5v-12.1
	c0-2.5,2-4.5,4.5-4.5h28.9"/>
<path class="st0" d="M105.4,183.6H76.2c-2.5,0-4.5-2-4.5-4.5v-16.4c0-2.5,2-4.5,4.5-4.5h29.1c2.5,0,4.5,2,4.5,4.5v16.4
	C109.9,181.6,107.9,183.6,105.4,183.6z"/>
<path class="st0" d="M107.7,151h-5.8c-1,0-1.8-0.8-1.8-1.8v-3c0-1,0.8-1.8,1.8-1.8h5.8c1,0,1.8,0.8,1.8,1.8v3
	C109.4,150.2,108.6,151,107.7,151z"/>
<path class="st0" d="M64.2,146.6v35c0,4.2,3.4,7.5,7.5,7.5h61.9c4.2,0,7.5-3.4,7.5-7.5v-35"/>
<circle class="st0" cx="120.6" cy="162.4" r="4.4"/>
<circle class="st0" cx="131.8" cy="162.4" r="4.4"/>
<path class="st0" d="M95,142.6l2.8-12.1c0.4-1.6,1.8-2.8,3.5-2.8h8.4c1.7,0,3.2,1.2,3.5,2.8l2.6,12"/>
<g>
	<path class="st0" d="M123.8,61.1c0.1-2.7,2.4-4.8,5-4.7c2.7,0.1,4.8,2.4,4.7,5"/>
	<line class="st0" x1="130.8" y1="54.6" x2="133.5" y2="48.1"/>
	<line class="st0" x1="135.4" y1="58.4" x2="140.9" y2="56.2"/>
	<line class="st0" x1="121" y1="58.6" x2="114.6" y2="56"/>
	<line class="st0" x1="124.9" y1="54.1" x2="122.6" y2="48.6"/>
</g>
<polygon class="st0" points="79.8,55.6 72.5,72.6 88,72.6 "/>
<polyline class="st0" points="88,72.6 109.5,72.6 94.2,46.8 84.2,64.1 "/>
<polyline class="st0" points="90.3,53.6 93.4,57.9 95.5,53.6 99.4,55.6 "/>
<path class="st0" d="M63.5,41.1c-0.2,0-0.3,0-0.5,0c-0.6-1.4-1.9-2.4-3.5-2.4c-1.6,0-2.9,0.9-3.5,2.3c-1.5,0-2.7,1.2-2.7,2.7
	c0,1.5,1.2,2.7,2.7,2.7c0.6,0,1.1-0.2,1.6-0.5c0.6,0.3,1.2,0.5,1.9,0.5c0.8,0,1.6-0.3,2.2-0.7c0.5,0.4,1.1,0.7,1.8,0.7
	c1.5,0,2.7-1.2,2.7-2.7C66.2,42.3,65,41.1,63.5,41.1z"/>
<polygon class="st1" points="72,73.1 57.3,73.4 73.8,69.1 "/>
<line class="st0" x1="77" y1="62.6" x2="13" y2="62.6"/>
<line class="st0" x1="103" y1="61.6" x2="191" y2="61.6"/>
<line class="st0" x1="129" y1="162.6" x2="134" y2="162.6"/>
<line class="st0" x1="118" y1="162.6" x2="123" y2="162.6"/>
<line class="st0" x1="120.5" y1="160.1" x2="120.5" y2="165.1"/>
<path class="st2" d="M86.8,215.3c-36.1-7-64.9-34.5-73.7-70"/>
<path class="st2" d="M197.2,143.8c-8.5,36.7-38.4,65.2-75.8,71.8"/>
<circle class="st0" cx="103.8" cy="216.9" r="7.2"/>
<line class="st0" x1="98.5" y1="222.1" x2="91" y2="228.1"/>
<g>
	<path class="st1" d="M3.5,150.3v2.8h2.7v0.7H3.5v2.8H2.7v-2.8H0v-0.7h2.7v-2.8H3.5z"/>
</g>
<g>
	<path class="st1" d="M207.8,150v0.8h-3V150H207.8z"/>
</g>
<line class="st3" x1="89" y1="128.1" x2="6" y2="33.1"/>
<line class="st3" x1="206" y1="33.1" x2="123" y2="128.1"/>
<path class="st4" d="M12.5,34.1c1.5-2,83.5-47,188-1"/>
<g>
	<path class="st1" d="M86.7,5.9l3.5-5.1v0H87V0.1h4.2v0.5l-3.4,5v0h3.5v0.7h-4.5V5.9z"/>
	<path class="st1" d="M96.1,4.1c0,1.7-1.1,2.4-2.2,2.4c-1.2,0-2.1-0.9-2.1-2.3c0-1.5,1-2.4,2.2-2.4C95.3,1.8,96.1,2.7,96.1,4.1z
		 M92.6,4.1c0,1,0.6,1.7,1.4,1.7c0.8,0,1.4-0.7,1.4-1.7c0-0.8-0.4-1.7-1.3-1.7C93,2.4,92.6,3.3,92.6,4.1z"/>
	<path class="st1" d="M101.2,4.1c0,1.7-1.1,2.4-2.2,2.4c-1.2,0-2.1-0.9-2.1-2.3c0-1.5,1-2.4,2.2-2.4C100.3,1.8,101.2,2.7,101.2,4.1z
		 M97.6,4.1c0,1,0.6,1.7,1.4,1.7c0.8,0,1.4-0.7,1.4-1.7c0-0.8-0.4-1.7-1.3-1.7C98.1,2.4,97.6,3.3,97.6,4.1z"/>
	<path class="st1" d="M102.2,3.1c0-0.5,0-0.8,0-1.2h0.7l0,0.7h0c0.2-0.4,0.7-0.8,1.4-0.8c0.6,0,1.1,0.4,1.3,0.9h0
		c0.1-0.2,0.3-0.4,0.5-0.6c0.3-0.2,0.6-0.3,1-0.3c0.6,0,1.5,0.4,1.5,1.9v2.6h-0.8V3.8c0-0.9-0.3-1.4-1-1.4c-0.5,0-0.8,0.3-1,0.7
		c0,0.1-0.1,0.3-0.1,0.4v2.8H105V3.7c0-0.7-0.3-1.2-0.9-1.2c-0.5,0-0.9,0.4-1,0.8c0,0.1-0.1,0.3-0.1,0.4v2.7h-0.8V3.1z"/>
	<path class="st1" d="M117.2,3.2c0,2.1-1.3,3.3-2.9,3.3c-1.6,0-2.8-1.3-2.8-3.2c0-2,1.2-3.3,2.9-3.3C116.1,0,117.2,1.3,117.2,3.2z
		 M112.4,3.3c0,1.3,0.7,2.5,2,2.5c1.3,0,2-1.2,2-2.6c0-1.2-0.6-2.5-2-2.5C113.1,0.7,112.4,1.9,112.4,3.3z"/>
	<path class="st1" d="M122,5.1c0,0.5,0,0.9,0,1.2h-0.7l0-0.7h0c-0.2,0.4-0.7,0.8-1.5,0.8c-0.7,0-1.5-0.4-1.5-2V1.9h0.8v2.5
		c0,0.9,0.3,1.4,1,1.4c0.5,0,0.9-0.4,1.1-0.7c0-0.1,0.1-0.3,0.1-0.4V1.9h0.8V5.1z"/>
	<path class="st1" d="M124.3,0.6v1.3h1.2v0.6h-1.2v2.4c0,0.6,0.2,0.9,0.6,0.9c0.2,0,0.4,0,0.5-0.1l0,0.6c-0.2,0.1-0.4,0.1-0.7,0.1
		c-0.4,0-0.7-0.1-0.9-0.3c-0.2-0.2-0.3-0.6-0.3-1.2V2.5h-0.7V1.9h0.7V0.8L124.3,0.6z"/>
</g>
<g>
	<path class="st1" d="M88.7,27.4l3.5-5.1v0H89v-0.7h4.2v0.5l-3.4,5v0h3.5v0.7h-4.5V27.4z"/>
	<path class="st1" d="M98.1,25.6c0,1.7-1.1,2.4-2.2,2.4c-1.2,0-2.1-0.9-2.1-2.3c0-1.5,1-2.4,2.2-2.4C97.3,23.3,98.1,24.2,98.1,25.6z
		 M94.6,25.6c0,1,0.6,1.7,1.4,1.7c0.8,0,1.4-0.7,1.4-1.7c0-0.8-0.4-1.7-1.3-1.7C95,23.9,94.6,24.8,94.6,25.6z"/>
	<path class="st1" d="M103.2,25.6c0,1.7-1.1,2.4-2.2,2.4c-1.2,0-2.1-0.9-2.1-2.3c0-1.5,1-2.4,2.2-2.4
		C102.3,23.3,103.2,24.2,103.2,25.6z M99.6,25.6c0,1,0.6,1.7,1.4,1.7c0.8,0,1.4-0.7,1.4-1.7c0-0.8-0.4-1.7-1.3-1.7
		C100.1,23.9,99.6,24.8,99.6,25.6z"/>
	<path class="st1" d="M104.2,24.6c0-0.5,0-0.8,0-1.2h0.7l0,0.7h0c0.2-0.4,0.7-0.8,1.4-0.8c0.6,0,1.1,0.4,1.3,0.9h0
		c0.1-0.2,0.3-0.4,0.5-0.6c0.3-0.2,0.6-0.3,1-0.3c0.6,0,1.5,0.4,1.5,1.9v2.6h-0.8v-2.5c0-0.9-0.3-1.4-1-1.4c-0.5,0-0.8,0.3-1,0.7
		c0,0.1-0.1,0.3-0.1,0.4v2.8H107v-2.7c0-0.7-0.3-1.2-0.9-1.2c-0.5,0-0.9,0.4-1,0.8c0,0.1-0.1,0.3-0.1,0.4v2.7h-0.8V24.6z"/>
	<path class="st1" d="M114.7,21.6v6.2h-0.8v-6.2H114.7z"/>
	<path class="st1" d="M116.2,24.6c0-0.5,0-0.8,0-1.2h0.7l0,0.7h0c0.2-0.4,0.7-0.8,1.5-0.8c0.6,0,1.6,0.4,1.6,1.9v2.7h-0.8v-2.6
		c0-0.7-0.3-1.3-1-1.3c-0.5,0-1,0.4-1.1,0.8c0,0.1-0.1,0.2-0.1,0.4v2.7h-0.8V24.6z"/>
</g>
<line class="st3" x1="94.5" y1="126.6" x2="70" y2="37.6"/>
<line class="st3" x1="141.5" y1="37.6" x2="117" y2="126.6"/>
<path class="st4" d="M74,39.6c0,0,33-13.5,63,0"/>
</svg>
