<!-- Generator: Adobe Illustrator 19.2.1, SVG Export Plug-In  -->
<svg version="1.1"
	 xmlns="http://www.w3.org/2000/svg" xmlns:xlink="http://www.w3.org/1999/xlink" xmlns:a="http://ns.adobe.com/AdobeSVGViewerExtensions/3.0/"
	 x="0px" y="0px" width="200.8px" height="228.4px" viewBox="0 0 200.8 228.4" style="enable-background:new 0 0 200.8 228.4;"
	 xml:space="preserve">
<style type="text/css">
	.st0{fill:none;stroke:#8E8E8E;stroke-miterlimit:10;}
	.st1{fill:#8E8E8E;}
	.st2{fill:none;stroke:#8E8E8E;stroke-miterlimit:10;stroke-dasharray:5;}
	.st3{fill:none;stroke:#8E8E8E;stroke-miterlimit:10;stroke-dasharray:1;}
</style>
<defs>
</defs>
<path class="st0" d="M107.5,168.8h23.5c2.5,0,4.5,2,4.5,4.5v12.1c0,2.5-2,4.5-4.5,4.5h-14c-1.4,0-2.7-0.8-3.4-2.1l-3-5.8
	c-0.7-1.3-2-2.1-3.4-2.1H92.4c-1.4,0-2.7,0.8-3.4,2l-3.1,5.8c-0.7,1.2-2,2-3.4,2H63c-2.5,0-4.5-2-4.5-4.5v-12.1c0-2.5,2-4.5,4.5-4.5
	h28.9"/>
<path class="st0" d="M99.7,222.5H70.6c-2.5,0-4.5-2-4.5-4.5v-16.4c0-2.5,2-4.5,4.5-4.5h29.1c2.5,0,4.5,2,4.5,4.5v16.4
	C104.3,220.4,102.2,222.5,99.7,222.5z"/>
<path class="st0" d="M102,189.9h-5.8c-1,0-1.8-0.8-1.8-1.8v-3c0-1,0.8-1.8,1.8-1.8h5.8c1,0,1.8,0.8,1.8,1.8v3
	C103.8,189.1,103,189.9,102,189.9z"/>
<path class="st0" d="M58.5,185.4v35c0,4.2,3.4,7.5,7.5,7.5H128c4.2,0,7.5-3.4,7.5-7.5v-35"/>
<circle class="st0" cx="114.9" cy="201.2" r="4.4"/>
<circle class="st0" cx="126.1" cy="201.2" r="4.4"/>
<path class="st0" d="M89.4,181.4l2.8-12.1c0.4-1.6,1.8-2.8,3.5-2.8h8.4c1.7,0,3.2,1.2,3.5,2.8l2.6,12"/>
<g>
	<path class="st0" d="M130.1,99.9c0.1-2.7,2.4-4.8,5-4.7c2.7,0.1,4.8,2.4,4.7,5"/>
	<line class="st0" x1="137.2" y1="93.4" x2="139.9" y2="86.9"/>
	<line class="st0" x1="141.8" y1="97.3" x2="147.3" y2="95"/>
	<line class="st0" x1="127.4" y1="97.5" x2="120.9" y2="94.8"/>
	<line class="st0" x1="131.2" y1="92.9" x2="128.9" y2="87.4"/>
</g>
<polygon class="st0" points="74.2,94.5 66.9,111.5 82.4,111.5 "/>
<polyline class="st0" points="82.4,111.5 103.9,111.5 88.6,85.7 78.5,103 "/>
<polyline class="st0" points="84.7,92.4 87.8,96.7 89.9,92.4 93.8,94.5 "/>
<path class="st0" d="M57.8,79.9c-0.2,0-0.3,0-0.5,0c-0.6-1.4-1.9-2.4-3.5-2.4c-1.6,0-2.9,0.9-3.5,2.3c-1.5,0-2.7,1.2-2.7,2.7
	c0,1.5,1.2,2.7,2.7,2.7c0.6,0,1.1-0.2,1.6-0.5c0.6,0.3,1.2,0.5,1.9,0.5c0.8,0,1.6-0.3,2.2-0.7c0.5,0.4,1.1,0.7,1.8,0.7
	c1.5,0,2.7-1.2,2.7-2.7C60.5,81.1,59.3,79.9,57.8,79.9z"/>
<polygon class="st1" points="66.4,112 51.6,112.2 68.1,108 "/>
<line class="st0" x1="71.4" y1="101.5" x2="7.4" y2="101.5"/>
<line class="st0" x1="97.4" y1="100.5" x2="185.4" y2="100.5"/>
<line class="st0" x1="123.4" y1="201.5" x2="128.4" y2="201.5"/>
<line class="st0" x1="112.4" y1="201.5" x2="117.4" y2="201.5"/>
<line class="st0" x1="114.9" y1="199" x2="114.9" y2="204"/>
<line class="st2" x1="83.4" y1="167" x2="0.4" y2="72"/>
<line class="st2" x1="200.4" y1="72" x2="117.4" y2="167"/>
<g>
	<ellipse transform="matrix(0.2912 -0.9567 0.9567 0.2912 16.5294 137.2352)" class="st0" cx="100.9" cy="57.5" rx="4.9" ry="4.9"/>
	<line class="st0" x1="103.1" y1="50.3" x2="105.1" y2="43.6"/>
	<line class="st0" x1="108" y1="53.7" x2="113.2" y2="50.9"/>
	<line class="st0" x1="108.1" y1="59.6" x2="114.7" y2="61.7"/>
	<line class="st0" x1="104.7" y1="64.6" x2="107.5" y2="69.8"/>
	<line class="st0" x1="98.7" y1="64.6" x2="96.7" y2="71.3"/>
	<line class="st0" x1="93.8" y1="61.3" x2="88.5" y2="64.1"/>
	<line class="st0" x1="93.7" y1="55.3" x2="87" y2="53.2"/>
	<line class="st0" x1="97.1" y1="50.3" x2="94.3" y2="45.1"/>
</g>
<g>
	<ellipse transform="matrix(0.2912 -0.9567 0.9567 0.2912 -9.7706 73.7386)" class="st0" cx="44.9" cy="43.5" rx="4.9" ry="4.9"/>
	<line class="st0" x1="47.1" y1="36.3" x2="49.1" y2="29.6"/>
	<line class="st0" x1="52" y1="39.7" x2="57.2" y2="36.9"/>
	<line class="st0" x1="52.1" y1="45.6" x2="58.7" y2="47.7"/>
	<line class="st0" x1="48.7" y1="50.6" x2="51.5" y2="55.8"/>
	<line class="st0" x1="42.7" y1="50.6" x2="40.7" y2="57.3"/>
	<line class="st0" x1="37.8" y1="47.3" x2="32.5" y2="50.1"/>
	<line class="st0" x1="37.7" y1="41.3" x2="31" y2="39.2"/>
	<line class="st0" x1="41.1" y1="36.3" x2="38.3" y2="31.1"/>
</g>
<path class="st2" d="M0.9,24.2c0,0,131-42.8,157,70.8"/>
<polyline class="st0" points="152.1,91.9 158.7,98.8 161.7,90.1 "/>
<polygon class="st0" points="92.7,210.1 79.9,217.4 79.9,202.7 "/>
<line class="st3" x1="14.8" y1="7.3" x2="20.9" y2="34.6"/>
<line class="st3" x1="86.8" y1="6.3" x2="80.9" y2="33.6"/>
<line class="st3" x1="152.4" y1="48.7" x2="131.3" y2="67.2"/>
<g>
	<path class="st1" d="M48.9,1L48.9,1l-1.4,0.7l-0.2-0.8L49,0h0.9v7.8h-1V1z"/>
</g>
<g>
	<path class="st1" d="M123,24.5l0.4-0.5l1.1-0.1c2.7-0.3,4.1-0.5,4.8-1.5c0.5-0.6,0.6-1.4-0.3-2.2c-0.6-0.4-1.2-0.5-1.7-0.5l0.2-0.8
		c0.7,0,1.5,0.2,2.2,0.7c1.3,1,1.2,2.4,0.5,3.3c-0.9,1.1-2.4,1.4-4.7,1.7l-0.8,0.1l0,0l2.8,2.1l-0.5,0.7L123,24.5z"/>
</g>
<g>
	<path class="st1" d="M162.6,71c-0.1,0.3-0.1,1.1,0.2,1.8c0.5,1.3,1.5,1.3,2.1,1.1c1-0.4,1.1-1.5,0.7-2.5l-0.2-0.5l0.7-0.3l0.2,0.5
		c0.3,0.7,1,1.5,1.9,1.1c0.6-0.2,0.9-0.8,0.6-1.7c-0.2-0.6-0.7-1-1.1-1.2l0.6-0.5c0.4,0.3,1,0.9,1.3,1.7c0.6,1.4,0,2.4-0.9,2.8
		c-0.7,0.3-1.6,0.1-2.2-0.6l0,0c0.2,1-0.2,2-1.2,2.4c-1.2,0.5-2.5,0-3.2-1.7c-0.3-0.8-0.4-1.6-0.3-2.1L162.6,71z"/>
</g>
</svg>
