<!-- Generator: Adobe Illustrator 19.2.1, SVG Export Plug-In  -->
<svg version="1.1"
	 xmlns="http://www.w3.org/2000/svg" xmlns:xlink="http://www.w3.org/1999/xlink" xmlns:a="http://ns.adobe.com/AdobeSVGViewerExtensions/3.0/"
	 x="0px" y="0px" width="242px" height="282.5px" viewBox="0 0 242 282.5" style="enable-background:new 0 0 242 282.5;"
	 xml:space="preserve">
<style type="text/css">
	.st0{fill:none;stroke:#8E8E8E;stroke-miterlimit:10;}
	.st1{fill:none;stroke:#8E8E8E;stroke-miterlimit:10;stroke-dasharray:3;}
</style>
<defs>
</defs>
<path class="st0" d="M131.4,123.1H157c2.7,0,4.9,2.2,4.9,4.9v13.1c0,2.7-2.2,4.9-4.9,4.9h-15.2c-1.5,0-3-0.9-3.7-2.2l-3.2-6.3
	c-0.7-1.4-2.1-2.2-3.7-2.2H115c-1.5,0-2.9,0.8-3.7,2.2l-3.4,6.3c-0.7,1.4-2.1,2.2-3.7,2.2H83c-2.7,0-4.9-2.2-4.9-4.9V128
	c0-2.7,2.2-4.9,4.9-4.9h31.4"/>
<path class="st0" d="M123.3,178.7H94.4c-2.5,0-4.5-2-4.5-4.5v-15.9c0-2.5,2-4.5,4.5-4.5h28.9c2.5,0,4.5,2,4.5,4.5v15.9
	C127.9,176.7,125.8,178.7,123.3,178.7z"/>
<path class="st0" d="M125.6,146H119c-1,0-1.8-0.8-1.8-1.8v-3.6c0-1,0.8-1.8,1.8-1.8h6.6c1,0,1.8,0.8,1.8,1.8v3.6
	C127.4,145.2,126.6,146,125.6,146z"/>
<path class="st0" d="M78.1,141.2v38c0,4.5,3.7,8.2,8.2,8.2h67.3c4.5,0,8.2-3.7,8.2-8.2v-38"/>
<circle class="st0" cx="145" cy="166.5" r="8"/>
<path class="st0" d="M111.7,136.8l3.1-13.1c0.4-1.8,2-3,3.8-3h9.2c1.8,0,3.4,1.3,3.8,3.1l2.8,13"/>
<path class="st0" d="M120.1,107"/>
<polygon class="st0" points="98.8,50 91.5,67 107,67 "/>
<polyline class="st0" points="107,67 128.5,67 113.2,41.2 103.2,58.5 "/>
<polyline class="st0" points="109.3,47.9 112.4,52.2 114.5,47.9 118.4,50 "/>
<path class="st0" d="M153.8,72.7c0-1.8-1.5-3.3-3.3-3.3c-1.6,0-3,1.2-3.2,2.8c-1.3,0.2-2.3,1.3-2.3,2.7c0,1.5,1.2,2.8,2.8,2.8
	c0,0,0.1,0,0.1,0c0.3,1.2,1.4,2,2.6,2c1.5,0,2.8-1.2,2.8-2.8c0-0.7-0.2-1.3-0.6-1.8C153.3,74.6,153.8,73.7,153.8,72.7z"/>
<line class="st0" x1="150.8" y1="85.5" x2="150.7" y2="80"/>
<line class="st0" x1="0" y1="57" x2="96" y2="57"/>
<line class="st0" x1="122" y1="56" x2="242" y2="56"/>
<polygon class="st0" points="87,82 95,82 97.5,86 103.5,86 103.5,90 81.5,90 81.5,85.5 "/>
<line class="st0" x1="81" y1="86" x2="97" y2="86"/>
<path class="st0" d="M89.6,89.9c0,1.4-1.2,2.6-2.6,2.6s-2.6-1.2-2.6-2.6"/>
<path class="st0" d="M101.9,89.9c0,1.4-1.2,2.6-2.6,2.6s-2.6-1.2-2.6-2.6"/>
<path class="st0" d="M221.7,20.1c-0.3,0-0.6,0-0.9,0.1c-1.2-2.8-3.9-4.7-7.1-4.7c-3.1,0-5.8,1.9-7,4.6c-3,0-5.4,2.4-5.4,5.4
	c0,3,2.4,5.4,5.4,5.4c1.2,0,2.3-0.4,3.2-1.1c1.1,0.7,2.5,1.1,3.9,1.1c1.6,0,3.2-0.5,4.4-1.4c1,0.9,2.2,1.4,3.6,1.4
	c3,0,5.4-2.4,5.4-5.4S224.6,20.1,221.7,20.1z"/>
<path class="st0" d="M176.7,29.1c-0.3,0-0.6,0-0.9,0.1c-1.2-2.8-3.9-4.7-7.1-4.7c-3.1,0-5.8,1.9-7,4.6c-3,0-5.4,2.4-5.4,5.4
	c0,3,2.4,5.4,5.4,5.4c1.2,0,2.3-0.4,3.2-1.1c1.1,0.7,2.5,1.1,3.9,1.1c1.6,0,3.2-0.5,4.4-1.4c1,0.9,2.2,1.4,3.6,1.4
	c3,0,5.4-2.4,5.4-5.4S179.6,29.1,176.7,29.1z"/>
<path class="st0" d="M129.9,15.7c-0.2,0-0.4,0-0.5,0.1c-0.7-1.6-2.2-2.7-4.1-2.7c-1.8,0-3.4,1.1-4.1,2.7c-1.7,0-3.1,1.4-3.1,3.1
	c0,1.7,1.4,3.1,3.1,3.1c0.7,0,1.3-0.2,1.8-0.6c0.7,0.4,1.4,0.6,2.2,0.6c0.9,0,1.8-0.3,2.5-0.8c0.5,0.5,1.3,0.8,2.1,0.8
	c1.7,0,3.1-1.4,3.1-3.1S131.6,15.7,129.9,15.7z"/>
<path class="st0" d="M139.6,40.9c-0.1,0-0.3,0-0.4,0c-0.5-1.3-1.8-2.2-3.3-2.2c-1.4,0-2.7,0.9-3.2,2.1c-1.4,0-2.5,1.1-2.5,2.5
	c0,1.4,1.1,2.5,2.5,2.5c0.5,0,1-0.2,1.5-0.5c0.5,0.3,1.1,0.5,1.8,0.5c0.8,0,1.5-0.2,2-0.6c0.4,0.4,1,0.6,1.6,0.6
	c1.4,0,2.5-1.1,2.5-2.5C142,42,140.9,40.9,139.6,40.9z"/>
<path class="st0" d="M76.7,28.1c-0.3,0-0.6,0-0.9,0.1c-1.2-2.8-3.9-4.7-7.1-4.7c-3.1,0-5.8,1.9-7,4.6c-3,0-5.4,2.4-5.4,5.4
	c0,3,2.4,5.4,5.4,5.4c1.2,0,2.3-0.4,3.2-1.1c1.1,0.7,2.5,1.1,3.9,1.1c1.6,0,3.2-0.5,4.4-1.4c1,0.9,2.2,1.4,3.6,1.4
	c3,0,5.4-2.4,5.4-5.4S79.6,28.1,76.7,28.1z"/>
<path class="st0" d="M51,3.6c-0.2,0-0.4,0-0.6,0.1c-0.8-1.9-2.6-3.2-4.8-3.2c-2.1,0-3.9,1.3-4.7,3.1c-2,0-3.6,1.6-3.6,3.6
	c0,2,1.6,3.6,3.6,3.6c0.8,0,1.5-0.3,2.1-0.7c0.8,0.4,1.7,0.7,2.6,0.7c1.1,0,2.1-0.4,3-0.9c0.6,0.6,1.5,0.9,2.4,0.9
	c2,0,3.6-1.6,3.6-3.6S53,3.6,51,3.6z"/>
<path class="st0" d="M22,32.6c-0.2,0-0.4,0-0.6,0.1c-0.8-1.9-2.6-3.2-4.8-3.2c-2.1,0-3.9,1.3-4.7,3.1c-2,0-3.6,1.6-3.6,3.6
	c0,2,1.6,3.6,3.6,3.6c0.8,0,1.5-0.3,2.1-0.7c0.8,0.4,1.7,0.7,2.6,0.7c1.1,0,2.1-0.4,3-0.9c0.6,0.6,1.5,0.9,2.4,0.9
	c2,0,3.6-1.6,3.6-3.6S24,32.6,22,32.6z"/>
<line class="st1" x1="207" y1="34" x2="197.5" y2="49.5"/>
<line class="st1" x1="214" y1="34" x2="204.5" y2="49.5"/>
<line class="st1" x1="220" y1="34" x2="210.5" y2="49.5"/>
<line class="st0" x1="94" y1="163" x2="123" y2="163"/>
<line class="st0" x1="100.5" y1="159.5" x2="100.5" y2="167.5"/>
<line class="st0" x1="94" y1="172" x2="123" y2="172"/>
<line class="st0" x1="112.5" y1="168.5" x2="112.5" y2="176.5"/>
<polyline class="st0" points="112.5,188.5 112.5,201 126.5,201 126.5,187.5 "/>
<line class="st0" x1="112.5" y1="201" x2="67" y2="246.5"/>
<line class="st0" x1="126.5" y1="201" x2="174.5" y2="249"/>
<line class="st0" x1="120.7" y1="202.2" x2="136" y2="282.2"/>
<line class="st0" x1="61" y1="246" x2="74" y2="246"/>
<line class="st0" x1="166" y1="249" x2="179" y2="249"/>
<line class="st0" x1="129" y1="282" x2="142" y2="282"/>
</svg>
