<!-- Generator: Adobe Illustrator 19.2.1, SVG Export Plug-In  -->
<svg version="1.1"
	 xmlns="http://www.w3.org/2000/svg" xmlns:xlink="http://www.w3.org/1999/xlink" xmlns:a="http://ns.adobe.com/AdobeSVGViewerExtensions/3.0/"
	 x="0px" y="0px" width="202.7px" height="204.2px" viewBox="0 0 202.7 204.2" style="enable-background:new 0 0 202.7 204.2;"
	 xml:space="preserve">
<style type="text/css">
	.st0{fill:none;stroke:#8E8E8E;stroke-miterlimit:10;}
	.st1{fill:none;stroke:#8E8E8E;stroke-width:3;stroke-miterlimit:10;stroke-dasharray:1,3;}
	.st2{fill:#8E8E8E;}
	.st3{fill:none;stroke:#8E8E8E;stroke-miterlimit:10;stroke-dasharray:5;}
</style>
<defs>
</defs>
<line class="st0" x1="97.1" y1="162.7" x2="71.6" y2="181.2"/>
<line class="st0" x1="111.1" y1="162.7" x2="139.1" y2="190.7"/>
<line class="st0" x1="105.3" y1="163.8" x2="100.6" y2="203.8"/>
<line class="st0" x1="65.6" y1="181.7" x2="78.6" y2="181.7"/>
<line class="st0" x1="130.6" y1="190.7" x2="143.6" y2="190.7"/>
<line class="st0" x1="93.6" y1="203.7" x2="106.6" y2="203.7"/>
<path class="st0" d="M112.8,104h23.5c2.5,0,4.5,2,4.5,4.5v12.1c0,2.5-2,4.5-4.5,4.5h-14c-1.4,0-2.7-0.8-3.4-2.1l-3-5.8
	c-0.7-1.3-2-2.1-3.4-2.1H97.7c-1.4,0-2.7,0.8-3.4,2l-3.1,5.8c-0.7,1.2-2,2-3.4,2H68.2c-2.5,0-4.5-2-4.5-4.5v-12.1
	c0-2.5,2-4.5,4.5-4.5h28.9"/>
<path class="st0" d="M105,155.2H79.1c-2.5,0-4.5-2-4.5-4.5v-13.9c0-2.5,2-4.5,4.5-4.5H105c2.5,0,4.5,2,4.5,4.5v13.9
	C109.5,153.1,107.5,155.2,105,155.2z"/>
<path class="st0" d="M107.3,125.1h-5.8c-1,0-1.8-0.8-1.8-1.8v-3c0-1,0.8-1.8,1.8-1.8h5.8c1,0,1.8,0.8,1.8,1.8v3
	C109.1,124.3,108.3,125.1,107.3,125.1z"/>
<path class="st0" d="M63.8,120.6v35c0,4.2,3.4,7.5,7.5,7.5h61.9c4.2,0,7.5-3.4,7.5-7.5v-35"/>
<circle class="st0" cx="125.3" cy="144" r="7.3"/>
<path class="st0" d="M94.6,116.6l2.8-12.1c0.4-1.6,1.8-2.8,3.5-2.8h8.4c1.7,0,3.2,1.2,3.5,2.8l2.6,12"/>
<g>
	<path class="st0" d="M135.4,31.1c0.1-2.7,2.4-4.8,5-4.7s4.8,2.4,4.7,5"/>
	<line class="st0" x1="142.4" y1="24.6" x2="145.1" y2="18.2"/>
	<line class="st0" x1="147" y1="28.5" x2="152.5" y2="26.2"/>
	<line class="st0" x1="132.6" y1="28.7" x2="126.2" y2="26"/>
	<line class="st0" x1="136.5" y1="24.1" x2="134.2" y2="18.6"/>
</g>
<path class="st0" d="M50,6.3c-0.6-2.1,0-4.2,1.4-5.7c-0.9-0.2-1.9-0.2-2.8,0.1c-3,0.9-4.7,4.1-3.8,7.1c0.9,3,4.1,4.7,7.1,3.8
	c1-0.3,1.8-0.8,2.4-1.5C52.4,9.8,50.7,8.3,50,6.3z"/>
<path class="st0" d="M19.3,170.5c-1.4-2-1.5-4.6-0.5-6.7c-1.1,0.1-2.1,0.5-3.1,1.1c-3,2.1-3.7,6.1-1.7,9.1c2.1,3,6.1,3.7,9.1,1.7
	c0.9-0.6,1.7-1.5,2.1-2.5C23.1,173.5,20.7,172.5,19.3,170.5z"/>
<path class="st1" d="M183.7,172.1c8.1-18.8,10.1-40.2,4.8-61"/>
<path class="st1" d="M31.5,173.1c-8.1-18.8-10.1-40.2-4.8-61"/>
<g>
	<path class="st2" d="M184.8,89.5l-9.4,4.3l-0.5-1.2l9.4-4.3L184.8,89.5z"/>
	<path class="st2" d="M177.8,95c-0.1,0.7,0,1.6,0.4,2.5c0.6,1.2,1.5,1.7,2.5,1.2c0.9-0.4,1.2-1.1,1.1-2.6c-0.2-1.8,0.2-3.1,1.5-3.7
		c1.5-0.7,3.1,0.1,3.9,1.9c0.4,1,0.5,1.8,0.5,2.3l-1.1,0.1c0-0.4,0-1.1-0.4-2c-0.6-1.3-1.6-1.4-2.2-1.1c-0.9,0.4-1.1,1.2-1,2.7
		c0.1,1.9-0.3,3-1.7,3.7c-1.5,0.7-3.2,0.2-4.2-2.1c-0.4-0.9-0.6-2-0.5-2.7L177.8,95z"/>
	<path class="st2" d="M187.9,108.6c-3.2,1.5-5.8,0.3-6.9-2.1c-1.1-2.5,0-5.1,2.9-6.4c3-1.4,5.8-0.4,6.9,2.1
		C191.9,104.8,190.7,107.3,187.9,108.6z M184.5,101.4c-2,0.9-3.3,2.8-2.5,4.7c0.9,1.9,3.1,2.2,5.3,1.2c1.9-0.8,3.4-2.7,2.5-4.7
		C188.9,100.6,186.6,100.4,184.5,101.4z"/>
</g>
<g>
	<path class="st2" d="M201.8,162.5L201.8,162.5l-0.2-1.5l0.8,0.1l0.3,1.9l-0.3,0.8l-7.3-2.7l0.4-1L201.8,162.5z"/>
	<path class="st2" d="M196,170c-2.5-0.9-3.5-2.4-2.9-4c0.5-1.4,2.2-1.9,4.7-1c2.5,0.9,3.4,2.5,2.9,4
		C200.1,170.5,198.4,170.8,196,170z M197.4,166c-1.9-0.7-3.2-0.5-3.5,0.4c-0.4,1,0.6,1.9,2.5,2.6c1.8,0.7,3.2,0.6,3.5-0.4
		C200.2,167.7,199.4,166.7,197.4,166z"/>
	<path class="st2" d="M193.9,175.7c-2.5-0.9-3.5-2.4-2.9-4c0.5-1.4,2.2-1.9,4.7-1c2.5,0.9,3.4,2.5,2.9,4
		C197.9,176.2,196.2,176.6,193.9,175.7z M195.3,171.7c-1.9-0.7-3.2-0.5-3.5,0.4c-0.4,1,0.6,1.9,2.5,2.6c1.8,0.7,3.2,0.6,3.5-0.4
		C198.1,173.5,197.2,172.5,195.3,171.7z"/>
</g>
<polygon class="st0" points="91.4,25.7 84.1,42.7 99.6,42.7 "/>
<polyline class="st0" points="99.6,42.7 121.1,42.7 105.8,16.9 95.8,34.2 "/>
<polyline class="st0" points="101.9,23.6 105,27.9 107.1,23.6 111,25.7 "/>
<path class="st0" d="M75.1,11.1c-0.2,0-0.3,0-0.5,0c-0.6-1.4-1.9-2.4-3.5-2.4c-1.6,0-2.9,0.9-3.5,2.3c-1.5,0-2.7,1.2-2.7,2.7
	c0,1.5,1.2,2.7,2.7,2.7c0.6,0,1.1-0.2,1.6-0.5c0.6,0.3,1.2,0.5,1.9,0.5c0.8,0,1.6-0.3,2.2-0.7c0.5,0.4,1.1,0.7,1.8,0.7
	c1.5,0,2.7-1.2,2.7-2.7S76.6,11.1,75.1,11.1z"/>
<polygon class="st2" points="83.6,43.2 68.9,43.4 85.4,39.2 "/>
<line class="st0" x1="88.6" y1="32.7" x2="24.6" y2="32.7"/>
<line class="st0" x1="114.6" y1="31.7" x2="172.6" y2="31.7"/>
<line class="st3" x1="81.3" y1="95.5" x2="29.6" y2="12.2"/>
<line class="st3" x1="123.3" y1="95.5" x2="173.1" y2="8.7"/>
<g>
	<path class="st2" d="M29.6,103.1c-0.8-0.3-1.8-0.6-2.5-0.9l0,0c0.6,0.5,1.2,1,1.9,1.6l2.4,2.1l-0.2,0.6l-3.1-0.1
		c-0.9,0-1.8-0.1-2.5-0.2l0,0c0.7,0.3,1.7,0.7,2.5,1.1l2.4,1.1l-0.3,0.7l-5.6-2.7l0.4-1l3.2,0.1c0.8,0,1.5,0.1,2.2,0.2l0,0
		c-0.5-0.4-1.1-0.8-1.7-1.4l-2.4-2.1l0.4-1l5.9,1.9l-0.3,0.7L29.6,103.1z"/>
	<path class="st2" d="M32.3,97.4c1.5,0.6,1.8,1.9,1.4,2.9c-0.4,1.1-1.6,1.7-2.9,1.2c-1.4-0.5-1.9-1.8-1.4-2.9
		C29.9,97.4,31.1,97,32.3,97.4z M31.1,100.8c0.9,0.4,1.8,0.1,2.1-0.6c0.3-0.7-0.2-1.5-1.1-1.9C31.3,98,30.3,98,30,98.9
		C29.6,99.8,30.3,100.5,31.1,100.8z"/>
	<path class="st2" d="M30.1,91.3l5,2c0.4,0.1,0.8,0.3,1.1,0.4L36,94.4l-0.7-0.2l0,0c0.4,0.4,0.5,1.1,0.3,1.7c-0.4,1-1.5,1.5-2.8,1
		c-1.4-0.5-1.9-1.7-1.5-2.7c0.2-0.6,0.7-1,1.1-1l0,0l-2.5-1L30.1,91.3z M33.4,93.5c-0.1,0-0.2-0.1-0.3-0.1c-0.5-0.1-1.1,0.2-1.3,0.8
		C31.5,95,32,95.7,32.9,96c0.8,0.3,1.7,0.2,2-0.6c0.2-0.5,0-1.1-0.5-1.5c-0.1-0.1-0.2-0.1-0.3-0.2L33.4,93.5z"/>
	<path class="st2" d="M34.9,91.3c1,0.4,1.7-0.1,2-0.9c0.2-0.5,0.2-0.9,0.2-1.2l0.6,0.1c0,0.3,0,0.8-0.3,1.5C37,92,35.8,92.5,34.6,92
		c-1.3-0.5-2-1.6-1.5-2.8c0.5-1.4,1.9-1.3,2.6-1c0.2,0.1,0.3,0.1,0.3,0.2L34.9,91.3z M35.2,88.8c-0.5-0.2-1.3-0.3-1.6,0.6
		c-0.3,0.8,0.3,1.4,0.8,1.6L35.2,88.8z"/>
</g>
<polygon class="st0" points="5,163 7.4,161.7 7,164.4 8.9,166.3 6.2,166.7 5,169.2 3.8,166.7 1.1,166.3 3,164.4 2.6,161.7 "/>
</svg>
