<!-- Generator: Adobe Illustrator 19.2.1, SVG Export Plug-In  -->
<svg version="1.1"
	 xmlns="http://www.w3.org/2000/svg" xmlns:xlink="http://www.w3.org/1999/xlink" xmlns:a="http://ns.adobe.com/AdobeSVGViewerExtensions/3.0/"
	 x="0px" y="0px" width="180.9px" height="205.5px" viewBox="0 0 180.9 205.5" style="enable-background:new 0 0 180.9 205.5;"
	 xml:space="preserve">
<style type="text/css">
	.st0{fill:none;stroke:#8E8E8E;stroke-miterlimit:10;}
	.st1{fill:none;stroke:#8E8E8E;stroke-width:3;stroke-miterlimit:10;stroke-dasharray:1,3;}
	.st2{fill:#8E8E8E;}
	.st3{fill:none;stroke:#8E8E8E;stroke-miterlimit:10;stroke-dasharray:5;}
</style>
<defs>
</defs>
<path class="st0" d="M90.9,137.4h23.5c2.5,0,4.5,2,4.5,4.5V154c0,2.5-2,4.5-4.5,4.5h-14c-1.4,0-2.7-0.8-3.4-2.1l-3-5.8
	c-0.7-1.3-2-2.1-3.4-2.1H75.8c-1.4,0-2.7,0.8-3.4,2l-3.1,5.8c-0.7,1.2-2,2-3.4,2H46.4c-2.5,0-4.5-2-4.5-4.5v-12.1
	c0-2.5,2-4.5,4.5-4.5h28.9"/>
<path class="st0" d="M83.1,188.5H57.3c-2.5,0-4.5-2-4.5-4.5v-13.9c0-2.5,2-4.5,4.5-4.5h25.8c2.5,0,4.5,2,4.5,4.5V184
	C87.6,186.5,85.6,188.5,83.1,188.5z"/>
<path class="st0" d="M85.4,158.4h-5.8c-1,0-1.8-0.8-1.8-1.8v-3c0-1,0.8-1.8,1.8-1.8h5.8c1,0,1.8,0.8,1.8,1.8v3
	C87.2,157.6,86.4,158.4,85.4,158.4z"/>
<path class="st0" d="M41.9,154v35c0,4.2,3.4,7.5,7.5,7.5h61.9c4.2,0,7.5-3.4,7.5-7.5v-35"/>
<circle class="st0" cx="103.4" cy="177.3" r="7.3"/>
<path class="st0" d="M72.7,150l2.8-12.1c0.4-1.6,1.8-2.8,3.5-2.8h8.4c1.7,0,3.2,1.2,3.5,2.8l2.6,12"/>
<path class="st1" d="M161.9,189.5c8.1-18.8,10.1-40.2,4.8-61"/>
<g>
	<path class="st2" d="M163,106.8l-9.4,4.3l-0.5-1.2l9.4-4.3L163,106.8z"/>
	<path class="st2" d="M155.9,112.4c-0.1,0.7,0,1.6,0.4,2.5c0.6,1.2,1.5,1.7,2.5,1.2c0.9-0.4,1.2-1.1,1.1-2.6
		c-0.2-1.8,0.2-3.1,1.5-3.7c1.5-0.7,3.1,0.1,3.9,1.9c0.4,1,0.5,1.8,0.5,2.3l-1.1,0.1c0-0.4,0-1.1-0.4-2c-0.6-1.3-1.6-1.4-2.2-1.1
		c-0.9,0.4-1.1,1.2-1,2.7c0.1,1.9-0.3,3-1.7,3.7c-1.5,0.7-3.2,0.2-4.2-2.1c-0.4-0.9-0.6-2-0.5-2.7L155.9,112.4z"/>
	<path class="st2" d="M166.1,125.9c-3.2,1.5-5.8,0.3-6.9-2.1c-1.1-2.5,0-5.1,2.9-6.4c3-1.4,5.8-0.4,6.9,2.1
		C170.1,122.1,168.9,124.7,166.1,125.9z M162.6,118.7c-2,0.9-3.3,2.8-2.5,4.7c0.9,1.9,3.1,2.2,5.3,1.2c1.9-0.8,3.4-2.7,2.5-4.7
		C167,117.9,164.7,117.8,162.6,118.7z"/>
</g>
<g>
	<path class="st2" d="M180,179.8L180,179.8l-0.2-1.5l0.8,0.1l0.3,1.9l-0.3,0.8l-7.3-2.7l0.4-1L180,179.8z"/>
	<path class="st2" d="M174.2,187.3c-2.5-0.9-3.5-2.4-2.9-4c0.5-1.4,2.2-1.9,4.7-1c2.5,0.9,3.4,2.5,2.9,4
		C178.2,187.8,176.5,188.2,174.2,187.3z M175.5,183.3c-1.9-0.7-3.2-0.5-3.5,0.4c-0.4,1,0.6,1.9,2.5,2.6c1.8,0.7,3.2,0.6,3.5-0.4
		C178.3,185.1,177.5,184,175.5,183.3z"/>
	<path class="st2" d="M172,193.1c-2.5-0.9-3.5-2.4-2.9-4c0.5-1.4,2.2-1.9,4.7-1c2.5,0.9,3.4,2.5,2.9,4
		C176,193.6,174.4,194,172,193.1z M173.4,189.1c-1.9-0.7-3.2-0.5-3.5,0.4c-0.4,1,0.6,1.9,2.5,2.6c1.8,0.7,3.2,0.6,3.5-0.4
		C176.2,190.8,175.4,189.8,173.4,189.1z"/>
</g>
<path class="st0" d="M53.2,28.5c-0.2,0-0.3,0-0.5,0c-0.6-1.4-1.9-2.4-3.5-2.4c-1.6,0-2.9,0.9-3.5,2.3c-1.5,0-2.7,1.2-2.7,2.7
	c0,1.5,1.2,2.7,2.7,2.7c0.6,0,1.1-0.2,1.6-0.5c0.6,0.3,1.2,0.5,1.9,0.5c0.8,0,1.6-0.3,2.2-0.7c0.5,0.4,1.1,0.7,1.8,0.7
	c1.5,0,2.7-1.2,2.7-2.7C55.9,29.7,54.7,28.5,53.2,28.5z"/>
<line class="st3" x1="68.8" y1="128.5" x2="23.8" y2="62"/>
<line class="st3" x1="99.8" y1="129.2" x2="140.8" y2="63"/>
<path class="st0" d="M37.7,141.3l-0.4,53.2c0,5.8,4.7,10.5,10.5,10.5h66.9c5.8,0,10.5-4.7,10.5-10.5l-0.4-53
	c0-5.8-4.7-10.4-10.5-10.4c-16.7,0-49.3,0.1-66.1-0.2C42.5,130.8,37.7,135.5,37.7,141.3z"/>
<path class="st0" d="M0.1,57.2c11-2,10.7-5.3,20.3-6.3s12.7,8,20.7,7.7c8-0.3,11.7-8,20.3-8s9.7,7.7,21,7.3s8.7-6.7,20.3-6.7
	s7.7,6,18,5.3c10.3-0.7,14.3-6,20.7-6s14,8.3,19,7.7"/>
<g>
	<ellipse transform="matrix(0.2912 -0.9567 0.9567 0.2912 72.5375 125.937)" class="st0" cx="121.3" cy="14" rx="4.9" ry="4.9"/>
	<line class="st0" x1="123.4" y1="6.8" x2="125.5" y2="0.1"/>
	<line class="st0" x1="128.4" y1="10.2" x2="133.6" y2="7.4"/>
	<line class="st0" x1="128.4" y1="16.2" x2="135.1" y2="18.2"/>
	<line class="st0" x1="125.1" y1="21.1" x2="127.9" y2="26.4"/>
	<line class="st0" x1="119.1" y1="21.2" x2="117" y2="27.9"/>
	<line class="st0" x1="114.1" y1="17.8" x2="108.9" y2="20.6"/>
	<line class="st0" x1="114.1" y1="11.8" x2="107.4" y2="9.8"/>
	<line class="st0" x1="117.5" y1="6.9" x2="114.7" y2="1.7"/>
</g>
<path class="st0" d="M59.1,83.5c0,0,9.7-10,21.7,0.3C80.8,83.9,71.1,92.5,59.1,83.5z"/>
<polyline class="st0" points="54.8,80.5 59.1,83.5 54.1,86.9 "/>
<path class="st0" d="M116.8,69.3c0,0-7-7.2-15.7,0.2C101.1,69.6,108.1,75.8,116.8,69.3z"/>
<polyline class="st0" points="119.9,67.1 116.8,69.3 120.4,71.7 "/>
</svg>
