<!-- Generator: Adobe Illustrator 19.2.1, SVG Export Plug-In  -->
<svg version="1.1"
	 xmlns="http://www.w3.org/2000/svg" xmlns:xlink="http://www.w3.org/1999/xlink" xmlns:a="http://ns.adobe.com/AdobeSVGViewerExtensions/3.0/"
	 x="0px" y="0px" width="181.4px" height="168.3px" viewBox="0 0 181.4 168.3" style="enable-background:new 0 0 181.4 168.3;"
	 xml:space="preserve">
<style type="text/css">
	.st0{fill:none;stroke:#8E8E8E;stroke-miterlimit:10;}
	.st1{fill:#8E8E8E;}
	.st2{fill:none;stroke:#8E8E8E;stroke-miterlimit:10;stroke-dasharray:5;}
</style>
<defs>
</defs>
<path class="st0" d="M101.2,108.7h23.5c2.5,0,4.5,2,4.5,4.5v12.1c0,2.5-2,4.5-4.5,4.5h-14c-1.4,0-2.7-0.8-3.4-2.1l-3-5.8
	c-0.7-1.3-2-2.1-3.4-2.1H86.1c-1.4,0-2.7,0.8-3.4,2l-3.1,5.8c-0.7,1.2-2,2-3.4,2H56.7c-2.5,0-4.5-2-4.5-4.5v-12.1
	c0-2.5,2-4.5,4.5-4.5h28.9"/>
<path class="st0" d="M93.4,162.3H64.3c-2.5,0-4.5-2-4.5-4.5v-16.4c0-2.5,2-4.5,4.5-4.5h29.1c2.5,0,4.5,2,4.5,4.5v16.4
	C97.9,160.3,95.9,162.3,93.4,162.3z"/>
<path class="st0" d="M95.7,129.7h-5.8c-1,0-1.8-0.8-1.8-1.8v-3c0-1,0.8-1.8,1.8-1.8h5.8c1,0,1.8,0.8,1.8,1.8v3
	C97.5,128.9,96.7,129.7,95.7,129.7z"/>
<path class="st0" d="M52.2,125.3v35c0,4.2,3.4,7.5,7.5,7.5h61.9c4.2,0,7.5-3.4,7.5-7.5v-35"/>
<circle class="st0" cx="108.6" cy="141" r="4.4"/>
<circle class="st0" cx="119.8" cy="141" r="4.4"/>
<path class="st0" d="M83,121.3l2.8-12.1c0.4-1.6,1.8-2.8,3.5-2.8h8.4c1.7,0,3.2,1.2,3.5,2.8l2.6,12"/>
<g>
	<path class="st0" d="M111.8,39.8c0.1-2.7,2.4-4.8,5-4.7c2.7,0.1,4.8,2.4,4.7,5"/>
	<line class="st0" x1="118.8" y1="33.3" x2="121.5" y2="26.8"/>
	<line class="st0" x1="123.4" y1="37.1" x2="128.9" y2="34.8"/>
	<line class="st0" x1="109" y1="37.3" x2="102.6" y2="34.6"/>
	<line class="st0" x1="112.9" y1="32.7" x2="110.6" y2="27.2"/>
</g>
<polygon class="st0" points="67.9,34.3 60.5,51.3 76,51.3 "/>
<polyline class="st0" points="76,51.3 97.5,51.3 82.2,25.5 72.2,42.8 "/>
<polyline class="st0" points="78.3,32.2 81.5,36.6 83.5,32.2 87.5,34.3 "/>
<path class="st0" d="M51.5,19.8c-0.2,0-0.3,0-0.5,0c-0.6-1.4-1.9-2.4-3.5-2.4c-1.6,0-2.9,0.9-3.5,2.3c-1.5,0-2.7,1.2-2.7,2.7
	c0,1.5,1.2,2.7,2.7,2.7c0.6,0,1.1-0.2,1.6-0.5c0.6,0.3,1.2,0.5,1.9,0.5c0.8,0,1.6-0.3,2.2-0.7c0.5,0.4,1.1,0.7,1.8,0.7
	c1.5,0,2.7-1.2,2.7-2.7S53,19.8,51.5,19.8z"/>
<polygon class="st1" points="60,51.8 45.3,52.1 61.8,47.8 "/>
<line class="st0" x1="65" y1="41.3" x2="1" y2="41.3"/>
<line class="st0" x1="91" y1="40.3" x2="179" y2="40.3"/>
<line class="st0" x1="117" y1="141.3" x2="122" y2="141.3"/>
<line class="st0" x1="106" y1="141.3" x2="111" y2="141.3"/>
<line class="st0" x1="108.5" y1="138.8" x2="108.5" y2="143.8"/>
<line class="st2" x1="73.5" y1="90.7" x2="0.4" y2="4.1"/>
<line class="st2" x1="111" y1="88.7" x2="181" y2="0.3"/>
<rect x="143.8" y="106.6" class="st0" width="25.5" height="32.2"/>
<rect x="145.8" y="104.6" class="st0" width="25.5" height="32.2"/>
<rect x="14.3" y="137.8" class="st0" width="19" height="24"/>
<rect x="15.8" y="136.3" class="st0" width="19" height="24"/>
<polyline class="st0" points="75.5,108.8 75.5,91.3 106.5,91.3 106.5,108.8 "/>
<polyline class="st0" points="77.5,106.8 77.5,89.3 108.5,89.3 108.5,106.8 "/>
</svg>
