<!-- Generator: Adobe Illustrator 19.2.1, SVG Export Plug-In  -->
<svg version="1.1"
	 xmlns="http://www.w3.org/2000/svg" xmlns:xlink="http://www.w3.org/1999/xlink" xmlns:a="http://ns.adobe.com/AdobeSVGViewerExtensions/3.0/"
	 x="0px" y="0px" width="166.5px" height="226.6px" viewBox="0 0 166.5 226.6" style="enable-background:new 0 0 166.5 226.6;"
	 xml:space="preserve">
<defs>
</defs>
<g id="g8497-6-8_1_" transform="matrix(0.99553774,0,0,0.99680134,-224.16988,79.60164)">
	<path id="path7086-8-0_1_" d="M267.4-64.8
		C260-54.2,252.1-48.2,252-40c0,2.7,1.4,7.2,5.9,8c2.9,0.6,6.9-1.8,7-6.6c0-1,1-0.9,1,0.4c-0.1,3.8-1.3,8.2-3.4,11.8
		c3.2,0,6.4,0,9.7,0c-2-3.6-3.2-8-3.4-11.8c0-1.3,1-1.3,1-0.4c0.1,4.8,4.1,7.2,7,6.6c4.5-0.9,5.9-5.4,5.9-8
		C282.7-48.2,274.8-54.2,267.4-64.8z"/>
	<path id="path7088-9-3_1_" d="M233.3-50.9
		c-3.4,4.4-7.1,6.9-7.2,10.3c0,1.1,0.7,3,2.8,3.4c1.4,0.2,3.2-0.8,3.3-2.8c0-0.4,0.5-0.4,0.5,0.2c-0.1,1.6-0.6,3.4-1.6,4.9
		c1.5,0,3,0,4.5,0c-0.9-1.5-1.5-3.3-1.6-4.9c0-0.5,0.5-0.6,0.5-0.2c0,2,1.9,3,3.3,2.8c2.1-0.4,2.8-2.2,2.8-3.4
		C240.4-44,236.7-46.6,233.3-50.9L233.3-50.9z"/>
	<path id="path7092-7-0_1_" d="M384.3,118.5
		c-3.4-4.4-7.1-6.9-7.2-10.3c0-1.1,0.7-3,2.8-3.4c1.4-0.2,3.2,0.8,3.3,2.8c0,0.4,0.5,0.4,0.5-0.2c-0.1-1.6-0.6-3.4-1.6-4.9
		c1.5,0,3,0,4.5,0c-0.9,1.5-1.5,3.3-1.6,4.9c0,0.5,0.5,0.6,0.5,0.2c0-2,1.9-3,3.3-2.8c2.1,0.4,2.8,2.2,2.8,3.4
		C391.5,111.6,387.8,114.2,384.3,118.5L384.3,118.5z"/>
	<path id="path7094-3-5_1_" d="M350.2-64.8
		c-7.4,10.5-15.3,16.6-15.4,24.8c0,2.7,1.4,7.2,5.9,8c2.9,0.6,6.9-1.8,7-6.6c0-1,1-0.9,1,0.4c-0.1,3.8-1.3,8.2-3.4,11.8
		c3.2,0,6.4,0,9.7,0c-2-3.6-3.2-8-3.4-11.8c0-1.3,1-1.3,1-0.4c0.1,4.8,4.1,7.2,7,6.6c4.5-0.9,5.9-5.4,5.9-8
		C365.5-48.2,357.6-54.2,350.2-64.8z"/>
	<path id="path7098-7-3_1_" d="M308.8-25.1
		c-7.4,10.5-15.3,16.6-15.4,24.8c0,2.7,1.4,7.2,5.9,8c2.9,0.6,6.9-1.8,7-6.6c0-1,1-0.9,1,0.4c-0.1,3.8-1.3,8.2-3.4,11.8
		c3.2,0,6.4,0,9.7,0c-2-3.6-3.2-8-3.4-11.8c0-1.3,1-1.3,1-0.4c0.1,4.8,4.1,7.2,7,6.6c4.5-0.9,5.9-5.4,5.9-8
		C324.1-8.5,316.2-14.6,308.8-25.1z"/>
	<path id="path7105-0-7_1_" d="M267.4,14.6
		C260,25.1,252.1,31.2,252,39.4c0,2.7,1.4,7.2,5.9,8c2.9,0.6,6.9-1.8,7-6.6c0-1,1-0.9,1,0.4c-0.1,3.8-1.3,8.2-3.4,11.8
		c3.2,0,6.4,0,9.7,0c-2-3.6-3.2-8-3.4-11.8c0-1.3,1-1.3,1-0.4c0.1,4.8,4.1,7.2,7,6.6c4.5-0.9,5.9-5.4,5.9-8
		C282.7,31.2,274.8,25.1,267.4,14.6z"/>
	<path id="path7107-6-3_1_" d="M267.4,132.4
		c-7.4-10.5-15.3-16.6-15.4-24.8c0-2.7,1.4-7.2,5.9-8c2.9-0.6,6.9,1.8,7,6.6c0,1,1,0.9,1-0.4c-0.1-3.8-1.3-8.2-3.4-11.8
		c3.2,0,6.4,0,9.7,0c-2,3.6-3.2,8-3.4,11.8c0,1.3,1,1.3,1,0.4c0.1-4.8,4.1-7.2,7-6.6c4.5,0.9,5.9,5.4,5.9,8
		C282.7,115.8,274.8,121.8,267.4,132.4L267.4,132.4z"/>
	<path id="path7109-5-0_1_" d="M350.2,132.4
		c-7.4-10.5-15.3-16.6-15.4-24.8c0-2.7,1.4-7.2,5.9-8c2.9-0.6,6.9,1.8,7,6.6c0,1,1,0.9,1-0.4c-0.1-3.8-1.3-8.2-3.4-11.8
		c3.2,0,6.4,0,9.7,0c-2,3.6-3.2,8-3.4,11.8c0,1.3,1,1.3,1,0.4c0.1-4.8,4.1-7.2,7-6.6c4.5,0.9,5.9,5.4,5.9,8
		C365.5,115.8,357.6,121.8,350.2,132.4L350.2,132.4z"/>
	<path id="path7119-1-9_1_" d="M350.2,14.6
		c-7.4,10.5-15.3,16.6-15.4,24.8c0,2.7,1.4,7.2,5.9,8c2.9,0.6,6.9-1.8,7-6.6c0-1,1-0.9,1,0.4c-0.1,3.8-1.3,8.2-3.4,11.8
		c3.2,0,6.4,0,9.7,0c-2-3.6-3.2-8-3.4-11.8c0-1.3,1-1.3,1-0.4c0.1,4.8,4.1,7.2,7,6.6c4.5-0.9,5.9-5.4,5.9-8
		C365.5,31.2,357.6,25.1,350.2,14.6z"/>
	<path id="path25-4-6-4_1_" d="M229.2-53.5c1.7-9.2,3.6-16.1,8.4-23.5h-9.9v3.2h-2.6v-6.1h14.4
		l1.8,2.8c-5.2,5.6-9.9,23.8-9,23.5H229.2L229.2-53.5z"/>
	<path id="path25-4-1-9-1_1_" d="M388.4,121.1c-1.7,9.2-3.6,16.1-8.4,23.5h9.9v-3.2h2.6v6.1H378
		l-1.8-2.8c5.2-5.6,9.9-23.8,9-23.5H388.4z"/>
</g>
</svg>
