<!-- Generator: Adobe Illustrator 19.2.1, SVG Export Plug-In  -->
<svg version="1.1"
	 xmlns="http://www.w3.org/2000/svg" xmlns:xlink="http://www.w3.org/1999/xlink" xmlns:a="http://ns.adobe.com/AdobeSVGViewerExtensions/3.0/"
	 x="0px" y="0px" width="167.4px" height="226.6px" viewBox="0 0 167.4 226.6" style="enable-background:new 0 0 167.4 226.6;"
	 xml:space="preserve">
<defs>
</defs>
<g id="g8511-1-4_1_" transform="matrix(0.99553774,0,0,0.99680134,-284.59654,79.60164)">
	<path id="path7155-4-0_1_" d="M328.6-64.8
		c-7.4,10.5-15.3,16.6-15.4,24.8c0,2.7,1.4,7.2,5.9,8c2.9,0.6,6.9-1.8,7-6.6c0-1,1-0.9,1,0.4c-0.1,3.8-1.3,8.2-3.4,11.8
		c3.2,0,6.4,0,9.7,0c-2-3.6-3.2-8-3.4-11.8c0-1.3,1-1.3,1-0.4c0.1,4.8,4.1,7.2,7,6.6c4.5-0.9,5.9-5.4,5.9-8
		C343.8-48.2,335.9-54.2,328.6-64.8z"/>
	<path id="path7157-2-9_1_" d="M294.5-50.9
		c-3.4,4.4-7.1,6.9-7.2,10.3c0,1.1,0.7,3,2.8,3.4c1.4,0.2,3.2-0.8,3.3-2.8c0-0.4,0.5-0.4,0.5,0.2c-0.1,1.6-0.6,3.4-1.6,4.9
		c1.5,0,3,0,4.5,0c-0.9-1.5-1.5-3.3-1.6-4.9c0-0.5,0.5-0.6,0.5-0.2c0,2,1.9,3,3.3,2.8c2.1-0.4,2.8-2.2,2.8-3.4
		C301.6-44,297.9-46.6,294.5-50.9L294.5-50.9z"/>
	<path id="path7162-7-0_1_" d="M445.5,118.5
		c-3.4-4.4-7.1-6.9-7.2-10.3c0-1.1,0.7-3,2.8-3.4c1.4-0.2,3.2,0.8,3.3,2.8c0,0.4,0.5,0.4,0.5-0.2c-0.1-1.6-0.6-3.4-1.6-4.9
		c1.5,0,3,0,4.5,0c-0.9,1.5-1.5,3.3-1.6,4.9c0,0.5,0.5,0.6,0.5,0.2c0-2,1.9-3,3.3-2.8c2.1,0.4,2.8,2.2,2.8,3.4
		C452.6,111.6,448.9,114.2,445.5,118.5L445.5,118.5z"/>
	<path id="path7164-8-3_1_" d="M411.4-64.8
		C404-54.2,396.1-48.2,396-40c0,2.7,1.4,7.2,5.9,8c2.9,0.6,6.9-1.8,7-6.6c0-1,1-0.9,1,0.4c-0.1,3.8-1.3,8.2-3.4,11.8
		c3.2,0,6.4,0,9.7,0c-2-3.6-3.2-8-3.4-11.8c0-1.3,1-1.3,1-0.4c0.1,4.8,4.1,7.2,7,6.6c4.5-0.9,5.9-5.4,5.9-8
		C426.7-48.2,418.8-54.2,411.4-64.8z"/>
	<path id="path7168-3-2_1_" d="M370-25.1
		c-7.4,10.5-15.3,16.6-15.4,24.8c0,2.7,1.4,7.2,5.9,8c2.9,0.6,6.9-1.8,7-6.6c0-1,1-0.9,1,0.4c-0.1,3.8-1.3,8.2-3.4,11.8
		c3.2,0,6.4,0,9.7,0c-2-3.6-3.2-8-3.4-11.8c0-1.3,1-1.3,1-0.4c0.1,4.8,4.1,7.2,7,6.6c4.5-0.9,5.9-5.4,5.9-8
		C385.2-8.5,377.4-14.6,370-25.1z"/>
	<path id="path7174-5-0_1_" d="M328.6,14.6
		c-7.4,10.5-15.3,16.6-15.4,24.8c0,2.7,1.4,7.2,5.9,8c2.9,0.6,6.9-1.8,7-6.6c0-1,1-0.9,1,0.4c-0.1,3.8-1.3,8.2-3.4,11.8
		c3.2,0,6.4,0,9.7,0c-2-3.6-3.2-8-3.4-11.8c0-1.3,1-1.3,1-0.4c0.1,4.8,4.1,7.2,7,6.6c4.5-0.9,5.9-5.4,5.9-8
		C343.8,31.2,335.9,25.1,328.6,14.6z"/>
	<path id="path7176-7-0_1_" d="M328.6,132.4
		c-7.4-10.5-15.3-16.6-15.4-24.8c0-2.7,1.4-7.2,5.9-8c2.9-0.6,6.9,1.8,7,6.6c0,1,1,0.9,1-0.4c-0.1-3.8-1.3-8.2-3.4-11.8
		c3.2,0,6.4,0,9.7,0c-2,3.6-3.2,8-3.4,11.8c0,1.3,1,1.3,1,0.4c0.1-4.8,4.1-7.2,7-6.6c4.5,0.9,5.9,5.4,5.9,8
		C343.8,115.8,335.9,121.8,328.6,132.4L328.6,132.4z"/>
	<path id="path7178-9-4_1_" d="M411.4,132.4
		c-7.4-10.5-15.3-16.6-15.4-24.8c0-2.7,1.4-7.2,5.9-8c2.9-0.6,6.9,1.8,7,6.6c0,1,1,0.9,1-0.4c-0.1-3.8-1.3-8.2-3.4-11.8
		c3.2,0,6.4,0,9.7,0c-2,3.6-3.2,8-3.4,11.8c0,1.3,1,1.3,1,0.4c0.1-4.8,4.1-7.2,7-6.6c4.5,0.9,5.9,5.4,5.9,8
		C426.7,115.8,418.8,121.8,411.4,132.4L411.4,132.4z"/>
	<path id="path7180-5-1_1_" d="M370,92.7
		c-7.4-10.5-15.3-16.6-15.4-24.8c0-2.7,1.4-7.2,5.9-8c2.9-0.6,6.9,1.8,7,6.6c0,1,1,0.9,1-0.4c-0.1-3.8-1.3-8.2-3.4-11.8
		c3.2,0,6.4,0,9.7,0c-2,3.6-3.2,8-3.4,11.8c0,1.3,1,1.3,1,0.4c0.1-4.8,4.1-7.2,7-6.6c4.5,0.9,5.9,5.4,5.9,8
		C385.2,76.1,377.4,82.2,370,92.7z"/>
	<path id="path7189-7-7_1_" d="M411.4,14.6
		C404,25.1,396.1,31.2,396,39.4c0,2.7,1.4,7.2,5.9,8c2.9,0.6,6.9-1.8,7-6.6c0-1,1-0.9,1,0.4c-0.1,3.8-1.3,8.2-3.4,11.8
		c3.2,0,6.4,0,9.7,0c-2-3.6-3.2-8-3.4-11.8c0-1.3,1-1.3,1-0.4c0.1,4.8,4.1,7.2,7,6.6c4.5-0.9,5.9-5.4,5.9-8
		C426.7,31.2,418.8,25.1,411.4,14.6z"/>
	<path id="path27-43-30-7_1_" d="M285.9-61.2c0.1-3.5,1.4-4.9,3.9-6.7c-2-1.5-2.9-3.6-2.7-5.4
		c0.4-4.4,3.8-6.6,7.5-6.5c3.7,0.1,6.9,3,7.2,6.3c0.2,2.8-0.6,4.1-2.6,5.6c2.3,2,3.8,3.3,3.8,6.8c-0.1,3.5-3,7.6-8.2,7.8
		C289.7-53.3,285.7-57.6,285.9-61.2L285.9-61.2L285.9-61.2z M300.3-61.2c0.2-3.2-2.6-5.4-5.8-5.4c-3.1,0-5.9,2.6-5.9,5.5
		c0,3.1,3.6,4.8,6,4.8C297.4-56.3,300.1-58.4,300.3-61.2L300.3-61.2z M299.3-72.7c0.1-2.7-2.4-4.6-5-4.6c-2.3,0.1-4.7,1.8-4.7,4.1
		c0,2.8,2.8,4.2,5.1,4.3C296.8-68.8,299.3-70.6,299.3-72.7L299.3-72.7L299.3-72.7z"/>
	<path id="path27-43-3-4-8_1_" d="M436.9,128.8c0.1,3.5,1.4,4.9,3.9,6.7c-2,1.5-2.9,3.6-2.7,5.4
		c0.4,4.4,3.8,6.6,7.5,6.5c3.7-0.1,6.9-3,7.2-6.3c0.2-2.8-0.6-4.1-2.6-5.6c2.3-2,3.8-3.3,3.8-6.8c-0.1-3.5-3-7.6-8.2-7.8
		C440.7,120.9,436.8,125.2,436.9,128.8L436.9,128.8L436.9,128.8z M451.4,128.8c0.2,3.2-2.6,5.4-5.8,5.4c-3.1,0-5.9-2.6-5.9-5.5
		c0-3.1,3.6-4.8,6-4.8C448.5,123.9,451.2,126,451.4,128.8L451.4,128.8z M450.3,140.3c0.1,2.7-2.4,4.6-5,4.6
		c-2.3-0.1-4.7-1.8-4.7-4.1c0-2.8,2.8-4.2,5.1-4.3C447.9,136.4,450.3,138.2,450.3,140.3L450.3,140.3L450.3,140.3z"/>
</g>
</svg>
