<!-- Generator: Adobe Illustrator 19.2.1, SVG Export Plug-In  -->
<svg version="1.1"
	 xmlns="http://www.w3.org/2000/svg" xmlns:xlink="http://www.w3.org/1999/xlink" xmlns:a="http://ns.adobe.com/AdobeSVGViewerExtensions/3.0/"
	 x="0px" y="0px" width="16px" height="44.8px" viewBox="0 0 16 44.8" style="enable-background:new 0 0 16 44.8;"
	 xml:space="preserve">
<defs>
</defs>
<path id="path41-6-3-5-1_2_" d="M0,26.4v-2.3h2.1L6.7,0h2.6l5,24.1H16v2.3h-5.8v-2.3h1.6l-0.6-3.7h-6l-0.5,3.7h1.6v2.3H0z
	 M10.6,17.8L8.1,4.9L5.7,17.8H10.6z"/>
<path id="path147-6-9-8-7-4-5-6-8-9_2_" d="M8.1,28.9C5,29,3.6,32.6,5.9,35.5c0.3,0.4,0.4,0.7-0.2,0.3C4,34.6,1,35.3,0.9,38.7
	c-0.2,4.1,5.3,5.3,6.3,0.9c0.1-0.5,0.4-0.4,0.3,0.2c-0.1,1.8-0.6,3.4-1.4,5c1.2,0,2.5,0,3.7,0c-0.7-1.6-1.3-3.3-1.4-5
	c-0.1-0.7,0.3-0.7,0.3-0.2c1,4.4,6.5,3.2,6.3-0.9c-0.2-3.3-3.1-4-4.7-2.9c-0.6,0.4-0.6,0.2-0.2-0.3C12.6,32.6,11.2,28.9,8.1,28.9
	L8.1,28.9L8.1,28.9z"/>
</svg>
