<svg xmlns="http://www.w3.org/2000/svg" width="15.9" height="44.8" viewBox="0 0 15.9 44.8"><path d="M8 28.9c-3.1.1-4.5 3.7-2.2 6.6.3.4.4.7-.2.3C4 34.7 1 35.4.9 38.7c-.2 4.1 5.3 5.3 6.3.9.1-.5.4-.4.3.2-.1 1.8-.6 3.4-1.4 5h3.7c-.7-1.6-1.3-3.3-1.4-5-.1-.7.3-.7.3-.2 1 4.4 6.5 3.2 6.3-.9-.2-3.3-3.1-4-4.7-2.9-.6.4-.6.2-.2-.3 2.4-2.9 1-6.6-2.1-6.6z"/><path d="M0 26.4V0h2.5v26.3H0v.1z"/><path d="M10.1 0C7.6 0 5.7 2.2 5.7 5v16.3c0 2.8 2 5 4.4 5h1.4c2.5 0 4.4-2.2 4.4-5V5.1c0-2.8-2-5-4.4-5h-1.4V0zm.7 2.5c1.4 0 2.6 1.1 2.6 2.5v16.5c0 1.4-1.2 2.5-2.6 2.5s-2.6-1.1-2.6-2.5V5c0-1.4 1.2-2.5 2.6-2.5z"/></svg>