<svg xmlns="http://www.w3.org/2000/svg" width="16" height="44.9" viewBox="0 0 16 44.9"><path d="M8 28.8c-3.1.1-4.6 3.8-2.2 6.6.3.4.4.7-.2.3-1.6-1.1-4.6-.4-4.7 3-.2 4.1 5.3 5.3 6.4.9.1-.5.4-.5.3.2-.1 1.8-.6 3.4-1.4 5.1h3.7c-.7-1.6-1.3-3.3-1.4-5.1-.1-.7.3-.7.3-.2 1 4.4 6.5 3.2 6.4-.9-.2-3.3-3.2-4-4.7-3-.6.4-.6.2-.2-.3 2.3-2.9.9-6.5-2.3-6.6z"/><path d="M7.9 0v2.8h2.7s.1 2.7.1 8.3c0 5.5.1 8.2-.2 9.8-.9 3.6-6.2 3.6-7.2 1-.6-1.5-.4-2.7-.5-4.2H0v1.7c0 4 1.4 6 4.5 6.8 3.2.9 7-.5 8.3-3.2.8-1.6.7-1.7.7-11.2 0-6.3.1-9 .1-9H16V0H7.9z"/></svg>