<!-- Generator: Adobe Illustrator 19.2.1, SVG Export Plug-In  -->
<svg version="1.1"
	 xmlns="http://www.w3.org/2000/svg" xmlns:xlink="http://www.w3.org/1999/xlink" xmlns:a="http://ns.adobe.com/AdobeSVGViewerExtensions/3.0/"
	 x="0px" y="0px" width="16px" height="44.9px" viewBox="0 0 16 44.9" style="enable-background:new 0 0 16 44.9;"
	 xml:space="preserve">
<defs>
</defs>
<path id="path147-6-9-8-7-4-5-62-3-3-7_2_" d="M8,28.8c-3.1,0.1-4.6,3.8-2.2,6.6c0.3,0.4,0.4,0.7-0.2,0.3c-1.6-1.1-4.6-0.4-4.7,3
	c-0.2,4.1,5.3,5.3,6.4,0.9c0.1-0.5,0.4-0.5,0.3,0.2c-0.1,1.8-0.6,3.4-1.4,5.1c1.2,0,2.5,0,3.7,0c-0.7-1.6-1.3-3.3-1.4-5.1
	c-0.1-0.7,0.3-0.7,0.3-0.2c1,4.4,6.5,3.2,6.4-0.9c-0.2-3.3-3.2-4-4.7-3c-0.6,0.4-0.6,0.2-0.2-0.3C12.6,32.5,11.2,28.9,8,28.8L8,28.8
	L8,28.8z"/>
<path id="path35-5-6-2_2_" d="M7.9,0v2.8h2.7c0,0,0.1,2.7,0.1,8.3c0,5.5,0.1,8.2-0.2,9.8c-0.9,3.6-6.2,3.6-7.2,1
	c-0.6-1.5-0.4-2.7-0.5-4.2H0c0,0,0,0.8,0,1.7c0,4,1.4,6,4.5,6.8c3.2,0.9,7-0.5,8.3-3.2c0.8-1.6,0.7-1.7,0.7-11.2c0-6.3,0.1-9,0.1-9
	H16V0H7.9L7.9,0z"/>
</svg>
