<svg xmlns="http://www.w3.org/2000/svg" width="15.9" height="44.8" viewBox="0 0 15.9 44.8"><path d="M8 28.9c-3.1.1-4.5 3.7-2.2 6.6.3.4.4.7-.2.3C4 34.7 1 35.4.9 38.7c-.2 4.1 5.3 5.3 6.3.9.1-.5.4-.4.3.2-.1 1.8-.6 3.4-1.4 5h3.7c-.7-1.6-1.3-3.3-1.4-5-.1-.7.3-.7.3-.2 1 4.4 6.5 3.2 6.3-.9-.2-3.3-3.1-4-4.7-2.9-.6.4-.6.2-.2-.3 2.4-2.9 1-6.6-2.1-6.6z"/><path d="M2.2 17.7H0v-3h2.2s0-1.6.1-4.5c.1-6.1.3-7 2-8.7 3.5-3.3 9.3-.6 9.2 4.4-.1 7 0 13.7-.2 14.6-.4 1.7-.4 1.8-.3 2.1.3.6 2.9.9 2.9.7v3c-2 .2-2.8 0-4.4-1.2-1 1-4 1.9-6.5.8-1.8-.9-3.2-3.2-2.8-8.2zm7.4 5.2c-1.1-1.6-2.9-3.7-4.6-4.5-.1 1.8 0 3.3.7 4.1.9 1.3 2.6 1.6 3.9.4zm.9-17.3C9.7 3.3 7.6 2.5 6.1 4 5.2 4.9 5 5.8 5 10.9v4.5c3 1 5.7 4.4 5.7 4.4l.1-9.5c0-1.7-.1-3.2-.3-4.7z"/></svg>