<svg xmlns="http://www.w3.org/2000/svg" width="15.1" height="44.8" viewBox="0 0 15.1 44.8"><style type="text/css">.st0{fill:#D40000;}</style><path id="path6518-2_2_" class="st0" d="M7.4 44.8c-1.7-2.9-3.5-5.6-5.8-8 2.3-2.4 4.1-5.1 5.8-8 1.7 2.9 3.5 5.6 5.8 8-2.2 2.3-4 5.1-5.8 8z"/><path id="path15-34-1-4-2_2_" class="st0" d="M0 26.2l.1-1.6c.4-5 1.5-6.7 7.6-12 3-2.5 4-3.8 4.1-5.3C12.1 4 9 2.9 7.1 2.9 4.5 2.9 1.6 4.4 3 8.1L.2 9c-.6-3.4 0-6.6 2.7-8C6.6-.9 11.2-.1 13.5 2.8c1.6 1.9 1.9 4.6 1.1 6.7-2.4 5.4-10.8 7.7-11.4 14h9.2V20h2.7v6.4L0 26.2z"/></svg>