<svg xmlns="http://www.w3.org/2000/svg" width="17" height="44.8" viewBox="0 0 17 44.8"><style type="text/css">.st0{fill:#D40000;}</style><path id="path6586-2_2_" class="st0" d="M8.5 44.8c-1.7-2.9-3.5-5.6-5.8-8 2.3-2.4 4.1-5.1 5.8-8 1.7 2.9 3.5 5.6 5.8 8-2.2 2.3-4.1 5.1-5.8 8z"/><path id="path17-2-9-4-8_2_" class="st0" d="M0 20.6l2-1.5c1.8 2.9 3.7 4.8 6.8 4.4 4.5-.3 6.4-5.1 5.5-8.6-.9-3.2-4.7-4.8-7.6-3.1-.7.4-1.4.7-1.5.7-.3 0-1-1.4-.9-1.8 2-2.9 6.9-8 6.9-8H3.5v3.4H.6V0h14.6v2.1s-4 4.1-5.3 6.4c3.2.1 5.9 2.1 6.8 5.3.5 1.7.3 5.6-.4 7.3-1.2 2.8-4.5 5.1-7.5 5.2-4.9.3-7.5-3.1-8.8-5.7z"/></svg>