<svg xmlns="http://www.w3.org/2000/svg" width="16.5" height="44.8" viewBox="0 0 16.5 44.8"><style type="text/css">.st0{fill:#D40000;}</style><path id="path6722-9_2_" class="st0" d="M8.3 44.8c-1.7-2.9-3.5-5.6-5.8-8 2.3-2.4 4.1-5.1 5.8-8 1.7 2.9 3.5 5.6 5.8 8-2.3 2.3-4.1 5.1-5.8 8z"/><path id="path21-9-8-2-7_2_" class="st0" d="M0 19.5h2.6c.5 1.6 1.6 3.2 3.1 3.7 4.2 1 6.9-1.4 7.8-4.1 1.1-3.3 0-8-2.9-9.7C8.2 8 4.7 9.2 3 12.1L1.2 11l1-11h11.6v2.6H4.3l-.2 4.6c2.1-1.5 5.2-1.5 7.3-.4 3.9 1.9 5.7 6.2 5 11.3-1.1 5.1-3.4 7.9-8.6 8.3C2 26.3 0 22.3 0 19.5z"/></svg>