<svg xmlns="http://www.w3.org/2000/svg" width="16.1" height="45" viewBox="0 0 16.1 45"><style type="text/css">.st0{fill:#D40000;}</style><path id="path6790-5_2_" class="st0" d="M8 45c-1.7-2.9-3.5-5.6-5.8-8 2.3-2.4 4.1-5.1 5.8-8 1.7 2.9 3.5 5.6 5.8 8-2.3 2.3-4.1 5.1-5.8 8z"/><path id="path23-5-3-5-5_2_" class="st0" d="M.2 18.4c-.3-2.2-.3-8-.1-9.7C.9 3.5 2.9 1.1 6.2.3 9.4-.5 14 .4 15 4.7l-2.7.1C10.9 2 7.2 2.7 5.2 4 3.5 5 2.8 9.3 3.1 9.5c0 0 3.1-2.3 5.6-2.2 5.3.6 7.5 5.1 7.3 9.5-.2 5.2-1.8 9.4-7.4 9.7-5.4-.1-7.8-3.1-8.4-8.1zm13.1-1.3c0-3.6-1.6-6.3-4.7-6.6s-6.2 2.7-6 6.4c.2 3.7 1.7 6.8 5.4 6.8 4 0 5.3-4.1 5.3-6.6z"/></svg>