<svg xmlns="http://www.w3.org/2000/svg" width="15" height="44.8" viewBox="0 0 15 44.8"><path d="M7.9 28.9c-3.1.1-4.5 3.7-2.2 6.6.3.4.4.7-.2.3-1.6-1.1-4.6-.4-4.7 2.9-.2 4.1 5.3 5.3 6.3.9.1-.5.4-.4.3.2-.1 1.8-.6 3.4-1.4 5h3.7c-.7-1.6-1.3-3.3-1.4-5-.1-.7.3-.7.3-.2 1 4.4 6.5 3.2 6.3-.9-.2-3.3-3.1-4-4.7-2.9-.6.4-.6.2-.2-.3 2.4-2.9 1-6.6-2.1-6.6z"/><path d="M0 26.3l.1-1.6c.4-5 1.5-6.7 7.6-11.9 3-2.5 3.9-3.8 4.1-5.2.4-3.4-2.6-4.5-4.6-4.5-2.6 0-5.4 1.5-4.1 5.2l-2.9.9C-.3 5.6.3 2.5 3 1.1 6.5-.8 11.1-.1 13.5 2.8c1.6 1.9 1.9 4.6 1.1 6.7-2.5 5.4-10.8 7.8-11.5 14h9.2V20H15v6.4l-15-.1z"/></svg>