<!-- Generator: Adobe Illustrator 19.2.1, SVG Export Plug-In  -->
<svg version="1.1"
	 xmlns="http://www.w3.org/2000/svg" xmlns:xlink="http://www.w3.org/1999/xlink" xmlns:a="http://ns.adobe.com/AdobeSVGViewerExtensions/3.0/"
	 x="0px" y="0px" width="15.2px" height="44.8px" viewBox="0 0 15.2 44.8" style="enable-background:new 0 0 15.2 44.8;"
	 xml:space="preserve">
<style type="text/css">
	.st0{fill:#D40000;}
</style>
<defs>
</defs>
<path id="path6994-9_2_" class="st0" d="M7.6,44.8c-1.7-2.9-3.5-5.6-5.8-8c2.3-2.4,4.1-5.1,5.8-8c1.7,2.9,3.5,5.6,5.8,8
	C11.1,39.1,9.3,41.9,7.6,44.8z"/>
<path id="path29-5-3-7-8_2_" class="st0" d="M0.3,21.3l2.4-0.8c0.9,2.4,2.8,3.2,4.7,3c3.5-0.3,4.7-4.2,4.9-7.6
	c-1.4,1.4-3.4,2.2-5.2,2.1c-5.6-0.3-7-4.8-7.1-9.4c-0.2-3.9,1.5-6.8,4.3-8.1c1.6-0.7,5-0.7,6.5,0.1c3.3,1.8,4.6,4.9,4.3,12.3
	c0,6.1-1.3,13.2-7.9,13.4C3.5,26.7,0.7,23.9,0.3,21.3L0.3,21.3L0.3,21.3z M9.7,14.6c1.1-0.7,1.8-1.4,2.3-2.4c0.4-0.8,0.6-1.3,0.4-3
	c-0.3-4.4-2.6-6.9-6-6.4C4.5,3.1,3.5,4.1,2.9,6.1c-1.1,3.6,0.3,7.8,2.9,8.8C7,15.3,8.8,15.2,9.7,14.6L9.7,14.6L9.7,14.6z"/>
</svg>
