<svg xmlns="http://www.w3.org/2000/svg" width="15.9" height="44.8" viewBox="0 0 15.9 44.8"><style type="text/css">.st0{fill:#D40000;}</style><path id="path7062-5_2_" class="st0" d="M8 44.8c-1.7-2.9-3.5-5.6-5.8-8 2.3-2.4 4.1-5.1 5.8-8 1.7 2.9 3.5 5.6 5.8 8-2.3 2.3-4.1 5.1-5.8 8z"/><g id="g8345-9-6-9-5_2_"><path id="path31-8-2-5-6_2_" class="st0" d="M-.025 26.263v-26.3h2.6v26.3h-2.6z"/><path id="path33-2-0-3-1_2_" class="st0" d="M10.075-.037c-2.5 0-4.4 2.3-4.4 5v16.3c0 2.8 2 5 4.4 5h1.4c2.5 0 4.4-2.2 4.4-5v-16.2c0-2.8-2-5-4.4-5l-1.4-.1zm-1808.875 541.237c1.5 0 2.6 1.1 2.6 2.5v16.4c0 1.4-1.2 2.5-2.6 2.5s-2.6-1.1-2.6-2.5v-16.4c-.1-1.4 1.1-2.5 2.6-2.5z"/></g></svg>