<svg xmlns="http://www.w3.org/2000/svg" width="16.1" height="44.8" viewBox="0 0 16.1 44.8"><style type="text/css">.st0{fill:#D40000;}</style><path id="path7130-4_2_" class="st0" d="M8.1 44.8c-1.7-2.9-3.5-5.6-5.8-8 2.3-2.4 4.1-5.1 5.8-8 1.7 2.9 3.5 5.6 5.8 8-2.3 2.3-4.1 5.1-5.8 8z"/><path id="path35-67-2-1-9_2_" class="st0" d="M8 0v2.8h2.7s.1 2.7.1 8.3c0 5.5.1 8.2-.2 9.8-.9 3.6-6.2 3.6-7.2 1-.6-1.5-.4-2.7-.5-4.2H0v1.7c0 4 1.4 6 4.5 6.8 3.2.9 7-.5 8.3-3.2.8-1.6.7-1.7.7-11.2 0-6.3.1-9 .1-9h2.5V0H8z"/></svg>