<svg xmlns="http://www.w3.org/2000/svg" width="16" height="44.9" viewBox="0 0 16 44.9"><style type="text/css">.st0{fill:#D40000;}</style><path id="path7198-0_2_" class="st0" d="M8 44.9c-1.7-2.9-3.5-5.6-5.8-8 2.3-2.4 4.1-5.1 5.8-8 1.7 2.9 3.5 5.6 5.8 8-2.2 2.3-4.1 5.1-5.8 8z"/><path id="path37-2-1-6-5_2_" class="st0" d="M2.2 17.7H0v-3h2.2s0-1.6.1-4.5c.1-6.1.3-7 2.1-8.7 3.4-3.3 9.2-.6 9.2 4.4-.1 7 0 13.7-.2 14.7-.4 1.7-.4 1.8-.3 2.1.3.6 2.9.9 2.9.7v3c-2 .2-2.8 0-4.5-1.2-1 1-4.1 1.9-6.5.8-1.8-.9-3.2-3.2-2.8-8.3zM9.7 23c-1.1-1.6-2.9-3.7-4.7-4.5-.1 1.8 0 3.3.7 4.2 1 1.2 2.6 1.5 4 .3zm.9-17.4C9.8 3.3 7.7 2.5 6.2 4c-1 .9-1.1 1.8-1.1 7v4.5c3 1 5.7 4.4 5.7 4.4l.1-9.5c-.1-1.7-.1-3.3-.3-4.8z"/></svg>