<svg xmlns="http://www.w3.org/2000/svg" width="16.2" height="44.8" viewBox="0 0 16.2 44.8"><style type="text/css">.st0{fill:#D40000;}</style><path id="path9698-0-0_2_" class="st0" d="M8 44.8s-1.8-2.6-4.2-5.6c-1.6-2-2.9-4.2-3-6.1C.7 31 2 28.8 4.3 28.7s3.3 1.6 3.7 3.1c.4-1.4 1.3-3.2 3.7-3.1 2.3.1 3.6 2.3 3.5 4.4-.1 1.9-1.4 4-3 6.1-2.4 3-4.2 5.6-4.2 5.6z"/><path id="path41-87-8-3-9_2_" class="st0" d="M0 26.3V24h2.2L6.8 0h2.6l5.1 24h1.7v2.3h-6V24h1.6l-.6-3.7h-6L4.7 24h1.6v2.3H0zm10.6-8.5L8 4.9 5.6 17.8h5z"/></svg>