<svg xmlns="http://www.w3.org/2000/svg" width="14.9" height="44.8" viewBox="0 0 14.9 44.8"><style type="text/css">.st0{fill:#D40000;}</style><path id="path9766-0-8_2_" class="st0" d="M7.5 44.8s-1.8-2.6-4.2-5.6c-1.6-2-2.9-4.2-3-6.1-.1-2.1 1.2-4.3 3.5-4.4s3.3 1.6 3.7 3.1c.4-1.4 1.3-3.2 3.7-3.1 2.3.1 3.6 2.3 3.5 4.4-.1 1.9-1.4 4-3 6.1-2.4 3-4.2 5.6-4.2 5.6z"/><path id="path15-34-0-0-4_2_" class="st0" d="M0 26.2l.1-1.6c.4-5 1.5-6.7 7.6-12 3-2.5 4-3.8 4.1-5.3.3-3.3-2.7-4.4-4.6-4.4-2.6 0-5.5 1.5-4.1 5.2L.2 9c-.6-3.4 0-6.6 2.7-8C6.5-.8 11-.1 13.3 2.8c1.6 1.9 1.9 4.6 1.1 6.7-2.5 5.4-10.8 7.7-11.4 14h9.2V20h2.7v6.4L0 26.2z"/></svg>