<svg xmlns="http://www.w3.org/2000/svg" width="17.1" height="44.8" viewBox="0 0 17.1 44.8"><style type="text/css">.st0{fill:#D40000;}</style><path id="path9834-5-2_2_" class="st0" d="M8.5 44.8s-1.8-2.6-4.2-5.6c-1.6-2-2.9-4.2-3-6.1-.1-2.1 1.2-4.3 3.5-4.4s3.3 1.6 3.7 3.1c.4-1.4 1.3-3.2 3.7-3.1 2.3.1 3.6 2.3 3.5 4.4-.1 1.9-1.4 4-3 6.1-2.4 3-4.2 5.6-4.2 5.6z"/><path id="path17-2-9-8-4_2_" class="st0" d="M0 20.5L2 19c1.8 2.9 3.7 4.8 6.8 4.4 4.5-.3 6.4-5.1 5.5-8.6-.9-3.2-4.7-4.8-7.6-3.1-.7.4-1.4.7-1.5.7-.3 0-1-1.4-.9-1.8 2-2.9 6.9-8 6.9-8H3.5V6H.7V0h14.6v2.1s-4 4.1-5.3 6.4c3.2.1 5.8 2.2 6.8 5.4.5 1.7.3 5.6-.4 7.3-1.2 2.8-4.5 5.1-7.4 5.2-5.1.2-7.6-3.3-9-5.9z"/></svg>