<svg xmlns="http://www.w3.org/2000/svg" width="16.9" height="44.7" viewBox="0 0 16.9 44.7"><path d="M8.5 28.8c-3.1 0-4.5 3.7-2.2 6.6.3.4.4.7-.2.3-1.6-1.1-4.6-.4-4.7 2.9-.2 4.1 5.3 5.3 6.3.9.1-.5.4-.4.3.2-.1 1.8-.6 3.4-1.4 5h3.7c-.7-1.6-1.3-3.3-1.4-5-.1-.7.3-.7.3-.2 1 4.4 6.5 3.2 6.3-.9-.2-3.3-3.1-4-4.7-2.9-.6.4-.6.2-.2-.3 2.5-2.9 1.1-6.6-2.1-6.6z"/><path d="M0 20.5L2 19c1.8 2.9 3.7 4.7 6.7 4.4 4.5-.3 6.4-5 5.4-8.6-.9-3.2-4.6-4.8-7.6-3.1-.7.4-1.4.7-1.5.7-.3 0-1-1.4-.9-1.8 2-2.9 6.8-8 6.8-8H3.3V6H.4V0h14.8v2.1s-4 4.1-5.3 6.4c3.2.1 5.8 2.2 6.7 5.4.5 1.7.3 5.6-.4 7.3-1.2 2.8-4.4 5.1-7.4 5.2-4.8.2-7.5-3.3-8.8-5.9z"/></svg>