<svg xmlns="http://www.w3.org/2000/svg" width="16.5" height="44.7" viewBox="0 0 16.5 44.7"><style type="text/css">.st0{fill:#D40000;}</style><path id="path9902-6-7_2_" class="st0" d="M8.2 44.7S6.4 42.1 4 39.1c-1.6-2-2.9-4.2-3-6.1-.1-2.1 1.2-4.3 3.5-4.4s3.3 1.6 3.7 3.1c.4-1.4 1.3-3.2 3.7-3.1 2.3.1 3.6 2.3 3.5 4.4-.1 1.9-1.4 4-3 6.1-2.4 3-4.2 5.6-4.2 5.6z"/><path id="path19-3-8-2-9_2_" class="st0" d="M8.4 26.2v-2.3h2.1v-3.8H0v-2.7L11.4 0h1.9v17.4h3.2v2.7h-3.2l-.1 3.8h1.7v2.3H8.4zm2.1-19.9L3.3 17.4h7.2V6.3z"/></svg>