<svg xmlns="http://www.w3.org/2000/svg" width="16.6" height="44.7" viewBox="0 0 16.6 44.7"><style type="text/css">.st0{fill:#D40000;}</style><path id="path9970-5-6_2_" class="st0" d="M8.2 44.7S6.4 42.1 4 39.1c-1.6-2-2.9-4.2-3-6.1 0-2.1 1.3-4.3 3.6-4.4s3.3 1.6 3.7 3.1c.4-1.4 1.3-3.2 3.7-3.1 2.3.1 3.6 2.3 3.5 4.4-.1 1.9-1.4 4-3 6.1-2.5 3-4.3 5.6-4.3 5.6z"/><path id="path21-9-5-1-8_2_" class="st0" d="M0 19.4h2.6c.5 1.6 1.6 3.2 3.1 3.7 4.2 1 6.9-1.4 7.8-4.1 1.1-3.3 0-8-2.9-9.7C8.1 8 4.7 9.2 3 12.1L1.2 11l1-11h11.7v2.6H4.4l-.2 4.6c2.1-1.5 5.2-1.5 7.3-.4 3.9 1.9 5.7 6.2 5 11.3-1.1 5.1-3.4 7.9-8.6 8.3-5.8-.2-7.9-4.2-7.9-7z"/></svg>