<svg xmlns="http://www.w3.org/2000/svg" width="16" height="44.9" viewBox="0 0 16 44.9"><style type="text/css">.st0{fill:#D40000;}</style><path id="path10038-5-0_2_" class="st0" d="M8 44.9s-1.8-2.6-4.2-5.6c-1.6-2-2.9-4.2-3-6.1-.1-2.1 1.2-4.3 3.5-4.4s3.3 1.6 3.7 3.1c.4-1.4 1.3-3.2 3.7-3.1 2.3.1 3.6 2.3 3.5 4.4-.1 1.9-1.4 4-3 6.1-2.5 3-4.2 5.6-4.2 5.6z"/><path id="path23-5-2-7-3_2_" class="st0" d="M.2 18.3c-.3-2.2-.3-8-.1-9.7C.9 3.5 2.9 1.1 6.2.3 9.4-.5 14 .4 15 4.7l-2.7.1c-1.5-2.9-5.2-2.2-7.2-.9-1.7 1-2.4 5.3-2.1 5.5 0 0 3.1-2.3 5.6-2.2 5.3.6 7.5 5.1 7.3 9.5-.2 5.2-1.8 9.4-7.4 9.7-5.3-.2-7.8-3.1-8.3-8.1zM13.4 17c0-3.6-1.6-6.3-4.7-6.6s-6.2 2.7-6 6.4c.2 3.7 1.7 6.8 5.4 6.8 4-.1 5.3-4.1 5.3-6.6z"/></svg>