<svg xmlns="http://www.w3.org/2000/svg" width="16.1" height="44.8" viewBox="0 0 16.1 44.8"><style type="text/css">.st0{fill:#D40000;}</style><path id="path10106-2-3_2_" class="st0" d="M8.1 44.8s-1.8-2.6-4.2-5.6c-1.6-2-2.9-4.2-3-6.1-.1-2.1 1.2-4.3 3.5-4.4s3.3 1.6 3.7 3.1c.4-1.4 1.3-3.2 3.7-3.1 2.3.1 3.6 2.3 3.5 4.4-.1 1.9-1.4 4-3 6.1-2.4 3-4.2 5.6-4.2 5.6z"/><path id="path25-43-2-3-9_2_" class="st0" d="M4 26.3c1.7-9.2 3.6-16 8.4-23.4H2.6v3.2H0V0h14.3l1.8 2.8c-5.2 5.6-9.9 23.7-9 23.4l-3.1.1z"/></svg>