<svg xmlns="http://www.w3.org/2000/svg" width="17" height="44.7" viewBox="0 0 17 44.7"><style type="text/css">.st0{fill:#D40000;}</style><path id="path10174-9-0_2_" class="st0" d="M8.5 44.7s-1.8-2.6-4.2-5.6c-1.6-2-2.9-4.2-3-6.1-.1-2.1 1.2-4.3 3.5-4.4s3.3 1.6 3.7 3.1c.4-1.4 1.3-3.2 3.7-3.1 2.3.1 3.6 2.3 3.5 4.4-.1 1.9-1.4 4-3 6.1-2.4 3-4.2 5.6-4.2 5.6z"/><path id="path27-00-0-7-4_2_" class="st0" d="M0 18.5c.1-3.5 1.4-4.9 3.9-6.7-2-1.5-2.9-3.6-2.7-5.4C1.6 2.1 4.9-.1 8.6 0s6.9 3 7.2 6.3c.2 2.8-.6 4.1-2.6 5.6 2.3 2 3.8 3.3 3.8 6.8-.1 3.5-3 7.6-8.2 7.8-5.1-.2-8.9-4.5-8.8-8zm14.4 0c.2-3.2-2.6-5.4-5.8-5.4-3.1 0-5.9 2.6-5.9 5.5 0 3.1 3.6 4.8 6 4.8 2.8 0 5.5-2.2 5.7-4.9zm-1-11.4c.1-2.7-2.4-4.6-5-4.6-2.3.1-4.7 1.8-4.7 4.1 0 2.8 2.8 4.2 5.1 4.3 2.1 0 4.5-1.8 4.6-3.8z"/></svg>