<svg xmlns="http://www.w3.org/2000/svg" width="15.2" height="44.8" viewBox="0 0 15.2 44.8"><style type="text/css">.st0{fill:#D40000;}</style><path id="path10242-3-8_2_" class="st0" d="M7.7 44.8s-1.8-2.6-4.2-5.6c-1.6-2-2.9-4.2-3-6.1C.4 31 1.7 28.8 4 28.7s3.3 1.6 3.7 3.1c.4-1.4 1.3-3.2 3.7-3.1 2.3.1 3.6 2.3 3.5 4.4-.1 1.9-1.4 4-3 6.1-2.4 3-4.2 5.6-4.2 5.6z"/><path id="path29-5-8-5-4_2_" class="st0" d="M.3 21.2l2.4-.8c.9 2.4 2.8 3.2 4.7 3 3.5-.3 4.7-4.2 4.9-7.6-1.4 1.4-3.4 2.2-5.2 2.1-5.6-.3-7-4.8-7.1-9.4C-.2 4.6 1.5 1.7 4.3.4c1.5-.6 4.9-.6 6.4.2 3.4 1.8 4.7 4.9 4.5 12.3 0 6.1-1.3 13.2-7.9 13.4-3.7.5-6.6-2.5-7-5.1zm9.5-6.6c1.1-.7 1.8-1.4 2.3-2.4.4-.8.6-1.3.4-3-.3-4.4-2.6-6.9-6-6.4-1.9.3-2.9 1.3-3.5 3.3-1.1 3.6.3 7.8 2.9 8.8 1.2.4 3 .3 3.9-.3z"/></svg>