<svg xmlns="http://www.w3.org/2000/svg" width="15.8" height="44.8" viewBox="0 0 15.8 44.8"><style type="text/css">.st0{fill:#D40000;}</style><path id="path10310-7-8_2_" class="st0" d="M8 44.8s-1.8-2.6-4.2-5.6c-1.6-2-2.9-4.2-3-6.1C.7 31 2 28.8 4.3 28.7s3.3 1.6 3.7 3.1c.4-1.4 1.3-3.2 3.7-3.1 2.3.1 3.6 2.3 3.5 4.4-.1 1.9-1.4 4-3 6.1-2.5 3-4.2 5.6-4.2 5.6z"/><g id="g8345-9-7-5-1_2_"><path id="path31-8-2-9-8_2_" class="st0" d="M.016 26.287v-26.3h2.6v26.3h-2.6z"/><path id="path33-2-3-1-6_2_" class="st0" d="M10.016-.012c-2.5 0-4.4 2.3-4.4 5v16.2c0 2.8 2 5 4.4 5h1.4c2.5 0 4.4-2.2 4.4-5v-16.2c0-2.8-2-5-4.4-5h-1.4zm-1979.816 1574.812c1.5 0 2.6 1.1 2.6 2.5v16.4c0 1.4-1.2 2.5-2.6 2.5s-2.6-1.1-2.6-2.5v-16.4c.1-1.4 1.1-2.5 2.6-2.5z"/></g></svg>