<!-- Generator: Adobe Illustrator 19.2.1, SVG Export Plug-In  -->
<svg version="1.1"
	 xmlns="http://www.w3.org/2000/svg" xmlns:xlink="http://www.w3.org/1999/xlink" xmlns:a="http://ns.adobe.com/AdobeSVGViewerExtensions/3.0/"
	 x="0px" y="0px" width="15.8px" height="44.8px" viewBox="0 0 15.8 44.8" style="enable-background:new 0 0 15.8 44.8;"
	 xml:space="preserve">
<style type="text/css">
	.st0{fill:#D40000;}
</style>
<defs>
</defs>
<path id="path10310-7-8_2_" class="st0" d="M8,44.8c0,0-1.8-2.6-4.2-5.6c-1.6-2-2.9-4.2-3-6.1C0.7,31,2,28.8,4.3,28.7
	s3.3,1.6,3.7,3.1c0.4-1.4,1.3-3.2,3.7-3.1c2.3,0.1,3.6,2.3,3.5,4.4c-0.1,1.9-1.4,4-3,6.1C9.7,42.2,8,44.8,8,44.8z"/>
<g id="g7724-24-8-9-7_2_" transform="matrix(1,0,0,0.9999803,1980.6157,-1572.2811)">
	<g id="g8345-9-7-5-1_2_">
		<path id="path31-8-2-9-8_2_" class="st0" d="M-1980.6,1598.6v-26.3h2.6v26.3H-1980.6z"/>
		<path id="path33-2-3-1-6_2_" class="st0" d="M-1970.6,1572.3c-2.5,0-4.4,2.3-4.4,5v16.2c0,2.8,2,5,4.4,5h1.4c2.5,0,4.4-2.2,4.4-5
			v-16.2c0-2.8-2-5-4.4-5H-1970.6z M-1969.8,1574.8c1.5,0,2.6,1.1,2.6,2.5v16.4c0,1.4-1.2,2.5-2.6,2.5s-2.6-1.1-2.6-2.5v-16.4
			C-1972.3,1575.9-1971.3,1574.8-1969.8,1574.8L-1969.8,1574.8z"/>
	</g>
</g>
</svg>
