<svg xmlns="http://www.w3.org/2000/svg" width="16.1" height="44.8" viewBox="0 0 16.1 44.8"><style type="text/css">.st0{fill:#D40000;}</style><path id="path10378-7-1_2_" class="st0" d="M8 44.8s-1.8-2.5-4.2-5.5c-1.6-2-2.9-4.2-3-6C.7 31.2 2 29 4.3 28.9S7.6 30.5 8 32c.4-1.4 1.3-3.2 3.7-3.1 2.3.1 3.6 2.2 3.5 4.4-.1 1.9-1.4 4-3 6-2.4 3-4.2 5.5-4.2 5.5z"/><path id="path35-67-2-8-6_2_" class="st0" d="M7.9 0v2.8h2.7s.1 2.7.1 8.3c0 5.5.1 8.2-.2 9.7-.9 3.6-6.1 3.6-7.2 1-.6-1.5-.4-2.7-.5-4.2H0v1.7c0 4 1.4 6 4.5 6.7 3.2.9 7-.5 8.3-3.2.8-1.6.7-1.7.7-11.1 0-6.3.1-8.9.1-8.9h2.5V0H7.9z"/></svg>