<svg xmlns="http://www.w3.org/2000/svg" width="15.9" height="44.8" viewBox="0 0 15.9 44.8"><style type="text/css">.st0{fill:#D40000;}</style><path id="path10446-4-8_2_" class="st0" d="M8 44.8s-1.8-2.5-4.2-5.5c-1.6-2-2.9-4.2-3-6C.7 31.2 2 29 4.3 28.9S7.6 30.5 8 32c.4-1.4 1.3-3.2 3.7-3.1 2.3.1 3.6 2.2 3.5 4.4-.1 1.9-1.4 4-3 6-2.5 3-4.2 5.5-4.2 5.5z"/><path id="path37-2-5-5-0_2_" class="st0" d="M2.2 17.7H0v-3h2.2s0-1.6.1-4.5c.1-6.1.3-7 2-8.7 3.5-3.3 9.3-.6 9.2 4.4-.1 7 0 13.7-.2 14.6-.4 1.7-.4 1.8-.3 2.1.3.6 2.9.9 2.9.7v3c-2 .2-2.8 0-4.4-1.2-1 1-4 1.9-6.5.8-1.8-.9-3.2-3.2-2.8-8.2zm7.4 5.2c-1.1-1.6-2.9-3.7-4.6-4.5-.1 1.8 0 3.3.7 4.1.9 1.3 2.6 1.6 3.9.4zm.9-17.3C9.7 3.3 7.6 2.5 6.1 4 5.2 4.9 5 5.8 5 10.9v4.5c3 1 5.7 4.4 5.7 4.4l.1-9.5c0-1.7-.1-3.2-.3-4.7z"/></svg>