<svg xmlns="http://www.w3.org/2000/svg" width="14.9" height="44.8" viewBox="0 0 14.9 44.8"><path d="M7.5 28.8C4.1 33.2.4 35.7.3 39.1c0 1.1.7 3 2.8 3.4 1.3.2 3.2-.8 3.2-2.8 0-.4.5-.4.5.2-.1 1.6-.6 3.4-1.6 4.9h4.5c-.9-1.5-1.5-3.3-1.6-4.9 0-.5.5-.6.5-.2 0 2 1.9 3 3.3 2.8 2.1-.4 2.8-2.2 2.8-3.4-.2-3.5-3.7-6-7.2-10.3z"/><path d="M0 26.2l.1-1.6c.4-5 1.5-6.7 7.6-12 3-2.5 4-3.8 4.1-5.3.4-3.4-2.7-4.5-4.6-4.5-2.6 0-5.5 1.5-4.1 5.2l-2.9.9c-.6-3.4 0-6.6 2.7-8 3.6-1.7 8.2-1 10.5 1.8 1.6 1.9 1.9 4.6 1.1 6.7C12 14.8 3.7 17.1 3 23.4h9.2v-3.5h2.7v6.4L0 26.2z"/></svg>