<svg xmlns="http://www.w3.org/2000/svg" width="17.1" height="44.8" viewBox="0 0 17.1 44.8"><path d="M8.6 28.8c-3.4 4.4-7.1 6.9-7.2 10.3 0 1.1.7 3 2.8 3.4 1.4.2 3.2-.8 3.3-2.8 0-.4.5-.4.5.2-.1 1.6-.6 3.4-1.6 4.9h4.5c-.9-1.5-1.5-3.3-1.6-4.9 0-.5.5-.6.5-.2 0 2 1.9 3 3.3 2.8 2.1-.4 2.8-2.2 2.8-3.4-.3-3.5-3.9-6-7.3-10.3z"/><path d="M0 20.5L2 19c1.8 2.9 3.7 4.8 6.8 4.4 4.5-.3 6.4-5.1 5.5-8.6-1-3.2-4.7-4.8-7.7-3.1-.7.4-1.4.7-1.5.7-.3 0-1-1.4-.9-1.8 2-2.9 6.9-8 6.9-8H3.5V6H.6V0h14.7v2.1s-4 4.1-5.3 6.4c3.2.1 5.8 2.2 6.8 5.4.5 1.7.3 5.6-.4 7.3-1.2 2.8-4.5 5.1-7.4 5.2-5 .2-7.7-3.4-9-5.9z"/></svg>