<!-- Generator: Adobe Illustrator 19.2.1, SVG Export Plug-In  -->
<svg version="1.1"
	 xmlns="http://www.w3.org/2000/svg" xmlns:xlink="http://www.w3.org/1999/xlink" xmlns:a="http://ns.adobe.com/AdobeSVGViewerExtensions/3.0/"
	 x="0px" y="0px" width="16.5px" height="44.7px" viewBox="0 0 16.5 44.7" style="enable-background:new 0 0 16.5 44.7;"
	 xml:space="preserve">
<defs>
</defs>
<path id="path6884-6-5_2_" d="M8.2,28.8C4.8,33.2,1.1,35.6,1,39c0,1.1,0.7,3,2.8,3.4c1.4,0.2,3.2-0.8,3.3-2.8c0-0.4,0.5-0.4,0.5,0.2
	C7.5,41.4,7,43.2,6,44.7c1.5,0,3,0,4.5,0c-0.9-1.5-1.5-3.3-1.6-4.9c0-0.5,0.5-0.6,0.5-0.2c0,2,1.9,3,3.3,2.8
	c2.1-0.4,2.8-2.2,2.8-3.4C15.3,35.6,11.7,33.1,8.2,28.8L8.2,28.8z"/>
<path id="path19-08-0-9_2_" d="M8.4,26.2v-2.3h2.1v-3.8H0v-2.7L11.4,0h1.9v17.4h3.2v2.7h-3.2l-0.1,3.8h1.7v2.3H8.4L8.4,26.2z
	 M10.5,6.3L3.3,17.4h7.2V6.3z"/>
</svg>
