<!-- Generator: Adobe Illustrator 19.2.1, SVG Export Plug-In  -->
<svg version="1.1"
	 xmlns="http://www.w3.org/2000/svg" xmlns:xlink="http://www.w3.org/1999/xlink" xmlns:a="http://ns.adobe.com/AdobeSVGViewerExtensions/3.0/"
	 x="0px" y="0px" width="16.6px" height="44.9px" viewBox="0 0 16.6 44.9" style="enable-background:new 0 0 16.6 44.9;"
	 xml:space="preserve">
<defs>
</defs>
<path id="path6956-5-0_2_" d="M8.3,28.9c3.4,4.4,7.1,6.9,7.2,10.3c0,1.1-0.7,3-2.8,3.4c-1.4,0.2-3.2-0.8-3.3-2.8
	c0-0.4-0.5-0.4-0.5,0.2c0.1,1.6,0.6,3.4,1.6,4.9c-1.5,0-3,0-4.5,0c0.9-1.5,1.5-3.3,1.6-4.9c0-0.5-0.5-0.6-0.5-0.2c0,2-1.9,3-3.3,2.8
	C1.7,42.1,1,40.3,1,39.1C1.2,35.7,4.9,33.1,8.3,28.9L8.3,28.9z"/>
<path id="path21-4-9-2-8_2_" d="M0,19.5h2.6c0.5,1.6,1.6,3.2,3.1,3.7c4.2,1,6.9-1.4,7.8-4.1c1.1-3.3,0-8-2.9-9.7
	C8.2,8,4.7,9.2,3,12.1L1.2,11l1-11h11.7v2.6H4.4L4.2,7.2c2.1-1.5,5.2-1.5,7.3-0.4c3.9,1.9,5.7,6.2,5,11.3c-1.1,5.1-3.4,7.9-8.6,8.3
	C2,26.4,0,22.3,0,19.5L0,19.5L0,19.5z"/>
</svg>
