<svg xmlns="http://www.w3.org/2000/svg" width="16.6" height="44.9" viewBox="0 0 16.6 44.9"><path d="M8.3 28.9c3.4 4.4 7.1 6.9 7.2 10.3 0 1.1-.7 3-2.8 3.4-1.4.2-3.2-.8-3.3-2.8 0-.4-.5-.4-.5.2.1 1.6.6 3.4 1.6 4.9H6c.9-1.5 1.5-3.3 1.6-4.9 0-.5-.5-.6-.5-.2 0 2-1.9 3-3.3 2.8-2.1-.5-2.8-2.3-2.8-3.5.2-3.4 3.9-6 7.3-10.2z"/><path d="M0 19.5h2.6c.5 1.6 1.6 3.2 3.1 3.7 4.2 1 6.9-1.4 7.8-4.1 1.1-3.3 0-8-2.9-9.7C8.2 8 4.7 9.2 3 12.1L1.2 11l1-11h11.7v2.6H4.4l-.2 4.6c2.1-1.5 5.2-1.5 7.3-.4 3.9 1.9 5.7 6.2 5 11.3-1.1 5.1-3.4 7.9-8.6 8.3C2 26.4 0 22.3 0 19.5z"/></svg>