<svg xmlns="http://www.w3.org/2000/svg" width="16" height="45" viewBox="0 0 16 45"><path d="M8 29C4.6 33.4.9 35.9.8 39.3c0 1.1.7 3 2.8 3.4 1.4.2 3.2-.8 3.3-2.8 0-.4.5-.4.5.2-.1 1.6-.6 3.4-1.6 4.9h4.5c-.9-1.5-1.5-3.3-1.6-4.9 0-.5.5-.6.5-.2 0 2 1.9 3 3.3 2.8 2.1-.4 2.8-2.2 2.8-3.4-.2-3.5-3.9-6-7.3-10.3z"/><path d="M.2 18.3c-.3-2.2-.3-8-.1-9.7C.9 3.4 2.9 1.1 6.2.3 9.4-.5 14 .4 15 4.6l-2.7.1c-1.5-2.9-5.2-2.2-7.2-.9-1.7 1-2.4 5.3-2.1 5.5 0 0 3.1-2.3 5.6-2.2 5.3.6 7.5 5.1 7.3 9.5-.2 5.2-1.8 9.4-7.4 9.7-5.3-.1-7.8-3-8.3-8zm13.2-1.4c0-3.6-1.6-6.3-4.7-6.6s-6.2 2.7-6 6.4 1.7 6.8 5.4 6.8c4 0 5.3-4 5.3-6.6z"/></svg>