<svg xmlns="http://www.w3.org/2000/svg" width="17.1" height="44.8" viewBox="0 0 17.1 44.8"><path d="M8.6 28.8c-3.4 4.4-7.1 6.9-7.2 10.3 0 1.1.7 3 2.8 3.4 1.4.2 3.2-.8 3.3-2.8 0-.4.5-.4.5.2-.1 1.6-.6 3.4-1.6 4.9h4.5c-.9-1.5-1.5-3.3-1.6-4.9 0-.5.5-.6.5-.2 0 2 1.9 3 3.3 2.8 2.1-.4 2.8-2.2 2.8-3.4-.2-3.5-3.9-6-7.3-10.3z"/><path d="M0 18.5c.1-3.5 1.4-4.9 3.9-6.7-2-1.5-2.9-3.6-2.7-5.4C1.6 2.1 5-.1 8.7 0s6.9 3 7.2 6.3c.2 2.8-.6 4.1-2.6 5.6 2.3 2 3.8 3.3 3.8 6.8-.1 3.5-3 7.6-8.2 7.8-5.1-.1-9.1-4.4-8.9-8zm14.4 0c.2-3.2-2.6-5.4-5.8-5.4-3.1 0-5.9 2.6-5.9 5.5 0 3.1 3.6 4.8 6 4.8 2.8 0 5.5-2.1 5.7-4.9zM13.4 7c.1-2.7-2.4-4.6-5-4.6-2.3.1-4.7 1.8-4.7 4.1 0 2.8 2.8 4.2 5.1 4.3 2.1.1 4.6-1.7 4.6-3.8z"/></svg>