<!-- Generator: Adobe Illustrator 19.2.1, SVG Export Plug-In  -->
<svg version="1.1"
	 xmlns="http://www.w3.org/2000/svg" xmlns:xlink="http://www.w3.org/1999/xlink" xmlns:a="http://ns.adobe.com/AdobeSVGViewerExtensions/3.0/"
	 x="0px" y="0px" width="17.1px" height="44.8px" viewBox="0 0 17.1 44.8" style="enable-background:new 0 0 17.1 44.8;"
	 xml:space="preserve">
<defs>
</defs>
<path id="path7157-2-9_2_" d="M8.6,28.8c-3.4,4.4-7.1,6.9-7.2,10.3c0,1.1,0.7,3,2.8,3.4c1.4,0.2,3.2-0.8,3.3-2.8
	c0-0.4,0.5-0.4,0.5,0.2c-0.1,1.6-0.6,3.4-1.6,4.9c1.5,0,3,0,4.5,0c-0.9-1.5-1.5-3.3-1.6-4.9c0-0.5,0.5-0.6,0.5-0.2
	c0,2,1.9,3,3.3,2.8c2.1-0.4,2.8-2.2,2.8-3.4C15.7,35.6,12,33.1,8.6,28.8L8.6,28.8z"/>
<path id="path27-43-30-7_2_" d="M0,18.5c0.1-3.5,1.4-4.9,3.9-6.7c-2-1.5-2.9-3.6-2.7-5.4C1.6,2.1,5-0.1,8.7,0s6.9,3,7.2,6.3
	c0.2,2.8-0.6,4.1-2.6,5.6c2.3,2,3.8,3.3,3.8,6.8c-0.1,3.5-3,7.6-8.2,7.8C3.8,26.4-0.2,22.1,0,18.5L0,18.5L0,18.5z M14.4,18.5
	c0.2-3.2-2.6-5.4-5.8-5.4c-3.1,0-5.9,2.6-5.9,5.5c0,3.1,3.6,4.8,6,4.8C11.5,23.4,14.2,21.3,14.4,18.5L14.4,18.5z M13.4,7
	c0.1-2.7-2.4-4.6-5-4.6C6.1,2.5,3.7,4.2,3.7,6.5c0,2.8,2.8,4.2,5.1,4.3C10.9,10.9,13.4,9.1,13.4,7L13.4,7L13.4,7z"/>
</svg>
