<svg xmlns="http://www.w3.org/2000/svg" width="15.2" height="44.8" viewBox="0 0 15.2 44.8"><path d="M7.7 28.8C4.3 33.2.6 35.7.5 39.1c0 1.1.7 3 2.8 3.4 1.3.2 3.2-.8 3.3-2.8 0-.4.5-.4.5.2-.1 1.6-.6 3.4-1.6 4.9H10c-.9-1.5-1.5-3.3-1.6-4.9 0-.5.5-.6.5-.2 0 2 1.9 3 3.3 2.8 2.1-.4 2.8-2.2 2.8-3.4-.1-3.5-3.8-6-7.3-10.3z"/><path d="M.3 21.2l2.4-.8c.9 2.4 2.8 3.2 4.7 3 3.5-.3 4.7-4.2 4.9-7.6-1.4 1.4-3.4 2.2-5.2 2.1-5.6-.3-7-4.8-7.1-9.4C-.2 4.6 1.5 1.7 4.3.4c1.5-.6 4.9-.6 6.4.2 3.4 1.8 4.7 4.9 4.5 12.3 0 6.1-1.3 13.2-7.9 13.4-3.7.4-6.6-2.5-7-5.1zm9.5-6.7c1.1-.7 1.8-1.4 2.3-2.4.4-.8.6-1.3.4-3-.3-4.4-2.6-6.9-6-6.4C4.6 3 3.6 4 3 6c-1.1 3.6.3 7.8 2.9 8.8 1.2.4 3 .2 3.9-.3z"/></svg>