<svg xmlns="http://www.w3.org/2000/svg" width="15.9" height="45" viewBox="0 0 15.9 45"><path d="M8 29C4.6 33.4.9 35.9.8 39.3c0 1.1.7 3 2.8 3.4 1.4.2 3.2-.8 3.3-2.8 0-.4.5-.4.5.2-.1 1.6-.6 3.4-1.6 4.9h4.5c-.9-1.5-1.5-3.3-1.6-4.9 0-.5.5-.6.5-.2 0 2 1.9 3 3.3 2.8 2.1-.4 2.8-2.2 2.8-3.4-.2-3.5-3.9-6-7.3-10.3z"/><path d="M0 26.4V.1h2.6v26.3H0z"/><path d="M10.1.1c-2.5 0-4.4 2.3-4.4 5v16.2c0 2.8 2 5 4.4 5h1.4c2.5 0 4.4-2.2 4.4-5V5c0-2.8-2-5-4.4-5l-1.4.1zm.8 2.4c1.5 0 2.6 1.1 2.6 2.5v16.4c0 1.4-1.2 2.5-2.6 2.5-1.5 0-2.6-1.1-2.6-2.5V5c-.1-1.3 1.1-2.5 2.6-2.5z"/></svg>