<svg xmlns="http://www.w3.org/2000/svg" width="16.5" height="44.7" viewBox="0 0 16.5 44.7"><path d="M8.3 28.8c-3.1.1-4.5 3.7-2.2 6.6.3.4.4.7-.2.3-1.6-1.1-4.6-.4-4.7 2.9-.2 4.1 5.3 5.3 6.3.9.1-.5.4-.4.3.2-.1 1.8-.6 3.4-1.4 5h3.7c-.7-1.6-1.3-3.3-1.4-5-.1-.7.3-.7.3-.2 1 4.4 6.5 3.2 6.3-.9-.2-3.3-3.1-4-4.7-2.9-.6.4-.6.2-.2-.3 2.4-2.9 1-6.6-2.1-6.6z"/><path d="M0 19.5h2.6c.5 1.6 1.6 3.2 3.1 3.7 4.2 1 6.9-1.4 7.7-4.1 1.1-3.3 0-8-2.9-9.7C8.1 8 4.6 9.2 3 12.1L1.2 11l1-11H14v2.6H4.3l-.2 4.6c2.1-1.5 5.2-1.5 7.3-.4 3.9 1.9 5.7 6.2 4.9 11.3-1 5-3.4 7.9-8.6 8.3C2 26.3 0 22.3 0 19.5z"/></svg>