<svg xmlns="http://www.w3.org/2000/svg" width="15.9" height="45" viewBox="0 0 15.9 45"><path d="M8 29C4.6 33.4.9 35.9.8 39.3c0 1.1.6 3 2.7 3.3 1.4.2 3.2-.8 3.3-2.7 0-.4.5-.4.5.2-.1 1.6-.6 3.4-1.6 4.9h4.5c-.9-1.5-1.5-3.3-1.6-4.9 0-.5.5-.6.5-.2 0 2 1.9 3 3.3 2.7 2.1-.4 2.8-2.2 2.7-3.3 0-3.5-3.7-6-7.1-10.3z"/><path d="M2.2 17.7H0v-3h2.2s0-1.6.1-4.5c.1-6.1.3-7 2-8.7 3.5-3.3 9.3-.6 9.2 4.4-.1 7 0 13.7-.2 14.6-.4 1.7-.4 1.8-.3 2.1.3.6 2.9.9 2.9.7v3c-2 .2-2.8 0-4.4-1.2-1 1-4 1.9-6.5.8-1.8-.8-3.2-3.1-2.8-8.2zM9.6 23c-1.1-1.6-2.9-3.7-4.6-4.5-.1 1.8 0 3.3.7 4.1.9 1.3 2.6 1.6 3.9.4zm.9-17.3c-.8-2.3-2.9-3.1-4.4-1.6C5.2 5 5 5.9 5 11v4.5c3 1 5.7 4.4 5.7 4.4l.1-9.5c0-1.7-.1-3.2-.3-4.7z"/></svg>