<svg xmlns="http://www.w3.org/2000/svg" width="16" height="44.8" viewBox="0 0 16 44.8"><path d="M8 28.9c-3.1.1-4.5 3.7-2.2 6.6.3.4.4.7-.2.3C4 34.7 1 35.4.9 38.7c-.2 4.1 5.3 5.3 6.3.9.1-.5.4-.4.3.2-.1 1.8-.6 3.4-1.4 5h3.7c-.7-1.6-1.3-3.3-1.4-5-.1-.7.3-.7.3-.2 1 4.4 6.5 3.2 6.3-.9-.2-3.3-3.1-4-4.7-2.9-.6.4-.6.2-.2-.3 2.4-2.9 1-6.6-2.1-6.6z"/><path d="M.2 18.3c-.3-2.2-.3-7.9-.1-9.6C1 3.4 3 1.1 6.3.3 9.5-.5 14 .4 15 4.7l-2.7.1c-1.4-3-5.1-2.2-7.2-.9-1.7 1-2.4 5.3-2.1 5.5 0 0 3.1-2.3 5.6-2.2 5.3.6 7.5 5.1 7.3 9.5-.2 5.2-1.8 9.4-7.4 9.6-5.3-.1-7.7-3-8.3-8zm13.2-1.4c0-3.6-1.6-6.3-4.7-6.6s-6.2 2.7-6 6.4c.2 3.7 1.6 6.8 5.3 6.8 4.1 0 5.3-4 5.4-6.6z"/></svg>