<svg xmlns="http://www.w3.org/2000/svg" width="17" height="44.8" viewBox="0 0 17 44.8"><path d="M8.5 28.9c-3.1 0-4.5 3.7-2.2 6.6.3.4.4.7-.2.3-1.6-1.1-4.6-.4-4.7 2.9-.2 4.1 5.3 5.3 6.3.9.1-.5.4-.4.3.2-.1 1.8-.6 3.4-1.4 5h3.7c-.7-1.6-1.3-3.3-1.4-5-.1-.7.3-.7.3-.2 1 4.4 6.5 3.2 6.3-.9-.2-3.3-3.1-4-4.7-2.9-.6.4-.6.2-.2-.3 2.5-2.9 1.1-6.6-2.1-6.6z"/><path d="M0 18.7c.1-3.5 1.4-4.9 3.9-6.7-2-1.4-2.8-3.6-2.7-5.4C1.6 2.2 5 0 8.7 0c3.7.1 6.9 3 7.1 6.2.2 2.8-.6 4.1-2.6 5.6 2.3 2 3.8 3.3 3.8 6.8-.1 3.5-3 7.6-8.2 7.7-5.1.2-8.9-4.1-8.8-7.6zm14.4 0c.2-3.2-2.6-5.4-5.8-5.4-3.1 0-5.9 2.6-5.9 5.5 0 3.1 3.6 4.8 5.9 4.8 2.9 0 5.6-2.2 5.8-4.9zm-1-11.5c.1-2.7-2.4-4.6-5-4.5-2.3.1-4.7 1.8-4.7 4 0 2.8 2.7 4.2 5.1 4.3 2.1.1 4.5-1.7 4.6-3.8z"/></svg>