<svg xmlns="http://www.w3.org/2000/svg" width="15" height="44.8" viewBox="0 0 15 44.8"><path d="M7.4 28.9c-3.1 0-4.5 3.7-2.2 6.6.3.4.4.7-.2.3-1.6-1.1-4.6-.4-4.7 2.9-.2 4.1 5.3 5.3 6.3.9.1-.5.4-.4.3.2-.1 1.8-.6 3.4-1.4 5h3.7c-.7-1.6-1.3-3.3-1.4-5-.1-.7.3-.7.3-.2 1 4.4 6.5 3.2 6.3-.9-.2-3.3-3.1-4-4.7-2.9-.6.4-.6.2-.2-.3 2.4-2.9 1-6.6-2.1-6.6z"/><path d="M.1 21.3l2.4-.8c.9 2.4 2.7 3.1 4.7 3 3.5-.3 4.6-4.2 4.9-7.6-1.4 1.4-3.4 2.2-5.1 2.1-5.5-.3-7-4.7-7-9.4C-.3 4.7 1.4 1.8 4.1.5c1.5-.7 4.8-.7 6.3.1 3.5 1.8 4.7 4.9 4.5 12.4 0 6.1-1.3 13.2-7.8 13.3-3.8.5-6.7-2.4-7-5zm9.4-6.7c1.1-.7 1.8-1.4 2.3-2.4.4-.8.6-1.3.4-3-.3-4.4-2.6-6.9-6-6.4-1.9.3-2.9 1.3-3.5 3.3-1.1 3.6.3 7.8 2.9 8.8 1.2.4 3 .3 3.9-.3z"/></svg>