<svg xmlns="http://www.w3.org/2000/svg" width="167.4" height="226.6" viewBox="0 0 167.4 226.6"><style type="text/css">.st0{fill:#D40000;}</style><g id="g6785_1_"><path id="path6926-2_1_" class="st0" d="M8.534 44.79C6.84 41.9 5.05 39.21 2.76 36.817c2.29-2.392 4.08-5.084 5.774-7.974 1.692 2.89 3.484 5.582 5.774 7.974-2.19 2.293-4.082 5.084-5.774 7.975z"/><path id="path6928-9_1_" class="st0" d="M124.912 53.363c-4.082-6.878-8.462-13.457-13.938-19.14 5.476-5.68 9.756-12.26 13.938-19.137 4.08 6.878 8.462 13.457 13.937 19.138-5.377 5.583-9.757 12.26-13.938 19.14z"/><path id="path6930-6_1_" class="st0" d="M158.86 197.8c-1.693-2.89-3.485-5.582-5.775-7.975 2.29-2.392 4.082-5.083 5.774-7.974 1.692 2.892 3.484 5.583 5.773 7.975-2.19 2.293-3.982 5.084-5.774 7.975z"/><path id="path6932-2_1_" class="st0" d="M42.48 53.363c-4.08-6.878-8.46-13.457-13.936-19.14 5.475-5.68 9.756-12.26 13.937-19.137 4.083 6.878 8.463 13.457 13.94 19.138-5.477 5.583-9.757 12.26-13.94 19.14z"/><path id="path6938-4_1_" class="st0" d="M83.696 92.836c-4.08-6.878-8.462-13.456-13.937-19.138 5.474-5.682 9.755-12.26 13.936-19.14 4.082 6.88 8.462 13.458 13.938 19.14-5.476 5.682-9.756 12.36-13.938 19.138z"/><path id="path6942-4_1_" class="st0" d="M42.48 132.41c-4.08-6.878-8.46-13.457-13.936-19.14 5.475-5.68 9.756-12.26 13.937-19.138 4.083 6.878 8.463 13.457 13.94 19.14-5.477 5.68-9.757 12.26-13.94 19.138z"/><path id="path6944-9_1_" class="st0" d="M124.912 132.41c-4.082-6.878-8.462-13.457-13.938-19.14 5.476-5.68 9.756-12.26 13.938-19.138 4.08 6.878 8.462 13.457 13.937 19.14-5.377 5.68-9.757 12.36-13.938 19.138z"/><path id="path6948-4_1_" class="st0" d="M42.48 211.556c-4.08-6.878-8.46-13.457-13.936-19.14 5.475-5.68 9.756-12.26 13.937-19.138 4.083 6.878 8.463 13.457 13.94 19.14-5.477 5.68-9.757 12.26-13.94 19.138z"/><path id="path6950-4_1_" class="st0" d="M124.912 211.556c-4.082-6.878-8.462-13.457-13.938-19.14 5.476-5.68 9.756-12.26 13.938-19.138 4.08 6.878 8.462 13.457 13.937 19.14-5.377 5.68-9.757 12.26-13.938 19.138z"/><path id="path6956-4_1_" class="st0" d="M83.696 171.983c-4.08-6.878-8.462-13.457-13.937-19.14 5.474-5.68 9.755-12.26 13.936-19.138 4.082 6.878 8.462 13.457 13.938 19.14-5.476 5.68-9.756 12.26-13.938 19.138z"/><path id="path27-00-7-8-6_1_" class="st0" d="M-.028 18.575c.1-3.49 1.394-4.885 3.883-6.68C1.863 10.402.967 8.31 1.167 6.514 1.565 2.127 4.95-.067 8.633.033c3.684.1 6.87 2.99 7.168 6.28.2 2.792-.596 4.088-2.587 5.583 2.29 1.994 3.783 3.29 3.783 6.778-.1 3.49-2.987 7.576-8.164 7.775-5.077 0-8.96-4.287-8.86-7.875zm4.563 8.225c.2-3.19-2.588-5.383-5.774-5.383-3.085 0-5.873 2.592-5.873 5.483 0 3.09 3.584 4.784 5.974 4.784 2.788 0 5.476-2.093 5.675-4.884zm-.93-11.364c.1-2.69-2.39-4.585-4.978-4.585-2.29.1-4.68 1.795-4.68 4.088 0 2.79 2.788 4.187 5.078 4.286 2.09 0 4.48-1.794 4.58-3.788z"/><path id="path27-0-1-9-8_1_" class="st0" d="M150.397 207.967c.1 3.49 1.394 4.885 3.883 6.68-1.99 1.494-2.887 3.587-2.688 5.382.398 4.384 3.783 6.577 7.466 6.478 3.684-.1 6.87-2.99 7.168-6.28.2-2.79-.597-4.087-2.588-5.582 2.29-1.994 3.783-3.29 3.783-6.778-.1-3.49-2.986-7.576-8.162-7.776-5.177.1-9.06 4.386-8.86 7.875zm5.14 8.833c.198 3.19-2.59 5.383-5.775 5.383-3.087 0-5.874-2.592-5.874-5.483 0-3.09 3.584-4.784 5.973-4.784 2.79 0 5.477 2.093 5.676 4.884zm-.933 11.463c.1 2.692-2.39 4.586-4.977 4.586-2.29-.1-4.68-1.796-4.68-4.088 0-2.79 2.788-4.187 5.078-4.287 2.09-.1 4.48 1.695 4.58 3.788z"/></g></svg>