<svg xmlns="http://www.w3.org/2000/svg" width="165.4" height="226.6" viewBox="0 0 165.4 226.6"><style type="text/css">.st0{fill:#D40000;}</style><g id="g6800_1_"><path id="path6994-9_1_" class="st0" d="M7.522 44.79C5.83 41.9 4.038 39.21 1.748 36.817c2.29-2.392 4.082-5.084 5.774-7.974 1.692 2.89 3.484 5.582 5.774 7.974-2.29 2.293-4.082 5.084-5.774 7.975z"/><path id="path6996-5_1_" class="st0" d="M123.9 53.363c-4.082-6.878-8.462-13.457-13.938-19.14 5.476-5.68 9.757-12.26 13.938-19.137 4.082 6.878 8.462 13.457 13.937 19.138-5.475 5.583-9.756 12.26-13.937 19.14z"/><path id="path6998-7_1_" class="st0" d="M157.848 197.8c-1.693-2.89-3.485-5.582-5.774-7.975 2.29-2.392 4.08-5.083 5.774-7.974 1.692 2.892 3.484 5.583 5.774 7.975-2.19 2.293-3.982 5.084-5.774 7.975z"/><path id="path7000-7_1_" class="st0" d="M41.47 53.363c-4.082-6.878-8.462-13.457-13.938-19.14 5.476-5.68 9.756-12.26 13.938-19.137 4.08 6.878 8.462 13.457 13.937 19.138-5.475 5.583-9.756 12.26-13.937 19.14z"/><path id="path7002-0_1_" class="st0" d="M123.9 106.094c-4.082-6.878-8.462-13.457-13.938-19.14 5.476-5.68 9.757-12.26 13.938-19.137 4.082 6.878 8.462 13.457 13.937 19.138-5.475 5.682-9.756 12.26-13.937 19.14z"/><path id="path7004-0_1_" class="st0" d="M41.47 106.094c-4.082-6.878-8.462-13.457-13.938-19.14 5.476-5.68 9.756-12.26 13.938-19.137 4.08 6.878 8.462 13.457 13.937 19.138-5.475 5.682-9.756 12.26-13.937 19.14z"/><path id="path7008-2_1_" class="st0" d="M82.685 132.41c-4.082-6.878-8.462-13.457-13.938-19.14 5.476-5.68 9.757-12.26 13.938-19.138 4.08 6.878 8.462 13.457 13.937 19.14-5.475 5.68-9.756 12.36-13.937 19.138z"/><path id="path7016-2_1_" class="st0" d="M41.47 211.556c-4.082-6.878-8.462-13.457-13.938-19.14 5.476-5.68 9.756-12.26 13.938-19.138 4.08 6.878 8.462 13.457 13.937 19.14-5.475 5.68-9.756 12.26-13.937 19.138z"/><path id="path7018-0_1_" class="st0" d="M123.9 211.556c-4.082-6.878-8.462-13.457-13.938-19.14 5.476-5.68 9.757-12.26 13.938-19.138 4.082 6.878 8.462 13.457 13.937 19.14-5.475 5.68-9.756 12.26-13.937 19.138z"/><path id="path7020-7_1_" class="st0" d="M123.9 158.825c-4.082-6.878-8.462-13.457-13.938-19.14 5.476-5.68 9.757-12.26 13.938-19.137 4.082 6.878 8.462 13.456 13.937 19.138-5.475 5.682-9.756 12.26-13.937 19.14z"/><path id="path7022-4_1_" class="st0" d="M41.47 158.725c-4.082-6.878-8.462-13.457-13.938-19.138 5.476-5.682 9.756-12.26 13.938-19.14 4.08 6.88 8.462 13.458 13.937 19.14-5.475 5.68-9.756 12.36-13.937 19.138z"/><path id="path29-5-3-7-8_1_" class="st0" d="M.155 21.266l2.39-.797c.895 2.39 2.787 3.188 4.678 2.99 3.485-.3 4.68-4.188 4.878-7.577-1.392 1.396-3.383 2.193-5.175 2.094-5.575-.3-6.97-4.785-7.07-9.37C-.342 4.72 1.35 1.827 4.138.532c1.593-.697 4.978-.697 6.47.1 3.386 1.794 4.68 4.884 4.38 12.26 0 6.08-1.293 13.16-7.863 13.358-3.684.498-6.57-2.392-6.97-4.984zm-.597 1.555c1.095-.696 1.792-1.394 2.29-2.39.398-.798.597-1.297.398-2.99-.3-4.387-2.59-6.88-5.974-6.38-1.89.298-2.887 1.295-3.484 3.29-1.095 3.587.3 7.774 2.887 8.77 1.195.4 2.987.3 3.883-.3z"/><path id="path29-6-2-9-2_1_" class="st0" d="M165.215 205.376l-2.39.797c-.896-2.392-2.787-3.19-4.68-2.99-3.483.3-4.678 4.186-4.877 7.575 1.394-1.395 3.385-2.193 5.177-2.093 5.575.3 6.97 4.785 7.068 9.37.2 3.887-1.493 6.778-4.28 8.074-1.494.697-4.88.697-6.372-.1-3.384-1.795-4.678-4.885-4.48-12.26 0-6.082 1.295-13.16 7.866-13.358 3.683-.6 6.57 2.392 6.97 4.984zm-18.773 15.503c-1.095.696-1.792 1.394-2.29 2.39-.398.798-.597 1.297-.398 2.99.3 4.387 2.59 6.88 5.974 6.38 1.89-.298 2.887-1.295 3.484-3.29 1.095-3.587-.3-7.774-2.887-8.77-1.195-.5-2.987-.3-3.883.3z"/></g></svg>