<svg xmlns="http://www.w3.org/2000/svg" width="166.8" height="226.6" viewBox="0 0 166.8 226.6"><style type="text/css">.st0{fill:#D40000;}</style><g id="g11338-3-7_1_"><path id="path9902-6-7_1_" class="st0" d="M8.182 44.765s-1.792-2.592-4.18-5.582c-1.594-1.994-2.888-4.187-2.988-6.08-.1-2.094 1.195-4.287 3.484-4.387 2.29-.1 3.286 1.595 3.684 3.09.398-1.395 1.294-3.19 3.683-3.09 2.29.1 3.584 2.293 3.485 4.386-.1 1.894-1.394 3.987-2.987 6.08-2.39 2.99-4.18 5.583-4.18 5.583z"/><path id="path9904-6-0_1_" class="st0" d="M158.608 181.825s-1.792 2.592-4.182 5.582c-1.592 1.994-2.887 4.186-2.986 6.08-.1 2.094 1.194 4.287 3.484 4.386 2.29.1 3.285-1.595 3.684-3.09.398 1.396 1.294 3.19 3.683 3.09 2.29-.1 3.585-2.292 3.486-4.386-.1-1.894-1.394-3.987-2.987-6.08-2.49-3.09-4.182-5.582-4.182-5.582z"/><path id="path9910-2-6_1_" class="st0" d="M42.13 53.337s-3.684-6.08-8.76-13.257c-3.386-4.785-6.074-9.968-6.273-14.454-.3-5.084 2.39-10.267 7.367-10.466 4.878-.2 6.87 3.987 7.666 7.376.796-3.49 2.787-7.675 7.665-7.376 4.878.2 7.566 5.382 7.367 10.466-.298 4.486-2.887 9.67-6.272 14.454-4.977 7.177-8.76 13.257-8.76 13.257z"/><path id="path9916-8-0_1_" class="st0" d="M124.56 53.337s-3.683-6.08-8.76-13.257c-3.385-4.785-6.073-9.968-6.272-14.454-.3-5.084 2.39-10.267 7.367-10.466 4.878-.2 6.87 3.987 7.665 7.376.797-3.49 2.788-7.675 7.666-7.376 4.878.2 7.566 5.382 7.367 10.466-.3 4.486-2.887 9.67-6.272 14.454-4.977 7.177-8.66 13.257-8.76 13.257z"/><path id="path9930-7-9_1_" class="st0" d="M124.56 173.252s-3.683 6.08-8.76 13.258c-3.385 4.784-6.073 9.968-6.272 14.453-.3 5.084 2.39 10.267 7.367 10.467 4.878.2 6.87-3.987 7.665-7.376.797 3.488 2.788 7.675 7.666 7.376 4.878-.2 7.566-5.383 7.367-10.467-.3-4.485-2.887-9.67-6.272-14.453-4.977-7.177-8.66-13.258-8.76-13.258z"/><path id="path9932-9-8_1_" class="st0" d="M42.13 173.252s-3.684 6.08-8.76 13.258c-3.386 4.784-6.074 9.968-6.273 14.453-.3 5.084 2.39 10.267 7.367 10.467 4.878.2 6.87-3.987 7.666-7.376.796 3.488 2.787 7.675 7.665 7.376 4.878-.2 7.566-5.383 7.367-10.467-.298-4.485-2.887-9.67-6.272-14.453-4.977-7.177-8.76-13.258-8.76-13.258z"/><path id="path19-3-8-2-9_1_" class="st0" d="M8.38 26.324V24.03h2.092v-3.787H.018v-2.69L11.368.107h1.89v17.444h3.187v2.69H13.26l-.1 3.79h1.692v2.292h-6.47zm34.21-339.36l-7.167 11.064h7.168v-11.064z"/><path id="path19-4-46-0-1-9_1_" class="st0" d="M158.41 200.266v2.292h-2.092v3.788h10.453v2.692l-11.348 17.444h-1.892v-17.444h-3.185v-2.692h3.185l.1-3.788h-1.792v-2.292h6.57zm30.7-298.93l7.167-11.064h-7.168v11.064z"/></g></svg>