<svg xmlns="http://www.w3.org/2000/svg" width="166.5" height="226.6" viewBox="0 0 166.5 226.6"><style type="text/css">.st0{fill:#D40000;}</style><g id="g11234-8-5_1_"><path id="path10106-2-3_1_" class="st0" d="M8.07 44.765s-1.793-2.592-4.183-5.582C2.295 37.19 1 34.996.9 33.103c-.1-2.094 1.195-4.287 3.485-4.387 2.29-.1 3.285 1.595 3.684 3.09.397-1.395 1.293-3.19 3.682-3.09 2.29.1 3.584 2.293 3.485 4.386-.1 1.894-1.394 3.987-2.987 6.08-2.39 2.99-4.18 5.583-4.18 5.583z"/><path id="path10108-3-1_1_" class="st0" d="M158.395 181.825s-1.792 2.592-4.18 5.582c-1.594 1.994-2.888 4.186-2.988 6.08-.1 2.094 1.195 4.287 3.484 4.386 2.29.1 3.287-1.595 3.685-3.09.398 1.396 1.294 3.19 3.683 3.09 2.29-.1 3.584-2.292 3.485-4.386-.1-1.894-1.394-3.987-2.987-6.08-2.39-3.09-4.18-5.582-4.18-5.582z"/><path id="path10110-3-5_1_" class="st0" d="M83.232 92.91s-3.684-6.08-8.76-13.257c-3.386-4.785-6.074-9.968-6.273-14.454-.3-5.085 2.388-10.268 7.366-10.467 4.878-.2 6.87 3.987 7.666 7.376.796-3.49 2.787-7.676 7.665-7.377 4.88.2 7.566 5.382 7.367 10.466-.298 4.485-2.887 9.668-6.272 14.453-4.977 7.077-8.76 13.257-8.76 13.257z"/><path id="path10114-8-3_1_" class="st0" d="M42.016 53.337s-3.683-6.08-8.76-13.257c-3.385-4.785-6.073-9.968-6.272-14.454-.3-5.084 2.39-10.267 7.367-10.466 4.88-.2 6.87 3.987 7.666 7.376.797-3.49 2.788-7.675 7.666-7.376 4.878.2 7.566 5.382 7.367 10.466-.3 4.486-2.888 9.67-6.273 14.454-5.077 7.177-8.76 13.257-8.76 13.257z"/><path id="path10116-2-5_1_" class="st0" d="M124.447 132.383s-3.683-6.08-8.76-13.257c-3.386-4.785-6.074-9.968-6.273-14.454-.298-5.083 2.39-10.267 7.367-10.466 4.88-.2 6.87 3.987 7.667 7.376.796-3.488 2.787-7.675 7.666-7.376 4.878.2 7.566 5.383 7.367 10.466-.3 4.486-2.887 9.67-6.272 14.454-4.978 7.177-8.76 13.257-8.76 13.257z"/><path id="path10120-6-5_1_" class="st0" d="M124.447 53.337s-3.683-6.08-8.76-13.257c-3.386-4.785-6.074-9.968-6.273-14.454-.298-5.084 2.39-10.267 7.367-10.466 4.88-.2 6.87 3.987 7.667 7.376.796-3.49 2.787-7.675 7.666-7.376 4.878.2 7.566 5.382 7.367 10.466-.3 4.486-2.887 9.67-6.272 14.454-4.978 7.177-8.76 13.257-8.76 13.257z"/><path id="path10124-1-1_1_" class="st0" d="M42.016 132.383s-3.683-6.08-8.76-13.257c-3.385-4.785-6.073-9.968-6.272-14.454-.3-5.083 2.39-10.267 7.367-10.466 4.88-.2 6.87 3.987 7.666 7.376.797-3.488 2.788-7.675 7.666-7.376 4.878.2 7.566 5.383 7.367 10.466-.3 4.486-2.888 9.67-6.273 14.454-5.077 7.177-8.76 13.257-8.76 13.257z"/><path id="path10134-7-3_1_" class="st0" d="M124.447 173.252s-3.683 6.08-8.76 13.258c-3.386 4.784-6.074 9.968-6.273 14.453-.298 5.084 2.39 10.267 7.367 10.467 4.88.2 6.87-3.987 7.667-7.377.796 3.49 2.787 7.676 7.666 7.377 4.878-.2 7.566-5.383 7.367-10.467-.3-4.485-2.887-9.67-6.272-14.453-4.978-7.177-8.76-13.258-8.76-13.258z"/><path id="path10136-5-7_1_" class="st0" d="M42.016 173.252s-3.683 6.08-8.76 13.258c-3.385 4.784-6.073 9.968-6.272 14.453-.3 5.084 2.39 10.267 7.367 10.467 4.88.2 6.87-3.987 7.666-7.377.797 3.49 2.788 7.676 7.666 7.377 4.878-.2 7.566-5.383 7.367-10.467-.3-4.485-2.888-9.67-6.273-14.453-5.077-7.177-8.76-13.258-8.76-13.258z"/><path id="path25-43-2-3-9_1_" class="st0" d="M3.987 26.324C5.68 17.154 7.57 10.274 12.35 2.9H2.592v3.19H.005V.007H14.34l1.792 2.79c-5.176 5.583-9.855 23.725-8.96 23.426H3.988z"/><path id="path25-7-0-2-8-2_1_" class="st0" d="M162.477 200.266c-1.693 9.17-3.584 16.048-8.363 23.424h9.856v-3.19h2.588v6.08h-14.336l-1.79-2.79c5.175-5.582 9.854-23.724 8.958-23.425l3.087-.1z"/></g></svg>