<!-- Generator: Adobe Illustrator 19.2.1, SVG Export Plug-In  -->
<svg version="1.1"
	 xmlns="http://www.w3.org/2000/svg" xmlns:xlink="http://www.w3.org/1999/xlink" xmlns:a="http://ns.adobe.com/AdobeSVGViewerExtensions/3.0/"
	 x="0px" y="0px" width="166.3px" height="226.6px" viewBox="0 0 166.3 226.6" style="enable-background:new 0 0 166.3 226.6;"
	 xml:space="preserve">
<style type="text/css">
	.st0{fill:#D40000;}
</style>
<defs>
</defs>
<g id="g11103-4-9_1_" transform="matrix(0.99553774,0,0,0.99680134,-159.99209,318.48631)">
	<g id="g10296-8-7_1_" transform="translate(3012.0013,-1064)">
	</g>
	<g id="g10302-2-0_1_" transform="translate(3038.5929,-1083.9055)">
	</g>
	<path id="path10308-5-1_1_" class="st0" d="M202.8-213.1
		c0,0-3.7-6.1-8.8-13.3c-3.4-4.8-6.1-10-6.3-14.5c-0.3-5.1,2.4-10.3,7.4-10.5c4.9-0.2,6.9,4,7.7,7.4c0.8-3.5,2.8-7.7,7.7-7.4
		c4.9,0.2,7.6,5.4,7.4,10.5c-0.3,4.5-2.9,9.7-6.3,14.5C206.6-219.2,202.8-213.1,202.8-213.1z"/>
	<path id="path10310-7-8_1_" class="st0" d="M168.7-274.6
		c0,0-1.8-2.6-4.2-5.6c-1.6-2-2.9-4.2-3-6.1c-0.1-2.1,1.2-4.3,3.5-4.4c2.3-0.1,3.3,1.6,3.7,3.1c0.4-1.4,1.3-3.2,3.7-3.1
		c2.3,0.1,3.6,2.3,3.5,4.4c-0.1,1.9-1.4,4-3,6.1C170.5-277.2,168.7-274.6,168.7-274.6z"/>
	<path id="path10312-3-5_1_" class="st0" d="M319.8-137.1
		c0,0-1.8,2.6-4.2,5.6c-1.6,2-2.9,4.2-3,6.1c-0.1,2.1,1.2,4.3,3.5,4.4c2.3,0.1,3.3-1.6,3.7-3.1c0.4,1.4,1.3,3.2,3.7,3.1
		c2.3-0.1,3.6-2.3,3.5-4.4c-0.1-1.9-1.4-4-3-6.1C321.5-134.6,319.8-137.1,319.8-137.1z"/>
	<path id="path10314-8-8_1_" class="st0" d="M244.2-231.9
		c0,0-3.7-6.1-8.8-13.3c-3.4-4.8-6.1-10-6.3-14.5c-0.3-5.1,2.4-10.3,7.4-10.5c4.9-0.2,6.9,4,7.7,7.4c0.8-3.5,2.8-7.7,7.7-7.4
		c4.9,0.2,7.6,5.4,7.4,10.5c-0.3,4.5-2.9,9.7-6.3,14.5C248-238,244.2-231.9,244.2-231.9z"/>
	<path id="path10318-3-7_1_" class="st0" d="M202.8-266
		c0,0-3.7-6.1-8.8-13.3c-3.4-4.8-6.1-10-6.3-14.5c-0.3-5.1,2.4-10.3,7.4-10.5c4.9-0.2,6.9,4,7.7,7.4c0.8-3.5,2.8-7.7,7.7-7.4
		c4.9,0.2,7.6,5.4,7.4,10.5c-0.3,4.5-2.9,9.7-6.3,14.5C206.6-272.1,202.8-266,202.8-266z"/>
	<path id="path10322-4-6_1_" class="st0" d="M285.7-213.1
		c0,0-3.7-6.1-8.8-13.3c-3.4-4.8-6.1-10-6.3-14.5c-0.3-5.1,2.4-10.3,7.4-10.5c4.9-0.2,6.9,4,7.7,7.4c0.8-3.5,2.8-7.7,7.7-7.4
		c4.9,0.2,7.6,5.4,7.4,10.5c-0.3,4.5-2.9,9.7-6.3,14.5C289.4-219.2,285.7-213.1,285.7-213.1z"/>
	<path id="path10324-9-8_1_" class="st0" d="M285.7-266
		c0,0-3.7-6.1-8.8-13.3c-3.4-4.8-6.1-10-6.3-14.5c-0.3-5.1,2.4-10.3,7.4-10.5c4.9-0.2,6.9,4,7.7,7.4c0.8-3.5,2.8-7.7,7.7-7.4
		c4.9,0.2,7.6,5.4,7.4,10.5c-0.3,4.5-2.9,9.7-6.3,14.5C289.4-272.1,285.7-266,285.7-266z"/>
	<path id="path10332-8-6_1_" class="st0" d="M244.2-179.8
		c0,0-3.7,6.1-8.8,13.3c-3.4,4.8-6.1,10-6.3,14.5c-0.3,5.1,2.4,10.3,7.4,10.5c4.9,0.2,6.9-4,7.7-7.4c0.8,3.5,2.8,7.7,7.7,7.4
		c4.9-0.2,7.6-5.4,7.4-10.5c-0.3-4.5-2.9-9.7-6.3-14.5C248-173.7,244.2-179.8,244.2-179.8z"/>
	<path id="path10334-5-0_1_" class="st0" d="M285.7-198.6
		c0,0-3.7,6.1-8.8,13.3c-3.4,4.8-6.1,10-6.3,14.5c-0.3,5.1,2.4,10.3,7.4,10.5c4.9,0.2,6.9-4,7.7-7.4c0.8,3.5,2.8,7.7,7.7,7.4
		c4.9-0.2,7.6-5.4,7.4-10.5c-0.3-4.5-2.9-9.7-6.3-14.5C289.4-192.5,285.7-198.6,285.7-198.6z"/>
	<path id="path10336-3-5_1_" class="st0" d="M202.8-198.6
		c0,0-3.7,6.1-8.8,13.3c-3.4,4.8-6.1,10-6.3,14.5c-0.3,5.1,2.4,10.3,7.4,10.5c4.9,0.2,6.9-4,7.7-7.4c0.8,3.5,2.8,7.7,7.7,7.4
		c4.9-0.2,7.6-5.4,7.4-10.5c-0.3-4.5-2.9-9.7-6.3-14.5C206.6-192.5,202.8-198.6,202.8-198.6z"/>
	<path id="path10338-2-9_1_" class="st0" d="M285.7-145.7
		c0,0-3.7,6.1-8.8,13.3c-3.4,4.8-6.1,10-6.3,14.5c-0.3,5.1,2.4,10.3,7.4,10.5c4.9,0.2,6.9-4,7.7-7.4c0.8,3.5,2.8,7.7,7.7,7.4
		c4.9-0.2,7.6-5.4,7.4-10.5c-0.3-4.5-2.9-9.7-6.3-14.5C289.4-139.6,285.7-145.7,285.7-145.7z"/>
	<path id="path10340-9-7_1_" class="st0" d="M202.8-145.7
		c0,0-3.7,6.1-8.8,13.3c-3.4,4.8-6.1,10-6.3,14.5c-0.3,5.1,2.4,10.3,7.4,10.5c4.9,0.2,6.9-4,7.7-7.4c0.8,3.5,2.8,7.7,7.7,7.4
		c4.9-0.2,7.6-5.4,7.4-10.5c-0.3-4.5-2.9-9.7-6.3-14.5C206.6-139.6,202.8-145.7,202.8-145.7z"/>
	<g id="g7724-24-8-9-7_1_" transform="matrix(1,0,0,0.9999803,1980.6157,-1572.2811)">
		<g id="g8345-9-7-5-1_1_">
			<path id="path31-8-2-9-8_1_" class="st0" d="M-1819.9,1279.2v-26.4h2.6v26.4H-1819.9z"/>
			<path id="path33-2-3-1-6_1_" class="st0" d="M-1809.8,1252.8c-2.5,0-4.4,2.3-4.4,5v16.3
				c0,2.8,2,5,4.4,5h1.4c2.5,0,4.4-2.2,4.4-5v-16.3c0-2.8-2-5-4.4-5H-1809.8z M-1809,1255.3c1.5,0,2.6,1.1,2.6,2.5v16.5
				c0,1.4-1.2,2.5-2.6,2.5s-2.6-1.1-2.6-2.5v-16.5C-1811.6,1256.4-1810.5,1255.3-1809,1255.3L-1809,1255.3z"/>
		</g>
	</g>
	<g id="g7724-2-5-0-2-7_1_" transform="matrix(-1,0,0,-0.9999803,4261.3055,-244.23701)">
		<g id="g8345-5-0-9-6-9_1_">
			<g id="g10963-5-1_1_" transform="translate(-5.30767,-0.32920043)">
				<path id="path31-1-3-2-1-5_1_" class="st0" d="M3938.8-125.3v-26.4h2.6v26.4H3938.8z"/>
				<path id="path33-5-5-3-3-1_1_" class="st0" d="M3949-151.7c-2.5,0-4.4,2.3-4.4,5v16.3
					c0,2.8,2,5,4.4,5h1.4c2.5,0,4.4-2.2,4.4-5v-16.3c0-2.8-2-5-4.4-5H3949z M3949.7-149.2c1.5,0,2.6,1.1,2.6,2.5v16.5
					c0,1.4-1.2,2.5-2.6,2.5s-2.6-1.1-2.6-2.5v-16.5C3947.1-148.1,3948.3-149.2,3949.7-149.2L3949.7-149.2z"/>
			</g>
		</g>
	</g>
</g>
</svg>
