<svg xmlns="http://www.w3.org/2000/svg" width="166.3" height="226.6" viewBox="0 0 166.3 226.6"><style type="text/css">.st0{fill:#D40000;}</style><g id="g11103-4-9_1_"><path id="path10308-5-1_1_" class="st0" d="M41.903 106.068s-3.684-6.08-8.76-13.258c-3.386-4.784-6.074-9.968-6.273-14.453-.298-5.084 2.39-10.267 7.367-10.467 4.878-.2 6.87 3.988 7.666 7.377.796-3.49 2.787-7.676 7.666-7.377 4.877.2 7.565 5.383 7.366 10.467-.3 4.485-2.887 9.67-6.272 14.453-4.978 7.177-8.76 13.258-8.76 13.258z"/><path id="path10310-7-8_1_" class="st0" d="M7.955 44.765s-1.792-2.592-4.18-5.582C2.18 37.19.886 34.996.786 33.103c-.1-2.094 1.195-4.287 3.485-4.387 2.29-.1 3.285 1.595 3.683 3.09.398-1.395 1.294-3.19 3.684-3.09 2.288.1 3.583 2.293 3.483 4.386-.1 1.894-1.394 3.987-2.987 6.08-2.39 2.99-4.18 5.583-4.18 5.583z"/><path id="path10312-3-5_1_" class="st0" d="M158.38 181.825s-1.79 2.592-4.18 5.582c-1.593 1.994-2.887 4.186-2.987 6.08-.1 2.094 1.195 4.287 3.484 4.386 2.29.1 3.286-1.595 3.684-3.09.4 1.396 1.295 3.19 3.684 3.09 2.29-.1 3.584-2.292 3.485-4.386-.1-1.894-1.395-3.987-2.988-6.08-2.49-3.09-4.18-5.582-4.18-5.582z"/><path id="path10314-8-8_1_" class="st0" d="M83.118 87.328s-3.683-6.08-8.76-13.257c-3.385-4.784-6.073-9.967-6.272-14.453-.3-5.084 2.39-10.267 7.367-10.466 4.878-.2 6.87 3.988 7.665 7.377.797-3.49 2.788-7.675 7.666-7.376 4.878.2 7.566 5.383 7.367 10.467-.298 4.486-2.886 9.67-6.27 14.454-4.98 7.178-8.762 13.258-8.762 13.258z"/><path id="path10318-3-7_1_" class="st0" d="M41.903 53.337s-3.684-6.08-8.76-13.257c-3.386-4.785-6.074-9.968-6.273-14.454-.298-5.084 2.39-10.267 7.367-10.466 4.878-.2 6.87 3.987 7.666 7.376.796-3.49 2.787-7.675 7.666-7.376 4.877.2 7.565 5.382 7.366 10.466-.3 4.486-2.887 9.67-6.272 14.454-4.978 7.177-8.76 13.257-8.76 13.257z"/><path id="path10322-4-6_1_" class="st0" d="M124.433 106.068s-3.683-6.08-8.76-13.258c-3.386-4.784-6.073-9.968-6.273-14.453-.298-5.084 2.39-10.267 7.367-10.467 4.88-.2 6.87 3.988 7.666 7.377.796-3.49 2.788-7.676 7.666-7.377 4.877.2 7.565 5.383 7.366 10.467-.3 4.485-2.887 9.67-6.272 14.453-5.077 7.177-8.76 13.258-8.76 13.258z"/><path id="path10324-9-8_1_" class="st0" d="M124.433 53.337s-3.683-6.08-8.76-13.257c-3.386-4.785-6.073-9.968-6.273-14.454-.298-5.084 2.39-10.267 7.367-10.466 4.88-.2 6.87 3.987 7.666 7.376.796-3.49 2.788-7.675 7.666-7.376 4.877.2 7.565 5.382 7.366 10.466-.3 4.486-2.887 9.67-6.272 14.454-5.077 7.177-8.76 13.257-8.76 13.257z"/><path id="path10332-8-6_1_" class="st0" d="M83.118 139.26s-3.683 6.082-8.76 13.26c-3.385 4.784-6.073 9.967-6.272 14.453-.3 5.083 2.39 10.267 7.367 10.466 4.878.198 6.87-3.988 7.665-7.377.797 3.488 2.788 7.675 7.666 7.376 4.878-.2 7.566-5.384 7.367-10.467-.298-4.486-2.886-9.67-6.27-14.454-4.98-7.178-8.762-13.26-8.762-13.26z"/><path id="path10334-5-0_1_" class="st0" d="M124.433 120.522s-3.683 6.08-8.76 13.257c-3.386 4.784-6.073 9.967-6.273 14.453-.298 5.083 2.39 10.267 7.367 10.466 4.88.198 6.87-3.988 7.666-7.377.796 3.49 2.788 7.675 7.666 7.376 4.877-.2 7.565-5.384 7.366-10.467-.3-4.486-2.887-9.67-6.272-14.454-5.077-7.178-8.76-13.258-8.76-13.258z"/><path id="path10336-3-5_1_" class="st0" d="M41.903 120.522s-3.684 6.08-8.76 13.257c-3.386 4.784-6.074 9.967-6.273 14.453-.298 5.083 2.39 10.267 7.367 10.466 4.878.198 6.87-3.988 7.666-7.377.796 3.49 2.787 7.675 7.666 7.376 4.877-.2 7.565-5.384 7.366-10.467-.3-4.486-2.887-9.67-6.272-14.454-4.978-7.178-8.76-13.258-8.76-13.258z"/><path id="path10338-2-9_1_" class="st0" d="M124.433 173.252s-3.683 6.08-8.76 13.258c-3.386 4.784-6.073 9.968-6.273 14.453-.298 5.084 2.39 10.267 7.367 10.467 4.88.2 6.87-3.987 7.666-7.376.796 3.488 2.788 7.675 7.666 7.376 4.877-.2 7.565-5.383 7.366-10.467-.3-4.485-2.887-9.67-6.272-14.453-5.077-7.177-8.76-13.258-8.76-13.258z"/><path id="path10340-9-7_1_" class="st0" d="M41.903 173.252s-3.684 6.08-8.76 13.258c-3.386 4.784-6.074 9.968-6.273 14.453-.298 5.084 2.39 10.267 7.367 10.467 4.878.2 6.87-3.987 7.666-7.376.796 3.488 2.787 7.675 7.666 7.376 4.877-.2 7.565-5.383 7.366-10.467-.3-4.485-2.887-9.67-6.272-14.453-4.978-7.177-8.76-13.258-8.76-13.258z"/><g id="g8345-9-7-5-1_1_"><path id="path31-8-2-9-8_1_" class="st0" d="M-.834 26.596V.276h2.59v26.32h-2.59z"/><path id="path33-2-3-1-6_1_" class="st0" d="M9.225.276c-2.49 0-4.382 2.293-4.382 4.985v16.252c0 2.79 1.992 4.985 4.382 4.985h1.395c2.49 0 4.382-2.194 4.382-4.985V5.262c0-2.793-1.992-4.986-4.382-4.986H9.225zm-1818.228 1255.016c1.494 0 2.59 1.097 2.59 2.493v16.45c0 1.396-1.196 2.493-2.59 2.493s-2.59-1.097-2.59-2.493v-16.45c0-1.396 1.096-2.493 2.59-2.493z"/></g><g id="g10963-5-1_1_"><path id="path31-1-3-2-1-5_1_" class="st0" d="M164.54 200.283v26.32h-2.59v-26.32h2.59z"/><path id="path33-5-5-3-3-1_1_" class="st0" d="M154.38 226.604c2.49 0 4.382-2.293 4.382-4.985v-16.252c0-2.792-1.992-4.985-4.382-4.985h-1.394c-2.49 0-4.383 2.193-4.383 4.985v16.25c0 2.793 1.992 4.986 4.383 4.986h1.394zm3793.923-380.796c-1.494 0-2.59-1.097-2.59-2.493v-16.45c0-1.396 1.195-2.493 2.59-2.493s2.59 1.097 2.59 2.492v16.45c0 1.397-1.196 2.494-2.59 2.494z"/></g></g></svg>