<svg xmlns="http://www.w3.org/2000/svg" width="166.7" height="225.6" viewBox="0 0 166.7 225.6"><style type="text/css">.st0{fill:#D40000;} .st1{fill:#E2CF00;} .st2{fill:#131F67;}</style><g id="g6155_1_"><path id="path163-0-2-7-7-1-8-7-00-1-2_1_" class="st0" d="M7.53 43.753s-1.8-2.5-4.2-5.5c-1.6-2-2.9-4.2-3-6-.1-2.1 1.2-4.3 3.5-4.4 2.3-.1 3.3 1.6 3.7 3.1.4-1.4 1.3-3.2 3.7-3.1 2.3.1 3.6 2.2 3.5 4.4-.1 1.9-1.4 4-3 6-2.4 3-4.2 5.5-4.2 5.5z"/><path id="path163-0-2-7-7-1-8-1-9-4-6-8_1_" class="st0" d="M157.83 180.853s-1.8 2.5-4.2 5.5c-1.6 2-2.9 4.2-3 6-.1 2.1 1.2 4.3 3.5 4.4 2.3.1 3.3-1.6 3.7-3.1.4 1.4 1.3 3.2 3.7 3.1 2.3-.1 3.6-2.2 3.5-4.4-.1-1.9-1.4-4-3-6-2.4-3-4.2-5.5-4.2-5.5z"/><path id="path39-51-8-0-0_1_" class="st0" d="M9.43 23.453h2.6l-3.9-9.7-3 4.1v5.6h2.1v2.9H.03v-2.9h2.4v-20.9H.03v-2.6h7.5v2.6h-2.1v10.2l6.5-10.3h-2.3v-2.5h7.9v2.5h-2.1l-5.4 8.5 5.2 12.5h2.3v2.9h-8.2l.1-2.9z"/><path id="path39-3-9-6-0-8_1_" class="st0" d="M157.23 202.153h-2.6l3.9 9.7 3-4.1v-5.6h-2.1v-2.9h7.3v2.9h-2.4v20.9h2.4v2.5h-7.5v-2.6h2.1v-10.2l-6.5 10.3h2.3v2.5h-7.9v-2.5h2.1l5.4-8.4-5.2-12.5h-2.5v-2.9h8.2v2.9z"/><path id="path3876-2-1-7_1_" class="st1" d="M58.33 198.853c14 1.6 28.3 2 43 .9 3.8 5.3 11.4 16.1 11.4 16.1l-69.3.6 14.9-17.6zm-12.03 10.247c1.9-3.8 2.2-7.4 1.9-12.7-.3-4 2.2-7.2 4.8-6 2 .9 1.1 4.7-1 3.9-.8-.3-1.5 0-1.4 1.8.2 4.5 1.4 9.5.3 13.8-.6 4.2-6.3 2.3-4.6-.8zm-17.4-5.8c-2.2-3.3 1.7-6.4 4.2-4.9 1.2.5 1 1.7-.5 1.1-2-.9-4.3 2.3-2.5 3.5.8.6 1.1.5.5-.2-1.7-1.9 2.6-2.8 2.5-1.5-.3 1.6-.3 2.2-.5 2.5-.8 1.4-2.4.7-3.7-.5zm6.1-13.9c-2.4-3 .3-5.3.3-5.2.7-.8-5.6-12.7-4.8-12.8 8-.9 16.1-.2 24.1 0 0 0-4.3 7.8-6 11.6-.7 1.5.9 3.4.3 4.5-2.1 2.3-.8 4.8-2.1 4.9-3.3-.6-6.8-1-11.1 0-.3 0-.2-2-.7-3zm34.6-82.8c4 20.8-1.9 42.8-15.6 57.3-1.9-1.9-3.4-5.4-5.3-7.7-5.3-1.6-9.2.3-12.9 2.2-3.3-1.9-7.1-3.1-10.7-3l-.1-3.2c3.7-.1 7.6.3 10.9 2.3l5.1-2.1-16.1-16.8.2-2.9 19.5 19.8 2.5.1c-5.5-14.8-.6-38.3 22.5-46zm27.2 26.1l2.8 13.6s-15.8 15.8-24.1 23.9l-6.9-.6c3.5-5.2 5.4-10.5 7.7-15.7l20.5-21.2zm56 18.6c-6.6 7.5-14.5 12.2-23.3 17.5-3.5-4-7.8-8.3-10.2-12.2 7.7-4.1 15-7.3 22.5-14.6-.4.5-9.6 3.6-9.5 3.2-.3 1.5-.1 2.5-1.6 2.9-1.8-2.5-3.5-4.5-6.2-5.6-1.2.1-2.7-.7-2.7-.7.8-.2.4-9.7 0-9.8.9-.3 1.7-.9 2.9.4.5.4 5.8-5 7.6-6.8 7.1-.6 13.3.1 20.2-.1-.2 8.5.3 17.3.3 25.8zM108 129.8c-.2-.4-2-14.4-.3-23.2 4.6-14.8 3.5-19 15.5-33.6.8-.8 3.5 1.7 5.6 6.1 6 3.8 13.7-1.1 13.7-1.1s3 2.5 9.7 3.8l-.1 2.6c0 .8-7.6-.8-9.2-2.4 0 0-5.7 1.9-5.7 2.2 0 1.5 15.1 15.5 15.1 15.5l-.1 3.3c.1 0-20.6-21.7-20.9-19.4 5.9 25.6-4.1 38.5-23.3 46.2zm-24.9-4.5l-.3-13.5 12.7.2.5 13.6-12.9-.3zM25 110.7c.3-.5-.5-25.1-.4-25.1 8.1-8.1 16-12.7 23.9-17.6 3.6 3.6 6.6 6.6 9.3 11l-10.9 6.8c.4 1.7-.7 2.3 6.4 8.7.1-.4 2.4-1.8 2.8.2-1 4.1.4 7.7.6 9.9-1 1.3-3.1-.1-3.1-.1-1.4-1.5-6.8 5.8-8.4 6.6-6.9-.3-20.6.2-20.2-.4zm76.4-43.8c0 .1 7 0 6.9.2-1.3 3.1-4.1 9.4-7 16.2-2.4 4-19.7 20.7-19.7 20.7-.8-4.8-2-9.6-3.3-14.3l23.1-22.8zm29.9-23.3c2.5 1.1 9.5.5 10.6 0 1.4 1 .5 2.3.4 3 1.5 1.9 2.3 2.5.6 5.6-.4 0 5.1 12.5 5.3 12.5 0 0-5.8-2.8-7.9-4.7l-4 5.4-4.7-6.1c0 .5-9 6.6-9.1 6.3-.3-.3 8.2-9.5 6.5-14.9-.4-1.3.5-2.6 1.2-3.8.5-.7-.1-2.2 1.1-3.3zm-4.6-1.1c.4-.4-2.2-11.8.6-16.3 1.2-1.7 3.3-1.7 4.2-.4.7 1.9-1.3 4.5-1.7 5.8-1.3 3.6.6 8.3-.3 11.7-2.9 7.4-8-.7-2.8-.8zm18.9-5c-1.5.1-.5-4.5-.2-5.8 0-.3 2.7-.9 3.7.9 1.7 2.7-.2 6-3.5 4.9zm-17.9-22.9L113.6 32c-14.3-1.7-28.6-2.7-43.2-.5L58.6 15l69.1-.4z"/><path id="path3874-3-1-4_1_" class="st2" d="M148.03 7.053H17.43v210.5h130.6V7.053zm-20.43 7.647L112 34.1l-.4.1c1 3.1 2.5 6.9 4 9.9 2.3 4.7 8 13.4 4.4 20.4-.3.6-.7.9-1.1.9-.6 0-.6-.4-.2-1.1.8-1.5 1.3-5.2 1-7.1-.2-1.2-.9-3.1-2.2-6-5.9-11.1-7.8-17-7.5-17-.1-.1-.2-.1-.4-.2l-.6-.2c2.1 7 5.4 12.9 8.1 18.4 2.2 5.1 2.4 7 1.3 10.7-.4 1.4-1.2 2.3-2 2.3-.6 0-.6-.1-.2-.8 2.1-3.8 1.6-7.9-1-12.7-3.8-7.9-6-12.9-7.4-18 0 0-.7-.2-.9-.3 1.1 5.3 4.2 11.4 7.1 17.7 2.4 4.8 3.1 8.3 2.2 11.1-.3 1.2-1.2 3-2.3 3-.4 0-.5-.2-.1-.9 1.8-3.1 2.1-5.9-1.1-12.4-2.9-6-5.9-12.6-6.9-18.4-.1-.5-1.3-1-1.1-.3 1.6 6.9 4.7 13.9 8 20.8 1.9 4.3 2.1 7 .7 9.4-.8 1.3-1 1.6-1.6 1.6-.7 0-.7 0-.3-.8 1.7-3.6 1.4-6.7-.8-11.9-3.1-7.1-5.7-13-6.8-19.2-.2-.1-1.3-.5-1.1-.2 1.6 6 3.5 11.5 6.1 17.1.9 1.9 2.3 5.7 2.8 7.6.9 3.6-1.1 8.5-3.7 8.8-1 .1-.9-.4.2-1.4 1.9-1.8 2.2-4.6 1.6-7.8-.5-2.5-1.3-5.2-2.4-7.9-2.3-5.5-4.8-11.3-5.6-16.4 0-.5-1-.5-.7 0 .6 3.6 1.9 7.7 3.4 11.5 1.6 4.2 4 8.8 4.8 13.9.6 4.2-1.9 8.1-5.1 8.3-3.8.3-4.5-3.5-3.6-5.3 1.5-2.6 5.8-1.1 4.5 1.6-.7 1.6-3 1.1-2.9-.6 0-.2.2-.6.2-.6-.1 0-.4.3-.5.4-.8 1.4 1.5 3.2 3.1 2.1 5.3-2.9 1.7-11.8-.6-17.3-2.2-5.1-3.9-9.6-4.6-14.3-.2-.1-1.1-.4-1-.2.6 2.5.9 4.6 1.6 6.7 1 3.3 2.8 7 4.3 10.7 1.3 3.6 2.7 6.7 2.1 10.5-.1.4-.2.8-.4 1-.2.3-.4.2-.5-.8 0-.1-.2-.3-.2-.5.1-1.4 0-2.8-.3-4.2-.3-1.1-.9-2.3-2.2-4.5-.5-.8-1.8-3.3-1.3-1.6.3 1 1.1 3.1 2.1 4.7.6 1 1.2 3.6 1 4.1-.2.5-.6.5-.8.4-.2-.2-.2-.9-.2-1.3-.2-1.8-2-4.9-3.3-6.2-.9-1 2.1 4.4 2.4 5.8.1.6.3 1.1.1 1.4-.1.2-.4.2-.7.1-.3-.1-.2-.2-.5-1.2-.5-1.6-1-2.4-2.2-3.8-.4-.5-.7.1 0 .9.9 1.4 1.6 2.4 1.8 4.2-.6.8-.9.7-2.1-1.5-1.1-1-1.5-1.3-1.8-1.3-.5 0 0 .7 1.5 3.1.8 1.3.8 2.1-.1 2.1-.3 0-2-1.9-2.4-2.7-.4-.7-.8-1.2-.8-.4 0 .3 1 2.1 1.8 2.9 1.1 1.3 1.5 1.6 1.6 2.2.1.3.2.8.3 1.1.3 1 .1 1.2-.4.7-.3-.7-.5-.8-1.2-1.3-.6-.5-1.5-1.6-2-2.5-.2-.3-.4-.7-.6-1-.5-1-1.3-1.1-.7-.1.2.5.7 1.3 1.1 1.9.7 1 .6 1.6-.3 1.6-.4 0-1.4-1.3-2-2.4-.4-.7-1.1-1.2-1-.5 0 .2.5 1.4 1.3 2.3.8 1 .9 1.6.1 1.6-.5 0-1-.5-1.7-1.6-.6-1-1.1-1.4-1.2-1.2-.2.1.9 2.1 1.9 3.2.9 1 .2 1.6-.8.7-.6-.5-1.7-2-2-2.7-.6-1.3-.9-.9-.6.1.4 1.1 1 2.3 1.8 3.1.4.4 1.2.7 1.6 1.1 1.1 1 1.9 1.9 1.8 2.1-3.2.2-5.9-3.3-6.6-5.4-.5-1.4-1.1-1.6-.5.4 1.6 4.9 6.5 7.4 9.9 5.2 2.1-1.3.2-4.8-1.4-3.6-.5.3-.5 1.2.1.7 1.1-.9 2.2 1.3 1 1.9-1.7.9-3.5-.8-2.4-2.9 1.1-2.1 5.6-.9 4.7 2.5-.5 1.6-2.9 3.5-4.9 3.5-3.7.1-6.3-2.8-7.7-5.7-.2-.4-.5-1.1-.8-1.7-.2-.5-.4-.9-.4-.9.4 3.5 3.7 7.8 6.6 8.5 4.9 1.2 6.2-1.8 9.4-4.8 0 0 2.3.3 2.4.3.2-.1 4.5-.3 4.7-.2-17.4 32-16.1 69.9-1.1 98.7 1 2.1 1.2 1.7-.5 1.3-1.7-.4-3.2.2-4.6-.1-2.8-.6-3.5 1.4-5.6 2.4-2.7 1-2.1 3-2.8 4.8-.2.3-.4.5-.2.5.2-.1.8-.6.8-1.1.1-1.2.5-2.2 1-2.7s.8-.7.9-.5c.1.2 0 .7-.2 1.2-.7 1.3.2 5.5.3 2.5 0-2.4 1.5-5.1 3.5-6.2 1.6-.8 2.1-.7.8.5-1.5 1.6-2.5 3.5-2.6 5.8 0 1 .4 1.8.5.9-.1-4.4 4.3-9.3 9-6.9.2.2.4.5.4.7-4.5-.8-8.5 1.7-7.9 7.7 0 0 .4-1.2.6-2.3.7-3.6 4.8-5.2 7.6-4.2.5.2 1 1 .9 1.1-3.5-1.1-7.3 2.2-7.5 5.8-.1 1.2 0 2.2.5.1 2.3-8 9.2-4.4 8.3-3.7-5.4-.6-7.3 3-7.2 7.2.1.4.3.5.4.9.7 1.6 1 3 1.1 5.9-.1.7.6 5.5-.1 5.3-2-.7-3.4-1.6-6.8-.1-.3 0-.4-.2-.3-.4.1-.4.7-1.1 1.6-2.1 2.1-2.2.9-1.6-.8-.1-1.1 1-.9.3.2-3.1.4-1.4.2-1.6-1.7-2.5-1.9-1-3.2-1.1-1.6-.1.6.4 1.3.8 2 1.1.8.5.7.6.1 2.7-1.2 3.9-1.6 5.3-1.5 7.9.2 6.4 6.1 5.7 9.6 4.3l.1 4.2 12.9 18.3s-44.9 0-69 .4c1.4-3.3 15.9-17.5 16.8-20 .1 0-1.6-5.2-2.5-7.4-4.2-10.6-9.7-15.1-6.5-22.1.7-1.4.8-1.9 1.3-1.8.7 0 .9.5.1 1.8-3.4 5.8 3.9 15.9 6.4 22.3.4 1 2.1 5.8 2.3 7.5 0 .5 1.2.7.9.1-.9-3.3-2.1-6.9-2.6-8.1-2-4.7-4-8-5.9-12.6-1.1-2.9-1.6-6.3 0-9.3.6-1.1.8-1.7 1.2-1.8.3 0 .5.1.6.4 0 .3-.2.8-.6 1.6-2.9 5 2.2 13 4.8 18.7 1.7 3.7 3.1 7.7 3.7 11.2 0 .2.3.9 1 .5-1.1-6.6-4.3-13-7.2-19.2-2.4-4.8-3.3-9-.1-13 .3-.3.9-.2.9.2 0 .3-.2.8-.7 1.9-2.8 6 1.6 10.9 3.6 16.7 2 4.8 3.9 8.8 4.6 14 .6.2.9.5.9-.2-1.5-7.2-4.7-13.7-7.4-20-1.3-2.7-1.7-4-1.8-5.8-.1-2.5 1.1-5.7 2.2-6.5.3-.2.5-.3.7-.1.4.2.3.3-.4 1.7-1.4 2.6-1.5 5.6-.2 8.7 2.2 4.8 4 8.7 5.4 12.2 1.4 3.8 2.2 7.2 2.6 10.2 0 0 1 .4.8-.2-.6-4.2-2-8.6-3.5-12.3-1.4-3.5-3.2-6.9-4.6-10.3-1.7-4.2-.3-8.7 3.2-11h1.6c-.1 0-3.7 1.4-3.9 6.7-.2 5 2.2 8.1 3.8 12.3 2.1 5.1 3.9 9.6 4.3 15 .2.2 1.1.2 1 .2-.4-3.7-1.5-7.2-3-11.4-1.6-4.6-3.2-6.6-4.7-11.4-1-3.2-.9-7.6 1.4-9.6 3.4-3.4 8.1-1 6.9 2.9-.9 2.8-4.7 2.2-4.6-.4 0-1.7 2-2.1 2.7-.9.2.2.3 1.3.3 1.4.1 0 .3-.8.3-1 0-1.4-1.8-2.5-3.2-1.8-1.9 1-3.1 3.2-3 6.1.1 3.1.7 5.2 3.2 10.1 3 5.7 3.9 11.9 4.6 16.1.3-.1.6 0 .7 0-.4-5.7-2.3-11.5-4.6-16.4-2.8-5.9-3.6-9.5-2.6-12.1.1-.4.3-.7.4-.7.3 0 .4.5.7 1.5.1.3 0 .8-.1 1.2-.2 2.4 1.4 7.4 3 9.7.5.6 1 .6.5-.5-1.6-2.9-2.6-5.6-2.7-9.1 0-1 1.2-.6 1.2-.1.1 1.7.3 3.7 1.1 5.1 1.6 2.8 2.5 2.9.9-.2-.4-.7-1.4-3.8-1-4.9.2-.2.5-.3.7 0 .5 1.7 1.1 3.5 2.3 4.8.6.7.7.4.4-.5-.5-1-2.2-4.4-1.4-5.1.2-.2.1-.1.8 1 .9 1.5 1.4 2.1 1.9 2.6.6.6.7.2.1-.9-1.2-2.1-2-3.8-1.5-4.3.4-.4.5-.2 1.5 1.5.4.8 1.1 1.9 1.3 2.1.2.3.4.3.4.1-.2-2-2-4.4-2.7-4.8-.1-.2-.1-1.8-.1-1.8 2.6 1.4 2.7 2.9 4.4 5.2.2.2.4 0 .4-.4-.1-.4-1.1-2.4-1.7-3.3-.5-.7-.5-1.1-.1-1.3.7-.3 1.7.7 2.7 2.6.5.9 1.1 1.4 1.1.9 0-.2-.9-2.5-1.5-3.1-1-1.1-.5-1.8.7-.8.5.4 1.3.8 2 2.4.4 1 .8 1.1.8.3 0-.9-1.4-2.9-2.4-3.5-.7-.4-1.2-.9-1-1.3.6-1 3.3 1.5 4.2 3.8.3.7.7 1 .8.7.2-.2-.3-1.8-.9-2.6-.9-1.7-3-3.4-4.3-3.2-.2 0-.9-1.4-.9-1.4 3.2-.5 6.3 3.4 6.9 4.8 1.1 2.8 1.6 2.4.7 0-1.8-4.7-7.4-7.4-10.5-5.1-1.8 1.3-.7 4.4 1.1 3.9.7-.3 1.4-1 .2-.8-1.4.1-1.9-2-.4-2.5 2.3-.7 2.9 3 1 3.9-1.9.8-3.9-.4-3.7-2.6.3-4.1 5.3-5.3 10.2-2 1.4.9 3.1 3.9 3.6 5.9.2.6.8.9.9.8.2-.2-1.4-3.6-1.9-4.4-2.1-4.9-9.8-5.2-9.8-4.9 0 0-3 1.9-5.7 5.1l-6.9-.6c17.5-28.4 18.9-70.3.9-99.9.2.2 3.5 1 4.6.1.8-.4 1.1-.5 2-.2 1 .4 2.1 0 3.2-1 .8-.8.9-1 1.4-.9 1.6.2 2.7-.7 3-3.1.1-.9.2-1.9.1-1.7-.1.1-.3.9-.4 1.4-.3 1.4-.6 1.9-1.1 2.3-.9.7-1.4.3-1-.8.3-.7.6-2.6.2-3.4-.1-.2-.1.4-.2.9-.9 3.6-1.9 5.5-3.7 5.9-.8.2-1.2.1-.9-.4 3-3.3 2.8-6.9 2.6-6.6-.6 2.1-1.8 5.2-3.8 6.5-1.7 1.1-4.2 1.2-5.6.3-.8-.5.4-.7 2.2-.7 3 0 5.8-4.1 5.3-7.5-.1-.6-.3 0-.5 1.1-1.1 3.7-3 6.3-7.3 5.5-.3-.1-.6-.3-.7-.4-.7-.5-.4-.8 1-.6 3.1.4 5.9-2.6 5.8-6.1 0-1.7-.3-1.7-.5-.4-.4 1.8-1.8 7.3-6.8 5.5-.9-.5-1.4-1.1-1.1-1.2 3 .6 5.7-.1 6.7-4 .5-1.7.3-3.3-.1-4.7-.1-.9-.5-1.7-.6-2.6-.3-2.6-.7-5.4-.6-8.2.2-.2.3-.2 1.1.4 1.7 1.1 2.9.9 4.6.2 2.2-.8 2-.7-.3 2-.5.5-1 1.2-1 1.3-.6 1.1.5.3 1.3-.7 1.1-1.4 1.4-1.8 1.6-1.8.1 1.6-.5 3.4-.8 4.7-.4 1.4-.4 1.7.5 2.1.4.2 1.1.5 1.5.7 1.9.9 1.7.2.2-.7-2-1.1-2-1.1-1.5-3 .7-2.2 1-4.2 1.4-6.4.9-5.5-3.2-8.5-8.6-6.6-.3.2-.7-2.9-.6-3.7 0-.3-.8-.2-1.5-1.1.2-.2-8-10.6-11.8-16.9 23.6-.8 47.1-1.3 68.6-1.2zM110 34.2s.1.1 0 0zm18.6-19.1h23.6v50.3l-2.3.1s-3.8-6.7-4.9-9.8c-.3-.8-.7-1.9-.9-2.3-.4-1-.7-1.1-.1-1.7 1-1.2.8-3.6-.2-4.7-.3-.4-.5-.2-.5-1.2 0-.8.1-1.3-.1-1.7-.3-.7-.6-.7-.1-1.5s1.2-2 1.5-3c.5-1.6.1-1.9 1.2-1.5 2.6.8 4.8-1 4.7-3.7-.1-2.2-2.1-4.2-4.5-3.6-.6.1-.7.1-1.5-.4-.2-.2-.6-.5-.9-.6-.4-.2-.7-.1-.9-.4-.3-.6-1.3-1.4-2.5-1.4-.7 0-1.7-.2-2-.4-.4-.2-1.6 0-3.1-.3-.7-.1-1.2.2-1.5.2-.9 0-.6-.1-.7-.8-1.2-3.7-4.6-3.3-6.1-.5-.6 1.1-1 2.7-1.2 4.4l-9.2-.1 12.2-15.4zm-71.2.2c3.4 4.4 6.7 9.4 10.2 13.9 4.3 5.5 4.4 6.1 3.3 11.6-.6 3.1-.9 3.8-2.2 3.6-1.2-.2-2.2.7-2.4 2-.3 2.3 1.9 3.7 4.1 2.6 1.2-.6 1.2-.7.8 1.3-.6 2.9-1.7 5.3-2.4 5.3-1.8-4-6.3-1.1-4.8 3-.5.7.1 1.6.4 2.4 0 0 0 .1-2.6.9-12.6 3.8-28 13.6-36.5 22.9V15.4l32.1-.1zm72.3 9.4c.5 0 1 .2 1.5.5 1.1 1 .8 2.4-.7 5-1.6 3.7-1.2 6.5-.8 10.4 0 2.2-.8 4.3-1.9 5.3-1.9 1.5-4.3-.5-3.3-2.5.5-1 1.6-.4 1.9-1.4.4-3.5-.5-7.1-.6-10.5 0-1.5.5-3.5 1.2-4.9.6-1.2 1.7-1.9 2.7-1.9zm3.1 6c-.4.4-1.2.4-1.2-.1s.4-2 .6-2.2c1.5-.4 1 1.9.6 2.3zm2.3-2.4c1.3-.1 2.2 3.3 1 5.3-.2 0-1.8 0-1.8.1 0-.4.1-1.1.2-1.7.1-.6.2-1 0-1.6-.4-1.7-.7-2 .6-2.1zm2.5 0h.2c1.3 0 2.1 2.6 1.7 5.4-.1.4-.1.8-.2.9-.6-.2-2.1.4-2.1.4-.1-.1-.1-1 .1-1.7.4-1.3.5-2.2 0-3.6-.4-1.1-.4-1.4.3-1.4zm3.3.8c1.5.2 1.5 4.3 1 5.6-.1.2-.7.1-.9.2-1.2.4-1 .5-.8-1.4.1-1.4.1-2.4-.1-3.6-.1-.5-.1-.8.2-.9.2 0 .4 0 .6.1zm-7.2 1.6c.6.8.1 2.7-.3 3.3-.5.8-.7.8-.4 1.2.1.1.4.9.2 1.2-.3.6.4.7 1.1 1 1 .6 1.6 1.6 2.3 3.4.3.6.8.4.6-.3-.2-.6-.3-1.5-.5-2.1-.2-.6 0-.9.7-.7 1 .3.9 0 1.3-.1.8-.5 1.4.2.9.6-.3.2-.9.3-1.6.5-.6.2-.4.7.1.7s2.1-.4 3.1-.7c2.9-.9 3-1.3 2.7.3-.4 2.2-1.5 3.8-3.5 4.4-1.7.5-5.6.4-7.4-.2-1.7-.8-1.8-1.3-2.3-2.8-.7-2-1.1-5.4-.3-7.4.7-1.7.6-1.5 1.3-1.4.6.2 1.4 0 1.6-.4 0-.2.3-.6.4-.5zm11 1.2c.2.9.2 1.8-.1 2.5-.2.3-1.2.3-1.6.3-.2.1-.2-3 0-3.4.6-.9 1.3-.2 1.7.6zm-29.2-.6h2.8v.7h-3.4l.6-.7zm10 .2v.9h-4.3v5.7h4.8v1.2h-6.4v-7.8h5.9zm21.7-.2c4.4 1 2.4 5.9.8 6.2-2.1.4-3.8.1-3.2-1.7.6-1.2.2-2.8.3-3.9.4-.4 1.5-.8 2.1-.6zM114.1 33h4.2v1h-4.8l.6-1zm9.4.9c.7 0 1.2.6 1.2 1.2 0 .7-.5 1.2-1.2 1.2s-1.2-.6-1.2-1.2c0-.7.5-1.2 1.2-1.2zm11.9.5c.8.1.9 1.3.5 1.7-.4.4-1.2.2-1.4-.4-.2-.6.3-1.4.9-1.3zm-22.4.5h5.4v.8h-5.5l-.1-.5.2-.3zm30.4.3c.7 0 1.2.6.7 1.2-.7.8-2.1-.4-.7-1.2zm-57.6 1.7c-1.2 1-.2 2.1 1.4 1.1 3.5-2.1 8.6-.4 11.9 1.3.7.3.7-.5.1-1-3.1-2.8-9.7-4.3-13.4-1.4zm52.4-1.5c.8 0 .8 1.1.3 1.5-.5.2-.6.2-1 0-.5-.2-.2-1.5.7-1.5zm2.9.1c1 .1.9 2.1-.6 1.4-.5-.7-.2-1.4.6-1.4zm-27.9 1h5.3v.9l-4.9-.1-.4-.8zm-33.9 2.1c1.4 1.2 1 1.2-1.4.4-1.6-.4-3.1-.1-4.1.3-1.2.5-1.4.3-.9-.5 1.3-1.6 5-1.3 6.4-.2zm6.9 1.9c-.1.4-.6-.3-1.3-.2-1 .2-.7.2.3 1.4s1.3 1.4 1.3 1.9c-.1.7.1 1 .7.9.3 0 .7.3 1.2.8 1.6 1.5 2.5 2.3 3 2.5 2.2 1 1.2-.1-.2-1.1-2.3-1.6-3.1-2.7-1.5-2.1 1.8.6 4.5.3 5.9-.6.7-.4 1.1-1 2.1-.7 1.3.4 1.8-.4 1.5-.8-.6-.4-2-.9-3.3-1.8-2.8-1.4-5.8-1.4-7.7-.2-1.2.7-1.6.2-.4-.5 4.6-2.5 8.2-.1 11.1 1.7.5.3.9.3.9.1-.1-.7-1.4-1.2-1.9-1.5-4.3-2.6-8.5-3.4-11.7.2zm27.7-2.2h4.6v.9h-4.2l-.4-.9zm-37.1 1.1c1.3 0 4 1.1 4 2.1-.1.4-.7 0-1.3-.3-1.2-.7-2.9-.9-4.6-.6-1.3.2-1.7.5-1.9.3-.5-1 2.6-1.5 3.8-1.5zm49.3.7v1.6c-2.5.2-3 3-1.4 4.5 1.3 1.3 3.5.8 4.5-1 .2-.3.2-.5.3-.4.1.1.1.4.2.7.2.9-.1 1.1-.6 1.8-.9 1.2-1 2.7-.5 3.8.2.3.5.7.4.9.3 0-2.8 8.9-7.4 13.4-.8.5-1.3-.1-.9-.9 3.7-8.6-3.4-16.7-6.2-24.4h11.6zM93 41.6l.7.1c-.5 4-4.3 3.3-4.5.1h.5c.8 2.9 3.3 1.7 3.3-.2zm-21.5.1s.3.4.3.7v2.7c-.2 3.8-5 4.5-4.6 1.3.3-1.4 2-1.5 2.4-.3.6 1.6.7-.4.7-1 .5-1 .8-2.2 1.2-3.4zm23.1.2c.2 0 .5.2.8.5.3.3.2.5-.5.9-.8.4-1.2.4-.9-.5.2-.5.3-.9.6-.9zm35.8.3c.1 0 .4.1.3.6-.1.7-.7 1.1-.9.9.2-.4.3-1.4.6-1.5zm-41.5 1.3c-.1.3-.3.2-.7-.2-.5-.4-.4-.7 0-.9.7-.5.7.8.7 1.1zm-14.6-1c.8 2.6 2.4 2.2 3.2.1h.7c-.2 3.3-4.3 3.2-4.3.1l.4-.2zm-1.4.3c.2 0 .1.8.1.8s-.7-.4-.3-.7c0-.1.2-.1.2-.1zm6.1.2c.1 0 .2.1.4.2.4.3.3.4-.1.8-.7.6-1 .3-.6-.5 0-.4.1-.5.3-.5zm52.5.5c.3 0 .7.1 1.6.4 2.4.7 5.7.6 8.5-.1.9-.2 1.5 1.3 1.1 2.4-.2.5-.2.6.5 1.2.9 1 1 2.5.4 3.9-.5 1-.5.9.1 2.7 1.3 3.8 3.1 7.3 5.1 10.8l-2.6-1S134.3 74.1 126 74.5l3 4.8c4.8 1.9 9.3 1.4 13.7-1.3-.1.4 5.3 3.1 9.7 3.4v3.2c-3.3-.4-6.6-.5-9.7-2.4 0 0-2.8 1.2-5.6 2.1l15.8 16.6v2.8s-6.7-6.4-13.7-13.6l.1 35.4 13.7.3c-.4 9.2-.3 15.1-.2 25.6-6.5 6.7-15.3 13.4-23.5 17.5-3.9-3.8-7.1-7.9-9.9-12.3-.1-.1.3-.3.2-.4-.1-.1-.6-.2-.7-.3-1.7-2.6-5.7-9.7-5-9.9 1.2.1 6.8-.6 8-4 0-.2-.1-.8 0-1.5.4-1.9.6-4.7-.1-6.5-1.2-3.2 2.4-2.2 2.5-2v-12.2c-4.7 3.8-9.5 7.6-15.8 9.2-3.9-20.1 2.3-45.2 20.1-62.1l-1-.1c-18.3 19.2-23.1 40.3-19.9 62.5 0 0 .1.7.1.9 0 .6-.1.8-.6 1.2-.5.3-.9.6-.8 1 .1.7-.6.7-1.5.7-.4-.4-1 .1-1.3.3-.5.1-.7-1.8-1.3-.4-.2.9-.6.9-1.6.5-.6-.2-.6.1 0 .8.8.9 1.5 2.2 1.4 2.6-.3.9-.2 1.8 1.1 2.3-.1 0-.8 2.7 1.2 2.7.6 0 2.2.3 2.2.3.1.5-.1.8-.3 1l-1.3-.7-.4 1.6-1.8-.1 4.4 5.5.5-4.3 5.1.7c.8 2.2 6 14.1 15.8 23-.1.3-6.8 3.1-6.8 3.1l-1.1-3.3-.8 1.2-1.5-.4-.2 1.4-1.3.4 2.4 1.6-6.1 1.8c-17.2-28.1-24.9-66.8-3.5-108.1l5.4.1-1.1 1.8 1.5-.2.4 1.3 1.1-.6 1.1 1.4 1.3-3.9s3.8.1 4.3 0c.4 0 8.1-6.6 7.9-6.9-.1-.2-8.4 6-8.7 5.7 0 0-.8.2-.2-.6 1.2-1.4 2-2.5 3.2-4.5 1.9-2.7 2.8-6 3.3-8.2 0-.2 0-.5-.1-.8-.7-1.5-.6-2.5.8-4.2.5-.6.5-.8.4-1.2-.3-.9 0-1.6.6-2.2.2.1.4 0 .6-.1zm-45.5 6c3.4 1.4.7 4.5-1.8 1.8-1.3-1.4-2.4-1.3-3.1-.3-.3.5.1 1.3.6 1 .4-.2.8-.5 1.4 0 4.3 4 7.4-1.6 3.7-3-.6-.1-1.2.3-.8.5zm-13.9-.1h.1c.2.1.2 1.5 0 2.1-.5 3-2.7 10-7 6.6-1.7-1.4-.2-4.8 1.9-3.6 1.6.9.5 3.1-1.2 1.8-.8-.6-.6.6.1 1 1.2.6 3.4-.5 4.4-2.4.4-.8.8-2.2 1.2-4.2.3-1 .4-1.3.5-1.3zm.4 5.2c.4 2.2-1.3 6-3.6 6.6-1.8.4-4-.7-3.8-1.8 0-.3.2.1 1.8.4 2.3.4 3.7-.9 5-3.7.3-1 .5-1.5.6-1.5zm5.6 1.1c0 .2-.1.9-.2 1.3-.2 1-.4 1.4.7.9.7-.3 1.8-.7 2.9-.1 1.2.7 2.4.6 3.8-.1 1.2-.4 1.8-.4 2.5 0 1.3.7.8.3.7-1.6-.1-1.3-.5-1.1-.9-.6-.3.3-.9.4-1.6 0-.8-.4-1.9-.2-2.3.1-.4.3-.9.4-1.7-.2-.5-.3-.8-.2-1.4.1-1 .4-1.4.2-1.9-.2-.4-.3-.6-.2-.6.4zm-4.9 1.5c.1 0 .1.5.1 1.5-.4 3.7-3.3 5.8-6.7 4-1.5-.9-1.3-1.5.2-.9 2.3.9 4.7-.3 5.8-3.4.3-.8.5-1.2.6-1.2zm8.3 2.7c1.7.7 3.5.5 4-.1.5-.7-.3-.6-.7-.5-1.5.4-2.5.2-3.1 0-1.7-.8-1.6 0-.2.6zM64 62c2.2 2.7 2.5 3.2 4.3 6.3 13.7 23.6 18.1 53.4 9.1 80.5-2.5 7.5-6 15.1-9.9 21.2l-4.7.1 1.6-1.9-2.2.2-.1-1.2-1.7.5-.8-1.9-1.5 4.3h-8.7c20.4-20.1 24.4-44.4 20.6-64 0 0 1.7-1.1 1.9-1.7.1-.2.2-.8.3-.9.8-.5 1.3-1 1.6-.9.2.1.3.2.5.4.7 1.1.9 1.2 1.3.2.3-.8.2-1.1 1.1-.9.5.3 1.3.3 1.2.2 0-.1-.8-1-1.2-1.5-.9-1.2-1.1-1.4-1-2 .1-.8-.5-1.7-.9-1.9.1-2.2-.7-2.4-3.1-2.9 0-.4.1-.7.2-1l1.4 1.1.5-2.1 1.9.1-5.5-5.4c0 1.5.1 3 0 4.5-2.6-.1-5.1-1-5.1-.8-3.8-9-9.5-16.6-15.5-22.5l6-2.9 1.7 3.3.4-1.9 1.5.3.3-1.2 1.7-.2-1.8-1.8L64 62zm36 3.9c.2.3.4.3.7.6l-.6.4c0-.4 0-.6-.1-1zM59.7 67c-.5 0-.9.4-.9.9s.4.9.9.9.9-.4.9-.9c.1-.5-.3-.9-.9-.9zm5.1.1c-.5 0-.9.4-.9.9s.4.9.9.9.9-.4.9-.9-.4-.9-.9-.9zm-16.3.7c3 2.5 5.7 5.8 9.1 11l-.1.7 1 .4s5.6 7.4 5.3 10.7c-1.9.4-3.6-.1-7.1 3.1-1.6-.9-2.6-.6-4.2-.1 0 0 0 .7.6 1 1.1-1.3 2.3-.7 3-.4-.2.1-.8 7.5.3 9 .9 2.5-1.4 2-3 1.4l.5 11.7c5.3-6.1 16.4-10.2 15.6-9.8 5.6 30-7.7 50.1-21.6 64.7h7.3s-6.3 10.3-6.8 13.1c.4.9 1.3 2.9-.3 4.3-.6.6-.6 3.5-.6 3.5-3.8.1-7.2-1.2-11.6.4-.5.2-.6-2.4-.6-2.9-2.5-2.2-.2-6.1.1-5.8-2-6-6-13.1-6-13.1s-2.4-.1-3.9-.2c-.3-.3-.5-7.2-.2-7.4 10.9.9 28.1-.1 28.1-.1l-4.6-6.5c-5.7-2.2-13.4 1.6-13.1 1.8 0 0-6.2-3.5-10.5-3l.1-3.4c3.8 0 7.4.7 10.5 2.6l5.3-2L25 135.3l.2-2.8c5.3 4.9 13.9 14.5 13.9 14.5v-36H25.2l-.4-7.3-.4-.6-.2-5.2.4-.5-.1-2.2-.1-.3-.2-5.3.3-.4v-3.4c6.7-6.8 24-18 24-18zm11.9 1L62 76l1.1-1.4 1.7.5.1-1.7 1.5-.5-6-4.1zm55 1.2c-.5 0-.9.4-.9.9s.4.9.9.9.9-.4.9-.9c.1-.5-.3-.9-.9-.9zm-4.3.6c-.5 0-.9.4-.9.9s.4.9.9.9.9-.4.9-.9-.4-.9-.9-.9zm-53.4.8c-.5 0-.9.4-.9.9s.4.9.9.9.9-.4.9-.9-.4-.9-.9-.9zm56.7.6l-6.5 6.2 1.8-.1.3 1.8 1.6-.8 1.3 1.2 1.5-8.3zm2.8 2.1c-.5 0-.9.4-.9.9s.4.9.9.9.9-.4.9-.9-.4-.9-.9-.9zm-51.6 1.2c-.5 0-.9.4-.9.9s.4.9.9.9.9-.4.9-.9-.4-.9-.9-.9zm4.1.8c-.5 0-.9.4-.9.9s.4.9.9.9.9-.4.9-.9-.4-.9-.9-.9zM66 77.5c.2 2.5.5 5.5.5 8.1l1.2-1.2 1.4.6.5-1.6 1.5-.1-5.1-5.8zm39.9 2.1c-.5 0-.9.4-.9.9s.4.9.9.9.9-.4.9-.9-.4-.9-.9-.9zm-42.6.2c-.5 0-.9.4-.9.9s.4.9.9.9.9-.4.9-.9c.1-.5-.4-.9-.9-.9zm46.3.2c-.5 0-.9.4-.9.9s.5.9.9.9.9-.4.9-.9-.4-.9-.9-.9zm-.5 2.1l-5.4 5.6 1.8.2.6 1.6 1.1-1 1.4 1 .5-7.4zm2.9 1.2c-.5 0-.9.4-.9.9s.4.9.9.9.9-.4.9-.9-.4-.9-.9-.9zM69.6 85c-.5 0-.9.4-.9.9s.4.9.9.9.9-.5.9-.9c.1-.4-.3-.9-.9-.9zm-22.9.8l-1.4 1.1c1.1.4 1.7 1.4 1.7 1.4.1-.1-.1-.6-.3-2.5zm27.3.6c-.5 0-.9.4-.9.9s.4.9.9.9.9-.4.9-.9-.3-.9-.9-.9zm-6.6 1.4c-.5 0-.9.4-.9.9s.4.9.9.9.9-.4.9-.9-.4-.9-.9-.9zm38.5 1.9c-.5 0-.9.4-.9.9s.4.9.9.9.9-.4.9-.9-.4-.9-.9-.9zm-3.7 1.3c-.5 0-.9.4-.9.9s.4.9.9.9.9-.4.9-.9-.4-.9-.9-.9zm37.5.3l1.9 2.1v31.2h-1.9V91.3zm-75.3.2c1.6 0 3.3.2 3.9 1.2.9 1.1-1 .7-2.5.9-1.4.2-.6.5 1.4.6 2.8.2 3.9.2 4.3.9.2.6.1 1 .1 1.7l-3.2-.2c-1.6 0-2.6 0-3.1.1-.4.1-.3.4-.1.6.1.1 1.3.1 2.8.1 4 .1 4.9.2 5.1 1.5.2 1.2-.7 1-4.8.6-1.8-.2-2.8.3-3.1.4-.4.2 1.3.4 1.9.3.4-.1 3 .2 3.9.4.8.1.1.1-.3.6-.3.4-.2.9-.6 1.1-.5.3-1.6.3-3.4.3-2.1 0-3.1.5-.2.7 1.9.1 2 .1 2.1.6.4 1.4-.5 1.6-2.4 1.9-.9.2-2.3.1-3.3 0-4.1-.3-5.5-1.3-6-3.1-2-6.8.5-10.9 6.4-11.2h1.1zm40.9.3l-4.6 6.8 1.8-.7.8 1.8 1.4-1 1.4.9-.8-7.8zm-34.2.8c.2.3.1.5-.3.7-.3.2-.9 0-1.3-.1-.4-.2-.5-1.1-.1-1.2.6-.1 1.3.2 1.7.6zm-33.2-.3l-2.1 2.3s1.9-.7 3-1.1l-.9-1.2zm70.3 1c-.5 0-.9.4-.9.9s.4.9.9.9.9-.4.9-.9-.4-.9-.9-.9zm34.1.8l3.3 3.3h-.9v1.8h2.8l1.5 1.5h-4.2v1.9h5.2v-.8l2.1 1.9.2 20.9h-9.9c-.1-10.2-.1-20.1-.1-30.5zm-68.2 2.3c-.1.5-.5.5-1 .2-.8-.3-.7-1.2-.1-1.3 1.1-.1 1.4.4 1.1 1.1zm3.1.4c-.5 0-.9.4-.9.9s.4.9.9.9.9-.4.9-.9-.4-.9-.9-.9zm-3.3.7c.4 0 .7.2.9.4.5.5.3 1-.2 1.3-.6.3-1.1-.1-1.3-.9-.1-.5.2-.8.6-.8zm29.3 2.5c-.5 0-.9.4-.9.9s.4.9.9.9.9-.4.9-.9-.4-.9-.9-.9zm-30.8 1.2c.8 0 1 .9.6 1.3-.6.6-1.5.3-1.7-.2 0-.7.5-1.1 1.1-1.1zm27.4.3c-.5 0-.9.4-.9.9s.4.9.9.9.9-.4.9-.9c.1-.4-.4-.9-.9-.9zm3.3.7l-4.2 7.1 1.7-.7 1 1.4 1.1-.9 1.6.8-1.2-7.7zm-32.7 1.2c.7 0 1 .6.4 1.1-.4.4-.8.4-1.2 0-.6-.5-.1-1.1.8-1.1zm35.7 0c-.5 0-.9.4-.9.9s.4.9.9.9.9-.4.9-.9c0-.4-.4-.9-.9-.9zm-30.4.8c-.5 0-.9.4-.9.9s.4.9.9.9.9-.4.9-.9c.1-.5-.4-.9-.9-.9zm69.1.2v2h5.3v-2h-5.3zm-69 1.8l-2 7.5 1.7-1 1 1.1 1-1.2 1.8.5-3.5-6.9zm3.6.8c-.5 0-.9.4-.9.9s.4.9.9.9.9-.4.9-.9-.4-.9-.9-.9zm-6.6.4c-.5 0-.9.4-.9.9s.4.9.9.9.9-.4.9-.9-.4-.9-.9-.9zm72 .6v1.8h5.3V108h-5.3zm-43.3 2.3c-.5 0-.9.4-.9.9s.4.9.9.9.9-.4.9-.9c.1-.5-.3-.9-.9-.9zm43.3 1v1.9h5.3v-1.9h-5.3zm-108.3.3h1.8v33.8l-1.8-1.9v-31.9zm-.8 0l-.1 30.9-3.5-3.7h.9v-2.1h-3l-1.3-1.3H33v-2.1h-5.1v1.3l-2.5-2.7v-20.2l10.3-.1zm66 1l-2.8 7.4 1.8-1 .9.9.9-.9 1.6.8-2.4-7.2zm-73.8.3v2h5.2v-2h-5.2zm77 .4c-.5 0-.9.4-.9.9s.4.9.9.9.9-.4.9-.9-.4-.9-.9-.9zm-6.4.1c-.5 0-.9.4-.9.9s.4.9.9.9.9-.4.9-.9-.4-.9-.9-.9zm-21.9.4c-.5 0-.9.4-.9.9s.4.9.9.9.9-.4.9-.9-.4-.9-.9-.9zm68.2.7v2.1h5.3v-2.1h-5.3zm-68.3 1.2l-.8 1.2-1.8-.6 2.4 7.5 3.1-7.8-1.8 1-1.1-1.3zm-48.6.6v2H33v-2h-5.1zm116.9 1.7v2.1h5.2V118h-5.2zm-116.9 1.8v2H33v-2h-5.1zm73.7.3c-.5 0-.9.4-.9.9s.4.9.9.9.9-.4.9-.9c0-.4-.4-.9-.9-.9zm-28 1c-.5 0-.9.4-.9.9s.4.9.9.9.9-.4.9-.9-.4-.9-.9-.9zm5.9.2c-.5 0-.9.4-.9.9s.4.9.9.9.9-.4.9-.9c.1-.5-.3-.9-.9-.9zm65.3.1v1.9h5.2v-1.9h-5.2zm-43.2.9l-1.1 1.2-1.6-.5 3.6 6.9 1.8-7.4-1.6 1-1.1-1.2zm-73.7.7v2.2H33V123h-5.1zm48.6 1c-.5 0-.9.4-.9.9s.4.9.9.9.9-.4.9-.9-.4-.9-.9-.9zm0 2c-.4.3-.6.8-1 1.1l-1.7-.7 1 9.4 4.7-8.8-2.2.4-.8-1.4zm-48.6.3v2.3H33v-2.3h-5.1zm77.4 1.1c-.5 0-.9.4-.9.9s.4.9.9.9.9-.4.9-.9-.4-.9-.9-.9zm-6.1.1c-.5 0-.9.4-.9.9s.4.9.9.9.9-.4.9-.9-.4-.9-.9-.9zm-71.3 2.2v2.3H33v-2.3h-5.1zm74.7.5c-.5 0-.9.4-.9.9s.4.9.9.9.9-.4.9-.9-.4-.9-.9-.9zm13.2.1c5 .2 5.7 1.8 5.8 7.4 0 4.5-1.3 6.3-4.5 7.1-1.2.3-5.6 0-6.8-.4 0-.4-.6-1.3-.8-2 .3-.1 1.3.1 3.2.2 1.5.1 1.9-.1 1.5-.4-2.9-.7-4.9-.5-7.7-1.1 0-.8-.7-1.8-.7-1.8.2-.1 4.3.4 6.5.3 1 0 .4-.5 0-.6-2.6-.4-4.2-.3-6.9-.7.1-.7-.3-1.3-.7-1.9h4.2c1.5 0 2.8.1 3.4.1 1.1 0 1-.5 0-.6-1.2-.1-5.7-.2-5.7-.2.3-.2.8-2.2.6-2.2h1.9c3.6-.1 4.3-.1 4.3-.2.5-.4-.8-.6-2.2-.6-.6 0-1.4.1-1.4-.2 0-.3 0-.9-.3-1.5 2.2-.7 4.3-.8 6.3-.7zm-43.2 1.1c-.5 0-.9.4-.9.9s.4.9.9.9.9-.4.9-.9-.4-.9-.9-.9zm35.7.2c.6 0 .8 1.1.2 1.3-.9.3-1.4.1-1.3-.5 0-.3.7-.8 1.1-.8zm-29.6 1c-.5 0-.9.4-.9.9s.4.9.9.9.9-.4.9-.9-.4-.9-.9-.9zm26.6 1.1c2.1 0 1 2.9-.6 1.8-.8-.5-.2-1.8.6-1.8zM71.9 136s-.1 0-.1.1l.5 8.9 5.1-8.3-2 .8-.9-1.3-1.1.9c-.4.3-1.3-1.1-1.5-1.1zm31.5.9c.9.1 1.6 1.1.9 1.6-1.5.6-2.3-1.5-.9-1.6zm-2.3 2c-.5 0-.9.4-.9.9s.4.9.9.9.9-.4.9-.9-.4-.9-.9-.9zm3.6.8c.8 0 1.2 1.2.4 1.6-.2.1-.7.1-.9 0-1-.8-.5-1.6.5-1.6zm-35 1.4c-.5 0-.9.4-.9.9s.4.9.9.9.9-.4.9-.9c0-.4-.4-.9-.9-.9zm71.4 1.2l-3.5 1.2v1.7c1.6-.5 2.4-1.8 3.5-2.9zm-32.5.8c.6.3.8 1.1.2 1.4-.4.2-1.5.2-1.8-.2-.6-1.1.9-1.5 1.6-1.2zm-32.6.3c-.5 0-.9.4-.9.9s.4.9.9.9.9-.4.9-.9c0-.4-.4-.9-.9-.9zm-3.9 1.7c-.5 0-.8.4-.8.8 0 .5.4.8.8.8s.8-.4.8-.8c.1-.4-.3-.8-.8-.8zm38.9 1.4c-.5 0-.9.4-.9.9s.4.9.9.9.9-.4.9-.9-.4-.9-.9-.9zm-41.9.1v8.4l5.5-6.9-1.9.4-.8-1.7-1.2.8-1.6-1zm35 1.9c-.5 0-.9.4-.9.9s.4.9.9.9.9-.4.9-.9-.4-.9-.9-.9zm27.6 0l-.9 1.6 2.6-1.4-1.7-.2zm-23.9 1.1c-.5 0-.9.4-.9.9s.4.9.9.9.9-.4.9-.9c.1-.4-.3-.9-.9-.9zm3.2 1.1l-1.1 1.6-1.5-.5-.4 1.5-1.8-.1 5.7 5.1-.9-7.6zm-44.8.6c-.5 0-.9.4-.9.9s.4.9.9.9.9-.4.9-.9-.4-.9-.9-.9zm86 2.3v69h-32l-13.4-18.9c-.3-3-.1-6.2 1.1-10.2 1.3.9 4.2.4 4.1-3.2-.1-2.3-3.6-3.5-5.4-1.8.1-2.3 1-5.7 2.3-6.7.9.8 1.1 2.1 3.1 1.7 1.4-.2 2.6-1.9 2-3.8-.2-.5-.2-1.1-.2-1.5v-1.5c-.1-.5-.1-1.1-.1-1.1 14.8-3.4 27.8-12.6 38.5-22zm-79.4.3c-.5 0-.9.4-.9.9s.4.9.9.9.9-.4.9-.9-.4-.9-.9-.9zm-4.4.9c-.5 0-.9.4-.9.9s.4.9.9.9.9-.4.9-.9-.4-.9-.9-.9zm46.2.4c-.5 0-.9.4-.9.9s.4.9.9.9.9-.4.9-.9c.1-.4-.4-.9-.9-.9zM65 156.3l-1.5 8.8 6.4-6.6h-1.7l-.3-1.5-1.6.5-1.3-1.2zm43.3 1.8c-.5 0-.9.4-.9.9s.4.9.9.9.9-.4.9-.9-.4-.9-.9-.9zm4.1 1.1c-.5 0-.9.4-.9.9s.4.9.9.9.9-.4.9-.9c.1-.5-.4-.9-.9-.9zM61 160.3c-.5 0-.9.4-.9.9s.4.9.9.9.9-.4.9-.9c.1-.4-.4-.9-.9-.9zm55.1.7l-1.5 1.2-1.4-.9-.3 1.9-1.2.6 5 3.6-.6-6.4zm3.7 2.6c-.5 0-.9.4-.9.9s.4.9.9.9.9-.4.9-.9c.1-.5-.3-.9-.9-.9zm-52.8.3c-.5 0-.9.4-.9.9s.4.9.9.9.9-.4.9-.9-.4-.9-.9-.9zm-4.2 1.2c-.5 0-.9.4-.9.9s.4.9.9.9.9-.4.9-.9c0-.4-.4-.9-.9-.9zm54.6 2.5c-.5 0-.9.4-.9.9s.4.9.9.9.9-.4.9-.9c.1-.4-.3-.9-.9-.9zm-3.9.9c-.5 0-.9.4-.9.9s.4.9.9.9.9-.4.9-.9c.1-.5-.4-.9-.9-.9zm-36.2 1.3c.1.1.4 1 .2 1.4-.1-.1-.8-.7-.6-.9 0-.1.3-.5.4-.5zm-21.2 1.5s.9 0 1.1.1c0 .2-.2.7-.5 1.3-1.2 2.9-1.4 6.1-.2 9.2 1.9 4.2 7.4 14.2 7 15.1l-12.1.1.1-1.9c3.4-.1 3.9-2.3 3.1-4-.6-1.2-2.2-1.9-3.8-1.3-2.2.9-2.3 2-3.1 3.7l-.3-.4c.7-.9.9-1.7.8-2.7-.1-1-.1-.7.2-1.2 1.9-2.1.7-4.8.7-4.8-.2-1.6 5.7-12.2 7-13.2zm-27.8.3c3.5 2.8 6.4 12.2 6.3 12.3-.2-.1-2.8 3 0 6 0 0-.2 1.8.4 2.7-1.2 2.6-1.5 2.8-1.6 5H32c-5.7 0-6 7.4-.3 7.8.8.1 1.1-.1 1.5.3.5.6.9 1.2 1.7.9.2 0 .5.2.8.5.5.8 1.3 1.3 2.5 1.1.4 0 .8.2 1.3.3.5.4 1.4.7 2 .4.2-.1.6-.1.9 0 .8.4 1.7.1 2-.1.8-.4.9.2.9.8-.4 1.4.5 2.6 1.8 3.2 2.7.9 4.1-.9 4.7-4.3.1-.7.3-1.6.3-1.6l9.2.2-13.2 15.5h-23v-51c1.1-.1 2.2 0 3.2 0zm82.7 2.8c1.7.7 1.8 1.9.1 1.3-2.7-.8-5.6.8-6.2 3.2-.1.4-.2.8-.3.9-.4.5-.4 0-.2-1.3.2-2.6 2-4.5 4.4-4.5.7 0 1.6.1 2.2.4zm-.8 1.8c.7 0 1.4.2 2 .7.6.7.4 1.2 0 1.1-2.3-1-5.2.2-6.3 3.1-.7 1.8-.8.8-.5-.6.5-2.4 2.4-4.2 4.8-4.3zm-15.8.7c-1 0-1.9.2-2.4.7-.9.9-.2.9 1.5.3.8-.3 2.3-.2 3.3.2.8.3 1.1.4 1.1.2-.1-.9-1.9-1.4-3.5-1.4zm18.5 2.9c.4 1 .1 2.7-1.3 2.9-1.7.2-2.6-2.7.5-2.2-.4-1.2-1.8-.8-2.5-.6-1.4.6-2.4 2-3.3 4.6-.3.8-.4 1.2-.5 1.1-.2-.1-.2-1.3.1-2.8.7-2.6 2.4-4.2 4.1-4.2 1.2-.1 2.6.4 2.9 1.2zm-24.6-1.1c-.2 0 .1.6.5 1.4.2.5.4 1.1.4 1.2 0 .5.3.6.9.3.6-.3.7-.6 1.5-.2.8.4 1.6.7 2.3.3.4-.2.6-.2 1.4 0 .9.2 1 .3 1.7 0 .9-.4 1.9-.1 2.1.1.2.2.1-.1.6-1.2.2-.5.5-1.1.4-1.3-.1-.2-.9 0-1.8.3-.5.1-.9.1-1.8-.2-1.9-.5-3-.4-4.2.2-.6.2-2.3-.2-4-.9zm3.6 5.1c-.8 0-1.6.5-2 1.3-.4 1 .3 2.9 1.3 3 .9.1.9-.4.4-.6-.7-.2-1.6-1.3-1-2.2.4-.6 1.5-.6 2.3.1 1.6 1.5 3.4 1.6 3.7.3.1-.5-.3-1.2-.9-1.1-.5.1-1.6.2-2.5-.4-.3-.3-.8-.4-1.3-.4zm16.7 4.8c4-.2 2.3 5.3 0 3.9-.8-.5-.5-2.4 1.7-2.4-2.2-1.7-3.6.4-3.1 2.7-.5.8-.6 2.2-.9 3-.5.9-.9-1.5-.4-3.9.5-2.2 1.3-3.2 2.7-3.3zm-22.8.2c-.8 0 0 .9.2 1 2.5 2 3.7 3.2 1.7 2.6-3.3-.8-4.1.1-6.6 1.3-.5.2-.6.1-1.1-.1-2.2-.7-2 .7.3 2 3.5 1.9 6.3 2.3 9 .9 1.7-.9 1.8-.3.2.7-2.8 1.6-5.7 1.4-10.1-1.4-1.4-.9-1.6-.3-.2.7 3.4 2.1 7.9 3.9 11.6.9.7-.7.9-1 1.4-.7 1.5.7 1-.6 0-1.8-.4-.4-.6-.8-.6-1.1.1-1.1-.5-1.1-1-1-.6 0-.6-.2-1.3-1.1-1.3-1.3-2.6-2.6-3.5-2.9zm-33.5 5.7c-1.4.1-1.7.2-1.4 3.1.1.5.3 2.2.4 2.8.8 7.6.2 11-1.9 11.9-.8.3-1.5.2-2 0-1.3-.5-1.9-2.2-.9-4.1.3-.5.6-1.3.7-1.8.1-.5.4-1.5.6-2.3.5-1.9.8-4.8.5-7.6-.2-1.9-.2-2 .3-3.3 1-1.9 1.7-2.8 3.8-2.9 2.3.3 3 4-.1 4.2zm51.3-.2h-.7c-.8-2.7-2.4-1.8-2.7.1h-.6c.2-3.5 4.5-2.6 4-.1zm-61.3-1.9c4.5.4 5.3 1.6 5.6 7 0 2.6-.1 4.2-.5 4.8-.7.3-1.3-.3-2.3.3-.5.3-.4.4-.6 0-.2-.3 0-1.7.4-2.8.3-1.1-.2-1.7-1.7-3-.4-.4-.7-.9-1.1-1.6-.8-2.1-1.2-1.2-.5.6.3.8.4 1.2-.6.8-.6-.2-1.1 0-1.5.3-1.2.3-2.3-.4-1.2-.8.6-.2 1.8-.6 2.2-.6.3 0 .4-.1.4-.2 0-.5-2.4-.5-4.2.2-2.2 1-2.3.8-2.1-.8.4-4 4.1-4.5 7.7-4.2zm43.5.3c1.1-.1 2.2 1.3 2 2.4h-.5c-.3-2.1-2.2-2.2-2.8.2h-.8c.5-1.9 1.4-2.6 2.1-2.6zm13.3.1c.4.3.1 1-.3 1.2-.2 0-.8-.4-.6-.6.2-.4.6-.6.9-.6zm5.1.3c.3 0 .7.2.8.6 0 .6-.5.5-.6.4-.4-.2-.5-1-.2-1zm-15.6.5c.8.1 1.1 1.2.2 1.2-.5.1-.5-.9-.2-1.2zm-5.1.1c.1 0-.1.9-.3 1-.4.3-.9 0-.9-.3 0-.6.8-.7 1.2-.7zm14.6 2.2c1.6.6 3.7 1.2 5.6.5.7-.3 1.3-.6 1.3-.3s-.6.8-1.6 1.1c-2.1.6-3.6.4-5.1-.7-.4-.4-.5-.7-.2-.6zm-.7.9c2.6 1.5 4.9 1.7 7 .6.8-.3.9 0 .9.5-3.8 3.3-8.5-.2-7.9-1.1zm-63.3 2.3c-.6 1.3-1 4.5-2 5.5-7.2-.4-2.6-10 2-5.5zm44.1-1.1c-.4.2 0 1.2.6 1.5 5.5 2.4 8.2 2.7 11.3 1.6 1.3-.5 2-1.5 2-2 .1-.6-.8-.7-2.2 0-4.4 1.8-7.2.4-10.8-1-.2-.2-.5-.2-.9-.1zm-20.8.1v8.1l-5.2-.1.1-1.2 3.9.1-.1-5.8h-4.5v-1.1h5.8zm1.2 0h5.2l.3.8h-5.4v-.8h-.1zm-20.9 2.6c-.3.3-.9.4-1.2.1-.5-.6 0-1.6.9-1.6s.9.9.3 1.5zm2.4-1.3c.8 0 1 .7.4 1.3-.4.4-.6.4-1 .1-.4-.4-.2-1.4.6-1.4zm-5.2.2c.2 0 .4 0 .5.2.5 1-1.1 1.7-1.4.9-.2-.6.4-1.1.9-1.1zm29.3.1l.3 1h-6v-1h5.7zm-21.3.3c.9.1.8 1 .3 1.4-.7.7-1.4.5-1.2-.4.1-.6.5-1 .9-1zm-4.8 2.9c-.3 1.1.4 3.4.2 3.7-.4.5-1.1.3-1.4.1-1.1-.7-1.1-4.8-.1-5.1.7.3 1.1-.3 1.4-.4.2 0 0 .5-.1 1.7zm15.8-1.6c.6 0 1.1.5 1.1 1.1 0 .6-.5 1.1-1.1 1.1s-1.1-.5-1.1-1.1c0-.7.5-1.1 1.1-1.1zm4.7.1h6.1c.4.5.3.9.2 1.2h-6.3v-1.2zm-18 .1c.3 0 .4.6.2 1.3-.3 1.2-.3 3-.1 3.7.2.5.3.9.2 1-.3.5-1.3.2-1.7-.5-1-1.9-.8-5.4.4-5.1.5.2.8-.2 1-.4zm-5.3.5c-.3.5-.1 3.2-.1 3.4 0 .3-.8.1-1.2-.1-1-.5-.8-1.7-.6-2.8.2-.8.7-.9 1.3-.9.3 0 .8 0 .6.4zm8.3.2c.3 0 .4.2.3 1.2-.1.8-.1 1.4 0 2.2.3 1.6.3 2-.1 2.3-.5.4-1.1.3-1.6-.2-1-.8-1-4.7-.3-5 .8.2 1.2-.4 1.7-.5zm21.1 1.1l-.9 1.2h-5.2v-1.2h6.1zM46.1 205c.8 0 .7 1.5.2 2.4-.4.6-.6.6-1.2.1-.6-.6.1-2.5 1-2.5zm17 .4l-.7.7h-3.8v-.7h4.5z"/><path id="path3872-3-7-5_1_" class="st0" d="M31.63 169.753l-6.3-5c7.5-.2 15.1 0 22.6.1l-7.5 5.4c-1.5-1.7-2.4-4-4.6-5.1-1.7.7-2.9 3-4.2 4.6zm61.17 4.647c-.2-.1-.3-.4-.4-1.2-1.9-8.9-11.1-8.3-11.1-8-.1-.4 11.5-10.9 18.3-19.2 2.1 6.3 8.3 20.8 8 20.8 0 0-1.8 0-6.5-.1-4.2 1.9-7.2 3.8-7.1 6.6 0 1-.3 1.4-.6 1.3-.2 0-.4-.1-.6-.2zm21-28.5c6-.1 7.1-3.1 7.8-3.4 3.9-.7 6.4 1.9 8.1 4.7 2.2 1.3 1.9.1 2.4-2l5.5-1.6v1.8c-1.7.9-4.2 3.3-4.2 3.3l-1.7-.1-1 1.3c-3.8 2.1-7.6 4.6-11.6 6.2.1 0-4.7-6.4-5.3-10.2zm-74.8.5l-.1-35.2c2.5-.2 7.1-.2 7.1-.2 1.9-3.4 4.5-5 7.2-7 .4 4.3.5 8.5.4 12.8-7.1 8.8-11.1 19.7-6.7 35.9l-2.6-.3-5.3-6zm39.3 2c2-7.3 3.6-14.8 4.3-22.5l13.6-.2.3 4.7-18.2 18zm46.2-16l-.3-13.2c9.9-12 10.5-22.5 6.8-35.7 3.3.8 4.9 3.3 8.1 6.9v34.3c-2.2.3-7.5.6-7.5.6-.2 1.7-4.7 5.6-7.1 7.1zm-41.9-20.7l-.6-5.8 17.6-17.1c-1.5 7.4-3.2 15-3.7 22.9H82.6zM53.4 93.5c-1.3.8-5.9-4.1-6.6-7.3 1.2-1.6 11.4-6.7 11.4-6.7s6 7.8 5.7 11c-2.6.7-4.9.9-7 3.1-1.2.2-1.6-1.2-3.5-.1zM45.3 87c1.4.2.5 2.2.3 3.6l-7.5 2.3c2.6-2.3 4.4-4.2 7.2-5.9zm24.4-17.2c1.5 0 3.1.6 4.3.1.4-.2 1.3-.4 2.3-.3 2.2.7 3-1.8 4.5-1.8 1.8 0 2.9-1.3 2.9-3.9 0-1.1.1-1.3.3-1.4.6-.3 1.3.1 1.4.8 1.3 4.8 4.7 9.2 9.9 8.8-4.2 4.3-17 17.7-17 17.7-2.2-7.1-5.3-13.7-8.6-20zm54.4-4.2l7.7-5.7 4.6 5.7 4-5.4c2.3 1.7 7.7 5.5 7.7 5.5s-16 .3-24-.1z"/><path id="path3870-4-7-1_1_" d="M122.53 7.653l-70.8.5 13.8 18.6c14.6-3 27.3-1.1 40.5 1.3l16.5-20.4zm4.17 7.547l-4.7 5.9c-1.3-1.2-4.2-.8-3.8 1.9-3.6-1.9-4.4 3.3-1.3 3.1-.4 1-3.5 1.3-4.4-.6-3.2 1.8-4.1.1-5-1.1 4 2.8 6-2.9 1.6-3.3 1.7-3.6-4.5-5.2-4.1-.5-4.1-.9-3.2 4.9-.1 3.7-2 3-5.2 1-5.8.4-1.8 1.3-4.9 1.3-5.8-.7 4.6.9 4.1-5.2 0-3.8 2.2-4.7-5-4.1-3.3-.2-4.1-.2-3.2 5 .4 4.1-3.2 3.1-5.6.2-6.1.1-1.9 2.1-5.2 1-5.7-.3 3.3 1.3 4.3-4.3.2-3.9 1.1-3.6-4.9-4-3.6.1-3.3-.7-3.4 4.5.2 3.7.2 1.5-2.6 2.8-4.4 1.4-1.3.7-2.7 1.8-4.4.2 2.6-.4 3-4.8-1.2-3.9.2-2.7-1.3-2.9-3.2-2.2l-3-4.2 67.5.1zm-48.9 6.6c-.2.5-.6.8-.5 1.2.1.3.4.8.8 1.3C81.6 29 88.8 28.8 91 24c.4-.9.4-1.1-.2-1.9-.6-.9.1-1.9.9-1.8 1.2.1 1.4 1.2.8 1.9-1.2 1.6 2.1 5.1 5.5 5.6 4.3.7 8.4-2.4 7.8-5.1 0-.2-.1-.3-.1-.5-.5-2.3 3.1-1.2 1.8.3-.5.5-.7.7-.7 1.3 1 4.9 6.9 5.4 9.7 3.9-3.6 5.9-9.3 1.4-10.3-2.8-5 7.4-11.1 5.8-14.4-.6.4.4-6.6 11.6-14.6.1-3.4 9.3-9.5 3-9.1 2.6 2.8 1.6 8 1 8.5-3.9.1-.6-.4-.6-.7-1.1-1.4-2.4 2.9-2.4 1.9-.2zm-13.3.6c.6.1.7.3.6 1l-.6-1zm54.9 1.8l-.9 1.2c-.2-.6-.2-1.2.9-1.2zm10.1.4c-2.2.1-3.9 3.2-3.8 7.3.1 2 .4 7 .5 7.8.2 1 0 2.5-.4 2.6-1 .4-1.3.6-1.6 1.1-.7 1.2-.1 2.6 1.3 3.2 1 .4 2.3-.2 3.1-1.5.5-.7.6-1 1-2.9.2-.8.2-2.2 0-3.5-.5-2.9-.1-6.5.9-8.2 1.8-3.1 1.7-5.1-.1-5.7-.2-.2-.5-.3-.9-.2zm-.1.4c2.6 0 2.5 2.6 1.1 3.4-.6.2-1.2.3-1.9-.1-.8-.4-.7.1.1.6.9.7 1.3.6.8 2.2-.5 1.5-.7 4.7-.5 6.5.7 5 .1 7.4-2 8.3-1 .4-2.1-.2-2.4-1-.4-1.3.3-2.4 2.3-2.1 0 0 .1-.4-.4-4.7-.7-6-.4-10.2.7-11.7.7-.7 1.5-1.4 2.2-1.4zm17.4 6.2c-.6 0-1.2.2-1.9.5 0 0-.1 2.7-.1 3.1-.4 2.3-.3 2.6.7 2.9 2.5.8 4.6-.9 4.5-3.6 0-1.5-1.4-2.9-3.2-2.9zm.3.4c1.4 0 2.7 1.6 2.5 3.2-.1 1.9-1.8 2.9-3.4 2.5-.5-.1-.9-.2-1.1-.5-.3-.5.2-.7 1.2-.7 1.2 0 1.4-.2 1.8-.8.8-1.3-.2-3-1.5-2.6-.4.1-.5.3 0 .4 1.5.7 1 1.7.4 2.1-.6.5-1.7-.2-1.8-.6l.1-2.5c.1 0 .6-.5 1.8-.5zm-15.6 11.6s-.6.3-.9.5c-.6.6-.7 1.4-.4 2.3.1.4.1.4-.4 1.1-1.3 1.8-1.5 2.6-.8 4.2.3.7.3.7 0 1.7-1.3 4.1-3.7 8.7-6.4 11.9-.4.5-.6 1-.6 1s.6 0 1-.2c2.7-1.4 5.6-4.1 8.3-5.8-4.2 3.5-8.8 6.6-8.8 6.6l5.8.3c-1.4 1.5-26.8 23.3-20 62.3 7.9-2 11.6-5.3 15.8-9.1 0 3.1.1 11.6.1 11.6.1-.1-3.7-1.4-2.8 1.7.5 1.7.8 6-.1 8.5 0 .1.4.3.4.4-.1.1-.6.1-.6.1-1.4 2.7-5.1 3.3-7 3.2-.7-.1-.4.9-.3 1.2.3 1.4 1.9 4.4 4.9 9.2l.8.1-.5.4c.3.6 1.3 1.9 1.3 1.9v.4s1.6 2.3 2.5 3.4c.1.1.2-.1.3 0 .5.6 1.1 1.3 1.6 1.8 0 0-.1.2 0 .3.9 1 2.7 3.1 2.7 3.1l.4-.1 1.4 1.6c11.9-5.5 24.3-17.6 24.2-17.6l.1-26.1h-14.1l-.1-34.6 14.1 14.1-.1-4c-3.2-3.1-16-16.2-16-16.2 1.9-.3 3.7-.9 5.4-1.8 3.1 1.7 6.3 2.7 10.1 2.2V81c-4.3 0-6.9-1.4-8.8-3.2l-2.6-.1c-4.9 3.7-8.3 2-12 1.3l-2.5-3.7 26.1-.1-.2-9-4 .1-2.6-1.9 3 1.3s0-.5-.6-1.4c-1.6-2.7-3.7-6.6-4.9-10-.6-1.7-.6-1.7-.1-2.7.7-1.4.5-3.1-.4-4.1-.6-.7-.6-.8-.4-1.3.8-2-1.2-2.7-1.2-2.6-4.4 1.5-10.2-.3-10.1-.4zm10.2.8c.9 0 1 .4 1 1-.1 1.2-1.6 1.6-2.3 1.8-3.4.8-9.2.3-9.6-1.3-.3-1.2.4-1.8 2.8-1.2 3.8.8 6.1-.1 8.1-.3zm-10.9 3.3c.3 0 .8.4.9.9.1.5-.4 2-.8 2.3-1.1.8-2-.5-1.3-1.9.4-.7.8-1.3 1.2-1.3zm11.5.2c.2 0 .4 0 .6.2.8.6.9 2.7.1 3-.8.3-1.6-.5-1.5-1.9 0-.8.3-1.3.8-1.3zm-2.7.4c.2 0 .4 0 .5.1.7.3 1 2.5.3 3.2-.5.5-1.7.5-2-.6-.4-1.3.3-2.6 1.2-2.7zm-6 .1c1 0 1.3 2.3.3 3.3-.8.8-2.1 0-1.7-1.6.2-.8.6-1.7 1.4-1.7zm3 .4c1.5.3 1.4 4-.6 3.6-1.2-.8-1.1-3.6.6-3.6zm-6.6 4l2.1.2c-.1 0-3.4 7.2-6.4 9.1 1.7-2.8 3.1-6.1 4.3-9.3zm12.8 0c1.2 3.4 2.5 6.8 4.2 10.2-2.6-2.5-4.9-6.4-7-10.1l2.8-.1zm-10.1.3h1.4c.5 2.2 1.3 3.6 2.2 4.8.8-1.4 1.4-3 1.9-4.6h1.1c.4.3-1.3 6.8-3 7.6-1.8-1.5-3.3-5.5-3.6-7.8zm-.6 1.6c-.1.2 2.2 5.8 4.1 7.6 1.8-1.8 3-4.2 3.8-7.1l6.1 8.6-5.9-4.1c-1.2 2-2.4 3.9-3.9 5.5-1.6-1.8-3-3.9-4.5-5.9-2.3 1.7-3.9 3.5-6.8 5.1 0 .2 5.8-6.2 7.1-9.7zm-.5 6.1l4.1 5.1-11-.2 6.9-4.9zm8.9.1l6.9 4.8-10.3.1 3.4-4.9zm-55.2 2.4s.1.3.1.5c1.2 5.1 4.6 9.3 9.7 8.8l-16.8 17s-2.8-9.5-8.4-19.3c0 0 1 .2 1.8.4.8.1 1.3.1 1.9-.1.4-.1.8-.3 1.1-.4.6-.1 1.5.1 1.9.3 1.2.2 1.9-.4 3.4-1.7.4-.3.5-.3 1-.3 1.8 0 3-1.6 2.8-4V63l-.2 1.2c-.4 2.3-.7 3.3-3 3.4-.5 0-.7.4-1.6 1.1-1.2 1-2.1 1.1-2.9.7-.9-.4-1-.2-1.8.2-.9.5-2.3.4-3.5 0-1.7-.5-1.5-.3-1.5-.3 10 18 13.5 35.3 13.3 50.7-.3 21.9-7.9 39.5-14.5 50.2 0 0 1.1-.1 2.1-.3.5-.1.9 0 1.3.2s.8.2 1.2.1c.3 0 1.2 0 1.7.1 1.2.2 1.3 0 2.6-1.3 3.8-3.7 3.5-3.6 6.3-3.5 4.1.1 7.4 2.9 8.8 7.4.2.6.4 1.4.4 1.4l-.3-1.2c-1.2-6-6.3-8.2-10.5-8.1l17.8-18.1c-.1 0 4.1 13.8 7.8 19.9 0 0-1.1-.5-3.2-.2-1.1.1-2.4 0-3.1-.1-.9 0-1.4.2-2.6 1.2-.5.4-.9.8-1.8 1.2-2.2.9-3 1.9-3 4.3 0 .4-.1 1-.1 1.2v.2s.1-.1.1-.2c.1-.2.3-.6.5-1.6.3-1.8.7-2.4 2.4-3.2.5-.2 1.6-.9 2-1.3 1.6-1.3 2.1-1.5 3.3-1.2.7.2 1.3.3 2.3.1 1.1-.1 1.2-.2 2.4.1.8.2 1.9.4 1.9.4-17.3-35.2-16.7-67.8.3-101 0 0-5 .1-5.3.2-.1.1-.7 0-1.4-.1-1.4-.3-1.1-.1-4.3 3.2-4 4.1-10.4.8-12.3-6-.1-.4-.2-.6-.3-.8.3-.2.2-.3.2-.3zm16.3 4c.7.1 1.3.3 1.2 1L79 91.6l-.4-1.6 23-23.1zm5 .2c-.3.6-1.1 1.3-1.4 1.9l1.3 1.6-.7 1.3-2-1.7L100 74l3.2 3.6-3 3.1-1-1.1 1.6-1.7-2.5-2.3-4.3 4.3 3.5 3.6-2.6 2.5-1-1 1.4-1.5-2.4-2.5-4 4.2 3.2 3.6-2.5 2.5-1.1-1.1 1.2-1.3-2.3-2.4-4.1 4.1 3.3 3.7-2.4 2.2-.9-.9 1.2-1.3-2.2-2.4-2.5 2.3-.4-1.6 25.2-25.4 2-.1zm1.5.4l-1.1 2.2-.8-.9 1.1-1.1.8-.2zm-59.4.1c-.7.2-15.7 8.6-24.2 17.9V89l-.3.4.2 5.4.2.3.1 2.2-.3.6v6l.5.1.1 7.4h14v35.1s-8.2-9.2-14.2-14.6v4.1l15.7 16.5c-1.1.2-2.5.4-4.6 1.6-5.1-3.2-11-2.2-11-2.2v4.2c3.7-.4 7.1.2 11.1 2.8 3.2-2.2 7.1-3.6 13-1.8 1.3 2.1 2.6 4.2 3.8 5.6l-27.8.2v8.5h4.3c1.6 3.1 4.6 7.3 5.9 12.7-1.8 2.1-1.6 3.9.1 6 0 1-.3 2 .8 3.1 3.5-1.8 7.5-1 10.5-.1 1 .3 1.4-.9 1.4-2.3-.1-.8-.1-1.2.5-1.8 1.5-1.3.6-4.1.3-4.1-.1-2.4 7.5-14.4 7.5-14.2l-1.5.6h-6.5c17-16.6 24.1-35.6 22.6-57.1-.3-5.4-1.2-7.9-1.2-7.9-6 2.7-10.9 4.7-15.7 9.9l-.3-11.2c.3.5 2 1 2.8.3.5-.4.6-.7.1-2.1-.7-2-.9-6.2-.4-7.6.1-.2.1-.6.2-1.1.1-.6-.1-.6-.1-.6.1 0 .7.1.8 0 2-1.8 4.2-3 6.9-3.1l.1-1.3c-2-5.1-3.7-7.1-5.5-10 0 0-.5-.2-.8-.1l.4-.4c-2.6-4.1-6.2-7.9-9.5-11.4zm-.2.7l1.8 1.7c-8.6 4.2-17 10.3-25.4 18.6l.1-3.1c9.5-8.9 16.6-13.3 23.5-17.2zm55.1 3l1.1 1.1-1.5 1.8 1 1-.5 1.3-2.5-2.6 2.4-2.6zm-53.5.2c.6 0 1 .5 1 1 0 .6-.5 1-1 1s-1-.5-1-1 .4-1 1-1zm73.4 1.4c17.5 19.8 8.5 48.5-14.8 55.4l-.3-1.6c23.6-8.1 29.1-35 13.8-51.9l1.3-1.9zm-70.4.2l1.1 1.3c-10 4.8-19.7 12.1-29.1 22.5l-.1-2.6c8.9-9.5 18.3-16.3 28.1-21.2zm-6.4.4c.6 0 1 .5 1 1s-.5 1-1 1-1-.5-1-1c0-.6.4-1 1-1zm-3.1 1.9c.6 0 1 .5 1 1s-.5 1-1 1-1-.5-1-1c-.1-.5.4-1 1-1zm10.3.7c.6 0 1 .5 1 1 0 .6-.5 1-1 1s-1-.5-1-1 .5-1 1-1zm44.5.7l1 1.1-1.6 1.7 2.3 2.4 2.2-2.2-1.1 3.2-19.6 19.9-.4-2.1 1.5-1.6-2.4-2.4-.4-1.6 2.3-2.2 1 1-1.4 1.6 2.2 2.2 4-3.7-3.3-3.7 2.7-2.7.9.9L87 90l2.3 2.5 4.1-4-3.3-3.6 2.7-2.7 1 1-1.3 1.8 2.3 2.3 4-4-3.3-3.5 2.9-3zm-57.9.7c.6 0 1 .5 1 1s-.5 1-1 1-1-.5-1-1 .4-1 1-1zm16.1.2l.8 1.3c-11.9 6.1-20.1 12.2-32.2 26.2v-1.8c9.4-11.6 19.1-19.2 31.4-25.7zm-5.9.2c.6 0 1 .5 1 1 0 .6-.5 1-1 1-.6 0-1-.5-1-1s.4-1 1-1zm91.8.4c2.1 1.9 6.5 3.8 9.3 3.6l.1 2.3c-4.9.5-9.3-2.7-9.3-2.7-3.8 2.4-7.7 2.7-11.7 1.6l-1.6-3.4c6.1 2.7 11.7.1 13.2-1.4zm-23.6.6c.2.4 1 .9 1 .9 4.6-1.2 6 3.6 3.9 6.4l.6 2c.8.2 1.5.4 2.1.9 1.1.8 1.7 2.2 1.6 3.6.2 1.6-2.1 3-2.3 2.9v2.2c.6.5 1.4 1.1 1.9 1.8 1.1 1.9.7 3.8-1 5-1 .7-2.1.8-2.2.7l-1.1 2.5c.9.5 1.2 1.5 1.3 2.1.3 1.4-.7 3.3-1.9 3.9-1.6.9-3.7.1-3.7.1l-1.5 1.5c.4 1.3.5 2.1.3 2.9-.5 1.9-2.5 2.7-4.1 2.5-1.3-.1-2.2-1-2.2-1l-1.7.7s0 2.2-.8 2.8c-.3.3-1.2.9-1.2.9l-.2-1.5c.7-.5 1.1-1.7.9-2.5l3.6-1.8c0 .1 1 1.1 1.7 1.2 1.4.3 2.8-.8 2.8-2.1 0-.8-.4-1.3-.5-1.9l3.1-3.2c1.3.4 2.2.5 2.7.2 1.1-.6 1.4-1.9 1.2-2.7-.2-.9-1.1-1.5-1.1-1.6l1.7-4.4c.8 0 1.3-.1 1.9-.5 1.3-.8 1.1-2.5.6-3.3-.7-1-1.6-1.1-1.7-1.1l.1-4.6s1.7-.8 1.9-1.9c.3-1.5-.3-2.5-2.2-2.9-1-.2-1 0-1 0l-1.4-4.1c2.3-1.4 1.6-3.6.4-4.4-1.2-.8-2.9-.1-2.9-.1l-1.4-1.4.8-.7zm-60.9.8c1.5 2 4 6.1 5.4 9.8.1.2 0 1 0 1-4 .4-5.4 2-6.9 3.1-1.1-.6-1.6-1.3-3.6 0 0 .1-5.1-3.1-6.1-7.5 3.8-2.3 7.3-4.5 11.2-6.4zm-20.5 0c.6 0 1 .5 1 1s-.5 1-1 1-1-.5-1-1 .4-1 1-1zm9.7.2c.6 0 1 .5 1 1 0 .6-.5 1-1 1s-1-.5-1-1 .4-1 1-1zm70 1.3c1.8 2.4 4.4 6.8 5.1 10.8.9 5.5.3 11.4-2.2 15.4-4.5 8.7-12.4 10.5-12.4 10.9l-.1-1.8c.1.4 6-2.1 10.1-7.9 2.5-3.9 3.9-9.5 3.4-13.8-.3-6.3-4.7-12-4.7-12.1l.8-1.5zm-82.9.9c.6 0 1 .5 1 1 0 .6-.5 1-1 1s-1-.5-1-1 .5-1 1-1zm9.7 0c.6 0 1 .5 1 1 0 .6-.5 1-1 1-.6 0-1-.5-1-1s.4-1 1-1zm87.4 1.7c2.3.2 5 4.4 7.6 6.8v34.1l-7.5.2c-1 2.4-3.3 4.8-6.9 7.1v-12.8c12.3-13.5 8.9-28.2 6.8-35.4zm-99.9.4c.6 0 1 .5 1 1s-.5 1-1 1c-.6 0-1-.5-1-1s.5-1 1-1zm9.4.2c.6 0 1 .5 1 1 0 .6-.5 1-1 1-.6 0-1-.5-1-1s.4-1 1-1zm95.8.1l15.4 15.8-.1 2.3-17.4-17.9 2.1-.2zM46.5 86l.4 2c-.5-.8-.5-1.1-1.4-1.2l1-.8zm-8.3.6c.6 0 1 .5 1 1 0 .6-.5 1-1 1-.6 0-1-.5-1-1s.4-1 1-1zm-9.3.2c.6 0 1 .5 1 1s-.5 1-1 1-1-.5-1-1 .5-1 1-1zm86.8 0l3 2.2-1 3.9-3.1-2.8 1.1-3.3zm-70.4.4l.5.3-.6 2.7-7 2.6c2.3-2 4.6-4.1 7.1-5.6zm1.2 1.2c.5 2 1.6 5 2.9 7.5-.9.5-4.1 2.3-4.1 3.2.5 1.6 3.9 3 3.9 3-1.3 2.1-2.5 4.6-3.5 7.5-.6-1-.7-5 .6-6.6-1.2-.5-2.9-1.6-4.2-2.8.8-3 4.4-4.8 4.5-4.8-.1.1-1.1-6.3-.1-7zm-11.4.5c.6 0 1 .5 1 1 0 .6-.5 1-1 1s-1-.5-1-1 .4-1 1-1zm78.1.1c4.6 8.6 1.8 16.1-5.4 21.4l.2-2c5-3.7 8.3-11 4.6-17.9l.6-1.5zm-86.7.3c.6 0 1 .5 1 1 0 .6-.5 1-1 1s-1-.5-1-1 .4-1 1-1zm72.8 0c-3.3 12.6-3.3 18.4-3.6 21.9l-13 .1-.5-4.6 17.1-17.4zm-51.8.4s2.8 2.7 5.3 5l-.3.6-2.5.3c-1.8-3.8-2.5-5.9-2.5-5.9zM45.1 91l.2 1.9c-.8 0-10 3.8-17 10 1-1.9 2.8-3.7 4.5-5.2 3.7-3.5 12.3-6.7 12.3-6.7zm-12.9.5c.6 0 1 .5 1 1s-.5 1-1 1c-.6 0-1-.5-1-1 0-.6.4-1 1-1zm5.7 1.2l.5.5-2.4 1.3 1.9-1.8zm16.9.5h.1c.4 0 .5.2.7.4-.5-.1-.9-.2-1.4-.1.2-.1.4-.3.6-.3zm-9.3.4l.2 1.4c-5.2 3-11.5 5.9-20.6 14.6v-2.9c5.8-5.3 12.4-9.8 20.4-13.1zm7.1.1c.3.1.6.1.9 0 0 0-.2.4-.4.4-.2.1-.5-.4-.5-.4zm2.2.1c.7 0 1.1.6 1 1.4-.5 2.7-.5 5.4.1 7.3.4 1.5.5 2 .2 2.2-3.1 2.2-4.8-7.6-2.2-10.4.3-.3.6-.5.9-.5zm-25.2.4c.6 0 1 .5 1 1s-.5 1-1 1c-.6 0-1-.5-1-1-.1-.6.4-1 1-1zm88.9.2l1.9 3.3-2.7 3-1.6-3.5 2.4-2.8zm-66.2 1.8l-.1 1.1c-1.4.4-2.6 1-3.6 1.9-.2.2 3.2 1.7 3.6 1.4v1.2c0 .4-5.6-1.4-6-2.7.5-.9 4-3 6.1-2.9zm-25.4.6c.6 0 1 .5 1 1s-.5 1-1 1-1-.5-1-1 .4-1 1-1zM42.1 98c-.4.8-1 1.8-1.1 2.9-3.8 2.4-7.7 4.6-12.5 10h-2.6l-.1-.7c5.3-5.1 10.9-9.5 16.3-12.2zm9.8.3v1.4c-.9 0-1.4-.3-2-.6.6-.4 1-.7 2-.8zm28.8.2l.7.8-.4.3-.3-1.1zM42 101.4l1.4.9c-3.6 1.9-7.5 4.8-10.8 8.5h-2.8c3.5-3.9 7.3-7.4 12.2-9.4zm75.5 1l.3 3.9-3.6 2 .1-4.1 3.2-1.8zm-67.6.1l2.4.3.3 1.1c-2.1 1.3-3.8 2.9-5.5 4.5.6-2.2 1.6-4.3 2.8-5.9zm-5.9.4l1 .5-.4 1.8c-3 1.4-5.4 3.2-7.9 5.6h-2.9c2.5-2.7 6.7-6.2 10.2-7.9zm9.1 1.7l.4 11.9c-10.6 12.6-10 24.7-6.9 35.7l-2-.1c-2.3-3-5.5-6-5.5-6v-34.7h7.3c1.7-3.9 6.4-6.8 6.7-6.8zm-8.6 1.6l.1 1.6c-1.5.9-2.8 1.9-3.9 3H38c1.8-1.8 3.7-3.6 6.5-4.6zm24.8.8l.4 1.9c-24.5 9-29 35.2-14.5 53.2l-1 1.1c-16.6-18.1-9.3-47.7 15.1-56.2zm-24.6 1.9s.1 1.4.2 1.9h-2.7c.5-.7 1.1-1.5 2.5-1.9zm69 .6l-1.6 3.7-4.2.1 1.9-3.7 3.9-.1zM87 112.1h3.8v3.7H87v-3.7zm-16.6.3l.1 1.6c-1.7.9-1.3 2.3-1.7 2.3-1 .3-3.8 1.8-3.8 1.8-1-.9-2.3-.7-2.9-.2-.9.6-1 1.9-.8 3l-2.9 3.5c-1.4-.6-2.8-.6-3.5.4-.8 1.1-.5 2.4.8 3.9l-1.6 4.2c-.2-.2-2.9.5-2.9 2.2 0 1.7 2.2 2.8 2.2 3l-.1 4.6c-.1-.2-2.3.7-2 2.9.3 2 3 1.8 3.1 1.9l1.5 4.4c-.1-.1-2 1.8-.8 3.5 1 1.5 3.8.5 3.8.4l.8 1.1-.9 1s-.4-.5-.6-.4c-1.6.3-3.5-.1-4.4-1.4-1.2-1.9.1-4.8.6-4.8l-1-2.5c-1.9 0-3.4-1.7-3.5-3.1-.2-2.9 2.2-4.2 2.2-4.2l.1-2.7c-.1.2-2.4-1.4-2.3-3.2 0-1.3 1.1-2.9 2.5-3.5l1-.5.9-2.2s-1.3-1.9-1-3.8c.6-2.9 4.4-2.7 5-2.4L60 121c-.9-2 .6-4.4 2.6-4.7.9-.1 3.3.4 3.3.4l2.2-1.2c-.3-1.5 1-2.3 2.3-3.1zm12.6 4.1h3.3v3.7H83v-3.7zm8.8 0h3.7v3.7h-3.7v-3.7zm-21.2.9v1.4C49.3 129.3 58 151 61.1 153.5l-.7 1.5c-3.7-2.2-13.4-27.2 10.2-37.6zm16.4 3.8h4v3.8h-4v-3.8zm-17.3 1.9l-1.3 3.5-3.9.3 1.4-3.5 3.8-.3zm79.8 2.5h2.7c-5 5.9-10.4 10-15.7 12.2 0 0 0-.5.1-.9.1-.3-.1-1.2-.1-1.2 6-2.9 10-6.4 13-10.1zm-13.7.1c-.7.8-1.5 1.6-2.4 2.1l-.4-2.2c.8 0 2.8.1 2.8.1zm4.7-.1c.3.7-7 4.7-7 4.3v-1.3l3.9-3h3.1zm1.6 0h2.1c-1.9 3-11.6 8.3-11.2 7.6l.4-2.2c3.1-1.3 6-3.3 8.7-5.4zm3.5 0h2.7c-4.1 5.2-8.2 7.1-12.1 9.4-.2 0-.1-.1-.9-.1l-1.4-1.1c.3.3 9.1-4.9 11.7-8.2zm-75.5.2l-.1 1.6c-5.7 5-8 11.3-5 18.6l-.7 1.6c-3.2-7.8-2.2-15.4 5.8-21.8zm25.8.3l.3 4.3-17.6 17.4c2.7-9.7 3.4-15.6 4.1-21.7h13.2zm56.5 1v2.4c-6.9 7.8-14 11.3-20 12.7l-.1-.9 2.8-1.8c9-4 12.9-8.1 17.3-12.4zm-21.1 0c.1 1.7-1.4 4.9-3.1 6.8h-2.9l-.3-1.3c2.4-1.3 4.6-3.1 6.3-5.5zm.9.6c1.1 1.8-.5 6.3-.6 6.1-.1.3 9.2 2.3-.4 7 .2 1.4 1.1 4.3.4 6.2-.2-.7-1.9-5.4-3.2-6.6 3-.9 5.2-2.7 4.9-3.3-.5-.9-1.8-1.9-4.1-2.7 2-2.9 2.6-4.9 3-6.7zm-68.8.8l.3 3.6-3.4 2.1-.3-3.9 3.4-1.8zm59.5 3.4c.3 0 .5.1.6.2 1.7.7 1.8 9.1.3 9.9-1.1.7-1.9-.4-1.9-.6.7-3.8.3-6.2 0-8.9.1-.5.6-.6 1-.6zm29.5.1v3c-9.9 10.5-20.6 18.7-31.6 23.3l-1-1.7c13.3-6.3 24.4-15.2 32.6-24.6zm-1.8.3c-4.6 6.5-10.2 10.7-17.9 12.7l-.1-1.8c9.6-2.3 18.3-10.9 18-10.9zm-125.2 1c6 6.2 12.1 12.4 18.2 18.8l-2.4.1-15.9-16.7.1-2.2zm71.4.3l.2 1.5-1.7 1.9 2.8 3 .1.7-2.4 2.5-1.1-1.1 1.3-1.5-2.2-2.4-4.1 4 3.4 3.7-2.6 2.5-1-1.1 1.3-1.5-2.3-2.4-4.2 4.2 3.2 3.6-2.1 2.4-1-1.1 1.1-1.3-2.3-2.4-4 3.9 3.3 3.7-2.7 2.7-1-1 1.5-1.7-2.5-2.4-2 1.9s.8-1.9.9-2.2c.2-.5.8-.8 5-5 4.9-4.8 10.1-9.6 15.1-15.1zm28.7 1c1.5 0 4 .4 5.2 1 2.2 1.2 1.5 2.1.1 2.9-1.7.8-3.2 1.3-5.1 1.3l.1-1c1.1-.3 2.3-.6 3.3-1.1.7-.4.9-.7.9-.7s-.7-.7-1.8-1.1c-.8-.3-1.9-.3-2.5-.4l-.2-.9zM60 135.9l1.8 2.8-2.2 3.7-2.1-3.2 2.5-3.3zm37.1.3c.1.5.7 2.6.4 2.2l-1.2-1.4.8-.8zm28.5.3c1 .1 2.1.1 2.8.5-.9.7-1.8.8-2.8 1v-1.5zm25.6 1.4c.6 0 1.1.5 1.1 1.1 0 .6-.5 1.1-1.1 1.1-.6 0-1.1-.5-1.1-1.1 0-.6.5-1.1 1.1-1.1zm-57.5 2l1 .9-1.2 1.5 2.2 2.4 2.8-2.6.4 1.7L73 169.6l-1.4-.1 1.6-2-1.9-1.9.8-1.4 2.2 2 4-3.9-3.3-3.5 2.8-2.9 1.1.9-1.6 1.8 2.3 2.4 4.2-4.2-3.3-3.7 2.6-2.6 1 .9-1.2 1.3 2.4 2.5 3.6-3.8-3.2-3.6 2.9-2.8.9.9-1.3 1.5 2.4 2.5 3.9-4.1-3.2-3.5 2.4-2.4zm54.9.6c.6 0 1.1.5 1.1 1.1 0 .6-.5 1.1-1.1 1.1-.6 0-1.1-.5-1.1-1.1 0-.5.5-1.1 1.1-1.1zm-21 .1c1.8 2.1 2.8 4.4 3 6.9-1.4-2.2-3.2-4.1-5.5-5.7l.4-1.1 2.1-.1zm24.8.2v2.5c-7.8 9-17.3 15.8-27.1 20.5l-1.7-2c11.6-5.3 19.9-11.8 28.8-21zm-11.5 1.7l-3.2 2.5v-1l3.2-1.5zm-16.4.2c2.7 1.3 5 3.6 6.3 7-3.7 2.4-7.7 4.3-11.6 6.2-1.9-3-3.7-5.9-5.2-9.8 6 0 7.6-3.3 7.6-3.4 1.5.5 1.8.6 2.9 0zm21.4.5c.6 0 1.1.4 1.1 1.1 0 .6-.5 1.1-1.1 1.1-.6 0-1.1-.5-1.1-1.1.1-.8.6-1.1 1.1-1.1zm-8.3.8v1.1c-1.5 1.4-4.5 3.5-4.5 3.5l-1.2-.1.4-3.1c1.9-.4 3.7-.9 5.3-1.4zm-77.7.1l2.9 2.4-.9 3.8-2.9-2.2.9-4zm39.1.7l.3 1.1-24 24-1.4-.2L99 144.8zm44.2.9c.6 0 1.1.5 1.1 1.1 0 .6-.5 1.1-1.1 1.1-.6 0-1.1-.5-1.1-1.1 0-.6.5-1.1 1.1-1.1zm8.9 0c.1 0 .3 0 .3.1v2.1c-.1 0-.2.1-.4.1-.6 0-1-.5-1-1.1 0-.7.5-1.2 1.1-1.2zm-2.7 2.5c.6 0 1.1.5 1.1 1.1 0 .6-.5 1.1-1.1 1.1-.6 0-1.1-.5-1.1-1.1 0-.6.5-1.1 1.1-1.1zm-9.4.1c.6 0 1.1.5 1.1 1.1 0 .6-.5 1.1-1.1 1.1-.6 0-1.1-.5-1.1-1.1 0-.6.5-1.1 1.1-1.1zm-8.1.3h1.1l-2.1 1.3c.4-.5.8-.8 1-1.3zm20.5.5v2.3c-5.5 5.6-12.4 11.3-23 16.9l-1.3-1.4c8.6-4.1 16.7-10 24.3-17.8zm-15.6 1.3c.6 0 1.1.5 1.1 1.1 0 .6-.5 1.1-1.1 1.1-.6 0-1.1-.5-1.1-1.1 0-.6.5-1.1 1.1-1.1zm9.9.1c.6 0 1.1.5 1.1 1.1s-.5 1.1-1.1 1.1c-.6 0-1.1-.5-1.1-1.1 0-.6.5-1.1 1.1-1.1zm-111 4.5c3.8-2.2 6.8-2.5 11.2-1.8l1.3 2.6c-4.2-.8-8.7-.7-12.5 2.3-3.9-2.5-6.9-3.3-10.2-2.8l-.1-2.7c4.3-.7 8.1.8 10.3 2.4zm98-2.4c.6 0 1.1.5 1.1 1.1 0 .6-.5 1.1-1.1 1.1-.6 0-1.1-.5-1.1-1.1s.5-1.1 1.1-1.1zm10.2.4c.6 0 1.1.5 1.1 1.1 0 .6-.5 1.1-1.1 1.1-.6 0-1.1-.5-1.1-1.1 0-.6.5-1.1 1.1-1.1zm-13.5 1.7c.6 0 1.1.5 1.1 1.1 0 .6-.5 1.1-1.1 1.1-.6 0-1.1-.5-1.1-1.1 0-.6.5-1.1 1.1-1.1zm10.4.7c.6 0 1.1.5 1.1 1.1 0 .6-.5 1.1-1.1 1.1-.6 0-1.1-.5-1.1-1.1 0-.6.5-1.1 1.1-1.1zm-13.9 1.3c.6 0 1.1.5 1.1 1.1s-.5 1.1-1.1 1.1c-.6 0-1.1-.5-1.1-1.1s.5-1.1 1.1-1.1zm10.9 1c.6 0 1.1.5 1.1 1.1 0 .6-.5 1.1-1.1 1.1-.6 0-1.1-.5-1.1-1.1 0-.6.5-1.1 1.1-1.1zm-14.2.7c.6 0 1.1.5 1.1 1.1 0 .6-.5 1.1-1.1 1.1s-1.1-.5-1.1-1.1c0-.5.5-1.1 1.1-1.1zm-49.2 1.1l2.8 2.6-2.9 2.9-1-1 1.6-1.7-1.1-1.5.6-1.3zm60.3.2c.6 0 1.1.5 1.1 1.1 0 .6-.5 1.1-1.1 1.1-.6 0-1.1-.5-1.1-1.1 0-.6.5-1.1 1.1-1.1zm-3.2 1.9c.6 0 1.1.5 1.1 1.1 0 .6-.5 1.1-1.1 1.1-.6 0-1.1-.5-1.1-1.1s.5-1.1 1.1-1.1zm-3.5 2c.6 0 1.1.5 1.1 1.1 0 .6-.5 1.1-1.1 1.1-.6 0-1.1-.5-1.1-1.1 0-.6.5-1.1 1.1-1.1zm-57.3 3.2l.9.7-1.4 1.7h-1.1l1.6-2.4zm-17.5 4.6c-3.2 1.6-4.7 2.6-6.9 4.5l-3.2-4.4 10.1-.1zm-21.5.1l8.4.1-2.8 4c-1.8-2-3.7-3.3-5.6-4.1zm10 .4c.9.3 3.3 3.7 4.4 5.6 2.4-1.9 4.7-4.1 7.3-5.3-3 3.3-5.7 6.6-7.6 9.9-.5-1.5-2-5.7-3.9-7.5-3 2.8-4.2 6.3-4.2 6.3-1.6-2.8-3.5-5.6-5.8-8.2-.4-.5 2.7 1.4 5.8 4.5.9-2.2 3.2-5.2 4-5.3zm-10.1 2.2c1.4 1.2 5.4 6.3 5.8 9.4l-1.9.1c-.9-3.2-2.6-6.4-3.9-9.5zm20.9.5c-1.4 3-3.2 6-4.5 9.3l-1.9-.1c2.2-4.5 2.9-5.4 6.4-9.2zm-10.6 1.3c1.8 2.5 2.6 4.8 3.2 7.7l-1.4-.1s-1-2.9-1.6-3.9c-.4-.6-.8-.5-1.1 0-.7 1.2-.9 2.5-1.3 3.8l-1.6-.1c-.3-2.2 3.2-7.3 3.8-7.4zm-.3 8.5c.6 0 1.3.7 1.3 1.9 0 .6-.4 1.9-.9 1.9-.9.5-1.9-1-1.7-2.3.3-1 .8-1.5 1.3-1.5zm-3.1.2c1.3.1 1.5 3 1 3.6-.6.6-2.1.2-2.3-.9-.4-1.3.5-2.7 1.3-2.7zm6.3 0c1.4.2 1 3.4.3 3.8-1.1.6-1.9-.4-1.6-1.9.3-1.2.7-1.9 1.3-1.9zm3.1.5c1.6.2.7 3 0 3.5-1 .8-2-.4-1.5-1.8.4-1.1 1-1.7 1.5-1.7zm-12.7.1c1.1.2 1.8 2.8 1.1 3.6-.4.4-1.4-.2-1.9-.9-.5-.9 0-2.7.8-2.7zm12.2 5.7c.1 1.4-.9 1.4-3.9.7-1.5-.3-4.1-.1-5.5.1-2.3.4-2.6.3-2.6-.7 0-1.1 1.3-1.7 4.2-1.8 2.2 0 7.5 0 7.8 1.7zm4.6-.8c-3.5.3-4.5 4.8-4.1 6.5.3 2.8.2 5.7-.3 7.6-.4 1.4-.7 2.8-1.3 4.1-.9 1.9-.7 3.3.7 4 1.1.6 2.5.4 3.4-.5 1.6-1.7 1.8-5.4.8-13.6-.3-2.9-.2-3.5 1.2-3.3 2.9-.2 2.8-4.8-.4-4.8zm-.4 3.8c-.8-.3-1.3.4-1.2 2.2 0 .8.2 1.7.3 2.4 1.1 7.9.7 13.3-1.7 13.5-2.1.3-3.5-1.2-2.5-2.8.6-.9 1.1-1 2.2-.6 1.5 1 1.2-.4-.2-1.5-.9-.6-1-.6-.5-2.6.6-2.7.9-4.6.6-8-.3-2.4.5-5.6 3.5-5.8 3-.1 2.1 4.3-.5 3.2zM30 204.3c1 .5 2 .4 2.9 0 .4-1.7.4-3.1 1.5-5.4-1.9-1.9-5-1.1-5.9.8-.9 2.1-.1 3.9 1.5 4.6zm2.9-5.8c1.1.2 1 1.4-.1 1.1-2.5-1.2-4.6 2.4-2.6 3.8 1 .6 1.5.3.5-.6-.4-.5-.3-.7-.1-1.2.5-1 2.5-.8 2.3-.1-.4 2.3-.7 3-1.4 3-3.8.1-4.6-7.3 1.4-6zm33.5 4.1S54.7 216.1 49 222.9l70.8-.3-13.5-18.9c-11.6 2.8-25.1 2-39.9-1.1zm-.4 4.3c1.8 0 3.8 1.3 5.5 5.7.1 0 7.8-11.9 14.4.5 1.1-2.8 7.4-10 14.6-.7 2.6-6.2 8.5-4.1 9.1-1.9-.1-.5-5.7-1.8-8.1 2.3-.4.9-.5 1.7 0 2.2 1.2 1.2-.1 2.8-1.5 1.9-.5-.4-.6-1.1-.2-1.7 1.2-.9-1.3-3.7-3.3-4.8-2.8-1.4-6.7-.8-8.5 1.2-1 1.1-1.6 2-1.8 2.8-.1.4 0 .5.2.8.8 1 .3 2.3-.8 2.2-1.4-.2-1.2-1.6-.3-2.3.3-.1.2-.3.1-.6-2.6-7.5-12.4-6.1-13.4-.9 0 .2-.1.4-.1.6.1.5.4.9.3 1.3-.4 1.6-2.4 1.1-2.5-.2 0-.6.6-.8.9-1.3.2-.3.3-.8.1-1.1-2.6-5.6-7.2-4.4-9.4-3.2.1-.1 2.1-2.8 4.7-2.8zm-2.9 3.3c1 0 1.8.4 2.7 1.4 2.8-1.5 4.7 1.1 4.4 1.3-3.9-2.6-5.2 3.4-1.3 3.2-1.7 3.6 4.4 5.1 3.7.5 3.7 1.3 4.4-3.9.6-3.8 1.2-2.2 4.4-1.6 5.8-.2 1.6-2 5.5-.1 5.9 1.6-4.4-2.3-4.8 4.7-.6 3.2-1.2 4.4 5.5 3.8 3.6 0 4.2 1.4 3.6-4.9-.5-3.7-.2-.3 3.2-4 5.8-.6.3-.6 4.3-2.6 6.5.5-4.7-1.6-3.8 4.8-.4 3.5-.9 4.3 5.2 3.6 3.6-.1 4.7 1.2 2.6-6.1-.7-3.4.5-2.9 4.5-1.7 4.5-1.3 0 0 2.1-2.3 4.5-.6-3.7.3-2.4 5.4 1 3.9 0 1.7 1.4 2.8 3.3 2.3l3 4.2-67.8.4 5.4-6.6c1.8 1.5 3.7.8 3.9-1.6 3.9 2.5 5-3.4 1.3-3.6.4-.2 1.1-.5 1.8-.5zm-3.8 1.9c.2.2-.1 1-.6.7l.6-.7zm52.9 1.7c.2.3.3.5.5.8.1.2-1-.2-.5-.8z"/><path id="path163-0-2-5-8-7-5-6-5-5_1_" class="st0" d="M41.43 52.353s-3.7-6.1-8.7-13.3c-3.4-4.8-6-10-6.3-14.5-.3-5.1 2.4-10.3 7.3-10.5 4.9-.2 6.9 3.9 7.7 7.4.8-3.5 2.8-7.7 7.7-7.4 4.9.2 7.6 5.4 7.3 10.5-.2 4.5-2.9 9.7-6.3 14.5-5 7.1-8.7 13.3-8.7 13.3z"/><path id="path163-0-2-5-8-7-7-8-9-1-8_1_" class="st0" d="M123.93 172.253s-3.7 6.1-8.7 13.3c-3.4 4.8-6 10-6.3 14.5-.3 5.1 2.4 10.3 7.3 10.5 4.9.2 6.9-3.9 7.7-7.4.8 3.5 2.8 7.7 7.7 7.4 4.9-.2 7.6-5.4 7.3-10.5-.2-4.5-2.9-9.7-6.3-14.5-5-7.2-8.7-13.3-8.7-13.3z"/></g></svg>