<svg xmlns="http://www.w3.org/2000/svg" width="166.9" height="226.6" viewBox="0 0 166.9 226.6"><g><path d="M124.693 15.348c-7.8.2-11.3 9-5.5 15.8.8 1 .9 1.6-.6.6-3.9-2.6-11.4-.9-11.8 7.1-.5 9.8 13.3 12.7 15.8 2.2.1-1.1 1-1.1.8.5-.2 4.2-1.6 8.2-3.4 12.1h9.3c-1.8-3.9-3.1-7.8-3.4-12.1-.2-1.6.7-1.6.8-.5 2.6 10.4 16.3 7.6 15.8-2.2-.4-8-7.9-9.7-11.8-7.1-1.5 1-1.5.4-.6-.6 5.9-6.8 2.4-15.6-5.4-15.8z"/><path d="M42.193 15.348c-7.8.2-11.3 9-5.5 15.8.8 1 .9 1.6-.6.6-3.9-2.6-11.4-.9-11.8 7.1-.5 9.8 13.3 12.7 15.8 2.2.1-1.1 1-1.1.8.5-.2 4.2-1.6 8.2-3.4 12.1h9.3c-1.8-3.9-3.1-7.8-3.4-12.1-.2-1.6.7-1.6.8-.5 2.6 10.4 16.3 7.6 15.8-2.2-.4-8-7.9-9.7-11.8-7.1-1.5 1-1.5.4-.6-.6 6-6.8 2.5-15.6-5.4-15.8z"/><path d="M124.693 211.848c-7.8-.2-11.3-9-5.5-15.8.8-1 .9-1.6-.6-.6-3.9 2.6-11.4.9-11.8-7.1-.5-9.8 13.3-12.7 15.8-2.2.1 1.1 1 1.1.8-.5-.2-4.2-1.6-8.2-3.4-12.1h9.3c-1.8 3.9-3.1 7.8-3.4 12.1-.2 1.6.7 1.6.8.5 2.6-10.4 16.3-7.6 15.8 2.2-.4 8-7.9 9.7-11.8 7.1-1.5-1-1.5-.4-.6.6 5.9 6.9 2.4 15.7-5.4 15.8z"/><path d="M42.193 211.848c-7.8-.2-11.3-9-5.5-15.8.8-1 .9-1.6-.6-.6-3.9 2.6-11.4.9-11.8-7.1-.5-9.8 13.3-12.7 15.8-2.2.1 1.1 1 1.1.8-.5-.2-4.2-1.6-8.2-3.4-12.1h9.3c-1.8 3.9-3.1 7.8-3.4 12.1-.2 1.6.7 1.6.8.5 2.6-10.4 16.3-7.6 15.8 2.2-.4 8-7.9 9.7-11.8 7.1-1.5-1-1.5-.4-.6.6 6 6.9 2.5 15.7-5.4 15.8z"/><path d="M83.493 94.448c-7.8.2-11.3 9-5.5 15.8.8 1 .9 1.6-.6.6-3.9-2.6-11.4-.9-11.8 7.1-.5 9.8 13.3 12.7 15.8 2.2.1-1.1 1-1.1.8.5-.2 4.2-1.6 8.2-3.4 12.1h9.3c-1.8-3.9-3.1-7.8-3.4-12.1-.2-1.6.7-1.6.8-.5 2.6 10.4 16.3 7.6 15.8-2.2-.4-8-7.9-9.7-11.8-7.1-1.5 1-1.5.4-.6-.6 5.9-6.8 2.4-15.6-5.4-15.8z"/><path d="M158.693 197.748c3.1-.1 4.5-3.7 2.2-6.6-.3-.4-.4-.7.2-.3 1.6 1.1 4.6.4 4.7-2.9.2-4.1-5.3-5.3-6.3-.9-.1.5-.4.4-.3-.2.1-1.8.6-3.4 1.4-5h-3.7c.7 1.6 1.3 3.3 1.4 5 .1.7-.3.7-.3.2-1-4.4-6.5-3.2-6.3.9.2 3.3 3.1 4 4.7 2.9.6-.4.6-.2.2.3-2.5 2.9-1.1 6.5 2.1 6.6z"/><path d="M8.293 28.848c-3.1.1-4.5 3.7-2.2 6.6.3.4.4.7-.2.3-1.6-1.1-4.6-.4-4.7 2.9-.2 4.1 5.3 5.3 6.3.9.1-.5.4-.4.3.2-.1 1.8-.6 3.4-1.4 5h3.7c-.7-1.6-1.3-3.3-1.4-5-.1-.7.3-.7.3-.2 1 4.4 6.5 3.2 6.3-.9-.2-3.3-3.1-4-4.7-2.9-.6.4-.6.2-.2-.3 2.4-2.9 1-6.6-2.1-6.6z"/><path d="M-.007 19.548h2.6c.5 1.6 1.6 3.2 3.1 3.7 4.2 1 6.9-1.4 7.7-4.1 1.1-3.3 0-8-2.9-9.7-2.4-1.4-5.9-.2-7.5 2.7l-1.8-1.1 1-11h11.8v2.6h-9.7l-.2 4.6c2.1-1.5 5.2-1.5 7.3-.4 3.9 1.9 5.7 6.2 4.9 11.3-1 5-3.4 7.9-8.6 8.3-5.7-.1-7.7-4.1-7.7-6.9z"/><path d="M166.893 207.048h-2.6c-.5-1.6-1.6-3.2-3.1-3.7-4.2-1-6.9 1.4-7.7 4.1-1.1 3.3 0 8 2.9 9.7 2.4 1.4 5.9.2 7.5-2.7l1.8 1.1-1 11h-11.7v-2.6h9.6l.2-4.6c-2.1 1.5-5.2 1.5-7.3.4-3.9-1.9-5.7-6.2-4.9-11.3 1-5 3.4-7.9 8.6-8.3 5.7.1 7.8 4.1 7.7 6.9z"/></g></svg>