<!-- Generator: Adobe Illustrator 19.2.1, SVG Export Plug-In  -->
<svg version="1.1"
	 xmlns="http://www.w3.org/2000/svg" xmlns:xlink="http://www.w3.org/1999/xlink" xmlns:a="http://ns.adobe.com/AdobeSVGViewerExtensions/3.0/"
	 x="0px" y="0px" width="165.3px" height="226.6px" viewBox="0 0 165.3 226.6" style="enable-background:new 0 0 165.3 226.6;"
	 xml:space="preserve">
<style type="text/css">
	.st0{fill:#D40000;}
</style>
<defs>
</defs>
<g id="g6716_1_" transform="matrix(0.99553491,0,0,0.99680337,8.7292473,-8.1397402)">
	<path id="path6516-8_1_" class="st0" d="M74.3,61.7c-4.1-6.9-8.5-13.5-14-19.2
		c5.5-5.7,9.8-12.3,14-19.2c4.1,6.9,8.5,13.5,14,19.2C82.8,48.1,78.4,54.8,74.3,61.7z"/>
	<path id="path6518-2_1_" class="st0" d="M-1.3,53.1c-1.7-2.9-3.5-5.6-5.8-8
		c2.3-2.4,4.1-5.1,5.8-8c1.7,2.9,3.5,5.6,5.8,8C2.3,47.4,0.5,50.2-1.3,53.1z"/>
	<path id="path6522-0_1_" class="st0" d="M149.8,206.6c-1.7-2.9-3.5-5.6-5.8-8
		c2.3-2.4,4.1-5.1,5.8-8c1.7,2.9,3.5,5.6,5.8,8C153.3,200.9,151.5,203.7,149.8,206.6z"/>
	<path id="path6538-6_1_" class="st0" d="M74.3,220.4c-4.1-6.9-8.5-13.5-14-19.2
		c5.5-5.7,9.8-12.3,14-19.2c4.1,6.9,8.5,13.5,14,19.2C82.8,206.9,78.4,213.5,74.3,220.4z"/>
	<path id="path15-34-1-4-2_1_" class="st0" d="M-8.8,34.5l0.1-1.6c0.4-5,1.5-6.7,7.6-12
		c3-2.5,4-3.8,4.1-5.3c0.4-3.4-2.7-4.5-4.6-4.5c-2.6,0-5.5,1.5-4.1,5.2l-2.9,0.9c-0.6-3.4,0-6.6,2.7-8C-2.2,7.3,2.4,8.1,4.7,11
		c1.6,1.9,1.9,4.6,1.1,6.7C3.4,23.1-5,25.4-5.7,31.7h9.2v-3.5h2.7v6.4L-8.8,34.5L-8.8,34.5z"/>
	<path id="path15-5-4-6-4_1_" class="st0" d="M157.3,209.1l-0.1,1.6c-0.4,5-1.5,6.7-7.6,12
		c-3,2.5-4,3.8-4.1,5.3c-0.4,3.4,2.7,4.5,4.6,4.5c2.6,0,5.5-1.5,4.1-5.2l2.9-0.9c0.6,3.4,0,6.6-2.7,8c-3.6,1.8-8.2,1.1-10.5-1.8
		c-1.6-1.9-1.9-4.6-1.1-6.7c2.5-5.4,10.8-7.7,11.5-14H145v3.5h-2.7v-6.4L157.3,209.1L157.3,209.1z"/>
</g>
</svg>
