<!-- Generator: Adobe Illustrator 19.2.1, SVG Export Plug-In  -->
<svg version="1.1"
	 xmlns="http://www.w3.org/2000/svg" xmlns:xlink="http://www.w3.org/1999/xlink" xmlns:a="http://ns.adobe.com/AdobeSVGViewerExtensions/3.0/"
	 x="0px" y="0px" width="166.8px" height="226.6px" viewBox="0 0 166.8 226.6" style="enable-background:new 0 0 166.8 226.6;"
	 xml:space="preserve">
<style type="text/css">
	.st0{fill:#D40000;}
</style>
<defs>
</defs>
<g id="g6735_1_" transform="matrix(0.99553491,0,0,0.99680337,9.0954445,-8.1397402)">
	<path id="path6654-0_1_" class="st0" d="M-0.9,53.1c-1.7-2.9-3.5-5.6-5.8-8
		c2.3-2.4,4.1-5.1,5.8-8c1.7,2.9,3.5,5.6,5.8,8C2.6,47.4,0.8,50.2-0.9,53.1z"/>
	<path id="path6656-6_1_" class="st0" d="M116,61.7c-4.1-6.9-8.5-13.5-14-19.2
		c5.5-5.7,9.8-12.3,14-19.2c4.1,6.9,8.5,13.5,14,19.2C124.5,48.1,120.2,54.8,116,61.7z"/>
	<path id="path6658-8_1_" class="st0" d="M150.1,206.6c-1.7-2.9-3.5-5.6-5.8-8
		c2.3-2.4,4.1-5.1,5.8-8c1.7,2.9,3.5,5.6,5.8,8C153.7,200.9,151.9,203.7,150.1,206.6z"/>
	<path id="path6660-7_1_" class="st0" d="M33.2,61.7c-4.1-6.9-8.5-13.5-14-19.2
		c5.5-5.7,9.8-12.3,14-19.2c4.1,6.9,8.5,13.5,14,19.2C41.7,48.1,37.4,54.8,33.2,61.7z"/>
	<path id="path6676-4_1_" class="st0" d="M33.2,220.4c-4.1-6.9-8.5-13.5-14-19.2
		c5.5-5.7,9.8-12.3,14-19.2c4.1,6.9,8.5,13.5,14,19.2C41.7,206.9,37.4,213.5,33.2,220.4z"/>
	<path id="path6678-8_1_" class="st0" d="M116,220.4c-4.1-6.9-8.5-13.5-14-19.2
		c5.5-5.7,9.8-12.3,14-19.2c4.1,6.9,8.5,13.5,14,19.2C124.5,206.9,120.2,213.5,116,220.4z"/>
	<path id="path19-3-1-9-0_1_" class="st0" d="M-0.7,34.6v-2.3h2.1v-3.8H-9.1v-2.7L2.3,8.2l1.9,0
		v17.5h3.2v2.7H4.1l-0.1,3.8h1.8v2.3L-0.7,34.6L-0.7,34.6z M1.4,14.6l-7.2,11.1h7.2V14.6z"/>
	<path id="path19-4-46-7-7_1_" class="st0" d="M150,209.1v2.3h-2.1v3.8h10.5v2.7L147,235.5l-1.9,0
		V218h-3.2v-2.7h3.2l0.1-3.8h-1.8v-2.3L150,209.1L150,209.1z M147.8,229.1l7.2-11.1h-7.2V229.1z"/>
</g>
</svg>
