<!-- Generator: Adobe Illustrator 19.2.1, SVG Export Plug-In  -->
<svg version="1.1"
	 xmlns="http://www.w3.org/2000/svg" xmlns:xlink="http://www.w3.org/1999/xlink" xmlns:a="http://ns.adobe.com/AdobeSVGViewerExtensions/3.0/"
	 x="0px" y="0px" width="166.3px" height="226.6px" viewBox="0 0 166.3 226.6" style="enable-background:new 0 0 166.3 226.6;"
	 xml:space="preserve">
<defs>
</defs>
<g id="g8542-3-6_1_" transform="matrix(0.99553774,0,0,0.99680134,-405.44958,79.60161)">
	<g id="g8587-4-9_1_" transform="translate(-4.1467285e-5,2.9626465e-5)">
		<path id="path7293-3-2_1_" d="M449.4-64.8
			C442-54.2,434.1-48.2,434-40c0,2.7,1.4,7.2,5.9,8c2.9,0.6,6.9-1.8,7-6.6c0-1,1-0.9,1,0.4c-0.1,3.8-1.3,8.2-3.4,11.8
			c3.2,0,6.4,0,9.7,0c-2-3.6-3.2-8-3.4-11.8c0-1.3,1-1.3,1-0.4c0.1,4.8,4.1,7.2,7,6.6c4.5-0.9,5.9-5.4,5.9-8
			C464.7-48.2,456.8-54.2,449.4-64.8z"/>
		<path id="path7295-4-8_1_" d="M415.3-50.9
			c-3.4,4.4-7.1,6.9-7.2,10.3c0,1.1,0.7,3,2.8,3.4c1.4,0.2,3.2-0.8,3.3-2.8c0-0.4,0.5-0.4,0.5,0.2c-0.1,1.6-0.6,3.4-1.6,4.9
			c1.5,0,3,0,4.5,0c-0.9-1.5-1.5-3.3-1.6-4.9c0-0.5,0.5-0.6,0.5-0.2c0,2,1.9,3,3.3,2.8c2.1-0.4,2.8-2.2,2.8-3.4
			C422.4-44,418.7-46.6,415.3-50.9L415.3-50.9z"/>
		<path id="path7297-5-1_1_" d="M449.4,79.5
			C442,68.9,434.1,62.9,434,54.7c0-2.7,1.4-7.2,5.9-8c2.9-0.6,6.9,1.8,7,6.6c0,1,1,0.9,1-0.4c-0.1-3.8-1.3-8.2-3.4-11.8
			c3.2,0,6.4,0,9.7,0c-2,3.6-3.2,8-3.4,11.8c0,1.3,1,1.3,1,0.4c0.1-4.8,4.1-7.2,7-6.6c4.5,0.9,5.9,5.4,5.9,8
			C464.7,62.9,456.8,68.9,449.4,79.5z"/>
		<path id="path7299-3-5_1_" d="M566.3,118.5
			c-3.4-4.4-7.1-6.9-7.2-10.3c0-1.1,0.7-3,2.8-3.4c1.4-0.2,3.2,0.8,3.3,2.8c0,0.4,0.5,0.4,0.5-0.2c-0.1-1.6-0.6-3.4-1.6-4.9
			c1.5,0,3,0,4.5,0c-0.9,1.5-1.5,3.3-1.6,4.9c0,0.5,0.5,0.6,0.5,0.2c0-2,1.9-3,3.3-2.8c2.1,0.4,2.8,2.2,2.8,3.4
			C573.5,111.6,569.8,114.2,566.3,118.5L566.3,118.5z"/>
		<path id="path7301-4-0_1_" d="M532.2-64.8
			c-7.4,10.5-15.3,16.6-15.4,24.8c0,2.7,1.4,7.2,5.9,8c2.9,0.6,6.9-1.8,7-6.6c0-1,1-0.9,1,0.4c-0.1,3.8-1.3,8.2-3.4,11.8
			c3.2,0,6.4,0,9.7,0c-2-3.6-3.2-8-3.4-11.8c0-1.3,1-1.3,1-0.4c0.1,4.8,4.1,7.2,7,6.6c4.5-0.9,5.9-5.4,5.9-8
			C547.5-48.2,539.6-54.2,532.2-64.8z"/>
		<path id="path7303-7-8_1_" d="M449.4-11.9
			C442-1.3,434.1,4.7,434,12.9c0,2.7,1.4,7.2,5.9,8c2.9,0.6,6.9-1.8,7-6.6c0-1,1-0.9,1,0.4c-0.1,3.8-1.3,8.2-3.4,11.8
			c3.2,0,6.4,0,9.7,0c-2-3.6-3.2-8-3.4-11.8c0-1.3,1-1.3,1-0.4c0.1,4.8,4.1,7.2,7,6.6c4.5-0.9,5.9-5.4,5.9-8
			C464.7,4.7,456.8-1.3,449.4-11.9z"/>
		<path id="path7305-6-7_1_" d="M490.8-30.7
			c-7.4,10.5-15.3,16.6-15.4,24.8c0,2.7,1.4,7.2,5.9,8c2.9,0.6,6.9-1.8,7-6.6c0-1,1-0.9,1,0.4c-0.1,3.8-1.3,8.2-3.4,11.8
			c3.2,0,6.4,0,9.7,0c-2-3.6-3.2-8-3.4-11.8c0-1.3,1-1.3,1-0.4c0.1,4.8,4.1,7.2,7,6.6c4.5-0.9,5.9-5.4,5.9-8
			C506.1-14.1,498.2-20.1,490.8-30.7z"/>
		<path id="path7309-8-5_1_" d="M532.2-11.9
			c-7.4,10.5-15.3,16.6-15.4,24.8c0,2.7,1.4,7.2,5.9,8c2.9,0.6,6.9-1.8,7-6.6c0-1,1-0.9,1,0.4c-0.1,3.8-1.3,8.2-3.4,11.8
			c3.2,0,6.4,0,9.7,0c-2-3.6-3.2-8-3.4-11.8c0-1.3,1-1.3,1-0.4c0.1,4.8,4.1,7.2,7,6.6c4.5-0.9,5.9-5.4,5.9-8
			C547.5,4.7,539.6-1.3,532.2-11.9z"/>
		<path id="path7313-6-8_1_" d="M449.4,132.4
			c-7.4-10.5-15.3-16.6-15.4-24.8c0-2.7,1.4-7.2,5.9-8c2.9-0.6,6.9,1.8,7,6.6c0,1,1,0.9,1-0.4c-0.1-3.8-1.3-8.2-3.4-11.8
			c3.2,0,6.4,0,9.7,0c-2,3.6-3.2,8-3.4,11.8c0,1.3,1,1.3,1,0.4c0.1-4.8,4.1-7.2,7-6.6c4.5,0.9,5.9,5.4,5.9,8
			C464.7,115.8,456.8,121.8,449.4,132.4L449.4,132.4z"/>
		<path id="path7315-7-3_1_" d="M532.2,132.4
			c-7.4-10.5-15.3-16.6-15.4-24.8c0-2.7,1.4-7.2,5.9-8c2.9-0.6,6.9,1.8,7,6.6c0,1,1,0.9,1-0.4c-0.1-3.8-1.3-8.2-3.4-11.8
			c3.2,0,6.4,0,9.7,0c-2,3.6-3.2,8-3.4,11.8c0,1.3,1,1.3,1,0.4c0.1-4.8,4.1-7.2,7-6.6c4.5,0.9,5.9,5.4,5.9,8
			C547.5,115.8,539.6,121.8,532.2,132.4L532.2,132.4z"/>
		<path id="path7317-0-2_1_" d="M490.8,98.3
			c-7.4-10.5-15.3-16.6-15.4-24.8c0-2.7,1.4-7.2,5.9-8c2.9-0.6,6.9,1.8,7,6.6c0,1,1,0.9,1-0.4c-0.1-3.8-1.3-8.2-3.4-11.8
			c3.2,0,6.4,0,9.7,0c-2,3.6-3.2,8-3.4,11.8c0,1.3,1,1.3,1,0.4c0.1-4.8,4.1-7.2,7-6.6c4.5,0.9,5.9,5.4,5.9,8
			C506.1,81.7,498.2,87.7,490.8,98.3z"/>
		<path id="path7319-5-6_1_" d="M532.2,79.5
			c-7.4-10.5-15.3-16.6-15.4-24.8c0-2.7,1.4-7.2,5.9-8c2.9-0.6,6.9,1.8,7,6.6c0,1,1,0.9,1-0.4c-0.1-3.8-1.3-8.2-3.4-11.8
			c3.2,0,6.4,0,9.7,0c-2,3.6-3.2,8-3.4,11.8c0,1.3,1,1.3,1,0.4c0.1-4.8,4.1-7.2,7-6.6c4.5,0.9,5.9,5.4,5.9,8
			C547.5,62.9,539.6,68.9,532.2,79.5z"/>
		<path id="path31-5-4-7_1_" d="M407.3-53.5v-26.4h2.6v26.4H407.3z"/>
		<path id="path33-4-6-8_1_" d="M417.4-79.9c-2.5,0-4.4,2.3-4.4,5v16.3c0,2.8,2,5,4.4,5h1.4
			c2.5,0,4.4-2.2,4.4-5v-16.3c0-2.8-2-5-4.4-5H417.4z M418.2-77.4c1.5,0,2.6,1.1,2.6,2.5v16.5c0,1.4-1.2,2.5-2.6,2.5
			c-1.5,0-2.6-1.1-2.6-2.5v-16.5C415.5-76.2,416.7-77.4,418.2-77.4L418.2-77.4z"/>
		<g id="g8583-6-9_1_" transform="matrix(-1,0,0,1,6929.1386,0)">
			<path id="path31-5-5-6-7_1_" d="M6354.8,121.1v26.4h2.6v-26.4H6354.8z"/>
			<path id="path33-4-3-7-9_1_" d="M6365,147.5c-2.5,0-4.4-2.3-4.4-5v-16.3c0-2.8,2-5,4.4-5h1.4
				c2.5,0,4.4,2.2,4.4,5v16.3c0,2.8-2,5-4.4,5H6365z M6365.7,145c1.5,0,2.6-1.1,2.6-2.5v-16.5c0-1.4-1.2-2.5-2.6-2.5
				s-2.6,1.1-2.6,2.5v16.5C6363.1,143.8,6364.2,145,6365.7,145L6365.7,145z"/>
		</g>
	</g>
</g>
</svg>
