<!-- Generator: Adobe Illustrator 19.2.1, SVG Export Plug-In  -->
<svg version="1.1"
	 xmlns="http://www.w3.org/2000/svg" xmlns:xlink="http://www.w3.org/1999/xlink" xmlns:a="http://ns.adobe.com/AdobeSVGViewerExtensions/3.0/"
	 x="0px" y="0px" width="166.9px" height="226.6px" viewBox="0 0 166.9 226.6" style="enable-background:new 0 0 166.9 226.6;"
	 xml:space="preserve">
<defs>
</defs>
<g id="g5455_1_" transform="translate(1.9933614,-5.5523942)">
	<path id="path147-0-8-1-6-13-2-8-2-5_1_" d="M122.7,20.9
		c-7.8,0.2-11.3,9-5.5,15.8c0.8,1,0.9,1.6-0.6,0.6c-3.9-2.6-11.4-0.9-11.8,7.1c-0.5,9.8,13.3,12.7,15.8,2.2c0.1-1.1,1-1.1,0.8,0.5
		c-0.2,4.2-1.6,8.2-3.4,12.1c3.1,0,6.5,0,9.3,0c-1.8-3.9-3.1-7.8-3.4-12.1c-0.2-1.6,0.7-1.6,0.8-0.5c2.6,10.4,16.3,7.6,15.8-2.2
		c-0.4-8-7.9-9.7-11.8-7.1c-1.5,1-1.5,0.4-0.6-0.6C134,29.9,130.5,21.1,122.7,20.9C122.7,20.9,122.7,20.9,122.7,20.9L122.7,20.9z"/>
	
		<path id="path147-0-8-1-6-75-2-83-7-6-4_1_" d="
		M40.2,20.9c-7.8,0.2-11.3,9-5.5,15.8c0.8,1,0.9,1.6-0.6,0.6c-3.9-2.6-11.4-0.9-11.8,7.1c-0.5,9.8,13.3,12.7,15.8,2.2
		c0.1-1.1,1-1.1,0.8,0.5c-0.2,4.2-1.6,8.2-3.4,12.1c3.1,0,6.5,0,9.3,0c-1.8-3.9-3.1-7.8-3.4-12.1c-0.2-1.6,0.7-1.6,0.8-0.5
		c2.6,10.4,16.3,7.6,15.8-2.2c-0.4-8-7.9-9.7-11.8-7.1c-1.5,1-1.5,0.4-0.6-0.6C51.6,29.9,48.1,21.1,40.2,20.9
		C40.2,20.9,40.2,20.9,40.2,20.9L40.2,20.9z"/>
	<path id="path147-0-8-1-6-7-5-5-7-6-8-5_1_" d="
		M122.7,217.4c-7.8-0.2-11.3-9-5.5-15.8c0.8-1,0.9-1.6-0.6-0.6c-3.9,2.6-11.4,0.9-11.8-7.1c-0.5-9.8,13.3-12.7,15.8-2.2
		c0.1,1.1,1,1.1,0.8-0.5c-0.2-4.2-1.6-8.2-3.4-12.1c3.1,0,6.5,0,9.3,0c-1.8,3.9-3.1,7.8-3.4,12.1c-0.2,1.6,0.7,1.6,0.8,0.5
		c2.6-10.4,16.3-7.6,15.8,2.2c-0.4,8-7.9,9.7-11.8,7.1c-1.5-1-1.5-0.4-0.6,0.6C134,208.5,130.5,217.3,122.7,217.4
		C122.7,217.4,122.7,217.4,122.7,217.4L122.7,217.4z"/>
	
		<path id="path147-0-8-1-6-75-6-1-2-4-9-5_1_" d="
		M40.2,217.4c-7.8-0.2-11.3-9-5.5-15.8c0.8-1,0.9-1.6-0.6-0.6c-3.9,2.6-11.4,0.9-11.8-7.1c-0.5-9.8,13.3-12.7,15.8-2.2
		c0.1,1.1,1,1.1,0.8-0.5c-0.2-4.2-1.6-8.2-3.4-12.1c3.1,0,6.5,0,9.3,0c-1.8,3.9-3.1,7.8-3.4,12.1c-0.2,1.6,0.7,1.6,0.8,0.5
		c2.6-10.4,16.3-7.6,15.8,2.2c-0.4,8-7.9,9.7-11.8,7.1c-1.5-1-1.5-0.4-0.6,0.6C51.6,208.5,48.1,217.3,40.2,217.4
		C40.2,217.4,40.2,217.4,40.2,217.4L40.2,217.4z"/>
	<path id="path147-0-8-1-6-1-1-0-5-6-4-0_1_" d="M81.5,100
		c-7.8,0.2-11.3,9-5.5,15.8c0.8,1,0.9,1.6-0.6,0.6c-3.9-2.6-11.4-0.9-11.8,7.1c-0.5,9.8,13.3,12.7,15.8,2.2c0.1-1.1,1-1.1,0.8,0.5
		c-0.2,4.2-1.6,8.2-3.4,12.1c3.1,0,6.5,0,9.3,0c-1.8-3.9-3.1-7.8-3.4-12.1c-0.2-1.6,0.7-1.6,0.8-0.5c2.6,10.4,16.3,7.6,15.8-2.2
		c-0.4-8-7.9-9.7-11.8-7.1c-1.5,1-1.5,0.4-0.6-0.6C92.8,109,89.3,100.2,81.5,100C81.5,100,81.5,100,81.5,100L81.5,100z"/>
	<path id="path147-6-9-8-7-0-5-6-7-4-6_1_" d="M156.7,203.3
		c3.1-0.1,4.5-3.7,2.2-6.6c-0.3-0.4-0.4-0.7,0.2-0.3c1.6,1.1,4.6,0.4,4.7-2.9c0.2-4.1-5.3-5.3-6.3-0.9c-0.1,0.5-0.4,0.4-0.3-0.2
		c0.1-1.8,0.6-3.4,1.4-5c-1.2,0-2.5,0-3.7,0c0.7,1.6,1.3,3.3,1.4,5c0.1,0.7-0.3,0.7-0.3,0.2c-1-4.4-6.5-3.2-6.3,0.9
		c0.2,3.3,3.1,4,4.7,2.9c0.6-0.4,0.6-0.2,0.2,0.3C152.1,199.6,153.5,203.2,156.7,203.3C156.7,203.3,156.7,203.3,156.7,203.3
		L156.7,203.3z"/>
	<path id="path147-6-9-8-7-4-5-62-2-3-8_1_" d="M6.3,34.4
		c-3.1,0.1-4.5,3.7-2.2,6.6c0.3,0.4,0.4,0.7-0.2,0.3c-1.6-1.1-4.6-0.4-4.7,2.9c-0.2,4.1,5.3,5.3,6.3,0.9c0.1-0.5,0.4-0.4,0.3,0.2
		c-0.1,1.8-0.6,3.4-1.4,5c1.2,0,2.5,0,3.7,0c-0.7-1.6-1.3-3.3-1.4-5c-0.1-0.7,0.3-0.7,0.3-0.2c1,4.4,6.5,3.2,6.3-0.9
		c-0.2-3.3-3.1-4-4.7-2.9c-0.6,0.4-0.6,0.2-0.2-0.3C10.8,38.1,9.4,34.4,6.3,34.4C6.3,34.4,6.3,34.4,6.3,34.4L6.3,34.4z"/>
	<path id="path21-39-8-1_1_" d="M-2,25.1l2.6,0c0.5,1.6,1.6,3.2,3.1,3.7c4.2,1,6.9-1.4,7.7-4.1
		c1.1-3.3,0-8-2.9-9.7c-2.4-1.4-5.9-0.2-7.5,2.7l-1.8-1.1l1-11h11.8v2.6H2.3l-0.2,4.6c2.1-1.5,5.2-1.5,7.3-0.4
		c3.9,1.9,5.7,6.2,4.9,11.3c-1,5-3.4,7.9-8.6,8.3C0,31.9-2,27.9-2,25.1L-2,25.1L-2,25.1z"/>
	<path id="path21-3-4-1-8_1_" d="M164.9,212.6l-2.6,0c-0.5-1.6-1.6-3.2-3.1-3.7
		c-4.2-1-6.9,1.4-7.7,4.1c-1.1,3.3,0,8,2.9,9.7c2.4,1.4,5.9,0.2,7.5-2.7l1.8,1.1l-1,11H151v-2.6h9.6l0.2-4.6
		c-2.1,1.5-5.2,1.5-7.3,0.4c-3.9-1.9-5.7-6.2-4.9-11.3c1-5,3.4-7.9,8.6-8.3C162.9,205.8,165,209.8,164.9,212.6L164.9,212.6
		L164.9,212.6z"/>
</g>
</svg>
