<!-- Generator: Adobe Illustrator 19.2.1, SVG Export Plug-In  -->
<svg version="1.1"
	 xmlns="http://www.w3.org/2000/svg" xmlns:xlink="http://www.w3.org/1999/xlink" xmlns:a="http://ns.adobe.com/AdobeSVGViewerExtensions/3.0/"
	 x="0px" y="0px" width="166.3px" height="226.6px" viewBox="0 0 166.3 226.6" style="enable-background:new 0 0 166.3 226.6;"
	 xml:space="preserve">
<style type="text/css">
	.st0{fill:#E2CF00;}
	.st1{fill:#131F67;}
	.st2{fill:#D40000;}
</style>
<defs>
</defs>
<g id="g6503_1_" transform="matrix(0.99999718,0,0,1.000002,-4.9738447,-7.5442065)">
	<path id="path7431-0-1_1_" d="M13,36.4
		c-3.4,4.4-7.1,6.9-7.2,10.3c0,1.1,0.6,3,2.7,3.3c1.4,0.2,3.2-0.8,3.3-2.7c0-0.4,0.5-0.4,0.5,0.2c-0.1,1.6-0.6,3.4-1.6,4.9
		c1.5,0,3,0,4.5,0c-0.9-1.5-1.5-3.3-1.6-4.9c0-0.5,0.5-0.6,0.5-0.2c0,2,1.9,3,3.3,2.7c2.1-0.4,2.8-2.2,2.7-3.3
		C20.1,43.2,16.4,40.7,13,36.4z"/>
	<path id="path7435-3-6_1_" d="M163.3,205.3
		c-3.4-4.4-7.1-6.9-7.2-10.3c0-1.1,0.6-3,2.7-3.3c1.4-0.2,3.2,0.8,3.3,2.7c0,0.4,0.5,0.4,0.5-0.2c-0.1-1.6-0.6-3.4-1.6-4.9
		c1.5,0,3,0,4.5,0c-0.9,1.5-1.5,3.3-1.6,4.9c0,0.5,0.5,0.6,0.5,0.2c0-2,1.9-3,3.3-2.7c2.1,0.4,2.8,2.2,2.7,3.3
		C170.4,198.4,166.7,200.9,163.3,205.3L163.3,205.3z"/>
	<path id="path37-0-2-9_1_" d="M7.2,25.1H5v-3h2.2c0,0,0-1.6,0.1-4.5c0.1-6.1,0.3-7,2-8.7
		c3.5-3.3,9.3-0.6,9.2,4.4c-0.1,7,0,13.7-0.2,14.6c-0.4,1.7-0.4,1.8-0.3,2.1c0.3,0.6,2.9,0.9,2.9,0.7v3c-2,0.2-2.8,0-4.4-1.2
		c-1,1-4,1.9-6.5,0.8C8.2,32.5,6.8,30.2,7.2,25.1L7.2,25.1L7.2,25.1z M14.6,30.4c-1.1-1.6-2.9-3.7-4.6-4.5c-0.1,1.8,0,3.3,0.7,4.1
		C11.6,31.3,13.3,31.6,14.6,30.4L14.6,30.4L14.6,30.4z M15.5,13.1c-0.8-2.3-2.9-3.1-4.4-1.6c-0.9,0.9-1.1,1.8-1.1,6.9
		c0,3.1,0,4.5,0,4.5c3,1,5.7,4.4,5.7,4.4l0.1-9.5C15.8,16.1,15.7,14.6,15.5,13.1L15.5,13.1L15.5,13.1z"/>
	<path id="path37-0-5-5-3_1_" d="M169.1,216.5h2.2v3h-2.2c0,0,0,1.6-0.1,4.5c-0.1,6.1-0.3,7-2,8.7
		c-3.5,3.3-9.3,0.6-9.2-4.4c0.1-7,0-13.7,0.2-14.6c0.4-1.7,0.4-1.8,0.3-2.1c-0.3-0.6-2.9-0.9-2.9-0.7v-3c2-0.2,2.8,0,4.4,1.2
		c1-1,4-1.9,6.5-0.8C168.1,209.2,169.5,211.4,169.1,216.5L169.1,216.5L169.1,216.5z M161.7,211.3c1.1,1.6,2.9,3.7,4.6,4.5
		c0.1-1.8,0-3.3-0.7-4.1C164.6,210.3,163,210,161.7,211.3C161.7,211.3,161.7,211.3,161.7,211.3z M160.8,228.6
		c0.8,2.3,2.9,3.1,4.4,1.6c0.9-0.9,1.1-1.8,1.1-6.9c0-3.1,0-4.5,0-4.5c-3-1-5.7-4.4-5.7-4.4l-0.1,9.5
		C160.5,225.5,160.6,227.1,160.8,228.6L160.8,228.6L160.8,228.6z"/>
	
		<path id="path4075-4-3-9_1_" class="st0" d="
		M80.5,224.7l18.7-34.2c0,0,4.5,1.8,9.7,3.1c-5.1,13.2,0,30.7,0,30.7S80.5,224.7,80.5,224.7z M29.3,166.4
		c-1.1-14.5,0.6-26.8,1.3-40.1c0-0.2-6.1-4-6.1-4l14.4-8.1c1.4,0.7,2.3,0.6,2.6-0.8c-1.4-4.9-1.7-9.7,1.6-13.8
		c2.5-3,8.2-1.5,9.8-1.5c1.3,0,4.3-10.2-0.8-13.2c-1.1-0.6-1.6,6-2.4,8.7c-3.3-2-9.5-3.6-10.3-7C39,84.7,45,81,43.8,78.8
		c-1.7-3.1-6.2-7.8-8.1-6.5c-1.8,1.6-6.1,5-6.1,7.3c1.3,4.1,4.8,4.4,6.6,8.3c0.4,0.8,3.8,4.4,3.8,4.4c-1.2,1.9,0.8,5.2,0.9,4.7
		l-15.7-6.9c0,0,3.6,27.1-0.2,31.1c-0.4,0.4,3.4-1.1,3.4-0.8c1.1,1.5,13.8,9.5,17.4,12.4c6.4-9,8.8-13,17.1-21
		c1.8-1.5,5.9-4.3,8.2-7.6c1.9-2.7,2.6-5.7,2.3-8c-0.4-3-0.7-5.1-2.6-7.5c-4.3-5.5-11.1-10.8-11-10.9l2.3-1.9c0,0,8.4,7,11.9,12.1
		c2.4,3.4,1.3,7.4,3.4,8.1c0.5,0.2,3.9-0.1,5,0.1c0.1,0,24.7,17.4,20.2,18.4c-6.2,1.4-16,0.5-16,0.5c-7-6.9-10.4-9.1-14.6-7
		c0,0-10.6,9.3-16.7,16.6c-3.5,4.1-9,12.8-9,12.8c-0.4-0.2-12.5-9.8-12-8.7c0,0,2.9,26.3,1.6,36c-0.9,8.2-2.1,17-2.6,24.5
		c1.7-0.4,4.3-0.9,4.7,1.8c0.4,3.6-4.2,2.8-4.3,2.4c0,0,2.6,5.5,2.6,5.5s-4,6.9-3.9,6.6c0.1-0.2-3.6-6.1-3.6-6.1s2.7-5,3.2-6
		c0.3-0.7-4.2,1.8-4.4-1.8c-0.2-3.8,4.7-2.9,4.4-2.4C31.5,181.4,30.2,173.1,29.3,166.4L29.3,166.4z M89.4,184.4
		c0.1-0.1-10.6-4.3-20.5-3.9c-3.5-1.4-9.1-2.8-12.9-0.2c-4.2-2.9-7.9-6.1-11.6-9.2c1,0,5.5-25.9,7.5-34c-1.1-10.9,9.3-10.9,10.3-2.2
		c11.3,11.7,25.1,23.8,39.4,35.7C99.3,175.3,91.1,178.9,89.4,184.4L89.4,184.4z M114.1,107.3c-12.9-13.2-39.8-36.7-39.8-36.7
		l12.6-12.3c6.6,2,13.4,3.6,21.1,3.7c0,0,8.4,3.8,12.9,0l11.6,9.2c0,0-4.8,25.5-7.7,34.4c0.1,3.5-1.3,7.8-4.7,8.4
		C117.2,114.5,114.9,110.3,114.1,107.3L114.1,107.3z M140.1,76.8c1.3-8.3,1.6-14.3,2.6-24c-5.8,1.7-5.7-6.1,0-4.1l-2.6-5.8l3.9-6.6
		l3.6,6.2l-3.1,5.5c6.4,0.3,4.9,6.3-0.7,4.9c1,9.3,3.3,18.6,3.2,27.7c2,14.7-2.4,35.1-1.7,35.6l6.3,4.3l-1.1,31.9l-9.9-4.4l-2.9,2
		c0.9,1.9,2.2,3.7,2.6,5.7c0,0,6.8,5.6,5.9,7.4c0.4,0.3-4.9,7.3-6.4,7.1c-3-0.3-6.4-4.2-7.4-6.9c-0.8-2.7,6.1-5.4,5.2-7.5
		c-1.1-2.4-3.7-3.6-6.1-4.3c-3.2-1-4.7-3.5-4.9-3.5c0,0-1.3,10.2-2.5,9.4c-4.9-3.3-1.5-13.7-0.6-13.4c0,0,2.1,0.5,4.6,0.7
		c8.9,0.9,8.3-10,6.5-15.3c-0.6-2.1,2-1.4,3.1-1.7c4.3-1.3,11-5.7,11-5.7c-6.9-3.9-13-8.3-18.5-12.4c0,0-5.1,8.7-11.1,14.8
		c-4.4,4.4-5.1,5.9-12.5,11.6c-0.1,0.1-5.6,6.6-3,14.2c2.2,6.5,12.9,13.6,12.8,14l-2.1,2c0.1,0.1-15.1-9.4-14.7-19.7
		c0-0.4-6.9-0.5-6.9-0.5l-20-18.5l16.9-0.1l8.7,7.1l5.4,0.3c0.4,0.3,0.6-1.4,5.3-5c9.1-6.8,20.4-24.4,20.4-24.4s12,8.4,12,8.4
		C140.9,101.3,138.9,87.7,140.1,76.8L140.1,76.8z M96.6,16.9c0,0-12.4,23.4-19.2,34.4l-9.7-2.8c4-10.8,0.2-31.3-0.8-31.8L96.6,16.9z
		"/>
	
		<path id="path4073-4-2-4_1_" class="st1" d="
		M22.8,15.6v210.5h130.6V15.6H22.8z M113.1,168.3c6.2-5.8,12.3-10.5,18-14c2.2-1.3,2.9-1.5,3.8-0.7c1.4,1.3,2.3,2.4,1.8,3.3
		c-0.1,0.2-0.4,0.5-0.4,0.5l-3.4-1.3l1.1,3.9c-3.1,1.3-3,4.6-0.1,6.4l-2,4.7l4.7-2.1c0.2,1,3.6,3.5,5.7,0l4.3,2.1l-1.5-5.3
		c1.4-1.3,2.2-3.5,0-5.5l1-4.1l-3.9,1.3c-1-1.3-1.5-1.2-1.8-1.6c-0.1-0.5-0.1-1.7-0.7-2.7c-0.5-0.9-1.1-1.8-1.7-2.5
		c-0.3-0.5-0.1-0.6,1.5-1.4c0.7-0.4,1.3-0.8,1.3-0.8s7.6,3.8,10.7,5.3v70.5H110c-4.7-14.1-1.3-26.3-0.1-31.4
		c-2.2-0.2-13.5-3.9-13.8-5.1C100.6,180.7,106.7,174.2,113.1,168.3L113.1,168.3z M31.8,188.8c-5.5-1.8-5.5,4.8-2.7,5.3
		c0.7,0.1,1.5,0.2,2.6-0.1c0.3,0.1-3.3,5.5-3.3,5.5s2.8,5.2,4.2,7.4l4.3-7.6l-2.8-5.3c4.4,2.2,6.7-4.4,2.1-5.3
		c-1.1-0.2-2.3,0.4-2.3,0.4l2.4-22.9c2,1.3,5.5,4,5.5,4c0.8,12.6,0.2,23.1,7.2,41.5l0.1,12.7H24.6v-66.6l4.5,3
		c0.1,0.4-0.7,0.1-0.3,4.8C29.2,169.8,30.4,177,31.8,188.8L31.8,188.8z M118.4,17.5c0.2,0.3,0.2,0.7,0.3,1.2c1,3.3,4.4,7.2,7.1,8.2
		c0.9,0.4,1.3,0.9,0.8,1.5c-0.7,0.7-3.5-1.2-5.6-3.7c-1.9-2.2-3.2-4.1-3.5-5.5c-0.2-0.8-0.3-1.4-0.1-1.8
		C117.7,17,118.1,17.1,118.4,17.5L118.4,17.5z M121.8,17.2c0.4,0,0.8,0.4,1.1,1.2c0.7,1.8,1.8,3.2,3.5,4.4c0.5,0.3,0.6,0.8,0.4,1.1
		c-0.1,0.1-0.2,0.2-0.3,0.2c-1.3,0.4-4.8-3.7-5.1-6.2C121.3,17.3,121.5,17.2,121.8,17.2L121.8,17.2z M126.1,17.2
		c0.7,0,1,1.5,0.6,2.2c-0.3,0.2-0.9-0.1-1.4-1.1C124.9,17.5,125.1,17.2,126.1,17.2z M123.8,17.2c0.2,0,0.5-0.1,0.7,0.1
		c0.3,1.5,1.4,2.6,2.3,3.5c0.2,0.3,0.2,0.9-0.1,1.1c-0.8,0.4-3.2-2.4-3.2-4C123.4,17.5,123.5,17.3,123.8,17.2L123.8,17.2z
		 M120.7,18.2c0.8,2.8,2.9,5.1,4.7,6.2c1.3,0.8,1.8,1.3,1.2,1.7c-0.2,0.1-0.3,0.2-0.3,0.2c-3.1-1.2-6.9-5.6-7-8.8
		C120,16.7,120.6,17.7,120.7,18.2L120.7,18.2z M110.1,30.3c-1.6,0-3.6,0.4-5.2,1.1c-2.2,1-2.8,1.7-2.5,1.9c0.2,0.2,1.7-0.4,2.4-0.5
		c3.9-1,6.6-1.2,9.1-0.1c2,0.9,2,0.5,0.7-1C113.6,30.7,111.9,30.3,110.1,30.3L110.1,30.3z M123.8,32.5c1.3,0,2.6,0.3,3.1,0.9
		c0.4,2-0.6,1.1-1.4,0.7c-1.1-0.5-2.4-1-3.6-0.8c-0.8,0.1-0.8,0.1-0.4-0.2C122.1,32.7,123.1,32.5,123.8,32.5L123.8,32.5z
		 M108.5,33.2c-3.7,0.3-5,2.2-7.3,4.1c-1,0.7-0.8,1.3,0.4,1.1c1.5-0.2,2.1-0.2,4.1,0.5c2.2,0.8,3.8,1.1,5,0.6
		c2.3-0.9,2.1-0.7-1.2,2.4c-1.7,1.4-1,1.3,0.7,0.1c1.3-1,2.2-1.7,2.5-2.3c0.1-0.3,0.1-1.3,0.4-1.3c0.8,0,0.4-1-0.4-1.5
		c-0.5-0.4-0.4-0.7,0.3-1.4c1-1.1,0.7-1.5-0.4-0.9c-0.2,0.1-0.3-0.2-1-0.6C110.5,33.5,109.6,33.2,108.5,33.2L108.5,33.2z
		 M111.2,34.6c0.9,0.8,0.5,1-1.4,0.9c-1.6,0-3,0.2-5,0.8c-2.2,0.7-2.4,0.8-1.1-0.4C105.5,34.5,109.1,32.9,111.2,34.6z M122.7,34
		c0.9,0,1.6,0.1,2.3,0.5c1.9,1,2.3,1.9,0.2,1.2c-1.3-0.5-3-0.4-4.3-0.1c-1.3,0.3-1.5,0.5-1.3-0.2C119.9,34.5,121.2,34,122.7,34z
		 M108.1,37c0.4,2.2,2.1,1.5,2.3,0.2l0.6,0c-0.3,1.8-2.7,3.3-3.6-0.2C107.6,37,108.4,37,108.1,37L108.1,37z M121.4,37l0.5,0
		c0.3,1.7,1.9,2.3,2.6,0.1l0.5,0C124.6,40.7,120.8,39,121.4,37L121.4,37z M106.8,37.2c0.3,0.1,0.4,0.9,0.4,1.2
		c-0.1,0.5-1.6,0-1.9-0.5C105.6,37.6,106.3,37,106.8,37.2z M126.9,37.6v0.6c-0.7,0.2-1,0.5-1.6,0.4c0-0.4,0-0.9,0.3-1.4
		C126.1,37,126.7,37.3,126.9,37.6L126.9,37.6z M112,38.3c-0.3,0.2-0.7,0.3-0.7,0.3c-0.1-0.6-0.2-1.3,0.6-1.3
		C112.3,37.4,112.3,38,112,38.3z M120.5,37.3c0.3,0,0.6,0.7,0.6,1c-0.1,0.6-1.6,0.4-1.6-0.2C119.5,37.8,120.2,37.3,120.5,37.3
		L120.5,37.3z M106.6,60.7c-1.2-0.6-10.1-6-12.3-15.6l-0.5,1c1,2.3,2.4,6,2.4,6c-0.1-0.3,0.4,2.5,1.3,7.3c-0.5,0-1-0.1-1.5-0.3
		c-1.2-4.4-1.5-7.8-2.4-12.1l-0.4,1.2c0,0,1.2,7.7,2.1,10.7c-0.5,0-1.4-0.2-1.4-0.2c-0.7-3.2-1.2-5.4-1.9-8.7l-0.6,0.8
		c0.9,2.7,1.2,5.1,1.6,7.6c-0.6-0.1-1.2-0.1-1.8-0.5c0,0-0.9-4.7-1-4.7c-0.3,0.3-0.5,0.8-0.5,0.8c0,0,0.8,2.6,0.7,3.7
		c-0.6-0.1-1.6-0.4-2.3-0.6c-0.4,0.2-0.6,0.6-0.8,1c0.3,1.5,20.7,4.7,19.5,3.5c0,0.1,9,4,14,0.7c0,0,8.7,6.5,12.2,9.1
		c0,0.3,1.2,1.7,2.4,2.5l3.5,2.7c1,0.8,1.4,0.2,1.6-1.3c0.2-1.6,1.4-12.7,1.6-15.1c1-8,1-7.9-0.2-7.5c-1.8,0.6-3.5-0.2-3.5-2.1
		c0-1.2,0.5-2.1,1.8-2.6c0.3-0.1,0.8-0.1,1.3-0.1c0.2,0,0.7,0.1,0.7,0.1c0.6,0-2.3-5.2-2.3-5.2s2.7-4.9,4-6.7l3.5,6.4l-2.9,5.7
		c5.6-0.4,5.1,6.7-0.4,4.3c0,0,0,2.1,0,2c0.1-0.6,0-1.1,0.2-1.2c5.3,2,6.4-5.8,0.7-5.4c0.9-1.7,2-3.4,3-5.2l-4.2-7.6l-4.7,7.8
		l2.4,4.9c-0.5-0.1-1-0.1-1.5,0c-3.5,0.7-2.7,6.3,1.2,5.6c0.5-0.1,1.1-0.4,1.1-0.4l-2.6,23c0,0-0.3,0.2-1.3-0.5
		c-1.2-0.9-3.7-2.7-3.8-2.9c0.9-14.7-2.8-30.2-7-39.8c-0.3-0.7-0.1-15.3-0.1-15.3h23.9v67.8c-1.2-0.8-2.7-1.8-4-2.7
		c-0.4-0.3-0.6-0.7-0.5-1.3c-0.4,0.9-0.2,1.3-0.2,1.3l5.2,4.2l-0.2,66.6c0,0-8.5-4.4-13.7-6.5c-2.3-1-2.5-0.7-2.5-0.7
		c0,0,1.7,3.7,1.2,4.4c1.1,1.1,3,3.3,3.1,5.5c1,0.9,1.3,1,2,2.2l3.1-1.1l-0.7,3.3c3.3,2.3,0.1,5.5-0.5,5.2c0,0,1.5,3.2,1.8,4.6
		c-0.5,0-3.2-1.5-3.9-1.8c-1.9,3.8-5.2,0.6-5.2,0.1l-3.6,1.6l1.3-4.1c-2.3-1.4-3.9-3.5-0.1-5.8l-0.9-3.2l3.1,1.2c0,0,0.6-0.9,1-1.6
		c-1.2-5-8.7-4.1-11.1-8.6c0,0-0.6,5.6-1.2,7.7c-0.2,5.4-4-0.1-4-5.8c0-1.3,1.6-5.6,2.2-5.8c0.6-0.1,6,2.5,9.6-0.1
		c1.7-1.7,4.5-6.6,1.8-14.2c-0.9-1.8,1.7-2,2.6-1.4c0,0,7.9-4.1,11.5-6.1c-6-3.3-18.4-12.1-18.4-12.5c-1.7,2.6-3.6,4.9-6.2,8.6
		c-4.3,5.1-7.7,10-13.2,14.1c-7.7,5.6-9.5,11.3-7.4,18c0.9,2.9,2.6,5.8,5.5,6.8c1.5,1.5,7.3,7.1,7.3,7.1c-9.8,9-16.5,16.3-21.3,24.5
		c4,2.1,13.6,5.1,13.6,5.1c-3.6,11.9-1.9,21.4,0.4,30.9c0,0-27.9,0-42.4-0.4c-0.1,0.1-1.7,0-1.7-0.1c-0.1-1.1,2.6-4,3.4-3.6
		c0.4-0.4,1.2-0.6,1.1-1.1c-2-0.2-5,3.2-5.1,4.7h-1.2c-0.2-0.2,2.2-5.8,7-6.3c-0.1,0.2,0.6-0.4,0.1-0.7c-5.6,0.7-8.2,6.9-8.1,7h-0.9
		c1.9-6.2,6.9-8.1,9.8-8.4c0,0,0.9-0.3,0.7-0.9c-6.4,1.1-9.5,3.9-11.1,9.2h-1.1c0.8-5.4,6.4-10.2,12.7-10c0.2-0.1,0.4-0.3,0.3-0.9
		c-7,0.8-10.5,3.1-13.4,9.2c-2.6-6.7-9.7-9.9-9.8-9.9c0,0-0.2-1.9,0.2-1.8c6.1,2.2,8.4-3.1,8.2-6.2c-0.1-1.7,0-2.7-0.6-5.1
		c-0.5-2.2-0.9-3.7-0.8-4.6c0-0.9,0.3-1.1,1-1.5c1.3-0.6,2.1-2.7,1.8-3c-0.7,1.6-2.4,1.8-3.3,2.9c-0.7,0.9-0.4,2.2,0.8,7
		c0.7,2.9-0.1,1.6-1.8,0.7l-1.1-0.6c0.7,0.8,1.5,1.5,2.3,2.2c0.7,0.6,0.3,1-0.7,0.6c-1.4-0.7-4.1-0.4-5.1,0.5
		c-0.4,0.3-0.5,0.3-0.6,0c-0.5-7.4,0.3-12,2.8-17.6c1.6-3.8,3.9-6.6,7.1-6.8c3.2-0.3,7.7,0.9,11.9,3.7c4.9,3.3,9.6,8.4,10.1,14.5
		c0,0.1,0.4-0.5,0.5-0.8c0.2-0.7-0.6-2.9-1.9-5.5c-0.2-1.9-0.9-5.3-1.4-7.6c0.4-0.2,1.2-0.1,1.5,0.2c0.9,3.8,1.5,6.7,2.3,11.8
		c0,0.5,0.6-0.7,0.6-1.1c-0.1-0.8-2.2-10.7-2.2-10.4c0-0.3,2,0.1,1.7,0.4c0,0,1.5,8.3,1.6,8l0.5-0.7c0,0-1.4-6.1-1.3-7.2
		c0.1-0.2,1.2,0.2,1.6,0.4c0.4,0.6,0.7,2.8,0.9,4.2c0.5,0.4,0.6-0.7,0.6-1c-0.4-0.6-0.8-2.8-0.5-2.9c0.2-0.1,1.5,0.4,1.8,0.6
		c0.3,0.3,1.4-1.3,1.1-1.6c-6-2.3-13.6-3.7-19.4-3.8c-1.3,0-1.9-0.2-3.9-0.9c-5.2-1.9-9.5,0-10.1,0.6c-6.3-4.4-13.4-10.6-19.1-14.5
		c-0.3-0.2-0.9-0.3-1-0.3c-0.9,6.9-1.5,14.8-2.3,21.1c-0.3,2.5-0.3,2.7-0.2,2.8c0.1,0.1,0.3,0,0.4-0.1c1.9-0.7,3.5-0.2,4.4,1.4
		c0.4,2.4-1.6,4-3.9,2.8c-0.8-0.4-0.9-0.3-0.6,0.5c0.6,1.4,2.5,5.2,2.5,5.2c0,0-2.5,5.2-3.8,6.6c-1.2-2-2.8-4-3.5-6.2
		c1-1.9,2.8-4.4,3.4-6.3c-0.1-0.1-0.6,0-0.9,0.2c-3.2,1.5-3.7-1.4-3.7-2.4c0.1-2.1,1.9-2.6,4.6-1.6c-2.9-19.1-3.5-30-2.7-28.8
		c0,0-3.5-2.5-5.2-4.2l0.2-139.2h41.1c4.2,11.4,3.1,25,0.5,32.2c4.5,0.8,9,1.9,14.1,4.8C71.7,67,58.1,80.8,43.4,89.6
		c-0.8,0.4-3.6-1.3-3.9-3c-0.1-0.4,0.1-1.2,0.6-1.2c1.1,0.4,2.1,0.8,3.2,1.3c0,0-1.5-3.7-0.8-4.3c0.5-0.3,0.8-0.6,1.1-0.9
		c1.1-1.4,1-2.9-0.1-4.1c-0.5-0.5-1-0.8-1.2-0.9c0,0,1-2.9,1.6-4.2l-4.1,1.4c-1.3-1.8-3.8-3.3-5.5-0.5c-0.3,0.7-0.3,0.6-2.8-0.5
		c-1.4-0.6-2.3-1-2.3-1c0.5,1.6,1.2,3.1,1.9,5c-2.8,1.8-2.2,4.8,0.2,5.7l-1.2,4.1c0,0,2.7-1,4.1-1.4c0,0,1.3,1.3,1.6,2.5
		c0.6,2.1,2.1,3.6,3,4.4c-1.5,1.1-2.3,1.5-4,2.3l6,2.4c-0.4-1.3-1.2-2.2-1.2-3.8c-0.1-1.4-0.1-1.4-1-2.3c-1.6-1.4-1.8-3.1-2.3-4.2
		c-0.7-0.4-1.2-1.1-1.6-1.9c-0.4-0.8-3,1.1-3.4,0.7c-0.5-0.5,0.8-3.1,0.7-3.4c-1-0.1-4-2.4-0.5-4.9l-1.1-4.2c0,0,2.7,1.2,3.9,1.8
		c0.9-4.2,4.9-2.2,5.6-0.4c0,0,3.2-1.1,3-0.2c-0.1,0.8-0.6,2.7-0.6,2.7c2.9,2.6,2.3,3.8-0.1,5.5c0,1.4,0.5,3.5,0.5,3.5
		s-1.6-0.7-2.7-1c-0.4,0.4-0.9,1.2-0.8,1.6c0.7,3.2,4.7,4.1,10.6,7.4c0.2-2.1,1.6-5,1.8-7.5c0.1-1.8,0.2-1.9,1.4-1.3
		c3.4,2.4,2.3,9.2,1.1,11.9c-0.7,1.6-0.8,1.5-2.3,1.1c-2-0.6-5.4-0.4-7.3,0.3c-2.6,1.1-3.9,7-3.9,8.8c0,1.7,0.1,3.4,1,5.5
		c0.4,1.3-0.3,2.4-1.5,2c-0.3-0.1-0.9-0.3-0.9-0.3l-11.4,5.9l2.1,1.3c0,0-1.6-0.9-0.6-1.5l9.8-5.1c1.8,0.7,1.6,0.9,2.8-0.4
		c0.7-0.7,1.1-0.7,2-0.7c5.8,0.6,8.3-0.3,9.3-2.7c0.1-0.4,0.1-0.4,0.7-0.6c1.1-0.4,1.6-1.2,1.7-2.2c0-0.6,0.3-0.7,0.8-1.2
		c0.9-0.8,1.1-1.9,0.5-2.9c-0.3-0.5-0.5-0.7-0.4-1.2c0.2-0.9-0.1-1.8-1-2.7c-1-1.1-1-0.9,0.9-2.6c3.5-3.4,6.7-6,10.1-9
		c2.4-2.1,2.1-1.9,3-1c3.4,3.5,4.7,9,3.2,13.9c-0.1,0.2-0.1,0.2,0.1,0c1-1.1,1-6.6,0.2-9c-1-3-2-4.5-5.3-7.5
		c-2.1-1.9-7.7-7.2-7.7-7.2c8.1-7.1,16.9-15.9,21.8-24c-2.5-2.7-14.2-5.2-14.2-5.2c1.5-3,4.3-16.7-0.6-31.8
		c14.5,0.7,29.1-0.4,43.6,0.6c0,0,0.2-0.1,0.3-0.1c0.4-0.1,0.6,0.2,0.5,0.6c-0.3,1.2-2,3.9-3.2,3.6c-0.5-0.2-0.4,0.8-0.6,1.2
		c1.9-0.2,4.1-2.6,4.6-5c0.3-0.5,0.5-0.6,0.8-0.5c0.3,0.1,0.3,0.4-0.1,1.6c-1.2,2.9-3.6,5.5-6.3,5.2l-0.4,1c3.7-0.1,6.6-3.6,7.5-6.2
		c0.6-1.6,0.6-1.8,1.2-1.6c0.5,0.5,0.2,1.1,0,1.7c-1.9,6-7,7.6-9.6,7.4c-0.3,0-0.4,0.3-0.3,0.7c5.5,0.4,9.9-4.4,10.5-8.5
		c0.3-1.1,0.8-1.5,1.1-1c0.2,0.5,0.1,0.9,0,1.4c-1.5,6.5-8.4,10.1-12.6,9.1c-0.2-0.2-0.5,0.7-0.1,1c8.5-0.3,11.1-4.7,13-8.6
		c2.3,3.5,4.2,7.1,9.7,9.2c0,0,0.6,1.2,0.1,1.5c-0.2,0.1-0.6,0.1-1.1,0c-6.7-1.1-9,5.2-6.1,14.6c0.8,2.6,0.4,2.2-1.2,3.8
		c-0.8,0.8-1.2,2.1-1,2.2c0.3-0.2,0.4-0.6,1.1-1.2c0.3-0.3,0.9-0.5,1.4-0.8c1.2-0.7,1.2-1.2,0.8-2.9c-0.3-1.3-1.2-5.1-1.2-5.5
		c0-0.7,0.2-0.7,1.1,0c1.3,1,2,0.9,0.5-0.3c-0.6-0.5-1-0.8-1.2-1.1c-0.2-0.4-0.1-0.6,0.4-0.4c2.3,0.7,4.3,0.7,6.6-0.7
		c0.3,6.2-0.6,15.6-5.8,22.4C117.1,65.6,109.4,62.2,106.6,60.7L106.6,60.7z M112.7,46.5c-0.2,0-0.7,0.1-1.1,0.3
		c-1.5,0.9-1.2,4,0.5,4.4c0.7,0.2,1.3,0.3,2.4-0.3c0.7-0.3,1.6-0.6,1.9-0.5c0.6,0.2,0.7-0.3,0.8-0.8c0.3-1.2-1.8-1.3-3.4,0
		c-2,1.6-3.6-0.8-1.7-2.6C112.9,46.7,112.9,46.4,112.7,46.5L112.7,46.5z M96.9,53.1l1.7,2l1.1,4.7c-0.7,0.1-1.4-0.3-1.4-0.3
		C97.7,57.4,97.2,55.3,96.9,53.1z M120.2,54.3C120.2,54.3,120.2,54.3,120.2,54.3c-0.1,0-0.4,0.2-0.9,0.2c-0.3,0-0.6-0.2-0.9-0.1
		c-0.7,0-1.4,0.3-1.6,0.3c-0.2,0.1-0.5,0.1-0.7,0c-0.6-0.3-2.2-0.2-2.7,0.1c-0.6,0.2-1.2,0.3-1.7,0c-0.2-0.1-0.4-0.4-0.5-0.3
		c-0.1,0.1-0.4,1.4-0.5,1.9c0,0.2-0.1,0.5-0.1,0.5c0.1,0,0.4-0.2,0.8-0.4c0.8-0.4,1.6-0.4,3.2,0c1.9,0.5,2.6,0.3,3.7-0.2
		c0.9-0.5,1.4-0.6,2-0.4c0.1,0,0.5,0.2,0.6,0.2c0.1-0.1-0.2-0.7-0.4-1.2C120.4,54.5,120.3,54.3,120.2,54.3L120.2,54.3z M99.9,56.4
		c1.7,1.6,1.5,1.4,2.6,2.2l-0.1,1.5c0,0-1.3,0-1.9-0.2C100.3,59.4,99.5,56.5,99.9,56.4L99.9,56.4z M113.5,57.5
		c0.1,0.1,0.3,0.2,0.5,0.2c2.6,1-0.1,0.7-0.4,1.7c0,0.1,0.1,0.1,0.2,0c0.9-0.4,3.1-0.6,4.1-0.4c1.3,0.4,1.4,0.1,0.1-0.5
		c-0.9-0.4,0.2-0.6,0.6-0.9c0.8-0.5,0.2-0.7-0.7-0.2c-1,0.5-2.8,0.5-3.6,0c-0.4-0.2-0.7-0.3-0.9-0.4C113.2,57,113.3,57.4,113.5,57.5
		L113.5,57.5z M103.1,59.2l1.5,1.2l-1.6-0.2L103.1,59.2z M68.3,89.5c-0.3,0-0.6,0.3-0.6,0.6s0.3,0.6,0.6,0.6c0.3,0,0.6-0.3,0.6-0.6
		S68.6,89.5,68.3,89.5z M70.3,90l-7.1,3.4l1.9,0.6l0,1.9l1.7-0.5l0.7,1.8L70.3,90z M70.6,91.6c-0.3,0-0.6,0.3-0.6,0.6
		c0,0.3,0.3,0.6,0.6,0.6c0.3,0,0.6-0.3,0.6-0.6S71,91.6,70.6,91.6z M61.7,95.1c-0.3,0-0.6,0.2-0.6,0.6s0.3,0.6,0.6,0.6
		s0.6-0.3,0.6-0.6S62,95.1,61.7,95.1z M63.9,96.1l-7.9,3.7l2.3,0.7l-0.6,2.4l1.9-0.8l1.1,1.6L63.9,96.1z M64.1,97.9
		c-0.3,0-0.6,0.3-0.6,0.6s0.3,0.6,0.6,0.6c0.3,0,0.6-0.3,0.6-0.6S64.4,97.9,64.1,97.9z M48.4,98.2c3,0,6.3,1.1,7.5,3.7
		c0.3,1.3-0.9,2-3.6,1.3c-4.4-1.2-5.2-1.4-4.5-0.6c0.1,0.1,0.3,0.3,1,0.6c1.7,0.6,4.9,1.2,5.8,1.1c1.2-0.2,2,0.4,1.7,1.4
		c-0.3,1.1-1.9,1.6-4.2,1.3c-2.4-0.3-3.7-0.6-4.5-0.9c-1-0.3-1.1-0.3-0.6,0.4c0.3,0.4,0.3,0.7,0.7,0.7c1.6-0.1,3.3,0.2,4.7,0.4
		c2.6,0.2,3,1,1.1,2.1c-0.9,0.5-3.6,0.4-5.2-0.2c-1.1-0.4-3.6-1-2.7-0.2c0.2,0.2,0.2,0.6,0.6,0.8c1.3,0.2,5.1,0.5,5.7,1
		c0.4,0.3-0.5,1.2-2.2,1.7c-2.7,0.5-6.7,0.3-7.7-0.4c-1.9-4-0.9-10.5,2.2-13C44.9,98.6,46.6,98.2,48.4,98.2L48.4,98.2z M65.9,100.3
		c-0.3,0-0.6,0.3-0.6,0.6c0,0.3,0.2,0.6,0.6,0.6c0.3,0,0.6-0.2,0.6-0.6C66.4,100.6,66.2,100.3,65.9,100.3z M68.2,100.9L60,105
		l2.1,0.6l-0.5,2.4l1.9-0.8l1.2,1.6L68.2,100.9z M68.3,102.9c-0.3,0-0.6,0.3-0.6,0.6s0.3,0.6,0.6,0.6c0.3,0,0.6-0.3,0.6-0.6
		S68.6,102.9,68.3,102.9z M73,107.7c-3.6,3.5-7.7,6.3-11.5,9.8l0.8,0l2-1.8l57.3-0.2l-1.3,2l0.6,0.2c0,0,1.7-2.5,1.6-2.7
		c-12.6,0-22.3,0-36.1,0.1c-2.5-2.5-5.2-4.8-7.8-7.2L73,107.7z M55.6,110c-0.3,0-0.6,0.3-0.6,0.6c0,0.3,0.3,0.6,0.6,0.6
		s0.6-0.3,0.6-0.6C56.2,110.2,55.9,110,55.6,110z M130.4,110.4c5,3.7,10.8,8.2,15.7,10.9c1.9,0.8,1.8,1.1-0.2,2.1
		c-1.9,1.2-5.2,2.8-7.9,4.1c-1.2,0.4-1.7-0.1-2.5,0c-0.6,0.2-0.8,0.3-1.1,0.7c-0.6,0.8-0.4,0.7-3.6,0.6c-3.2-0.1-4.5-0.1-5.1,0.3
		c-0.7,0.3-1.8,1.5-1.8,1.9c0,0.5-0.4,1-1,1.2c-0.8,0.2-1.6,0.8-1.6,1.7c-0.2,0.7-0.6,1-1,1.4c-0.9,0.9-0.8,1.6-0.6,2.5
		c0.1,0.4,0.3,0.3,0.2,1.4c-0.2,2.6-0.4,2.4,2.3,4.3l-14,12.2c-0.3,0.3-0.4,0.2-0.7,0c-1.7-1.3-2.9-3.4-3.6-5.5
		c-2.4-6.5,0.5-11.9,4.4-15.2c1.3-1.1,3.1-2.5,3.6-2.8C119.2,126.2,125.5,117.5,130.4,110.4L130.4,110.4z M57.7,110.9l-8,3.8
		l2.6,0.4l-0.5,2.2l1.9-0.7l1,1.9L57.7,110.9z M58.2,112.7c-0.3,0-0.6,0.3-0.6,0.6s0.3,0.6,0.6,0.6s0.6-0.2,0.6-0.6
		S58.5,112.7,58.2,112.7z M131.5,115.2l-0.9-2.2c0,0-2.5,6.2-3.1,8.4c2.1-1.1,8.4-4.3,8.4-4.3l-2.7-0.5l0.3-2.4L131.5,115.2z
		 M40.1,115.5c-0.3,0-0.6,0.3-0.6,0.6c0,0.3,0.3,0.6,0.6,0.6s0.6-0.3,0.6-0.6S40.4,115.5,40.1,115.5z M42.6,116.1c0,0-6,2.8-8.6,4
		l2.5,0.5L36,123l2.3-0.9l0.9,2.4L42.6,116.1z M42.9,117.9c-0.3,0-0.6,0.3-0.6,0.6c0,0.3,0.3,0.6,0.6,0.6s0.6-0.2,0.6-0.6
		C43.4,118.2,43.2,117.9,42.9,117.9z M127.1,118.3c-0.3,0-0.6,0.2-0.6,0.6s0.3,0.6,0.6,0.6c0.3,0,0.6-0.3,0.6-0.6
		S127.4,118.3,127.1,118.3z M136.8,118.8l-2.8,7.9l7.7-3.9l-2.1-0.6l0-2l-1.7,0.5L136.8,118.8z M46.3,120.7c-0.3,0-0.6,0.3-0.6,0.6
		s0.3,0.6,0.6,0.6s0.6-0.3,0.6-0.6S46.6,120.7,46.3,120.7z M130.1,120.9c-0.3,0-0.6,0.3-0.6,0.6s0.2,0.6,0.6,0.6s0.6-0.2,0.6-0.6
		S130.4,120.9,130.1,120.9z M48.6,121.4l-8.1,4L43,126l-0.3,2.5l2-1.2l1.1,2.3L48.6,121.4z M49.1,123.1c-0.3,0-0.5,0.3-0.5,0.6
		s0.3,0.6,0.6,0.6s0.6-0.2,0.6-0.6C49.7,123.4,49.5,123.1,49.1,123.1z M133.6,123.6c-0.3,0-0.6,0.3-0.6,0.6s0.3,0.6,0.6,0.6
		s0.6-0.2,0.6-0.6S133.9,123.6,133.6,123.6z M122.4,126.2l-0.8-2.1l-3,7.8l8.1-3.7l-2.6-0.6l0-2L122.4,126.2z M114.2,124.5
		c-0.1,0-0.2,0-0.2,0.1c0,0.2-2.1,2.2-2.1,2.2L88.1,127c0,0,2,0.5,2,0.5c3.1,2.5,8,7,8,7l5.9-0.2c3.3-3.2,8.2-5.7,10.4-9.7
		C114.4,124.6,114.3,124.5,114.2,124.5L114.2,124.5z M136.5,126.1c-0.3,0-0.6,0.3-0.6,0.6s0.3,0.6,0.6,0.6s0.6-0.2,0.6-0.6
		S136.8,126.1,136.5,126.1z M118.1,128.9c-0.3,0-0.6,0.2-0.6,0.6s0.2,0.6,0.6,0.6c0.3,0,0.6-0.3,0.6-0.6S118.4,128.9,118.1,128.9z
		 M130.2,129.7c1.7,0,3.4,0.1,3.8,0.4c2.6,2.2,1.4,12.7-1.9,14c-3.7,0.8-6.2,1-9.4-1.1c-0.9-0.4-2.7-1.8-2.3-2.9
		c0.5-1.3,1.8-1.3,5.5-0.1c1.4,0.4,2.1,0.3,2.5,0.1c0.3-0.2-0.1-0.5-0.8-0.5c-0.3,0-1.5-0.3-2.5-0.6c-1.4-0.4-1.8-0.6-2.8-0.6
		c-1.5-0.1-2-0.2-2-1.1c0-1.8,2.5-2,7-1c0.5,0.1,1.5,0.3,1.8,0.3c0.2,0.1-0.3-0.6-0.4-1c-0.2-0.1-0.5-0.2-1.2-0.2
		c-2.9-0.3-5.3-0.5-5.4-0.9c-0.3-1.9,3.5-2.4,7.4-0.9c1,0.4,1,0.2,1-0.1c0-0.5-1.7-1.5-4.2-1.5c-2.4,0-2.1-1.2-0.1-2.1
		C126.9,129.5,128.5,129.7,130.2,129.7L130.2,129.7z M120.9,131.7c-0.3,0-0.6,0.3-0.6,0.6c0,0.3,0.2,0.6,0.6,0.6
		c0.3,0,0.6-0.3,0.6-0.6C121.5,132,121.2,131.7,120.9,131.7z M112.2,135.6l-0.5-2.1l-3.3,8.2l8.3-4.2l-2.7-0.5l0.2-1.7L112.2,135.6z
		 M108,138.9c-0.3,0-0.6,0.3-0.6,0.6c0,0.3,0.3,0.6,0.6,0.6c0.3,0,0.6-0.3,0.6-0.6C108.6,139.1,108.3,138.9,108,138.9z M116.2,141.2
		l-0.7-2l-2.8,7.1l7.1-3.2l-2.1-0.6l0.3-2.2L116.2,141.2z M110.6,141.2c-0.3,0-0.6,0.3-0.6,0.6c0,0.3,0.3,0.6,0.6,0.6
		c0.3,0,0.6-0.3,0.6-0.6C111.2,141.5,110.9,141.2,110.6,141.2z M112.4,144c-0.3,0-0.6,0.2-0.6,0.6c0,0.3,0.3,0.6,0.6,0.6
		c0.3,0,0.6-0.3,0.6-0.6C113,144.2,112.7,144,112.4,144z M108.9,145.6l-2.4,6.8l6.6-3.2l-1.9-0.6c0,0,0.1-1.5-0.1-1.4
		c-0.1,0-1.4,0.4-1.4,0.4L108.9,145.6z M114.8,146.4c-0.3,0-0.6,0.2-0.6,0.6c0,0.3,0.3,0.6,0.6,0.6c0.3,0,0.6-0.3,0.6-0.6
		C115.4,146.7,115.1,146.4,114.8,146.4z M106,149.7c-0.3,0-0.6,0.3-0.6,0.6s0.3,0.6,0.6,0.6c0.3,0,0.6-0.3,0.6-0.6
		C106.5,149.9,106.3,149.7,106,149.7z M108.5,152.3c-0.3,0-0.6,0.2-0.6,0.6s0.3,0.6,0.6,0.6c0.3,0,0.6-0.3,0.6-0.6
		S108.8,152.3,108.5,152.3z M73.5,183.4c-0.3,0-1.1-0.7-1.2-1c0.5-0.1,0.9,0,1.2,0.2C73.6,182.8,73.8,183.3,73.5,183.4z M75.9,182.9
		c-0.1,0.8,0.4,2.3,0.3,2.7c-0.3,0.1-1.6-1.3-1.9-1.6c-0.1-0.5,0-1.1,0-1.3C74.8,182.6,75.6,182.6,75.9,182.9L75.9,182.9z
		 M78.3,183.4c0.3,1.8,1.1,4.8,1,5.8c-0.1-0.1-1.1-1.1-1.9-2.2c-0.3-0.6-0.7-2.9-0.6-3.9C77.2,182.9,77.9,183,78.3,183.4z
		 M62.3,183.2c-0.8,0.4-1.7,0.7-2.9,0.7c-0.9,0-2.5-0.5-2.4-0.4c0.4,0.8,1.5,0.4,1.6,0.9c-0.3,0.5-1,0.4-1.4,0.9
		c-0.1,0.1,0.1,0.2,0.6,0.2c1.6-0.7,3.6-0.7,5.5-0.1c0.4,0.1,0.1-0.3,0-0.4c-0.2-0.2-0.6-0.4-1-0.4c-1.6-0.3-0.9-0.5,0.2-1
		C63.4,183.3,63.6,182.6,62.3,183.2L62.3,183.2z M65.9,185.5c-0.2,0-0.8,0.3-1.4,0.5c-1,0.4-1.9,0.3-3.3-0.1
		c-1.2-0.3-1.6-0.2-2.8,0.4c-0.8,0.5-1.6,0.6-2.3,0.3c-0.8-0.5-0.8-0.3-0.4,0.8c0.1,0.3-0.1,1.1,0.3,1.3c0.3,0.1,0.6-0.3,0.8-0.4
		c0.2-0.1,1.5,0.5,2.2-0.1c1.3-0.5,1.7,0.3,2.6,0.2c1.4-0.5,2.3-1,3.6-0.1C65.2,188,65.5,186,65.9,185.5
		C66,185.5,65.9,185.5,65.9,185.5L65.9,185.5z M63.3,191.3c-1,0-1.6,0.7-2.9,0.5c-1.1-0.1-1.4,0.9-1,1.6c0.3,0.5,0.7,0.6,2.2-0.1
		c0.6-0.3,1.4-0.9,1.9-0.8c1.4,0.1,1.8,1.5,0.6,2.7c-0.6,0.3-0.6,0.7-0.4,0.7c0.5,0,1.4-0.5,1.6-1.2
		C65.9,192.9,64.8,191.2,63.3,191.3L63.3,191.3z M67.9,199.5c-1.4,0.3-3.3,1.8-4,2.8c-0.6,1-1.2,2.1-0.8,2.6
		c0.4,0.4,0.9,0.9,0.9,1.1c0,0.2-0.3,0.4-0.5,0.7c-1.2,1.3-0.9,1.4,0.8,0.5c0.8-0.4,1.2-0.6,1.8-0.5c1.6,0.4,3.6,0.1,5-0.4
		c0.6-0.2,1.2-0.5,1.3-0.4c-2.5,2.7-5.6,2-6.7,1.9c-0.2-0.1-0.3,0-0.3,0c0,0.1,0.3,0.4,1,0.7c1.1,0.5,3.9,0,5.6-1.3
		c3.4-2.2,5.2-4.3,2.6-3.5c-1.2,0.4-1.7,0.3-3.2-0.3c-2.2-1-3.9-1.3-5.8-0.7c-2.3,0.8-0.5-1.1,2.1-2.8
		C68.2,200,68.2,199.5,67.9,199.5L67.9,199.5z M55.3,205.3l-0.8,0c-0.6-1.9-1.9-1.9-2.5,0l-0.6,0C52.1,202.9,54.5,202.5,55.3,205.3
		L55.3,205.3z M69.2,205.5l-0.6,0c-0.4-1.1-1.6-2.1-2.5-0.3l-0.4-0.1C66.4,202.2,69.3,203.8,69.2,205.5L69.2,205.5z M65.3,203.8
		c0.4,0,0.5,0.4,0,1.1c-0.3,0.5-0.6,0.4-1,0.1c-0.3-0.3-0.3-0.4,0-0.7C64.7,203.9,65.1,203.8,65.3,203.8z M69.6,203.8
		c0.2,0,0.5,0.1,0.8,0.2c0.9,0.3,1.1,0.5,0.7,0.9c-0.4,0.4-1,0.5-1.3,0.3c0-0.4-0.5-0.8-0.5-1.2C69.3,203.8,69.4,203.8,69.6,203.8z
		 M55.7,203.8c0.6,0,1.4,0.3,1.4,0.7c-0.1,0.4-0.7,0.6-1.2,0.7c-0.3,0-0.3-0.1-0.4-0.3c-0.1-0.2-0.2-0.5-0.2-0.7
		C55.1,203.7,55.4,203.8,55.7,203.8L55.7,203.8z M51.5,203.9c0,0-0.3,1-0.5,1.4c-1.3-0.1-1.2-0.6-0.6-1
		C50.7,204,51.1,204,51.5,203.9z M50.5,206.4c0.2,0,0.5,0.2,0.9,0.3c1.1,0.4,3,0.3,4.5,0c0.7-0.2,1-0.4,1.2-0.3c0.3,0.2,0,0.9-1,1.4
		c-1.3,0.5-3.4,0.8-4.9,0C49.9,207.1,49.7,206.3,50.5,206.4L50.5,206.4z M50.1,207.8c1.2,0.8,2.4,1.1,3.9,0.9
		c2.2-0.1,2.6-0.4,0.7,0.6c-1.7,0.9-4.4,0.8-4.9-0.2C49.5,208.6,49.7,207.9,50.1,207.8z M60.9,209.2
		C60.9,209.2,60.9,209.2,60.9,209.2c0.2,1.2,2.2,2.3,3.2,2.6c2.1,0.9,5.3,0,7.8-1.1c1.8-0.8,2.4-2,0.3-1.3c-3.5,1.1-7.8,1.2-10,0.3
		C61.5,209.4,61.1,209.2,60.9,209.2L60.9,209.2z M49.6,213.7c4.3,1,9.5,7.7,9.5,10.6h-1.4c-2.1-7.4-7.6-9-8.2-9.5
		C49.3,213.9,49.6,213.7,49.6,213.7L49.6,213.7z M49.5,215.6c5.1,2.3,7,6.3,7.7,8.7h-1.5c-1.1-3.3-3.1-5.7-6.2-7.2
		C49.3,216.6,49.5,215.6,49.5,215.6L49.5,215.6z M49.5,217.9c2.6,0.8,4.9,4.3,5.6,6.4l-1.3,0c-0.9-2.4-2.2-4-4.3-4.9
		C49.4,218.9,49.4,218.4,49.5,217.9L49.5,217.9z M49.5,220.2c1.2,0.2,3.3,2.2,3.6,4.1h-1.2c-0.4-1.3-1.7-2.4-2.4-2.9
		C49.5,221.1,49.5,220.2,49.5,220.2z M49.6,222.2c0.1-0.1,2,1.6,1.7,2h-1.7C49.6,223.8,49.6,222.2,49.6,222.2L49.6,222.2z"/>
	
		<path id="path4071-9-6-8_1_" class="st2" d="
		M96.6,17.3c-3.1,6.1-19.2,33.5-19.4,34.4l4.1,1.8l20-36.1C101.4,17.4,97.2,17.3,96.6,17.3z M143.9,40.2l-1.7,2.5l1.4,2.8l1.7-2.7
		L143.9,40.2z M70.4,67.6c0,0-5.8,5.7-8,8.4c4.8,4.8,14.1,10.9,14.2,20.3l6.4,0l20.6,18.5c0,0,18.7,0.1,19,0.1c0.4-0.1,7-9.6,7-9.6
		l11.8,8.7c0,0-0.6-9.3-1-15c-0.1-3.8-0.3-6.2,2.5-7.9c-3.8-1.8-3.6-5.2-0.8-7.7c-0.9-1.3-2.3-1.5-2.5-6.1c-0.6-0.6-1.1-1-1.9-1.5
		l-0.8,0.7c-2.5,2.2-4.1,4.5-4.4,5.9c-0.5,2.8,2.3,4.7,3.9,2.7c0.5-0.6,0.9-0.4,0.9,0.3c0,1.5-1.9,2.4-3.5,1.6
		c-0.4-0.2-0.7-0.3-0.7-0.3c-0.1,0.1,1.6,4.1,2.1,5c0.7,1.5,1.1,3,1.2,4.6c0.1,1.7,0,1.9-0.8,4.8c-0.7,2.7-0.4,4.4,0.9,4.4
		c0.7,0,0.7,0.7,0,1c-1.6,0.6-2.6-0.6-2.6-3.1c0-1.5-0.1-1.6-0.8-1.2c-2.7,1.3-5.7-1-4.4-3.4c0.3-0.5,0.6-0.3,0.8,0.4
		c0.3,1.4,1,2,2.3,1.9c2.9,0,4.2-4.2,2.5-8.4c-0.3-0.8-0.5-0.8-1,0.3c-0.7,1.7-1.9,2.2-2.9,1.2c-0.3-0.3-0.5-0.9-0.3-0.9
		c0.1,0,0.4,0,0.7,0c1.7-0.1,2.3-1.7,1.5-4.2c-0.7-2.2-0.8-2.6-1-3.8c-0.3-1.9-0.1-3.3,0.8-5.1c0.2-0.3,1.2-1.4,2.4-2.7
		c1.3-1.3,2.4-2.3,2.4-2.3c-1.2-1-2.3-1.8-3.7-2.9c0,0-8.8,24.2-8.2,33.6c-1.1,12.4-10.2,9-10.9,0.4L70.4,67.6z M70,71.2
		c3,0,5,3.9,6.1,12.2c0.4,2.7,2,6.6,3.2,7.5c3,2.3,7.8,0.5,7.8-2.9c0-4.3-5.9-4.9-6-0.6c0,1-0.5,1.1-1,0.1c-0.4-0.8,0-2.4,0.8-3.2
		c0.5-0.5,0.5-0.6-0.5-1.2c-3.6-2-5.2-5-3.2-6.3c0.8-0.6,2,0.1,1.5,0.9c-0.8,1.2-0.8,1.4-0.1,2.3c0.8,1.1,1.7,1.7,3.9,2.3
		c1.9,0.6,2.2,0.7,3,1c2.5,1.1,3.7,3.7,2.8,6.1c-0.2,0.6-0.4,1.2-0.4,1.3c-0.1,0.3,0.1,0.3,1.8,0c2.8-0.4,5.9,0.6,7.5,2.4
		c0.8,1,1.5,3.1,1.5,4.9c0,0.3,0.1,1.1,0.2,1.7c0.1,0.6,0.3,1.6,0.4,2.3c0.7,6.1,5.8,9.3,8,5c1.4-2.7-1.8-5.5-3.5-2.9
		c-0.6,0.9-1.2,0.5-0.8-0.6c0.6-2,3.2-2.4,4.9-0.7c0.9,0.9,1.4,3,0.9,4.4c-0.2,0.7-0.2,0.7,0.3,0.6c1.2-0.4,3.2,0,3.9,0.8
		c1.7,1.8,1.4,4-0.7,4.7c-1,0.3-2,0-2.4-1.1c-0.2-0.8,0.4-1,0.8-0.3c0.8,1.3,2.5,0.2,2.1-1.3c-0.5-1.7-1.9-2.1-4.6-1.2
		c-4.3,1.5-5.7,1.4-7.8-0.7c-1.5-1.5-2-2.7-2.4-5.5c-0.4-3.1-0.5-3.2-1.2-2.5c-3.6,3.1-8.5-1.6-5.4-4.7c1-1,1.7-0.1,0.8,0.9
		c-1.3,1.6,0.4,3.7,2.4,3.2c3.7-0.9,3-6.4-1.1-7.7c-1.2-0.4-4.6-0.2-7.2,0.3c-7.3,1.6-10.5-1.5-12-11.6c-0.2-1.2-0.4-2-1.1-4.6
		c-0.8-3-3.6-4.6-5.1-3c-1.2,1.3-0.6,3.1,1.1,3.1c1.7,0,1.2,1.2-0.6,1.3c-3,0.3-3.6-4.8-0.7-6.3C68.7,71.4,69.4,71.2,70,71.2
		L70,71.2z M30.3,73.1l1,3.7l3.8,1.1l-1.2-3.4L30.3,73.1z M40,74.2l-1,3.3l2.8-1l1-3.1L40,74.2z M70.9,79.5c0.6,0,1.1,0.5,1.1,1.1
		c0,0.6-0.5,1.1-1.1,1.1c-0.6,0-1.1-0.5-1.1-1.1C69.8,80,70.3,79.5,70.9,79.5z M34.9,81.4l-3.3,1.1l-0.6,2.6l3-0.7L34.9,81.4z
		 M41.8,82.6l-2.3-0.7l0.6,2.7l2.6,1.1L41.8,82.6z M146.9,82.1l-1.6,1.2c4.5,4-0.4,7.8-0.5,7.5c3.3,2.2,2.7,5.6,2.3,8.8
		c-0.8,5.6-1.1,10.9-1.9,16.7c0,0,4,2.7,6.6,3.8c0,0,0-33.8,0-33.8L146.9,82.1z M90.8,87.2c0.6,0,1.1,0.5,1.1,1.1
		c0,0.6-0.5,1.1-1.1,1.1c-0.6,0-1.1-0.5-1.1-1.1C89.7,87.7,90.2,87.2,90.8,87.2z M24.4,90l0.1,31.5l6.5-11.7l-4.5-5.2l3.9-4.1
		C28.2,97.1,26.3,93.5,24.4,90z M87.8,94.8c0.6,0,1.1,0.5,1.1,1.1c0,0.6-0.5,1.1-1.1,1.1c-0.6,0-1.1-0.5-1.1-1.1
		C86.7,95.3,87.2,94.8,87.8,94.8z M102.5,98c0.6,0,1.1,0.5,1.1,1.1c0,0.6-0.5,1.1-1.1,1.1s-1.1-0.5-1.1-1.1
		C101.4,98.5,101.9,98,102.5,98z M144.8,133.1l4.8,4.9l-3.8,4.7l5.9,10l-0.1-30.9L144.8,133.1z M24.4,122.7l0.2,33.9l5.1,3.7
		l1.3-1.2c-3.3-3.5-1.3-6.2,1.2-7.7c-4.4-1-3.1-6.9-2.8-9.6c-0.1-5,1.7-10.7,1.2-15.6L24.4,122.7z M53.8,127.4l-7.3,10.2
		c0,0-8-6.1-12.1-8.9c0.4,4.4,0.8,10,1.4,14.8c1.3,6.9-2.1,7.1-2.1,7.7c5.4,4.1,0.9,8,0.1,7.8c2.9,1.6,2.7,6.4,2.7,6.4l1.4,0.8
		c0,0,0.4-0.3,0.6-0.4c1.5-0.8,3.9-3.6,4.4-5.5c0.9-3.2-1.8-5.8-3.5-3.4c-0.8,1.2-1.5,0.4-0.8-1c0.6-1.2,2.3-1.9,3.4-1.3
		c0.6,0.3,0.5-0.5-0.5-3c-0.3-0.8-0.6-1.7-1.1-3.6c-0.5-1.8-0.3-3.9,0.5-6.1c1.1-3.2,0.7-5.1-1.1-5.3c-1-0.1-1.1-0.4-0.3-0.8
		c1.8-1,3.5,0.4,3.4,2.8c0,1.3,0,1.3,0.7,1c3.5-1.4,6.2,2.2,3.8,5c-0.7,0.8-1.2,0.3-0.7-0.8c0.8-1.8,0-3-1.7-3c-2.6,0-4,3.5-3,7.4
		c0.3,1.2,0.4,1.2,1.2,0.4c0.8-0.7,1.3-0.9,1.9-0.8c1.2,0.4,1.5,1.7,0.4,1.5c-2-0.3-2.5,1.8-1.4,5.5c1.5,4.9,0,8.9-4.4,11.8
		c-0.2,0.1-0.6,0.4-0.6,0.4c1.7,1.5,2.8,2.4,5,3.8l8-32.6c0,0-0.1-1.8-0.3-2.7c0-8.7,8.1-9.6,10.7-1.6c0.2,0.8,1.5,2.7,1.5,2.7
		l42.3,37.7c0,0,7.9-7.7,7.8-7.9c-6-6.1-14.1-10.4-14.4-20c-1.4,0-6.2,0-6.2,0l-20.6-18.9C66.2,127.7,60.5,127.2,53.8,127.4
		L53.8,127.4z M65.3,128.2c1.1,0,2.3,0.6,2.3,1.5c0,0.8-0.5,1-1,0.3c-0.6-0.9-1.4-1-2.1-0.2c-2.1,2.2,1.1,4.2,4.8,3
		c2.3-0.7,3.4-0.9,4.2-0.7c3.5,0.7,5.2,3.1,5.5,7.7c0.2,2.3,0.1,2.3,1.2,1.4c2.5-2.3,6-1,6.5,2.3c0.2,1.4-1.3,3.2-2.7,3.2
		c-0.6,0-0.5-0.6,0.1-0.9c1.5-0.7,1.5-3,0.1-4c-1.9-1.2-4.4,0.7-4.4,3.3c0,3.2,2.4,4.6,7,4.3c0.7,0,2.4-0.1,3.8-0.2
		c2.2-0.1,4.6-0.5,6.9,1.2c2.4,1.9,3.9,5.6,4.6,11.1c1.1,6.7,1.9,8.5,4.1,8.6c1.3,0.1,2.4-1,2.4-2.4c0-0.9-1.2-1.7-2.2-1.4
		c-1.1,0.4-1.3-0.8-0.2-1.3c1.5-0.6,3.4,0.6,3.8,2.5c0.2,1.1-1,3.3-2.3,3.8c-3.5,1.4-5.9-1.5-6.7-7.9c-0.5-2.9-0.8-4.9-1.7-7.4
		c-1.7-4.6-4.4-6.5-7.4-5.2c-3.4,1.6-2.7,6.7,0.9,6.6c2,0.2,2.4-1.3,2.4-2.9c0-1.2,1.3-0.1,1.5,0.7c0.1,1-0.8,2.2-1.5,2.7
		c-1.2,0.8-0.8,0.8,0.5,1.1c3.4,0.6,5.9,5.1,3.9,6.6c-1,0.6-2.2-0.3-1.4-1.2c1.2-1.5-0.8-3.8-4.4-4.6c-4.7-1-6.5-4.5-4.8-8.1
		c0.6-1.2,0.6-1.2-1.7-1c-5,0.3-6.8-0.4-8.5-3.3c-0.5-0.9-0.7-2.1-0.8-4.4c-0.2-4.2-0.6-6.8-1.1-7.5c-2.6-3.6-8-2.5-7.3,1.5
		c0.4,2.1,2.5,2.8,4,1.2c1.1-1.2,1.6-0.1,0.5,1.1c-2.6,2.9-7.2-0.5-5.8-4.3c0.3-0.9,0.4-0.9-1.3-0.9c-3.7-0.1-5.5-3.3-3.1-5.6
		C64.2,128.4,64.7,128.2,65.3,128.2L65.3,128.2z M74.3,141.9c0.6,0,1.1,0.5,1.1,1.1c0,0.6-0.5,1.1-1.1,1.1c-0.6,0-1.1-0.5-1.1-1.1
		C73.2,142.4,73.7,141.9,74.3,141.9z M89.3,145.7c0.6,0,1.1,0.5,1.1,1.1s-0.5,1.1-1.1,1.1c-0.6,0-1.1-0.5-1.1-1.1
		C88.2,146.2,88.7,145.7,89.3,145.7z M86.1,152.8c0.6,0,1.1,0.5,1.1,1.1s-0.5,1.1-1.1,1.1s-1.1-0.5-1.1-1.1
		C85,153.3,85.5,152.8,86.1,152.8z M133.7,157l0.7,3.2l2.5,0.7l-0.4-2.7L133.7,157z M142.4,158.1l-0.1,1.9l2.2,0.3l0.8-3.3
		L142.4,158.1z M105.3,161c0.6,0,1.1,0.5,1.1,1.1c0,0.6-0.5,1.1-1.1,1.1s-1.1-0.5-1.1-1.1C104.2,161.5,104.7,161,105.3,161z
		 M137,165.4l-2.6,0.7l-1.2,3.6l3.3-1.2L137,165.4z M142.1,165.8l0.3,2.7l3.2,1.4l-1.1-3.8L142.1,165.8z M95,188.6l-19.8,36l5.4-0.1
		l18.7-33.9L95,188.6z M32.5,197.3l-1.8,2.4l1.7,2.7l1.9-2.8L32.5,197.3z"/>
	
		<path id="path4069-2-6-0_1_" d="
		M66.3,16.4c3.7,11.1,4,22.1,0.8,32.6c1.8,0.1,9.7,2.1,14,4.8C80.3,55.8,68,71,59.7,77.8c2.4,2.4,5,4.7,7.7,7.3
		c4.2,4,5.6,6.7,5.9,11.8c0,2.5-0.9,5.5-2.5,7.7c-1.2,1.6-2.5,2.9-5,4.6c-2.3,1.6-5.7,4.9-10,9.8c-1.6,1.9-4.4,5.3-6.7,8.6
		c-0.9,1.2-3.4,4.9-3.4,4.9c-8.5-7-17.6-12.3-17.8-12.3c0,0,9.2-4.9,11.1-5.9c1.5,1,3.5,0.1,2.5-2c-1.9-4.8-0.6-9.7,1.7-13.1
		c0.5-0.8,1.9-1.3,4-1.5c0.9-0.1,1.9,0,2.9,0c0.4,0,1.3,0.1,1.8,0.4c1.7,1,2.1-0.3,3.2-4.4c1.1-4.1-0.7-9.3-3.1-9.3
		c-0.6,0-0.9,0.2-0.8,1.7c0.1,1.1-0.2,1.7-0.5,2.4c-0.6,1.5-0.9,3-1.1,5c0.4,0.1-2.3-2.7-6.5-3.7c-2.7-0.3-4.1-3.7-4-3.7
		c0,0,0.4-0.9,0.8-1.3c0.9,0.4,1.8,1,2.9,1.3c0,0-0.3-1.4-0.4-1.7c-0.5-1.9-0.5-2.2,0.3-2.6c1.8-1,2-2.7,0.6-4.3
		c-0.4-0.4-0.7-0.7-1.1-0.9l0.9-3.6c0,0-0.8,0.2-1.5,0.4c-1.9,0.6-1.8,0.6-2.6-0.3c-1.8-2-4.4-1.6-4.8,0.7c0,0.3-0.2,0.7-0.2,0.7
		l-4-2c0.1,0.9,1.2,4.2,1.2,4.2c-3.5,2.8-0.5,5.2,0.4,5.4c0,0-0.8,2.6-1.1,3.7l4-1.1c0.3,0.8,0.7,1.3,1.6,1.9
		c0.2,2.2,1.9,4.1,3.1,5.1c0,0,0.2,0.8,0.1,1.3c-0.3,1.3,1.1,3.4,1.3,3.5c-5.5-2.2-11.2-4.9-16.7-7.6l0.3,67.8c0,0,1.3,1.2,3.8,3
		c1.2,0.9,1.2,0.9,1,1.9c-0.3,1.3-0.3,2.3,0.9,11.1c0.6,4.6,1.3,9.4,1.8,13.8c0.2,1.6,0.3,2.6,0.3,2.6c-1.2-0.6-3-0.6-3.9,0.4
		c-1.6,1.8-0.3,4.7,2,4.6c0.5,0,0.9-0.2,1.3-0.5c0.3-0.2,0.6,0,0.6,0l-3.5,6.1l4,6.8l4-7.2l-2.9-5.7c0,0,0.3,0,0.7,0.2
		c0.4,0.2,0.9,0.3,1.3,0.4c2,0,2.4-0.9,2.7-2.6c0-2.2-1.7-3.1-4.1-2.3c-0.4,0.1-0.8,0.2-0.8,0.2l2.5-23.6l1.3,1l0.4-0.2l-1.2-1
		c0.3-3.8-1-5.1-2.3-6c4.5-2.6,2.5-6.6-0.4-7.9c0,0,1.9-1.1,2.3-2.3c0.3-1.1,0.2-2.8-0.2-5.8c-0.3-4.6-1.3-14.2-1.3-14.2
		c3.9,3,8,6.2,11.8,9.2l7.6-10.6l18.3,0.1c0,0,13.9,12.7,21,19.2l6.1,0.1c0,0,0.1,0.6,0.1,1.1c0.6,6.3,4.8,10.6,8.6,13.6
		c1.6,1.4,5.4,5.1,5.4,5.1l-7.1,7.2l-43.6-39.1c0,0-0.2-0.6-0.3-0.9c-1-4.1-3.7-5.9-6.2-5.6c-2.6,0.3-4.8,2.9-4.7,7.3
		c0,0.7,0.3,1.9,0.3,1.9l-8,33.3c0,0-3.2-2.4-4.9-3.6l-0.4,0.2l4.7,3.5l0.3-0.2l1.3,1l0.1,0.7c4.1,2.8,11,8,11,8
		c3.3-2.4,6.7-1.6,10.1-0.7c0,0,2.5,0.8,3.8,0.8c6.8,0.2,12.7,1.5,19,3.7L66,225.1l43.6,0.1c-2.2-8.5-4.4-17.2-0.4-31.7
		c-4.3-0.9-13.9-4.7-13.9-4.7s0-0.2,0.4-0.7c1.8-2.5,6.2-9.4,10.4-13.4c0.5-0.4,7.8-7.5,7.9-7.7c0-0.1,0.2-0.6,0.5-0.8
		c0.7-0.5,2.5-2.1,2.5-2.1l-9.1-8c0,0-0.4,0-0.5-0.1c-1.3-0.7-3.6-4.7-4.1-7.4c-1.3-6.2,1.1-11,7.9-16c6.6-4.6,19.2-22.3,19.3-22.7
		c6.8,5.6,12.1,8.6,18.1,12.3c-3.6,2.1-6.5,3.5-9.1,4.8c-1.6,0.9-1.9,1.1-3.2,0.7c-1.6,0-2.1,0.6-1.7,2c2.4,3.8,1.4,12.5-1.9,14.2
		c-2.8,1.5-5.5,1.1-7.7,0.2c-1.7-0.6-1.7-0.6-2.5,1c-1.7,3.6-1.8,6.7-0.2,10.1c1.3,2.8,3.2,4.1,3.4,0.3c0.1-2.2,1.1-4.8,1.1-7.2
		c1.9,2.2,3.2,3.1,6.4,4c2.1,0.3,4.4,3,4.3,4.1c-0.6,0.6-0.8,1.4-0.9,1.3c-1-0.3-3.3-1.3-3.3-1.3l1,3.4c0,0-0.2,0.2-0.6,0.4
		c-2.1,1.1-2,4,0.2,5.2c0.5,0.2,0.5,0.4,0.3,1c-0.3,1.4-0.9,2.3-1.2,3.7c0,0,0.3,0,2.9-1.2l1-0.5l0.6,0.6c1.3,1.4,2.9,1.4,4.3,0
		l0.6-0.7l1.8,0.9c1.7,0.8,2.1,1,2.1,1s-1-3.7-1.1-4.2c-0.1-0.2-0.3-0.5-0.4-0.5c-0.2-0.1-0.2-0.1,0.4-0.6c1.6-1.3,1.8-3,0.4-4.4
		c-0.5-0.5-0.6-0.6-0.6-0.6l0.8-3.5l-3.4,1.1c-0.5-1.2-1.4-1.7-2-1.9c-0.1-1.6-0.3-3.2-2.9-5.6c0.9-0.8-0.2-2.8-1.1-4
		c1.5,0.5,5.3,2.1,5.3,2.1l0.6,0l1.8,0.9l0.2,0.3c0,0,5.7,2.7,8.3,3.9c0-0.1,0-2.9,0-33.8c0-18.4,0-33.6,0-33.7
		c0-0.1-0.7-0.6-1.3-1.1c-1.2-0.9-1.4-1.1-3-2.1c-1.2-0.8-1.1-0.8-0.9-1.7c0.3-1.1,0.3-2.6-0.1-5.3c-0.3-2-1.3-9.2-2-15
		c-0.5-4.1-0.6-5-0.7-5.6c-0.2-1.6,0-2.4,0-2.4c5.7,2.5,6.1-5.7,0.4-4.6c1.1-2.2,2-3.2,2.9-5.6c-1.2-2.6-3.8-6.9-3.8-6.9l-4.2,7.3
		l2.5,5c-2.8-0.5-4.3,1.6-3.8,3.4c0.6,1.6,2.1,2.1,3.5,1.4c1.1-0.4,1.1-0.5,0.1,7.5c-0.3,2.4-1.5,13.4-1.7,15
		c-0.1,1.1-0.2,1.4-0.6,1.2c-0.6-0.3-1-0.6-1.6-1l-0.3,0.3c0.5,0.4,1.2,1,1.8,1.6c-0.2,2.9-0.1,4.6,2.3,6c-4.4,2.8-1.8,7,0.8,7.6
		c-1.5,0.4-3.1,2.4-2.7,6.3l1.2,16.3l-11.9-8.9l-7,10l-18.4,0L83.1,96c0,0-4.6-0.1-6.4-0.1c0.2-0.1-0.4-5.8-3.4-9.6
		C70,82.4,62.6,76,62.6,76l7.8-8l43.9,39.6c0,0,0.2,1.1,0.3,1.6c1.5,6.3,8.6,6.6,10.1,0.3c0.2-1,0.5-3.4,0.4-3.7
		c0-0.1,0.2-1.1,0.5-2.3c2.4-9.3,4.4-17.3,6.7-26.2c0.3-1.2,0.7-2.6,0.8-3c0.4-1.8,0.3-1.8,2.2-0.4c1.2,0.9,1.6,1.2,1.6,1.2l0.4-0.4
		c-1.3-1-3.5-2.6-3.5-2.6l0-0.7c-7.1-5.1-8.6-6.5-12.8-9.8c-3.3,2.9-7.9,1.7-10.9,0.7c-0.8-0.3-2.6-0.8-2.6-0.8
		c-7.3,0-13.7-1.4-19.8-3.4l23.4-41.7l-9,0l-0.3,0.4H97l0-0.4L66.3,16.4z M152.4,153.6C152.4,153.6,152.4,153.6,152.4,153.6z
		 M92.9,17.3l3.2,0.1L77.2,51.2l-2-0.8c0,0,0.2-0.1,0.2-1.5c0-1.5-0.3-2.2-1-3.1c-0.6-0.8-0.8-0.8,0.9-0.6c3.4,0.5,5.9-3.3,4.5-6.2
		c-0.5-1.1-0.5-1.2,0.9-1.3c3.8-0.4,5.3-5.3,2.6-7.7c-0.6-0.5-0.3-0.8,0.7-0.6c3.3,0.7,5.9-3,4.6-5.9c-0.4-0.8,0-0.9,0.6-1
		C92,21.7,93,19.5,92.9,17.3L92.9,17.3z M67.4,17.3l14.8,0c-2,3.1,1.5,4.9,2,4.6c-3.2,1.7-2.3,4.2-0.7,5.1c1.6,0.8,4,0.1,3.4-3.5
		l0.8-0.3c0.8,0.9,1.5,6.3-4.3,5.5c-1-0.1-1.6,0.8-0.7,1.4c4.6,5.3-2.6,7.7-2.9,6.8l0-0.9c2,0.4,4.5-2.2,2.3-4.4
		c-1.3-1.3-4.9-0.7-4.3,3.2c-2.1-3.2-4.5-2.2-5.1-0.5c-0.5,1.3,0.1,3.1,2.3,3.4c-2.4,2-1.2,4.3,0.4,4.7c1.8,0.5,3.7-0.2,3.2-3.5
		c0-0.3,0.7-0.2,0.7-0.2c1.9,4.7-2.6,6.4-5,5.5c-0.9-0.4-1.4,1-0.4,1.7c1.4,1.1,1,4.2,0.8,4.2c-2.7-1-6.5-1.8-6.4-1.7
		C70.7,38.2,70.5,27.8,67.4,17.3L67.4,17.3z M91,17.3l1.3,0c0,1.9-0.8,4.3-4.1,4.6c0-0.5,0-1-0.2-1.5C89.3,20.1,91,20.5,91,17.3
		L91,17.3z M96.8,17.4l4.3,0L81,53.2l-3.2-1.7L96.8,17.4z M86.3,20.1c0.8,0,1.4,0.6,1.4,1.4c0,0.8-0.6,1.4-1.4,1.4S85,22.2,85,21.5
		C85,20.7,85.6,20.1,86.3,20.1z M77.8,35.7c0.7,0,1.3,0.6,1.3,1.3c0,0.7-0.6,1.3-1.3,1.3s-1.3-0.6-1.3-1.3
		C76.5,36.3,77.1,35.7,77.8,35.7z M143.9,36.7l3.4,5.9l-3.9,6.9l-3.2-6.6L143.9,36.7z M143.8,38.7l-2.4,4l2.2,4.1l2.5-3.9
		L143.8,38.7z M143.8,40.4l1.2,2.4l-1.5,2.4l-1.2-2.6L143.8,40.4z M140.5,48.5c0.3,0,0.5,0.1,0.8,0.2c2.3,1,1.6,4.5-0.9,4.2
		c-0.3,0-0.7-0.2-1.1-0.4C137.7,51.1,138.7,48.5,140.5,48.5z M146.1,48.5c2,0,3.2,2.8,1.1,4.1c-1,0.6-2.5,0.2-3.1-0.8
		c-0.5-0.9-0.3-2.3,0.9-3.1C145.4,48.6,145.8,48.5,146.1,48.5z M143.4,52.5c0.2,0,0.4,1,0.6,2.7c0.1,0.6,0.3,2.1,0.4,3.4
		c0.3,2.7,0.6,5.2,0.9,7.8c0.1,0.5,0.2,1.6,0.3,2.4c1.2,8.4,1.4,11.1,1.1,11.9c-0.7,2.5-4.2,2.7-5.6,1.2c-1.1-1.1-1.2-2.3-0.8-5.5
		c0.2-1.8,0.3-2.7,1.1-9.7c0.2-1.6,0.4-3.8,0.5-4.8c0.3-2.7,0.6-5.3,1-8C143.1,53,143.2,52.5,143.4,52.5z M87.2,58.8
		c0,0,11,3.6,19.3,3.5c1.2,0,1.4,0,3,0.5c0.9,0.3,2.3,0.7,3.2,0.9c2.6,0.5,4.8,0.4,6.8-0.5c0.3-0.1,0.8-0.5,1.2-0.4
		c0.3,0.1,0.7,0.7,0.7,0.7c-7.3,1.9-24.4,1.6-35.1-2.9L87.2,58.8z M143.6,60c0,0-0.1,0.1-0.1,0.2c-0.2,0.3,0,2.1,0.6,8.1
		c1.3,11.3,1.3,11.5-0.3,12.7c-0.8,0.6-0.9,0.8-0.5,1c0.3,0.2,0.2,0.2,0.8,0c1.3-0.4,1.8-1.4,1.8-3.5c0-1.6,0-1.8-0.5-5.7
		c-0.2-1.4-0.4-3.3-0.5-4.3C144.1,61.4,143.9,59.9,143.6,60L143.6,60z M86.1,61.1c10.9,3.9,22.3,5,36.1,2.9c0,0,1.3,0.9,2,1.3
		l-0.5,0.1l0.2,1.9l2.3-0.4c0,0,1.3,1,2.2,1.6c-12.3,3.8-32.1,3.1-44.3-2.3c-0.5-0.3-0.7-0.5-0.7-0.5c0.3-0.6,0.6-1,0.9-1.4l2.2,0.6
		l0.6-2l-1.7-0.6L86.1,61.1z M89,63.6l-0.7,2l3.1,0.9l0.5-2.1L89,63.6z M93.8,64.8l-0.4,2.3l3.1,0.6l0.4-2.2L93.8,64.8z M99,65.9
		l-0.2,2.2l3.3,0.4l0.2-2.2L99,65.9z M121.8,65.9l-2.8,0.3l0.2,1.9l2.9-0.3L121.8,65.9z M116.8,66.5l-2.8,0.2l0.1,2l2.8-0.2
		L116.8,66.5z M104.2,66.5v2.2l2.9,0.1l0-2.2L104.2,66.5z M112.1,66.8l-2.6,0l0,2.1l2.7,0L112.1,66.8z M81.4,67.2
		c0.3,0,0.9,0.6,1.2,1.3c0.5,1.4,0.3,3-0.5,3.5c-1.1,0.7-2.5-0.4-1.7-1.4c0.1-0.2,0.4-0.4,0.5-0.4c0.6-0.2,0.7-1.1,0.4-2.7
		C81.2,67.3,81.2,67.2,81.4,67.2z M85.6,67.7c11.8,3.9,25.2,5.2,39.1,2.3c0,0-6.6,26.8-6.7,26.8L85.6,67.7z M79.8,67.8
		c0.6,0,0.7,1.1,0.2,1.6c-0.7,0.7-2.1,0.1-1.8-0.8C78.3,68.4,79.4,67.8,79.8,67.8z M83.2,68.4c0.1,0,0.4,0.2,0.8,0.8
		c1.3,1.8,1.4,3.8,0.2,4.7c-1.4,1.1-2.4-0.6-1.3-2c0.3-0.4,0.3-1.1,0.2-2.6C83,68.7,83.1,68.4,83.2,68.4L83.2,68.4z M129,69.1
		c0.2,0,0.4,0.1,1,0.4c0.8,0.4,1.1,1,0.7,1.5c-0.6,0.7-2.2-0.7-1.9-1.7C128.9,69.2,128.9,69.1,129,69.1L129,69.1z M127.8,70
		c0.2,0,0.6,0.4,0.9,1.2c0.3,0.5,0.4,0.7,0.8,0.8c1,0.4,1.2,1.4,0.3,1.7c-1,0.3-1.7-0.4-2.1-2.1C127.4,70.6,127.5,70,127.8,70
		L127.8,70z M85.5,70.8c0.1,0,0.4,0.3,0.9,1c1.3,2,0.9,5.7-0.8,6.6c-0.7,0.4-1.2,0.3-1.8-0.3c-0.9-0.9-0.6-1.5,0.6-2
		c1.1-0.4,1.4-1.6,1.1-3.9C85.3,71.2,85.3,70.8,85.5,70.8L85.5,70.8z M91.8,71.4c8.1,6.7,15.4,13.8,24.8,22.2
		c2.2-6.9,5.5-21.2,5.5-21.2C121.7,72.6,106.2,74.8,91.8,71.4z M122,72.3C122,72.3,122,72.3,122,72.3C122,72.3,122,72.3,122,72.3z
		 M127,71.4c0.1,0,0.5,1,0.7,1.9c0.2,0.8,1,2.2,1.3,2.3c1.6,0.3,2.3,1.2,1.5,1.9c-0.6,0.6-1.8,0.3-2.4-0.6
		C127,75.2,126.2,71.4,127,71.4L127,71.4z M36.9,72.3c1,0,1.9,0.6,2.1,1.9c0.3,1.5-0.5,2.5-1.2,2.3c-0.8-0.3-1-1.5-1-1.5
		s-0.2,1-0.5,1.5c-0.7,1-2.1-0.5-1.8-2C34.7,73.1,35.8,72.3,36.9,72.3L36.9,72.3z M94.4,72.7c8.8,1.3,16.4,1.7,26.9,0.5l-4.9,19.3
		L94.4,72.7z M87.8,72.7c0.1,0,0.4,0.2,0.8,0.7c1.4,1.4,1.8,3.5,0.9,4.5c-0.5,0.6-0.9,0.7-1.5,0.3c-0.7-0.5-0.8-1.3-0.1-1.6
		c0.6-0.3,0.7-1,0.2-2.4C87.7,73.2,87.6,72.7,87.8,72.7L87.8,72.7z M30.4,73.2l3.2,1.3l1.2,2.7l-3.2-0.8L30.4,73.2z M42.5,73.6
		l-1,2.7l-2.5,0.9l1-2.9L42.5,73.6z M126.4,74.2c0.1,0,0.3,0.3,0.5,1c0.5,1.8,0.8,2.2,1.2,2.4c0.8,0.4,0.8,1.3,0.1,1.7
		c-0.5,0.2-0.6,0.2-1-0.3c-0.5-0.7-0.9-2-1-3.2C126.1,74.7,126.2,74.2,126.4,74.2L126.4,74.2z M90.6,75.4c0.1,0,0.2,0.1,0.4,0.4
		c1.2,1.5,1.4,3.8,0.3,4.5c-1.1,0.7-2.6-0.7-1.7-1.5c0.1-0.1,0.3-0.2,0.4-0.3c0.3-0.2,0.3-0.3,0.3-1.6
		C90.4,75.8,90.4,75.4,90.6,75.4L90.6,75.4z M100.1,75.5l15.4,14l3.5-13.9C112.9,76.2,106.6,76.1,100.1,75.5z M62.3,76.2
		c4.9,5.1,11.2,9.3,12.7,14.4c2.7,7,0.7,15.2-5.6,19.9c-3.5,2.7-6.9,5.4-9.8,8.8c-4.7,5-7.8,10.5-10.9,14.4
		c-0.5,0.7-1.9,2.8-1.9,2.8s-0.7,0.8-3-1.1c-6.1-5.4-12.4-9.3-18.9-13.1l2.7-1.5c5.4,3.1,12.1,7.5,18.2,12.6c0,0,4.8-7,6.3-9.1
		c2.2-2.9,3.8-4.8,5.9-7c5.3-6.6,10.8-8.7,13-12c3.3-4.9,3.5-10.6,0.7-15.5c-2.7-4.7-8-7.9-11.4-11.8L62.3,76.2z M108.4,76.6h6
		c0,0-0.9,0.7-1.6,1.2c-0.4,0.3-0.9,0.2-1.9-0.1C110.1,77.3,108.4,76.6,108.4,76.6L108.4,76.6z M115.3,76.6l1.4,0
		c-1,1.3-2.1,2.2-3.5,3.3c-0.2,0.1-0.3,0.1-0.7,0c-2.9-1-5.5-2.2-8.3-3.3l2.5,0c0,0,1.2,0.4,3,1.1c2.1,0.9,2.6,1.1,3.4,0.6
		C113.8,77.9,114.5,77.1,115.3,76.6L115.3,76.6z M118.1,76.6l-0.5,1.8c-0.8,1.1-2.5,2.3-4,3.5c-0.3,0.2-0.3,0.2-1.8-0.4
		c-5.3-2.1-7.9-3.4-7.9-3.4l-1.1-1c0,0,1.4,0.4,2.3,0.8c0.6,0.2,1.7,0.7,2.4,0.9c0.7,0.3,2.2,0.9,3.2,1.3c2.3,0.9,2.2,0.9,4.4-1
		C117.6,77,118.1,76.6,118.1,76.6L118.1,76.6z M37.2,76.8l2.3,2.7l-3.1,2.6L34,79.3L37.2,76.8z M125.7,76.8c0.5,1,0.9,2.2,1.8,3
		c0.7,0.6,0.8,1.1,0.4,1.5c-1,0.6-1.2-0.4-1.5-1.1C125.8,79.1,125.1,77.5,125.7,76.8L125.7,76.8z M41.3,77.1c0.1,0,0.1,0,0.2,0
		c2.5,0,3.1,3.7,0.7,4.6c-0.8,0.3-1.8,0.2-2.3-0.3c-0.5-0.5-0.6-0.9-0.2-1.2c0.5-0.4,1.8-0.4,1.8-0.4s-1.2-0.4-1.7-0.7
		C38.8,78.4,39.7,77.1,41.3,77.1L41.3,77.1z M92.5,77.1c0.1,0,0.4,0.3,0.7,0.9c1.3,2.1,1.2,6-0.1,7c-0.7,0.5-1.5,0.4-2.1-0.2
		c-0.8-0.8-0.5-1.7,0.6-2.2c1.1-0.5,1.3-1.5,0.9-4.2C92.3,77.5,92.3,77.1,92.5,77.1z M32.2,77.1c0.7,0,1.5,0.3,1.8,0.9
		c0.3,0.4,0.1,0.8-0.4,1c-0.6,0.2-1.8,0.5-1.8,0.5s1.1,0.2,1.8,0.5c0.8,0.4,0.8,1.1-0.5,1.6c-2.4,1.1-4.6-2-2.7-3.7
		C31,77.4,31.6,77.2,32.2,77.1L32.2,77.1z M94.6,78.6C94.6,78.6,94.6,78.6,94.6,78.6c0.3,0,0.7,0.3,1.1,0.9c1.4,1.9,1.7,4.7,0.5,5.3
		c-1.3,0.6-2.2-0.6-1.3-1.7c0.6-0.7,0.6-1.8-0.3-4C94.4,78.8,94.4,78.6,94.6,78.6L94.6,78.6z M125.1,78.7c0.1,0,0.3,0.4,0.6,1.4
		c0.7,2,1.3,2.9,2.1,2.9c0.9,0,1.4,1.3,0.7,1.8c-1.4,1-3.3-1.5-3.5-4.6C125,79.2,125,78.7,125.1,78.7L125.1,78.7z M117.4,79.7
		l-0.4,1.6c0,0-1,1-1.7,1.6c-1.1,1-1.4,1.2-2.3,0.9c-1.4-0.5-2.7-0.9-4.1-1.3l-3.3-2.7l7.5,2.9c0,0,0.6,0.2,0.9,0
		C115,81.7,116,80.9,117.4,79.7L117.4,79.7z M124.5,81.3c0.1,0,0.2,0.1,0.3,0.4c0.3,1.5,0.8,2.7,1.2,2.8c0.5,0.2,0.7,0.7,0.5,1.1
		c-0.6,1.3-2.3-1-2.3-3.3C124.2,81.7,124.4,81.3,124.5,81.3L124.5,81.3z M97.4,81.4c0.1,0,0.2,0.1,0.5,0.4c1,1,1.4,3.9,0.5,4.7
		c-1.2,1.2-2.5-0.6-1.3-1.8c0.3-0.3,0.3-0.4,0.2-1.8C97.3,81.8,97.3,81.4,97.4,81.4z M34.6,81.6l-0.8,2.7L31.2,85l0.6-2.2L34.6,81.6
		z M37.7,81.9c0.2,0,0.4,0.1,0.7,0.2c1.1,0.8,1.1,2.1,0.6,3c-0.5,0.9-1.4,1.2-2.4,1.1c-1.2-0.1-2.1-1-2.1-2.3c0-0.6,0.3-1.4,0.7-1.7
		c0.3-0.2,0.6-0.1,0.8,0.3c0.2,0.4,0.7,1.4,0.7,1.4s0-1,0.2-1.5C37.1,82.2,37.4,81.9,37.7,81.9L37.7,81.9z M39.7,82.2l1.9,0.6
		l0.7,2.6l-2.1-0.8L39.7,82.2z M146.7,82.6c0,0,0.5,0.2,3.1,2.3c0.6,0.5,1.7,1.5,1.7,1.5l-0.1,33.4l-6.1-3.8l0.3-2.9
		c0,0,0.8-8.8,1.5-13.4c0.4-5.2,1.4-6.6-2-8.8c3.7-2.3,2.7-6,0.3-7.5L146.7,82.6z M116.5,82.8l-0.3,1.5c-1.2,2.1-2.3,2-4.2,1
		l-2.2-1.9c1.4,0.3,2.2,0.8,3.6,1.2c0.7,0.2,1,0.1,1.5-0.4C115.4,83.7,115.9,83.3,116.5,82.8L116.5,82.8z M99.9,83.6
		c0.8,0.8,1,1.6,0.9,3.7c-0.1,1.4-0.1,2.5-1.3,3.3c-0.6,0.4-1.6,0.4-2,0c-1.1-0.7-0.5-2.1,0.9-2.2c0.9,0,1.2-2.9,0.7-4.7
		c-0.1-0.3-0.1-0.5,0.1-0.5C99.4,83.1,99.7,83.3,99.9,83.6L99.9,83.6z M123.7,83.5c0.2,0,0.5,0.4,0.7,1.2c0.3,1,0.6,1.6,1.2,1.9
		c0.7,0.4,1,1.1,0.5,1.5c-0.9,0.8-1.9-0.2-2.2-2.3C123.9,85.5,123.4,83.5,123.7,83.5z M143.8,83.8c2.1,0,3.3,1.5,3.3,3.3
		c0,1.3-0.7,2.6-2,3.1c-3.1,0.9-4.7-1.2-4.7-3.1C140.3,85.4,141.7,83.8,143.8,83.8z M101.7,85c1.8,1.8,1.8,5.5,0.1,5.5
		c-2.1-0.7-0.5-1.9-0.4-2.2c0.2-1.3-0.1-2.1-0.4-3.3C100.9,84.2,101.6,84.8,101.7,85z M143.9,84.8c-0.4,0-0.3,0.4,0.3,0.9
		c1.2,1.1,0.6,3-0.9,3c-0.7,0-0.9,0.5-0.3,0.7c2.4,1,4-2.7,1.9-4.2C144.5,85,144.1,84.8,143.9,84.8z M52.1,85.3
		c1.9,0.7,2.6,4.4,2.7,5.7c0.1,2.3-1,6-1.9,6.7c-2.4,1.9-3.6-4.9-1.5-9.2c0.2-0.4,0.4-0.8,0.3-1.7C51.6,85.8,51.7,85.3,52.1,85.3
		L52.1,85.3z M115.9,85.6c0,0-0.2,1.1-0.5,1.7c-0.3,0.7-0.5,0.7-1.2,0.1c-0.4-0.3-1-1-1-1c0.6,0.1,1.1,0.4,1.7,0.2
		C115.4,86.3,115.8,85.8,115.9,85.6z M123.2,85.7c0.1,0,0.3,0.4,0.5,1.2c0.6,2.1,1.2,2.9,2,2.9c1.4,0,1.7,1.7,0.4,2.1
		c-0.5,0.2-0.6,0.2-1.3,0c-0.9-0.2-2.2-3.4-2-5C123,86.1,123.1,85.7,123.2,85.7L123.2,85.7z M38.2,86.9c0.5,0,0.7,0.2,1,0.9
		c0.3,0.7,1.2,1.6,2,2c1.8,0.9,3.7,1.6,5.5,2.5c2.3,1.2,4.4,4.8,3,5.1c-0.5,0.1-1.1,0.1-1.6,0.1c-0.2-0.1-0.5-0.5-0.7-0.9
		c-1.1-1.7-3-3.4-6.1-4.2c-2.2-0.6-4.1-3.2-4.5-4.5c-0.1-0.3-0.1-0.6,0.2-0.7C37.5,87,37.9,86.9,38.2,86.9L38.2,86.9z M103.8,87.1
		c0.1,0,0.2,0.1,0.5,0.3c1.3,1.4,1.4,3.9,0.3,4.6c-1.2,0.8-2.3-0.5-1.4-1.6c0.4-0.5,0.4-0.5,0.4-1.9
		C103.6,87.6,103.6,87.2,103.8,87.1L103.8,87.1z M122.4,88.7c0.2,0,0.4,0.4,0.7,1.3c0.4,1.2,0.5,1.3,0.9,1.5c0.8,0.4,0.9,1,0.3,1.6
		c-1,1.1-2.1-0.6-2.1-3.4C122.2,89.1,122.3,88.7,122.4,88.7L122.4,88.7z M105.7,88.9c0.1,0,0.4,0.2,0.6,0.5c1.6,1.9,1.3,6.2-0.5,6.9
		c-0.6,0.2-0.8,0.2-1.1,0.1c-1.3-0.6-1.1-2,0.5-2.8C106.3,92.9,105.4,89,105.7,88.9z M25.3,90.3l6.5,3.2c0,0,1.8,3.8,2.6,5.2
		c0.6,1,1.7,1.9,0.5,2.6c-2,1.3-3.1,2.1-3,2.9c0,0.7,0.8,1.3,2,2.7c1.6,1.9,1.6,1.5,0.1,4.3c-1.1,2-2.1,6.6-2.1,6.6l-6.6,3.4
		c2-4.7,4.2-8.7,6.8-11.5c-1.9-1.4-3.5-2.9-5.2-4.9c1.2-1.7,2.9-3,4.4-4.5C28.3,96.9,26.3,93.5,25.3,90.3L25.3,90.3z M107.4,90.4
		C107.4,90.4,107.4,90.4,107.4,90.4c0.3,0,0.9,0.7,1.5,1.8c0.7,1.4,0.8,3.2,0.1,3.8c-1.1,1.1-2.5-0.3-1.5-1.5c0.7-0.5,0.5-1.8,0-3.2
		C107.2,90.7,107.2,90.4,107.4,90.4L107.4,90.4z M24.6,91c1.7,3.6,3.6,6.5,5.5,9.3l-4.2,4.4c1.3,1.5,2.9,3.1,5.1,5
		c-2.7,3-4.5,7.3-6.3,11.3L24.6,91z M121.7,91.1c0.1,0,0.4,0.4,0.6,1.3c0.3,1.1,0.5,1.4,1.1,1.7c1,0.4,1,1.4,0,1.8
		c-0.4,0.1-1.1-0.2-1.3-0.7c-0.4-0.7-0.6-1.6-0.6-2.5C121.5,91.6,121.6,91.1,121.7,91.1z M145.1,91.7c1.6,0.4,2.2,2.1,1.9,5
		c-0.4,4-0.9,8.4-1.3,12.1c-0.5,4.2-0.8,6.9-0.8,6.9l-0.4-0.3c0,0,0.1-2.3,0.3-3.7c0.4-3.1,0.6-5.9,0.9-9c0.7-7,0.5-9.2-0.7-9.9
		c-1-0.5-1.4-0.2-0.7,0.5c1.4,1.1,1.3,1.5-0.1,18.7c-0.2,1.8-0.2,3-0.2,3l-1.9-1.2c0,0-0.1-1.5-0.3-3.7c-0.4-4.2-0.7-8.7-0.9-12.7
		c-0.3-4.3,0.5-5.8,3.2-5.9C144.3,91.6,144.7,91.6,145.1,91.7L145.1,91.7z M110.9,94.2c0.2,0.6,1.1,4.8-1.2,3.6
		c-0.6-0.4-0.7-0.9-0.2-1.5c0.5-0.6,0.6-1.5,0.4-2.7c-0.2-0.8-0.4-1.4-0.4-1.4C109.9,92.4,110.8,94.1,110.9,94.2L110.9,94.2z
		 M40.4,92.9c2,0.4,4.2,1.6,5.6,3c0.9,0.9,0.8,1.7-0.5,1.8c-1.3,0.2-1.4,0.4-2-0.1c-0.3-0.2-0.8-0.8-1.5-0.9
		C40,96.4,39,92.6,40.4,92.9z M121.3,94c0.2,0.3,0.2,1,0.4,1.5c0.3,1.3,1.2,2.3,2,2.2c0.6-0.1,1.3,0.1,1.4,0.8
		c0.2,0.6-0.1,1.1-0.7,1.3c-0.7,0.3-1.5,0.1-2-0.4C121.2,98.2,120.4,94.4,121.3,94L121.3,94z M111.7,94.1c0.7,0.3,1.6,2.6,1.7,4.4
		c0,1.3-0.2,3-1.3,3.6c-0.7,0.4-1.5,0.2-1.8-0.4c-0.4-0.8-0.1-1.6,0.7-1.9c1-0.5,1.3-2.5,0.7-4.5C111.7,94.9,111.2,93.9,111.7,94.1
		L111.7,94.1z M35.1,95l5.3,2.7c-0.8,1.1-1.4,2-1.8,3.1C36.9,99,36,97,35.1,95z M113.7,96c0.1,0,0.4,0.3,0.7,0.5
		c1.3,1.3,1.9,3.6,1.1,4.5c-0.6,0.7-1.8,0.6-1.9-0.1c-0.1-0.4,0.3-1,0.5-1.3c0.2-0.5,0.3-1.8-0.1-2.8C113.7,96.3,113.6,96,113.7,96z
		 M76.9,96.5l6,0.2l20,18.1l-1.9,0L82.6,97.9l-5.7,0L76.9,96.5z M42.5,99.7c-2.3,3.6-2.9,8.2-1.5,12.3c1.1,2.9-1.3,3.1-2.2,1.2
		c-0.7-1.4-1.2-3.9-0.9-6.5c0.3-4.3,2.3-8.6,3.8-9.1C43.3,97.1,42.9,99.2,42.5,99.7L42.5,99.7z M124.5,108.5
		c-0.6,2.8-1.7,4.3-3.3,4.9c-6.5,2.4-9.4-10.8-3.3-14C123.7,97.5,125.3,104.7,124.5,108.5L124.5,108.5z M76.5,99.9l5.6,0.1
		c5.1,4.7,10.7,9.1,16.2,14.8h-2.7c0,0-0.8-0.7-1-0.9c-5-4.5-8.7-8.1-13.4-12.2l-5-0.1L76.5,99.9z M119.6,100.7
		c-3,0.1-3.3,4.3-3.2,5.8c0.2,2.3,1.1,5.6,4,5.3c2.1-0.2,3.1-2.7,2.9-5.7C123,103.4,121.9,100.7,119.6,100.7L119.6,100.7z M76,102.1
		l4.9,0.1c4.4,3.8,9,8,13.5,12.5h-2.2c0,0-0.6-0.5-0.7-0.7c-3.7-3.4-7.5-7.1-11.1-10.1l-5.1-0.2L76,102.1z M119.6,102.3
		c0.9,0.3,1,2.4,0.3,3.3c-0.5,0.6-1.7-0.5-1.8-2C118,102.7,118.9,102,119.6,102.3z M37.9,102.5c-0.4,1.4-0.7,2.9-0.8,4.6l-2.1-2.6
		L37.9,102.5z M121.2,105.1c0.5,0,0.9,0.4,0.9,0.9c0,0.5-0.4,0.9-0.9,0.9c-0.5,0-0.9-0.4-0.9-0.9
		C120.3,105.5,120.7,105.1,121.2,105.1z M79.7,105.5l9.9,9.3l-2.8,0l-8.1-7.4l-5.1-0.2l1-1.8L79.7,105.5z M118,105.7
		c0.5,0,0.9,0.4,0.9,0.9c0,0.5-0.4,0.9-0.9,0.9c-0.5,0-0.9-0.4-0.9-0.9C117.1,106.1,117.5,105.7,118,105.7z M129.7,105.7
		c5.6,4.3,13.4,10.1,21.6,14.7c0,0-1.3,1.1-2.6,1.4c-6.3-3.5-13.9-8.5-18.6-12.5c-4.4,6.5-12.9,18.4-20.4,23.8
		c-4.8,3.4-7.2,7.6-7.1,12.5c0,5.1,1.8,8.4,6.8,12.6c3.2,2.7,6.7,6.1,6.7,6.1l-1.8,1.6c-0.3,0-5.4-4.4-10.5-9.6
		c-2.8-2.8-4.1-9.1-3.6-12.5c0.7-4.6,2.2-7.9,6.5-11.4c1.7-1.3,3.3-2.3,4.8-3.8C124.9,114.3,129.7,105.7,129.7,105.7L129.7,105.7z
		 M120.7,108.1c0.5,1.1,0.8,2.4-0.8,2.5c-0.9,0.1-1.5-1.5-0.7-2.9C119.9,106.6,120.4,107.5,120.7,108.1L120.7,108.1z M73.2,107.8
		l5.3,0.2c0,0,5.2,4.6,7.9,7.1h17.8c9.8,0,17.9,0,17.9,0.1c0.1,0.1-1.3,2-1.3,2l-58.8,0c0,0,3.6-3.2,4.9-4.1
		C69.3,111.4,71.4,110,73.2,107.8L73.2,107.8z M37.2,110c0.4,1.4,0.7,2.9,1.4,4.2l-4.1,2.2C35.2,114.2,36.1,112.1,37.2,110L37.2,110
		z M150.5,121.9c-0.8,2.2-2.9,6.7-5.5,10.2c-0.5,0.7-0.9,1.2-0.9,1.2l5,4.8l-4.3,4.6c2.4,2.5,4.5,6.4,5.6,9.5
		c-2-0.8-3.1-1.3-5.5-2.6c-0.7-1.7-1.4-3.6-2.2-5.1c-1.8-3.6-1.7-3.2-0.3-4.3c2.1-1.6,2.7-1.9,2.2-2.7c-0.4-0.5-2.9-3.5-3-3.6
		c-0.2-0.1-0.1-0.6,0.3-1.3c1.4-2.6,2.6-5.5,3.4-8L150.5,121.9z M151.5,122l0.1,30.3c-1.8-3.6-3.7-7.3-5.7-9.6
		c-0.1-0.2,4.5-4.7,4.5-4.7c-1.7-1.6-2.7-2.5-5-4.7C147.7,130,149.5,125.7,151.5,122z M24.7,123.1l5.7,3.3
		c-0.3,4.3-0.7,9.9-1.3,15.6c-0.5,4.4-0.7,6.5,0.1,7.7c0.7,0.9,2.5,1.9,2.5,1.9c-3,1.2-4.2,4.8-0.8,7.5c0,0-0.8,0.6-1.2,1l-4.7-3.5
		L24.7,123.1z M114.4,124.6c-1.4,1.6-3.7,4-5.4,5.1c-2.3,1.5-5.5,4.4-5.4,4.5c0,0-3.4,0-5.7-0.1l-7.9-7.1c0,0,0.3-0.1-10.5,0
		c-13.9,0.1-25.1,0-25.1,0l1.6-2.2L114.4,124.6z M142.5,126c-0.8,2.5-2,4.8-3.5,7c-0.4-1.5-0.5-3.2-1.3-4.5L142.5,126z M31.1,126.8
		l0.7,0.5c0,0-0.4,5.2-0.5,6.8c-0.2,2.8-0.4,5.4-0.6,8.2c-0.5,5.7-0.4,6.6,0.7,7.4c0.9,0.6,1.4,0.4,0.7-0.5
		c-0.5-0.6-0.5-0.6-0.7-1.6c-0.1-0.7-0.1-1.7,0.1-4.3c0.9-15.1,1-15.6,1-15.6l1.7,1.1c-0.1,0.2,1.6,15.2,1.4,18.9
		c-0.2,4.4-6,3.4-6.3,0.2c-0.1-0.7,1-13,1-13L31.1,126.8z M78.8,127.7l2.3,0.1l14.2,13l4.8,0.1l-0.4,1.6l-4.7,0L78.8,127.7z
		 M87.6,127.7h2.2l8.1,7.4l5,0.1l-0.9,1.4l-5-0.1L87.6,127.7z M84.8,127.7l12,10.8l4.1,0.2l-0.6,1.5l-4.8-0.1l-13.5-12.4L84.8,127.7
		z M73.3,127.7h2.5l18.7,16.9l4.9,0.1l-0.1,1.5l-5.9,0L73.3,127.7z M136.2,128.2c1,0.2,1.5,1.2,2.2,4.8c0.8,4.2-0.9,10.9-3.2,12.2
		c-1.1,0.9-2.4-0.1-1.6-1.2c2.6-3.8,3-10.1,1.4-13.6C134.6,129.2,135.1,128,136.2,128.2z M56.8,128.8c6,0.1,7.5,12.4,1.6,14.1
		c-3.8,0.6-5.8-2.9-6.3-6C51.5,133,53.2,128.8,56.8,128.8z M53.5,136.2c0.4,2.5,1.9,5.3,4.1,5.1c2.9-0.3,3.3-4.2,3-6.2
		c-0.3-2.4-1.7-4.5-3.7-4.6C53.8,130.3,53.3,134.3,53.5,136.2z M56.7,131.4c0.8,0,1.4,1.1,1.2,2.5c-0.1,0.9-0.5,2-1.5,1.3
		c-0.5-0.4-0.9-1.7-0.8-2.6C55.8,131.9,56.1,131.5,56.7,131.4L56.7,131.4z M139.2,134.3l2.8,3.3l-3.2,2.2
		C139.3,138.1,139.4,136.2,139.2,134.3z M58.8,134.6c0.5,0,0.9,0.4,0.9,0.9s-0.4,0.9-0.9,0.9c-0.5,0-0.9-0.4-0.9-0.9
		C57.9,135,58.3,134.6,58.8,134.6z M55.5,135.1c0.5,0,0.9,0.4,0.9,0.9S56,137,55.5,137c-0.5,0-0.9-0.4-0.9-0.9
		C54.6,135.6,55,135.1,55.5,135.1z M57.4,136.3c0.5,0.1,0.8,0.6,1,0.9c0.6,0.9,0.7,2.1,0.3,2.5c-0.9,1-2.3-0.1-2.1-1.7
		C56.7,136.9,57,136.2,57.4,136.3L57.4,136.3z M65.2,139.9c1.3,0,1.7,1.6,0.6,2.3c-0.7,0.5-0.9,2.1-0.4,4.3c0.4,1.6,0.2,1.9-0.8,0.4
		C62.9,144.3,63.3,139.9,65.2,139.9L65.2,139.9z M62.1,140.8c1.2,0,1.5,0.8,0.8,1.5c-0.4,0.4-0.4,1.6,0.1,2.5
		c0.6,1.4,0.5,1.8-0.7,0.5C60.8,143.6,60.8,140.8,62.1,140.8L62.1,140.8z M138.3,141.4c1.3,1.7,2.5,4,3.5,6.6l-5.7-2.6L138.3,141.4z
		 M55.5,148.4c-0.4-0.5-0.6-2-0.9-2.6c-0.3-0.8-0.5-1.2-0.9-1.2c-2.4,0.2-2.3-2.1-0.9-2.5C55.6,141.2,56.6,148.1,55.5,148.4
		L55.5,148.4z M67.4,146.1c-0.4,1.2-0.1,1.9,0,3.2c0.1,0.6,0.1,0.7-0.4,0.3c-1.1-1-1.7-4.4-0.7-5C67.6,143.8,68,145.2,67.4,146.1z
		 M124.1,144.5c0.6,0,1.2,0.4,1.5,1.2c0.4,1.1,0.4,4,0.2,5.5c-0.3,2.3-0.9,4.4-1.1,6c-0.8,1-2.8-2.4-3-5.1c-0.3-2.1,0.4-6.5,2-7.4
		C123.9,144.6,124,144.5,124.1,144.5L124.1,144.5z M131.8,144.9c0.5,0,0.4,0.1,0.8,0.5c0.6,0.6,0.8,0.7,1.6,1
		c1.6,0.5,3.4,2.8,2.7,3.5c-0.5,0.4-2-0.4-2.5-0.6c-0.5-0.2-1.2-0.4-1.5-0.5c-1.4-0.5-3.3-3-2.7-3.5
		C130.4,145,131.4,144.9,131.8,144.9L131.8,144.9z M127.8,145.3c1,0,1.3,0.3,1.9,1.3c0.9,1.6,2.4,2.7,4.7,3.4
		c2.9,0.9,5.5,2.6,5.4,5.8c-0.7,0-1.4,0.1-2.1,0.3c-0.8-2.3-2.8-3.6-4.6-4c-4-0.9-7.7-5-6.7-6.6
		C126.8,145.2,127.3,145.3,127.8,145.3L127.8,145.3z M58.5,145.5l34.7,30.3c-14.7-5.5-28.1-5.3-41.1-3.3L58.5,145.5z M73.3,147.5
		c-0.1,0.9-1.4,1.1-1.6,1.4c-0.6,0.6-0.6,2.2-0.3,4.1c0.2,1.1-0.1,1.1-0.7,0.2c-1.1-1.6-1-4.3-0.3-6
		C71.3,145.1,73.4,146.2,73.3,147.5L73.3,147.5z M53.3,146c1.3,0.1,1.7,2,1.8,3.2c0,1.7-0.5,1.6-0.7,0c-0.1-0.7-0.3-1-0.9-1.2
		C52.1,147.6,52,146,53.3,146z M69.4,147.9c-0.3,0.4-0.3,2.1,0,3.3c0.2,0.7-0.1,0.7-0.6,0.2c-1.4-1.7-1.6-4.6-0.2-5.1
		C69.7,146,69.9,147.3,69.4,147.9L69.4,147.9z M54.4,151.3c0,1.7-0.4,1.8-0.9,0.2c-0.1-0.4-0.4-0.8-0.5-0.9
		c-0.9-0.6-1.1-1.2-0.6-1.7C53.8,147.8,54.4,150.8,54.4,151.3z M59.5,149.8l-4.7,20.1c11.6-1,16.9-1.2,29.2,1.2L59.5,149.8z
		 M73.5,150.1c0.7,0.2,1,1.1,0.1,2c-0.3,0.3-0.5,0.9-0.2,2.3c0.5,1.9-0.3,1.3-1.2-0.5C71.6,152.7,71.9,149.7,73.5,150.1z
		 M51.4,150.2c1.3,0,2.4,2,2.4,4.3c0,1.8-0.2,1.7-0.9-0.1c-0.5-1.1-0.9-1.6-1.7-1.9C49.6,152,49.7,150.2,51.4,150.2L51.4,150.2z
		 M59.9,150.8l21.8,19.1c-8.9-1.4-17.7-1.5-26.2-0.5L59.9,150.8z M78,151.5c1.7,0,2.4,2.1,0.3,2.9c-1.2,0.4-0.7,3-0.5,4.5
		c0.1,0.6-0.1,0.6-0.5,0.1C76.1,157,75.3,152,78,151.5L78,151.5z M75.7,153.9c-0.3,0.5-0.3,1-0.1,2c0.6,2,0.7,2.4-0.5,1.4
		c-1.2-1.3-1.8-3.9-0.7-4.6C75.5,151.7,76.6,152.7,75.7,153.9L75.7,153.9z M32.6,152.3c2,0,3.5,1.3,3.4,3.1c-0.1,2-1.3,3.3-3.2,3.4
		c-2.1,0.1-3.3-1.5-3.4-3.3C29.4,154,30.4,152.3,32.6,152.3L32.6,152.3z M32.6,153.1c-2.3,0-3.2,3.1-1.3,4.5
		c0.8,0.6,1.5,0.4,0.8-0.2c-1.3-1.2-0.8-3.2,0.9-3.6C33.9,153.6,33.5,153.1,32.6,153.1L32.6,153.1z M60.8,153.6L58,167.2
		c5.7-0.9,12.6-0.6,17.9-0.1L60.8,153.6z M51.4,154.1c1.4-0.1,1.8,2,1.8,2.9c0,1.1-0.1,1.6-0.3,1.1c-0.5-1.4-0.9-2.1-1.4-2.1
		c-0.3-0.1-0.5-0.2-0.7-0.4C50.2,154.9,50.7,154.1,51.4,154.1L51.4,154.1z M61.1,154.7l1.8,1.6c-1.2-0.5-2.2,0.8-2.2,0.8L61.1,154.7
		z M80,157.2c-0.5,0.7-0.5,2.1-0.1,3.7c0.1,0.5-0.3,0.1-0.7-0.4c-0.8-1-1.2-2.3-1.1-3.3C78.2,154.8,81.4,155.2,80,157.2L80,157.2z
		 M50.9,156c1.2,0.1,1.6,2.6,1.6,3.4c0,0.8-0.2,1.3-0.4,0.8c-0.3-1-0.9-2.5-1.5-2.9C49.7,156.8,50,156.1,50.9,156L50.9,156z
		 M142,158.8c0,0.9-0.3,1.8-0.9,2.1c-0.6,0.3-0.9-0.1-1.2-1.1c-0.2-0.7-0.3-1-0.3-1s-0.2,0.9-0.3,1.1c-0.4,1.3-1.8,1.3-2.4-0.1
		c-0.6-1.7,1.1-3.4,2.5-3.3C140.8,156.4,141.9,157.4,142,158.8L142,158.8z M62.5,156.9c0.4,0,2,0.7,2,0.7l1.6,1.4c0,0-1.5-0.6-2-0.8
		c-1.2-0.4-1.2-0.4-2.2,0.4c-1,0.9-1.9,1.5-1.9,1.5l0.3-1.8C60.4,158.3,61.9,156.9,62.5,156.9L62.5,156.9z M51.9,161.4
		c0.2,1.9-0.3,2.1-0.8,0.3c-0.5-1.6-0.9-2.2-1.7-2.2c-1.4,0.2-1.9-1.9-0.6-2.3C51.2,156.5,51.8,160.7,51.9,161.4z M133.9,157.2
		l2.2,1l0.5,2.3l-2-0.5L133.9,157.2z M84.5,157.4c2.1-0.6,2.4,2.1,0.8,2.5c-1,0.2-1,1.8-0.7,4c0.1,0.5,0.2,1.1,0.2,1.2
		c-0.2,0.4-0.7-0.2-1.3-1.7C82.3,160.8,82.6,157.9,84.5,157.4L84.5,157.4z M145.1,157.4l-0.6,2.6l-1.9-0.1l-0.1-1.6L145.1,157.4z
		 M82.3,159.1c-1,1.5-0.1,2.9,0.1,4c0,0.7-0.8,0-1.3-1c-1-2.1-1.1-3.7-0.2-4.4C82.2,156.9,82.8,158.3,82.3,159.1z M63.1,158.7
		c0.4,0,0.8,0.2,1.9,0.6c0.8,0.3,2.6,1,2.6,1l2.4,2.1c0,0-2.1-0.8-3.5-1.4c-3.3-1.4-2.8-1.4-5.4,0.5c-0.7,0.6-1.5,1.2-1.5,1.2
		l0.3-1.7c0,0,1-1,2.2-1.9C62.5,158.9,62.8,158.7,63.1,158.7L63.1,158.7z M32.6,159.5c1.7,0,2.8,1.3,3.2,2.8c0.2,0.9,0,1.7,0,2.5
		c-1.2,8.9-1.7,17.2-2.7,25.4c-0.1,0.4-0.3,0.2-0.4-0.5c-1.2-7.5-2-15.7-3.1-23.1c-0.2-2.8-0.9-6.4,2.5-7.1
		C32.3,159.5,32.4,159.5,32.6,159.5L32.6,159.5z M32.5,160.5c-0.7,0-1.6,0.5-1.9,1.2c-0.6,1.3-0.5,4.1,0.7,12.3
		c0.1,0.7,0.2,1.8,0.3,2.5c0.2,2.2,0.5,3.9,0.7,4.2c0.4,0.6,0.4,0,0.2-2.2c-0.1-1.1-0.3-2.7-0.4-3.7c-0.5-3.9-0.7-6.6-1-10.2
		c-0.2-1.7,0.5-3,1.8-3.4c0.7-0.2,0.7-0.5,0.1-0.7C32.9,160.5,32.7,160.5,32.5,160.5L32.5,160.5z M143.6,160.6c2.5,0,3.4,3.4,1,4.7
		c-0.9,0.5-2.4,0.2-2.8-0.5c-0.2-0.6,0-0.9,0.5-1.1c0.5-0.3,1.3-0.5,1.3-0.5s-1.3-0.3-1.7-0.9C141.1,160.9,142.5,160.6,143.6,160.6
		L143.6,160.6z M51.3,164.3c0,0.6-0.4,0.4-0.4,0c-0.3-0.9-0.8-1.8-1.3-2.2c-0.6-0.5-0.7-1.1-0.3-1.4
		C50.7,159.5,51.3,163.9,51.3,164.3L51.3,164.3z M134.5,160.6c0.6,0,1.5,0.2,2,0.7c0.7,0.7,0.7,1-0.5,1.4c-0.6,0.2-1,0.4-1,0.4
		s0.5,0.2,0.9,0.3c1.1,0.4,1.1,1,0,1.8c-1.4,1-3.7-0.3-3.6-2.2C132.4,161.6,133.3,160.6,134.5,160.6L134.5,160.6z M139.7,160.6
		l2.2,2.5l-2.6,2.7l-2.5-2.7L139.7,160.6z M63.5,160.8C63.6,160.8,63.6,160.8,63.5,160.8c0.8,0,1.9,0.5,4.6,1.6
		c1.5,0.6,3.2,1.3,3.2,1.3l2.4,2.2c0,0-3.3-1.1-4.5-1.6c-0.3-0.1-0.8-0.4-1.2-0.5c-0.4-0.2-1.5-0.6-2.4-0.9
		c-1.9-0.8-1.9-0.8-2.5-0.2c-0.3,0.2-0.9,0.7-1.5,1.1c-0.5,0.4-1.3,1-1.7,1.3c-0.5,0.4-1.1,0.9-1.1,0.9l0.4-2.1c0,0,0.4-0.3,1-0.8
		c0.5-0.4,1.4-1.1,1.9-1.5C62.8,161.1,63.1,160.9,63.5,160.8L63.5,160.8z M87.6,162.7c0.1,0.4,0,0.5-0.5,1c-0.6,0.6-0.7,1.7-0.3,3.1
		c0.1,0.4,0.3,0.8,0.2,0.9c-0.7,0.7-2.4-3.6-2-4.8C85.6,161.3,87.3,161.3,87.6,162.7L87.6,162.7z M49.1,162.8c0.5,0,1,0.3,1.3,1.1
		c0.7,2,0.3,4.5-0.5,2.2c-0.2-0.5-0.5-1-0.8-1.3c-0.3-0.3-0.8-0.6-0.8-1C48.4,163.2,48.7,162.9,49.1,162.8L49.1,162.8z M64.1,162.9
		c0.3,0,0.7,0.2,1.4,0.4c0.6,0.3,2.4,0.9,3.4,1.3c1.6,0.6,3.2,1.4,3.2,1.4l-3.6-0.2c0,0-1.2-0.4-1.9-0.7c-2.6-1.1-2.5-1.1-3.8-0.1
		c-0.5,0.4-1.1,0.9-1.1,0.9l-1.8,0.1c0,0,0.9-0.9,2.1-1.8c0.4-0.3,1-0.7,1.2-1C63.6,163,63.8,162.9,64.1,162.9L64.1,162.9z
		 M92.2,163.6c1-0.2,1.5,0.8,1.5,1.4c-0.1,0.7-0.7,1.3-1.6,1.5c-0.2,0.7-0.8,2.4-0.4,4.9c0.3,1.2-0.2,1.2-0.7,0.1
		C90.1,169.6,88.9,164.2,92.2,163.6L92.2,163.6z M89.3,165.6c-0.4,0.9-0.6,1.6-0.3,2.8c0.3,1.3,0.3,1.6-0.4,0.8
		c-1.4-1.9-1.6-4.8-0.3-5.2C89.5,163.7,89.8,165,89.3,165.6z M47.5,164.2c2.2,0.3,2.8,4.1,2.5,5.7c-0.6,1.9-0.5,0.6-0.7-0.2
		c-0.5-1.9-1.2-3-1.8-3.1C45.7,166.3,45.9,164,47.5,164.2L47.5,164.2z M64.2,164.9c0,0,0.1,0,0.1,0c0.7,0.1,2.6,0.7,1.8,0.9l-2.8,0
		C62.7,165.9,63.6,165,64.2,164.9L64.2,164.9z M140.4,165.6c0.3,0,0.6,0.3,1.1,0.7c1,1,0.6,2.7-0.8,3.5c-2.1,1.3-4.6-1.1-3.4-3.3
		c0.6-1.2,1.4-1,2.1,0.7c0.1,0.2,0-0.2,0.2-0.7C139.8,165.9,140.1,165.6,140.4,165.6L140.4,165.6z M136.8,165.7l-0.6,2.6l-2.6,1.3
		l0.9-3.2L136.8,165.7z M142.3,166.1l2.1,0.2l1.2,3.4l-3-1.3L142.3,166.1z M93.2,168c1.5,0.1,1.7,1.5,0.8,2.1
		c-0.5,0.5-0.7,1.1-0.6,2.2c0,0.5,0.1,1.1,0.1,1.1c0,0.2-0.2,0.2-0.5-0.1C91.6,171.7,91.8,168,93.2,168z M47.6,168.6
		c1,0,2,2.7,1.5,3.8c-0.3,0.6-0.7,0.5-0.8-0.3c-0.1-0.5-0.4-1.2-1.2-1.4C46.1,170.4,46.4,168.6,47.6,168.6z M96,170.2
		c0.7,0.4,0.8,1.2,0.1,1.7c-0.5,0.4-0.6,0.7-0.7,1.7c0.2,2.3-1.1,0.8-1.2-1.2C94.1,171.3,94.7,169.6,96,170.2z M46.8,170.9
		c0.7,0,1.5,1.2,1.3,2c-0.1,0.6-0.4,0.5-0.8,0c-0.2-0.1-0.5-0.3-0.7-0.3C45.6,172.3,45.8,170.9,46.8,170.9L46.8,170.9z M66.3,171.9
		c9.3,0,18.9,1.4,26.9,4.6l-0.7,1.2l-2.1-0.7l-0.7,1.9l1.7,0.7l-0.8,1.8c-9.5-3.1-19.7-5.4-36.6-2.9c-0.8-0.6-2.4-1.7-2.4-1.7
		l1.4-0.3l-0.2-1.9l-3.4,0.6l-1-1C53.8,172.7,60,171.9,66.3,171.9L66.3,171.9z M97.4,172.3c0.9,0,1.4,1,0.8,1.4
		c-0.5,0.3-1.5,0.4-1.7,0.1C96.1,173.4,96.7,172.3,97.4,172.3z M65,173.5l0,2l2.8-0.1l0.1-1.9L65,173.5z M69.9,173.5l0,1.9l2.7,0.1
		l0.1-1.9L69.9,173.5z M62.8,173.6l-2.7,0.2l0.1,1.8l2.7-0.1L62.8,173.6z M75.1,173.9l-0.1,1.9l2.8,0.3l0.2-1.9L75.1,173.9z
		 M57.7,174l-2.8,0.4l0.2,1.8l2.7-0.3L57.7,174z M80.4,174.6l-0.3,1.9l2.6,0.4l0.3-1.8L80.4,174.6z M85.5,175.7l-0.3,2l2.6,0.6
		l0.4-1.8L85.5,175.7z M67,178c8.7,0,16.6,1.5,23.3,4c0,0-0.9,1.9-1.2,2.1c-4.8-1.9-12.9-3.7-18.5-3.8c-2-0.1-2.5-0.1-3.2-0.4
		c-4.2-1.4-7.9-2-11.3,0.1l-1.4-1C58.9,178.3,63,178,67,178L67,178z M30.3,189.1c2,0,2.9,3.1,0.8,4.4c-0.6,0.3-1.3,0.3-1.9,0
		c-1.7-0.8-1.8-3.4,0.2-4.2C29.7,189.2,30,189.1,30.3,189.1L30.3,189.1z M95.2,189.2c0.7,0.4,3.3,1.6,3.3,1.6l-18.5,33.5l-4.5,0
		L95.2,189.2z M35.7,189.3c1.1-0.1,1.9,0.8,2.2,1.6c0.4,1.1-0.3,3-2.3,2.9C33.4,193.7,32.4,189.7,35.7,189.3L35.7,189.3z
		 M99.2,191.1c0.5,0.3,2.3,0.6,2.4,0.9c0.1,0.2-0.1,0.5-0.1,1c-0.1,1.1,0.2,2.2,0.8,3.2c1.1,1.5-0.1,0.8-1.1,0.8
		c-2.4-0.6-5.4,2.6-4.2,6c0.3,0.7,0.2,0.8-1.1,1.2c-2.9,0.9-4.1,4-2.8,6.7c0.7,1.4,0.7,1.4-0.5,1.5c-3.5,0.3-5.6,3.4-4.1,6.7
		c0.2,0.5,0.1,0.6-0.7,0.8c-2.4,0.4-3.5,2.5-3.8,4.7l-3.2,0L99.2,191.1z M102.2,192.3l6.1,1.7c-2.5,8.7-2.9,18.8,0.2,30.4l-14.1,0
		c2-1.8,1.2-4.2-1.1-4.7c2.2-1.3,2.2-4.7-0.4-5.1c-2.3-0.4-3.5,1.9-2.5,4.1l-1,0.3c0,0-0.4-0.6-0.5-0.9c-0.9-2.6,1-5.1,4.1-5.1
		c1.9,0,2.3-0.5,1.3-1.7c-1.9-2.1-1.3-5.1,1.2-6.3c1.2-0.5,1.8-0.2,1.8-0.2l0.1,1.4c0,0-0.5,0-0.8,0.1c-2.8,0.4-2.3,4.9,0.6,4.8
		c1.5,0,2.7-1.2,2.7-2.9c0-0.5,0-1.2,0-1.2c1.4,2.4,3.9,2.6,4.9,0.6c1.2-2.3-1-3.8-3.2-3.6c0,0,0.5-0.3,0.8-0.5
		c2.4-1.2,1.6-4.7-1.1-4.7c-1.8,0-2.8,1.7-2.3,3.5c0.1,0.3,0.3,0.7,0.3,0.7l-1.1,0.3c0,0-0.2-0.2-0.4-0.4c-1.8-2.9,1.1-6,4.8-5.3
		c1.4,0.4,1.3-0.5,0.6-1.4C102.2,195,101.6,193.6,102.2,192.3L102.2,192.3z M33,193.5l3.2,5.7l-3.6,6.6l-3.6-6.1L33,193.5z
		 M32.7,196.5l-2.2,3.1l2.2,3.5l2.1-3.6L32.7,196.5z M32.6,197.6l1.5,2l-1.5,2.4l-1.4-2.3L32.6,197.6z M99,203.8
		c0.7,0,1.2,0.5,1.2,1.2s-0.6,1.2-1.2,1.2c-0.7,0-1.2-0.5-1.2-1.2S98.4,203.8,99,203.8z M90.4,219.2c0.7,0,1.3,0.6,1.3,1.3
		s-0.6,1.3-1.3,1.3s-1.3-0.6-1.3-1.3S89.7,219.2,90.4,219.2z M88.5,220.1c-0.1,0,0,1.2,0.3,1.6c-1.8,0.1-2.3,1.5-2.5,2.7l-1.6,0
		C84.9,220.4,88.3,220.3,88.5,220.1L88.5,220.1z"/>
	<path id="path153-6-3-1-9-55-1-6_1_" d="M46.9,22.6
		c-7.3,10.5-15.2,16.5-15.3,24.7c0,2.7,1.4,7.2,5.9,8c2.9,0.6,6.9-1.8,7-6.6c0-1,1-0.9,1,0.4c-0.1,3.8-1.3,8.2-3.3,11.8
		c3.2,0,6.4,0,9.6,0c-2-3.6-3.2-8-3.3-11.8c0-1.3,1-1.3,1-0.4c0.1,4.8,4.1,7.1,7,6.6c4.5-0.9,5.9-5.4,5.9-8
		C62.1,39.1,54.3,33.1,46.9,22.6L46.9,22.6z"/>
	<path id="path153-6-3-1-8-6-8-8-0_1_" d="M129.4,219.1
		c-7.3-10.5-15.2-16.5-15.3-24.7c0-2.7,1.4-7.2,5.9-8c2.9-0.6,6.9,1.8,7,6.6c0,1,1,0.9,1-0.4c-0.1-3.8-1.3-8.2-3.3-11.8
		c3.2,0,6.4,0,9.6,0c-2,3.6-3.2,8-3.3,11.8c0,1.3,1,1.3,1,0.4c0.1-4.8,4.1-7.1,7-6.6c4.5,0.9,5.9,5.4,5.9,8
		C144.6,202.6,136.7,208.6,129.4,219.1L129.4,219.1z"/>
</g>
</svg>
