<?xml version="1.0" standalone="no"?>
<!DOCTYPE svg PUBLIC "-//W3C//DTD SVG 1.1//EN" "http://www.w3.org/Graphics/SVG/1.1/DTD/svg11.dtd" >
<svg xmlns="http://www.w3.org/2000/svg">
<metadata></metadata>
<defs>
<font id="888black" horiz-adv-x="1579" >
<font-face units-per-em="2048" ascent="1638" descent="-410" />
<missing-glyph horiz-adv-x="606" />
<glyph horiz-adv-x="0" />
<glyph horiz-adv-x="682" />
<glyph unicode=" "  horiz-adv-x="606" />
<glyph unicode="&#x09;" horiz-adv-x="606" />
<glyph unicode="&#xa0;" horiz-adv-x="606" />
<glyph unicode="!" horiz-adv-x="544" d="M102 170q0 69 49 121.5t121 52.5q71 0 120.5 -52.5t49.5 -121.5q0 -70 -50 -120t-120 -50t-120 50t-50 120zM127 967v561h293v-561l-10 -494h-273z" />
<glyph unicode="&#x22;" horiz-adv-x="980" d="M119 838l59 690h289v-195l-137 -495h-211zM551 838l57 690h287v-195l-135 -495h-209z" />
<glyph unicode="#" horiz-adv-x="1409" d="M84 342v289h219l35 194h-186v287h235l59 334h293l-57 -334h176l60 334h292l-55 -334h170v-287h-219l-33 -194h184v-289h-235l-59 -342h-293l57 342h-176l-59 -342h-293l57 342h-172zM598 629h178l33 198h-174z" />
<glyph unicode="$" horiz-adv-x="1376" d="M115 188l143 261q105 -81 193.5 -120t187.5 -50v342q0 2 -4 2q-95 43 -156.5 73.5t-120.5 66.5t-92.5 69t-60 74.5t-37 88.5t-10.5 107v4q0 167 135 280t346 134v100h141v-98q118 -7 228 -49.5t188 -104.5l-131 -252q-152 97 -285 115v-318q146 -65 230.5 -112.5 t142.5 -104t79 -117.5t21 -149v-2q0 -179 -131.5 -304t-341.5 -140v-138h-141v138q-327 22 -524 204zM494 1104q0 -44 28.5 -68t116.5 -63v258q-145 -26 -145 -125v-2zM780 279q74 10 113 50.5t39 96.5v4q0 68 -152 133v-284z" />
<glyph unicode="%" horiz-adv-x="2293" d="M119 1077v6q0 120 63.5 224t170 164.5t227.5 60.5t226.5 -60.5t168.5 -164t63 -224.5v-6q0 -121 -63 -225t-168.5 -163.5t-226.5 -59.5q-186 0 -323.5 132t-137.5 316zM393 1077q0 -74 55.5 -127t131.5 -53q75 0 129.5 53.5t54.5 126.5v6q0 74 -54.5 127.5t-129.5 53.5 q-76 0 -131.5 -53.5t-55.5 -127.5v-6zM426 0l1077 1444l359 2l-1078 -1446h-358zM1268 358v7q0 120 63.5 224t170 164t227.5 60t226.5 -60t168.5 -163.5t63 -224.5v-7q0 -121 -63 -225t-168.5 -163.5t-226.5 -59.5q-186 0 -323.5 132t-137.5 316zM1544 358q0 -74 54.5 -127 t130.5 -53q75 0 129.5 53.5t54.5 126.5v7q0 73 -54.5 126.5t-129.5 53.5q-76 0 -130.5 -53t-54.5 -127v-7z" />
<glyph unicode="&#x26;" horiz-adv-x="1488" d="M68 455v2q0 139 71.5 245t208.5 189q-102 140 -102 278v5q0 70 28.5 139t80.5 126.5t134.5 93.5t180.5 36q175 0 293 -113.5t118 -273.5v-4q0 -114 -60.5 -203.5t-195.5 -171.5l207 -225q51 55 86 120t78 168l199 -78q-15 -41 -28.5 -75t-29 -65.5t-25.5 -51t-28.5 -50 t-26.5 -42.5l-32 -48t-33 -50l244 -265l-224 -198l-211 229q-188 -176 -428 -176q-215 0 -360 132.5t-145 326.5zM371 455q0 -67 57.5 -113.5t144.5 -46.5q120 0 224 96l-250 271q-89 -46 -132.5 -92t-43.5 -113v-2zM551 1171q0 -64 70 -145q85 41 122 76.5t37 75.5v4 q0 36 -31.5 62t-78.5 26q-52 0 -85.5 -28t-33.5 -66v-5z" />
<glyph unicode="'" horiz-adv-x="548" d="M119 838l57 690h289v-195l-135 -495h-211z" />
<glyph unicode="(" horiz-adv-x="937" d="M76 649q0 323 158.5 562.5t461.5 377.5l156 -252q-479 -192 -479 -688q0 -482 479 -674l-156 -249q-302 137 -461 373.5t-159 549.5z" />
<glyph unicode=")" horiz-adv-x="952" d="M84 -25q481 192 481 674q0 496 -481 688l158 252q303 -138 460.5 -377.5t157.5 -562.5q0 -314 -158 -550.5t-460 -372.5z" />
<glyph unicode="*" horiz-adv-x="1077" d="M145 1032l197 103l-197 102l117 182l178 -114l-10 215h217l-10 -215l180 114l115 -182l-197 -102l197 -103l-115 -182l-180 115l10 -215h-217l10 215l-178 -115z" />
<glyph unicode="+" horiz-adv-x="1175" d="M106 584v284h336v357h291v-357h336v-284h-336v-357h-291v357h-336z" />
<glyph unicode="," horiz-adv-x="497" d="M37 -354l123 477h227l-129 -477h-221z" />
<glyph unicode="-" horiz-adv-x="901" d="M109 575v293h677v-293h-677z" />
<glyph unicode="." horiz-adv-x="497" d="M78 170q0 69 49.5 121.5t120.5 52.5q72 0 122 -52.5t50 -121.5q0 -70 -50.5 -120t-121.5 -50q-70 0 -120 50t-50 120z" />
<glyph unicode="/" horiz-adv-x="1306" d="M51 -168l877 1878h327l-876 -1878h-328z" />
<glyph unicode="0" horiz-adv-x="1517" d="M125 743v5q0 120 23.5 230.5t74 210t123.5 172.5t179 116t233 43q128 0 234 -42.5t179 -116t124 -172.5t74.5 -210t23.5 -231v-5q0 -122 -23.5 -233.5t-74.5 -210.5t-124 -171.5t-179 -114.5t-234 -42q-127 0 -232.5 42t-179 114.5t-124 171t-74 210.5t-23.5 234z M459 745q0 -107 16.5 -194.5t51 -157t94 -108.5t139.5 -39t139.5 38t94 107t51 156t16.5 194v4q0 104 -17 191t-51.5 158t-95 111t-141.5 40q-79 0 -138 -39t-93 -108.5t-50 -156t-16 -191.5v-5z" />
<glyph unicode="1" horiz-adv-x="907" d="M86 1352l424 166h225v-1518h-305v1219l-295 -107z" />
<glyph unicode="2" horiz-adv-x="1247" d="M96 1155q188 381 529 381q124 0 220 -35.5t154 -97.5t87.5 -140t29.5 -169v-4q0 -113 -45 -216.5t-182 -252.5l-301 -330h561v-291h-1012v205l563 618q42 46 67 82t36 67.5t13.5 52.5t2.5 54q0 68 -51.5 117t-144.5 49q-169 0 -299 -241z" />
<glyph unicode="3" horiz-adv-x="1234" d="M57 254l213 188q60 -94 145 -143t171 -49q131 0 212 59.5t81 169.5v17q2 117 -92 178.5t-252 40.5l-76 -19l-72 224l320 301h-512v290h862v-227l-336 -323q122 0 226.5 -64.5t164 -172t59.5 -230.5v-9q0 -151 -75.5 -271.5t-209 -187.5t-300.5 -67q-163 0 -310 82 t-219 213z" />
<glyph unicode="4" horiz-adv-x="1310" d="M90 289v270l680 954h281v-933h166v-291h-166v-289h-306v289h-655zM410 580h335v485z" />
<glyph unicode="5" horiz-adv-x="1245" d="M84 233l211 197q48 -76 127 -125t170 -49q123 0 196.5 66.5t73.5 175.5v4q0 114 -73.5 182t-182.5 68q-127 0 -237 -113l-211 70l82 802h802v-292h-548l-35 -258q79 55 203 55q216 0 356.5 -145t140.5 -369v-2q0 -243 -156 -390t-411 -147q-160 0 -297 75.5t-211 194.5z " />
<glyph unicode="6" horiz-adv-x="1286" d="M125 498v4q0 156 90 293l416 716h319l-288 -485q134 -5 248.5 -75t182.5 -188.5t68 -256.5v-4q0 -144 -70.5 -266t-189.5 -192.5t-258 -70.5q-138 0 -257 69t-190 190.5t-71 265.5zM399 500q0 -107 74.5 -181.5t171.5 -74.5q98 0 170 73t72 183v4q0 106 -74.5 179 t-171.5 73t-169.5 -72.5t-72.5 -179.5v-4z" />
<glyph unicode="7" horiz-adv-x="1261" d="M121 1219v292h1030v-182l-578 -1329h-346l551 1219h-657z" />
<glyph unicode="8" horiz-adv-x="1232" d="M74 422q0 118 66 214t167 146q-87 52 -145 138t-58 192q0 190 146.5 315t365.5 125t365.5 -127t146.5 -321q0 -102 -56.5 -189t-143.5 -137q101 -49 166 -144.5t65 -211.5q0 -92 -36 -174.5t-102 -146t-169.5 -101t-230.5 -37.5q-131 0 -236.5 37t-172.5 101t-102.5 146 t-35.5 175zM371 440q0 -96 66.5 -158.5t180.5 -62.5q117 0 182.5 61.5t65.5 159.5q0 93 -71 157.5t-177 64.5t-176.5 -64.5t-70.5 -157.5zM418 1108q0 -81 57 -131.5t146 -50.5q88 0 143 50.5t55 131.5q0 76 -53.5 127t-144.5 51q-93 0 -148 -51t-55 -127z" />
<glyph unicode="9" horiz-adv-x="1294" d="M129 1006v4q0 108 41.5 206t111.5 168.5t165.5 112t199.5 41.5q102 0 197 -41t165 -110t112 -167t42 -206v-4q0 -131 -57 -242l-4 -6l-19 -33l-424 -729h-319l289 485q-134 4 -248.5 74t-183 189t-68.5 258zM403 1008q0 -106 74 -180t172 -74q96 0 168 73.5t72 180.5v4 q0 108 -74 182t-170 74q-98 0 -170 -74t-72 -182v-4z" />
<glyph unicode=":" horiz-adv-x="536" d="M98 170q0 69 49 121.5t121 52.5q71 0 120.5 -52.5t49.5 -121.5q0 -70 -50.5 -120t-119.5 -50q-70 0 -120 50t-50 120zM98 934q0 69 49 119.5t121 50.5q71 0 120.5 -50.5t49.5 -119.5t-50.5 -120.5t-119.5 -51.5q-70 0 -120 51t-50 121z" />
<glyph unicode=";" horiz-adv-x="559" d="M74 -354l123 477h227l-129 -477h-221zM123 934q0 69 49.5 119.5t122.5 50.5q70 0 119 -51t49 -119q0 -69 -50.5 -120.5t-117.5 -51.5q-71 0 -121.5 51t-50.5 121z" />
<glyph unicode="&#x3c;" horiz-adv-x="1273" d="M94 639v174l1039 530v-329l-570 -287l570 -291v-327z" />
<glyph unicode="=" horiz-adv-x="1273" d="M158 301v289h958v-289h-958zM158 831v289h958v-289h-958z" />
<glyph unicode="&#x3e;" horiz-adv-x="1273" d="M141 109v327l570 291l-570 287v329l1039 -530v-174z" />
<glyph unicode="?" horiz-adv-x="1093" d="M57 1274q91 134 199 201t268 67q205 0 340 -128.5t135 -315.5v-4q0 -88 -31 -163t-84 -126t-116.5 -84t-134.5 -47l-10 -152h-267l-18 318l80 80q77 -14 131.5 -5.5t89.5 37.5t51.5 65t16.5 75v4q0 65 -52 110t-133 45q-90 0 -164.5 -54.5t-113.5 -125.5zM317 170 q0 69 50 121.5t122 52.5q71 0 120.5 -52.5t49.5 -121.5q0 -70 -50.5 -120t-119.5 -50q-71 0 -121.5 50t-50.5 120z" />
<glyph unicode="@" horiz-adv-x="1988" d="M31 539q0 202 73 392t199.5 334.5t310.5 232t392 87.5q200 0 378 -75t303 -200t198 -294t73 -352q0 -124 -27.5 -229.5t-73.5 -177t-106 -122t-124.5 -73.5t-129.5 -23q-92 0 -168.5 53.5t-87.5 114.5q-49 -81 -135 -122.5t-184 -41.5q-195 0 -326 127.5t-131 335.5 q0 163 75 302t200 218.5t270 79.5q105 0 186 -56.5t98 -140.5l13 90l211 -45l-72 -465q-4 -24 -6 -40t-2 -41t5 -40t18.5 -26.5t35.5 -11.5q27 0 55.5 19.5t56 57t45 105.5t17.5 154q0 125 -50.5 240t-137.5 200.5t-211 136.5t-264 51q-145 0 -274 -62t-220 -165.5 t-144 -242t-53 -287.5q0 -209 89.5 -367t246 -241t355.5 -83q70 0 152 23.5t143 56.5l120 -250q-83 -57 -194 -88.5t-219 -31.5q-205 0 -384.5 71t-311 197t-207.5 311.5t-76 403.5zM748 504q0 -85 45.5 -129.5t128.5 -44.5q90 0 165.5 85t79.5 203q10 99 -34.5 150 t-122.5 51q-102 0 -182 -91.5t-80 -223.5z" />
<glyph unicode="A" d="M37 0l575 1509h355l575 -1509h-342l-100 268h-621l-100 -268h-342zM582 559h415l-206 549z" />
<glyph unicode="B" horiz-adv-x="1413" d="M121 0v1511h618q220 0 352 -106t132 -305v-4q0 -96 -40.5 -175t-107.5 -114q110 -33 180 -139q66 -100 66 -229v-15v-4q0 -218 -135 -319t-398 -101h-667zM446 291h334q135 0 184.5 42t49.5 138v4q0 90 -51 129t-156 39h-361v-352zM446 936h357q54 0 83 35t29 100v2 q0 67 -40.5 106.5t-116.5 39.5h-312v-283z" />
<glyph unicode="C" horiz-adv-x="1570" d="M96 752v6q0 125 28.5 238.5t88 211t145 169t206.5 112.5t265 41q142 0 261 -37t202.5 -102.5t137.5 -153t75 -190.5l-325 -80q-49 129 -132 200.5t-221 71.5q-171 0 -270.5 -132.5t-99.5 -346.5v-6q0 -214 100 -348t274 -134q75 0 134.5 19.5t100.5 56.5t67.5 78t48.5 96 l317 -65q-50 -210 -224.5 -343.5t-445.5 -133.5q-179 0 -321 62.5t-230.5 170t-135 245.5t-46.5 294z" />
<glyph unicode="D" horiz-adv-x="1529" d="M121 0v1511h608q151 0 270.5 -38t200.5 -104.5t134.5 -162t77.5 -206t24 -240.5v-6q0 -125 -23.5 -234.5t-77.5 -206t-134.5 -165.5t-201 -108.5t-270.5 -39.5h-608zM446 291h269q208 0 300.5 118t92.5 343v4q0 238 -92 350.5t-305 112.5h-265v-928z" />
<glyph unicode="E" horiz-adv-x="1228" d="M121 0v1511h1012v-292h-687v-279h543v-291h-543v-358h687v-291h-1012z" />
<glyph unicode="F" horiz-adv-x="1208" d="M121 0v1511h1009v-292h-686v-285h555v-291h-555v-643h-323z" />
<glyph unicode="G" horiz-adv-x="1636" d="M76 758v4q0 121 31 234t96.5 213.5t157.5 175t223.5 118t285.5 43.5q191 0 347 -74.5t245 -177.5l-194 -237q-179 170 -396 170q-205 0 -320.5 -129t-115.5 -332v-6q0 -133 49 -242t151.5 -177.5t242.5 -68.5q255 0 342 144l-4 180h-246v260h567v-856h-309l-2 109 q-178 -148 -416 -148q-143 0 -264.5 44.5t-207 121t-146 178.5t-89 217t-28.5 236z" />
<glyph unicode="H" horiz-adv-x="1484" d="M121 0v1511h328v-571h589v571h328v-1511h-328v647h-589v-647h-328z" />
<glyph unicode="I" horiz-adv-x="598" d="M135 0v1511h328v-1511h-328z" />
<glyph unicode="J" horiz-adv-x="1056" d="M41 121l149 258q56 -55 117 -82t109 -27q113 0 163 67.5t50 211.5v962h327v-972q0 -291 -133 -424q-150 -150 -387 -150q-106 0 -219.5 45.5t-175.5 110.5z" />
<glyph unicode="K" horiz-adv-x="1443" d="M104 0v1511h326v-600l533 600h376l-555 -641l623 -870h-371l-456 635l-150 -172v-463h-326z" />
<glyph unicode="L" horiz-adv-x="1280" d="M145 0v1511h326v-1220h705v-291h-1031z" />
<glyph unicode="M" horiz-adv-x="1796" d="M121 0v1511h346l432 -1024l432 1024h344v-1511h-323v850l-361 -850h-186l-361 850v-850h-323z" />
<glyph unicode="N" horiz-adv-x="1515" d="M121 0v1511h280l668 -944v944h326v-1511h-265l-684 961v-961h-325z" />
<glyph unicode="O" horiz-adv-x="1718" d="M90 752v2q0 218 98 398t273.5 285t392.5 105q167 0 311.5 -60.5t246 -165.5t159 -249.5t57.5 -308.5v-6q0 -164 -57.5 -308.5t-159 -248.5t-246 -164t-311.5 -60q-163 0 -305 59.5t-242.5 162.5t-158.5 248t-58 311zM428 748q0 -204 122 -336.5t304 -132.5 q199 0 319.5 130t120.5 339v10q0 198 -123 330.5t-321 132.5q-181 0 -301.5 -133t-120.5 -330v-10z" />
<glyph unicode="P" horiz-adv-x="1374" d="M121 0v1511h596q285 0 426 -137t141 -381v-4q0 -251 -145.5 -386.5t-427.5 -135.5h-265v-467h-325zM446 758h240q146 0 212.5 49.5t66.5 179.5v4q0 127 -66.5 177.5t-210.5 50.5h-242v-461z" />
<glyph unicode="Q" horiz-adv-x="1771" d="M104 754v2q0 218 97.5 397.5t273 284t393.5 104.5q167 0 311 -58t245.5 -159.5t159.5 -244t58 -306.5v-6q0 -271 -157 -477l139 -141l-207 -205l-153 153q-165 -95 -367 -98h-29q-218 0 -392 94.5t-273 267.5t-99 392zM446 770q0 -204 121.5 -332.5t304.5 -128.5 q83 0 156 25l-184 184l207 207l202 -205q60 108 60 248v10q0 198 -123.5 329.5t-321.5 131.5q-181 0 -301.5 -131t-120.5 -328v-10z" />
<glyph unicode="R" horiz-adv-x="1456" d="M121 0v1511h635q148 0 259 -38t176.5 -107t97.5 -158t32 -198v-2q0 -184 -78.5 -307.5t-236.5 -176.5l360 -524h-371l-323 485h-226v-485h-325zM446 776h293q151 0 216 53.5t65 176.5v2q0 99 -67 155t-210 56h-297v-443z" />
<glyph unicode="S" horiz-adv-x="1284" d="M51 178l152 264q127 -99 228.5 -137.5t215.5 -38.5q93 0 158 38.5t65 98.5v5q0 39 -15.5 64.5t-74 62.5t-180.5 90q-85 38 -144 68t-114.5 65.5t-90 70t-61 78t-38 93.5t-11.5 112v4q0 124 71 221.5t189.5 150t260.5 52.5q133 0 259.5 -44.5t217.5 -115.5l-135 -256 q-188 121 -347 121q-63 0 -118.5 -29.5t-55.5 -87.5v-4q0 -52 46.5 -89.5t181.5 -94.5q278 -123 381.5 -231.5t103.5 -284.5v-2q0 -191 -159 -323t-394 -132q-168 0 -322.5 53.5t-269.5 157.5z" />
<glyph unicode="T" horiz-adv-x="1314" d="M47 1219v292h1204v-292h-430v-1219h-327v1219h-447z" />
<glyph unicode="U" horiz-adv-x="1523" d="M121 594v917h328v-852q0 -385 315 -385q167 0 239 94.5t72 288.5v854h328v-917q0 -154 -47.5 -272t-133.5 -192t-202 -111t-258 -37q-135 0 -249 37t-203 109.5t-139 192t-50 273.5z" />
<glyph unicode="V" horiz-adv-x="1576" d="M70 1511h366l361 -1028l362 1028h365l-578 -1519h-299z" />
<glyph unicode="W" horiz-adv-x="2129" d="M37 1511h375l260 -927l266 929h254l268 -931l260 929h373l-475 -1519h-289l-264 913l-264 -913h-287z" />
<glyph unicode="X" horiz-adv-x="1587" d="M68 0l481 766l-465 745h391l320 -530l315 530h393l-465 -745l482 -766h-390l-335 551l-336 -551h-391z" />
<glyph unicode="Y" horiz-adv-x="1458" d="M82 1511h352l297 -583l295 583h350l-481 -921v-590h-328v590z" />
<glyph unicode="Z" horiz-adv-x="1292" d="M94 0v193l658 1026h-629v292h1073v-192l-655 -1028h651v-291h-1098z" />
<glyph unicode="[" horiz-adv-x="884" d="M131 -221v1749h655v-289h-358v-1171h358v-289h-655z" />
<glyph unicode="\" horiz-adv-x="1257" d="M29 1710h327l877 -1878h-326z" />
<glyph unicode="]" horiz-adv-x="884" d="M98 68h359v1171h-359v289h656v-1749h-656v289z" />
<glyph unicode="^" horiz-adv-x="1294" d="M117 838l456 612h150l457 -612h-349l-184 233l-184 -233h-346z" />
<glyph unicode="_" horiz-adv-x="1273" d="M39 39h1196v-291h-1196v291z" />
<glyph unicode="`" horiz-adv-x="1069" d="M248 1602h246l159 -269h-233z" />
<glyph unicode="a" horiz-adv-x="1372" d="M76 551v2q0 248 151 410.5t396 162.5q216 0 327 -149v127h305v-1104h-305v131q-112 -151 -327 -151q-245 0 -396 160.5t-151 410.5zM387 551q0 -122 78.5 -200.5t191.5 -78.5q118 0 193.5 77.5t75.5 201.5v4q0 122 -77.5 201.5t-195.5 79.5q-112 0 -189 -79t-77 -202v-4z " />
<glyph unicode="b" horiz-adv-x="1357" d="M111 0v1524h305v-563q111 165 336 165q162 0 287.5 -73.5t193 -203t67.5 -292.5v-4q0 -163 -67 -293t-192.5 -205t-288.5 -75q-223 0 -336 165v-145h-305zM451 551q0 -122 78.5 -200.5t193.5 -78.5q118 0 193 77.5t75 201.5v4q0 123 -77.5 202t-194.5 79q-114 0 -191 -79 t-77 -202v-4z" />
<glyph unicode="c" horiz-adv-x="1247" d="M86 551v2q0 246 159 409.5t406 163.5q187 0 319 -99t191 -267l-268 -109q-72 185 -242 185q-114 0 -184 -78t-70 -203v-4q0 -124 72 -201.5t186 -77.5q98 0 159.5 55t82.5 136l272 -90q-48 -181 -184.5 -287t-333.5 -106q-247 0 -406 161.5t-159 409.5z" />
<glyph unicode="d" horiz-adv-x="1382" d="M72 553v4q0 121 39.5 226t110.5 181t174 119t225 43q230 0 340 -172v570h305v-1524h-305v152q-114 -172 -340 -172q-163 0 -288.5 75t-193 205t-67.5 293zM383 551q0 -124 75 -201.5t193 -77.5q115 0 193 78t78 201v4q0 123 -77.5 202t-191.5 79q-117 0 -193.5 -79 t-76.5 -202v-4z" />
<glyph unicode="e" horiz-adv-x="1243" d="M74 551v2q0 161 71 292t197.5 206t282.5 75q109 0 200.5 -32t153.5 -86t106 -125.5t64 -149.5t20 -158v-96h-778q15 -110 83.5 -173.5t182.5 -63.5q83 0 145 42t99 115l234 -123q-165 -296 -496 -296q-163 0 -292.5 74t-201 204.5t-71.5 292.5zM395 659h477q0 23 -6.5 48 t-23 53.5t-42 51t-68 37.5t-95.5 15q-101 0 -160.5 -56t-81.5 -149z" />
<glyph unicode="f" horiz-adv-x="815" d="M39 817v287h143v117q0 154 86 240.5t232 86.5q163 0 245 -41v-239q-67 28 -155 28q-98 0 -98 -88v-104h253v-287h-253v-817h-310v817h-143z" />
<glyph unicode="g" horiz-adv-x="1312" d="M92 580v2q0 243 147.5 393.5t381.5 150.5q98 0 185 -49.5t109 -105.5v133h306v-1022q0 -117 -42 -218.5t-117.5 -176t-188 -117.5t-246.5 -43q-173 0 -321.5 87.5t-207.5 213.5l191 164q50 -85 142.5 -144t193.5 -59q127 0 208.5 68.5t81.5 179.5v170q-43 -66 -136 -110 t-191 -44q-210 0 -353 148.5t-143 378.5zM391 588q0 -122 78.5 -201.5t189.5 -79.5q116 0 190.5 76.5t74.5 204.5v4q0 126 -77 203t-192 77q-111 0 -187.5 -79t-76.5 -201v-4z" />
<glyph unicode="h" horiz-adv-x="1220" d="M117 0v1524h305v-559q50 73 135.5 117t169.5 44q215 0 311.5 -125t96.5 -360v-641h-306v588q0 248 -196 248q-70 0 -128 -44t-83 -114v-678h-305z" />
<glyph unicode="i" horiz-adv-x="561" d="M117 1386q0 65 47.5 114.5t116.5 49.5q68 0 115.5 -50t47.5 -114q0 -69 -47.5 -117t-115.5 -48q-69 0 -116.5 48t-47.5 117zM123 0v1104h305v-1104h-305z" />
<glyph unicode="j" horiz-adv-x="542" d="M-72 -178q53 -17 105 -17q39 0 63.5 27t24.5 80v1192h307v-1221q0 -154 -84.5 -240.5t-224.5 -86.5q-122 0 -191 26v240zM111 1386q0 65 46.5 114.5t116.5 49.5q67 0 114.5 -49.5t47.5 -114.5q0 -69 -47 -117t-115 -48q-69 0 -116 48t-47 117z" />
<glyph unicode="k" horiz-adv-x="1183" d="M104 0v1524h306v-817l331 397h359l-412 -488l475 -616h-350l-305 403l-98 -120v-283h-306z" />
<glyph unicode="l" horiz-adv-x="571" d="M133 0v1524h305v-1524h-305z" />
<glyph unicode="m" horiz-adv-x="1828" d="M113 0v1104h305v-137q19 48 108 103.5t172 55.5q220 0 306 -157q133 157 319 157q406 0 406 -487v-639h-306v635q0 102 -46.5 151.5t-121.5 49.5q-122 0 -188 -113q0 -13 1 -40t1 -42v-641h-305v639q0 197 -160 197q-69 0 -121 -43t-65 -113v-680h-305z" />
<glyph unicode="n" horiz-adv-x="1220" d="M113 0v1104h305v-129q41 67 121.5 108t154.5 41q432 0 432 -483v-641h-305v618q0 105 -47.5 159t-132.5 54q-169 0 -223 -172v-659h-305z" />
<glyph unicode="o" horiz-adv-x="1312" d="M80 551v2q0 245 163.5 409t411.5 164q164 0 296 -73.5t207 -203.5t75 -292v-4q0 -162 -74.5 -293t-206.5 -205.5t-297 -74.5q-248 0 -411.5 162t-163.5 409zM387 551q0 -122 78.5 -200.5t191.5 -78.5q118 0 193.5 77.5t75.5 201.5v4q0 122 -77.5 201.5t-195.5 79.5 q-112 0 -189 -79t-77 -202v-4z" />
<glyph unicode="p" horiz-adv-x="1380" d="M111 -471v1575h305v-146q112 166 336 166q163 0 288.5 -75t192.5 -205t67 -293v-4q0 -162 -67.5 -291.5t-193 -204t-287.5 -74.5q-223 0 -336 168v-616h-305zM451 549q0 -123 77 -202t191 -79q117 0 194.5 79t77.5 202v4q0 124 -75 201t-193 77q-115 0 -193.5 -78 t-78.5 -200v-4z" />
<glyph unicode="q" horiz-adv-x="1357" d="M78 547v4q0 163 67.5 293t193 205t288.5 75q227 0 336 -166v146h305v-1575h-305v616q-110 -168 -336 -168q-162 0 -288 74.5t-193.5 204t-67.5 291.5zM389 549q0 -122 77.5 -201.5t195.5 -79.5q112 0 189 79t77 202v4q0 122 -79 200t-192 78q-118 0 -193 -77t-75 -201v-4 z" />
<glyph unicode="r" horiz-adv-x="862" d="M113 0v1104h305v-195q118 209 364 209v-293h-37q-82 0 -157 -33.5t-122.5 -96t-47.5 -138.5v-557h-305z" />
<glyph unicode="s" horiz-adv-x="1038" d="M57 154l123 215q74 -67 164 -109t182 -43h12q66 -1 106 19q44 22 44 63q0 28 -26 49.5t-82 44.5q-261 96 -351.5 176t-91.5 222q3 147 125 243q118 92 296 92h15q207 -5 369 -139l-86 -239q-46 38 -137.5 79t-149.5 41h-11q-44 0 -76 -14q-36 -16 -36 -55q0 -37 33.5 -61 t112.5 -58q167 -72 222 -105q127 -76 156 -184q10 -36 11 -78q-2 -157 -124.5 -253t-328.5 -97q-153 0 -280 59.5t-191 131.5z" />
<glyph unicode="t" horiz-adv-x="886" d="M70 817v287h135v295h305v-295h295v-287h-295v-434q0 -59 31 -92t86 -33q89 0 178 29v-252q-46 -27 -119 -43.5t-141 -16.5q-162 0 -251 87t-89 260v495h-135z" />
<glyph unicode="u" horiz-adv-x="1224" d="M94 541v563h303v-531q0 -168 54 -235.5t165 -67.5t160 66.5t49 236.5v531h305v-563q0 -142 -39 -250.5t-110 -175.5t-165 -100t-208 -33q-234 0 -374 139.5t-140 419.5z" />
<glyph unicode="v" horiz-adv-x="1226" d="M53 1104h334l229 -666l228 666h330l-437 -1110h-243z" />
<glyph unicode="w" horiz-adv-x="1615" d="M33 1104h305l176 -629l168 635h254l158 -635l186 629h303l-354 -1110h-246l-176 624l-178 -624h-242z" />
<glyph unicode="x" horiz-adv-x="1271" d="M63 0l404 600l-338 504h338l170 -244l168 244h338l-338 -504l403 -600h-340l-231 340l-234 -340h-340z" />
<glyph unicode="y" horiz-adv-x="1300" d="M68 -203l192 164q46 -77 133.5 -124.5t186.5 -47.5q121 0 197.5 68t76.5 180v69q-87 -75 -223 -75q-111 0 -203.5 33.5t-162.5 99.5t-109 175t-39 251v514h305v-475q0 -169 55 -239.5t162 -70.5t157.5 57t57.5 199v529h305v-1022q0 -117 -40.5 -218.5t-114 -176 t-182.5 -117.5t-240 -43q-171 0 -314 75t-200 195z" />
<glyph unicode="z" horiz-adv-x="1083" d="M96 0v193l455 624h-432v287h850v-191l-455 -624h457v-289h-875z" />
<glyph unicode="{" horiz-adv-x="1009" d="M80 487v289h129q49 0 82 31t33 82v160q0 54 2.5 91t14 88.5t32.5 87t61 76t96 67.5t141 49.5t193 33.5l56 -268q-63 -5 -112 -17.5t-93.5 -37t-69 -67.5t-24.5 -103v-177q0 -74 -34 -142.5t-93 -96.5q59 -30 93 -98t34 -144v-178q0 -53 23 -92t68 -64t92.5 -40t115.5 -27 l-56 -269q-85 8 -155 23.5t-122 34t-93 45.5t-68.5 53t-47 61.5t-30 64.5t-16 69.5t-7 70t-1.5 70.5v162q0 51 -33 81.5t-82 30.5h-129z" />
<glyph unicode="|" horiz-adv-x="571" d="M139 -217v1829h293v-1829h-293z" />
<glyph unicode="}" horiz-adv-x="993" d="M74 -10q68 12 115.5 27t92.5 40t68 64t23 92v178q0 76 34.5 144t94.5 98q-60 28 -94.5 96t-34.5 143v177q0 60 -24 103t-68.5 67.5t-94 37t-112.5 17.5l55 268q85 -8 155.5 -23.5t122.5 -34.5t93 -46.5t68.5 -53t47 -61t30 -64.5t16 -69.5t7 -69.5t1.5 -71v-160 q0 -51 33.5 -82t80.5 -31h129v-289h-129q-48 0 -81 -30.5t-33 -81.5v-162q0 -42 -1.5 -71t-7 -69.5t-16 -69.5t-30 -64.5t-47 -61.5t-68.5 -53t-93 -45.5t-122.5 -34t-155.5 -23.5z" />
<glyph unicode="~" horiz-adv-x="1155" d="M82 457q4 88 31.5 158t70 111.5t90.5 63t97 21.5q69 0 155 -29.5t154.5 -59.5t95.5 -30q72 4 98 164l218 -53q-4 -87 -31.5 -156.5t-67 -109.5t-81 -61t-78.5 -21q-65 0 -126.5 19t-100.5 41.5t-92 40t-105 15.5q-43 -2 -70 -38t-41 -125z" />
<glyph unicode="&#xa1;" horiz-adv-x="544" d="M113 1370q0 70 49.5 120t120.5 50t120.5 -50t49.5 -120q0 -69 -49.5 -121.5t-120.5 -52.5q-72 0 -121 52.5t-49 121.5zM137 12v561l10 494h273l10 -494v-561h-293z" />
<glyph unicode="&#xa2;" horiz-adv-x="1259" d="M96 702v3q0 223 134.5 382t349.5 187v215h143v-213q164 -17 279 -114t169 -251l-280 -88q-23 56 -66 97.5t-102 58.5v-549q137 26 174 176l283 -71q-44 -166 -163.5 -274t-293.5 -126v-229h-143v231q-216 28 -350 184t-134 381zM408 702q0 -102 44.5 -172.5t127.5 -95.5 v543q-83 -23 -127.5 -94.5t-44.5 -175.5v-5z" />
<glyph unicode="&#xa3;" horiz-adv-x="1271" d="M111 0v268l153 15v258h-153v290h153v70q0 272 152 424q132 135 340 135q306 0 448 -295l-256 -147q-68 151 -194 151q-46 0 -75 -11t-56 -38q-64 -68 -64 -213v-76h510v-290h-510v-250h635v-291h-1083z" />
<glyph unicode="&#xa4;" horiz-adv-x="1202" d="M72 528q0 223 155 375q153 156 375 156q220 0 373 -156q149 -149 155 -360v-15q0 -4 -1 -12.5t-1 -13.5q-6 -202 -153 -346q-153 -156 -373 -156q-222 0 -375 156q-155 152 -155 372zM391 530q0 -89 62 -151q65 -62 149 -62q90 0 152 62q61 61 61 151q0 87 -61 148 q-60 63 -152 63q-86 0 -149 -63q-62 -62 -62 -148z" />
<glyph unicode="&#xa5;" horiz-adv-x="1308" d="M-82 1446h367l372 -606l371 606h356l-434 -711h199v-211h-346v-110h346v-209h-346v-205h-295v205h-348v209h348v110h-348v211h237z" />
<glyph unicode="&#xa6;" horiz-adv-x="571" d="M139 -217v649h293v-649h-293zM139 963v649h293v-649h-293z" />
<glyph unicode="&#xa7;" horiz-adv-x="1058" d="M106 788q0 66 40 129t112 109q-129 97 -129 240q0 137 118 222t304 85q195 0 393 -98l-108 -238q-165 92 -289 92q-113 0 -113 -63q0 -41 43.5 -71.5t136.5 -66.5q177 -69 259.5 -154.5t82.5 -191.5q0 -152 -139 -260q121 -98 121 -235q0 -154 -125 -247t-332 -93 q-199 0 -370 92v283q68 -52 181 -90.5t191 -38.5q148 0 148 88q0 42 -37 67q-41 32 -139 70q-190 83 -269.5 167t-79.5 203zM410 815q0 -30 11.5 -48.5t41.5 -39.5q53 -39 137 -80q55 38 55 94q0 53 -41.5 88.5t-140.5 75.5q-28 -13 -45.5 -36.5t-17.5 -53.5z" />
<glyph unicode="&#xa8;" horiz-adv-x="1069" d="M238 1430q0 49 36 86.5t88 37.5q51 0 87 -37.5t36 -86.5q0 -52 -36 -88.5t-87 -36.5q-52 0 -88 36t-36 89zM635 1430q0 49 36 86.5t87 37.5q53 0 89 -37.5t36 -86.5q0 -52 -36.5 -88.5t-88.5 -36.5q-51 0 -87 36.5t-36 88.5z" />
<glyph unicode="&#xa9;" horiz-adv-x="1744" d="M104 752v6q0 208 102.5 383.5t279.5 278t386 102.5t386 -102.5t279.5 -278t102.5 -383.5v-6q0 -209 -102.5 -384.5t-279 -277.5t-386.5 -102t-386.5 102t-279 277.5t-102.5 384.5zM348 752q0 -138 71 -258.5t192 -191.5t261 -71q105 0 202 42t167.5 112.5t113 167 t42.5 199.5v6q0 139 -71.5 259t-192.5 190.5t-261 70.5t-261 -70.5t-192 -190.5t-71 -259v-6zM541 752v2q0 149 96.5 249.5t247.5 100.5q177 0 276 -150l-147 -98q-47 74 -133 74q-72 0 -114 -49.5t-42 -126.5v-2q0 -78 43.5 -128.5t114.5 -50.5q47 0 76.5 22t58.5 60 l158 -77q-42 -83 -116.5 -133t-176.5 -50q-149 0 -245.5 102.5t-96.5 254.5z" />
<glyph unicode="&#xaa;" horiz-adv-x="876" d="M90 1180v2q0 141 94 235t226 94q112 0 198 -67v47h144v-631h-144v58q-90 -64 -194 -64q-131 0 -227.5 92.5t-96.5 233.5zM100 539v184h676v-184h-676zM264 1178q0 -69 45.5 -114.5t108.5 -45.5q74 0 119 45t45 119v2q0 71 -47 117.5t-119 46.5q-61 0 -106.5 -47.5 t-45.5 -118.5v-4z" />
<glyph unicode="&#xab;" horiz-adv-x="1413" d="M82 508v106l412 478l215 -179l-291 -352l291 -352l-215 -180zM696 508v106l412 478l217 -179l-293 -352l293 -352l-217 -180z" />
<glyph unicode="&#xad;" horiz-adv-x="901" d="M109 575v293h677v-293h-677z" />
<glyph unicode="&#xae;" horiz-adv-x="1744" d="M104 752v6q0 208 102.5 383.5t279.5 278t386 102.5t386 -102.5t279.5 -278t102.5 -383.5v-6q0 -209 -102.5 -384.5t-279 -277.5t-386.5 -102t-386.5 102t-279 277.5t-102.5 384.5zM348 752q0 -138 71 -258.5t192 -191.5t261 -71q105 0 202 42t167.5 112.5t113 167 t42.5 199.5v6q0 139 -71.5 259t-192.5 190.5t-261 70.5t-261 -70.5t-192 -190.5t-71 -259v-6zM610 426v670h293q125 0 192.5 -64t67.5 -162v-2q0 -142 -135 -198l172 -244h-196l-146 215h-78v-215h-170zM780 793h115q58 0 83.5 18t25.5 55v2q0 76 -107 76h-117v-151z" />
<glyph unicode="&#xaf;" horiz-adv-x="1069" d="M258 1321v203h553v-203h-553z" />
<glyph unicode="&#xb0;" horiz-adv-x="940" d="M92 1153v4q0 145 108 248.5t255 103.5t253.5 -103t106.5 -249v-4q0 -147 -106.5 -249.5t-253.5 -102.5q-148 0 -255.5 103t-107.5 249zM311 1153q0 -59 42 -100t102 -41q59 0 101 41.5t42 99.5v4q0 58 -42 99.5t-101 41.5q-60 0 -102 -41t-42 -100v-4z" />
<glyph unicode="&#xb1;" horiz-adv-x="1359" d="M94 10h1196v-289h-1196v289zM209 551v287h336v356h291v-356h338v-287h-338v-356h-291v356h-336z" />
<glyph unicode="&#xb4;" horiz-adv-x="1069" d="M420 1335l160 269h243l-172 -269h-231z" />
<glyph unicode="&#xb6;" horiz-adv-x="1071" d="M152 956v5q0 112 44 204t120 153t177.5 94.5t217.5 33.5h211v-1446h-232v473h-37q-144 8 -256 65t-178.5 165t-66.5 253z" />
<glyph unicode="&#xb7;" horiz-adv-x="380" d="M31 451v346h319v-346h-319z" />
<glyph unicode="&#xb8;" horiz-adv-x="1069" d="M293 -287q68 -10 116.5 -3t75.5 22t27 32q0 18 -9.5 26t-45 13.5t-121.5 10.5l45 196h147l-12 -69q146 -34 146 -177q0 -100 -92 -155t-244 -45z" />
<glyph unicode="&#xba;" horiz-adv-x="876" d="M104 539v184h672v-184h-672zM109 1178v2q0 137 92.5 234t238.5 97q143 0 235.5 -97t92.5 -234v-2q0 -139 -88.5 -236.5t-241.5 -97.5q-154 0 -241.5 96.5t-87.5 237.5zM287 1174q0 -66 42.5 -110t104.5 -44q70 0 113 44t43 114v2q0 68 -44 111.5t-114 43.5 q-60 0 -102.5 -44.5t-42.5 -112.5v-4z" />
<glyph unicode="&#xbb;" horiz-adv-x="1413" d="M88 209l291 352l-291 352l217 179l410 -478v-106l-410 -479zM702 209l293 352l-293 352l218 179l411 -478v-106l-411 -479z" />
<glyph unicode="&#xbc;" horiz-adv-x="1888" d="M72 1364l344 133h176v-956h-256v686l-213 -84zM324 -53l923 1575h332l-924 -1575h-331zM1055 168v205l438 592h217v-557h98v-240h-98v-168h-248v168h-407zM1313 408h149v215z" />
<glyph unicode="&#xbd;" horiz-adv-x="2078" d="M84 1364l342 133h176v-956h-256v686l-211 -84zM360 -53l924 1575h332l-924 -1575h-332zM1260 668q20 59 52 110.5t77 95t106 68.5t131 25q131 0 222 -84t91 -201v-2q0 -70 -31 -142t-118 -165l-119 -131h279v-242h-656v158l332 379q43 51 56.5 79t13.5 58q0 23 -18 38 t-54 15q-44 0 -81.5 -42.5t-76.5 -125.5z" />
<glyph unicode="&#xbe;" horiz-adv-x="2062" d="M113 711l186 147q37 -53 69.5 -73.5t82.5 -20.5q52 0 82 29t30 71v17q0 53 -37 83.5t-106 20.5l-72 -14l-65 112l168 177h-281v237h596v-168l-162 -178q91 -33 146 -111.5t55 -179.5v-6q0 -142 -105 -236t-251 -94q-228 0 -336 187zM444 -53l924 1575h332l-924 -1575 h-332zM1212 168v205l439 592h217v-557h98v-240h-98v-168h-248v168h-408zM1468 408h152v215z" />
<glyph unicode="&#xbf;" horiz-adv-x="1067" d="M12 418v4q0 88 31.5 163t84.5 126t116.5 84t134.5 47l10 151h266l19 -317l-80 -80q-77 14 -131.5 5.5t-89.5 -37.5t-51.5 -65t-16.5 -75v-4q0 -66 52 -111t132 -45q90 0 165 54.5t114 125.5l186 -202q-91 -134 -199 -201.5t-268 -67.5q-135 0 -244.5 60t-170 161.5 t-60.5 223.5zM352 1346q0 70 50.5 120t119.5 50q71 0 121.5 -50t50.5 -120q0 -69 -50 -122t-122 -53q-71 0 -120.5 53t-49.5 122z" />
<glyph unicode="&#xc0;" d="M37 0l575 1509h355l575 -1509h-342l-100 268h-621l-100 -268h-342zM483 1948h244l160 -269h-232zM582 559h415l-206 549z" />
<glyph unicode="&#xc1;" d="M37 0l575 1509h355l575 -1509h-342l-100 268h-621l-100 -268h-342zM582 559h415l-206 549zM633 1745l160 268h243l-172 -268h-231z" />
<glyph unicode="&#xc2;" d="M37 0l575 1509h355l575 -1509h-342l-100 268h-621l-100 -268h-342zM506 1722l192 226h174l197 -226h-186l-99 113l-94 -113h-184zM582 559h415l-206 549z" />
<glyph unicode="&#xc3;" d="M37 0l575 1509h355l575 -1509h-342l-100 268h-621l-100 -268h-342zM485 1686q-27 93 32.5 169t152.5 76q41 0 93 -26.5t96 -53t67 -26.5q38 0 59 26t2 70h123q24 -95 -33.5 -167.5t-152.5 -72.5q-38 0 -94.5 26.5t-105.5 52.5t-71 26q-34 0 -48.5 -26.5t-8.5 -73.5h-111z M582 559h415l-206 549z" />
<glyph unicode="&#xc4;" d="M37 0l575 1509h355l575 -1509h-342l-100 268h-621l-100 -268h-342zM471 1839q0 47 33.5 83t83.5 36q48 0 81 -36t33 -83t-34 -81t-80 -34q-49 0 -83 33.5t-34 81.5zM582 559h415l-206 549zM883 1839q0 47 34 83t82 36q49 0 82 -36t33 -83t-34 -81t-81 -34t-81.5 34 t-34.5 81z" />
<glyph unicode="&#xc5;" d="M37 0l575 1509h355l575 -1509h-342l-100 268h-621l-100 -268h-342zM582 559h415l-206 549zM596 1798q0 77 59 136t138 59q75 0 134.5 -59.5t59.5 -135.5t-59.5 -136t-134.5 -60q-79 0 -138 59.5t-59 136.5zM737 1802q0 -25 16.5 -42t39.5 -17q21 0 37 17.5t16 41.5 q0 20 -16.5 36.5t-36.5 16.5q-23 0 -39.5 -16t-16.5 -37z" />
<glyph unicode="&#xc6;" horiz-adv-x="2177" d="M70 0l819 1528h1100v-293h-711v-279h653v-290h-653v-375h754v-291h-1102v289h-348l-148 -289h-364zM705 547h231v442z" />
<glyph unicode="&#xc7;" horiz-adv-x="1570" d="M96 752v6q0 125 28.5 238.5t88 211t145 169t206.5 112.5t265 41q142 0 261 -37t202.5 -102.5t137.5 -153t75 -190.5l-325 -80q-49 129 -132 200.5t-221 71.5q-171 0 -270.5 -132.5t-99.5 -346.5v-6q0 -214 100 -348t274 -134q75 0 134.5 19.5t100.5 56.5t67.5 78t48.5 96 l317 -65q-23 -98 -76 -182t-132 -148.5t-190 -102.5t-243 -42l-6 -41q145 -34 145 -177q0 -100 -91.5 -155t-243.5 -45l-33 149q68 -10 116.5 -3t75.5 22t27 32q0 18 -9.5 26t-45 13.5t-121.5 10.5l39 174q-150 19 -269 88.5t-193.5 173.5t-113.5 231.5t-39 270.5z" />
<glyph unicode="&#xc8;" horiz-adv-x="1228" d="M121 0v1511h1012v-292h-687v-279h543v-291h-543v-358h687v-291h-1012zM317 1948h244l160 -269h-232z" />
<glyph unicode="&#xc9;" horiz-adv-x="1228" d="M121 0v1511h1012v-292h-687v-279h543v-291h-543v-358h687v-291h-1012zM467 1745l160 268h243l-172 -268h-231z" />
<glyph unicode="&#xca;" horiz-adv-x="1228" d="M121 0v1511h1012v-292h-687v-279h543v-291h-543v-358h687v-291h-1012zM340 1722l192 226h175l196 -226h-186l-99 113l-94 -113h-184z" />
<glyph unicode="&#xcb;" horiz-adv-x="1228" d="M121 0v1511h1012v-292h-687v-279h543v-291h-543v-358h687v-291h-1012zM305 1839q0 47 33.5 83t83.5 36q48 0 81.5 -36t33.5 -83t-34.5 -81t-80.5 -34q-49 0 -83 33.5t-34 81.5zM717 1839q0 47 34.5 83t82.5 36q49 0 81.5 -35.5t32.5 -83.5q0 -47 -33.5 -81t-80.5 -34 t-82 34t-35 81z" />
<glyph unicode="&#xcc;" horiz-adv-x="598" d="M14 1948h244l160 -269h-232zM135 0v1511h328v-1511h-328z" />
<glyph unicode="&#xcd;" horiz-adv-x="598" d="M135 0v1511h328v-1511h-328zM150 1745l159 268h244l-172 -268h-231z" />
<glyph unicode="&#xce;" horiz-adv-x="598" d="M23 1722l192 226h174l197 -226h-187l-98 113l-94 -113h-184zM135 0v1511h328v-1511h-328z" />
<glyph unicode="&#xcf;" horiz-adv-x="598" d="M135 0v1511h328v-1511h-328zM166 1839q0 47 33.5 83t83.5 36q48 0 81 -36t33 -83t-34 -81t-80 -34q-49 0 -83 33.5t-34 81.5zM578 1839q0 47 34 83t82 36q49 0 82 -36t33 -83t-34 -81t-81 -34t-81.5 34t-34.5 81z" />
<glyph unicode="&#xd0;" horiz-adv-x="1529" d="M90 702v293h31v516h608q151 0 270.5 -38t200.5 -104.5t134.5 -162t77.5 -206t24 -240.5v-6q0 -125 -23.5 -234.5t-77.5 -206t-134.5 -165.5t-201 -108.5t-270.5 -39.5h-608v702h-31zM446 291h269q208 0 300.5 118t92.5 343v4q0 238 -92 350.5t-305 112.5h-265v-224h322 v-293h-322v-411z" />
<glyph unicode="&#xd1;" horiz-adv-x="1515" d="M121 0v1511h280l668 -944v944h326v-1511h-265l-684 961v-961h-325zM449 1686q-27 93 32 169t152 76q41 0 93 -26.5t96 -53t67 -26.5q38 0 59 26t2 70h123q24 -95 -33.5 -167.5t-152.5 -72.5q-38 0 -94.5 26.5t-105.5 52.5t-71 26q-34 0 -48.5 -26.5t-8.5 -73.5h-110z" />
<glyph unicode="&#xd2;" horiz-adv-x="1718" d="M90 752v2q0 218 98 398t273.5 285t392.5 105q167 0 311.5 -60.5t246 -165.5t159 -249.5t57.5 -308.5v-6q0 -164 -57.5 -308.5t-159 -248.5t-246 -164t-311.5 -60q-163 0 -305 59.5t-242.5 162.5t-158.5 248t-58 311zM428 748q0 -204 122 -336.5t304 -132.5 q199 0 319.5 130t120.5 339v10q0 198 -123 330.5t-321 132.5q-181 0 -301.5 -133t-120.5 -330v-10zM561 1948h244l160 -269h-232z" />
<glyph unicode="&#xd3;" horiz-adv-x="1718" d="M90 752v2q0 218 98 398t273.5 285t392.5 105q167 0 311.5 -60.5t246 -165.5t159 -249.5t57.5 -308.5v-6q0 -164 -57.5 -308.5t-159 -248.5t-246 -164t-311.5 -60q-163 0 -305 59.5t-242.5 162.5t-158.5 248t-58 311zM428 748q0 -204 122 -336.5t304 -132.5 q199 0 319.5 130t120.5 339v10q0 198 -123 330.5t-321 132.5q-181 0 -301.5 -133t-120.5 -330v-10zM711 1745l159 268h244l-172 -268h-231z" />
<glyph unicode="&#xd4;" horiz-adv-x="1718" d="M90 752v2q0 218 98 398t273.5 285t392.5 105q167 0 311.5 -60.5t246 -165.5t159 -249.5t57.5 -308.5v-6q0 -164 -57.5 -308.5t-159 -248.5t-246 -164t-311.5 -60q-163 0 -305 59.5t-242.5 162.5t-158.5 248t-58 311zM428 748q0 -204 122 -336.5t304 -132.5 q199 0 319.5 130t120.5 339v10q0 198 -123 330.5t-321 132.5q-181 0 -301.5 -133t-120.5 -330v-10zM582 1722l192 226h174l197 -226h-187l-98 113l-94 -113h-184z" />
<glyph unicode="&#xd5;" horiz-adv-x="1718" d="M90 752v2q0 218 98 398t273.5 285t392.5 105q167 0 311.5 -60.5t246 -165.5t159 -249.5t57.5 -308.5v-6q0 -164 -57.5 -308.5t-159 -248.5t-246 -164t-311.5 -60q-163 0 -305 59.5t-242.5 162.5t-158.5 248t-58 311zM428 748q0 -204 122 -336.5t304 -132.5 q199 0 319.5 130t120.5 339v10q0 198 -123 330.5t-321 132.5q-181 0 -301.5 -133t-120.5 -330v-10zM563 1686q-27 93 32.5 169t152.5 76q41 0 93 -26.5t96 -53t67 -26.5q38 0 59 26t2 70h123q24 -95 -34 -167.5t-153 -72.5q-38 0 -94 26.5t-105 52.5t-71 26 q-34 0 -48.5 -26.5t-8.5 -73.5h-111z" />
<glyph unicode="&#xd6;" horiz-adv-x="1718" d="M90 752v2q0 218 98 398t273.5 285t392.5 105q167 0 311.5 -60.5t246 -165.5t159 -249.5t57.5 -308.5v-6q0 -164 -57.5 -308.5t-159 -248.5t-246 -164t-311.5 -60q-163 0 -305 59.5t-242.5 162.5t-158.5 248t-58 311zM428 748q0 -204 122 -336.5t304 -132.5 q199 0 319.5 130t120.5 339v10q0 198 -123 330.5t-321 132.5q-181 0 -301.5 -133t-120.5 -330v-10zM549 1839q0 47 33.5 83t83.5 36q48 0 81 -36t33 -83t-34 -81t-80 -34q-49 0 -83 33.5t-34 81.5zM961 1839q0 47 34 83t82 36q49 0 82 -36t33 -83t-34 -81t-81 -34t-81.5 34 t-34.5 81z" />
<glyph unicode="&#xd7;" horiz-adv-x="1163" d="M78 395l293 293l-293 293l207 209l293 -293l299 299l208 -209l-299 -299l299 -299l-208 -207l-299 299l-293 -293z" />
<glyph unicode="&#xd8;" horiz-adv-x="1718" d="M90 752v2q0 218 98 398t273.5 285t392.5 105q118 0 227 -31l88 187h328l-151 -324q133 -107 207.5 -267t74.5 -349v-6q0 -164 -57.5 -308.5t-159 -248.5t-246 -164t-311.5 -60q-64 0 -156 15l-77 -166h-328l129 278q-155 103 -243.5 274t-88.5 380zM428 748 q0 -106 35.5 -196.5t99.5 -154.5l379 815q-43 9 -92 9q-181 0 -301.5 -133t-120.5 -330v-10zM836 279h18q199 0 319.5 130t120.5 339v10q0 173 -96 299z" />
<glyph unicode="&#xd9;" horiz-adv-x="1523" d="M121 594v917h328v-852q0 -385 315 -385q167 0 239 94.5t72 288.5v854h328v-917q0 -154 -47.5 -272t-133.5 -192t-202 -111t-258 -37q-135 0 -249 37t-203 109.5t-139 192t-50 273.5zM467 1948h244l159 -269h-231z" />
<glyph unicode="&#xda;" horiz-adv-x="1523" d="M121 594v917h328v-852q0 -385 315 -385q167 0 239 94.5t72 288.5v854h328v-917q0 -154 -47.5 -272t-133.5 -192t-202 -111t-258 -37q-135 0 -249 37t-203 109.5t-139 192t-50 273.5zM616 1745l160 268h244l-172 -268h-232z" />
<glyph unicode="&#xdb;" horiz-adv-x="1523" d="M121 594v917h328v-852q0 -385 315 -385q167 0 239 94.5t72 288.5v854h328v-917q0 -154 -47.5 -272t-133.5 -192t-202 -111t-258 -37q-135 0 -249 37t-203 109.5t-139 192t-50 273.5zM487 1722l193 226h174l197 -226h-187l-98 113l-94 -113h-185z" />
<glyph unicode="&#xdc;" horiz-adv-x="1523" d="M121 594v917h328v-852q0 -385 315 -385q167 0 239 94.5t72 288.5v854h328v-917q0 -154 -47.5 -272t-133.5 -192t-202 -111t-258 -37q-135 0 -249 37t-203 109.5t-139 192t-50 273.5zM455 1839q0 47 33 83t83 36q48 0 81.5 -36t33.5 -83t-34.5 -81t-80.5 -34 q-49 0 -82.5 33.5t-33.5 81.5zM866 1839q0 47 34.5 83t82.5 36q49 0 82 -36t33 -83t-34 -81t-81 -34t-82 34t-35 81z" />
<glyph unicode="&#xdd;" horiz-adv-x="1458" d="M82 1511h352l297 -583l295 583h350l-481 -921v-590h-328v590zM584 1745l159 268h244l-172 -268h-231z" />
<glyph unicode="&#xde;" horiz-adv-x="1269" d="M125 0v1528h311v-279h180q142 0 249 -35.5t172 -100.5t96.5 -150.5t31.5 -190.5v-4q0 -225 -139 -353t-416 -128h-174v-287h-311zM436 578h158q140 0 201 42.5t61 145.5v4q0 101 -60.5 143.5t-199.5 42.5h-160v-378z" />
<glyph unicode="&#xdf;" horiz-adv-x="1423" d="M123 -2v952q0 75 8.5 146t28 141.5t49.5 131t75.5 113.5t102.5 90t134 58t167 21q218 0 362 -123t144 -330q0 -88 -45 -168.5t-121 -130.5q137 -48 224 -172.5t87 -282.5q0 -261 -163.5 -419t-446.5 -158q-132 0 -242 55l62 279q23 -12 79 -26.5t103 -14.5 q154 0 229.5 74.5t75.5 209.5q0 131 -86 215.5t-229 75.5v269q83 0 126.5 45t43.5 122q0 80 -51.5 127t-137.5 50q-146 -4 -210 -104.5t-64 -299.5v-946h-305z" />
<glyph unicode="&#xe0;" horiz-adv-x="1372" d="M76 551v2q0 248 151 410.5t396 162.5q216 0 327 -149v127h305v-1104h-305v131q-112 -151 -327 -151q-245 0 -396 160.5t-151 410.5zM387 551q0 -122 78.5 -200.5t191.5 -78.5q118 0 193.5 77.5t75.5 201.5v4q0 122 -77.5 201.5t-195.5 79.5q-112 0 -189 -79t-77 -202v-4z M424 1602h246l159 -269h-233z" />
<glyph unicode="&#xe1;" horiz-adv-x="1372" d="M76 551v2q0 248 151 410.5t396 162.5q216 0 327 -149v127h305v-1104h-305v131q-112 -151 -327 -151q-245 0 -396 160.5t-151 410.5zM387 551q0 -122 78.5 -200.5t191.5 -78.5q118 0 193.5 77.5t75.5 201.5v4q0 122 -77.5 201.5t-195.5 79.5q-112 0 -189 -79t-77 -202v-4z M512 1335l160 269h243l-172 -269h-231z" />
<glyph unicode="&#xe2;" horiz-adv-x="1372" d="M76 551v2q0 248 151 410.5t396 162.5q216 0 327 -149v127h305v-1104h-305v131q-112 -151 -327 -151q-245 0 -396 160.5t-151 410.5zM387 551q0 -122 78.5 -200.5t191.5 -78.5q118 0 193.5 77.5t75.5 201.5v4q0 122 -77.5 201.5t-195.5 79.5q-112 0 -189 -79t-77 -202v-4z M401 1329l193 225h174l197 -225h-187l-98 113l-94 -113h-185z" />
<glyph unicode="&#xe3;" horiz-adv-x="1372" d="M76 551v2q0 248 151 410.5t396 162.5q216 0 327 -149v127h305v-1104h-305v131q-112 -151 -327 -151q-245 0 -396 160.5t-151 410.5zM379 1294q-27 94 32 170t152 76q41 0 93 -26.5t96 -53t67 -26.5q38 0 59.5 26t2.5 70h123q24 -95 -34 -167.5t-153 -72.5q-38 0 -94 26 t-105 52.5t-71 26.5q-35 0 -49.5 -27t-8.5 -74h-110zM387 551q0 -122 78.5 -200.5t191.5 -78.5q118 0 193.5 77.5t75.5 201.5v4q0 122 -77.5 201.5t-195.5 79.5q-112 0 -189 -79t-77 -202v-4z" />
<glyph unicode="&#xe4;" horiz-adv-x="1372" d="M76 551v2q0 248 151 410.5t396 162.5q216 0 327 -149v127h305v-1104h-305v131q-112 -151 -327 -151q-245 0 -396 160.5t-151 410.5zM371 1430q0 49 36 86.5t87 37.5q52 0 88 -37.5t36 -86.5q0 -52 -36.5 -88.5t-87.5 -36.5t-87 36.5t-36 88.5zM387 551 q0 -122 78.5 -200.5t191.5 -78.5q118 0 193.5 77.5t75.5 201.5v4q0 122 -77.5 201.5t-195.5 79.5q-112 0 -189 -79t-77 -202v-4zM766 1430q0 49 36 86.5t87 37.5q53 0 89 -37.5t36 -86.5q0 -52 -37 -88.5t-88 -36.5t-87 36.5t-36 88.5z" />
<glyph unicode="&#xe5;" horiz-adv-x="1372" d="M76 551v2q0 248 151 410.5t396 162.5q216 0 327 -149v127h305v-1104h-305v131q-112 -151 -327 -151q-245 0 -396 160.5t-151 410.5zM387 551q0 -122 78.5 -200.5t191.5 -78.5q118 0 193.5 77.5t75.5 201.5v4q0 122 -77.5 201.5t-195.5 79.5q-112 0 -189 -79t-77 -202v-4z M479 1438q0 77 59 135.5t138 58.5q75 0 134.5 -59t59.5 -135t-59.5 -136.5t-134.5 -60.5q-79 0 -138 60t-59 137zM621 1442q0 -25 16 -42.5t39 -17.5q21 0 37 18t16 42q0 20 -16.5 36.5t-36.5 16.5q-23 0 -39 -16t-16 -37z" />
<glyph unicode="&#xe6;" horiz-adv-x="2248" d="M131 551v2q0 248 151 410.5t396 162.5q229 0 338 -163v141h293v-94q107 116 276 116q134 0 242 -49t173.5 -129t100.5 -176t35 -197v-108h-776q13 -106 81.5 -163.5t178.5 -57.5q80 0 148.5 38.5t105.5 98.5l233 -123q-71 -128 -197 -204t-308 -76t-293 120v-100h-293 v145q-110 -165 -338 -165q-245 0 -396 160.5t-151 410.5zM440 551q0 -122 79 -200.5t194 -78.5q118 0 193 77.5t75 201.5v4q0 123 -77.5 202t-194.5 79q-114 0 -191.5 -79t-77.5 -202v-4zM1362 664h457q-2 32 -15.5 64t-38.5 64t-70.5 52t-103.5 20q-89 0 -149 -55.5 t-80 -144.5z" />
<glyph unicode="&#xe7;" horiz-adv-x="1247" d="M86 551v2q0 246 159 409.5t406 163.5q187 0 319 -99t191 -267l-268 -109q-72 185 -242 185q-114 0 -184 -78t-70 -203v-4q0 -124 72 -201.5t186 -77.5q98 0 159.5 55t82.5 136l272 -90q-47 -174 -176 -279.5t-319 -111.5l-6 -41q145 -34 145 -177q0 -100 -92 -155 t-244 -45l-33 149q68 -10 117 -3t76 22t27 32q0 18 -9.5 26t-45.5 13.5t-122 10.5l41 178q-199 40 -320.5 192.5t-121.5 366.5z" />
<glyph unicode="&#xe8;" horiz-adv-x="1243" d="M74 551v2q0 161 71 292t197.5 206t282.5 75q109 0 200.5 -32t153.5 -86t106 -125.5t64 -149.5t20 -158v-96h-778q15 -110 83.5 -173.5t182.5 -63.5q83 0 145 42t99 115l234 -123q-165 -296 -496 -296q-163 0 -292.5 74t-201 204.5t-71.5 292.5zM354 1602h246l160 -269 h-234zM395 659h477q0 23 -6.5 48t-23 53.5t-42 51t-68 37.5t-95.5 15q-101 0 -160.5 -56t-81.5 -149z" />
<glyph unicode="&#xe9;" horiz-adv-x="1243" d="M74 551v2q0 161 71 292t197.5 206t282.5 75q109 0 200.5 -32t153.5 -86t106 -125.5t64 -149.5t20 -158v-96h-778q15 -110 83.5 -173.5t182.5 -63.5q83 0 145 42t99 115l234 -123q-165 -296 -496 -296q-163 0 -292.5 74t-201 204.5t-71.5 292.5zM395 659h477q0 23 -6.5 48 t-23 53.5t-42 51t-68 37.5t-95.5 15q-101 0 -160.5 -56t-81.5 -149zM442 1335l160 269h244l-172 -269h-232z" />
<glyph unicode="&#xea;" horiz-adv-x="1243" d="M74 551v2q0 161 71 292t197.5 206t282.5 75q109 0 200.5 -32t153.5 -86t106 -125.5t64 -149.5t20 -158v-96h-778q15 -110 83.5 -173.5t182.5 -63.5q83 0 145 42t99 115l234 -123q-165 -296 -496 -296q-163 0 -292.5 74t-201 204.5t-71.5 292.5zM332 1329l192 225h174 l197 -225h-186l-99 113l-94 -113h-184zM395 659h477q0 23 -6.5 48t-23 53.5t-42 51t-68 37.5t-95.5 15q-101 0 -160.5 -56t-81.5 -149z" />
<glyph unicode="&#xeb;" horiz-adv-x="1243" d="M74 551v2q0 161 71 292t197.5 206t282.5 75q109 0 200.5 -32t153.5 -86t106 -125.5t64 -149.5t20 -158v-96h-778q15 -110 83.5 -173.5t182.5 -63.5q83 0 145 42t99 115l234 -123q-165 -296 -496 -296q-163 0 -292.5 74t-201 204.5t-71.5 292.5zM301 1430q0 49 36 86.5 t87 37.5q53 0 89 -37.5t36 -86.5q0 -52 -37 -88.5t-88 -36.5t-87 36.5t-36 88.5zM395 659h477q0 23 -6.5 48t-23 53.5t-42 51t-68 37.5t-95.5 15q-101 0 -160.5 -56t-81.5 -149zM696 1430q0 49 36 86.5t87 37.5q53 0 89 -37.5t36 -86.5q0 -52 -37 -88.5t-88 -36.5t-87 36.5 t-36 88.5z" />
<glyph unicode="&#xec;" horiz-adv-x="565" d="M20 1602h246l160 -269h-233zM137 0v1104h291v-1104h-291z" />
<glyph unicode="&#xed;" horiz-adv-x="565" d="M109 1335l159 269h244l-172 -269h-231zM137 0v1104h291v-1104h-291z" />
<glyph unicode="&#xee;" horiz-adv-x="565" d="M-2 1329l192 225h175l196 -225h-186l-99 113l-94 -113h-184zM137 0v1104h291v-1104h-291z" />
<glyph unicode="&#xef;" horiz-adv-x="565" d="M121 1430q0 49 36 86.5t87 37.5q53 0 89 -37.5t36 -86.5q0 -52 -37 -88.5t-88 -36.5t-87 36.5t-36 88.5zM137 0v1104h291v-1104h-291zM516 1430q0 49 36 86.5t87 37.5q53 0 89 -37.5t36 -86.5q0 -52 -37 -88.5t-88 -36.5t-87 36.5t-36 88.5z" />
<glyph unicode="&#xf0;" horiz-adv-x="1273" d="M74 510q0 151 74.5 280.5t204 206t282.5 76.5q118 0 201 -86q-63 168 -281 373l-152 -170l-194 180l153 168q-114 106 -229 180l176 205q137 -101 240 -186l149 161l199 -186l-154 -168q249 -256 352 -500t103 -534q-2 -156 -79.5 -285.5t-206 -202.5t-277.5 -73 q-154 0 -283 75.5t-203.5 204.5t-74.5 281zM375 514q0 -108 76 -184q74 -74 184 -74q106 0 182 76q76 70 76 182q0 108 -76 184t-182 76q-111 0 -184 -76q-76 -76 -76 -184z" />
<glyph unicode="&#xf1;" horiz-adv-x="1220" d="M113 0v1104h305v-129q41 67 121.5 108t154.5 41q432 0 432 -483v-641h-305v618q0 105 -47.5 159t-132.5 54q-169 0 -223 -172v-659h-305zM311 1294q-27 93 32.5 169.5t152.5 76.5q41 0 93 -26.5t96 -53t67 -26.5q38 0 59 26t2 70h123q24 -95 -33.5 -167.5t-152.5 -72.5 q-38 0 -94.5 26t-105.5 52.5t-71 26.5q-34 0 -48.5 -27t-8.5 -74h-111z" />
<glyph unicode="&#xf2;" horiz-adv-x="1312" d="M80 551v2q0 245 163.5 409t411.5 164q164 0 296 -73.5t207 -203.5t75 -292v-4q0 -162 -74.5 -293t-206.5 -205.5t-297 -74.5q-248 0 -411.5 162t-163.5 409zM387 551q0 -122 78.5 -200.5t191.5 -78.5q118 0 193.5 77.5t75.5 201.5v4q0 122 -77.5 201.5t-195.5 79.5 q-112 0 -189 -79t-77 -202v-4zM403 1602h246l160 -269h-234z" />
<glyph unicode="&#xf3;" horiz-adv-x="1312" d="M80 551v2q0 245 163.5 409t411.5 164q164 0 296 -73.5t207 -203.5t75 -292v-4q0 -162 -74.5 -293t-206.5 -205.5t-297 -74.5q-248 0 -411.5 162t-163.5 409zM387 551q0 -122 78.5 -200.5t191.5 -78.5q118 0 193.5 77.5t75.5 201.5v4q0 122 -77.5 201.5t-195.5 79.5 q-112 0 -189 -79t-77 -202v-4zM492 1335l159 269h244l-172 -269h-231z" />
<glyph unicode="&#xf4;" horiz-adv-x="1312" d="M80 551v2q0 245 163.5 409t411.5 164q164 0 296 -73.5t207 -203.5t75 -292v-4q0 -162 -74.5 -293t-206.5 -205.5t-297 -74.5q-248 0 -411.5 162t-163.5 409zM381 1329l192 225h175l196 -225h-186l-99 113l-94 -113h-184zM387 551q0 -122 78.5 -200.5t191.5 -78.5 q118 0 193.5 77.5t75.5 201.5v4q0 122 -77.5 201.5t-195.5 79.5q-112 0 -189 -79t-77 -202v-4z" />
<glyph unicode="&#xf5;" horiz-adv-x="1312" d="M80 551v2q0 245 163.5 409t411.5 164q164 0 296 -73.5t207 -203.5t75 -292v-4q0 -162 -74.5 -293t-206.5 -205.5t-297 -74.5q-248 0 -411.5 162t-163.5 409zM358 1294q-27 93 32.5 169.5t152.5 76.5q41 0 93 -26.5t96 -53t67 -26.5q38 0 59 26t2 70h123 q24 -95 -33.5 -167.5t-152.5 -72.5q-38 0 -94.5 26t-105.5 52.5t-71 26.5q-34 0 -48.5 -27t-8.5 -74h-111zM387 551q0 -122 78.5 -200.5t191.5 -78.5q118 0 193.5 77.5t75.5 201.5v4q0 122 -77.5 201.5t-195.5 79.5q-112 0 -189 -79t-77 -202v-4z" />
<glyph unicode="&#xf6;" horiz-adv-x="1312" d="M80 551v2q0 245 163.5 409t411.5 164q164 0 296 -73.5t207 -203.5t75 -292v-4q0 -162 -74.5 -293t-206.5 -205.5t-297 -74.5q-248 0 -411.5 162t-163.5 409zM352 1430q0 49 36 86.5t87 37.5q53 0 89 -37.5t36 -86.5q0 -52 -37 -88.5t-88 -36.5t-87 36.5t-36 88.5z M387 551q0 -122 78.5 -200.5t191.5 -78.5q118 0 193.5 77.5t75.5 201.5v4q0 122 -77.5 201.5t-195.5 79.5q-112 0 -189 -79t-77 -202v-4zM748 1430q0 49 35.5 86.5t86.5 37.5q53 0 89 -37.5t36 -86.5q0 -52 -37 -88.5t-88 -36.5t-86.5 36.5t-35.5 88.5z" />
<glyph unicode="&#xf7;" horiz-adv-x="1067" d="M100 535v292h867v-292h-867zM371 270q0 69 51 121.5t123 52.5t123 -52.5t51 -121.5q0 -72 -51 -123t-123 -51t-123 51t-51 123zM371 1116q0 69 51 121.5t123 52.5t123 -52.5t51 -121.5q0 -72 -51 -123t-123 -51t-123 51t-51 123z" />
<glyph unicode="&#xf8;" horiz-adv-x="1337" d="M90 551v2q0 245 164 409t412 164q142 0 262 -57l100 145h213l-168 -243q170 -164 170 -414v-4q0 -162 -74 -293t-206 -205.5t-297 -74.5q-132 0 -246 51l-92 -133h-213l157 227q-86 78 -134 188t-48 238zM397 551q0 -96 54 -170l305 440q-54 15 -92 15q-112 0 -189.5 -79 t-77.5 -202v-4zM594 283q46 -11 74 -11q118 0 193 77.5t75 201.5v4q0 86 -43 158z" />
<glyph unicode="&#xf9;" horiz-adv-x="1224" d="M94 541v563h303v-531q0 -168 54 -235.5t165 -67.5t160 66.5t49 236.5v531h305v-563q0 -142 -39 -250.5t-110 -175.5t-165 -100t-208 -33q-234 0 -374 139.5t-140 419.5zM362 1602h246l160 -269h-233z" />
<glyph unicode="&#xfa;" horiz-adv-x="1224" d="M94 541v563h303v-531q0 -168 54 -235.5t165 -67.5t160 66.5t49 236.5v531h305v-563q0 -142 -39 -250.5t-110 -175.5t-165 -100t-208 -33q-234 0 -374 139.5t-140 419.5zM453 1335l159 269h244l-172 -269h-231z" />
<glyph unicode="&#xfb;" horiz-adv-x="1224" d="M94 541v563h303v-531q0 -168 54 -235.5t165 -67.5t160 66.5t49 236.5v531h305v-563q0 -142 -39 -250.5t-110 -175.5t-165 -100t-208 -33q-234 0 -374 139.5t-140 419.5zM340 1329l192 225h175l196 -225h-186l-99 113l-94 -113h-184z" />
<glyph unicode="&#xfc;" horiz-adv-x="1224" d="M94 541v563h303v-531q0 -168 54 -235.5t165 -67.5t160 66.5t49 236.5v531h305v-563q0 -142 -39 -250.5t-110 -175.5t-165 -100t-208 -33q-234 0 -374 139.5t-140 419.5zM311 1430q0 49 36 86.5t87 37.5q53 0 89 -37.5t36 -86.5q0 -52 -37 -88.5t-88 -36.5t-87 36.5 t-36 88.5zM707 1430q0 49 35.5 86.5t86.5 37.5q53 0 89 -37.5t36 -86.5q0 -52 -37 -88.5t-88 -36.5t-86.5 36.5t-35.5 88.5z" />
<glyph unicode="&#xfd;" horiz-adv-x="1300" d="M68 -203l192 164q46 -77 133.5 -124.5t186.5 -47.5q121 0 197.5 68t76.5 180v69q-87 -75 -223 -75q-111 0 -203.5 33.5t-162.5 99.5t-109 175t-39 251v514h305v-475q0 -169 55 -239.5t162 -70.5t157.5 57t57.5 199v529h305v-1022q0 -117 -40.5 -218.5t-114 -176 t-182.5 -117.5t-240 -43q-171 0 -314 75t-200 195zM471 1335l160 269h243l-172 -269h-231z" />
<glyph unicode="&#xfe;" horiz-adv-x="1273" d="M117 -389v1823h295v-467q111 159 333 159q155 0 276.5 -75t188 -205.5t66.5 -292.5v-2q0 -163 -67.5 -293.5t-189 -204t-274.5 -73.5q-220 0 -333 161v-530h-295zM451 551q0 -123 76 -201t190 -78q111 0 183.5 78t72.5 201v4q0 123 -73.5 202t-184.5 79q-114 0 -189 -79 t-75 -202v-4z" />
<glyph unicode="&#xff;" horiz-adv-x="1300" d="M68 -203l192 164q46 -77 133.5 -124.5t186.5 -47.5q121 0 197.5 68t76.5 180v69q-87 -75 -223 -75q-111 0 -203.5 33.5t-162.5 99.5t-109 175t-39 251v514h305v-475q0 -169 55 -239.5t162 -70.5t157.5 57t57.5 199v529h305v-1022q0 -117 -40.5 -218.5t-114 -176 t-182.5 -117.5t-240 -43q-171 0 -314 75t-200 195zM330 1430q0 49 36 86.5t87 37.5q53 0 89 -37.5t36 -86.5q0 -52 -37 -88.5t-88 -36.5t-87 36.5t-36 88.5zM725 1430q0 49 36 86.5t87 37.5q53 0 89 -37.5t36 -86.5q0 -52 -37 -88.5t-88 -36.5t-87 36.5t-36 88.5z" />
<glyph unicode="&#x152;" horiz-adv-x="2512" d="M74 760v2q0 219 98 398.5t277 284.5t405 105q264 0 465 -139v117h1071v-293h-743v-270h684v-291h-684v-383h768v-291h-1096v117q-202 -137 -465 -137q-225 0 -403.5 101t-277.5 279t-99 400zM412 756q0 -205 124 -337t318 -132q211 0 333 129.5t122 339.5v10 q0 200 -125.5 331.5t-335.5 131.5q-190 0 -313 -132.5t-123 -330.5v-10z" />
<glyph unicode="&#x153;" horiz-adv-x="2146" d="M98 551v2q0 161 75 292t208 206t297 75q127 0 237 -45.5t189 -128.5q78 83 182.5 128.5t224.5 45.5q134 0 242 -49t174.5 -129t101.5 -176t35 -197v-108h-782q19 -104 86 -162.5t178 -58.5q81 0 150 39t104 98l236 -123q-71 -127 -198.5 -203.5t-309.5 -76.5 q-126 0 -235.5 45.5t-188.5 128.5q-79 -83 -189 -128.5t-237 -45.5q-163 0 -295.5 73.5t-208.5 204.5t-76 293zM410 551q0 -122 78.5 -200.5t191.5 -78.5q118 0 193 77.5t75 201.5v4q0 123 -77.5 202t-194.5 79q-112 0 -189 -79t-77 -202v-4zM1290 664h457q-3 32 -16.5 64 t-39 64t-70.5 52t-103 20q-90 0 -148 -56t-80 -144z" />
<glyph unicode="&#x178;" horiz-adv-x="1458" d="M82 1511h352l297 -583l295 583h350l-481 -921v-590h-328v590zM422 1839q0 47 33.5 83t83.5 36q48 0 81 -36t33 -83t-34 -81t-80 -34q-49 0 -83 33.5t-34 81.5zM834 1839q0 47 34 83t82 36q49 0 82 -36t33 -83t-34 -81t-81 -34t-81.5 34t-34.5 81z" />
<glyph unicode="&#x2c6;" horiz-adv-x="1069" d="M260 1329l193 225h174l196 -225h-186l-98 113l-95 -113h-184z" />
<glyph unicode="&#x2dc;" horiz-adv-x="1069" d="M238 1294q-27 94 32 170t152 76q41 0 93 -26.5t96 -53t67 -26.5q38 0 59 26t2 70h123q24 -95 -33.5 -167.5t-152.5 -72.5q-38 0 -94 26t-105 52.5t-71 26.5q-35 0 -49.5 -27t-8.5 -74h-110z" />
<glyph unicode="&#x2000;" horiz-adv-x="1006" />
<glyph unicode="&#x2001;" horiz-adv-x="2013" />
<glyph unicode="&#x2002;" horiz-adv-x="1006" />
<glyph unicode="&#x2003;" horiz-adv-x="2013" />
<glyph unicode="&#x2004;" horiz-adv-x="671" />
<glyph unicode="&#x2005;" horiz-adv-x="503" />
<glyph unicode="&#x2006;" horiz-adv-x="335" />
<glyph unicode="&#x2007;" horiz-adv-x="335" />
<glyph unicode="&#x2008;" horiz-adv-x="251" />
<glyph unicode="&#x2009;" horiz-adv-x="402" />
<glyph unicode="&#x200a;" horiz-adv-x="111" />
<glyph unicode="&#x2010;" horiz-adv-x="901" d="M109 575v293h677v-293h-677z" />
<glyph unicode="&#x2011;" horiz-adv-x="901" d="M109 575v293h677v-293h-677z" />
<glyph unicode="&#x2012;" horiz-adv-x="901" d="M109 575v293h677v-293h-677z" />
<glyph unicode="&#x2013;" horiz-adv-x="1146" d="M109 578v290h929v-290h-929z" />
<glyph unicode="&#x2014;" horiz-adv-x="1875" d="M170 578v290h1536v-290h-1536z" />
<glyph unicode="&#x2018;" horiz-adv-x="524" d="M109 1049v225q0 131 49 217t149 108l53 -102q-54 -16 -82 -57.5t-28 -89.5h139v-301h-280z" />
<glyph unicode="&#x2019;" horiz-adv-x="495" d="M109 1260v301h280v-226q0 -131 -48 -217t-148 -108l-54 102q53 16 81 57.5t30 90.5h-141z" />
<glyph unicode="&#x201a;" horiz-adv-x="497" d="M90 -6v346h320v-258q0 -150 -55.5 -249t-172.5 -126l-57 123q60 16 91.5 62.5t33.5 101.5h-160z" />
<glyph unicode="&#x201c;" horiz-adv-x="935" d="M90 1016v258q0 150 55 248t170 125l60 -123q-60 -14 -92.5 -61.5t-32.5 -102.5h160v-344h-320zM502 1016v258q0 150 55 248t172 125l57 -123q-60 -14 -91 -61t-33 -103h159v-344h-319z" />
<glyph unicode="&#x201d;" horiz-adv-x="911" d="M57 1307v344h320v-258q0 -150 -55 -248t-172 -125l-58 123q60 14 91.5 61.5t33.5 102.5h-160zM469 1307v344h319v-258q0 -150 -55 -248t-172 -125l-57 123q60 14 91.5 61.5t33.5 102.5h-160z" />
<glyph unicode="&#x201e;" horiz-adv-x="919" d="M90 -125v346h320v-258q0 -150 -55.5 -249t-172.5 -124l-57 121q60 16 91.5 62.5t33.5 101.5h-160zM510 -125v346h319v-258q0 -151 -55.5 -249.5t-171.5 -123.5l-57 121q60 16 91.5 62.5t33.5 101.5h-160z" />
<glyph unicode="&#x2022;" horiz-adv-x="925" d="M156 727v2q0 127 90 216t219 89q128 0 218.5 -89t90.5 -216v-2q0 -127 -90.5 -216t-218.5 -89q-129 0 -219 89t-90 216z" />
<glyph unicode="&#x2026;" horiz-adv-x="1531" d="M61 170q0 69 49.5 121.5t120.5 52.5q72 0 122 -52.5t50 -121.5q0 -70 -50.5 -120t-121.5 -50t-120.5 50t-49.5 120zM584 170q0 69 50 121.5t122 52.5q71 0 120.5 -52.5t49.5 -121.5q0 -70 -50.5 -120t-119.5 -50q-71 0 -121.5 50t-50.5 120zM1106 170q0 69 50 121.5 t122 52.5q71 0 120.5 -52.5t49.5 -121.5q0 -70 -50.5 -120t-119.5 -50q-71 0 -121.5 50t-50.5 120z" />
<glyph unicode="&#x202f;" horiz-adv-x="402" />
<glyph unicode="&#x2039;" horiz-adv-x="798" d="M82 508v106l412 478l217 -179l-293 -352l293 -352l-217 -180z" />
<glyph unicode="&#x203a;" horiz-adv-x="798" d="M88 209l293 352l-293 352l217 179l412 -478v-106l-412 -479z" />
<glyph unicode="&#x205f;" horiz-adv-x="503" />
<glyph unicode="&#x20ac;" horiz-adv-x="1640" d="M84 508v176h145q0 102 2 121h-147v178h166q26 119 78 217t130 172.5t189.5 116t247.5 41.5q273 0 437 -130t208 -341l-326 -82q-25 63 -49.5 105.5t-61 80.5t-89 57t-121.5 19q-103 0 -175.5 -68t-105.5 -188h340v-178h-362q-6 -61 0 -121h362v-176h-329 q33 -111 104 -173.5t172 -62.5q58 0 105 13.5t78 34t58 55t42.5 64.5t34.5 75l317 -65q-24 -100 -75 -183.5t-128.5 -148t-188.5 -101t-245 -36.5t-244 39t-188.5 111t-131 166.5t-79.5 211.5h-170z" />
<glyph unicode="&#x2122;" horiz-adv-x="1802" d="M86 1243v285h657v-285h-188v-498h-283v498h-186zM827 745v783h222l217 -318l219 318h219v-783h-236v424l-202 -260l-203 256v-420h-236z" />
<glyph unicode="&#x25fc;" horiz-adv-x="1105" d="M0 0v1106h1106v-1106h-1106z" />
</font>
</defs>
</svg>
