<?xml version="1.0" standalone="no"?>
<!DOCTYPE svg PUBLIC "-//W3C//DTD SVG 1.1//EN" "http://www.w3.org/Graphics/SVG/1.1/DTD/svg11.dtd" >
<svg xmlns="http://www.w3.org/2000/svg">
<metadata></metadata>
<defs>
<font id="888thin" horiz-adv-x="1167" >
<font-face units-per-em="2048" ascent="1638" descent="-410" />
<missing-glyph horiz-adv-x="655" />
<glyph horiz-adv-x="0" />
<glyph horiz-adv-x="682" />
<glyph unicode=" "  horiz-adv-x="655" />
<glyph unicode="&#x09;" horiz-adv-x="655" />
<glyph unicode="&#xa0;" horiz-adv-x="655" />
<glyph unicode="!" horiz-adv-x="540" d="M221 51q0 21 15 36t36 15q20 0 35 -15.5t15 -35.5q0 -21 -15 -36t-35 -15q-22 0 -36.5 14.5t-14.5 36.5zM248 1212v222h45v-222l-6 -837h-33z" />
<glyph unicode="&#x22;" horiz-adv-x="765" d="M195 913l51 521h71v-4l-98 -517h-24zM457 913l51 521h72v-4l-99 -517h-24z" />
<glyph unicode="#" horiz-adv-x="1495" d="M172 412v39h242l94 544h-254v39h260l70 400h41l-70 -400h489l70 400h41l-70 -400h236v-39h-242l-92 -544h252v-39h-260l-70 -412h-41l70 412h-489l-70 -412h-41l70 412h-236zM455 449h489l94 548h-487z" />
<glyph unicode="$" horiz-adv-x="1417" d="M190 186q186 -156 478 -166v732q-245 74 -349 151.5t-104 206.5v4q0 144 132.5 239.5t320.5 100.5v139h39v-139q220 -6 403 -100v-54q-178 104 -403 113v-627q255 -74 363 -173t108 -248v-5q0 -162 -131.5 -271t-339.5 -109v-158h-39v158q-285 10 -473 147zM260 1112 q0 -109 90 -176.5t318 -136.5v614q-171 -3 -289.5 -88t-118.5 -209v-4zM707 20h2q185 0 304.5 96t119.5 242v4q0 132 -95 219.5t-331 159.5v-721z" />
<glyph unicode="%" horiz-adv-x="1871" d="M154 1083v4q0 146 108.5 252.5t257.5 106.5t258 -106.5t109 -252.5v-4q0 -146 -108.5 -251t-258.5 -105t-258 105t-108 251zM193 1083q0 -132 96.5 -226.5t230.5 -94.5t231 94.5t97 226.5v4q0 132 -97 228t-231 96q-133 0 -230 -96t-97 -228v-4zM381 0l1051 1432l53 2 l-1053 -1434h-51zM985 348v4q0 146 109 252.5t258 106.5t257.5 -106.5t108.5 -252.5v-4q0 -146 -108 -251t-258 -105t-258.5 105t-108.5 251zM1024 348q0 -132 97 -226.5t231 -94.5t230.5 94.5t96.5 226.5v4q0 132 -97 228t-230 96q-134 0 -231 -96t-97 -228v-4z" />
<glyph unicode="&#x26;" horiz-adv-x="1507" d="M178 350v4q0 70 23.5 130.5t57 102.5t90.5 83t105 66.5t119 58.5q-104 109 -148 195t-44 167v4q0 53 22 105t61.5 95.5t103 70t139.5 26.5q140 0 228.5 -87t88.5 -202v-4q0 -115 -85 -202t-296 -181l442 -477q112 159 201 402l39 -13q-92 -252 -213 -418l250 -270 l-31 -26l-244 264q-211 -264 -485 -264q-185 0 -304.5 108.5t-119.5 261.5zM223 350q0 -135 106 -232.5t273 -97.5q131 0 248 66.5t211 185.5l-457 492q-71 -33 -115 -55.5t-100.5 -61t-88.5 -77t-54.5 -94.5t-22.5 -122v-4zM424 1159q0 -77 43 -160t147 -188 q207 90 287 169.5t80 184.5v4q0 98 -76 174t-198 76q-127 0 -205 -78.5t-78 -177.5v-4z" />
<glyph unicode="'" horiz-adv-x="503" d="M195 913l51 521h71v-4l-98 -517h-24z" />
<glyph unicode="(" horiz-adv-x="942" d="M209 588q0 275 136 499t400 375l21 -32q-250 -141 -380 -359t-130 -483t130 -483t380 -359l-21 -33q-264 151 -400 375t-136 500z" />
<glyph unicode=")" horiz-adv-x="942" d="M176 -254q250 141 380 359t130 483t-130 483t-380 359l21 32q264 -151 400 -375t136 -499q0 -276 -136 -500t-400 -375z" />
<glyph unicode="*" horiz-adv-x="1024" d="M236 1001l258 134l-258 133l24 39l242 -156l-13 287h46l-13 -287l242 156l24 -39l-258 -133l258 -134l-24 -38l-242 155l13 -287h-46l13 287l-242 -155z" />
<glyph unicode="+" horiz-adv-x="1273" d="M209 702v37h407v430h41v-430h408v-37h-408v-430h-41v430h-407z" />
<glyph unicode="," horiz-adv-x="448" d="M164 -223l57 297h64l-64 -297h-57z" />
<glyph unicode="-" horiz-adv-x="937" d="M215 696v43h508v-43h-508z" />
<glyph unicode="." horiz-adv-x="387" d="M143 51q0 21 15.5 36t36.5 15q20 0 34.5 -15.5t14.5 -35.5q0 -22 -14.5 -36.5t-34.5 -14.5q-22 0 -37 14.5t-15 36.5z" />
<glyph unicode="/" horiz-adv-x="1112" d="M51 -262l963 1896h47l-963 -1896h-47z" />
<glyph unicode="0" horiz-adv-x="1556" d="M213 715v4q0 118 22.5 227t69 202t113 162t159 108.5t201.5 39.5q136 0 245 -60t178 -162.5t105.5 -235t36.5 -281.5v-4q0 -149 -36.5 -281t-105.5 -235t-178 -163.5t-245 -60.5t-245 60t-178 163t-105.5 235.5t-36.5 281.5zM258 717q0 -139 33.5 -264t97 -223 t164.5 -156t227 -58t226.5 57t163 154.5t95.5 221.5t33 264v4q0 111 -20.5 213t-63.5 191t-104 155t-147 103.5t-187 37.5q-126 0 -226.5 -57t-163 -154t-95.5 -221t-33 -264v-4z" />
<glyph unicode="1" horiz-adv-x="747" d="M106 1325l306 119h37v-1444h-43v1397l-285 -109z" />
<glyph unicode="2" horiz-adv-x="1202" d="M133 0v27l567 628q142 158 189 252.5t47 182.5q0 135 -98 229t-260 94q-128 0 -226 -78t-162 -211l-38 23q69 142 176 224.5t252 82.5q183 0 292 -103.5t109 -256.5v-4q0 -101 -49 -197t-205 -270l-520 -582h835v-41h-909z" />
<glyph unicode="3" horiz-adv-x="1202" d="M106 190l37 29q180 -203 439 -203q174 0 295.5 116.5t121.5 297.5v4q0 202 -139.5 311t-372.5 109h-49l-14 29l469 510h-709v41h774v-33l-464 -506q254 -2 402 -122t148 -337v-4q0 -133 -63.5 -238.5t-169 -162t-231.5 -56.5q-283 0 -474 215z" />
<glyph unicode="4" horiz-adv-x="1310" d="M176 375v37l686 1032h37v-1028h236v-41h-236v-375h-43v375h-680zM233 416h623v942z" />
<glyph unicode="5" horiz-adv-x="1259" d="M178 164l35 31q73 -87 178.5 -133t218.5 -46q112 0 208 52.5t157 156t61 238.5v4q0 130 -62.5 229.5t-156.5 148t-199 48.5q-141 0 -319 -96l-27 14l62 623h663v-41h-622l-56 -539q167 80 304 80q118 0 221 -53.5t170 -161.5t67 -250v-4q0 -110 -38.5 -203.5t-104 -155.5 t-151 -96.5t-179.5 -34.5q-121 0 -238.5 49.5t-191.5 139.5z" />
<glyph unicode="6" horiz-adv-x="1286" d="M178 446v5q0 121 47 221h-2l8 14q11 22 35 62l404 686h51l-342 -572q120 84 264 84q94 0 179 -37t148 -100.5t100.5 -156t37.5 -197.5v-4q0 -212 -136 -354t-329 -142q-94 0 -179 37t-148 100.5t-100.5 156t-37.5 197.5zM223 449q0 -98 35 -183.5t93.5 -144t135 -92 t158.5 -33.5q170 0 294 128.5t124 324.5v4q0 98 -35 183.5t-93.5 143.5t-135 91.5t-158.5 33.5t-158.5 -33.5t-133.5 -91.5t-91.5 -143.5t-34.5 -183.5v-4z" />
<glyph unicode="7" horiz-adv-x="1193" d="M199 1393v41h850v-27l-666 -1407h-49l663 1393h-798z" />
<glyph unicode="8" horiz-adv-x="1204" d="M143 352q0 140 93 244t229 143q-121 40 -203 133t-82 220q0 166 117.5 276.5t304.5 110.5t304.5 -110.5t117.5 -276.5q0 -127 -82 -220t-203 -133q136 -42 229 -146.5t93 -240.5q0 -84 -27.5 -156t-82.5 -128.5t-144.5 -88.5t-204.5 -32t-204.5 32t-144.5 88.5 t-82.5 128.5t-27.5 156zM188 354q0 -76 25.5 -141.5t75 -116t130.5 -79.5t185 -29t184 28.5t129 78.5t74 114.5t25 140.5q0 155 -126.5 262t-289.5 107t-287.5 -105t-124.5 -260zM225 1094q0 -74 34 -138t88.5 -106t122 -66t134.5 -24t133.5 23t120.5 64.5t87.5 105 t33.5 137.5q0 150 -106.5 249t-272.5 99t-270.5 -97t-104.5 -247z" />
<glyph unicode="9" horiz-adv-x="1323" d="M195 979v4q0 140 63 254.5t169 178t232 63.5q125 0 231.5 -62.5t170 -176t63.5 -253.5v-4q0 -121 -47 -221h2l-8 -14q-11 -22 -35 -62l-403 -686h-51l342 571q-120 -84 -265 -84q-125 0 -231 62.5t-169.5 176t-63.5 253.5zM240 981q0 -98 35 -183.5t93.5 -144t135 -92 t158.5 -33.5q170 0 293.5 128.5t123.5 324.5v4q0 98 -35 183.5t-93.5 144t-135 92t-158.5 33.5q-170 0 -293.5 -128.5t-123.5 -324.5v-4z" />
<glyph unicode=":" horiz-adv-x="428" d="M164 51q0 21 15 36t36 15q20 0 34.5 -15.5t14.5 -35.5q0 -22 -14.5 -36.5t-34.5 -14.5q-22 0 -36.5 14.5t-14.5 36.5zM164 973q0 21 15 36t36 15q20 0 34.5 -15.5t14.5 -35.5q0 -22 -14.5 -36.5t-34.5 -14.5q-22 0 -36.5 14.5t-14.5 36.5z" />
<glyph unicode=";" horiz-adv-x="448" d="M164 -223l57 297h64l-64 -297h-57zM184 973q0 21 15 36t37 15q20 0 34.5 -15.5t14.5 -35.5q0 -22 -14.5 -36.5t-34.5 -14.5q-22 0 -37 14.5t-15 36.5z" />
<glyph unicode="&#x3c;" horiz-adv-x="1372" d="M188 711v20l942 481v-47l-876 -444l876 -445v-47z" />
<glyph unicode="=" horiz-adv-x="1372" d="M262 461v41h848v-41h-848zM262 942v41h848v-41h-848z" />
<glyph unicode="&#x3e;" horiz-adv-x="1372" d="M242 229v47l876 445l-876 444v47l942 -481v-20z" />
<glyph unicode="?" horiz-adv-x="1138" d="M133 1196q57 116 162.5 186t234.5 70q163 0 276.5 -111.5t113.5 -271.5v-4q0 -89 -38.5 -163t-101 -121.5t-133 -76.5t-143.5 -38v-291h-37l-2 321l6 6q169 14 286 110.5t117 250.5v4q0 144 -102 244t-244 100q-112 0 -211.5 -67t-146.5 -173zM442 51q0 21 15 36t37 15 q20 0 34.5 -15.5t14.5 -35.5q0 -22 -14.5 -36.5t-34.5 -14.5q-22 0 -37 14.5t-15 36.5z" />
<glyph unicode="@" horiz-adv-x="2086" d="M203 537q0 143 41 280.5t118 252.5t180.5 202.5t236.5 136.5t278 49q173 0 328 -64.5t263.5 -172.5t172 -253t63.5 -302q0 -126 -32 -226t-83.5 -157.5t-108.5 -87t-114 -29.5q-58 0 -102.5 21.5t-69 57.5t-36 79t-9.5 90q-54 -110 -150.5 -179t-207.5 -69 q-148 0 -243 91.5t-95 246.5q0 99 35.5 189t94.5 153t136.5 100t159.5 37q119 0 205 -68.5t108 -181.5l37 203l41 -8l-72 -391q-9 -43 -12 -85t4 -88t25.5 -81t57 -57.5t93.5 -22.5q41 0 81.5 16t79.5 52.5t69 89t48.5 131t18.5 172.5q0 151 -60 290t-163.5 242t-251 164 t-313.5 61q-173 0 -325.5 -73t-258 -194t-166.5 -282t-61 -333q0 -184 64.5 -341.5t176.5 -265.5t264.5 -168.5t325.5 -60.5q269 0 475 137l23 -33q-211 -141 -500 -141q-181 0 -340.5 63.5t-276.5 175.5t-185 276t-68 356zM678 506q0 -138 81.5 -218.5t211.5 -80.5 q102 0 190.5 62t138.5 161.5t50 208.5q0 129 -83.5 216t-207.5 87q-155 0 -268 -126.5t-113 -309.5z" />
<glyph unicode="A" horiz-adv-x="1460" d="M102 0l609 1444h39l608 -1444h-49l-185 430h-790l-184 -430h-48zM354 471h750l-375 913z" />
<glyph unicode="B" horiz-adv-x="1363" d="M190 0v1434h523q191 0 303 -81t112 -241v-4q0 -110 -41 -189t-120 -106q131 -22 202.5 -123.5t71.5 -273.5v-4q0 -412 -489 -412h-562zM236 41h516q444 0 444 369v4q0 192 -87.5 282t-266.5 90h-606v-745zM236 827h591q135 0 195.5 75.5t60.5 203.5v4q0 132 -92 207.5 t-260 75.5h-495v-566z" />
<glyph unicode="C" horiz-adv-x="1531" d="M154 715v4q0 118 27.5 227t84 202t135.5 162.5t188 108.5t236 39q203 0 352 -94.5t232 -257.5l-41 -16q-76 150 -218 238.5t-327 88.5q-117 0 -218.5 -37t-175 -102t-126 -152.5t-78.5 -190.5t-26 -214v-4q0 -139 43 -264.5t121 -223t198.5 -155.5t265.5 -58 q188 0 328.5 89.5t216.5 242.5l37 -20q-83 -163 -232.5 -258t-351.5 -95q-158 0 -287 60.5t-212 163t-127.5 235.5t-44.5 281z" />
<glyph unicode="D" horiz-adv-x="1476" d="M190 0v1434h461q150 0 267 -36t194 -99t127 -154.5t71 -196t21 -229.5v-4q0 -125 -21 -229.5t-71 -196t-127 -154.5t-194 -99t-267 -36h-461zM236 41h417q633 0 633 672v4q0 118 -19.5 215.5t-65.5 184.5t-118 147t-182 94.5t-252 34.5h-413v-1352z" />
<glyph unicode="E" horiz-adv-x="1224" d="M190 0v1434h889v-41h-843v-549h704v-41h-704v-762h843v-41h-889z" />
<glyph unicode="F" horiz-adv-x="1204" d="M190 0v1434h869v-41h-823v-564h694v-41h-694v-788h-46z" />
<glyph unicode="G" horiz-adv-x="1656" d="M201 713v4q0 116 27.5 224t84 202t136.5 164t192 110.5t244 40.5q291 0 514 -201l-29 -32q-97 91 -209.5 141.5t-277.5 50.5q-122 0 -226.5 -38.5t-179 -105t-127.5 -155.5t-78.5 -190.5t-25.5 -208.5v-4q0 -142 42.5 -267t123 -222t207.5 -153.5t284 -56.5 q90 0 177.5 27.5t161.5 79t120 135.5t47 186v222h-405v41h450v-707h-45v264q-62 -136 -206.5 -212.5t-301.5 -76.5q-169 0 -304 59t-220.5 161t-130.5 234t-45 284z" />
<glyph unicode="H" horiz-adv-x="1454" d="M190 0v1434h46v-588h983v588h45v-1434h-45v805h-983v-805h-46z" />
<glyph unicode="I" horiz-adv-x="581" d="M268 0v1434h45v-1434h-45z" />
<glyph unicode="J" horiz-adv-x="972" d="M123 57v56q109 -95 256 -95q80 0 147.5 28.5t120 84t82 147t29.5 209.5v947h45v-940q0 -267 -135 -402q-115 -115 -293 -115q-139 0 -252 80z" />
<glyph unicode="K" horiz-adv-x="1226" d="M190 0v1434h46v-914l829 914h55l-569 -631l592 -803h-62l-561 768l-284 -315v-453h-46z" />
<glyph unicode="L" horiz-adv-x="1193" d="M190 0v1434h46v-1393h839v-41h-885z" />
<glyph unicode="M" horiz-adv-x="1714" d="M190 0v1434h66l602 -1362l602 1362h64v-1434h-45v1358l-611 -1358h-22l-610 1358v-1358h-46z" />
<glyph unicode="N" horiz-adv-x="1511" d="M190 0v1434h39l1049 -1360v1360h43v-1434h-39l-1049 1360v-1360h-43z" />
<glyph unicode="O" horiz-adv-x="1630" d="M123 715v4q0 118 28 227t85 202t138.5 162t194.5 108.5t246 39.5t246 -39.5t194.5 -108.5t138.5 -162t85 -202t28 -227v-4q0 -149 -45 -281t-129.5 -235t-218.5 -163.5t-299 -60.5t-299 60.5t-218.5 163.5t-129.5 235t-45 281zM168 717q0 -111 27 -214t81 -191.5 t130.5 -154.5t182 -103.5t228.5 -37.5t228.5 37t181 102t129.5 153t80 191t26 214v4q0 111 -27 214t-81 191t-130.5 154t-182 103.5t-228.5 37.5t-228.5 -37t-181 -102t-129.5 -152.5t-80 -190.5t-26 -214v-4z" />
<glyph unicode="P" horiz-adv-x="1265" d="M190 0v1434h463q137 0 233 -29t151.5 -86t80.5 -134t25 -181v-5q0 -218 -116 -327t-382 -109h-409v-563h-46zM236 604h409q166 0 267.5 46.5t143.5 131t42 215.5v4q0 95 -22.5 165t-73.5 122t-139 78.5t-214 26.5h-413v-789z" />
<glyph unicode="Q" horiz-adv-x="1775" d="M190 715v4q0 118 28 227t85.5 202t138.5 162t194.5 108.5t246.5 39.5t246 -39.5t194.5 -108.5t138.5 -162t85 -202t28 -227v-4q0 -166 -55.5 -308.5t-163.5 -238.5l174 -174l-29 -29l-176 176q-178 -138 -440 -141h-2q-166 0 -299.5 56.5t-218.5 154.5t-130 227t-45 277z M236 717q0 -139 43 -261t123 -214.5t205 -146.5t278 -54q246 0 409 131l-282 285l28 28l285 -286q100 91 152.5 224.5t52.5 289.5v4q0 111 -27 214t-81 191t-130.5 154t-182 103.5t-228.5 37.5t-228.5 -37t-181 -102t-129.5 -152.5t-80 -190.5t-26 -214v-4z" />
<glyph unicode="R" horiz-adv-x="1325" d="M190 0v1434h463q135 0 232 -28.5t152.5 -82t80.5 -122t25 -157.5v-4q0 -359 -410 -391l424 -649h-55l-422 645h-35h-409v-645h-46zM236 686h409q242 0 347.5 91t105.5 261v4q0 80 -22.5 141.5t-73 110t-139.5 74t-214 25.5h-413v-707z" />
<glyph unicode="S" horiz-adv-x="1294" d="M137 129l17 47q103 -86 224 -121t273 -35q187 0 316 97t129 241v4q0 132 -98.5 216.5t-350.5 169.5q-114 38 -188.5 72t-131.5 77t-82.5 94.5t-25.5 118.5v4q0 97 63 176.5t160.5 121.5t202.5 42q227 0 432 -108l-20 -41q-187 108 -416 108q-95 0 -181.5 -38.5t-141 -108 t-54.5 -150.5v-4q0 -112 90 -181.5t312 -142.5q260 -86 367.5 -181.5t107.5 -241.5v-5q0 -161 -141.5 -270.5t-352.5 -109.5q-309 0 -510 149z" />
<glyph unicode="T" horiz-adv-x="1232" d="M76 1393v41h1081v-41h-518v-1393h-45v1393h-518z" />
<glyph unicode="U" horiz-adv-x="1540" d="M190 635v799h46v-799q0 -301 145.5 -459t390.5 -158q248 0 390.5 157t142.5 458v801h45v-799q0 -320 -156.5 -489t-423.5 -169q-129 0 -235 41.5t-183 122t-119.5 206.5t-42.5 288z" />
<glyph unicode="V" horiz-adv-x="1419" d="M102 1434h50l559 -1381l559 1381h47l-590 -1444h-35z" />
<glyph unicode="W" horiz-adv-x="2025" d="M102 1434h48l430 -1373l415 1377h35l418 -1379l430 1375h45l-457 -1444h-39l-415 1364l-414 -1364h-39z" />
<glyph unicode="X" horiz-adv-x="1417" d="M96 0l586 729l-565 705h53l539 -674l536 674h55l-565 -705l586 -729h-53l-559 700l-557 -700h-56z" />
<glyph unicode="Y" horiz-adv-x="1214" d="M82 1434h53l475 -904l469 904h54l-502 -957v-477h-45v477z" />
<glyph unicode="Z" horiz-adv-x="1314" d="M147 0v27l957 1366h-922v41h985v-27l-956 -1366h950v-41h-1014z" />
<glyph unicode="[" horiz-adv-x="983" d="M272 -266v1700h539v-35h-494v-1630h494v-35h-539z" />
<glyph unicode="\" horiz-adv-x="1107" d="M63 1634h48l962 -1896h-47z" />
<glyph unicode="]" horiz-adv-x="983" d="M172 -231h494v1630h-494v35h539v-1700h-539v35z" />
<glyph unicode="^" d="M252 1012l319 428h25l319 -428h-34l-297 374l-297 -374h-35z" />
<glyph unicode="_" horiz-adv-x="1269" d="M68 -264h1134v-41h-1134v41z" />
<glyph unicode="`" d="M367 1563h73l213 -252h-67z" />
<glyph unicode="a" horiz-adv-x="1400" d="M133 508v4q0 229 152 383t374 154q162 0 293 -86.5t191 -229.5v291h43v-1024h-43v293q-61 -144 -191 -231t-293 -87q-221 0 -373.5 152.5t-152.5 380.5zM178 510q0 -141 66.5 -255t177 -176.5t240.5 -62.5t239.5 62.5t174.5 176.5t65 255v4q0 141 -66.5 255t-177 176.5 t-240.5 62.5t-239.5 -62.5t-174.5 -176.5t-65 -255v-4z" />
<glyph unicode="b" horiz-adv-x="1359" d="M184 0v1495h43v-764q61 144 191 231t293 87q221 0 373.5 -152.5t152.5 -380.5v-4q0 -229 -152 -383t-374 -154q-162 0 -293 86.5t-191 229.5v-291h-43zM229 510q0 -141 66.5 -255t177 -176.5t240.5 -62.5t239.5 62.5t174.5 176.5t65 255v4q0 141 -66.5 255t-176.5 176.5 t-240 62.5q-200 0 -340 -140.5t-140 -353.5v-4z" />
<glyph unicode="c" horiz-adv-x="1275" d="M145 508v4q0 229 152.5 383t374.5 154q141 0 259.5 -66t188.5 -180l-35 -31q-65 109 -176 172.5t-239 63.5q-200 0 -340 -140.5t-140 -353.5v-4q0 -141 66.5 -255t177 -176.5t240.5 -62.5q136 0 249 68.5t175 187.5l35 -24q-67 -126 -189.5 -199.5t-271.5 -73.5 q-145 0 -265.5 68.5t-191 191t-70.5 273.5z" />
<glyph unicode="d" horiz-adv-x="1382" d="M115 508v4q0 229 152 383t374 154q162 0 292.5 -86t190.5 -230v762h43v-1495h-43v293q-61 -144 -191 -231t-292 -87q-221 0 -373.5 152.5t-152.5 380.5zM160 510q0 -141 66.5 -255t176.5 -176.5t240 -62.5t239.5 62.5t174.5 176.5t65 255v4q0 141 -66.5 255t-176.5 176.5 t-240 62.5t-239.5 -62.5t-174.5 -176.5t-65 -255v-4z" />
<glyph unicode="e" horiz-adv-x="1286" d="M147 508v4q0 113 40.5 213t109.5 171t161.5 112t194.5 41q94 0 175 -28.5t138 -77.5t97.5 -114.5t60 -139t19.5 -150.5v-9h-950v-16v-4q0 -105 38.5 -198.5t102.5 -157.5t148 -101t173 -37q136 0 249 68.5t175 187.5l35 -24q-67 -126 -189.5 -199.5t-271.5 -73.5 q-135 0 -251 68.5t-185.5 191.5t-69.5 273zM195 569h901q-4 117 -57.5 216t-155.5 161t-232 62q-172 0 -304 -123.5t-152 -315.5z" />
<glyph unicode="f" horiz-adv-x="696" d="M72 985v39h161v233q0 121 58 182.5t166 61.5q76 0 143 -16v-41q-53 16 -143 16q-87 0 -134 -51t-47 -147v-238h324v-39h-324v-985h-43v985h-161z" />
<glyph unicode="g" horiz-adv-x="1357" d="M156 508v4q0 113 40.5 213t109.5 171t161.5 112t194.5 41q96 0 180 -31t140.5 -80t93 -105.5t48.5 -113.5v305h43v-1051q0 -199 -142 -324.5t-363 -125.5q-153 0 -274.5 65t-186.5 187l35 24q60 -116 171.5 -175.5t251.5 -59.5q199 0 332 114t133 297v318 q-38 -131 -167 -224.5t-295 -93.5q-135 0 -251 68.5t-185.5 191.5t-69.5 273zM201 510q0 -105 38.5 -198.5t102.5 -157.5t148.5 -101t173.5 -37q92 0 174 31.5t146.5 91t102 155.5t37.5 216v4q0 120 -38.5 216t-104 155.5t-148 91t-174.5 31.5q-121 0 -225.5 -62.5 t-168.5 -177t-64 -254.5v-4z" />
<glyph unicode="h" horiz-adv-x="1265" d="M211 0v1495h43v-752q10 39 31.5 79.5t57.5 82t81.5 73t108.5 51.5t133 20q194 0 304.5 -127t110.5 -342v-580h-43v575q0 197 -98.5 315t-277.5 118q-170 0 -289 -128.5t-119 -312.5v-567h-43z" />
<glyph unicode="i" horiz-adv-x="534" d="M217 1300q0 21 15 36.5t36 15.5q20 0 34.5 -15.5t14.5 -36.5q0 -22 -14.5 -36.5t-34.5 -14.5q-22 0 -36.5 14.5t-14.5 36.5zM244 0v1024h43v-1024h-43z" />
<glyph unicode="j" horiz-adv-x="514" d="M14 -293q27 -8 74 -8q72 0 116 52t44 147v1126h43v-1122q0 -120 -54.5 -182t-148.5 -62q-41 0 -74 8v41zM217 1300q0 21 15 36.5t36 15.5q20 0 34.5 -15.5t14.5 -36.5q0 -22 -14.5 -36.5t-34.5 -14.5q-22 0 -36.5 14.5t-14.5 36.5z" />
<glyph unicode="k" horiz-adv-x="1071" d="M190 0v1495h43v-1149l627 678h55l-428 -467l443 -557h-58l-413 526l-226 -243v-283h-43z" />
<glyph unicode="l" horiz-adv-x="468" d="M213 0v1495h43v-1495h-43z" />
<glyph unicode="m" horiz-adv-x="1890" d="M190 0v1024h43v-242q25 105 124.5 186t230.5 81q146 0 236 -78t118 -223q48 133 153 217t248 84q176 0 270.5 -114t94.5 -317v-618h-43v623q0 191 -90 288t-234 97q-128 0 -228 -80t-144 -205l-19 -49q2 -18 2 -56v-618h-43v623q0 191 -89.5 288t-233.5 97 q-138 0 -245.5 -111t-107.5 -279v-618h-43z" />
<glyph unicode="n" horiz-adv-x="1224" d="M190 0v1024h43v-260q13 49 44.5 97.5t79.5 91.5t118 69.5t150 26.5q196 0 302.5 -109t106.5 -319v-621h-43v616q0 192 -95 292t-275 100q-159 0 -273.5 -119.5t-114.5 -300.5v-588h-43z" />
<glyph unicode="o" horiz-adv-x="1318" d="M133 508v4q0 229 152 383t374 154q145 0 265.5 -68.5t191 -191t70.5 -273.5v-4q0 -229 -152.5 -383t-374.5 -154q-221 0 -373.5 152.5t-152.5 380.5zM178 510q0 -141 66.5 -255t177 -176.5t240.5 -62.5t239.5 62.5t174.5 176.5t65 255v4q0 141 -66.5 255t-177 176.5 t-240.5 62.5t-239.5 -62.5t-174.5 -176.5t-65 -255v-4z" />
<glyph unicode="p" horiz-adv-x="1390" d="M184 -471v1495h43v-291q60 143 191 229.5t293 86.5q222 0 374 -154t152 -383v-4q0 -228 -152.5 -380.5t-373.5 -152.5q-163 0 -293 87t-191 231v-764h-43zM229 510q0 -213 140 -353.5t340 -140.5q130 0 240 62.5t176.5 176.5t66.5 255v4q0 141 -65 255t-174.5 176.5 t-239.5 62.5t-240.5 -62.5t-177 -176.5t-66.5 -255v-4z" />
<glyph unicode="q" horiz-adv-x="1382" d="M145 508v4q0 229 152.5 383t374.5 154q162 0 292.5 -86t190.5 -230v291h43v-1495h-43v764q-61 -144 -191 -231t-292 -87q-145 0 -265.5 68.5t-191 191t-70.5 273.5zM190 510q0 -141 66.5 -255t177 -176.5t240.5 -62.5t239.5 62.5t174.5 176.5t65 255v4q0 141 -66.5 255 t-176.5 176.5t-240 62.5q-200 0 -340 -140.5t-140 -353.5v-4z" />
<glyph unicode="r" horiz-adv-x="768" d="M190 0v1024h43v-328q18 66 54.5 127.5t88.5 113t124 82.5q70 30 150 30h5v-41h-10q-74 0 -141 -30.5t-115 -81t-84 -113t-54 -128t-18 -125.5v-530h-43z" />
<glyph unicode="s" horiz-adv-x="1013" d="M123 131l16 43q30 -31 78.5 -63.5t137.5 -63.5t182 -31q148 0 228.5 67t80.5 171q0 74 -60 136t-219 122q-185 70 -267 141q-80 69 -79 154q1 61 29 109q28 46 72.5 74.5t99 42.5t113.5 14q91 0 171.5 -29.5t116.5 -59.5l-8 -43q-133 91 -280 91q-49 0 -94.5 -11 t-85.5 -33t-64.5 -61.5t-24.5 -91.5q0 -139 316 -256q177 -66 243 -135.5t66 -157.5q0 -131 -93.5 -208t-262.5 -77q-129 0 -240 47.5t-172 108.5z" />
<glyph unicode="t" horiz-adv-x="763" d="M104 985v39h162v354h43v-354h334v-39h-334v-754q0 -111 50 -156.5t149 -45.5q70 0 135 16v-43q-69 -14 -135 -14q-119 0 -180.5 55.5t-61.5 183.5v758h-162z" />
<glyph unicode="u" horiz-adv-x="1138" d="M143 446v578h45v-578q0 -77 13.5 -140.5t35.5 -107t53.5 -76.5t64.5 -52.5t72.5 -31.5t73.5 -16t70 -4q54 0 101 8.5t100 35.5t90.5 72t62.5 124.5t25 185.5v580h45v-578q0 -114 -27.5 -200.5t-69.5 -136.5t-101 -81t-113 -41t-115 -10q-60 0 -113.5 10t-113 40.5 t-101.5 80.5t-70 136.5t-28 201.5z" />
<glyph unicode="v" horiz-adv-x="1060" d="M102 1024h48l382 -979l381 979h45l-405 -1032h-41z" />
<glyph unicode="w" horiz-adv-x="1490" d="M82 1024h45l289 -967l313 973h35l311 -973l291 967h43l-315 -1032h-43l-306 971l-307 -971h-41z" />
<glyph unicode="x" d="M111 0l446 575l-348 449h55l320 -414l319 414h55l-346 -449l445 -575h-56l-417 541l-418 -541h-55z" />
<glyph unicode="y" horiz-adv-x="1150" d="M133 -266l35 24q58 -97 163 -145.5t220 -48.5q166 0 274.5 113.5t108.5 297.5v228q-29 -66 -74 -112.5t-98 -70t-102 -33.5t-99 -10q-37 0 -73 5t-78.5 18.5t-79 35t-71.5 58.5t-59.5 84.5t-39.5 116t-15 151.5v578h45v-578q0 -77 14 -140.5t36.5 -107t54.5 -76.5 t65 -52.5t71 -31.5t69 -16t63 -4q47 0 91.5 8.5t97 36t90.5 72t64 124t26 185.5v580h45v-1051q0 -200 -117.5 -325t-306.5 -125q-128 0 -242.5 53.5t-177.5 157.5z" />
<glyph unicode="z" horiz-adv-x="1077" d="M156 0v25l698 960h-674v39h738v-25l-699 -960h703v-39h-766z" />
<glyph unicode="{" horiz-adv-x="1044" d="M162 567v41h41q68 0 119 22t80 61t43 86t14 102v163q0 42 1 69t5 62.5t11 58.5t20 51t32.5 47.5t47 40.5t64 36.5t84.5 30t107 26.5l9 -39q-68 -13 -120 -31t-87.5 -37t-60 -47.5t-38 -53.5t-20.5 -64t-8.5 -70t-1.5 -80v-163q0 -122 -57 -200.5t-171 -90.5 q114 -12 171 -90.5t57 -200.5v-164q0 -49 1.5 -80t8.5 -70t20.5 -64t38 -53.5t60 -47.5t87.5 -37t120 -31l-9 -39q-59 12 -107 26.5t-84.5 30t-64 36.5t-47 40.5t-32.5 47.5t-20 51t-11 58.5t-5 62.5t-1 69v164q0 55 -14 102t-43 85.5t-80 60.5t-119 22h-41z" />
<glyph unicode="|" horiz-adv-x="669" d="M315 -262v1896h39v-1896h-39z" />
<glyph unicode="}" horiz-adv-x="1044" d="M205 -250q68 13 120 31t87.5 37t60 47.5t38 53.5t20.5 64t8.5 70t1.5 80v164q0 122 56.5 200.5t170.5 90.5q-114 12 -170.5 90.5t-56.5 200.5v163q0 49 -1.5 80t-8.5 70t-20.5 64t-38 53.5t-60 47.5t-87.5 37t-120 31l8 39q59 -12 107 -26.5t84.5 -30t64.5 -36.5 t47 -40.5t32 -47.5t20.5 -51t11.5 -58.5t5 -62.5t1 -69v-163q0 -55 14 -102t43 -86t80 -61t119 -22h41v-41h-41q-68 0 -119 -22t-80 -60.5t-43 -85.5t-14 -102v-164q0 -42 -1 -69t-5 -62.5t-11.5 -58.5t-20.5 -51t-32 -47.5t-47 -40.5t-64.5 -36.5t-84.5 -30t-107 -26.5z " />
<glyph unicode="~" horiz-adv-x="1044" d="M244 524q34 164 147 164q35 0 87 -30t101 -59.5t78 -29.5q39 0 67 28.5t50 100.5l27 -6q-34 -164 -148 -164q-35 0 -87 30t-101 59.5t-78 29.5q-39 0 -67 -28.5t-50 -100.5z" />
<glyph unicode="&#xa1;" horiz-adv-x="540" d="M272 1391q0 22 15 36.5t37 14.5q20 0 34.5 -14.5t14.5 -36.5q0 -21 -14.5 -36.5t-34.5 -15.5q-21 0 -36.5 15.5t-15.5 36.5zM299 8v221l6 838h33l6 -838v-221h-45z" />
<glyph unicode="&#xa2;" horiz-adv-x="1292" d="M156 692v4q0 216 137.5 367t343.5 168v199h39v-197h6q141 0 259.5 -66t188.5 -180l-34 -31q-65 109 -176 172.5t-240 63.5h-4v-991h8q136 0 249 68.5t175 187.5l35 -25q-67 -126 -189.5 -199t-271.5 -73h-6v-217h-39v219q-206 17 -343.5 165.5t-137.5 364.5zM201 694 q0 -199 126 -336t310 -155v987q-185 -15 -310.5 -153t-125.5 -339v-4z" />
<glyph unicode="&#xa3;" horiz-adv-x="1370" d="M205 0v27l186 16v610h-186v41h186v240q0 264 137 401q119 119 299 119q125 0 224 -61.5t168 -165.5l-37 -25q-140 211 -357 211q-160 0 -266 -106q-56 -56 -89.5 -150.5t-33.5 -216.5v-246h619v-41h-619v-612h768v-41h-999z" />
<glyph unicode="&#xa4;" horiz-adv-x="1202" d="M72 528q0 223 155 375q153 156 375 156q220 0 373 -156q149 -149 155 -360v-15q0 -4 -1 -12.5t-1 -13.5q-6 -202 -153 -346q-153 -156 -373 -156q-222 0 -375 156q-155 152 -155 372zM391 530q0 -89 62 -151q65 -62 149 -62q90 0 152 62q61 61 61 151q0 87 -61 148 q-60 63 -152 63q-86 0 -149 -63q-62 -62 -62 -148z" />
<glyph unicode="&#xa5;" horiz-adv-x="1406" d="M117 1434h57l533 -795l530 795h53l-540 -799h397v-41h-420v-307h420v-41h-420v-246h-45v246h-422v41h422v307h-422v41h397z" />
<glyph unicode="&#xa6;" horiz-adv-x="669" d="M315 -262v668h39v-668h-39zM315 967v667h39v-667h-39z" />
<glyph unicode="&#xa7;" horiz-adv-x="1107" d="M184 27v41q171 -68 314 -68q172 0 269 58t97 161q0 64 -29 104t-98 78q-64 30 -202 84q-192 68 -263 131.5t-71 159.5q0 93 59.5 164.5t167.5 103.5q-103 42 -153 100t-50 142q0 107 96 168.5t265 61.5q173 0 311 -54l-16 -35q-149 54 -297 54q-141 0 -224.5 -53 t-83.5 -140q0 -30 8.5 -55.5t19.5 -45t34 -38t40.5 -30t50.5 -26t53 -22.5t59 -22t57 -21q184 -58 255 -123t71 -162q0 -175 -213 -282q104 -47 151 -99t47 -135q0 -125 -106.5 -194.5t-300.5 -69.5q-163 0 -318 64zM252 786q0 -72 36 -117.5t120 -84.5q62 -33 268 -107 q91 41 144.5 109t53.5 143q0 48 -22.5 87.5t-46.5 64t-88 53.5t-97.5 41t-124.5 41q-20 7 -30 10q-92 -22 -152.5 -88.5t-60.5 -151.5z" />
<glyph unicode="&#xa8;" d="M379 1317q0 21 15 36t36 15q20 0 34.5 -15.5t14.5 -35.5q0 -22 -14.5 -36.5t-34.5 -14.5q-22 0 -36.5 14.5t-14.5 36.5zM707 1317q0 21 15 36t36 15q20 0 34.5 -15.5t14.5 -35.5q0 -22 -14.5 -36.5t-34.5 -14.5q-22 0 -36.5 14.5t-14.5 36.5z" />
<glyph unicode="&#xa9;" horiz-adv-x="1843" d="M180 715v4q0 150 58.5 287t158 236t237 157.5t288.5 58.5t288.5 -58.5t236.5 -157.5t157.5 -236t58.5 -287v-4q0 -150 -58.5 -287t-157.5 -236.5t-236.5 -158t-288.5 -58.5t-288.5 58.5t-237 158t-158 236.5t-58.5 287zM217 715q0 -190 94.5 -352.5t257 -257.5t353.5 -95 q143 0 273.5 56t225 151t150 225t55.5 273v4q0 143 -55.5 273t-150 224.5t-225 150.5t-273.5 56t-273.5 -56t-225 -150.5t-150.5 -224.5t-56 -273v-4zM565 723v4q0 161 106.5 275t266.5 114q97 0 163 -32t126 -89l-29 -28q-112 112 -262 112q-140 0 -235 -103.5t-95 -246.5 v-4q0 -143 96 -247.5t236 -104.5q152 0 264 121l29 -27q-57 -61 -127 -96t-168 -35q-159 0 -265 114t-106 273z" />
<glyph unicode="&#xaa;" horiz-adv-x="864" d="M133 1143v4q0 129 86 217t211 88q85 0 155 -42t109 -114v134h37v-576h-37v143q-38 -72 -108 -113.5t-156 -41.5q-125 0 -211 86.5t-86 214.5zM170 1145q0 -115 77.5 -188.5t184.5 -73.5q111 0 185.5 73t74.5 189v2q0 116 -77.5 193t-186.5 77q-106 0 -182 -77t-76 -193 v-2zM207 651v31h506v-31h-506z" />
<glyph unicode="&#xab;" horiz-adv-x="1089" d="M162 516v12l360 420l25 -20l-336 -406l336 -405l-25 -21zM510 516v12l360 420l25 -20l-336 -406l336 -405l-25 -21z" />
<glyph unicode="&#xad;" horiz-adv-x="937" d="M215 696v43h508v-43h-508z" />
<glyph unicode="&#xae;" horiz-adv-x="1843" d="M180 715v4q0 150 58.5 287t158 236t237 157.5t288.5 58.5t288.5 -58.5t236.5 -157.5t157.5 -236t58.5 -287v-4q0 -150 -58.5 -287t-157.5 -236.5t-236.5 -158t-288.5 -58.5t-288.5 58.5t-237 158t-158 236.5t-58.5 287zM217 715q0 -190 94.5 -352.5t257 -257.5t353.5 -95 q143 0 273.5 56t225 151t150 225t55.5 273v4q0 143 -55.5 273t-150 224.5t-225 150.5t-273.5 56t-273.5 -56t-225 -150.5t-150.5 -224.5t-56 -273v-4zM655 362v750h312q120 0 194 -56t74 -153v-4q0 -93 -61 -148t-168 -67l247 -322h-49l-243 318h-265v-318h-41zM696 717h265 q110 0 172.5 48t62.5 132v4q0 82 -62 128t-171 46h-267v-358z" />
<glyph unicode="&#xaf;" d="M307 1272v39h553v-39h-553z" />
<glyph unicode="&#xb0;" horiz-adv-x="1024" d="M219 1157v4q0 117 87 201t206 84t206 -84t87 -201v-4q0 -117 -87 -201t-206 -84t-206 84t-87 201zM260 1157q0 -101 74.5 -174.5t177.5 -73.5t177.5 73.5t74.5 174.5v4q0 101 -74.5 174.5t-177.5 73.5t-177.5 -73.5t-74.5 -174.5v-4z" />
<glyph unicode="&#xb1;" horiz-adv-x="1458" d="M213 -125h1135v-41h-1135v41zM354 662v36h408v430h41v-430h407v-36h-407v-431h-41v431h-408z" />
<glyph unicode="&#xb4;" d="M535 1311l213 252h63l-219 -252h-57z" />
<glyph unicode="&#xb6;" horiz-adv-x="1081" d="M178 999v5q0 198 145 314t375 116h99v-1434h-45v567h-23q-154 0 -278 49.5t-198.5 149t-74.5 233.5z" />
<glyph unicode="&#xb7;" horiz-adv-x="479" d="M203 545v106h73v-106h-73z" />
<glyph unicode="&#xb8;" d="M410 -317q100 -2 154 25.5t54 82.5q0 51 -35 72t-128 24l22 103h39l-14 -72q153 -10 153 -127q0 -68 -61 -105.5t-176 -37.5z" />
<glyph unicode="&#xba;" horiz-adv-x="854" d="M133 1143v4q0 123 83.5 210t211.5 87t210.5 -86t82.5 -209v-4q0 -122 -83.5 -209.5t-211.5 -87.5t-210.5 86.5t-82.5 208.5zM143 651v31h568v-31h-568zM174 1145q0 -108 73.5 -184t182.5 -76q108 0 179 75t71 183v4q0 108 -73 184t-181 76q-109 0 -180.5 -75.5 t-71.5 -182.5v-4z" />
<glyph unicode="&#xbb;" horiz-adv-x="1089" d="M195 117l335 405l-335 406l24 20l361 -420v-12l-361 -420zM543 117l336 405l-336 406l24 20l361 -420v-12l-361 -420z" />
<glyph unicode="&#xbc;" horiz-adv-x="1585" d="M57 1315l305 119h37v-859h-43v811l-284 -108zM246 -41l901 1493h47l-901 -1493h-47zM850 215v31l407 614h35v-604h140v-41h-140v-215h-41v215h-401zM907 256h344v518z" />
<glyph unicode="&#xbd;" horiz-adv-x="1619" d="M92 1315l305 119h37v-859h-43v811l-285 -108zM236 -41l901 1493h47l-901 -1493h-47zM913 0v29l336 370q83 93 110 146.5t27 103.5q0 76 -55 129t-147 53q-146 0 -223 -174l-37 25q39 87 105 138.5t157 51.5q111 0 177.5 -63.5t66.5 -157.5v-2q0 -61 -29 -118.5 t-123 -161.5l-293 -328h481v-41h-553z" />
<glyph unicode="&#xbe;" horiz-adv-x="1837" d="M154 694l34 31q105 -125 258 -125q99 0 168.5 67t69.5 169v2q0 117 -78.5 178t-214.5 61h-33l-16 25l268 293h-405v39h471v-31l-264 -285q144 -6 229.5 -79.5t85.5 -198.5v-2q0 -120 -83 -198.5t-200 -78.5q-171 0 -290 133zM492 -41l901 1493h47l-901 -1493h-47z M1102 215v31l407 614h35v-604h139v-41h-139v-215h-41v215h-401zM1159 256h344v518z" />
<glyph unicode="&#xbf;" horiz-adv-x="1165" d="M133 365v4q0 89 38.5 163t101 121.5t133 76.5t143.5 38v291h37l2 -322l-6 -6q-81 -7 -153 -34t-128.5 -71.5t-89.5 -110.5t-33 -144v-4q0 -144 102 -244t244 -100q112 0 212 66.5t147 172.5l37 -24q-57 -116 -162.5 -186t-235.5 -70q-163 0 -276 111.5t-113 271.5z M510 1382q0 22 14.5 37t34.5 15q22 0 36.5 -15t14.5 -37q0 -21 -15 -36t-36 -15q-20 0 -34.5 15.5t-14.5 35.5z" />
<glyph unicode="&#xc0;" horiz-adv-x="1460" d="M102 0l609 1444h39l608 -1444h-49l-185 430h-790l-184 -430h-48zM354 471h750l-375 913zM410 1972h63l213 -252h-57z" />
<glyph unicode="&#xc1;" horiz-adv-x="1460" d="M102 0l609 1444h39l608 -1444h-49l-185 430h-790l-184 -430h-48zM354 471h750l-375 913zM586 1720l213 252h63l-219 -252h-57z" />
<glyph unicode="&#xc2;" horiz-adv-x="1460" d="M102 0l609 1444h39l608 -1444h-49l-185 430h-790l-184 -430h-48zM354 471h750l-375 913zM522 1722l205 209h76l207 -209h-62l-184 183l-180 -183h-62z" />
<glyph unicode="&#xc3;" horiz-adv-x="1460" d="M102 0l609 1444h39l608 -1444h-49l-185 430h-790l-184 -430h-48zM354 471h750l-375 913zM465 1634q0 76 47.5 128.5t118.5 52.5q35 0 74.5 -20.5t68 -45.5t64.5 -45.5t67 -20.5q53 0 84 31.5t31 89.5h51q0 -75 -47.5 -120.5t-118.5 -45.5q-37 0 -76.5 20t-67 44.5 t-63.5 44.5t-67 20q-51 0 -84 -36.5t-33 -96.5h-49z" />
<glyph unicode="&#xc4;" horiz-adv-x="1460" d="M102 0l609 1444h39l608 -1444h-49l-185 430h-790l-184 -430h-48zM354 471h750l-375 913zM453 1772q0 21 15 36t36 15q20 0 34.5 -15.5t14.5 -35.5q0 -22 -14.5 -37t-34.5 -15q-22 0 -36.5 15t-14.5 37zM862 1772q0 21 15 36t36 15q20 0 35 -15.5t15 -35.5q0 -22 -15 -37 t-35 -15q-22 0 -36.5 15t-14.5 37z" />
<glyph unicode="&#xc5;" horiz-adv-x="1460" d="M102 0l609 1444h39l608 -1444h-49l-185 430h-790l-184 -430h-48zM354 471h750l-375 913zM621 1729q0 44 31 75t75 31t75.5 -31t31.5 -75t-31.5 -75.5t-75.5 -31.5t-75 31.5t-31 75.5zM662 1731q0 -28 19 -48t46 -20q28 0 47 20t19 48q0 27 -19.5 46t-46.5 19t-46 -19 t-19 -46z" />
<glyph unicode="&#xc6;" horiz-adv-x="2203" d="M184 0l793 1434h954v-41h-895v-549h828v-41h-828v-762h926v-41h-971v430h-526l-234 -430h-47zM485 471h506v895z" />
<glyph unicode="&#xc7;" horiz-adv-x="1531" d="M154 715v4q0 118 27.5 227t84 202t135.5 162.5t188 108.5t236 39q203 0 352 -94.5t232 -257.5l-41 -16q-76 150 -218 238.5t-327 88.5q-117 0 -218.5 -37t-175 -102t-126 -152.5t-78.5 -190.5t-26 -214v-4q0 -139 43 -264.5t121 -223t198.5 -155.5t265.5 -58 q188 0 328.5 89.5t216.5 242.5l37 -20q-83 -163 -232.5 -258t-351.5 -95h-20l-12 -57q153 -10 153 -127q0 -68 -61 -105.5t-176 -37.5l-9 35q100 -2 154.5 25.5t54.5 82.5q0 51 -35.5 72t-128.5 24l21 90q-145 11 -262.5 75.5t-193 165.5t-116 228.5t-40.5 268.5z" />
<glyph unicode="&#xc8;" horiz-adv-x="1224" d="M190 0v1434h889v-41h-843v-549h704v-41h-704v-762h843v-41h-889zM334 1972h63l213 -252h-57z" />
<glyph unicode="&#xc9;" horiz-adv-x="1224" d="M190 0v1434h889v-41h-843v-549h704v-41h-704v-762h843v-41h-889zM510 1720l213 252h63l-219 -252h-57z" />
<glyph unicode="&#xca;" horiz-adv-x="1224" d="M190 0v1434h889v-41h-843v-549h704v-41h-704v-762h843v-41h-889zM446 1722l205 209h76l207 -209h-62l-184 183l-180 -183h-62z" />
<glyph unicode="&#xcb;" horiz-adv-x="1224" d="M190 0v1434h889v-41h-843v-549h704v-41h-704v-762h843v-41h-889zM377 1772q0 21 15 36t36 15q20 0 34.5 -15.5t14.5 -35.5q0 -22 -14.5 -37t-34.5 -15q-22 0 -36.5 15t-14.5 37zM786 1772q0 20 15 35.5t37 15.5q20 0 34.5 -15.5t14.5 -35.5q0 -22 -14.5 -37t-34.5 -15 q-22 0 -37 15t-15 37z" />
<glyph unicode="&#xcc;" horiz-adv-x="581" d="M61 1972h64l213 -252h-57zM268 0v1434h45v-1434h-45z" />
<glyph unicode="&#xcd;" horiz-adv-x="581" d="M174 1720l213 252h64l-220 -252h-57zM268 0v1434h45v-1434h-45z" />
<glyph unicode="&#xce;" horiz-adv-x="581" d="M111 1722l204 209h76l207 -209h-61l-185 183l-180 -183h-61zM268 0v1434h45v-1434h-45z" />
<glyph unicode="&#xcf;" horiz-adv-x="581" d="M41 1772q0 21 15 36t36 15q20 0 34.5 -15.5t14.5 -35.5q0 -22 -14.5 -37t-34.5 -15q-22 0 -36.5 15t-14.5 37zM268 0v1434h45v-1434h-45zM451 1772q0 21 15 36t36 15q20 0 34.5 -15.5t14.5 -35.5q0 -22 -14.5 -37t-34.5 -15q-22 0 -36.5 15t-14.5 37z" />
<glyph unicode="&#xd0;" horiz-adv-x="1476" d="M41 799v43h149v592h461q150 0 267 -36t194 -99t127 -154.5t71 -196t21 -229.5v-4q0 -125 -21 -229.5t-71 -196t-127 -154.5t-194 -99t-267 -36h-461v799h-149zM236 41h417q633 0 633 672v4q0 118 -19.5 215.5t-65.5 184.5t-118 147t-182 94.5t-252 34.5h-413v-551h313 v-43h-313v-758z" />
<glyph unicode="&#xd1;" horiz-adv-x="1511" d="M190 0v1434h39l1049 -1360v1360h43v-1434h-39l-1049 1360v-1360h-43zM489 1634q0 76 47.5 128.5t118.5 52.5q35 0 74.5 -20.5t68.5 -45.5t65 -45.5t67 -20.5q52 0 83 31t31 90h52q0 -75 -47.5 -120.5t-118.5 -45.5q-37 0 -76.5 20t-67.5 44.5t-64 44.5t-67 20 q-51 0 -83.5 -36.5t-32.5 -96.5h-50z" />
<glyph unicode="&#xd2;" horiz-adv-x="1630" d="M123 715v4q0 118 28 227t85 202t138.5 162t194.5 108.5t246 39.5t246 -39.5t194.5 -108.5t138.5 -162t85 -202t28 -227v-4q0 -149 -45 -281t-129.5 -235t-218.5 -163.5t-299 -60.5t-299 60.5t-218.5 163.5t-129.5 235t-45 281zM168 717q0 -111 27 -214t81 -191.5 t130.5 -154.5t182 -103.5t228.5 -37.5t228.5 37t181 102t129.5 153t80 191t26 214v4q0 111 -27 214t-81 191t-130.5 154t-182 103.5t-228.5 37.5t-228.5 -37t-181 -102t-129.5 -152.5t-80 -190.5t-26 -214v-4zM494 1972h63l213 -252h-57z" />
<glyph unicode="&#xd3;" horiz-adv-x="1630" d="M123 715v4q0 118 28 227t85 202t138.5 162t194.5 108.5t246 39.5t246 -39.5t194.5 -108.5t138.5 -162t85 -202t28 -227v-4q0 -149 -45 -281t-129.5 -235t-218.5 -163.5t-299 -60.5t-299 60.5t-218.5 163.5t-129.5 235t-45 281zM168 717q0 -111 27 -214t81 -191.5 t130.5 -154.5t182 -103.5t228.5 -37.5t228.5 37t181 102t129.5 153t80 191t26 214v4q0 111 -27 214t-81 191t-130.5 154t-182 103.5t-228.5 37.5t-228.5 -37t-181 -102t-129.5 -152.5t-80 -190.5t-26 -214v-4zM670 1720l213 252h63l-219 -252h-57z" />
<glyph unicode="&#xd4;" horiz-adv-x="1630" d="M123 715v4q0 118 28 227t85 202t138.5 162t194.5 108.5t246 39.5t246 -39.5t194.5 -108.5t138.5 -162t85 -202t28 -227v-4q0 -149 -45 -281t-129.5 -235t-218.5 -163.5t-299 -60.5t-299 60.5t-218.5 163.5t-129.5 235t-45 281zM168 717q0 -111 27 -214t81 -191.5 t130.5 -154.5t182 -103.5t228.5 -37.5t228.5 37t181 102t129.5 153t80 191t26 214v4q0 111 -27 214t-81 191t-130.5 154t-182 103.5t-228.5 37.5t-228.5 -37t-181 -102t-129.5 -152.5t-80 -190.5t-26 -214v-4zM606 1722l205 209h76l207 -209h-62l-184 183l-180 -183h-62z " />
<glyph unicode="&#xd5;" horiz-adv-x="1630" d="M123 715v4q0 118 28 227t85 202t138.5 162t194.5 108.5t246 39.5t246 -39.5t194.5 -108.5t138.5 -162t85 -202t28 -227v-4q0 -149 -45 -281t-129.5 -235t-218.5 -163.5t-299 -60.5t-299 60.5t-218.5 163.5t-129.5 235t-45 281zM168 717q0 -111 27 -214t81 -191.5 t130.5 -154.5t182 -103.5t228.5 -37.5t228.5 37t181 102t129.5 153t80 191t26 214v4q0 111 -27 214t-81 191t-130.5 154t-182 103.5t-228.5 37.5t-228.5 -37t-181 -102t-129.5 -152.5t-80 -190.5t-26 -214v-4zM549 1634q0 76 47.5 128.5t118.5 52.5q35 0 74.5 -20.5 t68 -45.5t64.5 -45.5t67 -20.5q53 0 84 31.5t31 89.5h51q0 -75 -47.5 -120.5t-118.5 -45.5q-37 0 -76.5 20t-67 44.5t-63.5 44.5t-67 20q-51 0 -84 -36.5t-33 -96.5h-49z" />
<glyph unicode="&#xd6;" horiz-adv-x="1630" d="M123 715v4q0 118 28 227t85 202t138.5 162t194.5 108.5t246 39.5t246 -39.5t194.5 -108.5t138.5 -162t85 -202t28 -227v-4q0 -149 -45 -281t-129.5 -235t-218.5 -163.5t-299 -60.5t-299 60.5t-218.5 163.5t-129.5 235t-45 281zM168 717q0 -111 27 -214t81 -191.5 t130.5 -154.5t182 -103.5t228.5 -37.5t228.5 37t181 102t129.5 153t80 191t26 214v4q0 111 -27 214t-81 191t-130.5 154t-182 103.5t-228.5 37.5t-228.5 -37t-181 -102t-129.5 -152.5t-80 -190.5t-26 -214v-4zM537 1772q0 21 15 36t36 15q20 0 34.5 -15.5t14.5 -35.5 q0 -22 -14.5 -37t-34.5 -15q-22 0 -36.5 15t-14.5 37zM946 1772q0 21 15 36t36 15q20 0 35 -15.5t15 -35.5q0 -22 -15 -37t-35 -15q-22 0 -36.5 15t-14.5 37z" />
<glyph unicode="&#xd7;" horiz-adv-x="1112" d="M143 283l367 366l-367 367l31 31l367 -367l397 397l31 -30l-398 -398l398 -397l-31 -31l-397 397l-367 -366z" />
<glyph unicode="&#xd8;" horiz-adv-x="1630" d="M123 715v4q0 118 28 227t85 202t138.5 162t194.5 108.5t246 39.5q183 0 332 -76l149 293h47l-159 -313q156 -96 239.5 -267t83.5 -376v-4q0 -149 -45 -281t-129.5 -235t-218.5 -163.5t-299 -60.5q-166 0 -303 62l-131 -258h-47l141 276q-170 91 -261 268t-91 392z M168 717q0 -199 85 -365.5t243 -255.5l630 1245q-136 76 -313 76q-123 0 -228.5 -37t-181 -102t-129.5 -152.5t-80 -190.5t-26 -214v-4zM532 78q130 -62 285 -62q123 0 228.5 37t181 102t129.5 153t80 191t26 214v4q0 188 -77.5 349.5t-221.5 254.5z" />
<glyph unicode="&#xd9;" horiz-adv-x="1540" d="M190 635v799h46v-799q0 -301 145.5 -459t390.5 -158q248 0 390.5 157t142.5 458v801h45v-799q0 -320 -156.5 -489t-423.5 -169q-129 0 -235 41.5t-183 122t-119.5 206.5t-42.5 288zM465 1972h63l213 -252h-57z" />
<glyph unicode="&#xda;" horiz-adv-x="1540" d="M190 635v799h46v-799q0 -301 145.5 -459t390.5 -158q248 0 390.5 157t142.5 458v801h45v-799q0 -320 -156.5 -489t-423.5 -169q-129 0 -235 41.5t-183 122t-119.5 206.5t-42.5 288zM641 1720l213 252h64l-220 -252h-57z" />
<glyph unicode="&#xdb;" horiz-adv-x="1540" d="M190 635v799h46v-799q0 -301 145.5 -459t390.5 -158q248 0 390.5 157t142.5 458v801h45v-799q0 -320 -156.5 -489t-423.5 -169q-129 0 -235 41.5t-183 122t-119.5 206.5t-42.5 288zM578 1722l204 209h76l207 -209h-61l-185 183l-180 -183h-61z" />
<glyph unicode="&#xdc;" horiz-adv-x="1540" d="M190 635v799h46v-799q0 -301 145.5 -459t390.5 -158q248 0 390.5 157t142.5 458v801h45v-799q0 -320 -156.5 -489t-423.5 -169q-129 0 -235 41.5t-183 122t-119.5 206.5t-42.5 288zM508 1772q0 21 15 36t36 15q20 0 34.5 -15.5t14.5 -35.5q0 -22 -14.5 -37t-34.5 -15 q-22 0 -36.5 15t-14.5 37zM918 1772q0 21 15 36t36 15q20 0 34.5 -15.5t14.5 -35.5q0 -22 -14.5 -37t-34.5 -15q-22 0 -36.5 15t-14.5 37z" />
<glyph unicode="&#xdd;" horiz-adv-x="1214" d="M82 1434h53l475 -904l469 904h54l-502 -957v-477h-45v477zM463 1720l213 252h63l-219 -252h-57z" />
<glyph unicode="&#xde;" horiz-adv-x="1351" d="M299 0v1434h45v-287h254q109 0 193 -19t139.5 -52.5t91 -83t50.5 -106.5t15 -128v-4q0 -92 -26.5 -162.5t-84 -124t-154.5 -81.5t-232 -28h-246v-358h-45zM344 399h246q242 0 347 91.5t105 261.5v4q0 80 -22.5 141t-72.5 109.5t-139 74t-214 25.5h-250v-707z" />
<glyph unicode="&#xdf;" horiz-adv-x="1372" d="M217 -6v948q0 172 47 300t145.5 202.5t239.5 77.5q189 -5 291 -94t102 -254q0 -232 -194 -312q148 -39 244 -156.5t96 -273.5q0 -206 -142.5 -334.5t-367.5 -128.5q-162 0 -287 78l21 37q111 -76 262 -76q212 0 340.5 119t128.5 305q0 169 -129.5 289t-319.5 117v47 q137 -3 220 68.5t83 209.5q0 147 -91 230.5t-253 83.5q-80 0 -146 -29t-111 -78.5t-76 -117t-45.5 -143t-14.5 -157.5v-958h-43z" />
<glyph unicode="&#xe0;" horiz-adv-x="1400" d="M133 508v4q0 229 152 383t374 154q162 0 293 -86.5t191 -229.5v291h43v-1024h-43v293q-61 -144 -191 -231t-293 -87q-221 0 -373.5 152.5t-152.5 380.5zM178 510q0 -141 66.5 -255t177 -176.5t240.5 -62.5t239.5 62.5t174.5 176.5t65 255v4q0 141 -66.5 255t-177 176.5 t-240.5 62.5t-239.5 -62.5t-174.5 -176.5t-65 -255v-4zM500 1563h73l213 -252h-67z" />
<glyph unicode="&#xe1;" horiz-adv-x="1400" d="M133 508v4q0 229 152 383t374 154q162 0 293 -86.5t191 -229.5v291h43v-1024h-43v293q-61 -144 -191 -231t-293 -87q-221 0 -373.5 152.5t-152.5 380.5zM178 510q0 -141 66.5 -255t177 -176.5t240.5 -62.5t239.5 62.5t174.5 176.5t65 255v4q0 141 -66.5 255t-177 176.5 t-240.5 62.5t-239.5 -62.5t-174.5 -176.5t-65 -255v-4zM537 1311l213 252h63l-219 -252h-57z" />
<glyph unicode="&#xe2;" horiz-adv-x="1400" d="M133 508v4q0 229 152 383t374 154q162 0 293 -86.5t191 -229.5v291h43v-1024h-43v293q-61 -144 -191 -231t-293 -87q-221 0 -373.5 152.5t-152.5 380.5zM178 510q0 -141 66.5 -255t177 -176.5t240.5 -62.5t239.5 62.5t174.5 176.5t65 255v4q0 141 -66.5 255t-177 176.5 t-240.5 62.5t-239.5 -62.5t-174.5 -176.5t-65 -255v-4zM444 1313l205 209h76l207 -209h-62l-184 182l-180 -182h-62z" />
<glyph unicode="&#xe3;" horiz-adv-x="1400" d="M133 508v4q0 229 152 383t374 154q162 0 293 -86.5t191 -229.5v291h43v-1024h-43v293q-61 -144 -191 -231t-293 -87q-221 0 -373.5 152.5t-152.5 380.5zM178 510q0 -141 66.5 -255t177 -176.5t240.5 -62.5t239.5 62.5t174.5 176.5t65 255v4q0 141 -66.5 255t-177 176.5 t-240.5 62.5t-239.5 -62.5t-174.5 -176.5t-65 -255v-4zM367 1225q0 76 47 128t118 52q35 0 74.5 -20.5t68.5 -45t65 -45t67 -20.5q53 0 84 31t31 90h51q0 -75 -47.5 -120.5t-118.5 -45.5q-37 0 -76.5 20t-67.5 44.5t-64 44.5t-67 20q-51 0 -83.5 -36.5t-32.5 -96.5h-49z" />
<glyph unicode="&#xe4;" horiz-adv-x="1400" d="M133 508v4q0 229 152 383t374 154q162 0 293 -86.5t191 -229.5v291h43v-1024h-43v293q-61 -144 -191 -231t-293 -87q-221 0 -373.5 152.5t-152.5 380.5zM178 510q0 -141 66.5 -255t177 -176.5t240.5 -62.5t239.5 62.5t174.5 176.5t65 255v4q0 141 -66.5 255t-177 176.5 t-240.5 62.5t-239.5 -62.5t-174.5 -176.5t-65 -255v-4zM430 1317q0 21 15 36t36 15q20 0 34.5 -15.5t14.5 -35.5q0 -22 -14.5 -36.5t-34.5 -14.5q-22 0 -36.5 14.5t-14.5 36.5zM758 1317q0 21 15 36t36 15q20 0 34.5 -15.5t14.5 -35.5q0 -22 -14.5 -36.5t-34.5 -14.5 q-22 0 -36.5 14.5t-14.5 36.5z" />
<glyph unicode="&#xe5;" horiz-adv-x="1400" d="M133 508v4q0 229 152 383t374 154q162 0 293 -86.5t191 -229.5v291h43v-1024h-43v293q-61 -144 -191 -231t-293 -87q-221 0 -373.5 152.5t-152.5 380.5zM178 510q0 -141 66.5 -255t177 -176.5t240.5 -62.5t239.5 62.5t174.5 176.5t65 255v4q0 141 -66.5 255t-177 176.5 t-240.5 62.5t-239.5 -62.5t-174.5 -176.5t-65 -255v-4zM575 1321q0 44 31.5 75t75.5 31t75 -31t31 -75t-31 -75.5t-75 -31.5t-75.5 31.5t-31.5 75.5zM616 1323q0 -28 19 -48t47 -20t47 20t19 48q0 27 -19.5 46.5t-46.5 19.5t-46.5 -19.5t-19.5 -46.5z" />
<glyph unicode="&#xe6;" horiz-adv-x="2324" d="M164 508v4q0 229 152 383t374 154q158 0 285.5 -81.5t191.5 -219.5v276h43v-297q59 145 185.5 233.5t279.5 88.5q94 0 175 -28.5t138 -77.5t97.5 -114.5t60 -139t19.5 -150.5v-9h-948q-1 -124 37.5 -224t104 -162t147.5 -95t171 -33q136 0 249 68.5t175 187.5l35 -24 q-67 -126 -189.5 -199.5t-271.5 -73.5q-153 0 -279.5 87.5t-185.5 232.5v-295h-43v279q-64 -138 -191.5 -221t-285.5 -83q-108 0 -205.5 40.5t-168 110.5t-111.5 169.5t-41 212.5zM203 510q0 -141 66.5 -255t176.5 -176.5t240 -62.5t239.5 62.5t174.5 176.5t65 255v4 q0 141 -66.5 255t-176.5 176.5t-240 62.5t-239.5 -62.5t-174.5 -176.5t-65 -255v-4zM1217 569h901q-4 117 -57.5 216t-155.5 161t-232 62q-172 0 -304 -123.5t-152 -315.5z" />
<glyph unicode="&#xe7;" horiz-adv-x="1275" d="M145 508v4q0 229 152.5 383t374.5 154q141 0 259.5 -66t188.5 -180l-35 -31q-65 109 -176 172.5t-239 63.5q-200 0 -340 -140.5t-140 -353.5v-4q0 -141 66.5 -255t177 -176.5t240.5 -62.5q136 0 249 68.5t175 187.5l35 -24q-67 -126 -189.5 -199.5t-271.5 -73.5 q-38 0 -56 2l-12 -59q154 -10 154 -127q0 -68 -61.5 -105.5t-176.5 -37.5l-8 35q100 -2 154.5 25.5t54.5 82.5q0 51 -35.5 72t-128.5 24l21 97q-189 31 -311 176t-122 348z" />
<glyph unicode="&#xe8;" horiz-adv-x="1286" d="M147 508v4q0 113 40.5 213t109.5 171t161.5 112t194.5 41q94 0 175 -28.5t138 -77.5t97.5 -114.5t60 -139t19.5 -150.5v-9h-950v-16v-4q0 -105 38.5 -198.5t102.5 -157.5t148 -101t173 -37q136 0 249 68.5t175 187.5l35 -24q-67 -126 -189.5 -199.5t-271.5 -73.5 q-135 0 -251 68.5t-185.5 191.5t-69.5 273zM195 569h901q-4 117 -57.5 216t-155.5 161t-232 62q-172 0 -304 -123.5t-152 -315.5zM471 1563h74l213 -252h-68z" />
<glyph unicode="&#xe9;" horiz-adv-x="1286" d="M147 508v4q0 113 40.5 213t109.5 171t161.5 112t194.5 41q94 0 175 -28.5t138 -77.5t97.5 -114.5t60 -139t19.5 -150.5v-9h-950v-16v-4q0 -105 38.5 -198.5t102.5 -157.5t148 -101t173 -37q136 0 249 68.5t175 187.5l35 -24q-67 -126 -189.5 -199.5t-271.5 -73.5 q-135 0 -251 68.5t-185.5 191.5t-69.5 273zM195 569h901q-4 117 -57.5 216t-155.5 161t-232 62q-172 0 -304 -123.5t-152 -315.5zM508 1311l213 252h63l-219 -252h-57z" />
<glyph unicode="&#xea;" horiz-adv-x="1286" d="M147 508v4q0 113 40.5 213t109.5 171t161.5 112t194.5 41q94 0 175 -28.5t138 -77.5t97.5 -114.5t60 -139t19.5 -150.5v-9h-950v-16v-4q0 -105 38.5 -198.5t102.5 -157.5t148 -101t173 -37q136 0 249 68.5t175 187.5l35 -24q-67 -126 -189.5 -199.5t-271.5 -73.5 q-135 0 -251 68.5t-185.5 191.5t-69.5 273zM195 569h901q-4 117 -57.5 216t-155.5 161t-232 62q-172 0 -304 -123.5t-152 -315.5zM416 1313l205 209h75l207 -209h-61l-185 182l-180 -182h-61z" />
<glyph unicode="&#xeb;" horiz-adv-x="1286" d="M147 508v4q0 113 40.5 213t109.5 171t161.5 112t194.5 41q94 0 175 -28.5t138 -77.5t97.5 -114.5t60 -139t19.5 -150.5v-9h-950v-16v-4q0 -105 38.5 -198.5t102.5 -157.5t148 -101t173 -37q136 0 249 68.5t175 187.5l35 -24q-67 -126 -189.5 -199.5t-271.5 -73.5 q-135 0 -251 68.5t-185.5 191.5t-69.5 273zM195 569h901q-4 117 -57.5 216t-155.5 161t-232 62q-172 0 -304 -123.5t-152 -315.5zM401 1317q0 21 15.5 36t36.5 15q20 0 34.5 -15.5t14.5 -35.5q0 -22 -14.5 -36.5t-34.5 -14.5q-22 0 -37 14.5t-15 36.5zM729 1317q0 21 15 36 t36 15q20 0 34.5 -15.5t14.5 -35.5q0 -22 -14.5 -36.5t-34.5 -14.5q-22 0 -36.5 14.5t-14.5 36.5z" />
<glyph unicode="&#xec;" horiz-adv-x="593" d="M115 1563h73l213 -252h-67zM274 0v1024h43v-1024h-43z" />
<glyph unicode="&#xed;" horiz-adv-x="593" d="M152 1311l213 252h63l-219 -252h-57zM274 0v1024h43v-1024h-43z" />
<glyph unicode="&#xee;" horiz-adv-x="593" d="M59 1313l205 209h76l207 -209h-62l-184 182l-180 -182h-62zM274 0v1024h43v-1024h-43z" />
<glyph unicode="&#xef;" horiz-adv-x="593" d="M45 1317q0 21 15 36t36 15q20 0 34.5 -15.5t14.5 -35.5q0 -22 -14.5 -36.5t-34.5 -14.5q-22 0 -36.5 14.5t-14.5 36.5zM274 0v1024h43v-1024h-43zM373 1317q0 21 15 36t36 15q20 0 34.5 -15.5t14.5 -35.5q0 -22 -14.5 -36.5t-34.5 -14.5q-22 0 -36.5 14.5t-14.5 36.5z " />
<glyph unicode="&#xf0;" horiz-adv-x="1372" d="M145 520q0 146 71 270t194.5 197.5t271.5 73.5q155 0 275.5 -75.5t191.5 -190.5q-49 216 -168 403t-358 449l-207 -224l-29 27l209 227q-141 152 -260 244l24 31q126 -95 265 -246l198 209l21 -25l-193 -213q111 -117 191.5 -214t156 -212t122 -224.5t74.5 -239 t28 -267.5q-1 -111 -44.5 -210.5t-116 -170.5t-172 -113t-208.5 -42q-148 0 -271.5 71t-194.5 194.5t-71 270.5zM184 520q0 -206 146 -352q142 -145 352 -145q100 0 192 38.5t160 106.5q148 145 148 352q0 100 -39 192t-109 162q-69 69 -160.5 107.5t-191.5 38.5 q-209 0 -352 -146q-69 -70 -107.5 -162t-38.5 -192z" />
<glyph unicode="&#xf1;" horiz-adv-x="1224" d="M190 0v1024h43v-260q13 49 44.5 97.5t79.5 91.5t118 69.5t150 26.5q196 0 302.5 -109t106.5 -319v-621h-43v616q0 192 -95 292t-275 100q-159 0 -273.5 -119.5t-114.5 -300.5v-588h-43zM287 1225q0 76 47.5 128t118.5 52q35 0 74.5 -20.5t68 -45t64.5 -45t67 -20.5 q53 0 84 31t31 90h51q0 -75 -47.5 -120.5t-118.5 -45.5q-37 0 -76.5 20t-67 44.5t-63.5 44.5t-67 20q-51 0 -84 -36.5t-33 -96.5h-49z" />
<glyph unicode="&#xf2;" horiz-adv-x="1318" d="M133 508v4q0 229 152 383t374 154q145 0 265.5 -68.5t191 -191t70.5 -273.5v-4q0 -229 -152.5 -383t-374.5 -154q-221 0 -373.5 152.5t-152.5 380.5zM178 510q0 -141 66.5 -255t177 -176.5t240.5 -62.5t239.5 62.5t174.5 176.5t65 255v4q0 141 -66.5 255t-177 176.5 t-240.5 62.5t-239.5 -62.5t-174.5 -176.5t-65 -255v-4zM475 1563h74l213 -252h-68z" />
<glyph unicode="&#xf3;" horiz-adv-x="1318" d="M133 508v4q0 229 152 383t374 154q145 0 265.5 -68.5t191 -191t70.5 -273.5v-4q0 -229 -152.5 -383t-374.5 -154q-221 0 -373.5 152.5t-152.5 380.5zM178 510q0 -141 66.5 -255t177 -176.5t240.5 -62.5t239.5 62.5t174.5 176.5t65 255v4q0 141 -66.5 255t-177 176.5 t-240.5 62.5t-239.5 -62.5t-174.5 -176.5t-65 -255v-4zM512 1311l213 252h63l-219 -252h-57z" />
<glyph unicode="&#xf4;" horiz-adv-x="1318" d="M133 508v4q0 229 152 383t374 154q145 0 265.5 -68.5t191 -191t70.5 -273.5v-4q0 -229 -152.5 -383t-374.5 -154q-221 0 -373.5 152.5t-152.5 380.5zM178 510q0 -141 66.5 -255t177 -176.5t240.5 -62.5t239.5 62.5t174.5 176.5t65 255v4q0 141 -66.5 255t-177 176.5 t-240.5 62.5t-239.5 -62.5t-174.5 -176.5t-65 -255v-4zM420 1313l205 209h75l207 -209h-61l-184 182l-181 -182h-61z" />
<glyph unicode="&#xf5;" horiz-adv-x="1318" d="M133 508v4q0 229 152 383t374 154q145 0 265.5 -68.5t191 -191t70.5 -273.5v-4q0 -229 -152.5 -383t-374.5 -154q-221 0 -373.5 152.5t-152.5 380.5zM178 510q0 -141 66.5 -255t177 -176.5t240.5 -62.5t239.5 62.5t174.5 176.5t65 255v4q0 141 -66.5 255t-177 176.5 t-240.5 62.5t-239.5 -62.5t-174.5 -176.5t-65 -255v-4zM342 1225q0 76 47.5 128t118.5 52q35 0 74.5 -20.5t68 -45t64.5 -45t67 -20.5q52 0 83.5 31t31.5 90h51q0 -75 -47.5 -120.5t-118.5 -45.5q-37 0 -76.5 20t-67 44.5t-63.5 44.5t-67 20q-51 0 -84 -36.5t-33 -96.5h-49z " />
<glyph unicode="&#xf6;" horiz-adv-x="1318" d="M133 508v4q0 229 152 383t374 154q145 0 265.5 -68.5t191 -191t70.5 -273.5v-4q0 -229 -152.5 -383t-374.5 -154q-221 0 -373.5 152.5t-152.5 380.5zM178 510q0 -141 66.5 -255t177 -176.5t240.5 -62.5t239.5 62.5t174.5 176.5t65 255v4q0 141 -66.5 255t-177 176.5 t-240.5 62.5t-239.5 -62.5t-174.5 -176.5t-65 -255v-4zM406 1317q0 21 15 36t36 15q20 0 34.5 -15.5t14.5 -35.5q0 -22 -14.5 -36.5t-34.5 -14.5q-22 0 -36.5 14.5t-14.5 36.5zM733 1317q0 21 15 36t36 15q20 0 35 -15.5t15 -35.5q0 -21 -15 -36t-35 -15q-22 0 -36.5 14.5 t-14.5 36.5z" />
<glyph unicode="&#xf7;" horiz-adv-x="1060" d="M174 664v43h713v-43h-713zM479 383q0 27 19.5 46.5t48.5 19.5q25 0 44 -20t19 -46q0 -28 -19 -48t-44 -20q-29 0 -48.5 20t-19.5 48zM479 1016q0 27 19.5 46t48.5 19q25 0 44 -19.5t19 -45.5q0 -28 -19 -48t-44 -20q-29 0 -48.5 20t-19.5 48z" />
<glyph unicode="&#xf8;" horiz-adv-x="1441" d="M184 508v4q0 229 152.5 383t374.5 154q205 0 350 -129l160 202h47l-181 -229q150 -153 150 -377v-4q0 -229 -152 -383t-374 -154q-156 0 -285 80l-121 -153h-47l137 174q-99 73 -155 185.5t-56 246.5zM229 510q0 -124 52.5 -227.5t142.5 -169.5l608 770 q-134 125 -323 125q-200 0 -340 -140.5t-140 -353.5v-4zM455 90q120 -74 258 -74q130 0 239.5 62.5t174.5 176.5t65 255v4q0 205 -133 344z" />
<glyph unicode="&#xf9;" horiz-adv-x="1138" d="M143 446v578h45v-578q0 -77 13.5 -140.5t35.5 -107t53.5 -76.5t64.5 -52.5t72.5 -31.5t73.5 -16t70 -4q54 0 101 8.5t100 35.5t90.5 72t62.5 124.5t25 185.5v580h45v-578q0 -114 -27.5 -200.5t-69.5 -136.5t-101 -81t-113 -41t-115 -10q-60 0 -113.5 10t-113 40.5 t-101.5 80.5t-70 136.5t-28 201.5zM403 1563h74l213 -252h-67z" />
<glyph unicode="&#xfa;" horiz-adv-x="1138" d="M143 446v578h45v-578q0 -77 13.5 -140.5t35.5 -107t53.5 -76.5t64.5 -52.5t72.5 -31.5t73.5 -16t70 -4q54 0 101 8.5t100 35.5t90.5 72t62.5 124.5t25 185.5v580h45v-578q0 -114 -27.5 -200.5t-69.5 -136.5t-101 -81t-113 -41t-115 -10q-60 0 -113.5 10t-113 40.5 t-101.5 80.5t-70 136.5t-28 201.5zM440 1311l213 252h64l-219 -252h-58z" />
<glyph unicode="&#xfb;" horiz-adv-x="1138" d="M143 446v578h45v-578q0 -77 13.5 -140.5t35.5 -107t53.5 -76.5t64.5 -52.5t72.5 -31.5t73.5 -16t70 -4q54 0 101 8.5t100 35.5t90.5 72t62.5 124.5t25 185.5v580h45v-578q0 -114 -27.5 -200.5t-69.5 -136.5t-101 -81t-113 -41t-115 -10q-60 0 -113.5 10t-113 40.5 t-101.5 80.5t-70 136.5t-28 201.5zM348 1313l205 209h76l207 -209h-62l-184 182l-180 -182h-62z" />
<glyph unicode="&#xfc;" horiz-adv-x="1138" d="M143 446v578h45v-578q0 -77 13.5 -140.5t35.5 -107t53.5 -76.5t64.5 -52.5t72.5 -31.5t73.5 -16t70 -4q54 0 101 8.5t100 35.5t90.5 72t62.5 124.5t25 185.5v580h45v-578q0 -114 -27.5 -200.5t-69.5 -136.5t-101 -81t-113 -41t-115 -10q-60 0 -113.5 10t-113 40.5 t-101.5 80.5t-70 136.5t-28 201.5zM334 1317q0 21 15 36t36 15q20 0 34.5 -15.5t14.5 -35.5q0 -22 -14.5 -36.5t-34.5 -14.5q-22 0 -36.5 14.5t-14.5 36.5zM662 1317q0 21 15 36t36 15q20 0 34.5 -15.5t14.5 -35.5q0 -22 -14.5 -36.5t-34.5 -14.5q-22 0 -36.5 14.5 t-14.5 36.5z" />
<glyph unicode="&#xfd;" horiz-adv-x="1150" d="M133 -266l35 24q58 -97 163 -145.5t220 -48.5q166 0 274.5 113.5t108.5 297.5v228q-29 -66 -74 -112.5t-98 -70t-102 -33.5t-99 -10q-37 0 -73 5t-78.5 18.5t-79 35t-71.5 58.5t-59.5 84.5t-39.5 116t-15 151.5v578h45v-578q0 -77 14 -140.5t36.5 -107t54.5 -76.5 t65 -52.5t71 -31.5t69 -16t63 -4q47 0 91.5 8.5t97 36t90.5 72t64 124t26 185.5v580h45v-1051q0 -200 -117.5 -325t-306.5 -125q-128 0 -242.5 53.5t-177.5 157.5zM414 1311l213 252h63l-219 -252h-57z" />
<glyph unicode="&#xfe;" horiz-adv-x="1372" d="M256 512v4q0 24 4 70v848h43v-691q62 139 190.5 222.5t288.5 83.5q222 0 374.5 -154t152.5 -383v-4q0 -151 -70.5 -273.5t-191 -191t-265.5 -68.5q-159 0 -288 84t-191 224v-754h-43v913q-4 46 -4 70zM303 463q17 -196 153 -321.5t324 -125.5q130 0 240.5 62.5t177 176.5 t66.5 255v4q0 213 -140 353.5t-340 140.5q-187 0 -325.5 -126t-155.5 -321v-98z" />
<glyph unicode="&#xff;" horiz-adv-x="1150" d="M133 -266l35 24q58 -97 163 -145.5t220 -48.5q166 0 274.5 113.5t108.5 297.5v228q-29 -66 -74 -112.5t-98 -70t-102 -33.5t-99 -10q-37 0 -73 5t-78.5 18.5t-79 35t-71.5 58.5t-59.5 84.5t-39.5 116t-15 151.5v578h45v-578q0 -77 14 -140.5t36.5 -107t54.5 -76.5 t65 -52.5t71 -31.5t69 -16t63 -4q47 0 91.5 8.5t97 36t90.5 72t64 124t26 185.5v580h45v-1051q0 -200 -117.5 -325t-306.5 -125q-128 0 -242.5 53.5t-177.5 157.5zM307 1317q0 21 15 36t36 15q20 0 35 -15.5t15 -35.5q0 -21 -15 -36t-35 -15q-22 0 -36.5 14.5t-14.5 36.5z M635 1317q0 21 15 36t36 15q20 0 34.5 -15.5t14.5 -35.5q0 -22 -14.5 -36.5t-34.5 -14.5q-22 0 -36.5 14.5t-14.5 36.5z" />
<glyph unicode="&#x152;" horiz-adv-x="2721" d="M201 715v4q0 118 28 227t85 202t138.5 162t194.5 108.5t246 39.5q241 0 406 -121t237 -323v420h940v-41h-895v-549h827v-41h-827q4 -58 4 -84v-4q0 -30 -4 -88v-586h926v-41h-971v420q-73 -202 -237.5 -323.5t-405.5 -121.5q-165 0 -299 60.5t-218.5 163.5t-129.5 235 t-45 281zM246 717q0 -111 27 -214t81 -191.5t130.5 -154.5t182 -103.5t228.5 -37.5q142 0 259 48.5t195.5 133t126 194t60.5 235.5v174q-13 126 -61 236.5t-128 195.5t-197.5 134.5t-258.5 49.5q-123 0 -228.5 -37t-181 -102t-129.5 -152.5t-80 -190.5t-26 -214v-4z" />
<glyph unicode="&#x153;" horiz-adv-x="2330" d="M164 506v4q0 229 152 383t374 154q179 0 316.5 -102.5t187.5 -270.5q50 168 183 271.5t300 103.5q94 0 175 -28.5t138 -77.5t97.5 -114.5t60 -139t19.5 -150.5v-9h-950v-16v-4q0 -105 38.5 -198.5t102.5 -157.5t148 -101t173 -37q136 0 249 68.5t175 187.5l35 -24 q-67 -126 -189.5 -199.5t-271.5 -73.5q-168 0 -302 103t-181 270q-50 -168 -187.5 -271.5t-316.5 -103.5q-108 0 -205.5 40.5t-168 110.5t-111.5 169.5t-41 212.5zM209 508q0 -141 66.5 -255t176.5 -176.5t240 -62.5t239.5 62.5t174.5 176.5t65 255v4q0 141 -66.5 255 t-176.5 176.5t-240 62.5t-239.5 -62.5t-174.5 -176.5t-65 -255v-4zM1219 569h901q-4 117 -57.5 216t-155.5 161t-232 62q-172 0 -304 -123.5t-152 -315.5z" />
<glyph unicode="&#x178;" horiz-adv-x="1214" d="M82 1434h53l475 -904l469 904h54l-502 -957v-477h-45v477zM330 1772q0 21 15 36t36 15q20 0 34.5 -15.5t14.5 -35.5q0 -22 -14.5 -37t-34.5 -15q-22 0 -36.5 15t-14.5 37zM739 1772q0 20 15.5 35.5t36.5 15.5q20 0 34.5 -15.5t14.5 -35.5q0 -22 -14.5 -37t-34.5 -15 q-22 0 -37 15t-15 37z" />
<glyph unicode="&#x2c6;" d="M346 1313l205 209h76l207 -209h-62l-184 182l-180 -182h-62z" />
<glyph unicode="&#x2dc;" d="M268 1225q0 76 47.5 128t118.5 52q35 0 74.5 -20.5t68.5 -45t65 -45t67 -20.5q52 0 83 31t31 90h51q0 -75 -47 -120.5t-118 -45.5q-37 0 -76.5 20t-67.5 44.5t-64 44.5t-67 20q-51 0 -84 -36.5t-33 -96.5h-49z" />
<glyph unicode="&#x2000;" horiz-adv-x="986" />
<glyph unicode="&#x2001;" horiz-adv-x="1972" />
<glyph unicode="&#x2002;" horiz-adv-x="986" />
<glyph unicode="&#x2003;" horiz-adv-x="1972" />
<glyph unicode="&#x2004;" horiz-adv-x="657" />
<glyph unicode="&#x2005;" horiz-adv-x="493" />
<glyph unicode="&#x2006;" horiz-adv-x="328" />
<glyph unicode="&#x2007;" horiz-adv-x="328" />
<glyph unicode="&#x2008;" horiz-adv-x="246" />
<glyph unicode="&#x2009;" horiz-adv-x="394" />
<glyph unicode="&#x200a;" horiz-adv-x="109" />
<glyph unicode="&#x2010;" horiz-adv-x="937" d="M215 696v43h508v-43h-508z" />
<glyph unicode="&#x2011;" horiz-adv-x="937" d="M215 696v43h508v-43h-508z" />
<glyph unicode="&#x2012;" horiz-adv-x="937" d="M215 696v43h508v-43h-508z" />
<glyph unicode="&#x2013;" horiz-adv-x="1245" d="M215 698v41h815v-41h-815z" />
<glyph unicode="&#x2014;" horiz-adv-x="1974" d="M215 698v41h1544v-41h-1544z" />
<glyph unicode="&#x2018;" horiz-adv-x="479" d="M203 1167v95q0 85 17.5 122.5t58.5 55.5l14 -27q-32 -14 -43.5 -47t-9.5 -92h36v-107h-73z" />
<glyph unicode="&#x2019;" horiz-adv-x="458" d="M186 1188q32 14 44 47t10 92h-37v107h73v-95q0 -85 -17 -122.5t-58 -55.5z" />
<glyph unicode="&#x201a;" horiz-adv-x="479" d="M186 -139q32 14 44 47t10 92h-37v106h73v-94q0 -85 -17 -122.5t-58 -55.5z" />
<glyph unicode="&#x201c;" horiz-adv-x="663" d="M203 1167v95q0 85 17.5 122.5t58.5 55.5l14 -27q-32 -14 -43.5 -47t-9.5 -92h36v-107h-73zM387 1167v95q0 85 17.5 122.5t58.5 55.5l14 -27q-32 -14 -43.5 -47t-9.5 -92h37v-107h-74z" />
<glyph unicode="&#x201d;" horiz-adv-x="663" d="M186 1188q32 14 44 47t10 92h-37v107h73v-95q0 -85 -17 -122.5t-58 -55.5zM371 1188q32 14 43.5 47t9.5 92h-37v107h74v-95q0 -85 -17.5 -122.5t-58.5 -55.5z" />
<glyph unicode="&#x201e;" horiz-adv-x="663" d="M186 -139q32 14 44 47t10 92h-37v106h73v-94q0 -85 -17 -122.5t-58 -55.5zM371 -139q32 14 43.5 47t9.5 92h-37v106h74v-94q0 -85 -17.5 -122.5t-58.5 -55.5z" />
<glyph unicode="&#x2022;" horiz-adv-x="1024" d="M297 721v4q0 88 64 150.5t153 62.5t153 -62.5t64 -150.5v-4q0 -88 -64 -150.5t-153 -62.5t-153 62.5t-64 150.5z" />
<glyph unicode="&#x2026;" horiz-adv-x="1134" d="M61 51q0 21 15.5 36t36.5 15q20 0 34.5 -15.5t14.5 -35.5q0 -22 -14.5 -36.5t-34.5 -14.5q-22 0 -37 14.5t-15 36.5zM463 51q0 21 15 36t36 15q20 0 34.5 -15.5t14.5 -35.5q0 -22 -14.5 -36.5t-34.5 -14.5q-22 0 -36.5 14.5t-14.5 36.5zM862 51q0 21 15 36t36 15 q20 0 35 -15.5t15 -35.5q0 -21 -14.5 -36t-35.5 -15q-22 0 -36.5 14.5t-14.5 36.5z" />
<glyph unicode="&#x202f;" horiz-adv-x="394" />
<glyph unicode="&#x2039;" horiz-adv-x="741" d="M162 516v12l360 420l25 -20l-336 -406l336 -405l-25 -21z" />
<glyph unicode="&#x203a;" horiz-adv-x="741" d="M195 117l335 405l-335 406l24 20l361 -420v-12l-361 -420z" />
<glyph unicode="&#x205f;" horiz-adv-x="493" />
<glyph unicode="&#x20ac;" horiz-adv-x="1591" d="M172 532v41h184q-16 196 6 308h-190v41h197q52 238 203 387t354 149q171 0 287.5 -76t201.5 -215l-39 -22q-52 85 -109.5 142t-145 93.5t-195.5 36.5q-188 0 -327 -138t-187 -357h639v-41h-648q-21 -137 -6 -308h654v-41h-645q45 -233 188.5 -374.5t345.5 -141.5 q149 0 255 76.5t187 212.5l37 -20q-88 -146 -203 -228t-276 -82q-221 0 -377 152.5t-201 404.5h-190z" />
<glyph unicode="&#x2122;" horiz-adv-x="1486" d="M102 1399v39h490v-39h-225v-600h-39v600h-226zM723 799v639h35l262 -377l264 377h35v-639h-39v563l-260 -369l-258 369v-563h-39z" />
<glyph unicode="&#x25fc;" horiz-adv-x="1024" d="M0 0v1024h1024v-1024h-1024z" />
</font>
</defs>
</svg>
