<?xml version="1.0" standalone="no"?>
<!DOCTYPE svg PUBLIC "-//W3C//DTD SVG 1.1//EN" "http://www.w3.org/Graphics/SVG/1.1/DTD/svg11.dtd" >
<svg xmlns="http://www.w3.org/2000/svg">
<metadata></metadata>
<defs>
<font id="888light" horiz-adv-x="1474" >
<font-face units-per-em="2048" ascent="1638" descent="-410" />
<missing-glyph horiz-adv-x="649" />
<glyph horiz-adv-x="0" />
<glyph horiz-adv-x="682" />
<glyph unicode=" "  horiz-adv-x="649" />
<glyph unicode="&#x09;" horiz-adv-x="649" />
<glyph unicode="&#xa0;" horiz-adv-x="649" />
<glyph unicode="!" horiz-adv-x="540" d="M207 66q0 27 19 47t46 20q26 0 45 -20t19 -47q0 -28 -19 -47t-45 -19q-28 0 -46.5 19t-18.5 47zM233 1182v264h76v-264l-6 -795h-63z" />
<glyph unicode="&#x22;" horiz-adv-x="792" d="M184 903l54 543h98v-29l-103 -514h-49zM469 903l51 543h98v-29l-102 -514h-47z" />
<glyph unicode="#" horiz-adv-x="1484" d="M162 403v70h237l88 502h-245v69h256l69 392h72l-68 -392h451l68 392h71l-67 -392h227v-69h-238l-86 -502h244v-70h-256l-70 -403h-71l67 403h-450l-68 -403h-71l67 403h-227zM473 471h451l86 506h-449z" />
<glyph unicode="$" horiz-adv-x="1413" d="M184 135l15 84q189 -156 465 -166v684q-249 78 -352 158.5t-103 214.5v4q0 147 132 244.5t323 103.5v135h53v-135q221 -6 403 -106l-16 -78q-178 103 -387 113v-588q258 -82 364.5 -180.5t106.5 -249.5v-4q0 -164 -131.5 -275t-339.5 -114v-156h-53v156q-289 10 -480 155 zM289 1112q0 -101 82.5 -164.5t292.5 -128.5v572q-159 -5 -267 -83.5t-108 -193.5v-2zM717 53q172 0 281.5 89.5t109.5 224.5v4q0 120 -89.5 201t-301.5 149v-668z" />
<glyph unicode="%" horiz-adv-x="1925" d="M150 1083v4q0 151 112 260t266 109t265.5 -109t111.5 -260v-4q0 -152 -111.5 -260t-265.5 -108t-266 108t-112 260zM217 1083q0 -126 91.5 -215.5t219.5 -89.5q126 0 218 89.5t92 215.5v4q0 124 -92 215t-218 91q-127 0 -219 -90.5t-92 -215.5v-4zM387 0l1053 1434l92 2 l-1055 -1436h-90zM1020 350v4q0 151 112.5 260t266.5 109t266.5 -109t112.5 -260v-4q0 -152 -112.5 -260t-266.5 -108t-266.5 108t-112.5 260zM1090 350q0 -126 91.5 -215.5t217.5 -89.5t217.5 89.5t91.5 215.5v4q0 124 -91.5 214.5t-217.5 90.5t-217.5 -90.5t-91.5 -214.5 v-4z" />
<glyph unicode="&#x26;" horiz-adv-x="1505" d="M164 362v5q0 68 22 127.5t55 102t87 83.5t101.5 67.5t115.5 59.5q-97 104 -138.5 188.5t-41.5 163.5v4q0 55 22.5 109t63.5 99.5t106.5 73.5t144.5 28q144 0 237 -90.5t93 -211.5v-4q0 -115 -82 -203t-284 -180l413 -444q103 139 197 387l57 -20q-85 -238 -211 -414 l250 -270l-55 -48l-240 261q-211 -254 -479 -254q-188 0 -311 111.5t-123 268.5zM242 362q0 -126 99.5 -216.5t256.5 -90.5q241 0 430 232l-430 465q-67 -31 -108.5 -52.5t-94 -58t-82 -72.5t-50.5 -88.5t-21 -113.5v-5zM440 1161q0 -72 39.5 -148.5t134.5 -174.5 q192 85 267 158.5t75 170.5v4q0 90 -71 160t-183 70q-118 0 -190 -72.5t-72 -163.5v-4z" />
<glyph unicode="'" horiz-adv-x="509" d="M184 903l54 543h98v-29l-103 -514h-49z" />
<glyph unicode="(" horiz-adv-x="942" d="M193 596q0 281 138.5 507t407.5 376l37 -62q-249 -135 -377.5 -346.5t-128.5 -474.5q0 -262 128.5 -474t377.5 -347l-37 -60q-268 148 -407 374.5t-139 506.5z" />
<glyph unicode=")" horiz-adv-x="944" d="M164 -225q250 135 379 347t129 474q0 263 -129 474.5t-379 346.5l39 62q269 -150 408 -376t139 -507q0 -280 -139.5 -506.5t-407.5 -374.5z" />
<glyph unicode="*" horiz-adv-x="1030" d="M225 1006l250 129l-250 129l35 57l234 -152l-13 279h68l-12 -279l233 152l37 -57l-250 -129l250 -129l-37 -58l-233 152l12 -279h-68l13 279l-234 -152z" />
<glyph unicode="+" horiz-adv-x="1261" d="M197 688v68h397v420h74v-420h397v-68h-397v-422h-74v422h-397z" />
<glyph unicode="," horiz-adv-x="454" d="M147 -240l66 320h84l-72 -320h-78z" />
<glyph unicode="-" horiz-adv-x="933" d="M203 682v74h528v-74h-528z" />
<glyph unicode="." horiz-adv-x="401" d="M135 66q0 27 19.5 47t46.5 20t46 -20t19 -47q0 -28 -19 -47t-46 -19q-28 0 -47 19t-19 47z" />
<glyph unicode="/" horiz-adv-x="1136" d="M51 -250l953 1895h81l-952 -1895h-82z" />
<glyph unicode="0" horiz-adv-x="1552" d="M203 719v4q0 118 22.5 227t69.5 203.5t114 164t161.5 109t205.5 39.5t205.5 -39.5t161.5 -109t114 -163.5t70 -203t23 -228v-4q0 -119 -23 -228.5t-70 -203.5t-114 -163.5t-161.5 -109t-205.5 -39.5t-205.5 39.5t-161.5 108.5t-114 163.5t-69.5 203.5t-22.5 229zM283 721 q0 -135 31.5 -255.5t91 -215t155.5 -150t217 -55.5q96 0 177.5 35.5t138.5 98.5t97.5 148t59.5 183.5t19 206.5v4q0 134 -32 254.5t-92 215.5t-156 150.5t-216 55.5t-215.5 -55t-154.5 -149t-90 -213.5t-31 -254.5v-4z" />
<glyph unicode="1" horiz-adv-x="768" d="M104 1329l320 125h61v-1454h-75v1374l-287 -108z" />
<glyph unicode="2" horiz-adv-x="1208" d="M133 0v49l567 627q135 149 178.5 237.5t43.5 173.5q0 128 -92.5 217t-245.5 89q-123 0 -218 -76t-159 -207l-62 39q70 146 181 230.5t260 84.5q190 0 300.5 -106.5t110.5 -263.5v-4q0 -103 -48 -199.5t-201 -267.5l-494 -551h803v-72h-924z" />
<glyph unicode="3" horiz-adv-x="1206" d="M100 199l60 49q171 -203 422 -203q169 0 286 109.5t117 281.5v6q0 191 -133.5 294.5t-357.5 101.5l-54 -4l-20 53l450 485h-684v72h785v-58l-449 -483q246 -2 392.5 -124t146.5 -335v-6q0 -203 -139.5 -334t-341.5 -131q-291 0 -480 226z" />
<glyph unicode="4" horiz-adv-x="1310" d="M166 365v65l684 1022h68v-1016h227v-71h-227v-365h-76v365h-676zM256 436h586v885z" />
<glyph unicode="5" horiz-adv-x="1257" d="M166 172l57 51q71 -85 172.5 -130.5t212.5 -45.5q167 0 286.5 115.5t119.5 304.5v4q0 93 -34.5 171t-91 127.5t-127 77t-145.5 27.5q-143 0 -309 -98l-49 23l64 645h682v-74h-615l-51 -502q152 76 289 76q90 0 173.5 -32.5t148.5 -91.5t104 -149.5t39 -197.5v-4 q0 -148 -67 -262.5t-177 -174t-242 -59.5q-125 0 -245 53t-195 146z" />
<glyph unicode="6" horiz-adv-x="1286" d="M172 453v4q0 123 47 223l6 12q15 30 35 60l406 692h84l-324 -543q104 55 217 55q95 0 181.5 -37.5t150 -102t101.5 -157.5t38 -198v-4q0 -140 -63.5 -255.5t-171.5 -180t-236 -64.5q-195 0 -333 142t-138 354zM246 455q0 -92 33.5 -173t88.5 -136t127.5 -87t149.5 -32 q161 0 278 121t117 307v4q0 93 -33.5 174t-88.5 136t-127.5 86.5t-149.5 31.5q-161 0 -278 -121t-117 -307v-4z" />
<glyph unicode="7" horiz-adv-x="1202" d="M188 1370v74h873v-47l-653 -1397h-86l649 1370h-783z" />
<glyph unicode="8" horiz-adv-x="1208" d="M135 360q0 136 89.5 240t219.5 145q-116 41 -195 133.5t-79 215.5q0 169 122 282t312 113t311 -113t121 -282q0 -124 -78.5 -217t-193.5 -134q130 -42 219.5 -146t89.5 -237q0 -85 -28.5 -158t-84.5 -130t-147.5 -90t-208.5 -33t-208.5 33t-147.5 90t-84.5 130t-28.5 158 zM211 365q0 -72 24.5 -134t72 -110.5t124 -76.5t174.5 -28q192 0 291.5 97.5t99.5 248.5q0 147 -119.5 249t-275.5 102q-157 0 -274 -100t-117 -248zM250 1096q0 -70 31.5 -130.5t82.5 -100.5t114.5 -62.5t127.5 -22.5q87 0 166.5 37t132.5 110t53 165q0 141 -99.5 234 t-256.5 93t-254.5 -91t-97.5 -232z" />
<glyph unicode="9" horiz-adv-x="1318" d="M186 983v4q0 140 64 255.5t172 180t235 64.5q195 0 333 -142t138 -354v-4q0 -122 -47 -225h2l-8 -12q-18 -36 -35 -58l-403 -692h-86l323 541q-102 -54 -217 -54q-126 0 -234 63t-172.5 177.5t-64.5 255.5zM260 985q0 -93 33.5 -174t88.5 -136t127.5 -86.5t149.5 -31.5 q161 0 278.5 121t117.5 307v4q0 184 -119.5 306t-280.5 122q-78 0 -150 -32t-126 -87.5t-86.5 -136t-32.5 -172.5v-4z" />
<glyph unicode=":" horiz-adv-x="442" d="M156 66q0 27 19 47t46 20t46.5 -20t19.5 -47t-19.5 -46.5t-46.5 -19.5q-28 0 -46.5 19t-18.5 47zM156 969q0 27 19 46t46 19t46.5 -19t19.5 -46q0 -28 -20 -48t-46 -20q-27 0 -46 20t-19 48z" />
<glyph unicode=";" horiz-adv-x="462" d="M154 -240l65 320h84l-72 -320h-77zM176 969q0 27 19.5 46t48.5 19q26 0 44.5 -19.5t18.5 -45.5q0 -28 -18.5 -48t-44.5 -20q-28 0 -48 20t-20 48z" />
<glyph unicode="&#x3c;" horiz-adv-x="1359" d="M176 702v39l954 488v-82l-837 -426l837 -424v-82z" />
<glyph unicode="=" horiz-adv-x="1359" d="M250 440v72h860v-72h-860zM250 928v71h860v-71h-860z" />
<glyph unicode="&#x3e;" horiz-adv-x="1359" d="M229 215v82l838 424l-838 426v82l955 -488v-39z" />
<glyph unicode="?" horiz-adv-x="1132" d="M123 1206q62 119 168 188.5t239 69.5q167 0 283.5 -114t116.5 -277v-4q0 -72 -25 -134.5t-66 -107.5t-95 -79t-110.5 -53.5t-113.5 -26.5l-2 -275h-65l-4 322l16 14q107 6 194.5 47.5t141 117.5t53.5 173v4q0 133 -96 226.5t-230 93.5q-109 0 -206 -65.5t-142 -166.5z M426 66q0 26 20 46.5t48 20.5q26 0 44.5 -20t18.5 -47q0 -28 -18.5 -47t-44.5 -19q-28 0 -48 19t-20 47z" />
<glyph unicode="@" horiz-adv-x="2074" d="M182 537q0 122 29.5 240.5t83.5 221.5t133 191t173.5 151t210.5 98.5t239 35.5q176 0 334 -66t268.5 -176t175.5 -258.5t65 -308.5q0 -130 -33.5 -233.5t-87 -162.5t-113.5 -89.5t-120 -30.5q-110 0 -166.5 70.5t-54.5 166.5q-53 -106 -149 -170.5t-205 -64.5 q-154 0 -253.5 95.5t-99.5 256.5q0 103 37 195.5t97.5 157.5t141 103.5t165.5 38.5q117 0 203 -67t106 -176l35 188l61 -12l-72 -402q-11 -51 -11.5 -100.5t12 -99.5t51.5 -80.5t102 -30.5q48 0 96.5 26t91 77.5t69 140t26.5 201.5q0 148 -59 284t-161 236.5t-246.5 160.5 t-307.5 60q-169 0 -318.5 -71.5t-253 -190.5t-163.5 -277t-60 -327q0 -181 63 -335t172 -259.5t258.5 -164.5t319.5 -59q258 0 453 129l34 -59q-207 -139 -489 -139q-184 0 -346 64.5t-281 178.5t-187.5 280.5t-68.5 361.5zM686 506q0 -132 77.5 -207.5t201.5 -75.5 q97 0 181 59t132.5 154.5t48.5 200.5q1 126 -77 208.5t-197 82.5q-149 0 -258 -122.5t-109 -299.5z" />
<glyph unicode="A" d="M94 0l604 1452h78l604 -1452h-86l-172 410h-770l-174 -410h-84zM383 481h709l-355 869z" />
<glyph unicode="B" horiz-adv-x="1370" d="M182 0v1444h535q194 0 309 -84.5t115 -249.5v-4q0 -108 -41.5 -187t-118.5 -106q128 -24 199 -125.5t71 -269.5v-4q0 -414 -495 -414h-574zM262 72h494q418 0 418 346v4q0 179 -83 262.5t-253 83.5h-576v-696zM262 842h563q124 0 181 70t57 190v4q0 123 -86 193.5 t-242 70.5h-473v-528z" />
<glyph unicode="C" horiz-adv-x="1536" d="M147 719v4q0 150 45 283t128.5 236t214 163.5t290.5 60.5q213 0 365 -99.5t231 -268.5l-75 -23q-74 146 -209 233t-314 87q-138 0 -251.5 -54t-187 -146.5t-113.5 -213.5t-40 -256v-4q0 -134 40.5 -254.5t114.5 -214t188.5 -148.5t252.5 -55q182 0 315.5 87t205.5 235 l73 -27q-80 -170 -232.5 -269.5t-363.5 -99.5q-129 0 -239 39.5t-190 109t-136.5 163.5t-84.5 203.5t-28 228.5z" />
<glyph unicode="D" horiz-adv-x="1482" d="M182 0v1444h480q150 0 267 -36t194 -99.5t127 -155.5t71.5 -197t21.5 -231v-6q0 -125 -21.5 -230t-71.5 -197t-127 -155.5t-194 -100t-267 -36.5h-480zM262 72h400q602 0 602 645v4q0 649 -607 649h-395v-1298z" />
<glyph unicode="E" horiz-adv-x="1224" d="M182 0v1444h903v-74h-823v-514h684v-72h-684v-712h823v-72h-903z" />
<glyph unicode="F" horiz-adv-x="1204" d="M182 0v1444h885v-74h-805v-528h676v-72h-676v-770h-80z" />
<glyph unicode="G" horiz-adv-x="1654" d="M184 719v4q0 147 45.5 279.5t130.5 237t220.5 166.5t302.5 62q304 0 524 -206l-49 -58q-60 57 -119 95t-152.5 66t-205.5 28q-145 0 -263 -56t-193 -150t-115 -213t-40 -249v-4q0 -136 41 -256.5t118 -213.5t199 -147.5t273 -54.5q112 0 214.5 39t178 122t90.5 196v251 h-385v68h465v-725h-78v229q-73 -120 -209.5 -188t-285.5 -68q-137 0 -252.5 39.5t-198.5 108.5t-141 163t-86.5 204t-28.5 231z" />
<glyph unicode="H" horiz-adv-x="1458" d="M182 0v1444h80v-586h934v586h80v-1444h-80v784h-934v-784h-80z" />
<glyph unicode="I" horiz-adv-x="583" d="M252 0v1444h80v-1444h-80z" />
<glyph unicode="J" horiz-adv-x="983" d="M113 66l18 79q110 -96 252 -96q160 0 259 113t99 334v948h80v-944q0 -270 -133 -406q-122 -119 -305 -119q-148 0 -270 91z" />
<glyph unicode="K" horiz-adv-x="1253" d="M180 0v1444h80v-875l793 875h94l-565 -633l594 -811h-101l-547 752l-268 -299v-453h-80z" />
<glyph unicode="L" horiz-adv-x="1204" d="M184 0v1444h80v-1372h823v-72h-903z" />
<glyph unicode="M" horiz-adv-x="1724" d="M182 0v1444h101l581 -1321l580 1321h98v-1444h-80v1294l-577 -1294h-43l-580 1294v-1294h-80z" />
<glyph unicode="N" horiz-adv-x="1511" d="M182 0v1444h70l999 -1309v1309h80v-1444h-67l-1004 1311v-1311h-78z" />
<glyph unicode="O" horiz-adv-x="1640" d="M119 719v4q0 150 46.5 284t133 237t221 163.5t299.5 60.5q166 0 301 -60t222 -163t133.5 -237t46.5 -285v-4q0 -120 -29 -230t-88 -203.5t-141.5 -163t-197 -108.5t-247.5 -39t-246.5 39t-196 108.5t-141 163t-87.5 203.5t-29 230zM201 721q0 -134 42 -254.5t118.5 -214 t196 -148.5t263.5 -55q118 0 219 35t174 97.5t125 146.5t77.5 183t25.5 206v6q0 133 -42 253.5t-119.5 213.5t-197.5 148t-266 55q-145 0 -263.5 -54t-194.5 -146.5t-117 -212.5t-41 -255v-4z" />
<glyph unicode="P" horiz-adv-x="1280" d="M182 0v1444h480q137 0 234.5 -30t155 -89t83.5 -138.5t26 -185.5v-4q0 -221 -119.5 -333.5t-388.5 -112.5h-391v-551h-80zM262 623h389q231 0 330.5 91.5t99.5 280.5v4q0 186 -97 278.5t-331 92.5h-391v-747z" />
<glyph unicode="Q" horiz-adv-x="1775" d="M180 719v4q0 150 46.5 284t133 237t221.5 163.5t300 60.5q166 0 301 -60t221.5 -162.5t133 -236t46.5 -284.5v-4q0 -161 -53.5 -300.5t-155.5 -238.5l168 -168l-51 -51l-172 172q-179 -132 -432 -135h-6q-166 0 -300 56.5t-221 154.5t-133.5 228t-46.5 280zM262 723 q0 -133 42 -250.5t119 -206.5t196 -140.5t264 -51.5q227 0 381 116l-273 275l51 51l277 -278q90 87 137 212t47 269v6q0 133 -42 253.5t-119 213.5t-197 148t-266 55q-145 0 -264 -54t-195 -146.5t-117 -212t-41 -253.5v-6z" />
<glyph unicode="R" horiz-adv-x="1341" d="M182 0v1444h484q499 0 499 -404v-4q0 -362 -397 -405l416 -631h-94l-410 625h-25h-393v-625h-80zM262 698h395q229 0 329.5 86t100.5 250v4q0 76 -21.5 134t-69 104t-132 70t-202.5 24h-400v-672z" />
<glyph unicode="S" horiz-adv-x="1292" d="M127 135l33 74q107 -88 225 -123t266 -35q174 0 295 90.5t121 223.5v4q0 122 -91.5 201t-334.5 163q-92 32 -156.5 60t-119.5 61.5t-87.5 70.5t-50.5 83t-18 102v4q0 100 64 181.5t164 125t210 43.5q234 0 438 -114l-34 -68q-190 111 -408 111q-87 0 -167.5 -35 t-132.5 -99.5t-52 -140.5v-4q0 -104 85 -170t296 -137q262 -91 368.5 -188t106.5 -246v-4q0 -165 -143 -278.5t-357 -113.5q-314 0 -520 158z" />
<glyph unicode="T" horiz-adv-x="1243" d="M72 1370v74h1097v-74h-507v-1370h-80v1370h-510z" />
<glyph unicode="U" horiz-adv-x="1538" d="M182 631v813h80v-805q0 -287 137.5 -437.5t372.5 -150.5q237 0 370.5 149t133.5 437v807h80v-813q0 -161 -42.5 -286t-120 -205t-185 -121.5t-238.5 -41.5q-130 0 -237 41t-185.5 121t-122 205.5t-43.5 286.5z" />
<glyph unicode="V" horiz-adv-x="1439" d="M98 1444h88l535 -1338l534 1338h88l-589 -1454h-68z" />
<glyph unicode="W" horiz-adv-x="2037" d="M94 1444h88l410 -1317l397 1321h62l399 -1323l408 1319h86l-459 -1454h-70l-397 1308l-395 -1308h-70z" />
<glyph unicode="X" horiz-adv-x="1437" d="M92 0l574 733l-553 711h96l510 -656l510 656h96l-551 -711l572 -733h-95l-532 682l-529 -682h-98z" />
<glyph unicode="Y" horiz-adv-x="1245" d="M82 1444h90l453 -864l448 864h90l-499 -952v-492h-80v492z" />
<glyph unicode="Z" horiz-adv-x="1312" d="M141 0v47l920 1323h-887v74h997v-47l-919 -1325h913v-72h-1024z" />
<glyph unicode="[" horiz-adv-x="970" d="M254 -260v1706h555v-68h-477v-1573h477v-65h-555z" />
<glyph unicode="\" horiz-adv-x="1126" d="M59 1645h82l953 -1895h-82z" />
<glyph unicode="]" horiz-adv-x="970" d="M164 -195h475v1573h-475v68h553v-1706h-553v65z" />
<glyph unicode="^" horiz-adv-x="1183" d="M236 989l335 453h41l336 -453h-74l-282 359l-283 -359h-73z" />
<glyph unicode="_" horiz-adv-x="1269" d="M63 -227h1143v-72h-1143v72z" />
<glyph unicode="`" horiz-adv-x="1155" d="M352 1567h94l207 -254h-88z" />
<glyph unicode="a" horiz-adv-x="1396" d="M127 514v4q0 231 151.5 386t376.5 155q156 0 278 -79.5t185 -213.5v268h76v-1034h-76v272q-61 -137 -184 -217t-279 -80q-147 0 -268 69.5t-190.5 193t-69.5 276.5zM205 516q0 -133 63 -241t167 -167t227 -59q189 0 320.5 132.5t131.5 334.5v4q0 200 -134.5 333.5 t-322.5 133.5q-189 0 -320.5 -133t-131.5 -334v-4z" />
<glyph unicode="b" horiz-adv-x="1359" d="M176 0v1499h76v-739q61 137 184.5 218t280.5 81q110 0 207.5 -41t168 -111.5t111.5 -170.5t41 -214v-4q0 -153 -69 -277.5t-190 -195t-269 -70.5q-158 0 -281 80t-184 217v-272h-76zM258 516q0 -134 62.5 -241.5t166.5 -166.5t228 -59q189 0 320.5 132.5t131.5 334.5v4 q0 100 -37 187.5t-99 148.5t-145.5 96t-174.5 35q-189 0 -321 -133t-132 -334v-4z" />
<glyph unicode="c" horiz-adv-x="1271" d="M137 514v4q0 114 41.5 214.5t112.5 172t169.5 113t209.5 41.5q147 0 267 -70.5t189 -191.5l-65 -39q-61 105 -165 167t-228 62q-189 0 -320 -133t-131 -334v-4q0 -134 62.5 -241.5t166 -166.5t226.5 -59q131 0 237 66.5t164 181.5l64 -33q-64 -133 -188 -211t-279 -78 q-110 0 -208.5 41t-170 111.5t-113 171.5t-41.5 215z" />
<glyph unicode="d" horiz-adv-x="1382" d="M109 514v4q0 231 152.5 386t377.5 155q157 0 280.5 -80.5t184.5 -218.5v739h76v-1499h-76v276q-61 -138 -184 -219.5t-281 -81.5q-148 0 -269 69.5t-191 193.5t-70 276zM188 516q0 -134 62.5 -241.5t166.5 -166.5t228 -59q189 0 321 132.5t132 334.5v4 q0 200 -134.5 333.5t-322.5 133.5q-124 0 -227.5 -59.5t-164.5 -167t-61 -240.5v-4z" />
<glyph unicode="e" horiz-adv-x="1277" d="M137 514v4q0 114 40.5 214.5t109.5 172t163.5 113t198.5 41.5q119 0 216 -44.5t156.5 -118t91.5 -164.5t32 -189v-23h-930v-4q0 -134 61.5 -243t161.5 -168.5t215 -59.5q130 0 237.5 65.5t164.5 178.5l61 -37q-67 -127 -190 -202t-277 -75q-103 0 -197.5 41t-163.5 111.5 t-110 171.5t-41 215zM219 584h848q-3 80 -33 152.5t-82 129t-131 90t-174 33.5q-163 0 -284.5 -114t-143.5 -291z" />
<glyph unicode="f" horiz-adv-x="710" d="M68 965v69h159v219q0 124 62 189t174 65q93 0 155 -20v-66q-55 19 -145 19q-82 0 -126 -48t-44 -137v-221h315v-69h-315v-965h-76v965h-159z" />
<glyph unicode="g" horiz-adv-x="1351" d="M147 516v4q0 114 40.5 214.5t109 171.5t162.5 112t198 41q90 0 170 -28.5t134.5 -74.5t90 -99.5t46.5 -106.5v284h76v-1046q0 -204 -145.5 -334.5t-371.5 -130.5q-156 0 -280.5 67.5t-188.5 190.5l54 43q59 -112 168 -172t245 -60q189 0 316 109t127 283v299 q-38 -123 -162.5 -210t-282.5 -87q-102 0 -194.5 40t-161.5 109.5t-109.5 168.5t-40.5 212zM225 520q0 -100 37 -188t97.5 -148.5t140 -95.5t164.5 -35q87 0 165 30t139 86.5t96.5 147t35.5 203.5v4q0 112 -36.5 202.5t-99 147.5t-140.5 87t-165 30q-85 0 -164 -35t-139 -96 t-95.5 -149t-35.5 -187v-4z" />
<glyph unicode="h" horiz-adv-x="1259" d="M199 0v1499h75v-727q15 48 47 96t80.5 92t120 71.5t152.5 27.5q197 0 305 -127t108 -344v-588h-75v578q0 187 -92.5 298t-262.5 111q-158 0 -269 -118t-114 -287v-582h-75z" />
<glyph unicode="i" horiz-adv-x="538" d="M205 1311q0 27 19 46t46 19q26 0 45 -19.5t19 -45.5q0 -28 -19 -47t-45 -19q-28 0 -46.5 19t-18.5 47zM229 0v1034h76v-1034h-76z" />
<glyph unicode="j" horiz-adv-x="518" d="M4 -279q33 -10 78 -10q68 0 108.5 49.5t40.5 139.5v1134h76v-1134q0 -124 -57.5 -189t-157.5 -65q-52 0 -88 10v65zM205 1311q0 27 18 46t45 19q26 0 45 -19.5t19 -45.5q0 -28 -19 -47t-45 -19t-44.5 19t-18.5 47z" />
<glyph unicode="k" horiz-adv-x="1085" d="M180 0v1499h76v-1110l590 645h92l-426 -469l446 -565h-94l-399 512l-209 -229v-283h-76z" />
<glyph unicode="l" horiz-adv-x="481" d="M203 0v1499h76v-1499h-76z" />
<glyph unicode="m" horiz-adv-x="1882" d="M180 0v1034h76v-229q25 99 123 176.5t223 77.5q139 0 227 -72t119 -203q56 123 156.5 199t236.5 76q181 0 275 -115.5t94 -322.5v-621h-76v625q0 179 -84 270.5t-219 91.5q-121 0 -214.5 -74t-137.5 -192l-14 -43q2 -18 2 -57v-621h-76v625q0 181 -83.5 271.5 t-219.5 90.5q-84 0 -159 -44.5t-123.5 -128t-49.5 -187.5v-627h-76z" />
<glyph unicode="n" horiz-adv-x="1224" d="M180 0v1034h76v-243q32 104 133 186t244 82q200 0 307 -111t107 -325v-623h-76v616q0 180 -90 274.5t-258 94.5q-149 0 -256.5 -110t-110.5 -279v-596h-76z" />
<glyph unicode="o" horiz-adv-x="1318" d="M127 514v4q0 114 41.5 214.5t112.5 172t169 113t209 41.5q147 0 269 -69t193 -192.5t71 -275.5v-4q0 -232 -154 -387.5t-379 -155.5q-147 0 -268.5 69t-192.5 193t-71 277zM205 516q0 -133 63 -241t167 -167t227 -59q189 0 320.5 132.5t131.5 334.5v4q0 200 -134.5 333.5 t-322.5 133.5q-189 0 -320.5 -133t-131.5 -334v-4z" />
<glyph unicode="p" horiz-adv-x="1388" d="M176 -471v1505h76v-272q61 137 184 217t281 80q148 0 269 -70.5t190 -195t69 -277.5v-4q0 -114 -41 -214t-111.5 -170.5t-168 -111.5t-207.5 -41q-157 0 -280.5 81t-184.5 218v-745h-76zM258 514q0 -201 132 -334t321 -133q91 0 174.5 35t145.5 96t99 148.5t37 187.5v4 q0 202 -131.5 334.5t-320.5 132.5q-124 0 -228 -59t-166.5 -166.5t-62.5 -241.5v-4z" />
<glyph unicode="q" horiz-adv-x="1380" d="M137 512v4q0 153 69.5 277.5t190.5 195t269 70.5q158 0 280.5 -80t183.5 -217v272h76v-1505h-76v745q-61 -137 -184 -218t-280 -81q-224 0 -376.5 153.5t-152.5 383.5zM215 514q0 -200 134.5 -333.5t322.5 -133.5q189 0 320.5 133t131.5 334v4q0 134 -62.5 241.5 t-166.5 166.5t-227 59q-189 0 -321 -132.5t-132 -334.5v-4z" />
<glyph unicode="r" horiz-adv-x="780" d="M180 0v1034h76v-311q42 139 152 237q109 97 261 97h3v-72h-15q-87 0 -164.5 -43.5t-128 -110.5t-79.5 -145.5t-29 -150.5v-535h-76z" />
<glyph unicode="s" horiz-adv-x="1017" d="M115 133l30 66q22 -23 56.5 -47.5t84 -51t115.5 -43t134 -16.5q140 0 215 60.5t75 158.5q0 68 -55.5 125t-200.5 113q-195 73 -277 145q-81 70 -81 162q-1 83 49 142q48 58 121 84t158 26q94 0 176 -30.5t123 -63.5l-17 -68q-142 94 -282 94q-46 0 -88 -10t-79.5 -30 t-60 -57t-22.5 -85q0 -129 295 -238q178 -68 247.5 -138t71.5 -165q-2 -135 -98 -214t-270 -79q-133 0 -245 48.5t-175 111.5z" />
<glyph unicode="t" horiz-adv-x="780" d="M100 965v69h158v346h76v-346h330v-69h-330v-715q0 -103 47.5 -148t140.5 -45q76 0 142 19v-70q-73 -20 -152 -20q-123 0 -188.5 60t-65.5 194v725h-158z" />
<glyph unicode="u" horiz-adv-x="1148" d="M137 459v575h78v-571q0 -74 12.5 -134.5t33 -102.5t50 -74.5t60.5 -51.5t68.5 -31t70 -16t68.5 -4q356 0 356 412v573h78v-575q0 -96 -18.5 -173t-51.5 -128.5t-74.5 -88t-93 -56t-99.5 -28t-102 -8.5q-63 0 -120 11.5t-116.5 44t-102 84t-70 139.5t-27.5 203z" />
<glyph unicode="v" horiz-adv-x="1081" d="M96 1034h84l363 -940l362 940h80l-410 -1042h-65z" />
<glyph unicode="w" horiz-adv-x="1507" d="M76 1034h78l274 -923l295 929h63l291 -929l279 923h76l-322 -1042h-68l-288 928l-291 -928h-68z" />
<glyph unicode="x" horiz-adv-x="1179" d="M104 0l443 580l-348 454h90l301 -393l301 393h90l-344 -454l438 -580h-90l-395 516l-393 -516h-93z" />
<glyph unicode="y" horiz-adv-x="1169" d="M125 -258l55 41q55 -95 158 -143t217 -48q160 0 264.5 108.5t104.5 283.5v200q-55 -109 -151.5 -154.5t-203.5 -45.5q-58 0 -112 11t-113.5 43.5t-102.5 84t-71.5 140t-28.5 202.5v569h78v-565q0 -85 16.5 -153t46 -112t64 -74.5t77 -46t78 -22t72.5 -6.5q47 0 90 8.5 t92 35.5t84.5 70.5t59 120t23.5 177.5v567h77v-1046q0 -205 -122.5 -335t-319.5 -130q-133 0 -251.5 56.5t-180.5 162.5z" />
<glyph unicode="z" horiz-adv-x="1077" d="M147 0v45l670 920h-645v69h752v-45l-668 -919h672v-70h-781z" />
<glyph unicode="{" horiz-adv-x="1040" d="M152 557v72h51q122 0 180.5 71t58.5 181v161q0 42 1 69.5t5 63.5t12 60t22 53.5t34 49.5t49.5 42t68 38t89.5 31t113 26l14 -68q-89 -16 -150 -41.5t-97 -54.5t-55 -74t-24.5 -87.5t-5.5 -107.5v-163q0 -117 -53.5 -194.5t-161.5 -90.5q108 -14 161.5 -92t53.5 -193v-166 q0 -52 4 -88.5t15.5 -75.5t34 -66.5t58.5 -53.5t91 -45t129 -33l-14 -68q-56 10 -103 22t-83.5 27.5t-65.5 31.5t-50.5 37.5t-37 40.5t-25 46t-16 49.5t-9 55t-3.5 57.5t-1 63v164q0 108 -58.5 179t-180.5 71h-51z" />
<glyph unicode="|" horiz-adv-x="657" d="M293 -256v1888h72v-1888h-72z" />
<glyph unicode="}" horiz-adv-x="1038" d="M188 -219q74 14 129 33t91 45t58.5 53.5t34 66.5t15.5 75.5t4 88.5v166q0 115 53.5 193t161.5 92q-108 13 -161.5 90.5t-53.5 194.5v163q0 65 -5.5 107.5t-24.5 87.5t-55 74t-97 54.5t-150 41.5l15 68q62 -11 113 -26t89.5 -31t68 -38t49.5 -42t34 -49.5t21.5 -53.5 t11.5 -60t5 -63.5t1 -69.5v-161q0 -109 59 -180.5t181 -71.5h51v-72h-51q-122 0 -181 -71t-59 -179v-164q0 -42 -1 -69.5t-5 -63.5t-11.5 -59.5t-21.5 -53t-34 -49.5t-49.5 -42t-68 -37.5t-89.5 -30t-113 -25.5z" />
<glyph unicode="~" horiz-adv-x="1058" d="M223 516q16 96 61 142.5t105 46.5q39 0 95 -29.5t107.5 -59.5t80.5 -30q39 0 66 29.5t48 103.5l52 -12q-16 -95 -60.5 -141t-101.5 -46q-41 0 -95.5 29.5t-106 59t-85.5 28.5q-39 0 -66.5 -29.5t-48.5 -103.5z" />
<glyph unicode="&#xa1;" horiz-adv-x="540" d="M252 1389q0 28 19.5 46.5t47.5 18.5q27 0 45.5 -19t18.5 -46t-19 -47.5t-45 -20.5q-28 0 -47.5 20.5t-19.5 47.5zM279 8v264l6 795h63l6 -795v-264h-75z" />
<glyph unicode="&#xa2;" horiz-adv-x="1288" d="M147 694v4q0 217 138 368.5t346 170.5v201h51v-199q147 -1 266.5 -71.5t188.5 -190.5l-66 -37q-61 104 -164 164.5t-225 60.5v-936q131 0 237 65.5t162 180.5l66 -31q-64 -132 -187 -209.5t-278 -78.5v-217h-51v219q-208 19 -346 169t-138 367zM227 696 q0 -188 115.5 -317t288.5 -148v932q-174 -17 -289 -146t-115 -317v-4z" />
<glyph unicode="&#xa3;" horiz-adv-x="1357" d="M193 0v57l182 17v565h-182v72h182v219q0 264 139 403q121 121 305 121q129 0 229.5 -64t168.5 -171l-64 -39q-129 202 -336 202q-82 0 -140.5 -23.5t-109.5 -74.5q-53 -53 -83.5 -142.5t-30.5 -205.5v-225h604v-72h-604v-567h749v-72h-1009z" />
<glyph unicode="&#xa4;" horiz-adv-x="1202" d="M72 528q0 223 155 375q153 156 375 156q220 0 373 -156q149 -149 155 -360v-15q0 -4 -1 -12.5t-1 -13.5q-6 -202 -153 -346q-153 -156 -373 -156q-222 0 -375 156q-155 152 -155 372zM391 530q0 -89 62 -151q65 -62 149 -62q90 0 152 62q61 61 61 151q0 87 -61 148 q-60 63 -152 63q-86 0 -149 -63q-62 -62 -62 -148z" />
<glyph unicode="&#xa5;" horiz-adv-x="1394" d="M92 1436h96l512 -772l510 772h93l-529 -789h373v-61h-410v-283h410v-61h-410v-242h-78v242h-411v61h411v283h-411v61h377z" />
<glyph unicode="&#xa6;" horiz-adv-x="657" d="M293 -256v666h72v-666h-72zM293 967v665h72v-665h-72z" />
<glyph unicode="&#xa7;" horiz-adv-x="1101" d="M176 29v71q167 -75 320 -75q161 0 250.5 53.5t89.5 148.5q0 59 -27 96t-90 72q-32 16 -195 82q-191 69 -263.5 135.5t-72.5 165.5q0 89 58 160t162 104q-98 42 -146.5 100.5t-48.5 141.5q0 110 99.5 175t269.5 65q169 0 321 -60l-29 -61q-152 59 -294 59 q-132 0 -207.5 -48.5t-75.5 -127.5q0 -27 8 -51.5t18 -42t32 -35.5t37.5 -28.5t47.5 -25t49.5 -21.5t56 -21.5t54.5 -20.5q183 -60 255.5 -127t72.5 -165q0 -172 -203 -279q97 -47 142.5 -99.5t45.5 -133.5q0 -129 -108.5 -202t-304.5 -73q-171 0 -324 68zM272 791 q0 -67 33 -110t109 -79q43 -23 252 -104q83 38 132.5 101t49.5 132q0 107 -111 174q-63 37 -238 96q-23 8 -32 11q-85 -22 -140 -83t-55 -138z" />
<glyph unicode="&#xa8;" horiz-adv-x="1155" d="M358 1335q0 25 19.5 44.5t46.5 19.5q24 0 42.5 -19.5t18.5 -44.5q0 -27 -18 -46t-43 -19q-28 0 -47 18.5t-19 46.5zM696 1335q0 25 18.5 44.5t45.5 19.5q26 0 43.5 -19.5t17.5 -44.5q0 -27 -18 -46t-43 -19q-28 0 -46 18.5t-18 46.5z" />
<glyph unicode="&#xa9;" horiz-adv-x="1830" d="M170 719v4q0 151 59 288.5t158.5 237t237.5 158.5t290 59t290 -59t238 -158.5t159 -237t59 -288.5v-4q0 -151 -59 -288.5t-159 -237t-238 -158t-290 -58.5t-290 58.5t-237.5 158t-158.5 237t-59 288.5zM233 719q0 -137 54 -263t145 -217.5t217.5 -145.5t265.5 -54 t265.5 54t217.5 145.5t145 217.5t54 263v4q0 111 -34.5 214.5t-97.5 187.5t-146.5 147.5t-188 98t-215.5 34.5t-215.5 -34.5t-188 -98t-146.5 -147.5t-97.5 -187.5t-34.5 -214.5v-4zM563 727v4q0 159 105 271t264 112q170 0 287 -123l-43 -39q-105 109 -246 109 q-133 0 -221 -96.5t-88 -231.5v-4q0 -136 89 -234t222 -98q139 0 248 117l45 -33q-122 -137 -295 -137q-158 0 -262.5 112t-104.5 271z" />
<glyph unicode="&#xaa;" horiz-adv-x="866" d="M127 1147v4q0 130 87.5 219.5t213.5 89.5q78 0 146 -37.5t110 -101.5v117h49v-584h-49v127q-42 -64 -109 -100.5t-147 -36.5q-126 0 -213.5 87t-87.5 216zM182 1149q0 -109 74 -179.5t174 -70.5q106 0 177 69.5t71 180.5v2q0 111 -74 184.5t-178 73.5q-100 0 -172 -73.5 t-72 -184.5v-2zM195 637v51h526v-51h-526z" />
<glyph unicode="&#xab;" horiz-adv-x="1130" d="M152 516v23l366 428l49 -41l-329 -400l329 -397l-49 -41zM532 516v23l369 428l47 -41l-330 -400l330 -397l-47 -41z" />
<glyph unicode="&#xad;" horiz-adv-x="933" d="M203 682v74h528v-74h-528z" />
<glyph unicode="&#xae;" horiz-adv-x="1830" d="M170 719v4q0 151 59 288.5t158.5 237t237.5 158.5t290 59t290 -59t238 -158.5t159 -237t59 -288.5v-4q0 -151 -59 -288.5t-159 -237t-238 -158t-290 -58.5t-290 58.5t-237.5 158t-158.5 237t-59 288.5zM233 719q0 -137 54 -263t145 -217.5t217.5 -145.5t265.5 -54 t265.5 54t217.5 145.5t145 217.5t54 263v4q0 111 -34.5 214.5t-97.5 187.5t-146.5 147.5t-188 98t-215.5 34.5t-215.5 -34.5t-188 -98t-146.5 -147.5t-97.5 -187.5t-34.5 -214.5v-4zM649 371v739h309q121 0 195 -57t74 -154v-4q0 -90 -58.5 -144.5t-160.5 -68.5l239 -311 h-67l-232 305h-241v-305h-58zM707 727h245q103 0 161 44.5t58 121.5v4q0 75 -57.5 118.5t-159.5 43.5h-247v-332z" />
<glyph unicode="&#xaf;" horiz-adv-x="1155" d="M301 1278v59h553v-59h-553z" />
<glyph unicode="&#xb0;" horiz-adv-x="1013" d="M203 1157v4q0 120 90 206.5t213 86.5q122 0 211.5 -86.5t89.5 -206.5v-4q0 -121 -89.5 -207t-211.5 -86q-124 0 -213.5 86t-89.5 207zM266 1157q0 -97 71 -166t169 -69q97 0 167 69t70 166v4q0 95 -70 164.5t-167 69.5q-98 0 -169 -69.5t-71 -164.5v-4z" />
<glyph unicode="&#xb1;" horiz-adv-x="1445" d="M199 -109h1142v-71h-1142v71zM336 647v70h399v420h72v-420h399v-70h-399v-420h-72v420h-399z" />
<glyph unicode="&#xb4;" horiz-adv-x="1155" d="M520 1315l207 254h86l-213 -254h-80z" />
<glyph unicode="&#xb6;" horiz-adv-x="1079" d="M174 993v4q0 202 147 320.5t379 118.5h113v-1436h-70v555h-24q-153 1 -275 51.5t-196 151t-74 235.5z" />
<glyph unicode="&#xb7;" horiz-adv-x="466" d="M182 532v138h105v-138h-105z" />
<glyph unicode="&#xb8;" horiz-adv-x="1155" d="M395 -313q99 -3 155 23t56 77q0 48 -35 67.5t-131 22.5l25 115h53l-14 -72q73 -6 112 -37t39 -96q0 -71 -65 -110.5t-184 -38.5z" />
<glyph unicode="&#xba;" horiz-adv-x="856" d="M131 1147v4q0 125 84 213t215 88q129 0 213 -87.5t84 -211.5v-4q0 -123 -84.5 -212t-214.5 -89q-131 0 -214 87.5t-83 211.5zM139 637v51h580v-51h-580zM188 1149q0 -104 69.5 -176t172.5 -72q104 0 172 71.5t68 174.5v4q0 103 -70 175.5t-174 72.5q-102 0 -170 -72 t-68 -174v-4z" />
<glyph unicode="&#xbb;" horiz-adv-x="1130" d="M182 129l330 397l-330 400l47 41l367 -428v-23l-367 -428zM563 129l330 397l-330 400l49 41l367 -428v-23l-367 -428z" />
<glyph unicode="&#xbc;" horiz-adv-x="1624" d="M59 1321l310 121h55v-871h-70v795l-276 -104zM256 -43l903 1503h84l-905 -1503h-82zM877 209v53l409 610h60v-598h133v-65h-133v-209h-68v209h-401zM958 274h320v482z" />
<glyph unicode="&#xbd;" horiz-adv-x="1677" d="M92 1321l309 121h54v-871h-70v795l-274 -104zM252 -43l903 1503h82l-903 -1503h-82zM961 0v45l335 371q79 89 104 139t25 98q0 69 -50.5 117.5t-135.5 48.5q-138 0 -215 -174l-57 35q40 93 109 149t165 56q113 0 182.5 -66.5t69.5 -163.5v-2q0 -63 -29 -122t-123 -162 l-270 -303h457v-66h-567z" />
<glyph unicode="&#xbe;" horiz-adv-x="1865" d="M150 696l53 45q98 -120 243 -120q94 0 159 62t65 157v4q0 108 -74 165.5t-201 55.5h-39l-22 35l256 278h-389v64h487v-47l-252 -273q137 -9 219 -83t82 -197v-2q0 -123 -86 -203t-207 -80q-179 0 -294 139zM485 -43l906 1503h82l-904 -1503h-84zM1116 209v53l412 610h57 v-598h133v-65h-133v-209h-67v209h-402zM1198 274h320v482z" />
<glyph unicode="&#xbf;" horiz-adv-x="1153" d="M119 371v4q0 89 37.5 163.5t98.5 122.5t131 77.5t142 39.5v273h66l4 -322l-14 -14q-166 -8 -277.5 -100t-111.5 -238v-4q0 -133 95.5 -226.5t229.5 -93.5q109 0 205.5 65.5t142.5 166.5l56 -47q-60 -119 -166.5 -188.5t-239.5 -69.5q-168 0 -283.5 114t-115.5 277z M489 1378q0 27 19.5 46.5t46.5 19.5q28 0 47 -19t19 -47q0 -27 -19.5 -47t-46.5 -20q-26 0 -46 20.5t-20 46.5z" />
<glyph unicode="&#xc0;" d="M94 0l604 1452h78l604 -1452h-86l-172 410h-770l-174 -410h-84zM383 481h709l-355 869zM420 1970h86l207 -254h-80z" />
<glyph unicode="&#xc1;" d="M94 0l604 1452h78l604 -1452h-86l-172 410h-770l-174 -410h-84zM383 481h709l-355 869zM592 1724l207 254h86l-213 -254h-80z" />
<glyph unicode="&#xc2;" d="M94 0l604 1452h78l604 -1452h-86l-172 410h-770l-174 -410h-84zM383 481h709l-355 869zM522 1722l203 211h88l205 -211h-76l-174 174l-170 -174h-76z" />
<glyph unicode="&#xc3;" d="M94 0l604 1452h78l604 -1452h-86l-172 410h-770l-174 -410h-84zM383 481h709l-355 869zM467 1640q-3 78 46 133.5t122 55.5q36 0 75 -20t68 -43.5t64.5 -43.5t64.5 -20q51 0 81.5 30t27.5 87h59q3 -77 -46 -125.5t-122 -48.5q-37 0 -76.5 19.5t-68 42.5t-64 42.5 t-65.5 19.5q-48 0 -79 -35.5t-30 -93.5h-57z" />
<glyph unicode="&#xc4;" d="M94 0l604 1452h78l604 -1452h-86l-172 410h-770l-174 -410h-84zM383 481h709l-355 869zM455 1780q0 24 17.5 41.5t41.5 17.5t40.5 -17.5t16.5 -41.5q0 -25 -17 -42.5t-40 -17.5q-25 0 -42 17.5t-17 42.5zM864 1780q0 24 18 41.5t42 17.5t40.5 -17.5t16.5 -41.5 q0 -25 -16.5 -42.5t-40.5 -17.5q-25 0 -42.5 17.5t-17.5 42.5z" />
<glyph unicode="&#xc5;" d="M94 0l604 1452h78l604 -1452h-86l-172 410h-770l-174 -410h-84zM383 481h709l-355 869zM618 1737q0 50 34 84t83 34q50 0 84.5 -34.5t34.5 -83.5q0 -48 -35 -82.5t-84 -34.5t-83 34.5t-34 82.5zM672 1739q0 -27 18.5 -46.5t44.5 -19.5q27 0 46.5 19.5t19.5 46.5t-19.5 46 t-46.5 19q-26 0 -44.5 -19.5t-18.5 -45.5z" />
<glyph unicode="&#xc6;" horiz-adv-x="2199" d="M170 0l797 1446h972v-74h-872v-514h805v-72h-805v-714h903v-72h-987v412h-504l-223 -412h-86zM512 481h473v838z" />
<glyph unicode="&#xc7;" horiz-adv-x="1536" d="M147 719v4q0 150 45 283t128.5 236t214 163.5t290.5 60.5q213 0 365 -99.5t231 -268.5l-75 -23q-74 146 -209 233t-314 87q-138 0 -251.5 -54t-187 -146.5t-113.5 -213.5t-40 -256v-4q0 -134 40.5 -254.5t114.5 -214t188.5 -148.5t252.5 -55q182 0 315.5 87t205.5 235 l73 -27q-80 -170 -232.5 -269.5t-363.5 -99.5h-14l-10 -55q73 -6 112 -37t39 -96q0 -71 -65.5 -110.5t-184.5 -38.5l-10 49q99 -3 155 23t56 77q0 48 -35 67.5t-131 22.5l23 103q-146 12 -263.5 76.5t-193 165.5t-116 228.5t-40.5 268.5z" />
<glyph unicode="&#xc8;" horiz-adv-x="1224" d="M182 0v1444h903v-74h-823v-514h684v-72h-684v-712h823v-72h-903zM332 1970h86l207 -254h-80z" />
<glyph unicode="&#xc9;" horiz-adv-x="1224" d="M182 0v1444h903v-74h-823v-514h684v-72h-684v-712h823v-72h-903zM504 1724l207 254h86l-213 -254h-80z" />
<glyph unicode="&#xca;" horiz-adv-x="1224" d="M182 0v1444h903v-74h-823v-514h684v-72h-684v-712h823v-72h-903zM434 1722l203 211h88l205 -211h-76l-174 174l-170 -174h-76z" />
<glyph unicode="&#xcb;" horiz-adv-x="1224" d="M182 0v1444h903v-74h-823v-514h684v-72h-684v-712h823v-72h-903zM369 1780q0 24 17.5 41.5t41.5 17.5t40.5 -17.5t16.5 -41.5q0 -25 -17 -42.5t-40 -17.5q-25 0 -42 17.5t-17 42.5zM778 1780q0 24 18 41.5t42 17.5t40.5 -17.5t16.5 -41.5q0 -25 -16.5 -42.5t-40.5 -17.5 q-25 0 -42.5 17.5t-17.5 42.5z" />
<glyph unicode="&#xcc;" horiz-adv-x="583" d="M55 1970h86l207 -254h-80zM252 0v1444h80v-1444h-80z" />
<glyph unicode="&#xcd;" horiz-adv-x="583" d="M170 1724l207 254h86l-213 -254h-80zM252 0v1444h80v-1444h-80z" />
<glyph unicode="&#xce;" horiz-adv-x="583" d="M98 1722l203 211h88l205 -211h-76l-174 174l-170 -174h-76zM252 0v1444h80v-1444h-80z" />
<glyph unicode="&#xcf;" horiz-adv-x="583" d="M55 1780q0 24 17.5 41.5t42.5 17.5q24 0 40.5 -17.5t16.5 -41.5q0 -25 -17 -42.5t-40 -17.5q-25 0 -42.5 17.5t-17.5 42.5zM252 0v1444h80v-1444h-80zM465 1780q0 24 17.5 41.5t41.5 17.5t41 -17.5t17 -41.5q0 -25 -16.5 -42.5t-41.5 -17.5t-42 17.5t-17 42.5z" />
<glyph unicode="&#xd0;" horiz-adv-x="1482" d="M47 788v74h135v582h480q150 0 267 -36t194 -99.5t127 -155.5t71.5 -197t21.5 -231v-6q0 -125 -21.5 -230t-71.5 -197t-127 -155.5t-194 -100t-267 -36.5h-480v788h-135zM262 72h400q602 0 602 645v4q0 649 -607 649h-395v-508h313v-74h-313v-716z" />
<glyph unicode="&#xd1;" horiz-adv-x="1511" d="M182 0v1444h70l999 -1309v1309h80v-1444h-67l-1004 1311v-1311h-78zM485 1640q-3 78 46 133.5t122 55.5q36 0 75 -20t68 -43.5t65 -43.5t65 -20q51 0 81 30t27 87h60q3 -77 -45.5 -125.5t-122.5 -48.5q-37 0 -76.5 19.5t-68 42.5t-64.5 42.5t-66 19.5q-48 0 -78.5 -35.5 t-29.5 -93.5h-58z" />
<glyph unicode="&#xd2;" horiz-adv-x="1640" d="M119 719v4q0 150 46.5 284t133 237t221 163.5t299.5 60.5q166 0 301 -60t222 -163t133.5 -237t46.5 -285v-4q0 -120 -29 -230t-88 -203.5t-141.5 -163t-197 -108.5t-247.5 -39t-246.5 39t-196 108.5t-141 163t-87.5 203.5t-29 230zM201 721q0 -134 42 -254.5t118.5 -214 t196 -148.5t263.5 -55q118 0 219 35t174 97.5t125 146.5t77.5 183t25.5 206v6q0 133 -42 253.5t-119.5 213.5t-197.5 148t-266 55q-145 0 -263.5 -54t-194.5 -146.5t-117 -212.5t-41 -255v-4zM502 1970h86l207 -254h-80z" />
<glyph unicode="&#xd3;" horiz-adv-x="1640" d="M119 719v4q0 150 46.5 284t133 237t221 163.5t299.5 60.5q166 0 301 -60t222 -163t133.5 -237t46.5 -285v-4q0 -120 -29 -230t-88 -203.5t-141.5 -163t-197 -108.5t-247.5 -39t-246.5 39t-196 108.5t-141 163t-87.5 203.5t-29 230zM201 721q0 -134 42 -254.5t118.5 -214 t196 -148.5t263.5 -55q118 0 219 35t174 97.5t125 146.5t77.5 183t25.5 206v6q0 133 -42 253.5t-119.5 213.5t-197.5 148t-266 55q-145 0 -263.5 -54t-194.5 -146.5t-117 -212.5t-41 -255v-4zM674 1724l207 254h86l-213 -254h-80z" />
<glyph unicode="&#xd4;" horiz-adv-x="1640" d="M119 719v4q0 150 46.5 284t133 237t221 163.5t299.5 60.5q166 0 301 -60t222 -163t133.5 -237t46.5 -285v-4q0 -120 -29 -230t-88 -203.5t-141.5 -163t-197 -108.5t-247.5 -39t-246.5 39t-196 108.5t-141 163t-87.5 203.5t-29 230zM201 721q0 -134 42 -254.5t118.5 -214 t196 -148.5t263.5 -55q118 0 219 35t174 97.5t125 146.5t77.5 183t25.5 206v6q0 133 -42 253.5t-119.5 213.5t-197.5 148t-266 55q-145 0 -263.5 -54t-194.5 -146.5t-117 -212.5t-41 -255v-4zM604 1722l203 211h88l205 -211h-76l-174 174l-170 -174h-76z" />
<glyph unicode="&#xd5;" horiz-adv-x="1640" d="M119 719v4q0 150 46.5 284t133 237t221 163.5t299.5 60.5q166 0 301 -60t222 -163t133.5 -237t46.5 -285v-4q0 -120 -29 -230t-88 -203.5t-141.5 -163t-197 -108.5t-247.5 -39t-246.5 39t-196 108.5t-141 163t-87.5 203.5t-29 230zM201 721q0 -134 42 -254.5t118.5 -214 t196 -148.5t263.5 -55q118 0 219 35t174 97.5t125 146.5t77.5 183t25.5 206v6q0 133 -42 253.5t-119.5 213.5t-197.5 148t-266 55q-145 0 -263.5 -54t-194.5 -146.5t-117 -212.5t-41 -255v-4zM551 1640q-3 78 46 133.5t122 55.5q36 0 75 -20t68 -43.5t64.5 -43.5t64.5 -20 q51 0 81.5 30t27.5 87h59q3 -77 -46 -125.5t-122 -48.5q-37 0 -76.5 19.5t-68 42.5t-64 42.5t-65.5 19.5q-48 0 -79 -35.5t-30 -93.5h-57z" />
<glyph unicode="&#xd6;" horiz-adv-x="1640" d="M119 719v4q0 150 46.5 284t133 237t221 163.5t299.5 60.5q166 0 301 -60t222 -163t133.5 -237t46.5 -285v-4q0 -120 -29 -230t-88 -203.5t-141.5 -163t-197 -108.5t-247.5 -39t-246.5 39t-196 108.5t-141 163t-87.5 203.5t-29 230zM201 721q0 -134 42 -254.5t118.5 -214 t196 -148.5t263.5 -55q118 0 219 35t174 97.5t125 146.5t77.5 183t25.5 206v6q0 133 -42 253.5t-119.5 213.5t-197.5 148t-266 55q-145 0 -263.5 -54t-194.5 -146.5t-117 -212.5t-41 -255v-4zM539 1780q0 24 17.5 41.5t41.5 17.5t40.5 -17.5t16.5 -41.5q0 -25 -17 -42.5 t-40 -17.5q-25 0 -42 17.5t-17 42.5zM948 1780q0 24 18 41.5t42 17.5t40.5 -17.5t16.5 -41.5q0 -25 -16.5 -42.5t-40.5 -17.5q-25 0 -42.5 17.5t-17.5 42.5z" />
<glyph unicode="&#xd7;" horiz-adv-x="1118" d="M135 297l359 356l-359 359l53 53l357 -358l385 385l53 -54l-385 -385l385 -385l-53 -51l-385 385l-357 -358z" />
<glyph unicode="&#xd8;" horiz-adv-x="1640" d="M119 719v4q0 150 46.5 284t133 237t221 163.5t299.5 60.5q181 0 322 -69l141 280h82l-160 -315q154 -98 236 -267.5t82 -373.5v-4q0 -120 -29 -230t-88 -203.5t-141.5 -163t-197 -108.5t-247.5 -39q-154 0 -284 54l-123 -244h-82l139 276q-168 93 -259 268.5t-91 389.5z M201 721q0 -188 79 -346t224 -244l602 1196q-132 66 -289 66q-145 0 -263.5 -54t-194.5 -146.5t-117 -212.5t-41 -255v-4zM569 98q117 -49 252 -49q118 0 219 35t174 97.5t125 146.5t77.5 183t25.5 206v6q0 175 -72 326.5t-203 240.5z" />
<glyph unicode="&#xd9;" horiz-adv-x="1538" d="M182 631v813h80v-805q0 -287 137.5 -437.5t372.5 -150.5q237 0 370.5 149t133.5 437v807h80v-813q0 -161 -42.5 -286t-120 -205t-185 -121.5t-238.5 -41.5q-130 0 -237 41t-185.5 121t-122 205.5t-43.5 286.5zM465 1970h86l207 -254h-80z" />
<glyph unicode="&#xda;" horiz-adv-x="1538" d="M182 631v813h80v-805q0 -287 137.5 -437.5t372.5 -150.5q237 0 370.5 149t133.5 437v807h80v-813q0 -161 -42.5 -286t-120 -205t-185 -121.5t-238.5 -41.5q-130 0 -237 41t-185.5 121t-122 205.5t-43.5 286.5zM637 1724l207 254h86l-213 -254h-80z" />
<glyph unicode="&#xdb;" horiz-adv-x="1538" d="M182 631v813h80v-805q0 -287 137.5 -437.5t372.5 -150.5q237 0 370.5 149t133.5 437v807h80v-813q0 -161 -42.5 -286t-120 -205t-185 -121.5t-238.5 -41.5q-130 0 -237 41t-185.5 121t-122 205.5t-43.5 286.5zM567 1722l203 211h88l205 -211h-76l-174 174l-170 -174h-76z " />
<glyph unicode="&#xdc;" horiz-adv-x="1538" d="M182 631v813h80v-805q0 -287 137.5 -437.5t372.5 -150.5q237 0 370.5 149t133.5 437v807h80v-813q0 -161 -42.5 -286t-120 -205t-185 -121.5t-238.5 -41.5q-130 0 -237 41t-185.5 121t-122 205.5t-43.5 286.5zM502 1780q0 24 17.5 41.5t41.5 17.5t40.5 -17.5t16.5 -41.5 q0 -25 -17 -42.5t-40 -17.5q-25 0 -42 17.5t-17 42.5zM911 1780q0 24 17.5 41.5t42.5 17.5q24 0 40.5 -17.5t16.5 -41.5q0 -25 -16.5 -42.5t-40.5 -17.5q-25 0 -42.5 17.5t-17.5 42.5z" />
<glyph unicode="&#xdd;" horiz-adv-x="1245" d="M82 1444h90l453 -864l448 864h90l-499 -952v-492h-80v492zM477 1724l207 254h86l-213 -254h-80z" />
<glyph unicode="&#xde;" horiz-adv-x="1341" d="M276 0v1446h80v-287h244q498 0 498 -399v-4q0 -406 -506 -406h-236v-350h-80zM356 422h234q230 0 330 85t100 247v4q0 76 -21.5 134t-69.5 103t-132 68.5t-203 23.5h-238v-665z" />
<glyph unicode="&#xdf;" horiz-adv-x="1378" d="M205 -6v950q0 129 27.5 235.5t81.5 186.5t140.5 125t198.5 47q192 -5 300 -98t108 -262q0 -115 -50 -194t-141 -118q146 -39 241 -157.5t95 -274.5q0 -213 -145 -345t-377 -132q-157 0 -281 74l25 67q106 -71 254 -71q204 0 326 113.5t122 293.5q0 164 -123.5 279 t-308.5 112v74q130 -2 208.5 66.5t78.5 199.5q0 137 -86.5 216t-239.5 79q-96 0 -170 -41.5t-118.5 -113t-67 -161t-22.5 -192.5v-958h-76z" />
<glyph unicode="&#xe0;" horiz-adv-x="1396" d="M127 514v4q0 231 151.5 386t376.5 155q156 0 278 -79.5t185 -213.5v268h76v-1034h-76v272q-61 -137 -184 -217t-279 -80q-147 0 -268 69.5t-190.5 193t-69.5 276.5zM205 516q0 -133 63 -241t167 -167t227 -59q189 0 320.5 132.5t131.5 334.5v4q0 200 -134.5 333.5 t-322.5 133.5q-189 0 -320.5 -133t-131.5 -334v-4zM492 1567h94l207 -254h-88z" />
<glyph unicode="&#xe1;" horiz-adv-x="1396" d="M127 514v4q0 231 151.5 386t376.5 155q156 0 278 -79.5t185 -213.5v268h76v-1034h-76v272q-61 -137 -184 -217t-279 -80q-147 0 -268 69.5t-190.5 193t-69.5 276.5zM205 516q0 -133 63 -241t167 -167t227 -59q189 0 320.5 132.5t131.5 334.5v4q0 200 -134.5 333.5 t-322.5 133.5q-189 0 -320.5 -133t-131.5 -334v-4zM532 1315l207 254h86l-213 -254h-80z" />
<glyph unicode="&#xe2;" horiz-adv-x="1396" d="M127 514v4q0 231 151.5 386t376.5 155q156 0 278 -79.5t185 -213.5v268h76v-1034h-76v272q-61 -137 -184 -217t-279 -80q-147 0 -268 69.5t-190.5 193t-69.5 276.5zM205 516q0 -133 63 -241t167 -167t227 -59q189 0 320.5 132.5t131.5 334.5v4q0 200 -134.5 333.5 t-322.5 133.5q-189 0 -320.5 -133t-131.5 -334v-4zM440 1315l203 211h88l205 -211h-76l-174 174l-170 -174h-76z" />
<glyph unicode="&#xe3;" horiz-adv-x="1396" d="M127 514v4q0 231 151.5 386t376.5 155q156 0 278 -79.5t185 -213.5v268h76v-1034h-76v272q-61 -137 -184 -217t-279 -80q-147 0 -268 69.5t-190.5 193t-69.5 276.5zM205 516q0 -133 63 -241t167 -167t227 -59q189 0 320.5 132.5t131.5 334.5v4q0 200 -134.5 333.5 t-322.5 133.5q-189 0 -320.5 -133t-131.5 -334v-4zM369 1233q-3 78 46 133t122 55q36 0 75 -20t68 -43.5t64.5 -43.5t64.5 -20q51 0 81.5 30t27.5 87h59q3 -77 -46 -125.5t-122 -48.5q-37 0 -76.5 19.5t-68 43t-64 43t-65.5 19.5q-48 0 -79 -35.5t-30 -93.5h-57z" />
<glyph unicode="&#xe4;" horiz-adv-x="1396" d="M127 514v4q0 231 151.5 386t376.5 155q156 0 278 -79.5t185 -213.5v268h76v-1034h-76v272q-61 -137 -184 -217t-279 -80q-147 0 -268 69.5t-190.5 193t-69.5 276.5zM205 516q0 -133 63 -241t167 -167t227 -59q189 0 320.5 132.5t131.5 334.5v4q0 200 -134.5 333.5 t-322.5 133.5q-189 0 -320.5 -133t-131.5 -334v-4zM422 1333q0 26 18 45t45 19q26 0 44 -19.5t18 -44.5q0 -26 -18.5 -44.5t-43.5 -18.5q-26 0 -44.5 18.5t-18.5 44.5zM758 1333q0 26 18 45t45 19q26 0 44 -19.5t18 -44.5q0 -26 -18.5 -44.5t-43.5 -18.5q-26 0 -44.5 18.5 t-18.5 44.5z" />
<glyph unicode="&#xe5;" horiz-adv-x="1396" d="M127 514v4q0 231 151.5 386t376.5 155q156 0 278 -79.5t185 -213.5v268h76v-1034h-76v272q-61 -137 -184 -217t-279 -80q-147 0 -268 69.5t-190.5 193t-69.5 276.5zM205 516q0 -133 63 -241t167 -167t227 -59q189 0 320.5 132.5t131.5 334.5v4q0 200 -134.5 333.5 t-322.5 133.5q-189 0 -320.5 -133t-131.5 -334v-4zM563 1335q0 50 34 84.5t83 34.5q50 0 84.5 -35t34.5 -84q0 -47 -35 -81.5t-84 -34.5t-83 34t-34 82zM616 1337q0 -26 19 -45.5t45 -19.5q27 0 46 19t19 46t-19 46.5t-46 19.5q-26 0 -45 -20t-19 -46z" />
<glyph unicode="&#xe6;" horiz-adv-x="2314" d="M160 514v4q0 231 151.5 386t376.5 155q153 0 276 -77t185 -208v260h74v-272q59 135 178.5 216t263.5 81q119 0 215.5 -44.5t156.5 -118t92 -164.5t32 -189v-21h-926q-1 -115 35.5 -207.5t98.5 -150.5t139.5 -88.5t162.5 -30.5q128 0 235.5 65.5t166.5 176.5l59 -37 q-67 -127 -189.5 -201t-275.5 -74q-145 0 -265 80.5t-179 214.5v-270h-74v262q-62 -131 -185 -209t-276 -78q-147 0 -268 69.5t-190.5 193t-69.5 276.5zM233 516q0 -134 62.5 -241.5t166.5 -166.5t228 -59q189 0 321 132.5t132 334.5v4q0 200 -134.5 333.5t-322.5 133.5 q-189 0 -321 -133t-132 -334v-4zM1235 582h846q-3 80 -33 153t-82 129.5t-130.5 90.5t-172.5 34q-162 0 -285 -114t-143 -293z" />
<glyph unicode="&#xe7;" horiz-adv-x="1271" d="M137 514v4q0 114 41.5 214.5t112.5 172t169.5 113t209.5 41.5q147 0 267 -70.5t189 -191.5l-65 -39q-61 105 -165 167t-228 62q-189 0 -320 -133t-131 -334v-4q0 -134 62.5 -241.5t166 -166.5t226.5 -59q131 0 237 66.5t164 181.5l64 -33q-64 -133 -188 -211t-279 -78 q-8 0 -23 1t-22 1l-13 -57q73 -6 112.5 -37t39.5 -96q0 -71 -65.5 -110.5t-184.5 -38.5l-10 49q99 -3 155 23t56 77q0 48 -35 67.5t-131 22.5l22 107q-190 34 -312 180t-122 350z" />
<glyph unicode="&#xe8;" horiz-adv-x="1277" d="M137 514v4q0 114 40.5 214.5t109.5 172t163.5 113t198.5 41.5q119 0 216 -44.5t156.5 -118t91.5 -164.5t32 -189v-23h-930v-4q0 -134 61.5 -243t161.5 -168.5t215 -59.5q130 0 237.5 65.5t164.5 178.5l61 -37q-67 -127 -190 -202t-277 -75q-103 0 -197.5 41t-163.5 111.5 t-110 171.5t-41 215zM219 584h848q-3 80 -33 152.5t-82 129t-131 90t-174 33.5q-163 0 -284.5 -114t-143.5 -291zM455 1567h94l207 -254h-88z" />
<glyph unicode="&#xe9;" horiz-adv-x="1277" d="M137 514v4q0 114 40.5 214.5t109.5 172t163.5 113t198.5 41.5q119 0 216 -44.5t156.5 -118t91.5 -164.5t32 -189v-23h-930v-4q0 -134 61.5 -243t161.5 -168.5t215 -59.5q130 0 237.5 65.5t164.5 178.5l61 -37q-67 -127 -190 -202t-277 -75q-103 0 -197.5 41t-163.5 111.5 t-110 171.5t-41 215zM219 584h848q-3 80 -33 152.5t-82 129t-131 90t-174 33.5q-163 0 -284.5 -114t-143.5 -291zM498 1315l207 254h86l-213 -254h-80z" />
<glyph unicode="&#xea;" horiz-adv-x="1277" d="M137 514v4q0 114 40.5 214.5t109.5 172t163.5 113t198.5 41.5q119 0 216 -44.5t156.5 -118t91.5 -164.5t32 -189v-23h-930v-4q0 -134 61.5 -243t161.5 -168.5t215 -59.5q130 0 237.5 65.5t164.5 178.5l61 -37q-67 -127 -190 -202t-277 -75q-103 0 -197.5 41t-163.5 111.5 t-110 171.5t-41 215zM219 584h848q-3 80 -33 152.5t-82 129t-131 90t-174 33.5q-163 0 -284.5 -114t-143.5 -291zM403 1315l203 211h88l205 -211h-76l-174 174l-170 -174h-76z" />
<glyph unicode="&#xeb;" horiz-adv-x="1277" d="M137 514v4q0 114 40.5 214.5t109.5 172t163.5 113t198.5 41.5q119 0 216 -44.5t156.5 -118t91.5 -164.5t32 -189v-23h-930v-4q0 -134 61.5 -243t161.5 -168.5t215 -59.5q130 0 237.5 65.5t164.5 178.5l61 -37q-67 -127 -190 -202t-277 -75q-103 0 -197.5 41t-163.5 111.5 t-110 171.5t-41 215zM219 584h848q-3 80 -33 152.5t-82 129t-131 90t-174 33.5q-163 0 -284.5 -114t-143.5 -291zM387 1333q0 25 18.5 44.5t45.5 19.5q26 0 43.5 -19.5t17.5 -44.5q0 -26 -18 -44.5t-43 -18.5q-26 0 -45 18.5t-19 44.5zM723 1333q0 26 18 45t45 19 q26 0 44 -19.5t18 -44.5q0 -26 -18.5 -44.5t-43.5 -18.5q-26 0 -44.5 18.5t-18.5 44.5z" />
<glyph unicode="&#xec;" horiz-adv-x="589" d="M102 1567h95l206 -254h-88zM258 0v1034h74v-1034h-74z" />
<glyph unicode="&#xed;" horiz-adv-x="589" d="M145 1315l207 254h86l-213 -254h-80zM258 0v1034h74v-1034h-74z" />
<glyph unicode="&#xee;" horiz-adv-x="589" d="M51 1315l203 211h88l205 -211h-76l-174 174l-170 -174h-76zM258 0v1034h74v-1034h-74z" />
<glyph unicode="&#xef;" horiz-adv-x="589" d="M53 1333q0 25 18.5 44.5t45.5 19.5q26 0 43.5 -19.5t17.5 -44.5q0 -26 -18 -44.5t-43 -18.5q-26 0 -45 18.5t-19 44.5zM258 0v1034h74v-1034h-74zM389 1333q0 25 18.5 44.5t45.5 19.5q26 0 43.5 -19.5t17.5 -44.5q0 -26 -18 -44.5t-43 -18.5q-26 0 -45 18.5t-19 44.5z " />
<glyph unicode="&#xf0;" horiz-adv-x="1359" d="M137 518q0 147 71 272t195.5 199t272.5 74q143 0 254.5 -69t179.5 -175q-47 200 -160 375.5t-336 417.5l-200 -217l-49 45l202 221q-134 141 -256 235l43 52q119 -87 260 -238l193 203l43 -45l-186 -207q137 -145 232 -268t172.5 -264t115 -292t37.5 -319 q-1 -112 -45 -212t-117 -171t-173 -113t-210 -42q-149 0 -273 71.5t-195 195.5t-71 271zM209 520q0 -197 135 -332q137 -137 332 -137q94 0 180 36.5t152 100.5q137 134 137 332q0 94 -36 180.5t-101 151.5t-151.5 101t-180.5 36q-198 0 -332 -137q-64 -65 -99.5 -151.5 t-35.5 -180.5z" />
<glyph unicode="&#xf1;" horiz-adv-x="1224" d="M180 0v1034h76v-243q32 104 133 186t244 82q200 0 307 -111t107 -325v-623h-76v616q0 180 -90 274.5t-258 94.5q-149 0 -256.5 -110t-110.5 -279v-596h-76zM289 1233q-3 78 46 133t122 55q36 0 75 -20t68 -43.5t64.5 -43.5t64.5 -20q51 0 81.5 30t27.5 87h59 q3 -77 -46 -125.5t-122 -48.5q-37 0 -76.5 19.5t-68 43t-64 43t-65.5 19.5q-48 0 -79 -35.5t-30 -93.5h-57z" />
<glyph unicode="&#xf2;" horiz-adv-x="1318" d="M127 514v4q0 114 41.5 214.5t112.5 172t169 113t209 41.5q147 0 269 -69t193 -192.5t71 -275.5v-4q0 -232 -154 -387.5t-379 -155.5q-147 0 -268.5 69t-192.5 193t-71 277zM205 516q0 -133 63 -241t167 -167t227 -59q189 0 320.5 132.5t131.5 334.5v4q0 200 -134.5 333.5 t-322.5 133.5q-189 0 -320.5 -133t-131.5 -334v-4zM467 1567h94l207 -254h-88z" />
<glyph unicode="&#xf3;" horiz-adv-x="1318" d="M127 514v4q0 114 41.5 214.5t112.5 172t169 113t209 41.5q147 0 269 -69t193 -192.5t71 -275.5v-4q0 -232 -154 -387.5t-379 -155.5q-147 0 -268.5 69t-192.5 193t-71 277zM205 516q0 -133 63 -241t167 -167t227 -59q189 0 320.5 132.5t131.5 334.5v4q0 200 -134.5 333.5 t-322.5 133.5q-189 0 -320.5 -133t-131.5 -334v-4zM510 1315l207 254h86l-213 -254h-80z" />
<glyph unicode="&#xf4;" horiz-adv-x="1318" d="M127 514v4q0 114 41.5 214.5t112.5 172t169 113t209 41.5q147 0 269 -69t193 -192.5t71 -275.5v-4q0 -232 -154 -387.5t-379 -155.5q-147 0 -268.5 69t-192.5 193t-71 277zM205 516q0 -133 63 -241t167 -167t227 -59q189 0 320.5 132.5t131.5 334.5v4q0 200 -134.5 333.5 t-322.5 133.5q-189 0 -320.5 -133t-131.5 -334v-4zM416 1315l202 211h89l204 -211h-75l-174 174l-170 -174h-76z" />
<glyph unicode="&#xf5;" horiz-adv-x="1318" d="M127 514v4q0 114 41.5 214.5t112.5 172t169 113t209 41.5q147 0 269 -69t193 -192.5t71 -275.5v-4q0 -232 -154 -387.5t-379 -155.5q-147 0 -268.5 69t-192.5 193t-71 277zM205 516q0 -133 63 -241t167 -167t227 -59q189 0 320.5 132.5t131.5 334.5v4q0 200 -134.5 333.5 t-322.5 133.5q-189 0 -320.5 -133t-131.5 -334v-4zM344 1233q-3 78 46 133t122 55q36 0 75 -20t68 -43.5t64.5 -43.5t64.5 -20q52 0 82 30t27 87h59q3 -77 -45.5 -125.5t-122.5 -48.5q-37 0 -76.5 19.5t-68 43t-64 43t-65.5 19.5q-48 0 -79 -35.5t-30 -93.5h-57z" />
<glyph unicode="&#xf6;" horiz-adv-x="1318" d="M127 514v4q0 114 41.5 214.5t112.5 172t169 113t209 41.5q147 0 269 -69t193 -192.5t71 -275.5v-4q0 -232 -154 -387.5t-379 -155.5q-147 0 -268.5 69t-192.5 193t-71 277zM205 516q0 -133 63 -241t167 -167t227 -59q189 0 320.5 132.5t131.5 334.5v4q0 200 -134.5 333.5 t-322.5 133.5q-189 0 -320.5 -133t-131.5 -334v-4zM397 1333q0 25 18.5 44.5t45.5 19.5q26 0 43.5 -19.5t17.5 -44.5q0 -26 -18 -44.5t-43 -18.5q-26 0 -45 18.5t-19 44.5zM733 1333q0 25 18.5 44.5t45.5 19.5q26 0 43.5 -19.5t17.5 -44.5q0 -26 -18 -44.5t-43 -18.5 q-26 0 -45 18.5t-19 44.5z" />
<glyph unicode="&#xf7;" horiz-adv-x="1060" d="M166 647v74h731v-74h-731zM465 369q0 33 23.5 56.5t58.5 23.5q31 0 54.5 -24t23.5 -56t-23.5 -56t-54.5 -24q-35 0 -58.5 23.5t-23.5 56.5zM465 1028q0 33 23.5 56.5t58.5 23.5q31 0 54.5 -24t23.5 -56t-23.5 -56t-54.5 -24q-35 0 -58.5 23.5t-23.5 56.5z" />
<glyph unicode="&#xf8;" horiz-adv-x="1429" d="M172 514v4q0 114 41.5 214.5t112.5 172t169.5 113t209.5 41.5q198 0 342 -119l149 195h68l-179 -232q152 -152 152 -381v-4q0 -153 -70 -277.5t-191.5 -195t-270.5 -70.5q-154 0 -281 76l-117 -149h-67l141 180q-97 74 -153 186t-56 246zM250 516q0 -116 48 -212.5 t130 -160.5l571 736q-127 108 -297 108q-189 0 -320.5 -133t-131.5 -334v-4zM473 113q106 -64 234 -64q190 0 321 132t131 335v4q0 188 -121 322z" />
<glyph unicode="&#xf9;" horiz-adv-x="1148" d="M137 459v575h78v-571q0 -74 12.5 -134.5t33 -102.5t50 -74.5t60.5 -51.5t68.5 -31t70 -16t68.5 -4q356 0 356 412v573h78v-575q0 -96 -18.5 -173t-51.5 -128.5t-74.5 -88t-93 -56t-99.5 -28t-102 -8.5q-63 0 -120 11.5t-116.5 44t-102 84t-70 139.5t-27.5 203zM399 1567 h95l206 -254h-88z" />
<glyph unicode="&#xfa;" horiz-adv-x="1148" d="M137 459v575h78v-571q0 -74 12.5 -134.5t33 -102.5t50 -74.5t60.5 -51.5t68.5 -31t70 -16t68.5 -4q356 0 356 412v573h78v-575q0 -96 -18.5 -173t-51.5 -128.5t-74.5 -88t-93 -56t-99.5 -28t-102 -8.5q-63 0 -120 11.5t-116.5 44t-102 84t-70 139.5t-27.5 203zM442 1315 l207 254h86l-213 -254h-80z" />
<glyph unicode="&#xfb;" horiz-adv-x="1148" d="M137 459v575h78v-571q0 -74 12.5 -134.5t33 -102.5t50 -74.5t60.5 -51.5t68.5 -31t70 -16t68.5 -4q356 0 356 412v573h78v-575q0 -96 -18.5 -173t-51.5 -128.5t-74.5 -88t-93 -56t-99.5 -28t-102 -8.5q-63 0 -120 11.5t-116.5 44t-102 84t-70 139.5t-27.5 203zM348 1315 l203 211h88l205 -211h-76l-174 174l-170 -174h-76z" />
<glyph unicode="&#xfc;" horiz-adv-x="1148" d="M137 459v575h78v-571q0 -74 12.5 -134.5t33 -102.5t50 -74.5t60.5 -51.5t68.5 -31t70 -16t68.5 -4q356 0 356 412v573h78v-575q0 -96 -18.5 -173t-51.5 -128.5t-74.5 -88t-93 -56t-99.5 -28t-102 -8.5q-63 0 -120 11.5t-116.5 44t-102 84t-70 139.5t-27.5 203zM330 1333 q0 26 18 45t45 19q26 0 44 -19.5t18 -44.5q0 -26 -18.5 -44.5t-43.5 -18.5q-26 0 -44.5 18.5t-18.5 44.5zM666 1333q0 26 18 45t45 19q26 0 44 -19.5t18 -44.5q0 -26 -18.5 -44.5t-43.5 -18.5q-26 0 -44.5 18.5t-18.5 44.5z" />
<glyph unicode="&#xfd;" horiz-adv-x="1169" d="M125 -258l55 41q55 -95 158 -143t217 -48q160 0 264.5 108.5t104.5 283.5v200q-55 -109 -151.5 -154.5t-203.5 -45.5q-58 0 -112 11t-113.5 43.5t-102.5 84t-71.5 140t-28.5 202.5v569h78v-565q0 -85 16.5 -153t46 -112t64 -74.5t77 -46t78 -22t72.5 -6.5q47 0 90 8.5 t92 35.5t84.5 70.5t59 120t23.5 177.5v567h77v-1046q0 -205 -122.5 -335t-319.5 -130q-133 0 -251.5 56.5t-180.5 162.5zM420 1315l207 254h86l-213 -254h-80z" />
<glyph unicode="&#xfe;" horiz-adv-x="1359" d="M242 -461v1895h75v-664q62 134 184 211.5t277 77.5q223 0 375 -155t152 -386v-4q0 -153 -70 -276.5t-190.5 -193t-266.5 -69.5q-155 0 -277 78.5t-184 212.5v-727h-75zM319 516q0 -202 132 -334.5t321 -132.5q123 0 226.5 59t166 166.5t62.5 241.5v4q0 201 -131 334 t-320 133q-188 0 -322.5 -133.5t-134.5 -333.5v-4z" />
<glyph unicode="&#xff;" horiz-adv-x="1169" d="M125 -258l55 41q55 -95 158 -143t217 -48q160 0 264.5 108.5t104.5 283.5v200q-55 -109 -151.5 -154.5t-203.5 -45.5q-58 0 -112 11t-113.5 43.5t-102.5 84t-71.5 140t-28.5 202.5v569h78v-565q0 -85 16.5 -153t46 -112t64 -74.5t77 -46t78 -22t72.5 -6.5q47 0 90 8.5 t92 35.5t84.5 70.5t59 120t23.5 177.5v567h77v-1046q0 -205 -122.5 -335t-319.5 -130q-133 0 -251.5 56.5t-180.5 162.5zM309 1333q0 25 18.5 44.5t45.5 19.5q26 0 43.5 -19.5t17.5 -44.5q0 -26 -18 -44.5t-43 -18.5q-26 0 -45 18.5t-19 44.5zM645 1333q0 25 18.5 44.5 t45.5 19.5q26 0 43.5 -19.5t17.5 -44.5q0 -26 -18 -44.5t-43 -18.5q-26 0 -45 18.5t-19 44.5z" />
<glyph unicode="&#x152;" horiz-adv-x="2695" d="M184 721v4q0 150 46.5 284t133.5 237t223 163.5t302 60.5q218 0 376 -100t244 -270v346h957v-74h-877v-514h809v-72h-807q0 -10 1 -30.5t1 -30.5v-4q0 -26 -4 -80v-569h905v-72h-985v346q-85 -171 -243.5 -271t-376.5 -100q-133 0 -247.5 39t-197.5 108.5t-142.5 163.5 t-88.5 204.5t-29 230.5zM266 721q0 -107 26 -205.5t79 -183t126.5 -147.5t175 -98.5t218.5 -35.5q138 0 252 47.5t190.5 131t121.5 192t54 233.5v129q-9 125 -55 234.5t-123 194t-192 133.5t-254 49q-145 0 -264 -54.5t-195.5 -147t-118 -212.5t-41.5 -254v-6z" />
<glyph unicode="&#x153;" horiz-adv-x="2308" d="M156 512v4q0 114 41.5 214.5t112.5 172t169 113t209 41.5q168 0 302 -90t194 -240q59 150 187.5 241t285.5 91q119 0 216 -44.5t157 -118t92 -164.5t32 -189v-21h-929v-2v-4q0 -134 61 -243t161 -168.5t216 -59.5q129 0 236.5 65.5t166.5 176.5l60 -37 q-67 -127 -190.5 -201t-276.5 -74q-158 0 -288 90.5t-189 239.5q-59 -151 -192 -241.5t-302 -90.5q-147 0 -268.5 69t-192.5 193t-71 277zM233 514q0 -133 63 -241t167 -167t227 -59q190 0 321.5 132t131.5 335v4q0 133 -62.5 240.5t-167 167t-227.5 59.5q-189 0 -321 -133 t-132 -334v-4zM1227 582h846q-3 80 -33 153t-82 129.5t-130.5 90.5t-172.5 34q-162 0 -284 -114.5t-144 -292.5z" />
<glyph unicode="&#x178;" horiz-adv-x="1245" d="M82 1444h90l453 -864l448 864h90l-499 -952v-492h-80v492zM340 1780q0 24 17.5 41.5t41.5 17.5t41 -17.5t17 -41.5q0 -25 -17.5 -42.5t-40.5 -17.5q-25 0 -42 17.5t-17 42.5zM750 1780q0 24 17.5 41.5t41.5 17.5t40.5 -17.5t16.5 -41.5q0 -25 -16.5 -42.5t-40.5 -17.5 q-25 0 -42 17.5t-17 42.5z" />
<glyph unicode="&#x2c6;" horiz-adv-x="1155" d="M336 1315l203 211h88l204 -211h-75l-174 174l-170 -174h-76z" />
<glyph unicode="&#x2dc;" horiz-adv-x="1155" d="M264 1233q-3 78 46 133t122 55q36 0 75 -20t68 -43.5t65 -43.5t65 -20q51 0 81 30t27 87h59q3 -77 -45.5 -125.5t-121.5 -48.5q-37 0 -76.5 19.5t-68 43t-64.5 43t-66 19.5q-48 0 -78.5 -35.5t-29.5 -93.5h-58z" />
<glyph unicode="&#x2000;" horiz-adv-x="989" />
<glyph unicode="&#x2001;" horiz-adv-x="1978" />
<glyph unicode="&#x2002;" horiz-adv-x="989" />
<glyph unicode="&#x2003;" horiz-adv-x="1978" />
<glyph unicode="&#x2004;" horiz-adv-x="659" />
<glyph unicode="&#x2005;" horiz-adv-x="494" />
<glyph unicode="&#x2006;" horiz-adv-x="329" />
<glyph unicode="&#x2007;" horiz-adv-x="329" />
<glyph unicode="&#x2008;" horiz-adv-x="247" />
<glyph unicode="&#x2009;" horiz-adv-x="395" />
<glyph unicode="&#x200a;" horiz-adv-x="109" />
<glyph unicode="&#x2010;" horiz-adv-x="933" d="M203 682v74h528v-74h-528z" />
<glyph unicode="&#x2011;" horiz-adv-x="933" d="M203 682v74h528v-74h-528z" />
<glyph unicode="&#x2012;" horiz-adv-x="933" d="M203 682v74h528v-74h-528z" />
<glyph unicode="&#x2013;" horiz-adv-x="1232" d="M203 684v72h829v-72h-829z" />
<glyph unicode="&#x2014;" horiz-adv-x="1961" d="M209 684v72h1544v-72h-1544z" />
<glyph unicode="&#x2018;" horiz-adv-x="485" d="M190 1153v111q0 89 22 133t71 63l18 -37q-35 -14 -48 -47.5t-11 -91.5h49v-131h-101z" />
<glyph unicode="&#x2019;" horiz-adv-x="462" d="M180 1178q35 16 48.5 50t13.5 91h-52v131h101v-111q0 -91 -21 -134.5t-69 -61.5z" />
<glyph unicode="&#x201a;" horiz-adv-x="481" d="M178 -143q36 14 50 48.5t14 94.5h-54v135h105v-115q0 -93 -21.5 -138t-72.5 -64z" />
<glyph unicode="&#x201c;" horiz-adv-x="698" d="M188 1149v115q0 92 22 137.5t73 64.5l20 -39q-64 -26 -61 -143h51v-135h-105zM401 1149v115q0 92 22 137.5t73 64.5l20 -39q-36 -14 -49.5 -48.5t-11.5 -94.5h51v-135h-105z" />
<glyph unicode="&#x201d;" horiz-adv-x="694" d="M174 1182q36 14 50 48.5t14 94.5h-54v135h105v-114q0 -93 -21.5 -138.5t-72.5 -64.5zM387 1182q36 14 50 48.5t14 94.5h-54v135h105v-114q0 -92 -22 -138t-72 -65z" />
<glyph unicode="&#x201e;" horiz-adv-x="696" d="M178 -158q36 14 50 49t14 93h-54v137h105v-115q0 -94 -21 -139t-73 -64zM393 -158q65 27 62 142h-52v137h105v-115q0 -94 -22 -139t-74 -64z" />
<glyph unicode="&#x2022;" horiz-adv-x="1011" d="M279 721v4q0 93 67.5 159t161.5 66t161.5 -66t67.5 -159v-4q0 -92 -67.5 -157.5t-161.5 -65.5t-161.5 65.5t-67.5 157.5z" />
<glyph unicode="&#x2026;" horiz-adv-x="1183" d="M61 66q0 27 19.5 47t46.5 20t46.5 -20t19.5 -47t-19.5 -46.5t-46.5 -19.5q-28 0 -47 19t-19 47zM477 66q0 26 20.5 46.5t47.5 20.5q26 0 44.5 -20t18.5 -47q0 -28 -18.5 -47t-44.5 -19q-28 0 -48 19t-20 47zM893 66q0 27 19 47t46 20t46.5 -20t19.5 -47t-19.5 -46.5 t-46.5 -19.5q-28 0 -46.5 19t-18.5 47z" />
<glyph unicode="&#x202f;" horiz-adv-x="395" />
<glyph unicode="&#x2039;" horiz-adv-x="749" d="M152 516v23l366 428l49 -41l-329 -400l329 -397l-49 -41z" />
<glyph unicode="&#x203a;" horiz-adv-x="749" d="M182 129l330 397l-330 400l47 41l367 -428v-23l-367 -428z" />
<glyph unicode="&#x205f;" horiz-adv-x="494" />
<glyph unicode="&#x20ac;" horiz-adv-x="1597" d="M162 530v58h178q-12 186 6 282h-184v60h192q52 239 204 387.5t364 148.5q341 0 510 -313l-76 -29q-50 85 -104.5 141t-139 93t-190.5 37q-177 0 -308 -129.5t-178 -335.5h602v-60h-612q-19 -127 -4 -282h616v-58h-606q43 -219 178.5 -350t325.5 -131q147 0 248 74.5 t178 208.5l72 -27q-177 -330 -500 -330q-226 0 -383 151.5t-203 403.5h-186z" />
<glyph unicode="&#x2122;" horiz-adv-x="1525" d="M100 1380v70h510v-70h-219v-587h-69v587h-222zM735 793v657h60l256 -371l258 371h59v-657h-63v544l-254 -356l-252 356v-544h-64z" />
<glyph unicode="&#x25fc;" horiz-adv-x="1034" d="M0 0v1034h1034v-1034h-1034z" />
</font>
</defs>
</svg>
