<!-- Generator: Adobe Illustrator 19.2.1, SVG Export Plug-In  -->
<svg version="1.1"
	 xmlns="http://www.w3.org/2000/svg" xmlns:xlink="http://www.w3.org/1999/xlink" xmlns:a="http://ns.adobe.com/AdobeSVGViewerExtensions/3.0/"
	 x="0px" y="0px" width="114.6px" height="114.6px" viewBox="0 0 114.6 114.6" style="enable-background:new 0 0 114.6 114.6;"
	 xml:space="preserve">
<style type="text/css">
	.st0{fill:#0D1422;stroke:#376EB6;stroke-width:5;stroke-miterlimit:10;}
	.st1{fill:#376EB6;}
</style>
<defs>
</defs>
<circle class="st0" cx="57.3" cy="57.3" r="54.8"/>
<g>
	<path class="st1" d="M23.2,35.9h16.6c7.7,0,13.1,3.6,13.1,11v0.1c0,3.6-1.6,6.8-4.2,8.1c4.1,1.1,7.1,5.2,7,10.7v0.1
		c0,8.1-5.2,11.6-14.6,11.6H23.2V35.9z M41.9,52c2.6,0,3.9-1.8,3.9-4.5v-0.1c0-2.8-1.9-4.7-5.4-4.7h-9.5V52H41.9z M41.1,70.6
		c5.7,0,7.5-2,7.5-6v-0.1c0-4.1-2.3-5.7-6.5-5.7H30.8v11.8H41.1z"/>
	<path class="st1" d="M62.2,35.9h16.6c7.7,0,13.1,3.6,13.1,11v0.1c0,3.6-1.6,6.8-4.2,8.1c4.1,1.1,7.1,5.2,7,10.7v0.1
		c0,8.1-5.2,11.6-14.6,11.6H62.2V35.9z M80.9,52c2.6,0,3.9-1.8,3.9-4.5v-0.1c0-2.8-1.9-4.7-5.4-4.7h-9.5V52H80.9z M80,70.6
		c5.7,0,7.5-2,7.5-6v-0.1c0-4.1-2.3-5.7-6.5-5.7H69.8v11.8H80z"/>
</g>
</svg>
