<?xml version="1.0" encoding="utf-8"?>
<!-- Generator: Adobe Illustrator 19.2.1, SVG Export Plug-In . SVG Version: 6.00 Build 0)  -->
<svg version="1.1" id="Layer_1" xmlns="http://www.w3.org/2000/svg" xmlns:xlink="http://www.w3.org/1999/xlink" x="0px" y="0px"
	 viewBox="0 0 134.6 134.6" style="enable-background:new 0 0 134.6 134.6;" xml:space="preserve">
<style type="text/css">
	.st0{fill:#584280;}
	.st1{fill:#F8F5F6;}
	.st2{fill:#F8F7F7;}
	.st3{fill:none;stroke:#F8F5F6;stroke-width:4;stroke-miterlimit:10;}
	.st4{fill:#FFFFFF;}
</style>
<circle class="st0" cx="67.3" cy="67.3" r="67.3"/>
<path class="st1" d="M19.4,87.5c-1.3-3.1-2.3-6.3-3-9.6c-0.3-1.4-0.5-2.8-0.7-4.2L3.6,75.3c0.2,1.8,0.5,3.5,0.9,5.2
	c0.9,4.1,2.1,8.1,3.8,11.9c0.3,0.7,0.6,1.4,1,2.1l11-5.2C19.9,88.7,19.6,88.1,19.4,87.5z"/>
<path class="st1" d="M119.7,102.2l-10.2-6.7c-1.9,2.9-4.2,5.7-6.6,8.2c-1.3,1.3-2.8,2.6-4.2,3.8l7.6,9.5c1.8-1.5,3.6-3,5.2-4.7
	C114.6,109.2,117.3,105.8,119.7,102.2z"/>
<path class="st1" d="M47.5,115c-2.3-0.9-4.6-2-6.7-3.3l-6.1,10.5c2.7,1.6,5.5,2.9,8.4,4.1c3.3,1.3,6.7,2.4,10.3,3.1l2.6-11.9
	C52.9,116.9,50.2,116.1,47.5,115z"/>
<path class="st1" d="M113.8,47.2c1.3,3.1,2.3,6.3,3,9.6c0.3,1.4,0.5,2.8,0.7,4.2l12.1-1.5c-0.2-1.8-0.5-3.5-0.9-5.2
	c-0.9-4.1-2.1-8.1-3.8-11.9c-0.3-0.7-0.6-1.4-1-2.1l-11,5.2C113.3,46,113.5,46.6,113.8,47.2z"/>
<path class="st1" d="M85.7,19.7c2.3,0.9,4.6,2,6.8,3.3l6.1-10.5c-2.7-1.6-5.5-2.9-8.4-4.1C86.9,7,83.5,6,80,5.2l-2.6,11.9
	C80.2,17.8,83,18.6,85.7,19.7z"/>
<path class="st1" d="M30.3,31.1c1.3-1.3,2.8-2.6,4.2-3.8l-7.6-9.5c-1.8,1.5-3.6,3-5.2,4.7c-3.1,3.1-5.8,6.5-8.2,10.1l10.2,6.7
	C25.6,36.3,27.8,33.5,30.3,31.1z"/>
<path class="st2" d="M26.8,35c-1.1,1.4-2.1,2.8-3.1,4.2C24.7,37.7,25.7,36.3,26.8,35z"/>
<path class="st2" d="M28.5,33c-0.5,0.6-1.1,1.2-1.6,1.8C27.4,34.2,28,33.6,28.5,33z"/>
<circle class="st2" cx="80.1" cy="120.9" r="2.6"/>
<circle class="st2" cx="53.8" cy="13.8" r="2.6"/>
<circle class="st2" cx="12.4" cy="57.6" r="2.6"/>
<circle class="st2" cx="26.8" cy="105.5" r="2.6"/>
<circle class="st2" cx="120" cy="80" r="2.6"/>
<circle class="st2" cx="107.3" cy="30.6" r="2.6"/>
<circle class="st3" cx="67.3" cy="67.3" r="40.3"/>
<g>
	<path class="st4" d="M48.9,52.5h-0.1l-6.7,3.6l-1-4l8.4-4.5H54v38.4h-5V52.5z"/>
	<path class="st4" d="M93.5,66.5c0,13.1-4.8,20.3-13.4,20.3c-7.5,0-12.6-7-12.7-19.7c0-12.9,5.6-20,13.4-20
		C88.9,47,93.5,54.2,93.5,66.5z M72.6,67.1c0,10,3.1,15.7,7.8,15.7c5.3,0,7.9-6.2,7.9-16c0-9.5-2.4-15.7-7.8-15.7
		C76,51.1,72.6,56.6,72.6,67.1z"/>
</g>
</svg>
