<!-- Generator: Adobe Illustrator 19.2.1, SVG Export Plug-In  -->
<svg version="1.1"
	 xmlns="http://www.w3.org/2000/svg" xmlns:xlink="http://www.w3.org/1999/xlink" xmlns:a="http://ns.adobe.com/AdobeSVGViewerExtensions/3.0/"
	 x="0px" y="0px" width="114.6px" height="114.6px" viewBox="0 0 114.6 114.6" style="enable-background:new 0 0 114.6 114.6;"
	 xml:space="preserve">
<style type="text/css">
	.st0{fill:#0D1422;stroke:#376EB6;stroke-width:5;stroke-miterlimit:10;}
	.st1{fill:#376EB6;}
</style>
<defs>
</defs>
<circle class="st0" cx="57.3" cy="57.3" r="54.8"/>
<g>
	<path class="st1" d="M52.3,69.7L52.3,69.7c0,4-3.3,7.1-8.1,7.5v2.4h-2.1v-2.4c-3.5-0.2-6.5-1.3-8.8-3.3l2-3.8
		c2.4,1.9,4.4,2.7,6.8,2.9v-7.1v0c-5.8-2.5-8.2-3.9-8.2-7.8v-0.1c0-3.8,3.5-6.4,8.2-6.8v-1.8h2.1V51c2.7,0.2,5.3,1.2,7.1,2.5
		l-1.8,3.7c-1.9-1.2-3.8-1.8-5.2-2v6.4C50.4,64.2,52.3,65.9,52.3,69.7z M42.1,60.8v-5.6c-2,0.3-3.3,1.2-3.3,2.7v0
		C38.8,59.2,39.6,59.7,42.1,60.8z M47.7,69.7c0-1.3-1.5-2.2-3.5-3.1v6.3C46.5,72.7,47.7,71.3,47.7,69.7L47.7,69.7z"/>
	<path class="st1" d="M73.7,76.8h-7.1V42.1l-8.1,3l-1.2-5.6l11.1-4.4h5.3V76.8z"/>
</g>
</svg>
