<!-- Generator: Adobe Illustrator 19.2.1, SVG Export Plug-In  -->
<svg version="1.1"
	 xmlns="http://www.w3.org/2000/svg" xmlns:xlink="http://www.w3.org/1999/xlink" xmlns:a="http://ns.adobe.com/AdobeSVGViewerExtensions/3.0/"
	 x="0px" y="0px" width="16.1px" height="44.8px" viewBox="0 0 16.1 44.8" style="enable-background:new 0 0 16.1 44.8;"
	 xml:space="preserve">
<style type="text/css">
	.st0{fill:#D40000;}
</style>
<defs>
</defs>
<path id="path10378-7-1_2_" class="st0" d="M8,44.8c0,0-1.8-2.5-4.2-5.5c-1.6-2-2.9-4.2-3-6C0.7,31.2,2,29,4.3,28.9S7.6,30.5,8,32
	c0.4-1.4,1.3-3.2,3.7-3.1c2.3,0.1,3.6,2.2,3.5,4.4c-0.1,1.9-1.4,4-3,6C9.8,42.3,8,44.8,8,44.8L8,44.8z"/>
<path id="path35-67-2-8-6_2_" class="st0" d="M7.9,0v2.8h2.7c0,0,0.1,2.7,0.1,8.3c0,5.5,0.1,8.2-0.2,9.7c-0.9,3.6-6.1,3.6-7.2,1
	c-0.6-1.5-0.4-2.7-0.5-4.2H0c0,0,0,0.8,0,1.7c0,4,1.4,6,4.5,6.7c3.2,0.9,7-0.5,8.3-3.2c0.8-1.6,0.7-1.7,0.7-11.1
	c0-6.3,0.1-8.9,0.1-8.9h2.5V0H7.9L7.9,0z"/>
</svg>
