<!-- Generator: Adobe Illustrator 19.2.1, SVG Export Plug-In  -->
<svg version="1.1"
	 xmlns="http://www.w3.org/2000/svg" xmlns:xlink="http://www.w3.org/1999/xlink" xmlns:a="http://ns.adobe.com/AdobeSVGViewerExtensions/3.0/"
	 x="0px" y="0px" width="15.9px" height="44.8px" viewBox="0 0 15.9 44.8" style="enable-background:new 0 0 15.9 44.8;"
	 xml:space="preserve">
<style type="text/css">
	.st0{fill:#D40000;}
</style>
<defs>
</defs>
<path id="path10446-4-8_2_" class="st0" d="M8,44.8c0,0-1.8-2.5-4.2-5.5c-1.6-2-2.9-4.2-3-6C0.7,31.2,2,29,4.3,28.9S7.6,30.5,8,32
	c0.4-1.4,1.3-3.2,3.7-3.1c2.3,0.1,3.6,2.2,3.5,4.4c-0.1,1.9-1.4,4-3,6C9.7,42.3,8,44.8,8,44.8L8,44.8z"/>
<path id="path37-2-5-5-0_2_" class="st0" d="M2.2,17.7H0v-3h2.2c0,0,0-1.6,0.1-4.5c0.1-6.1,0.3-7,2-8.7c3.5-3.3,9.3-0.6,9.2,4.4
	c-0.1,7,0,13.7-0.2,14.6c-0.4,1.7-0.4,1.8-0.3,2.1c0.3,0.6,2.9,0.9,2.9,0.7v3c-2,0.2-2.8,0-4.4-1.2c-1,1-4,1.9-6.5,0.8
	C3.2,25,1.8,22.7,2.2,17.7L2.2,17.7L2.2,17.7z M9.6,22.9c-1.1-1.6-2.9-3.7-4.6-4.5c-0.1,1.8,0,3.3,0.7,4.1
	C6.6,23.8,8.3,24.1,9.6,22.9L9.6,22.9L9.6,22.9z M10.5,5.6C9.7,3.3,7.6,2.5,6.1,4C5.2,4.9,5,5.8,5,10.9c0,3.1,0,4.5,0,4.5
	c3,1,5.7,4.4,5.7,4.4l0.1-9.5C10.8,8.6,10.7,7.1,10.5,5.6L10.5,5.6L10.5,5.6z"/>
</svg>
