<!-- Generator: Adobe Illustrator 19.2.1, SVG Export Plug-In  -->
<svg version="1.1"
	 xmlns="http://www.w3.org/2000/svg" xmlns:xlink="http://www.w3.org/1999/xlink" xmlns:a="http://ns.adobe.com/AdobeSVGViewerExtensions/3.0/"
	 x="0px" y="0px" width="15.9px" height="44.8px" viewBox="0 0 15.9 44.8" style="enable-background:new 0 0 15.9 44.8;"
	 xml:space="preserve">
<defs>
</defs>
<path id="path147-6-9-8-7-4-5-62-52-8-0_2_" d="M8,28.9c-3.1,0.1-4.5,3.7-2.2,6.6c0.3,0.4,0.4,0.7-0.2,0.3C4,34.7,1,35.4,0.9,38.7
	c-0.2,4.1,5.3,5.3,6.3,0.9c0.1-0.5,0.4-0.4,0.3,0.2c-0.1,1.8-0.6,3.4-1.4,5c1.2,0,2.5,0,3.7,0c-0.7-1.6-1.3-3.3-1.4-5
	c-0.1-0.7,0.3-0.7,0.3-0.2c1,4.4,6.5,3.2,6.3-0.9c-0.2-3.3-3.1-4-4.7-2.9c-0.6,0.4-0.6,0.2-0.2-0.3C12.5,32.6,11.1,28.9,8,28.9
	L8,28.9L8,28.9z"/>
<path id="path31-6-7-6_2_" d="M0,26.4V0h2.5v26.3H0V26.4z"/>
<path id="path33-9-3-6_2_" d="M10.1,0C7.6,0,5.7,2.2,5.7,5v16.3c0,2.8,2,5,4.4,5h1.4c2.5,0,4.4-2.2,4.4-5V5.1c0-2.8-2-5-4.4-5h-1.4
	V0z M10.8,2.5c1.4,0,2.6,1.1,2.6,2.5v16.5c0,1.4-1.2,2.5-2.6,2.5s-2.6-1.1-2.6-2.5V5C8.2,3.6,9.4,2.5,10.8,2.5L10.8,2.5z"/>
</svg>
