<!-- Generator: Adobe Illustrator 19.2.1, SVG Export Plug-In  -->
<svg version="1.1"
	 xmlns="http://www.w3.org/2000/svg" xmlns:xlink="http://www.w3.org/1999/xlink" xmlns:a="http://ns.adobe.com/AdobeSVGViewerExtensions/3.0/"
	 x="0px" y="0px" width="17.5px" height="44.8px" viewBox="0 0 17.5 44.8" style="enable-background:new 0 0 17.5 44.8;"
	 xml:space="preserve">
<defs>
</defs>
<path d="M8.8,28.9c-3.1,0.1-4.5,3.7-2.2,6.6c0.3,0.4,0.4,0.7-0.2,0.3c-1.6-1.1-4.6-0.4-4.7,2.9C1.5,42.8,7,44,8,39.6
	c0.1-0.5,0.4-0.4,0.3,0.2c-0.1,1.8-0.6,3.4-1.4,5c1.2,0,2.5,0,3.7,0c-0.7-1.6-1.3-3.3-1.4-5c-0.1-0.7,0.3-0.7,0.3-0.2
	c1,4.4,6.5,3.2,6.3-0.9c-0.2-3.3-3.1-4-4.7-2.9c-0.6,0.4-0.6,0.2-0.2-0.3C13.3,32.6,11.9,28.9,8.8,28.9L8.8,28.9L8.8,28.9z"/>
<path d="M9.4,23.5H12l-3.9-9.7l-3,4.1v5.6h2.1v2.9H0v-2.9h2.4V2.6H0V0h7.5v2.6H5.4v10.2l6.5-10.3H9.6V0h7.9v2.5h-2.1L10,11l5.2,12.5
	h2.3v2.9H9.3L9.4,23.5L9.4,23.5z"/>
</svg>
