<!-- Generator: Adobe Illustrator 19.2.1, SVG Export Plug-In  -->
<svg version="1.1"
	 xmlns="http://www.w3.org/2000/svg" xmlns:xlink="http://www.w3.org/1999/xlink" xmlns:a="http://ns.adobe.com/AdobeSVGViewerExtensions/3.0/"
	 x="0px" y="0px" width="15.9px" height="44.8px" viewBox="0 0 15.9 44.8" style="enable-background:new 0 0 15.9 44.8;"
	 xml:space="preserve">
<style type="text/css">
	.st0{fill:#D40000;}
</style>
<defs>
</defs>
<path id="path7062-5_2_" class="st0" d="M8,44.8c-1.7-2.9-3.5-5.6-5.8-8c2.3-2.4,4.1-5.1,5.8-8c1.7,2.9,3.5,5.6,5.8,8
	C11.5,39.1,9.7,41.9,8,44.8z"/>
<g id="g8345-9-6-9-5_2_" transform="matrix(1,0,0,0.9999803,1809.6754,-538.726)">
	<path id="path31-8-2-5-6_2_" class="st0" d="M-1809.7,565v-26.3h2.6V565H-1809.7z"/>
	<path id="path33-2-0-3-1_2_" class="st0" d="M-1799.6,538.7c-2.5,0-4.4,2.3-4.4,5V560c0,2.8,2,5,4.4,5h1.4c2.5,0,4.4-2.2,4.4-5
		v-16.2c0-2.8-2-5-4.4-5L-1799.6,538.7L-1799.6,538.7z M-1798.8,541.2c1.5,0,2.6,1.1,2.6,2.5v16.4c0,1.4-1.2,2.5-2.6,2.5
		s-2.6-1.1-2.6-2.5v-16.4C-1801.5,542.3-1800.3,541.2-1798.8,541.2L-1798.8,541.2z"/>
</g>
</svg>
