<!-- Generator: Adobe Illustrator 19.2.1, SVG Export Plug-In  -->
<svg version="1.1"
	 xmlns="http://www.w3.org/2000/svg" xmlns:xlink="http://www.w3.org/1999/xlink" xmlns:a="http://ns.adobe.com/AdobeSVGViewerExtensions/3.0/"
	 x="0px" y="0px" width="16px" height="44.9px" viewBox="0 0 16 44.9" style="enable-background:new 0 0 16 44.9;"
	 xml:space="preserve">
<style type="text/css">
	.st0{fill:#D40000;}
</style>
<defs>
</defs>
<path id="path7198-0_2_" class="st0" d="M8,44.9c-1.7-2.9-3.5-5.6-5.8-8c2.3-2.4,4.1-5.1,5.8-8c1.7,2.9,3.5,5.6,5.8,8
	C11.6,39.2,9.7,42,8,44.9z"/>
<path id="path37-2-1-6-5_2_" class="st0" d="M2.2,17.7H0v-3h2.2c0,0,0-1.6,0.1-4.5c0.1-6.1,0.3-7,2.1-8.7c3.4-3.3,9.2-0.6,9.2,4.4
	c-0.1,7,0,13.7-0.2,14.7c-0.4,1.7-0.4,1.8-0.3,2.1c0.3,0.6,2.9,0.9,2.9,0.7v3c-2,0.2-2.8,0-4.5-1.2c-1,1-4.1,1.9-6.5,0.8
	C3.2,25.1,1.8,22.8,2.2,17.7L2.2,17.7z M9.7,23c-1.1-1.6-2.9-3.7-4.7-4.5c-0.1,1.8,0,3.3,0.7,4.2C6.7,23.9,8.3,24.2,9.7,23L9.7,23z
	 M10.6,5.6C9.8,3.3,7.7,2.5,6.2,4c-1,0.9-1.1,1.8-1.1,7c0,3.2,0,4.5,0,4.5c3,1,5.7,4.4,5.7,4.4l0.1-9.5C10.8,8.7,10.8,7.1,10.6,5.6
	L10.6,5.6L10.6,5.6z"/>
</svg>
