<!-- Generator: Adobe Illustrator 19.2.1, SVG Export Plug-In  -->
<svg version="1.1"
	 xmlns="http://www.w3.org/2000/svg" xmlns:xlink="http://www.w3.org/1999/xlink" xmlns:a="http://ns.adobe.com/AdobeSVGViewerExtensions/3.0/"
	 x="0px" y="0px" width="16.5px" height="44.7px" viewBox="0 0 16.5 44.7" style="enable-background:new 0 0 16.5 44.7;"
	 xml:space="preserve">
<style type="text/css">
	.st0{fill:#D40000;}
</style>
<defs>
</defs>
<path id="path9902-6-7_2_" class="st0" d="M8.2,44.7c0,0-1.8-2.6-4.2-5.6c-1.6-2-2.9-4.2-3-6.1c-0.1-2.1,1.2-4.3,3.5-4.4
	s3.3,1.6,3.7,3.1c0.4-1.4,1.3-3.2,3.7-3.1c2.3,0.1,3.6,2.3,3.5,4.4c-0.1,1.9-1.4,4-3,6.1C10,42.1,8.2,44.7,8.2,44.7z"/>
<path id="path19-3-8-2-9_2_" class="st0" d="M8.4,26.2v-2.3h2.1v-3.8H0v-2.7L11.4,0h1.9v17.4h3.2v2.7h-3.2l-0.1,3.8h1.7v2.3H8.4
	L8.4,26.2z M10.5,6.3L3.3,17.4h7.2V6.3z"/>
</svg>
