<!-- Generator: Adobe Illustrator 19.2.1, SVG Export Plug-In  -->
<svg version="1.1"
	 xmlns="http://www.w3.org/2000/svg" xmlns:xlink="http://www.w3.org/1999/xlink" xmlns:a="http://ns.adobe.com/AdobeSVGViewerExtensions/3.0/"
	 x="0px" y="0px" width="16.6px" height="44.7px" viewBox="0 0 16.6 44.7" style="enable-background:new 0 0 16.6 44.7;"
	 xml:space="preserve">
<style type="text/css">
	.st0{fill:#D40000;}
</style>
<defs>
</defs>
<path id="path9970-5-6_2_" class="st0" d="M8.2,44.7c0,0-1.8-2.6-4.2-5.6c-1.6-2-2.9-4.2-3-6.1c0-2.1,1.3-4.3,3.6-4.4
	s3.3,1.6,3.7,3.1c0.4-1.4,1.3-3.2,3.7-3.1c2.3,0.1,3.6,2.3,3.5,4.4c-0.1,1.9-1.4,4-3,6.1C10,42.1,8.2,44.7,8.2,44.7z"/>
<path id="path21-9-5-1-8_2_" class="st0" d="M0,19.4h2.6c0.5,1.6,1.6,3.2,3.1,3.7c4.2,1,6.9-1.4,7.8-4.1c1.1-3.3,0-8-2.9-9.7
	C8.1,8,4.7,9.2,3,12.1L1.2,11l1-11h11.7v2.6H4.4L4.2,7.2c2.1-1.5,5.2-1.5,7.3-0.4c3.9,1.9,5.7,6.2,5,11.3c-1.1,5.1-3.4,7.9-8.6,8.3
	C2.1,26.2,0,22.2,0,19.4L0,19.4L0,19.4z"/>
</svg>
