<!-- Generator: Adobe Illustrator 19.2.1, SVG Export Plug-In  -->
<svg version="1.1"
	 xmlns="http://www.w3.org/2000/svg" xmlns:xlink="http://www.w3.org/1999/xlink" xmlns:a="http://ns.adobe.com/AdobeSVGViewerExtensions/3.0/"
	 x="0px" y="0px" width="16.1px" height="44.8px" viewBox="0 0 16.1 44.8" style="enable-background:new 0 0 16.1 44.8;"
	 xml:space="preserve">
<style type="text/css">
	.st0{fill:#D40000;}
</style>
<defs>
</defs>
<path id="path10106-2-3_2_" class="st0" d="M8.1,44.8c0,0-1.8-2.6-4.2-5.6c-1.6-2-2.9-4.2-3-6.1c-0.1-2.1,1.2-4.3,3.5-4.4
	s3.3,1.6,3.7,3.1c0.4-1.4,1.3-3.2,3.7-3.1c2.3,0.1,3.6,2.3,3.5,4.4c-0.1,1.9-1.4,4-3,6.1C9.9,42.2,8.1,44.8,8.1,44.8z"/>
<path id="path25-43-2-3-9_2_" class="st0" d="M4,26.3c1.7-9.2,3.6-16,8.4-23.4H2.6v3.2H0V0h14.3l1.8,2.8c-5.2,5.6-9.9,23.7-9,23.4
	L4,26.3L4,26.3z"/>
</svg>
