<!-- Generator: Adobe Illustrator 19.2.1, SVG Export Plug-In  -->
<svg version="1.1"
	 xmlns="http://www.w3.org/2000/svg" xmlns:xlink="http://www.w3.org/1999/xlink" xmlns:a="http://ns.adobe.com/AdobeSVGViewerExtensions/3.0/"
	 x="0px" y="0px" width="15.2px" height="44.8px" viewBox="0 0 15.2 44.8" style="enable-background:new 0 0 15.2 44.8;"
	 xml:space="preserve">
<style type="text/css">
	.st0{fill:#D40000;}
</style>
<defs>
</defs>
<path id="path10242-3-8_2_" class="st0" d="M7.7,44.8c0,0-1.8-2.6-4.2-5.6c-1.6-2-2.9-4.2-3-6.1C0.4,31,1.7,28.8,4,28.7
	s3.3,1.6,3.7,3.1c0.4-1.4,1.3-3.2,3.7-3.1c2.3,0.1,3.6,2.3,3.5,4.4c-0.1,1.9-1.4,4-3,6.1C9.5,42.2,7.7,44.8,7.7,44.8z"/>
<path id="path29-5-8-5-4_2_" class="st0" d="M0.3,21.2l2.4-0.8c0.9,2.4,2.8,3.2,4.7,3c3.5-0.3,4.7-4.2,4.9-7.6
	c-1.4,1.4-3.4,2.2-5.2,2.1c-5.6-0.3-7-4.8-7.1-9.4c-0.2-3.9,1.5-6.8,4.3-8.1c1.5-0.6,4.9-0.6,6.4,0.2c3.4,1.8,4.7,4.9,4.5,12.3
	c0,6.1-1.3,13.2-7.9,13.4C3.6,26.8,0.7,23.8,0.3,21.2L0.3,21.2L0.3,21.2z M9.8,14.6c1.1-0.7,1.8-1.4,2.3-2.4c0.4-0.8,0.6-1.3,0.4-3
	c-0.3-4.4-2.6-6.9-6-6.4C4.6,3.1,3.6,4.1,3,6.1c-1.1,3.6,0.3,7.8,2.9,8.8C7.1,15.3,8.9,15.2,9.8,14.6L9.8,14.6L9.8,14.6z"/>
</svg>
