<!-- Generator: Adobe Illustrator 19.2.1, SVG Export Plug-In  -->
<svg version="1.1"
	 xmlns="http://www.w3.org/2000/svg" xmlns:xlink="http://www.w3.org/1999/xlink" xmlns:a="http://ns.adobe.com/AdobeSVGViewerExtensions/3.0/"
	 x="0px" y="0px" width="16px" height="45px" viewBox="0 0 16 45" style="enable-background:new 0 0 16 45;" xml:space="preserve">
<defs>
</defs>
<path id="path7020-0-8_2_" d="M8,29c-3.4,4.4-7.1,6.9-7.2,10.3c0,1.1,0.7,3,2.8,3.4c1.4,0.2,3.2-0.8,3.3-2.8c0-0.4,0.5-0.4,0.5,0.2
	c-0.1,1.6-0.6,3.4-1.6,4.9c1.5,0,3,0,4.5,0c-0.9-1.5-1.5-3.3-1.6-4.9c0-0.5,0.5-0.6,0.5-0.2c0,2,1.9,3,3.3,2.8
	c2.1-0.4,2.8-2.2,2.8-3.4C15.1,35.8,11.4,33.3,8,29L8,29z"/>
<path id="path23-1-9-8_2_" d="M0.2,18.3c-0.3-2.2-0.3-8-0.1-9.7c0.8-5.2,2.8-7.5,6.1-8.3C9.4-0.5,14,0.4,15,4.6l-2.7,0.1
	c-1.5-2.9-5.2-2.2-7.2-0.9C3.4,4.8,2.7,9.1,3,9.3c0,0,3.1-2.3,5.6-2.2c5.3,0.6,7.5,5.1,7.3,9.5c-0.2,5.2-1.8,9.4-7.4,9.7
	C3.2,26.2,0.7,23.3,0.2,18.3L0.2,18.3L0.2,18.3z M13.4,16.9c0-3.6-1.6-6.3-4.7-6.6s-6.2,2.7-6,6.4s1.7,6.8,5.4,6.8
	C12.1,23.5,13.4,19.5,13.4,16.9L13.4,16.9L13.4,16.9z"/>
</svg>
