<!-- Generator: Adobe Illustrator 19.2.1, SVG Export Plug-In  -->
<svg version="1.1"
	 xmlns="http://www.w3.org/2000/svg" xmlns:xlink="http://www.w3.org/1999/xlink" xmlns:a="http://ns.adobe.com/AdobeSVGViewerExtensions/3.0/"
	 x="0px" y="0px" width="16.1px" height="44.9px" viewBox="0 0 16.1 44.9" style="enable-background:new 0 0 16.1 44.9;"
	 xml:space="preserve">
<defs>
</defs>
<path id="path7363-8-9_2_" d="M8,28.9c-3.4,4.4-7.1,6.9-7.2,10.3c0,1.1,0.6,3,2.7,3.3c1.4,0.2,3.2-0.8,3.3-2.7
	c0-0.4,0.5-0.4,0.5,0.2c-0.1,1.6-0.6,3.4-1.6,4.9c1.5,0,3,0,4.5,0c-0.9-1.5-1.5-3.3-1.6-4.9c0-0.5,0.5-0.6,0.5-0.2
	c0,2,1.9,3,3.3,2.7c2.1-0.4,2.8-2.2,2.7-3.3C15.1,35.7,11.4,33.2,8,28.9L8,28.9z"/>
<path id="path35-7-9-2_2_" d="M7.9,0v2.8h2.7c0,0,0.1,2.7,0.1,8.3c0,5.5,0.1,8.2-0.2,9.7c-0.9,3.6-6.1,3.6-7.2,1
	c-0.6-1.5-0.4-2.7-0.5-4.2H0c0,0,0,0.8,0,1.7c0,4,1.4,6,4.5,6.7c3.2,0.9,7-0.5,8.3-3.2c0.8-1.6,0.7-1.7,0.7-11.1
	c0-6.3,0.1-8.9,0.1-8.9h2.5V0H7.9L7.9,0z"/>
</svg>
