<!-- Generator: Adobe Illustrator 19.2.1, SVG Export Plug-In  -->
<svg version="1.1"
	 xmlns="http://www.w3.org/2000/svg" xmlns:xlink="http://www.w3.org/1999/xlink" xmlns:a="http://ns.adobe.com/AdobeSVGViewerExtensions/3.0/"
	 x="0px" y="0px" width="17.5px" height="44.9px" viewBox="0 0 17.5 44.9" style="enable-background:new 0 0 17.5 44.9;"
	 xml:space="preserve">
<defs>
</defs>
<path id="path7499-2-5_2_" d="M8.8,28.9c-3.4,4.4-7.1,6.9-7.2,10.3c0,1.1,0.6,3,2.7,3.3c1.4,0.2,3.2-0.8,3.3-2.7
	c0-0.4,0.5-0.4,0.5,0.2c-0.1,1.6-0.6,3.4-1.6,4.9c1.5,0,3,0,4.5,0c-0.9-1.5-1.5-3.3-1.6-4.9c0-0.5,0.5-0.6,0.5-0.2
	c0,2,1.9,3,3.3,2.7c2.1-0.4,2.8-2.2,2.7-3.3C15.9,35.7,12.2,33.2,8.8,28.9L8.8,28.9z"/>
<path id="path39-5-1-0_2_" d="M9.4,23.5H12l-3.9-9.7l-3,4.1v5.6h2.1v2.9H0v-2.9h2.4V2.6H0V0h7.5v2.6H5.4v10.2l6.5-10.3H9.6V0h7.9
	v2.5h-2.1L10,11l5.2,12.5h2.3v2.9H9.3L9.4,23.5L9.4,23.5z"/>
</svg>
