<!-- Generator: Adobe Illustrator 19.2.1, SVG Export Plug-In  -->
<svg version="1.1"
	 xmlns="http://www.w3.org/2000/svg" xmlns:xlink="http://www.w3.org/1999/xlink" xmlns:a="http://ns.adobe.com/AdobeSVGViewerExtensions/3.0/"
	 x="0px" y="0px" width="16px" height="44.8px" viewBox="0 0 16 44.8" style="enable-background:new 0 0 16 44.8;"
	 xml:space="preserve">
<defs>
</defs>
<path id="path147-6-9-8-7-4-5-62-0-2-9_2_" d="M8,28.9c-3.1,0.1-4.5,3.7-2.2,6.6c0.3,0.4,0.4,0.7-0.2,0.3C4,34.7,1,35.4,0.9,38.7
	c-0.2,4.1,5.3,5.3,6.3,0.9c0.1-0.5,0.4-0.4,0.3,0.2c-0.1,1.8-0.6,3.4-1.4,5c1.2,0,2.5,0,3.7,0c-0.7-1.6-1.3-3.3-1.4-5
	c-0.1-0.7,0.3-0.7,0.3-0.2c1,4.4,6.5,3.2,6.3-0.9c-0.2-3.3-3.1-4-4.7-2.9c-0.6,0.4-0.6,0.2-0.2-0.3C12.5,32.6,11.1,28.9,8,28.9
	L8,28.9L8,28.9z"/>
<path id="path23-8-1-4_2_" d="M0.2,18.3c-0.3-2.2-0.3-7.9-0.1-9.6C1,3.4,3,1.1,6.3,0.3C9.5-0.5,14,0.4,15,4.7l-2.7,0.1
	c-1.4-3-5.1-2.2-7.2-0.9C3.4,4.9,2.7,9.2,3,9.4c0,0,3.1-2.3,5.6-2.2c5.3,0.6,7.5,5.1,7.3,9.5c-0.2,5.2-1.8,9.4-7.4,9.6
	C3.2,26.2,0.8,23.3,0.2,18.3L0.2,18.3L0.2,18.3z M13.4,16.9c0-3.6-1.6-6.3-4.7-6.6s-6.2,2.7-6,6.4c0.2,3.7,1.6,6.8,5.3,6.8
	C12.1,23.5,13.3,19.5,13.4,16.9L13.4,16.9L13.4,16.9z"/>
</svg>
