<!-- Generator: Adobe Illustrator 19.2.1, SVG Export Plug-In  -->
<svg version="1.1"
	 xmlns="http://www.w3.org/2000/svg" xmlns:xlink="http://www.w3.org/1999/xlink" xmlns:a="http://ns.adobe.com/AdobeSVGViewerExtensions/3.0/"
	 x="0px" y="0px" width="15px" height="44.8px" viewBox="0 0 15 44.8" style="enable-background:new 0 0 15 44.8;"
	 xml:space="preserve">
<defs>
</defs>
<path id="path147-6-9-8-7-4-5-62-7-8-4_2_" d="M7.4,28.9c-3.1,0-4.5,3.7-2.2,6.6c0.3,0.4,0.4,0.7-0.2,0.3c-1.6-1.1-4.6-0.4-4.7,2.9
	c-0.2,4.1,5.3,5.3,6.3,0.9c0.1-0.5,0.4-0.4,0.3,0.2c-0.1,1.8-0.6,3.4-1.4,5c1.2,0,2.5,0,3.7,0c-0.7-1.6-1.3-3.3-1.4-5
	c-0.1-0.7,0.3-0.7,0.3-0.2c1,4.4,6.5,3.2,6.3-0.9c-0.2-3.3-3.1-4-4.7-2.9c-0.6,0.4-0.6,0.2-0.2-0.3C11.9,32.6,10.5,28.9,7.4,28.9
	L7.4,28.9L7.4,28.9z"/>
<path id="path29-2-3-4_2_" d="M0.1,21.3l2.4-0.8c0.9,2.4,2.7,3.1,4.7,3c3.5-0.3,4.6-4.2,4.9-7.6C10.7,17.3,8.7,18.1,7,18
	c-5.5-0.3-7-4.7-7-9.4c-0.3-3.9,1.4-6.8,4.1-8.1c1.5-0.7,4.8-0.7,6.3,0.1c3.5,1.8,4.7,4.9,4.5,12.4c0,6.1-1.3,13.2-7.8,13.3
	C3.3,26.8,0.4,23.9,0.1,21.3L0.1,21.3L0.1,21.3z M9.5,14.6c1.1-0.7,1.8-1.4,2.3-2.4c0.4-0.8,0.6-1.3,0.4-3c-0.3-4.4-2.6-6.9-6-6.4
	C4.3,3.1,3.3,4.1,2.7,6.1C1.6,9.7,3,13.9,5.6,14.9C6.8,15.3,8.6,15.2,9.5,14.6L9.5,14.6z"/>
</svg>
