<!-- Generator: Adobe Illustrator 19.2.1, SVG Export Plug-In  -->
<svg version="1.1"
	 xmlns="http://www.w3.org/2000/svg" xmlns:xlink="http://www.w3.org/1999/xlink" xmlns:a="http://ns.adobe.com/AdobeSVGViewerExtensions/3.0/"
	 x="0px" y="0px" width="17px" height="44.8px" viewBox="0 0 17 44.8" style="enable-background:new 0 0 17 44.8;"
	 xml:space="preserve">
<style type="text/css">
	.st0{fill:#D40000;}
</style>
<defs>
</defs>
<path id="path6926-2_2_" class="st0" d="M8.5,44.8c-1.7-2.9-3.5-5.6-5.8-8c2.3-2.4,4.1-5.1,5.8-8c1.7,2.9,3.5,5.6,5.8,8
	C12.1,39.1,10.2,41.9,8.5,44.8z"/>
<path id="path27-00-7-8-6_2_" class="st0" d="M0,18.6c0.1-3.5,1.4-4.9,3.9-6.7c-2-1.5-2.9-3.6-2.7-5.4C1.6,2.1,4.9-0.1,8.6,0
	s6.9,3,7.2,6.3c0.2,2.8-0.6,4.1-2.6,5.6c2.3,2,3.8,3.3,3.8,6.8c-0.1,3.5-3,7.6-8.2,7.8C3.8,26.4-0.1,22.2,0,18.6L0,18.6L0,18.6z
	 M14.4,18.6c0.2-3.2-2.6-5.4-5.8-5.4c-3.1,0-5.9,2.6-5.9,5.5c0,3.1,3.6,4.8,6,4.8C11.5,23.5,14.2,21.4,14.4,18.6L14.4,18.6z
	 M13.4,7.2c0.1-2.7-2.4-4.6-5-4.6C6.1,2.7,3.8,4.4,3.8,6.7c0,2.8,2.8,4.2,5.1,4.3C10.9,11,13.3,9.2,13.4,7.2L13.4,7.2L13.4,7.2z"/>
</svg>
