<!-- Generator: Adobe Illustrator 19.2.1, SVG Export Plug-In  -->
<svg version="1.1"
	 xmlns="http://www.w3.org/2000/svg" xmlns:xlink="http://www.w3.org/1999/xlink" xmlns:a="http://ns.adobe.com/AdobeSVGViewerExtensions/3.0/"
	 x="0px" y="0px" width="166.5px" height="226.6px" viewBox="0 0 166.5 226.6" style="enable-background:new 0 0 166.5 226.6;"
	 xml:space="preserve">
<style type="text/css">
	.st0{fill:#E2CF00;}
	.st1{fill:#131F67;}
	.st2{fill:#D40000;}
</style>
<defs>
</defs>
<g id="g5584_1_" transform="translate(-3.9869344,-5.552442)">
	<g id="g11322-4-2_1_" transform="matrix(0.99553774,0,0,0.99680134,457.41051,-265.45153)">
		<path id="path147-6-9-8-7-0-5-6-79-2-4_1_" d="
			M-296.3,470.3c3.1-0.1,4.6-3.8,2.2-6.6c-0.3-0.4-0.4-0.7,0.2-0.3c1.6,1.1,4.6,0.4,4.7-3c0.2-4.1-5.3-5.3-6.4-0.9
			c-0.1,0.5-0.4,0.5-0.3-0.2c0.1-1.8,0.6-3.4,1.4-5.1c-1.2,0-2.5,0-3.7,0c0.7,1.6,1.3,3.3,1.4,5.1c0.1,0.7-0.3,0.7-0.3,0.2
			c-1-4.4-6.5-3.2-6.4,0.9c0.2,3.3,3.2,4,4.7,3c0.6-0.4,0.6-0.2,0.2,0.3C-300.9,466.5-299.5,470.2-296.3,470.3L-296.3,470.3
			L-296.3,470.3z"/>
		<path id="path147-6-9-8-7-4-5-62-3-3-7_1_" d="
			M-447.4,300.8c-3.1,0.1-4.6,3.8-2.2,6.6c0.3,0.4,0.4,0.7-0.2,0.3c-1.6-1.1-4.6-0.4-4.7,3c-0.2,4.1,5.3,5.3,6.4,0.9
			c0.1-0.5,0.4-0.5,0.3,0.2c-0.1,1.8-0.6,3.4-1.4,5.1c1.2,0,2.5,0,3.7,0c-0.7-1.6-1.3-3.3-1.4-5.1c-0.1-0.7,0.3-0.7,0.3-0.2
			c1,4.4,6.5,3.2,6.4-0.9c-0.2-3.3-3.2-4-4.7-3c-0.6,0.4-0.6,0.2-0.2-0.3C-442.8,304.5-444.2,300.9-447.4,300.8
			C-447.4,300.8-447.4,300.8-447.4,300.8L-447.4,300.8z"/>
		<path id="path35-5-6-2_1_" d="M-447.5,271.9v2.8h2.7c0,0,0.1,2.7,0.1,8.3c0,5.5,0.1,8.2-0.2,9.8
			c-0.9,3.6-6.2,3.6-7.2,1c-0.6-1.5-0.4-2.7-0.5-4.2h-2.9c0,0,0,0.8,0,1.7c0,4,1.4,6,4.5,6.8c3.2,0.9,7-0.5,8.3-3.2
			c0.8-1.6,0.7-1.7,0.7-11.2c0-6.3,0.1-9,0.1-9h2.5v-2.8L-447.5,271.9L-447.5,271.9z"/>
		<path id="path35-6-4-1-2_1_" d="M-296.3,499.2v-2.8h-2.7c0,0-0.1-2.7-0.1-8.3
			c0-5.5-0.1-8.2,0.2-9.8c0.9-3.6,6.2-3.6,7.2-1c0.6,1.5,0.4,2.7,0.5,4.2h2.9c0,0,0-0.8,0-1.7c0-4-1.4-6-4.5-6.8
			c-3.2-0.9-7,0.5-8.3,3.2c-0.8,1.6-0.7,1.7-0.7,11.2c0,6.3-0.1,9-0.1,9h-2.5v2.8L-296.3,499.2L-296.3,499.2z"/>
	</g>
	<g id="g5275-8-4-5_1_" transform="matrix(-1.0167845,0,0,-1.022439,3595.0799,-394.58247)">
		<g id="layer1-1-8-4-5_1_">
			<g id="g3799-8-1-3_1_" transform="matrix(0.15171281,0,0,0.15171281,623.2491,453.89661)">
				
					<path id="path3306-4-9-5_1_" class="st0" d="
					M18373.9-5654.1c-4.4,6.3-23.5-37.6-35.8-70.9c-6-16.4-14.1-29.8-10.7-34.1c8.7-8.8,31.3-0.9,47.8,11.7
					c17.6,13.5,30,33.3,30,33.3L18373.9-5654.1z M18219.8-5686.7l-0.7-25.8c15.1-13.6,33.9-30.3,55.9-55.7l-58.7-0.3
					c0.5-317.4-0.5-953.5-0.5-953.5s65.3,66,63.7,66.2c-0.1,0,1.9,384.3,2.1,642.8c0.5,1.2-34.1,1.3-36.3,18.2
					c-1.5,11.2,36.3,9.6,36.9,10.4c-0.1,116.2,0.3,198.2,0.3,198.2l34.7,1.1L18219.8-5686.7z M18423.7-5806.3
					c-5-10-13.1-48.6-19.2-47.7c-28.2,9.3-37.3-32.2-8.1-34.4c11.1-0.8,23.4,13.6,30.3,31.5
					C18430-5847.5,18426.6-5802.6,18423.7-5806.3L18423.7-5806.3z M18430-5864.2c-8.3-13.6-16.3-63.2-31.5-60.4
					c-13.8,3.1-22.7-9-21.4-19.6c7.1-29.8,57.8-1.5,71.1,5.4C18441.8-5923.8,18432.5-5886.4,18430-5864.2z M18323-6004
					c11.6-26.2,8.5-47.8-1.4-74.1c30.1-12.9,59.8-28.3,89.5-43.8c0.2,0.1,1.5,103.4-8.4,150.6c-3.4,7.2-15.6,1.4-22.6-2.1
					C18361.1-5982.4,18340.6-5992.5,18323-6004L18323-6004z M18857.6-6478.7c-6.1-48.8-1.7-124.8,7-154.9
					c3.3-10.2,73.2,35.7,78.2,38.9c-13.8,25.4,5,84.5,3,74C18941-6517.4,18859.2-6473.8,18857.6-6478.7L18857.6-6478.7z
					 M18827.6-6681.4c1.3-3.1,6.5-39.7,8.1-39.8c5.3-0.5,13.1,35.8,26.6,47.8c25.5-2.9,28.5,14.3,23.5,22.7
					c1.2,3.7-8.2,11.6-17.1,10.9C18846.8-6648.5,18817.1-6656.1,18827.6-6681.4z M18535-6743.8c0,0,19.2-107.5,19.2-107.3
					c47.4-6.8,93-14.7,135.2-9.9c-8.3,111.7-21.4,208.3-57.4,225.1l74.6,59.9c0,0,82.8-51.5,78.1-50.8c-2,0.6-3.7,43.8-4.9,113.8
					c2.1,182.7,107.4,367.6,111.5,365.7c2.2,1.5-89.7,8.7-155.8-19.8l-3,241.9c0,0,32.8,16.3,38.8,23.9
					c12.1,42.1-20.5,52.8-40.1,42.3c-9.1,32-23,111.1-23.5,111c-44.2,7.3-89.8,12.9-135,10.4c7.6-37.2,12.4-65.5,14.8-102.9
					c5.7-55.8,17.2-108.7,46.6-121.2c-5.2,2.1-73.5-57.5-73.5-57.5l-83,51c26.8-174.1-19-343.1-98.1-479.9
					c39.9-4.6,85-2.4,155.4,18.6c0,0-4-242.4-4-241C18453.1-6701.2,18495.6-6760.9,18535-6743.8L18535-6743.8z M18838.1-6765.5
					c0.3-2.5,1.4-29.8,1.4-29.8c11,12.9,19.9,50.8,22.1,50.2c0,0,14.2-2.2,18.6,2.5c14.4,15.3,0.2,33.3-14.1,29.9
					C18851.8-6716.4,18836.1-6740.8,18838.1-6765.5L18838.1-6765.5z M18984.6-5943.8c0,0-3.1-429.8-3-645.2
					c54.5,0.8,43.8-29.4-0.7-26.2l-0.2-198.6l-29.5-1c0,0,55.5-57.9,90.8-94.9l0.8,18.8l-53.6,57.7l55.5-0.1l0.2,953.1
					L18984.6-5943.8z M18891.9-6942.1c13.4-2.9,27.5,59,50.8,96.5c-26.5,15.9-68.3-14.3-77.7-38.5
					C18871.1-6904.5,18892.3-6941.8,18891.9-6942.1z"/>
				
					<path id="path3304-4-6-6_1_" class="st1" d="
					M18208.6-6980.3v1357.2h846.7v-1357.2H18208.6z M18489.2-6694.5c1.1,2.2,3,5.3,3,5.3s-2,0.5-3.5,1.5
					c-98.1,36.3-203.1,117.1-204.9,119.5v-89.5l-64.9-68.4v-242.5h255.3l74.8,125.1c-4.5,32.8-16.2,96.2-16.2,96.2
					c-6.9-1.7-30-3.8-42.6,14.1C18484.3-6724.6,18481.2-6712.9,18489.2-6694.5L18489.2-6694.5z M18967.6-6415.4l9.7-12.3l-17.1,0.8
					l11.7-12.7l-18.9-0.4l14.7-12.5l-19.9-0.2l14.8-12.3l-21.8,1l15.6-13.4l-21.5,0.1l16.1-13.5l-21.1-0.3l13.7-12.1l-18.4-0.2
					l20.8-14.6c8.9,3.9,20.8,6.1,32.8,6.3l0.3,98.2L18967.6-6415.4z M18982.5-6585.7c48.6,0.2,59-25.8,0.3-29.9
					c1.1-65.3-2.7-195.9-2.7-195.9l-32-0.8c0,0,85.8-92.6,93.8-100.1c7.3,311.1,7,1033.4,7,1033.4l-65.5-65.6l-0.7-204.2
					c-21.9-22.2-34.5-54.6-47.6-75.6l-35.8-17.4l8.4-28.8l-3.6-8.2l-11.2,40.7l39.2,18.6l4.2,8.4l-6.6,38.4l37.1,12.7l6.4,8.8
					l-2.3,37.5l7.8,2.4v7.4l-7.7-0.7l-2.7,42.1l10.5,3.1v9.5c0-0.2-6.1,0-9.1-0.2c-4.1-2.2-11-11.1-11-11.1l3.7-46.7l-47-9.4l-3.5-5
					l8.7-46.7l-49.4-15.1c5.1,12.5,11.8,24.1,17.4,36.4c-6.8,2-13.9,2.4-20.7,3.9c-1.9,63.1,0.3,128.7-1.7,188.1
					c-39.7,2.9-21.1-0.9-38.4-0.6c-6.8,0-12.2,5.5-12.2,12.2c0,4.3,2.2,8.1,5.6,10.3l-6.8,2.5l-12-13.5l25-24l-0.2-6.9l-31.1,31.1
					l13.5,15.5l-8,4.1l-12.3-12.9c0,0-26.4,27-24.8,27.5c0.8,0.2,2.3,1.6,3.3,3c18.8,40.6-6.9,60-37.9,48.8
					c-7.9,37.4-15.4,71.1-21.6,109.8c-23.2,8.8-132.2,13.8-133.4,11.8c0,0-2.8-2.6-2.9-3.9c0.5-1.7-3.1,3.6-3.1,3.6
					c0,2.3-95-2.4-141.9-11.3c0,0-1-4.5-0.6-10.4c0.8-11.9-0.2-11.8,10.7-10c22.1,1.5,39.3-6.1,46.1-25.6c3.8-10.9,2-20.7-3.8-49.8
					c-5.7-28.3-5.7-25.2-5.1-29.1c0.8-4.5,5.6-9.5,12.6-15.1c5.2-4.3,5.8-12.3,1.5-7.9c-2.9,4.2-8,5.8-12.6,8.1
					c-10.8,5.6-10.4,11.1-4.1,34.3c3,10.9,6.1,22.7,6.2,24c0.3,4.3-1.2,2.5-7.6-1.9c-4.1-3-8.8-5.5-13.1-8
					c-12.9-6.9-7.2,0.7,5.2,8.9c9.7,7.2,11.4,10.3,3,6.9c-8.7-3.5-21.1-2-30.8,1.7c-1.9,1.1-3.3,0.9-3.6-0.8
					c-0.4-2.7,1.2-9.6,2-25.4c1.8-39.9,11.2-82.5,37.8-107.1c38-35.2,100.5-11.3,135.2,21.3l3.8-5.7
					c-23.3-19.5-63.6-43.9-102.9-39.2c16.4-13.7,52.7-36.4,52.7-36.4c24.9,18,43.2,36,70.5,55.5l4.8-3.1l-75.1-59.5l-80.8,53.3
					c0,0,3.4-51.1,4.6-69.8l-35.1,31l27,40l-28.7,29.5c0,0,4.8-0.7-0.5,8.4c-8.1,16.4-12.9,42.7-16.7,69.5c0.7,20-4.2,42.1-5.7,59.8
					c-2.7-16.5-5.8-25.2-11.9-40.2c-5.6-14.4-7.8-14.3-14.1-12.2c-34.3,2.9-18.8-63.3,21.8-20c1.8,1.8,4.7,4.1,4.8,3.6
					c0.8-2.7-10.8-37.5-15.2-45.5c-4.7-8.5-4.8-9.7-11.8-9c-13.2,1.4-17.6-3.3-19-17.2c1.8-26.2,30.1-15.2,48.3-7.1
					c1.6,1.3-8.5-9.3-12.2-13c-5-5-5.8-8.3-5.8-8.3l1.1-13.9l27.8-25.4l-22.9-33.8l0.9-12.1l24.5-29.3l-26.1-28.3l-0.3-10.1
					l21.2-28.2l-28.4-22.8l-1.4-9.1c0,0,18.2-33.7,17.7-34.9c-0.4-1-30.8-22-30.8-22l-3.1-14.2l13.2-36l-31.5-18l-5.8-16.2l8.9-33.3
					l-32.7-15.1l-9.3-18.8l6.1-35l-36.7-10.9l-9.7-15.4l1.3-30.8l-9-0.9l0.1-7.6l10,0.1c0,0-0.8-1.1,0.3-16.4
					c1.9-25.9,2.1-24.9-4.1-25.9c-13-2.3-10-10.3,3.3-8.8c2,0.2,3.8,0.4,5.2,0.7c3.5,0.7,6.2,5.2,6.2,5.2l-2.9,47.8l46.9,7.8l4.5,6
					l-7.8,44.3l44,12.7l5.9,10.7l-12.5,46l44.3,19.5l2.9,8.5l-18.8,40.9l40.8,19.8l2.6,9.8l-22.6,42.1l47,34.2c0,0-1.3-3.3-3.1-8.9
					l-37.2-26.6l18.9-36c0,0,1.5,2.6,3.1,2.1c-0.9-6-1.7-12-2.1-17.9l-19.2-50.1l62.2-41.8c-26.6-16-60.3-15.5-91.1-21.5
					c0,0-1.4-4.3-3.7-8.1c-9-14.4-17.1-32.7-27.1-51.6c7.4-3.5,10.6-3,18.5-4.6c11-61.6,21.8-132.5,39.3-186.1
					c7.6,0,13.8-6.2,13.8-13.8c0-4.2-1.9-7.9-4.8-10.4c1.7-0.5,3.5-1,5.4-1.4c2.5,0,12.7,11.2,12.7,11.2l-26.2,25.8l-0.2,8.6
					c10.5-10.9,33.4-34.4,33.4-34.4l-13.8-14.6l6.8-3.2l11.2,12.4l25.2-25.9l6.5,4.4c-8.5,11.1-14,14.8-26.7,27.9
					c6.6,7.8,32.3,32.6,32.3,32.6l-0.1-8.6l-25.3-24.5l24.6-24.6l1.4-1.6c0,0,19.5,8.4,20.8,8.4c-8.3-6.8-23.2-12.7-31.3-18.6
					c-36.7-21.7-1.8-66.5,32-55.4c1,3.6,18.7-94.5,16.7-100c1.8-15.2,2.2-13.1-3.1-21.8c-15.8-36.4-61.8-105.1-61.8-105.1l414.2-2.6
					c-4.3,8.4-8.7,15.2-11.9,25.1c0,0,23.3,24.2,31.8,56.1c4.8,17.8,11.6,34.4,23.5,46.3c0.2,0.4-0.4,1-1.2,1.5
					c-32.7,11.5-70.1-16.4-81.5-48.3l-18.8,30.6c8.5,1-125.1-15.2-157.8-11.1c2.9,0.6,6.3,3,4.4,12.2c-3.3,15.8-9.3,73.1-9.3,73.1
					c-6.6,55.7-11.7,125.8-48.4,148.9c0,0,5.6,6,10.5,9.1c0.1-0.1-4.3-4.6-4.5-5.1c0-1.6,0.9-2.6,2-3.5c7.8-6.3,17.3-19.4,16.9-19.8
					c30.4,26.4,77.8,49,106.5,39.6c11.3-2.4,16.3-13.3,22.3-4.4c-7.8,47.9-7.2,100.7-4.2,142.1c4.7,92.3,25.1,145.2,45.3,210.6
					c-10.4,3.7-63.7,39.4-63.7,39.4c-0.3,4.5,64.3,19.4,89.7,16.8c0,0,5.2,5.1,5.2,4c-0.1-0.3-0.3-0.6-0.5-1
					c3.8-2.1,6.3-6.1,6.3-10.7c0-6.8-5.5-12.2-12.2-12.2c-1.3,0-2.5,0.2-3.7,0.5c-3.2-7.8-5.9-14.6-5.9-14.6l35.9,15.6l-11.7,39.3
					l3.9,8.7l14.3-51.1l-45.8-19.6l-3.1-9.1l19-38.8l-41-24.3l-1.7-7.7l22.1-41.6l-39.7-30.5l29-37.5l-35.7-30l0.4-5l29.6-34.1
					l-30.6-31.4l-0.8-12.7l33.3-29.6l-28.8-41.8c12-8.1,18.7-17.3,26.6-26.4l7,3.1l-25.6,19.4l27.3,39.5l28.8-26l-15.6-25.5l9.5,4.3
					l8.7,13.6l-1.4,14l-28.5,25.9l24.5,35.5l0.2,6.5c0,0-15.2,17.5-26.3,30.5l31,34.2l-25.4,32.4l31.9,27.2l-0.9-8.1l-23.6-19.9
					l18.1-21.9c1.3-13.2-1.6-35.8,5.2-45.8c-10.9-10.7-5.2-36.4,0.2-44.7c-10.4-12.3-4.5-39.4,2.2-40.5c-7.9-10-4.8-30.2,1.9-36.7
					c2.1-1.1-28.4-12.1-47.6-25.3c16-29.8,12.3-57.8,17.3-67.9c6.9,20,15.8,41.2,23.4,56.5c0.8,1.6,2.5,1.2,5.1,1.3
					c31.8,2.8,28.8,29.1,4.9,35.8c0,0,48.5,36.1,73.1,40.1c0.3,0.6,0.1,1.5-0.8,3.2c-3.5,7.2-5.5,19.7-6,30.7
					c-1.8,16.3,6.1,41.4,6.1,41.4l-10.1,6.2c-2,8.6-13.3,8.8-14.3,15c2.4,26.4,53.9,127.5,64.8,138.9
					C18986.4-6435.4,18978.6-6513.7,18982.5-6585.7L18982.5-6585.7z M18970.7-6401.8l8.4-6.9l-0.2,10.9L18970.7-6401.8z
					 M18978.9-6385.1l-4.2-3.1l4.2-4.7L18978.9-6385.1z M18460.5-6256.3c0.8,5,1.7,9.9,2.7,14.7c-5.9,1.6-10.3,6.9-10.3,13.4
					c0,7.6,6.2,13.8,13.8,13.8c1.1,0,2.1-0.2,3.2-0.4c2.2,7.6,4.3,14.2,5.9,19l2.8,2c-7.6-26.3,7.1-40.4-14.6-62.3
					C18463.7-6257.2,18462.2-6256.9,18460.5-6256.3L18460.5-6256.3z M18907.2-6969.5l134.8,0.9v49.7l-103.9,110.4l40,0.5l-0.4,189.4
					c-11,4.6-21.4,11.6-31.6,18.5l-63.2-35l-4.6-2.3c0,0,1.7-0.5,5.4-2.9c7.1-4.7,9.9-16.2,6.6-24.9c-5.3-14.1-16.3-11.6-25.4-11.6
					c-7.6-5.9-14.1-25.5-19.4-38.5c-2.5-5.7-4.8-10-5.4-13.3c-0.6-3-0.5-5.7-0.5-5.7s1.2,0.4,3,4.1c10.1,21.2,33.6,31.4,46.1,11.4
					c6.3-12.3,2-26.3-8.7-30.3c-3.3-1.2-14.3,0.1-14.3,0.1c-0.6,0.4-8-10.4-18.4-45.9c-4.3-14.6-5.4-46.4-1.3-51
					c6.9-8.4,8.7-20.1,14.5-28.6c2.7-5.3,2.5-2,6.7,3.9c14.2,20.2,39.1,35.8,62,34.9c16.2-0.7,21.2-6.2,17.4-10.9
					c-8.9-9.1-14.7-21.8-17.6-33c-6.8-26-14-49.2-32.2-69.4L18907.2-6969.5z M18838.7-6846.1c1.7,1.6,0.4,4.1,0.1,8.6
					c-0.8,11.4-1,11.5-7.6,8.7c-12.6-5.5-30.3-0.7-41,10.9c-13.5,14.7-13.9,29.7-5.5,59.5c9.6,33.5,9.4,37.9-2.2,44.8
					c-6.9,5.9-14.1,18.3-11.4,18.3c0.4,0,1.3-0.8,2.1-1.6c0.8-0.9,7.1-6,12-9.4c13.4-9.2,17.6-13.9,11.4-30.8
					c-6.1-16.7-11-33.1-8.4-34.1c1.2-0.5,5.8,5,8.7,6.6c5.9,3.4,18.2,9.6,19.8,9.6c2.1,0-0.1-1.5-6.2-5.5
					c-16.1-10.6-22.8-20.2-7.2-14.1c8.3,3.3,17.2,1.4,22.2-0.3c5.8-1.9,8.8-3.8,9.4-1.6c0.8,10.3,0,20.9-0.6,31.3
					c-0.2,0.7-1,7.7-1.8,15.6c-2.9,30.1-8.1,55.5-21.3,71.9c-44.3,54.7-94.7,38.8-151.3-5c21.1-58.5,19.7-104.1,24.9-122.6
					c4.9-1.5,10.6,1.4,14.2,3.4c7.9,4.5,16.9,7.2,25.5,7.6c8,0.4,9.4-0.7,8.7,1.7c-0.6,1.8-13.5,5.6-21.4,7.3
					c-14.4,3-13.3,6.3-1.2,5.2c12.8-1.2,25.1-6.2,38.1-14.9c9.1-6,9.4-6,7-13.6c-0.6-1.8-1.8-4.5,2.5-6.1c4.5-1.6,3.8-3.5,1.3-5.5
					c-0.6-0.5-2.2-0.6-2.9-1.1c-0.8-0.6,0.1-3.5,0.1-3.9c-16.5-13.9-45.5-14.3-69.4,0c-1.2-0.4-2.4-2.3-1.3-4.9
					c2.5-5.5,28.2-12.1,46.4-12.4c8.3-0.1,9.9,0.9,22.5,4.8c5.2,1.6,8,2,8.5,1.2c1.1-1.8-0.8-7.1-4.8-9.9
					c-13.4-9.6-32.9-8.8-59.4,1.7c-14.2,5.6-12.7,7.6-8.2-20.5c1.3-7.8,2.7-13.7,2.7-13.7S18818.3-6854.6,18838.7-6846.1z
					 M18819.6-6819.7c6.6,0,12.6,1.7,16.1,5.1c5.1,5.7-0.3,7.4-8.4,4.3c-10.4-4-22.3-1.7-31.4,4c-5.9,3.7-7.2,1.7-2.2-3.5
					C18799.6-6816.1,18810-6819.7,18819.6-6819.7z M18725-6809.9c11.5-0.1,22,2,26.3,6.8c3.9,4.4,0.1,4.9-9.7,1
					c-13.9-5.4-32.3-3.7-47.6,3.9c-7.8,3.9-10.2,4.7-9.2,0.2C18689.4-6805.1,18708.2-6809.8,18725-6809.9z M18816.7-6806.3
					c10.9,0,20.2,2.5,18.5,8.2c-0.6,2-1.2,0.8-9-1.6c-7.8-2.4-17.8-1.5-27.8,1.4c-9.4,2.7-11.1,3.3-7-0.7
					C18796.6-6803.9,18807.1-6806.4,18816.7-6806.3z M18839-6800.8c11.1,17.1,13,42.1,24.8,55.6c21.8-4.1,32.1,16.4,13.8,30.1
					c-9.3,5.2-20.7,1.3-29-12.4c-8-13-10.2-20.9-10.4-29.2C18838.8-6774.1,18837.9-6783.4,18839-6800.8z M18711.4-6793l4.8,0.6
					c3.5,11.9,11.3,12.6,16.1,0.1l3.7,0.6C18730.4-6776.4,18716.5-6775.8,18711.4-6793z M18704-6792.8c2-0.1,3.7,2,4.6,4.8
					c1.9,6.3-0.3,5.5-4.6,2.9c-4.4-2.7-7.8-4.5-5.3-5.5C18700.5-6791.7,18702-6792.4,18704-6792.8z M18745.4-6788.7
					c1.7,2.1,2,3.7-0.1,5.2c-2.1,1.1-3.6,1.8-5.7,2.5c-1.9,0.6-3.1,0.1-2.3-2.7c0.5-2.4,2-5.8,3.2-7.2
					C18742.4-6791.2,18744.4-6789.9,18745.4-6788.7z M18803.9-6790.2l3.8,0.3c4,10.9,13.4,10.5,17,1.1l3.4,0
					C18821.7-6772,18808.6-6775,18803.9-6790.2z M18797-6788.8c3.7,0,7.2,5.3,5.2,8c-2,1.7-11.1-0.2-11.9-3.6
					C18790.1-6786.4,18793.4-6788.7,18797-6788.8z M18832.4-6787.7c1.8,0.4,1.7,1.8,1.7,2c0.9,4.4-4.4,6-5.6,4.3
					C18827.9-6782.4,18830.7-6785.9,18832.4-6787.7z M18748.2-6740.2c-9,2.5-13.1,10.2-12.6,18.9c0.5,7,4.1,12.7,9.4,13.9
					c10.7,2.4,18.1-5,29-8.1c4.7-1.2,3.6-7.3,0.6-10c-3.9-3.4-9.8-1.3-17.8,4.8c-15.7,12-19.4-11.1-5.2-15.1
					C18753.9-6736.4,18752.9-6741.5,18748.2-6740.2z M18284.9-6209.1l6.1,1.8l-6.1,7.2
					C18284.9-6200.1,18284.9-6206.4,18284.9-6209.1L18284.9-6209.1z M18301.9-6184.4l-12.5,14.1l17.1-1.3l-11.6,12l17.7,0.7
					l-13,13.5l17.4-0.4l-12.9,13l16.5,0.5l-10.9,11.9l18.1-1.4l-13.2,14.3l19.4-0.3l-14.7,13.3l19.3-0.1l-5.8,6.6l5.1,2.6
					c5.3-2.4,35.6-11.9,36.6-19c-6.7-1.8-26.4,8.2-27.7,6.6c-7.9-34.9-42-112-64.5-134.5l-1.6,218c-3.4,3.2-8.9,1.6-12.4,3
					c-11.4-0.6-30.5,18.5-20.5,22.3c5.2,1.1,34,6.1,34.1,7.5c3.5,63.2-2.2,126.7,0.4,194.2c8.1,1.2,34.4,2.7,34.4,2.7
					s-96.7,100.9-98.6,98.9c2.3-108.1,1.1-319.5-0.8-320.3c0-6.3,2.2-19.7,2.2-19.7l-2.1-672.4c0,0-0.6-3-1.7-4.9
					c-2-3.3-2.1-4.1-2.3-14.2c-0.8-6.2,0.1-7.9,0.1-7.9l0,0l66.1,69.9l0.1,195.5c0,0,62.6,92.4,77,135.1
					c31.6,63.6,28.2,156.2,47.3,191.6c0.4,0,0.8,0,1.2,0c0.5,5.2,0.5,7.2,1.3,8c1.4,11.6,3,27.4,3,27.4l-6.9,11l7.7,9.9l0,26.4
					l-10.3,10.5l9.4,12l-2.6,24.6l-7.3,6.5l4.2,5.6c0,0,0.7,8.9-1,19.1c-1.1,6.9-7.9,6-22.1-1.2c-20.1-7.6-40.6-21.2-56.4-31.5
					c0.9-12.8,16.8-42.1-5.3-74.4c-8.2-6.1-31.9-3.9-34-4.8l0.2-99.4 M18285.1-6194.9l10.7-1.9l-10.8,10.8L18285.1-6194.9z
					 M18794.9-6691.2c-0.9,0.1-2,0.9-3.4,2.5c-1.5,1.7-3.9,1.2-9.9,0.9c-6.4-0.4-8.1-0.2-12.3,1.3c-4.8,1.8-4.9,1.8-8.3,0.3
					c-5.2-2.2-8.5-2.5-13.4-1.1c-5.9,1.7-9.7,1.2-13.3-0.6c-3.7-1.8-4.9-1.5-6.2,1.9c-0.5,1.4-3.2,6.9-4.4,8.7c-3.9,6-3,7,5.3,4.5
					c5.7-1.7,16.2-2.9,23.9,0.4c5.9,2.5,13,1.7,21.4-2c7.4-3.2,14.7-4.2,21.8,1.7c4.1,3.5,3.9,0.8,2.9-6.4
					C18797.9-6687,18797.1-6691.4,18794.9-6691.2z M18514.2-6665.8c-7.6,0-13.8,6.2-13.8,13.8s6.2,13.8,13.8,13.8
					C18517.8-6641.2,18519.7-6665.2,18514.2-6665.8z M18781-6665.7c-8.4,2.9-20,6.7-33,2.9c-10.2-3.1-7.8,4.6,3.3,5.5
					c7.7,0.7,7.2,0.7,1.2,6.3c-5.1,4.7,1.3,4.4,4.7,1.4c4.1-3.5,15.2-2.6,21.5,0.3c2.8,1.3,3.1-4-0.2-5.1c-8.3-2.9-6.3-3.1,2.7-6
					C18784.6-6661.2,18784.7-6667,18781-6665.7L18781-6665.7z M18514.2-6661.2c4.4,1.6,1.6,17.7,0,18.4c-5.1,0-9.2-4.1-9.2-9.2
					C18505-6657.1,18509.1-6661.2,18514.2-6661.2z M18440.5-6660.6c3.5-1.2,6,4.7,6,8.6c0,5.1-4.1,9.2-9.2,9.2
					c-6.2-6.1-7.3-12.8-0.2-16.6C18438.2-6659.8,18439.3-6660.2,18440.5-6660.6L18440.5-6660.6z M18476.8-6647.1l-29.5,29.9l29,29.4
					l29-30L18476.8-6647.1z M18826.5-6635.3c4.2,0,7.7,3.4,7.7,7.7s-3.4,7.6-7.7,7.6s-7.7-3.4-7.7-7.6
					S18822.3-6635.3,18826.5-6635.3z M18476.6-6625.2c4.2,0,7.7,3.4,7.7,7.7s-3.4,7.6-7.7,7.6s-7.7-3.4-7.7-7.6
					S18472.3-6625.2,18476.6-6625.2z M18790.4-6617.9l21.2,28.5l-25.9,23.2l1.3-14.4c5.7-1,10-6.1,10-12.1c0-5.2-3.3-9.7-7.9-11.4
					L18790.4-6617.9z M18438.2-6616.3l-0.3,7.8l26.6,26.4l-26.4,27.4l0.2,7.6l32.8-35L18438.2-6616.3z M18513.5-6616.3l-32.6,33.4
					l31.4,34.3l0.4-8.7l-24.7-25.5l25.2-25L18513.5-6616.3z M18983.6-6611c6.6,0,12.3,2.2,14.1,6.5c1.4,2.4,2.1,4.5,4.1,5.5
					c3.9,1.8,9.1,0.6,9.4-0.8c0.5,0-6.2-0.6-7.3-1.7c-5.2-4.7-4.3-7.6,3-7c2.4,0.1,9,0.2,9.1,2.8c1.5,8.9-10.4,15.5-25.6,14.3
					c-10.8-1.8-10.9,2.4-11.7,8.2c-0.5,1.9-2.1,5-3.5,7.4c-3.8,6.9-5.1,5.9-2.4,8.6c2.6,3.4,5.9,7.6,5.9,11.5l-0.1,36.2
					c0,0-22.7-0.1-30.7-5.8c-8.3-15.1-13.9-47.7-1.8-65.6c4.2-5.4,10.5-7.9,17.7-13.6C18969.3-6608.8,18977-6610.9,18983.6-6611z
					 M18855-6606.9l-0.8,10.5c-5.8,1-10.2,6-10.2,12.1c0,5.4,3.5,9.9,8.3,11.6l-0.7,9.1l-16.9-24.2L18855-6606.9z M18788.7-6599.8
					c2.5,1.4,4.2,4,4.2,7.1c0,3.6-2.3,6.7-5.5,7.8L18788.7-6599.8z M18436.7-6596c-11.7,6.1-7.7,29.6,0,27.6
					c7.6,0,13.8-6.2,13.8-13.8S18444.3-6596,18436.7-6596z M18512.9-6595.6c-7.6,0-13.8,6.2-13.8,13.8s6.2,13.8,13.8,13.8
					C18523.1-6571.2,18517.3-6595.2,18512.9-6595.6z M18853.8-6592.1l-1.2,15.1c-2.7-1.3-4.5-4.1-4.5-7.3
					C18848.1-6588,18850.5-6591.1,18853.8-6592.1z M18436.7-6591.4c5.1,0,9.2,4.1,9.2,9.2c0,5.1-4.1,9.2-9.2,9.2
					C18433.7-6572.4,18431.7-6589.8,18436.7-6591.4z M18512.9-6591c6.2,0.5,1,16.2,0,18.4c-5.1,0-9.2-4.1-9.2-9.2
					S18507.9-6591,18512.9-6591z M18822.7-6582.3l-30.5,30.4l30.1,33.2l25.1-30.5L18822.7-6582.3z M18476.1-6576.5l-29.2,30.1
					l27.6,28.6l29.1-30.8L18476.1-6576.5z M18283.8-6560l10.9,11.3l-10.9,0.1V-6560z M18820.3-6558.9c4.2,0,7.7,3.4,7.7,7.7
					s-3.4,7.6-7.7,7.6s-7.7-3.4-7.7-7.6S18816.1-6558.9,18820.3-6558.9z M18475.9-6554.8c4.2,0,7.7,3.4,7.7,7.6s-3.4,7.7-7.7,7.7
					c-4.2,0-7.7-3.4-7.7-7.7S18471.7-6554.8,18475.9-6554.8z M18513.7-6545.8l-32.3,33.4l31.2,33.2l0.4-7.9l-25-25.1l25.3-26
					L18513.7-6545.8z M18437.8-6545.8l0.3,8.4l25.9,25.7l-27.2,27.4l1.1,7.4l33.5-34.6L18437.8-6545.8z M18786.4-6536.6l23.4,23.2
					l-23.3,25.9l0-13.5c4.8-1.7,8.2-6.2,8.2-11.6c0-5.4-3.5-9.9-8.3-11.6L18786.4-6536.6z M18850.9-6535.4l0.2,9.5
					c-5.3,1.4-9.1,6.1-9.1,11.8c0,5.9,4.2,10.8,9.8,12l0.2,7.5l-18.5-20.4L18850.9-6535.4z M18310.5-6531.1c0,0,7.8,8.3,10.5,11.7
					c-2.1,2.4-3.4,5.5-3.4,9c0,7.6,6.2,13.8,13.8,13.8c2.2,0,4.3-0.5,6.1-1.4c1.4,2.1,7.7,10.7,7.7,10.7l-36.8-5.9L18310.5-6531.1z
					 M18513.5-6525.6c-7.6,0-13.8,6.2-13.8,13.8s6.2,13.8,13.8,13.8C18527.4-6500.8,18524.7-6524.9,18513.5-6525.6z M18436.6-6525.1
					c-19.7,2.2-14.6,27.2,0,27.6c7.6,0,13.8-6.2,13.8-13.8S18444.2-6525.1,18436.6-6525.1z M18851.2-6521.7l0.4,15.3
					c-3.2-1.1-5.6-4.1-5.6-7.8C18846.1-6517.5,18848.2-6520.5,18851.2-6521.7L18851.2-6521.7z M18513.5-6521c8.9,3.3,6.2,19,0,18.4
					c-5.1,0-9.2-4.1-9.2-9.2S18508.5-6521,18513.5-6521z M18436.6-6520.5c5.1,0,9.2,4.1,9.2,9.2c0,5.1-4.1,9.2-9.2,9.2
					C18423.5-6503.6,18426.8-6520.2,18436.6-6520.5z M18786.4-6519.6c2.5,1.4,4.2,4,4.2,7.1c0,3.1-1.7,5.7-4.1,7.1L18786.4-6519.6z
					 M18323.8-6515.7l10.8,13.8c-1,0.4-2.1,0.6-3.2,0.6c-5.1,0-9.2-4.1-9.2-9.2C18322.2-6512.4,18322.8-6514.2,18323.8-6515.7
					L18323.8-6515.7z M18821.3-6509.4l-25.2,30.4l31,27.5l22-27.2L18821.3-6509.4z M18476.2-6505.7l-31,31.4l21.9,22.7l-12.1-1.3
					l-17.5-17.8l-0.4,5.9l9.5,10.9l-10.2-0.4c-3.7,5.7,19.2,5.9,32.2,8.1c16.4,2.8,52.3,15.9,44.4,6.3l-9-2.3l8.5-10.2l-0.1-7.8
					l-14.8,15.8l-5-1.2l20.9-21.5l-1.4-6.6l-25.7,26.3l-7.5-1.7l26.1-26.6L18476.2-6505.7z M18822.5-6487.6c4.2,0,7.7,3.4,7.7,7.7
					c0,4.2-3.4,7.6-7.7,7.6c-4.2,0-7.7-3.4-7.7-7.6C18814.9-6484.2,18818.3-6487.6,18822.5-6487.6z M18475.2-6483.7
					c4.2,0,7.7,3.4,7.7,7.6c0,4.2-3.4,7.7-7.7,7.7c-4.2,0-7.6-3.4-7.6-7.7C18467.5-6480.2,18470.9-6483.7,18475.2-6483.7z
					 M18301.7-6481.5c0,0-2,25.2-3.1,37.3l40,10.7l5-40.2L18301.7-6481.5z M18284.2-6479.6l5.6,0.2l-0.9,23.4l-5.4-5.8
					L18284.2-6479.6z M18358.3-6469.4c0,0,4,6.5,8.6,13.6c-2.5,2.5-4,5.9-4,9.7c0,7.6,6.2,13.8,13.8,13.8c1.4,0,2.8-0.2,4-0.6
					c1.8,3.4,5.2,8.8,5.2,8.8l-34.3-10.1L18358.3-6469.4z M18787.7-6466.8l26.9,21.9l-20.9,25.8l-1.4-11c4.7-1.7,8.1-6.2,8.1-11.5
					c0-6.4-4.9-11.6-11.1-12.2L18787.7-6466.8z M18321.9-6466.4c4.2,0,7.7,3.4,7.7,7.6s-3.4,7.7-7.7,7.7s-7.7-3.4-7.7-7.7
					S18317.7-6466.4,18321.9-6466.4z M18860.1-6464c-6.8,0-12.3,5.5-12.3,12.2s5.5,12.3,12.3,12.3
					C18862.8-6437.5,18863.5-6460.5,18860.1-6464z M18860.1-6459.9c0.7,3.6,1.6,17.2,0,16.3c-4.5,0-8.2-3.7-8.2-8.2
					S18855.6-6459.9,18860.1-6459.9z M18369.5-6451.8c3.1,4.8,6.2,10,8.9,14.7c-0.6,0.1-1.1,0.1-1.7,0.1c-5.1,0-9.2-4.1-9.2-9.2
					C18367.5-6448.2,18368.2-6450.2,18369.5-6451.8z M18789.8-6449.7c3.7,0.8,6.4,4,6.4,8c0,3.2-1.9,6-4.5,7.3L18789.8-6449.7z
					 M18826.3-6442.5l-22.8,30.5l34.5,26.9l19.5-33.4L18826.3-6442.5z M18307-6430.1l25.7,7.5l-4.8,26.3c-0.4-1.5-1.8-4.3-3.8-7.6
					c1.1-2,1.8-4.3,1.8-6.7c0-7.6-6.2-13.8-13.8-13.8c-0.4,0-0.7,0-1.1,0C18308.6-6427.7,18307-6430.1,18307-6430.1z
					 M18345.1-6423.7l-8.4,42l38.7,15.6l9.4-44.3L18345.1-6423.7z M18830.7-6423.3c4.2,0,7.6,3.4,7.6,7.6s-3.4,7.6-7.6,7.6
					c-4.2,0-7.7-3.4-7.7-7.6S18826.5-6423.3,18830.7-6423.3z M18314.2-6419.5c4,1,7,4.6,7,8.9c0,0.6-0.1,1.1-0.2,1.7
					C18318.8-6412.4,18316.4-6416.1,18314.2-6419.5z M18863.6-6418.3l-20.7,39.1l35.3,24.6l-2.4-8.4l-25.2-18.5l14.7-26.9
					L18863.6-6418.3z M18362.3-6404.2c4.2,0,7.7,3.4,7.7,7.7s-3.4,7.6-7.7,7.6c-4.2,0-7.6-3.4-7.6-7.6
					S18358.1-6404.2,18362.3-6404.2z M18398.8-6400.3l8.2,14.3c-3.4,2.5-5.6,6.5-5.6,11.1c0,7.6,6.2,13.8,13.8,13.8
					c1.1,0,2.2-0.2,3.3-0.4l6,12.6l-35.9-15.7L18398.8-6400.3z M18871.6-6400.2c-3.2-0.7-6.3,1.3-8.5,3.4c-2.3,2.2-3.7,5.4-3.7,8.8
					c0,6.8,5.5,12.2,12.2,12.2C18880.8-6377.9,18875.8-6399.2,18871.6-6400.2z M18797.2-6396.8l29.2,20.9l-17.1,32.9
					c0,0-1.7-6.6-3.9-15.6c4.1-2,7-6.2,7-11.1c0-6.8-5.5-12.2-12.2-12.2c-0.1,0-0.1,0-0.2,0
					C18799-6387.3,18798-6392.4,18797.2-6396.8z M18871.6-6396.1c5.1,1.5,3.4,15.8,0,16.3c-4.4,0.7-8.2-3.6-8.2-8.1
					S18867.1-6396.1,18871.6-6396.1z M18409.1-6381.7l7.5,15.9c-0.4,0.1-0.8,0.1-1.3,0.1c-5.1,0-9.2-4.1-9.2-9.2
					C18406.1-6377.6,18407.2-6380,18409.1-6381.7z M18801.1-6377.8c4.1,0.4,7.4,3.9,7.4,8.1c0,2.9-1.6,5.5-3.9,6.9
					C18803.4-6367.4,18802.2-6372.6,18801.1-6377.8L18801.1-6377.8z M18839.6-6373.6l-20,39.5l36.9,22.5l17-38.2L18839.6-6373.6z
					 M18344.8-6366l22.8,10.4l-6.4,23.5l-2.8-5.8c1.3-2.1,2.2-4.6,2.2-7.4c0-7.1-5.4-13-12.3-13.7L18344.8-6366z M18380.8-6354.8
					l-11.2,39.5l35.5,18.5l16.2-39.8L18380.8-6354.8z M18350.9-6353.4c3,1.5,5,4.6,5,8.2c0,0.6-0.1,1.2-0.2,1.8L18350.9-6353.4z
					 M18846.2-6350.2c4.2,0,7.7,3.4,7.7,7.7s-3.4,7.6-7.7,7.6c-4.2,0-7.7-3.4-7.7-7.6S18841.9-6350.2,18846.2-6350.2z M18879.9-6348
					l-16.9,41.4l38.9,21.5l-2.9-7.5l-28.8-16.6l12.3-29.9L18879.9-6348z M18395-6334.2c4.2,0,7.6,3.4,7.6,7.6c0,4.2-3.4,7.7-7.6,7.7
					c-4.2,0-7.7-3.4-7.7-7.7C18387.4-6330.8,18390.8-6334.2,18395-6334.2z M18892.1-6328.1c-6.8,0-12.2,5.5-12.2,12.2
					s5.5,12.5,12.2,12.2C18904.4-6303.9,18898.1-6328.2,18892.1-6328.1z M18433.1-6326.7c2.3,4.2,4.1,8.6,5.7,13.1
					c-3.7,2.5-6.1,6.7-6.1,11.4c0,7.4,5.8,13.4,13,13.8c0.3,0,1.6,0.2,1.6,0.2l2.2,8.3l-30.5-16
					C18423.1-6307.4,18426.8-6315.4,18433.1-6326.7z M18892.1-6324c3.6,1.5,4.5,15.8,0,16.3c-4.5,0-8.1-3.6-8.1-8.1
					S18887.6-6324,18892.1-6324z M18816.8-6319.3l30,17.2l-15.1,32.5l-4.5-14.9c3.2-2.2,5.4-5.9,5.4-10.1c0-6.7-5.4-12.2-12.1-12.2
					L18816.8-6319.3z M18440.4-6309l4.8,15.9c-4.9-0.2-7.8-4.2-7.8-9.1C18437.3-6304.9,18438.5-6307.3,18440.4-6309z
					 M18821.8-6302.6c3.8,0.7,6.7,4,6.7,8c0,2.3-1,4.4-2.6,5.9L18821.8-6302.6z M18373.8-6301.5l23.2,13.6l-10.5,27.1l-3-9.8
					c2.1-2.4,3.3-5.6,3.3-9c0-6.4-4.4-11.8-10.4-13.4L18373.8-6301.5z M18858.6-6301l-14.1,37.7l40.7,21.4l10.2-38.6L18858.6-6301z
					 M18378.3-6287.1c2.4,1.7,3.9,4.4,3.9,7.5c0,1.1-0.2,2.2-0.6,3.1L18378.3-6287.1z M18408.7-6285.3l-16.5,38.3l34.4,22.6
					l17.9-39.9L18408.7-6285.3z M18871.4-6279c4.2,0,7.7,3.4,7.7,7.6s-3.4,7.6-7.7,7.6c-4.2,0-7.6-3.4-7.6-7.6
					S18867.1-6279,18871.4-6279z M18911.6-6262.2c-3.4,2.2-5.5,6.5-5.5,10.8c0,6.8,5.5,12.3,12.2,12.2c1.5,0,2.9-0.2,4.1-0.4
					C18926-6244.3,18921-6262.4,18911.6-6262.2z M18419-6263.3c4.2,0,7.7,3.4,7.7,7.7c0,4.2-3.4,7.7-7.7,7.7s-7.7-3.4-7.7-7.7
					C18411.3-6259.9,18414.8-6263.3,18419-6263.3z M18920.3-6243.6c-0.5,0.3-1.1,0.4-1.8,0.4c-4.5-0.2-8.2-3.6-8.2-8.1
					c0-2.6,1.2-4.9,3-6.3C18920.4-6263,18921.4-6242.5,18920.3-6243.6z M18464.2-6237.1c1.4,6.3,3,12.2,4.5,17.8
					c-0.6,0.1-1.3,0.2-1.9,0.2c-5.1,0-9.2-4.1-9.2-9.2C18457.6-6232.4,18460.4-6236,18464.2-6237.1z M18891-6232.6l-10.7,42.4
					l40.8,14.9l7.8-40.1L18891-6232.6z M18394.3-6232l21.6,14.9c0,0-7,16.9-12.9,25.9l-1.7-7.8c3.6-2.5,5.9-6.6,5.9-11.3
					c0-6.8-4.8-12.4-11.2-13.6L18394.3-6232z M18851.5-6230c4.5,0,8.1,3.6,8.1,8.1c0,2.9-0.9,4.2-3.2,5.6c-1.8-4-4.2-8-6.5-13.4
					C18850.6-6229.9,18850.8-6230,18851.5-6230z M18397.1-6218.8c3.2,1.4,5.5,4.7,5.5,8.4c0,2.4-0.9,4.6-2.4,6.2L18397.1-6218.8z
					 M18429.6-6212.6l-19.6,34.1l28.8,22l22.5-34.1L18429.6-6212.6z M18904.7-6211.4c4.2,0,7.7,3.4,7.7,7.7c0,4.2-3.4,7.6-7.7,7.6
					s-7.7-3.4-7.7-7.6C18897.1-6208,18900.5-6211.4,18904.7-6211.4z M18940-6200.8l5,7.8c-1.6,2.1-2.5,4.6-2.5,7.4
					c0,6.8,5.5,12.2,12.3,12.2c0.9,0,1.8-0.1,2.7-0.3l4,6.2l-25.5-9.2L18940-6200.8z M18435.4-6191.7c4.2,0,7.7,3.4,7.7,7.6
					s-3.4,7.6-7.7,7.6s-7.7-3.4-7.7-7.6S18431.2-6191.7,18435.4-6191.7z M18947.4-6189.3l7.5,11.7c-0.1,0-0.1,0-0.2,0
					C18947.6-6177.7,18944.6-6183.6,18947.4-6189.3z M18472.2-6188.8l-27.8,36.9l36.9,27.3l-0.6-8.1l-26.9-19.2l20.5-27.3
					L18472.2-6188.8z M18878.1-6176.3l36.7,11.5l-7.9,36.4l-8.6-14.4c2.4-2.2,3.8-5.4,3.8-8.9c0-6.8-5.5-12.2-12.2-12.2
					c-1.4,0-2.7,0.2-3.9,0.6L18878.1-6176.3z M18478.3-6170c-7,0.7-12.4,6.6-12.4,13.7c0,7.6,6.2,13.8,13.8,13.8c3.5,0.4,4-5,0-4.6
					c-5.1,0-9.2-4.1-9.2-9.2c0-4.9,3.8-8.8,8.6-9.1l-0.7-4.6C18478.4-6170,18478.4-6170,18478.3-6170z M18928-6166l-6.4,42.1
					l41.6,8.9l3.1-38.2L18928-6166z M18408.2-6165l19.6,14.5l-14.9,20.9l-0.8-6c3.6-2.5,5.9-6.6,5.9-11.3c0-6-3.8-11-9.1-13
					L18408.2-6165z M18889.9-6159.8c4.5,0,8.1,3.6,8.1,8.1c0,2-0.7,3.8-1.9,5.2l-7.9-13.2
					C18888.8-6159.7,18889.3-6159.8,18889.9-6159.8z M18758.8-6154c1.1,0.2,2.6,0.5,2.3,1.1c-0.3,0.7-7,8-7,8l0.8,6.8l11.8-13.4
					l4.8,1.7l-16.6,16.9l-0.8,6.3l22.1-21.7l9.4,2.6l-25.7,25.3l29.6,30l29.6-30.2l-21-23l10.4,1c4.4,5,9.2,13,17.3,17.2l-0.8-6
					c-0.4,0.3-9.8-8.8-8.3-10.3l8.3,0.6c9.7-2.6-11.9-6.2-32.7-9.7c-10.8-0.4-42.3-14.3-34.8-3.7
					C18757.8-6154.3,18758.3-6154.2,18758.8-6154L18758.8-6154z M18409.6-6154.3c2.3,1.7,3.8,4.3,3.8,7.4c0,2.2-0.8,4.2-2,5.7
					L18409.6-6154.3z M18943.2-6147c4.2,0,7.6,3.4,7.6,7.7c0,4.2-3.4,7.6-7.6,7.6c-4.2,0-7.7-3.4-7.7-7.6
					C18935.6-6143.6,18939-6147,18943.2-6147z M18440.1-6146.3l-23.9,30.4l27.1,26l27.7-32.5L18440.1-6146.3z M18976.8-6138.5
					l1.9,0.3v20.7l-2.9-0.6L18976.8-6138.5z M18790.3-6128.9c4.2,0,7.7,3.4,7.7,7.6s-3.4,7.6-7.7,7.6c-4.2,0-7.7-3.4-7.7-7.6
					S18786-6128.9,18790.3-6128.9z M18443.8-6126.7c4.2,0,7.7,3.4,7.7,7.7c0,4.2-3.4,7.7-7.7,7.7s-7.7-3.4-7.7-7.7
					C18436.2-6123.2,18439.6-6126.7,18443.8-6126.7z M18480.7-6120.7l-30.9,36.8l33.2,34.2l-0.1-7.6l-25.8-27l24.1-28.1
					L18480.7-6120.7z M18826-6117.3l-31.8,32.1l31.7,32.8l0.8-7.4l-24.4-24.7l22.9-23.6L18826-6117.3z M18756.1-6114l0,8.7
					l19.9,20.3l-20.4,20.8l0.1,8.9l28.9-29.8L18756.1-6114z M18918.9-6110.1l37.4,7.1l-2.3,35.4l-9-10.9c1.5-2,2.5-4.6,2.5-7.4
					c0-6.8-5.5-12.2-12.2-12.2c-1.9,0-3.7,0.5-5.4,1.2L18918.9-6110.1z M18414.5-6103.8l18.4,19.4l-17.6,19.9l-0.2-6.8
					c4.9-2.1,8.3-7,8.3-12.7c0-5.9-3.7-10.9-8.9-12.9L18414.5-6103.8z M18482.9-6098.9c-6.1,1.4-10.7,6.9-10.7,13.5
					c0,6.6,4.6,12.1,10.7,13.5v-4.8c-3.5-1.3-6.1-4.7-6.1-8.6c0-4,2.6-7.4,6.1-8.6V-6098.9z M18754.1-6097.6
					c-5.7,3.7-3.1,24.8,0,24.5c6.8,0,12.2-5.5,12.2-12.2S18760.9-6097.6,18754.1-6097.6z M18826.6-6095.6c-6.8,0-12.2,5.5-12.2,12.2
					s5.5,12.2,12.2,12.2C18831.9-6072.9,18829.7-6094.4,18826.6-6095.6z M18935.2-6094.1c4.5,0,8.1,3.6,8.1,8.1c0,1.5-0.4,2.9-1.1,4
					l-9.7-11.8C18933.4-6093.9,18934.3-6094.1,18935.2-6094.1z M18754.1-6093.5c4.5,0,8.1,3.6,8.1,8.1s-3.6,8.2-8.1,8.2
					C18754.5-6080.1,18752.6-6093.9,18754.1-6093.5z M18414.8-6091.7c2.5,1.6,4.2,4.5,4.2,7.7c0,3.1-1.5,5.8-3.8,7.5L18414.8-6091.7
					z M18826.6-6091.5c1,3.3,2.3,16.9,0,16.3c-4.5,0-8.2-3.7-8.2-8.2S18822.1-6091.5,18826.6-6091.5z M18789.5-6079.7l-29.8,29.7
					l30.4,31.1l28.8-30.7L18789.5-6079.7z M18445.5-6078.1l-26.7,28.8l25.7,33.4l30.2-30.1L18445.5-6078.1z M18300.7-6077
					c8.2,0,15.9,1.4,19,6.9c12.6,16.8,9,51.4,0.2,63.3c-19.6,17.8-30.6,22.5-52.7,18.4c2.5-10-8.1-15.4-9.6-13.1c-0.2,0-1,1.8,0,1.9
					c7.6,0.9,7,10,6.1,10c-8.4-0.3-13.9-0.1-14.7-3.9c-0.5-2.3,0.8-5.9,5.7-9.9c5.8-4.6,32.2-4.5,32.2-4.5c0.1,0-0.1-7.5,2.6-11.9
					c2.3-3.8,5.6-8,3.3-9.8c-3.8-1.8-6.4-6.1-6.9-11c-1-10.4,0.6-35.3,0.2-35.6C18290.7-6076.5,18295.8-6077,18300.7-6077z
					 M18789.5-6057.8c4.2,0,7.7,3.4,7.7,7.6c0,4.2-3.4,7.7-7.7,7.7c-4.2,0-7.7-3.4-7.7-7.7
					C18781.8-6054.3,18785.2-6057.8,18789.5-6057.8z M18445.7-6054.8c4.2,0,7.7,3.4,7.7,7.6s-3.4,7.7-7.7,7.7
					c-4.2,0-7.7-3.4-7.7-7.7S18441.4-6054.8,18445.7-6054.8z M18825.9-6047.6l-31.2,31.8l33.2,34.4l-1.1-9.3l-23.9-24.6l23.4-24.4
					L18825.9-6047.6z M18755.5-6047l-0.8,8.8l22.1,23.2l-20.1,20.6l-0.3,10l29.5-31.1L18755.5-6047z M18414.2-6035l17.6,24.7
					l-21,18.4l0.6-7c6.1-1.4,10.6-6.9,10.6-13.4c0-5.8-3.6-10.7-8.6-12.8L18414.2-6035z M18480.2-6030.1c-0.4,5.1-0.7,9.3-0.9,13.1
					c-5.7,1.7-9.9,7-9.9,13.2c0,5.6,3.3,10.3,8,12.5c-0.4,4-0.9,8.3-1.6,13.9l-21.1-30.8L18480.2-6030.1z M18978.6-6028.7l0.7,86.5
					l62.8,65v243.5h-257.7l-66.4-111.8c-1.3-2.2-3.2-1.4-4.7-3.5l19.7-105.1c31,14.3,57-22.6,40.1-52.5
					C18868.7-5941.5,18978.6-6028.7,18978.6-6028.7L18978.6-6028.7z M18826.1-6028.2c-6.8,0-12.3,5.5-12.3,12.2
					c0,6.8,5.5,12.3,12.3,12.3C18834.9-6007.7,18830.5-6028,18826.1-6028.2z M18754.8-6027.5c-3.4,3.9-5.3,24.7,0,24.5
					c6.8-0.2,12.2-5.5,12.2-12.3S18761.6-6027.5,18754.8-6027.5z M18826.1-6024.1c6.4,4.7,0.6,15.2,0,16.3c-4.5,0-8.2-3.7-8.2-8.2
					C18818-6020.5,18821.6-6024.1,18826.1-6024.1z M18754.8-6023.4c4.5,0,8.1,3.6,8.1,8.1s-3.6,8.2-8.1,8.2
					C18755.3-6008.4,18752.7-6022.8,18754.8-6023.4z M18413-6020.1c2.6,1.6,4.4,4.5,4.4,7.8c0,3.8-2.3,7.1-5.6,8.5L18413-6020.1z
					 M18478.9-6011.9c-0.4,5.9-0.7,10.7-1.1,15.6c-2.3-1.7-3.8-4.4-3.8-7.4C18474-6007.3,18476-6010.4,18478.9-6011.9z
					 M18789.1-6009.1l-29.1,29.1l30.3,31.4l28.8-30.4L18789.1-6009.1z M18443.3-6001.6l-30.5,24.4l19.6,30.1l6.8,4.1l27.9-23.8
					L18443.3-6001.6z M18321-5999.5l71.7,38.2c0,0-18.6,7.8-18.1,20.2c0.7,13.9,9.1,25.2,25.6,21c3.8-0.5,5.5,1,9.2,9.5
					c7,16.3,13.9,34.3,11.2,33.7c-8.8-7-7.5-7.4-17.8-12c-19.3-5.3-31,12.6-24.9,27.2c5.7,13.4,15.1,14.2,24.6,12.8
					c1.4,0.3,2.6,1.8,3.5,3.6c3,6.1,7.6,17,11.1,33.7c5.5,25.8,6.7,58,2.7,66.1c-5.6,11.2-13.2,26.4-13.2,26.4
					c-14.9-28.5-47.5-53.5-84.1-44.6c-1.2,0.8-1.5,4.8,0.2,7.1c11.9,15.6,13.9,29.9,18.1,45.2c10.9,39.3,32.8,61.7,32.5,57.7
					l-11.5,20.8c0,0-99.5,0.5-140.3,0v-47.8l106.7-109.3l-42.3-1.8l1.5-188.4C18302.9-5983.4,18321-5999.5,18321-5999.5z
					 M18789.6-5987.5c4.2,0,7.7,3.4,7.7,7.7c0,4.2-3.4,7.7-7.7,7.7s-7.7-3.4-7.7-7.7C18782-5984,18785.4-5987.5,18789.6-5987.5z
					 M18440-5979.7c4.2,0,7.7,3.4,7.7,7.7c0,4.2-3.4,7.7-7.7,7.7c-4.2,0-7.7-3.4-7.7-7.7
					C18432.4-5976.3,18435.8-5979.7,18440-5979.7z M18755.4-5972.7l0.8,7.5l21,22l-19.4,19.8c-2.8,3.9-10.1,3-12.4,3.3
					c1.6,4.8,5.9,4.2,10.4,6.1l28.2-28.9L18755.4-5972.7z M18755.7-5955.6c-5.1,1.6-4.2,23.3,0,24.5c6.8,0,12.2-5.5,12.2-12.2
					S18762.5-5955.6,18755.7-5955.6z M18827.7-5952.3c0.5,2,1.3,16.1,0,16.3c-4.5,0-8.2-3.6-8.2-8.1S18823.2-5952.3,18827.7-5952.3z
					 M18755.7-5951.5c4.5,0,8.1,3.6,8.1,8.1s-3.6,8.1-8.1,8.1C18754.6-5937.1,18752.8-5951.2,18755.7-5951.5z M18503.5-5947.6
					c-1.2,0.5-2.9,0.2-4.2,0.2c-4.3,0-9.5-3-10.7-2.5c-1.3,0.6-0.9,3.4-0.8,4.7c0.1,1.2,3.4,1.5,4.7,2.4c2.1,1.4,1.6,1.9-0.9,2.5
					c-2.2,0.5-3.9,0.6-5.3,2.6c-0.9,1.2-0.9,3.3,0.5,3.3c8.5-0.1,19.3-3.6,29.4-0.2c5.8,2.1,9.6,3.4,10.5,2.6
					c1.9-1.7-4.9-8.2-11.4-9.4c-6.6-1.2-8.9-0.7-6.8-2.7c1.1-1,2.6-0.6,2.7-1.3c0.3-2-1.2-4.1-3-4.4
					C18506.5-5950.2,18505-5948.2,18503.5-5947.6L18503.5-5947.6z M18540.1-5927.2c-0.7,0-1.7,0.5-3,1.6c-3.9,2.6-9.9,6-24.5,2
					c-8-2.6-17.1-0.3-22.3,1.1c-4.1,1.2-10,2.3-14.6,0.1c-4.6-2.2-9.6-5.5-8.7-2.1c0.2,0.9,0.5,5.9,0.6,8.9
					c0.2,7.1,0.6,12.9,5.7,7.4c2.2-2.4,4.9-2.4,9.9-0.5c3.6,1.4,6,2.4,8.8,0.6c3.9-2.6,7.3-3.2,14.5-0.8c3.4,1.2,7,1.3,11.3-1.4
					c7.2-4.4,11.7-0.1,14.5,4.4c2.2,3.6,3.3-1.5,7.3-12.1C18541.5-5923,18542.1-5927.2,18540.1-5927.2z M18505.6-5887.7
					c-3.9,2.2-9.4,2.9-13.3,5.5c-8.4,5.8-0.5,10.6,5.3,9.4c2.4-0.5,5.1-1.7,8.2-3.8c10.5-7,16.3-6,17.3,2.5
					c1.1,9.1-13,13.2-11.7,17.5c1.8,2.8,8.6-1,12.8-6.8C18536.8-5880.3,18523-5897.5,18505.6-5887.7z M18560.1-5839.8
					c-14.3,1.6-35.7,8.5-46.5,16.6c-8.5,6.6-10.8,8.2-7.2,10.9c3.3,2.4,5.8,2.5,1.3,7.1c-1.6,1.6-4.3,5.1-4.3,5.8
					c0,3.3,20.2,13.1,31.7,14.6c8.9,1.2,23.3-0.2,31.1-3.3c10.2-4.1,10.6-6.9,0.9-4.1c-7.5,2.2-16.6,3.9-25.6,3.2
					c-8.1-0.6-16-3-21-4.8c-12.4-4.4-10.2-9.6,2.3-5.2c14.4,6.2,33,6.1,49.5-1.3c6.7-3,8.5-5.4,9.8-4.4c0.3,0.3,1,1.9,1.2,2.4
					c0.4,1.1,0.5-2.8,1-9c0.5-5.1,1-12,1-12s-1,2.9-1,4.3c0.1,9-4.2,9-16.6,2.1c-14.5-8-21.6-7.2-35.3-7.1c-6,0-6.3-1.7,2.2-4.5
					c4-1.3,10.3-3.5,19.5-6.5C18561.6-5837.5,18563.7-5840.2,18560.1-5839.8z M18450.7-5821.7c5.3,0,10,4.5,11.3,13.1l-5.2-0.4
					c-1.7-12.9-11.1-10-14.8-2.3l-4.6,0.1C18441-5818.2,18446.1-5821.7,18450.7-5821.7z M18464.1-5820.9c2.1-0.2,12,4.6,12.6,6.1
					c0.7,1.6-3.1,3.4-6.4,4.3c-3.8,1.1-3,1.3-4.2-1C18464.4-5814.6,18461.5-5820.7,18464.1-5820.9z M18438.9-5820.2
					c0.1,1.4-2.9,6.5-5.1,7.1c-2.6,0.8-4.6-2.6-2.5-4.4C18433.2-5818.4,18438.5-5822.2,18438.9-5820.2L18438.9-5820.2z
					 M18540.5-5819.6c6.6-0.3,12.8,6.4,13.4,14.4l-3.4-0.1c-3.1-16.5-15.8-12.8-18.6-1l-4-1.1
					C18531.2-5815.9,18536-5819.4,18540.5-5819.6L18540.5-5819.6z M18527.5-5818.4c1.8-0.1,1.6,1.4-0.6,5.8c-1,2.1-1.8,3.2-3.6,3.2
					c-2.5-0.4-4.1-1.2-5.3-3.1c-0.9-1.9,1.1-3.4,5.4-4.8C18525.3-5817.9,18526.7-5818.3,18527.5-5818.4L18527.5-5818.4z
					 M18555.4-5817.2c1.2,0,3.3,0.8,6.6,2.2c8.5,3.8,9.5,5.3,5.1,7.5c-2,0.9-3.6,1.7-5,2.1c-4,1.3-3.9-0.9-4.9-3.7
					c-0.6-1.6-1.3-3-2.1-4.6C18554-5816,18554-5817.2,18555.4-5817.2z M18430.4-5803.2c1.4,0,4.5,1.9,10.7,4.1
					c8.9,3.2,17.8,2,29.6-1.8c4.9-1.5,6.5-2.5,4.6,0.3c-1.5,2.2-9.8,6.3-16.6,8c-12.7,3.1-29.4-2.8-29.4-9.3
					C18429.4-5802.8,18429.7-5803.1,18430.4-5803.2L18430.4-5803.2z M18472.3-5792.5c1.3,0,0,2-2.7,4.9c-4.2,4.6-10.5,7.8-17,9
					c-13.6,2.4-24.9-1.3-25-8.9c-0.1-5.5,0.9-5.6,7.6-2.1c5.7,2.9,18.5,3.7,28.8,0.3c3.4-0.9,6.9-3,7.5-3.1
					C18471.9-5792.5,18472.1-5792.5,18472.3-5792.5L18472.3-5792.5z M18576.9-5785.1c-10.3,2.7-21.3,5.5-31.3,7.4
					c-10.7,2.1-26.4,0.2-34.6-3.9c-6-3-8.2-1.2-5.5,4.6c1.7,3.8,4.4,7.7,12.1,10.4c11.3,3.9,37.6-2.4,57.2-12.6
					C18586.2-5784.2,18584-5787.3,18576.9-5785.1L18576.9-5785.1z M18406.8-5707.5l17.6-30c119.4,23.1,248.6,6.3,288.1,0.9
					c0,0,43.2,71.4,58.7,96.5c1.5,2.7,5.5,11.7,5.5,11.7l-407.6-0.3c5.7-11.5,11.1-26.3,11.1-26.3c-12.5-5-22.1-23.6-28.1-39.3
					c-5.2-13.8-14.3-47.4-26.3-63.8C18346.7-5770,18399.3-5743.5,18406.8-5707.5z"/>
				
					<path id="path3302-0-9-2_1_" class="st2" d="
					M18773.2-5631.7l-403.8,0l52.6-105.2c98.1,14.9,194.9,13,290.6-2.1L18773.2-5631.7L18773.2-5631.7z M18221.2-5717l-0.8-50.4
					l52.3,1.2L18221.2-5717z M18662.7-6055.9l0.6-153c20.9,14.7,41.7,29.5,63.2,41.1l-0.8,158.3L18662.7-6055.9z M18486.7-6089.4
					c-3.7-86.5-16.3-120.3-24.5-164.2l74.9-48.4l0.2,177.6L18486.7-6089.4z M18282-6241.2l0.4-213.1
					c68.8,99,112.3,199.5,124.3,335.2c-18.7,7.5-37,15.9-56.2,22.6C18331-6149.9,18307.6-6197.8,18282-6241.2L18282-6241.2z
					 M18978.9-6153.4c-63.6-80.8-101.5-188.5-121.5-321.1l58.2-28.3c19.3,46.8,38.9,96.6,63.4,135.4L18978.9-6153.4z
					 M18730.4-6296.3l0.2-178.2l49.7-32.3c3.1,62.6,13,121.2,24.5,164.5L18730.4-6296.3z M18599.6-6390.2
					c-18.4-13.8-37.5-26.6-58.8-36.2l3.1-158.1l56.1,43.2L18599.6-6390.2z M18994-6835.5c0,0,35-35.5,48-47.1l0.3,48.3L18994-6835.5
					z M18553.3-6858.6l-65.3-111.4l409-3.4l-52.6,112.1C18736.2-6881,18643.5-6872.1,18553.3-6858.6z"/>
				
					<path id="path3300-3-9-0_1_" d="
					M18740.7-5857c0.9,0.3,13.6-8.3,20.1-20.9c7.1-13.9,0.7-27.6,2.8-27.7c13.1,3.9,9.3,28.8,4.8,36.5c-3.9,6.7-11.2,11.2-18.8,12.5
					C18742-5855.2,18740.7-5857,18740.7-5857L18740.7-5857z M18762-5911.4c-2.6,0-3.8-0.4-5.5-2.2c-2.4-2.5-5.3-4.2-6.8-3.9
					c-2.1,0.3-3-0.1-3-1.2c0-0.9,0.9-1.1,4.3-0.8c2.1,0.2,6.4-3.1,6.4-3.1l0-235.2c18.5,7.7,46.1,12.1,67.4,14.6l1.4,209.6
					c0,0,31.2-16.3,42.5-22.8l0.4-187.6l22.1-2.4l-34.9-70.8c-4.9,3.8-73.5-2.6-90.6-13.8l62.6-39.1c-6.4-19.4-12.1-37.9-17.5-57.6
					c-0.2-0.6-1.3-0.5-1.5-1.1c-1.3-4.8-2.2-6.9-3.4-11.8c-0.2-0.9,0.1-2.4-0.1-3.3c-13.5-46.5-22.7-108-24.6-163.2
					c0.2-0.5,2.2-0.1,2.2-0.1l-0.4-33.7l-2.2,1.5l0.2-15.2l2.3-2.2c0.1-3,0.3-8.5,0.3-8.5l-2.9-1.8l1.5-25.5l3-0.4l1.6-40.4
					l-79.3,51.3c0,0-51.7-37-74.4-56.3c24.9-16.9,31.5-49.9,37.7-77.3c6.3-27.1,8.4-49.5,10.2-72.2c2-25,6.1-57,9.4-72.7
					c2-9.5,1.9-10.6-0.9-10.7c-1-0.1,0-0.4,2.2-0.7c50.8-2,105.4,5.5,153.9,11.8c0,0,12-22.3,16.2-30.6c0,0,2.4,7.6,5,12.8
					c5.9,11.2,19.3,23,30.8,29.3c4.3,2.8,16.6,7,25,8.4c4.9,0.8,12.8-0.7,18.7-3.1c2-0.8,3.6-1.9,3.6-3c0-1.1-1.6-2.1-3.6-4.1
					c-1.7-1.6-4-4.8-5.2-7.1c-3.5-7.1-8.9-19.1-11.9-30.4c-8.5-22.3-14.7-49.3-34.1-61.2l13.4-26.8l-421.9,0.1l65.3,110
					c0,0,2,3.3,2.6,4.4c1.9,3.5,2.7,3,2.7,3c-4.2,38.4-10.3,76.3-18.3,113.5c0,0-0.8-3-13.2-2.8c-36.3,0.5-49,40.8-18.7,58.7
					c2.9,1.7,7.7,5,12.5,7.5c1.4,0.7,18.8,10.9,18.8,10.9l-20.8-9.4l-1.5,242c0,0-43.5-13.1-72.1-14.3l0.3-209.8l-40,21.6
					l-1.8,187.6l-21.9,1.4c0,0,8.3,17.7,10.2,21.4c3.7,7.4,13,24,19.4,34.4c2.3,3.7,7.5,11.9,7.5,11.9c29.2,0.8,59.1,5.2,86.3,17.2
					l-62.9,40.9c26.3,74,59,182.3,40.8,357.1l4.4-2.8l1.2-18.8l78.3-53.9l96.6,77.8c0,0-7-0.2-8.6-0.3c-24.6-0.9-42,24.3-47.9,45.3
					c-10.5,37.1-11.9,46.2-16.7,105c-1.9,23.2-6.5,45.7-11.2,67.8c-2.5,11.1-2.1,12.2-2.1,12.2c49.1,1.6,100.4-3.6,138.9-12.1
					c0,0,16.2-77.1,22-109.8c5.5,3.1,10.3,4.5,15.3,4.4C18784.9-5857.7,18781.6-5909.9,18762-5911.4L18762-5911.4z M18592.5-6968.2
					l20,70l-48.9,4.5l-40.6-74L18592.5-6968.2z M18893.1-6969.2l-50.3,106.6c-105.5-14.8-166.3-16.2-288.7,1.1l-63.6-106.3l16.7-0.1
					l48,84.9l71.3-7.1l-19.7-77.7l18.8-0.6l19.5,76.2l110.3-0.6c3.6-25.5,10.5-75.5,10.5-75.5l20.4,0.2l-13.6,77.2l65.1,8.2
					l37.6-86.3L18893.1-6969.2z M18751.7-6968.2l-6.4,64.8l-91.2,0.7l-14.6-65.6L18751.7-6968.2z M18862.2-6969.5l-31,77l-45.1-6
					l12.3-69.9L18862.2-6969.5z M18917.8-6894.1c2,6.6,4,13,4.5,14.3c7.4,20,10.4,26.5,15.2,33.2c0.8,1.1,1,1-0.1,1.9
					c-22.2,10.8-62.2-15.8-71.9-40.2c1.2-2.4,6.6-12.3,6.6-12.3c2.8,5.5,0.7,10.9,2.5,15.8c0.5,2.1,5-14.1,5-14.1s4.4,7.2,5,21
					c0.1,2.1,5.8-9.3,5.8-9.3c7.1,9.6,6.7,26.3,6.7,26.3c8-9.8,3-15.3,15.4,9.5c1.4-2.6,0.7-5.3,2.6-4.6c5.5,2.1,13.1,5.9,15.9,5.2
					c-3.6-4.6-10.7-7-12.6-13c0,0,5.6,0.5,6,0.2c-6.3-3.5-12.4-6.4-17.2-13.1c1.4-0.5,7.2,0.5,6.9-0.1c-8.6-7.8-21.5-14-2.8-12.3
					c-12.1-8.5-25.6-14.4-4.6-13.8c-15-7.1-19.1-11.5-16.3-12.7c1.6-0.7,6.1,2,13.2-0.3c-12.1-4.9-17-7.2-17.5-8.8
					c-0.6-2,5.1-3,9.1-7.3c0,0-4.9,1.1-7-1.1c0,0,2.4-6.8,4.2-10.7C18907.8-6926.5,18913.8-6906.8,18917.8-6894.1L18917.8-6894.1z
					 M19047.3-6921.1c0,0-67.9,73.1-101.5,109.4l32.8,0.5l1.5,198c11.4,1.5,31.3,0,38.8,7.6c4.7,6.9-13.4,20.5-23.5,17.6
					c-6.8-1.8-15.2-0.4-15.2-0.4l0.7,220.7c-21.7-40.2-38.2-65.7-62.2-135.5c7-4.8,14.1-8.6,15.3-9.4c-9.2-22.2-15.6-57.2-2.7-87.7
					l8.9,5.3c-6.5,18.6-8.9,46.1,1.7,71.5l2.4-2.6c0,0-2.6-5.1-4.3-10.7c-1.5-5-3.7-11.4-3.7-18.1c-0.4-11.8-0.1-22,2.7-31.5
					c1-3.1,2.3-7.7,3-9.1c0.7-1.4,1.4-2.7,1.4-3.1c-26.1-10.6-44.8-26.1-67.3-37.1c-0.9-0.4-1.6-0.8-2.1-1.1
					c-2.9-1.6-2.1-2.1,2.4-3.9c9.4-3.7,13.2-8.3,13-17.4c-0.3-13-7.2-18-22.4-17.2c-5.5,0.3-5.9,0.2-6.8-1.7
					c-2.3-4.4-10.2-21.9-10.2-22.6c0-0.4-1.7-4.3-3.7-8.8c-3.1-7-6.7-14.3-8.2-21.6c-0.7-3.6-2.9-5.1-3.4-1.3
					c-4,27.9-7.7,42.7-14.9,59.4c-2.1,5-3.8,9.2-3.6,9.4c0.7,0.6,12.8,6.2,18.4,8.5c22.1,9.1,32.1,14.7,28.7,16
					c-2.4,0.9-3.2,2.6-3.8,7.3c-1.6,12.3-1.4,18.6,0.7,22.5c2.2,4.1,2.1,4.4-1.4,6.7c-3.1,2-2.4,2-3.2,12.3
					c-1,12.2-0.3,19.9-0.3,19.9l5.5,7l-5.6,7l-1.3,31.9l7.5,5.7l-7.1,7l2.5,29.1c0,0-0.9,2.7-2.1,4
					c11.9,123.1,58.1,247.2,127.2,331.8l0.7,202.3l67.8,67.8L19047.3-6921.1z M19041.9-6908.1v15.9l-57.5,62l57.5,1v13.5l-88.3-0.2
					L19041.9-6908.1z M19041.1-6881.1l0.1,44.7l-43,0.1L19041.1-6881.1z M18646.5-6858.5l9-0.4c-0.4,9-3.9,50.6-8.2,87
					c-4.8,41-14.6,76.4-16.5,76.4l-8.7-5.2C18636.4-6747.9,18640.2-6808.4,18646.5-6858.5L18646.5-6858.5z M18687.2-6859.8
					c-1.3,25.4-6.6,43.2-8.2,73.2c-2,36.7-8.3,82.4-24.8,120.2c-5.6,12.8-15.8,24.7-30.2,30.4c-25.3,9.9-46.7-21.4-29.6-44.4
					c13.5-18.2,34.6-18,41,0.4c5.3,15.2-11.7,34.3-25.3,28.4c-9.4-4.1-7-21.1,3.6-25.1c4.4-1.7,8.1,3.9,6,8.9
					c-1.7,3.9-1.9,6.4,0.4,4.7c9.6-6.8,2.4-22.9-9.5-16.9c-15.9,8-13.2,31.7,2.8,32.7c20.3,2,35.9-23,45.9-70.3
					c11-53,8.2-100.5,18.8-142.1L18687.2-6859.8z M18661.3-6858.9l10.6-0.3c-0.8,3.9-1,8.1-1.7,13c-4.2,27.8-6.7,68.4-11,100.2
					c-6.1,44.9-16.9,72.2-17.2,68.9c-1.2-5.4-4.7-9.9-7.3-14.2c11-29.9,15.4-57,18.2-82.6
					C18656.2-6803.9,18657.1-6831.6,18661.3-6858.9z M18615.8-6856.4l9.3-0.5c-3.6,59.5-12.4,113.5-17.5,136.7
					c-1.6,7-2.1,10-3.5,10.6c-1.5,0.6-3.9-1.7-9.9-5C18603.3-6713.3,18610.6-6815.8,18615.8-6856.4z M18630.3-6857.2l10.1-1
					c-1.5,21.5-5.1,55.4-9.2,85.9c-4.9,36.9-11.4,69.6-14.6,69.1l-8.5-2.9C18613.9-6704.4,18627.8-6814.5,18630.3-6857.2z
					 M18611.1-6856.2c-6.6,45.1-7.3,97.7-21,139.8l-9.5-4.4c2.6,0.8,9.4-27.4,11.6-59.3c2-27.8,7-58.1,8.5-74.8L18611.1-6856.2z
					 M18595.4-6854.5c-3.8,15.9-3.8,39.4-6.6,58.9c-3.5,24.2-7.2,73.4-12.8,72.3l-9.7-4.9c5.1,1.5,14-91.7,19.4-124.8
					L18595.4-6854.5z M18569.9-6850.6l9.8-1.3c-4.7,36.4-13.3,121.2-18.4,121.9l-9.2-4.9
					C18555.7-6749.9,18564.8-6800.5,18569.9-6850.6z M18563.8-6849.2c-4.1,40-7.9,80.5-16.4,111.6l-10.1-4.6c0,0,7-34.2,10.3-58.2
					c3.3-23.7,3.8-27.1,4.8-33.3c2.3-13.6,2.9-14.1,2.9-14.1L18563.8-6849.2z M18996.4-6808.2l-1,192.1l-11.2-0.4l0.5-191.9
					L18996.4-6808.2z M19022.8-6806.7c4.2,0,7.7,3.4,7.7,7.6c0,4.2-3.4,7.7-7.7,7.7c-4.2,0-7.7-3.4-7.7-7.7
					C19015.2-6803.2,19018.6-6806.7,19022.8-6806.7z M18842.5-6736.2c7.9,14.5,14,19.8,21,22.6c12.6,5,30-7.3,23.7-24.6
					c-3.3-9.1-11.8-10.4-22.5-8.6c0,0-4.6-3.3-10-19.7c-6.4-19.5-16.5-39.5-16.5-39.5C18837.5-6781.5,18831.7-6756.1,18842.5-6736.2
					z M19034.2-6788.8c4.2,0,7.7,3.4,7.7,7.6s-3.4,7.6-7.7,7.6s-7.7-3.4-7.7-7.6S19029.9-6788.8,19034.2-6788.8z M19013.2-6788.5
					c4.2,0,7.7,3.4,7.7,7.6c0,4.2-3.4,7.7-7.7,7.7s-7.7-3.4-7.7-7.7C19005.5-6785.1,19008.9-6788.5,19013.2-6788.5z M18841.5-6790.4
					c7.1,14.7,8.6,25.8,15.5,39.2c3,5.8,5.7,10.8,5.7,10.8c22.5-10.6,31.2,16.1,12.9,24.6c-18,8.4-38.2-23.4-36.2-57.7
					C18840-6783,18841.5-6790.4,18841.5-6790.4L18841.5-6790.4z M19023.2-6770.5c4.2,0,7.6,3.4,7.6,7.6s-3.4,7.7-7.6,7.7
					c-4.2,0-7.7-3.4-7.7-7.7S19019-6770.5,19023.2-6770.5z M19043.5-6756.1v16.4l-40,38.8v-15.8L19043.5-6756.1z M18517.6-6743.5
					c7.6,0.1,11.3,2.4,6.2,4.4c-16.8,6.7-24.3,17.3-25.2,35.9c0,9.4,1.1,10.6-4.7,5.4C18479.2-6718.5,18500.5-6743.6,18517.6-6743.5
					z M18531.6-6736.8c1.9-0.1,3.7,0.2,5.5,0.8c4.5,1.4,2.9,1.5-4.7,6.6c-14.5,9.6-18.9,19-19.5,38.2c-0.2,2.9,0.4,5.3,0.2,6.5
					c-0.2,0.9-1.3,0.6-2,0.6c-2.8-0.5-4.5-3.4-5.3-5.8C18496.7-6708.3,18513.7-6736.1,18531.6-6736.8L18531.6-6736.8z
					 M18547.3-6730.4c1.2,0,2.3,0.2,3.2,0.6c3.5,1.8,2.2,2-4.2,6.6c-11.5,8.2-17.2,20.2-18.5,33.7c-0.9,8.6,5.8,18.9-6,10.4
					c-8.3-6.9-6.6-24.7,2.2-37C18529.4-6723.6,18540.6-6730.3,18547.3-6730.4L18547.3-6730.4z M19043.5-6734.2v18.6l-40,38v-19.1
					L19043.5-6734.2z M18560.2-6724.5c4.5,0,6.6,3,1.3,6.3c-12.9,8.1-20.7,23.7-20,39.9c0.7,9.8,1.1,11.5-5.1,5.1
					c-10.1-10.4-3-38.7,16.5-49.3C18555.5-6723.9,18558.1-6724.5,18560.2-6724.5z M18573.4-6719c7.5-0.2,8.5,3.6,1.8,8.2
					c-12.7,8.9-21.2,24.5-21,38.8c0.1,6.6-0.4,7.4-3.3,5.2c-14.7-11.2,1.1-50.4,21-52.1C18572.4-6719,18572.9-6719,18573.4-6719z
					 M18836.4-6717.8c1.8,0.1,5.1,6.6,10.2,20.1c4.9,13.1,12.9,29.5,14.6,30.1c0.5,0.2,2.8-0.6,5-1.8c16.8-8.8,28.6,16.2,12.1,25.5
					c-11.8,6.6-22.9-0.5-33.1-21.2c-12.1-24.4-15.4-42.5-9.6-52.3C18835.8-6717.6,18836.1-6717.8,18836.4-6717.8L18836.4-6717.8z
					 M18587.1-6711.2c2-0.1,4,0.3,5.8,1.2c4.3,2.2,3.7,3.9-2.9,7.8c-6.9,4-9.6,6.6-13.5,12.5c-6.2,9.3-7.2,12.9-7.2,24.9
					c0,9.8-2.9,10.3-8.8,1.6C18550.4-6678,18570.6-6710.4,18587.1-6711.2L18587.1-6711.2z M18603.8-6702.4c6.6-0.1,10.9,2.5,4.6,5.9
					c-20.1,10.6-28.5,25.8-24.6,44.5c1.2,5.9-5.5,0.9-9.6-7.1c-5.9-11.7,5-34.3,20-41.1
					C18597.3-6701.6,18600.8-6702.3,18603.8-6702.4L18603.8-6702.4z M18830.2-6685.2c1.3,0.1,2.7,3.4,5.9,11.6
					c2.1,5.4,4.9,11.8,6.2,14.2s2.3,4.8,2.1,5.2c-1.1,1.9-10.4-1.3-13.5-4.7c-4.8-5.2-6.4-16.8-3.1-23.4
					C18828.7-6684.1,18829.4-6685.2,18830.2-6685.2L18830.2-6685.2z M19022.8-6671c4.2,0,7.7,3.4,7.7,7.6s-3.4,7.7-7.7,7.7
					c-4.2,0-7.7-3.4-7.7-7.7S19018.6-6671,19022.8-6671z M18237.7-6658.7c4.2,0,7.7,3.4,7.7,7.7s-3.4,7.6-7.7,7.6s-7.7-3.4-7.7-7.6
					S18233.4-6658.7,18237.7-6658.7z M18554-6656.4c8.4-0.3,10.9,3.7,12.3,16.4c1,8.7,2.8,9.5,16.6,7.2c14.5-2.4,19.3,1.5,20.3,16.5
					c0.8,11.9,0.7,11.8,17.2,11.9c16.2,0.1,17.9,1.7,19.8,18.3c1.4,12.3,0.9,12,16.8,11.8c17.7-0.2,19.2,1.1,20.4,16.7
					c1,12.7,1.8,13.5,12.9,12.5c10.9-0.9,31.1-1,34.8-0.2c9.4,2,9.8,1.7,11.8-11c2.7-16.7,6-18.8,26.5-16.7
					c10.1,1,11.2,0.8,12.7-8.1c1.9-11.8,4.3-15.3,4.3-5c0,25.9-1.8,27.1-19,22.5c-13-3.5-13.2-0.8-14.5,11.7
					c-1.2,11-3.1,15.5-7.1,17.3c-3.1,1.4-13.7,0.2-18-1c-1.6-0.5-11.7-0.7-23.6-0.6c-28.7,0.3-29,0.4-29-19.8
					c0-8.5-1.9-10.3-16.9-9.9c-18.9,0.6-17.9,1.1-21.1-21.6c-1.1-7.8-1.7-8.1-17.3-7.9c-17,0.2-20.9,0.5-19.9-13.8
					c0.9-13-2.3-16.4-16.5-13.1c-15.1,3.5-18-2.9-19.5-14.5c-1.4-10.8-2.3-8.1-9.5-8.7c-8-0.6-7.1-9.6,1.4-10.5
					C18551.5-6656.1,18552.8-6656.3,18554-6656.4L18554-6656.4z M19034.7-6652.5c4.2,0,7.7,3.4,7.7,7.7c0,4.2-3.4,7.6-7.7,7.6
					s-7.7-3.4-7.7-7.6C19027-6649,19030.4-6652.5,19034.7-6652.5z M19013.1-6652c4.2,0,7.6,3.4,7.6,7.7s-3.4,7.6-7.6,7.6
					s-7.7-3.4-7.7-7.6S19008.9-6652,19013.1-6652z M18249.1-6639.3c4.2,0,7.7,3.4,7.7,7.6s-3.4,7.6-7.7,7.6s-7.7-3.4-7.7-7.6
					S18244.9-6639.3,18249.1-6639.3z M18227.6-6639.1c4.2,0,7.7,3.4,7.7,7.6c0,4.2-3.4,7.7-7.7,7.7s-7.7-3.4-7.7-7.7
					C18220-6635.7,18223.4-6639.1,18227.6-6639.1z M18627.7-6632.6l79.6,59.4l75.3-50.4l-0.5,18.4l-74.8,49.7
					c0,0-63.7-49.3-94.4-73.1L18627.7-6632.6z M19023.8-6631.7c4.2,0,7.7,3.4,7.7,7.7s-3.4,7.6-7.7,7.6c-4.2,0-7.7-3.4-7.7-7.6
					S19019.6-6631.7,19023.8-6631.7z M18893.5-6621.7l18.9,30.7l-18.8,13.7l17.2,21.9l-18.5,19l20.3,12.9l-19,26.5l-26.3,11.7
					l26.3-34.6l-21.8-15l20.7-22.3l-18.5-24.3l19.2-15l-20.8-34.1l1.4-1.6L18893.5-6621.7z M18544.5-6628.4l139.9,104.6
					c0,0,12.9,9.7,16.6,12.1c7.9,5,9.4,3,17.3-2.4c17.7-10.5,60.4-39.6,60.4-39.6l-0.3,15.1c0,0-43,32.2-66.8,45.5
					c-3.4,1.9-7,0.1-9.5-1.8c-51.9-41.1-105.1-81-157.8-121.3L18544.5-6628.4z M18865.9-6626.8c0.6,1.1,2.5,1.4,3.4,2.8
					c6.2,9.6,17.4,26.6,17.4,26.6l-19.7,15.6l18.1,23.7l-22.6,22.9l23,15.7c0,0-14.3,21.9-25.1,31.9l-0.3-17l9.2-11.1l-10.6-7.3
					l0-23.4l10.8-11.4l-9.9-10l1.8-25.6l9.4-7.5l-7.8-10.6L18865.9-6626.8z M18237.9-6621.6c4.2,0,7.7,3.4,7.7,7.6s-3.4,7.6-7.7,7.6
					s-7.7-3.4-7.7-7.6S18233.7-6621.6,18237.9-6621.6z M19042-6593.7l-38.9,36v-16.3l38.9-38.2V-6593.7z M18260.2-6611.2v19.7
					l-41.5,38.4v-19L18260.2-6611.2z M19042-6588.6v19.6l-38.9,36.6v-19.4L19042-6588.6z M18996.2-6585.5l0.8,635.9l45.2,47.8
					l0,15.9l-57.2-59.2l-1.3-639.8L18996.2-6585.5z M18260.2-6587.4v22.1l-41.5,37.9v-20.8L18260.2-6587.4z M18544.4-6583.4
					l54.9,42.8l-0.2,149.1c-22.3-16.7-40.1-26.7-57-35.2L18544.4-6583.4z M19023.9-6535.2c4.2,0,7.7,3.4,7.7,7.6s-3.4,7.6-7.7,7.6
					c-4.2,0-7.7-3.4-7.7-7.6S19019.6-6535.2,19023.9-6535.2z M18615.9-6527.9l0.2,152.2l-10.8-9.9l-0.6-150.9L18615.9-6527.9z
					 M18240.6-6526.4c4.2,0,7.7,3.4,7.7,7.6c0,4.2-3.4,7.7-7.7,7.7s-7.7-3.4-7.7-7.7C18233-6523,18236.4-6526.4,18240.6-6526.4z
					 M19034.1-6515.6c4.2,0,7.6,3.4,7.6,7.6c0,4.2-3.4,7.7-7.6,7.7s-7.7-3.4-7.7-7.7C19026.5-6512.1,19029.9-6515.6,19034.1-6515.6z
					 M19012.3-6514.6c4.2,0,7.7,3.4,7.7,7.6s-3.4,7.6-7.7,7.6s-7.7-3.4-7.7-7.6S19008.1-6514.6,19012.3-6514.6z M18622-6515.3
					l33.5,31.3l-34.5,32.8l-0.3-15.1l19.2-18.5l-19.3-20L18622-6515.3z M18634.8-6512.6l27.9,20.6l-4.4,5.3L18634.8-6512.6z
					 M18252-6508c4.2,0,7.7,3.4,7.7,7.6s-3.4,7.6-7.7,7.6c-4.2,0-7.6-3.4-7.6-7.6S18247.7-6508,18252-6508z M18229.5-6507.6
					c4.2,0,7.7,3.4,7.7,7.7c0,4.2-3.4,7.7-7.7,7.7s-7.7-3.4-7.7-7.7C18221.9-6504.1,18225.3-6507.6,18229.5-6507.6z M18778.8-6504.8
					c5.4,60.9,9.1,103,24.8,160.4l-72.3,46.2l0.7-176.3L18778.8-6504.8z M18978-6365.5l-0.3,209.1c-68.2-97.1-105-210.6-116.9-318.1
					c0,0,36.6-16.9,54.4-27.2C18934.1-6457.6,18926-6457.7,18978-6365.5z M19024.8-6496c4.2,0,7.7,3.4,7.7,7.7
					c0,4.2-3.4,7.7-7.7,7.7s-7.7-3.4-7.7-7.7C19017.2-6492.5,19020.6-6496,19024.8-6496z M18240.9-6487.7c4.2,0,7.6,3.4,7.6,7.6
					s-3.4,7.7-7.6,7.7s-7.7-3.4-7.7-7.7S18236.7-6487.7,18240.9-6487.7z M18667.5-6488.4l26.6,20.3l0.1,15.4l-31.8-30.5
					L18667.5-6488.4z M18658.4-6480.3l33.2,32.8l-34.8,34.7l-34.3-32.5L18658.4-6480.3z M18908.4-6479.2l-32,13.1
					c12.2,110.9,44,194.1,86.8,261.5l1-155.6C18942.1-6395.1,18925.3-6437.3,18908.4-6479.2L18908.4-6479.2z M19042.9-6476.9v17.4
					l-39.8,36.5v-17.4L19042.9-6476.9z M18658.4-6467.3l-21.2,20.7l21.3,20.6l20.5-20.6L18658.4-6467.3z M18260.2-6469.6v18.6
					l-39.6,38.2v-19.7L18260.2-6469.6z M18705.6-6459.2l0.3,177.6l-8.8,4.2l0.6-185.5L18705.6-6459.2z M18658-6456.5l9.6,9.6
					l-10,10.1l-9.5-9.6L18658-6456.5z M19042.9-6454.6v20.1l-39.8,37.2l-0.7-19.2L19042.9-6454.6z M18602.1-6379.2
					c41.1,35.6,72.7,89.6,107.4,119.8c14,12.2,48.3,31.1,66.8,37c21,6.6,37.4,9.4,58.6,9.7c16.7,0.3,16.8,0.4,16.8,0.4l7.1,12.6
					l-11.7-0.2l-0.8,44.3c12.4,0.6,24.5-0.1,36.4-1.6l4.3,8.1c-85.1,11.5-168.2-20.7-218.2-61.9c-22.8-18.7-41.3-41.6-63.9-75
					c-43.4-67.7-119.9-100.4-191.1-101.2l-5.9-9.2l11.9,0.4c0,0,1.2-8.5,1.4-23c0.2-16.3,0.1-19.2-1.2-19.6
					c-8.6-1-34.6-0.5-33.9,0.6l-5.4-9.6C18465.6-6456.2,18549.2-6426.6,18602.1-6379.2L18602.1-6379.2z M18260.2-6446v18.2
					l-39.6,37.3v-18.2L18260.2-6446z M18695-6444.4l-1,16.3l-18.9,18.7l20.1,19.5l-0.5,13.6l-35.4-32.8L18695-6444.4z
					 M18436.6-6438.6c-1.8,0-2.9,0.2-3.1,0.5c-0.5,0.8-0.2,7.8-1.8,33.1c-0.6,9.3-1.2,9.3,6.6,10.2c6.5,0.2,21.1,4,30.8,5.1
					c8.2,1.1,6.5-1.4,8.8-7.9c2.5-7.2,3.9-13.5,7-23.7c2.9-9.4,1.5-9.7-16.9-13.1C18455.3-6436.9,18442-6438.6,18436.6-6438.6z
					 M18620.6-6440.2l32,31.9l-31.5,32l-0.6-15.5c6.1-5.4,13.3-11.6,18.7-17.7l-18.6-19L18620.6-6440.2z M18460-6429.8l3.4,5.7
					l8.2,1.4l-1.4,5.7l4.2,5.9l-5.2,3.9l0.2,7.2l-6.5-0.2l-5.6,4l-4.4-5.6l-6.5-0.2l0.3-8l-4.2-3.5l5-4.5l-0.6-7.1l8,1.3
					L18460-6429.8z M18408-6420.2l5.1,3.3l-5.2,3.6l-0.2,5.5l-3.2,2.7l-11.6-22.7l7.6,3.1l5.8-3.8L18408-6420.2z M18501.2-6425.5
					c-4.1,0.1-4.6,7.6-9,21.8c-6.1,19.8-6.6,18,5.2,22.1c5.2,1.8,15.3,5.2,20.6,7.7c12.9,6.1,13,6.1,17.8-2.2
					c2.1-3.7,6.2-12.7,9-17.3c7.1-11.6,7.3-11.1-5.8-17.3c-7.7-3.7-12.3-5.2-28.4-11.7
					C18506.2-6424.3,18503.4-6425.5,18501.2-6425.5L18501.2-6425.5z M18514.1-6412.3l5.6,3.5l6.3-2.6l1.3,6.8l6.9,2.7l-2,6.7l3.1,5
					l-5.9,1.1l-4.3,9.3l-6.5-4.6l-6.9,2.5l-1.9-5.1l-7-3.4l2.6-5.6l-3.5-7.6l8.1-0.6L18514.1-6412.3z M18656.1-6405.3l35.3,34.6
					l-32.2,32.2l-35.3-34.7L18656.1-6405.3z M19024.8-6399c4.2,0,7.7,3.4,7.7,7.6s-3.4,7.7-7.7,7.7c-4.2,0-7.6-3.4-7.6-7.7
					S19020.5-6399,19024.8-6399z M18561.7-6397.3c-2,0-3.2,1.9-5,5.6c-0.8,1.5-5.1,9.7-9.1,16c-9.1,14.2-9.1,13.5,0,19.1
					c3.8,2.4,12.7,9.7,20.3,16.5c7,6.4,6.3,4.9,21.4-10.3c9.9-9.9,16-12.7,12.1-17.9c-9.4-8-17.1-13.9-27.2-21.6
					C18567.5-6395,18564-6397.4,18561.7-6397.3L18561.7-6397.3z M18657.8-6393.5l-20.8,20.4l23.5,21.3l19.5-20L18657.8-6393.5z
					 M18300.7-6400.4l0.2,159.8c22.9,39.2,46.5,78.7,58.7,122.8l33.6-16.5C18377.2-6264.8,18339.8-6337.2,18300.7-6400.4z
					 M18240.9-6390.4c4.2,0,7.7,3.4,7.7,7.7c0,4.2-3.4,7.6-7.7,7.6s-7.6-3.4-7.6-7.6C18233.2-6387,18236.6-6390.4,18240.9-6390.4z
					 M18658-6381.9l10,9.2l-9.2,10.1l-10.1-10.5L18658-6381.9z M19034.2-6380.4c4.2,0,7.7,3.4,7.7,7.6s-3.4,7.6-7.7,7.6
					s-7.7-3.4-7.7-7.6S19029.9-6380.4,19034.2-6380.4z M19013.6-6379.6c4.2,0,7.7,3.4,7.7,7.6s-3.4,7.6-7.7,7.6s-7.7-3.4-7.7-7.6
					S19009.4-6379.6,19013.6-6379.6z M18566.4-6380.1l5.8,4.3l6.8-2.9l0.5,8l6.2,3.1l-3.9,5.7l2.4,7.5l-6.7,0.2l-5.2,6.9l-4.7-4.5
					l-9.1,0.6l-1.5-7.8l-4-3.1l3.1-5.2l-2.3-6.9l7.8-0.5L18566.4-6380.1z M18229.6-6371.6c4.2,0,7.7,3.4,7.7,7.6s-3.4,7.6-7.7,7.6
					s-7.6-3.4-7.6-7.6S18225.4-6371.6,18229.6-6371.6z M18251.6-6371.3c4.2,0,7.7,3.4,7.7,7.7s-3.4,7.6-7.7,7.6s-7.7-3.4-7.7-7.6
					S18247.4-6371.3,18251.6-6371.3z M18694.7-6353.1l-18.2,17l18,18.8l-0.5,14.4l-31.9-31.8l32.4-31.8L18694.7-6353.1z
					 M18514.3-6356.8l-68.5,45.4l-4.2-11.4l61.1-40L18514.3-6356.8z M19023.8-6360.5c4.2,0,7.7,3.4,7.7,7.7s-3.4,7.6-7.7,7.6
					c-4.2,0-7.6-3.4-7.6-7.6S19019.5-6360.5,19023.8-6360.5z M18613.2-6355.9c-3.2,0.2-6.4,4-12.6,10.5c-6,6.4-13.1,13.9-14.7,15
					c-4.8,3.3-4.5,4.2,3.8,13.5c2.5,2.8,7.3,8.6,10.6,12.8c3.3,4.2,8.5,9.5,9.6,10.6c3.4,3.5,5.2,2.8,20.7-8.3
					c18.8-13.5,18.7-11.5,1.4-33.7C18622-6348.3,18617.2-6356.1,18613.2-6355.9z M18240.6-6351.2c4.2,0,7.7,3.4,7.7,7.6
					s-3.4,7.6-7.7,7.6s-7.7-3.4-7.7-7.6S18236.4-6351.2,18240.6-6351.2z M18642.3-6348.4l12.4,13.3l-1.1,1.3L18642.3-6348.4z
					 M19042.4-6345.4v23l-38.1,35.2v-21L19042.4-6345.4z M18615.5-6338.7l4.6,6.4l7.9-0.5l-1.2,7.5l4.2,3.1l-4.1,5.7l-0.3,7.2
					l-6.5-1.5l-5.3,6.4l-5.2-6.1l-6.2,0.7l0.2-7.5l-6.3-3.6l4.4-4.9l0.1-8.4l9.1-0.3L18615.5-6338.7z M18804.1-6338.2l3.8,11.6
					l-95.3,62l-8.3-9.6L18804.1-6338.2z M18554.6-6330.5l7.6,5.7l-100,64.3l-3-8.4L18554.6-6330.5z M18261.9-6332.9v19.1l-42.2,40.7
					v-19.8L18261.9-6332.9z M18658.1-6328.3l1.2-1l32.7,31.4l-6.2,6.6L18658.1-6328.3z M18567.8-6319.1l0.9,185.5l-8.7-6l0.7-176
					L18567.8-6319.1z M18573.1-6314.8l7.1,6.2l-6.8,6.7L18573.1-6314.8z M19042.4-6316.4v18.8l-38.1,36.2v-19.7L19042.4-6316.4z
					 M18261.9-6307.4v17.7l-42.2,40.3v-17.9L18261.9-6307.4z M18655.3-6305c-1.1,0-2.3,0.7-4,2c-1.6,1.2-5.4,3.9-8.5,5.9
					c-11.5,7.5-21.2,14.5-21.7,15.5c-0.9,2.1,10.6,17.2,26.6,35.2c6.3,7.1,6.1,8.5,12.4,2.1c5-5.7,23.4-21.3,22.9-25.5
					c-1-4.8-7.3-10.2-23-31.4C18657.9-6303.7,18656.7-6304.9,18655.3-6305z M18584.4-6303l25.1,35.9l-3.3,3.3l-30.8-30.4
					L18584.4-6303z M18535.4-6298.8l0,173.1l-47.1,33.5c0.9,0.5-5.8-104-23.8-159.7L18535.4-6298.8z M18652.5-6292.7l4.6,8.6l7-1.2
					l-0.9,7.9l5.9,4.6l-5.8,8l0.8,5.7l-6.8-1.6l-6.2,6.5l-4.3-8.2l-9,0.1l1.3-7.9l-6.3-5.3l6.9-4l1-7.2l5.9,0.5L18652.5-6292.7z
					 M18693.4-6291.4l0.8,7.1l-4.2-3.6L18693.4-6291.4z M18573-6278.8l-0.1-10.1l30,29l-30.7,28.7l0.2-13.7l17.5-16.6L18573-6278.8z
					 M18821.1-6284.4l4.3,12.9l-61.7,38l-12.4-6.5L18821.1-6284.4z M19024.4-6263.1c4.2,0,7.7,3.4,7.7,7.6s-3.4,7.7-7.7,7.7
					s-7.7-3.4-7.7-7.7S19020.2-6263.1,19024.4-6263.1z M18631.7-6238.1l-21.7-21.7l2.7-3L18631.7-6238.1z M18687.6-6257.7
					c-7.3,6.3-23,24.4-23,27.4c0,3,21.7,21.7,34.8,30c4.1,2.6,5.7,2.7,7.3,0.3c22.5-33.7,23.5-32.5,14.6-39.1
					c-9.1-6.9-19.7-17.3-26.9-20.8C18691.2-6261.3,18690.7-6260.4,18687.6-6257.7L18687.6-6257.7z M18606.3-6256l35.7,34.3l-33.1,32
					l-34.4-36.3L18606.3-6256z M18241.5-6253.4c4.2,0,7.7,3.4,7.7,7.6s-3.4,7.6-7.7,7.6c-4.2,0-7.6-3.4-7.6-7.6
					S18237.2-6253.4,18241.5-6253.4z M18693-6246.5l6,5.4l7.2-1.9l1.6,7.1l6.9,2.5l-3.7,7.2l0.5,9.1l-7-1.3l-4.8,7.5l-7.1-7.1
					l-8.1,0.7l0.4-7.9l-7.2-3.5l4.5-5.2l-2.8-7.1l8.6,1.4L18693-6246.5z M19034.6-6243.4c4.2,0,7.7,3.4,7.7,7.6
					c0,4.2-3.4,7.7-7.7,7.7s-7.7-3.4-7.7-7.7C19026.9-6239.9,19030.3-6243.4,19034.6-6243.4z M18587.6-6225.3l21.2,21.6l19.5-18.7
					l-20.6-21.8L18587.6-6225.3z M19013.5-6243.1c4.2,0,7.7,3.4,7.7,7.6s-3.4,7.7-7.7,7.7s-7.7-3.4-7.7-7.7
					S19009.2-6243.1,19013.5-6243.1z M18230.9-6235.1c4.2,0,7.7,3.4,7.7,7.7s-3.4,7.6-7.7,7.6s-7.7-3.4-7.7-7.6
					S18226.7-6235.1,18230.9-6235.1z M18253.4-6235c4.2,0,7.7,3.4,7.7,7.7s-3.4,7.6-7.7,7.6s-7.6-3.4-7.6-7.6
					S18249.1-6235,18253.4-6235z M18607.6-6233.3l9.6,9.9l-8.9,9.4l-10-10.2L18607.6-6233.3z M18738.4-6226.5
					c-4.9,3.5-18.3,28.9-20.6,34.5c0,1.3,6.5,5.4,14.5,9.2c6.9,3.2,29.2,12.2,31.2,12.7c4.5,1.1,5.3-0.6,6-3.5
					c0.4-1.5,2.2-7.4,4.1-13.9c6.9-22.4,9-21.4-1.3-24.8c-3.5-1.2-14.7-4.9-21.7-8.2C18743.7-6223.7,18740.6-6226.5,18738.4-6226.5z
					 M19023.8-6222.4c4.2,0,7.7,3.4,7.7,7.7c0,4.2-3.4,7.7-7.7,7.7s-7.6-3.4-7.6-7.7C19016.1-6219,19019.5-6222.4,19023.8-6222.4z
					 M18658.3-6211.9l1.2,150.5l-11.8-9.2l-0.3-151L18658.3-6211.9z M18605.6-6186.3l-32.5,33.1l-0.2-16.9l18.2-16.5l-18.5-19.4
					l0.4-13C18584.8-6209.2,18595-6197.3,18605.6-6186.3z M18241.3-6215.2c4.2,0,7.6,3.4,7.6,7.6c0,4.2-3.4,7.7-7.6,7.7
					c-4.2,0-7.7-3.4-7.7-7.7C18233.7-6211.7,18237.1-6215.2,18241.3-6215.2z M18743-6215.5l6.6,5.5l5.5-3.3l3.2,5.6l7.9,1.1
					l-3.5,8.6l4.6,6.6l-7.7,1.4l-1.9,9.2l-7.5-4.5l-5.7,2.5l-4.2-7.8l-8.9-0.4l4.9-8.4l-4.6-6.7l6.5-0.4L18743-6215.5z
					 M18642.7-6214.9l-0.1,13.3l-14.1,14.3l14.2,15.5l-0.1,15.4l-29.4-29.9L18642.7-6214.9z M18793.5-6206.2c-3,0.1-3,3.2-5.3,13.4
					c-0.5,2.2-2.1,8.1-3.5,13.1c-4.3,15.2-4.8,15.5,8.4,18.1c7.7,1.1,40.8,8.9,41.5,3.6c0.8-9,1.4-30.1,1.5-37.3
					c0.3-2.4-0.3-4.7-2.7-5C18818.3-6201.9,18801.5-6205.9,18793.5-6206.2L18793.5-6206.2z M18664.5-6205.5
					c18.8,12.8,37,25.9,58.6,37.6l0.5,154.7l-59.3-44.2L18664.5-6205.5z M19042-6205.1v19l-39.5,37.8v-18.1L19042-6205.1z
					 M18810.4-6198.5l3.4,7.3l7.2-2.4l0,8.8l6.4,4l-7.7,3.6l-0.7,10.7l-7.8-2.4l-6.5,4l-5.7-6l-7-0.1l2.6-9.5l-4.5-4.3l6.6-3.2
					l0.5-8.5l7,4.2L18810.4-6198.5z M18262.8-6199.9v18.3l-43,39.6v-16L18262.8-6199.9z M18864.3-6188.4l9.7,16.3l-3.5,6.6l-6.5-3.2
					l-7.1,2.6l1.1-8.7l-5.5-4.4l5.6-5.1l-0.3-6.4L18864.3-6188.4z M18609.3-6183.1l33,34.2l-33.6,34.7l-33-34.7L18609.3-6183.1z
					 M19042-6161.6l-39.5,36.7v-17.9l39.5-37.5V-6161.6z M18262.8-6176.6v17.8l-43,40.3v-16.5L18262.8-6176.6z M18609.4-6170.2
					l-21.4,21.2l21.3,21.3l21.5-20.8L18609.4-6170.2z M18609.7-6158l9.2,9.4l-8.8,9.1l-9.5-9.2L18609.7-6158z M18572.9-6145
					l32.7,33.6l-3.8,4.4l-29-22.5L18572.9-6145z M18643.1-6142.3l0.9,15.2l-17.8,15.2l16.3,17.1l0.5,15.8l-31-31.9L18643.1-6142.3z
					 M19024.4-6126.9c4.2,0,7.6,3.4,7.6,7.6c0,4.2-3.4,7.7-7.6,7.7c-4.2,0-7.7-3.4-7.7-7.7
					C19016.7-6123.5,19020.2-6126.9,19024.4-6126.9z M18242.3-6117.7c4.2,0,7.7,3.4,7.7,7.7c0,4.2-3.4,7.7-7.7,7.7s-7.7-3.4-7.7-7.7
					C18234.6-6114.2,18238-6117.7,18242.3-6117.7z M18398.9-6113l-24.1,36.1l19,12.7l-18,24.2l18.7,22.5l-18.9,16.2l19.1,32.8
					c-7.6-1.5-15.4-6.6-22.4-10.1l-14.4-27.5l16.6-14.3l-16.9-19.6l17.7-20.9l-17.7-12.4l19.3-29.7L18398.9-6113z M19033.5-6108.2
					c4.2,0,7.7,3.4,7.7,7.7c0,4.2-3.4,7.6-7.7,7.6c-4.2,0-7.7-3.4-7.7-7.6C19025.9-6104.7,19029.3-6108.2,19033.5-6108.2z
					 M18558.7-6108.7l166.6,128.4l-0.7,17l-166.7-128.1l-70.8,50l0.6-18.2L18558.7-6108.7z M19013.1-6107.1c4.2,0,7.7,3.4,7.7,7.6
					s-3.4,7.6-7.7,7.6c-4.2,0-7.6-3.4-7.6-7.6S19008.9-6107.1,19013.1-6107.1z M18625.3-6090.7l-1.8,0.3l-18.2-13.3l4-4.5
					C18609.3-6108.1,18621.2-6095,18625.3-6090.7z M18253.6-6098.1c4.2,0,7.7,3.4,7.7,7.7s-3.4,7.6-7.7,7.6c-4.2,0-7.6-3.4-7.6-7.6
					S18249.4-6098.1,18253.6-6098.1z M18233-6098c4.2,0,7.7,3.4,7.7,7.7c0,4.2-3.4,7.6-7.7,7.6c-4.2,0-7.6-3.4-7.6-7.6
					C18225.3-6094.6,18228.7-6098,18233-6098z M19024.4-6087.9c4.2,0,7.7,3.4,7.7,7.7c0,4.2-3.4,7.6-7.7,7.6c-4.2,0-7.6-3.4-7.6-7.6
					C19016.7-6084.5,19020.2-6087.9,19024.4-6087.9z M18242.2-6079.5c4.2,0,7.6,3.4,7.6,7.7c0,4.2-3.4,7.7-7.6,7.7s-7.7-3.4-7.7-7.7
					C18234.5-6076,18238-6079.5,18242.2-6079.5z M19042-6065.2v16.9l-37.4,36.2v-16.3L19042-6065.2z M18537.6-6060.1
					c5.6-0.1,13,0.2,23,0.6c8.6,0.3,18.1,0.5,21.1,0.4c11.9-0.3,15.8,3.7,16,16.6c0.2,11.4,0.1,11.4,15.1,12
					c18,0.8,22.8,5.4,23,22.4c0.1,6.6,5.4,9.2,15.9,7.7c16.5-2.3,19.7-0.1,21.7,15.3c1.6,12.8,0.7,12.2,15.9,12
					c16.3-0.1,19.9,2.6,20.1,15.1c0.1,7.3,1.9,9.5,8.2,10c6.7,0.6,9.6,4.1,6.3,7.5c-0.6,0.6-3.7,1-8.6,1.1
					c-10.4,0.1-13.8-3.1-15.7-15c-1.3-8.3-2.2-8.7-16-8.3c-17.6,0.5-19-0.6-20.9-15.9c-1.6-13.2-3.8-14.5-19-11.7
					c-11,2.1-16.8-2.8-18.2-15.2c-1.6-13.9-2.2-14.4-17.8-14.9c-15.6-0.6-20-3.3-20.1-12.7c-0.2-14.6-2.1-15.9-21.3-15.3
					c-9.3,0.3-18.9,0.1-24.4-0.5c-11.6-1.2-11.6-1.3-12.8,9.9c-1.7,16.7-4.2,18.3-26.3,16.6c-9.2-0.7-9.9-0.3-10.5,6.8
					c-0.8,8.8-4,14.2-6.6,10.9c-1.3-1.7-1.3-1.9,0-14.8c1.5-14.4,1.6-14.5,20.4-13.1c12.7,1,12.1,1.4,13.5-10.1
					C18521.2-6056.7,18520.9-6060,18537.6-6060.1L18537.6-6060.1z M18263.4-6061.4v18.5l-43.7,40.5v-18L18263.4-6061.4z
					 M18399-6039.7l9.5,13l-3.1,24.1l-8.1,6.1l5.7,11.5l-1.8,14.1l-2.3,1.3l-15.9-30.8l18.8-16.5l-19.2-23.4l18.2-24.5l-18.9-13.3
					l22.7-33.4c3.9-4.8,4.2,14.2,4.2,14.2l-9.4,14.2l10.5,9.1h0l0,22.5C18410-6051.5,18399-6039.7,18399-6039.7z M18411-6050.6
					l1-30.3l-8.2-6.3l6.3-10.5l-0.4-26.8l-1.9-1.3c-15.7-191.9-109.7-305.3-124.4-331.1c0,0-3.3-2.6-2.7-9.2
					c0.3-2.9,0.4-19.8,0.3-37.6c-0.6-91,0.2-153.3,0.2-153.3l-69.1-73.6l0.4,26.9l3.4,2.4l0,122.7l-2.9,0.2c0,0-0.9,33-0.7,55.6
					l4.1,0.1l-0.2,84.3l-3.5,0.4l0.2,54.6l3.8,0c0,0,0.9,57.3-0.5,85.1l-2.8,0.2l0.2,54.3l3.2,0.2l0.2,77.6l-4,0.6l1.1,51.2l3.2,0.2
					c1.2,31.7,0.6,86.4,0.6,86.4l-3.7,0.2l0.9,50.9l2.6,0.2l-0.8,89.3l-2.4,0.3l0.9,52.8l2.6,0.2l-0.4,43.9l-1.8,0.3l-0.4,16.4
					l1.9,4.3l0.1,58.5l-1.5,0.6l-0.4,29.4l107.1-108.3l-39.4-1.2l0-35c0-57.8,0.8-104.4-0.9-160.7c-0.5-0.5-4.4-1.1-8.7-1.4
					c-20.3-1.2-25.8-2.8-25.9-7.7c-0.1-6,9.1-13.5,16.8-13.6c1.7,0,4.6-1.7,4.6-1.7l-2.5-640.9l-47.9-50.2l0.2-15.9l59.1,62.5
					l2.2,640.6l2.2-1l0.2-215.1c30.3,45.3,47.2,90.1,64.1,135c0,0,6-2.1,6.2-2.2c0,0-2.1-0.8-2.1-0.8
					c-17.2-57.3-38.9-98.9-67.1-142.3l0.4-208.5c72.2,101.9,107.1,193.6,121.6,325.7l-36.5,18.2l-3.5,4.7l-27.6,13.8l-2.6-4.4
					l-16.7,11.6c12.9,22.5,12.4,54.9,1.9,72.1l4.5,2.8c0.3,1.2,17.3-35.1-1.7-72l12.5-7.7c18,37.2,9.6,77.2,1.2,87.5
					c0,0,13,8.3,22.4,13.4c10.2,5.5,19.2,10.6,31.4,14.5c7.5,3.1,12.3-0.5,12.3-0.6l3.6-20.7l-5.8-7.9l6.8-5.4l3.1-31.8l-7.3-7.3
					L18411-6050.6z M19042-6042.1v20.5l-37.4,35.4v-20.1L19042-6042.1z M18263.4-6020.2l-43.7,40.1v-16.7l43.7-41V-6020.2z
					 M19027.1-5992.9c4.2,0,7.7,3.4,7.7,7.7c0,4.2-3.4,7.7-7.7,7.7c-4.2,0-7.6-3.4-7.6-7.7
					C19019.5-5989.5,19022.9-5992.9,19027.1-5992.9z M18280.8-5980.5l0,188.8l-11.5,0l0.5-191.1L18280.8-5980.5z M18242.3-5982.3
					c4.2,0,7.7,3.4,7.7,7.6c0,4.2-3.4,7.7-7.7,7.7s-7.7-3.4-7.7-7.7C18234.6-5978.8,18238-5982.3,18242.3-5982.3z M19016.2-5975
					c4.2,0,7.6,3.4,7.6,7.6s-3.4,7.7-7.6,7.7c-4.2,0-7.7-3.4-7.7-7.7S19012-5975,19016.2-5975z M19036.9-5974.6
					c4.2,0,7.6,3.4,7.6,7.6c0,4.2-3.4,7.7-7.6,7.7s-7.7-3.4-7.7-7.7C19029.2-5971.2,19032.6-5974.6,19036.9-5974.6z M18254.2-5963.1
					c4.2,0,7.7,3.4,7.7,7.7c0,4.2-3.4,7.6-7.7,7.6s-7.7-3.4-7.7-7.6C18246.6-5959.7,18250-5963.1,18254.2-5963.1z M18648.4-5962.9
					c39.9,4.9,29.3,46.8,12.5,55.5c-22.9,10.7-41.2-10.8-26.6-32.6c10.7-16,31.1-5.4,23.2,12.1c-4.4,9.9-13.6,8.7-13.6-1.3
					c3.3-9.5,0.3-6.1-2.3-2.8c-8.1,10.5,8.2,21.6,16.6,11.3c5.1-6.4,6.2-13.9,4.5-19.9c-3-10.3-14.9-16.3-28.4-6.8
					c-16.1,19.3-24.7,44.2-29.4,72.1c-10.1,59.4-10.6,121.9-19.3,137.7l-9.4-0.2c13.7-68,13.8-126.2,28.5-179.7
					C18611.9-5944.1,18630.4-5963,18648.4-5962.9z M18233.3-5962.6c4.2,0,7.7,3.4,7.7,7.7s-3.4,7.6-7.7,7.6s-7.7-3.4-7.7-7.6
					S18229.1-5962.6,18233.3-5962.6z M18395.1-5961.5c-10.5,0.2-21.2,8.9-20.4,20c1,13.5,9,19.5,22.2,18.2c7-0.7,6.9-0.8,11.6,7.6
					c4.3,7.6,15.5,40.3,15.6,45.2c-5.4-7.2-18-20.5-29.7-19.9c-12.5,0.9-23.1,12.8-13.6,29.6c5,8.2,14,9.8,23.1,7.1
					c13.6,21.2,16.2,42.4,20.5,67c0,0,5.4-52.7,7-73.7c3.1-32.2,7.5-53.1,20-78.6c-10.4-6-21.5-10.7-32.7-15
					c-4.4-1.7-9.1-1.7-13.5-4.6C18402.1-5960.7,18398.6-5961.6,18395.1-5961.5z M19028-5957.2c4.2,0,7.7,3.4,7.7,7.6
					c0,4.2-3.4,7.7-7.7,7.7c-4.2,0-7.7-3.4-7.7-7.7C19020.3-5953.8,19023.7-5957.2,19028-5957.2z M18416.7-5940.3
					c7.9,12.8,15.6,31.3,16.2,42.9c0.3,7.7-1.3,17.2-2.6,26c-0.6,4.4-2.3,0.1-5.3-9.3c-12.4-39.2-15.7-46.7-24.3-44.8
					c-4.9,1.1-10,1.3-13.4-0.5c-10.9-6-11.9-26.2,4-30.1C18404.1-5958.8,18412.2-5947.6,18416.7-5940.3L18416.7-5940.3z
					 M18416.4-5950.1c15.9,6.3,26,15.7,23.1,31.1c-1.3,5.8-2.1,10.5-3.7,9.9c-1.8-0.7-4.3-7.6-9.2-19.6
					C18425.6-5932.5,18414.2-5950,18416.4-5950.1z M18679.4-5949.4c0.8-0.1,2.2,0.7,3.9,2.4c12.5,12.3,5.7,40.1-11,48.2
					c-6.9,4.7-19.5,4-19.6-0.6c0-1.8,0.4-2.3,2.1-2.3c14,0.1,29-19.4,24.8-40.2C18679.3-5945.1,18678.4-5949.3,18679.4-5949.4
					L18679.4-5949.4z M18242.6-5942.7c4.2,0,7.6,3.4,7.6,7.6s-3.4,7.7-7.6,7.7s-7.7-3.4-7.7-7.7S18238.4-5942.7,18242.6-5942.7z
					 M18692.6-5940.3c0.9-0.1,3.9,1.2,5.9,3.6c11.8,14.2,2.2,38.5-16.3,46.8c-7.1,3.8-13.1,1.2-11.6-2.8
					c12.6-5.2,24.6-18.8,23.3-37.4C18693.5-5936.6,18691.3-5940.1,18692.6-5940.3z M18442.4-5937.7l4.3,2l-1.8,3.7
					C18444.1-5934.2,18444.1-5935.1,18442.4-5937.7z M18706-5936.2c0.9,0,3-0.3,5,1.6c7.6,7.4,8.8,28.2,1.5,38.5
					c-3.4,4.8-14.1,13.6-17.3,14.5c-3.7,0.5-6.3,1-12.5-1.8c-2.1-0.1,0.9-2,4.8-4.3c13.8-8,23-22.2,20.6-35.6
					C18706.7-5931.5,18704.2-5936.1,18706-5936.2z M18720-5929.5c3.7,0.3,6.5,3.5,8.2,6.3c9.1,13,1.5,40.4-17,46.1
					c-12.4,3.8-17,0.2-7-5.6c14.4-8.4,21.8-24.8,17.7-37.8C18720-5926.8,18718.1-5929.3,18720-5929.5L18720-5929.5z M18735-5919.9
					c4.3,0.1,7.7,3.4,9.2,6.8c3.6,8.4,3,20.2-1.6,28.5c-4.7,8.3-13.5,15.2-23.4,16.2c-2.6,0.2-4.8-0.1-6.8-1
					c-4.3-1.9-2.8-2.2,5.3-6.4c13-6.8,20.7-21,18.7-36.6C18735.7-5918.4,18733.3-5919.9,18735-5919.9z M18263.4-5922.8v20.2
					l-42.5,40.1v-19.7L18263.4-5922.8z M18624.5-5920.2c0.8,0.8,5.6,12.3,6.2,14.7c-10,14.3-12.8,37.8-14.3,55.6
					c-5.6,50.5-11.5,111.4-14,111.9l-11.1,0.2c4.2,2.8,9.6-83.7,18.2-138.5C18610.2-5880.4,18619.4-5922.7,18624.5-5920.2
					L18624.5-5920.2z M18753.1-5911.2c14.6,9.9,6.8,40.7-13.5,48.3c-7.4,2.8-10.1,3.2-13.4,0c-2.1-2-4.1-2.7,1.2-4.6
					c15-3.9,25.6-17.9,23.1-34.2C18750.2-5905.7,18746.5-5916.2,18753.1-5911.2L18753.1-5911.2z M18635-5902.7l6.6,4.3
					c-7.2,21.3-9.8,46.5-12.7,70.9c-3.5,29.5-6.7,59.8-11,88.8l-10.2,0.4c5.3-17.9,7.7-67.9,13-109.7
					C18623.9-5869.3,18627.2-5898.4,18635-5902.7L18635-5902.7z M18646.5-5895.7l8.5,4.9c-3,11.9-6.6,25-8.3,37.5
					c-3.9,27.8-5.4,61.5-14.4,113.3l-9.2,0.8c2.3-16.7,6.7-53.7,10.4-87.9C18637.9-5866.7,18644.7-5896.7,18646.5-5895.7z
					 M18263.4-5897v19.8l-42.5,39.1v-18.3L18263.4-5897z M18660.9-5889.4c0,0,7.3,4.1,8.2,4.6c-5.5,21.9-8.2,42.2-11,62.1
					c-3.7,26.8-6.4,52.8-11.5,82.2l-9.8,0.6c4.9-22.6,10.5-75.6,14.9-112.9C18654.4-5874.5,18659.6-5889.9,18660.9-5889.4z
					 M18426.9-5844.9c0.1,15-3.1,38.1-3.1,38.1c-1.3,0.7-5.3-33.9-19.3-49.6c-17.1,8.1-31.8-10.9-20.2-24
					C18407-5900,18426.9-5858.2,18426.9-5844.9z M18673.7-5883.5l11.9,5.5c-1.5-0.3-4.3,7.9-7,20.7c-8.3,38.9-16.6,115.5-17.9,115.5
					l-9.2,0.8c3-20.6,7-53.1,11.3-81.9C18667.7-5855.5,18672.2-5883.3,18673.7-5883.5L18673.7-5883.5z M18690.2-5876l9,5.4
					c-0.8-0.6-4,9.1-5.6,15.8c-8.1,38.8-11.8,72.8-16.8,110.4l-9.8,1.3c-0.7,1.1,8.5-74.1,16.1-112
					C18685.7-5868,18689.5-5876.5,18690.2-5876L18690.2-5876z M18704.3-5869.3l9.7,4.8c-10.5,29.8-11.5,58.2-21.6,118l-10.2,1.8
					c4.1-38.2,10-79.3,18.3-116.8C18701.7-5866.4,18704.2-5869.2,18704.3-5869.3z M18718.1-5862.3l10.9,4.4l-22.8,109.7l-9.2,1.2
					c5.7-31.6,8.7-68.2,16.4-97C18715.1-5850.1,18716-5857,18718.1-5862.3L18718.1-5862.3z M18244.2-5844.9c4.2,0,7.7,3.4,7.7,7.6
					s-3.4,7.6-7.7,7.6s-7.7-3.4-7.7-7.6S18240-5844.9,18244.2-5844.9z M18254.2-5827c4.2,0,7.7,3.4,7.7,7.7c0,4.2-3.4,7.6-7.7,7.6
					s-7.7-3.4-7.7-7.6C18246.6-5823.5,18250-5827,18254.2-5827z M18234.3-5826.5c4.2,0,7.7,3.4,7.7,7.6c0,4.2-3.4,7.7-7.7,7.7
					s-7.7-3.4-7.7-7.7C18226.6-5823.1,18230.1-5826.5,18234.3-5826.5z M18243.8-5808.8c4.2,0,7.6,3.4,7.6,7.7c0,4.2-3.4,7.7-7.6,7.7
					c-4.2,0-7.7-3.4-7.7-7.7C18236.2-5805.4,18239.6-5808.8,18243.8-5808.8z M18313.1-5783.3l-91.8,93l-0.3-18.6l62.9-61.8l-63.4-1
					l0.1-12.6L18313.1-5783.3z M18271-5765.5l-49.2,46.9l-0.4-47.7L18271-5765.5z M18323.5-5762.1c0,0-0.3,1.7,4.3,9.8
					c13.4,23.3,16.5,44.9,28.4,69.9c5.9,13.7,19.2,27.5,22.2,28.3l-14.8,27l416.9-0.9l-66.7-116.5c-105.9,19.6-201.1,16.2-290.6,0.5
					c-5.1,6.9-10.7,20.9-16.1,31.1C18393.8-5748.9,18351.1-5772.1,18323.5-5762.1z M18338.7-5759c22-0.3,40.4,10.2,56.7,32.4
					c5.2,7.1,7.2,10.3,7.2,13.2c-0.5,3.4-7.4,14.4-7.4,14.4s-4-10.9-4.9-16.2c-5.9,21.8-8.3-3.5-10.6-10.1
					c-7.2,21.1-11.1-7.9-10.8-15.7c-9.8,13.5-9.2-8.7-14-12.8c-0.1,11.7-7,3.7-15.9,1.2c4.7,6.5,13.8,10.9,2.2,12.4
					c11.6,8,17.4,6.8,6.1,11.2c8.7,4.8,22.9,10.5,7.2,13.7c9.6,6.1,25.1,8.6,8.5,14.4c12.6,7.7,29.3,7.1,5.8,13.3
					c8.5,5,23.6,6.9,6.7,11.2c2.6,1.2,7.1,4.2,7.1,4.2l-7.3,11.5c0,0-2.6-0.2-4.4-2.1c-7.7-8.1-15.2-22.9-22-43.7
					c-4.9-15.3-10.8-31.5-17.3-44.9C18328.1-5758.5,18328.4-5758.8,18338.7-5759L18338.7-5759z M18711-5732.7l57.6,98.6l-13.7,0.2
					l-50.9-84.4l-68.6,7.8l22.6,75.5l-20.4,0.6l-20.3-74.2c-38.3,1.5-74.9,2-106.7-0.6l-10.8,75.3l-19.5-0.6l12.3-74.5l-64.4-8.2
					l-34.9,83.6l-20.1,0.4c13-21.9,45.4-92.6,51.5-99.6C18565.1-5710.7,18637.9-5722.8,18711-5732.7L18711-5732.7z M18697.6-5709.9
					l43.6,75.8l-70.1,0.3l-23.5-70.2L18697.6-5709.9z M18435.4-5707.7c13.8,4,28.7,4.9,43.7,5.5l-12.7,67.9l-62.1-0.1
					L18435.4-5707.7z M18610.2-5699.7l16.5,65.9l-116.9,0.6l9.6-65.7C18550.1-5697,18580.1-5698.7,18610.2-5699.7z"/>
			</g>
		</g>
		<g id="printing-marks-3-3-4-8_1_">
		</g>
	</g>
	<path id="path147-0-8-1-3-6-4-3-4_1_" d="M128.4,217.1
		c7.8-0.2,11.3-9,5.5-15.8c-0.8-1-0.9-1.6,0.6-0.6c3.9,2.6,11.4,0.9,11.8-7.1c0.5-9.8-13.3-12.7-15.8-2.2c-0.1,1.1-1,1.1-0.8-0.5
		c0.2-4.2,1.6-8.2,3.4-12.1c-3.1,0-6.5,0-9.3,0c1.8,3.9,3.1,7.8,3.4,12.1c0.2,1.6-0.7,1.6-0.8,0.5c-2.6-10.4-16.3-7.6-15.8,2.2
		c0.4,8,7.9,9.7,11.8,7.1c1.5-1,1.5-0.4,0.6,0.6C117.1,208.1,120.6,216.9,128.4,217.1C128.4,217.1,128.4,217.1,128.4,217.1
		L128.4,217.1z"/>
	<path id="path147-0-8-1-0-3-83-9-4-0_1_" d="M46,20.6
		c7.8,0.2,11.3,9,5.5,15.8c-0.8,1-0.9,1.6,0.6,0.6c3.9-2.6,11.4-0.9,11.8,7.1c0.5,9.8-13.3,12.7-15.8,2.2c-0.1-1.1-1-1.1-0.8,0.5
		c0.2,4.2,1.6,8.2,3.4,12.1c-3.1,0-6.5,0-9.3,0c1.8-3.9,3.1-7.8,3.4-12.1c0.2-1.6-0.7-1.6-0.8-0.5c-2.6,10.4-16.3,7.6-15.8-2.2
		c0.4-8,7.9-9.7,11.8-7.1c1.5,1,1.5,0.4,0.6-0.6C34.7,29.6,38.2,20.8,46,20.6C46,20.6,46,20.6,46,20.6L46,20.6z"/>
</g>
</svg>
