<!-- Generator: Adobe Illustrator 19.2.1, SVG Export Plug-In  -->
<svg version="1.1"
	 xmlns="http://www.w3.org/2000/svg" xmlns:xlink="http://www.w3.org/1999/xlink" xmlns:a="http://ns.adobe.com/AdobeSVGViewerExtensions/3.0/"
	 x="0px" y="0px" width="166.5px" height="226.6px" viewBox="0 0 166.5 226.6" style="enable-background:new 0 0 166.5 226.6;"
	 xml:space="preserve">
<style type="text/css">
	.st0{fill:#D40000;}
	.st1{fill:#E2CF00;}
	.st2{fill:#131F67;}
</style>
<defs>
</defs>
<g id="g5943_1_" transform="matrix(0.99999718,0,0,1.000002,-3.9778391,-6.5473594)">
	<path id="path10378-7-1_1_" class="st0" d="M12,51.3
		c0,0-1.8-2.5-4.2-5.5c-1.6-2-2.9-4.2-3-6c-0.1-2.1,1.2-4.3,3.5-4.4c2.3-0.1,3.3,1.6,3.7,3.1c0.4-1.4,1.3-3.2,3.7-3.1
		c2.3,0.1,3.6,2.2,3.5,4.4c-0.1,1.9-1.4,4-3,6C13.8,48.8,12,51.3,12,51.3L12,51.3z"/>
	<path id="path10380-5-9_1_" class="st0" d="M162.4,188.4
		c0,0-1.8,2.5-4.2,5.5c-1.6,2-2.9,4.2-3,6c-0.1,2.1,1.2,4.3,3.5,4.4c2.3,0.1,3.3-1.6,3.7-3.1c0.4,1.4,1.3,3.2,3.7,3.1
		c2.3-0.1,3.6-2.2,3.5-4.4c-0.1-1.9-1.4-4-3-6C164.1,190.9,162.4,188.4,162.4,188.4z"/>
	<path id="path35-67-2-8-6_1_" class="st0" d="M11.9,6.5v2.8h2.7c0,0,0.1,2.7,0.1,8.3
		c0,5.5,0.1,8.2-0.2,9.7c-0.9,3.6-6.1,3.6-7.2,1c-0.6-1.5-0.4-2.7-0.5-4.2H4c0,0,0,0.8,0,1.7c0,4,1.4,6,4.5,6.7
		c3.2,0.9,7-0.5,8.3-3.2c0.8-1.6,0.7-1.7,0.7-11.1c0-6.3,0.1-8.9,0.1-8.9h2.5V6.5L11.9,6.5L11.9,6.5z"/>
	<path id="path35-6-7-4-8-8_1_" class="st0" d="M162.5,233.1v-2.8h-2.7c0,0-0.1-2.7-0.1-8.3
		c0-5.5-0.1-8.2,0.2-9.7c0.9-3.6,6.1-3.6,7.2-1c0.6,1.5,0.4,2.7,0.5,4.2h2.9c0,0,0-0.8,0-1.7c0-4-1.4-6-4.5-6.7
		c-3.2-0.9-7,0.5-8.3,3.2c-0.8,1.6-0.7,1.7-0.7,11.1c0,6.3-0.1,8.9-0.1,8.9h-2.5v2.8H162.5L162.5,233.1z"/>
	<g id="g3347-7-8-1_1_" transform="matrix(0.99431686,0,0,0.99733632,2558.8278,-1241.0201)">
		<g id="g9405-3-0-4_1_" transform="translate(-1694.0624,23.063255)">
			<g id="g3861-4-5-0_1_">
			</g>
		</g>
		<g id="g3498-4-3-9_1_" transform="matrix(0.15515913,0,0,0.15515913,604.9465,621.11516)">
			<g id="g2997-9-2-6_1_">
				<g id="g3884-5-1-3_1_" transform="matrix(0.99998259,0.0059011,-0.0059011,0.99998259,1.5988528,-2.1391077)">
					<g id="g3000-2-1-2_1_">
						
							<path id="path2993-7-5-1_1_" class="st1" d="
							M-19484.1,4292.3l-59.2,39.1l-0.6,45.2c-35.3-16.7-50.8-44.3-56.6-76.7c-9.9,12.6-7.5,76.1-7.5,76.1
							c-9,4.8-12.3,10.9-18.1,16.5c5.7,9.4,21.9,25.2,21.9,25.2c-0.1-0.3-7,66.1,1.8,68.7c7.9-28.3,18.4-53.1,57.6-79.2
							c0,0,1.2,105.4-0.7,207.2c-16.7-11.4-52.1-31.8-74.9-52.7c29.3-38.2-1.1-87.6-44.9-54.4c-28.6-15.3-33.4-88.2-40.7-126.4
							c-1.4-7.7-8.2-30.1-8.2-30.1s-94.2-25.4-134.5-23.1c34.4,88.2,28.5,195.9-121.5,216.9c-71.7,33.3-154.6,70.5-234.9,139.4
							c-14.3,102-66.6,152.6-103.5,180.5c0.5,41.3,0.2,82.2,2.2,123.9c0,0.3,33.8-22.5,39.1-18.4c29.4,184.1,133.5,220,123.1,225.2
							c-1.7,0.8-33.8,34.3-33.8,34.3l-127.2-82.7c-3.6,127.4-0.3,257.3,2.3,385c22.3-12.8,63.2-43.3,63.2-43.3l0.4-43.4
							c-0.2-4.1,57.8,35.8,58.3,83.7c4.5,3,14-69,4.9-76.8l23.6-24.6l-25.7-24.4c0,0,6.2-40.8-7.1-64.2
							c-8.3,53.8-52.8,70.9-52.8,70.9s-2-196.6-3.2-196.8l79.9,50c-42.8,59,33.2,77.6,42,49c49.3,45.4,30.7,100,52.5,164.7
							l139.1,24.7c-57.9-105.9,3.5-227.4,116.1-219.4c21-8.9,40-21.7,40-21.7s-14.1-22.8-31.9-43.9l-240.8-2.6l111-211.1l-73.8-1.9
							c0,0,59.2-127.6,46.2-137.8c-4.6-3.6-2.9-44.6-2.9-44.6l66,2.1c2.4-29.4-32.7-141.1-81.8-214l270.6,0.8l-151.1,213.4l81.8,1.9
							l-48.2,100.6l8.3,78.2l-72.6,2.8c13.2,108.4,94.4,222.2,122.9,257.3c46.8-11.4,133.8-78.8,187.8-120.7
							c6.6-72.8,31.3-134.9,96.5-181.5l-0.5-119.8c0,0-37.2,24.4-37.2,22.7c0-25.9-13.8-79.8-39.1-127.8
							c-27.1-51.5-71.3-98-81.4-100.8c23-35.3,32.9-38.5,32.6-39l127,80.4L-19484.1,4292.3z M-20120.4,4551.5c0,0-24.6,9.5-45.9,9.3
							c-38.3,2.2-67.5,5.5-82.9,37c-3.1,9.6,3.8,13.1,8.9,15.5C-20211.6,4577.4-20134.5,4624.3-20120.4,4551.5z M-20289.5,4717.1
							c0,5.1,5.7,13.3,8.5,4.7c2.4-6.1,2.9-16.1,0.1-22.2C-20288.7,4695.3-20289.5,4712.2-20289.5,4717.1z M-19873.5,4888.2
							l-37.4,0.4l0,43.9l37.7-0.2L-19873.5,4888.2z M-19504.6,5104.7c-0.8,4.4-4.7,24,4.4,20.5
							C-19489.5,5116.9-19498.9,5078.8-19504.6,5104.7z M-19539.2,5215.2c-4.5-6.4-18,9.7-29.2,10.3c-49.8,3-86.6-3.5-92.5,48.7
							c28.6-18.5,69-10.4,94.9-16.5C-19547.3,5251.4-19525.9,5234.3-19539.2,5215.2z"/>
						
							<path id="path3504-0-2-5_1_" class="st2" d="
							M-20311.8,5593.4l-8-1360.4l846.6-5l8,1360.4L-20311.8,5593.4z M-20278.3,4711.5c0.6-13.1-4.8-18.5-9.4-9.4
							c-1.1,2.1-4.6,24.9,4,25.6C-20278,4728.1-20278.6,4717.1-20278.3,4711.5z M-20291.9,4726.9c-0.1-3.1-2-4.4,2.1-31.3
							c-8.1-3.1-15.1-16.1-9.3-24.4c2.3-3.2,1.6-3.9,0.6-6.6c-2.3-6.7-1.2-12.1,5-16.4c3.9-2.7,4.1-3.5,2.8-7
							c-3.3-9.2-0.3-18.2,8.5-21.4c6.1-2.2,4.9-2.5,5.5-6.3c1.4-8.7,6.2-14,14.9-13.1c8.1,0.8,8.6,0.8,9.3-3.2
							c1.9-11,15.1-23,32.4-31.2c8.6-4.1,22.8-7,50.2-7.1c15.7-0.4,35.2-2.6,46.1-12.3c1.8-1.7,4.3-6.1,5.2-5.5
							c2.1,1.4,1.6,12.3-2.3,22.3c-11.5,29-27.2,37.1-71.8,37.1c-13.3-0.6-32.9,1.4-41.1,9.9c-2.5,2.6-4.1,5.1-3.2,6.5
							c18.5,2.5,37.5,10.7,48.8,47.1c33.4-24,86.6-60.7,152.6-93.9c-8.2-43.5,29.5-50.5,50.8-41.9c0,0,0.5-2.8-0.3-6.1
							c-0.8-3.2-2-7.4-6-12.8c-1-2-7-5.7-5.8-8.6c1.9-4.9,1-6.2-3.1-10.6c-2.7-2.9-0.9-9.1-0.3-11.6c0.8-4.7,3.8-11.4,1.1-13.8
							c-4.2-3.9-18.6-10.3-25.9-15.5c-8.2-5.9-8.4-11.2,3.4-30.7c5.4-11.4,10.4-23.5,14.7-31.7c6.5-12.3,7.1-20.4,3.1-27.5
							c-5.2-9.2-4.4-20.1-4.3-19.8c0,0-49.4-68.3-69.7-95.5l-230,1.4l3.1,521.8l39.3-37.9l-10.8-12.6c-1.5,7.4-0.1,14.5-9.1,15
							C-20288.5,4731.2-20291.4,4730-20291.9,4726.9z M-20151.7,5424.3c1.2-20.7-8.9-54.5-24-77.9c0.8,17.8,2.2,39.6-1.3,57.1
							L-20151.7,5424.3z M-19789.9,5476.2c-1.8-0.6-16.8-1.4-26.3-1.8c-31.3-1.5-51.7-16.4-65.4-37.1c-3.4-5.1-2-4.9,5.4,0.9
							c20.9,16.1,40.4,25.7,57.5,23.2c24.2-3.6,37.3,5.2,34,15.6C-19785.3,5478.7-19785.5,5477.6-19789.9,5476.2z M-19872.2,5430.5
							c-4.9-4.2-5.2-6.1,0.5-2.3c17.6,11.6,39,30.6,65.1,19.2c5.4-3.5,0.4-3-8.7-2c-13.9,1.6-30.9-5.4-51.8-19.7
							c-10.2-7-5.8-12.9,5.7-7.5c3.6,1.7,7.1,2.9,9.4,3c11.2-7.6,35-7.6,34.4-7.6c2.7-2.3-6.2-6-19.4-10.9
							c-8.6-3.2-10.7-4.5-4.3-4.8c5.6-0.2,14.4,2.5,20.7,6.5c10.6,6.7,15.9,10.4,19.1,10.9c5.2,0.4,10.5,1.1,1.6,5.3
							c-4,1.9-3.7,2.4-3.2,6.9c0.8,7.1,1.2,7,4.5,11c5.5,6,8,17.3,0.1,10.3c-1.7-0.8-1.9,0.7-6.5,2.6
							C-19832,5459.3-19852.3,5447.5-19872.2,5430.5L-19872.2,5430.5z M-19822,5432.2c1.5-2,3.8-7.1,4.1-8.5
							c-0.5-3.3-3.5-2.2-4.9-0.4c-2.5,3.1-6,7.7-3.1,9.3C-19824.7,5433.3-19823.3,5433.9-19822,5432.2z M-19831.3,5430.1l6-10.8
							c-1.5-0.7-21.9,3.7-18.7,6.6C-19841.2,5428.4-19831.3,5430.1-19831.3,5430.1z M-19808.5,5393.8c-9.3-4.9-12.1-15.7-5.2-22.8
							c5.8-6,15.7-5.6,27.7,1.7c4.2,2.5,6.8,3.8,9.6,2.8c4.8-1.8,6.6,0.9,6.3,4.6c-0.8,8.3-13.7,10.4-21.8,1
							c-10.8-12.4-22.4-3.6-18.9,5.4c1.8,4.6,5.2,5.3,9,7C-19801.9,5394.3-19805.8,5395.3-19808.5,5393.8z M-19851.3,5338.5
							c15.4-4.3,38.5,11.9,50.9,9.6c5.4-1.2,4.7,6.6-0.9,9.4c-6.5,3.3-15.9,1.2-35.7-9c-16.3-8.7-29.4,6-18.5,16.8
							c2.3,2.2,5.8,3.5,9.9,3.3c5.5-0.3,7.1,1.2,0,3.1c-4.1,1.1-11.7-0.5-15.3-4.2C-19869.6,5358.7-19867.6,5341.6-19851.3,5338.5z
							 M-20178.4,5292.8c-0.6-18.3,9.2-28.6,9.4-28.7l-69.7-46.7l2.1,188c34.3-22,45.4-49.6,47.1-85.1
							c68.3,75.6,47.7,168.3,5.6,221.3c-1.9-32.2-11.8-70.3-51.1-89.6l0.2,38.5l-65.6,46.5l0.3,45.2l154.3-0.9l73.4-110.7
							c-13.7-48.9-11.9-89.7-21.1-112.1c-6.9-18.4-19.9-42.1-28.3-38.4C-20149.8,5342.5-20177.7,5316.7-20178.4,5292.8z
							 M-20119.8,5314.1c24.1,17.2,30.7,45.4,35.8,70.5c0.2,0.2,13.1,85.1,13.5,86.3c1.6,4.7,1.1,9.3-3,12.9
							c-22,30.6-65,96.1-65,96.1l425.3,0c-22.9-32.9-40.8-65.4-62.5-92.4c0.9-1.5-1.8-20-5.4-25.9c-3.7-6.2-4.6-9.4-2.1-15
							c6.1-13.9,12.4-29.1,18.1-41.9c10.9-24.5,12.1-24.7-3-32.6c-17.9-10.3-21.1-13.6-17.4-25.5c1.3-4.3,1.5-6-4-7.1
							c-2.6-0.5-8.8-2-13-3.1c-12-3.7-8.6-1.4-12.9,1.8c-3.3,1.7-6.3-4.7-10.2-12.1c-4.6-8.6-5.7-8.8,1.8-4.4
							c13.9,8.1,38.4,4.8,29.7-4.7c-4.2-4.6-8.2-7-7.8-17.5c0.4-10.4,0.5-13.5-6.6-14.9c-14.2-2.8-29.6-1.5-42.8,1.9
							c-40.1,10.3-72.1,45.3-84.1,71.2c-2.7,4.5,3.6,4.3,6.3,4.3c13.1-1.2,22.6,19.7,14.1,29.1c-4,4.2-7.9,1.7-3.7-3.8
							c4.8-9-2.5-20.9-13.1-17.8c-13.3,3.9-13.6,21.1-15.2,33.2c-4.3,34.6,13.5,80.8,17.9,90.2c0,0,0.9,1.4,0.6,1.4
							c-0.3,0-2.4,2-3.3,0.9c-3.1-3.5-11.1-31.7-15.4-51.9c-8.5-55.9,5.7-107.4,52-136.9c41-30,61.8-23.7,85.2-25.2
							c8-2.9,19-7.4,27.4-11.5c73.2-38.7,139.9-76.6,201.1-126.7c44.8-34.2,66.1-61.9,104.5-96.8l-5.1-193.8c0,0-3.9-3.2-3.9-6.3
							c2.5-13-20.2,8.8-34.8,16.1c-9.7-88.9-58.3-176.1-116.9-226.9l2.4-3.3c0,0,19.6,12.8,29.3,18.8l-0.1-12.4l-23.6-14.6
							c-1.1-4.5-0.5-5.2,4.6-5.3l18.9,13.8l-0.1-11.3l-15.3-9.6l4.8-6.2l8.2,5.2c-3.5-8.9,1.4-8.7,6.4-2.7c2.1,2.7,4.8,6.2,6,9.5
							c0.4,1.3,1.8,4.3,1.8,4.3l13.4,9.8c0,0-0.5-4.8-0.1-6.3c2.2-7,18.4,15.6,16.4,16.1l13.7,9.8c3.2-5,15.4,4.8,16,9.6
							c1.1,2.1,47.3,31.4,47.3,31.4l0.4-16.3l4.9-6.5l0-377.6l-60.9,39.4l-0.4,45.7c-28.9-9.2-54.2-50.8-58-76.9
							c-1.9-1-9.9,51.5-5.4,74.4c-7.6,5.7-20.4,19.1-20.3,19.1l23.3,25.2c0,0-4.4,38.8-3.2,58.1c1,9.1,1.2,10.1,3.9,10.1
							c2.2,0,4.2-2.4,4.2-4.5c5.3-23.1,22.9-59.2,53.8-71.6c2-0.1,1,205.7,1,205.7l-77-51.8c-3.8-3.3,5-3.1,10.3-20.5
							c13.6-45-34.7-60.6-53.1-34.5c-3.1,0-15.9-15.7-17.9-22.3c-14.3-28.5-17.3-60.8-20.2-86.8c-1.7-11.8-6.2-31.1-9.8-42.8
							c-2-6.2-2.2-10.7,1.9-16.5c17.6-36.8,51.8-62.3,64.5-99.4l-426.4,1.1c27.1,22.1,51,84.2,75.6,92c-11.8,1.6-7.7,11.9-3.1,22.9
							c5.7,13.6,5.1,16.4-9,44.6c-20.7,41.3-21.8,37.7-0.9,50.3c13,8.2,15.3,10,13.5,21.2s-2.4,7.8,8.3,8.6
							c5.7,0.5,10.2,1.5,12.8,2.6c2.9,1.3,5.1,3.1,8.8,1.9c6.3-2.1,6.5-0.6,6.7,4c0.1,2,3.1,6,4.1,7.5c2.5,4,1.3,4.6-3.1,1.9
							c-13.8-8.6-36.7-4.7-28.2,4.6c3.5,3.8,7.1,16.7,7.4,23.1c0.6,11.4,8.1,15.4,23.6,13c30-2.4,97.3-40,112.8-81.9
							c-34.5,12-27.7-30.5-15.3-29.3c0,0-3.3,7.5-3.4,11.8c-0.3,15.2,12.4,16.3,21.1,5.5c3.8-5.7,8.3-26.7,5.9-50.4
							c-2.9-28.7-14.7-60.7-16.9-68.7c50.2,117.8,5,170.1-64.3,204.4c-26.6,11.3-30.2,11.2-45.9,12.1c-10.7,0.9-20.4,6.3-30.7,9.8
							c-59.3,28.8-132.3,64.6-197.4,117.8c-46.7,35-83.8,66.5-120.7,106.9l1.1,208.4c11.1-1.8,29.2-12.8,39.8-19.1
							c12.7,77.8,53.3,167.7,119.9,221.2c0,0-1.5,3-1.6,2.9c-9.5-6.2-19-12.4-28.1-17.2l-0.4,9.9l22.4,15.2c0.6,2.4-3.8,5.7-3.8,5.7
							l-18.5-12.6l-0.1,10.1l14.3,9c3.9,3.8-4.6,5.9-4.6,5.9l-8.5-6.1c0,0,0.6,4.9,0.4,5.8c-2.2,7.5-14.5-8.9-16.7-17.1l-12-7
							c1.7,4.9-2.6,5.6-6,4.4c-9-4.5-8.6-12.2-10.5-16.8l-16-10c-2.7,15.2-19-6.1-16.5-11.2l-20.6-13.8c1.1,0.4-7.8,2.3-10.8,0.4
							c-3.5-2.3-4.8-11.5-4.8-11.5l-12.3-7.5l0.1,13.3l126.9,87.5l-1.8,3.4l-132.3-89.4l7.6,391.3l64-44.8
							c-1.3-14.6,1.3-27.7,0-44.4c33.1,20.4,44.3,34.3,59.1,77.3c9.3-24.6,7.5-48.2,3.1-70c8.4-7,16.6-13.7,20.8-24.2
							c-8-10.9-15.8-13.9-24.2-24c-0.7-12.4,6.3-49.2-3.5-61.3c0,0-17.4,53.6-55.6,69.9c-1.5-56.5-1-198.5-1-198.5
							s39.5,26.9,59.6,37.8c9.4,5,16,8.1,16.2,11.7c0.1,1.8-3.7,4.2-5.3,6.7c-1,1.6-5.3,16.9-3.5,28.8c0.8,8.8,5,14.3,9,18.5
							C-20152,5331-20128.9,5324.5-20119.8,5314.1z M-20044.4,5213.7l149.9-212.3c18.4,77.7,49.2,148.8,89.2,213.1L-20044.4,5213.7z
							 M-19970.9,4991.1c0,0,10.4-21,15.2-32.1l-18.5,0.1l11-12.5l27.6-0.2l-14.6,31.5l11.7-0.1l16-31.5l42.9-0.3l-14.8,31.5
							l9.9-0.1l15.9-31.5l39.9-0.2l-13.9,31.5l9.4-0.1l8.1-15.9l2.2,28.8l-39.7,0.2l15.5-32.1l-12.8,0.1l-17.5,32.1l-37.2,0.2
							l15.9-32.1l-14.1,0.1l-17.5,32.1L-19970.9,4991.1z M-19849.2,4877.8l15.8-33.9l-12.7,0.1l-17.5,33.2l-39.6,0.2l15.4-32.9
							l-9.9,0.1c-6.6,10.4-17.2,31.4-17.2,31.4l-42,0.2c0,0,11.8-22.3,16.4-33.2l-10.4,0.1l-8.4,13.5c-3-5-1.1-18.4-1.7-24l39.6-0.2
							l-15.7,32.6l12.6-0.1l17.2-32.6l41.8-0.2l-16.8,32.6l9.9-0.1l16.7-30.8l42.5-0.3l-14.7,30.8l13.1-0.1l-5.7,13.4
							L-19849.2,4877.8z M-19888.7,4819l-8,1.6c-10.8-87.7-59.9-176.8-80.6-213.6l241.6,2L-19888.7,4819z M-19608.1,4310.8
							c0,0-22.9,29.8-24.1,79.5l21.8-17.7C-19612,4322.2-19608.1,4310.8-19608.1,4310.8z M-19631.9,4394c-0.1,37,9.7,60.5,22.1,78.9
							c0.1-23.8,2.3-47.9,3.7-54.3L-19631.9,4394z M-20225.7,5105l-78.4-53.3l0.1,11.8l93.2,62.5L-20225.7,5105z M-20240,5076.2
							c-21-10.4-64.3-42.6-64.3-42.6l0.1,10.8l68.9,47.8c1.4,1.3,3.2,1,3.8-0.5C-20234.2,5087-20237.5,5080.8-20240,5076.2z
							 M-20259.4,5029.6l-45.1-31l0.1,9.7c11.6,10.2,49.6,34.5,49.6,34.5L-20259.4,5029.6z M-20304.5,4991.4l42.4,27l-2.7-12.1
							l-30.1-20.2L-20304.5,4991.4z M-19548.2,4608.7l1.1-194.4c-43.9,21.1-52.2,81.8-50.7,83.6c-44-44.9-61.1-142-0.1-207.8
							c4.7,21,6.5,51.4,50.1,78.9l0.9-41.2l60.4-39.2l-0.3-48.6l-146.3,0.9c-22.5,28.8-44.9,62.3-67.1,92.9
							c-8.3,11.5-10.4,16.8-8.8,22.8c15,52.8,12.5,118,43.6,148.7c41.2-39.2,80.4,19.2,48.4,55.6L-19548.2,4608.7z M-20174,5453.1
							c5.7,17.7,2.1,53.4,1.7,53.4c6.7-3.7,24.6-55.5,19.9-74.9 M-19946.7,4480.9c-10.3-2.9-18.1-7.3-29-6.2
							c-8.6,0.9-11.5-1.9-6.3-6.6c6.8-5.8,13.4-8.3,26.2-1.7c38.3,19.7,39.3-9.4,22.1-11.4c-4.9-0.6-4.7-3.7,0.2-2.9
							C-19906.9,4453.1-19914.8,4488.4-19946.7,4480.9z M-19991.5,4452.1c-5.1-1.8-11.2-4.9-13.4-4.2c-5.7,1.6-5.9-1.6-5.2-5.3
							c1.6-8.9,10.7-7.4,22.8,0.2c17.3,10.9,23.8-4.9,8.1-13.4c-5.3-2.8-3.7-3.6-0.6-3.8c8.2-0.4,15.9,10.7,13.8,19.8
							C-19971.5,4460.1-19984.8,4454.4-19991.5,4452.1z M-19941.1,4424.8c-11.2-1.9-27.4-16.8-34.9-17.8c-4.2-0.5-9.2,0.1-10.5-1.6
							c-4.2-5.2,7.5-5.2,8.3-7.1c0-4.4,0.3-7.1,0.1-8.6c-2.1-2.8-10.3-13.9-10-19.3c0.2-0.3,4.3,3,6.4,3c19.9-10.6,33.5-6,50.4,1.3
							c7,3,25,16.8,25.2,19c0.4,3.7-7.6-3.2-13.9-7.4c-15.4-10.6-29.3-18.1-48.6-11.7c-3,1.1-2.5,1.6,7.4,0.9
							c9.7-0.6,17.6,2.3,30,10.2c3.1,2,6.8,5.4,9,6.4c15.6,7.3,19,14.6,9.1,12.7c-2.1-0.4-6.2-2.6-10.3-4c-7.1-2.5-4.6-1.7-11.4,1.5
							c-2.4,1.1-8.2,3.5-12.9,4.1c-3.6,0.6-15.4,0.6-10.2,5.5c5.6,5.5,14.8,9.5,21.1,12
							C-19932.3,4426.1-19935.8,4425.7-19941.1,4424.8z M-19940,4400.7c7.3-2.7,1.5-8.8-7.7-10.1c-2.1-0.3-6.6,9.7-6.7,11.9
							C-19954.5,4404-19943.9,4402.2-19940,4400.7z M-19960,4401.9c1.7-1.1,7.2-9.2,7.2-10.5c0-5.2-6.6-3.7-8.1,1.7
							C-19962.8,4399.7-19962.9,4403.7-19960,4401.9z M-19983.5,4360.2c-6-2.6-14.2-14.1-4.9-12.2c2,0.4,12.4,0.9,19.2,0.9
							c22.9,0,45.8,10.2,60.4,25.2c8.1,8.4,8.7,14.6,0.5,8.8C-19937.5,4357.1-19955.3,4362-19983.5,4360.2z M-19751.8,5258.2
							l-8.1,4.4c0,4.5,1.7,3.8,5.3,6.9c0,0-5,0.8-8.6,0.6c-5.9-0.4-7.3-0.3-4.6,3.9c1.2,1.9,2.9,4.8,2.9,4.8s-3.2,0.7-8.1-0.6
							c-7.3-2-11.1-0.9-8.3,3.1c0.8,1.1,2.3,3.2,2.3,3.2c-5.4-1.2-15.2-5.9-15.2-5.9l-6.9,2.1
							C-19787.2,5307.7-19738.2,5290.4-19751.8,5258.2L-19751.8,5258.2z M-19512.2,5218.2c7.6-6.4,3.8-14.2-7.3-19.9
							c-4.6-2.4-4.2-2.4-11.6,2c-9.2,5.5-9.9,5.8-3.2,12.7C-19526.4,5221.5-19517.8,5223-19512.2,5218.2z M-19540.5,5200.4
							c7-3.1,4.4-2.6,3.9-9.9c-2.1-8.4,2.7-9,5-16.9c0.9-4.3-2.7-2.7-9.7,3.9c-5.8,4.9-7.5,6.1-7.5,3.7c0.6-2-4-7.1-8.2-7.7
							c-3.5-0.6-3.2-1.4,0.2-5.9c5.9-7.8,8.3-17.6,4.3-26.1c-5.1-10.8-6.8-12.4-18-2.9c-5.7,5.3-13.8,9.4-17.7,16
							c-2.8,4.8-1.1,9.5,3.4,18.9C-19573.7,5197.1-19556.5,5207.6-19540.5,5200.4L-19540.5,5200.4z M-19501.2,5200.4
							c12.3-4.9,7.2-18.2-12.1-31.5c-11.7-8-15-7.9-5,0.8c6.3,5.6,7.3,7.5,4.7,11.6c-2.2,3.4-4.6,7.3-2.3,10.4
							C-19512.5,5196.5-19506.4,5202.4-19501.2,5200.4z M-20195.3,5182.3l-13.5-8.4l0.1,11.6l13.5,7.9L-20195.3,5182.3z
							 M-19523.8,5188.8c2.7-1.9,4.9-7.2,4.9-9.5c0.6-5.4-8.2-4.1-12.4,1.9C-19536,5188-19530.3,5193.5-19523.8,5188.8z
							 M-19493.8,5170.4c6.1-6.5,3.1-13.3-9.6-21.3c-4.9-3.1-7.4-5.2-6.7,1.1c0.2,1.9-1.9,4.5-3.2,6c-4.3,4.9-2.4,5.8,10.1,13.6
							C-19496.9,5173.7-19497.3,5174-19493.8,5170.4z M-20195.5,5162.2l-13.5-8l0.1,10.5l13.5,9L-20195.5,5162.2z M-20224.8,5172.9
							l0.1-10.6l-17.5-11.5l-0.2,11.8L-20224.8,5172.9z M-19540.3,5164.6c-2.2,6.1,6.8,3.3,7.3,2.6c1.5-3.1,0.2-3.3-0.6-3.7
							C-19535.2,5162.9-19541.3,5164-19540.3,5164.6z M-19536.4,5156.9c3.1-1,3.5-0.6,3-6.2c-0.7-8.4,0.6-9.1,6.1-12.8
							c4.5-3,4.5-2.5,4.4-7.7c-0.1-6.2,0.3-8.9,8.5-10.2c3.4-0.5,5.3-1.4,5.5-4c0.4-4.5-6.8-11.9-15.7-16.2
							c-1.3,0-21.1,17.4-26.6,23.4l-3.4,3.7l4.1,7.6c6.4,11.8,5.4,16.2,1.8,31.9c-0.7,4.2,2.5,3.6,3.3-1.5
							C-19544.3,5160.1-19543.6,5158.4-19536.4,5156.9z M-19506.3,5114.8c-1.5,9.6,3.5,15.4,8.1,10.6c2.5-2.6,4.5-23.7,2.8-27
							C-19505.1,5088.2-19506,5112.5-19506.3,5114.8z M-19659.9,5273.8c35.5-21.1,81.5-4.3,107.2-21.6c12-13.3,24-21.9,17.1-31
							c-5.4-7.1-8.8-8.2-8.8-8.2c0.4,0.5-18.7,16.8-46.6,13.2C-19637.4,5225-19659.2,5239.7-19659.9,5273.8z M-19599.2,5223.8
							c22.7,0.7,41.2-3.4,49.6-10c5.2-4.1,6-4.8-2.2-5.5c-17.6-1.3-35.6-21.7-41.3-41.5c-1.2-4.1-2.5-8.5-2.5-8.5
							c-46.8,37.8-149.8,97.5-149.8,97.5c7.1,31.9-16,51.1-47.4,39.9c-5.5-0.5-4.7,6.5-3.7,9.4c1.7,4.7,5.5,8.6,6.3,9.3
							c4.7,4,5.6,6.6,4.9,10.4c-0.7,3.8-0.6,3.7,2.1,5.1c4.7,2.5,4.5,6.1,2,13.5c-2.7,10.4-2.9,13.1,4.6,18
							c9.7,6.1,28.6,12.8,25.9,22.1c-6.2,21.1-16.5,39.4-25.5,59.2c-3.4,5.5-2.6,14.5,0.1,18.7c3.4,6.4,3,14.2,7.3,20.1
							c24,35.1,44.6,65.5,66.4,97.2l223.6-1.3l-3.1-519.5c0,0-37.5,34.6-37.4,37c0.1,2.9,8.2,7.4,11.7,7.9c0.1-1.6-0.1-7.8,0.4-9.9
							c0.3-3.1,10.4-2.4,13.7,0.3c2.3,1.9,1.7,14.4-0.6,24.6c-1.9,8.3-1.6,8.4,2,13.2c4.4,5.8,5.9,10.8,5.4,17.4
							c-0.3,3.6-0.2,6.5,0.8,8.9c2.4,5.6,1.8,13.6-0.9,17.3c-3.8,5.4-3.9,6.2-3,9.1c3.2,9.9,2.1,18.4-9,22.8c-1.4,0.6-3,3-3.8,5.1
							c-4.7,15.9-13.8,16-26.2,11.5c-8.6,34.3-44.2,43.1-70,42.2c-26.8-0.9-54,1.3-66.1,18.9
							C-19662.4,5242.6-19643.9,5222.5-19599.2,5223.8L-19599.2,5223.8z M-19518.8,5154.4c4.5-1.7,5.1-6.5,1.2-9.5
							c-5.9-4.6-12.6,0.2-9.8,6.9C-19525.8,5155.5-19523.2,5156-19518.8,5154.4z M-20224.2,5143.4l-17.9-12.3l0.2,11.1l17.9,11.3
							L-20224.2,5143.4z M-20190.5,5152.3l-12.7-15.1c-37.4-22.5-69.8-47.8-100.9-68.1l-0.2,14l8.9,4.4c0,0,0.7-3.1,1.3-4.9
							c1.1-3.4,11.4,6,14.7,13.5c0.8,1.9,2.6,6.1,2.6,6.1l12,6.5c0,0,0.2-3.4,0.2-4.3c0-7.2,12.8,2.6,18.7,14.3
							c1.4,2.8,3.3,5.8,3.3,5.8l11.3,6.8c4.4-6.1,15.7,2.1,18.7,9.5c3.7,9.3,10.2,10.1,10.4,10.1L-20190.5,5152.3z M-20257.7,5150.7
							l0-10.8l-18.7-12.1l-0.2,10.9L-20257.7,5150.7z M-19491.8,5147.1c0.5-2.8-2.4-13.8-6.6-14.4c-2.6-0.4-6.7,3.6-6.7,6.4
							C-19505,5142.6-19492.3,5150.1-19491.8,5147.1z M-19507,5134.1c4-4.5-1.1-10.2-7.3-8.2c-7.4,2.4-4.8,9.1,3.5,9.2
							C-19509,5135.1-19507.9,5135.1-19507,5134.1z M-20258.8,5130.6l0-10.3l-17.3-11.3l-0.3,10L-20258.8,5130.6z M-20292.6,5127.2
							l0.1-9.9l-11.3-7.8l0.1,11.8L-20292.6,5127.2z M-20292.4,5097.6l-11.6-7.4l0.1,10.7l12.1,6.8L-20292.4,5097.6z
							 M-20245.7,5064.8c-1.2-3.2-6.1-13.1-6.1-13.1l-52.5-36.2l0.1,11.2l58.7,39L-20245.7,5064.8z M-20270.7,4978.2l-0.6-4.6
							l-4.6,2.5L-20270.7,4978.2z M-20281.8,4979.4l-7.3,4l22.2,14.2l-1.8-10.2L-20281.8,4979.4z M-19515.1,4853.8l5.7-4.2
							l-10.1-6.8l-0.7,6.9L-19515.1,4853.8z M-19504.9,4847.2l7.5-6.2l-25.2-17.5l1.8,11L-19504.9,4847.2z M-19487.2,4837.8l0-7.5
							l-40.8-27.2l2.9,13.8c7.2,4.1,16,10.1,25.2,16.5C-19494.2,4837.4-19494.1,4838.9-19487.2,4837.8z M-19487.3,4823.8l-0.1-12
							l-47.2-30.9l3.9,14L-19487.3,4823.8z M-19487.4,4805.9l-0.1-12.5l-57.1-37.2l6.3,16.6L-19487.4,4805.9z M-19487.6,4774.3
							l-72-47.6l9.3,18.3l62.8,41.4L-19487.6,4774.3z M-19487.7,4756l-90.3-59.3l10.2,16.7l80.2,53.5L-19487.7,4756z
							 M-19487.8,4736.6l-3.4,0c-0.2,8.6-9.5,2.4-13.1-7c-2.7-6.3-3.3-7.9-3.3-7.9l-18.2-12.1c0.4,2.5,1.5,9.6,1.5,9.6l-12.3-7.4
							c0,0-3.6-11.8-3.7-11.9l-20.9-14c0.5,2.4,0.8,6.4-0.5,6.7c0,0-6.4-2.7-9.3-6.9c-3-4.4-3.5-8.8-3.5-8.8l-17.1-10.9l-4.2,0.5
							c0,0-2.3-1.5-4.5-3.3c-4.1-7.2-8.8-8.3-14.5-11.2c0,0,12.1,13.9,18.5,22.1c5.9,7.6,13.1,13,13.1,13l95.4,62.9L-19487.8,4736.6
							z M-19487.9,4717l-7.4-4.4l0.6,11.6l6.8,4.6L-19487.9,4717z M-20229.1,4695.9c0.4-0.7-1.4-1.6-3.5-6.1
							c-5.2-11.2-5.7-15.1-3-27c1.3-5.6-3.9-8-6.2-2c-1.8,4.7-4.6,7.3-7.4,7c-2.6-0.3-3.1,0.8-2,4.3c1.4,4.9-1.5,11.3-5.6,13.1
							c-4.2,1.1-4.9,3.7-3.7,7.5c2,6.3-4.8,11.7-10.2,11.5c-8.3-0.4-5,7.1,5,14.3c3.7,2.6,5.4,4.1,8.3,2.7
							C-20249.9,4714-20235.9,4703.7-20229.1,4695.9z M-19508.3,4714.8l-0.5-11l-21-14l2.7,14.8L-19508.3,4714.8z M-19488,4710.1
							l-0.1-11.1l-8.6-5.5l0.5,11.8L-19488,4710.1z M-20274.4,4697.5c2,2,4,2.2,7.2,0.3c3.7-1.9,2.2-4.8-1.6-6.7
							C-20272.4,4689.2-20277.4,4695-20274.4,4697.5z M-20280.7,4692.7c-0.3-2.3,2.5-5.5,4.5-5.6c4.3-0.3,3.5-2.6-1.4-5.5
							c-2.3-1.4-6.4-4.6-7.9-5.7c-7.4-5.3-14.4,3-8.9,9.9C-20289.8,4691.5-20283.1,4695-20280.7,4692.7z M-19510.5,4695l-1.7-12.3
							l-18.9-12.4l1.6,13.5L-19510.5,4695z M-20196.6,4669.1c1-1.7,1.3-3.3,1.2-5.4c-0.4-7.7-4.5-16.8-10.1-24.4
							c-4.2-5.6-9.3-10.4-14.4-13.3c-14.5-7.3-33.7-4-30.9,5.5c2,6.4,1.6,11.9-3.9,15.1c-3.8,2.2-4.2,5.2-0.2,5.2
							c2.9,0,10.6-2.7,13.7-7.8c4.5-7.1,7-11.3,6.1,0.3c-0.4,4.9,0.2,4.5,7.7,4.1c10.2-0.6,8.3,1.3,2.4,6
							c-8.6,6.7-10.3,18.1-5.9,27.7c2.7,5.9,4.6,9.1,8.2,8.3C-20215,4685.4-20202.6,4675.3-20196.6,4669.1z M-19543.9,4679.6
							l-18.6-12.1l0.8,13.1l20.1,11.7L-19543.9,4679.6z M-20256.7,4671.8c-6.9-8.6-14.8,2.5-9.6,7.2
							C-20262.5,4682.3-20253.1,4678.9-20256.7,4671.8z M-20272.8,4673.1c-0.9-2.7,4-7,4.8-8.7c2.2-5-18-18.7-24.2-10.5
							c-4.3,5.7-1.3,11.3,10.4,19C-20274.7,4677.6-20271.4,4677.5-20272.8,4673.1z M-19545.8,4660.5l-17.2-10.6l0.4,11.3l18.3,10.9
							L-19545.8,4660.5z M-19576,4670.8l-0.1-11.5l-17.4-12l-0.2,11.9L-19576,4670.8z M-20248.5,4661.2c3.1-3.1,2.1-4.1-4-3.8
							c-3.8,0.2-5-0.4-5.3,1.3C-20258.3,4662.6-20251.7,4664.4-20248.5,4661.2z M-20262.9,4656.9c0.3-0.8-1.9-2.4-5.4-5.3
							c-6.8-5.6-7.6-9.1-1.1-13.6c9.2-6.3-0.5-15.2-11.3-11.5c-8.7,3-8.6,11.7-3.5,17.3C-20277,4648.4-20264.1,4662-20262.9,4656.9z
							 M-19576.2,4641.3l-17.1-11.6l0.1,11.4l17.1,9.8L-19576.2,4641.3z M-20259.7,4646.1c7.6-3.9,7.9-13.6,0.3-10
							c-3.1,1.5-7.2,5.5-7.2,7.3C-20266.6,4646.8-20263.6,4648.1-20259.7,4646.1z M-20254.3,4623.8c9.8-5.3,8.3-10.2-1.6-16.3
							c-12-6.8-20.3,6.4-10.4,15.3C-20261.1,4627.4-20259.9,4626.9-20254.3,4623.8z M-20241.6,4614.2c15.9-17.2,26.4-16.4,47.5-16.1
							c54.4,0.2,70.9-25.9,69-44.1c-26.3,13.3-50,6.4-75.1,10.3c-43.3,9.9-48.3,30.4-51.2,42.1L-20241.6,4614.2z M-20024,4554.5
							c14,0,13.4,0.5,7.6-11c13.6,1.8,19.2,8.3,14.6-5.3c7.2,2.5,11.6,4.5,19.1,6.9l4.7-2.8c-29-27.9-60.9-3.9-52.3,24.3l10.7-5.2
							L-20024,4554.5z"/>
						
							<path id="path3502-5-8-1_1_" class="st0" d="
							M-19947.6,5580.4l6.5-32.5l59.9,2.6c0,0,7.1,20.4,9.9,29.5L-19947.6,5580.4z M-20085.9,5580.4l31.5-52.7l45.2,12l-10.1,41.1
							L-20085.9,5580.4z M-19998.1,5580.7l13.3-56.1c-25.8-5.5-50.2-9.1-78.7-16.6l-45.8,73.3l-27.8-0.6
							c23.8-32.1,67.2-96.8,67.2-96.8c100.6,33.9,201.9,39.2,303.7,20.3c0,0,37.8,49.3,51.5,76.1l-26.5-1.1l-33.2-54.9
							c-22.9,2.6-45.4,5.8-69.3,6.9l16.7,48.5l-26.3,0.2l-15.2-48.3c-28.7-0.9-52.8,1.4-87.2-3.7l-11.8,52.7L-19998.1,5580.7z
							 M-19808.6,5579.6l-9.3-34.4l32.3-4c0,0,15.1,26.2,23.4,38.1L-19808.6,5579.6z M-20100.5,5261.3
							c39.8-61.3,180.5-258,180.5-258l20.8,0.7c0,0-125.9,177.6-186.6,267.1L-20100.5,5261.3z M-20306,5167.5l49.7,35.3l2,277.5
							l-50.1,35.7L-20306,5167.5z M-20103.2,4712.3l30.3,58.5c-126.6,121.4-100.8,262.8-32,363.3c0,0-8.7,22.6-27.8,46.7
							c-92.6-60.3-121.6-218.3-120.9-220C-20152.5,4869.5-20138.9,4840.6-20103.2,4712.3z M-19580.5,5141.5
							c6-89.3,49.4-148,98.1-183.9l3,90.8C-19511.2,5079.4-19544.9,5111.3-19580.5,5141.5z M-19713.9,5052.4
							c110.9-104.8,113.8-252.7,31.9-360.7l33-46.6c47.4,50.1,93.9,102.7,114.3,225.4c-70.3,56.1-132.1,148.4-148.2,241.3
							L-19713.9,5052.4z M-19868.3,4932.1l-0.5-42.6l41.7-0.5l-0.9,42.5L-19868.3,4932.1z M-19956.4,4932.3l-0.8-42.4l41.2,0.1
							l-0.4,43L-19956.4,4932.3z M-19885.7,4818.3c0,0,137-194.2,190.9-264.4l11.6,8.4l-182.3,256.9L-19885.7,4818.3z
							 M-20209.3,4685c0.3,76.3-48.2,137.1-98,176.8l0.2-86.9L-20209.3,4685z M-19485.4,4312.4l2.3,338.7l-46.9-27.8l2.3-284.1
							L-19485.4,4312.4z M-19707.9,4333.8c-105.6-26.8-201.7-34.4-302.5-12.2c-13.3-15.6-57.9-80.7-57.9-80.7l25.5,0.2l36.5,57.6
							l68.8-9.4l-18-46.9l28.4,0l14.4,46c-0.1-0.4,56,0.2,87.2,3.7c4.9-17.2,13.9-51.2,13.9-51.2l31.3-0.2
							c-3.9,16.4-14.5,55.4-14.5,55.4c25.6,3.4,73.2,15.2,73.6,15.7c16.5-23.6,31.9-47.3,46.8-70.9l30.5-0.3
							C-19652.9,4255.8-19706.2,4334.6-19707.9,4333.8z M-19727.6,4293.3l-46.6-10.6l11.9-41.1l65.1-0.4L-19727.6,4293.3z
							 M-19995.1,4280l-21.9-38l41.7-0.2l14,33.5L-19995.1,4280z M-19900.6,4271.7l-6.5-30.3l75.7-0.4l-7.5,32.4L-19900.6,4271.7z"
							/>
						<path id="path3500-9-6-1_1_" d="M-20073.8,4239.9l67.9,96.7c0.3-0.3,37.7-7.7,74.4-9.7
							c36.5-2,80.1,0,80.5,1.1c0,0,11.7,34.7,15.7,51.7c5.3,22.8,4.9,49-0.4,66.4c-7.8,25.5-12,33.2-29.7,50.8
							c-13.1,12.9-31.7,26.9-50.9,34.4c-26.6,11.3-29.3,11.2-45,12.1c-10.4,0.5-11.4,1-17.1,3.9c-1.7,0.6-2.9,2.5-4.4,3
							c-1.3,0.5-3.8,0-3.8,0c-86.3,38.5-153.9,81.2-204.8,119.2c-0.6,0.4-1,2.4-1.5,2.9c-4.2,3.5-8,6.1-12.1,9.2
							c-0.6,0.4-1.8-0.3-2.4,0.1c-60,46.8-93.8,84.6-106.3,95.5l2.5,216c0,0,27.3-14.3,41.3-22.9c10.4,83.6,52.6,164.6,118.8,220.7
							l-28.3,39.6l-132.2-89.9l4.2,398.6l69.7-49l-0.2-42c20.9,13.9,41.3,19.3,56.5,83.2c11.7-22.5,10.5-56,5-78.4
							c0.1,0,17.7-14.7,23-26l-26.2-22.9c0,0,6.4-55.9-5.9-67.1c-9.6,25.4-17.1,52.4-53.3,72.1l-1.6-194.2
							c18.1,11.3,35.3,24.1,53.3,35.8l2.5-0.5l18.6,12.6c0,0-1.9,4-3.7,6.7c-22.3,34.2,15.4,75.8,45.7,50.5
							c11.9-9.9,34.5,30.9,38.9,70.3c4.4,25.4,6.9,57,14,79c2.2,6.4,1.4,10.1-3.2,14c-23.1,33-69.7,99.4-69.7,99.4l33.8-0.2l2.4-3.9
							l-24.9,0.1c21.3-28.7,41.6-62.1,63.7-90.1c83.1,30.7,219.1,37.1,301,17.7c17.1,23.7,33.7,48.5,50.2,72.6l-23.6,0.1l3.3,5.1
							l31.9-0.2l-67.8-98.6c-46.3,14.1-159.3,9.4-157.3,8.2c0,0-0.3-0.8-4.3-12c-19.8-62.5-21.9-118.1,26.5-163.3
							c25.7-23.1,54.5-38.5,86.8-35.8c14.4-0.4,14.7-1.1,20.7-3.9c3.3-1.5,10.2-3.1,10.2-3.1l32.6-18.3l4.3-0.9l9.4-5l1.9-2.3
							l15.1-7.8l1.7,0.1l20.5-11.9l0.3-1.7l8-5l1.9,2c2.2,0.2,80.2-51.6,112.6-80.4l2,0.7c37.9-31,89.4-79.9,104.7-98.5l-1.4-92.5
							l-1.3-1.1l-1.1-102.4l-3,0l-0.2-12.6c-16.8,6.3-35.2,22.1-36.5,21.4c-11.2-86.6-51.6-166.2-117.2-224.5l27.5-38.5l129.5,86
							l0.2-25.3l1.6,0c1-97.2,0.4-349.2,0.4-349.2l-1.3-0.1l-0.2-20.1l-65.7,42.5l-0.7,42.5c-29.3-9.4-48-44.4-54.3-75.6
							c-8.5,3.5-12.3,36.4-8.9,78.1c-9,5.4-14.8,11.4-20.2,18.5c7.2,9,15.2,16.3,24,23.8c-1.8,3.9-5.3,59.7-1.5,66.5
							c1.8,5.1,7.9,4.3,7.9-1c8.6-43.5,49.7-72.2,52-69.6l0.2,200.3l-73.5-50.9c15.3-17.4,18.3-46.7-1.1-60.9
							c-19.5-14.2-38.4-2-42.9,7.2c-23.9-15.3-32.2-72.7-35.8-95.1c-0.9-10.9-3.8-25.7-7.1-39.1c-2.1-8.4-4.5-16.4-4.9-23.9
							c-0.2-3.5,0.2-5.1,3.4-9.5l70.6-101.4l-36.3,0.1l-0.3,0.6l28.6-0.1l-63.6,91.5c-96.7-29.8-196.9-36.5-303.8-16.6l-53.3-74.1
							l24-0.2l-1-1.6L-20073.8,4239.9L-20073.8,4239.9z M-20017.9,4240.4l1,1.8l41.6-0.4l-0.6-1.5
							C-19976,4240.3-20017.9,4240.4-20017.9,4240.4z M-19956.3,4240.2l0.8,2.2l28.4-0.1l-0.9-2.1L-19956.3,4240.2L-19956.3,4240.2z
							 M-19811.5,4240.2l-0.3,1l31.3-0.1l0.3-1L-19811.5,4240.2z M-19907.2,4240.8l0.3,1.3l75.4-0.4l0.3-1.2L-19907.2,4240.8
							L-19907.2,4240.8z M-19762,4240.6l-0.3,1.1l65.1-0.4l0.5-1L-19762,4240.6L-19762,4240.6z M-19487,4294.5l0.3,13.7l-43.6,28.1
							c-0.7,58.6-1.1,284-1.1,284l-10.5-6.8l0.4-282.3C-19541.5,4331.2-19503,4306.1-19487,4294.5L-19487,4294.5z M-19601.7,4306.2
							l1.5,0l0.5,3.2l-2.5,0L-19601.7,4306.2L-19601.7,4306.2z M-19598.6,4314.4l1.2,4.3l-6.4,0l1.1-4.2L-19598.6,4314.4
							L-19598.6,4314.4z M-19488.2,4316l0.1,8.9l-37.6,23.8l-0.1-8.9L-19488.2,4316z M-19604.6,4324.1l9.9,0.1l1.7,4.9l-12.4,0.1
							L-19604.6,4324.1z M-19846.9,4328.2l6.6,0.9c15.3,36,19.4,66.9,22.2,99.2c6.3,41.8,18.7,83.7,27.3,101.4l-9.7,0
							c-1.1-0.1-21.9-60.6-26.4-96.3c-1.2-7.1-0.8-13.7-1.2-20.2C-19830.3,4385.6-19834.2,4364.8-19846.9,4328.2L-19846.9,4328.2z
							 M-19834.4,4329.6l8.4,0.8c6,25.6,14.8,49.7,18.4,75.4c5.8,41.1,9,83.1,29.1,123.6l-7.9,0c-12.2-27.4-19.8-55.9-24.8-86.8
							c-3.9-17.7-4-31-6.1-47.1C-19819.8,4376.3-19827.3,4351.8-19834.4,4329.6L-19834.4,4329.6z M-19821.6,4330.7l8.4,1.2
							c5.7,25.4,15.4,53.3,18,76.3c5.4,46.8,13,90.4,28,121.3l-5.9-0.1c-23.1-44.1-23.7-83.4-30.3-124.8
							C-19807.3,4380.2-19815.5,4355.8-19821.6,4330.7L-19821.6,4330.7z M-19808.2,4332.6l7.4,1.1c5.3,25.3,14.8,53.9,17.1,79.5
							c4.1,45.4,12.4,79.8,29.5,116.4l-7,0.2c-20.6-35.6-23.6-79.5-30.2-123.8C-19795,4381.4-19803.1,4356.8-19808.2,4332.6z
							 M-19488.1,4330.8l0.1,11.1l-37.6,24.4l-0.1-10.9L-19488.1,4330.8z M-19796,4334.8l7.8,1.2c5.2,24.4,14.6,50.4,17,74.1
							c4,40.6,11.7,81.6,28.7,119.3l-7.2,0.5c-17.9-38.1-25.8-72.7-29.5-116.6C-19781.2,4388.6-19790.9,4358.7-19796,4334.8z
							 M-19590.5,4333.7l2.7,6.6l-18.1,1l0.2-7.4L-19590.5,4333.7L-19590.5,4333.7z M-19783.2,4337.1l9.3,1.7
							c10,38.9,12.8,75.7,19.7,112.7c8.6,45.9,17.5,69,24.8,77.5l-7.7,0.3c-18.9-39.7-25.8-79.2-30.3-120.2
							C-19770.2,4385-19778.2,4361.2-19783.2,4337.1L-19783.2,4337.1z M-19769.1,4339.6l7.1,1.4c8.6,31.8,12.6,61.5,16.4,90.3
							c7,54.7,25.5,96.2,29.4,98.1l-7.8-0.3c-17-23.2-23.5-62.8-32.1-118.8C-19759.9,4385.7-19763.6,4362.6-19769.1,4339.6
							L-19769.1,4339.6z M-19757.7,4341.9l7.9,1.9c0,0,7.3,28,12.9,65.1c4.7,30.9,7.4,91.8,41.2,126.7
							c16.9,17.4,46.6,32.4,66.7,15.8c8.6-7.4,14.1-19.2,8.8-31.8c-8.8-21.1-38.4-17.3-28.4,4.8c1.1,5.3-5.8,5.6-10.7,0.4
							c-5.1-5.5-3.9-11.8-0.3-17.7c7.5-12.3,27.8-13.7,39.8-2.8c19.2,18.6,11.1,50.7-13,61c-27.7,12-63.7-12.2-78.1-35.4
							c-23.7-40.4-27.6-78.9-33.3-119.8C-19747,4388-19752.5,4364.8-19757.7,4341.9L-19757.7,4341.9z M-19745.8,4345.1l8,1.9
							c0,0.1,9,39.4,12.1,62.7c3.8,28.8,7.9,62.7,20.4,88.9c7.8,16.3,19,29.9,30.4,37.8c9.7,6.8,18.5,11.1,31.4,8.2
							c14.9-3.3,15.4-26.4,1.2-26.4c-7.3,0-2.6-7,3.5-7.2c21.4-0.8,22.3,33,2.1,40.6c-23.1,8.8-48.1-7.4-63.7-27.7
							c-27.3-41.9-26.5-80.2-32.6-114.1C-19734.9,4391.9-19745.2,4345.9-19745.8,4345.1z M-19583.6,4345.3l4.9,6.5l-27.2,0l0.1-6.2
							L-19583.6,4345.3L-19583.6,4345.3z M-19733.8,4348.3l7.7,2.6c0.2,0,7.9,30.5,12.8,66.6c5.7,34.8,7.7,63.7,25.9,88.8
							c7.6,10.4,21.8,24.3,30.7,25.9c5.5,1.2,11.2-0.1,12.6-4.3c2.3-6.9,8.2-3.8,8.3,2.5c0,4.4-3.2,8.9-8.6,10.5
							c-26.5,4.7-50.9-28.4-58.4-45.2c-10.1-24.5-14.5-51.9-19.1-86C-19723.8,4395.3-19732.8,4349.3-19733.8,4348.3z M-19488,4348.1
							l-0.1,11l-37.5,23.9l-0.1-10.7L-19488,4348.1z M-19722.3,4351.6l8.6,2.3c0,0,7.3,26.8,11.8,60c4.5,33.6,14.1,72.7,31.6,92.8
							c1.6,1.9,2.7,3.3,3.4,4.4c1.3,2.7-0.2,7.4-1.5,7.4c-31.1-16-38.8-80.8-41.6-102.7
							C-19714.1,4381.9-19722.3,4351.6-19722.3,4351.6z M-19601.6,4356.1l27.4,0.6l6.6,6.4l-36.2-0.1
							C-19607.7,4359.1-19605.4,4359.5-19601.6,4356.1z M-19487.9,4364.4l0.1,9.1l-37.6,24.1l-0.1-9.4L-19487.9,4364.4z
							 M-19600.6,4368l40.1,0.5l14.1,8.3l-61.2-0.1L-19600.6,4368L-19600.6,4368z M-19487.8,4378.9l0.1,11l-37.6,23.9l-0.1-10.3
							L-19487.8,4378.9z M-19615.3,4381.7l68.1,0.3l0.2,7.4l-73.8-1.5L-19615.3,4381.7z M-19624.1,4394.4l77-0.3l0.2,8.2l-70-0.3
							L-19624.1,4394.4L-19624.1,4394.4z M-19487.7,4394.9l0.1,11.4l-37.6,23.6l-0.1-10.9L-19487.7,4394.9z M-19609.6,4407.6l59-0.1
							l-6.4,6.9l-44.5-0.2L-19609.6,4407.6L-19609.6,4407.6z M-19487.6,4410.9l0.1,10.8l-37.6,23.9l-0.1-10.6L-19487.6,4410.9z
							 M-19565.1,4419.6l-7.1,7l-30.6-0.2l1-6.3L-19565.1,4419.6z M-19487.5,4426.7l0.1,11.6l-37.6,23.3l-0.1-10L-19487.5,4426.7z
							 M-19603.2,4431.6l25.2,0.4l-3.8,5.3l-22.1,0.2L-19603.2,4431.6L-19603.2,4431.6z M-19830,4442.2c4,29.1,25.5,87.7,25.4,87.7
							l-8.3,0.1c0.4,0.6-15.3-36.9-21.1-72.2C-19834.7,4454.4-19832.4,4443-19830,4442.2L-19830,4442.2z M-19604.8,4442.5l19.4,0.2
							l-4.2,7.5l-15.8,0.1L-19604.8,4442.5L-19604.8,4442.5z M-19487.4,4443.6l0.1,10.1l-37.6,23.4l-0.1-9.2L-19487.4,4443.6z
							 M-19605.3,4454.6l12.9,0.3l-3,7l-10-0.2L-19605.3,4454.6z M-19487.3,4459.3l0.1,10.8l-37.6,23.6l-0.1-10.4L-19487.3,4459.3z
							 M-19837.8,4463.7c3.9,21.2,20.2,63.7,21.5,66.5l-7.1,0.1c-0.3,1-16.9-38.1-18.8-54.8
							C-19843.1,4472-19841.3,4465-19837.8,4463.7L-19837.8,4463.7z M-19605.4,4466.8l7.6,0.3l-1.3,4l-6.2,0.2L-19605.4,4466.8
							L-19605.4,4466.8z M-19604.6,4476.4l4,0.1l-0.9,3.8l-2.5,0L-19604.6,4476.4L-19604.6,4476.4z M-19487.2,4475.9l0.1,8.7
							l-37.6,24.1l0-8.3L-19487.2,4475.9z M-19847.1,4478.9c5.8,17,11.7,34.3,18.5,50.8l-8.5-0.2c-5.7-11.9-9.7-25.3-14.1-38.5
							C-19852.4,4485.6-19849.9,4480.9-19847.1,4478.9L-19847.1,4478.9z M-19855.5,4490.3l14.3,39.2l-8,0
							c-3.3-7.9-7.1-16.7-9.7-24.8C-19861.6,4496.3-19861.3,4496.1-19855.5,4490.3z M-19487.1,4490.6l0.1,10.4l-37.6,23.6l-0.1-8.9
							L-19487.1,4490.6z M-19864.9,4501.2c1.8-0.2,2,2.1,3.6,6.8l7.8,21.7l-9.8-0.2c-2.9-6.8-4.7-12.8-5.5-19.5
							c-0.3-3.2-0.9-6.4,1.4-7.8C-19866.3,4501.6-19865.5,4501.3-19864.9,4501.2L-19864.9,4501.2z M-19875.3,4509.4
							c1.7,0,2.3,3,3.7,7.5l4.2,12.7l-9.2-0.2c-2.7-6-3.8-10.3-3-16.6C-19877.7,4510.5-19876.3,4509.4-19875.3,4509.4
							L-19875.3,4509.4z M-19487,4507.2l0.1,10.8l-37.6,22.9l-0.1-10L-19487,4507.2z M-19884.7,4517.3l3.9,12.5l-8.3-0.1
							c-1.4-2.9-0.5-6.5-0.6-9.8L-19884.7,4517.3z M-19895.6,4523.8c0.1,0,0.2,0,0.3,0.1c1.2,5.5,0.1,5.9,0.1,5.9l-11.6,0
							C-19906.8,4529.8-19897.4,4523.7-19895.6,4523.8L-19895.6,4523.8z M-19486.9,4524.7l0.1,8.7l-37.6,23.7l-0.1-8.8
							L-19486.9,4524.7z M-19935.4,4541l226.7-0.7l7.6,10.6c0,0-22.1,0.7-94.3,0.7c-60.8,1.1-183-0.2-183-0.2l11.9-5.7
							C-19950.1,4545.3-19935.2,4540.9-19935.4,4541z M-19486.8,4539.6l0.1,9.5l-37.6,23.1l-0.1-9.2L-19486.8,4539.6z
							 M-20124.7,4552.5c-18.2,8.2-35.2,10.3-47.9,9.3c-27.4-2.1-69.2,9.6-77.5,36c-2.6,9.3-2.6,9.6,2.4,14.3
							c2.5,2.3,4.9,4.1,5.4,3.9c4.4-3.9,10.2-11.2,16.4-13.4c8.2-2.5,12.7-2.9,26.2-3.6c29.1-1.5,35.6-2.7,42.8-4.7
							c15.9-4.3,31.8-20.1,32.7-37.5C-20124,4554.9-20124.7,4552.5-20124.7,4552.5z M-20125.5,4554.9c-2.9,36.4-42.2,41.4-59.5,40.4
							c-35.1-1.9-48.9,8.7-54.4,15.2c-1.8,1.8-2.9,1.3-2.6-0.2c4-20.2,36.5-21.1,52.9-21c40.2,1.6,50.2-17.8,49.1-18
							c-3,1.4-5.3,2.6-8.4,4.1c-1.3,0.6-1.1-0.2-4.5-2.2c-0.1,0.3-4,9.3-9.1,0.8c0.1,0.4-3.6,7.6-10.6,1c0.1,0.7-4.2,6.9-11.1,0.6
							c-6.4,5.6-9.5,2.5-12.3-1.3c-2,1.2-7.9,9.3-13,0.7c-5.3,3.4-7.5,7.1-12,4.9c-10.6,2-19.8,12.9-23.5,23c-1.2,3.4-3.5,4-3.8,0.2
							c-1.3-10.4,15.7-28.6,33-33.7c13.4-4,22.5-6.8,52-5.9C-20146.7,4564-20125.5,4554.9-20125.5,4554.9z M-19695.4,4555.1
							l10.7,7.1l-183.4,256.1l-16.3-0.3L-19695.4,4555.1L-19695.4,4555.1z M-19992,4557.1l21-0.1l0.2,34.8l-18.1,0.1l-6.5-9.6
							c1.7,1,3.6,1.5,5.7,1.5c6.2,0,11.2-5.1,11.2-11.3s-5.1-11.2-11.3-11.2c-6.2,0-11.2,5.1-11.2,11.3c0,0.6,0.1,1.1,0.1,1.6
							l-6.8-10c0,0,2.9-1.7,9.7-4.8C-19996.3,4558.5-19992,4557.1-19992,4557.1z M-19927.2,4556.7l35.6-0.2l0.2,34.8l-35.6,0.2
							L-19927.2,4556.7z M-19849.2,4556.2l36.9-0.2l0.2,35l-36.9,0L-19849.2,4556.2L-19849.2,4556.2z M-19769.6,4555.8l36.8-0.2
							l0.2,34.8l-36.8,0.2L-19769.6,4555.8z M-19487.3,4554.9l0.6,10.8l-37.6,23.2l-0.1-10.7L-19487.3,4554.9z M-19752.5,4560.1
							c-6.6,0-11.9,5.4-11.9,12s5.4,11.9,12,11.9c6.6,0,11.9-5.4,11.9-12C-19740.5,4565.3-19745.9,4560-19752.5,4560.1z
							 M-19909.3,4561.6c-6.6,0-11.9,5.4-11.9,12s5.4,11.9,12,11.9c6.6,0,11.9-5.4,11.9-12S-19902.7,4561.6-19909.3,4561.6z
							 M-19831.6,4561.4c-6.6,0-11.9,5.4-11.9,12c0,6.6,5.4,11.9,12,11.9c6.6,0,11.9-5.4,11.9-12S-19825,4561.4-19831.6,4561.4z
							 M-19791.4,4562.6c5.5,0,10,4.4,10.1,9.9c0,5.5-4.4,10-9.9,10.1c-5.5,0-10-4.4-10.1-9.9
							C-19801.4,4567.1-19797,4562.6-19791.4,4562.6z M-19949.5,4563.7c5.5,0,10,4.4,10.1,9.9c0,5.5-4.4,10-9.9,10.1
							c-5.5,0-10-4.4-10.1-9.9C-19959.5,4568.2-19955,4563.7-19949.5,4563.7z M-19712.6,4562.6c2.4,0,4.5,0.9,6.2,2.3l-10.8,14.9
							c-2.7-1.6-4.5-4.5-4.5-7.9C-19721.8,4566.8-19717.7,4562.6-19712.6,4562.6z M-19869.1,4563.6c5.5,0,10,4.4,10.1,9.9
							c0,5.5-4.4,10-9.9,10.1c-5.5,0-10-4.4-10.1-9.9C-19879.1,4568.1-19874.6,4563.6-19869.1,4563.6z M-19989.9,4565
							c4.1,0,7.5,3.3,7.5,7.4s-3.3,7.5-7.4,7.5c-4.1,0-7.5-3.3-7.5-7.4C-19997.3,4568.4-19994,4565.1-19989.9,4565z
							 M-20012.7,4565.6c64,80.5,98.3,162.4,113.6,251.7l-10.7-0.4c-18.2-97.1-58.5-180.3-112.8-247.2L-20012.7,4565.6
							L-20012.7,4565.6z M-19752.4,4564.1c4.4,0,7.9,3.5,7.9,7.8s-3.5,7.9-7.8,8s-7.9-3.5-8-7.9
							C-19760.3,4567.7-19756.8,4564.1-19752.4,4564.1z M-19909.3,4565.7c4.4,0,7.9,3.5,8,7.8s-3.5,7.9-7.9,8
							c-4.4,0-7.9-3.5-7.9-7.9S-19913.6,4565.7-19909.3,4565.7z M-19831.6,4565.4c4.4,0,7.9,3.5,7.9,7.8s-3.5,7.9-7.8,8
							s-7.9-3.5-8-7.9S-19835.9,4565.4-19831.6,4565.4z M-19633.8,4569.9c4.4,32-3.8,52.7-28.2,56.2c-31.1,4.5-35.1,6.8-35.1,36.3
							c0,34.9-5.1,45.1-29.8,48c-27.8,3.3-34.3,6.6-31.6,41.2c2,25.2-7.9,36.1-29.3,40.9c-16.7,3.8-31.2,9.5-37.3,26.4l-15.3,0.3
							c3.8-26.6,30.5-39.5,47.6-40.5c18.5-4.5,22.3-10.7,19.1-43.1c-2.4-24.4,6.5-31.8,35.1-37.6c22.9-4.7,28.5-11.3,27.1-30
							c-2.9-40.2-0.3-46.2,22.5-51.2c11.6-2.8,30.5-4.2,37.7-13.1c8.2-10.2,6-18.7,5.2-31.2L-19633.8,4569.9L-19633.8,4569.9z
							 M-19486.7,4570.1l0.1,10.5l-37.6,23.5l-0.1-10.2L-19486.7,4570.1z M-20041.1,4579.6c-7.9,34.9,19.9,42.3,36.8,48.1
							c19.7,6.7,24.5,16.6,22.5,51.2c-1.5,26.2,1.4,32,18.4,40.8c26,13.2,33.1,32.2,21.7,60.1c-7,17.2-3.2,22,1.3,36.9l-12.6,0
							c-0.9,0.3-11.6-18.6-2.7-39.1c10.6-24.3,10.2-36.4-13.8-47.1c-18.6-8.3-24.3-16.2-25.5-33.6c-0.5-7.3-0.5-10.9,1.1-26.8
							c2-20-5.1-28.6-34.8-39.4c-13.2-4.8-22.2-16.2-25-34.2c-0.8-5.1-0.1-10.9-0.1-10.9L-20041.1,4579.6L-20041.1,4579.6z
							 M-19598.8,4580.8l112.9,74.2l-0.7,16.7l-119.8-79L-19598.8,4580.8z M-19671.3,4582.9c5.4,0,9.9,4.4,9.9,9.8
							c0,5.4-4.4,9.9-9.8,9.9c-5.4,0-9.9-4.4-9.9-9.8C-19681.1,4587.3-19676.7,4582.9-19671.3,4582.9z M-20025.1,4589.2
							c4.9,0,8.9,3.9,9,8.9c0,4.9-3.9,9-8.9,9c-4.9,0-9-4-9-8.9C-20034,4593.3-20030,4589.3-20025.1,4589.2z M-19486.9,4587.1
							l-0.3,10l-36.9,23.1l-0.1-10L-19486.9,4587.1L-19486.9,4587.1z M-19985,4596.6l256.2-1.5l-6.5,8.9l-244.8-1.1L-19985,4596.6z
							 M-20073.8,4597.6c34.3,44.1,68,89.6,94.3,175.5l-11,4.3c-21.7-69.2-54.8-126.5-93.7-173.9L-20073.8,4597.6L-20073.8,4597.6z
							 M-19486.5,4602l0.1,11l-28.3,17.4l-8.4-5.4L-19486.5,4602z M-20088.8,4606.7l5.1,6.6c0,0-5.4,4.3-11.6,8.7
							c-16.7,12.1-18.9,13.5-20,21.3c-2.5,18.6,16.6,27.6,35.7,16.8c6.8-3.2,21.8-12.8,21.8-12.8l4.4,6.3c0,0-21.5,16.3-34.1,20
							c-27.7,8.2-48.7-26.9-28.3-47.9c3.1-3.2,9.7-7.5,15-11C-20095.4,4611.3-20088.8,4606.7-20088.8,4606.7z M-19974.4,4610.4
							l236.1,0l-149.6,207l-6.7-0.3C-19906.7,4740.1-19936.1,4672.9-19974.4,4610.4L-19974.4,4610.4z M-20077.3,4619.8l13.9,19.2
							c0,0-8.9,8.6-23.7,16.9c-11.9,6.6-24.8-5.2-17.4-15.9C-20096.9,4629.3-20077.3,4619.8-20077.3,4619.8z M-19486.4,4618.3
							l0.1,10.1l-16.3,10.1l-7.5-4.7L-19486.4,4618.3z M-20079,4629.5c-6.5,0.4-17.4,7.9-21,14.3c-1.6,2.8-1,5.1,0.5,7
							c2.2,2.9,4.9,2.7,12.7-1.6c16-8.6,19-13.7,11.9-18.7c-1-0.7-2.2-1-3.5-1C-20078.6,4629.5-20078.7,4629.5-20079,4629.5
							L-20079,4629.5z M-20079.5,4633.6c1-0.1,2.2,0.2,3.2,0.1c2.8,1.1,1.9,4.6-0.9,5.4c-0.6-1-5.5-1.1-5.1,3.8
							c-1.2,2.8-1.1,2.6-4.6,3c-2.3-0.6-3.9,1.1-4.3,2.1c-2.4,1.3-5.4,0.9-6-0.5c-0.5-1.4,1.4-5.5,3.1-5.5c0.8,0.1,2.2-1.2,3.7-2.2
							c-0.1-2.7,3.1-3.1,4-3.1c0.9,0.2,3.9,0.2,5.3-2.3C-20080.6,4633.9-20080.1,4633.7-20079.5,4633.6z M-19486.3,4632.5l0.1,15.5
							l-11.9-7.5L-19486.3,4632.5z M-20141.4,4638.3c43.3,50.5,74.6,104.4,94.7,179l-8.6,6c-13.3-52.4-33.7-107.6-93.5-179.3
							L-20141.4,4638.3z M-19638.3,4636.2c19.6,16.4,99.8,91,115.8,224.2l-10.6,6.6c-9-70.3-37.1-150.8-112-221.8L-19638.3,4636.2z
							 M-19676.8,4641.1c5.4,0,9.9,4.4,9.9,9.8c0,5.4-4.4,9.9-9.8,9.9c-5.4,0-9.9-4.4-9.9-9.8
							C-19686.6,4645.5-19682.2,4641.1-19676.8,4641.1z M-20153.3,4647.7c0,0,9.1,9.2,9.1,11.4c0,4.4-3.5,6.9-24.2,14.6
							c-3.5,1.3-18.8,4.9-18.8,4.9l-0.6-7.4c7.8-2.9,28.8-8,30.3-12.5c0.7-1.8-3-6.2-2.2-6.2L-20153.3,4647.7z M-20010,4648.8
							c4.9,0,8.9,4,9,8.9s-3.9,9-8.9,9c-4.9,0-9-4-9-8.9S-20015,4648.8-20010,4648.8z M-19648.1,4649.2
							c65.4,63.1,101.6,141.3,110.4,222.3c-75.3,62-126.3,139.7-146.2,236.6c-10.2-16.8-18.9-36.1-28.3-54.9
							c100.5-89.4,120.8-249.3,32.8-360.8L-19648.1,4649.2L-19648.1,4649.2z M-20045.5,4663.6l4.6,7c0,0-1,0.9-15,9.7
							c-20.6,13-24,21.4-17,34.5c7.1,13.4,15,14.1,37.2,3.2c7.8-3.8,14.5-7.9,14.5-7.9l3.6,7.4c0,0-9.9,8.2-29,15.3
							c-18,6.7-35.1-4.4-38.4-25.3c-2.4-15.1,4.1-23.3,30.3-38.4C-20051.9,4667.6-20045.5,4663.6-20045.5,4663.6z M-19735.8,4665.2
							c5.4,0,9.9,4.4,9.9,9.8c0,5.4-4.3,9.9-9.8,9.9c-5.4,0-9.9-4.4-9.9-9.8S-19741.3,4665.2-19735.8,4665.2z M-20137.5,4667.9
							l6,5.6c0,0-2.5,3.8-17.1,12.7c-13.1,8-14.5,6.7-7.9,12.2c12.3,10.3,29.4,33,29.3,39c-0.1,5.7-5.1,11-14.9,15.4
							c-5.3,2.4-26.5,10.1-29.6,10.7c-6.2,0.7-7.9,3.2-1.7,8.8c10.6,12,19.7,37.8,16.2,45.6c-4,8.9-8.9,10.4-47.8,12.4
							c-4.4,0.2-6.6-1-4.1,4.6c1.8,4.1,3.6,9.8,7.2,27.3c3.2,15.6,2.7,22.6-3.3,25.9c-3.5,1.9-30.6,1.4-41.8-0.8
							c-12.8-2.4-14.2-2.6-12.1,5.7c2.8,11.5,4.6,42.3-4.1,48.4c-3.6,2.4-7.5,1.8-23.4-3.4c-10.2-3.4-19-7.2-19-7.2l0.1-9.6
							c8.3,3.4,31,13,37.4,9.9c7.6-11-3.3-49.3-7.4-57.5c-5-9.8,0.2-12,11.5-5.9c5.9,4.1,57,23.9,54,6c-3.2-17-8.9-36.4-19.7-48.6
							c-10-11.2-5.1-15.9,6-11c19.6,8.6,60.1,6.3,58-2.8c-2.8-14.7-16.3-34.7-34.7-50.1c-5.1-4.3-5.3-6.1,0.7-7.2
							c17.1-1.5,66.1-6.8,59.2-18.3c-5.9-9.4-13.9-19.8-20.6-25.3c-11-9.1-22.1-13.1-27.1-15l0.3-7.1
							C-20165.4,4686.3-20153.8,4679.5-20137.5,4667.9L-20137.5,4667.9z M-20191.5,4675.2c-7.5,84-42.2,153.4-114.4,202.1l-0.5-9.4
							c63.4-48.2,93.6-116.5,101.6-182.4L-20191.5,4675.2L-20191.5,4675.2z M-20129.9,4678.8l6,5.3c0,0-1.5,2.3-10.1,9.2
							c-6.6,5.2-4.3,3.1,0.3,9.2c4.1,4.8,11.3,14.5,11.3,14.5l-2.1,13c-7.6-10.7-13.9-18.5-25.2-29.9c-5.7-5.8-5.4-6,2.7-10.3
							C-20140.9,4686.5-20135.9,4682.4-20129.9,4678.8L-20129.9,4678.8z M-20037,4679.5C-20037,4679.5-20037,4679.6-20037,4679.5
							c0.1,0,11.8,20.9,11.8,22.8c-6.9,6.5-25,15.9-32.4,13.8c-11.5-3.6-13.4-15.8-2.4-23.1c9.5-7,21.3-13.1,22.9-13.5
							C-20037.1,4679.5-20037,4679.5-20037,4679.5L-20037,4679.5z M-19967.1,4686.2c4.9,0,8.9,3.9,9,8.9c0,4.9-3.9,9-8.9,9
							c-4.9,0-9-4-9-8.9C-19976,4690.2-19972.1,4686.2-19967.1,4686.2z M-20039.4,4687.3c-8.5,2.3-16.8,10-21.5,13.3
							c-1.7,1.2-0.3,7.3,1.3,9.4c2.1,2.7,6,2.2,10.6-0.4c1.9-1.1,5.4-2.9,7.8-4c6.5-3.1,9.2-5.3,9-7.8
							C-20033.2,4694.5-20035.9,4687.1-20039.4,4687.3z M-20210.8,4691.6c1.9,9.4-3.7,26-6.9,35.3c-18.9,25.1-46.5,38-72.7,46.8
							c-5.8,2-13.7,1-13.7,1C-20267.9,4737.2-20236.8,4709.6-20210.8,4691.6z M-20038.9,4691.2c2.4,0.1,4.1,3.2,3.4,5
							c-4.1,2.2-6.4,0.4-5.8,3.5c0,0,0.4,4.8-5.6,5c-1.5-0.6-4-0.5-5.2,0.8c-4.2,1.8-7.9-1.9-3.3-4c1.2-0.6,4.3-1.5,5.1-3.4
							c0.4-2.3,2.3-4.2,4.5-2.9c1.1,0.1,3.6,0.2,4.4-1.5c-0.3-2,1.1-2.2,2.1-2.3C-20039.2,4691.2-20039.1,4691.2-20038.9,4691.2
							L-20038.9,4691.2z M-20285.4,4696.9c-1-0.1-1.8,0-2,0.3c-1.8,1.7-4.4,27.7-2.6,29.5c2.6,2.6,9.6,3.3,10.3,0.2
							c2.1-10.2,1.6-17.8,2.6-26.4C-20277,4698.9-20282.3,4697.1-20285.4,4696.9L-20285.4,4696.9z M-20282.5,4699.7
							c0.9,0.2,1.7,1.4,2.2,3.6c-0.1,4.3-0.5,13.2-2.1,18.2c-1,3.9-4,3-5.1-0.5c-1.2-3.7-0.3-14.2,1.9-18.5
							C-20284.5,4700.3-20283.4,4699.5-20282.5,4699.7z M-20114.1,4698.7l6.3,7.7c-12.4,125.3-101.3,234.2-196.6,277.8l-0.3-8.3
							C-20195.8,4917.8-20130.6,4821.9-20114.1,4698.7L-20114.1,4698.7z M-19681.8,4696.7l11.9,16.2l-17,0.6L-19681.8,4696.7z
							 M-20189.8,4705c5.9,0,37.1,18.9,33,28.5c-3.3,7.6-29.3,8.4-41.3,7.4l1.7-7.3c0,0,3.7,1.2,17.5-0.3
							c14.6-1.1,13.5-6.1-3.3-16.5c-7.2-4.5-8.9-5.6-8.9-5.6L-20189.8,4705L-20189.8,4705z M-20103.5,4714.8
							c9.7,16.2,19,34.5,27.7,54.9c-117,111.7-107,262.9-32.2,361.7l-31.7,43.3c-64.3-60.6-99.5-135.5-111.8-215.1
							C-20158.6,4892-20115.4,4791.6-20103.5,4714.8L-20103.5,4714.8z M-19666.5,4717.1l7.1,13.4l-16.9-0.2L-19666.5,4717.1z
							 M-19739.3,4724.3c5.4,0,9.9,4.4,9.9,9.8c0,5.4-4.3,9.9-9.8,9.9c-5.4,0-9.9-4.3-9.9-9.8S-19744.8,4724.3-19739.3,4724.3z
							 M-20013.1,4728.5l3.4,7.6c0.2,1-23.8,8.7-31.4,18.4c-7.1,9-6.3,18.4-2.3,24.8c6.9,9.2,11.7,10.4,23.2,6.8
							c9.4-2.9,16.3-6.9,25.6-11.7l1.5,3.8c0-0.2-13.3,7.9-23.5,13.8c-3.8,2.2-8.4,3.1-12.4,3.1c-23.2-0.4-35.7-30.3-16.7-48.2
							c2.8-2.6,12.2-7.9,20.2-12C-20020.3,4732.2-20013.1,4728.5-20013.1,4728.5z M-19705.3,4731.5
							c77.4,110.3,25.6,231.9-23.7,275.1l-1.4-13c82.9-95.5,53.2-206.4,18.1-255.5L-19705.3,4731.5L-19705.3,4731.5z
							 M-19655.9,4736.1l6.1,13.6l-17.8-1.8L-19655.9,4736.1z M-19965.2,4742.4c4.9,0,9,4,9,8.9s-4,8.9-8.9,9c-4.9,0-9-3.9-9-8.9
							C-19974.2,4746.5-19970.2,4742.5-19965.2,4742.4z M-19714.4,4742.7c67.9,97.3,31.3,253.4-96.8,301.6l-0.7-10.9
							c130.5-55.5,142.5-201.2,89.5-283L-19714.4,4742.7L-19714.4,4742.7z M-20006,4745l8.6,22.9c-10.7,7.2-14.8,8.5-26.8,11.5
							c-9.4,2.2-16.9-14.1-9.7-20.4C-20025.6,4751.8-20016.7,4748.7-20006,4745z M-20224.2,4746.4c1.6-0.1-0.1,3.8-4.1,13.7
							c-8.8,21.7-9.4,22.2-31.9,25.9c-11.7,1.9-20.4,2.4-28.8,1.7c-12.6-1.1-18-4.7-9.8-6.4c23.6-5.3,49.6-17.7,66.6-29.7
							C-20227.9,4748.4-20225.3,4746.5-20224.2,4746.4z M-19796.6,4746.5c6.1,0,11.1,4.9,11.1,11c0,6.1-4.9,11.1-11,11.1
							c-6.1,0-11.1-4.9-11.1-11C-19807.6,4751.6-19802.7,4746.6-19796.6,4746.5z M-20131,4751.6l-0.9,8.5c0,0-13.6,7.3-20.1,10
							c-4.9,2-5.3,2.5-3.7,7c3.2,9.1,9.5,20.4,9.5,20.4l-5.6,13c-3.5-11.6-7.3-23.9-13.8-34.6c-6.1-8.4-7.3-9.5,2.2-11.3
							C-20151.2,4760.4-20141.7,4757.4-20131,4751.6z M-20009.1,4753.6c-6.7,0.3-20.6,6-21.9,11.4c-0.8,3,0.1,7.3,2.7,8.2
							c7,2.5,20.9-3.3,24.5-8.5c1.1-1.6-0.6-4.9-1.9-7C-20006.7,4756.1-20006.5,4753.5-20009.1,4753.6z M-20008.7,4758.2
							c0.1,0,0.2,0,0.4,0c1.1-0.1,5.3,5.1,0.7,4.7c-1.6-0.1-3,0.5-4.3,1.8c-0.1,2.5-3.7,3.5-5.5,2.6c-1.3-0.6-3.1,0.7-3.3,1.5
							c-2.6,1.9-5.9,1.8-6.3,0.5c-0.9-0.9,1.7-4.8,4-4.6c0.5,0,2.1-1.1,3.6-2.4c0.7-2.6,3.5-2.2,5.2-2.1
							C-20012.3,4761-20010.5,4758.4-20008.7,4758.2L-20008.7,4758.2z M-19647.3,4756.5l5,13.7l-17.6-1.5L-19647.3,4756.5z
							 M-19729,4760c5.9,1.6,9.3,7.2,6,12.7c-3.6,4.7-7,4.7-12.3,4.5c4.4,5.1,6.4,12.3,2.1,17c-6.4,6.6-18.9-3.4-18-4.3L-19729,4760
							z M-20208,4767.8c0,0,27.3,23.2,27.5,33.7c0.1,4-1.2,5.3-4.4,6.4c-10.6,3.6-40.4-5.3-40.4-5.3l3.8-7.3
							c4.7,1.3,27.7,7.1,29.7,4.1c2-3.1-19.3-23.7-19.4-23.7L-20208,4767.8z M-20073.2,4776.8l3.3,11.3l-11.1-2.7L-20073.2,4776.8z
							 M-19639.7,4776.2l3,15.6l-17.8-4L-19639.7,4776.2z M-19978.5,4778.5l2.7,9.2c-117.6,55.4-151.3,181.1-89.2,284.4l-6.9,9.6
							C-20155,4948.8-20072.4,4812.9-19978.5,4778.5z M-20247,4789.3c2.3,0,2.8,1.3,2.8,2.7c0,1.9-11.8,17.1-15.6,20.6
							c-8.3,3.4-40.7-9.9-45.6-20.3c-1-3,2.2-1.7,9.4-0.3C-20277.9,4797-20259.6,4789.8-20247,4789.3L-20247,4789.3z
							 M-19932.9,4787.6c4.9,0,9,3.9,9,8.9c0,4.9-4,9-8.9,9c-4.9,0-9-4-9-8.9C-19941.8,4791.7-19937.8,4787.7-19932.9,4787.6z
							 M-20084.7,4788.7l1.7,13.9l-13.7-0.7L-20084.7,4788.7z M-20304.2,4800.8c9,8,22.2,14.6,34,16.9c7.3,1.6,5.2,2.3-1.5,9.3
							c-6.3,6.6-5.8,7.5-12.2,4.3c-10.8-5.4-22.5-17.7-22.1-24.4C-20305.9,4804.1-20305.4,4800.8-20304.2,4800.8z M-19634.5,4798.4
							l2.3,14.8l-16.8-5.7L-19634.5,4798.4z M-20101.3,4806.5l5.6,13.3l-14.9-0.3L-20101.3,4806.5L-20101.3,4806.5z
							 M-19732.4,4807.5c7-0.4,9.8,5,9.9,9.5c0,1.9-0.4,5-0.4,5c8.7-5.6,20.4-1.1,20.1,7.9c-0.4,12.7-6.6,12.9-16.8,11.2
							c5.6,9.2-0.9,18.1-11.4,14.8c-9.5-3-7.8-13.1-3.3-19.1c-22.4,3.8-28.3,35.8-2.3,45.1c-5.3-8-6.6-17.7,4.7-19.4
							c10.5-1.6,15,6.4,10.5,16c9.9-3.5,19.2,2.1,16.3,11.8c-3.5,11.6-13.9,10.9-20,3.9c4.4,10.5-5.6,18.1-13.3,14.1
							c-12.1-6.4-6.2-17.9,1.9-21c-31-3-38,39.9-15.1,45.9c-5.9-3.6-6.6-20.5,6.8-18.3c13.2,2.6,10.1,14.8,1.7,20.4
							c10.2-2.2,19.8,6.6,13.6,15.6c-7.2,10.6-17.4,3.2-21.2-4c1.2,9.7-4.9,15.9-12.8,12.3c-13.6-6.2-3.7-21.8,7-20.9
							c-21.6-12.6-50.8,14.3-33.4,36.3c-0.7-10.1,4.2-18.3,11.1-17.2c6.1,0.6,11.4,7.5,9.8,13c-1.6,4.7-6.8,8.2-12.4,9.4
							c16.5,1.7,18,13.4,11.2,19.2c-11.5,9.8-17-1.4-19.7-8c-2.3,16.4-21.6,10.9-22.4-0.9c-0.7-13,14.2-12.8,17-12.1
							c0.3-0.5-11.7-12.2-24.4-13.8l0-7.5c50-31.8,67-86.9,50.7-138.9l3-3.5c8.2,6.2,16.5,19.6,31.6,14.6c0,0-3.5-2.5-5.3-4.2
							C-19747.6,4817.1-19743.3,4808.1-19732.4,4807.5L-19732.4,4807.5z M-20063.2,4818.9l5.2,7.6c-75.6,89.6-61.1,191.6-16.9,258.9
							l-6.3,7.7C-20120.2,5043.7-20152.6,4923.5-20063.2,4818.9L-20063.2,4818.9z M-20304.4,4821.5c6.3,3.6,10.5,9,16.4,13.8
							c4.6,3.6,4.5,4.3,0.8,7.8c-8.4,8.2-13.2-3.6-15.9-8.4C-20306.5,4828.3-20306.9,4821.7-20304.4,4821.5L-20304.4,4821.5z
							 M-20007.5,4820.2c5.7,0.5,9.6,6.1,9.3,10.6c-0.1,2,0.1,3.6,0.1,3.6s1.6-2,2.9-4.5c6.4-10.9,20.5-4.7,18.2,7.8
							c-1,5.9-10.9,8.2-13.6,6.5c2.6,7,9.5,8.6,18,11.5c3,0.5,8,2,8,2l0.2,4.7c-45.5,29-71.1,78-53.9,144.6l-5,6.9
							c-9.3-22.1-17.7-21.6-32.9-22.3c0,0,3.8,2.6,6,5.2c4.6,5.4,2.6,14.9-3.7,15.9c-14.7,2.4-14.9-8.1-13-15.1c0,0-2.6,2.2-3.9,3.1
							c-5.8,3.8-13.1-0.1-13.8-7.6c-0.7-7.1,1.7-11.7,9-12.6c2.4-0.3,6.2,0.3,6.2,0.3s-1.5-2.8-2.3-4.3c-3.5-6.8,4.1-12.7,11.1-11.3
							c11.1,2.6,10.3,12.2,3.9,19.8c17.2,1.2,26.2-10.1,24.8-21.3c-1.6-13.6-8-21-21.5-23.2c0,0,2.2,3.4,3.2,5.1
							c3.5,6.1-1.4,13.7-8.7,13.7c-7.5,0-12.3-6.8-9.5-13.6c0.7-1.7,3.5-3.7,3.1-3.9c-0.3-0.1-4.1,1.1-5.2,1.3
							c-9,1.5-14.8-6.4-11.1-14.3c2.6-5.6,10.6-7.2,16.5-4.4c0.9,0.3,2.1,1.6,2.2,1.3c0.2-0.3-0.6-2.1-0.8-3.4
							c-1.9-7.2,1.6-11.1,9.4-10.6c11,0.6,15.1,9.5,7.8,17.6c-1.9,2.1-4.8,5.2-4.8,5.2c0.4,1.6,15.6,2.6,23.4-5.6
							c9-9.5,10.3-29.2,1.2-35.6c-1.5-1.1-4.5-3.1-4.5-3.1c4.4,8.6-3.5,18.6-10.5,16.8c-14-3.3-12.9-14.8-3.7-18.5
							c0,0-9.4-3.4-12.1-7.2c-3.8-5.3-2.6-10.2,2-14c5.7-4.7,13.9-1.7,17.9,4c2.3-7.3,5.7-12.2,15.6-8.3c7,3.3,7,12.5-0.7,17.6
							c-2.4,1.6-6.8,3.2-6.8,3.2s6.6,3.7,14.6,3.8c15.4,0.1,27.5-18.2,21.2-32c-1.3-2.8-4.5-6.4-4.5-6.4s-0.3,4.9-1.3,6.7
							c-3.5,7-11.7,7.1-16.6,2.8c-4.4-3.9-3.2-9.3,0.2-12.9c2.6-2.8,4.9-3.3,8.5-5c-4.1-1.4-8.7-2.3-10.7-6.6c-1.9-4-0.6-9,4.3-12.2
							C-20011.5,4820.5-20009.4,4820.1-20007.5,4820.2L-20007.5,4820.2z M-19630.4,4819.7l1.1,15.7l-17.6-6.6L-19630.4,4819.7z
							 M-20113.3,4823.5l6.4,14.3l-16.3,0L-20113.3,4823.5L-20113.3,4823.5z M-19773.3,4821.5c15.6,56.4-5.6,97.2-46.3,129.2
							l-4.6-5.9c31.7-27.3,55.4-59.4,44.5-116.2L-19773.3,4821.5z M-20242.2,4824.5c0,0,23.8,30.5,19.2,40.8
							c-6.2,9.9-43.6-11.1-43.1-12.3l4.6-4.5c5.9,2.4,24.4,12.4,28.5,10.8c1.4-9.3-9.6-21.2-13.7-29.1L-20242.2,4824.5z
							 M-19960.8,4822.9l179.4,2.2l-5.3,9.5l-14,0.2l-27.4,49.2l-128.9,0.7L-19960.8,4822.9L-19960.8,4822.9z M-20162.1,4829
							l-6.1,11.3c-5.8,1.8-23.3,2.2-24.7,3.4c2.1,5.7,4.6,22.6,4.6,22.6l-6.9,8.9c-1.9-10.9-5.1-24.6-7.8-34.6
							c-2.4-8.5-1.7-6.7,16.5-8.2C-20178.5,4831.8-20170.1,4830.8-20162.1,4829L-20162.1,4829z M-20125.2,4842.3l7.5,13.1l-15,0.2
							L-20125.2,4842.3z M-20304.9,4844.2c0.8-0.3,5.5,4.8,6.3,6.3c-0.3,3.4-5.6,5.3-6.4,4.1c-0.3-0.5-0.5-8.1,0-10.3
							C-20305,4844.3-20304.9,4844.3-20304.9,4844.2z M-19628.1,4840.4l-0.1,16.4l-17.8-7.8L-19628.1,4840.4z M-19486.9,4843.3
							l-0.2,10.6c-64.3,31.9-159.9,116.9-186.4,268.7l-5.7-6.2C-19652.7,4971.6-19558.6,4885.4-19486.9,4843.3L-19486.9,4843.3z
							 M-20135.2,4861.7l8.1,12l-14.5,1.7L-20135.2,4861.7z M-19627.6,4863.4l-1.3,14.5l-17.6-9.6L-19627.6,4863.4z
							 M-19964.3,4868.4c0.1,3.4,0.4,5.9,0.6,9.4c-39.6,25.9-52.7,66.5-45.8,117.4l-5.5,8.2
							C-20028.1,4957.2-20015.4,4900.2-19964.3,4868.4z M-20289.4,4872.3c0,0,15.3,34,9.4,42c-5.8,4.8-19.2-3-25.4-6.2l-0.2-8.1
							c0,0,4.7,2.4,9.3,4.2c9.6,4.2,9.6-0.9,4.3-15.1c-1.9-5-3.8-10.8-3.8-10.8L-20289.4,4872.3z M-19503.8,4868.7
							c4.1,2.4,17.2,6.1,17.2,6.1l-0.1,9.7l-27.1-9.5L-19503.8,4868.7L-19503.8,4868.7z M-20144.5,4883l10.4,10.8l-14.4,3.4
							L-20144.5,4883z M-19516.7,4880.5c1-0.1,2-0.1,3.1,0.1c9.2,0,26.9,7.3,26.9,7.3l0,10.7c-9-2.5-19.4-7.5-28.9-8.8
							c-7.5-1-7,3.2-7,13.8c0,14.3,3.7,27.3,10.6,41.6c5.7,11.8,2.8,15-6.5,9.8c-16.8-11.4-52.4-19.8-57.8-13.1
							c-5.6,6.9,5.7,40.9,18.6,57.1c5.2,6.6,5.6,7.6,3.2,10.2c-2,2.1-5.1,2.2-10.8,0.5c-18.5-5.8-45.3-6.9-53-1.9
							c-7.6,5,12.5,39,29.3,50c10.9,7.7,8.8,11.5-8.7,12c-28.6,0.3-50.6,6.8-49.3,14.6c2.2,13.3,20.8,31.4,42.1,40.9
							c13,5.2,7.6,7.4-1,10.5c-14.4,5-28.3,12.9-41.9,20.3l-6.6-8.3c0,0,13.6-8.8,28.5-17.2c3.5-2,3.3-2.7-1.6-6.8
							c-15.9-13.2-27.7-28-30.2-38c-2.4-9.7,2.4-15.9,16.8-21.4c8.9-3.4,12.2-4.5,20-6.3c11.3-2.6,11.5-3,6.6-11.6
							c-2.2-3.9-5.8-10.3-8-14.3c-17-28.8-8.2-39.2,31-40.1c9.6-0.6,11.5-0.6,10.9-3.9c-2.2-13.6-8.3-29.2-7.5-40.7
							c1.7-17.4,19.5-21.7,51-14c7.3,1.8,7.8,1.4,6.5-4.5C-19536.4,4904.2-19531.3,4881.6-19516.7,4880.5L-19516.7,4880.5z
							 M-19628.9,4883.1l-2.6,16.9l-16.8-11L-19628.9,4883.1z M-20254.3,4890.8l46.1,2.7l-7.3,8.6l-27.9-0.4l-0.9,23.8l-8.9,7.7
							L-20254.3,4890.8z M-19955.4,4890.8l38-0.2l-0.1,40.2l-37.9,0.2L-19955.4,4890.8L-19955.4,4890.8z M-19910.1,4890.5l35.3-0.2
							l0.2,40.1l-35,0.6L-19910.1,4890.5L-19910.1,4890.5z M-19867.8,4890.3l37.9-0.2l-0.1,40.2l-37.5,0.2L-19867.8,4890.3
							L-19867.8,4890.3z M-19536.8,4891.5c-0.8,10.3,1.4,29,2.4,37c-0.6,2.4-2.3,2.1-12.2-0.1c-6.9-2.3-26-2.8-26-2.8l7.9-8.5
							c6.5,0.7,11.7,0.6,18.5,1.5c-0.1-6.8,0.1-19.7,0.1-19.7L-19536.8,4891.5L-19536.8,4891.5z M-20150.4,4903.1l10.7,10.6
							l-13.6,3.6L-20150.4,4903.1z M-19632.4,4903.5l-4.1,17.2l-15.4-13.7L-19632.4,4903.5z M-19508.2,4903.3
							c7.7-0.2,14.1,2.3,21.2,8.5l0.1,8.8l-15.1-6.7c-0.1,10,8.8,28,8.8,28l-7.2,3.4c-6.3-10.1-10.6-19.2-11.1-30.6
							C-19511.3,4910.5-19512,4903.5-19508.2,4903.3L-19508.2,4903.3z M-20155.5,4924.4l12.7,7.4l-13.9,5.7L-20155.5,4924.4z
							 M-19637.1,4925.2l-6.1,17.7l-13.6-15.2L-19637.1,4925.2z M-20305.3,4934.8l34.1,11.3l-6,6.5l-28.3-8.8L-20305.3,4934.8z
							 M-19828.2,4936.6l3.2,62.6l-179.7-0.4l6.2-8.9l11.7-0.2l30.4-52L-19828.2,4936.6z M-20157.8,4943.5l13.4,9.3l-13.8,6.2
							L-20157.8,4943.5z M-19486,4945l0.1,10.2c-43.2,32.3-89.8,87.8-97.2,185.5l-11.6,10.1
							C-19589.6,5055.5-19550.2,4989.5-19486,4945L-19486,4945z M-19644.2,4946.3l-6.2,15.9l-12.6-14.7L-19644.2,4946.3z
							 M-19592.5,4949c-0.2,9.5,7.6,38.7,7.6,38.7c-11.8,0.7-23.3-0.6-36,3l5.9-10.8c0,0,5.6-0.6,10.4-1.6c10-2.1,9-0.8,6.6-9.6
							c-2.2-8.2-2.4-9.9-2.4-9.9S-19593.2,4948.9-19592.5,4949z M-19559.4,4950.8c11.8,0,29.5,10.5,37.5,16.5l-4.2,4.7
							c-1.2,0.4-17.8-8.4-30.8-10.4c4.3,8.4,6.4,14.7,15.9,28l-6,6c-1.8-0.4-25.6-35.1-19.4-43
							C-19564.5,4951.3-19562.1,4950.7-19559.4,4950.8z M-20255.5,4963c16.1,93.9,53.5,158.3,112.4,216l-5.9,7.8
							c-69.2-62.5-107.2-142.4-117.4-217.7L-20255.5,4963L-20255.5,4963z M-20158.6,4966.4l12.7,6.8l-12.9,7.6L-20158.6,4966.4z
							 M-19486.1,4962.7l0,13.8l-8-7.9C-19491.9,4966.6-19489.3,4964.6-19486.1,4962.7L-19486.1,4962.7z M-19652.8,4966.5l-8.5,15.9
							l-11.3-14.9L-19652.8,4966.5z M-19498.3,4972.4c11.5,1.5,15.3,24.4,11.5,28.9c-1.8-2.8-17.6-12.5-24.8-16.6
							C-19512,4983.5-19500.6,4973.1-19498.3,4972.4z M-19682.6,4985.3l18.4,1.6l-9.7,15.2L-19682.6,4985.3z M-20158.3,4988.1
							l14.3,6.9l-12.9,9.2L-20158.3,4988.1z M-19512.7,4991c2.4,0,5.1,1,8.4,2.8c13,7.1,19.8,15,19.1,22c-0.3,3.2-2.1,3.9-4.2,1.6
							c-3.8-4.2-16.5-9.6-27.5-11.7c-8.3-1.6-9.1-2.3-6.6-6.1C-19519.7,4993.7-19516.7,4991-19512.7,4991z M-19733.8,4999
							c20.3,75.2,55.6,132.9,99.8,180.3l-9,7.8c-33.5-38-70.4-82.5-100.9-179.1L-19733.8,4999z M-19694.1,5002.7l18.4,2.7
							l-10.7,13.8L-19694.1,5002.7z M-19953.1,5005.1c2.1,0.1-6.1,32.1-35.3,34.5c-18.5,3.2-20.5,6.3-20.6,35
							c-0.1,39-6.4,48.1-38.2,50.7c-21.1,1.7-23.8,6-20.1,36.3c3.6,28.8-7.2,43.6-34.1,43.7c-23.3,2.1-32.8,13-32.7,34.5
							c0.1,8.7,0.2,10.8,0.2,10.8l-15,1.3c0,0-0.1-14.2,1-21.1c4.4-27.9,16.3-39.2,41.5-39.2c19.5-1.6,22.5-4.8,21.6-34.3
							c-0.9-30-1.3-29.8,6.5-37.7c5-5.1,10.8-7.4,21-8.4c31.8-3.2,34.3-5.3,34-38c-3.1-27.1,4.3-43.8,21.5-45.2
							c34.8-3,33.9-21.9,32.4-22.7l16.2-0.3C-19953.1,5005.1-19953.1,5005.1-19953.1,5005.1L-19953.1,5005.1z M-19881.8,5004.7
							c21.1,110.2,86.4,213,122.1,251l-6.9,3.7c-52.1-64-99.6-137.5-123.6-254.5L-19881.8,5004.7L-19881.8,5004.7z M-19918.7,5004.9
							l16.2,0.1l-184.8,263.3l-9.9-7.3L-19918.7,5004.9L-19918.7,5004.9z M-19896.1,5005c17.9,63.5,32,125.5,87.6,208.4l-233.5-0.2
							L-19896.1,5005z M-19831.6,5004.8c1.4-0.6,7,32.1-1,47.3c-7.2,20.5-3.6,32.1,12.5,39.4c27.5,12.7,34.5,25.4,31.2,56.9
							c-2.3,22.1,4.4,32.7,25.2,39.6c24.7,8.3,35.6,21.5,35.6,43.3c0,3.3-1.2,7.2-1.2,7.2l-13.7,8.2c0,0,0.2-3,0.7-6.5
							c3.4-24.1-1.2-30.6-29.7-41.8c-27-10.6-33.7-23-29.3-54c1.4-10.1-0.7-20.3-4.9-28c-7.1-12.5-22.7-12.3-33.9-23.7
							c-9.3-9.7-10.4-23.4-2.7-46.9c4.8-14.6,5.5-20.1,1.6-32.1c-2.5-8-3.5-8.7-3.5-8.7L-19831.6,5004.8z M-20155.9,5010.2l15.9,4.3
							l-11.8,12.4L-20155.9,5010.2z M-19526.8,5009.8c5.4-0.2,16,1.7,24.6,5.9c19.8,9.7,23.4,17.8,6.1,13.5
							c-9.8-2.4-23.8-1.8-37.3,1.7c-14.3,3.6-14,3.8-9.1-4.9C-19536.3,5015-19534.7,5010.1-19526.8,5009.8z M-19598,5014.4
							c12-0.3,24.1,3.1,35.4,7.3l-3.6,6.2c-7.9-1.3-16.1-5.1-28.1-4c5,9.4,10.8,14.2,18.6,22.4l-2.9,6.2
							c-0.7,0.8-22.9-17.4-27.4-29.8C-19607.8,5017.1-19606,5014.6-19598,5014.4z M-19857.5,5017.3c5.9,0,10.7,4.7,10.8,10.6
							c0,5.9-4.7,10.8-10.6,10.8c-5.9,0-10.7-4.7-10.8-10.7C-19868.2,5022.2-19863.5,5017.4-19857.5,5017.3z M-19635.9,5016.3
							c0,0,17.6,34.4,16.5,35.7c-10.8,4.8-22.6,7.4-34.4,11.8l2.2-10c0,0,4-0.3,17.2-5.4c6.3-2.5-7.1-20.1-7.1-20.1L-19635.9,5016.3
							z M-19706.7,5019.3l18.1,3.1l-12,13.6L-19706.7,5019.3z M-20044.8,5021.5c4.3-0.4,10.9,7.9,10.9,7.9l-21.7,30.4
							c-10.4-2-8.3-17.8,1.2-18.4c2.2,0,6.2,0.4,6.2,0.4s-2.9-1.6-4.7-3.8C-20059.2,5030.2-20053.2,5022.2-20044.8,5021.5z
							 M-19756.5,5027.2c25.5,0.1,26,31.3,21.1,41.6c-3.5,7.1-8.9,11.1-25.1,18.5c-14.1,6.5-15.7,6-15.7,6l-3.4-7.5
							c0,0,8.2-3.7,17-7.3c18.3-7.5,22.7-13.2,20.6-26.4c-2.9-18.7-17.4-21.6-45.4-8.8c-3.2,1.5-7.3,3-7.3,3l-1.9-3.8
							c0.4-0.4,22.4-12,34.7-15C-19760,5027.4-19758.2,5027.2-19756.5,5027.2z M-20150.1,5033l14.4,4.7l-10.4,10.4L-20150.1,5033z
							 M-19508.6,5033.2c12.7-0.1,23.2,2,23.2,6.5c0,2.2-0.5,2.3-11.9,4c-17.4,2.5-46.3,17.5-62.5,31.4c-9.6,8.2-7.1,6.3-3.1-5.5
							c4-11.8,9.9-25.8,13.2-28C-19541.6,5036.1-19523,5033.3-19508.6,5033.2z M-19716.7,5036.1l12.3,2.6l-7.9,7.8L-19716.7,5036.1z
							 M-19757.7,5042.9c4.4-0.1,6.6,2,8.3,6.1c3.8,9,0.1,14.4-14,20.6c-6.4,2.9-12.1,7-19.2,8.3l-9.1-23.9c0,0,2.8-1.1,12.1-4.9
							C-19769,5044.7-19762.1,5043-19757.7,5042.9z M-19799.1,5046.1c28.8,80,63.8,131.8,100.7,174.8l-8.8,5.6
							c-39.2-45.9-75.4-99.7-101.7-179L-19799.1,5046.1z M-19485.9,5046.7c1.2,0.1,1.8,0.6,1.6,1.4c0,3.4-50.7,52-79.7,76.7
							c-13.2,11.3-12.8,11.2-13.9,9.8c-0.8-8.3,4.7-38.1,8.1-43.3c19.3-20.7,49.3-37.7,78.5-44.1
							C-19489,5046.8-19487.2,5046.6-19485.9,5046.7z M-19759.8,5048.7c-3.4,0.1-8.6,2.2-15.4,4.9c-10,3.9-10.8,8.6-6.3,14.3
							c2,2.5,4,1.9,13.6-1.9c9.8-3.9,14-5.7,14.6-9.2C-19752.5,5051.7-19755.3,5048.6-19759.8,5048.7z M-19758.8,5051.4
							c1.8,0,3.4,1.6,3.4,3.7c0,1.6-2.2,3.1-4.6,3.1c-0.8,0-2.8,0.5-4.1,1.8c-1.2,1.8-2.1,3.6-4.3,3.2c-1.3-0.2-3.8-0.3-4.7,0.5
							c-4.5,3.9-8.9,0.7-6.9-3.2c0.5-1,2.3-1.5,3.8-1.5c1.3,0,4.2-0.3,4.6-1.9c0.5-1.9,3.4-2.4,5.3-2.3c2.2,0.3,3.9-0.8,4.5-1.7
							c0.8-0.7,1.7-1.5,2.6-1.5C-19759.1,5051.4-19759,5051.4-19758.8,5051.4L-19758.8,5051.4z M-19989.3,5053.4
							c5.9,0,10.8,4.7,10.8,10.6c0,5.9-4.7,10.8-10.7,10.8c-5.9,0-10.7-4.7-10.8-10.7
							C-19999.9,5058.2-19995.2,5053.4-19989.3,5053.4z M-20144.1,5054.5l16.2,2.1l-10.1,13.2L-20144.1,5054.5z M-19820.2,5060.9
							c5.9,0,10.7,4.7,10.8,10.6c0,5.9-4.7,10.7-10.6,10.8c-5.9,0-10.7-4.7-10.8-10.6
							C-19830.9,5065.7-19826.1,5060.9-19820.2,5060.9z M-20136.8,5074.8l17.6,1l-10,13.5L-20136.8,5074.8z M-20043.8,5076.9
							c5.9,0,10.7,4.7,10.8,10.6c0,5.9-4.7,10.7-10.6,10.8c-5.9,0-10.7-4.7-10.8-10.6S-20049.8,5076.9-20043.8,5076.9z
							 M-19604.1,5080.9c7.3-0.2,15.9,0.5,15.9,0.5l-2,8.2c-8.9,0.9-20.4-1.5-30,2.6c3.6,5.8,24.5,13.9,26.9,16
							c0.2,0.9-1.7,8.7-1.7,8.7c0.6,2-35.4-14.4-36.7-28.4C-19631.8,5083.9-19616.3,5081.2-19604.1,5080.9z M-19727.6,5090.2
							c20.4,0.1,30.7,28.5,22.8,41.2c-3.1,5.7-10.2,12.5-19.5,18.5c-4.5,2.9-16.4,8.8-16.4,8.8l-5.4-8.2c0,0,4.7-1.9,9.2-4.4
							c11.2-6.4,33.9-20.1,22.8-38.4c-6.2-9.9-15.5-11.8-34.7-1.9c-14.3,7.4-17.6,8.1-17.6,8.1l-3.7-6.6
							C-19769,5107.7-19741.4,5090.9-19727.6,5090.2z M-19661.8,5090.9c9.9,18.8,26.6,32.9,31.2,36.3c0,0-16.5,10.8-26.4,17.6
							l-5.9-6.8l14.2-12.3l-16.2-22.3L-19661.8,5090.9z M-20126,5095.5l16-0.1l-6.8,14.5L-20126,5095.5L-20126,5095.5z
							 M-19505.4,5094.5c-1.8,9.3-2,19.2-2.7,30.1c3.5,3.2,6.7,4.8,9.5,4.6c3-9.8,5.2-20.9,3.7-32.4
							C-19497.9,5094.6-19501.8,5094.9-19505.4,5094.5z M-19500.6,5097.3c0.4-0.1,0.8-0.1,1.3,0.1c2,1,1.8,2.4,1.9,4.2
							c0,6.1,0.9,13.8-1.7,19.7c-1.5,3.4-4.9,2.1-5-2.4c-0.2-6.2,1-11.4,1.4-17.1C-19502.6,5099.4-19501.8,5097.7-19500.6,5097.3z
							 M-19728.7,5107.1c10.5,0.7,14.6,9.5,10.8,15.8c-9.4,12.2-19.1,14.5-31.6,21.6l-12.6-23.2
							C-19762.1,5121.4-19737.9,5107.5-19728.7,5107.1z M-19729,5112.3c-7,0.9-11.3,4.3-17.2,7.2c-7.1,3.5-9.4,9-4.6,13.9
							c5.4,5.9,24-8.4,27.1-11.9c1.9-3,1.5-5.7-1.1-7.8C-19725.9,5112.9-19727.3,5112.4-19729,5112.3z M-20112.7,5115.6l15.7,0.1
							l-8.4,12L-20112.7,5115.6z M-19729.3,5115.2c0.7,0,1.3,0.3,1.8,0.6c2.7,1.9,2.5,5.3-1.3,6.3c-1.9,0.5-5.2,0.5-5.2,3.1
							c0,1.9-2.9,2.6-4.6,2.4c-1.7-0.3-4.5-0.4-5.1,1.7c-1.4,2.9-2.5,2.9-4.5,0.9c-2.2-2.2-1.2-4.9,3-5.4c1.8-0.2,3.4-1.5,4-2.9
							c-0.1-1.8,1.1-2.8,3.1-2.4c2.8,0,4.6-1.1,6.6-3.7C-19730.7,5115.2-19730,5115.1-19729.3,5115.2z M-19819.2,5116.6
							c5.9,0,10.7,4.7,10.8,10.6s-4.7,10.8-10.6,10.8c-5.9,0-10.7-4.7-10.8-10.7C-19829.9,5121.5-19825.1,5116.7-19819.2,5116.6z
							 M-20047.6,5137.7c5.9,0,10.8,4.7,10.8,10.7s-4.7,10.7-10.7,10.8c-5.9,0-10.7-4.7-10.8-10.6
							C-20058.3,5142.5-20053.5,5137.7-20047.6,5137.7z M-19596.9,5144.1l0.1,8.1c0.3,0.4-16.6,7.9-26.5,12.5
							c-3.2,1.8-1.9,5.2-1.7,8.7l-4.8,3.3c0,0-6.6-4.8-7.5-7.9C-19639.7,5159-19608.7,5147.1-19596.9,5144.1L-19596.9,5144.1z
							 M-20303.6,5148.7l123.1,83.1l-8.3,12.3l-114.3-76.7L-20303.6,5148.7L-20303.6,5148.7z M-19688.2,5147.8
							c8,0,14.1,4.5,20.2,13.7c11.9,18.3,6.1,32.8-18.3,47.8c-11.3,6.9-11.4,7-11.4,7l-5.8-7.1c0,0,8.3-4.9,11.7-7.1
							c20-12.8,25.6-24.1,16.7-36.7c-8.6-12.1-17.5-11.1-42.3,4.8c-5,3.2-11,5.8-11,5.8l-5.5-7.4c0,0,14-7.3,18.8-10.4
							C-19704.2,5151.2-19695.2,5147.8-19688.2,5147.8z M-19773.8,5153.8c5.9,0,10.8,4.7,10.8,10.6s-4.7,10.8-10.7,10.8
							c-5.9,0-10.7-4.7-10.8-10.7S-19779.7,5153.8-19773.8,5153.8z M-20105.8,5158.7c5.9,0,10.7,4.7,10.8,10.6
							c0,5.9-4.7,10.7-10.6,10.8c-5.9,0-10.7-4.7-10.8-10.6S-20111.7,5158.8-20105.8,5158.7z M-19688.6,5164.8
							c4.1-0.2,7.1,2.5,8.8,6.5c4.3,10.3-1.4,18-22.3,29.9c-1.8,1-5.5,3-5.5,3l-15.6-21.2c0,0,5.4-3.8,10.5-6.9
							C-19701.1,5168.6-19693.8,5165-19688.6,5164.8z M-19690.6,5169.9c-1,0-2.1,0.4-3.4,1.2c-5.4,3.1-14.3,6.5-18.5,12.2
							c-2.5,3.4-1.3,6.9,3.4,11.2c4,2.6,24.5-12.6,25-17C-19686,5172.8-19687.6,5169.8-19690.6,5169.9z M-20302.6,5174.7l3.4,2.3
							l-3.4,2.7L-20302.6,5174.7z M-19690.4,5173.7c1.3,0.1,2.5,0.4,3.1,1.1c1.5,1.8,0.6,5-2.6,5.6c-1.6,0.3-4,0.7-4.8,3.1
							c-0.6,1.6-2.8,2.9-5,2.9c-2.5-0.6-3.8,1-4,2.1c-1.2,2.1-4.3,2.5-6.2,0.5c-1.5-1.5,1.1-6,2.8-6c0.3,0.1,2.2,0.6,4.5-2.5
							c0.5-2.2,3-3.6,4.9-3.5c1.9,0.6,3-1.5,3.8-2.7C-19693,5173.8-19691.6,5173.6-19690.4,5173.7z M-20294.4,5180l4.9,3.3l-13,9.4
							l0-7.5L-20294.4,5180z M-20284.9,5186.2l6.7,4.4l-24.3,17.6l-0.1-9.5L-20284.9,5186.2z M-20272.3,5194.1l7.1,4.6l-37.1,25.4
							l-0.1-9.7L-20272.3,5194.1z M-20258.8,5200.8l0,8.1l-43.4,30.7l0-8.2L-20258.8,5200.8z M-20253.9,5206.6l9.4,6.4l4,274.5
							l-58.5,40.7l0-12l49.1-36L-20253.9,5206.6L-20253.9,5206.6z M-19544.8,5209.8c-13.1,15.1-30.8,16.2-46.2,15.9
							c-41.5,0.8-67.3,3.2-72.4,52.8c16.9-12.8,34.8-14.5,55.6-14c26.3-0.2,38.1-2,48.8-7.4c17.1-8.7,27.9-24.1,25.8-34.8
							C-19535.3,5220-19540.7,5210.4-19544.8,5209.8z M-20258.7,5216.5l0.1,9.5l-43.5,29.5l-0.1-9.6L-20258.7,5216.5z
							 M-19760.6,5214.4c5.9,0,10.8,4.7,10.8,10.6s-4.7,10.7-10.7,10.8c-5.9,0-10.7-4.7-10.8-10.6
							C-19771.3,5219.3-19766.5,5214.4-19760.6,5214.4z M-20045.4,5217.2c77.1,1.9,240.8,0,240.8,0l8.8,12.5l-257.4-1.2
							L-20045.4,5217.2z M-19543,5214.7c2.4-0.2,2.7,3-2.2,7.8c-9.2,9.1-18.7,13.6-49,13.2c-32-0.4-44.5,4.7-52.7,19.1
							c-2.4,4.2-2.3,5.8,1.1,2.6c2.9-3.5,9.5-10.2,12.3-3.9c5.4-3.6,10.1-9,13-2.2c1.6-0.4,10.7-9.7,13-1.5c4.4-5,8.2-6.5,10.3,0.5
							c6.3-3,9.5-8.7,13.2-0.9c5-3.6,8.8-8.2,11.8-1.3c4.3-1.3,8.6-9.2,11.2-2.9c0.5,0.2,16-9.3,20.3-18.6c3.6-8.2,6.9-2.8,2.9,5.6
							c-10.4,20.5-28.4,28.1-69.9,28.4c-25.2,0.2-35.5,2.7-43.4,7.4c-12.6,7.5-5.9-11.2,2.9-22.5c11.1-14.3,23.9-18.6,58.9-17.5
							c19.1,0,31.3-2.7,36.5-6.9C-19548.5,5217.3-19545.4,5214.8-19543,5214.7z M-20111.5,5222.3c5.9,0,10.8,4.7,10.8,10.7
							c0,5.9-4.7,10.7-10.7,10.8c-5.9,0-10.7-4.7-10.8-10.6C-20122.2,5227.2-20117.4,5222.4-20111.5,5222.3z M-20258.7,5231.2
							l0.1,9.7l-43.4,30l-0.1-9.9L-20258.7,5231.2z M-20047.7,5234.5l33.8-0.2l0.2,35.7l-33.8,0.2L-20047.7,5234.5z
							 M-19971.9,5234.1l36.4-0.2l0.2,35.7l-36.4,0.2L-19971.9,5234.1z M-19890.8,5234.8l35.1-0.2l0.2,34.6l-35.1,0.2
							L-19890.8,5234.8z M-19814.6,5235l23.4,0.7c0,0,13.1,16.4,18.6,24l-17.2,9l-24.6,0.2L-19814.6,5235L-19814.6,5235z
							 M-20031.4,5238.7c-6.6,0-11.9,5.4-11.9,12c0,6.6,5.4,11.9,12,11.9c6.6,0,11.9-5.4,11.9-12
							C-20019.5,5244-20024.8,5238.7-20031.4,5238.7z M-19953.6,5239.4c-6.6,0-11.9,5.4-11.9,12s5.4,11.9,12,11.9
							c6.6,0,11.9-5.4,11.9-12S-19947,5239.4-19953.6,5239.4z M-19874,5239.3c-6.6,0-11.9,5.4-11.9,12c0,6.6,5.4,11.9,12,11.9
							c6.6,0,11.9-5.4,11.9-12S-19867.4,5239.2-19874,5239.3z M-20063.9,5242.8c2.4,1.7,3.9,4.4,3.9,7.5c0,5.1-4.1,9.3-9.2,9.3
							c-1.8,0-3.5-0.5-4.9-1.4L-20063.9,5242.8z M-20031.4,5242.7c4.4,0,7.9,3.5,8,7.8c0,4.4-3.5,7.9-7.9,7.9
							c-4.4,0-7.9-3.5-7.9-7.8C-20039.3,5246.3-20035.7,5242.8-20031.4,5242.7z M-19835,5241.9c5.3,0,9.6,4.2,9.6,9.5
							s-4.2,9.6-9.5,9.6c-5.3,0-9.6-4.2-9.6-9.5S-19840.3,5241.9-19835,5241.9z M-19794.7,5241.7c-6.6,0-11.9,5.4-11.9,12
							s5.4,11.9,12,11.9c6.6,0,11.9-5.4,11.9-12S-19788.1,5241.6-19794.7,5241.7z M-19992.8,5243.2c5.3,0,9.6,4.2,9.6,9.5
							s-4.2,9.6-9.5,9.6c-5.3,0-9.6-4.2-9.6-9.5C-20002.3,5247.5-19998,5243.2-19992.8,5243.2z M-19953.5,5243.5
							c4.4,0,7.9,3.5,8,7.8s-3.5,7.9-7.9,7.9c-4.4,0-7.9-3.5-7.9-7.8S-19957.9,5243.5-19953.5,5243.5z M-20258.6,5245.4l0.1,9.6
							l-43.4,30.7l-0.1-9.4L-20258.6,5245.4z M-19873.9,5243.3c4.4,0,7.9,3.5,7.9,7.8c0,4.4-3.5,7.9-7.8,8c-4.4,0-7.9-3.5-8-7.9
							S-19878.3,5243.3-19873.9,5243.3z M-19913.8,5244.5c5.3,0,9.6,4.2,9.6,9.5s-4.2,9.6-9.5,9.6c-5.3,0-9.6-4.2-9.6-9.5
							S-19919.1,5244.6-19913.8,5244.5z M-19794.7,5245.7c4.4,0,7.9,3.5,8,7.8c0,4.4-3.5,7.9-7.9,7.9s-7.9-3.5-7.9-7.8
							S-19799.1,5245.7-19794.7,5245.7z M-20133.9,5256c20.3-0.4,42.4,9.8,54.9,26.9c18.9,25,31.6,56.9,37.6,98.9
							c2.9,20.8,13,83.2,18.6,97.9l-7.6-1.4c-1,0.5-11-39.2-17.4-91.7c-2.4-19.4-6.7-44.5-18.1-67.4c-13-26.1-35.1-53.7-64.3-55.7
							c-17-1.2-33,9.6-34.6,24.6c-2.4,11.9,4.6,22.9,13.8,26.6c9,3.6,19.7,0.8,20.8-11.4c0.2-2,0-4-0.8-5.9c4.2-0.7,7.3,1.2,9,4.6
							c0.9,0.1,0.1,17.7-13.7,21.3c-16.7,5.6-36.1-10.9-37.7-27.7c-1.2-14.2,9.5-31.8,23.1-36.7
							C-20145.2,5257-20139.6,5256.1-20133.9,5256z M-20258.5,5262.2l0.1,9.8l-43.4,30.4l-0.1-9.9L-20258.5,5262.2z
							 M-20132.9,5267.7c24.4-0.8,48.3,26.2,58.5,44.1c10.6,18.6,19.1,48.3,22.1,76.2c5.2,47.5,14.5,86.3,16.4,88.1l-6.7-1.4
							c-1.4,0.9-10.8-41.9-16.7-89.7c-3.3-26.8-13.4-53.3-25.3-73.7c-11-18.8-25.8-32.8-43.3-34.8c-10.9-1-22.1,2.2-24.3,13.7
							c-1.1,6.8,2.4,13.4,10.5,13.9c1.9,0.1,3.7,0.3,4,0.3c4.2,0.7-2.4,7.7-6.8,7.1c-15.7-2.1-23-22.9-10.7-34.1
							C-20147.9,5270.8-20140.4,5267.9-20132.9,5267.7z M-20080.6,5274.3l274,1.2c0,0,0.3,4.9-16.8,4.2c-14.5-0.6-23.9,1.5-33.5,4.6
							l-215.3,0.8L-20080.6,5274.3z M-20258.4,5278.6l0.1,9.1l-43.4,30.8l-0.1-10L-20258.4,5278.6z M-20131,5281.7
							c5.3-0.1,10.6,1.2,14.7,3.5c34.1,19.5,47.3,68.2,52,98.9c6.4,45.5,13.7,87.7,15.6,88.7l-7.4-1.6c-1,0-9.3-39.4-14.6-83.5
							c-4.3-35.7-16.7-71.5-41-86.5c-15.6-10.5-18.7-11.5-25.8-5.3c-6.2,5.4-12.5-2.6-7.4-9.2
							C-20141.4,5283.3-20136.3,5281.8-20131,5281.7z M-20258.3,5294.7l0,7.5l-43.4,30.6l-0.1-8.9L-20258.3,5294.7z
							 M-20058.8,5293.8c0.6-0.5,23.8,38.4,31.4,100c4,32.4,15.3,87.6,17.1,88.1l-8-0.8c-8.3-32.6-13-63.4-17.6-91.2
							c-5.1-31.4-9.2-59.4-29.1-95.8L-20058.8,5293.8C-20058.9,5293.8-20058.8,5293.8-20058.8,5293.8L-20058.8,5293.8z
							 M-20053.6,5294.1l7.1,0.1c12.3,23.1,25.5,59.1,30.2,95.2c4,31.2,8.1,62.9,19.5,95.9l-7.7-2.1c-9.8-26.8-13.3-59.2-18.7-92.7
							C-20029.1,5353.3-20038.2,5321-20053.6,5294.1L-20053.6,5294.1z M-20009.6,5293.8c12.7,32.2,20.9,47.6,26.8,87.3
							c4.6,30.8,11.1,69.3,25.5,110.1l-7.2-0.3c-10.7-28.1-19-65.9-22.9-102.1c-5.3-49.3-27.7-95.1-27.9-94.8L-20009.6,5293.8
							L-20009.6,5293.8z M-20021.9,5294c0.7-1,24,45.1,29.7,95.8c3.8,33.8,11.9,67.2,22.9,99.4l-7.4-0.1
							c-8.6-9.8-15.2-56.4-22.5-100c-7.4-44.4-17.7-71.7-29.1-95L-20021.9,5294C-20021.9,5294.1-20021.9,5294-20021.9,5294
							L-20021.9,5294z M-20040.5,5294.2l6.5,0c17.4,37.3,24.6,59.6,30.1,95.7c6.9,45.7,13.6,87,20.7,97.7l-8-0.5
							c-11.2-32.9-16.4-65.9-20.5-98.9C-20016.1,5352.6-20026.6,5322.1-20040.5,5294.2L-20040.5,5294.2z M-20004.4,5294.3l7.8,0.1
							c13.6,27.1,24.9,60,29,97.8c2.3,20.5,6.2,51.9,21.9,100.2l-6.2-0.4c-12.8-32.4-20.6-70.7-25.3-104
							C-19981.9,5354.4-19990.1,5326.6-20004.4,5294.3L-20004.4,5294.3z M-19956.5,5294.2c7.5,18.8,13.6,37.5,17.7,56.7l-4.3,8.6
							c-7-25.4-14.9-45.1-22.8-65.1L-19956.5,5294.2z M-19992,5294.5l9.5,0.2c16.5,37.7,25.1,77.6,27.5,91c0,0,2.3,11.8,2.5,15.7
							c-0.4,33,5.5,56.5,18,91.9l-5.6-0.4c-14.5-41.2-18.5-70.4-22.3-98.4C-19965.7,5359.3-19977.4,5323.1-19992,5294.5
							L-19992,5294.5z M-19970.1,5294.6c9.8,24.2,17.4,47.5,24.2,70.8c-0.3,5.3-0.7,11.1-4.2,15.4c-8.1-28.5-14.9-58.2-27.3-86.1
							L-19970.1,5294.6L-19970.1,5294.6z M-19952.2,5294.7l7.5,0.1l15.2,42.7l-5.8,6.5
							C-19939.8,5329.9-19944.4,5314.3-19952.2,5294.7z M-19908.4,5294.8l5.6,12.8l-5.9,5c0,0-6.1-12-7.7-17.7L-19908.4,5294.8z
							 M-19897.3,5294.7l2.8,7.4l-4.9,3.8l-3.9-11L-19897.3,5294.7z M-19940.2,5295.1l7.7,0c3.2,9,11.6,31,11.6,31l-5.5,5.9
							C-19926.4,5331.9-19937,5304.1-19940.2,5295.1L-19940.2,5295.1z M-19928.2,5295l6.8,0c2.1,5.8,8.6,22,8.6,22l-4.7,4.5
							L-19928.2,5295z M-19892.4,5295.1l6.8,0.3l-0.8,1.7l-4.2,2.1L-19892.4,5295.1z M-20114.6,5306c28.5,14.8,36.6,59.5,39.8,84.2
							c5.6,43,11.9,77.9,13.1,78.8l-6.3-1c0,0-4.8-22.1-8.1-43.1c-2.8-17.5-4.9-32.1-5.7-38.8c-0.5-4.2-1.2-9.1-1.6-10.8
							c-4.1-17.6-5.4-21.7-10.5-32.4c-5-10.3-6.7-12.9-14.9-22c-3.2-3.5-6.2-6.1-7.3-8.3C-20117.7,5309.4-20114.6,5306-20114.6,5306
							z M-20258.2,5309.1l0,8.4l-43.4,31.1l-0.1-9.7L-20258.2,5309.1z M-20258.1,5323.9l0.1,9.7l-43.5,29l-0.1-8.6L-20258.1,5323.9z
							 M-20258,5340.5l0.1,9l-43.4,30.7l-0.1-9.3L-20258,5340.5z M-20185.1,5349.2l3.8,0l0.3,6.3l-5.9-0.3L-20185.1,5349.2
							L-20185.1,5349.2z M-20257.9,5357.4l0.1,9.6l-43.5,29.1l-0.1-9L-20257.9,5357.4z M-20189.5,5360.7l9.2,0l-0.1,6.6l-11.9-0.3
							L-20189.5,5360.7L-20189.5,5360.7z M-20194.8,5371.4l15.1,0.2l0,6.3l-18.8-0.2L-20194.8,5371.4L-20194.8,5371.4z
							 M-20257.8,5373.1l0.1,10.1l-43.5,29.3l-0.1-10.2L-20257.8,5373.1z M-20202.5,5383.3l22.2,0.1l-0.1,5.3l-26.5,0
							L-20202.5,5383.3z M-20257.7,5389.5l0.1,9.9l-43.5,28.2l-0.1-8.9L-20257.7,5389.5z M-20211.7,5393.9l30.5,0.2l-0.7,5.1
							l-34.7,0.1L-20211.7,5393.9L-20211.7,5393.9z M-20257.6,5405l0.1,9.5l-43.5,28.7l-0.1-9.2L-20257.6,5405z M-20223,5404.8
							l40.1,0.7l8.5,7.6l-62.4,0.7L-20223,5404.8L-20223,5404.8z M-20235.1,5418.9l68.9,0.4l4.8,4.4l-73.9,0.7L-20235.1,5418.9
							L-20235.1,5418.9z M-20257.5,5421.2l0.1,10.1l-43.5,28.8l-0.1-9.2L-20257.5,5421.2z M-20234.9,5429.9l76.4-0.1l-5.5,6.2
							l-70.9,0.6L-20234.9,5429.9L-20234.9,5429.9z M-20257.4,5437.7l0.1,9.2l-43.4,29.9l-0.1-10.6L-20257.4,5437.7z
							 M-20236.8,5442.4l66-0.2l-7.7,6.1l-45.6,1.3L-20236.8,5442.4L-20236.8,5442.4z M-20257.3,5454l0.1,8.8l-43.4,31.5l-0.1-9.9
							L-20257.3,5454z M-20217.4,5454.9l38.8-0.1l0.8,5.2l-33.3,0.1L-20217.4,5454.9z M-20206.6,5465.5l29.7,0.1l1.4,6.7l-26.5-0.2
							L-20206.6,5465.5L-20206.6,5465.5z M-20257.2,5470.5l0,8.2l-43.4,30.7l-0.1-9.1L-20257.2,5470.5z M-20174.7,5476.8l0.4,6.4
							l-17.7,0.8l-5-6.7L-20174.7,5476.8L-20174.7,5476.8z M-20174.8,5488.1l-0.1,6.7l-12.4,0.3l-2.8-6.5L-20174.8,5488.1
							L-20174.8,5488.1z M-20185.7,5500.2l9.8,0l-0.8,5.2l-7.6,0.1L-20185.7,5500.2L-20185.7,5500.2z M-20182.7,5512.6l4.8,0
							l-0.8,4.1l-2.4,0L-20182.7,5512.6z M-20085.8,5580.4l-2.3,2.9l68.2-0.4l0.7-2.9L-20085.8,5580.4z M-19997.9,5579.9l-1.2,4
							l30.8-0.2l0.8-4L-19997.9,5579.9z M-19947.6,5580.4l-0.9,3.7l78.7-0.5l-1.3-3.7L-19947.6,5580.4z M-19853.5,5579.9l1.6,4.5
							l26.5-0.2l-1.8-4.5L-19853.5,5579.9z M-19762.2,5579.3l-46.5,0.3l1.7,5l48.1-0.3L-19762.2,5579.3L-19762.2,5579.3z"/>
					</g>
				</g>
			</g>
		</g>
	</g>
	<path id="path163-0-2-5-8-7-5-0-7-4_1_" class="st0" d="M46,59.9
		c0,0-3.7-6.1-8.7-13.3c-3.4-4.8-6-10-6.3-14.5c-0.3-5.1,2.4-10.3,7.3-10.5c4.9-0.2,6.9,3.9,7.7,7.4c0.8-3.5,2.8-7.7,7.7-7.4
		c4.9,0.2,7.6,5.4,7.3,10.5c-0.2,4.5-2.9,9.7-6.3,14.5C49.7,53.8,46,59.9,46,59.9L46,59.9z"/>
	<path id="path163-0-2-5-8-7-7-8-0-0-6_1_" class="st0" d="
		M128.4,179.8c0,0-3.7,6.1-8.7,13.3c-3.4,4.8-6,10-6.3,14.5c-0.3,5.1,2.4,10.3,7.3,10.5c4.9,0.2,6.9-3.9,7.7-7.4
		c0.8,3.5,2.8,7.7,7.7,7.4c4.9-0.2,7.6-5.4,7.3-10.5c-0.2-4.5-2.9-9.7-6.3-14.5C132.1,185.9,128.4,179.8,128.4,179.8z"/>
</g>
</svg>
