<svg xmlns="http://www.w3.org/2000/svg" width="1161" height="1761.9" viewBox="0 0 1161 1761.9"><style type="text/css">.st0{fill:#FFFFFF;}</style><path class="st0" d="M1161 1224.9c-1.5 1-3.1 1.8-4.4 3.1-55.9 55.8-111.7 111.6-167.5 167.6-3.4 3.4-5.1 3.6-8.6.1-65.6-65.9-131.4-131.6-197.2-197.4-5.5-5.5-5.5-5.5-11.1.1-65.7 65.8-131.5 131.5-197.2 197.3-3.5 3.5-5.4 3.3-8.8-.1-31.6-31.8-63.3-63.5-95-95.2-4.8-4.8-4.8-4.8 0-9.7L876 885.9c4.2-4.2 4.3-4.5-.4-9.1-134-134.2-268.4-268.6-402.7-402.9-1.1-1.1-2.1-2.2-3.2-3.2-2.6-2.3-2.3-4.2.2-6.6 32.7-32.6 65.3-65.2 97.9-97.9 3.2-3.2 4.9-.9 6.9 1.1l60.8 60.8c46 46 92 91.9 137.8 138 3.7 3.7 5.7 3.4 9.1 0 66-66.2 132.1-132.2 198.3-198.3 1.3-1.3 2.6-2.5 5.2-4.9 2.9 3.5 5.5 7 8.5 10 53.6 53.7 107.2 107.3 160.8 160.8 1.7 1.7 3.9 2.8 5.8 4.2v209c-2.4-2-4.9-3.9-7.1-6.1C1099 685.9 1044.1 631 989.3 576c-3.4-3.4-5.3-3.6-8.8-.1-31.1 31.3-62.4 62.5-93.6 93.7-4.9 4.9-4.9 5-.2 9.7 66 66 131.9 132 197.9 197.9 2.5 2.5 4.6 4.3.9 8-66.4 66.2-132.7 132.6-199.2 198.8-3.5 3.5-3.5 5.4-.1 8.8 27.2 27 54.3 54.1 81.3 81.3 5.6 5.6 10.9 11.6 16.4 17.6 2.2-2 3.4-2.9 4.4-4 56.4-56.5 112.8-112.9 169.2-169.3.8-.8 2.2-1.1 3.3-1.7.2 69.5.2 138.8.2 208.2zM2 1761.9c.6-1.2 1-2.7 2-3.7 118.2-118.2 236.3-236.4 354.5-354.5 5.4-5.4 5.3-5.4 10.8 0 31.4 31.5 62.9 62.9 94.3 94.4 4.4 4.4 4.4 4.7-.1 9.1-82.9 83-165.9 165.9-248.8 248.9-1.7 1.7-3.1 3.8-4.7 5.7-69.3.1-138.7.1-208 .1zM416 1761.9c.6-1.1.9-2.5 1.7-3.3 118-118 236-236 354.1-354 6-6 6-6 12-.1 31.2 31.2 62.4 62.5 93.7 93.6 3.4 3.4 4 5.3.2 9-83.6 83.4-167.1 166.9-250.6 250.5-1.2 1.2-2.1 2.9-3.1 4.4-69.3-.1-138.7-.1-208-.1zM1161 332.9c-1.1-.7-2.4-1.1-3.3-2C1067.9 241 978 151.1 888.2 61.2 869.1 42.2 850 23.1 830.9 4c-.7-.7-1.2-1.5-2.4-3.1 2.2-.4 3.7-.8 5.2-.8 65.8 0 131.6-.1 197.4.2 2.8 0 6.3 2 8.4 4.1 38.9 38.6 77.6 77.4 116.4 116.1 1.4 1.4 3.4 2.3 5.1 3.4v209zM830 1761.9c.6-1.2 1-2.7 1.9-3.7 107.8-107.8 215.5-215.6 323.4-323.3 1.6-1.6 3.8-2.7 5.7-4.1v208c-1.7 1.3-3.6 2.4-5 3.9-38.2 38.1-76.3 76.2-114.4 114.4-1.4 1.4-2.4 3.1-3.6 4.7-69.3.1-138.7.1-208 .1zM0 .7C3.1.4 4.8.1 6.5.1 71.3.1 136.1.1 200.9 0c4.7 0 8 1.5 11.3 4.8C296 88.6 379.7 172.4 463.5 256.1c4.4 4.4 4.3 4.6-.1 9.1l-94.7 94.7c-4.8 4.8-4.9 4.9-9.8 0L5.9 6.9C4.3 5.2 2.6 3.5 0 .7zM415.7.5c1.6-.1 3.1-.4 4.7-.4C485.7.1 551 .1 616.3 0c4.1 0 6.8 1.5 9.6 4.2C710 88.5 794.2 172.7 878.5 256.9c2.8 2.8 2.8 4.6 0 7.3-32.3 32.2-64.6 64.5-96.8 96.8-2.9 2.9-4.7 2.9-7.7-.1C657.4 244.2 540.6 127.4 423.8 10.7c-2.9-2.9-6.1-5.4-9.2-8.1.4-.7.7-1.4 1.1-2.1z"/></svg>