<svg xmlns="http://www.w3.org/2000/svg" width="215.7" height="209.7" viewBox="0 0 215.7 209.7"><style type="text/css">.st0{fill:none;stroke:#8E8E8E;stroke-miterlimit:10;} .st1{fill:#8E8E8E;} .st2{fill:none;stroke:#8E8E8E;stroke-miterlimit:10;stroke-dasharray:5;} .st3{fill:none;stroke:#8E8E8E;stroke-miterlimit:10;stroke-dasharray:1;}</style><path class="st0" d="M122 150.2h23.5c2.5 0 4.5 2 4.5 4.5v12.1c0 2.5-2 4.5-4.5 4.5h-14c-1.4 0-2.7-.8-3.4-2.1l-3-5.8c-.7-1.3-2-2.1-3.4-2.1h-14.9c-1.4 0-2.7.8-3.4 2l-3.1 5.8c-.7 1.2-2 2-3.4 2H77.4c-2.5 0-4.5-2-4.5-4.5v-12.1c0-2.5 2-4.5 4.5-4.5h28.9"/><path class="st0" d="M114.2 201.3H88.4c-2.5 0-4.5-2-4.5-4.5v-13.9c0-2.5 2-4.5 4.5-4.5h25.8c2.5 0 4.5 2 4.5 4.5v13.9c0 2.4-2 4.5-4.5 4.5zM116.5 171.2h-5.8c-1 0-1.8-.8-1.8-1.8v-3c0-1 .8-1.8 1.8-1.8h5.8c1 0 1.8.8 1.8 1.8v3c0 1-.8 1.8-1.8 1.8zM73 166.7v35c0 4.2 3.4 7.5 7.5 7.5h61.9c4.2 0 7.5-3.4 7.5-7.5v-35"/><circle class="st0" cx="134.5" cy="190.1" r="7.3"/><path class="st0" d="M103.8 162.7l2.8-12.1c.4-1.6 1.8-2.8 3.5-2.8h8.4c1.7 0 3.2 1.2 3.5 2.8l2.6 12M98.1 150.4l-.6-6.7c0-1.3 5.2-7.8 16-7.8s15 6.5 15 7.8l-.6 6.7M128.2 147.9l1.6-2.6c.8-1.3 1.3-2.7 1.4-4.3l.5-5.8c0-1.5-6-9.3-19.1-9.3s-18.4 7.8-18.4 9.3l.5 5.7c.1 1.6.7 3.1 1.5 4.5l1.5 2.3M132.6 81.2c.1-2.7 2.4-4.8 5-4.7 2.7.1 4.8 2.4 4.7 5M139.6 74.7l2.7-6.4M144.2 78.6l5.5-2.3M129.8 78.8l-6.4-2.7M133.7 74.2l-2.3-5.5"/><path class="st0" d="M88.7 75.8l-7.4 17h15.5zM96.8 92.8h21.5L103 67 93 84.3M99.1 73.7l3.1 4.3 2.1-4.3 3.9 2.1"/><path class="st0" d="M72.3 61.2h-.5c-.6-1.4-1.9-2.4-3.5-2.4s-2.9.9-3.5 2.3c-1.5 0-2.7 1.2-2.7 2.7 0 1.5 1.2 2.7 2.7 2.7.6 0 1.1-.2 1.6-.5.6.3 1.2.5 1.9.5.8 0 1.6-.3 2.2-.7.5.4 1.1.7 1.8.7 1.5 0 2.7-1.2 2.7-2.7 0-1.4-1.2-2.6-2.7-2.6z"/><path class="st1" d="M80.8 93.3l-14.7.2 16.5-4.2z"/><path class="st0" d="M85.8 82.8h-64M111.8 81.8h88"/><path class="st2" d="M93.5 132.6L.3 46.8M133.5 132.6l81.8-86.3"/><path class="st3" d="M5.8 45.3s97-82 202.5 1"/><path class="st1" d="M101.9.8l-1 .5-.1-.6L102 0h.6v5.6h-.7V.8zM104.6 4.3c0-.7.4-1.2 1.1-1.5-.6-.3-.9-.8-.9-1.3 0-.9.7-1.5 1.7-1.5 1.1 0 1.6.7 1.6 1.4 0 .5-.2 1-.9 1.3.7.3 1.1.8 1.1 1.4 0 1-.8 1.6-1.9 1.6-1.1.1-1.8-.6-1.8-1.4zm3-.1c0-.7-.5-1-1.2-1.2-.7.2-1 .6-1 1.2s.4 1.1 1.1 1.1c.6-.1 1.1-.5 1.1-1.1zm-2.1-2.8c0 .6.4.9 1.1 1 .5-.2.9-.5.9-1 0-.4-.3-.9-.9-.9-.8 0-1.1.5-1.1.9zM109.3 2.7V1.6h.7v.7c.2-.4.6-.8 1.3-.8.6 0 1 .3 1.2.8.1-.2.3-.4.5-.5.2-.2.5-.3.9-.3.6 0 1.4.4 1.4 1.8v2.5h-.7V3.3c0-.8-.3-1.3-.9-1.3-.4 0-.8.3-.9.7 0 .1-.1.2-.1.4v2.6h-.7V3.2c0-.7-.3-1.1-.9-1.1-.5 0-.8.4-.9.8 0 .1-.1.2-.1.4v2.5h-.7V2.7zM116.5 2.7V1.6h.7v.7c.2-.4.6-.8 1.3-.8.6 0 1 .3 1.2.8.1-.2.3-.4.5-.5.2-.2.5-.3.9-.3.6 0 1.4.4 1.4 1.8v2.5h-.7V3.3c0-.8-.3-1.3-.9-1.3-.4 0-.8.3-.9.7 0 .1-.1.2-.1.4v2.6h-.7V3.2c0-.7-.3-1.1-.9-1.1-.5 0-.8.4-.9.8 0 .1-.1.2-.1.4v2.5h-.7V2.7zM103.6 18.1h-2.1l-.2 1.4h.5c.4 0 .9.1 1.2.3.4.2.8.7.8 1.4 0 1.1-.9 1.9-2.1 1.9-.6 0-1.1-.2-1.4-.3l.2-.6c.2.1.7.3 1.2.3.7 0 1.3-.5 1.3-1.2s-.5-1.2-1.6-1.2c-.3 0-.6 0-.8.1l.4-2.7h2.7v.6zM108.4 20.2c0 1.9-.7 3-1.9 3-1.1 0-1.8-1-1.9-2.9 0-1.9.8-2.9 1.9-2.9 1.2 0 1.9 1 1.9 2.8zm-3.1.1c0 1.5.4 2.3 1.1 2.3.8 0 1.1-.9 1.1-2.3s-.4-2.3-1.1-2.3c-.6 0-1.1.8-1.1 2.3zM109.3 20v-1.1h.7v.7c.2-.4.6-.8 1.3-.8.6 0 1 .3 1.2.8.1-.2.3-.4.5-.5.2-.2.5-.3.9-.3.6 0 1.4.4 1.4 1.8v2.5h-.7v-2.4c0-.8-.3-1.3-.9-1.3-.4 0-.8.3-.9.7 0 .1-.1.2-.1.4v2.6h-.7v-2.5c0-.7-.3-1.1-.9-1.1-.5 0-.8.4-.9.8 0 .1-.1.2-.1.4v2.5h-.7V20zM116.5 20v-1.1h.7v.7c.2-.4.6-.8 1.3-.8.6 0 1 .3 1.2.8.1-.2.3-.4.5-.5.2-.2.5-.3.9-.3.6 0 1.4.4 1.4 1.8v2.5h-.7v-2.4c0-.8-.3-1.3-.9-1.3-.4 0-.8.3-.9.7 0 .1-.1.2-.1.4v2.6h-.7v-2.5c0-.7-.3-1.1-.9-1.1-.5 0-.8.4-.9.8 0 .1-.1.2-.1.4v2.5h-.7V20zM98.8 43c.2.1.7.4 1.2.4 1 0 1.3-.6 1.3-1.1 0-.8-.7-1.1-1.4-1.1h-.4v-.6h.4c.6 0 1.2-.3 1.2-.9 0-.4-.3-.8-1-.8-.4 0-.9.2-1.1.4l-.2-.6c.3-.2.9-.4 1.5-.4 1.1 0 1.6.7 1.6 1.3 0 .6-.3 1.1-1 1.3.7.1 1.2.7 1.2 1.4 0 .9-.7 1.7-2 1.7-.6 0-1.2-.2-1.5-.4l.2-.6zM106.8 41c0 1.9-.7 3-1.9 3-1.1 0-1.8-1-1.9-2.9 0-1.9.8-2.9 1.9-2.9 1.2 0 1.9 1 1.9 2.8zm-3.1.1c0 1.5.4 2.3 1.1 2.3.8 0 1.1-.9 1.1-2.3s-.4-2.3-1.1-2.3c-.6 0-1.1.8-1.1 2.3zM111.2 41c0 1.9-.7 3-1.9 3-1.1 0-1.8-1-1.9-2.9 0-1.9.8-2.9 1.9-2.9 1.2 0 1.9 1 1.9 2.8zm-3 .1c0 1.5.4 2.3 1.1 2.3.8 0 1.1-.9 1.1-2.3s-.4-2.3-1.1-2.3c-.7 0-1.1.8-1.1 2.3zM112.1 40.8v-1.1h.7v.7c.2-.4.6-.8 1.3-.8.6 0 1 .3 1.2.8.1-.2.3-.4.5-.5.2-.2.5-.3.9-.3.6 0 1.4.4 1.4 1.8v2.5h-.7v-2.4c0-.8-.3-1.3-.9-1.3-.4 0-.8.3-.9.7 0 .1-.1.2-.1.4v2.6h-.7v-2.5c0-.7-.3-1.1-.9-1.1-.5 0-.8.4-.9.8 0 .1-.1.2-.1.4V44h-.7v-3.2zM119.3 40.8v-1.1h.7v.7c.2-.4.6-.8 1.3-.8.6 0 1 .3 1.2.8.1-.2.3-.4.5-.5.2-.2.5-.3.9-.3.6 0 1.4.4 1.4 1.8v2.5h-.7v-2.4c0-.8-.3-1.3-.9-1.3-.4 0-.8.3-.9.7 0 .1-.1.2-.1.4v2.6h-.7v-2.5c0-.7-.3-1.1-.9-1.1-.5 0-.8.4-.9.8 0 .1-.1.2-.1.4V44h-.7v-3.2z"/><path class="st2" d="M86.3 121.8l-43.5-80M181.3 43.8l-43.5 80"/><path class="st3" d="M48.8 47.3s57.5-44.5 127.5 0"/><path class="st2" d="M84.8 53.3l9 75M132.8 128.3l9-75"/><path class="st3" d="M89.3 53.3s22-14 48 .5"/></svg>