<svg xmlns="http://www.w3.org/2000/svg" width="202.6" height="211.8" viewBox="0 0 202.6 211.8"><style type="text/css">.st0{fill:none;stroke:#8E8E8E;stroke-miterlimit:10;} .st1{fill:none;stroke:#8E8E8E;stroke-width:3;stroke-miterlimit:10;stroke-dasharray:1,3;} .st2{fill:#8E8E8E;} .st3{fill:none;stroke:#8E8E8E;stroke-miterlimit:10;stroke-dasharray:5;}</style><path class="st0" d="M97 170.3l-25.5 18.5M111 170.3l28 28M105.2 171.5l-4.7 40M65.5 189.3h13M130.5 198.3h13M93.5 211.3h13M112.7 111.7h23.5c2.5 0 4.5 2 4.5 4.5v12.1c0 2.5-2 4.5-4.5 4.5h-14c-1.4 0-2.7-.8-3.4-2.1l-3-5.8c-.7-1.3-2-2.1-3.4-2.1H97.6c-1.4 0-2.7.8-3.4 2l-3.1 5.8c-.7 1.2-2 2-3.4 2H68.1c-2.5 0-4.5-2-4.5-4.5V116c0-2.5 2-4.5 4.5-4.5H97"/><path class="st0" d="M104.9 162.8H79c-2.5 0-4.5-2-4.5-4.5v-13.9c0-2.5 2-4.5 4.5-4.5h25.8c2.5 0 4.5 2 4.5 4.5v13.9c.1 2.5-2 4.5-4.4 4.5zM107.2 132.7h-5.8c-1 0-1.8-.8-1.8-1.8v-3c0-1 .8-1.8 1.8-1.8h5.8c1 0 1.8.8 1.8 1.8v3c-.1 1-.9 1.8-1.8 1.8zM63.7 128.3v35c0 4.2 3.4 7.5 7.5 7.5h61.9c4.2 0 7.5-3.4 7.5-7.5v-35"/><circle class="st0" cx="125.2" cy="151.6" r="7.3"/><path class="st0" d="M94.5 124.3l2.8-12.1c.4-1.6 1.8-2.8 3.5-2.8h8.4c1.7 0 3.2 1.2 3.5 2.8l2.6 12M88.7 112l-.6-6.7c0-1.3 5.2-7.8 16-7.8s15 6.5 15 7.8l-.6 6.7M118.9 109.5l1.6-2.6c.8-1.3 1.3-2.7 1.4-4.3l.5-5.8c0-1.5-6-9.3-19.1-9.3s-18.4 7.8-18.4 9.3l.5 5.7c.1 1.6.7 3.1 1.5 4.5l1.5 2.3M135.3 22.8c.1-2.7 2.4-4.8 5-4.7 2.7.1 4.8 2.4 4.7 5M142.3 16.3l2.7-6.5M146.9 20.1l5.5-2.2M132.5 20.3l-6.5-2.6M136.3 15.8l-2.2-5.5"/><path class="st1" d="M183.6 163.8c8.1-18.8 10.1-40.2 4.8-61"/><path class="st2" d="M184.7 81.1l-9.4 4.3-.5-1.2 9.4-4.3.5 1.2zM177.7 86.7c-.1.7 0 1.6.4 2.5.6 1.2 1.5 1.7 2.5 1.2.9-.4 1.2-1.1 1.1-2.6-.2-1.8.2-3.1 1.5-3.7 1.5-.7 3.1.1 3.9 1.9.4 1 .5 1.8.5 2.3l-1.1.1c0-.4 0-1.1-.4-2-.6-1.3-1.6-1.4-2.2-1.1-.9.4-1.1 1.2-1 2.7.1 1.9-.3 3-1.7 3.7-1.5.7-3.2.2-4.2-2.1-.4-.9-.6-2-.5-2.7l1.2-.2zM187.8 100.3c-3.2 1.5-5.8.3-6.9-2.1-1.1-2.5 0-5.1 2.9-6.4 3-1.4 5.8-.4 6.9 2.1 1.1 2.5-.1 5.1-2.9 6.4zm-3.4-7.3c-2 .9-3.3 2.8-2.5 4.7.9 1.9 3.1 2.2 5.3 1.2 1.9-.8 3.4-2.7 2.5-4.7-1-1.9-3.3-2.1-5.3-1.2zM201.7 154.1l-.2-1.5.8.1.3 1.9-.3.8-7.3-2.7.4-1 6.3 2.4zM195.9 161.6c-2.5-.9-3.5-2.4-2.9-4 .5-1.4 2.2-1.9 4.7-1 2.5.9 3.4 2.5 2.9 4-.7 1.5-2.4 1.9-4.7 1zm1.4-4c-1.9-.7-3.2-.5-3.5.4-.4 1 .6 1.9 2.5 2.6 1.8.7 3.2.6 3.5-.4.3-.8-.5-1.8-2.5-2.6zM193.8 167.4c-2.5-.9-3.5-2.4-2.9-4 .5-1.4 2.2-1.9 4.7-1 2.5.9 3.4 2.5 2.9 4-.7 1.5-2.4 1.9-4.7 1zm1.3-4c-1.9-.7-3.2-.5-3.5.4-.4 1 .6 1.9 2.5 2.6 1.8.7 3.2.6 3.5-.4.3-.8-.5-1.9-2.5-2.6z"/><path class="st0" d="M91.3 17.3l-7.3 17h15.5zM99.5 34.3H121L105.7 8.5l-10 17.3M101.8 15.3l3.1 4.3 2.1-4.3 3.9 2"/><path class="st0" d="M75 2.8h-.5C73.9 1.4 72.6.4 71 .4s-2.9.9-3.5 2.3c-1.5 0-2.7 1.2-2.7 2.7 0 1.5 1.2 2.7 2.7 2.7.6 0 1.1-.2 1.6-.5.5.4 1.2.6 1.9.6.8 0 1.6-.3 2.2-.7.5.4 1.1.7 1.8.7 1.5 0 2.7-1.2 2.7-2.7S76.5 2.8 75 2.8z"/><path class="st2" d="M83.5 34.8l-14.7.3 16.4-4.3z"/><path class="st0" d="M88.5 24.3h-64M114.5 23.3h58"/><path class="st3" d="M81.2 87.2L29.5 3.8M123.2 87.2L173 .3"/><path class="st0" d="M29.3 167.3H5.6c-2.8 0-5.1-2.3-5.1-5.1V110c0-2.8 2.3-5.1 5.1-5.1h23.6c2.8 0 5.1 2.3 5.1 5.1v52.2c.1 2.8-2.2 5.1-5 5.1z"/><circle class="st0" cx="17.5" cy="153.2" r="7"/><path class="st0" d="M18 149.8v7M14.5 153.3h7"/><path class="st0" d="M21.8 133.7l-8 4.6V129zM13.4 114.7h7.4v7.4h-7.4z"/></svg>