<svg xmlns="http://www.w3.org/2000/svg" width="214.7" height="205" viewBox="0 0 214.7 205"><style type="text/css">.st0{fill:none;stroke:#8E8E8E;stroke-miterlimit:10;} .st1{fill:none;stroke:#8E8E8E;stroke-width:3;stroke-miterlimit:10;stroke-dasharray:1,3;} .st2{fill:#8E8E8E;} .st3{fill:none;stroke:#8E8E8E;stroke-miterlimit:10;stroke-dasharray:5;}</style><path class="st0" d="M116.3 114.7h23.5c2.5 0 4.5 2 4.5 4.5v12.1c0 2.5-2 4.5-4.5 4.5h-14c-1.4 0-2.7-.8-3.4-2.1l-3-5.8c-.7-1.3-2-2.1-3.4-2.1h-14.9c-1.4 0-2.7.8-3.4 2l-3.1 5.8c-.7 1.2-2 2-3.4 2H71.8c-2.5 0-4.5-2-4.5-4.5V119c0-2.5 2-4.5 4.5-4.5h28.9"/><path class="st0" d="M108.5 165.8H82.7c-2.5 0-4.5-2-4.5-4.5v-13.9c0-2.5 2-4.5 4.5-4.5h25.8c2.5 0 4.5 2 4.5 4.5v13.9c0 2.5-2 4.5-4.5 4.5zM110.8 135.7H105c-1 0-1.8-.8-1.8-1.8v-3c0-1 .8-1.8 1.8-1.8h5.8c1 0 1.8.8 1.8 1.8v3c0 1-.8 1.8-1.8 1.8zM67.3 131.3v35c0 4.2 3.4 7.5 7.5 7.5h61.9c4.2 0 7.5-3.4 7.5-7.5v-35"/><circle class="st0" cx="128.8" cy="154.6" r="7.3"/><path class="st0" d="M98.1 127.3l2.8-12.1c.4-1.6 1.8-2.8 3.5-2.8h8.4c1.7 0 3.2 1.2 3.5 2.8l2.6 12M92.4 115l-.6-6.7c0-1.3 5.2-7.8 16-7.8s15 6.5 15 7.8l-.6 6.7M122.6 112.5l1.6-2.6c.8-1.3 1.3-2.7 1.4-4.3l.5-5.8c0-1.5-6-9.3-19.1-9.3s-18.4 7.8-18.4 9.3l.5 5.7c.1 1.6.7 3.1 1.5 4.5l1.5 2.3"/><ellipse transform="matrix(.291 -.957 .957 .291 43.371 265.203)" class="st0" cx="200.7" cy="103.3" rx="4.9" ry="4.9"/><path class="st0" d="M202.8 96.2l2.1-6.7M207.8 99.5l5.2-2.8M207.8 105.5l6.7 2.1M204.5 110.5l2.8 5.2M198.5 110.5l-2.1 6.7M193.5 107.1l-5.2 2.8M193.5 101.1l-6.7-2M196.9 96.2l-2.8-5.2"/><path class="st0" d="M14.4 104.3c-1-3.1-.1-6.4 2.1-8.6-1.4-.3-2.9-.2-4.3.2-4.6 1.4-7.1 6.3-5.7 10.8 1.4 4.6 6.3 7.1 10.8 5.7 1.4-.4 2.7-1.2 3.7-2.2-3.1-.6-5.6-2.8-6.6-5.9z"/><path class="st1" d="M123.7 9.9c36.1 7 64.9 34.5 73.7 70M13.3 81.4C21.8 44.7 51.6 16.1 89 9.6"/><circle class="st0" cx="106.2" cy="9.2" r="8.7"/><path class="st0" d="M105.5 4.5l.7 4.7 2.6 4"/><path class="st1" d="M87.9 199c-36.1-7-64.9-34.5-73.7-70M198.4 127.5c-8.5 36.7-38.4 65.2-75.8 71.8"/><path class="st2" d="M99 194.5v10.3h-1.3v-10.3H99zM101.1 203.2c.6.4 1.5.7 2.4.7 1.4 0 2.2-.7 2.2-1.8 0-1-.6-1.5-1.9-2.1-1.7-.6-2.7-1.5-2.7-2.9 0-1.6 1.3-2.8 3.3-2.8 1.1 0 1.8.2 2.3.5l-.4 1.1c-.3-.2-1-.5-2-.5-1.4 0-1.9.8-1.9 1.5 0 1 .6 1.4 2.1 2 1.7.7 2.6 1.5 2.6 3 0 1.6-1.2 3-3.6 3-1 0-2.1-.3-2.6-.7l.2-1zM117.7 199.5c0 3.6-2.2 5.4-4.8 5.4-2.7 0-4.6-2.1-4.6-5.2 0-3.3 2-5.4 4.8-5.4 2.7 0 4.6 2.2 4.6 5.2zm-8 .2c0 2.2 1.2 4.2 3.3 4.2 2.1 0 3.3-1.9 3.3-4.3 0-2.1-1.1-4.2-3.3-4.2-2.2 0-3.3 2-3.3 4.3zM16.2 157.9l2.7-.3.4 1-8.5.8-.5-1.2 6.3-5.8.5 1-2 1.8 1.1 2.7zm-1.8-2.1l-1.8 1.7c-.4.4-.8.7-1.2 1 .5-.1 1-.2 1.5-.2l2.5-.2-1-2.3zM8.4 154l4.4-1.9c1.7-.7 2-1.8 1.6-2.8-.5-1.1-1.5-1.5-3.2-.7l-4.4 1.9-.4-1 4.3-1.9c2.3-1 3.7-.2 4.4 1.4.7 1.5.3 3-2 4.1L8.7 155l-.3-1zM5.9 146.1l1 2.2-.8.4-2.4-5.5.8-.4 1 2.3 6.6-2.9.4 1-6.6 2.9zM4.2 134.8c2.5-1.1 4.6-.2 5.4 1.7.9 2 0 4-2.3 5s-4.5.3-5.4-1.7c-.9-2.1.1-4.1 2.3-5zm2.7 5.6c1.6-.7 2.6-2.2 1.9-3.7-.7-1.5-2.4-1.7-4.1-1-1.5.7-2.7 2.1-2 3.7.7 1.6 2.5 1.8 4.2 1zM210.7 133.7l-.3-1.5.8.1.3 1.9-.3.9-7.4-2.4.3-1 6.6 2zM205.2 141.4c-2.5-.8-3.6-2.2-3.1-3.9.5-1.4 2.2-2 4.6-1.2 2.5.8 3.5 2.3 3 3.8-.5 1.6-2.1 2.1-4.5 1.3zm1.2-4.1c-1.9-.6-3.2-.4-3.5.5-.3 1 .7 1.9 2.6 2.5 1.8.6 3.2.5 3.5-.5.3-.8-.6-1.8-2.6-2.5zM203.3 147.2c-2.5-.8-3.6-2.2-3.1-3.9.5-1.4 2.2-2 4.6-1.2 2.5.8 3.5 2.3 3 3.8-.5 1.7-2.2 2.1-4.5 1.3zm1.2-4c-1.9-.6-3.2-.4-3.5.5-.3 1 .7 1.9 2.6 2.5 1.8.6 3.2.5 3.5-.5.3-.9-.6-1.9-2.6-2.5z"/><path class="st0" d="M95 60.3l-7.3 17h15.5zM103.2 77.3h21.4l-15.3-25.8-10 17.3M105.4 58.3l3.2 4.3 2.1-4.3 3.9 2"/><path class="st0" d="M78.6 45.8h-.5c-.6-1.4-1.9-2.4-3.5-2.4s-2.9.9-3.5 2.3c-1.5 0-2.7 1.2-2.7 2.7 0 1.5 1.2 2.7 2.7 2.7.6 0 1.1-.2 1.6-.5.6.3 1.2.5 1.9.5.8 0 1.6-.3 2.2-.7.5.4 1.1.7 1.8.7 1.5 0 2.7-1.2 2.7-2.7 0-1.4-1.2-2.6-2.7-2.6z"/><path class="st2" d="M87.2 77.8l-14.8.3 16.5-4.3z"/><path class="st0" d="M92.2 67.3h-64M118.2 66.3h58"/><path class="st3" d="M84.8 90.2L33.2 6.8M126.8 90.2l49.9-86.9"/><path class="st2" d="M198.6 48.1l-1.1-.9.6-.5 1.4 1.1.3.8-6.5 2.8-.4-.9 5.7-2.4zM193.7 53.5l8.5-.3.3.7-8.5.3-.3-.7zM202.3 56.7l-1.1-.9.6-.5 1.4 1.1.3.8L197 60l-.4-.9 5.7-2.4zM203.2 65.3c-2.2 1-3.8.7-4.4-.8-.5-1.3.3-2.6 2.4-3.6 2.2-.9 3.8-.5 4.4.8.6 1.4-.3 2.7-2.4 3.6zm-1.6-3.5c-1.7.7-2.4 1.7-2.1 2.5.4.9 1.6.9 3.3.2 1.6-.7 2.5-1.6 2.1-2.5-.4-.8-1.6-1-3.3-.2zM205.4 70.4c-2.2 1-3.8.7-4.4-.8-.6-1.3.3-2.6 2.4-3.6 2.2-.9 3.8-.5 4.4.8.6 1.4-.3 2.7-2.4 3.6zm-1.6-3.5c-1.7.7-2.4 1.7-2.1 2.5.4.9 1.6.9 3.3.2 1.6-.7 2.5-1.6 2.1-2.5-.3-.8-1.5-.9-3.3-.2zM207.7 75.6c-2.2 1-3.8.7-4.4-.8-.6-1.3.3-2.6 2.4-3.6 2.2-.9 3.8-.5 4.4.8.5 1.4-.4 2.7-2.4 3.6zm-1.7-3.5c-1.7.7-2.4 1.7-2.1 2.5.4.9 1.6.9 3.3.2 1.6-.7 2.5-1.6 2.1-2.5-.3-.8-1.5-1-3.3-.2zM.8 77.9l.3 1.4H.3L0 77.6l.2-.8 6.9 1.7-.2.9-6.1-1.5zM8 76.6l-6.9-4.9.1-.7 6.9 4.9-.1.7zM3.1 68.9l.3 1.4h-.8l-.4-1.7.2-.8 6.9 1.7-.2.9-6-1.5zM10 66.9l-.6-.1-.5-.9c-1.2-2.2-1.9-3.2-3-3.5-.7-.2-1.4 0-1.7 1-.2.6 0 1.2.2 1.6l-.7.1c-.3-.6-.4-1.3-.2-2.1.3-1.4 1.5-1.8 2.5-1.5 1.3.3 2.1 1.5 3.1 3.3l.4.7.8-3.1.8.2-1.1 4.3zM6.2 55.9l-.7 2.6 1.7.7c0-.2 0-.3.1-.6.1-.5.4-1 .7-1.4.4-.5 1.1-.8 2-.5 1.3.3 2.1 1.7 1.7 3.1-.2.8-.6 1.3-.8 1.6l-.7-.4c.2-.2.6-.8.7-1.4.2-.9-.2-1.8-1.1-2-.9-.2-1.7.2-2 1.6-.1.4-.1.7-.2 1l-3-1.2.8-3.3.8.2z"/></svg>