<svg xmlns="http://www.w3.org/2000/svg" width="181.4" height="174.5" viewBox="0 0 181.4 174.5"><style type="text/css">.st0{fill:none;stroke:#8E8E8E;stroke-miterlimit:10;} .st1{fill:none;stroke:#8E8E8E;stroke-miterlimit:10;stroke-dasharray:1,3;} .st2{fill:none;stroke:#8E8E8E;stroke-linecap:round;stroke-linejoin:round;stroke-miterlimit:10;} .st3{fill:#8E8E8E;} .st4{fill:none;stroke:#8E8E8E;stroke-miterlimit:10;stroke-dasharray:5;}</style><path class="st0" d="M101.2 114.9h23.5c2.5 0 4.5 2 4.5 4.5v12.1c0 2.5-2 4.5-4.5 4.5h-14c-1.4 0-2.7-.8-3.4-2.1l-3-5.8c-.7-1.3-2-2.1-3.4-2.1H86.1c-1.4 0-2.7.8-3.4 2l-3.1 5.8c-.7 1.2-2 2-3.4 2H56.7c-2.5 0-4.5-2-4.5-4.5v-12.1c0-2.5 2-4.5 4.5-4.5h28.9"/><path class="st0" d="M93.4 166H67.6c-2.5 0-4.5-2-4.5-4.5v-13.9c0-2.5 2-4.5 4.5-4.5h25.8c2.5 0 4.5 2 4.5 4.5v13.9c0 2.5-2 4.5-4.5 4.5zM95.7 135.9h-5.8c-1 0-1.8-.8-1.8-1.8v-3c0-1 .8-1.8 1.8-1.8h5.8c1 0 1.8.8 1.8 1.8v3c0 1-.8 1.8-1.8 1.8zM52.2 131.5v35c0 4.2 3.4 7.5 7.5 7.5h61.9c4.2 0 7.5-3.4 7.5-7.5v-35"/><circle class="st0" cx="113.7" cy="154.8" r="7.3"/><path class="st0" d="M83 127.5l2.8-12.1c.4-1.6 1.8-2.8 3.5-2.8h8.4c1.7 0 3.2 1.2 3.5 2.8l2.6 12M77.3 115.1l-.6-6.7c0-1.3 5.2-7.8 16-7.8s15 6.5 15 7.8l-.6 6.7M107.5 112.6l1.6-2.6c.8-1.3 1.3-2.7 1.4-4.3l.5-5.8c0-1.5-6-9.3-19.1-9.3s-18.4 7.8-18.4 9.3l.5 5.7c.1 1.6.7 3.1 1.5 4.5l1.5 2.3"/><ellipse class="st0" cx="88.5" cy="48" rx="63.5" ry="31.5"/><circle class="st1" cx="141.3" cy="39.8" r="39.2"/><path class="st2" d="M42.2 41.1s1.4-3 4.2-3c2.8 0 2.2 2.2 4.8 2.3 2.6.2 2.5-2.3 4.7-2.2 2.2.2 4.4 1.6 4.7 2.3M74.2 33.1s1.4-3 4.2-3c2.8 0 2.2 2.2 4.8 2.3 2.6.2 2.5-2.3 4.7-2.2 2.2.2 4.4 1.6 4.7 2.3M65.2 59.1s1.4-3 4.2-3c2.8 0 2.2 2.2 4.8 2.3 2.6.2 2.5-2.3 4.7-2.2 2.2.2 4.4 1.6 4.7 2.3"/><path class="st3" d="M44.5 10.7l-1.6-6.2h.8l.7 3.1c.2.8.3 1.5.5 2.1.1-.6.3-1.3.5-2.1l.8-3.1h.8l.8 3.1c.2.7.3 1.5.4 2.1.1-.7.3-1.4.5-2.1l.8-3.1h.8l-1.8 6.2h-.8l-.8-3.2c-.2-.8-.3-1.4-.4-2-.1.6-.2 1.2-.5 2l-.9 3.2h-.6zM52 5c0 .3-.2.5-.5.5S51 5.3 51 5s.2-.5.5-.5.5.2.5.5zm-.9 5.7V6.3h.8v4.4h-.8zM54.2 5v1.3h1.2v.6h-1.2v2.4c0 .6.2.9.6.9.2 0 .4 0 .5-.1v.6c-.2.1-.4.1-.7.1-.4 0-.7-.1-.9-.3-.2-.2-.3-.6-.3-1.2V6.9h-.7v-.6h.7V5.2l.8-.2zM56.3 4.2h.8V7c.1-.2.3-.4.6-.6.2-.1.5-.2.8-.2.6 0 1.6.4 1.6 1.9v2.6h-.8V8.1c0-.7-.3-1.3-1-1.3-.5 0-.9.4-1.1.8 0 .1-.1.2-.1.4v2.7h-.8V4.2zM65.4 8.4c0 1.6-1.1 2.4-2.2 2.4-1.2 0-2.2-.9-2.2-2.3 0-1.5 1-2.4 2.2-2.4 1.3.1 2.2 1 2.2 2.3zm-3.5.1c0 1 .6 1.7 1.3 1.7.8 0 1.4-.7 1.4-1.7 0-.8-.4-1.7-1.3-1.7s-1.4.8-1.4 1.7zM70.1 9.5v1.2h-.7V10c-.2.4-.7.8-1.5.8-.7 0-1.5-.4-1.5-1.9V6.3h.8v2.5c0 .8.3 1.4 1 1.4.5 0 .9-.4 1.1-.7 0-.1.1-.3.1-.4V6.3h.8v3.2zM72.4 5v1.3h1.2v.6h-1.2v2.4c0 .6.2.9.6.9.2 0 .4 0 .5-.1v.6c-.2.1-.4.1-.7.1-.4 0-.7-.1-.9-.3-.2-.2-.3-.6-.3-1.2V6.9H71v-.6h.7V5.2l.7-.2zM76.5 4.5h3.3v.7h-2.5v2.1h2.3V8h-2.3v2.8h-.8V4.5zM81.6 5c0 .3-.2.5-.5.5s-.5-.2-.5-.5.2-.5.5-.5.5.2.5.5zm-.9 5.7V6.3h.8v4.4h-.8zM82.9 4.2h.8v6.5h-.8V4.2zM86 5v1.3h1.2v.6H86v2.4c0 .6.2.9.6.9.2 0 .4 0 .5-.1v.6c-.2.1-.4.1-.7.1-.4 0-.7-.1-.9-.3-.2-.2-.3-.6-.3-1.2V6.9h-.7v-.6h.7V5.2L86 5zM88.5 8.6c0 1.1.7 1.5 1.5 1.5.6 0 .9-.1 1.2-.2l.1.6c-.3.1-.8.3-1.5.3-1.4 0-2.2-.9-2.2-2.2s.8-2.4 2.1-2.4c1.5 0 1.8 1.3 1.8 2.1v.4h-3zm2.3-.6c0-.5-.2-1.3-1.1-1.3-.8 0-1.2.8-1.2 1.3h2.3zM92.6 7.6V6.2h.7v.9c.2-.6.7-1 1.2-1h.2v.8h-.3c-.6 0-1 .4-1.1 1v2.8h-.8V7.6zM124.6 17.7l-1.6-6.2h.9l.7 3.2c.2.8.4 1.6.5 2.2.1-.6.3-1.4.5-2.2l.8-3.1h.8l.8 3.2c.2.7.3 1.5.4 2.1.1-.7.3-1.4.5-2.2l.8-3.1h.8l-1.8 6.2h-.7l-.8-3.2c-.2-.8-.3-1.4-.4-2-.1.6-.2 1.2-.5 2l-.9 3.2h-.8zM132.1 12c0 .3-.2.5-.5.5s-.5-.2-.5-.5.2-.5.5-.5c.3-.1.5.2.5.5zm-.9 5.7v-4.5h.8v4.5h-.8zM134.4 11.9v1.3h1.2v.6h-1.2v2.4c0 .6.2.9.6.9.2 0 .4 0 .5-.1v.6c-.2.1-.4.1-.7.1-.4 0-.7-.1-.9-.3-.2-.2-.3-.6-.3-1.2v-2.4h-.7v-.6h.7v-1.1l.8-.2zM136.4 11.1h.8v2.8c.1-.2.3-.4.6-.6.2-.1.5-.2.8-.2.6 0 1.6.4 1.6 1.9v2.7h-.8v-2.6c0-.7-.3-1.3-1-1.3-.5 0-.9.4-1.1.8 0 .1-.1.2-.1.4v2.7h-.8v-6.6zM143.6 11.5h3.4v.7h-2.6v2.1h2.4v.7h-2.4v2.8h-.8v-6.3zM148.7 12c0 .3-.2.5-.5.5s-.5-.2-.5-.5.2-.5.5-.5c.3-.1.5.2.5.5zm-.9 5.7v-4.5h.8v4.5h-.8zM150 11.1h.8v6.6h-.8v-6.6zM153.1 11.9v1.3h1.2v.6h-1.2v2.4c0 .6.2.9.6.9.2 0 .4 0 .5-.1v.6c-.2.1-.4.1-.7.1-.4 0-.7-.1-.9-.3-.2-.2-.3-.6-.3-1.2v-2.4h-.7v-.6h.7v-1.1l.8-.2zM155.6 15.6c0 1.1.7 1.6 1.5 1.6.6 0 .9-.1 1.2-.2l.1.6c-.3.1-.8.3-1.5.3-1.4 0-2.2-.9-2.2-2.3 0-1.3.8-2.4 2.1-2.4 1.5 0 1.8 1.3 1.8 2.1v.4h-3zm2.4-.6c0-.5-.2-1.3-1.1-1.3-.8 0-1.2.8-1.2 1.3h2.3zM159.8 14.6v-1.4h.7v.9c.2-.6.7-1 1.2-1h.2v.8h-.3c-.6 0-1 .4-1.1 1v2.8h-.8v-3.1z"/><path class="st0" d="M117.8 54.3s6.6-6.8 14.8.2c-.1 0-6.6 5.9-14.8-.2zM114.8 52.3l3 2-3.4 2.3"/><path class="st0" d="M136.5 39.1s-4 4.2-9.1-.1c0-.1 4-3.7 9.1.1zM138.3 40.3l-1.8-1.2 2-1.4M103.3 33s3.8.2 8.2 3c0 0-2.8 2.2-9.2 2"/><path class="st4" d="M73.5 99.9L.4 13.3M111 99.9l70-88.4"/></svg>