<svg xmlns="http://www.w3.org/2000/svg" width="242" height="229.2" viewBox="0 0 242 229.2"><style type="text/css">.st0{fill:none;stroke:#8E8E8E;stroke-miterlimit:10;} .st1{fill:none;stroke:#8E8E8E;stroke-miterlimit:10;stroke-dasharray:1;} .st2{fill:#8E8E8E;} .st3{fill:none;stroke:#8E8E8E;stroke-miterlimit:10;stroke-dasharray:5;}</style><path class="st0" d="M215.6 37.4c0-2.7 2.2-4.9 4.9-4.9s4.9 2.2 4.9 4.9M217.3 30.5l-2.7-6.5M223.3 30l2.3-5.5M227.1 34.5l6.5-2.6M212.7 34.3l-5.5-2.3M16.6 37.4c0-2.7 2.2-4.9 4.9-4.9s4.9 2.2 4.9 4.9M18.3 30.5L15.6 24M24.3 30l2.3-5.5M28.1 34.5l6.5-2.6M13.7 34.3L8.2 32M127.5 169.7H151c2.5 0 4.5 2 4.5 4.5v12.1c0 2.5-2 4.5-4.5 4.5h-14c-1.4 0-2.7-.8-3.4-2.1l-3-5.8c-.7-1.3-2-2.1-3.4-2.1h-14.9c-1.4 0-2.7.8-3.4 2l-3.1 5.8c-.7 1.2-2 2-3.4 2H82.9c-2.5 0-4.5-2-4.5-4.5V174c0-2.5 2-4.5 4.5-4.5h28.9"/><path class="st0" d="M119.7 220.8H93.9c-2.5 0-4.5-2-4.5-4.5v-13.9c0-2.5 2-4.5 4.5-4.5h25.8c2.5 0 4.5 2 4.5 4.5v13.9c0 2.4-2 4.5-4.5 4.5zM122 190.7h-5.8c-1 0-1.8-.8-1.8-1.8v-3c0-1 .8-1.8 1.8-1.8h5.8c1 0 1.8.8 1.8 1.8v3c0 1-.8 1.8-1.8 1.8zM78.5 186.2v35c0 4.2 3.4 7.5 7.5 7.5h62c4.2 0 7.5-3.4 7.5-7.5v-35"/><circle class="st0" cx="140" cy="209.6" r="7.3"/><path class="st0" d="M109.3 182.2l2.8-12.1c.4-1.6 1.8-2.8 3.5-2.8h8.4c1.7 0 3.2 1.2 3.5 2.8l2.6 12M103.6 169.9l-.6-6.7c0-1.3 5.2-7.8 16-7.8s15 6.5 15 7.8l-.6 6.7M133.8 167.4l1.6-2.6c.8-1.3 1.3-2.7 1.4-4.3l.5-5.8c0-1.5-6-9.3-19.1-9.3s-18.4 7.8-18.4 9.3l.5 5.7c.1 1.6.7 3.1 1.5 4.5l1.5 2.3M117.1 154.9M136.7 130.7l-.8-16.6-7.7 4.8-10.3-6.5-10.4 6.5-7.7-4.8-.8 16.6"/><ellipse class="st0" cx="117.9" cy="131" rx="18.8" ry="8.5"/><path class="st1" d="M99.1 134l.2 15.2M137.1 134l.2 15.2"/><path class="st0" d="M98.8 31.4l-7.3 17H107zM107 48.4h21.5l-15.3-25.8-10 17.3M109.3 29.3l3.1 4.4 2.1-4.4 3.9 2.1"/><path class="st2" d="M91 48.9l-14.8.3 16.6-4.3z"/><path class="st0" d="M153.8 54.2c0-1.8-1.5-3.3-3.3-3.3-1.6 0-3 1.2-3.2 2.8-1.3.2-2.3 1.3-2.3 2.7 0 1.5 1.2 2.8 2.8 2.8h.1c.3 1.2 1.4 2 2.6 2 1.5 0 2.8-1.2 2.8-2.8 0-.7-.2-1.3-.6-1.8.6-.6 1.1-1.4 1.1-2.4zM150.8 66.9l-.1-5.5"/><path class="st2" d="M151 66.9h-13.6s1.1-3.3 4-3.3 6 1.8 6 1.8l3.6 1.5z"/><path class="st0" d="M0 38.4h96M122 37.4h120"/><path class="st0" d="M87 63.4h8l2.5 4h6v4h-22v-4.5zM81 67.4h16M89.6 71.3c0 1.4-1.2 2.6-2.6 2.6s-2.6-1.2-2.6-2.6M101.9 71.3c0 1.4-1.2 2.6-2.6 2.6s-2.6-1.2-2.6-2.6"/><path class="st2" d="M86 73.5l-15 .4 5.5-2h7.7zM97.7 73.6l-9.1-.1 1.2-1.6h6.4z"/><path class="st3" d="M96.7 112.2L32.7.2M138.7 112.2l64-112"/></svg>