<!-- Generator: Adobe Illustrator 19.2.1, SVG Export Plug-In  -->
<svg version="1.1"
	 xmlns="http://www.w3.org/2000/svg" xmlns:xlink="http://www.w3.org/1999/xlink" xmlns:a="http://ns.adobe.com/AdobeSVGViewerExtensions/3.0/"
	 x="0px" y="0px" width="41.9px" height="41.9px" viewBox="0 0 41.9 41.9" style="enable-background:new 0 0 41.9 41.9;"
	 xml:space="preserve">
<style type="text/css">
	.st0{fill:#FFFFFF;}
</style>
<defs>
</defs>
<path class="st0" d="M40.5,13.5c-1.1-2.8-2.7-5.3-4.8-7.4C32,2.4,26.8,0.1,21.1,0c-0.1,0-0.1,0-0.2,0c-3.8,0-7.3,1-10.3,2.7
	C6.2,5.3,2.7,9.4,1.1,14.3C0.4,16.4,0,18.6,0,20.9c0,0,0,0,0,0.1c0,1.2,0.1,2.5,0.3,3.6c0.3,1.6,0.8,3.2,1.4,4.7
	c3.2,7.4,10.5,12.5,19,12.6c0.1,0,0.1,0,0.2,0c3.8,0,7.3-1,10.3-2.7c6.3-3.6,10.6-10.4,10.6-18.2C41.9,18.3,41.4,15.8,40.5,13.5z
	 M12.4,7.8c0.2-1,0.5-1.9,0.8-2.7c2.1-1,4.4-1.7,6.9-1.8c0.6,0.5,1.3,1.1,1.9,1.9c0.7,0.9,1.5,1.9,2.2,3.1c1.7,2.8,3.2,6.4,4.3,10.6
	c0.2,0.8,0.4,1.6,0.6,2.4c-2.3,1.3-5.1,2.6-8.3,3.6c-2.1,0.7-4.2,1.2-6.3,1.5c-0.4-1.1-0.8-2.4-1.1-3.6c-1.1-4.2-1.5-8-1.4-11.3
	C12.1,10.2,12.2,9,12.4,7.8z M3.3,20.9c0-1.6,0.2-3.2,0.6-4.7c0.6-2.2,1.6-4.2,2.9-5.9c0.6-0.8,1.3-1.6,2-2.3
	C8.9,8.5,8.8,8.9,8.8,9.4c-0.1,1.2-0.2,2.5-0.2,3.8c0.1,3.2,0.5,6.8,1.5,10.5c0.3,1.1,0.6,2.2,0.9,3.2C10.3,27,9.6,27,8.9,27
	c-1.8,0-3.3-0.2-4.7-0.5C3.7,24.8,3.3,22.9,3.3,20.9z M6,30.2c0.9,0.1,1.9,0.2,3,0.2c1.1,0,2.2-0.1,3.3-0.2c1.3,3.1,2.8,5.7,4.4,7.8
	C12.2,36.9,8.4,34,6,30.2z M29.5,33.6c-0.2,1.2-0.5,2.3-0.8,3.1c-2.1,1-4.4,1.7-6.9,1.8c-2.1-1.7-4.2-4.7-6.1-8.8
	c2-0.4,4-0.9,6.1-1.5c2.9-0.9,5.5-2,7.8-3.3C30,28.1,30,31,29.5,33.6z M31.7,18.1c-1-3.7-2.3-7.1-3.9-10c-0.6-1.2-1.3-2.3-2-3.3
	c-0.2-0.3-0.5-0.7-0.7-1c0.9,0.2,1.9,0.5,2.7,0.9c2.3,1,4.3,2.4,5.9,4.2c1.3,1.4,2.4,3,3.2,4.8c-0.6,1.7-2.3,3.8-4.9,5.7
	C31.9,19,31.8,18.6,31.7,18.1z M32.9,33.8c0.5-3.2,0.4-6.9-0.1-10.8c2.3-1.6,4.2-3.2,5.6-5c0.1,0.9,0.2,1.9,0.2,2.8
	C38.5,26,36.3,30.6,32.9,33.8z"/>
</svg>
