<svg xmlns="http://www.w3.org/2000/svg" width="98.7" height="100" viewBox="0 0 98.7 100"><style type="text/css">.st0{fill:#016fde;}</style><path class="st0" d="M82.8 2.2C75.3-2.1 66 .1 61.1 6.9c-1.9-.3-3.9-.4-5.9-.4-16 0-29.9 8.6-37.5 21.5 3.6.2 6.9 1.2 9.8 2.9 6.1-8.8 16.2-14.5 27.7-14.5.9 0 1.8 0 2.8.1 0 5.8 2.9 11.4 8.3 14.5 7.9 4.6 18 1.9 22.6-6.1 4.5-8 1.8-18.1-6.1-22.7zM0 50c0 8.6 6.5 15.6 14.9 16.5.7 1.8 1.6 3.6 2.6 5.3 8 13.8 22.5 21.6 37.4 21.8-1.6-3.2-2.4-6.6-2.4-9.9-10.7-1-20.8-6.9-26.5-16.8-.5-.8-.9-1.6-1.3-2.4 5-2.8 8.4-8.2 8.4-14.4 0-9.1-7.4-16.6-16.6-16.6C7.4 33.5 0 40.9 0 50zM82.8 97.8c7.4-4.3 10.3-13.5 6.8-21.1 1.2-1.6 2.3-3.2 3.3-4.9 8-13.8 7.5-30.3.2-43.2-1.9 3-4.5 5.4-7.4 7.1 4.6 9.7 4.5 21.3-1.3 31.3-.5.8-1 1.6-1.5 2.3-5-2.9-11.3-3.2-16.7-.1-7.9 4.6-10.6 14.7-6.1 22.6 4.6 7.8 14.7 10.6 22.7 6z"/></svg>