<!-- Generator: Adobe Illustrator 19.2.1, SVG Export Plug-In  -->
<svg version="1.1"
	 xmlns="http://www.w3.org/2000/svg" xmlns:xlink="http://www.w3.org/1999/xlink" xmlns:a="http://ns.adobe.com/AdobeSVGViewerExtensions/3.0/"
	 x="0px" y="0px" width="80px" height="76px" viewBox="0 0 80 76" style="enable-background:new 0 0 80 76;" xml:space="preserve">
<style type="text/css">
	.st0{fill:#016FDE;}
</style>
<defs>
</defs>
<path class="st0" d="M59.5,0C52.6,0,47,5.6,47,12.5c0,0.9,0.1,1.7,0.3,2.6l-16.5,9.2C27.5,21,23,19,18,19C8.1,19,0,27.1,0,37
	s8.1,18,18,18c5.3,0,10.1-2.3,13.4-6l19.8,9.7c-0.2,0.9-0.3,1.9-0.3,2.8c0,8,6.5,14.5,14.5,14.5S80,69.5,80,61.5S73.5,47,65.5,47
	c-4.5,0-8.6,2.1-11.2,5.3L35,42.9c0.6-1.9,1-3.8,1-5.9c0-2.4-0.5-4.8-1.4-6.9l15.9-8.9c2.3,2.3,5.4,3.8,8.9,3.8
	c7,0,12.6-5.6,12.6-12.5S66.4,0,59.5,0L59.5,0z"/>
</svg>
