<!-- Generator: Adobe Illustrator 19.2.1, SVG Export Plug-In  -->
<svg version="1.1"
	 xmlns="http://www.w3.org/2000/svg" xmlns:xlink="http://www.w3.org/1999/xlink" xmlns:a="http://ns.adobe.com/AdobeSVGViewerExtensions/3.0/"
	 x="0px" y="0px" width="90px" height="90px" viewBox="0 0 90 90" style="enable-background:new 0 0 90 90;" xml:space="preserve">
<style type="text/css">
	.st0{fill:#FFFFFF;}
</style>
<defs>
</defs>
<path class="st0" d="M6.6,0C3,0,0,3,0,6.6v29.9c1.6-1.2,3.6-2,5.6-2.1v-21h40v20.9h5.6V6.6c0-3.6-3-6.6-6.6-6.6H6.6L6.6,0z
	 M18.1,5.4h15v3.5h-15V5.4z"/>
<path class="st0" d="M90,45.3c0-3.6-3-6.6-6.6-6.6H6.6c-3.6,0-6.6,3-6.6,6.6v38.1C0,87,3,90,6.6,90h76.9c3.6,0,6.6-3,6.6-6.6V45.3
	L90,45.3z M84.6,56.9v15h-3.5v-15H84.6L84.6,56.9z M76.7,44.4v40H15v-40H76.7L76.7,44.4z M10.8,64.4c0,1.8-1.5,3.3-3.3,3.3
	c-1.8,0-3.3-1.5-3.3-3.3s1.5-3.3,3.3-3.3C9.3,61.1,10.8,62.6,10.8,64.4z"/>
<path class="st0" d="M63.7,10.7l-0.8,2.9c-1.8-0.5-3.6-0.8-5.5-0.8v-3C59.6,9.8,61.6,10.1,63.7,10.7L63.7,10.7z"/>
<path class="st0" d="M80.2,32l-3,0.1c0-1.9-0.4-3.6-0.9-5.5l2.9-0.9C79.8,27.7,80.1,30,80.2,32L80.2,32z"/>
<path class="st0" d="M78,22.7L75.3,24c-0.8-1.7-1.8-3.2-3.1-4.6l2.2-2c1.5,1.6,2.6,3.1,3.6,5.1L78,22.7L78,22.7z"/>
<path class="st0" d="M72.1,15.2l-1.9,2.3c-1.4-1.2-3-2.2-4.7-3l1.2-2.7C68.8,12.7,70.4,13.7,72.1,15.2z"/>
</svg>
