<svg xmlns="http://www.w3.org/2000/svg" viewBox="0 0 34 34" enable-background="new 0 0 34 34"><style type="text/css">.st0{fill:#79CCF0;} .st1{fill:#FFFFFF;}</style><path class="st0" d="M0 0h34v34H0z"/><path class="st1" d="M25.5 12.6c-.6.3-1.3.5-2 .6.7-.4 1.3-1.1 1.5-1.9-.7.4-1.4.7-2.2.8-.6-.7-1.5-1.1-2.6-1.1-1.9 0-3.5 1.6-3.5 3.5 0 .3 0 .5.1.8-2.9-.1-5.5-1.5-7.2-3.7-.3.5-.5 1.1-.5 1.8 0 1.2.6 2.3 1.6 2.9-.6 0-1.1-.2-1.6-.4 0 1.7 1.2 3.1 2.8 3.4-.3.1-.6.1-.9.1-.2 0-.4 0-.7-.1.4 1.4 1.7 2.4 3.3 2.4-1.2.9-2.7 1.5-4.3 1.5h-.8c1.5 1 3.4 1.6 5.4 1.6 6.4 0 9.9-5.3 9.9-9.9v-.5c.7-.5 1.3-1.1 1.7-1.8"/></svg>