<!-- Generator: Adobe Illustrator 19.2.1, SVG Export Plug-In  -->
<svg version="1.1"
	 xmlns="http://www.w3.org/2000/svg" xmlns:xlink="http://www.w3.org/1999/xlink" xmlns:a="http://ns.adobe.com/AdobeSVGViewerExtensions/3.0/"
	 x="0px" y="0px" width="77.6px" height="90px" viewBox="0 0 77.6 90" style="enable-background:new 0 0 77.6 90;"
	 xml:space="preserve">
<style type="text/css">
	.st0{fill:#FFFFFF;}
</style>
<defs>
</defs>
<g>
	<path class="st0" d="M73.9,20.3l-17.6-2L51.6,2.9c-0.6-2.1-3-3.3-5.2-2.7L3,12.1c-2.2,0.6-3.5,2.9-2.9,5l17.4,56.9l-0.8,6.6
		c-0.3,2.2,1.4,4.2,3.7,4.4l44.8,5c2.3,0.3,4.4-1.3,4.7-3.5l7.7-61.8C77.8,22.5,76.2,20.5,73.9,20.3z M19.5,58L7.1,17.4L45.9,6.8
		l3.3,10.7l-20.1-2.3c-2.3-0.3-4.4,1.3-4.7,3.5L19.5,58z M63.6,83.5L23.5,79l7.1-57.3l40.1,4.5L63.6,83.5z"/>
	<path class="st0" d="M38.8,61.9c2.1,0.2,4.8-0.2,6.7-1.9c-0.7,5.8-7.8,10.1-7.8,10.1s3.5-1,7.3-0.6c3.8,0.4,7,2.2,7,2.2
		s-5.8-6.2-5.1-11.6c1.4,2,3.8,2.9,5.8,3.2c2,0.2,3.8-0.1,5.1-1c2.2-1.5,3.4-3.8,3.4-6.6c0-5.8-8.9-13.5-11.9-21.4
		c-4.9,7.1-15.4,13.2-16.7,18.3c-0.7,2.6-0.1,5,1.6,7.1C35.1,60.9,36.8,61.7,38.8,61.9z"/>
</g>
</svg>
