<svg xmlns="http://www.w3.org/2000/svg" width="236.8" height="67.8" viewBox="0 0 236.8 67.8"><style type="text/css">.st0{fill:#FFFFFF;}</style><path class="st0" d="M76.2 5.3c0 .7-.1 1.4-.4 2-.3.7-.6 1.2-1.1 1.7-.6.6-1.2 1-2 1.3-.8.3-1.7.4-2.9.4h-1.9v6.2h-2.2V.3h4.2c1 0 1.8.1 2.5.2.7.2 1.3.4 1.8.8.6.4 1.1 1 1.4 1.6.4.7.6 1.5.6 2.4zm-2.3 0c0-.6-.1-1.1-.3-1.5-.2-.4-.5-.8-.9-1-.3-.2-.8-.4-1.2-.5-.5-.1-1-.1-1.7-.1H68v6.6h1.5c.9 0 1.6-.1 2.2-.2.5-.1 1-.4 1.4-.8.3-.3.6-.7.7-1.1 0-.4.1-.8.1-1.4zM75.9 16.9L81.5.3h2.7l5.6 16.6h-2.3L86 12.2h-6.3l-1.5 4.6h-2.3zm9.5-6.5l-2.6-7.8-2.5 7.8h5.1zM104.2 16.9h-2.9l-5.2-6.6h-2.5v6.6h-2.2V.3h4.3c.9 0 1.7.1 2.4.2.6.1 1.2.3 1.8.7.6.4 1 .8 1.4 1.4.3.6.5 1.3.5 2.2 0 1.2-.3 2.2-.9 3-.6.8-1.5 1.4-2.5 1.8l5.8 7.3zM99.5 5c0-.5-.1-.9-.3-1.3-.2-.4-.4-.7-.8-.9-.3-.2-.7-.4-1.1-.4-.4-.1-.9-.1-1.5-.1h-2.2v6.2h1.9c.6 0 1.2-.1 1.7-.2s.9-.3 1.3-.7c.3-.3.6-.7.7-1.1.2-.5.3-1 .3-1.5zM103.7 16.9L109.3.3h2.7l5.6 16.6h-2.3l-1.5-4.6h-6.3l-1.5 4.6h-2.3zm9.5-6.5l-2.6-7.8-2.5 7.8h5.1zM132.2 8.6c0 1.5-.3 2.9-.9 4.1-.6 1.2-1.4 2.2-2.5 2.8-.8.5-1.7.9-2.6 1.1-.9.2-2 .3-3.3.3h-3.8V.3h3.8c1.6 0 2.8.1 3.7.4.9.2 1.6.6 2.3 1 1.1.7 1.9 1.6 2.5 2.8.5 1.1.8 2.5.8 4.1zm-2.3 0c0-1.3-.2-2.4-.6-3.3-.4-.9-1-1.6-1.9-2.1-.6-.4-1.2-.6-1.9-.8s-1.5-.2-2.5-.2h-1.7V15h1.7c1 0 1.8-.1 2.6-.2s1.4-.4 2-.9c.8-.5 1.3-1.2 1.7-2.1s.6-1.9.6-3.2zM140.4 16.9H134v-1.7h2.1V2H134V.3h6.4V2h-2.1v13.2h2.1v1.7zM147.7 17.2c-1.2 0-2.2-.1-3.1-.4s-1.6-.6-2.4-.9v-2.8h.2c.7.7 1.5 1.2 2.5 1.6.9.4 1.8.6 2.7.6 1.2 0 2.1-.3 2.8-.8.6-.5.9-1.2.9-2 0-.7-.2-1.2-.5-1.6-.3-.4-.8-.7-1.6-.9-.5-.1-1-.3-1.4-.4-.4-.1-1-.2-1.6-.4-.6-.1-1.1-.3-1.5-.6-.5-.2-.9-.5-1.2-.9-.3-.4-.6-.8-.8-1.3-.2-.5-.3-1.1-.3-1.7 0-1.3.5-2.5 1.6-3.4 1-.9 2.4-1.4 4-1.4.9 0 1.8.1 2.6.3.8.2 1.6.4 2.3.8v2.6h-.2c-.5-.5-1.2-.9-2-1.3s-1.7-.5-2.6-.5c-1 0-1.8.2-2.5.7s-.9 1.1-.9 1.9c0 .7.2 1.3.6 1.7.4.4.9.7 1.6.9.5.1 1 .3 1.7.4.7.2 1.2.3 1.7.4 1.1.3 2 .9 2.5 1.6s.8 1.6.8 2.6c0 .6-.1 1.3-.4 1.9-.3.6-.6 1.2-1.1 1.6-.5.5-1.1.9-1.8 1.1s-1.6.6-2.6.6zM155.8 16.9V.3h10.4v2H158v4.5h7.6v2H158v6.1h8.1v2h-10.3zM52.8 67.8h-13v-42h13v6h-7v30h7zM102.8 67.8h-14v-6h8v-30h-7v-6h13zM71.8 61.8c-8.3 0-15-6.7-15-15s6.7-15 15-15 15 6.7 15 15-6.7 15-15 15zm0-24c-5 0-9 4-9 9s4 9 9 9 9-4 9-9-4-9-9-9zM20 56.7c-.9 1.8-2.2 2.7-3.4 2.7-1.3 0-2.5-.9-3.4-2.8L6.8 43.4v20.9H0v-35h6.7l9.9 20.2 9.8-20.2h6.7v35h-6.8V43.4L20 56.7zM129.7 56.7c-.9 1.8-2.2 2.7-3.4 2.7-1.3 0-2.5-.9-3.4-2.8l-6.4-13.1v20.9h-6.8v-35h6.7l9.9 20.2 9.8-20.2h6.7v35H136v-21l-6.3 13.3zM160.7 64.3c-7.8 0-10.7-2.3-10.7-9.2V29.3h23v6.1h-16.2v8.2h11.4l-.5 6.1h-10.9v4.9c0 2.8 1.1 3.6 4.3 3.6H173v6.1h-12.3zM207 60.8c0 2.2-1.5 3.9-3.3 3.9-1.5 0-3.6-.4-5.6-3.9L186 41.9v22.5h-6.8v-35h6.6l14.3 22.9v-23h6.8v31.5zM227.4 35.4v28.9h-6.8V35.4h-9.3v-6.1h25.5v6.1h-9.4z"/></svg>