<svg xmlns="http://www.w3.org/2000/svg" width="295.2" height="293.3" viewBox="0 0 295.2 293.3"><style type="text/css">.st0{fill:none;stroke:#8E8E8E;stroke-miterlimit:10;} .st1{fill:none;stroke:#8E8E8E;stroke-miterlimit:10;stroke-dasharray:5;} .st2{fill:none;stroke:#8E8E8E;stroke-miterlimit:10;stroke-dasharray:12;} .st3{fill:#8E8E8E;}</style><circle class="st0" cx="17.5" cy="74" r="4.9"/><path class="st0" d="M17.5 66.5v-7M23.2 68.3l4.2-4.2M25 74h7M23.2 79.7l4.2 4.2M17.5 81.5v7M11.8 79.7l-4.2 4.2M10 74H3M11.8 68.3l-4.2-4.2"/><circle class="st0" cx="276.5" cy="80" r="4.9"/><path class="st0" d="M276.5 72.5v-7M282.2 74.3l4.2-4.2M284 80h7M282.2 85.7l4.2 4.2M276.5 87.5v7M270.8 85.7l-4.2 4.2M269 80h-7M270.8 74.3l-4.2-4.2"/><path class="st0" d="M166.5 165.1h-46.9c-2.5 0-4.5-2-4.5-4.5v-4.1c0-2.5 2-4.5 4.5-4.5h46.9c2.5 0 4.5 2 4.5 4.5v4.1c0 2.4-2 4.5-4.5 4.5zM157.2 151.9h-19.1v-.1c0-1.3 1-2.3 2.3-2.3h14.4c1.4 0 2.4 1.1 2.4 2.4zM115.3 162l6.3 21.5c1.5 3.9 5.2 6.5 9.4 6.5h25.9c3.6 0 6.8-2.5 7.7-6l5.6-20.7"/><path class="st0" d="M124.9 169h35.4c1.4 0 2.4 1.3 2.1 2.6l-2.9 12.7c-.2 1-1.1 1.7-2.1 1.7h-28.7c-1 0-1.8-.6-2.1-1.5l-3.7-12.7c-.5-1.4.6-2.8 2-2.8zM135.3 186l5.6-8.5 6.8 8.5M143.5 180.8l5.8-7.9 8.1 13.1"/><path class="st1" d="M140.4 149.5L28.7 37.8M154.8 149.5L265.2 39.2"/><path class="st0" d="M143.8 53l-7.3 17H152zM152 70h21.5l-15.3-25.8-10 17.3M154.3 50.9l3.1 4.3 2.1-4.3 3.9 2.1"/><path class="st0" d="M138.7 5.1c-.3 0-.6 0-.9.1-1.2-2.8-3.9-4.7-7.1-4.7-3.1 0-5.8 1.9-7 4.6-3 0-5.4 2.4-5.4 5.4 0 3 2.4 5.4 5.4 5.4 1.2 0 2.3-.4 3.2-1.1 1.1.7 2.5 1.1 3.9 1.1 1.6 0 3.2-.5 4.4-1.4 1 .9 2.2 1.4 3.6 1.4 3 0 5.4-2.4 5.4-5.4s-2.6-5.4-5.5-5.4zM237.7 23.1c-.3 0-.6 0-.9.1-1.2-2.8-3.9-4.7-7.1-4.7-3.1 0-5.8 1.9-7 4.6-3 0-5.4 2.4-5.4 5.4 0 3 2.4 5.4 5.4 5.4 1.2 0 2.3-.4 3.2-1.1 1.1.7 2.5 1.1 3.9 1.1 1.6 0 3.2-.5 4.4-1.4 1 .9 2.2 1.4 3.6 1.4 3 0 5.4-2.4 5.4-5.4s-2.6-5.4-5.5-5.4zM286.4 96.8c5.4 15.3 8.3 31.8 8.3 48.9 0 81.2-65.9 147.1-147.1 147.1S.5 227 .5 145.7c0-18.1 3.3-35.3 9.2-51.3"/><path class="st2" d="M13.3 96.2l-8-3.7M290.3 95.4l-7.9 3.9"/><path class="st3" d="M136 70.5l-14.7.3 16.5-4.3z"/><path class="st0" d="M188.8 75.7c0-1.8-1.5-3.3-3.3-3.3-1.6 0-3 1.2-3.2 2.8-1.3.2-2.3 1.3-2.3 2.7 0 1.5 1.2 2.8 2.8 2.8h.1c.3 1.2 1.4 2 2.6 2 1.5 0 2.8-1.2 2.8-2.8 0-.7-.2-1.3-.6-1.8.6-.5 1.1-1.4 1.1-2.4zM185.8 88.5l-.1-5.5"/><path class="st3" d="M186 88.5h-13.6s1.1-3.3 4-3.3 6 1.8 6 1.8l3.6 1.5z"/><path class="st0" d="M72 60h69M167 59h62"/><path class="st0" d="M122 85h8l2.5 4h6v4h-22v-4.5zM116 89h16M124.6 92.9c0 1.4-1.2 2.6-2.6 2.6-1.4 0-2.6-1.2-2.6-2.6M136.9 92.9c0 1.4-1.2 2.6-2.6 2.6-1.4 0-2.6-1.2-2.6-2.6"/><path class="st3" d="M121 95.1l-15 .4 5.5-2h7.8zM132.7 95.2l-9.1-.1 1.2-1.6h6.5z"/></svg>