<svg xmlns="http://www.w3.org/2000/svg" width="247" height="229.2" viewBox="0 0 247 229.2"><style type="text/css">.st0{fill:none;stroke:#8E8E8E;stroke-miterlimit:10;} .st1{fill:none;stroke:#8E8E8E;stroke-miterlimit:10;stroke-dasharray:1;} .st2{fill:#8E8E8E;} .st3{fill:none;stroke:#8E8E8E;stroke-miterlimit:10;stroke-dasharray:5;} .st4{fill:none;stroke:#8E8E8E;stroke-linecap:round;stroke-linejoin:round;stroke-miterlimit:10;}</style><path class="st0" d="M132.5 169.7H156c2.5 0 4.5 2 4.5 4.5v12.1c0 2.5-2 4.5-4.5 4.5h-14c-1.4 0-2.7-.8-3.4-2.1l-3-5.8c-.7-1.3-2-2.1-3.4-2.1h-14.9c-1.4 0-2.7.8-3.4 2l-3.1 5.8c-.7 1.2-2 2-3.4 2H87.9c-2.5 0-4.5-2-4.5-4.5V174c0-2.5 2-4.5 4.5-4.5h28.9"/><path class="st0" d="M124.7 220.8H98.9c-2.5 0-4.5-2-4.5-4.5v-13.9c0-2.5 2-4.5 4.5-4.5h25.8c2.5 0 4.5 2 4.5 4.5v13.9c0 2.4-2 4.5-4.5 4.5zM127 190.7h-5.8c-1 0-1.8-.8-1.8-1.8v-3c0-1 .8-1.8 1.8-1.8h5.8c1 0 1.8.8 1.8 1.8v3c0 1-.8 1.8-1.8 1.8zM83.5 186.2v35c0 4.2 3.4 7.5 7.5 7.5h62c4.2 0 7.5-3.4 7.5-7.5v-35"/><circle class="st0" cx="145" cy="209.6" r="7.3"/><path class="st0" d="M114.3 182.2l2.8-12.1c.4-1.6 1.8-2.8 3.5-2.8h8.4c1.7 0 3.2 1.2 3.5 2.8l2.6 12M108.6 169.9l-.6-6.7c0-1.3 5.2-7.8 16-7.8s15 6.5 15 7.8l-.6 6.7M138.8 167.4l1.6-2.6c.8-1.3 1.3-2.7 1.4-4.3l.5-5.8c0-1.5-6-9.3-19.1-9.3s-18.4 7.8-18.4 9.3l.5 5.7c.1 1.6.7 3.1 1.5 4.5l1.5 2.3M122.1 154.9"/><ellipse class="st0" cx="122.9" cy="131" rx="18.8" ry="8.5"/><ellipse class="st0" cx="122.9" cy="128" rx="18.8" ry="8.5"/><path class="st1" d="M104.1 134l.2 15.2M142.1 134l.2 15.2"/><path class="st0" d="M76.8 24.4l-7.3 17H85zM85 41.4h21.5L91.2 15.6l-10 17.3M87.3 22.3l3.1 4.4 2.1-4.4 3.9 2.1"/><path class="st2" d="M69 41.9l-14.8.3 16.6-4.3z"/><path class="st0" d="M96.8 48.2c0-1.8-1.5-3.3-3.3-3.3-1.6 0-3 1.2-3.2 2.8-1.3.2-2.3 1.4-2.3 2.7 0 1.5 1.2 2.8 2.8 2.8h.1c.3 1.2 1.4 2 2.6 2 1.5 0 2.8-1.2 2.8-2.8 0-.7-.2-1.3-.6-1.8.6-.6 1.1-1.4 1.1-2.4zM93.8 60.9l-.1-5.5"/><path class="st2" d="M94 60.9H80.4s1.1-3.3 4-3.3 6 1.8 6 1.8l3.6 1.5z"/><path class="st0" d="M0 36.4h71M247 37.4h-69s-2.3 4.8-7 10.2-20.3-.7-27.7 1c-7.3 1.7-28 4.7-35.7 2-7.7-2.7-5.7-4.7-1.2-9.2"/><path class="st3" d="M101.7 112.2L37.7.2M143.7 112.2l64-112"/><path class="st0" d="M178 37.4h-74"/><path class="st4" d="M113.1 47.7s.9-1.8 2.6-1.8 1.3 1.3 3 1.4c1.6.1 1.5-1.4 2.9-1.3 1.3.1 2.7 1 2.9 1.4M130.1 43.7s.8-1.8 2.5-1.8 1.3 1.3 2.9 1.4c1.6.1 1.5-1.4 2.8-1.3 1.3.1 2.6.9 2.8 1.4M154.1 44.7s.8-1.8 2.5-1.8 1.3 1.3 2.9 1.4c1.6.1 1.5-1.4 2.8-1.3 1.3.1 2.6.9 2.8 1.4"/><path class="st0" d="M119.5 3.9h-.5c-.6-1.4-1.9-2.4-3.5-2.4s-2.9.9-3.5 2.3c-1.5 0-2.7 1.2-2.7 2.7 0 1.5 1.2 2.7 2.7 2.7.6 0 1.1-.2 1.6-.5.6.3 1.2.5 1.9.5.8 0 1.6-.3 2.2-.7.5.4 1.1.7 1.8.7 1.5 0 2.7-1.2 2.7-2.7s-1.2-2.6-2.7-2.6zM170.8 36.9c.1-2.7 2.4-4.8 5-4.7 2.7.1 4.8 2.4 4.7 5M177.8 30.4l2.7-6.5M182.4 34.2l5.5-2.3M168 34.4l-6.5-2.7M171.8 29.8l-2.2-5.5"/></svg>