<svg xmlns="http://www.w3.org/2000/svg" width="224.3" height="180.3" viewBox="0 0 224.3 180.3"><style type="text/css">.st0{fill:none;stroke:#8E8E8E;stroke-miterlimit:10;} .st1{fill:none;stroke:#8E8E8E;stroke-miterlimit:10;stroke-dasharray:5;}</style><path class="st0" d="M176 166H25.4c-6.6 0-11.9-5.3-11.9-11.9V69c0-6.6 5.3-11.9 11.9-11.9H176c6.6 0 11.9 5.3 11.9 11.9v85.1c0 6.6-5.3 11.9-11.9 11.9zM209.1 179.8h-194C7 179.8.5 173.2.5 165.2v-106c0-8.1 6.6-14.6 14.6-14.6h194c8.1 0 14.6 6.6 14.6 14.6v106c.1 8.1-6.5 14.6-14.6 14.6zM201.3 44.5h-31.1v-2.9c0-2.9 2.3-5.2 5.2-5.2h20.7c2.9 0 5.2 2.3 5.2 5.2v2.9z"/><circle class="st0" cx="205.8" cy="76.7" r="7.5"/><circle class="st0" cx="207.3" cy="154.2" r="7.5"/><circle class="st0" cx="104.7" cy="94" r="4.4"/><path class="st0" d="M107.6 99.9h-5.9c-2.7 0-4.9 2.2-4.9 4.9v11.3c0 2 1.2 3.7 2.9 4.5v14.1c0 2.2 1.8 3.9 3.9 3.9h2c2.2 0 3.9-1.8 3.9-3.9v-14.1c1.7-.8 2.9-2.5 2.9-4.5v-11.3c.1-2.7-2.1-4.9-4.8-4.9zM156.7 80c0-4.5-3.6-8.1-8.1-8.1-4.1 0-7.5 3-8 7-3.2.6-5.7 3.4-5.7 6.8 0 3.8 3.1 6.9 6.9 6.9h.3c.8 2.9 3.5 5 6.6 5 3.8 0 6.9-3.1 6.9-6.9 0-1.7-.6-3.2-1.6-4.4 1.6-1.5 2.7-3.8 2.7-6.3zM149.3 111.2l-.3-13.8"/><path class="st0" d="M42.6 82.9l-8.1 18.8h17.1zM51.8 101.7h23.5L58.4 72.9 47.5 92.2M54.1 80.1l3.5 4.8 2.3-4.8 4.3 2.3M13.8 92.7h25M68.8 91.7h32M108.8 91.7h29M155.8 91.7h32"/><circle class="st0" cx="102.5" cy="10.3" r="1.9"/><path class="st0" d="M103.8 12.9h-2.6c-1.2 0-2.2 1-2.2 2.2v5c0 .9.5 1.6 1.3 2v6.2c0 1 .8 1.7 1.7 1.7h.9c1 0 1.7-.8 1.7-1.7V22c.8-.3 1.3-1.1 1.3-2v-5c.1-1.1-.9-2.1-2.1-2.1zM125.5 4.2c0-2-1.6-3.6-3.6-3.6-1.8 0-3.3 1.3-3.5 3.1-1.4.2-2.5 1.5-2.5 3 0 1.7 1.4 3 3 3h.1c.4 1.3 1.5 2.2 2.9 2.2 1.7 0 3-1.4 3-3 0-.7-.3-1.4-.7-2 .8-.7 1.3-1.6 1.3-2.7zM122.2 17.9l-.1-6.1"/><path class="st0" d="M75.2 5.4l-3.6 8.3h7.5zM79.8 13.7h9.8L82.1 1l-4.5 8.5M80.2 4.2l1.6 2.1 1-2.1 1.9 1M11.8 9.7h61M86.8 9.7h14M104.8 9.7h12M124.8 9.7h75"/><circle class="st1" cx="103.8" cy="113.2" r="32.7"/></svg>