<svg xmlns="http://www.w3.org/2000/svg" width="213.4" height="200.8" viewBox="0 0 213.4 200.8"><style type="text/css">.st0{fill:none;stroke:#8E8E8E;stroke-miterlimit:10;} .st1{fill:#8E8E8E;} .st2{fill:none;stroke:#8E8E8E;stroke-width:3;stroke-miterlimit:10;stroke-dasharray:1,3;} .st3{fill:none;stroke:#8E8E8E;stroke-miterlimit:10;stroke-dasharray:5;}</style><ellipse transform="matrix(.291 -.957 .957 .291 48.213 259.739)" class="st0" cx="199.4" cy="97.3" rx="4.9" ry="4.9"/><path class="st0" d="M201.6 90.2l2-6.7M206.5 93.5l5.3-2.8M206.6 99.5l6.7 2.1M203.2 104.5l2.8 5.2M197.2 104.5l-2 6.7M192.3 101.1l-5.3 2.8M192.2 95.1l-6.7-2M195.6 90.2l-2.8-5.2"/><path class="st0" d="M126.4 175.4h-47c-2.5 0-4.5-2-4.5-4.5v-4.1c0-2.5 2-4.5 4.5-4.5h46.9c2.5 0 4.5 2 4.5 4.5v4.1c.1 2.5-2 4.5-4.4 4.5zM117.1 162.2H98v-.1c0-1.3 1-2.3 2.3-2.3h14.4c1.3 0 2.4 1.1 2.4 2.4zM75.1 172.3l6.3 21.5c1.5 3.9 5.2 6.5 9.4 6.5h25.9c3.6 0 6.8-2.5 7.7-6l5.6-20.7"/><path class="st0" d="M84.8 179.3h35.4c1.4 0 2.4 1.3 2.1 2.6l-2.9 12.7c-.2 1-1.1 1.7-2.1 1.7H88.5c-1 0-1.8-.6-2.1-1.5l-3.7-12.7c-.4-1.4.6-2.8 2.1-2.8zM95.2 196.3l5.5-8.5 6.9 8.5M103.4 191.1l5.8-7.9 8 13.1"/><path class="st0" d="M99.7 83.3l-7.3 17h15.5zM107.9 100.3h21.5l-15.3-25.8L104 91.8M110.2 81.3l3.1 4.3 2.1-4.3 3.9 2"/><path class="st0" d="M83.4 68.8h-.5c-.6-1.4-1.9-2.4-3.5-2.4s-2.9.9-3.5 2.3c-1.5 0-2.7 1.2-2.7 2.7 0 1.5 1.2 2.7 2.7 2.7.6 0 1.1-.2 1.6-.5.6.3 1.2.5 1.9.5.8 0 1.6-.3 2.2-.7.5.4 1.1.7 1.8.7 1.5 0 2.7-1.2 2.7-2.7s-1.3-2.6-2.7-2.6z"/><path class="st1" d="M91.9 100.8l-14.8.3 16.5-4.3z"/><path class="st0" d="M144.7 106.1c0-1.8-1.5-3.3-3.3-3.3-1.6 0-3 1.2-3.2 2.8-1.3.2-2.3 1.3-2.3 2.7 0 1.5 1.2 2.8 2.8 2.8h.1c.3 1.2 1.4 2 2.6 2 1.5 0 2.8-1.2 2.8-2.8 0-.7-.2-1.3-.6-1.8.6-.5 1.1-1.4 1.1-2.4zM141.7 118.8l-.1-5.5"/><path class="st1" d="M141.9 118.8h-13.6s1.1-3.3 4-3.3 6 1.8 6 1.8l3.6 1.5z"/><path class="st0" d="M96.9 90.3h-64M122.9 89.3h58"/><path class="st0" d="M77.9 115.3h8l2.5 4h6v4h-22v-4.5zM71.9 119.3h16M80.5 123.2c0 1.4-1.2 2.6-2.6 2.6s-2.6-1.2-2.6-2.6M92.8 123.2c0 1.4-1.2 2.6-2.6 2.6s-2.6-1.2-2.6-2.6"/><path class="st1" d="M76.9 125.5l-15 .3 5.5-2h7.7zM88.6 125.5h-9.1l1.1-1.7h6.5z"/><path class="st0" d="M13.1 97.3c-1-3.1-.1-6.4 2.1-8.6-1.4-.3-2.9-.2-4.3.2-4.6 1.4-7.1 6.3-5.7 10.8 1.4 4.6 6.3 7.1 10.8 5.7 1.4-.4 2.7-1.2 3.7-2.2-3-.6-5.6-2.8-6.6-5.9z"/><path class="st2" d="M123.4 9.9c36.1 7 64.9 34.5 73.7 70M13 81.4c8.5-36.7 38.4-65.2 75.8-71.8"/><path class="st3" d="M44.2 114.2l51.7 45.1M169.6 113.5l-48.2 46.3"/><circle class="st0" cx="105.9" cy="9.2" r="8.7"/><path class="st0" d="M105.2 4.5l.7 4.7 2.7 4"/><path class="st1" d="M200.1 54.3l-.9-.7.5-.4 1.1.9.3.6-5.2 2.3-.3-.7 4.5-2zM196.2 58.6l6.8-.3.2.5-6.8.3-.2-.5zM203.1 61.2l-.9-.7.5-.4 1.1.9.3.6-5.2 2.3-.3-.7 4.5-2zM203.8 68.1c-1.8.8-3 .5-3.5-.6-.4-1 .2-2.1 1.9-2.9 1.8-.8 3-.4 3.5.6.5 1.1-.2 2.2-1.9 2.9zm-1.3-2.8c-1.4.6-2 1.3-1.7 2 .3.7 1.3.7 2.6.1s2-1.3 1.7-2c-.2-.6-1.2-.7-2.6-.1zM205.6 72.2c-1.8.8-3 .5-3.5-.6-.4-1 .2-2.1 1.9-2.9 1.8-.8 3-.4 3.5.6.5 1.1-.2 2.2-1.9 2.9zm-1.3-2.8c-1.4.6-2 1.3-1.7 2 .3.7 1.3.7 2.6.1s2-1.3 1.7-2c-.2-.6-1.2-.7-2.6-.1zM207.4 76.3c-1.8.8-3 .5-3.5-.6-.4-1 .2-2.1 1.9-2.9 1.8-.8 3-.4 3.5.6.5 1.2-.2 2.2-1.9 2.9zm-1.3-2.8c-1.4.6-2 1.3-1.7 2 .3.7 1.3.7 2.6.1s2-1.3 1.7-2c-.2-.6-1.2-.7-2.6-.1zM.7 77.4l.2 1.1H.3L0 77.1l.2-.6L5.7 78l-.2.7-4.8-1.3zM6.5 76.5L1 72.4l.2-.6 5.5 4.1-.2.6zM2.7 70.1l.2 1.1h-.6L2 69.9l.2-.6 5.5 1.5-.2.7-4.8-1.4zM6.5 64.3c1.9.5 2.7 1.5 2.4 2.7-.3 1.1-1.5 1.5-3.3 1-1.8-.5-2.6-1.6-2.3-2.7.2-1.1 1.4-1.5 3.2-1zm-.8 3c1.4.4 2.4.2 2.6-.5.2-.8-.6-1.4-2-1.8-1.4-.4-2.3-.3-2.5.5-.2.7.4 1.4 1.9 1.8z"/></svg>