<svg xmlns="http://www.w3.org/2000/svg" width="314" height="283.3" viewBox="0 0 314 283.3"><style type="text/css">.st0{fill:none;stroke:#8E8E8E;stroke-miterlimit:10;} .st1{fill:none;stroke:#8E8E8E;stroke-miterlimit:10;stroke-dasharray:12;} .st2{fill:none;stroke:#8E8E8E;stroke-width:3;stroke-miterlimit:10;} .st3{fill:none;stroke:#8E8E8E;stroke-miterlimit:10;stroke-dasharray:5;}</style><path class="st0" d="M12.5 135.7c0-1.9 0-3.7.1-5.5.6-16 3.8-31.4 9.1-45.8M289.2 205.3c-24.8 46.2-73.6 77.6-129.7 77.6-63.4 0-117.5-40.1-138.1-96.4M298.3 86.8c5.4 15.3 8.3 31.8 8.3 48.9 0 6.3-.4 12.5-1.2 18.6"/><path class="st1" d="M25.3 86.2l-8-3.7M302.3 85.4l-7.9 3.9"/><circle class="st0" cx="299.5" cy="178" r="4.9"/><path class="st0" d="M299.5 170.5v-7M305.2 172.3l4.2-4.2M307 178h7M305.2 183.7l4.2 4.2M299.5 185.5v7M293.8 183.7l-4.2 4.2M292 178h-7M293.8 172.3l-4.2-4.2"/><circle class="st0" cx="14.5" cy="159" r="4.9"/><path class="st0" d="M14.5 151.5v-7M20.2 153.3l4.2-4.2M22 159h7M20.2 164.7l4.2 4.2M14.5 166.5v7M8.8 164.7l-4.2 4.2M7 159H0M8.8 153.3l-4.2-4.2"/><path class="st0" d="M110.7 5.1c-.3 0-.6 0-.9.1-1.2-2.8-3.9-4.7-7.1-4.7-3.1 0-5.8 1.9-7 4.6-3 0-5.4 2.4-5.4 5.4 0 3 2.4 5.4 5.4 5.4 1.2 0 2.3-.4 3.2-1.1 1.1.7 2.5 1.1 3.9 1.1 1.6 0 3.2-.5 4.4-1.4 1 .9 2.2 1.4 3.6 1.4 3 0 5.4-2.4 5.4-5.4s-2.6-5.4-5.5-5.4zM188.6 27.7c0-7.9-6.4-14.3-14.3-14.3-7.2 0-13.2 5.4-14.2 12.3-5.7 1-10.1 5.9-10.1 11.9 0 6.7 5.4 12.1 12.1 12.1h.5c1.4 5.1 6.1 8.8 11.6 8.8 6.7 0 12.1-5.4 12.1-12.1 0-3-1.1-5.7-2.8-7.8 3.1-2.6 5.1-6.5 5.1-10.9z"/><path class="st2" d="M175.4 82.5l-.5-24.2"/><circle class="st0" cx="153.7" cy="60.6" r="2.7"/><path class="st0" d="M155.5 64.2H152c-1.6 0-3 1.3-3 3V74c0 1.2.7 2.3 1.8 2.7v8.6c0 1.3 1.1 2.4 2.4 2.4h1.2c1.3 0 2.4-1.1 2.4-2.4v-8.6c1-.5 1.8-1.5 1.8-2.7v-6.8c-.1-1.7-1.4-3-3.1-3z"/><circle class="st0" cx="235.9" cy="48.5" r="2.7"/><path class="st0" d="M237.7 52.1h-3.6c-1.6 0-3 1.3-3 3v6.8c0 1.2.7 2.3 1.8 2.7v8.6c0 1.3 1.1 2.4 2.4 2.4h1.2c1.3 0 2.4-1.1 2.4-2.4v-8.6c1-.5 1.8-1.5 1.8-2.7V55c-.1-1.6-1.4-2.9-3-2.9z"/><circle class="st0" cx="89" cy="48.5" r="2.7"/><path class="st0" d="M90.8 52.1h-3.6c-1.6 0-3 1.3-3 3v6.8c0 1.2.7 2.3 1.8 2.7v8.6c0 1.3 1.1 2.4 2.4 2.4h1.2c1.3 0 2.4-1.1 2.4-2.4v-8.6c1-.5 1.8-1.5 1.8-2.7V55c0-1.6-1.4-2.9-3-2.9zM76.5 45.9L99.6 69M222.1 45.9L245.2 69"/><path class="st3" d="M184 70.7c9.9 2.7 16.2 6.9 16.2 11.6 0 8.1-19.1 14.7-42.6 14.7S115 90.4 115 82.2c0-6 10.2-11.1 24.9-13.4"/><path class="st0" d="M184.5 151.1h-46.9c-2.5 0-4.5-2-4.5-4.5v-4.1c0-2.5 2-4.5 4.5-4.5h46.9c2.5 0 4.5 2 4.5 4.5v4.1c0 2.4-2 4.5-4.5 4.5zM175.2 137.9h-19.1v-.1c0-1.3 1-2.3 2.3-2.3h14.4c1.3 0 2.4 1.1 2.4 2.4zM133.3 148l6.3 21.5c1.5 3.9 5.2 6.5 9.4 6.5h25.9c3.6 0 6.8-2.5 7.7-6l5.6-20.7"/><path class="st0" d="M142.9 155h35.4c1.4 0 2.4 1.3 2.1 2.6l-2.9 12.7c-.2 1-1.1 1.7-2.1 1.7h-28.7c-1 0-1.8-.6-2.1-1.5l-3.7-12.7c-.5-1.4.5-2.8 2-2.8z"/></svg>