<svg xmlns="http://www.w3.org/2000/svg" width="172" height="135.5" viewBox="0 0 172 135.5"><style type="text/css">.st0{fill:none;stroke:#8E8E8E;stroke-miterlimit:10;} .st1{fill:none;stroke:#8E8E8E;stroke-miterlimit:10;stroke-dasharray:1,1;} .st2{fill:none;stroke:#8E8E8E;stroke-miterlimit:10;stroke-dasharray:5;}</style><path class="st0" d="M65.8 28l-4.9 11.4h10.4zM71 39.4h14.7L75.4 21.9l-6.8 11.7M72.8 26.1l2.1 2.9 1.4-2.9 2.6 1.4M69 108.4h7.3l-4.4-9.1-3.4 7.3M77 108.4h10.9l-8.3-14-5 9.4M77.5 97.9l1.7 2.3 1.2-2.3 2.1 1.1"/><path class="st0" d="M147.6 21.9c0-2-1.6-3.6-3.6-3.6-1.8 0-3.3 1.3-3.5 3.1-1.4.2-2.5 1.5-2.5 3 0 1.7 1.4 3 3 3h.1c.4 1.3 1.5 2.2 2.9 2.2 1.7 0 3-1.4 3-3 0-.7-.3-1.4-.7-2 .8-.6 1.3-1.6 1.3-2.7zM144.4 35.6l-.2-6"/><path class="st0" d="M111.9 68.2H64.4c-1 0-1.5-1.1-1-1.9l3.8-3.6c.2-.3.6-.5 1-.5l40.1.2c.4 0 .7.2 1 .5l3.6 3.4c.6.8 0 1.9-1 1.9zM113.2 67.2v67.1c0 .4-.3.7-.7.7H64c-.4 0-.7-.3-.7-.7V67.2"/><path class="st0" d="M107.1 126.5H70c-.9 0-1.6-.7-1.6-1.6V75.3c0-.9.7-1.6 1.6-1.6h37.2c.9 0 1.6.7 1.6 1.6v49.6c-.1.9-.8 1.6-1.7 1.6zM64 33.4H0M82 32.4h90M85 102.6c1.4 0 23.6.1 23.6.1"/><ellipse transform="matrix(.291 -.957 .957 .291 57.803 110.31)" class="st0" cx="103.3" cy="16.1" rx="3" ry="3"/><path class="st0" d="M104.7 11.8l1.2-4.1M107.7 13.8l3.2-1.7M107.7 17.5l4.1 1.2M105.7 20.5l1.7 3.2M102 20.5l-1.2 4.1M99 18.5l-3.2 1.7M99 14.8l-4.1-1.2M101 11.8l-1.7-3.2"/><ellipse transform="matrix(.291 -.957 .957 .291 -17.443 157.424)" class="st0" cx="97.5" cy="90.5" rx="2.1" ry="2.1"/><path class="st0" d="M98.5 87.4l.8-2.9M100.6 88.8l2.2-1.2M100.6 91.4l2.9.9M99.2 93.5l1.2 2.3M96.6 93.6l-.9 2.9M94.4 92.1l-2.2 1.2M94.4 89.5l-2.9-.8M95.9 87.4l-1.2-2.2"/><path class="st1" d="M79.5 73.9v53M96.5 73.9v53M68 90.4h41M69 110.4h40"/><path class="st2" d="M73.7 58.2L38.7.9M91.4 58.1L124.7.2"/></svg>