<svg xmlns="http://www.w3.org/2000/svg" width="213.4" height="214.7" viewBox="0 0 213.4 214.7"><style type="text/css">.st0{fill:none;stroke:#8E8E8E;stroke-miterlimit:10;} .st1{fill:#8E8E8E;} .st2{fill:none;stroke:#8E8E8E;stroke-miterlimit:10;stroke-dasharray:5;} .st3{fill:none;stroke:#8E8E8E;stroke-width:3;stroke-miterlimit:10;stroke-dasharray:1,3;} .st4{fill:none;stroke:#8E8E8E;stroke-miterlimit:10;stroke-dasharray:1,1;}</style><path class="st0" d="M93.6 27l-8.1 18.7h17.1zM102.8 45.7h23.5L109.4 17 98.5 36.2M105.1 24.2l3.5 4.8 2.3-4.8 4.3 2.3"/><path class="st0" d="M75.6 10.4c-.2 0-.3 0-.5.1-.6-1.5-2.1-2.6-3.9-2.6-1.7 0-3.2 1-3.9 2.5-1.6 0-3 1.3-3 3 0 1.6 1.3 3 3 3 .7 0 1.3-.2 1.7-.6.6.4 1.4.6 2.1.6.9 0 1.7-.3 2.4-.8.5.5 1.2.8 2 .8 1.6 0 3-1.3 3-3s-1.3-3-2.9-3z"/><path class="st1" d="M85 45.8l-16.3.3 18.2-4.7z"/><path class="st0" d="M143.2 51.6c0-2-1.6-3.6-3.6-3.6-1.8 0-3.3 1.3-3.6 3.1-1.4.2-2.5 1.5-2.5 3 0 1.7 1.4 3 3 3h.1c.4 1.3 1.5 2.2 2.9 2.2 1.7 0 3-1.4 3-3 0-.7-.3-1.4-.7-2 .9-.6 1.4-1.6 1.4-2.7zM139.9 65.7l-.1-6.1"/><path class="st1" d="M140.1 65.2h-15s1.2-3.4 4.4-3.4c3.1 0 6.6 1.8 6.6 1.8l4 1.6z"/><path class="st0" d="M90.8 33.7h-71M118.8 32.7h64"/><path class="st0" d="M69.5 61.7h8.8l2.8 4h6.2v5h-24v-5zM62.8 65.7h18M72.4 70.5c0 1.6-1.3 2.9-2.9 2.9s-2.9-1.3-2.9-2.9M85.9 70.5c0 1.6-1.3 2.9-2.9 2.9-1.6 0-2.9-1.3-2.9-2.9"/><path class="st1" d="M68.4 73l-16.5.4 6-2.2h8.6zM81.3 73.1L71.2 73l1.3-1.8h7.2z"/><path class="st0" d="M124.8 107.5H83.1c-.9 0-1.3-1-.8-1.7l3.3-3.1c.2-.3.5-.4.8-.4l35.2.2c.3 0 .6.2.8.4l3.2 2.9c.6.7.1 1.7-.8 1.7zM124.9 165.5H83.2c-.6 0-1-.5-1-1v-57.3H126v57.3c0 .5-.5 1-1.1 1zM120.4 158.1H88.2c-.9 0-1.6-.7-1.6-1.6v-43.1c0-.9.7-1.6 1.6-1.6h32.2c.9 0 1.6.7 1.6 1.6v43.1c0 .9-.7 1.6-1.6 1.6z"/><path class="st2" d="M99.2 98.2l-52-98M169.2.2l-52 98"/><path class="st3" d="M86.6 204.4c-36.1-7-64.9-34.5-73.7-70M197 132.9c-8.5 36.7-38.4 65.2-75.8 71.8"/><path class="st0" d="M109.2 133.9h-11c-1.5 0-2.7-1.2-2.7-2.7v-9.3c0-1.5 1.2-2.7 2.7-2.7h11c1.5 0 2.7 1.2 2.7 2.7v9.3c0 1.5-1.2 2.7-2.7 2.7z"/><path class="st4" d="M89.8 152.7h26"/><path class="st0" d="M90.3 151.2v3M116.3 151.2v3M108.3 150.2v5"/><circle class="st0" cx="104.8" cy="205.6" r="8.7"/><path class="st0" d="M104.2 200.9l.6 4.7 2.7 4"/><ellipse transform="matrix(.291 -.957 .957 .291 35.365 269.2)" class="st0" cx="199.3" cy="110.7" rx="4.9" ry="4.9"/><path class="st0" d="M201.5 103.6l2.1-6.7M206.5 106.9l5.2-2.8M206.5 112.9l6.7 2.1M203.1 117.9l2.8 5.2M197.2 117.9l-2.1 6.7M192.2 114.5l-5.2 2.8M192.2 108.6l-6.7-2.1M195.6 103.6l-2.8-5.2"/><path class="st0" d="M12.1 115.7c-1-3.1-.1-6.4 2.1-8.6-1.4-.3-2.9-.2-4.3.2-4.6 1.4-7.1 6.3-5.7 10.8 1.4 4.6 6.3 7.1 10.8 5.7 1.4-.4 2.7-1.2 3.7-2.2-3.1-.6-5.6-2.8-6.6-5.9z"/><path class="st1" d="M210.3 136.9l-.2-1.4.7.1.2 1.7-.3.8-6.7-2.4.3-.9 6 2.1zM203.1 137.4l6.4 5.6-.3.7-6.4-5.6.3-.7zM207.1 145.7l-.2-1.4.7.1.2 1.7-.3.8-6.7-2.4.3-.9 6 2.1zM201.9 152.5c-2.3-.8-3.2-2.1-2.7-3.6.5-1.3 2-1.7 4.2-.9 2.2.8 3.1 2.2 2.6 3.6s-2 1.7-4.1.9zm1.2-3.6c-1.7-.6-2.9-.5-3.2.4-.3.9.6 1.8 2.3 2.4 1.6.6 2.9.6 3.2-.4.3-.8-.5-1.8-2.3-2.4zM199.9 157.8c-2.3-.8-3.2-2.1-2.7-3.6.5-1.3 2-1.7 4.2-.9 2.2.8 3.1 2.2 2.6 3.6-.4 1.3-1.9 1.6-4.1.9zm1.3-3.7c-1.7-.6-2.9-.5-3.2.4-.3.9.6 1.8 2.3 2.4 1.6.6 2.9.6 3.2-.4.2-.8-.5-1.7-2.3-2.4zM198 163c-2.3-.8-3.2-2.1-2.7-3.6.5-1.3 2-1.7 4.2-.9 2.2.8 3.1 2.2 2.6 3.6-.4 1.4-2 1.7-4.1.9zm1.2-3.6c-1.7-.6-2.9-.5-3.2.4-.3.9.6 1.8 2.3 2.4 1.6.6 2.9.6 3.2-.4.3-.8-.5-1.8-2.3-2.4zM8.7 161.6l1.1.9-.6.4-1.3-1.2-.3-.7 6.6-2.5.3.9-5.8 2.2zM13.9 156.4l-8.5-.1-.3-.7 8.5.1.3.7zM5.5 152.8l1.1.9-.6.4-1.4-1.1-.3-.8 6.7-2.5.3.9-5.8 2.2zM10.1 147.4l-.6.2-.9-.5c-2.2-1.1-3.4-1.5-4.4-1.2-.7.3-1.2.8-.8 1.8.2.6.7 1 1.1 1.2l-.5.5c-.6-.3-1.1-.9-1.4-1.6-.5-1.4.2-2.4 1.2-2.8 1.2-.5 2.5.1 4.4 1l.7.3-1.1-3 .7-.3 1.6 4.4zM.8 140.3l.9 2.5 1.8-.4c-.1-.1-.2-.3-.2-.5-.2-.5-.3-1.1-.2-1.6.1-.6.5-1.3 1.4-1.6 1.3-.5 2.7.2 3.2 1.6.3.7.3 1.4.2 1.8h-.8c.1-.3.1-1-.2-1.6-.3-.8-1.1-1.4-2-1-.9.3-1.3 1.1-.8 2.5.1.4.3.7.4.9l-3.4.8-1.1-3.1.8-.3zM99 141.4l-.6 1.8h-.7l1.9-5.6h.9l1.9 5.6h-.8l-.6-1.8h-2zm1.8-.6l-.5-1.6c-.1-.4-.2-.7-.3-1-.1.3-.2.7-.3 1l-.5 1.6h1.6zM103.2 137.6c.3-.1.8-.1 1.4-.1.7 0 1.2.2 1.6.5.3.3.5.7.5 1.2s-.1.9-.4 1.2c-.4.4-1 .6-1.7.6h-.6v2.2h-.7v-5.6zm.7 2.7c.2 0 .4.1.6.1.9 0 1.4-.4 1.4-1.2 0-.7-.5-1.1-1.3-1.1-.3 0-.6 0-.7.1v2.1zM107.6 137.6c.3-.1.8-.1 1.4-.1.7 0 1.2.2 1.6.5.3.3.5.7.5 1.2s-.1.9-.4 1.2c-.4.4-1 .6-1.7.6h-.6v2.2h-.7v-5.6zm.7 2.7c.2 0 .4.1.6.1.9 0 1.4-.4 1.4-1.2 0-.7-.5-1.1-1.3-1.1-.3 0-.6 0-.7.1v2.1z"/><path class="st0" d="M95.5 131.2l6.3-8.2 7.4 10.9M103.7 126.6l5.5-7.4"/></svg>