<svg xmlns="http://www.w3.org/2000/svg" width="273.6" height="173.7" viewBox="0 0 273.6 173.7"><style type="text/css">.st0{fill:none;stroke:#8E8E8E;stroke-miterlimit:10;} .st1{fill:#8E8E8E;} .st2{fill:none;stroke:#8E8E8E;stroke-linecap:round;stroke-linejoin:round;stroke-miterlimit:10;} .st3{fill:none;stroke:#8E8E8E;stroke-miterlimit:10;stroke-dasharray:5;}</style><ellipse transform="matrix(.056 -.999 .999 .056 224.058 278.232)" class="st0" cx="259.1" cy="20.7" rx="4.9" ry="4.9"/><path class="st0" d="M259.5 13.2l.4-7M265.1 15.3l4.4-4M266.6 21.1l7 .4M264.5 26.7l3.9 4.4M258.7 28.2l-.4 7M253.1 26.1l-4.5 3.9M251.6 20.3l-7-.4M253.7 14.7l-4-4.5"/><path class="st0" d="M135.4 22.7l-7.3 17h15.5zM143.6 39.7h21.5l-15.3-25.8-10 17.3M145.9 20.6l3.1 4.3 2.1-4.3 3.9 2.1"/><path class="st0" d="M119.1 8.2h-.5c-.6-1.4-1.9-2.4-3.5-2.4s-2.9.9-3.5 2.3c-1.5 0-2.7 1.2-2.7 2.7 0 1.5 1.2 2.7 2.7 2.7.6 0 1.1-.2 1.6-.5.6.3 1.2.5 1.9.5.8 0 1.6-.3 2.2-.7.5.4 1.1.7 1.8.7 1.5 0 2.7-1.2 2.7-2.7s-1.3-2.6-2.7-2.6zM229.1 31.2h-.5c-.6-1.4-1.9-2.4-3.5-2.4s-2.9.9-3.5 2.3c-1.5 0-2.7 1.2-2.7 2.7 0 1.5 1.2 2.7 2.7 2.7.6 0 1.1-.2 1.6-.5.6.3 1.2.5 1.9.5.8 0 1.6-.3 2.2-.7.5.4 1.1.7 1.8.7 1.5 0 2.7-1.2 2.7-2.7-.1-1.4-1.3-2.6-2.7-2.6zM56.1 28.2h-.5c-.6-1.4-1.9-2.4-3.5-2.4s-2.9.9-3.5 2.3c-1.5 0-2.7 1.2-2.7 2.7 0 1.5 1.2 2.7 2.7 2.7.6 0 1.1-.2 1.6-.5.6.3 1.2.5 1.9.5.8 0 1.6-.3 2.2-.7.5.4 1.1.7 1.8.7 1.5 0 2.7-1.2 2.7-2.7-.1-1.4-1.3-2.6-2.7-2.6z"/><path class="st1" d="M127.6 40.2l-14.8.2 16.5-4.2z"/><path class="st0" d="M31.4 85.7l-7.3 17h15.5zM39.6 102.7h21.5L45.8 76.9l-10 17.3M41.9 83.6l3.1 4.3 2.1-4.3 3.9 2.1"/><path class="st1" d="M23.6 103.2l-14.8.2 16.5-4.2z"/><path class="st0" d="M180.4 45.4c0-1.8-1.5-3.3-3.3-3.3-1.6 0-3 1.2-3.2 2.8-1.3.2-2.3 1.3-2.3 2.7 0 1.5 1.2 2.8 2.8 2.8h.1c.3 1.2 1.4 2 2.6 2 1.5 0 2.8-1.2 2.8-2.8 0-.7-.2-1.3-.6-1.8.6-.5 1.1-1.4 1.1-2.4zM177.4 58.2l-.1-5.5"/><path class="st1" d="M177.6 58.2H164s1.1-3.3 4-3.3 6 1.8 6 1.8l3.6 1.5z"/><path class="st0" d="M210.4 76.4c0-1.8-1.5-3.3-3.3-3.3-1.6 0-3 1.2-3.2 2.8-1.3.2-2.3 1.3-2.3 2.7 0 1.5 1.2 2.8 2.8 2.8h.1c.3 1.2 1.4 2 2.6 2 1.5 0 2.8-1.2 2.8-2.8 0-.7-.2-1.3-.6-1.8.6-.5 1.1-1.4 1.1-2.4zM207.4 89.2l-.1-5.5"/><path class="st1" d="M207.6 89.2H194s1.1-3.3 4-3.3 6 1.8 6 1.8l3.6 1.5z"/><path class="st0" d="M80.4 59.4c0-1.8-1.5-3.3-3.3-3.3-1.6 0-3 1.2-3.2 2.8-1.3.2-2.3 1.3-2.3 2.7 0 1.5 1.2 2.8 2.8 2.8h.1c.3 1.2 1.4 2 2.6 2 1.5 0 2.8-1.2 2.8-2.8 0-.7-.2-1.3-.6-1.8.6-.5 1.1-1.4 1.1-2.4zM77.4 72.2l-.1-5.5"/><path class="st1" d="M77.6 72.2H64s1.1-3.3 4-3.3 6 1.8 6 1.8l3.6 1.5z"/><path class="st0" d="M99.4 36.4c0-1.8-1.5-3.3-3.3-3.3-1.6 0-3 1.2-3.2 2.8-1.3.2-2.3 1.3-2.3 2.7 0 1.5 1.2 2.8 2.8 2.8h.1c.3 1.2 1.4 2 2.6 2 1.5 0 2.8-1.2 2.8-2.8 0-.7-.2-1.3-.6-1.8.6-.5 1.1-1.4 1.1-2.4zM96.4 49.2l-.1-5.5"/><path class="st1" d="M96.6 49.2H83s1.1-3.3 4-3.3 6 1.8 6 1.8l3.6 1.5z"/><path class="st0" d="M113.6 54.7h8l2.5 4h6v4h-22v-4.5zM107.6 58.7h16M116.2 62.6c0 1.4-1.2 2.6-2.6 2.6-1.4 0-2.6-1.2-2.6-2.6M128.5 62.6c0 1.4-1.2 2.6-2.6 2.6-1.4 0-2.6-1.2-2.6-2.6"/><path class="st1" d="M112.6 64.8l-15 .4 5.5-2h7.7zM124.3 64.9l-9.1-.1 1.1-1.6h6.5z"/><path class="st0" d="M183.2 113.2l2.6-3.7c0-.2-.1-.2-.1-.4l-22.5-12.5c-.1-.1-.3 0-.3.1l-3.1 3.6c0 .2 0 .2.1.4l23.2 12.6c-.1 0 0 0 .1-.1z"/><path class="st2" d="M183 154.1l-22.5-12.2c-.6-.4-1-1-1-1.7v-39.8"/><path class="st2" d="M185.9 109.3l.4 40.9-3 3.5-.2-40.3zM180 115.4l-.2 30.5-17.5-9.2-.3-30.7z"/><path class="st0" d="M92.7 113.2l-2.6-3.7c0-.2.1-.2.1-.4l22.5-12.5c.1-.1.3 0 .3.1l3.1 3.6c0 .2 0 .2-.1.4l-23.2 12.6s-.1 0-.1-.1z"/><path class="st2" d="M92.9 154.1l22.5-12.2c.6-.4 1-1 1-1.7v-39.8"/><path class="st2" d="M90 109.3l-.5 40.9 3 3.5.3-40.3zM95.8 115.4l.2 30.5 17.5-9.2.3-30.7z"/><path class="st0" d="M152.6 98.4h-30c-.6 0-1-.7-.6-1.2l2.4-2.2c.1-.2.4-.3.6-.3l25.4.1c.2 0 .5.1.6.3l2.3 2.1c.3.5-.1 1.2-.7 1.2zM152.4 140.2H123c-.6 0-1-.5-1-1v-41h31.5v41c-.1.5-.5 1-1.1 1zM149 134.9h-22.3c-.9 0-1.6-.7-1.6-1.6v-30.1c0-.9.7-1.6 1.6-1.6H149c.9 0 1.6.7 1.6 1.6v30.1c0 .8-.7 1.6-1.6 1.6zM118.8 168c4 3.2 10.1 5.2 17.1 5.2 12 0 21.7-6 21.7-13.5 0-.9-.2-1.8-.4-2.7M151.7 150.5c-4-2.7-9.6-4.3-15.9-4.3-12 0-21.7 6-21.7 13.5M118.2 155.5l-4 4.2-1.4-6.2M154.2 162.4l2.7-5.1 3 5.5"/><ellipse class="st0" cx="135.2" cy="159.9" rx="4" ry="2.7"/><path class="st0" d="M131.6 28.7h-52L.3 103.4M158.6 28.7h41l68 73.7"/><path class="st3" d="M173.1 96.2l38-95M108.1 97.2l-39-97M185.6 103.2l83.7-21.8M96.6 103.2L.3 77.9M127.1 91.2l-63.5-85M149.6 91.7l70.5-87.5"/><path class="st1" d="M172.2 121.3l-2.5.9-.1-1.4 3-1.1 1.5.2-1.8 12.9-1.7-.2 1.6-11.3zM133.1 124.7v-1.1l1.4-1.3c3.3-3.2 4.8-4.8 4.8-6.8 0-1.3-.6-2.5-2.6-2.5-1.2 0-2.2.6-2.8 1.1l-.6-1.2c.9-.8 2.2-1.3 3.7-1.3 2.8 0 4 1.9 4 3.8 0 2.4-1.7 4.3-4.5 7l-1 1h5.8v1.5h-8.2zM101.7 131.2c.5.2 1.8.5 3 .3 2.2-.4 2.7-1.9 2.5-3-.3-1.8-2.1-2.3-3.8-2l-1 .2-.2-1.3 1-.2c1.3-.2 2.8-1.1 2.5-2.7-.2-1-1-1.8-2.6-1.5-1 .2-1.9.8-2.4 1.3l-.7-1.2c.6-.6 1.8-1.3 3.2-1.6 2.5-.4 3.9.9 4.2 2.4.2 1.3-.4 2.6-1.8 3.4 1.6 0 3.1 1 3.4 2.8.4 2.1-.9 4.1-4 4.7-1.4.2-2.8 0-3.5-.3l.2-1.3zM240 47.2c.5-.1 1.2-.2 1.9-.2 1 0 1.7.2 2.2.6.4.3.7.8.7 1.4 0 .8-.5 1.5-1.4 1.8.8.2 1.7.8 1.7 2 0 .7-.3 1.2-.7 1.6-.6.5-1.5.8-2.8.8-.7 0-1.3 0-1.6-.1v-7.9zm1 3.3h.9c1.1 0 1.8-.6 1.8-1.4 0-.9-.7-1.3-1.8-1.3-.5 0-.8 0-.9.1v2.6zm0 3.9h.9c1.1 0 2.1-.4 2.1-1.6 0-1.1-.9-1.6-2.1-1.6h-.9v3.2zM246.5 51.2v-1.8h.9v1.1c.3-.8.9-1.3 1.6-1.3h.3v1h-.4c-.7 0-1.3.6-1.4 1.4v3.6h-1v-4zM251.6 47.8c0 .4-.3.6-.7.6-.4 0-.6-.3-.6-.6 0-.4.3-.7.7-.7.4 0 .6.3.6.7zm-1.2 7.4v-5.8h1.1v5.8h-1.1zM258.3 49.4v5c0 1.3-.3 2.1-.8 2.7-.6.5-1.4.7-2.1.7-.7 0-1.5-.2-1.9-.5l.3-.8c.4.2 1 .5 1.7.5 1.1 0 1.9-.6 1.9-2v-.6c-.3.5-.9 1-1.8 1-1.4 0-2.5-1.2-2.5-2.8 0-2 1.3-3.1 2.6-3.1 1 0 1.6.5 1.8 1v-.9h.8zm-1.1 2.3c0-.2 0-.3-.1-.5-.2-.6-.7-1.1-1.5-1.1-1 0-1.7.9-1.7 2.2 0 1.1.6 2.1 1.7 2.1.6 0 1.2-.4 1.5-1.1.1-.2.1-.4.1-.6v-1zM260 46.7h1.1v3.6c.2-.3.4-.6.8-.7.3-.2.7-.3 1.1-.3.8 0 2 .5 2 2.5v3.5h-1.1V52c0-.9-.3-1.7-1.3-1.7-.7 0-1.2.5-1.4 1.1-.1.1-.1.3-.1.5v3.5H260v-8.7zM267.8 47.7v1.7h1.5v.8h-1.5v3.1c0 .7.2 1.1.8 1.1.3 0 .5 0 .6-.1v.8c-.2.1-.5.1-.9.1-.5 0-.9-.2-1.1-.4-.3-.3-.4-.8-.4-1.5v-3.2h-.9v-.8h.9V48l1-.3zM14.3 46.2c.6-.1 1.4-.2 2.2-.2 1.5 0 2.6.3 3.3 1 .7.7 1.1 1.6 1.1 2.9 0 1.3-.4 2.4-1.2 3.1-.8.8-2 1.2-3.6 1.2-.7 0-1.4 0-1.9-.1v-7.9zm1 7.2c.3 0 .6.1 1.1.1 2.2 0 3.4-1.2 3.4-3.4 0-1.9-1.1-3.1-3.3-3.1-.5 0-.9 0-1.2.1v6.3zM25.4 54.2l-.1-.7c-.3.5-.9.9-1.8.9-1.2 0-1.8-.8-1.8-1.7 0-1.4 1.2-2.2 3.5-2.2v-.1c0-.5-.1-1.3-1.3-1.3-.5 0-1.1.2-1.5.4l-.2-.7c.5-.3 1.2-.5 1.9-.5 1.8 0 2.2 1.2 2.2 2.4v2.2c0 .5 0 1 .1 1.4h-1zm-.1-3c-1.2 0-2.5.2-2.5 1.3 0 .7.5 1 1 1 .8 0 1.2-.5 1.4-1 0-.1.1-.2.1-.3v-1zM28 50.2v-1.8h.9v1.1c.3-.8.9-1.3 1.6-1.3h.3v1h-.4c-.7 0-1.3.6-1.4 1.4v3.6h-1v-4zM33 51c.2-.2.4-.5.5-.7l1.7-2h1.3l-2.2 2.4 2.6 3.4h-1.3l-2-2.8-.6.7v2.2h-1v-8.5h1V51z"/></svg>