<svg xmlns="http://www.w3.org/2000/svg" width="196.7" height="220.7" viewBox="0 0 196.7 220.7"><style type="text/css">.st0{fill:none;stroke:#8E8E8E;stroke-miterlimit:10;} .st1{fill:#8E8E8E;} .st2{fill:none;stroke:#8E8E8E;stroke-miterlimit:10;stroke-dasharray:5;} .st3{fill:none;stroke:#8E8E8E;stroke-width:3;stroke-miterlimit:10;stroke-dasharray:1,3;} .st4{fill:#8E8E8E;stroke:#8E8E8E;stroke-miterlimit:10;}</style><path class="st0" d="M83.2 34l-8 18.7h17.1zM92.5 52.7H116L99.1 24l-11 19.2M94.8 31.2l3.4 4.8 2.3-4.8 4.4 2.3"/><path class="st0" d="M65.2 17.4c-.2 0-.3 0-.5.1-.6-1.5-2.1-2.6-3.9-2.6-1.7 0-3.2 1-3.9 2.5-1.6 0-3 1.3-3 3 0 1.6 1.3 3 3 3 .7 0 1.3-.2 1.7-.6.6.4 1.4.6 2.1.6.9 0 1.7-.3 2.4-.8.5.5 1.2.8 2 .8 1.6 0 3-1.3 3-3 .1-1.6-1.3-3-2.9-3z"/><path class="st1" d="M74.6 52.8l-16.3.3 18.2-4.7z"/><path class="st0" d="M132.8 58.6c0-2-1.6-3.6-3.6-3.6-1.8 0-3.3 1.3-3.6 3.1-1.4.2-2.5 1.5-2.5 3 0 1.7 1.4 3 3 3h.1c.4 1.3 1.5 2.2 2.9 2.2 1.7 0 3-1.4 3-3 0-.7-.3-1.4-.7-2 .9-.6 1.4-1.6 1.4-2.7zM129.6 72.7l-.2-6.1"/><path class="st1" d="M129.8 72.2h-15s1.2-3.4 4.4-3.4c3.1 0 6.6 1.8 6.6 1.8l4 1.6z"/><path class="st0" d="M80.5 40.7h-71M108.5 39.7h64"/><path class="st0" d="M59.2 68.7H68l2.8 4H77v5H53v-5zM52.5 72.7h18M62.1 77.5c0 1.6-1.3 2.9-2.9 2.9-1.6 0-2.9-1.3-2.9-2.9M75.6 77.5c0 1.6-1.3 2.9-2.9 2.9s-2.9-1.3-2.9-2.9"/><path class="st1" d="M58.1 80l-16.6.4 6.1-2.2h8.5zM71 80.1L60.9 80l1.3-1.8h7.2z"/><path class="st0" d="M114.5 114.5H72.8c-.9 0-1.3-1-.8-1.7l3.3-3.1c.2-.3.5-.4.8-.4l35.2.2c.3 0 .6.2.8.4l3.2 2.9c.5.7 0 1.7-.8 1.7zM114.6 172.5H72.9c-.6 0-1-.5-1-1v-57.3h43.8v57.3c-.1.5-.6 1-1.1 1zM110.1 165.1H77.8c-.9 0-1.6-.7-1.6-1.6v-43.1c0-.9.7-1.6 1.6-1.6H110c.9 0 1.6.7 1.6 1.6v43.1c.1.9-.6 1.6-1.5 1.6zM89 110c0-4.9 3.9-8.8 8.8-8.8s8.8 3.9 8.8 8.8M104.7 104c0-3.8-3.1-6.9-6.9-6.9-3.8 0-6.9 3.1-6.9 6.9"/><path class="st2" d="M88.8 98.2l-52-98M158.8.2l-52 98"/><path class="st0" d="M82.9 135.5l-5.7 13.2h12zM89.5 148.7H106l-11.9-20.2-7.7 13.5M91 133.5l2.5 3.4 1.6-3.4 3 1.6M100.5 138.7h11"/><circle class="st0" cx="51.2" cy="152.6" r="5"/><circle class="st0" cx="49.8" cy="154.6" r="5"/><path class="st0" d="M129.8 132h25.5v32.2h-25.5zM131.8 130h25.5v32.2h-25.5z"/><path class="st3" d="M81.3 211.4c-36.1-7-64.9-34.5-73.7-70M191.7 139.9c-8.5 36.7-38.4 65.2-75.8 71.8"/><path class="st0" d="M94 206.7h13.5v13.5H94zM94 220.2l13.5-13.5"/><path class="st1" d="M98.4 208.3v2.1h2v.5h-2v2.1h-.6v-2.1h-2v-.5h2v-2.1h.6zM105.2 216.1v.6H103v-.6h2.2z"/><path class="st0" d="M196.2 129.5c0 2.3-1.9 4.2-4.2 4.2s-4.2-1.9-4.2-4.2c0-2.3 4.2-7.8 4.2-7.8s4.2 5.5 4.2 7.8z"/><path class="st4" d="M.5 131.2c0 3.6 3.5 6.5 6.5 6.5v-13c-3 0-6.5 2.9-6.5 6.5z"/><path class="st0" d="M8 124.7v13c3.6 0 6.5-2.9 6.5-6.5s-2.9-6.5-6.5-6.5z"/></svg>