<svg xmlns="http://www.w3.org/2000/svg" width="163.2" height="144.8" viewBox="0 0 163.2 144.8"><style type="text/css">.st0{fill:none;stroke:#8E8E8E;stroke-miterlimit:10;} .st1{fill:#8E8E8E;} .st2{fill:none;stroke:#8E8E8E;stroke-miterlimit:10;stroke-dasharray:5;} .st3{fill:none;stroke:#8E8E8E;stroke-linecap:round;stroke-linejoin:round;stroke-miterlimit:10;}</style><path class="st0" d="M74 19.6l-8.1 18.7H83zM83.2 38.3h23.5L89.8 9.6 78.9 28.8M85.5 16.8l3.5 4.8 2.3-4.8 4.3 2.3"/><path class="st0" d="M55.9 3c-.2 0-.3 0-.5.1-.6-1.5-2.1-2.6-3.9-2.6-1.7 0-3.2 1-3.9 2.5-1.6 0-3 1.3-3 3 0 1.6 1.3 3 3 3 .7 0 1.3-.2 1.7-.6.7.3 1.4.6 2.2.6.9 0 1.7-.3 2.4-.8.5.5 1.2.8 2 .8 1.6 0 3-1.3 3-3s-1.3-3-3-3z"/><path class="st1" d="M65.3 38.4l-16.2.3L67.3 34z"/><path class="st0" d="M123.6 44.2c0-2-1.6-3.6-3.6-3.6-1.8 0-3.3 1.3-3.6 3.1-1.4.2-2.5 1.5-2.5 3 0 1.7 1.4 3 3 3h.1c.4 1.3 1.5 2.2 2.9 2.2 1.7 0 3-1.4 3-3 0-.7-.3-1.4-.7-2 .9-.6 1.4-1.6 1.4-2.7zM120.3 58.3l-.2-6.1"/><path class="st1" d="M120.5 57.8h-15s1.2-3.4 4.4-3.4c3.1 0 6.6 1.8 6.6 1.8l4 1.6z"/><path class="st0" d="M71.2 26.3H.2M99.2 25.3h64"/><path class="st0" d="M49.9 54.3h8.8l2.8 4h6.2v5h-24v-5zM43.2 58.3h18M52.8 63.1c0 1.6-1.3 2.9-2.9 2.9S47 64.7 47 63.1M66.3 63.1c0 1.6-1.3 2.9-2.9 2.9-1.6 0-2.9-1.3-2.9-2.9"/><path class="st1" d="M48.8 65.6l-16.6.4 6.1-2.2h8.6zM61.7 65.7l-10.1-.1 1.3-1.8h7.2z"/><path class="st0" d="M100.7 98.3H67.5c-.7 0-1.1-.8-.7-1.3l2.6-2.5c.2-.2.4-.3.7-.3l28 .1c.3 0 .5.1.7.3l2.5 2.3c.4.6.1 1.4-.6 1.4zM100.5 144.3H67.8c-.6 0-1-.5-1-1V98h34.8v45.3c0 .6-.5 1-1.1 1zM96.9 138.5h-25c-.9 0-1.6-.7-1.6-1.6v-33.6c0-.9.7-1.6 1.6-1.6h25c.9 0 1.6.7 1.6 1.6v33.6c-.1.8-.8 1.6-1.6 1.6zM80.4 94.7c0-3.9 3.1-7 7-7s7 3.1 7 7M92.9 89.9c0-3-2.5-5.5-5.5-5.5s-5.5 2.5-5.5 5.5"/><path class="st2" d="M31.1 9.7c-1.5 75 51.1 76.9 51.1 76.9M144.1 9.7C137.1 89.9 93 86.6 93 86.6"/><path class="st0" d="M74.3 138.5s-3-17.7 8.4-25.4c0 0 8.8 7 7 25M85.9 116.7s-.4-4 4.8-9.2c0 0 8.1 5.9 7.7 19.9"/><circle class="st0" cx="32.5" cy="104.9" r="6.9"/><circle class="st0" cx="32.5" cy="108.2" r="6.9"/><circle class="st0" cx="7.4" cy="118.1" r="6.9"/><circle class="st0" cx="7.4" cy="113.7" r="6.9"/><circle class="st0" cx="7.4" cy="121.4" r="6.9"/><circle class="st0" cx="34.7" cy="135.5" r="4.7"/><circle class="st0" cx="34.7" cy="138.8" r="4.7"/><path class="st3" d="M128.2 135.5l12.2-32.5 3.7 37.7"/><path class="st0" d="M140.4 103l17.6 24.2M135.2 103.3h12"/></svg>