<svg xmlns="http://www.w3.org/2000/svg" width="207.8" height="228.5" viewBox="0 0 207.8 228.5"><style type="text/css">.st0{fill:none;stroke:#8E8E8E;stroke-miterlimit:10;} .st1{fill:#8E8E8E;} .st2{fill:none;stroke:#8E8E8E;stroke-width:3;stroke-miterlimit:10;stroke-dasharray:1,3;} .st3{fill:none;stroke:#8E8E8E;stroke-miterlimit:10;stroke-dasharray:5;} .st4{fill:none;stroke:#8E8E8E;stroke-miterlimit:10;stroke-dasharray:1;}</style><path class="st0" d="M113.2 130h23.5c2.5 0 4.5 2 4.5 4.5v12.1c0 2.5-2 4.5-4.5 4.5h-14c-1.4 0-2.7-.8-3.4-2.1l-3-5.8c-.7-1.3-2-2.1-3.4-2.1H98.1c-1.4 0-2.7.8-3.4 2l-3.1 5.8c-.7 1.2-2 2-3.4 2H68.6c-2.5 0-4.5-2-4.5-4.5v-12.1c0-2.5 2-4.5 4.5-4.5h28.9"/><path class="st0" d="M105.4 183.6H76.2c-2.5 0-4.5-2-4.5-4.5v-16.4c0-2.5 2-4.5 4.5-4.5h29.1c2.5 0 4.5 2 4.5 4.5v16.4c.1 2.5-1.9 4.5-4.4 4.5zM107.7 151h-5.8c-1 0-1.8-.8-1.8-1.8v-3c0-1 .8-1.8 1.8-1.8h5.8c1 0 1.8.8 1.8 1.8v3c-.1 1-.9 1.8-1.8 1.8zM64.2 146.6v35c0 4.2 3.4 7.5 7.5 7.5h61.9c4.2 0 7.5-3.4 7.5-7.5v-35"/><circle class="st0" cx="120.6" cy="162.4" r="4.4"/><circle class="st0" cx="131.8" cy="162.4" r="4.4"/><path class="st0" d="M95 142.6l2.8-12.1c.4-1.6 1.8-2.8 3.5-2.8h8.4c1.7 0 3.2 1.2 3.5 2.8l2.6 12M123.8 61.1c.1-2.7 2.4-4.8 5-4.7 2.7.1 4.8 2.4 4.7 5M130.8 54.6l2.7-6.5M135.4 58.4l5.5-2.2M121 58.6l-6.4-2.6M124.9 54.1l-2.3-5.5"/><path class="st0" d="M79.8 55.6l-7.3 17H88zM88 72.6h21.5L94.2 46.8l-10 17.3M90.3 53.6l3.1 4.3 2.1-4.3 3.9 2"/><path class="st0" d="M63.5 41.1H63c-.6-1.4-1.9-2.4-3.5-2.4s-2.9.9-3.5 2.3c-1.5 0-2.7 1.2-2.7 2.7 0 1.5 1.2 2.7 2.7 2.7.6 0 1.1-.2 1.6-.5.6.3 1.2.5 1.9.5.8 0 1.6-.3 2.2-.7.5.4 1.1.7 1.8.7 1.5 0 2.7-1.2 2.7-2.7 0-1.4-1.2-2.6-2.7-2.6z"/><path class="st1" d="M72 73.1l-14.7.3 16.5-4.3z"/><path class="st0" d="M77 62.6H13M103 61.6h88M129 162.6h5M118 162.6h5M120.5 160.1v5"/><path class="st2" d="M86.8 215.3c-36.1-7-64.9-34.5-73.7-70M197.2 143.8c-8.5 36.7-38.4 65.2-75.8 71.8"/><circle class="st0" cx="103.8" cy="216.9" r="7.2"/><path class="st0" d="M98.5 222.1l-7.5 6"/><path class="st1" d="M3.5 150.3v2.8h2.7v.7H3.5v2.8h-.8v-2.8H0v-.7h2.7v-2.8h.8zM207.8 150v.8h-3v-.8h3z"/><path class="st3" d="M89 128.1l-83-95M206 33.1l-83 95"/><path class="st4" d="M12.5 34.1c1.5-2 83.5-47 188-1"/><path class="st1" d="M86.7 5.9L90.2.8H87V.1h4.2v.5l-3.4 5h3.5v.7h-4.5v-.4zM96.1 4.1c0 1.7-1.1 2.4-2.2 2.4-1.2 0-2.1-.9-2.1-2.3 0-1.5 1-2.4 2.2-2.4 1.3 0 2.1.9 2.1 2.3zm-3.5 0c0 1 .6 1.7 1.4 1.7.8 0 1.4-.7 1.4-1.7 0-.8-.4-1.7-1.3-1.7-1.1 0-1.5.9-1.5 1.7zM101.2 4.1c0 1.7-1.1 2.4-2.2 2.4-1.2 0-2.1-.9-2.1-2.3 0-1.5 1-2.4 2.2-2.4 1.2 0 2.1.9 2.1 2.3zm-3.6 0c0 1 .6 1.7 1.4 1.7.8 0 1.4-.7 1.4-1.7 0-.8-.4-1.7-1.3-1.7-1 0-1.5.9-1.5 1.7zM102.2 3.1V1.9h.7v.7c.2-.4.7-.8 1.4-.8.6 0 1.1.4 1.3.9.1-.2.3-.4.5-.6.3-.2.6-.3 1-.3.6 0 1.5.4 1.5 1.9v2.6h-.8V3.8c0-.9-.3-1.4-1-1.4-.5 0-.8.3-1 .7 0 .1-.1.3-.1.4v2.8h-.7V3.7c0-.7-.3-1.2-.9-1.2-.5 0-.9.4-1 .8 0 .1-.1.3-.1.4v2.7h-.8V3.1zM117.2 3.2c0 2.1-1.3 3.3-2.9 3.3-1.6 0-2.8-1.3-2.8-3.2 0-2 1.2-3.3 2.9-3.3s2.8 1.3 2.8 3.2zm-4.8.1c0 1.3.7 2.5 2 2.5s2-1.2 2-2.6c0-1.2-.6-2.5-2-2.5-1.3 0-2 1.2-2 2.6zM122 5.1v1.2h-.7v-.7c-.2.4-.7.8-1.5.8-.7 0-1.5-.4-1.5-2V1.9h.8v2.5c0 .9.3 1.4 1 1.4.5 0 .9-.4 1.1-.7 0-.1.1-.3.1-.4V1.9h.8v3.2zM124.3.6v1.3h1.2v.6h-1.2v2.4c0 .6.2.9.6.9.2 0 .4 0 .5-.1v.6c-.2.1-.4.1-.7.1-.4 0-.7-.1-.9-.3-.2-.2-.3-.6-.3-1.2V2.5h-.7v-.6h.7V.8l.8-.2zM88.7 27.4l3.5-5.1H89v-.7h4.2v.5l-3.4 5h3.5v.7h-4.5v-.4zM98.1 25.6c0 1.7-1.1 2.4-2.2 2.4-1.2 0-2.1-.9-2.1-2.3 0-1.5 1-2.4 2.2-2.4 1.3 0 2.1.9 2.1 2.3zm-3.5 0c0 1 .6 1.7 1.4 1.7.8 0 1.4-.7 1.4-1.7 0-.8-.4-1.7-1.3-1.7-1.1 0-1.5.9-1.5 1.7zM103.2 25.6c0 1.7-1.1 2.4-2.2 2.4-1.2 0-2.1-.9-2.1-2.3 0-1.5 1-2.4 2.2-2.4 1.2 0 2.1.9 2.1 2.3zm-3.6 0c0 1 .6 1.7 1.4 1.7.8 0 1.4-.7 1.4-1.7 0-.8-.4-1.7-1.3-1.7-1 0-1.5.9-1.5 1.7zM104.2 24.6v-1.2h.7v.7c.2-.4.7-.8 1.4-.8.6 0 1.1.4 1.3.9.1-.2.3-.4.5-.6.3-.2.6-.3 1-.3.6 0 1.5.4 1.5 1.9v2.6h-.8v-2.5c0-.9-.3-1.4-1-1.4-.5 0-.8.3-1 .7 0 .1-.1.3-.1.4v2.8h-.7v-2.7c0-.7-.3-1.2-.9-1.2-.5 0-.9.4-1 .8 0 .1-.1.3-.1.4v2.7h-.8v-3.2zM114.7 21.6v6.2h-.8v-6.2h.8zM116.2 24.6v-1.2h.7v.7c.2-.4.7-.8 1.5-.8.6 0 1.6.4 1.6 1.9v2.7h-.8v-2.6c0-.7-.3-1.3-1-1.3-.5 0-1 .4-1.1.8 0 .1-.1.2-.1.4v2.7h-.8v-3.3z"/><path class="st3" d="M94.5 126.6L70 37.6M141.5 37.6l-24.5 89"/><path class="st4" d="M74 39.6s33-13.5 63 0"/></svg>