<svg xmlns="http://www.w3.org/2000/svg" width="180.9" height="205.5" viewBox="0 0 180.9 205.5"><style type="text/css">.st0{fill:none;stroke:#8E8E8E;stroke-miterlimit:10;} .st1{fill:none;stroke:#8E8E8E;stroke-width:3;stroke-miterlimit:10;stroke-dasharray:1,3;} .st2{fill:#8E8E8E;} .st3{fill:none;stroke:#8E8E8E;stroke-miterlimit:10;stroke-dasharray:5;}</style><path class="st0" d="M90.9 137.4h23.5c2.5 0 4.5 2 4.5 4.5V154c0 2.5-2 4.5-4.5 4.5h-14c-1.4 0-2.7-.8-3.4-2.1l-3-5.8c-.7-1.3-2-2.1-3.4-2.1H75.8c-1.4 0-2.7.8-3.4 2l-3.1 5.8c-.7 1.2-2 2-3.4 2H46.4c-2.5 0-4.5-2-4.5-4.5v-12.1c0-2.5 2-4.5 4.5-4.5h28.9"/><path class="st0" d="M83.1 188.5H57.3c-2.5 0-4.5-2-4.5-4.5v-13.9c0-2.5 2-4.5 4.5-4.5h25.8c2.5 0 4.5 2 4.5 4.5V184c0 2.5-2 4.5-4.5 4.5zM85.4 158.4h-5.8c-1 0-1.8-.8-1.8-1.8v-3c0-1 .8-1.8 1.8-1.8h5.8c1 0 1.8.8 1.8 1.8v3c0 1-.8 1.8-1.8 1.8zM41.9 154v35c0 4.2 3.4 7.5 7.5 7.5h61.9c4.2 0 7.5-3.4 7.5-7.5v-35"/><circle class="st0" cx="103.4" cy="177.3" r="7.3"/><path class="st0" d="M72.7 150l2.8-12.1c.4-1.6 1.8-2.8 3.5-2.8h8.4c1.7 0 3.2 1.2 3.5 2.8l2.6 12"/><path class="st1" d="M161.9 189.5c8.1-18.8 10.1-40.2 4.8-61"/><path class="st2" d="M163 106.8l-9.4 4.3-.5-1.2 9.4-4.3.5 1.2zM155.9 112.4c-.1.7 0 1.6.4 2.5.6 1.2 1.5 1.7 2.5 1.2.9-.4 1.2-1.1 1.1-2.6-.2-1.8.2-3.1 1.5-3.7 1.5-.7 3.1.1 3.9 1.9.4 1 .5 1.8.5 2.3l-1.1.1c0-.4 0-1.1-.4-2-.6-1.3-1.6-1.4-2.2-1.1-.9.4-1.1 1.2-1 2.7.1 1.9-.3 3-1.7 3.7-1.5.7-3.2.2-4.2-2.1-.4-.9-.6-2-.5-2.7l1.2-.2zM166.1 125.9c-3.2 1.5-5.8.3-6.9-2.1-1.1-2.5 0-5.1 2.9-6.4 3-1.4 5.8-.4 6.9 2.1 1.1 2.6-.1 5.2-2.9 6.4zm-3.5-7.2c-2 .9-3.3 2.8-2.5 4.7.9 1.9 3.1 2.2 5.3 1.2 1.9-.8 3.4-2.7 2.5-4.7-.9-2-3.2-2.1-5.3-1.2zM180 179.8l-.2-1.5.8.1.3 1.9-.3.8-7.3-2.7.4-1 6.3 2.4zM174.2 187.3c-2.5-.9-3.5-2.4-2.9-4 .5-1.4 2.2-1.9 4.7-1 2.5.9 3.4 2.5 2.9 4-.7 1.5-2.4 1.9-4.7 1zm1.3-4c-1.9-.7-3.2-.5-3.5.4-.4 1 .6 1.9 2.5 2.6 1.8.7 3.2.6 3.5-.4.3-.8-.5-1.9-2.5-2.6zM172 193.1c-2.5-.9-3.5-2.4-2.9-4 .5-1.4 2.2-1.9 4.7-1 2.5.9 3.4 2.5 2.9 4-.7 1.5-2.3 1.9-4.7 1zm1.4-4c-1.9-.7-3.2-.5-3.5.4-.4 1 .6 1.9 2.5 2.6 1.8.7 3.2.6 3.5-.4.3-.9-.5-1.9-2.5-2.6z"/><path class="st0" d="M53.2 28.5h-.5c-.6-1.4-1.9-2.4-3.5-2.4s-2.9.9-3.5 2.3c-1.5 0-2.7 1.2-2.7 2.7 0 1.5 1.2 2.7 2.7 2.7.6 0 1.1-.2 1.6-.5.6.3 1.2.5 1.9.5.8 0 1.6-.3 2.2-.7.5.4 1.1.7 1.8.7 1.5 0 2.7-1.2 2.7-2.7 0-1.4-1.2-2.6-2.7-2.6z"/><path class="st3" d="M68.8 128.5L23.8 62M99.8 129.2l41-66.2"/><path class="st0" d="M37.7 141.3l-.4 53.2c0 5.8 4.7 10.5 10.5 10.5h66.9c5.8 0 10.5-4.7 10.5-10.5l-.4-53c0-5.8-4.7-10.4-10.5-10.4-16.7 0-49.3.1-66.1-.2-5.7-.1-10.5 4.6-10.5 10.4zM.1 57.2c11-2 10.7-5.3 20.3-6.3s12.7 8 20.7 7.7c8-.3 11.7-8 20.3-8s9.7 7.7 21 7.3 8.7-6.7 20.3-6.7 7.7 6 18 5.3c10.3-.7 14.3-6 20.7-6s14 8.3 19 7.7"/><ellipse transform="matrix(.291 -.957 .957 .291 72.537 125.937)" class="st0" cx="121.3" cy="14" rx="4.9" ry="4.9"/><path class="st0" d="M123.4 6.8l2.1-6.7M128.4 10.2l5.2-2.8M128.4 16.2l6.7 2M125.1 21.1l2.8 5.3M119.1 21.2l-2.1 6.7M114.1 17.8l-5.2 2.8M114.1 11.8l-6.7-2M117.5 6.9l-2.8-5.2"/><path class="st0" d="M59.1 83.5s9.7-10 21.7.3c0 .1-9.7 8.7-21.7-.3zM54.8 80.5l4.3 3-5 3.4"/><path class="st0" d="M116.8 69.3s-7-7.2-15.7.2c0 .1 7 6.3 15.7-.2zM119.9 67.1l-3.1 2.2 3.6 2.4"/></svg>