<svg xmlns="http://www.w3.org/2000/svg" width="200.8" height="228.4" viewBox="0 0 200.8 228.4"><style type="text/css">.st0{fill:none;stroke:#8E8E8E;stroke-miterlimit:10;} .st1{fill:#8E8E8E;} .st2{fill:none;stroke:#8E8E8E;stroke-miterlimit:10;stroke-dasharray:5;} .st3{fill:none;stroke:#8E8E8E;stroke-miterlimit:10;stroke-dasharray:1;}</style><path class="st0" d="M107.5 168.8H131c2.5 0 4.5 2 4.5 4.5v12.1c0 2.5-2 4.5-4.5 4.5h-14c-1.4 0-2.7-.8-3.4-2.1l-3-5.8c-.7-1.3-2-2.1-3.4-2.1H92.4c-1.4 0-2.7.8-3.4 2l-3.1 5.8c-.7 1.2-2 2-3.4 2H63c-2.5 0-4.5-2-4.5-4.5v-12.1c0-2.5 2-4.5 4.5-4.5h28.9"/><path class="st0" d="M99.7 222.5H70.6c-2.5 0-4.5-2-4.5-4.5v-16.4c0-2.5 2-4.5 4.5-4.5h29.1c2.5 0 4.5 2 4.5 4.5V218c.1 2.4-2 4.5-4.5 4.5zM102 189.9h-5.8c-1 0-1.8-.8-1.8-1.8v-3c0-1 .8-1.8 1.8-1.8h5.8c1 0 1.8.8 1.8 1.8v3c0 1-.8 1.8-1.8 1.8zM58.5 185.4v35c0 4.2 3.4 7.5 7.5 7.5h62c4.2 0 7.5-3.4 7.5-7.5v-35"/><circle class="st0" cx="114.9" cy="201.2" r="4.4"/><circle class="st0" cx="126.1" cy="201.2" r="4.4"/><path class="st0" d="M89.4 181.4l2.8-12.1c.4-1.6 1.8-2.8 3.5-2.8h8.4c1.7 0 3.2 1.2 3.5 2.8l2.6 12M130.1 99.9c.1-2.7 2.4-4.8 5-4.7 2.7.1 4.8 2.4 4.7 5M137.2 93.4l2.7-6.5M141.8 97.3l5.5-2.3M127.4 97.5l-6.5-2.7M131.2 92.9l-2.3-5.5"/><path class="st0" d="M74.2 94.5l-7.3 17h15.5zM82.4 111.5h21.5L88.6 85.7 78.5 103M84.7 92.4l3.1 4.3 2.1-4.3 3.9 2.1"/><path class="st0" d="M57.8 79.9h-.5c-.6-1.4-1.9-2.4-3.5-2.4s-2.9.9-3.5 2.3c-1.5 0-2.7 1.2-2.7 2.7 0 1.5 1.2 2.7 2.7 2.7.6 0 1.1-.2 1.6-.5.6.3 1.2.5 1.9.5.8 0 1.6-.3 2.2-.7.5.4 1.1.7 1.8.7 1.5 0 2.7-1.2 2.7-2.7 0-1.4-1.2-2.6-2.7-2.6z"/><path class="st1" d="M66.4 112l-14.8.2 16.5-4.2z"/><path class="st0" d="M71.4 101.5h-64M97.4 100.5h88M123.4 201.5h5M112.4 201.5h5M114.9 199v5"/><path class="st2" d="M83.4 167L.4 72M200.4 72l-83 95"/><ellipse transform="matrix(.291 -.957 .957 .291 16.529 137.235)" class="st0" cx="100.9" cy="57.5" rx="4.9" ry="4.9"/><path class="st0" d="M103.1 50.3l2-6.7M108 53.7l5.2-2.8M108.1 59.6l6.6 2.1M104.7 64.6l2.8 5.2M98.7 64.6l-2 6.7M93.8 61.3l-5.3 2.8M93.7 55.3L87 53.2M97.1 50.3l-2.8-5.2"/><ellipse transform="matrix(.291 -.957 .957 .291 -9.771 73.739)" class="st0" cx="44.9" cy="43.5" rx="4.9" ry="4.9"/><path class="st0" d="M47.1 36.3l2-6.7M52 39.7l5.2-2.8M52.1 45.6l6.6 2.1M48.7 50.6l2.8 5.2M42.7 50.6l-2 6.7M37.8 47.3l-5.3 2.8M37.7 41.3L31 39.2M41.1 36.3l-2.8-5.2"/><path class="st2" d="M.9 24.2s131-42.8 157 70.8"/><path class="st0" d="M152.1 91.9l6.6 6.9 3-8.7"/><path class="st0" d="M92.7 210.1l-12.8 7.3v-14.7z"/><path class="st3" d="M14.8 7.3l6.1 27.3M86.8 6.3l-5.9 27.3M152.4 48.7l-21.1 18.5"/><path class="st1" d="M48.9 1l-1.4.7-.2-.8L49 0h.9v7.8h-1V1zM123 24.5l.4-.5 1.1-.1c2.7-.3 4.1-.5 4.8-1.5.5-.6.6-1.4-.3-2.2-.6-.4-1.2-.5-1.7-.5l.2-.8c.7 0 1.5.2 2.2.7 1.3 1 1.2 2.4.5 3.3-.9 1.1-2.4 1.4-4.7 1.7l-.8.1 2.8 2.1-.5.7-4-3zM162.6 71c-.1.3-.1 1.1.2 1.8.5 1.3 1.5 1.3 2.1 1.1 1-.4 1.1-1.5.7-2.5l-.2-.5.7-.3.2.5c.3.7 1 1.5 1.9 1.1.6-.2.9-.8.6-1.7-.2-.6-.7-1-1.1-1.2l.6-.5c.4.3 1 .9 1.3 1.7.6 1.4 0 2.4-.9 2.8-.7.3-1.6.1-2.2-.6.2 1-.2 2-1.2 2.4-1.2.5-2.5 0-3.2-1.7-.3-.8-.4-1.6-.3-2.1l.8-.3z"/></svg>