<svg xmlns="http://www.w3.org/2000/svg" width="181.4" height="168.3" viewBox="0 0 181.4 168.3"><style type="text/css">.st0{fill:none;stroke:#8E8E8E;stroke-miterlimit:10;} .st1{fill:#8E8E8E;} .st2{fill:none;stroke:#8E8E8E;stroke-miterlimit:10;stroke-dasharray:5;}</style><path class="st0" d="M101.2 108.7h23.5c2.5 0 4.5 2 4.5 4.5v12.1c0 2.5-2 4.5-4.5 4.5h-14c-1.4 0-2.7-.8-3.4-2.1l-3-5.8c-.7-1.3-2-2.1-3.4-2.1H86.1c-1.4 0-2.7.8-3.4 2l-3.1 5.8c-.7 1.2-2 2-3.4 2H56.7c-2.5 0-4.5-2-4.5-4.5V113c0-2.5 2-4.5 4.5-4.5h28.9"/><path class="st0" d="M93.4 162.3H64.3c-2.5 0-4.5-2-4.5-4.5v-16.4c0-2.5 2-4.5 4.5-4.5h29.1c2.5 0 4.5 2 4.5 4.5v16.4c0 2.5-2 4.5-4.5 4.5zM95.7 129.7h-5.8c-1 0-1.8-.8-1.8-1.8v-3c0-1 .8-1.8 1.8-1.8h5.8c1 0 1.8.8 1.8 1.8v3c0 1-.8 1.8-1.8 1.8zM52.2 125.3v35c0 4.2 3.4 7.5 7.5 7.5h61.9c4.2 0 7.5-3.4 7.5-7.5v-35"/><circle class="st0" cx="108.6" cy="141" r="4.4"/><circle class="st0" cx="119.8" cy="141" r="4.4"/><path class="st0" d="M83 121.3l2.8-12.1c.4-1.6 1.8-2.8 3.5-2.8h8.4c1.7 0 3.2 1.2 3.5 2.8l2.6 12M111.8 39.8c.1-2.7 2.4-4.8 5-4.7 2.7.1 4.8 2.4 4.7 5M118.8 33.3l2.7-6.5M123.4 37.1l5.5-2.3M109 37.3l-6.4-2.7M112.9 32.7l-2.3-5.5"/><path class="st0" d="M67.9 34.3l-7.4 17H76zM76 51.3h21.5L82.2 25.5l-10 17.3M78.3 32.2l3.2 4.4 2-4.4 4 2.1"/><path class="st0" d="M51.5 19.8H51c-.6-1.4-1.9-2.4-3.5-2.4s-2.9.9-3.5 2.3c-1.5 0-2.7 1.2-2.7 2.7 0 1.5 1.2 2.7 2.7 2.7.6 0 1.1-.2 1.6-.5.6.3 1.2.5 1.9.5.8 0 1.6-.3 2.2-.7.5.4 1.1.7 1.8.7 1.5 0 2.7-1.2 2.7-2.7s-1.2-2.6-2.7-2.6z"/><path class="st1" d="M60 51.8l-14.7.3 16.5-4.3z"/><path class="st0" d="M65 41.3H1M91 40.3h88M117 141.3h5M106 141.3h5M108.5 138.8v5"/><path class="st2" d="M73.5 90.7L.4 4.1M111 88.7L181 .3"/><path class="st0" d="M143.8 106.6h25.5v32.2h-25.5zM145.8 104.6h25.5v32.2h-25.5zM14.3 137.8h19v24h-19zM15.8 136.3h19v24h-19zM75.5 108.8V91.3h31v17.5M77.5 106.8V89.3h31v17.5"/></svg>