<svg xmlns="http://www.w3.org/2000/svg" width="202.7" height="204.2" viewBox="0 0 202.7 204.2"><style type="text/css">.st0{fill:none;stroke:#8E8E8E;stroke-miterlimit:10;} .st1{fill:none;stroke:#8E8E8E;stroke-width:3;stroke-miterlimit:10;stroke-dasharray:1,3;} .st2{fill:#8E8E8E;} .st3{fill:none;stroke:#8E8E8E;stroke-miterlimit:10;stroke-dasharray:5;}</style><path class="st0" d="M97.1 162.7l-25.5 18.5M111.1 162.7l28 28M105.3 163.8l-4.7 40M65.6 181.7h13M130.6 190.7h13M93.6 203.7h13M112.8 104h23.5c2.5 0 4.5 2 4.5 4.5v12.1c0 2.5-2 4.5-4.5 4.5h-14c-1.4 0-2.7-.8-3.4-2.1l-3-5.8c-.7-1.3-2-2.1-3.4-2.1H97.7c-1.4 0-2.7.8-3.4 2l-3.1 5.8c-.7 1.2-2 2-3.4 2H68.2c-2.5 0-4.5-2-4.5-4.5v-12.1c0-2.5 2-4.5 4.5-4.5h28.9"/><path class="st0" d="M105 155.2H79.1c-2.5 0-4.5-2-4.5-4.5v-13.9c0-2.5 2-4.5 4.5-4.5H105c2.5 0 4.5 2 4.5 4.5v13.9c0 2.4-2 4.5-4.5 4.5zM107.3 125.1h-5.8c-1 0-1.8-.8-1.8-1.8v-3c0-1 .8-1.8 1.8-1.8h5.8c1 0 1.8.8 1.8 1.8v3c0 1-.8 1.8-1.8 1.8zM63.8 120.6v35c0 4.2 3.4 7.5 7.5 7.5h61.9c4.2 0 7.5-3.4 7.5-7.5v-35"/><circle class="st0" cx="125.3" cy="144" r="7.3"/><path class="st0" d="M94.6 116.6l2.8-12.1c.4-1.6 1.8-2.8 3.5-2.8h8.4c1.7 0 3.2 1.2 3.5 2.8l2.6 12M135.4 31.1c.1-2.7 2.4-4.8 5-4.7s4.8 2.4 4.7 5M142.4 24.6l2.7-6.4M147 28.5l5.5-2.3M132.6 28.7l-6.4-2.7M136.5 24.1l-2.3-5.5"/><path class="st0" d="M50 6.3c-.6-2.1 0-4.2 1.4-5.7-.9-.2-1.9-.2-2.8.1-3 .9-4.7 4.1-3.8 7.1.9 3 4.1 4.7 7.1 3.8 1-.3 1.8-.8 2.4-1.5-1.9-.3-3.6-1.8-4.3-3.8zM19.3 170.5c-1.4-2-1.5-4.6-.5-6.7-1.1.1-2.1.5-3.1 1.1-3 2.1-3.7 6.1-1.7 9.1 2.1 3 6.1 3.7 9.1 1.7.9-.6 1.7-1.5 2.1-2.5-2.1.3-4.5-.7-5.9-2.7z"/><path class="st1" d="M183.7 172.1c8.1-18.8 10.1-40.2 4.8-61M31.5 173.1c-8.1-18.8-10.1-40.2-4.8-61"/><path class="st2" d="M184.8 89.5l-9.4 4.3-.5-1.2 9.4-4.3.5 1.2zM177.8 95c-.1.7 0 1.6.4 2.5.6 1.2 1.5 1.7 2.5 1.2.9-.4 1.2-1.1 1.1-2.6-.2-1.8.2-3.1 1.5-3.7 1.5-.7 3.1.1 3.9 1.9.4 1 .5 1.8.5 2.3l-1.1.1c0-.4 0-1.1-.4-2-.6-1.3-1.6-1.4-2.2-1.1-.9.4-1.1 1.2-1 2.7.1 1.9-.3 3-1.7 3.7-1.5.7-3.2.2-4.2-2.1-.4-.9-.6-2-.5-2.7l1.2-.2zM187.9 108.6c-3.2 1.5-5.8.3-6.9-2.1-1.1-2.5 0-5.1 2.9-6.4 3-1.4 5.8-.4 6.9 2.1 1.1 2.6-.1 5.1-2.9 6.4zm-3.4-7.2c-2 .9-3.3 2.8-2.5 4.7.9 1.9 3.1 2.2 5.3 1.2 1.9-.8 3.4-2.7 2.5-4.7-.9-2-3.2-2.2-5.3-1.2zM201.8 162.5l-.2-1.5.8.1.3 1.9-.3.8-7.3-2.7.4-1 6.3 2.4zM196 170c-2.5-.9-3.5-2.4-2.9-4 .5-1.4 2.2-1.9 4.7-1 2.5.9 3.4 2.5 2.9 4-.6 1.5-2.3 1.8-4.7 1zm1.4-4c-1.9-.7-3.2-.5-3.5.4-.4 1 .6 1.9 2.5 2.6 1.8.7 3.2.6 3.5-.4.3-.9-.5-1.9-2.5-2.6zM193.9 175.7c-2.5-.9-3.5-2.4-2.9-4 .5-1.4 2.2-1.9 4.7-1 2.5.9 3.4 2.5 2.9 4-.7 1.5-2.4 1.9-4.7 1zm1.4-4c-1.9-.7-3.2-.5-3.5.4-.4 1 .6 1.9 2.5 2.6 1.8.7 3.2.6 3.5-.4.3-.8-.6-1.8-2.5-2.6z"/><path class="st0" d="M91.4 25.7l-7.3 17h15.5zM99.6 42.7h21.5l-15.3-25.8-10 17.3M101.9 23.6l3.1 4.3 2.1-4.3 3.9 2.1"/><path class="st0" d="M75.1 11.1h-.5c-.6-1.4-1.9-2.4-3.5-2.4s-2.9.9-3.5 2.3c-1.5 0-2.7 1.2-2.7 2.7 0 1.5 1.2 2.7 2.7 2.7.6 0 1.1-.2 1.6-.5.6.3 1.2.5 1.9.5.8 0 1.6-.3 2.2-.7.5.4 1.1.7 1.8.7 1.5 0 2.7-1.2 2.7-2.7s-1.2-2.6-2.7-2.6z"/><path class="st2" d="M83.6 43.2l-14.7.2 16.5-4.2z"/><path class="st0" d="M88.6 32.7h-64M114.6 31.7h58"/><path class="st3" d="M81.3 95.5L29.6 12.2M123.3 95.5l49.8-86.8"/><path class="st2" d="M29.6 103.1c-.8-.3-1.8-.6-2.5-.9.6.5 1.2 1 1.9 1.6l2.4 2.1-.2.6-3.1-.1c-.9 0-1.8-.1-2.5-.2.7.3 1.7.7 2.5 1.1l2.4 1.1-.3.7-5.6-2.7.4-1 3.2.1c.8 0 1.5.1 2.2.2-.5-.4-1.1-.8-1.7-1.4l-2.4-2.1.4-1 5.9 1.9-.3.7-2.7-.7zM32.3 97.4c1.5.6 1.8 1.9 1.4 2.9-.4 1.1-1.6 1.7-2.9 1.2-1.4-.5-1.9-1.8-1.4-2.9.5-1.2 1.7-1.6 2.9-1.2zm-1.2 3.4c.9.4 1.8.1 2.1-.6.3-.7-.2-1.5-1.1-1.9-.8-.3-1.8-.3-2.1.6-.4.9.3 1.6 1.1 1.9zM30.1 91.3l5 2c.4.1.8.3 1.1.4l-.2.7-.7-.2c.4.4.5 1.1.3 1.7-.4 1-1.5 1.5-2.8 1-1.4-.5-1.9-1.7-1.5-2.7.2-.6.7-1 1.1-1l-2.5-1 .2-.9zm3.3 2.2c-.1 0-.2-.1-.3-.1-.5-.1-1.1.2-1.3.8-.3.8.2 1.5 1.1 1.8.8.3 1.7.2 2-.6.2-.5 0-1.1-.5-1.5-.1-.1-.2-.1-.3-.2l-.7-.2zM34.9 91.3c1 .4 1.7-.1 2-.9.2-.5.2-.9.2-1.2l.6.1c0 .3 0 .8-.3 1.5-.4 1.2-1.6 1.7-2.8 1.2-1.3-.5-2-1.6-1.5-2.8.5-1.4 1.9-1.3 2.6-1 .2.1.3.1.3.2l-1.1 2.9zm.3-2.5c-.5-.2-1.3-.3-1.6.6-.3.8.3 1.4.8 1.6l.8-2.2z"/><path class="st0" d="M5 163l2.4-1.3-.4 2.7 1.9 1.9-2.7.4-1.2 2.5-1.2-2.5-2.7-.4 1.9-1.9-.4-2.7z"/></svg>