<svg xmlns="http://www.w3.org/2000/svg" width="242" height="282.5" viewBox="0 0 242 282.5"><style type="text/css">.st0{fill:none;stroke:#8E8E8E;stroke-miterlimit:10;} .st1{fill:none;stroke:#8E8E8E;stroke-miterlimit:10;stroke-dasharray:3;}</style><path class="st0" d="M131.4 123.1H157c2.7 0 4.9 2.2 4.9 4.9v13.1c0 2.7-2.2 4.9-4.9 4.9h-15.2c-1.5 0-3-.9-3.7-2.2l-3.2-6.3c-.7-1.4-2.1-2.2-3.7-2.2H115c-1.5 0-2.9.8-3.7 2.2l-3.4 6.3c-.7 1.4-2.1 2.2-3.7 2.2H83c-2.7 0-4.9-2.2-4.9-4.9V128c0-2.7 2.2-4.9 4.9-4.9h31.4"/><path class="st0" d="M123.3 178.7H94.4c-2.5 0-4.5-2-4.5-4.5v-15.9c0-2.5 2-4.5 4.5-4.5h28.9c2.5 0 4.5 2 4.5 4.5v15.9c.1 2.5-2 4.5-4.5 4.5zM125.6 146H119c-1 0-1.8-.8-1.8-1.8v-3.6c0-1 .8-1.8 1.8-1.8h6.6c1 0 1.8.8 1.8 1.8v3.6c0 1-.8 1.8-1.8 1.8zM78.1 141.2v38c0 4.5 3.7 8.2 8.2 8.2h67.3c4.5 0 8.2-3.7 8.2-8.2v-38"/><circle class="st0" cx="145" cy="166.5" r="8"/><path class="st0" d="M111.7 136.8l3.1-13.1c.4-1.8 2-3 3.8-3h9.2c1.8 0 3.4 1.3 3.8 3.1l2.8 13M120.1 107"/><path class="st0" d="M98.8 50l-7.3 17H107zM107 67h21.5l-15.3-25.8-10 17.3M109.3 47.9l3.1 4.3 2.1-4.3 3.9 2.1"/><path class="st0" d="M153.8 72.7c0-1.8-1.5-3.3-3.3-3.3-1.6 0-3 1.2-3.2 2.8-1.3.2-2.3 1.3-2.3 2.7 0 1.5 1.2 2.8 2.8 2.8h.1c.3 1.2 1.4 2 2.6 2 1.5 0 2.8-1.2 2.8-2.8 0-.7-.2-1.3-.6-1.8.6-.5 1.1-1.4 1.1-2.4zM150.8 85.5l-.1-5.5M0 57h96M122 56h120"/><path class="st0" d="M87 82h8l2.5 4h6v4h-22v-4.5zM81 86h16M89.6 89.9c0 1.4-1.2 2.6-2.6 2.6s-2.6-1.2-2.6-2.6M101.9 89.9c0 1.4-1.2 2.6-2.6 2.6s-2.6-1.2-2.6-2.6"/><path class="st0" d="M221.7 20.1c-.3 0-.6 0-.9.1-1.2-2.8-3.9-4.7-7.1-4.7-3.1 0-5.8 1.9-7 4.6-3 0-5.4 2.4-5.4 5.4 0 3 2.4 5.4 5.4 5.4 1.2 0 2.3-.4 3.2-1.1 1.1.7 2.5 1.1 3.9 1.1 1.6 0 3.2-.5 4.4-1.4 1 .9 2.2 1.4 3.6 1.4 3 0 5.4-2.4 5.4-5.4s-2.6-5.4-5.5-5.4zM176.7 29.1c-.3 0-.6 0-.9.1-1.2-2.8-3.9-4.7-7.1-4.7-3.1 0-5.8 1.9-7 4.6-3 0-5.4 2.4-5.4 5.4 0 3 2.4 5.4 5.4 5.4 1.2 0 2.3-.4 3.2-1.1 1.1.7 2.5 1.1 3.9 1.1 1.6 0 3.2-.5 4.4-1.4 1 .9 2.2 1.4 3.6 1.4 3 0 5.4-2.4 5.4-5.4s-2.6-5.4-5.5-5.4zM129.9 15.7c-.2 0-.4 0-.5.1-.7-1.6-2.2-2.7-4.1-2.7-1.8 0-3.4 1.1-4.1 2.7-1.7 0-3.1 1.4-3.1 3.1 0 1.7 1.4 3.1 3.1 3.1.7 0 1.3-.2 1.8-.6.7.4 1.4.6 2.2.6.9 0 1.8-.3 2.5-.8.5.5 1.3.8 2.1.8 1.7 0 3.1-1.4 3.1-3.1s-1.3-3.2-3-3.2zM139.6 40.9h-.4c-.5-1.3-1.8-2.2-3.3-2.2-1.4 0-2.7.9-3.2 2.1-1.4 0-2.5 1.1-2.5 2.5s1.1 2.5 2.5 2.5c.5 0 1-.2 1.5-.5.5.3 1.1.5 1.8.5.8 0 1.5-.2 2-.6.4.4 1 .6 1.6.6 1.4 0 2.5-1.1 2.5-2.5-.1-1.3-1.2-2.4-2.5-2.4zM76.7 28.1c-.3 0-.6 0-.9.1-1.2-2.8-3.9-4.7-7.1-4.7-3.1 0-5.8 1.9-7 4.6-3 0-5.4 2.4-5.4 5.4 0 3 2.4 5.4 5.4 5.4 1.2 0 2.3-.4 3.2-1.1 1.1.7 2.5 1.1 3.9 1.1 1.6 0 3.2-.5 4.4-1.4 1 .9 2.2 1.4 3.6 1.4 3 0 5.4-2.4 5.4-5.4s-2.6-5.4-5.5-5.4zM51 3.6c-.2 0-.4 0-.6.1-.8-1.9-2.6-3.2-4.8-3.2-2.1 0-3.9 1.3-4.7 3.1-2 0-3.6 1.6-3.6 3.6s1.6 3.6 3.6 3.6c.8 0 1.5-.3 2.1-.7.8.4 1.7.7 2.6.7 1.1 0 2.1-.4 3-.9.6.6 1.5.9 2.4.9 2 0 3.6-1.6 3.6-3.6S53 3.6 51 3.6zM22 32.6c-.2 0-.4 0-.6.1-.8-1.9-2.6-3.2-4.8-3.2-2.1 0-3.9 1.3-4.7 3.1-2 0-3.6 1.6-3.6 3.6s1.6 3.6 3.6 3.6c.8 0 1.5-.3 2.1-.7.8.4 1.7.7 2.6.7 1.1 0 2.1-.4 3-.9.6.6 1.5.9 2.4.9 2 0 3.6-1.6 3.6-3.6S24 32.6 22 32.6z"/><path class="st1" d="M207 34l-9.5 15.5M214 34l-9.5 15.5M220 34l-9.5 15.5"/><path class="st0" d="M94 163h29M100.5 159.5v8M94 172h29M112.5 168.5v8M112.5 188.5V201h14v-13.5M112.5 201L67 246.5M126.5 201l48 48M120.7 202.2l15.3 80M61 246h13M166 249h13M129 282h13"/></svg>